%TF.GenerationSoftware,KiCad,Pcbnew,5.1.6-c6e7f7d~87~ubuntu16.04.1*%
%TF.CreationDate,2022-03-08T12:56:54-05:00*%
%TF.ProjectId,serial,73657269-616c-42e6-9b69-6361645f7063,rev?*%
%TF.SameCoordinates,Original*%
%TF.FileFunction,Legend,Top*%
%TF.FilePolarity,Positive*%
%FSLAX46Y46*%
G04 Gerber Fmt 4.6, Leading zero omitted, Abs format (unit mm)*
G04 Created by KiCad (PCBNEW 5.1.6-c6e7f7d~87~ubuntu16.04.1) date 2022-03-08 12:56:54*
%MOMM*%
%LPD*%
G01*
G04 APERTURE LIST*
%ADD10C,0.120000*%
%ADD11C,0.150000*%
G04 APERTURE END LIST*
D10*
%TO.C,U5*%
X133230000Y-12640000D02*
X133230000Y-22920000D01*
X151250000Y-12640000D02*
X133230000Y-12640000D01*
X151250000Y-22920000D02*
X151250000Y-12640000D01*
X133230000Y-22920000D02*
X151250000Y-22920000D01*
X133290000Y-15130000D02*
X133290000Y-16780000D01*
X151190000Y-15130000D02*
X133290000Y-15130000D01*
X151190000Y-20430000D02*
X151190000Y-15130000D01*
X133290000Y-20430000D02*
X151190000Y-20430000D01*
X133290000Y-18780000D02*
X133290000Y-20430000D01*
X133290000Y-16780000D02*
G75*
G02*
X133290000Y-18780000I0J-1000000D01*
G01*
%TO.C,U4*%
X106560000Y-12640000D02*
X106560000Y-22920000D01*
X124580000Y-12640000D02*
X106560000Y-12640000D01*
X124580000Y-22920000D02*
X124580000Y-12640000D01*
X106560000Y-22920000D02*
X124580000Y-22920000D01*
X106620000Y-15130000D02*
X106620000Y-16780000D01*
X124520000Y-15130000D02*
X106620000Y-15130000D01*
X124520000Y-20430000D02*
X124520000Y-15130000D01*
X106620000Y-20430000D02*
X124520000Y-20430000D01*
X106620000Y-18780000D02*
X106620000Y-20430000D01*
X106620000Y-16780000D02*
G75*
G02*
X106620000Y-18780000I0J-1000000D01*
G01*
%TO.C,Y1*%
X139250000Y-65460000D02*
X143950000Y-65460000D01*
X139250000Y-69160000D02*
X143950000Y-69160000D01*
X143950000Y-69160000D02*
G75*
G03*
X143950000Y-65460000I0J1850000D01*
G01*
X139250000Y-69160000D02*
G75*
G02*
X139250000Y-65460000I0J1850000D01*
G01*
%TO.C,U14*%
X77410000Y-41640000D02*
X77410000Y-43290000D01*
X77410000Y-43290000D02*
X95310000Y-43290000D01*
X95310000Y-43290000D02*
X95310000Y-37990000D01*
X95310000Y-37990000D02*
X77410000Y-37990000D01*
X77410000Y-37990000D02*
X77410000Y-39640000D01*
X77350000Y-45780000D02*
X95370000Y-45780000D01*
X95370000Y-45780000D02*
X95370000Y-35500000D01*
X95370000Y-35500000D02*
X77350000Y-35500000D01*
X77350000Y-35500000D02*
X77350000Y-45780000D01*
X77410000Y-39640000D02*
G75*
G02*
X77410000Y-41640000I0J-1000000D01*
G01*
%TO.C,U13*%
X53280000Y-41640000D02*
X53280000Y-43290000D01*
X53280000Y-43290000D02*
X71180000Y-43290000D01*
X71180000Y-43290000D02*
X71180000Y-37990000D01*
X71180000Y-37990000D02*
X53280000Y-37990000D01*
X53280000Y-37990000D02*
X53280000Y-39640000D01*
X53220000Y-45780000D02*
X71240000Y-45780000D01*
X71240000Y-45780000D02*
X71240000Y-35500000D01*
X71240000Y-35500000D02*
X53220000Y-35500000D01*
X53220000Y-35500000D02*
X53220000Y-45780000D01*
X53280000Y-39640000D02*
G75*
G02*
X53280000Y-41640000I0J-1000000D01*
G01*
%TO.C,U12*%
X29150000Y-41640000D02*
X29150000Y-43290000D01*
X29150000Y-43290000D02*
X47050000Y-43290000D01*
X47050000Y-43290000D02*
X47050000Y-37990000D01*
X47050000Y-37990000D02*
X29150000Y-37990000D01*
X29150000Y-37990000D02*
X29150000Y-39640000D01*
X29090000Y-45780000D02*
X47110000Y-45780000D01*
X47110000Y-45780000D02*
X47110000Y-35500000D01*
X47110000Y-35500000D02*
X29090000Y-35500000D01*
X29090000Y-35500000D02*
X29090000Y-45780000D01*
X29150000Y-39640000D02*
G75*
G02*
X29150000Y-41640000I0J-1000000D01*
G01*
%TO.C,U11*%
X5020000Y-41640000D02*
X5020000Y-43290000D01*
X5020000Y-43290000D02*
X22920000Y-43290000D01*
X22920000Y-43290000D02*
X22920000Y-37990000D01*
X22920000Y-37990000D02*
X5020000Y-37990000D01*
X5020000Y-37990000D02*
X5020000Y-39640000D01*
X4960000Y-45780000D02*
X22980000Y-45780000D01*
X22980000Y-45780000D02*
X22980000Y-35500000D01*
X22980000Y-35500000D02*
X4960000Y-35500000D01*
X4960000Y-35500000D02*
X4960000Y-45780000D01*
X5020000Y-39640000D02*
G75*
G02*
X5020000Y-41640000I0J-1000000D01*
G01*
%TO.C,U10*%
X149800000Y-41640000D02*
X149800000Y-43290000D01*
X149800000Y-43290000D02*
X170240000Y-43290000D01*
X170240000Y-43290000D02*
X170240000Y-37990000D01*
X170240000Y-37990000D02*
X149800000Y-37990000D01*
X149800000Y-37990000D02*
X149800000Y-39640000D01*
X149740000Y-45780000D02*
X170300000Y-45780000D01*
X170300000Y-45780000D02*
X170300000Y-35500000D01*
X170300000Y-35500000D02*
X149740000Y-35500000D01*
X149740000Y-35500000D02*
X149740000Y-45780000D01*
X149800000Y-39640000D02*
G75*
G02*
X149800000Y-41640000I0J-1000000D01*
G01*
%TO.C,U9*%
X149800000Y-68310000D02*
X149800000Y-69960000D01*
X149800000Y-69960000D02*
X170240000Y-69960000D01*
X170240000Y-69960000D02*
X170240000Y-64660000D01*
X170240000Y-64660000D02*
X149800000Y-64660000D01*
X149800000Y-64660000D02*
X149800000Y-66310000D01*
X149740000Y-72450000D02*
X170300000Y-72450000D01*
X170300000Y-72450000D02*
X170300000Y-62170000D01*
X170300000Y-62170000D02*
X149740000Y-62170000D01*
X149740000Y-62170000D02*
X149740000Y-72450000D01*
X149800000Y-66310000D02*
G75*
G02*
X149800000Y-68310000I0J-1000000D01*
G01*
%TO.C,U8*%
X125670000Y-41640000D02*
X125670000Y-43290000D01*
X125670000Y-43290000D02*
X143570000Y-43290000D01*
X143570000Y-43290000D02*
X143570000Y-37990000D01*
X143570000Y-37990000D02*
X125670000Y-37990000D01*
X125670000Y-37990000D02*
X125670000Y-39640000D01*
X125610000Y-45780000D02*
X143630000Y-45780000D01*
X143630000Y-45780000D02*
X143630000Y-35500000D01*
X143630000Y-35500000D02*
X125610000Y-35500000D01*
X125610000Y-35500000D02*
X125610000Y-45780000D01*
X125670000Y-39640000D02*
G75*
G02*
X125670000Y-41640000I0J-1000000D01*
G01*
%TO.C,U7*%
X101540000Y-41640000D02*
X101540000Y-43290000D01*
X101540000Y-43290000D02*
X119440000Y-43290000D01*
X119440000Y-43290000D02*
X119440000Y-37990000D01*
X119440000Y-37990000D02*
X101540000Y-37990000D01*
X101540000Y-37990000D02*
X101540000Y-39640000D01*
X101480000Y-45780000D02*
X119500000Y-45780000D01*
X119500000Y-45780000D02*
X119500000Y-35500000D01*
X119500000Y-35500000D02*
X101480000Y-35500000D01*
X101480000Y-35500000D02*
X101480000Y-45780000D01*
X101540000Y-39640000D02*
G75*
G02*
X101540000Y-41640000I0J-1000000D01*
G01*
%TO.C,U6*%
X159960000Y-18780000D02*
X159960000Y-20430000D01*
X159960000Y-20430000D02*
X177860000Y-20430000D01*
X177860000Y-20430000D02*
X177860000Y-15130000D01*
X177860000Y-15130000D02*
X159960000Y-15130000D01*
X159960000Y-15130000D02*
X159960000Y-16780000D01*
X159900000Y-22920000D02*
X177920000Y-22920000D01*
X177920000Y-22920000D02*
X177920000Y-12640000D01*
X177920000Y-12640000D02*
X159900000Y-12640000D01*
X159900000Y-12640000D02*
X159900000Y-22920000D01*
X159960000Y-16780000D02*
G75*
G02*
X159960000Y-18780000I0J-1000000D01*
G01*
%TO.C,U3*%
X82490000Y-18780000D02*
X82490000Y-20430000D01*
X82490000Y-20430000D02*
X100390000Y-20430000D01*
X100390000Y-20430000D02*
X100390000Y-15130000D01*
X100390000Y-15130000D02*
X82490000Y-15130000D01*
X82490000Y-15130000D02*
X82490000Y-16780000D01*
X82430000Y-22920000D02*
X100450000Y-22920000D01*
X100450000Y-22920000D02*
X100450000Y-12640000D01*
X100450000Y-12640000D02*
X82430000Y-12640000D01*
X82430000Y-12640000D02*
X82430000Y-22920000D01*
X82490000Y-16780000D02*
G75*
G02*
X82490000Y-18780000I0J-1000000D01*
G01*
%TO.C,U2*%
X55820000Y-18780000D02*
X55820000Y-20430000D01*
X55820000Y-20430000D02*
X76260000Y-20430000D01*
X76260000Y-20430000D02*
X76260000Y-15130000D01*
X76260000Y-15130000D02*
X55820000Y-15130000D01*
X55820000Y-15130000D02*
X55820000Y-16780000D01*
X55760000Y-22920000D02*
X76320000Y-22920000D01*
X76320000Y-22920000D02*
X76320000Y-12640000D01*
X76320000Y-12640000D02*
X55760000Y-12640000D01*
X55760000Y-12640000D02*
X55760000Y-22920000D01*
X55820000Y-16780000D02*
G75*
G02*
X55820000Y-18780000I0J-1000000D01*
G01*
%TO.C,U1*%
X29150000Y-18780000D02*
X29150000Y-20430000D01*
X29150000Y-20430000D02*
X49590000Y-20430000D01*
X49590000Y-20430000D02*
X49590000Y-15130000D01*
X49590000Y-15130000D02*
X29150000Y-15130000D01*
X29150000Y-15130000D02*
X29150000Y-16780000D01*
X29090000Y-22920000D02*
X49650000Y-22920000D01*
X49650000Y-22920000D02*
X49650000Y-12640000D01*
X49650000Y-12640000D02*
X29090000Y-12640000D01*
X29090000Y-12640000D02*
X29090000Y-22920000D01*
X29150000Y-16780000D02*
G75*
G02*
X29150000Y-18780000I0J-1000000D01*
G01*
%TO.C,SW3*%
X170180000Y-78740000D02*
X177038000Y-78740000D01*
X177038000Y-78740000D02*
X177038000Y-91440000D01*
X177038000Y-91440000D02*
X170180000Y-91440000D01*
X170180000Y-91440000D02*
X170180000Y-78740000D01*
%TO.C,SW2*%
X157480000Y-78740000D02*
X164338000Y-78740000D01*
X164338000Y-78740000D02*
X164338000Y-91440000D01*
X164338000Y-91440000D02*
X157480000Y-91440000D01*
X157480000Y-91440000D02*
X157480000Y-78740000D01*
%TO.C,SW1*%
X5080000Y-58420000D02*
X11938000Y-58420000D01*
X11938000Y-58420000D02*
X11938000Y-71120000D01*
X11938000Y-71120000D02*
X5080000Y-71120000D01*
X5080000Y-71120000D02*
X5080000Y-58420000D01*
%TO.C,RN1*%
X45550000Y-58290000D02*
X45550000Y-61090000D01*
X45550000Y-61090000D02*
X68750000Y-61090000D01*
X68750000Y-61090000D02*
X68750000Y-58290000D01*
X68750000Y-58290000D02*
X45550000Y-58290000D01*
X48260000Y-58290000D02*
X48260000Y-61090000D01*
%TO.C,R8*%
X111030000Y-59590000D02*
X111030000Y-62330000D01*
X111030000Y-62330000D02*
X117570000Y-62330000D01*
X117570000Y-62330000D02*
X117570000Y-59590000D01*
X117570000Y-59590000D02*
X111030000Y-59590000D01*
X110260000Y-60960000D02*
X111030000Y-60960000D01*
X118340000Y-60960000D02*
X117570000Y-60960000D01*
%TO.C,R7*%
X111030000Y-51970000D02*
X111030000Y-54710000D01*
X111030000Y-54710000D02*
X117570000Y-54710000D01*
X117570000Y-54710000D02*
X117570000Y-51970000D01*
X117570000Y-51970000D02*
X111030000Y-51970000D01*
X110260000Y-53340000D02*
X111030000Y-53340000D01*
X118340000Y-53340000D02*
X117570000Y-53340000D01*
%TO.C,R6*%
X150400000Y-1170000D02*
X150400000Y-3910000D01*
X150400000Y-3910000D02*
X156940000Y-3910000D01*
X156940000Y-3910000D02*
X156940000Y-1170000D01*
X156940000Y-1170000D02*
X150400000Y-1170000D01*
X149630000Y-2540000D02*
X150400000Y-2540000D01*
X157710000Y-2540000D02*
X156940000Y-2540000D01*
%TO.C,R5*%
X136240000Y-1030000D02*
X136240000Y-3770000D01*
X136240000Y-3770000D02*
X142780000Y-3770000D01*
X142780000Y-3770000D02*
X142780000Y-1030000D01*
X142780000Y-1030000D02*
X136240000Y-1030000D01*
X135470000Y-2400000D02*
X136240000Y-2400000D01*
X143550000Y-2400000D02*
X142780000Y-2400000D01*
%TO.C,R4*%
X164370000Y-29110000D02*
X164370000Y-31850000D01*
X164370000Y-31850000D02*
X170910000Y-31850000D01*
X170910000Y-31850000D02*
X170910000Y-29110000D01*
X170910000Y-29110000D02*
X164370000Y-29110000D01*
X163600000Y-30480000D02*
X164370000Y-30480000D01*
X171680000Y-30480000D02*
X170910000Y-30480000D01*
%TO.C,R3*%
X149130000Y-29110000D02*
X149130000Y-31850000D01*
X149130000Y-31850000D02*
X155670000Y-31850000D01*
X155670000Y-31850000D02*
X155670000Y-29110000D01*
X155670000Y-29110000D02*
X149130000Y-29110000D01*
X148360000Y-30480000D02*
X149130000Y-30480000D01*
X156440000Y-30480000D02*
X155670000Y-30480000D01*
%TO.C,R2*%
X137700000Y-79910000D02*
X137700000Y-82650000D01*
X137700000Y-82650000D02*
X144240000Y-82650000D01*
X144240000Y-82650000D02*
X144240000Y-79910000D01*
X144240000Y-79910000D02*
X137700000Y-79910000D01*
X136930000Y-81280000D02*
X137700000Y-81280000D01*
X145010000Y-81280000D02*
X144240000Y-81280000D01*
%TO.C,R1*%
X27210000Y-1170000D02*
X27210000Y-3910000D01*
X27210000Y-3910000D02*
X33750000Y-3910000D01*
X33750000Y-3910000D02*
X33750000Y-1170000D01*
X33750000Y-1170000D02*
X27210000Y-1170000D01*
X26440000Y-2540000D02*
X27210000Y-2540000D01*
X34520000Y-2540000D02*
X33750000Y-2540000D01*
%TO.C,J8*%
X54550000Y-3750000D02*
X54550000Y-6410000D01*
X82550000Y-3750000D02*
X54550000Y-3750000D01*
X82550000Y-6410000D02*
X54550000Y-6410000D01*
X82550000Y-3750000D02*
X82550000Y-6410000D01*
X83820000Y-3750000D02*
X85150000Y-3750000D01*
X85150000Y-3750000D02*
X85150000Y-5080000D01*
%TO.C,J7*%
X17860000Y-11690000D02*
X17860000Y-23910000D01*
X17860000Y-11690000D02*
X14110000Y-11690000D01*
X17860000Y-23910000D02*
X14110000Y-23910000D01*
X1240000Y-11690000D02*
X1240000Y-23910000D01*
X1240000Y-23910000D02*
X9210000Y-23910000D01*
X1240000Y-11690000D02*
X9210000Y-11690000D01*
X18060000Y-19050000D02*
X18560000Y-19550000D01*
X18560000Y-19550000D02*
X18560000Y-18550000D01*
X18560000Y-18550000D02*
X18060000Y-19050000D01*
%TO.C,J6*%
X186630000Y-85150000D02*
X189290000Y-85150000D01*
X186630000Y-57150000D02*
X186630000Y-85150000D01*
X189290000Y-57150000D02*
X189290000Y-85150000D01*
X186630000Y-57150000D02*
X189290000Y-57150000D01*
X186630000Y-55880000D02*
X186630000Y-54550000D01*
X186630000Y-54550000D02*
X187960000Y-54550000D01*
%TO.C,J5*%
X18990000Y-82490000D02*
X18990000Y-85150000D01*
X46990000Y-82490000D02*
X18990000Y-82490000D01*
X46990000Y-85150000D02*
X18990000Y-85150000D01*
X46990000Y-82490000D02*
X46990000Y-85150000D01*
X48260000Y-82490000D02*
X49590000Y-82490000D01*
X49590000Y-82490000D02*
X49590000Y-83820000D01*
%TO.C,J4*%
X123460000Y-69790000D02*
X121810000Y-69790000D01*
X121810000Y-69790000D02*
X121810000Y-90230000D01*
X121810000Y-90230000D02*
X127110000Y-90230000D01*
X127110000Y-90230000D02*
X127110000Y-69790000D01*
X127110000Y-69790000D02*
X125460000Y-69790000D01*
X119320000Y-69730000D02*
X119320000Y-90290000D01*
X119320000Y-90290000D02*
X129600000Y-90290000D01*
X129600000Y-90290000D02*
X129600000Y-69730000D01*
X129600000Y-69730000D02*
X119320000Y-69730000D01*
X125460000Y-69790000D02*
G75*
G02*
X123460000Y-69790000I-1000000J0D01*
G01*
%TO.C,J3*%
X102930000Y-85150000D02*
X102930000Y-82490000D01*
X74930000Y-85150000D02*
X102930000Y-85150000D01*
X74930000Y-82490000D02*
X102930000Y-82490000D01*
X74930000Y-85150000D02*
X74930000Y-82490000D01*
X73660000Y-85150000D02*
X72330000Y-85150000D01*
X72330000Y-85150000D02*
X72330000Y-83820000D01*
%TO.C,J2*%
X186630000Y-44510000D02*
X189290000Y-44510000D01*
X186630000Y-39370000D02*
X186630000Y-44510000D01*
X189290000Y-39370000D02*
X189290000Y-44510000D01*
X186630000Y-39370000D02*
X189290000Y-39370000D01*
X186630000Y-38100000D02*
X186630000Y-36770000D01*
X186630000Y-36770000D02*
X187960000Y-36770000D01*
%TO.C,J1*%
X186630000Y-28000000D02*
X189290000Y-28000000D01*
X186630000Y-15240000D02*
X186630000Y-28000000D01*
X189290000Y-15240000D02*
X189290000Y-28000000D01*
X186630000Y-15240000D02*
X189290000Y-15240000D01*
X186630000Y-13970000D02*
X186630000Y-12640000D01*
X186630000Y-12640000D02*
X187960000Y-12640000D01*
%TO.C,D10*%
X170140000Y-3810000D02*
G75*
G03*
X170140000Y-3810000I-2500000J0D01*
G01*
X166095000Y-6370000D02*
X169185000Y-6370000D01*
X167639538Y-820000D02*
G75*
G02*
X169184830Y-6370000I462J-2990000D01*
G01*
X167640462Y-820000D02*
G75*
G03*
X166095170Y-6370000I-462J-2990000D01*
G01*
%TO.C,D9*%
X128230000Y-3810000D02*
G75*
G03*
X128230000Y-3810000I-2500000J0D01*
G01*
X124185000Y-6370000D02*
X127275000Y-6370000D01*
X125729538Y-820000D02*
G75*
G02*
X127274830Y-6370000I462J-2990000D01*
G01*
X125730462Y-820000D02*
G75*
G03*
X124185170Y-6370000I-462J-2990000D01*
G01*
%TO.C,D8*%
X29170000Y-67310000D02*
G75*
G03*
X29170000Y-67310000I-2500000J0D01*
G01*
X25125000Y-69870000D02*
X28215000Y-69870000D01*
X26669538Y-64320000D02*
G75*
G02*
X28214830Y-69870000I462J-2990000D01*
G01*
X26670462Y-64320000D02*
G75*
G03*
X25125170Y-69870000I-462J-2990000D01*
G01*
%TO.C,D7*%
X38060000Y-67310000D02*
G75*
G03*
X38060000Y-67310000I-2500000J0D01*
G01*
X34015000Y-69870000D02*
X37105000Y-69870000D01*
X35559538Y-64320000D02*
G75*
G02*
X37104830Y-69870000I462J-2990000D01*
G01*
X35560462Y-64320000D02*
G75*
G03*
X34015170Y-69870000I-462J-2990000D01*
G01*
%TO.C,D6*%
X46950000Y-67310000D02*
G75*
G03*
X46950000Y-67310000I-2500000J0D01*
G01*
X42905000Y-69870000D02*
X45995000Y-69870000D01*
X44449538Y-64320000D02*
G75*
G02*
X45994830Y-69870000I462J-2990000D01*
G01*
X44450462Y-64320000D02*
G75*
G03*
X42905170Y-69870000I-462J-2990000D01*
G01*
%TO.C,D5*%
X55840000Y-67310000D02*
G75*
G03*
X55840000Y-67310000I-2500000J0D01*
G01*
X51795000Y-69870000D02*
X54885000Y-69870000D01*
X53339538Y-64320000D02*
G75*
G02*
X54884830Y-69870000I462J-2990000D01*
G01*
X53340462Y-64320000D02*
G75*
G03*
X51795170Y-69870000I-462J-2990000D01*
G01*
%TO.C,D4*%
X64730000Y-67310000D02*
G75*
G03*
X64730000Y-67310000I-2500000J0D01*
G01*
X60685000Y-69870000D02*
X63775000Y-69870000D01*
X62229538Y-64320000D02*
G75*
G02*
X63774830Y-69870000I462J-2990000D01*
G01*
X62230462Y-64320000D02*
G75*
G03*
X60685170Y-69870000I-462J-2990000D01*
G01*
%TO.C,D3*%
X73620000Y-67310000D02*
G75*
G03*
X73620000Y-67310000I-2500000J0D01*
G01*
X69575000Y-69870000D02*
X72665000Y-69870000D01*
X71119538Y-64320000D02*
G75*
G02*
X72664830Y-69870000I462J-2990000D01*
G01*
X71120462Y-64320000D02*
G75*
G03*
X69575170Y-69870000I-462J-2990000D01*
G01*
%TO.C,D2*%
X82510000Y-67310000D02*
G75*
G03*
X82510000Y-67310000I-2500000J0D01*
G01*
X78465000Y-69870000D02*
X81555000Y-69870000D01*
X80009538Y-64320000D02*
G75*
G02*
X81554830Y-69870000I462J-2990000D01*
G01*
X80010462Y-64320000D02*
G75*
G03*
X78465170Y-69870000I-462J-2990000D01*
G01*
%TO.C,D1*%
X91400000Y-67310000D02*
G75*
G03*
X91400000Y-67310000I-2500000J0D01*
G01*
X87355000Y-69870000D02*
X90445000Y-69870000D01*
X88899538Y-64320000D02*
G75*
G02*
X90444830Y-69870000I462J-2990000D01*
G01*
X88900462Y-64320000D02*
G75*
G03*
X87355170Y-69870000I-462J-2990000D01*
G01*
%TO.C,C8*%
X131540000Y-54590000D02*
G75*
G03*
X131540000Y-54590000I-3270000J0D01*
G01*
X131500000Y-54590000D02*
X125040000Y-54590000D01*
X131500000Y-54630000D02*
X125040000Y-54630000D01*
X131500000Y-54670000D02*
X125040000Y-54670000D01*
X131498000Y-54710000D02*
X125042000Y-54710000D01*
X131497000Y-54750000D02*
X125043000Y-54750000D01*
X131494000Y-54790000D02*
X125046000Y-54790000D01*
X131492000Y-54830000D02*
X129310000Y-54830000D01*
X127230000Y-54830000D02*
X125048000Y-54830000D01*
X131488000Y-54870000D02*
X129310000Y-54870000D01*
X127230000Y-54870000D02*
X125052000Y-54870000D01*
X131485000Y-54910000D02*
X129310000Y-54910000D01*
X127230000Y-54910000D02*
X125055000Y-54910000D01*
X131481000Y-54950000D02*
X129310000Y-54950000D01*
X127230000Y-54950000D02*
X125059000Y-54950000D01*
X131476000Y-54990000D02*
X129310000Y-54990000D01*
X127230000Y-54990000D02*
X125064000Y-54990000D01*
X131471000Y-55030000D02*
X129310000Y-55030000D01*
X127230000Y-55030000D02*
X125069000Y-55030000D01*
X131465000Y-55070000D02*
X129310000Y-55070000D01*
X127230000Y-55070000D02*
X125075000Y-55070000D01*
X131459000Y-55110000D02*
X129310000Y-55110000D01*
X127230000Y-55110000D02*
X125081000Y-55110000D01*
X131452000Y-55150000D02*
X129310000Y-55150000D01*
X127230000Y-55150000D02*
X125088000Y-55150000D01*
X131445000Y-55190000D02*
X129310000Y-55190000D01*
X127230000Y-55190000D02*
X125095000Y-55190000D01*
X131437000Y-55230000D02*
X129310000Y-55230000D01*
X127230000Y-55230000D02*
X125103000Y-55230000D01*
X131429000Y-55270000D02*
X129310000Y-55270000D01*
X127230000Y-55270000D02*
X125111000Y-55270000D01*
X131420000Y-55311000D02*
X129310000Y-55311000D01*
X127230000Y-55311000D02*
X125120000Y-55311000D01*
X131411000Y-55351000D02*
X129310000Y-55351000D01*
X127230000Y-55351000D02*
X125129000Y-55351000D01*
X131401000Y-55391000D02*
X129310000Y-55391000D01*
X127230000Y-55391000D02*
X125139000Y-55391000D01*
X131391000Y-55431000D02*
X129310000Y-55431000D01*
X127230000Y-55431000D02*
X125149000Y-55431000D01*
X131380000Y-55471000D02*
X129310000Y-55471000D01*
X127230000Y-55471000D02*
X125160000Y-55471000D01*
X131368000Y-55511000D02*
X129310000Y-55511000D01*
X127230000Y-55511000D02*
X125172000Y-55511000D01*
X131356000Y-55551000D02*
X129310000Y-55551000D01*
X127230000Y-55551000D02*
X125184000Y-55551000D01*
X131344000Y-55591000D02*
X129310000Y-55591000D01*
X127230000Y-55591000D02*
X125196000Y-55591000D01*
X131331000Y-55631000D02*
X129310000Y-55631000D01*
X127230000Y-55631000D02*
X125209000Y-55631000D01*
X131317000Y-55671000D02*
X129310000Y-55671000D01*
X127230000Y-55671000D02*
X125223000Y-55671000D01*
X131303000Y-55711000D02*
X129310000Y-55711000D01*
X127230000Y-55711000D02*
X125237000Y-55711000D01*
X131288000Y-55751000D02*
X129310000Y-55751000D01*
X127230000Y-55751000D02*
X125252000Y-55751000D01*
X131272000Y-55791000D02*
X129310000Y-55791000D01*
X127230000Y-55791000D02*
X125268000Y-55791000D01*
X131256000Y-55831000D02*
X129310000Y-55831000D01*
X127230000Y-55831000D02*
X125284000Y-55831000D01*
X131240000Y-55871000D02*
X129310000Y-55871000D01*
X127230000Y-55871000D02*
X125300000Y-55871000D01*
X131222000Y-55911000D02*
X129310000Y-55911000D01*
X127230000Y-55911000D02*
X125318000Y-55911000D01*
X131204000Y-55951000D02*
X129310000Y-55951000D01*
X127230000Y-55951000D02*
X125336000Y-55951000D01*
X131186000Y-55991000D02*
X129310000Y-55991000D01*
X127230000Y-55991000D02*
X125354000Y-55991000D01*
X131166000Y-56031000D02*
X129310000Y-56031000D01*
X127230000Y-56031000D02*
X125374000Y-56031000D01*
X131146000Y-56071000D02*
X129310000Y-56071000D01*
X127230000Y-56071000D02*
X125394000Y-56071000D01*
X131126000Y-56111000D02*
X129310000Y-56111000D01*
X127230000Y-56111000D02*
X125414000Y-56111000D01*
X131104000Y-56151000D02*
X129310000Y-56151000D01*
X127230000Y-56151000D02*
X125436000Y-56151000D01*
X131082000Y-56191000D02*
X129310000Y-56191000D01*
X127230000Y-56191000D02*
X125458000Y-56191000D01*
X131060000Y-56231000D02*
X129310000Y-56231000D01*
X127230000Y-56231000D02*
X125480000Y-56231000D01*
X131036000Y-56271000D02*
X129310000Y-56271000D01*
X127230000Y-56271000D02*
X125504000Y-56271000D01*
X131012000Y-56311000D02*
X129310000Y-56311000D01*
X127230000Y-56311000D02*
X125528000Y-56311000D01*
X130986000Y-56351000D02*
X129310000Y-56351000D01*
X127230000Y-56351000D02*
X125554000Y-56351000D01*
X130960000Y-56391000D02*
X129310000Y-56391000D01*
X127230000Y-56391000D02*
X125580000Y-56391000D01*
X130934000Y-56431000D02*
X129310000Y-56431000D01*
X127230000Y-56431000D02*
X125606000Y-56431000D01*
X130906000Y-56471000D02*
X129310000Y-56471000D01*
X127230000Y-56471000D02*
X125634000Y-56471000D01*
X130877000Y-56511000D02*
X129310000Y-56511000D01*
X127230000Y-56511000D02*
X125663000Y-56511000D01*
X130848000Y-56551000D02*
X129310000Y-56551000D01*
X127230000Y-56551000D02*
X125692000Y-56551000D01*
X130818000Y-56591000D02*
X129310000Y-56591000D01*
X127230000Y-56591000D02*
X125722000Y-56591000D01*
X130786000Y-56631000D02*
X129310000Y-56631000D01*
X127230000Y-56631000D02*
X125754000Y-56631000D01*
X130754000Y-56671000D02*
X129310000Y-56671000D01*
X127230000Y-56671000D02*
X125786000Y-56671000D01*
X130720000Y-56711000D02*
X129310000Y-56711000D01*
X127230000Y-56711000D02*
X125820000Y-56711000D01*
X130686000Y-56751000D02*
X129310000Y-56751000D01*
X127230000Y-56751000D02*
X125854000Y-56751000D01*
X130650000Y-56791000D02*
X129310000Y-56791000D01*
X127230000Y-56791000D02*
X125890000Y-56791000D01*
X130613000Y-56831000D02*
X129310000Y-56831000D01*
X127230000Y-56831000D02*
X125927000Y-56831000D01*
X130575000Y-56871000D02*
X129310000Y-56871000D01*
X127230000Y-56871000D02*
X125965000Y-56871000D01*
X130535000Y-56911000D02*
X126005000Y-56911000D01*
X130494000Y-56951000D02*
X126046000Y-56951000D01*
X130452000Y-56991000D02*
X126088000Y-56991000D01*
X130407000Y-57031000D02*
X126133000Y-57031000D01*
X130362000Y-57071000D02*
X126178000Y-57071000D01*
X130314000Y-57111000D02*
X126226000Y-57111000D01*
X130265000Y-57151000D02*
X126275000Y-57151000D01*
X130214000Y-57191000D02*
X126326000Y-57191000D01*
X130160000Y-57231000D02*
X126380000Y-57231000D01*
X130104000Y-57271000D02*
X126436000Y-57271000D01*
X130046000Y-57311000D02*
X126494000Y-57311000D01*
X129984000Y-57351000D02*
X126556000Y-57351000D01*
X129920000Y-57391000D02*
X126620000Y-57391000D01*
X129851000Y-57431000D02*
X126689000Y-57431000D01*
X129779000Y-57471000D02*
X126761000Y-57471000D01*
X129702000Y-57511000D02*
X126838000Y-57511000D01*
X129620000Y-57551000D02*
X126920000Y-57551000D01*
X129532000Y-57591000D02*
X127008000Y-57591000D01*
X129435000Y-57631000D02*
X127105000Y-57631000D01*
X129329000Y-57671000D02*
X127211000Y-57671000D01*
X129210000Y-57711000D02*
X127330000Y-57711000D01*
X129072000Y-57751000D02*
X127468000Y-57751000D01*
X128903000Y-57791000D02*
X127637000Y-57791000D01*
X128672000Y-57831000D02*
X127868000Y-57831000D01*
X130109000Y-51089759D02*
X130109000Y-51719759D01*
X130424000Y-51404759D02*
X129794000Y-51404759D01*
%TO.C,C7*%
X141700000Y-54590000D02*
G75*
G03*
X141700000Y-54590000I-3270000J0D01*
G01*
X141660000Y-54590000D02*
X135200000Y-54590000D01*
X141660000Y-54630000D02*
X135200000Y-54630000D01*
X141660000Y-54670000D02*
X135200000Y-54670000D01*
X141658000Y-54710000D02*
X135202000Y-54710000D01*
X141657000Y-54750000D02*
X135203000Y-54750000D01*
X141654000Y-54790000D02*
X135206000Y-54790000D01*
X141652000Y-54830000D02*
X139470000Y-54830000D01*
X137390000Y-54830000D02*
X135208000Y-54830000D01*
X141648000Y-54870000D02*
X139470000Y-54870000D01*
X137390000Y-54870000D02*
X135212000Y-54870000D01*
X141645000Y-54910000D02*
X139470000Y-54910000D01*
X137390000Y-54910000D02*
X135215000Y-54910000D01*
X141641000Y-54950000D02*
X139470000Y-54950000D01*
X137390000Y-54950000D02*
X135219000Y-54950000D01*
X141636000Y-54990000D02*
X139470000Y-54990000D01*
X137390000Y-54990000D02*
X135224000Y-54990000D01*
X141631000Y-55030000D02*
X139470000Y-55030000D01*
X137390000Y-55030000D02*
X135229000Y-55030000D01*
X141625000Y-55070000D02*
X139470000Y-55070000D01*
X137390000Y-55070000D02*
X135235000Y-55070000D01*
X141619000Y-55110000D02*
X139470000Y-55110000D01*
X137390000Y-55110000D02*
X135241000Y-55110000D01*
X141612000Y-55150000D02*
X139470000Y-55150000D01*
X137390000Y-55150000D02*
X135248000Y-55150000D01*
X141605000Y-55190000D02*
X139470000Y-55190000D01*
X137390000Y-55190000D02*
X135255000Y-55190000D01*
X141597000Y-55230000D02*
X139470000Y-55230000D01*
X137390000Y-55230000D02*
X135263000Y-55230000D01*
X141589000Y-55270000D02*
X139470000Y-55270000D01*
X137390000Y-55270000D02*
X135271000Y-55270000D01*
X141580000Y-55311000D02*
X139470000Y-55311000D01*
X137390000Y-55311000D02*
X135280000Y-55311000D01*
X141571000Y-55351000D02*
X139470000Y-55351000D01*
X137390000Y-55351000D02*
X135289000Y-55351000D01*
X141561000Y-55391000D02*
X139470000Y-55391000D01*
X137390000Y-55391000D02*
X135299000Y-55391000D01*
X141551000Y-55431000D02*
X139470000Y-55431000D01*
X137390000Y-55431000D02*
X135309000Y-55431000D01*
X141540000Y-55471000D02*
X139470000Y-55471000D01*
X137390000Y-55471000D02*
X135320000Y-55471000D01*
X141528000Y-55511000D02*
X139470000Y-55511000D01*
X137390000Y-55511000D02*
X135332000Y-55511000D01*
X141516000Y-55551000D02*
X139470000Y-55551000D01*
X137390000Y-55551000D02*
X135344000Y-55551000D01*
X141504000Y-55591000D02*
X139470000Y-55591000D01*
X137390000Y-55591000D02*
X135356000Y-55591000D01*
X141491000Y-55631000D02*
X139470000Y-55631000D01*
X137390000Y-55631000D02*
X135369000Y-55631000D01*
X141477000Y-55671000D02*
X139470000Y-55671000D01*
X137390000Y-55671000D02*
X135383000Y-55671000D01*
X141463000Y-55711000D02*
X139470000Y-55711000D01*
X137390000Y-55711000D02*
X135397000Y-55711000D01*
X141448000Y-55751000D02*
X139470000Y-55751000D01*
X137390000Y-55751000D02*
X135412000Y-55751000D01*
X141432000Y-55791000D02*
X139470000Y-55791000D01*
X137390000Y-55791000D02*
X135428000Y-55791000D01*
X141416000Y-55831000D02*
X139470000Y-55831000D01*
X137390000Y-55831000D02*
X135444000Y-55831000D01*
X141400000Y-55871000D02*
X139470000Y-55871000D01*
X137390000Y-55871000D02*
X135460000Y-55871000D01*
X141382000Y-55911000D02*
X139470000Y-55911000D01*
X137390000Y-55911000D02*
X135478000Y-55911000D01*
X141364000Y-55951000D02*
X139470000Y-55951000D01*
X137390000Y-55951000D02*
X135496000Y-55951000D01*
X141346000Y-55991000D02*
X139470000Y-55991000D01*
X137390000Y-55991000D02*
X135514000Y-55991000D01*
X141326000Y-56031000D02*
X139470000Y-56031000D01*
X137390000Y-56031000D02*
X135534000Y-56031000D01*
X141306000Y-56071000D02*
X139470000Y-56071000D01*
X137390000Y-56071000D02*
X135554000Y-56071000D01*
X141286000Y-56111000D02*
X139470000Y-56111000D01*
X137390000Y-56111000D02*
X135574000Y-56111000D01*
X141264000Y-56151000D02*
X139470000Y-56151000D01*
X137390000Y-56151000D02*
X135596000Y-56151000D01*
X141242000Y-56191000D02*
X139470000Y-56191000D01*
X137390000Y-56191000D02*
X135618000Y-56191000D01*
X141220000Y-56231000D02*
X139470000Y-56231000D01*
X137390000Y-56231000D02*
X135640000Y-56231000D01*
X141196000Y-56271000D02*
X139470000Y-56271000D01*
X137390000Y-56271000D02*
X135664000Y-56271000D01*
X141172000Y-56311000D02*
X139470000Y-56311000D01*
X137390000Y-56311000D02*
X135688000Y-56311000D01*
X141146000Y-56351000D02*
X139470000Y-56351000D01*
X137390000Y-56351000D02*
X135714000Y-56351000D01*
X141120000Y-56391000D02*
X139470000Y-56391000D01*
X137390000Y-56391000D02*
X135740000Y-56391000D01*
X141094000Y-56431000D02*
X139470000Y-56431000D01*
X137390000Y-56431000D02*
X135766000Y-56431000D01*
X141066000Y-56471000D02*
X139470000Y-56471000D01*
X137390000Y-56471000D02*
X135794000Y-56471000D01*
X141037000Y-56511000D02*
X139470000Y-56511000D01*
X137390000Y-56511000D02*
X135823000Y-56511000D01*
X141008000Y-56551000D02*
X139470000Y-56551000D01*
X137390000Y-56551000D02*
X135852000Y-56551000D01*
X140978000Y-56591000D02*
X139470000Y-56591000D01*
X137390000Y-56591000D02*
X135882000Y-56591000D01*
X140946000Y-56631000D02*
X139470000Y-56631000D01*
X137390000Y-56631000D02*
X135914000Y-56631000D01*
X140914000Y-56671000D02*
X139470000Y-56671000D01*
X137390000Y-56671000D02*
X135946000Y-56671000D01*
X140880000Y-56711000D02*
X139470000Y-56711000D01*
X137390000Y-56711000D02*
X135980000Y-56711000D01*
X140846000Y-56751000D02*
X139470000Y-56751000D01*
X137390000Y-56751000D02*
X136014000Y-56751000D01*
X140810000Y-56791000D02*
X139470000Y-56791000D01*
X137390000Y-56791000D02*
X136050000Y-56791000D01*
X140773000Y-56831000D02*
X139470000Y-56831000D01*
X137390000Y-56831000D02*
X136087000Y-56831000D01*
X140735000Y-56871000D02*
X139470000Y-56871000D01*
X137390000Y-56871000D02*
X136125000Y-56871000D01*
X140695000Y-56911000D02*
X136165000Y-56911000D01*
X140654000Y-56951000D02*
X136206000Y-56951000D01*
X140612000Y-56991000D02*
X136248000Y-56991000D01*
X140567000Y-57031000D02*
X136293000Y-57031000D01*
X140522000Y-57071000D02*
X136338000Y-57071000D01*
X140474000Y-57111000D02*
X136386000Y-57111000D01*
X140425000Y-57151000D02*
X136435000Y-57151000D01*
X140374000Y-57191000D02*
X136486000Y-57191000D01*
X140320000Y-57231000D02*
X136540000Y-57231000D01*
X140264000Y-57271000D02*
X136596000Y-57271000D01*
X140206000Y-57311000D02*
X136654000Y-57311000D01*
X140144000Y-57351000D02*
X136716000Y-57351000D01*
X140080000Y-57391000D02*
X136780000Y-57391000D01*
X140011000Y-57431000D02*
X136849000Y-57431000D01*
X139939000Y-57471000D02*
X136921000Y-57471000D01*
X139862000Y-57511000D02*
X136998000Y-57511000D01*
X139780000Y-57551000D02*
X137080000Y-57551000D01*
X139692000Y-57591000D02*
X137168000Y-57591000D01*
X139595000Y-57631000D02*
X137265000Y-57631000D01*
X139489000Y-57671000D02*
X137371000Y-57671000D01*
X139370000Y-57711000D02*
X137490000Y-57711000D01*
X139232000Y-57751000D02*
X137628000Y-57751000D01*
X139063000Y-57791000D02*
X137797000Y-57791000D01*
X138832000Y-57831000D02*
X138028000Y-57831000D01*
X140269000Y-51089759D02*
X140269000Y-51719759D01*
X140584000Y-51404759D02*
X139954000Y-51404759D01*
%TO.C,C6*%
X178530000Y-54590000D02*
G75*
G03*
X178530000Y-54590000I-3270000J0D01*
G01*
X178490000Y-54590000D02*
X172030000Y-54590000D01*
X178490000Y-54630000D02*
X172030000Y-54630000D01*
X178490000Y-54670000D02*
X172030000Y-54670000D01*
X178488000Y-54710000D02*
X172032000Y-54710000D01*
X178487000Y-54750000D02*
X172033000Y-54750000D01*
X178484000Y-54790000D02*
X172036000Y-54790000D01*
X178482000Y-54830000D02*
X176300000Y-54830000D01*
X174220000Y-54830000D02*
X172038000Y-54830000D01*
X178478000Y-54870000D02*
X176300000Y-54870000D01*
X174220000Y-54870000D02*
X172042000Y-54870000D01*
X178475000Y-54910000D02*
X176300000Y-54910000D01*
X174220000Y-54910000D02*
X172045000Y-54910000D01*
X178471000Y-54950000D02*
X176300000Y-54950000D01*
X174220000Y-54950000D02*
X172049000Y-54950000D01*
X178466000Y-54990000D02*
X176300000Y-54990000D01*
X174220000Y-54990000D02*
X172054000Y-54990000D01*
X178461000Y-55030000D02*
X176300000Y-55030000D01*
X174220000Y-55030000D02*
X172059000Y-55030000D01*
X178455000Y-55070000D02*
X176300000Y-55070000D01*
X174220000Y-55070000D02*
X172065000Y-55070000D01*
X178449000Y-55110000D02*
X176300000Y-55110000D01*
X174220000Y-55110000D02*
X172071000Y-55110000D01*
X178442000Y-55150000D02*
X176300000Y-55150000D01*
X174220000Y-55150000D02*
X172078000Y-55150000D01*
X178435000Y-55190000D02*
X176300000Y-55190000D01*
X174220000Y-55190000D02*
X172085000Y-55190000D01*
X178427000Y-55230000D02*
X176300000Y-55230000D01*
X174220000Y-55230000D02*
X172093000Y-55230000D01*
X178419000Y-55270000D02*
X176300000Y-55270000D01*
X174220000Y-55270000D02*
X172101000Y-55270000D01*
X178410000Y-55311000D02*
X176300000Y-55311000D01*
X174220000Y-55311000D02*
X172110000Y-55311000D01*
X178401000Y-55351000D02*
X176300000Y-55351000D01*
X174220000Y-55351000D02*
X172119000Y-55351000D01*
X178391000Y-55391000D02*
X176300000Y-55391000D01*
X174220000Y-55391000D02*
X172129000Y-55391000D01*
X178381000Y-55431000D02*
X176300000Y-55431000D01*
X174220000Y-55431000D02*
X172139000Y-55431000D01*
X178370000Y-55471000D02*
X176300000Y-55471000D01*
X174220000Y-55471000D02*
X172150000Y-55471000D01*
X178358000Y-55511000D02*
X176300000Y-55511000D01*
X174220000Y-55511000D02*
X172162000Y-55511000D01*
X178346000Y-55551000D02*
X176300000Y-55551000D01*
X174220000Y-55551000D02*
X172174000Y-55551000D01*
X178334000Y-55591000D02*
X176300000Y-55591000D01*
X174220000Y-55591000D02*
X172186000Y-55591000D01*
X178321000Y-55631000D02*
X176300000Y-55631000D01*
X174220000Y-55631000D02*
X172199000Y-55631000D01*
X178307000Y-55671000D02*
X176300000Y-55671000D01*
X174220000Y-55671000D02*
X172213000Y-55671000D01*
X178293000Y-55711000D02*
X176300000Y-55711000D01*
X174220000Y-55711000D02*
X172227000Y-55711000D01*
X178278000Y-55751000D02*
X176300000Y-55751000D01*
X174220000Y-55751000D02*
X172242000Y-55751000D01*
X178262000Y-55791000D02*
X176300000Y-55791000D01*
X174220000Y-55791000D02*
X172258000Y-55791000D01*
X178246000Y-55831000D02*
X176300000Y-55831000D01*
X174220000Y-55831000D02*
X172274000Y-55831000D01*
X178230000Y-55871000D02*
X176300000Y-55871000D01*
X174220000Y-55871000D02*
X172290000Y-55871000D01*
X178212000Y-55911000D02*
X176300000Y-55911000D01*
X174220000Y-55911000D02*
X172308000Y-55911000D01*
X178194000Y-55951000D02*
X176300000Y-55951000D01*
X174220000Y-55951000D02*
X172326000Y-55951000D01*
X178176000Y-55991000D02*
X176300000Y-55991000D01*
X174220000Y-55991000D02*
X172344000Y-55991000D01*
X178156000Y-56031000D02*
X176300000Y-56031000D01*
X174220000Y-56031000D02*
X172364000Y-56031000D01*
X178136000Y-56071000D02*
X176300000Y-56071000D01*
X174220000Y-56071000D02*
X172384000Y-56071000D01*
X178116000Y-56111000D02*
X176300000Y-56111000D01*
X174220000Y-56111000D02*
X172404000Y-56111000D01*
X178094000Y-56151000D02*
X176300000Y-56151000D01*
X174220000Y-56151000D02*
X172426000Y-56151000D01*
X178072000Y-56191000D02*
X176300000Y-56191000D01*
X174220000Y-56191000D02*
X172448000Y-56191000D01*
X178050000Y-56231000D02*
X176300000Y-56231000D01*
X174220000Y-56231000D02*
X172470000Y-56231000D01*
X178026000Y-56271000D02*
X176300000Y-56271000D01*
X174220000Y-56271000D02*
X172494000Y-56271000D01*
X178002000Y-56311000D02*
X176300000Y-56311000D01*
X174220000Y-56311000D02*
X172518000Y-56311000D01*
X177976000Y-56351000D02*
X176300000Y-56351000D01*
X174220000Y-56351000D02*
X172544000Y-56351000D01*
X177950000Y-56391000D02*
X176300000Y-56391000D01*
X174220000Y-56391000D02*
X172570000Y-56391000D01*
X177924000Y-56431000D02*
X176300000Y-56431000D01*
X174220000Y-56431000D02*
X172596000Y-56431000D01*
X177896000Y-56471000D02*
X176300000Y-56471000D01*
X174220000Y-56471000D02*
X172624000Y-56471000D01*
X177867000Y-56511000D02*
X176300000Y-56511000D01*
X174220000Y-56511000D02*
X172653000Y-56511000D01*
X177838000Y-56551000D02*
X176300000Y-56551000D01*
X174220000Y-56551000D02*
X172682000Y-56551000D01*
X177808000Y-56591000D02*
X176300000Y-56591000D01*
X174220000Y-56591000D02*
X172712000Y-56591000D01*
X177776000Y-56631000D02*
X176300000Y-56631000D01*
X174220000Y-56631000D02*
X172744000Y-56631000D01*
X177744000Y-56671000D02*
X176300000Y-56671000D01*
X174220000Y-56671000D02*
X172776000Y-56671000D01*
X177710000Y-56711000D02*
X176300000Y-56711000D01*
X174220000Y-56711000D02*
X172810000Y-56711000D01*
X177676000Y-56751000D02*
X176300000Y-56751000D01*
X174220000Y-56751000D02*
X172844000Y-56751000D01*
X177640000Y-56791000D02*
X176300000Y-56791000D01*
X174220000Y-56791000D02*
X172880000Y-56791000D01*
X177603000Y-56831000D02*
X176300000Y-56831000D01*
X174220000Y-56831000D02*
X172917000Y-56831000D01*
X177565000Y-56871000D02*
X176300000Y-56871000D01*
X174220000Y-56871000D02*
X172955000Y-56871000D01*
X177525000Y-56911000D02*
X172995000Y-56911000D01*
X177484000Y-56951000D02*
X173036000Y-56951000D01*
X177442000Y-56991000D02*
X173078000Y-56991000D01*
X177397000Y-57031000D02*
X173123000Y-57031000D01*
X177352000Y-57071000D02*
X173168000Y-57071000D01*
X177304000Y-57111000D02*
X173216000Y-57111000D01*
X177255000Y-57151000D02*
X173265000Y-57151000D01*
X177204000Y-57191000D02*
X173316000Y-57191000D01*
X177150000Y-57231000D02*
X173370000Y-57231000D01*
X177094000Y-57271000D02*
X173426000Y-57271000D01*
X177036000Y-57311000D02*
X173484000Y-57311000D01*
X176974000Y-57351000D02*
X173546000Y-57351000D01*
X176910000Y-57391000D02*
X173610000Y-57391000D01*
X176841000Y-57431000D02*
X173679000Y-57431000D01*
X176769000Y-57471000D02*
X173751000Y-57471000D01*
X176692000Y-57511000D02*
X173828000Y-57511000D01*
X176610000Y-57551000D02*
X173910000Y-57551000D01*
X176522000Y-57591000D02*
X173998000Y-57591000D01*
X176425000Y-57631000D02*
X174095000Y-57631000D01*
X176319000Y-57671000D02*
X174201000Y-57671000D01*
X176200000Y-57711000D02*
X174320000Y-57711000D01*
X176062000Y-57751000D02*
X174458000Y-57751000D01*
X175893000Y-57791000D02*
X174627000Y-57791000D01*
X175662000Y-57831000D02*
X174858000Y-57831000D01*
X177099000Y-51089759D02*
X177099000Y-51719759D01*
X177414000Y-51404759D02*
X176784000Y-51404759D01*
%TO.C,C5*%
X169640000Y-54590000D02*
G75*
G03*
X169640000Y-54590000I-3270000J0D01*
G01*
X169600000Y-54590000D02*
X163140000Y-54590000D01*
X169600000Y-54630000D02*
X163140000Y-54630000D01*
X169600000Y-54670000D02*
X163140000Y-54670000D01*
X169598000Y-54710000D02*
X163142000Y-54710000D01*
X169597000Y-54750000D02*
X163143000Y-54750000D01*
X169594000Y-54790000D02*
X163146000Y-54790000D01*
X169592000Y-54830000D02*
X167410000Y-54830000D01*
X165330000Y-54830000D02*
X163148000Y-54830000D01*
X169588000Y-54870000D02*
X167410000Y-54870000D01*
X165330000Y-54870000D02*
X163152000Y-54870000D01*
X169585000Y-54910000D02*
X167410000Y-54910000D01*
X165330000Y-54910000D02*
X163155000Y-54910000D01*
X169581000Y-54950000D02*
X167410000Y-54950000D01*
X165330000Y-54950000D02*
X163159000Y-54950000D01*
X169576000Y-54990000D02*
X167410000Y-54990000D01*
X165330000Y-54990000D02*
X163164000Y-54990000D01*
X169571000Y-55030000D02*
X167410000Y-55030000D01*
X165330000Y-55030000D02*
X163169000Y-55030000D01*
X169565000Y-55070000D02*
X167410000Y-55070000D01*
X165330000Y-55070000D02*
X163175000Y-55070000D01*
X169559000Y-55110000D02*
X167410000Y-55110000D01*
X165330000Y-55110000D02*
X163181000Y-55110000D01*
X169552000Y-55150000D02*
X167410000Y-55150000D01*
X165330000Y-55150000D02*
X163188000Y-55150000D01*
X169545000Y-55190000D02*
X167410000Y-55190000D01*
X165330000Y-55190000D02*
X163195000Y-55190000D01*
X169537000Y-55230000D02*
X167410000Y-55230000D01*
X165330000Y-55230000D02*
X163203000Y-55230000D01*
X169529000Y-55270000D02*
X167410000Y-55270000D01*
X165330000Y-55270000D02*
X163211000Y-55270000D01*
X169520000Y-55311000D02*
X167410000Y-55311000D01*
X165330000Y-55311000D02*
X163220000Y-55311000D01*
X169511000Y-55351000D02*
X167410000Y-55351000D01*
X165330000Y-55351000D02*
X163229000Y-55351000D01*
X169501000Y-55391000D02*
X167410000Y-55391000D01*
X165330000Y-55391000D02*
X163239000Y-55391000D01*
X169491000Y-55431000D02*
X167410000Y-55431000D01*
X165330000Y-55431000D02*
X163249000Y-55431000D01*
X169480000Y-55471000D02*
X167410000Y-55471000D01*
X165330000Y-55471000D02*
X163260000Y-55471000D01*
X169468000Y-55511000D02*
X167410000Y-55511000D01*
X165330000Y-55511000D02*
X163272000Y-55511000D01*
X169456000Y-55551000D02*
X167410000Y-55551000D01*
X165330000Y-55551000D02*
X163284000Y-55551000D01*
X169444000Y-55591000D02*
X167410000Y-55591000D01*
X165330000Y-55591000D02*
X163296000Y-55591000D01*
X169431000Y-55631000D02*
X167410000Y-55631000D01*
X165330000Y-55631000D02*
X163309000Y-55631000D01*
X169417000Y-55671000D02*
X167410000Y-55671000D01*
X165330000Y-55671000D02*
X163323000Y-55671000D01*
X169403000Y-55711000D02*
X167410000Y-55711000D01*
X165330000Y-55711000D02*
X163337000Y-55711000D01*
X169388000Y-55751000D02*
X167410000Y-55751000D01*
X165330000Y-55751000D02*
X163352000Y-55751000D01*
X169372000Y-55791000D02*
X167410000Y-55791000D01*
X165330000Y-55791000D02*
X163368000Y-55791000D01*
X169356000Y-55831000D02*
X167410000Y-55831000D01*
X165330000Y-55831000D02*
X163384000Y-55831000D01*
X169340000Y-55871000D02*
X167410000Y-55871000D01*
X165330000Y-55871000D02*
X163400000Y-55871000D01*
X169322000Y-55911000D02*
X167410000Y-55911000D01*
X165330000Y-55911000D02*
X163418000Y-55911000D01*
X169304000Y-55951000D02*
X167410000Y-55951000D01*
X165330000Y-55951000D02*
X163436000Y-55951000D01*
X169286000Y-55991000D02*
X167410000Y-55991000D01*
X165330000Y-55991000D02*
X163454000Y-55991000D01*
X169266000Y-56031000D02*
X167410000Y-56031000D01*
X165330000Y-56031000D02*
X163474000Y-56031000D01*
X169246000Y-56071000D02*
X167410000Y-56071000D01*
X165330000Y-56071000D02*
X163494000Y-56071000D01*
X169226000Y-56111000D02*
X167410000Y-56111000D01*
X165330000Y-56111000D02*
X163514000Y-56111000D01*
X169204000Y-56151000D02*
X167410000Y-56151000D01*
X165330000Y-56151000D02*
X163536000Y-56151000D01*
X169182000Y-56191000D02*
X167410000Y-56191000D01*
X165330000Y-56191000D02*
X163558000Y-56191000D01*
X169160000Y-56231000D02*
X167410000Y-56231000D01*
X165330000Y-56231000D02*
X163580000Y-56231000D01*
X169136000Y-56271000D02*
X167410000Y-56271000D01*
X165330000Y-56271000D02*
X163604000Y-56271000D01*
X169112000Y-56311000D02*
X167410000Y-56311000D01*
X165330000Y-56311000D02*
X163628000Y-56311000D01*
X169086000Y-56351000D02*
X167410000Y-56351000D01*
X165330000Y-56351000D02*
X163654000Y-56351000D01*
X169060000Y-56391000D02*
X167410000Y-56391000D01*
X165330000Y-56391000D02*
X163680000Y-56391000D01*
X169034000Y-56431000D02*
X167410000Y-56431000D01*
X165330000Y-56431000D02*
X163706000Y-56431000D01*
X169006000Y-56471000D02*
X167410000Y-56471000D01*
X165330000Y-56471000D02*
X163734000Y-56471000D01*
X168977000Y-56511000D02*
X167410000Y-56511000D01*
X165330000Y-56511000D02*
X163763000Y-56511000D01*
X168948000Y-56551000D02*
X167410000Y-56551000D01*
X165330000Y-56551000D02*
X163792000Y-56551000D01*
X168918000Y-56591000D02*
X167410000Y-56591000D01*
X165330000Y-56591000D02*
X163822000Y-56591000D01*
X168886000Y-56631000D02*
X167410000Y-56631000D01*
X165330000Y-56631000D02*
X163854000Y-56631000D01*
X168854000Y-56671000D02*
X167410000Y-56671000D01*
X165330000Y-56671000D02*
X163886000Y-56671000D01*
X168820000Y-56711000D02*
X167410000Y-56711000D01*
X165330000Y-56711000D02*
X163920000Y-56711000D01*
X168786000Y-56751000D02*
X167410000Y-56751000D01*
X165330000Y-56751000D02*
X163954000Y-56751000D01*
X168750000Y-56791000D02*
X167410000Y-56791000D01*
X165330000Y-56791000D02*
X163990000Y-56791000D01*
X168713000Y-56831000D02*
X167410000Y-56831000D01*
X165330000Y-56831000D02*
X164027000Y-56831000D01*
X168675000Y-56871000D02*
X167410000Y-56871000D01*
X165330000Y-56871000D02*
X164065000Y-56871000D01*
X168635000Y-56911000D02*
X164105000Y-56911000D01*
X168594000Y-56951000D02*
X164146000Y-56951000D01*
X168552000Y-56991000D02*
X164188000Y-56991000D01*
X168507000Y-57031000D02*
X164233000Y-57031000D01*
X168462000Y-57071000D02*
X164278000Y-57071000D01*
X168414000Y-57111000D02*
X164326000Y-57111000D01*
X168365000Y-57151000D02*
X164375000Y-57151000D01*
X168314000Y-57191000D02*
X164426000Y-57191000D01*
X168260000Y-57231000D02*
X164480000Y-57231000D01*
X168204000Y-57271000D02*
X164536000Y-57271000D01*
X168146000Y-57311000D02*
X164594000Y-57311000D01*
X168084000Y-57351000D02*
X164656000Y-57351000D01*
X168020000Y-57391000D02*
X164720000Y-57391000D01*
X167951000Y-57431000D02*
X164789000Y-57431000D01*
X167879000Y-57471000D02*
X164861000Y-57471000D01*
X167802000Y-57511000D02*
X164938000Y-57511000D01*
X167720000Y-57551000D02*
X165020000Y-57551000D01*
X167632000Y-57591000D02*
X165108000Y-57591000D01*
X167535000Y-57631000D02*
X165205000Y-57631000D01*
X167429000Y-57671000D02*
X165311000Y-57671000D01*
X167310000Y-57711000D02*
X165430000Y-57711000D01*
X167172000Y-57751000D02*
X165568000Y-57751000D01*
X167003000Y-57791000D02*
X165737000Y-57791000D01*
X166772000Y-57831000D02*
X165968000Y-57831000D01*
X168209000Y-51089759D02*
X168209000Y-51719759D01*
X168524000Y-51404759D02*
X167894000Y-51404759D01*
%TO.C,C4*%
X160750000Y-54590000D02*
G75*
G03*
X160750000Y-54590000I-3270000J0D01*
G01*
X160710000Y-54590000D02*
X154250000Y-54590000D01*
X160710000Y-54630000D02*
X154250000Y-54630000D01*
X160710000Y-54670000D02*
X154250000Y-54670000D01*
X160708000Y-54710000D02*
X154252000Y-54710000D01*
X160707000Y-54750000D02*
X154253000Y-54750000D01*
X160704000Y-54790000D02*
X154256000Y-54790000D01*
X160702000Y-54830000D02*
X158520000Y-54830000D01*
X156440000Y-54830000D02*
X154258000Y-54830000D01*
X160698000Y-54870000D02*
X158520000Y-54870000D01*
X156440000Y-54870000D02*
X154262000Y-54870000D01*
X160695000Y-54910000D02*
X158520000Y-54910000D01*
X156440000Y-54910000D02*
X154265000Y-54910000D01*
X160691000Y-54950000D02*
X158520000Y-54950000D01*
X156440000Y-54950000D02*
X154269000Y-54950000D01*
X160686000Y-54990000D02*
X158520000Y-54990000D01*
X156440000Y-54990000D02*
X154274000Y-54990000D01*
X160681000Y-55030000D02*
X158520000Y-55030000D01*
X156440000Y-55030000D02*
X154279000Y-55030000D01*
X160675000Y-55070000D02*
X158520000Y-55070000D01*
X156440000Y-55070000D02*
X154285000Y-55070000D01*
X160669000Y-55110000D02*
X158520000Y-55110000D01*
X156440000Y-55110000D02*
X154291000Y-55110000D01*
X160662000Y-55150000D02*
X158520000Y-55150000D01*
X156440000Y-55150000D02*
X154298000Y-55150000D01*
X160655000Y-55190000D02*
X158520000Y-55190000D01*
X156440000Y-55190000D02*
X154305000Y-55190000D01*
X160647000Y-55230000D02*
X158520000Y-55230000D01*
X156440000Y-55230000D02*
X154313000Y-55230000D01*
X160639000Y-55270000D02*
X158520000Y-55270000D01*
X156440000Y-55270000D02*
X154321000Y-55270000D01*
X160630000Y-55311000D02*
X158520000Y-55311000D01*
X156440000Y-55311000D02*
X154330000Y-55311000D01*
X160621000Y-55351000D02*
X158520000Y-55351000D01*
X156440000Y-55351000D02*
X154339000Y-55351000D01*
X160611000Y-55391000D02*
X158520000Y-55391000D01*
X156440000Y-55391000D02*
X154349000Y-55391000D01*
X160601000Y-55431000D02*
X158520000Y-55431000D01*
X156440000Y-55431000D02*
X154359000Y-55431000D01*
X160590000Y-55471000D02*
X158520000Y-55471000D01*
X156440000Y-55471000D02*
X154370000Y-55471000D01*
X160578000Y-55511000D02*
X158520000Y-55511000D01*
X156440000Y-55511000D02*
X154382000Y-55511000D01*
X160566000Y-55551000D02*
X158520000Y-55551000D01*
X156440000Y-55551000D02*
X154394000Y-55551000D01*
X160554000Y-55591000D02*
X158520000Y-55591000D01*
X156440000Y-55591000D02*
X154406000Y-55591000D01*
X160541000Y-55631000D02*
X158520000Y-55631000D01*
X156440000Y-55631000D02*
X154419000Y-55631000D01*
X160527000Y-55671000D02*
X158520000Y-55671000D01*
X156440000Y-55671000D02*
X154433000Y-55671000D01*
X160513000Y-55711000D02*
X158520000Y-55711000D01*
X156440000Y-55711000D02*
X154447000Y-55711000D01*
X160498000Y-55751000D02*
X158520000Y-55751000D01*
X156440000Y-55751000D02*
X154462000Y-55751000D01*
X160482000Y-55791000D02*
X158520000Y-55791000D01*
X156440000Y-55791000D02*
X154478000Y-55791000D01*
X160466000Y-55831000D02*
X158520000Y-55831000D01*
X156440000Y-55831000D02*
X154494000Y-55831000D01*
X160450000Y-55871000D02*
X158520000Y-55871000D01*
X156440000Y-55871000D02*
X154510000Y-55871000D01*
X160432000Y-55911000D02*
X158520000Y-55911000D01*
X156440000Y-55911000D02*
X154528000Y-55911000D01*
X160414000Y-55951000D02*
X158520000Y-55951000D01*
X156440000Y-55951000D02*
X154546000Y-55951000D01*
X160396000Y-55991000D02*
X158520000Y-55991000D01*
X156440000Y-55991000D02*
X154564000Y-55991000D01*
X160376000Y-56031000D02*
X158520000Y-56031000D01*
X156440000Y-56031000D02*
X154584000Y-56031000D01*
X160356000Y-56071000D02*
X158520000Y-56071000D01*
X156440000Y-56071000D02*
X154604000Y-56071000D01*
X160336000Y-56111000D02*
X158520000Y-56111000D01*
X156440000Y-56111000D02*
X154624000Y-56111000D01*
X160314000Y-56151000D02*
X158520000Y-56151000D01*
X156440000Y-56151000D02*
X154646000Y-56151000D01*
X160292000Y-56191000D02*
X158520000Y-56191000D01*
X156440000Y-56191000D02*
X154668000Y-56191000D01*
X160270000Y-56231000D02*
X158520000Y-56231000D01*
X156440000Y-56231000D02*
X154690000Y-56231000D01*
X160246000Y-56271000D02*
X158520000Y-56271000D01*
X156440000Y-56271000D02*
X154714000Y-56271000D01*
X160222000Y-56311000D02*
X158520000Y-56311000D01*
X156440000Y-56311000D02*
X154738000Y-56311000D01*
X160196000Y-56351000D02*
X158520000Y-56351000D01*
X156440000Y-56351000D02*
X154764000Y-56351000D01*
X160170000Y-56391000D02*
X158520000Y-56391000D01*
X156440000Y-56391000D02*
X154790000Y-56391000D01*
X160144000Y-56431000D02*
X158520000Y-56431000D01*
X156440000Y-56431000D02*
X154816000Y-56431000D01*
X160116000Y-56471000D02*
X158520000Y-56471000D01*
X156440000Y-56471000D02*
X154844000Y-56471000D01*
X160087000Y-56511000D02*
X158520000Y-56511000D01*
X156440000Y-56511000D02*
X154873000Y-56511000D01*
X160058000Y-56551000D02*
X158520000Y-56551000D01*
X156440000Y-56551000D02*
X154902000Y-56551000D01*
X160028000Y-56591000D02*
X158520000Y-56591000D01*
X156440000Y-56591000D02*
X154932000Y-56591000D01*
X159996000Y-56631000D02*
X158520000Y-56631000D01*
X156440000Y-56631000D02*
X154964000Y-56631000D01*
X159964000Y-56671000D02*
X158520000Y-56671000D01*
X156440000Y-56671000D02*
X154996000Y-56671000D01*
X159930000Y-56711000D02*
X158520000Y-56711000D01*
X156440000Y-56711000D02*
X155030000Y-56711000D01*
X159896000Y-56751000D02*
X158520000Y-56751000D01*
X156440000Y-56751000D02*
X155064000Y-56751000D01*
X159860000Y-56791000D02*
X158520000Y-56791000D01*
X156440000Y-56791000D02*
X155100000Y-56791000D01*
X159823000Y-56831000D02*
X158520000Y-56831000D01*
X156440000Y-56831000D02*
X155137000Y-56831000D01*
X159785000Y-56871000D02*
X158520000Y-56871000D01*
X156440000Y-56871000D02*
X155175000Y-56871000D01*
X159745000Y-56911000D02*
X155215000Y-56911000D01*
X159704000Y-56951000D02*
X155256000Y-56951000D01*
X159662000Y-56991000D02*
X155298000Y-56991000D01*
X159617000Y-57031000D02*
X155343000Y-57031000D01*
X159572000Y-57071000D02*
X155388000Y-57071000D01*
X159524000Y-57111000D02*
X155436000Y-57111000D01*
X159475000Y-57151000D02*
X155485000Y-57151000D01*
X159424000Y-57191000D02*
X155536000Y-57191000D01*
X159370000Y-57231000D02*
X155590000Y-57231000D01*
X159314000Y-57271000D02*
X155646000Y-57271000D01*
X159256000Y-57311000D02*
X155704000Y-57311000D01*
X159194000Y-57351000D02*
X155766000Y-57351000D01*
X159130000Y-57391000D02*
X155830000Y-57391000D01*
X159061000Y-57431000D02*
X155899000Y-57431000D01*
X158989000Y-57471000D02*
X155971000Y-57471000D01*
X158912000Y-57511000D02*
X156048000Y-57511000D01*
X158830000Y-57551000D02*
X156130000Y-57551000D01*
X158742000Y-57591000D02*
X156218000Y-57591000D01*
X158645000Y-57631000D02*
X156315000Y-57631000D01*
X158539000Y-57671000D02*
X156421000Y-57671000D01*
X158420000Y-57711000D02*
X156540000Y-57711000D01*
X158282000Y-57751000D02*
X156678000Y-57751000D01*
X158113000Y-57791000D02*
X156847000Y-57791000D01*
X157882000Y-57831000D02*
X157078000Y-57831000D01*
X159319000Y-51089759D02*
X159319000Y-51719759D01*
X159634000Y-51404759D02*
X159004000Y-51404759D01*
%TO.C,C3*%
X151860000Y-54590000D02*
G75*
G03*
X151860000Y-54590000I-3270000J0D01*
G01*
X151820000Y-54590000D02*
X145360000Y-54590000D01*
X151820000Y-54630000D02*
X145360000Y-54630000D01*
X151820000Y-54670000D02*
X145360000Y-54670000D01*
X151818000Y-54710000D02*
X145362000Y-54710000D01*
X151817000Y-54750000D02*
X145363000Y-54750000D01*
X151814000Y-54790000D02*
X145366000Y-54790000D01*
X151812000Y-54830000D02*
X149630000Y-54830000D01*
X147550000Y-54830000D02*
X145368000Y-54830000D01*
X151808000Y-54870000D02*
X149630000Y-54870000D01*
X147550000Y-54870000D02*
X145372000Y-54870000D01*
X151805000Y-54910000D02*
X149630000Y-54910000D01*
X147550000Y-54910000D02*
X145375000Y-54910000D01*
X151801000Y-54950000D02*
X149630000Y-54950000D01*
X147550000Y-54950000D02*
X145379000Y-54950000D01*
X151796000Y-54990000D02*
X149630000Y-54990000D01*
X147550000Y-54990000D02*
X145384000Y-54990000D01*
X151791000Y-55030000D02*
X149630000Y-55030000D01*
X147550000Y-55030000D02*
X145389000Y-55030000D01*
X151785000Y-55070000D02*
X149630000Y-55070000D01*
X147550000Y-55070000D02*
X145395000Y-55070000D01*
X151779000Y-55110000D02*
X149630000Y-55110000D01*
X147550000Y-55110000D02*
X145401000Y-55110000D01*
X151772000Y-55150000D02*
X149630000Y-55150000D01*
X147550000Y-55150000D02*
X145408000Y-55150000D01*
X151765000Y-55190000D02*
X149630000Y-55190000D01*
X147550000Y-55190000D02*
X145415000Y-55190000D01*
X151757000Y-55230000D02*
X149630000Y-55230000D01*
X147550000Y-55230000D02*
X145423000Y-55230000D01*
X151749000Y-55270000D02*
X149630000Y-55270000D01*
X147550000Y-55270000D02*
X145431000Y-55270000D01*
X151740000Y-55311000D02*
X149630000Y-55311000D01*
X147550000Y-55311000D02*
X145440000Y-55311000D01*
X151731000Y-55351000D02*
X149630000Y-55351000D01*
X147550000Y-55351000D02*
X145449000Y-55351000D01*
X151721000Y-55391000D02*
X149630000Y-55391000D01*
X147550000Y-55391000D02*
X145459000Y-55391000D01*
X151711000Y-55431000D02*
X149630000Y-55431000D01*
X147550000Y-55431000D02*
X145469000Y-55431000D01*
X151700000Y-55471000D02*
X149630000Y-55471000D01*
X147550000Y-55471000D02*
X145480000Y-55471000D01*
X151688000Y-55511000D02*
X149630000Y-55511000D01*
X147550000Y-55511000D02*
X145492000Y-55511000D01*
X151676000Y-55551000D02*
X149630000Y-55551000D01*
X147550000Y-55551000D02*
X145504000Y-55551000D01*
X151664000Y-55591000D02*
X149630000Y-55591000D01*
X147550000Y-55591000D02*
X145516000Y-55591000D01*
X151651000Y-55631000D02*
X149630000Y-55631000D01*
X147550000Y-55631000D02*
X145529000Y-55631000D01*
X151637000Y-55671000D02*
X149630000Y-55671000D01*
X147550000Y-55671000D02*
X145543000Y-55671000D01*
X151623000Y-55711000D02*
X149630000Y-55711000D01*
X147550000Y-55711000D02*
X145557000Y-55711000D01*
X151608000Y-55751000D02*
X149630000Y-55751000D01*
X147550000Y-55751000D02*
X145572000Y-55751000D01*
X151592000Y-55791000D02*
X149630000Y-55791000D01*
X147550000Y-55791000D02*
X145588000Y-55791000D01*
X151576000Y-55831000D02*
X149630000Y-55831000D01*
X147550000Y-55831000D02*
X145604000Y-55831000D01*
X151560000Y-55871000D02*
X149630000Y-55871000D01*
X147550000Y-55871000D02*
X145620000Y-55871000D01*
X151542000Y-55911000D02*
X149630000Y-55911000D01*
X147550000Y-55911000D02*
X145638000Y-55911000D01*
X151524000Y-55951000D02*
X149630000Y-55951000D01*
X147550000Y-55951000D02*
X145656000Y-55951000D01*
X151506000Y-55991000D02*
X149630000Y-55991000D01*
X147550000Y-55991000D02*
X145674000Y-55991000D01*
X151486000Y-56031000D02*
X149630000Y-56031000D01*
X147550000Y-56031000D02*
X145694000Y-56031000D01*
X151466000Y-56071000D02*
X149630000Y-56071000D01*
X147550000Y-56071000D02*
X145714000Y-56071000D01*
X151446000Y-56111000D02*
X149630000Y-56111000D01*
X147550000Y-56111000D02*
X145734000Y-56111000D01*
X151424000Y-56151000D02*
X149630000Y-56151000D01*
X147550000Y-56151000D02*
X145756000Y-56151000D01*
X151402000Y-56191000D02*
X149630000Y-56191000D01*
X147550000Y-56191000D02*
X145778000Y-56191000D01*
X151380000Y-56231000D02*
X149630000Y-56231000D01*
X147550000Y-56231000D02*
X145800000Y-56231000D01*
X151356000Y-56271000D02*
X149630000Y-56271000D01*
X147550000Y-56271000D02*
X145824000Y-56271000D01*
X151332000Y-56311000D02*
X149630000Y-56311000D01*
X147550000Y-56311000D02*
X145848000Y-56311000D01*
X151306000Y-56351000D02*
X149630000Y-56351000D01*
X147550000Y-56351000D02*
X145874000Y-56351000D01*
X151280000Y-56391000D02*
X149630000Y-56391000D01*
X147550000Y-56391000D02*
X145900000Y-56391000D01*
X151254000Y-56431000D02*
X149630000Y-56431000D01*
X147550000Y-56431000D02*
X145926000Y-56431000D01*
X151226000Y-56471000D02*
X149630000Y-56471000D01*
X147550000Y-56471000D02*
X145954000Y-56471000D01*
X151197000Y-56511000D02*
X149630000Y-56511000D01*
X147550000Y-56511000D02*
X145983000Y-56511000D01*
X151168000Y-56551000D02*
X149630000Y-56551000D01*
X147550000Y-56551000D02*
X146012000Y-56551000D01*
X151138000Y-56591000D02*
X149630000Y-56591000D01*
X147550000Y-56591000D02*
X146042000Y-56591000D01*
X151106000Y-56631000D02*
X149630000Y-56631000D01*
X147550000Y-56631000D02*
X146074000Y-56631000D01*
X151074000Y-56671000D02*
X149630000Y-56671000D01*
X147550000Y-56671000D02*
X146106000Y-56671000D01*
X151040000Y-56711000D02*
X149630000Y-56711000D01*
X147550000Y-56711000D02*
X146140000Y-56711000D01*
X151006000Y-56751000D02*
X149630000Y-56751000D01*
X147550000Y-56751000D02*
X146174000Y-56751000D01*
X150970000Y-56791000D02*
X149630000Y-56791000D01*
X147550000Y-56791000D02*
X146210000Y-56791000D01*
X150933000Y-56831000D02*
X149630000Y-56831000D01*
X147550000Y-56831000D02*
X146247000Y-56831000D01*
X150895000Y-56871000D02*
X149630000Y-56871000D01*
X147550000Y-56871000D02*
X146285000Y-56871000D01*
X150855000Y-56911000D02*
X146325000Y-56911000D01*
X150814000Y-56951000D02*
X146366000Y-56951000D01*
X150772000Y-56991000D02*
X146408000Y-56991000D01*
X150727000Y-57031000D02*
X146453000Y-57031000D01*
X150682000Y-57071000D02*
X146498000Y-57071000D01*
X150634000Y-57111000D02*
X146546000Y-57111000D01*
X150585000Y-57151000D02*
X146595000Y-57151000D01*
X150534000Y-57191000D02*
X146646000Y-57191000D01*
X150480000Y-57231000D02*
X146700000Y-57231000D01*
X150424000Y-57271000D02*
X146756000Y-57271000D01*
X150366000Y-57311000D02*
X146814000Y-57311000D01*
X150304000Y-57351000D02*
X146876000Y-57351000D01*
X150240000Y-57391000D02*
X146940000Y-57391000D01*
X150171000Y-57431000D02*
X147009000Y-57431000D01*
X150099000Y-57471000D02*
X147081000Y-57471000D01*
X150022000Y-57511000D02*
X147158000Y-57511000D01*
X149940000Y-57551000D02*
X147240000Y-57551000D01*
X149852000Y-57591000D02*
X147328000Y-57591000D01*
X149755000Y-57631000D02*
X147425000Y-57631000D01*
X149649000Y-57671000D02*
X147531000Y-57671000D01*
X149530000Y-57711000D02*
X147650000Y-57711000D01*
X149392000Y-57751000D02*
X147788000Y-57751000D01*
X149223000Y-57791000D02*
X147957000Y-57791000D01*
X148992000Y-57831000D02*
X148188000Y-57831000D01*
X150429000Y-51089759D02*
X150429000Y-51719759D01*
X150744000Y-51404759D02*
X150114000Y-51404759D01*
%TO.C,C2*%
X142740000Y-74780000D02*
X146780000Y-74780000D01*
X142740000Y-77620000D02*
X146780000Y-77620000D01*
X142740000Y-74780000D02*
X142740000Y-75405000D01*
X142740000Y-76995000D02*
X142740000Y-77620000D01*
X146780000Y-74780000D02*
X146780000Y-75405000D01*
X146780000Y-76995000D02*
X146780000Y-77620000D01*
%TO.C,C1*%
X135120000Y-74780000D02*
X139160000Y-74780000D01*
X135120000Y-77620000D02*
X139160000Y-77620000D01*
X135120000Y-74780000D02*
X135120000Y-75405000D01*
X135120000Y-76995000D02*
X135120000Y-77620000D01*
X139160000Y-74780000D02*
X139160000Y-75405000D01*
X139160000Y-76995000D02*
X139160000Y-77620000D01*
%TO.C,U5*%
D11*
X131742380Y-18541904D02*
X132551904Y-18541904D01*
X132647142Y-18494285D01*
X132694761Y-18446666D01*
X132742380Y-18351428D01*
X132742380Y-18160952D01*
X132694761Y-18065714D01*
X132647142Y-18018095D01*
X132551904Y-17970476D01*
X131742380Y-17970476D01*
X131742380Y-17018095D02*
X131742380Y-17494285D01*
X132218571Y-17541904D01*
X132170952Y-17494285D01*
X132123333Y-17399047D01*
X132123333Y-17160952D01*
X132170952Y-17065714D01*
X132218571Y-17018095D01*
X132313809Y-16970476D01*
X132551904Y-16970476D01*
X132647142Y-17018095D01*
X132694761Y-17065714D01*
X132742380Y-17160952D01*
X132742380Y-17399047D01*
X132694761Y-17494285D01*
X132647142Y-17541904D01*
%TO.C,U4*%
X105072380Y-18541904D02*
X105881904Y-18541904D01*
X105977142Y-18494285D01*
X106024761Y-18446666D01*
X106072380Y-18351428D01*
X106072380Y-18160952D01*
X106024761Y-18065714D01*
X105977142Y-18018095D01*
X105881904Y-17970476D01*
X105072380Y-17970476D01*
X105405714Y-17065714D02*
X106072380Y-17065714D01*
X105024761Y-17303809D02*
X105739047Y-17541904D01*
X105739047Y-16922857D01*
%TO.C,REF3*%
X2762380Y-90732380D02*
X2429047Y-90256190D01*
X2190952Y-90732380D02*
X2190952Y-89732380D01*
X2571904Y-89732380D01*
X2667142Y-89780000D01*
X2714761Y-89827619D01*
X2762380Y-89922857D01*
X2762380Y-90065714D01*
X2714761Y-90160952D01*
X2667142Y-90208571D01*
X2571904Y-90256190D01*
X2190952Y-90256190D01*
X3190952Y-90208571D02*
X3524285Y-90208571D01*
X3667142Y-90732380D02*
X3190952Y-90732380D01*
X3190952Y-89732380D01*
X3667142Y-89732380D01*
X4429047Y-90208571D02*
X4095714Y-90208571D01*
X4095714Y-90732380D02*
X4095714Y-89732380D01*
X4571904Y-89732380D01*
X4857619Y-89732380D02*
X5476666Y-89732380D01*
X5143333Y-90113333D01*
X5286190Y-90113333D01*
X5381428Y-90160952D01*
X5429047Y-90208571D01*
X5476666Y-90303809D01*
X5476666Y-90541904D01*
X5429047Y-90637142D01*
X5381428Y-90684761D01*
X5286190Y-90732380D01*
X5000476Y-90732380D01*
X4905238Y-90684761D01*
X4857619Y-90637142D01*
%TO.C,REF4*%
X194532380Y-90732380D02*
X194199047Y-90256190D01*
X193960952Y-90732380D02*
X193960952Y-89732380D01*
X194341904Y-89732380D01*
X194437142Y-89780000D01*
X194484761Y-89827619D01*
X194532380Y-89922857D01*
X194532380Y-90065714D01*
X194484761Y-90160952D01*
X194437142Y-90208571D01*
X194341904Y-90256190D01*
X193960952Y-90256190D01*
X194960952Y-90208571D02*
X195294285Y-90208571D01*
X195437142Y-90732380D02*
X194960952Y-90732380D01*
X194960952Y-89732380D01*
X195437142Y-89732380D01*
X196199047Y-90208571D02*
X195865714Y-90208571D01*
X195865714Y-90732380D02*
X195865714Y-89732380D01*
X196341904Y-89732380D01*
X197151428Y-90065714D02*
X197151428Y-90732380D01*
X196913333Y-89684761D02*
X196675238Y-90399047D01*
X197294285Y-90399047D01*
%TO.C,REF2*%
X194532380Y-562380D02*
X194199047Y-86190D01*
X193960952Y-562380D02*
X193960952Y437619D01*
X194341904Y437619D01*
X194437142Y390000D01*
X194484761Y342380D01*
X194532380Y247142D01*
X194532380Y104285D01*
X194484761Y9047D01*
X194437142Y-38571D01*
X194341904Y-86190D01*
X193960952Y-86190D01*
X194960952Y-38571D02*
X195294285Y-38571D01*
X195437142Y-562380D02*
X194960952Y-562380D01*
X194960952Y437619D01*
X195437142Y437619D01*
X196199047Y-38571D02*
X195865714Y-38571D01*
X195865714Y-562380D02*
X195865714Y437619D01*
X196341904Y437619D01*
X196675238Y342380D02*
X196722857Y390000D01*
X196818095Y437619D01*
X197056190Y437619D01*
X197151428Y390000D01*
X197199047Y342380D01*
X197246666Y247142D01*
X197246666Y151904D01*
X197199047Y9047D01*
X196627619Y-562380D01*
X197246666Y-562380D01*
%TO.C,REF1*%
X2762380Y-562380D02*
X2429047Y-86190D01*
X2190952Y-562380D02*
X2190952Y437619D01*
X2571904Y437619D01*
X2667142Y390000D01*
X2714761Y342380D01*
X2762380Y247142D01*
X2762380Y104285D01*
X2714761Y9047D01*
X2667142Y-38571D01*
X2571904Y-86190D01*
X2190952Y-86190D01*
X3190952Y-38571D02*
X3524285Y-38571D01*
X3667142Y-562380D02*
X3190952Y-562380D01*
X3190952Y437619D01*
X3667142Y437619D01*
X4429047Y-38571D02*
X4095714Y-38571D01*
X4095714Y-562380D02*
X4095714Y437619D01*
X4571904Y437619D01*
X5476666Y-562380D02*
X4905238Y-562380D01*
X5190952Y-562380D02*
X5190952Y437619D01*
X5095714Y294761D01*
X5000476Y199523D01*
X4905238Y151904D01*
%TO.C,Y1*%
X141123809Y-64436190D02*
X141123809Y-64912380D01*
X140790476Y-63912380D02*
X141123809Y-64436190D01*
X141457142Y-63912380D01*
X142314285Y-64912380D02*
X141742857Y-64912380D01*
X142028571Y-64912380D02*
X142028571Y-63912380D01*
X141933333Y-64055238D01*
X141838095Y-64150476D01*
X141742857Y-64198095D01*
%TO.C,U14*%
X75862380Y-41878095D02*
X76671904Y-41878095D01*
X76767142Y-41830476D01*
X76814761Y-41782857D01*
X76862380Y-41687619D01*
X76862380Y-41497142D01*
X76814761Y-41401904D01*
X76767142Y-41354285D01*
X76671904Y-41306666D01*
X75862380Y-41306666D01*
X76862380Y-40306666D02*
X76862380Y-40878095D01*
X76862380Y-40592380D02*
X75862380Y-40592380D01*
X76005238Y-40687619D01*
X76100476Y-40782857D01*
X76148095Y-40878095D01*
X76195714Y-39449523D02*
X76862380Y-39449523D01*
X75814761Y-39687619D02*
X76529047Y-39925714D01*
X76529047Y-39306666D01*
%TO.C,U13*%
X51732380Y-41878095D02*
X52541904Y-41878095D01*
X52637142Y-41830476D01*
X52684761Y-41782857D01*
X52732380Y-41687619D01*
X52732380Y-41497142D01*
X52684761Y-41401904D01*
X52637142Y-41354285D01*
X52541904Y-41306666D01*
X51732380Y-41306666D01*
X52732380Y-40306666D02*
X52732380Y-40878095D01*
X52732380Y-40592380D02*
X51732380Y-40592380D01*
X51875238Y-40687619D01*
X51970476Y-40782857D01*
X52018095Y-40878095D01*
X51732380Y-39973333D02*
X51732380Y-39354285D01*
X52113333Y-39687619D01*
X52113333Y-39544761D01*
X52160952Y-39449523D01*
X52208571Y-39401904D01*
X52303809Y-39354285D01*
X52541904Y-39354285D01*
X52637142Y-39401904D01*
X52684761Y-39449523D01*
X52732380Y-39544761D01*
X52732380Y-39830476D01*
X52684761Y-39925714D01*
X52637142Y-39973333D01*
%TO.C,U12*%
X27602380Y-41878095D02*
X28411904Y-41878095D01*
X28507142Y-41830476D01*
X28554761Y-41782857D01*
X28602380Y-41687619D01*
X28602380Y-41497142D01*
X28554761Y-41401904D01*
X28507142Y-41354285D01*
X28411904Y-41306666D01*
X27602380Y-41306666D01*
X28602380Y-40306666D02*
X28602380Y-40878095D01*
X28602380Y-40592380D02*
X27602380Y-40592380D01*
X27745238Y-40687619D01*
X27840476Y-40782857D01*
X27888095Y-40878095D01*
X27697619Y-39925714D02*
X27650000Y-39878095D01*
X27602380Y-39782857D01*
X27602380Y-39544761D01*
X27650000Y-39449523D01*
X27697619Y-39401904D01*
X27792857Y-39354285D01*
X27888095Y-39354285D01*
X28030952Y-39401904D01*
X28602380Y-39973333D01*
X28602380Y-39354285D01*
%TO.C,U11*%
X3472380Y-41878095D02*
X4281904Y-41878095D01*
X4377142Y-41830476D01*
X4424761Y-41782857D01*
X4472380Y-41687619D01*
X4472380Y-41497142D01*
X4424761Y-41401904D01*
X4377142Y-41354285D01*
X4281904Y-41306666D01*
X3472380Y-41306666D01*
X4472380Y-40306666D02*
X4472380Y-40878095D01*
X4472380Y-40592380D02*
X3472380Y-40592380D01*
X3615238Y-40687619D01*
X3710476Y-40782857D01*
X3758095Y-40878095D01*
X4472380Y-39354285D02*
X4472380Y-39925714D01*
X4472380Y-39640000D02*
X3472380Y-39640000D01*
X3615238Y-39735238D01*
X3710476Y-39830476D01*
X3758095Y-39925714D01*
%TO.C,U10*%
X148252380Y-41878095D02*
X149061904Y-41878095D01*
X149157142Y-41830476D01*
X149204761Y-41782857D01*
X149252380Y-41687619D01*
X149252380Y-41497142D01*
X149204761Y-41401904D01*
X149157142Y-41354285D01*
X149061904Y-41306666D01*
X148252380Y-41306666D01*
X149252380Y-40306666D02*
X149252380Y-40878095D01*
X149252380Y-40592380D02*
X148252380Y-40592380D01*
X148395238Y-40687619D01*
X148490476Y-40782857D01*
X148538095Y-40878095D01*
X148252380Y-39687619D02*
X148252380Y-39592380D01*
X148300000Y-39497142D01*
X148347619Y-39449523D01*
X148442857Y-39401904D01*
X148633333Y-39354285D01*
X148871428Y-39354285D01*
X149061904Y-39401904D01*
X149157142Y-39449523D01*
X149204761Y-39497142D01*
X149252380Y-39592380D01*
X149252380Y-39687619D01*
X149204761Y-39782857D01*
X149157142Y-39830476D01*
X149061904Y-39878095D01*
X148871428Y-39925714D01*
X148633333Y-39925714D01*
X148442857Y-39878095D01*
X148347619Y-39830476D01*
X148300000Y-39782857D01*
X148252380Y-39687619D01*
%TO.C,U9*%
X148252380Y-68071904D02*
X149061904Y-68071904D01*
X149157142Y-68024285D01*
X149204761Y-67976666D01*
X149252380Y-67881428D01*
X149252380Y-67690952D01*
X149204761Y-67595714D01*
X149157142Y-67548095D01*
X149061904Y-67500476D01*
X148252380Y-67500476D01*
X149252380Y-66976666D02*
X149252380Y-66786190D01*
X149204761Y-66690952D01*
X149157142Y-66643333D01*
X149014285Y-66548095D01*
X148823809Y-66500476D01*
X148442857Y-66500476D01*
X148347619Y-66548095D01*
X148300000Y-66595714D01*
X148252380Y-66690952D01*
X148252380Y-66881428D01*
X148300000Y-66976666D01*
X148347619Y-67024285D01*
X148442857Y-67071904D01*
X148680952Y-67071904D01*
X148776190Y-67024285D01*
X148823809Y-66976666D01*
X148871428Y-66881428D01*
X148871428Y-66690952D01*
X148823809Y-66595714D01*
X148776190Y-66548095D01*
X148680952Y-66500476D01*
%TO.C,U8*%
X124122380Y-41401904D02*
X124931904Y-41401904D01*
X125027142Y-41354285D01*
X125074761Y-41306666D01*
X125122380Y-41211428D01*
X125122380Y-41020952D01*
X125074761Y-40925714D01*
X125027142Y-40878095D01*
X124931904Y-40830476D01*
X124122380Y-40830476D01*
X124550952Y-40211428D02*
X124503333Y-40306666D01*
X124455714Y-40354285D01*
X124360476Y-40401904D01*
X124312857Y-40401904D01*
X124217619Y-40354285D01*
X124170000Y-40306666D01*
X124122380Y-40211428D01*
X124122380Y-40020952D01*
X124170000Y-39925714D01*
X124217619Y-39878095D01*
X124312857Y-39830476D01*
X124360476Y-39830476D01*
X124455714Y-39878095D01*
X124503333Y-39925714D01*
X124550952Y-40020952D01*
X124550952Y-40211428D01*
X124598571Y-40306666D01*
X124646190Y-40354285D01*
X124741428Y-40401904D01*
X124931904Y-40401904D01*
X125027142Y-40354285D01*
X125074761Y-40306666D01*
X125122380Y-40211428D01*
X125122380Y-40020952D01*
X125074761Y-39925714D01*
X125027142Y-39878095D01*
X124931904Y-39830476D01*
X124741428Y-39830476D01*
X124646190Y-39878095D01*
X124598571Y-39925714D01*
X124550952Y-40020952D01*
%TO.C,U7*%
X99992380Y-41401904D02*
X100801904Y-41401904D01*
X100897142Y-41354285D01*
X100944761Y-41306666D01*
X100992380Y-41211428D01*
X100992380Y-41020952D01*
X100944761Y-40925714D01*
X100897142Y-40878095D01*
X100801904Y-40830476D01*
X99992380Y-40830476D01*
X99992380Y-40449523D02*
X99992380Y-39782857D01*
X100992380Y-40211428D01*
%TO.C,U6*%
X158412380Y-18541904D02*
X159221904Y-18541904D01*
X159317142Y-18494285D01*
X159364761Y-18446666D01*
X159412380Y-18351428D01*
X159412380Y-18160952D01*
X159364761Y-18065714D01*
X159317142Y-18018095D01*
X159221904Y-17970476D01*
X158412380Y-17970476D01*
X158412380Y-17065714D02*
X158412380Y-17256190D01*
X158460000Y-17351428D01*
X158507619Y-17399047D01*
X158650476Y-17494285D01*
X158840952Y-17541904D01*
X159221904Y-17541904D01*
X159317142Y-17494285D01*
X159364761Y-17446666D01*
X159412380Y-17351428D01*
X159412380Y-17160952D01*
X159364761Y-17065714D01*
X159317142Y-17018095D01*
X159221904Y-16970476D01*
X158983809Y-16970476D01*
X158888571Y-17018095D01*
X158840952Y-17065714D01*
X158793333Y-17160952D01*
X158793333Y-17351428D01*
X158840952Y-17446666D01*
X158888571Y-17494285D01*
X158983809Y-17541904D01*
%TO.C,U3*%
X80942380Y-18541904D02*
X81751904Y-18541904D01*
X81847142Y-18494285D01*
X81894761Y-18446666D01*
X81942380Y-18351428D01*
X81942380Y-18160952D01*
X81894761Y-18065714D01*
X81847142Y-18018095D01*
X81751904Y-17970476D01*
X80942380Y-17970476D01*
X80942380Y-17589523D02*
X80942380Y-16970476D01*
X81323333Y-17303809D01*
X81323333Y-17160952D01*
X81370952Y-17065714D01*
X81418571Y-17018095D01*
X81513809Y-16970476D01*
X81751904Y-16970476D01*
X81847142Y-17018095D01*
X81894761Y-17065714D01*
X81942380Y-17160952D01*
X81942380Y-17446666D01*
X81894761Y-17541904D01*
X81847142Y-17589523D01*
%TO.C,U2*%
X54272380Y-18541904D02*
X55081904Y-18541904D01*
X55177142Y-18494285D01*
X55224761Y-18446666D01*
X55272380Y-18351428D01*
X55272380Y-18160952D01*
X55224761Y-18065714D01*
X55177142Y-18018095D01*
X55081904Y-17970476D01*
X54272380Y-17970476D01*
X54367619Y-17541904D02*
X54320000Y-17494285D01*
X54272380Y-17399047D01*
X54272380Y-17160952D01*
X54320000Y-17065714D01*
X54367619Y-17018095D01*
X54462857Y-16970476D01*
X54558095Y-16970476D01*
X54700952Y-17018095D01*
X55272380Y-17589523D01*
X55272380Y-16970476D01*
%TO.C,U1*%
X27602380Y-18541904D02*
X28411904Y-18541904D01*
X28507142Y-18494285D01*
X28554761Y-18446666D01*
X28602380Y-18351428D01*
X28602380Y-18160952D01*
X28554761Y-18065714D01*
X28507142Y-18018095D01*
X28411904Y-17970476D01*
X27602380Y-17970476D01*
X28602380Y-16970476D02*
X28602380Y-17541904D01*
X28602380Y-17256190D02*
X27602380Y-17256190D01*
X27745238Y-17351428D01*
X27840476Y-17446666D01*
X27888095Y-17541904D01*
%TO.C,SW3*%
X168846666Y-79644761D02*
X168989523Y-79692380D01*
X169227619Y-79692380D01*
X169322857Y-79644761D01*
X169370476Y-79597142D01*
X169418095Y-79501904D01*
X169418095Y-79406666D01*
X169370476Y-79311428D01*
X169322857Y-79263809D01*
X169227619Y-79216190D01*
X169037142Y-79168571D01*
X168941904Y-79120952D01*
X168894285Y-79073333D01*
X168846666Y-78978095D01*
X168846666Y-78882857D01*
X168894285Y-78787619D01*
X168941904Y-78740000D01*
X169037142Y-78692380D01*
X169275238Y-78692380D01*
X169418095Y-78740000D01*
X169751428Y-78692380D02*
X169989523Y-79692380D01*
X170180000Y-78978095D01*
X170370476Y-79692380D01*
X170608571Y-78692380D01*
X170894285Y-78692380D02*
X171513333Y-78692380D01*
X171180000Y-79073333D01*
X171322857Y-79073333D01*
X171418095Y-79120952D01*
X171465714Y-79168571D01*
X171513333Y-79263809D01*
X171513333Y-79501904D01*
X171465714Y-79597142D01*
X171418095Y-79644761D01*
X171322857Y-79692380D01*
X171037142Y-79692380D01*
X170941904Y-79644761D01*
X170894285Y-79597142D01*
%TO.C,SW2*%
X156146666Y-79644761D02*
X156289523Y-79692380D01*
X156527619Y-79692380D01*
X156622857Y-79644761D01*
X156670476Y-79597142D01*
X156718095Y-79501904D01*
X156718095Y-79406666D01*
X156670476Y-79311428D01*
X156622857Y-79263809D01*
X156527619Y-79216190D01*
X156337142Y-79168571D01*
X156241904Y-79120952D01*
X156194285Y-79073333D01*
X156146666Y-78978095D01*
X156146666Y-78882857D01*
X156194285Y-78787619D01*
X156241904Y-78740000D01*
X156337142Y-78692380D01*
X156575238Y-78692380D01*
X156718095Y-78740000D01*
X157051428Y-78692380D02*
X157289523Y-79692380D01*
X157480000Y-78978095D01*
X157670476Y-79692380D01*
X157908571Y-78692380D01*
X158241904Y-78787619D02*
X158289523Y-78740000D01*
X158384761Y-78692380D01*
X158622857Y-78692380D01*
X158718095Y-78740000D01*
X158765714Y-78787619D01*
X158813333Y-78882857D01*
X158813333Y-78978095D01*
X158765714Y-79120952D01*
X158194285Y-79692380D01*
X158813333Y-79692380D01*
%TO.C,SW1*%
X3746666Y-59324761D02*
X3889523Y-59372380D01*
X4127619Y-59372380D01*
X4222857Y-59324761D01*
X4270476Y-59277142D01*
X4318095Y-59181904D01*
X4318095Y-59086666D01*
X4270476Y-58991428D01*
X4222857Y-58943809D01*
X4127619Y-58896190D01*
X3937142Y-58848571D01*
X3841904Y-58800952D01*
X3794285Y-58753333D01*
X3746666Y-58658095D01*
X3746666Y-58562857D01*
X3794285Y-58467619D01*
X3841904Y-58420000D01*
X3937142Y-58372380D01*
X4175238Y-58372380D01*
X4318095Y-58420000D01*
X4651428Y-58372380D02*
X4889523Y-59372380D01*
X5080000Y-58658095D01*
X5270476Y-59372380D01*
X5508571Y-58372380D01*
X6413333Y-59372380D02*
X5841904Y-59372380D01*
X6127619Y-59372380D02*
X6127619Y-58372380D01*
X6032380Y-58515238D01*
X5937142Y-58610476D01*
X5841904Y-58658095D01*
%TO.C,RN1*%
X57729523Y-57742380D02*
X57396190Y-57266190D01*
X57158095Y-57742380D02*
X57158095Y-56742380D01*
X57539047Y-56742380D01*
X57634285Y-56790000D01*
X57681904Y-56837619D01*
X57729523Y-56932857D01*
X57729523Y-57075714D01*
X57681904Y-57170952D01*
X57634285Y-57218571D01*
X57539047Y-57266190D01*
X57158095Y-57266190D01*
X58158095Y-57742380D02*
X58158095Y-56742380D01*
X58729523Y-57742380D01*
X58729523Y-56742380D01*
X59729523Y-57742380D02*
X59158095Y-57742380D01*
X59443809Y-57742380D02*
X59443809Y-56742380D01*
X59348571Y-56885238D01*
X59253333Y-56980476D01*
X59158095Y-57028095D01*
%TO.C,R8*%
X114133333Y-59042380D02*
X113800000Y-58566190D01*
X113561904Y-59042380D02*
X113561904Y-58042380D01*
X113942857Y-58042380D01*
X114038095Y-58090000D01*
X114085714Y-58137619D01*
X114133333Y-58232857D01*
X114133333Y-58375714D01*
X114085714Y-58470952D01*
X114038095Y-58518571D01*
X113942857Y-58566190D01*
X113561904Y-58566190D01*
X114704761Y-58470952D02*
X114609523Y-58423333D01*
X114561904Y-58375714D01*
X114514285Y-58280476D01*
X114514285Y-58232857D01*
X114561904Y-58137619D01*
X114609523Y-58090000D01*
X114704761Y-58042380D01*
X114895238Y-58042380D01*
X114990476Y-58090000D01*
X115038095Y-58137619D01*
X115085714Y-58232857D01*
X115085714Y-58280476D01*
X115038095Y-58375714D01*
X114990476Y-58423333D01*
X114895238Y-58470952D01*
X114704761Y-58470952D01*
X114609523Y-58518571D01*
X114561904Y-58566190D01*
X114514285Y-58661428D01*
X114514285Y-58851904D01*
X114561904Y-58947142D01*
X114609523Y-58994761D01*
X114704761Y-59042380D01*
X114895238Y-59042380D01*
X114990476Y-58994761D01*
X115038095Y-58947142D01*
X115085714Y-58851904D01*
X115085714Y-58661428D01*
X115038095Y-58566190D01*
X114990476Y-58518571D01*
X114895238Y-58470952D01*
%TO.C,R7*%
X114133333Y-51422380D02*
X113800000Y-50946190D01*
X113561904Y-51422380D02*
X113561904Y-50422380D01*
X113942857Y-50422380D01*
X114038095Y-50470000D01*
X114085714Y-50517619D01*
X114133333Y-50612857D01*
X114133333Y-50755714D01*
X114085714Y-50850952D01*
X114038095Y-50898571D01*
X113942857Y-50946190D01*
X113561904Y-50946190D01*
X114466666Y-50422380D02*
X115133333Y-50422380D01*
X114704761Y-51422380D01*
%TO.C,R6*%
X153503333Y-622380D02*
X153170000Y-146190D01*
X152931904Y-622380D02*
X152931904Y377619D01*
X153312857Y377619D01*
X153408095Y330000D01*
X153455714Y282380D01*
X153503333Y187142D01*
X153503333Y44285D01*
X153455714Y-50952D01*
X153408095Y-98571D01*
X153312857Y-146190D01*
X152931904Y-146190D01*
X154360476Y377619D02*
X154170000Y377619D01*
X154074761Y330000D01*
X154027142Y282380D01*
X153931904Y139523D01*
X153884285Y-50952D01*
X153884285Y-431904D01*
X153931904Y-527142D01*
X153979523Y-574761D01*
X154074761Y-622380D01*
X154265238Y-622380D01*
X154360476Y-574761D01*
X154408095Y-527142D01*
X154455714Y-431904D01*
X154455714Y-193809D01*
X154408095Y-98571D01*
X154360476Y-50952D01*
X154265238Y-3333D01*
X154074761Y-3333D01*
X153979523Y-50952D01*
X153931904Y-98571D01*
X153884285Y-193809D01*
%TO.C,R5*%
X139343333Y-482380D02*
X139010000Y-6190D01*
X138771904Y-482380D02*
X138771904Y517619D01*
X139152857Y517619D01*
X139248095Y470000D01*
X139295714Y422380D01*
X139343333Y327142D01*
X139343333Y184285D01*
X139295714Y89047D01*
X139248095Y41428D01*
X139152857Y-6190D01*
X138771904Y-6190D01*
X140248095Y517619D02*
X139771904Y517619D01*
X139724285Y41428D01*
X139771904Y89047D01*
X139867142Y136666D01*
X140105238Y136666D01*
X140200476Y89047D01*
X140248095Y41428D01*
X140295714Y-53809D01*
X140295714Y-291904D01*
X140248095Y-387142D01*
X140200476Y-434761D01*
X140105238Y-482380D01*
X139867142Y-482380D01*
X139771904Y-434761D01*
X139724285Y-387142D01*
%TO.C,R4*%
X167473333Y-28562380D02*
X167140000Y-28086190D01*
X166901904Y-28562380D02*
X166901904Y-27562380D01*
X167282857Y-27562380D01*
X167378095Y-27610000D01*
X167425714Y-27657619D01*
X167473333Y-27752857D01*
X167473333Y-27895714D01*
X167425714Y-27990952D01*
X167378095Y-28038571D01*
X167282857Y-28086190D01*
X166901904Y-28086190D01*
X168330476Y-27895714D02*
X168330476Y-28562380D01*
X168092380Y-27514761D02*
X167854285Y-28229047D01*
X168473333Y-28229047D01*
%TO.C,R3*%
X152233333Y-28562380D02*
X151900000Y-28086190D01*
X151661904Y-28562380D02*
X151661904Y-27562380D01*
X152042857Y-27562380D01*
X152138095Y-27610000D01*
X152185714Y-27657619D01*
X152233333Y-27752857D01*
X152233333Y-27895714D01*
X152185714Y-27990952D01*
X152138095Y-28038571D01*
X152042857Y-28086190D01*
X151661904Y-28086190D01*
X152566666Y-27562380D02*
X153185714Y-27562380D01*
X152852380Y-27943333D01*
X152995238Y-27943333D01*
X153090476Y-27990952D01*
X153138095Y-28038571D01*
X153185714Y-28133809D01*
X153185714Y-28371904D01*
X153138095Y-28467142D01*
X153090476Y-28514761D01*
X152995238Y-28562380D01*
X152709523Y-28562380D01*
X152614285Y-28514761D01*
X152566666Y-28467142D01*
%TO.C,R2*%
X140803333Y-79362380D02*
X140470000Y-78886190D01*
X140231904Y-79362380D02*
X140231904Y-78362380D01*
X140612857Y-78362380D01*
X140708095Y-78410000D01*
X140755714Y-78457619D01*
X140803333Y-78552857D01*
X140803333Y-78695714D01*
X140755714Y-78790952D01*
X140708095Y-78838571D01*
X140612857Y-78886190D01*
X140231904Y-78886190D01*
X141184285Y-78457619D02*
X141231904Y-78410000D01*
X141327142Y-78362380D01*
X141565238Y-78362380D01*
X141660476Y-78410000D01*
X141708095Y-78457619D01*
X141755714Y-78552857D01*
X141755714Y-78648095D01*
X141708095Y-78790952D01*
X141136666Y-79362380D01*
X141755714Y-79362380D01*
%TO.C,R1*%
X30313333Y-622380D02*
X29980000Y-146190D01*
X29741904Y-622380D02*
X29741904Y377619D01*
X30122857Y377619D01*
X30218095Y330000D01*
X30265714Y282380D01*
X30313333Y187142D01*
X30313333Y44285D01*
X30265714Y-50952D01*
X30218095Y-98571D01*
X30122857Y-146190D01*
X29741904Y-146190D01*
X31265714Y-622380D02*
X30694285Y-622380D01*
X30980000Y-622380D02*
X30980000Y377619D01*
X30884761Y234761D01*
X30789523Y139523D01*
X30694285Y91904D01*
%TO.C,J8*%
X85602380Y-5413333D02*
X86316666Y-5413333D01*
X86459523Y-5460952D01*
X86554761Y-5556190D01*
X86602380Y-5699047D01*
X86602380Y-5794285D01*
X86030952Y-4794285D02*
X85983333Y-4889523D01*
X85935714Y-4937142D01*
X85840476Y-4984761D01*
X85792857Y-4984761D01*
X85697619Y-4937142D01*
X85650000Y-4889523D01*
X85602380Y-4794285D01*
X85602380Y-4603809D01*
X85650000Y-4508571D01*
X85697619Y-4460952D01*
X85792857Y-4413333D01*
X85840476Y-4413333D01*
X85935714Y-4460952D01*
X85983333Y-4508571D01*
X86030952Y-4603809D01*
X86030952Y-4794285D01*
X86078571Y-4889523D01*
X86126190Y-4937142D01*
X86221428Y-4984761D01*
X86411904Y-4984761D01*
X86507142Y-4937142D01*
X86554761Y-4889523D01*
X86602380Y-4794285D01*
X86602380Y-4603809D01*
X86554761Y-4508571D01*
X86507142Y-4460952D01*
X86411904Y-4413333D01*
X86221428Y-4413333D01*
X86126190Y-4460952D01*
X86078571Y-4508571D01*
X86030952Y-4603809D01*
%TO.C,J7*%
X8676666Y-26152380D02*
X8676666Y-26866666D01*
X8629047Y-27009523D01*
X8533809Y-27104761D01*
X8390952Y-27152380D01*
X8295714Y-27152380D01*
X9057619Y-26152380D02*
X9724285Y-26152380D01*
X9295714Y-27152380D01*
%TO.C,J6*%
X187626666Y-53002380D02*
X187626666Y-53716666D01*
X187579047Y-53859523D01*
X187483809Y-53954761D01*
X187340952Y-54002380D01*
X187245714Y-54002380D01*
X188531428Y-53002380D02*
X188340952Y-53002380D01*
X188245714Y-53050000D01*
X188198095Y-53097619D01*
X188102857Y-53240476D01*
X188055238Y-53430952D01*
X188055238Y-53811904D01*
X188102857Y-53907142D01*
X188150476Y-53954761D01*
X188245714Y-54002380D01*
X188436190Y-54002380D01*
X188531428Y-53954761D01*
X188579047Y-53907142D01*
X188626666Y-53811904D01*
X188626666Y-53573809D01*
X188579047Y-53478571D01*
X188531428Y-53430952D01*
X188436190Y-53383333D01*
X188245714Y-53383333D01*
X188150476Y-53430952D01*
X188102857Y-53478571D01*
X188055238Y-53573809D01*
%TO.C,J5*%
X50042380Y-84153333D02*
X50756666Y-84153333D01*
X50899523Y-84200952D01*
X50994761Y-84296190D01*
X51042380Y-84439047D01*
X51042380Y-84534285D01*
X50042380Y-83200952D02*
X50042380Y-83677142D01*
X50518571Y-83724761D01*
X50470952Y-83677142D01*
X50423333Y-83581904D01*
X50423333Y-83343809D01*
X50470952Y-83248571D01*
X50518571Y-83200952D01*
X50613809Y-83153333D01*
X50851904Y-83153333D01*
X50947142Y-83200952D01*
X50994761Y-83248571D01*
X51042380Y-83343809D01*
X51042380Y-83581904D01*
X50994761Y-83677142D01*
X50947142Y-83724761D01*
%TO.C,J4*%
X124126666Y-68242380D02*
X124126666Y-68956666D01*
X124079047Y-69099523D01*
X123983809Y-69194761D01*
X123840952Y-69242380D01*
X123745714Y-69242380D01*
X125031428Y-68575714D02*
X125031428Y-69242380D01*
X124793333Y-68194761D02*
X124555238Y-68909047D01*
X125174285Y-68909047D01*
%TO.C,J3*%
X70782380Y-84153333D02*
X71496666Y-84153333D01*
X71639523Y-84200952D01*
X71734761Y-84296190D01*
X71782380Y-84439047D01*
X71782380Y-84534285D01*
X70782380Y-83772380D02*
X70782380Y-83153333D01*
X71163333Y-83486666D01*
X71163333Y-83343809D01*
X71210952Y-83248571D01*
X71258571Y-83200952D01*
X71353809Y-83153333D01*
X71591904Y-83153333D01*
X71687142Y-83200952D01*
X71734761Y-83248571D01*
X71782380Y-83343809D01*
X71782380Y-83629523D01*
X71734761Y-83724761D01*
X71687142Y-83772380D01*
%TO.C,J2*%
X187626666Y-35222380D02*
X187626666Y-35936666D01*
X187579047Y-36079523D01*
X187483809Y-36174761D01*
X187340952Y-36222380D01*
X187245714Y-36222380D01*
X188055238Y-35317619D02*
X188102857Y-35270000D01*
X188198095Y-35222380D01*
X188436190Y-35222380D01*
X188531428Y-35270000D01*
X188579047Y-35317619D01*
X188626666Y-35412857D01*
X188626666Y-35508095D01*
X188579047Y-35650952D01*
X188007619Y-36222380D01*
X188626666Y-36222380D01*
%TO.C,J1*%
X187626666Y-11092380D02*
X187626666Y-11806666D01*
X187579047Y-11949523D01*
X187483809Y-12044761D01*
X187340952Y-12092380D01*
X187245714Y-12092380D01*
X188626666Y-12092380D02*
X188055238Y-12092380D01*
X188340952Y-12092380D02*
X188340952Y-11092380D01*
X188245714Y-11235238D01*
X188150476Y-11330476D01*
X188055238Y-11378095D01*
%TO.C,D10*%
X164132380Y-5024285D02*
X163132380Y-5024285D01*
X163132380Y-4786190D01*
X163180000Y-4643333D01*
X163275238Y-4548095D01*
X163370476Y-4500476D01*
X163560952Y-4452857D01*
X163703809Y-4452857D01*
X163894285Y-4500476D01*
X163989523Y-4548095D01*
X164084761Y-4643333D01*
X164132380Y-4786190D01*
X164132380Y-5024285D01*
X164132380Y-3500476D02*
X164132380Y-4071904D01*
X164132380Y-3786190D02*
X163132380Y-3786190D01*
X163275238Y-3881428D01*
X163370476Y-3976666D01*
X163418095Y-4071904D01*
X163132380Y-2881428D02*
X163132380Y-2786190D01*
X163180000Y-2690952D01*
X163227619Y-2643333D01*
X163322857Y-2595714D01*
X163513333Y-2548095D01*
X163751428Y-2548095D01*
X163941904Y-2595714D01*
X164037142Y-2643333D01*
X164084761Y-2690952D01*
X164132380Y-2786190D01*
X164132380Y-2881428D01*
X164084761Y-2976666D01*
X164037142Y-3024285D01*
X163941904Y-3071904D01*
X163751428Y-3119523D01*
X163513333Y-3119523D01*
X163322857Y-3071904D01*
X163227619Y-3024285D01*
X163180000Y-2976666D01*
X163132380Y-2881428D01*
%TO.C,D9*%
X122222380Y-4548095D02*
X121222380Y-4548095D01*
X121222380Y-4310000D01*
X121270000Y-4167142D01*
X121365238Y-4071904D01*
X121460476Y-4024285D01*
X121650952Y-3976666D01*
X121793809Y-3976666D01*
X121984285Y-4024285D01*
X122079523Y-4071904D01*
X122174761Y-4167142D01*
X122222380Y-4310000D01*
X122222380Y-4548095D01*
X122222380Y-3500476D02*
X122222380Y-3310000D01*
X122174761Y-3214761D01*
X122127142Y-3167142D01*
X121984285Y-3071904D01*
X121793809Y-3024285D01*
X121412857Y-3024285D01*
X121317619Y-3071904D01*
X121270000Y-3119523D01*
X121222380Y-3214761D01*
X121222380Y-3405238D01*
X121270000Y-3500476D01*
X121317619Y-3548095D01*
X121412857Y-3595714D01*
X121650952Y-3595714D01*
X121746190Y-3548095D01*
X121793809Y-3500476D01*
X121841428Y-3405238D01*
X121841428Y-3214761D01*
X121793809Y-3119523D01*
X121746190Y-3071904D01*
X121650952Y-3024285D01*
%TO.C,D8*%
X23162380Y-68048095D02*
X22162380Y-68048095D01*
X22162380Y-67810000D01*
X22210000Y-67667142D01*
X22305238Y-67571904D01*
X22400476Y-67524285D01*
X22590952Y-67476666D01*
X22733809Y-67476666D01*
X22924285Y-67524285D01*
X23019523Y-67571904D01*
X23114761Y-67667142D01*
X23162380Y-67810000D01*
X23162380Y-68048095D01*
X22590952Y-66905238D02*
X22543333Y-67000476D01*
X22495714Y-67048095D01*
X22400476Y-67095714D01*
X22352857Y-67095714D01*
X22257619Y-67048095D01*
X22210000Y-67000476D01*
X22162380Y-66905238D01*
X22162380Y-66714761D01*
X22210000Y-66619523D01*
X22257619Y-66571904D01*
X22352857Y-66524285D01*
X22400476Y-66524285D01*
X22495714Y-66571904D01*
X22543333Y-66619523D01*
X22590952Y-66714761D01*
X22590952Y-66905238D01*
X22638571Y-67000476D01*
X22686190Y-67048095D01*
X22781428Y-67095714D01*
X22971904Y-67095714D01*
X23067142Y-67048095D01*
X23114761Y-67000476D01*
X23162380Y-66905238D01*
X23162380Y-66714761D01*
X23114761Y-66619523D01*
X23067142Y-66571904D01*
X22971904Y-66524285D01*
X22781428Y-66524285D01*
X22686190Y-66571904D01*
X22638571Y-66619523D01*
X22590952Y-66714761D01*
%TO.C,D7*%
X32052380Y-68048095D02*
X31052380Y-68048095D01*
X31052380Y-67810000D01*
X31100000Y-67667142D01*
X31195238Y-67571904D01*
X31290476Y-67524285D01*
X31480952Y-67476666D01*
X31623809Y-67476666D01*
X31814285Y-67524285D01*
X31909523Y-67571904D01*
X32004761Y-67667142D01*
X32052380Y-67810000D01*
X32052380Y-68048095D01*
X31052380Y-67143333D02*
X31052380Y-66476666D01*
X32052380Y-66905238D01*
%TO.C,D6*%
X40942380Y-68048095D02*
X39942380Y-68048095D01*
X39942380Y-67810000D01*
X39990000Y-67667142D01*
X40085238Y-67571904D01*
X40180476Y-67524285D01*
X40370952Y-67476666D01*
X40513809Y-67476666D01*
X40704285Y-67524285D01*
X40799523Y-67571904D01*
X40894761Y-67667142D01*
X40942380Y-67810000D01*
X40942380Y-68048095D01*
X39942380Y-66619523D02*
X39942380Y-66810000D01*
X39990000Y-66905238D01*
X40037619Y-66952857D01*
X40180476Y-67048095D01*
X40370952Y-67095714D01*
X40751904Y-67095714D01*
X40847142Y-67048095D01*
X40894761Y-67000476D01*
X40942380Y-66905238D01*
X40942380Y-66714761D01*
X40894761Y-66619523D01*
X40847142Y-66571904D01*
X40751904Y-66524285D01*
X40513809Y-66524285D01*
X40418571Y-66571904D01*
X40370952Y-66619523D01*
X40323333Y-66714761D01*
X40323333Y-66905238D01*
X40370952Y-67000476D01*
X40418571Y-67048095D01*
X40513809Y-67095714D01*
%TO.C,D5*%
X49832380Y-68048095D02*
X48832380Y-68048095D01*
X48832380Y-67810000D01*
X48880000Y-67667142D01*
X48975238Y-67571904D01*
X49070476Y-67524285D01*
X49260952Y-67476666D01*
X49403809Y-67476666D01*
X49594285Y-67524285D01*
X49689523Y-67571904D01*
X49784761Y-67667142D01*
X49832380Y-67810000D01*
X49832380Y-68048095D01*
X48832380Y-66571904D02*
X48832380Y-67048095D01*
X49308571Y-67095714D01*
X49260952Y-67048095D01*
X49213333Y-66952857D01*
X49213333Y-66714761D01*
X49260952Y-66619523D01*
X49308571Y-66571904D01*
X49403809Y-66524285D01*
X49641904Y-66524285D01*
X49737142Y-66571904D01*
X49784761Y-66619523D01*
X49832380Y-66714761D01*
X49832380Y-66952857D01*
X49784761Y-67048095D01*
X49737142Y-67095714D01*
%TO.C,D4*%
X58722380Y-68048095D02*
X57722380Y-68048095D01*
X57722380Y-67810000D01*
X57770000Y-67667142D01*
X57865238Y-67571904D01*
X57960476Y-67524285D01*
X58150952Y-67476666D01*
X58293809Y-67476666D01*
X58484285Y-67524285D01*
X58579523Y-67571904D01*
X58674761Y-67667142D01*
X58722380Y-67810000D01*
X58722380Y-68048095D01*
X58055714Y-66619523D02*
X58722380Y-66619523D01*
X57674761Y-66857619D02*
X58389047Y-67095714D01*
X58389047Y-66476666D01*
%TO.C,D3*%
X67612380Y-68048095D02*
X66612380Y-68048095D01*
X66612380Y-67810000D01*
X66660000Y-67667142D01*
X66755238Y-67571904D01*
X66850476Y-67524285D01*
X67040952Y-67476666D01*
X67183809Y-67476666D01*
X67374285Y-67524285D01*
X67469523Y-67571904D01*
X67564761Y-67667142D01*
X67612380Y-67810000D01*
X67612380Y-68048095D01*
X66612380Y-67143333D02*
X66612380Y-66524285D01*
X66993333Y-66857619D01*
X66993333Y-66714761D01*
X67040952Y-66619523D01*
X67088571Y-66571904D01*
X67183809Y-66524285D01*
X67421904Y-66524285D01*
X67517142Y-66571904D01*
X67564761Y-66619523D01*
X67612380Y-66714761D01*
X67612380Y-67000476D01*
X67564761Y-67095714D01*
X67517142Y-67143333D01*
%TO.C,D2*%
X76502380Y-68048095D02*
X75502380Y-68048095D01*
X75502380Y-67810000D01*
X75550000Y-67667142D01*
X75645238Y-67571904D01*
X75740476Y-67524285D01*
X75930952Y-67476666D01*
X76073809Y-67476666D01*
X76264285Y-67524285D01*
X76359523Y-67571904D01*
X76454761Y-67667142D01*
X76502380Y-67810000D01*
X76502380Y-68048095D01*
X75597619Y-67095714D02*
X75550000Y-67048095D01*
X75502380Y-66952857D01*
X75502380Y-66714761D01*
X75550000Y-66619523D01*
X75597619Y-66571904D01*
X75692857Y-66524285D01*
X75788095Y-66524285D01*
X75930952Y-66571904D01*
X76502380Y-67143333D01*
X76502380Y-66524285D01*
%TO.C,D1*%
X85392380Y-68048095D02*
X84392380Y-68048095D01*
X84392380Y-67810000D01*
X84440000Y-67667142D01*
X84535238Y-67571904D01*
X84630476Y-67524285D01*
X84820952Y-67476666D01*
X84963809Y-67476666D01*
X85154285Y-67524285D01*
X85249523Y-67571904D01*
X85344761Y-67667142D01*
X85392380Y-67810000D01*
X85392380Y-68048095D01*
X85392380Y-66524285D02*
X85392380Y-67095714D01*
X85392380Y-66810000D02*
X84392380Y-66810000D01*
X84535238Y-66905238D01*
X84630476Y-67000476D01*
X84678095Y-67095714D01*
%TO.C,C8*%
X133027142Y-54756666D02*
X133074761Y-54804285D01*
X133122380Y-54947142D01*
X133122380Y-55042380D01*
X133074761Y-55185238D01*
X132979523Y-55280476D01*
X132884285Y-55328095D01*
X132693809Y-55375714D01*
X132550952Y-55375714D01*
X132360476Y-55328095D01*
X132265238Y-55280476D01*
X132170000Y-55185238D01*
X132122380Y-55042380D01*
X132122380Y-54947142D01*
X132170000Y-54804285D01*
X132217619Y-54756666D01*
X132550952Y-54185238D02*
X132503333Y-54280476D01*
X132455714Y-54328095D01*
X132360476Y-54375714D01*
X132312857Y-54375714D01*
X132217619Y-54328095D01*
X132170000Y-54280476D01*
X132122380Y-54185238D01*
X132122380Y-53994761D01*
X132170000Y-53899523D01*
X132217619Y-53851904D01*
X132312857Y-53804285D01*
X132360476Y-53804285D01*
X132455714Y-53851904D01*
X132503333Y-53899523D01*
X132550952Y-53994761D01*
X132550952Y-54185238D01*
X132598571Y-54280476D01*
X132646190Y-54328095D01*
X132741428Y-54375714D01*
X132931904Y-54375714D01*
X133027142Y-54328095D01*
X133074761Y-54280476D01*
X133122380Y-54185238D01*
X133122380Y-53994761D01*
X133074761Y-53899523D01*
X133027142Y-53851904D01*
X132931904Y-53804285D01*
X132741428Y-53804285D01*
X132646190Y-53851904D01*
X132598571Y-53899523D01*
X132550952Y-53994761D01*
%TO.C,C7*%
X143187142Y-54756666D02*
X143234761Y-54804285D01*
X143282380Y-54947142D01*
X143282380Y-55042380D01*
X143234761Y-55185238D01*
X143139523Y-55280476D01*
X143044285Y-55328095D01*
X142853809Y-55375714D01*
X142710952Y-55375714D01*
X142520476Y-55328095D01*
X142425238Y-55280476D01*
X142330000Y-55185238D01*
X142282380Y-55042380D01*
X142282380Y-54947142D01*
X142330000Y-54804285D01*
X142377619Y-54756666D01*
X142282380Y-54423333D02*
X142282380Y-53756666D01*
X143282380Y-54185238D01*
%TO.C,C6*%
X180017142Y-54756666D02*
X180064761Y-54804285D01*
X180112380Y-54947142D01*
X180112380Y-55042380D01*
X180064761Y-55185238D01*
X179969523Y-55280476D01*
X179874285Y-55328095D01*
X179683809Y-55375714D01*
X179540952Y-55375714D01*
X179350476Y-55328095D01*
X179255238Y-55280476D01*
X179160000Y-55185238D01*
X179112380Y-55042380D01*
X179112380Y-54947142D01*
X179160000Y-54804285D01*
X179207619Y-54756666D01*
X179112380Y-53899523D02*
X179112380Y-54090000D01*
X179160000Y-54185238D01*
X179207619Y-54232857D01*
X179350476Y-54328095D01*
X179540952Y-54375714D01*
X179921904Y-54375714D01*
X180017142Y-54328095D01*
X180064761Y-54280476D01*
X180112380Y-54185238D01*
X180112380Y-53994761D01*
X180064761Y-53899523D01*
X180017142Y-53851904D01*
X179921904Y-53804285D01*
X179683809Y-53804285D01*
X179588571Y-53851904D01*
X179540952Y-53899523D01*
X179493333Y-53994761D01*
X179493333Y-54185238D01*
X179540952Y-54280476D01*
X179588571Y-54328095D01*
X179683809Y-54375714D01*
%TO.C,C5*%
X171127142Y-54756666D02*
X171174761Y-54804285D01*
X171222380Y-54947142D01*
X171222380Y-55042380D01*
X171174761Y-55185238D01*
X171079523Y-55280476D01*
X170984285Y-55328095D01*
X170793809Y-55375714D01*
X170650952Y-55375714D01*
X170460476Y-55328095D01*
X170365238Y-55280476D01*
X170270000Y-55185238D01*
X170222380Y-55042380D01*
X170222380Y-54947142D01*
X170270000Y-54804285D01*
X170317619Y-54756666D01*
X170222380Y-53851904D02*
X170222380Y-54328095D01*
X170698571Y-54375714D01*
X170650952Y-54328095D01*
X170603333Y-54232857D01*
X170603333Y-53994761D01*
X170650952Y-53899523D01*
X170698571Y-53851904D01*
X170793809Y-53804285D01*
X171031904Y-53804285D01*
X171127142Y-53851904D01*
X171174761Y-53899523D01*
X171222380Y-53994761D01*
X171222380Y-54232857D01*
X171174761Y-54328095D01*
X171127142Y-54375714D01*
%TO.C,C4*%
X162237142Y-54756666D02*
X162284761Y-54804285D01*
X162332380Y-54947142D01*
X162332380Y-55042380D01*
X162284761Y-55185238D01*
X162189523Y-55280476D01*
X162094285Y-55328095D01*
X161903809Y-55375714D01*
X161760952Y-55375714D01*
X161570476Y-55328095D01*
X161475238Y-55280476D01*
X161380000Y-55185238D01*
X161332380Y-55042380D01*
X161332380Y-54947142D01*
X161380000Y-54804285D01*
X161427619Y-54756666D01*
X161665714Y-53899523D02*
X162332380Y-53899523D01*
X161284761Y-54137619D02*
X161999047Y-54375714D01*
X161999047Y-53756666D01*
%TO.C,C3*%
X153347142Y-54756666D02*
X153394761Y-54804285D01*
X153442380Y-54947142D01*
X153442380Y-55042380D01*
X153394761Y-55185238D01*
X153299523Y-55280476D01*
X153204285Y-55328095D01*
X153013809Y-55375714D01*
X152870952Y-55375714D01*
X152680476Y-55328095D01*
X152585238Y-55280476D01*
X152490000Y-55185238D01*
X152442380Y-55042380D01*
X152442380Y-54947142D01*
X152490000Y-54804285D01*
X152537619Y-54756666D01*
X152442380Y-54423333D02*
X152442380Y-53804285D01*
X152823333Y-54137619D01*
X152823333Y-53994761D01*
X152870952Y-53899523D01*
X152918571Y-53851904D01*
X153013809Y-53804285D01*
X153251904Y-53804285D01*
X153347142Y-53851904D01*
X153394761Y-53899523D01*
X153442380Y-53994761D01*
X153442380Y-54280476D01*
X153394761Y-54375714D01*
X153347142Y-54423333D01*
%TO.C,C2*%
X144593333Y-74007142D02*
X144545714Y-74054761D01*
X144402857Y-74102380D01*
X144307619Y-74102380D01*
X144164761Y-74054761D01*
X144069523Y-73959523D01*
X144021904Y-73864285D01*
X143974285Y-73673809D01*
X143974285Y-73530952D01*
X144021904Y-73340476D01*
X144069523Y-73245238D01*
X144164761Y-73150000D01*
X144307619Y-73102380D01*
X144402857Y-73102380D01*
X144545714Y-73150000D01*
X144593333Y-73197619D01*
X144974285Y-73197619D02*
X145021904Y-73150000D01*
X145117142Y-73102380D01*
X145355238Y-73102380D01*
X145450476Y-73150000D01*
X145498095Y-73197619D01*
X145545714Y-73292857D01*
X145545714Y-73388095D01*
X145498095Y-73530952D01*
X144926666Y-74102380D01*
X145545714Y-74102380D01*
%TO.C,C1*%
X136973333Y-74007142D02*
X136925714Y-74054761D01*
X136782857Y-74102380D01*
X136687619Y-74102380D01*
X136544761Y-74054761D01*
X136449523Y-73959523D01*
X136401904Y-73864285D01*
X136354285Y-73673809D01*
X136354285Y-73530952D01*
X136401904Y-73340476D01*
X136449523Y-73245238D01*
X136544761Y-73150000D01*
X136687619Y-73102380D01*
X136782857Y-73102380D01*
X136925714Y-73150000D01*
X136973333Y-73197619D01*
X137925714Y-74102380D02*
X137354285Y-74102380D01*
X137640000Y-74102380D02*
X137640000Y-73102380D01*
X137544761Y-73245238D01*
X137449523Y-73340476D01*
X137354285Y-73388095D01*
%TD*%
M02*
