M48
; DRILL file {KiCad 5.1.6-c6e7f7d~87~ubuntu16.04.1} date Sat Jan 23 12:03:58 2021
; FORMAT={-:-/ absolute / metric / decimal}
; #@! TF.CreationDate,2021-01-23T12:03:58-05:00
; #@! TF.GenerationSoftware,Kicad,Pcbnew,5.1.6-c6e7f7d~87~ubuntu16.04.1
FMAT,2
METRIC
T1C0.400
T2C0.800
T3C0.900
T4C0.950
T5C1.000
T6C1.500
T7C2.300
T8C2.700
%
G90
G05
T1
X33.888Y-40.169
X38.692Y-39.792
X44.562Y-39.488
X45.15Y-46.21
X52.762Y-24.555
X54.841Y-33.467
X56.482Y-70.446
X59.304Y-31.098
X61.137Y-17.816
X62.238Y-25.138
X63.335Y-40.804
X64.545Y-24.411
X64.802Y-53.557
X65.871Y-61.646
X68.171Y-24.364
X69.73Y-52.215
X71.529Y-41.403
X72.628Y-62.18
X73.904Y-61.622
X79.062Y-41.59
X81.29Y-19.348
X82.447Y-31.131
X82.911Y-33.096
X83.82Y-52.212
X85.258Y-19.176
X85.557Y-31.495
X85.809Y-18.312
X86.345Y-80.194
X86.521Y-15.961
X87.102Y-32.535
X89.805Y-18.895
X93.302Y-81.459
X95.463Y-33.035
X102.589Y-40.098
X104.294Y-32.2
X104.738Y-38.673
X105.931Y-27.463
X110.919Y-33.407
X114.203Y-16.833
X117.239Y-72.831
X119.438Y-16.125
X120.712Y-37.128
X124.206Y-43.721
X149.5Y-26.641
X153.233Y-51.472
X156.13Y-47.11
X162.014Y-19.087
X163.624Y-25.103
X165.289Y-76.815
X168.614Y-77.553
X169.334Y-76.09
X174.065Y-77.677
X175.619Y-70.105
X180.388Y-70.182
X181.246Y-49.302
T2
X148.59Y-53.34
X148.59Y-55.84
X157.48Y-53.34
X157.48Y-55.84
X147.32Y-30.48
X157.48Y-30.48
X138.43Y-53.34
X138.43Y-55.84
X175.26Y-53.34
X175.26Y-55.84
X78.74Y-36.83
X78.74Y-44.45
X81.28Y-36.83
X81.28Y-44.45
X83.82Y-36.83
X83.82Y-44.45
X86.36Y-36.83
X86.36Y-44.45
X88.9Y-36.83
X88.9Y-44.45
X91.44Y-36.83
X91.44Y-44.45
X93.98Y-36.83
X93.98Y-44.45
X162.56Y-30.48
X172.72Y-30.48
X120.65Y-71.12
X120.65Y-73.66
X120.65Y-76.2
X120.65Y-78.74
X120.65Y-81.28
X120.65Y-83.82
X120.65Y-86.36
X120.65Y-88.9
X128.27Y-71.12
X128.27Y-73.66
X128.27Y-76.2
X128.27Y-78.74
X128.27Y-81.28
X128.27Y-83.82
X128.27Y-86.36
X128.27Y-88.9
X143.51Y-76.2
X146.01Y-76.2
X107.95Y-13.97
X107.95Y-21.59
X110.49Y-13.97
X110.49Y-21.59
X113.03Y-13.97
X113.03Y-21.59
X115.57Y-13.97
X115.57Y-21.59
X118.11Y-13.97
X118.11Y-21.59
X120.65Y-13.97
X120.65Y-21.59
X123.19Y-13.97
X123.19Y-21.59
X102.87Y-36.83
X102.87Y-44.45
X105.41Y-36.83
X105.41Y-44.45
X107.95Y-36.83
X107.95Y-44.45
X110.49Y-36.83
X110.49Y-44.45
X113.03Y-36.83
X113.03Y-44.45
X115.57Y-36.83
X115.57Y-44.45
X118.11Y-36.83
X118.11Y-44.45
X151.13Y-36.83
X151.13Y-44.45
X153.67Y-36.83
X153.67Y-44.45
X156.21Y-36.83
X156.21Y-44.45
X158.75Y-36.83
X158.75Y-44.45
X161.29Y-36.83
X161.29Y-44.45
X163.83Y-36.83
X163.83Y-44.45
X166.37Y-36.83
X166.37Y-44.45
X168.91Y-36.83
X168.91Y-44.45
X148.59Y-2.54
X158.75Y-2.54
X109.22Y-53.34
X119.38Y-53.34
X30.48Y-13.97
X30.48Y-21.59
X33.02Y-13.97
X33.02Y-21.59
X35.56Y-13.97
X35.56Y-21.59
X38.1Y-13.97
X38.1Y-21.59
X40.64Y-13.97
X40.64Y-21.59
X43.18Y-13.97
X43.18Y-21.59
X45.72Y-13.97
X45.72Y-21.59
X48.26Y-13.97
X48.26Y-21.59
X46.99Y-59.69
X49.53Y-59.69
X52.07Y-59.69
X54.61Y-59.69
X57.15Y-59.69
X59.69Y-59.69
X62.23Y-59.69
X64.77Y-59.69
X67.31Y-59.69
X30.48Y-36.83
X30.48Y-44.45
X33.02Y-36.83
X33.02Y-44.45
X35.56Y-36.83
X35.56Y-44.45
X38.1Y-36.83
X38.1Y-44.45
X40.64Y-36.83
X40.64Y-44.45
X43.18Y-36.83
X43.18Y-44.45
X45.72Y-36.83
X45.72Y-44.45
X161.29Y-13.97
X161.29Y-21.59
X163.83Y-13.97
X163.83Y-21.59
X166.37Y-13.97
X166.37Y-21.59
X168.91Y-13.97
X168.91Y-21.59
X171.45Y-13.97
X171.45Y-21.59
X173.99Y-13.97
X173.99Y-21.59
X176.53Y-13.97
X176.53Y-21.59
X128.27Y-53.34
X128.27Y-55.84
X6.35Y-36.83
X6.35Y-44.45
X8.89Y-36.83
X8.89Y-44.45
X11.43Y-36.83
X11.43Y-44.45
X13.97Y-36.83
X13.97Y-44.45
X16.51Y-36.83
X16.51Y-44.45
X19.05Y-36.83
X19.05Y-44.45
X21.59Y-36.83
X21.59Y-44.45
X134.43Y-2.4
X144.59Y-2.4
X166.37Y-53.34
X166.37Y-55.84
X83.82Y-13.97
X83.82Y-21.59
X86.36Y-13.97
X86.36Y-21.59
X88.9Y-13.97
X88.9Y-21.59
X91.44Y-13.97
X91.44Y-21.59
X93.98Y-13.97
X93.98Y-21.59
X96.52Y-13.97
X96.52Y-21.59
X99.06Y-13.97
X99.06Y-21.59
X127.0Y-36.83
X127.0Y-44.45
X129.54Y-36.83
X129.54Y-44.45
X132.08Y-36.83
X132.08Y-44.45
X134.62Y-36.83
X134.62Y-44.45
X137.16Y-36.83
X137.16Y-44.45
X139.7Y-36.83
X139.7Y-44.45
X142.24Y-36.83
X142.24Y-44.45
X134.62Y-13.97
X134.62Y-21.59
X137.16Y-13.97
X137.16Y-21.59
X139.7Y-13.97
X139.7Y-21.59
X142.24Y-13.97
X142.24Y-21.59
X144.78Y-13.97
X144.78Y-21.59
X147.32Y-13.97
X147.32Y-21.59
X149.86Y-13.97
X149.86Y-21.59
X135.89Y-81.28
X146.05Y-81.28
X135.89Y-76.2
X138.39Y-76.2
X151.13Y-63.5
X151.13Y-71.12
X153.67Y-63.5
X153.67Y-71.12
X156.21Y-63.5
X156.21Y-71.12
X158.75Y-63.5
X158.75Y-71.12
X161.29Y-63.5
X161.29Y-71.12
X163.83Y-63.5
X163.83Y-71.12
X166.37Y-63.5
X166.37Y-71.12
X168.91Y-63.5
X168.91Y-71.12
X25.4Y-2.54
X35.56Y-2.54
X139.7Y-67.31
X143.5Y-67.31
X54.61Y-36.83
X54.61Y-44.45
X57.15Y-36.83
X57.15Y-44.45
X59.69Y-36.83
X59.69Y-44.45
X62.23Y-36.83
X62.23Y-44.45
X64.77Y-36.83
X64.77Y-44.45
X67.31Y-36.83
X67.31Y-44.45
X69.85Y-36.83
X69.85Y-44.45
X109.22Y-60.96
X119.38Y-60.96
X57.15Y-13.97
X57.15Y-21.59
X59.69Y-13.97
X59.69Y-21.59
X62.23Y-13.97
X62.23Y-21.59
X64.77Y-13.97
X64.77Y-21.59
X67.31Y-13.97
X67.31Y-21.59
X69.85Y-13.97
X69.85Y-21.59
X72.39Y-13.97
X72.39Y-21.59
X74.93Y-13.97
X74.93Y-21.59
T3
X62.23Y-66.04
X62.23Y-68.58
X53.34Y-66.04
X53.34Y-68.58
X125.73Y-2.54
X125.73Y-5.08
X26.67Y-66.04
X26.67Y-68.58
X44.45Y-66.04
X44.45Y-68.58
X35.56Y-66.04
X35.56Y-68.58
X167.64Y-2.54
X167.64Y-5.08
X88.9Y-66.04
X88.9Y-68.58
X80.01Y-66.04
X80.01Y-68.58
X71.12Y-66.04
X71.12Y-68.58
T4
X14.51Y-16.55
X14.51Y-19.05
X16.51Y-16.55
X16.51Y-19.05
T5
X73.66Y-83.82
X76.2Y-83.82
X78.74Y-83.82
X81.28Y-83.82
X83.82Y-83.82
X86.36Y-83.82
X88.9Y-83.82
X91.44Y-83.82
X93.98Y-83.82
X96.52Y-83.82
X99.06Y-83.82
X101.6Y-83.82
X55.88Y-5.08
X58.42Y-5.08
X60.96Y-5.08
X63.5Y-5.08
X66.04Y-5.08
X68.58Y-5.08
X71.12Y-5.08
X73.66Y-5.08
X76.2Y-5.08
X78.74Y-5.08
X81.28Y-5.08
X83.82Y-5.08
X20.32Y-83.82
X22.86Y-83.82
X25.4Y-83.82
X27.94Y-83.82
X30.48Y-83.82
X33.02Y-83.82
X35.56Y-83.82
X38.1Y-83.82
X40.64Y-83.82
X43.18Y-83.82
X45.72Y-83.82
X48.26Y-83.82
X187.96Y-38.1
X187.96Y-40.64
X187.96Y-43.18
X187.96Y-55.88
X187.96Y-58.42
X187.96Y-60.96
X187.96Y-63.5
X187.96Y-66.04
X187.96Y-68.58
X187.96Y-71.12
X187.96Y-73.66
X187.96Y-76.2
X187.96Y-78.74
X187.96Y-81.28
X187.96Y-83.82
X187.96Y-13.97
X187.96Y-16.51
X187.96Y-19.05
X187.96Y-21.59
X187.96Y-24.13
X187.96Y-26.67
T6
X160.782Y-85.09
X160.782Y-89.916
X160.88Y-80.39
X8.382Y-64.77
X8.382Y-69.596
X8.48Y-60.07
X173.482Y-85.09
X173.482Y-89.916
X173.58Y-80.39
T7
X11.65Y-11.8
X11.65Y-23.8
T8
X3.81Y-93.98
X195.58Y-3.81
X195.58Y-93.98
X3.81Y-3.81
T0
M30
