%TF.GenerationSoftware,KiCad,Pcbnew,5.1.6-c6e7f7d~87~ubuntu16.04.1*%
%TF.CreationDate,2021-01-23T12:03:56-05:00*%
%TF.ProjectId,serial,73657269-616c-42e6-9b69-6361645f7063,rev?*%
%TF.SameCoordinates,Original*%
%TF.FileFunction,Copper,L2,Bot*%
%TF.FilePolarity,Positive*%
%FSLAX46Y46*%
G04 Gerber Fmt 4.6, Leading zero omitted, Abs format (unit mm)*
G04 Created by KiCad (PCBNEW 5.1.6-c6e7f7d~87~ubuntu16.04.1) date 2021-01-23 12:03:56*
%MOMM*%
%LPD*%
G01*
G04 APERTURE LIST*
%TA.AperFunction,ComponentPad*%
%ADD10O,1.600000X1.600000*%
%TD*%
%TA.AperFunction,ComponentPad*%
%ADD11R,1.600000X1.600000*%
%TD*%
%TA.AperFunction,ComponentPad*%
%ADD12C,1.500000*%
%TD*%
%TA.AperFunction,ComponentPad*%
%ADD13C,2.200000*%
%TD*%
%TA.AperFunction,ComponentPad*%
%ADD14C,1.600000*%
%TD*%
%TA.AperFunction,ComponentPad*%
%ADD15O,1.700000X1.700000*%
%TD*%
%TA.AperFunction,ComponentPad*%
%ADD16R,1.700000X1.700000*%
%TD*%
%TA.AperFunction,ComponentPad*%
%ADD17C,4.000000*%
%TD*%
%TA.AperFunction,ComponentPad*%
%ADD18C,1.800000*%
%TD*%
%TA.AperFunction,ComponentPad*%
%ADD19R,1.800000X1.800000*%
%TD*%
%TA.AperFunction,ViaPad*%
%ADD20C,0.800000*%
%TD*%
%TA.AperFunction,Conductor*%
%ADD21C,0.250000*%
%TD*%
G04 APERTURE END LIST*
D10*
%TO.P,U5,14*%
%TO.N,+5V*%
X134620000Y-13970000D03*
%TO.P,U5,7*%
%TO.N,GND*%
X149860000Y-21590000D03*
%TO.P,U5,13*%
%TO.N,Net-(U5-Pad13)*%
X137160000Y-13970000D03*
%TO.P,U5,6*%
%TO.N,Net-(U5-Pad6)*%
X147320000Y-21590000D03*
%TO.P,U5,12*%
%TO.N,Net-(U5-Pad12)*%
X139700000Y-13970000D03*
%TO.P,U5,5*%
%TO.N,Net-(U5-Pad5)*%
X144780000Y-21590000D03*
%TO.P,U5,11*%
%TO.N,Net-(U5-Pad11)*%
X142240000Y-13970000D03*
%TO.P,U5,4*%
%TO.N,Net-(U5-Pad4)*%
X142240000Y-21590000D03*
%TO.P,U5,10*%
%TO.N,Net-(U5-Pad10)*%
X144780000Y-13970000D03*
%TO.P,U5,3*%
%TO.N,B0_out*%
X139700000Y-21590000D03*
%TO.P,U5,9*%
%TO.N,Net-(U4-Pad9)*%
X147320000Y-13970000D03*
%TO.P,U5,2*%
%TO.N,B1_out*%
X137160000Y-21590000D03*
%TO.P,U5,8*%
%TO.N,Net-(U12-Pad3)*%
X149860000Y-13970000D03*
D11*
%TO.P,U5,1*%
%TO.N,B1_out*%
X134620000Y-21590000D03*
%TD*%
D10*
%TO.P,U4,14*%
%TO.N,+5V*%
X107950000Y-13970000D03*
%TO.P,U4,7*%
%TO.N,GND*%
X123190000Y-21590000D03*
%TO.P,U4,13*%
%TO.N,B1_out*%
X110490000Y-13970000D03*
%TO.P,U4,6*%
%TO.N,B5_out*%
X120650000Y-21590000D03*
%TO.P,U4,12*%
%TO.N,B2_out*%
X113030000Y-13970000D03*
%TO.P,U4,5*%
%TO.N,B6_out*%
X118110000Y-21590000D03*
%TO.P,U4,11*%
%TO.N,B3_out*%
X115570000Y-13970000D03*
%TO.P,U4,4*%
%TO.N,B7_out*%
X115570000Y-21590000D03*
%TO.P,U4,10*%
%TO.N,B4_out*%
X118110000Y-13970000D03*
%TO.P,U4,3*%
%TO.N,Net-(U4-Pad3)*%
X113030000Y-21590000D03*
%TO.P,U4,9*%
%TO.N,Net-(U4-Pad9)*%
X120650000Y-13970000D03*
%TO.P,U4,2*%
%TO.N,serial_in_ttl*%
X110490000Y-21590000D03*
%TO.P,U4,8*%
%TO.N,Net-(U12-Pad3)*%
X123190000Y-13970000D03*
D11*
%TO.P,U4,1*%
%TO.N,serial_in_ttl*%
X107950000Y-21590000D03*
%TD*%
D12*
%TO.P,Y1,2*%
%TO.N,Net-(C2-Pad1)*%
X143500000Y-67310000D03*
%TO.P,Y1,1*%
%TO.N,Net-(C1-Pad1)*%
X139700000Y-67310000D03*
%TD*%
D10*
%TO.P,U14,14*%
%TO.N,+5V*%
X78740000Y-36830000D03*
%TO.P,U14,7*%
%TO.N,GND*%
X93980000Y-44450000D03*
%TO.P,U14,13*%
%TO.N,N/C*%
X81280000Y-36830000D03*
%TO.P,U14,6*%
%TO.N,Net-(U14-Pad6)*%
X91440000Y-44450000D03*
%TO.P,U14,12*%
%TO.N,N/C*%
X83820000Y-36830000D03*
%TO.P,U14,5*%
%TO.N,Net-(U14-Pad5)*%
X88900000Y-44450000D03*
%TO.P,U14,11*%
%TO.N,N/C*%
X86360000Y-36830000D03*
%TO.P,U14,4*%
%TO.N,+5V*%
X86360000Y-44450000D03*
%TO.P,U14,10*%
%TO.N,N/C*%
X88900000Y-36830000D03*
%TO.P,U14,3*%
%TO.N,clock*%
X83820000Y-44450000D03*
%TO.P,U14,9*%
%TO.N,N/C*%
X91440000Y-36830000D03*
%TO.P,U14,2*%
%TO.N,Net-(U13-Pad3)*%
X81280000Y-44450000D03*
%TO.P,U14,8*%
%TO.N,N/C*%
X93980000Y-36830000D03*
D11*
%TO.P,U14,1*%
%TO.N,strobe_out*%
X78740000Y-44450000D03*
%TD*%
D10*
%TO.P,U13,14*%
%TO.N,+5V*%
X54610000Y-36830000D03*
%TO.P,U13,7*%
%TO.N,GND*%
X69850000Y-44450000D03*
%TO.P,U13,13*%
%TO.N,N/C*%
X57150000Y-36830000D03*
%TO.P,U13,6*%
%TO.N,serial_out_ttl*%
X67310000Y-44450000D03*
%TO.P,U13,12*%
%TO.N,N/C*%
X59690000Y-36830000D03*
%TO.P,U13,5*%
%TO.N,Net-(U1-Pad15)*%
X64770000Y-44450000D03*
%TO.P,U13,11*%
%TO.N,N/C*%
X62230000Y-36830000D03*
%TO.P,U13,4*%
%TO.N,Net-(U13-Pad4)*%
X62230000Y-44450000D03*
%TO.P,U13,10*%
%TO.N,strobe_in*%
X64770000Y-36830000D03*
%TO.P,U13,3*%
%TO.N,Net-(U13-Pad3)*%
X59690000Y-44450000D03*
%TO.P,U13,9*%
%TO.N,clock*%
X67310000Y-36830000D03*
%TO.P,U13,2*%
%TO.N,Net-(U12-Pad2)*%
X57150000Y-44450000D03*
%TO.P,U13,8*%
%TO.N,Net-(U1-Pad2)*%
X69850000Y-36830000D03*
D11*
%TO.P,U13,1*%
%TO.N,Net-(U11-Pad6)*%
X54610000Y-44450000D03*
%TD*%
D10*
%TO.P,U12,14*%
%TO.N,+5V*%
X30480000Y-36830000D03*
%TO.P,U12,7*%
%TO.N,GND*%
X45720000Y-44450000D03*
%TO.P,U12,13*%
%TO.N,N/C*%
X33020000Y-36830000D03*
%TO.P,U12,6*%
X43180000Y-44450000D03*
%TO.P,U12,12*%
X35560000Y-36830000D03*
%TO.P,U12,5*%
X40640000Y-44450000D03*
%TO.P,U12,11*%
X38100000Y-36830000D03*
%TO.P,U12,4*%
X38100000Y-44450000D03*
%TO.P,U12,10*%
X40640000Y-36830000D03*
%TO.P,U12,3*%
%TO.N,Net-(U12-Pad3)*%
X35560000Y-44450000D03*
%TO.P,U12,9*%
%TO.N,N/C*%
X43180000Y-36830000D03*
%TO.P,U12,2*%
%TO.N,Net-(U12-Pad2)*%
X33020000Y-44450000D03*
%TO.P,U12,8*%
%TO.N,N/C*%
X45720000Y-36830000D03*
D11*
%TO.P,U12,1*%
%TO.N,clock*%
X30480000Y-44450000D03*
%TD*%
D10*
%TO.P,U11,14*%
%TO.N,+5V*%
X6350000Y-36830000D03*
%TO.P,U11,7*%
%TO.N,GND*%
X21590000Y-44450000D03*
%TO.P,U11,13*%
%TO.N,N/C*%
X8890000Y-36830000D03*
%TO.P,U11,6*%
%TO.N,Net-(U11-Pad6)*%
X19050000Y-44450000D03*
%TO.P,U11,12*%
%TO.N,N/C*%
X11430000Y-36830000D03*
%TO.P,U11,5*%
%TO.N,serial_in_ttl*%
X16510000Y-44450000D03*
%TO.P,U11,11*%
%TO.N,Net-(U11-Pad11)*%
X13970000Y-36830000D03*
%TO.P,U11,4*%
%TO.N,Net-(U11-Pad4)*%
X13970000Y-44450000D03*
%TO.P,U11,10*%
%TO.N,Net-(U11-Pad10)*%
X16510000Y-36830000D03*
%TO.P,U11,3*%
%TO.N,Net-(U11-Pad3)*%
X11430000Y-44450000D03*
%TO.P,U11,9*%
%TO.N,N/C*%
X19050000Y-36830000D03*
%TO.P,U11,2*%
%TO.N,Net-(U1-Pad1)*%
X8890000Y-44450000D03*
%TO.P,U11,8*%
%TO.N,N/C*%
X21590000Y-36830000D03*
D11*
%TO.P,U11,1*%
%TO.N,strobe_in*%
X6350000Y-44450000D03*
%TD*%
D10*
%TO.P,U10,16*%
%TO.N,+5V*%
X151130000Y-36830000D03*
%TO.P,U10,8*%
%TO.N,Net-(J2-Pad1)*%
X168910000Y-44450000D03*
%TO.P,U10,15*%
%TO.N,GND*%
X153670000Y-36830000D03*
%TO.P,U10,7*%
%TO.N,Net-(J2-Pad2)*%
X166370000Y-44450000D03*
%TO.P,U10,14*%
%TO.N,Net-(U10-Pad14)*%
X156210000Y-36830000D03*
%TO.P,U10,6*%
%TO.N,Net-(C6-Pad2)*%
X163830000Y-44450000D03*
%TO.P,U10,13*%
%TO.N,Net-(U10-Pad13)*%
X158750000Y-36830000D03*
%TO.P,U10,5*%
%TO.N,Net-(C4-Pad2)*%
X161290000Y-44450000D03*
%TO.P,U10,12*%
%TO.N,Net-(U10-Pad12)*%
X161290000Y-36830000D03*
%TO.P,U10,4*%
%TO.N,Net-(C4-Pad1)*%
X158750000Y-44450000D03*
%TO.P,U10,11*%
%TO.N,Net-(U10-Pad11)*%
X163830000Y-36830000D03*
%TO.P,U10,3*%
%TO.N,Net-(C3-Pad2)*%
X156210000Y-44450000D03*
%TO.P,U10,10*%
%TO.N,Net-(R3-Pad1)*%
X166370000Y-36830000D03*
%TO.P,U10,2*%
%TO.N,Net-(C5-Pad1)*%
X153670000Y-44450000D03*
%TO.P,U10,9*%
%TO.N,Net-(R4-Pad1)*%
X168910000Y-36830000D03*
D11*
%TO.P,U10,1*%
%TO.N,Net-(C3-Pad1)*%
X151130000Y-44450000D03*
%TD*%
D10*
%TO.P,U9,16*%
%TO.N,+5V*%
X151130000Y-63500000D03*
%TO.P,U9,8*%
%TO.N,GND*%
X168910000Y-71120000D03*
%TO.P,U9,15*%
%TO.N,Net-(J6-Pad6)*%
X153670000Y-63500000D03*
%TO.P,U9,7*%
%TO.N,Net-(J6-Pad12)*%
X166370000Y-71120000D03*
%TO.P,U9,14*%
%TO.N,Net-(J6-Pad8)*%
X156210000Y-63500000D03*
%TO.P,U9,6*%
%TO.N,Net-(J6-Pad9)*%
X163830000Y-71120000D03*
%TO.P,U9,13*%
%TO.N,Net-(J6-Pad7)*%
X158750000Y-63500000D03*
%TO.P,U9,5*%
%TO.N,Net-(J6-Pad11)*%
X161290000Y-71120000D03*
%TO.P,U9,12*%
%TO.N,GND*%
X161290000Y-63500000D03*
%TO.P,U9,4*%
%TO.N,Net-(J6-Pad10)*%
X158750000Y-71120000D03*
%TO.P,U9,11*%
%TO.N,Net-(C1-Pad1)*%
X163830000Y-63500000D03*
%TO.P,U9,3*%
%TO.N,Net-(J6-Pad2)*%
X156210000Y-71120000D03*
%TO.P,U9,10*%
%TO.N,Net-(C2-Pad1)*%
X166370000Y-63500000D03*
%TO.P,U9,2*%
%TO.N,Net-(J6-Pad3)*%
X153670000Y-71120000D03*
%TO.P,U9,9*%
%TO.N,Net-(U9-Pad9)*%
X168910000Y-63500000D03*
D11*
%TO.P,U9,1*%
%TO.N,Net-(J6-Pad4)*%
X151130000Y-71120000D03*
%TD*%
D10*
%TO.P,U8,14*%
%TO.N,+5V*%
X127000000Y-36830000D03*
%TO.P,U8,7*%
%TO.N,GND*%
X142240000Y-44450000D03*
%TO.P,U8,13*%
%TO.N,strobe_out*%
X129540000Y-36830000D03*
%TO.P,U8,6*%
X139700000Y-44450000D03*
%TO.P,U8,12*%
%TO.N,+5V*%
X132080000Y-36830000D03*
%TO.P,U8,5*%
%TO.N,Net-(U12-Pad2)*%
X137160000Y-44450000D03*
%TO.P,U8,11*%
%TO.N,Net-(U14-Pad5)*%
X134620000Y-36830000D03*
%TO.P,U8,4*%
%TO.N,Net-(U4-Pad9)*%
X134620000Y-44450000D03*
%TO.P,U8,10*%
%TO.N,+5V*%
X137160000Y-36830000D03*
%TO.P,U8,3*%
%TO.N,Net-(U11-Pad10)*%
X132080000Y-44450000D03*
%TO.P,U8,9*%
%TO.N,Net-(U6-Pad2)*%
X139700000Y-36830000D03*
%TO.P,U8,2*%
%TO.N,GND*%
X129540000Y-44450000D03*
%TO.P,U8,8*%
%TO.N,Net-(U4-Pad9)*%
X142240000Y-36830000D03*
D11*
%TO.P,U8,1*%
%TO.N,Net-(C7-Pad1)*%
X127000000Y-44450000D03*
%TD*%
D10*
%TO.P,U7,14*%
%TO.N,+5V*%
X102870000Y-36830000D03*
%TO.P,U7,7*%
%TO.N,GND*%
X118110000Y-44450000D03*
%TO.P,U7,13*%
%TO.N,+5V*%
X105410000Y-36830000D03*
%TO.P,U7,6*%
%TO.N,Net-(U1-Pad15)*%
X115570000Y-44450000D03*
%TO.P,U7,12*%
%TO.N,Net-(U7-Pad12)*%
X107950000Y-36830000D03*
%TO.P,U7,5*%
%TO.N,Net-(U7-Pad5)*%
X113030000Y-44450000D03*
%TO.P,U7,11*%
%TO.N,Net-(J6-Pad6)*%
X110490000Y-36830000D03*
%TO.P,U7,4*%
%TO.N,Net-(U1-Pad1)*%
X110490000Y-44450000D03*
%TO.P,U7,10*%
%TO.N,+5V*%
X113030000Y-36830000D03*
%TO.P,U7,3*%
%TO.N,Net-(U11-Pad4)*%
X107950000Y-44450000D03*
%TO.P,U7,9*%
%TO.N,Net-(J6-Pad5)*%
X115570000Y-36830000D03*
%TO.P,U7,2*%
%TO.N,GND*%
X105410000Y-44450000D03*
%TO.P,U7,8*%
%TO.N,Net-(U7-Pad12)*%
X118110000Y-36830000D03*
D11*
%TO.P,U7,1*%
%TO.N,Net-(C8-Pad1)*%
X102870000Y-44450000D03*
%TD*%
D10*
%TO.P,U6,14*%
%TO.N,clock*%
X161290000Y-13970000D03*
%TO.P,U6,7*%
%TO.N,GND*%
X176530000Y-21590000D03*
%TO.P,U6,13*%
%TO.N,N/C*%
X163830000Y-13970000D03*
%TO.P,U6,6*%
%TO.N,GND*%
X173990000Y-21590000D03*
%TO.P,U6,12*%
%TO.N,Net-(U6-Pad1)*%
X166370000Y-13970000D03*
%TO.P,U6,5*%
%TO.N,+5V*%
X171450000Y-21590000D03*
%TO.P,U6,11*%
%TO.N,Net-(U11-Pad11)*%
X168910000Y-13970000D03*
%TO.P,U6,4*%
%TO.N,N/C*%
X168910000Y-21590000D03*
%TO.P,U6,10*%
%TO.N,GND*%
X171450000Y-13970000D03*
%TO.P,U6,3*%
%TO.N,Net-(U6-Pad2)*%
X166370000Y-21590000D03*
%TO.P,U6,9*%
%TO.N,Net-(U6-Pad9)*%
X173990000Y-13970000D03*
%TO.P,U6,2*%
%TO.N,Net-(U6-Pad2)*%
X163830000Y-21590000D03*
%TO.P,U6,8*%
%TO.N,Net-(U6-Pad8)*%
X176530000Y-13970000D03*
D11*
%TO.P,U6,1*%
%TO.N,Net-(U6-Pad1)*%
X161290000Y-21590000D03*
%TD*%
D10*
%TO.P,U3,14*%
%TO.N,Net-(U1-Pad2)*%
X83820000Y-13970000D03*
%TO.P,U3,7*%
%TO.N,GND*%
X99060000Y-21590000D03*
%TO.P,U3,13*%
%TO.N,N/C*%
X86360000Y-13970000D03*
%TO.P,U3,6*%
%TO.N,GND*%
X96520000Y-21590000D03*
%TO.P,U3,12*%
%TO.N,Net-(U3-Pad1)*%
X88900000Y-13970000D03*
%TO.P,U3,5*%
%TO.N,+5V*%
X93980000Y-21590000D03*
%TO.P,U3,11*%
%TO.N,Net-(U11-Pad3)*%
X91440000Y-13970000D03*
%TO.P,U3,4*%
%TO.N,N/C*%
X91440000Y-21590000D03*
%TO.P,U3,10*%
%TO.N,GND*%
X93980000Y-13970000D03*
%TO.P,U3,3*%
%TO.N,strobe_in*%
X88900000Y-21590000D03*
%TO.P,U3,9*%
%TO.N,Net-(U3-Pad9)*%
X96520000Y-13970000D03*
%TO.P,U3,2*%
%TO.N,strobe_in*%
X86360000Y-21590000D03*
%TO.P,U3,8*%
%TO.N,Net-(U3-Pad8)*%
X99060000Y-13970000D03*
D11*
%TO.P,U3,1*%
%TO.N,Net-(U3-Pad1)*%
X83820000Y-21590000D03*
%TD*%
D10*
%TO.P,U2,16*%
%TO.N,+5V*%
X57150000Y-13970000D03*
%TO.P,U2,8*%
%TO.N,GND*%
X74930000Y-21590000D03*
%TO.P,U2,15*%
%TO.N,Net-(U1-Pad15)*%
X59690000Y-13970000D03*
%TO.P,U2,7*%
%TO.N,Net-(U2-Pad7)*%
X72390000Y-21590000D03*
%TO.P,U2,14*%
%TO.N,B2_in*%
X62230000Y-13970000D03*
%TO.P,U2,6*%
%TO.N,+5V*%
X69850000Y-21590000D03*
%TO.P,U2,13*%
%TO.N,B3_in*%
X64770000Y-13970000D03*
%TO.P,U2,5*%
%TO.N,GND*%
X67310000Y-21590000D03*
%TO.P,U2,12*%
%TO.N,B4_in*%
X67310000Y-13970000D03*
%TO.P,U2,4*%
%TO.N,B0_in*%
X64770000Y-21590000D03*
%TO.P,U2,11*%
%TO.N,B5_in*%
X69850000Y-13970000D03*
%TO.P,U2,3*%
%TO.N,B1_in*%
X62230000Y-21590000D03*
%TO.P,U2,10*%
%TO.N,Net-(U1-Pad9)*%
X72390000Y-13970000D03*
%TO.P,U2,2*%
%TO.N,Net-(U1-Pad2)*%
X59690000Y-21590000D03*
%TO.P,U2,9*%
%TO.N,Net-(U13-Pad4)*%
X74930000Y-13970000D03*
D11*
%TO.P,U2,1*%
%TO.N,Net-(U1-Pad1)*%
X57150000Y-21590000D03*
%TD*%
D10*
%TO.P,U1,16*%
%TO.N,+5V*%
X30480000Y-13970000D03*
%TO.P,U1,8*%
%TO.N,GND*%
X48260000Y-21590000D03*
%TO.P,U1,15*%
%TO.N,Net-(U1-Pad15)*%
X33020000Y-13970000D03*
%TO.P,U1,7*%
%TO.N,Net-(U1-Pad7)*%
X45720000Y-21590000D03*
%TO.P,U1,14*%
%TO.N,+5V*%
X35560000Y-13970000D03*
%TO.P,U1,6*%
%TO.N,B6_in*%
X43180000Y-21590000D03*
%TO.P,U1,13*%
%TO.N,+5V*%
X38100000Y-13970000D03*
%TO.P,U1,5*%
%TO.N,B7_in*%
X40640000Y-21590000D03*
%TO.P,U1,12*%
%TO.N,+5V*%
X40640000Y-13970000D03*
%TO.P,U1,4*%
X38100000Y-21590000D03*
%TO.P,U1,11*%
X43180000Y-13970000D03*
%TO.P,U1,3*%
X35560000Y-21590000D03*
%TO.P,U1,10*%
X45720000Y-13970000D03*
%TO.P,U1,2*%
%TO.N,Net-(U1-Pad2)*%
X33020000Y-21590000D03*
%TO.P,U1,9*%
%TO.N,Net-(U1-Pad9)*%
X48260000Y-13970000D03*
D11*
%TO.P,U1,1*%
%TO.N,Net-(U1-Pad1)*%
X30480000Y-21590000D03*
%TD*%
D13*
%TO.P,SW3,2*%
%TO.N,serial_in_ttl*%
X173482000Y-85090000D03*
%TO.P,SW3,3*%
%TO.N,N/C*%
X173482000Y-89916000D03*
%TO.P,SW3,1*%
%TO.N,serial_out_ttl*%
X173580000Y-80390000D03*
%TD*%
%TO.P,SW2,2*%
%TO.N,serial_in_ttl*%
X160782000Y-85090000D03*
%TO.P,SW2,3*%
%TO.N,Net-(J1-Pad4)*%
X160782000Y-89916000D03*
%TO.P,SW2,1*%
%TO.N,Net-(R4-Pad2)*%
X160880000Y-80390000D03*
%TD*%
%TO.P,SW1,2*%
%TO.N,Net-(J1-Pad3)*%
X8382000Y-64770000D03*
%TO.P,SW1,3*%
%TO.N,N/C*%
X8382000Y-69596000D03*
%TO.P,SW1,1*%
%TO.N,+5V*%
X8480000Y-60070000D03*
%TD*%
D10*
%TO.P,RN1,9*%
%TO.N,Net-(D8-Pad1)*%
X67310000Y-59690000D03*
%TO.P,RN1,8*%
%TO.N,Net-(D7-Pad1)*%
X64770000Y-59690000D03*
%TO.P,RN1,7*%
%TO.N,Net-(D6-Pad1)*%
X62230000Y-59690000D03*
%TO.P,RN1,6*%
%TO.N,Net-(D5-Pad1)*%
X59690000Y-59690000D03*
%TO.P,RN1,5*%
%TO.N,Net-(D4-Pad1)*%
X57150000Y-59690000D03*
%TO.P,RN1,4*%
%TO.N,Net-(D3-Pad1)*%
X54610000Y-59690000D03*
%TO.P,RN1,3*%
%TO.N,Net-(D2-Pad1)*%
X52070000Y-59690000D03*
%TO.P,RN1,2*%
%TO.N,Net-(D1-Pad1)*%
X49530000Y-59690000D03*
D11*
%TO.P,RN1,1*%
%TO.N,GND*%
X46990000Y-59690000D03*
%TD*%
D10*
%TO.P,R8,2*%
%TO.N,+5V*%
X119380000Y-60960000D03*
D14*
%TO.P,R8,1*%
%TO.N,Net-(C8-Pad1)*%
X109220000Y-60960000D03*
%TD*%
D10*
%TO.P,R7,2*%
%TO.N,+5V*%
X119380000Y-53340000D03*
D14*
%TO.P,R7,1*%
%TO.N,Net-(C7-Pad1)*%
X109220000Y-53340000D03*
%TD*%
D10*
%TO.P,R6,2*%
%TO.N,Net-(D10-Pad1)*%
X158750000Y-2540000D03*
D14*
%TO.P,R6,1*%
%TO.N,GND*%
X148590000Y-2540000D03*
%TD*%
D10*
%TO.P,R5,2*%
%TO.N,Net-(D9-Pad1)*%
X144590000Y-2400000D03*
D14*
%TO.P,R5,1*%
%TO.N,GND*%
X134430000Y-2400000D03*
%TD*%
D10*
%TO.P,R4,2*%
%TO.N,Net-(R4-Pad2)*%
X172720000Y-30480000D03*
D14*
%TO.P,R4,1*%
%TO.N,Net-(R4-Pad1)*%
X162560000Y-30480000D03*
%TD*%
D10*
%TO.P,R3,2*%
%TO.N,serial_out_ttl*%
X157480000Y-30480000D03*
D14*
%TO.P,R3,1*%
%TO.N,Net-(R3-Pad1)*%
X147320000Y-30480000D03*
%TD*%
D10*
%TO.P,R2,2*%
%TO.N,Net-(C1-Pad1)*%
X146050000Y-81280000D03*
D14*
%TO.P,R2,1*%
%TO.N,Net-(C2-Pad1)*%
X135890000Y-81280000D03*
%TD*%
D10*
%TO.P,R1,2*%
%TO.N,GND*%
X35560000Y-2540000D03*
D14*
%TO.P,R1,1*%
%TO.N,B7_in*%
X25400000Y-2540000D03*
%TD*%
D15*
%TO.P,J8,12*%
%TO.N,+5V*%
X55880000Y-5080000D03*
%TO.P,J8,11*%
%TO.N,GND*%
X58420000Y-5080000D03*
%TO.P,J8,10*%
%TO.N,strobe_out*%
X60960000Y-5080000D03*
%TO.P,J8,9*%
%TO.N,CLS*%
X63500000Y-5080000D03*
%TO.P,J8,8*%
%TO.N,B7_out*%
X66040000Y-5080000D03*
%TO.P,J8,7*%
%TO.N,B6_out*%
X68580000Y-5080000D03*
%TO.P,J8,6*%
%TO.N,B5_out*%
X71120000Y-5080000D03*
%TO.P,J8,5*%
%TO.N,B4_out*%
X73660000Y-5080000D03*
%TO.P,J8,4*%
%TO.N,B3_out*%
X76200000Y-5080000D03*
%TO.P,J8,3*%
%TO.N,B2_out*%
X78740000Y-5080000D03*
%TO.P,J8,2*%
%TO.N,B1_out*%
X81280000Y-5080000D03*
D16*
%TO.P,J8,1*%
%TO.N,B0_out*%
X83820000Y-5080000D03*
%TD*%
D17*
%TO.P,J7,5*%
%TO.N,Net-(J7-Pad5)*%
X11650000Y-23800000D03*
X11650000Y-11800000D03*
D14*
%TO.P,J7,4*%
%TO.N,GND*%
X14510000Y-19050000D03*
%TO.P,J7,3*%
%TO.N,Net-(J7-Pad3)*%
X14510000Y-16550000D03*
%TO.P,J7,2*%
%TO.N,Net-(J7-Pad2)*%
X16510000Y-16550000D03*
D11*
%TO.P,J7,1*%
%TO.N,Net-(J1-Pad3)*%
X16510000Y-19050000D03*
%TD*%
D15*
%TO.P,J6,12*%
%TO.N,Net-(J6-Pad12)*%
X187960000Y-83820000D03*
%TO.P,J6,11*%
%TO.N,Net-(J6-Pad11)*%
X187960000Y-81280000D03*
%TO.P,J6,10*%
%TO.N,Net-(J6-Pad10)*%
X187960000Y-78740000D03*
%TO.P,J6,9*%
%TO.N,Net-(J6-Pad9)*%
X187960000Y-76200000D03*
%TO.P,J6,8*%
%TO.N,Net-(J6-Pad8)*%
X187960000Y-73660000D03*
%TO.P,J6,7*%
%TO.N,Net-(J6-Pad7)*%
X187960000Y-71120000D03*
%TO.P,J6,6*%
%TO.N,Net-(J6-Pad6)*%
X187960000Y-68580000D03*
%TO.P,J6,5*%
%TO.N,Net-(J6-Pad5)*%
X187960000Y-66040000D03*
%TO.P,J6,4*%
%TO.N,Net-(J6-Pad4)*%
X187960000Y-63500000D03*
%TO.P,J6,3*%
%TO.N,Net-(J6-Pad3)*%
X187960000Y-60960000D03*
%TO.P,J6,2*%
%TO.N,Net-(J6-Pad2)*%
X187960000Y-58420000D03*
D16*
%TO.P,J6,1*%
%TO.N,clock*%
X187960000Y-55880000D03*
%TD*%
D15*
%TO.P,J5,12*%
%TO.N,+5V*%
X20320000Y-83820000D03*
%TO.P,J5,11*%
%TO.N,GND*%
X22860000Y-83820000D03*
%TO.P,J5,10*%
%TO.N,strobe_out*%
X25400000Y-83820000D03*
%TO.P,J5,9*%
%TO.N,CLS*%
X27940000Y-83820000D03*
%TO.P,J5,8*%
%TO.N,B7_out*%
X30480000Y-83820000D03*
%TO.P,J5,7*%
%TO.N,B6_out*%
X33020000Y-83820000D03*
%TO.P,J5,6*%
%TO.N,B5_out*%
X35560000Y-83820000D03*
%TO.P,J5,5*%
%TO.N,B4_out*%
X38100000Y-83820000D03*
%TO.P,J5,4*%
%TO.N,B3_out*%
X40640000Y-83820000D03*
%TO.P,J5,3*%
%TO.N,B2_out*%
X43180000Y-83820000D03*
%TO.P,J5,2*%
%TO.N,B1_out*%
X45720000Y-83820000D03*
D16*
%TO.P,J5,1*%
%TO.N,B0_out*%
X48260000Y-83820000D03*
%TD*%
D10*
%TO.P,J4,16*%
%TO.N,+5V*%
X128270000Y-71120000D03*
%TO.P,J4,8*%
%TO.N,B6_in*%
X120650000Y-88900000D03*
%TO.P,J4,15*%
%TO.N,B7_in*%
X128270000Y-73660000D03*
%TO.P,J4,7*%
%TO.N,B5_in*%
X120650000Y-86360000D03*
%TO.P,J4,14*%
%TO.N,strobe_in*%
X128270000Y-76200000D03*
%TO.P,J4,6*%
%TO.N,B4_in*%
X120650000Y-83820000D03*
%TO.P,J4,13*%
%TO.N,Net-(J4-Pad13)*%
X128270000Y-78740000D03*
%TO.P,J4,5*%
%TO.N,B0_in*%
X120650000Y-81280000D03*
%TO.P,J4,12*%
%TO.N,CLS*%
X128270000Y-81280000D03*
%TO.P,J4,4*%
%TO.N,B1_in*%
X120650000Y-78740000D03*
%TO.P,J4,11*%
%TO.N,Net-(J4-Pad11)*%
X128270000Y-83820000D03*
%TO.P,J4,3*%
%TO.N,B2_in*%
X120650000Y-76200000D03*
%TO.P,J4,10*%
%TO.N,Net-(J4-Pad10)*%
X128270000Y-86360000D03*
%TO.P,J4,2*%
%TO.N,B3_in*%
X120650000Y-73660000D03*
%TO.P,J4,9*%
%TO.N,GND*%
X128270000Y-88900000D03*
D11*
%TO.P,J4,1*%
%TO.N,Net-(J4-Pad1)*%
X120650000Y-71120000D03*
%TD*%
D15*
%TO.P,J3,12*%
%TO.N,+5V*%
X101600000Y-83820000D03*
%TO.P,J3,11*%
%TO.N,GND*%
X99060000Y-83820000D03*
%TO.P,J3,10*%
%TO.N,strobe_in*%
X96520000Y-83820000D03*
%TO.P,J3,9*%
%TO.N,CLS*%
X93980000Y-83820000D03*
%TO.P,J3,8*%
%TO.N,B7_in*%
X91440000Y-83820000D03*
%TO.P,J3,7*%
%TO.N,B6_in*%
X88900000Y-83820000D03*
%TO.P,J3,6*%
%TO.N,B5_in*%
X86360000Y-83820000D03*
%TO.P,J3,5*%
%TO.N,B4_in*%
X83820000Y-83820000D03*
%TO.P,J3,4*%
%TO.N,B3_in*%
X81280000Y-83820000D03*
%TO.P,J3,3*%
%TO.N,B2_in*%
X78740000Y-83820000D03*
%TO.P,J3,2*%
%TO.N,B1_in*%
X76200000Y-83820000D03*
D16*
%TO.P,J3,1*%
%TO.N,B0_in*%
X73660000Y-83820000D03*
%TD*%
D15*
%TO.P,J2,3*%
%TO.N,GND*%
X187960000Y-43180000D03*
%TO.P,J2,2*%
%TO.N,Net-(J2-Pad2)*%
X187960000Y-40640000D03*
D16*
%TO.P,J2,1*%
%TO.N,Net-(J2-Pad1)*%
X187960000Y-38100000D03*
%TD*%
D15*
%TO.P,J1,6*%
%TO.N,Net-(J1-Pad6)*%
X187960000Y-26670000D03*
%TO.P,J1,5*%
%TO.N,serial_out_ttl*%
X187960000Y-24130000D03*
%TO.P,J1,4*%
%TO.N,Net-(J1-Pad4)*%
X187960000Y-21590000D03*
%TO.P,J1,3*%
%TO.N,Net-(J1-Pad3)*%
X187960000Y-19050000D03*
%TO.P,J1,2*%
%TO.N,Net-(J1-Pad2)*%
X187960000Y-16510000D03*
D16*
%TO.P,J1,1*%
%TO.N,GND*%
X187960000Y-13970000D03*
%TD*%
D18*
%TO.P,D10,2*%
%TO.N,serial_out_ttl*%
X167640000Y-2540000D03*
D19*
%TO.P,D10,1*%
%TO.N,Net-(D10-Pad1)*%
X167640000Y-5080000D03*
%TD*%
D18*
%TO.P,D9,2*%
%TO.N,serial_in_ttl*%
X125730000Y-2540000D03*
D19*
%TO.P,D9,1*%
%TO.N,Net-(D9-Pad1)*%
X125730000Y-5080000D03*
%TD*%
D18*
%TO.P,D8,2*%
%TO.N,B7_out*%
X26670000Y-66040000D03*
D19*
%TO.P,D8,1*%
%TO.N,Net-(D8-Pad1)*%
X26670000Y-68580000D03*
%TD*%
D18*
%TO.P,D7,2*%
%TO.N,B6_out*%
X35560000Y-66040000D03*
D19*
%TO.P,D7,1*%
%TO.N,Net-(D7-Pad1)*%
X35560000Y-68580000D03*
%TD*%
D18*
%TO.P,D6,2*%
%TO.N,B5_out*%
X44450000Y-66040000D03*
D19*
%TO.P,D6,1*%
%TO.N,Net-(D6-Pad1)*%
X44450000Y-68580000D03*
%TD*%
D18*
%TO.P,D5,2*%
%TO.N,B4_out*%
X53340000Y-66040000D03*
D19*
%TO.P,D5,1*%
%TO.N,Net-(D5-Pad1)*%
X53340000Y-68580000D03*
%TD*%
D18*
%TO.P,D4,2*%
%TO.N,B3_out*%
X62230000Y-66040000D03*
D19*
%TO.P,D4,1*%
%TO.N,Net-(D4-Pad1)*%
X62230000Y-68580000D03*
%TD*%
D18*
%TO.P,D3,2*%
%TO.N,B2_out*%
X71120000Y-66040000D03*
D19*
%TO.P,D3,1*%
%TO.N,Net-(D3-Pad1)*%
X71120000Y-68580000D03*
%TD*%
D18*
%TO.P,D2,2*%
%TO.N,B1_out*%
X80010000Y-66040000D03*
D19*
%TO.P,D2,1*%
%TO.N,Net-(D2-Pad1)*%
X80010000Y-68580000D03*
%TD*%
D18*
%TO.P,D1,2*%
%TO.N,B0_out*%
X88900000Y-66040000D03*
D19*
%TO.P,D1,1*%
%TO.N,Net-(D1-Pad1)*%
X88900000Y-68580000D03*
%TD*%
D14*
%TO.P,C8,2*%
%TO.N,GND*%
X128270000Y-55840000D03*
D11*
%TO.P,C8,1*%
%TO.N,Net-(C8-Pad1)*%
X128270000Y-53340000D03*
%TD*%
D14*
%TO.P,C7,2*%
%TO.N,GND*%
X138430000Y-55840000D03*
D11*
%TO.P,C7,1*%
%TO.N,Net-(C7-Pad1)*%
X138430000Y-53340000D03*
%TD*%
D14*
%TO.P,C6,2*%
%TO.N,Net-(C6-Pad2)*%
X175260000Y-55840000D03*
D11*
%TO.P,C6,1*%
%TO.N,GND*%
X175260000Y-53340000D03*
%TD*%
D14*
%TO.P,C5,2*%
%TO.N,GND*%
X166370000Y-55840000D03*
D11*
%TO.P,C5,1*%
%TO.N,Net-(C5-Pad1)*%
X166370000Y-53340000D03*
%TD*%
D14*
%TO.P,C4,2*%
%TO.N,Net-(C4-Pad2)*%
X157480000Y-55840000D03*
D11*
%TO.P,C4,1*%
%TO.N,Net-(C4-Pad1)*%
X157480000Y-53340000D03*
%TD*%
D14*
%TO.P,C3,2*%
%TO.N,Net-(C3-Pad2)*%
X148590000Y-55840000D03*
D11*
%TO.P,C3,1*%
%TO.N,Net-(C3-Pad1)*%
X148590000Y-53340000D03*
%TD*%
D14*
%TO.P,C2,2*%
%TO.N,GND*%
X146010000Y-76200000D03*
%TO.P,C2,1*%
%TO.N,Net-(C2-Pad1)*%
X143510000Y-76200000D03*
%TD*%
%TO.P,C1,2*%
%TO.N,GND*%
X138390000Y-76200000D03*
%TO.P,C1,1*%
%TO.N,Net-(C1-Pad1)*%
X135890000Y-76200000D03*
%TD*%
D20*
%TO.N,GND*%
X102589100Y-40097900D03*
%TO.N,B0_out*%
X85258300Y-19176000D03*
%TO.N,B1_out*%
X119438300Y-16125500D03*
%TO.N,B3_out*%
X56481800Y-70446300D03*
X73903600Y-61621600D03*
%TO.N,B4_out*%
X65871000Y-61646500D03*
%TO.N,B5_out*%
X64544600Y-24411400D03*
%TO.N,B7_out*%
X114202800Y-16833400D03*
%TO.N,serial_in_ttl*%
X105931100Y-27463000D03*
%TO.N,+5V*%
X54841300Y-33466800D03*
X79062200Y-41589800D03*
X163624200Y-25103100D03*
%TO.N,strobe_in*%
X117239200Y-72831500D03*
X82911000Y-33095700D03*
%TO.N,CLS*%
X93302400Y-81459400D03*
%TO.N,B7_in*%
X95463200Y-33034900D03*
%TO.N,B5_in*%
X72628000Y-62180100D03*
X86344600Y-80193500D03*
%TO.N,B4_in*%
X68171100Y-24364100D03*
X85557300Y-31494900D03*
%TO.N,B3_in*%
X86521400Y-15960700D03*
%TO.N,B2_in*%
X62237600Y-25137700D03*
X87102100Y-32535000D03*
%TO.N,B1_in*%
X82446700Y-31130700D03*
%TO.N,B0_in*%
X64801700Y-53557000D03*
%TO.N,strobe_out*%
X33887800Y-40168500D03*
X110918700Y-33407100D03*
%TO.N,Net-(J6-Pad12)*%
X174065500Y-77677100D03*
%TO.N,Net-(J6-Pad11)*%
X168614400Y-77553300D03*
%TO.N,Net-(J6-Pad10)*%
X165288900Y-76815200D03*
%TO.N,Net-(J6-Pad9)*%
X169333800Y-76089800D03*
%TO.N,Net-(J6-Pad7)*%
X180388100Y-70182400D03*
%TO.N,Net-(J6-Pad6)*%
X153233200Y-51472200D03*
X175619500Y-70105500D03*
%TO.N,clock*%
X181245900Y-49302500D03*
X83820000Y-52211800D03*
X69730300Y-52214600D03*
%TO.N,Net-(R4-Pad2)*%
X156130300Y-47110500D03*
%TO.N,Net-(U1-Pad15)*%
X59304500Y-31097700D03*
X52761900Y-24555100D03*
%TO.N,Net-(U1-Pad2)*%
X81289600Y-19348400D03*
%TO.N,Net-(U1-Pad1)*%
X89805500Y-18895000D03*
%TO.N,Net-(U13-Pad4)*%
X71529000Y-41403200D03*
%TO.N,Net-(U3-Pad1)*%
X85809100Y-18312000D03*
%TO.N,Net-(U12-Pad3)*%
X61137000Y-17815500D03*
X44561900Y-39487900D03*
X38692500Y-39791800D03*
%TO.N,Net-(U11-Pad11)*%
X162013700Y-19087000D03*
%TO.N,Net-(U6-Pad2)*%
X149500400Y-26641500D03*
%TO.N,Net-(U12-Pad2)*%
X45150000Y-46210000D03*
X124205600Y-43721300D03*
%TO.N,Net-(U14-Pad5)*%
X104738100Y-38673100D03*
%TO.N,Net-(U11-Pad10)*%
X104294100Y-32199900D03*
X120712000Y-37128400D03*
%TO.N,Net-(U13-Pad3)*%
X63335500Y-40804500D03*
%TD*%
D21*
%TO.N,GND*%
X17150900Y-17566000D02*
X17004300Y-17712600D01*
X17004300Y-17712600D02*
X15719000Y-17712600D01*
X15719000Y-17712600D02*
X14510000Y-18921600D01*
X14510000Y-18921600D02*
X14510000Y-19050000D01*
X35560000Y-3102600D02*
X33831100Y-1373700D01*
X33831100Y-1373700D02*
X24932700Y-1373700D01*
X24932700Y-1373700D02*
X18567500Y-7738900D01*
X18567500Y-7738900D02*
X18567500Y-16149400D01*
X18567500Y-16149400D02*
X17150900Y-17566000D01*
X17150900Y-17566000D02*
X20464700Y-20879900D01*
X20464700Y-20879900D02*
X20464700Y-42199400D01*
X20464700Y-42199400D02*
X21590000Y-43324700D01*
X21590000Y-44450000D02*
X21590000Y-43324700D01*
X35560000Y-3102600D02*
X35560000Y-3665300D01*
X35560000Y-2540000D02*
X35560000Y-3102600D01*
X134698100Y-59571900D02*
X138430000Y-55840000D01*
X135906100Y-77854400D02*
X134698100Y-76646400D01*
X134698100Y-76646400D02*
X134698100Y-59571900D01*
X134698100Y-59571900D02*
X132001900Y-59571900D01*
X132001900Y-59571900D02*
X128270000Y-55840000D01*
X135906100Y-77854400D02*
X136735600Y-77854400D01*
X136735600Y-77854400D02*
X138390000Y-76200000D01*
X128270000Y-87774700D02*
X128551300Y-87774700D01*
X128551300Y-87774700D02*
X134745800Y-81580200D01*
X134745800Y-81580200D02*
X134745800Y-79014700D01*
X134745800Y-79014700D02*
X135906100Y-77854400D01*
X104058500Y-28188300D02*
X103568800Y-28678000D01*
X103568800Y-28678000D02*
X103568800Y-32915700D01*
X103568800Y-32915700D02*
X104012800Y-33359700D01*
X104012800Y-33359700D02*
X104012800Y-40097900D01*
X104012800Y-40097900D02*
X102589100Y-40097900D01*
X105410000Y-43324700D02*
X104012800Y-41927500D01*
X104012800Y-41927500D02*
X104012800Y-40097900D01*
X171450000Y-13970000D02*
X171450000Y-15095300D01*
X173990000Y-21027300D02*
X173990000Y-17635300D01*
X173990000Y-17635300D02*
X171450000Y-15095300D01*
X173990000Y-21027300D02*
X174842000Y-21027300D01*
X174842000Y-21027300D02*
X175404700Y-21590000D01*
X104058500Y-28188300D02*
X104058500Y-27713800D01*
X104058500Y-27713800D02*
X99060000Y-22715300D01*
X104058500Y-28188300D02*
X106231600Y-28188300D01*
X106231600Y-28188300D02*
X106706000Y-27713900D01*
X106706000Y-27713900D02*
X106706000Y-27713800D01*
X106706000Y-27713800D02*
X116222200Y-27713800D01*
X116222200Y-27713800D02*
X122064700Y-21871300D01*
X122064700Y-21871300D02*
X122064700Y-21590000D01*
X160694800Y-62342100D02*
X158275400Y-62342100D01*
X158275400Y-62342100D02*
X157574000Y-63043500D01*
X157574000Y-63043500D02*
X157574000Y-63977500D01*
X157574000Y-63977500D02*
X162658200Y-69061700D01*
X162658200Y-69061700D02*
X175601700Y-69061700D01*
X175601700Y-69061700D02*
X176396200Y-69856200D01*
X176396200Y-69856200D02*
X176396200Y-70396200D01*
X176396200Y-70396200D02*
X175672400Y-71120000D01*
X175672400Y-71120000D02*
X170035300Y-71120000D01*
X176530000Y-21590000D02*
X175404700Y-21590000D01*
X173990000Y-21590000D02*
X173990000Y-21027300D01*
X161290000Y-63500000D02*
X161290000Y-62374700D01*
X161290000Y-62374700D02*
X160727400Y-62374700D01*
X160727400Y-62374700D02*
X160694800Y-62342100D01*
X166370000Y-55840000D02*
X160694800Y-61515200D01*
X160694800Y-61515200D02*
X160694800Y-62342100D01*
X168910000Y-71120000D02*
X170035300Y-71120000D01*
X149860000Y-21590000D02*
X149860000Y-22715300D01*
X153670000Y-36830000D02*
X153670000Y-26525300D01*
X153670000Y-26525300D02*
X149860000Y-22715300D01*
X148590000Y-3526600D02*
X148590000Y-19194700D01*
X148590000Y-19194700D02*
X149860000Y-20464700D01*
X148590000Y-2540000D02*
X148590000Y-3526600D01*
X148590000Y-3526600D02*
X135556600Y-3526600D01*
X135556600Y-3526600D02*
X134430000Y-2400000D01*
X123190000Y-21590000D02*
X122064700Y-21590000D01*
X119235300Y-44450000D02*
X124919200Y-44450000D01*
X124919200Y-44450000D02*
X126044500Y-43324700D01*
X126044500Y-43324700D02*
X128414700Y-43324700D01*
X128414700Y-43324700D02*
X129540000Y-44450000D01*
X99060000Y-21590000D02*
X99060000Y-22715300D01*
X105410000Y-44450000D02*
X105410000Y-43324700D01*
X176530000Y-21590000D02*
X177655300Y-21590000D01*
X177655300Y-21590000D02*
X184100000Y-15145300D01*
X184100000Y-15145300D02*
X187960000Y-15145300D01*
X146010000Y-76200000D02*
X144884600Y-77325400D01*
X144884600Y-77325400D02*
X139515400Y-77325400D01*
X139515400Y-77325400D02*
X138390000Y-76200000D01*
X138807800Y-49007500D02*
X138245100Y-48444900D01*
X138245100Y-48444900D02*
X134378800Y-48444900D01*
X134378800Y-48444900D02*
X130665300Y-44731400D01*
X130665300Y-44731400D02*
X130665300Y-44450000D01*
X138430000Y-55840000D02*
X139556700Y-54713300D01*
X139556700Y-54713300D02*
X139556700Y-49756500D01*
X139556700Y-49756500D02*
X138807800Y-49007500D01*
X138807800Y-49007500D02*
X142240000Y-45575300D01*
X142240000Y-44450000D02*
X142240000Y-45575300D01*
X129540000Y-44450000D02*
X130665300Y-44450000D01*
X118110000Y-44450000D02*
X119235300Y-44450000D01*
X96520000Y-21590000D02*
X96520000Y-20464700D01*
X96520000Y-20464700D02*
X93980000Y-17924700D01*
X93980000Y-17924700D02*
X93980000Y-13970000D01*
X35560000Y-3665300D02*
X44450000Y-12555300D01*
X44450000Y-12555300D02*
X44450000Y-14296000D01*
X44450000Y-14296000D02*
X47172200Y-17018200D01*
X47172200Y-17018200D02*
X48260000Y-17018200D01*
X48260000Y-17018200D02*
X58420000Y-6858200D01*
X58420000Y-6858200D02*
X58420000Y-6255300D01*
X48260000Y-21590000D02*
X48260000Y-17018200D01*
X149860000Y-21590000D02*
X149860000Y-20464700D01*
X58420000Y-5080000D02*
X58420000Y-6255300D01*
X128270000Y-88900000D02*
X127144700Y-88900000D01*
X99060000Y-83820000D02*
X100235300Y-83820000D01*
X100235300Y-83820000D02*
X100235300Y-84187400D01*
X100235300Y-84187400D02*
X103822600Y-87774700D01*
X103822600Y-87774700D02*
X126019400Y-87774700D01*
X126019400Y-87774700D02*
X127144700Y-88900000D01*
X187960000Y-13970000D02*
X187960000Y-15145300D01*
X187960000Y-43180000D02*
X187960000Y-42004700D01*
X187960000Y-42004700D02*
X188327300Y-42004700D01*
X188327300Y-42004700D02*
X189135300Y-41196700D01*
X189135300Y-41196700D02*
X189135300Y-15953200D01*
X189135300Y-15953200D02*
X188327400Y-15145300D01*
X188327400Y-15145300D02*
X187960000Y-15145300D01*
X128270000Y-88900000D02*
X128270000Y-87774700D01*
%TO.N,Net-(C1-Pad1)*%
X139700000Y-69215000D02*
X140646800Y-69215000D01*
X140646800Y-69215000D02*
X147175300Y-75743500D01*
X147175300Y-75743500D02*
X147175300Y-79029400D01*
X147175300Y-79029400D02*
X146050000Y-80154700D01*
X135890000Y-76200000D02*
X135890000Y-73025000D01*
X135890000Y-73025000D02*
X139700000Y-69215000D01*
X139700000Y-69215000D02*
X139700000Y-67310000D01*
X146050000Y-81280000D02*
X146050000Y-80154700D01*
%TO.N,Net-(C3-Pad2)*%
X156210000Y-44450000D02*
X156210000Y-45575300D01*
X148590000Y-55840000D02*
X150776400Y-53653600D01*
X150776400Y-53653600D02*
X150776400Y-51008900D01*
X150776400Y-51008900D02*
X156210000Y-45575300D01*
%TO.N,Net-(C3-Pad1)*%
X148590000Y-53340000D02*
X148590000Y-52214700D01*
X148590000Y-52214700D02*
X151130000Y-49674700D01*
X151130000Y-49674700D02*
X151130000Y-44450000D01*
%TO.N,Net-(C4-Pad2)*%
X157480000Y-55840000D02*
X161290000Y-52030000D01*
X161290000Y-52030000D02*
X161290000Y-44450000D01*
%TO.N,Net-(C4-Pad1)*%
X157480000Y-53340000D02*
X157480000Y-52214700D01*
X157480000Y-52214700D02*
X158750000Y-50944700D01*
X158750000Y-50944700D02*
X158750000Y-44450000D01*
%TO.N,Net-(C5-Pad1)*%
X153670000Y-44450000D02*
X154795300Y-44450000D01*
X166370000Y-53340000D02*
X166370000Y-52214700D01*
X166370000Y-52214700D02*
X162560000Y-48404700D01*
X162560000Y-48404700D02*
X162560000Y-44051900D01*
X162560000Y-44051900D02*
X161832800Y-43324700D01*
X161832800Y-43324700D02*
X155639200Y-43324700D01*
X155639200Y-43324700D02*
X154795300Y-44168600D01*
X154795300Y-44168600D02*
X154795300Y-44450000D01*
%TO.N,Net-(C6-Pad2)*%
X163830000Y-44450000D02*
X164955300Y-44450000D01*
X175260000Y-55840000D02*
X164955300Y-45535300D01*
X164955300Y-45535300D02*
X164955300Y-44450000D01*
%TO.N,Net-(C7-Pad1)*%
X127000000Y-44450000D02*
X128125300Y-44450000D01*
X138430000Y-53340000D02*
X136734000Y-53340000D01*
X136734000Y-53340000D02*
X128125300Y-44731300D01*
X128125300Y-44731300D02*
X128125300Y-44450000D01*
X127000000Y-44450000D02*
X125874700Y-44450000D01*
X109220000Y-53340000D02*
X116984700Y-53340000D01*
X116984700Y-53340000D02*
X125874700Y-44450000D01*
%TO.N,Net-(C8-Pad1)*%
X112225900Y-57954100D02*
X109220000Y-60960000D01*
X127144700Y-53340000D02*
X122530600Y-57954100D01*
X122530600Y-57954100D02*
X112225900Y-57954100D01*
X112225900Y-57954100D02*
X102870000Y-48598200D01*
X102870000Y-48598200D02*
X102870000Y-44450000D01*
X128270000Y-53340000D02*
X127144700Y-53340000D01*
%TO.N,B0_out*%
X85258300Y-19176000D02*
X84945500Y-18863200D01*
X84945500Y-18863200D02*
X84945500Y-7380800D01*
X84945500Y-7380800D02*
X83820000Y-6255300D01*
X88900000Y-66040000D02*
X82630500Y-59770500D01*
X82630500Y-59770500D02*
X82630500Y-35683000D01*
X82630500Y-35683000D02*
X81693700Y-34746200D01*
X81693700Y-34746200D02*
X81693700Y-30858000D01*
X81693700Y-30858000D02*
X85225800Y-27325900D01*
X85225800Y-27325900D02*
X85225800Y-19208500D01*
X85225800Y-19208500D02*
X85258300Y-19176000D01*
X88900000Y-66040000D02*
X71120000Y-83820000D01*
X71120000Y-83820000D02*
X48260000Y-83820000D01*
X83820000Y-5080000D02*
X83820000Y-6255300D01*
%TO.N,B1_out*%
X133494700Y-21590000D02*
X128030200Y-16125500D01*
X128030200Y-16125500D02*
X119438300Y-16125500D01*
X80154600Y-66040000D02*
X80487700Y-66040000D01*
X80487700Y-66040000D02*
X81712500Y-67264800D01*
X81712500Y-67264800D02*
X81712500Y-69797200D01*
X81712500Y-69797200D02*
X80541600Y-70968100D01*
X80541600Y-70968100D02*
X58938900Y-70968100D01*
X58938900Y-70968100D02*
X46895300Y-83011700D01*
X46895300Y-83011700D02*
X46895300Y-83820000D01*
X81280000Y-5080000D02*
X81280000Y-6255300D01*
X80154600Y-66040000D02*
X80154600Y-7380700D01*
X80154600Y-7380700D02*
X81280000Y-6255300D01*
X80154600Y-66040000D02*
X80010000Y-66040000D01*
X82455300Y-5080000D02*
X82455300Y-4272000D01*
X82455300Y-4272000D02*
X82823800Y-3903500D01*
X82823800Y-3903500D02*
X99502500Y-3903500D01*
X99502500Y-3903500D02*
X109364700Y-13765700D01*
X109364700Y-13765700D02*
X109364700Y-13970000D01*
X45720000Y-83820000D02*
X46895300Y-83820000D01*
X134620000Y-21590000D02*
X133494700Y-21590000D01*
X110490000Y-13970000D02*
X109364700Y-13970000D01*
X81280000Y-5080000D02*
X82455300Y-5080000D01*
%TO.N,Net-(D2-Pad1)*%
X80010000Y-68580000D02*
X78784700Y-68580000D01*
X78784700Y-68580000D02*
X73790400Y-63585700D01*
X73790400Y-63585700D02*
X55965700Y-63585700D01*
X55965700Y-63585700D02*
X52070000Y-59690000D01*
%TO.N,B2_out*%
X44355300Y-83820000D02*
X44355300Y-83452700D01*
X44355300Y-83452700D02*
X56636400Y-71171600D01*
X56636400Y-71171600D02*
X56782300Y-71171600D01*
X56782300Y-71171600D02*
X57462200Y-70491700D01*
X57462200Y-70491700D02*
X71500400Y-70491700D01*
X71500400Y-70491700D02*
X72345400Y-69646700D01*
X71120000Y-66040000D02*
X72345400Y-67265400D01*
X72345400Y-67265400D02*
X72345400Y-69646700D01*
X72345400Y-69646700D02*
X72542900Y-69844200D01*
X72542900Y-69844200D02*
X81028600Y-69844200D01*
X81028600Y-69844200D02*
X81262200Y-69610600D01*
X81262200Y-69610600D02*
X81262200Y-67530900D01*
X81262200Y-67530900D02*
X81085900Y-67354600D01*
X81085900Y-67354600D02*
X79575600Y-67354600D01*
X79575600Y-67354600D02*
X77577700Y-65356700D01*
X77577700Y-65356700D02*
X77577700Y-7417600D01*
X77577700Y-7417600D02*
X78740000Y-6255300D01*
X78740000Y-5080000D02*
X78740000Y-6255300D01*
X43180000Y-83820000D02*
X44355300Y-83820000D01*
%TO.N,Net-(D3-Pad1)*%
X69894700Y-68580000D02*
X68669400Y-67354700D01*
X68669400Y-67354700D02*
X58113900Y-67354700D01*
X58113900Y-67354700D02*
X50898500Y-60139300D01*
X50898500Y-60139300D02*
X50898500Y-59254000D01*
X50898500Y-59254000D02*
X51587800Y-58564700D01*
X51587800Y-58564700D02*
X52640800Y-58564700D01*
X52640800Y-58564700D02*
X53484700Y-59408600D01*
X53484700Y-59408600D02*
X53484700Y-59690000D01*
X54610000Y-59690000D02*
X53484700Y-59690000D01*
X71120000Y-68580000D02*
X69894700Y-68580000D01*
%TO.N,B3_out*%
X40640000Y-83820000D02*
X41815300Y-83820000D01*
X56481800Y-70446300D02*
X54887700Y-70446300D01*
X54887700Y-70446300D02*
X41815300Y-83518700D01*
X41815300Y-83518700D02*
X41815300Y-83820000D01*
X73903600Y-61621600D02*
X76200000Y-59325200D01*
X76200000Y-59325200D02*
X76200000Y-6255300D01*
X76200000Y-5080000D02*
X76200000Y-6255300D01*
%TO.N,Net-(D4-Pad1)*%
X57150000Y-59690000D02*
X56024700Y-59690000D01*
X62230000Y-68580000D02*
X58702300Y-68580000D01*
X58702300Y-68580000D02*
X51712600Y-61590300D01*
X51712600Y-61590300D02*
X49833400Y-61590300D01*
X49833400Y-61590300D02*
X48387000Y-60143900D01*
X48387000Y-60143900D02*
X48387000Y-59226600D01*
X48387000Y-59226600D02*
X49521300Y-58092300D01*
X49521300Y-58092300D02*
X54708300Y-58092300D01*
X54708300Y-58092300D02*
X56024700Y-59408700D01*
X56024700Y-59408700D02*
X56024700Y-59690000D01*
%TO.N,B4_out*%
X65871000Y-61646500D02*
X65959600Y-61557900D01*
X65959600Y-61557900D02*
X65959600Y-27859000D01*
X65959600Y-27859000D02*
X68896400Y-24922200D01*
X68896400Y-24922200D02*
X68896400Y-24063600D01*
X68896400Y-24063600D02*
X68706500Y-23873700D01*
X68706500Y-23873700D02*
X68706500Y-11208800D01*
X68706500Y-11208800D02*
X73660000Y-6255300D01*
X38100000Y-83820000D02*
X39275300Y-83820000D01*
X53340000Y-66040000D02*
X54579600Y-67279600D01*
X54579600Y-67279600D02*
X54579600Y-69650500D01*
X54579600Y-69650500D02*
X41585400Y-82644700D01*
X41585400Y-82644700D02*
X40083200Y-82644700D01*
X40083200Y-82644700D02*
X39275300Y-83452600D01*
X39275300Y-83452600D02*
X39275300Y-83820000D01*
X73660000Y-5080000D02*
X73660000Y-6255300D01*
%TO.N,Net-(D5-Pad1)*%
X59690000Y-59690000D02*
X58564700Y-59690000D01*
X53340000Y-68580000D02*
X53340000Y-67354700D01*
X53340000Y-67354700D02*
X52548500Y-67354700D01*
X52548500Y-67354700D02*
X45864600Y-60670800D01*
X45864600Y-60670800D02*
X45864600Y-58747500D01*
X45864600Y-58747500D02*
X46970200Y-57641900D01*
X46970200Y-57641900D02*
X56797900Y-57641900D01*
X56797900Y-57641900D02*
X58564700Y-59408700D01*
X58564700Y-59408700D02*
X58564700Y-59690000D01*
%TO.N,B5_out*%
X64014400Y-24386700D02*
X55659600Y-32741500D01*
X55659600Y-32741500D02*
X54540900Y-32741500D01*
X54540900Y-32741500D02*
X44424700Y-42857700D01*
X44424700Y-42857700D02*
X44424700Y-66014700D01*
X44424700Y-66014700D02*
X44450000Y-66040000D01*
X64014400Y-24386700D02*
X64519900Y-24386700D01*
X64519900Y-24386700D02*
X64544600Y-24411400D01*
X64014400Y-24386700D02*
X63595800Y-23968100D01*
X63595800Y-23968100D02*
X63595800Y-13485700D01*
X63595800Y-13485700D02*
X70826200Y-6255300D01*
X70826200Y-6255300D02*
X71120000Y-6255300D01*
X44450000Y-66040000D02*
X35560000Y-74930000D01*
X35560000Y-74930000D02*
X35560000Y-83820000D01*
X71120000Y-5080000D02*
X71120000Y-6255300D01*
%TO.N,Net-(D6-Pad1)*%
X62230000Y-59690000D02*
X61104700Y-59690000D01*
X44450000Y-68580000D02*
X44450000Y-67354700D01*
X44450000Y-67354700D02*
X44909500Y-67354700D01*
X44909500Y-67354700D02*
X45695800Y-66568400D01*
X45695800Y-66568400D02*
X45695800Y-65096200D01*
X45695800Y-65096200D02*
X45340600Y-64741000D01*
X45340600Y-64741000D02*
X45340600Y-58619600D01*
X45340600Y-58619600D02*
X46841800Y-57118400D01*
X46841800Y-57118400D02*
X58814400Y-57118400D01*
X58814400Y-57118400D02*
X61104700Y-59408700D01*
X61104700Y-59408700D02*
X61104700Y-59690000D01*
%TO.N,B6_out*%
X69755300Y-5080000D02*
X69755300Y-4712700D01*
X69755300Y-4712700D02*
X71014900Y-3453100D01*
X71014900Y-3453100D02*
X101598500Y-3453100D01*
X101598500Y-3453100D02*
X111615900Y-13470500D01*
X111615900Y-13470500D02*
X111615900Y-15120100D01*
X111615900Y-15120100D02*
X109313600Y-17422400D01*
X109313600Y-17422400D02*
X109313600Y-22018000D01*
X109313600Y-22018000D02*
X110010900Y-22715300D01*
X110010900Y-22715300D02*
X116140800Y-22715300D01*
X116140800Y-22715300D02*
X116984700Y-21871400D01*
X116984700Y-21871400D02*
X116984700Y-21590000D01*
X68580000Y-5080000D02*
X68580000Y-6255300D01*
X35560000Y-66040000D02*
X41910000Y-59690000D01*
X41910000Y-59690000D02*
X41910000Y-36468400D01*
X41910000Y-36468400D02*
X55352000Y-23026400D01*
X55352000Y-23026400D02*
X55352000Y-21315200D01*
X55352000Y-21315200D02*
X60960000Y-15707200D01*
X60960000Y-15707200D02*
X60960000Y-13581500D01*
X60960000Y-13581500D02*
X68286200Y-6255300D01*
X68286200Y-6255300D02*
X68580000Y-6255300D01*
X33020000Y-83820000D02*
X33020000Y-68580000D01*
X33020000Y-68580000D02*
X35560000Y-66040000D01*
X118110000Y-21590000D02*
X116984700Y-21590000D01*
X68580000Y-5080000D02*
X69755300Y-5080000D01*
%TO.N,B7_out*%
X114202800Y-16833400D02*
X115570000Y-18200600D01*
X115570000Y-18200600D02*
X115570000Y-21590000D01*
X66040000Y-5080000D02*
X66040000Y-6255300D01*
X66040000Y-6255300D02*
X65746200Y-6255300D01*
X65746200Y-6255300D02*
X58420000Y-13581500D01*
X58420000Y-13581500D02*
X58420000Y-16360800D01*
X58420000Y-16360800D02*
X39514700Y-35266100D01*
X39514700Y-35266100D02*
X39514700Y-53195300D01*
X39514700Y-53195300D02*
X26670000Y-66040000D01*
X26670000Y-66040000D02*
X30480000Y-69850000D01*
X30480000Y-69850000D02*
X30480000Y-83820000D01*
%TO.N,serial_in_ttl*%
X114444600Y-15206400D02*
X116089000Y-16850800D01*
X116089000Y-16850800D02*
X120074300Y-16850800D01*
X120074300Y-16850800D02*
X135745300Y-32521800D01*
X135745300Y-32521800D02*
X135745300Y-37018500D01*
X135745300Y-37018500D02*
X139366100Y-40639300D01*
X139366100Y-40639300D02*
X140041600Y-40639300D01*
X140041600Y-40639300D02*
X146466600Y-47064300D01*
X146466600Y-47064300D02*
X146466600Y-70774600D01*
X146466600Y-70774600D02*
X160782000Y-85090000D01*
X107950000Y-21590000D02*
X107950000Y-22715300D01*
X105931100Y-27463000D02*
X105931100Y-24734200D01*
X105931100Y-24734200D02*
X107950000Y-22715300D01*
X114444600Y-15206400D02*
X114444600Y-13497100D01*
X114444600Y-13497100D02*
X125401700Y-2540000D01*
X125401700Y-2540000D02*
X125730000Y-2540000D01*
X114444600Y-15206400D02*
X110490000Y-19161000D01*
X110490000Y-19161000D02*
X110490000Y-21590000D01*
%TO.N,serial_out_ttl*%
X187960000Y-24130000D02*
X187960000Y-25305300D01*
X187960000Y-25305300D02*
X187592600Y-25305300D01*
X187592600Y-25305300D02*
X186784700Y-26113200D01*
X186784700Y-26113200D02*
X186784700Y-67185300D01*
X186784700Y-67185300D02*
X173580000Y-80390000D01*
X167640000Y-2540000D02*
X157480000Y-12700000D01*
X157480000Y-12700000D02*
X157480000Y-30480000D01*
%TO.N,Net-(J1-Pad4)*%
X160782000Y-89916000D02*
X172295600Y-78402400D01*
X172295600Y-78402400D02*
X174366000Y-78402400D01*
X174366000Y-78402400D02*
X186334300Y-66434100D01*
X186334300Y-66434100D02*
X186334300Y-24023700D01*
X186334300Y-24023700D02*
X187592700Y-22765300D01*
X187592700Y-22765300D02*
X187960000Y-22765300D01*
X187960000Y-21590000D02*
X187960000Y-22765300D01*
%TO.N,Net-(J1-Pad3)*%
X16510000Y-19050000D02*
X16510000Y-20175300D01*
X8382000Y-64770000D02*
X15384700Y-57767300D01*
X15384700Y-57767300D02*
X15384700Y-21300600D01*
X15384700Y-21300600D02*
X16510000Y-20175300D01*
%TO.N,+5V*%
X54610000Y-36830000D02*
X54610000Y-35704700D01*
X54610000Y-35704700D02*
X54841300Y-35473400D01*
X54841300Y-35473400D02*
X54841300Y-33466800D01*
X131178600Y-36843400D02*
X129569600Y-38452400D01*
X129569600Y-38452400D02*
X115496400Y-38452400D01*
X115496400Y-38452400D02*
X114155300Y-37111300D01*
X114155300Y-37111300D02*
X114155300Y-36830000D01*
X134620000Y-13970000D02*
X134620000Y-15095300D01*
X137722700Y-36830000D02*
X137722700Y-29028600D01*
X137722700Y-29028600D02*
X135745300Y-27051200D01*
X135745300Y-27051200D02*
X135745300Y-16220600D01*
X135745300Y-16220600D02*
X134620000Y-15095300D01*
X137722700Y-36830000D02*
X138285300Y-36830000D01*
X137160000Y-36830000D02*
X137722700Y-36830000D01*
X147464600Y-42312100D02*
X151748900Y-38027800D01*
X151130000Y-62374700D02*
X147464600Y-58709300D01*
X147464600Y-58709300D02*
X147464600Y-42312100D01*
X138285300Y-36830000D02*
X138285300Y-37111300D01*
X138285300Y-37111300D02*
X143486100Y-42312100D01*
X143486100Y-42312100D02*
X147464600Y-42312100D01*
X151130000Y-63500000D02*
X151130000Y-62374700D01*
X151748900Y-38027800D02*
X151130000Y-37408900D01*
X163624200Y-25103100D02*
X163624200Y-26013900D01*
X163624200Y-26013900D02*
X154940000Y-34698100D01*
X154940000Y-34698100D02*
X154940000Y-37191700D01*
X154940000Y-37191700D02*
X154103900Y-38027800D01*
X154103900Y-38027800D02*
X151748900Y-38027800D01*
X113030000Y-36830000D02*
X111904700Y-36830000D01*
X113030000Y-36830000D02*
X114155300Y-36830000D01*
X43180000Y-20430400D02*
X42680300Y-20430400D01*
X42680300Y-20430400D02*
X41909300Y-21201400D01*
X41909300Y-21201400D02*
X41909300Y-21983200D01*
X41909300Y-21983200D02*
X41177200Y-22715300D01*
X41177200Y-22715300D02*
X40069200Y-22715300D01*
X40069200Y-22715300D02*
X39225300Y-21871400D01*
X39225300Y-21871400D02*
X39225300Y-21590000D01*
X30480000Y-36830000D02*
X44308400Y-23001600D01*
X44308400Y-23001600D02*
X44308400Y-20994500D01*
X44308400Y-20994500D02*
X43744300Y-20430400D01*
X43744300Y-20430400D02*
X43180000Y-20430400D01*
X43180000Y-15095300D02*
X43180000Y-20430400D01*
X38100000Y-21590000D02*
X39225300Y-21590000D01*
X131178600Y-36843400D02*
X130039900Y-35704700D01*
X130039900Y-35704700D02*
X128969200Y-35704700D01*
X128969200Y-35704700D02*
X128125300Y-36548600D01*
X128125300Y-36548600D02*
X128125300Y-36830000D01*
X131517400Y-36830000D02*
X131504000Y-36843400D01*
X131504000Y-36843400D02*
X131178600Y-36843400D01*
X127000000Y-36830000D02*
X128125300Y-36830000D01*
X78740000Y-36830000D02*
X78740000Y-37955300D01*
X78740000Y-37955300D02*
X79062200Y-38277500D01*
X79062200Y-38277500D02*
X79062200Y-41589800D01*
X55880000Y-5080000D02*
X54704700Y-5080000D01*
X45720000Y-13970000D02*
X46845300Y-13970000D01*
X46845300Y-13970000D02*
X46845300Y-12939400D01*
X46845300Y-12939400D02*
X54704700Y-5080000D01*
X43180000Y-13970000D02*
X43180000Y-15095300D01*
X6350000Y-36830000D02*
X6350000Y-37955300D01*
X6350000Y-37955300D02*
X7475300Y-39080600D01*
X7475300Y-39080600D02*
X7475300Y-59065300D01*
X7475300Y-59065300D02*
X8480000Y-60070000D01*
X132080000Y-36830000D02*
X131517400Y-36830000D01*
X93980000Y-21590000D02*
X95105300Y-21590000D01*
X96994500Y-22715400D02*
X95949400Y-22715400D01*
X95949400Y-22715400D02*
X95105300Y-21871300D01*
X95105300Y-21871300D02*
X95105300Y-21590000D01*
X107950000Y-13970000D02*
X105063500Y-13970000D01*
X105063500Y-13970000D02*
X97863900Y-21169600D01*
X97863900Y-21169600D02*
X97863900Y-21846000D01*
X97863900Y-21846000D02*
X96994500Y-22715400D01*
X96994500Y-22715400D02*
X96994500Y-29829200D01*
X96994500Y-29829200D02*
X102870000Y-35704700D01*
X111904700Y-36830000D02*
X111904700Y-36548600D01*
X111904700Y-36548600D02*
X111060800Y-35704700D01*
X111060800Y-35704700D02*
X107379200Y-35704700D01*
X107379200Y-35704700D02*
X106535300Y-36548600D01*
X106535300Y-36548600D02*
X106535300Y-36830000D01*
X105410000Y-36830000D02*
X106535300Y-36830000D01*
X151130000Y-36830000D02*
X151130000Y-37408900D01*
X102870000Y-36830000D02*
X102870000Y-35704700D01*
X128270000Y-71120000D02*
X128270000Y-72245300D01*
X101600000Y-83820000D02*
X102775300Y-83820000D01*
X102775300Y-83820000D02*
X103923000Y-84967700D01*
X103923000Y-84967700D02*
X121814000Y-84967700D01*
X121814000Y-84967700D02*
X126771700Y-80010000D01*
X126771700Y-80010000D02*
X128657500Y-80010000D01*
X128657500Y-80010000D02*
X129395300Y-79272200D01*
X129395300Y-79272200D02*
X129395300Y-73089200D01*
X129395300Y-73089200D02*
X128551400Y-72245300D01*
X128551400Y-72245300D02*
X128270000Y-72245300D01*
%TO.N,strobe_in*%
X86360000Y-30282000D02*
X85724700Y-30282000D01*
X85724700Y-30282000D02*
X82911000Y-33095700D01*
X86360000Y-21590000D02*
X86360000Y-30282000D01*
X117239200Y-72831500D02*
X92710000Y-48302300D01*
X92710000Y-48302300D02*
X92710000Y-36393700D01*
X92710000Y-36393700D02*
X86598300Y-30282000D01*
X86598300Y-30282000D02*
X86360000Y-30282000D01*
X128270000Y-76200000D02*
X127144700Y-76200000D01*
X96520000Y-83820000D02*
X97695300Y-83820000D01*
X97695300Y-83820000D02*
X97695300Y-83452600D01*
X97695300Y-83452600D02*
X98503200Y-82644700D01*
X98503200Y-82644700D02*
X120981300Y-82644700D01*
X120981300Y-82644700D02*
X127144700Y-76481300D01*
X127144700Y-76481300D02*
X127144700Y-76200000D01*
%TO.N,CLS*%
X63500000Y-6255300D02*
X63206100Y-6255300D01*
X63206100Y-6255300D02*
X54497700Y-14963700D01*
X54497700Y-14963700D02*
X54497700Y-18830600D01*
X54497700Y-18830600D02*
X36794400Y-36533900D01*
X36794400Y-36533900D02*
X36794400Y-40276200D01*
X36794400Y-40276200D02*
X34427900Y-42642700D01*
X34427900Y-42642700D02*
X34427900Y-45479200D01*
X34427900Y-45479200D02*
X25392100Y-54515000D01*
X25392100Y-54515000D02*
X25392100Y-80096800D01*
X25392100Y-80096800D02*
X27940000Y-82644700D01*
X93980000Y-83820000D02*
X93980000Y-82644700D01*
X93980000Y-82644700D02*
X93302400Y-81967100D01*
X93302400Y-81967100D02*
X93302400Y-81459400D01*
X63500000Y-5080000D02*
X63500000Y-6255300D01*
X27940000Y-83820000D02*
X27940000Y-82644700D01*
%TO.N,B7_in*%
X124525900Y-75927200D02*
X121108100Y-72509400D01*
X121108100Y-72509400D02*
X119177900Y-72509400D01*
X119177900Y-72509400D02*
X99921700Y-53253200D01*
X99921700Y-53253200D02*
X99921700Y-37493400D01*
X99921700Y-37493400D02*
X95463200Y-33034900D01*
X91440000Y-82644700D02*
X91440000Y-82296100D01*
X91440000Y-82296100D02*
X93671600Y-80064500D01*
X93671600Y-80064500D02*
X120935500Y-80064500D01*
X120935500Y-80064500D02*
X124525900Y-76474100D01*
X124525900Y-76474100D02*
X124525900Y-75927200D01*
X124525900Y-75927200D02*
X124877500Y-75927200D01*
X124877500Y-75927200D02*
X127144700Y-73660000D01*
X128270000Y-73660000D02*
X127144700Y-73660000D01*
X91440000Y-83820000D02*
X91440000Y-82644700D01*
X40640000Y-21590000D02*
X40640000Y-20464700D01*
X25400000Y-2540000D02*
X34290000Y-11430000D01*
X34290000Y-11430000D02*
X34290000Y-14396000D01*
X34290000Y-14396000D02*
X40358700Y-20464700D01*
X40358700Y-20464700D02*
X40640000Y-20464700D01*
%TO.N,B6_in*%
X43180000Y-22715300D02*
X42898700Y-22715300D01*
X42898700Y-22715300D02*
X24210300Y-41403700D01*
X24210300Y-41403700D02*
X24210300Y-84308500D01*
X24210300Y-84308500D02*
X25865700Y-85963900D01*
X25865700Y-85963900D02*
X87343800Y-85963900D01*
X87343800Y-85963900D02*
X89487700Y-83820000D01*
X43180000Y-21590000D02*
X43180000Y-22715300D01*
X89487700Y-83820000D02*
X90075300Y-83820000D01*
X88900000Y-83820000D02*
X89487700Y-83820000D01*
X90075300Y-83820000D02*
X90075300Y-84187300D01*
X90075300Y-84187300D02*
X94788000Y-88900000D01*
X94788000Y-88900000D02*
X120650000Y-88900000D01*
%TO.N,B5_in*%
X86360000Y-83820000D02*
X86360000Y-82644700D01*
X69850000Y-13970000D02*
X69850000Y-15095300D01*
X72628000Y-62180100D02*
X72628000Y-44593400D01*
X72628000Y-44593400D02*
X70791800Y-42757200D01*
X70791800Y-42757200D02*
X70791800Y-40514000D01*
X70791800Y-40514000D02*
X70975300Y-40330500D01*
X70975300Y-40330500D02*
X70975300Y-16220600D01*
X70975300Y-16220600D02*
X69850000Y-15095300D01*
X86360000Y-82644700D02*
X86344600Y-82629300D01*
X86344600Y-82629300D02*
X86344600Y-80193500D01*
%TO.N,B4_in*%
X83820000Y-83820000D02*
X82628100Y-85011900D01*
X82628100Y-85011900D02*
X78265500Y-85011900D01*
X78265500Y-85011900D02*
X77559900Y-84306300D01*
X77559900Y-84306300D02*
X77559900Y-82817100D01*
X77559900Y-82817100D02*
X90575600Y-69801400D01*
X90575600Y-69801400D02*
X90575600Y-64635900D01*
X90575600Y-64635900D02*
X87630100Y-61690400D01*
X87630100Y-61690400D02*
X87630100Y-34088600D01*
X87630100Y-34088600D02*
X87630000Y-34088600D01*
X87630000Y-34088600D02*
X85557300Y-32015900D01*
X85557300Y-32015900D02*
X85557300Y-31494900D01*
X67310000Y-13970000D02*
X67310000Y-15095300D01*
X68171100Y-24364100D02*
X66184700Y-22377700D01*
X66184700Y-22377700D02*
X66184700Y-16220600D01*
X66184700Y-16220600D02*
X67310000Y-15095300D01*
%TO.N,B3_in*%
X120650000Y-74222600D02*
X120249700Y-74222600D01*
X120249700Y-74222600D02*
X95764000Y-49736900D01*
X95764000Y-49736900D02*
X95764000Y-34436800D01*
X95764000Y-34436800D02*
X87774600Y-26447400D01*
X87774600Y-26447400D02*
X87774600Y-17213900D01*
X87774600Y-17213900D02*
X86521400Y-15960700D01*
X120650000Y-74785300D02*
X120931400Y-74785300D01*
X120931400Y-74785300D02*
X121775300Y-75629200D01*
X121775300Y-75629200D02*
X121775300Y-76706400D01*
X121775300Y-76706400D02*
X121011700Y-77470000D01*
X121011700Y-77470000D02*
X88010100Y-77470000D01*
X88010100Y-77470000D02*
X82455300Y-83024800D01*
X82455300Y-83024800D02*
X82455300Y-83820000D01*
X120650000Y-74222600D02*
X120650000Y-74785300D01*
X120650000Y-73660000D02*
X120650000Y-74222600D01*
X81280000Y-83820000D02*
X82455300Y-83820000D01*
%TO.N,B2_in*%
X62230000Y-13970000D02*
X62230000Y-17789900D01*
X62230000Y-17789900D02*
X61089800Y-18930100D01*
X61089800Y-18930100D02*
X61089800Y-23989900D01*
X61089800Y-23989900D02*
X62237600Y-25137700D01*
X91036200Y-76200000D02*
X87168000Y-76200000D01*
X87168000Y-76200000D02*
X79915300Y-83452700D01*
X79915300Y-83452700D02*
X79915300Y-83820000D01*
X120650000Y-76200000D02*
X91036200Y-76200000D01*
X91036200Y-76200000D02*
X91036200Y-64220600D01*
X91036200Y-64220600D02*
X90170000Y-63354400D01*
X90170000Y-63354400D02*
X90170000Y-35602900D01*
X90170000Y-35602900D02*
X87102100Y-32535000D01*
X78740000Y-83820000D02*
X79915300Y-83820000D01*
%TO.N,B1_in*%
X76200000Y-82644700D02*
X77095400Y-82644700D01*
X77095400Y-82644700D02*
X90125300Y-69614800D01*
X90125300Y-69614800D02*
X90125300Y-65047400D01*
X90125300Y-65047400D02*
X85090000Y-60012100D01*
X85090000Y-60012100D02*
X85090000Y-36417200D01*
X85090000Y-36417200D02*
X82144000Y-33471200D01*
X82144000Y-33471200D02*
X82144000Y-31433400D01*
X82144000Y-31433400D02*
X82446700Y-31130700D01*
X76200000Y-83820000D02*
X76200000Y-82644700D01*
X76200000Y-83820000D02*
X77893500Y-85513500D01*
X77893500Y-85513500D02*
X86379700Y-85513500D01*
X86379700Y-85513500D02*
X87668200Y-84225000D01*
X87668200Y-84225000D02*
X87668200Y-83338300D01*
X87668200Y-83338300D02*
X92266500Y-78740000D01*
X92266500Y-78740000D02*
X120650000Y-78740000D01*
%TO.N,B0_in*%
X64801700Y-53557000D02*
X58500700Y-47256000D01*
X58500700Y-47256000D02*
X58500700Y-30862600D01*
X58500700Y-30862600D02*
X64226600Y-25136700D01*
X64226600Y-25136700D02*
X64845100Y-25136700D01*
X64845100Y-25136700D02*
X65269900Y-24711900D01*
X65269900Y-24711900D02*
X65269900Y-23215200D01*
X65269900Y-23215200D02*
X64770000Y-22715300D01*
X64770000Y-21590000D02*
X64770000Y-22715300D01*
%TO.N,strobe_out*%
X129540000Y-36830000D02*
X128379200Y-37990800D01*
X128379200Y-37990800D02*
X122600200Y-37990800D01*
X122600200Y-37990800D02*
X118016500Y-33407100D01*
X118016500Y-33407100D02*
X110918700Y-33407100D01*
X60960000Y-5080000D02*
X60960000Y-6255300D01*
X25400000Y-82644700D02*
X24937900Y-82182600D01*
X24937900Y-82182600D02*
X24937900Y-53446900D01*
X24937900Y-53446900D02*
X31605400Y-46779400D01*
X31605400Y-46779400D02*
X31605400Y-42450900D01*
X31605400Y-42450900D02*
X33887800Y-40168500D01*
X60960000Y-6255300D02*
X50813000Y-16402300D01*
X50813000Y-16402300D02*
X50813000Y-20649700D01*
X50813000Y-20649700D02*
X36069700Y-35393000D01*
X36069700Y-35393000D02*
X35381300Y-35393000D01*
X35381300Y-35393000D02*
X34290000Y-36484300D01*
X34290000Y-36484300D02*
X34290000Y-39766300D01*
X34290000Y-39766300D02*
X33887800Y-40168500D01*
X25400000Y-83820000D02*
X25400000Y-82644700D01*
%TO.N,Net-(J6-Pad12)*%
X166370000Y-71120000D02*
X167495300Y-71120000D01*
X174065500Y-77677100D02*
X173771100Y-77677100D01*
X173771100Y-77677100D02*
X167495300Y-71401300D01*
X167495300Y-71401300D02*
X167495300Y-71120000D01*
%TO.N,Net-(J6-Pad11)*%
X162415300Y-71120000D02*
X162415300Y-71354200D01*
X162415300Y-71354200D02*
X168614400Y-77553300D01*
X161290000Y-71120000D02*
X162415300Y-71120000D01*
%TO.N,Net-(J6-Pad10)*%
X159875300Y-71120000D02*
X159875300Y-71401600D01*
X159875300Y-71401600D02*
X165288900Y-76815200D01*
X158750000Y-71120000D02*
X159875300Y-71120000D01*
%TO.N,Net-(J6-Pad9)*%
X164955300Y-71120000D02*
X164955300Y-71711300D01*
X164955300Y-71711300D02*
X169333800Y-76089800D01*
X163830000Y-71120000D02*
X164955300Y-71120000D01*
%TO.N,Net-(J6-Pad7)*%
X158750000Y-63500000D02*
X159875300Y-63500000D01*
X180388100Y-70182400D02*
X174831000Y-64625300D01*
X174831000Y-64625300D02*
X160719200Y-64625300D01*
X160719200Y-64625300D02*
X159875300Y-63781400D01*
X159875300Y-63781400D02*
X159875300Y-63500000D01*
%TO.N,Net-(J6-Pad6)*%
X154109300Y-63500000D02*
X154109300Y-52348300D01*
X154109300Y-52348300D02*
X153233200Y-51472200D01*
X154109300Y-63500000D02*
X154548600Y-63500000D01*
X153670000Y-63500000D02*
X154109300Y-63500000D01*
X154548600Y-63500000D02*
X160959600Y-69911000D01*
X160959600Y-69911000D02*
X175425000Y-69911000D01*
X175425000Y-69911000D02*
X175619500Y-70105500D01*
%TO.N,clock*%
X161290000Y-13970000D02*
X161290000Y-15095300D01*
X181245900Y-49302500D02*
X181245900Y-41495800D01*
X181245900Y-41495800D02*
X162415400Y-22665300D01*
X162415400Y-22665300D02*
X162415400Y-20579600D01*
X162415400Y-20579600D02*
X161224800Y-19389000D01*
X161224800Y-19389000D02*
X161224800Y-15160500D01*
X161224800Y-15160500D02*
X161290000Y-15095300D01*
X83820000Y-52211800D02*
X83820000Y-44450000D01*
X67310000Y-36830000D02*
X67310000Y-37955300D01*
X67310000Y-37955300D02*
X68435300Y-39080600D01*
X68435300Y-39080600D02*
X68435300Y-50919600D01*
X68435300Y-50919600D02*
X69730300Y-52214600D01*
%TO.N,Net-(J7-Pad5)*%
X11650000Y-11800000D02*
X11650000Y-23800000D01*
%TO.N,Net-(R4-Pad2)*%
X160880000Y-80390000D02*
X152507700Y-72017700D01*
X152507700Y-72017700D02*
X152507700Y-50733100D01*
X152507700Y-50733100D02*
X156130300Y-47110500D01*
%TO.N,Net-(R4-Pad1)*%
X168910000Y-36830000D02*
X168910000Y-35704700D01*
X162560000Y-30480000D02*
X167784700Y-35704700D01*
X167784700Y-35704700D02*
X168910000Y-35704700D01*
%TO.N,Net-(U1-Pad15)*%
X59690000Y-13970000D02*
X59690000Y-16332600D01*
X59690000Y-16332600D02*
X52761900Y-23260700D01*
X52761900Y-23260700D02*
X52761900Y-24555100D01*
X64770000Y-43324700D02*
X64770000Y-41172900D01*
X64770000Y-41172900D02*
X60960000Y-37362900D01*
X60960000Y-37362900D02*
X60960000Y-32753200D01*
X60960000Y-32753200D02*
X59304500Y-31097700D01*
X64770000Y-44450000D02*
X64770000Y-43324700D01*
%TO.N,Net-(U1-Pad2)*%
X83820000Y-15095300D02*
X81289600Y-17625700D01*
X81289600Y-17625700D02*
X81289600Y-19348400D01*
X83820000Y-13970000D02*
X83820000Y-15095300D01*
%TO.N,Net-(U1-Pad1)*%
X110490000Y-44450000D02*
X109364700Y-44450000D01*
X89805500Y-18895000D02*
X90170000Y-19259500D01*
X90170000Y-19259500D02*
X90170000Y-25721600D01*
X90170000Y-25721600D02*
X101570100Y-37121700D01*
X101570100Y-37121700D02*
X101570100Y-41061300D01*
X101570100Y-41061300D02*
X103995400Y-43486600D01*
X103995400Y-43486600D02*
X103995400Y-44646000D01*
X103995400Y-44646000D02*
X104924700Y-45575300D01*
X104924700Y-45575300D02*
X108520800Y-45575300D01*
X108520800Y-45575300D02*
X109364700Y-44731400D01*
X109364700Y-44731400D02*
X109364700Y-44450000D01*
%TO.N,Net-(U13-Pad4)*%
X74930000Y-15095300D02*
X73804700Y-16220600D01*
X73804700Y-16220600D02*
X73804700Y-39127500D01*
X73804700Y-39127500D02*
X71529000Y-41403200D01*
X74930000Y-13970000D02*
X74930000Y-15095300D01*
%TO.N,Net-(U3-Pad1)*%
X87774700Y-13970000D02*
X87774700Y-14196700D01*
X87774700Y-14196700D02*
X86736000Y-15235400D01*
X86736000Y-15235400D02*
X86221000Y-15235400D01*
X86221000Y-15235400D02*
X85725900Y-15730500D01*
X85725900Y-15730500D02*
X85725900Y-18228800D01*
X85725900Y-18228800D02*
X85809100Y-18312000D01*
X88900000Y-13970000D02*
X87774700Y-13970000D01*
%TO.N,Net-(U12-Pad3)*%
X61137000Y-17815500D02*
X58275400Y-20677100D01*
X58275400Y-20677100D02*
X58275400Y-22676200D01*
X58275400Y-22676200D02*
X44561900Y-36389700D01*
X44561900Y-36389700D02*
X44561900Y-39487900D01*
X35560000Y-44450000D02*
X35560000Y-42924300D01*
X35560000Y-42924300D02*
X38692500Y-39791800D01*
%TO.N,Net-(U4-Pad9)*%
X142240000Y-36830000D02*
X143365300Y-36830000D01*
X143365300Y-36830000D02*
X150240600Y-29954700D01*
X150240600Y-29954700D02*
X150240600Y-23770800D01*
X150240600Y-23770800D02*
X148734600Y-22264800D01*
X148734600Y-22264800D02*
X148734600Y-21059600D01*
X148734600Y-21059600D02*
X147320000Y-19645000D01*
X147320000Y-19645000D02*
X147320000Y-13970000D01*
%TO.N,Net-(U6-Pad1)*%
X166370000Y-13970000D02*
X165244700Y-13970000D01*
X161290000Y-21590000D02*
X161290000Y-20464700D01*
X161290000Y-20464700D02*
X160155400Y-19330100D01*
X160155400Y-19330100D02*
X160155400Y-13511400D01*
X160155400Y-13511400D02*
X160822100Y-12844700D01*
X160822100Y-12844700D02*
X164400800Y-12844700D01*
X164400800Y-12844700D02*
X165244700Y-13688600D01*
X165244700Y-13688600D02*
X165244700Y-13970000D01*
%TO.N,Net-(U11-Pad11)*%
X168910000Y-13970000D02*
X167784700Y-13970000D01*
X167784700Y-13970000D02*
X167784700Y-14251300D01*
X167784700Y-14251300D02*
X162949000Y-19087000D01*
X162949000Y-19087000D02*
X162013700Y-19087000D01*
%TO.N,Net-(U6-Pad2)*%
X149500400Y-26641500D02*
X140437200Y-35704700D01*
X140437200Y-35704700D02*
X139700000Y-35704700D01*
X139700000Y-36830000D02*
X139700000Y-35704700D01*
%TO.N,Net-(U12-Pad2)*%
X57150000Y-44450000D02*
X56024700Y-44450000D01*
X56024700Y-44450000D02*
X56024700Y-45153300D01*
X56024700Y-45153300D02*
X54968000Y-46210000D01*
X54968000Y-46210000D02*
X45150000Y-46210000D01*
X137160000Y-44450000D02*
X136034700Y-44450000D01*
X136034700Y-44450000D02*
X136034700Y-44168700D01*
X136034700Y-44168700D02*
X134718300Y-42852300D01*
X134718300Y-42852300D02*
X125074600Y-42852300D01*
X125074600Y-42852300D02*
X124205600Y-43721300D01*
%TO.N,Net-(U14-Pad5)*%
X134620000Y-36830000D02*
X133494700Y-36830000D01*
X133494700Y-36830000D02*
X133494700Y-37111300D01*
X133494700Y-37111300D02*
X131703200Y-38902800D01*
X131703200Y-38902800D02*
X104967800Y-38902800D01*
X104967800Y-38902800D02*
X104738100Y-38673100D01*
%TO.N,Net-(U11-Pad10)*%
X120712000Y-37128400D02*
X117764100Y-34180500D01*
X117764100Y-34180500D02*
X106274700Y-34180500D01*
X106274700Y-34180500D02*
X104294100Y-32199900D01*
%TO.N,Net-(U13-Pad3)*%
X59690000Y-43324700D02*
X60815300Y-43324700D01*
X60815300Y-43324700D02*
X63335500Y-40804500D01*
X59690000Y-44450000D02*
X59690000Y-43324700D01*
%TD*%
M02*
