%TF.GenerationSoftware,KiCad,Pcbnew,5.1.6-c6e7f7d~87~ubuntu16.04.1*%
%TF.CreationDate,2022-03-08T12:56:54-05:00*%
%TF.ProjectId,serial,73657269-616c-42e6-9b69-6361645f7063,rev?*%
%TF.SameCoordinates,Original*%
%TF.FileFunction,Soldermask,Bot*%
%TF.FilePolarity,Negative*%
%FSLAX46Y46*%
G04 Gerber Fmt 4.6, Leading zero omitted, Abs format (unit mm)*
G04 Created by KiCad (PCBNEW 5.1.6-c6e7f7d~87~ubuntu16.04.1) date 2022-03-08 12:56:54*
%MOMM*%
%LPD*%
G01*
G04 APERTURE LIST*
%ADD10O,1.700000X1.700000*%
%ADD11R,1.700000X1.700000*%
%ADD12C,2.800000*%
%ADD13C,1.600000*%
%ADD14C,2.300000*%
%ADD15C,1.700000*%
%ADD16O,1.800000X1.800000*%
%ADD17R,1.800000X1.800000*%
%ADD18C,4.100000*%
%ADD19C,1.900000*%
%ADD20R,1.900000X1.900000*%
G04 APERTURE END LIST*
D10*
%TO.C,U5*%
X134620000Y-13970000D03*
X149860000Y-21590000D03*
X137160000Y-13970000D03*
X147320000Y-21590000D03*
X139700000Y-13970000D03*
X144780000Y-21590000D03*
X142240000Y-13970000D03*
X142240000Y-21590000D03*
X144780000Y-13970000D03*
X139700000Y-21590000D03*
X147320000Y-13970000D03*
X137160000Y-21590000D03*
X149860000Y-13970000D03*
D11*
X134620000Y-21590000D03*
%TD*%
D10*
%TO.C,U4*%
X107950000Y-13970000D03*
X123190000Y-21590000D03*
X110490000Y-13970000D03*
X120650000Y-21590000D03*
X113030000Y-13970000D03*
X118110000Y-21590000D03*
X115570000Y-13970000D03*
X115570000Y-21590000D03*
X118110000Y-13970000D03*
X113030000Y-21590000D03*
X120650000Y-13970000D03*
X110490000Y-21590000D03*
X123190000Y-13970000D03*
D11*
X107950000Y-21590000D03*
%TD*%
D12*
%TO.C,REF3*%
X3810000Y-93980000D03*
%TD*%
%TO.C,REF4*%
X195580000Y-93980000D03*
%TD*%
%TO.C,REF2*%
X195580000Y-3810000D03*
%TD*%
%TO.C,REF1*%
X3810000Y-3810000D03*
%TD*%
D13*
%TO.C,Y1*%
X143500000Y-67310000D03*
X139700000Y-67310000D03*
%TD*%
D10*
%TO.C,U14*%
X78740000Y-36830000D03*
X93980000Y-44450000D03*
X81280000Y-36830000D03*
X91440000Y-44450000D03*
X83820000Y-36830000D03*
X88900000Y-44450000D03*
X86360000Y-36830000D03*
X86360000Y-44450000D03*
X88900000Y-36830000D03*
X83820000Y-44450000D03*
X91440000Y-36830000D03*
X81280000Y-44450000D03*
X93980000Y-36830000D03*
D11*
X78740000Y-44450000D03*
%TD*%
D10*
%TO.C,U13*%
X54610000Y-36830000D03*
X69850000Y-44450000D03*
X57150000Y-36830000D03*
X67310000Y-44450000D03*
X59690000Y-36830000D03*
X64770000Y-44450000D03*
X62230000Y-36830000D03*
X62230000Y-44450000D03*
X64770000Y-36830000D03*
X59690000Y-44450000D03*
X67310000Y-36830000D03*
X57150000Y-44450000D03*
X69850000Y-36830000D03*
D11*
X54610000Y-44450000D03*
%TD*%
D10*
%TO.C,U12*%
X30480000Y-36830000D03*
X45720000Y-44450000D03*
X33020000Y-36830000D03*
X43180000Y-44450000D03*
X35560000Y-36830000D03*
X40640000Y-44450000D03*
X38100000Y-36830000D03*
X38100000Y-44450000D03*
X40640000Y-36830000D03*
X35560000Y-44450000D03*
X43180000Y-36830000D03*
X33020000Y-44450000D03*
X45720000Y-36830000D03*
D11*
X30480000Y-44450000D03*
%TD*%
D10*
%TO.C,U11*%
X6350000Y-36830000D03*
X21590000Y-44450000D03*
X8890000Y-36830000D03*
X19050000Y-44450000D03*
X11430000Y-36830000D03*
X16510000Y-44450000D03*
X13970000Y-36830000D03*
X13970000Y-44450000D03*
X16510000Y-36830000D03*
X11430000Y-44450000D03*
X19050000Y-36830000D03*
X8890000Y-44450000D03*
X21590000Y-36830000D03*
D11*
X6350000Y-44450000D03*
%TD*%
D10*
%TO.C,U10*%
X151130000Y-36830000D03*
X168910000Y-44450000D03*
X153670000Y-36830000D03*
X166370000Y-44450000D03*
X156210000Y-36830000D03*
X163830000Y-44450000D03*
X158750000Y-36830000D03*
X161290000Y-44450000D03*
X161290000Y-36830000D03*
X158750000Y-44450000D03*
X163830000Y-36830000D03*
X156210000Y-44450000D03*
X166370000Y-36830000D03*
X153670000Y-44450000D03*
X168910000Y-36830000D03*
D11*
X151130000Y-44450000D03*
%TD*%
D10*
%TO.C,U9*%
X151130000Y-63500000D03*
X168910000Y-71120000D03*
X153670000Y-63500000D03*
X166370000Y-71120000D03*
X156210000Y-63500000D03*
X163830000Y-71120000D03*
X158750000Y-63500000D03*
X161290000Y-71120000D03*
X161290000Y-63500000D03*
X158750000Y-71120000D03*
X163830000Y-63500000D03*
X156210000Y-71120000D03*
X166370000Y-63500000D03*
X153670000Y-71120000D03*
X168910000Y-63500000D03*
D11*
X151130000Y-71120000D03*
%TD*%
D10*
%TO.C,U8*%
X127000000Y-36830000D03*
X142240000Y-44450000D03*
X129540000Y-36830000D03*
X139700000Y-44450000D03*
X132080000Y-36830000D03*
X137160000Y-44450000D03*
X134620000Y-36830000D03*
X134620000Y-44450000D03*
X137160000Y-36830000D03*
X132080000Y-44450000D03*
X139700000Y-36830000D03*
X129540000Y-44450000D03*
X142240000Y-36830000D03*
D11*
X127000000Y-44450000D03*
%TD*%
D10*
%TO.C,U7*%
X102870000Y-36830000D03*
X118110000Y-44450000D03*
X105410000Y-36830000D03*
X115570000Y-44450000D03*
X107950000Y-36830000D03*
X113030000Y-44450000D03*
X110490000Y-36830000D03*
X110490000Y-44450000D03*
X113030000Y-36830000D03*
X107950000Y-44450000D03*
X115570000Y-36830000D03*
X105410000Y-44450000D03*
X118110000Y-36830000D03*
D11*
X102870000Y-44450000D03*
%TD*%
D10*
%TO.C,U6*%
X161290000Y-13970000D03*
X176530000Y-21590000D03*
X163830000Y-13970000D03*
X173990000Y-21590000D03*
X166370000Y-13970000D03*
X171450000Y-21590000D03*
X168910000Y-13970000D03*
X168910000Y-21590000D03*
X171450000Y-13970000D03*
X166370000Y-21590000D03*
X173990000Y-13970000D03*
X163830000Y-21590000D03*
X176530000Y-13970000D03*
D11*
X161290000Y-21590000D03*
%TD*%
D10*
%TO.C,U3*%
X83820000Y-13970000D03*
X99060000Y-21590000D03*
X86360000Y-13970000D03*
X96520000Y-21590000D03*
X88900000Y-13970000D03*
X93980000Y-21590000D03*
X91440000Y-13970000D03*
X91440000Y-21590000D03*
X93980000Y-13970000D03*
X88900000Y-21590000D03*
X96520000Y-13970000D03*
X86360000Y-21590000D03*
X99060000Y-13970000D03*
D11*
X83820000Y-21590000D03*
%TD*%
D10*
%TO.C,U2*%
X57150000Y-13970000D03*
X74930000Y-21590000D03*
X59690000Y-13970000D03*
X72390000Y-21590000D03*
X62230000Y-13970000D03*
X69850000Y-21590000D03*
X64770000Y-13970000D03*
X67310000Y-21590000D03*
X67310000Y-13970000D03*
X64770000Y-21590000D03*
X69850000Y-13970000D03*
X62230000Y-21590000D03*
X72390000Y-13970000D03*
X59690000Y-21590000D03*
X74930000Y-13970000D03*
D11*
X57150000Y-21590000D03*
%TD*%
D10*
%TO.C,U1*%
X30480000Y-13970000D03*
X48260000Y-21590000D03*
X33020000Y-13970000D03*
X45720000Y-21590000D03*
X35560000Y-13970000D03*
X43180000Y-21590000D03*
X38100000Y-13970000D03*
X40640000Y-21590000D03*
X40640000Y-13970000D03*
X38100000Y-21590000D03*
X43180000Y-13970000D03*
X35560000Y-21590000D03*
X45720000Y-13970000D03*
X33020000Y-21590000D03*
X48260000Y-13970000D03*
D11*
X30480000Y-21590000D03*
%TD*%
D14*
%TO.C,SW3*%
X173482000Y-85090000D03*
X173482000Y-89916000D03*
X173580000Y-80390000D03*
%TD*%
%TO.C,SW2*%
X160782000Y-85090000D03*
X160782000Y-89916000D03*
X160880000Y-80390000D03*
%TD*%
%TO.C,SW1*%
X8382000Y-64770000D03*
X8382000Y-69596000D03*
X8480000Y-60070000D03*
%TD*%
D10*
%TO.C,RN1*%
X67310000Y-59690000D03*
X64770000Y-59690000D03*
X62230000Y-59690000D03*
X59690000Y-59690000D03*
X57150000Y-59690000D03*
X54610000Y-59690000D03*
X52070000Y-59690000D03*
X49530000Y-59690000D03*
D11*
X46990000Y-59690000D03*
%TD*%
D10*
%TO.C,R8*%
X119380000Y-60960000D03*
D15*
X109220000Y-60960000D03*
%TD*%
D10*
%TO.C,R7*%
X119380000Y-53340000D03*
D15*
X109220000Y-53340000D03*
%TD*%
D10*
%TO.C,R6*%
X158750000Y-2540000D03*
D15*
X148590000Y-2540000D03*
%TD*%
D10*
%TO.C,R5*%
X144590000Y-2400000D03*
D15*
X134430000Y-2400000D03*
%TD*%
D10*
%TO.C,R4*%
X172720000Y-30480000D03*
D15*
X162560000Y-30480000D03*
%TD*%
D10*
%TO.C,R3*%
X157480000Y-30480000D03*
D15*
X147320000Y-30480000D03*
%TD*%
D10*
%TO.C,R2*%
X146050000Y-81280000D03*
D15*
X135890000Y-81280000D03*
%TD*%
D10*
%TO.C,R1*%
X35560000Y-2540000D03*
D15*
X25400000Y-2540000D03*
%TD*%
D16*
%TO.C,J8*%
X55880000Y-5080000D03*
X58420000Y-5080000D03*
X60960000Y-5080000D03*
X63500000Y-5080000D03*
X66040000Y-5080000D03*
X68580000Y-5080000D03*
X71120000Y-5080000D03*
X73660000Y-5080000D03*
X76200000Y-5080000D03*
X78740000Y-5080000D03*
X81280000Y-5080000D03*
D17*
X83820000Y-5080000D03*
%TD*%
D18*
%TO.C,J7*%
X11650000Y-23800000D03*
X11650000Y-11800000D03*
D15*
X14510000Y-19050000D03*
X14510000Y-16550000D03*
X16510000Y-16550000D03*
D11*
X16510000Y-19050000D03*
%TD*%
D16*
%TO.C,J6*%
X187960000Y-83820000D03*
X187960000Y-81280000D03*
X187960000Y-78740000D03*
X187960000Y-76200000D03*
X187960000Y-73660000D03*
X187960000Y-71120000D03*
X187960000Y-68580000D03*
X187960000Y-66040000D03*
X187960000Y-63500000D03*
X187960000Y-60960000D03*
X187960000Y-58420000D03*
D17*
X187960000Y-55880000D03*
%TD*%
D16*
%TO.C,J5*%
X20320000Y-83820000D03*
X22860000Y-83820000D03*
X25400000Y-83820000D03*
X27940000Y-83820000D03*
X30480000Y-83820000D03*
X33020000Y-83820000D03*
X35560000Y-83820000D03*
X38100000Y-83820000D03*
X40640000Y-83820000D03*
X43180000Y-83820000D03*
X45720000Y-83820000D03*
D17*
X48260000Y-83820000D03*
%TD*%
D10*
%TO.C,J4*%
X128270000Y-71120000D03*
X120650000Y-88900000D03*
X128270000Y-73660000D03*
X120650000Y-86360000D03*
X128270000Y-76200000D03*
X120650000Y-83820000D03*
X128270000Y-78740000D03*
X120650000Y-81280000D03*
X128270000Y-81280000D03*
X120650000Y-78740000D03*
X128270000Y-83820000D03*
X120650000Y-76200000D03*
X128270000Y-86360000D03*
X120650000Y-73660000D03*
X128270000Y-88900000D03*
D11*
X120650000Y-71120000D03*
%TD*%
D16*
%TO.C,J3*%
X101600000Y-83820000D03*
X99060000Y-83820000D03*
X96520000Y-83820000D03*
X93980000Y-83820000D03*
X91440000Y-83820000D03*
X88900000Y-83820000D03*
X86360000Y-83820000D03*
X83820000Y-83820000D03*
X81280000Y-83820000D03*
X78740000Y-83820000D03*
X76200000Y-83820000D03*
D17*
X73660000Y-83820000D03*
%TD*%
D16*
%TO.C,J2*%
X187960000Y-43180000D03*
X187960000Y-40640000D03*
D17*
X187960000Y-38100000D03*
%TD*%
D16*
%TO.C,J1*%
X187960000Y-26670000D03*
X187960000Y-24130000D03*
X187960000Y-21590000D03*
X187960000Y-19050000D03*
X187960000Y-16510000D03*
D17*
X187960000Y-13970000D03*
%TD*%
D19*
%TO.C,D10*%
X167640000Y-2540000D03*
D20*
X167640000Y-5080000D03*
%TD*%
D19*
%TO.C,D9*%
X125730000Y-2540000D03*
D20*
X125730000Y-5080000D03*
%TD*%
D19*
%TO.C,D8*%
X26670000Y-66040000D03*
D20*
X26670000Y-68580000D03*
%TD*%
D19*
%TO.C,D7*%
X35560000Y-66040000D03*
D20*
X35560000Y-68580000D03*
%TD*%
D19*
%TO.C,D6*%
X44450000Y-66040000D03*
D20*
X44450000Y-68580000D03*
%TD*%
D19*
%TO.C,D5*%
X53340000Y-66040000D03*
D20*
X53340000Y-68580000D03*
%TD*%
D19*
%TO.C,D4*%
X62230000Y-66040000D03*
D20*
X62230000Y-68580000D03*
%TD*%
D19*
%TO.C,D3*%
X71120000Y-66040000D03*
D20*
X71120000Y-68580000D03*
%TD*%
D19*
%TO.C,D2*%
X80010000Y-66040000D03*
D20*
X80010000Y-68580000D03*
%TD*%
D19*
%TO.C,D1*%
X88900000Y-66040000D03*
D20*
X88900000Y-68580000D03*
%TD*%
D15*
%TO.C,C8*%
X128270000Y-55840000D03*
D11*
X128270000Y-53340000D03*
%TD*%
D15*
%TO.C,C7*%
X138430000Y-55840000D03*
D11*
X138430000Y-53340000D03*
%TD*%
D15*
%TO.C,C6*%
X175260000Y-55840000D03*
D11*
X175260000Y-53340000D03*
%TD*%
D15*
%TO.C,C5*%
X166370000Y-55840000D03*
D11*
X166370000Y-53340000D03*
%TD*%
D15*
%TO.C,C4*%
X157480000Y-55840000D03*
D11*
X157480000Y-53340000D03*
%TD*%
D15*
%TO.C,C3*%
X148590000Y-55840000D03*
D11*
X148590000Y-53340000D03*
%TD*%
D15*
%TO.C,C2*%
X146010000Y-76200000D03*
X143510000Y-76200000D03*
%TD*%
%TO.C,C1*%
X138390000Y-76200000D03*
X135890000Y-76200000D03*
%TD*%
M02*
