M48
; DRILL file {KiCad 5.1.6-c6e7f7d~87~ubuntu16.04.1} date Tue Mar  8 12:55:51 2022
; FORMAT={-:-/ absolute / metric / decimal}
; #@! TF.CreationDate,2022-03-08T12:55:51-05:00
; #@! TF.GenerationSoftware,Kicad,Pcbnew,5.1.6-c6e7f7d~87~ubuntu16.04.1
FMAT,2
METRIC
T1C0.400
T2C0.700
T3C0.800
T4C0.900
T5C1.000
T6C1.100
%
G90
G05
T1
X12.128Y-82.498
X15.418Y-35.813
X18.172Y-97.714
X20.717Y-128.288
X26.869Y-114.981
X26.923Y-99.977
X28.452Y-32.403
X28.679Y-113.379
X29.632Y-111.28
X31.482Y-42.927
X34.083Y-71.143
X35.354Y-114.101
X39.051Y-71.818
X40.568Y-36.227
X44.92Y-13.757
X48.018Y-26.865
X51.7Y-13.891
X55.274Y-42.143
X58.404Y-35.306
X61.576Y-20.393
X62.905Y-29.555
X62.973Y-121.524
X67.139Y-6.342
X68.743Y-12.979
X71.458Y-26.77
X73.34Y-27.251
X73.967Y-98.966
X75.809Y-27.135
X77.597Y-51.879
X79.227Y-25.525
X79.465Y-90.477
X80.435Y-20.257
X80.447Y-123.558
X80.557Y-88.587
X81.592Y-50.817
X81.732Y-48.682
X82.529Y-89.09
X83.693Y-26.625
X84.154Y-52.671
X84.222Y-32.501
X86.103Y-74.992
X86.805Y-22.723
X87.053Y-79.206
X88.752Y-57.156
X88.814Y-52.857
X91.612Y-45.276
X94.335Y-36.313
X94.969Y-80.427
X95.522Y-45.714
X97.619Y-8.17
X99.468Y-16.173
X100.426Y-35.163
X101.046Y-45.492
X103.873Y-44.264
X104.873Y-143.446
X105.994Y-128.24
X106.607Y-43.88
X107.509Y-26.146
X109.729Y-108.395
X110.785Y-125.964
X113.751Y-110.068
X120.875Y-52.189
X121.39Y-66.175
X122.898Y-55.535
X124.409Y-55.439
X128.793Y-46.385
X128.859Y-24.556
X129.726Y-53.483
X129.904Y-92.198
X134.768Y-52.457
X137.157Y-52.278
X140.828Y-34.71
X140.851Y-25.955
X140.898Y-68.948
X142.406Y-94.264
X142.706Y-88.032
X142.919Y-26.163
X144.132Y-100.541
X150.848Y-60.514
X151.233Y-58.56
X151.479Y-81.935
X154.475Y-60.028
X158.469Y-81.474
X159.541Y-21.724
X163.528Y-93.069
X165.496Y-94.133
X165.96Y-52.676
X173.543Y-94.088
X189.629Y-20.105
X193.596Y-40.649
X193.959Y-21.796
X197.275Y-47.083
T2
X153.44Y-79.44
X153.44Y-84.52
X172.72Y-3.81
X172.72Y-8.89
X97.79Y-11.43
X97.79Y-16.51
X64.77Y-11.43
X64.77Y-16.51
X149.86Y-45.72
X149.86Y-50.8
X181.61Y-45.72
X181.61Y-50.8
X195.58Y-139.7
X195.58Y-144.78
X180.34Y-78.74
X180.34Y-83.82
X25.4Y-83.82
X25.4Y-88.9
X195.58Y-116.84
X195.58Y-121.92
X195.58Y-128.27
X195.58Y-133.35
X22.86Y-10.59
X22.86Y-15.67
X134.62Y-11.43
X134.62Y-16.51
T3
X130.81Y-55.88
X130.81Y-63.5
X133.35Y-55.88
X133.35Y-63.5
X135.89Y-55.88
X135.89Y-63.5
X138.43Y-55.88
X138.43Y-63.5
X140.97Y-55.88
X140.97Y-63.5
X143.51Y-55.88
X143.51Y-63.5
X146.05Y-55.88
X146.05Y-63.5
X148.59Y-55.88
X148.59Y-63.5
X151.13Y-55.88
X151.13Y-63.5
X153.67Y-55.88
X153.67Y-63.5
X160.02Y-57.15
X160.02Y-59.65
X130.81Y-22.86
X130.81Y-30.48
X133.35Y-22.86
X133.35Y-30.48
X135.89Y-22.86
X135.89Y-30.48
X138.43Y-22.86
X138.43Y-30.48
X140.97Y-22.86
X140.97Y-30.48
X143.51Y-22.86
X143.51Y-30.48
X146.05Y-22.86
X146.05Y-30.48
X148.59Y-22.86
X148.59Y-30.48
X151.13Y-22.86
X151.13Y-30.48
X153.67Y-22.86
X153.67Y-30.48
X39.37Y-83.82
X41.91Y-83.82
X44.45Y-83.82
X46.99Y-83.82
X49.53Y-83.82
X52.07Y-83.82
X54.61Y-83.82
X57.15Y-83.82
X59.69Y-83.82
X92.71Y-24.13
X92.71Y-26.63
X140.97Y-97.79
X140.97Y-100.29
X163.83Y-55.88
X163.83Y-63.5
X166.37Y-55.88
X166.37Y-63.5
X168.91Y-55.88
X168.91Y-63.5
X171.45Y-55.88
X171.45Y-63.5
X173.99Y-55.88
X173.99Y-63.5
X176.53Y-55.88
X176.53Y-63.5
X179.07Y-55.88
X179.07Y-63.5
X100.33Y-49.53
X102.87Y-49.53
X105.41Y-49.53
X107.95Y-49.53
X110.49Y-49.53
X113.03Y-49.53
X115.57Y-49.53
X118.11Y-49.53
X120.65Y-49.53
X43.18Y-125.73
X45.72Y-125.73
X48.26Y-125.73
X50.8Y-125.73
X53.34Y-125.73
X55.88Y-125.73
X58.42Y-125.73
X60.96Y-125.73
X63.5Y-125.73
X38.1Y-49.53
X40.64Y-49.53
X43.18Y-49.53
X45.72Y-49.53
X48.26Y-49.53
X50.8Y-49.53
X53.34Y-49.53
X55.88Y-49.53
X58.42Y-49.53
X72.39Y-97.79
X72.39Y-100.29
X146.05Y-96.52
X146.05Y-104.14
X148.59Y-96.52
X148.59Y-104.14
X151.13Y-96.52
X151.13Y-104.14
X153.67Y-96.52
X153.67Y-104.14
X156.21Y-96.52
X156.21Y-104.14
X158.75Y-96.52
X158.75Y-104.14
X161.29Y-96.52
X161.29Y-104.14
X163.83Y-96.52
X163.83Y-104.14
X166.37Y-96.52
X166.37Y-104.14
X168.91Y-96.52
X168.91Y-104.14
X96.52Y-22.86
X96.52Y-30.48
X99.06Y-22.86
X99.06Y-30.48
X101.6Y-22.86
X101.6Y-30.48
X104.14Y-22.86
X104.14Y-30.48
X106.68Y-22.86
X106.68Y-30.48
X109.22Y-22.86
X109.22Y-30.48
X111.76Y-22.86
X111.76Y-30.48
X114.3Y-22.86
X114.3Y-30.48
X116.84Y-22.86
X116.84Y-30.48
X119.38Y-22.86
X119.38Y-30.48
X92.71Y-57.15
X92.71Y-59.65
X12.7Y-97.79
X12.7Y-100.29
X63.5Y-24.13
X63.5Y-26.63
X127.0Y-57.15
X127.0Y-59.65
X16.51Y-96.52
X16.51Y-104.14
X19.05Y-96.52
X19.05Y-104.14
X21.59Y-96.52
X21.59Y-104.14
X24.13Y-96.52
X24.13Y-104.14
X26.67Y-96.52
X26.67Y-104.14
X29.21Y-96.52
X29.21Y-104.14
X31.75Y-96.52
X31.75Y-104.14
X34.29Y-96.52
X34.29Y-104.14
X36.83Y-96.52
X36.83Y-104.14
X39.37Y-96.52
X39.37Y-104.14
X101.6Y-83.82
X104.14Y-83.82
X106.68Y-83.82
X109.22Y-83.82
X111.76Y-83.82
X114.3Y-83.82
X116.84Y-83.82
X119.38Y-83.82
X121.92Y-83.82
X158.75Y-24.13
X158.75Y-26.63
X96.52Y-55.88
X96.52Y-63.5
X99.06Y-55.88
X99.06Y-63.5
X101.6Y-55.88
X101.6Y-63.5
X104.14Y-55.88
X104.14Y-63.5
X106.68Y-55.88
X106.68Y-63.5
X109.22Y-55.88
X109.22Y-63.5
X111.76Y-55.88
X111.76Y-63.5
X114.3Y-55.88
X114.3Y-63.5
X116.84Y-55.88
X116.84Y-63.5
X119.38Y-55.88
X119.38Y-63.5
X38.1Y-24.13
X38.1Y-26.63
X38.1Y-57.15
X38.1Y-59.65
X124.46Y-125.73
X127.0Y-125.73
X129.54Y-125.73
X132.08Y-125.73
X134.62Y-125.73
X137.16Y-125.73
X139.7Y-125.73
X142.24Y-125.73
X144.78Y-125.73
X67.31Y-55.88
X67.31Y-63.5
X69.85Y-55.88
X69.85Y-63.5
X72.39Y-55.88
X72.39Y-63.5
X74.93Y-55.88
X74.93Y-63.5
X77.47Y-55.88
X77.47Y-63.5
X80.01Y-55.88
X80.01Y-63.5
X82.55Y-55.88
X82.55Y-63.5
X85.09Y-55.88
X85.09Y-63.5
X2.54Y-24.13
X2.54Y-26.63
X41.91Y-55.88
X41.91Y-63.5
X44.45Y-55.88
X44.45Y-63.5
X46.99Y-55.88
X46.99Y-63.5
X49.53Y-55.88
X49.53Y-63.5
X52.07Y-55.88
X52.07Y-63.5
X54.61Y-55.88
X54.61Y-63.5
X57.15Y-55.88
X57.15Y-63.5
X59.69Y-55.88
X59.69Y-63.5
X110.49Y-96.52
X110.49Y-104.14
X113.03Y-96.52
X113.03Y-104.14
X115.57Y-96.52
X115.57Y-104.14
X118.11Y-96.52
X118.11Y-104.14
X120.65Y-96.52
X120.65Y-104.14
X123.19Y-96.52
X123.19Y-104.14
X125.73Y-96.52
X125.73Y-104.14
X128.27Y-96.52
X128.27Y-104.14
X130.81Y-96.52
X130.81Y-104.14
X133.35Y-96.52
X133.35Y-104.14
X106.68Y-97.79
X106.68Y-100.29
X162.56Y-22.86
X162.56Y-30.48
X165.1Y-22.86
X165.1Y-30.48
X167.64Y-22.86
X167.64Y-30.48
X170.18Y-22.86
X170.18Y-30.48
X172.72Y-22.86
X172.72Y-30.48
X175.26Y-22.86
X175.26Y-30.48
X177.8Y-22.86
X177.8Y-30.48
X180.34Y-22.86
X180.34Y-30.48
X182.88Y-22.86
X182.88Y-30.48
X185.42Y-22.86
X185.42Y-30.48
X6.35Y-22.86
X6.35Y-30.48
X8.89Y-22.86
X8.89Y-30.48
X11.43Y-22.86
X11.43Y-30.48
X13.97Y-22.86
X13.97Y-30.48
X16.51Y-22.86
X16.51Y-30.48
X19.05Y-22.86
X19.05Y-30.48
X21.59Y-22.86
X21.59Y-30.48
X24.13Y-22.86
X24.13Y-30.48
X26.67Y-22.86
X26.67Y-30.48
X29.21Y-22.86
X29.21Y-30.48
X125.73Y-24.13
X125.73Y-26.63
X76.2Y-96.52
X76.2Y-104.14
X78.74Y-96.52
X78.74Y-104.14
X81.28Y-96.52
X81.28Y-104.14
X83.82Y-96.52
X83.82Y-104.14
X86.36Y-96.52
X86.36Y-104.14
X88.9Y-96.52
X88.9Y-104.14
X91.44Y-96.52
X91.44Y-104.14
X93.98Y-96.52
X93.98Y-104.14
X96.52Y-96.52
X96.52Y-104.14
X99.06Y-96.52
X99.06Y-104.14
X2.54Y-57.15
X2.54Y-59.65
X63.5Y-57.19
X63.5Y-59.69
X6.35Y-55.88
X6.35Y-63.5
X8.89Y-55.88
X8.89Y-63.5
X11.43Y-55.88
X11.43Y-63.5
X13.97Y-55.88
X13.97Y-63.5
X16.51Y-55.88
X16.51Y-63.5
X19.05Y-55.88
X19.05Y-63.5
X21.59Y-55.88
X21.59Y-63.5
X24.13Y-55.88
X24.13Y-63.5
X26.67Y-55.88
X26.67Y-63.5
X29.21Y-55.88
X29.21Y-63.5
X67.31Y-22.86
X67.31Y-30.48
X69.85Y-22.86
X69.85Y-30.48
X72.39Y-22.86
X72.39Y-30.48
X74.93Y-22.86
X74.93Y-30.48
X77.47Y-22.86
X77.47Y-30.48
X80.01Y-22.86
X80.01Y-30.48
X82.55Y-22.86
X82.55Y-30.48
X85.09Y-22.86
X85.09Y-30.48
X69.85Y-134.62
X69.85Y-142.24
X72.39Y-134.62
X72.39Y-142.24
X74.93Y-134.62
X74.93Y-142.24
X77.47Y-134.62
X77.47Y-142.24
X80.01Y-134.62
X80.01Y-142.24
X82.55Y-134.62
X82.55Y-142.24
X85.09Y-134.62
X85.09Y-142.24
X87.63Y-134.62
X87.63Y-142.24
X41.91Y-22.86
X41.91Y-30.48
X44.45Y-22.86
X44.45Y-30.48
X46.99Y-22.86
X46.99Y-30.48
X49.53Y-22.86
X49.53Y-30.48
X52.07Y-22.86
X52.07Y-30.48
X54.61Y-22.86
X54.61Y-30.48
X57.15Y-22.86
X57.15Y-30.48
X59.69Y-22.86
X59.69Y-30.48
T4
X120.65Y-116.84
X120.65Y-119.38
X120.65Y-38.1
X120.65Y-40.64
X27.94Y-38.1
X27.94Y-40.64
X74.93Y-38.1
X74.93Y-40.64
X24.13Y-116.84
X24.13Y-119.38
X143.51Y-116.84
X143.51Y-119.38
X90.17Y-74.93
X90.17Y-77.47
X62.23Y-116.84
X62.23Y-119.38
X163.83Y-80.01
X163.83Y-82.55
X43.18Y-38.1
X43.18Y-40.64
X7.62Y-85.09
X7.62Y-87.63
X20.32Y-74.93
X20.32Y-77.47
X118.11Y-12.7
X118.11Y-15.24
X179.07Y-140.97
X179.07Y-143.51
X43.18Y-74.93
X43.18Y-77.47
X20.32Y-38.1
X20.32Y-40.64
X12.7Y-74.93
X12.7Y-77.47
X58.42Y-74.93
X58.42Y-77.47
X16.51Y-116.84
X16.51Y-119.38
X179.07Y-129.54
X179.07Y-132.08
X113.03Y-74.93
X113.03Y-77.47
X67.31Y-74.93
X67.31Y-77.47
X133.35Y-46.99
X133.35Y-49.53
X48.26Y-12.7
X48.26Y-15.24
X120.65Y-74.93
X120.65Y-77.47
X82.55Y-38.1
X82.55Y-40.64
X90.17Y-116.84
X90.17Y-119.38
X50.8Y-74.93
X50.8Y-77.47
X97.79Y-74.93
X97.79Y-77.47
X135.89Y-116.84
X135.89Y-119.38
X31.75Y-116.84
X31.75Y-119.38
X128.27Y-116.84
X128.27Y-119.38
X179.07Y-118.11
X179.07Y-120.65
X5.08Y-74.93
X5.08Y-77.47
X35.56Y-38.1
X35.56Y-40.64
X163.83Y-46.99
X163.83Y-49.53
X46.99Y-116.84
X46.99Y-119.38
X35.56Y-74.93
X35.56Y-77.47
X105.41Y-74.93
X105.41Y-77.47
X6.35Y-11.43
X6.35Y-13.97
X97.79Y-38.1
X97.79Y-40.64
X113.03Y-38.1
X113.03Y-40.64
X5.08Y-38.1
X5.08Y-40.64
X8.89Y-116.84
X8.89Y-119.38
X58.42Y-38.1
X58.42Y-40.64
X39.37Y-116.84
X39.37Y-119.38
X54.61Y-116.84
X54.61Y-119.38
X105.41Y-116.84
X105.41Y-119.38
X135.89Y-80.01
X135.89Y-82.55
X154.94Y-5.08
X154.94Y-7.62
X67.31Y-38.1
X67.31Y-40.64
X105.41Y-38.1
X105.41Y-40.64
X12.7Y-38.1
X12.7Y-40.64
X81.28Y-12.7
X81.28Y-15.24
X74.93Y-74.93
X74.93Y-77.47
X97.79Y-116.84
X97.79Y-119.38
X90.17Y-38.1
X90.17Y-40.64
X82.55Y-74.93
X82.55Y-77.47
X27.94Y-74.93
X27.94Y-77.47
X113.03Y-116.84
X113.03Y-119.38
X50.8Y-38.1
X50.8Y-40.64
T5
X31.75Y-6.35
X34.29Y-6.35
X36.83Y-6.35
X39.37Y-6.35
X41.91Y-6.35
X44.45Y-6.35
X46.99Y-6.35
X49.53Y-6.35
X195.58Y-54.61
X195.58Y-57.15
X195.58Y-59.69
X195.58Y-62.23
X195.58Y-64.77
X195.58Y-67.31
X90.17Y-5.08
X92.71Y-5.08
X95.25Y-5.08
X97.79Y-5.08
X100.33Y-5.08
X102.87Y-5.08
X105.41Y-5.08
X107.95Y-5.08
X10.16Y-134.62
X12.7Y-134.62
X15.24Y-134.62
X17.78Y-134.62
X20.32Y-134.62
X22.86Y-134.62
X25.4Y-134.62
X27.94Y-134.62
X41.91Y-144.78
X44.45Y-144.78
X46.99Y-144.78
X49.53Y-144.78
X52.07Y-144.78
X54.61Y-144.78
X57.15Y-144.78
X59.69Y-144.78
X187.96Y-6.35
X187.96Y-8.89
X187.96Y-11.43
X195.58Y-87.63
X195.58Y-90.17
X195.58Y-92.71
X195.58Y-95.25
X195.58Y-97.79
X195.58Y-100.33
X195.58Y-102.87
X194.31Y-6.35
X194.31Y-8.89
X194.31Y-11.43
X120.65Y-144.78
X123.19Y-144.78
X125.73Y-144.78
X128.27Y-144.78
X130.81Y-144.78
X133.35Y-144.78
X135.89Y-144.78
X138.43Y-144.78
X41.91Y-134.62
X44.45Y-134.62
X46.99Y-134.62
X49.53Y-134.62
X52.07Y-134.62
X54.61Y-134.62
X57.15Y-134.62
X59.69Y-134.62
X10.16Y-144.78
X12.7Y-144.78
X15.24Y-144.78
X17.78Y-144.78
X20.32Y-144.78
X22.86Y-144.78
X25.4Y-144.78
X27.94Y-144.78
X96.52Y-144.78
X99.06Y-144.78
X101.6Y-144.78
X104.14Y-144.78
X106.68Y-144.78
X109.22Y-144.78
X111.76Y-144.78
X114.3Y-144.78
T6
X171.45Y-45.72
X171.45Y-50.22
X177.95Y-45.72
X177.95Y-50.22
X87.48Y-12.01
X87.48Y-16.51
X93.98Y-12.01
X93.98Y-16.51
X12.55Y-10.74
X12.55Y-15.24
X19.05Y-10.74
X19.05Y-15.24
X170.03Y-79.32
X170.03Y-83.82
X176.53Y-79.32
X176.53Y-83.82
X54.46Y-12.01
X54.46Y-16.51
X60.96Y-12.01
X60.96Y-16.51
X185.27Y-140.28
X185.27Y-144.78
X191.77Y-140.28
X191.77Y-144.78
X124.46Y-12.01
X124.46Y-16.51
X130.96Y-12.01
X130.96Y-16.51
X15.09Y-84.4
X15.09Y-88.9
X21.59Y-84.4
X21.59Y-88.9
X139.7Y-45.72
X139.7Y-50.22
X146.2Y-45.72
X146.2Y-50.22
X185.27Y-117.42
X185.27Y-121.92
X191.77Y-117.42
X191.77Y-121.92
X185.27Y-128.85
X185.27Y-133.35
X191.77Y-128.85
X191.77Y-133.35
X161.14Y-4.39
X161.14Y-8.89
X167.64Y-4.39
X167.64Y-8.89
X142.24Y-80.01
X142.24Y-84.51
X148.74Y-80.01
X148.74Y-84.51
T0
M30
