%TF.GenerationSoftware,KiCad,Pcbnew,5.1.6-c6e7f7d~87~ubuntu16.04.1*%
%TF.CreationDate,2020-11-24T00:27:49-05:00*%
%TF.ProjectId,riscy_pc_ir_sp,72697363-795f-4706-935f-69725f73702e,rev?*%
%TF.SameCoordinates,Original*%
%TF.FileFunction,Copper,L2,Bot*%
%TF.FilePolarity,Positive*%
%FSLAX46Y46*%
G04 Gerber Fmt 4.6, Leading zero omitted, Abs format (unit mm)*
G04 Created by KiCad (PCBNEW 5.1.6-c6e7f7d~87~ubuntu16.04.1) date 2020-11-24 00:27:49*
%MOMM*%
%LPD*%
G01*
G04 APERTURE LIST*
%TA.AperFunction,ComponentPad*%
%ADD10O,1.600000X1.600000*%
%TD*%
%TA.AperFunction,ComponentPad*%
%ADD11R,1.600000X1.600000*%
%TD*%
%TA.AperFunction,ComponentPad*%
%ADD12C,2.000000*%
%TD*%
%TA.AperFunction,ComponentPad*%
%ADD13O,1.400000X1.400000*%
%TD*%
%TA.AperFunction,ComponentPad*%
%ADD14C,1.400000*%
%TD*%
%TA.AperFunction,ComponentPad*%
%ADD15O,1.700000X1.700000*%
%TD*%
%TA.AperFunction,ComponentPad*%
%ADD16R,1.700000X1.700000*%
%TD*%
%TA.AperFunction,ComponentPad*%
%ADD17C,1.800000*%
%TD*%
%TA.AperFunction,ComponentPad*%
%ADD18R,1.800000X1.800000*%
%TD*%
%TA.AperFunction,ComponentPad*%
%ADD19C,1.600000*%
%TD*%
%TA.AperFunction,ViaPad*%
%ADD20C,0.800000*%
%TD*%
%TA.AperFunction,Conductor*%
%ADD21C,0.250000*%
%TD*%
G04 APERTURE END LIST*
D10*
%TO.P,SW14,16*%
%TO.N,wb7*%
X69850000Y-134620000D03*
%TO.P,SW14,8*%
%TO.N,GND*%
X87630000Y-142240000D03*
%TO.P,SW14,15*%
%TO.N,wb6*%
X72390000Y-134620000D03*
%TO.P,SW14,7*%
%TO.N,GND*%
X85090000Y-142240000D03*
%TO.P,SW14,14*%
%TO.N,wb5*%
X74930000Y-134620000D03*
%TO.P,SW14,6*%
%TO.N,GND*%
X82550000Y-142240000D03*
%TO.P,SW14,13*%
%TO.N,wb4*%
X77470000Y-134620000D03*
%TO.P,SW14,5*%
%TO.N,GND*%
X80010000Y-142240000D03*
%TO.P,SW14,12*%
%TO.N,wb3*%
X80010000Y-134620000D03*
%TO.P,SW14,4*%
%TO.N,GND*%
X77470000Y-142240000D03*
%TO.P,SW14,11*%
%TO.N,wb2*%
X82550000Y-134620000D03*
%TO.P,SW14,3*%
%TO.N,GND*%
X74930000Y-142240000D03*
%TO.P,SW14,10*%
%TO.N,wb1*%
X85090000Y-134620000D03*
%TO.P,SW14,2*%
%TO.N,GND*%
X72390000Y-142240000D03*
%TO.P,SW14,9*%
%TO.N,wb0*%
X87630000Y-134620000D03*
D11*
%TO.P,SW14,1*%
%TO.N,GND*%
X69850000Y-142240000D03*
%TD*%
D10*
%TO.P,U16,20*%
%TO.N,+5V*%
X16510000Y-96520000D03*
%TO.P,U16,10*%
%TO.N,GND*%
X39370000Y-104140000D03*
%TO.P,U16,19*%
%TO.N,ir7*%
X19050000Y-96520000D03*
%TO.P,U16,9*%
%TO.N,ir3*%
X36830000Y-104140000D03*
%TO.P,U16,18*%
%TO.N,wb7*%
X21590000Y-96520000D03*
%TO.P,U16,8*%
%TO.N,wb3*%
X34290000Y-104140000D03*
%TO.P,U16,17*%
%TO.N,wb6*%
X24130000Y-96520000D03*
%TO.P,U16,7*%
%TO.N,wb2*%
X31750000Y-104140000D03*
%TO.P,U16,16*%
%TO.N,ir6*%
X26670000Y-96520000D03*
%TO.P,U16,6*%
%TO.N,ir2*%
X29210000Y-104140000D03*
%TO.P,U16,15*%
%TO.N,ir5*%
X29210000Y-96520000D03*
%TO.P,U16,5*%
%TO.N,ir1*%
X26670000Y-104140000D03*
%TO.P,U16,14*%
%TO.N,wb5*%
X31750000Y-96520000D03*
%TO.P,U16,4*%
%TO.N,wb1*%
X24130000Y-104140000D03*
%TO.P,U16,13*%
%TO.N,wb4*%
X34290000Y-96520000D03*
%TO.P,U16,3*%
%TO.N,wb0*%
X21590000Y-104140000D03*
%TO.P,U16,12*%
%TO.N,ir4*%
X36830000Y-96520000D03*
%TO.P,U16,2*%
%TO.N,ir0*%
X19050000Y-104140000D03*
%TO.P,U16,11*%
%TO.N,CLK*%
X39370000Y-96520000D03*
D11*
%TO.P,U16,1*%
%TO.N,IRclk*%
X16510000Y-104140000D03*
%TD*%
D10*
%TO.P,U15,20*%
%TO.N,+5V*%
X130810000Y-55880000D03*
%TO.P,U15,10*%
%TO.N,GND*%
X153670000Y-63500000D03*
%TO.P,U15,19*%
%TO.N,SPaddr*%
X133350000Y-55880000D03*
%TO.P,U15,9*%
%TO.N,Net-(D40-Pad2)*%
X151130000Y-63500000D03*
%TO.P,U15,18*%
%TO.N,addr0*%
X135890000Y-55880000D03*
%TO.P,U15,8*%
%TO.N,Net-(D39-Pad2)*%
X148590000Y-63500000D03*
%TO.P,U15,17*%
%TO.N,addr1*%
X138430000Y-55880000D03*
%TO.P,U15,7*%
%TO.N,Net-(D38-Pad2)*%
X146050000Y-63500000D03*
%TO.P,U15,16*%
%TO.N,addr2*%
X140970000Y-55880000D03*
%TO.P,U15,6*%
%TO.N,Net-(D37-Pad2)*%
X143510000Y-63500000D03*
%TO.P,U15,15*%
%TO.N,addr3*%
X143510000Y-55880000D03*
%TO.P,U15,5*%
%TO.N,Net-(D36-Pad2)*%
X140970000Y-63500000D03*
%TO.P,U15,14*%
%TO.N,addr4*%
X146050000Y-55880000D03*
%TO.P,U15,4*%
%TO.N,Net-(D35-Pad2)*%
X138430000Y-63500000D03*
%TO.P,U15,13*%
%TO.N,addr5*%
X148590000Y-55880000D03*
%TO.P,U15,3*%
%TO.N,Net-(D34-Pad2)*%
X135890000Y-63500000D03*
%TO.P,U15,12*%
%TO.N,addr6*%
X151130000Y-55880000D03*
%TO.P,U15,2*%
%TO.N,Net-(D33-Pad2)*%
X133350000Y-63500000D03*
%TO.P,U15,11*%
%TO.N,addr7*%
X153670000Y-55880000D03*
D11*
%TO.P,U15,1*%
%TO.N,+5V*%
X130810000Y-63500000D03*
%TD*%
D10*
%TO.P,U14,16*%
%TO.N,+5V*%
X67310000Y-55880000D03*
%TO.P,U14,8*%
%TO.N,GND*%
X85090000Y-63500000D03*
%TO.P,U14,15*%
%TO.N,Net-(U13-Pad10)*%
X69850000Y-55880000D03*
%TO.P,U14,7*%
%TO.N,SPclk*%
X82550000Y-63500000D03*
%TO.P,U14,14*%
%TO.N,Net-(D33-Pad2)*%
X72390000Y-55880000D03*
%TO.P,U14,6*%
%TO.N,GND*%
X80010000Y-63500000D03*
%TO.P,U14,13*%
%TO.N,Net-(D34-Pad2)*%
X74930000Y-55880000D03*
%TO.P,U14,5*%
%TO.N,GND*%
X77470000Y-63500000D03*
%TO.P,U14,12*%
%TO.N,Net-(D35-Pad2)*%
X77470000Y-55880000D03*
%TO.P,U14,4*%
%TO.N,GND*%
X74930000Y-63500000D03*
%TO.P,U14,11*%
%TO.N,Net-(D36-Pad2)*%
X80010000Y-55880000D03*
%TO.P,U14,3*%
%TO.N,GND*%
X72390000Y-63500000D03*
%TO.P,U14,10*%
X82550000Y-55880000D03*
%TO.P,U14,2*%
%TO.N,CLK*%
X69850000Y-63500000D03*
%TO.P,U14,9*%
%TO.N,reset*%
X85090000Y-55880000D03*
D11*
%TO.P,U14,1*%
%TO.N,pushpop*%
X67310000Y-63500000D03*
%TD*%
D10*
%TO.P,U13,16*%
%TO.N,+5V*%
X41910000Y-55880000D03*
%TO.P,U13,8*%
%TO.N,GND*%
X59690000Y-63500000D03*
%TO.P,U13,15*%
%TO.N,Net-(U13-Pad15)*%
X44450000Y-55880000D03*
%TO.P,U13,7*%
%TO.N,SPclk*%
X57150000Y-63500000D03*
%TO.P,U13,14*%
%TO.N,Net-(D37-Pad2)*%
X46990000Y-55880000D03*
%TO.P,U13,6*%
%TO.N,GND*%
X54610000Y-63500000D03*
%TO.P,U13,13*%
%TO.N,Net-(D38-Pad2)*%
X49530000Y-55880000D03*
%TO.P,U13,5*%
%TO.N,GND*%
X52070000Y-63500000D03*
%TO.P,U13,12*%
%TO.N,Net-(D39-Pad2)*%
X52070000Y-55880000D03*
%TO.P,U13,4*%
%TO.N,GND*%
X49530000Y-63500000D03*
%TO.P,U13,11*%
%TO.N,Net-(D40-Pad2)*%
X54610000Y-55880000D03*
%TO.P,U13,3*%
%TO.N,GND*%
X46990000Y-63500000D03*
%TO.P,U13,10*%
%TO.N,Net-(U13-Pad10)*%
X57150000Y-55880000D03*
%TO.P,U13,2*%
%TO.N,CLK*%
X44450000Y-63500000D03*
%TO.P,U13,9*%
%TO.N,reset*%
X59690000Y-55880000D03*
D11*
%TO.P,U13,1*%
%TO.N,pushpop*%
X41910000Y-63500000D03*
%TD*%
D10*
%TO.P,U12,20*%
%TO.N,+5V*%
X146050000Y-96520000D03*
%TO.P,U12,10*%
%TO.N,GND*%
X168910000Y-104140000D03*
%TO.P,U12,19*%
%TO.N,Rrsaddr*%
X148590000Y-96520000D03*
%TO.P,U12,9*%
%TO.N,Rrs7*%
X166370000Y-104140000D03*
%TO.P,U12,18*%
%TO.N,addr0*%
X151130000Y-96520000D03*
%TO.P,U12,8*%
%TO.N,Rrs6*%
X163830000Y-104140000D03*
%TO.P,U12,17*%
%TO.N,addr1*%
X153670000Y-96520000D03*
%TO.P,U12,7*%
%TO.N,Rrs5*%
X161290000Y-104140000D03*
%TO.P,U12,16*%
%TO.N,addr2*%
X156210000Y-96520000D03*
%TO.P,U12,6*%
%TO.N,Rrs4*%
X158750000Y-104140000D03*
%TO.P,U12,15*%
%TO.N,addr3*%
X158750000Y-96520000D03*
%TO.P,U12,5*%
%TO.N,Rrs3*%
X156210000Y-104140000D03*
%TO.P,U12,14*%
%TO.N,addr4*%
X161290000Y-96520000D03*
%TO.P,U12,4*%
%TO.N,Rrs2*%
X153670000Y-104140000D03*
%TO.P,U12,13*%
%TO.N,addr5*%
X163830000Y-96520000D03*
%TO.P,U12,3*%
%TO.N,Rrs1*%
X151130000Y-104140000D03*
%TO.P,U12,12*%
%TO.N,addr6*%
X166370000Y-96520000D03*
%TO.P,U12,2*%
%TO.N,Rrs0*%
X148590000Y-104140000D03*
%TO.P,U12,11*%
%TO.N,addr7*%
X168910000Y-96520000D03*
D11*
%TO.P,U12,1*%
%TO.N,+5V*%
X146050000Y-104140000D03*
%TD*%
D10*
%TO.P,U11,14*%
%TO.N,+5V*%
X163830000Y-55880000D03*
%TO.P,U11,7*%
%TO.N,GND*%
X179070000Y-63500000D03*
%TO.P,U11,13*%
%TO.N,N/C*%
X166370000Y-55880000D03*
%TO.P,U11,6*%
%TO.N,Net-(U11-Pad1)*%
X176530000Y-63500000D03*
%TO.P,U11,12*%
%TO.N,N/C*%
X168910000Y-55880000D03*
%TO.P,U11,5*%
%TO.N,ipageclk*%
X173990000Y-63500000D03*
%TO.P,U11,11*%
%TO.N,N/C*%
X171450000Y-55880000D03*
%TO.P,U11,4*%
%TO.N,ipageclk*%
X171450000Y-63500000D03*
%TO.P,U11,10*%
%TO.N,Net-(U11-Pad10)*%
X173990000Y-55880000D03*
%TO.P,U11,3*%
X168910000Y-63500000D03*
%TO.P,U11,9*%
X176530000Y-55880000D03*
%TO.P,U11,2*%
%TO.N,CLK*%
X166370000Y-63500000D03*
%TO.P,U11,8*%
%TO.N,Net-(U11-Pad8)*%
X179070000Y-55880000D03*
D11*
%TO.P,U11,1*%
%TO.N,Net-(U11-Pad1)*%
X163830000Y-63500000D03*
%TD*%
D10*
%TO.P,U10,20*%
%TO.N,+5V*%
X96520000Y-55880000D03*
%TO.P,U10,10*%
%TO.N,GND*%
X119380000Y-63500000D03*
%TO.P,U10,19*%
%TO.N,SPaddr*%
X99060000Y-55880000D03*
%TO.P,U10,9*%
%TO.N,Net-(D32-Pad2)*%
X116840000Y-63500000D03*
%TO.P,U10,18*%
%TO.N,addr8*%
X101600000Y-55880000D03*
%TO.P,U10,8*%
%TO.N,Net-(D31-Pad2)*%
X114300000Y-63500000D03*
%TO.P,U10,17*%
%TO.N,addr9*%
X104140000Y-55880000D03*
%TO.P,U10,7*%
%TO.N,Net-(D30-Pad2)*%
X111760000Y-63500000D03*
%TO.P,U10,16*%
%TO.N,addr10*%
X106680000Y-55880000D03*
%TO.P,U10,6*%
%TO.N,Net-(D29-Pad2)*%
X109220000Y-63500000D03*
%TO.P,U10,15*%
%TO.N,addr11*%
X109220000Y-55880000D03*
%TO.P,U10,5*%
%TO.N,Net-(D28-Pad2)*%
X106680000Y-63500000D03*
%TO.P,U10,14*%
%TO.N,addr12*%
X111760000Y-55880000D03*
%TO.P,U10,4*%
%TO.N,Net-(D27-Pad2)*%
X104140000Y-63500000D03*
%TO.P,U10,13*%
%TO.N,addr13*%
X114300000Y-55880000D03*
%TO.P,U10,3*%
%TO.N,Net-(D26-Pad2)*%
X101600000Y-63500000D03*
%TO.P,U10,12*%
%TO.N,addr14*%
X116840000Y-55880000D03*
%TO.P,U10,2*%
%TO.N,Net-(D25-Pad2)*%
X99060000Y-63500000D03*
%TO.P,U10,11*%
%TO.N,addr15*%
X119380000Y-55880000D03*
D11*
%TO.P,U10,1*%
%TO.N,+5V*%
X96520000Y-63500000D03*
%TD*%
D10*
%TO.P,U9,20*%
%TO.N,+5V*%
X6350000Y-55880000D03*
%TO.P,U9,10*%
%TO.N,GND*%
X29210000Y-63500000D03*
%TO.P,U9,19*%
%TO.N,Net-(D32-Pad2)*%
X8890000Y-55880000D03*
%TO.P,U9,9*%
%TO.N,Net-(D28-Pad2)*%
X26670000Y-63500000D03*
%TO.P,U9,18*%
%TO.N,wb7*%
X11430000Y-55880000D03*
%TO.P,U9,8*%
%TO.N,wb3*%
X24130000Y-63500000D03*
%TO.P,U9,17*%
%TO.N,wb6*%
X13970000Y-55880000D03*
%TO.P,U9,7*%
%TO.N,wb2*%
X21590000Y-63500000D03*
%TO.P,U9,16*%
%TO.N,Net-(D31-Pad2)*%
X16510000Y-55880000D03*
%TO.P,U9,6*%
%TO.N,Net-(D27-Pad2)*%
X19050000Y-63500000D03*
%TO.P,U9,15*%
%TO.N,Net-(D30-Pad2)*%
X19050000Y-55880000D03*
%TO.P,U9,5*%
%TO.N,Net-(D26-Pad2)*%
X16510000Y-63500000D03*
%TO.P,U9,14*%
%TO.N,wb5*%
X21590000Y-55880000D03*
%TO.P,U9,4*%
%TO.N,wb1*%
X13970000Y-63500000D03*
%TO.P,U9,13*%
%TO.N,wb4*%
X24130000Y-55880000D03*
%TO.P,U9,3*%
%TO.N,wb0*%
X11430000Y-63500000D03*
%TO.P,U9,12*%
%TO.N,Net-(D29-Pad2)*%
X26670000Y-55880000D03*
%TO.P,U9,2*%
%TO.N,Net-(D25-Pad2)*%
X8890000Y-63500000D03*
%TO.P,U9,11*%
%TO.N,CLK*%
X29210000Y-55880000D03*
D11*
%TO.P,U9,1*%
%TO.N,spageclk*%
X6350000Y-63500000D03*
%TD*%
D10*
%TO.P,U8,20*%
%TO.N,+5V*%
X76200000Y-96520000D03*
%TO.P,U8,10*%
%TO.N,GND*%
X99060000Y-104140000D03*
%TO.P,U8,19*%
%TO.N,Rrsaddr*%
X78740000Y-96520000D03*
%TO.P,U8,9*%
%TO.N,Net-(D24-Pad2)*%
X96520000Y-104140000D03*
%TO.P,U8,18*%
%TO.N,addr8*%
X81280000Y-96520000D03*
%TO.P,U8,8*%
%TO.N,Net-(D23-Pad2)*%
X93980000Y-104140000D03*
%TO.P,U8,17*%
%TO.N,addr9*%
X83820000Y-96520000D03*
%TO.P,U8,7*%
%TO.N,Net-(D22-Pad2)*%
X91440000Y-104140000D03*
%TO.P,U8,16*%
%TO.N,addr10*%
X86360000Y-96520000D03*
%TO.P,U8,6*%
%TO.N,Net-(D21-Pad2)*%
X88900000Y-104140000D03*
%TO.P,U8,15*%
%TO.N,addr11*%
X88900000Y-96520000D03*
%TO.P,U8,5*%
%TO.N,Net-(D20-Pad2)*%
X86360000Y-104140000D03*
%TO.P,U8,14*%
%TO.N,addr12*%
X91440000Y-96520000D03*
%TO.P,U8,4*%
%TO.N,Net-(D19-Pad2)*%
X83820000Y-104140000D03*
%TO.P,U8,13*%
%TO.N,addr13*%
X93980000Y-96520000D03*
%TO.P,U8,3*%
%TO.N,Net-(D18-Pad2)*%
X81280000Y-104140000D03*
%TO.P,U8,12*%
%TO.N,addr14*%
X96520000Y-96520000D03*
%TO.P,U8,2*%
%TO.N,Net-(D17-Pad2)*%
X78740000Y-104140000D03*
%TO.P,U8,11*%
%TO.N,addr15*%
X99060000Y-96520000D03*
D11*
%TO.P,U8,1*%
%TO.N,+5V*%
X76200000Y-104140000D03*
%TD*%
D10*
%TO.P,U7,20*%
%TO.N,+5V*%
X110490000Y-96520000D03*
%TO.P,U7,10*%
%TO.N,GND*%
X133350000Y-104140000D03*
%TO.P,U7,19*%
%TO.N,Net-(D24-Pad2)*%
X113030000Y-96520000D03*
%TO.P,U7,9*%
%TO.N,Net-(D20-Pad2)*%
X130810000Y-104140000D03*
%TO.P,U7,18*%
%TO.N,wb7*%
X115570000Y-96520000D03*
%TO.P,U7,8*%
%TO.N,wb3*%
X128270000Y-104140000D03*
%TO.P,U7,17*%
%TO.N,wb6*%
X118110000Y-96520000D03*
%TO.P,U7,7*%
%TO.N,wb2*%
X125730000Y-104140000D03*
%TO.P,U7,16*%
%TO.N,Net-(D23-Pad2)*%
X120650000Y-96520000D03*
%TO.P,U7,6*%
%TO.N,Net-(D19-Pad2)*%
X123190000Y-104140000D03*
%TO.P,U7,15*%
%TO.N,Net-(D22-Pad2)*%
X123190000Y-96520000D03*
%TO.P,U7,5*%
%TO.N,Net-(D18-Pad2)*%
X120650000Y-104140000D03*
%TO.P,U7,14*%
%TO.N,wb5*%
X125730000Y-96520000D03*
%TO.P,U7,4*%
%TO.N,wb1*%
X118110000Y-104140000D03*
%TO.P,U7,13*%
%TO.N,wb4*%
X128270000Y-96520000D03*
%TO.P,U7,3*%
%TO.N,wb0*%
X115570000Y-104140000D03*
%TO.P,U7,12*%
%TO.N,Net-(D21-Pad2)*%
X130810000Y-96520000D03*
%TO.P,U7,2*%
%TO.N,Net-(D17-Pad2)*%
X113030000Y-104140000D03*
%TO.P,U7,11*%
%TO.N,CLK*%
X133350000Y-96520000D03*
D11*
%TO.P,U7,1*%
%TO.N,dpageclk*%
X110490000Y-104140000D03*
%TD*%
D10*
%TO.P,U6,20*%
%TO.N,+5V*%
X96520000Y-22860000D03*
%TO.P,U6,10*%
%TO.N,GND*%
X119380000Y-30480000D03*
%TO.P,U6,19*%
%TO.N,PCaddr*%
X99060000Y-22860000D03*
%TO.P,U6,9*%
%TO.N,Net-(D16-Pad2)*%
X116840000Y-30480000D03*
%TO.P,U6,18*%
%TO.N,addr8*%
X101600000Y-22860000D03*
%TO.P,U6,8*%
%TO.N,Net-(D15-Pad2)*%
X114300000Y-30480000D03*
%TO.P,U6,17*%
%TO.N,addr9*%
X104140000Y-22860000D03*
%TO.P,U6,7*%
%TO.N,Net-(D14-Pad2)*%
X111760000Y-30480000D03*
%TO.P,U6,16*%
%TO.N,addr10*%
X106680000Y-22860000D03*
%TO.P,U6,6*%
%TO.N,Net-(D13-Pad2)*%
X109220000Y-30480000D03*
%TO.P,U6,15*%
%TO.N,addr11*%
X109220000Y-22860000D03*
%TO.P,U6,5*%
%TO.N,Net-(D12-Pad2)*%
X106680000Y-30480000D03*
%TO.P,U6,14*%
%TO.N,addr12*%
X111760000Y-22860000D03*
%TO.P,U6,4*%
%TO.N,Net-(D11-Pad2)*%
X104140000Y-30480000D03*
%TO.P,U6,13*%
%TO.N,addr13*%
X114300000Y-22860000D03*
%TO.P,U6,3*%
%TO.N,Net-(D10-Pad2)*%
X101600000Y-30480000D03*
%TO.P,U6,12*%
%TO.N,addr14*%
X116840000Y-22860000D03*
%TO.P,U6,2*%
%TO.N,Net-(D9-Pad2)*%
X99060000Y-30480000D03*
%TO.P,U6,11*%
%TO.N,addr15*%
X119380000Y-22860000D03*
D11*
%TO.P,U6,1*%
%TO.N,+5V*%
X96520000Y-30480000D03*
%TD*%
D10*
%TO.P,U5,20*%
%TO.N,+5V*%
X6350000Y-22860000D03*
%TO.P,U5,10*%
%TO.N,GND*%
X29210000Y-30480000D03*
%TO.P,U5,19*%
%TO.N,Net-(D16-Pad2)*%
X8890000Y-22860000D03*
%TO.P,U5,9*%
%TO.N,Net-(D12-Pad2)*%
X26670000Y-30480000D03*
%TO.P,U5,18*%
%TO.N,C7*%
X11430000Y-22860000D03*
%TO.P,U5,8*%
%TO.N,C3*%
X24130000Y-30480000D03*
%TO.P,U5,17*%
%TO.N,C6*%
X13970000Y-22860000D03*
%TO.P,U5,7*%
%TO.N,C2*%
X21590000Y-30480000D03*
%TO.P,U5,16*%
%TO.N,Net-(D15-Pad2)*%
X16510000Y-22860000D03*
%TO.P,U5,6*%
%TO.N,Net-(D11-Pad2)*%
X19050000Y-30480000D03*
%TO.P,U5,15*%
%TO.N,Net-(D14-Pad2)*%
X19050000Y-22860000D03*
%TO.P,U5,5*%
%TO.N,Net-(D10-Pad2)*%
X16510000Y-30480000D03*
%TO.P,U5,14*%
%TO.N,C5*%
X21590000Y-22860000D03*
%TO.P,U5,4*%
%TO.N,C1*%
X13970000Y-30480000D03*
%TO.P,U5,13*%
%TO.N,C4*%
X24130000Y-22860000D03*
%TO.P,U5,3*%
%TO.N,C0*%
X11430000Y-30480000D03*
%TO.P,U5,12*%
%TO.N,Net-(D13-Pad2)*%
X26670000Y-22860000D03*
%TO.P,U5,2*%
%TO.N,Net-(D9-Pad2)*%
X8890000Y-30480000D03*
%TO.P,U5,11*%
%TO.N,Net-(U11-Pad8)*%
X29210000Y-22860000D03*
D11*
%TO.P,U5,1*%
%TO.N,reset*%
X6350000Y-30480000D03*
%TD*%
D10*
%TO.P,U4,20*%
%TO.N,+5V*%
X162560000Y-22860000D03*
%TO.P,U4,10*%
%TO.N,GND*%
X185420000Y-30480000D03*
%TO.P,U4,19*%
%TO.N,PCaddr*%
X165100000Y-22860000D03*
%TO.P,U4,9*%
%TO.N,Net-(D8-Pad2)*%
X182880000Y-30480000D03*
%TO.P,U4,18*%
%TO.N,addr0*%
X167640000Y-22860000D03*
%TO.P,U4,8*%
%TO.N,Net-(D7-Pad2)*%
X180340000Y-30480000D03*
%TO.P,U4,17*%
%TO.N,addr1*%
X170180000Y-22860000D03*
%TO.P,U4,7*%
%TO.N,Net-(D6-Pad2)*%
X177800000Y-30480000D03*
%TO.P,U4,16*%
%TO.N,addr2*%
X172720000Y-22860000D03*
%TO.P,U4,6*%
%TO.N,Net-(D5-Pad2)*%
X175260000Y-30480000D03*
%TO.P,U4,15*%
%TO.N,addr3*%
X175260000Y-22860000D03*
%TO.P,U4,5*%
%TO.N,Net-(D4-Pad2)*%
X172720000Y-30480000D03*
%TO.P,U4,14*%
%TO.N,addr4*%
X177800000Y-22860000D03*
%TO.P,U4,4*%
%TO.N,Net-(D3-Pad2)*%
X170180000Y-30480000D03*
%TO.P,U4,13*%
%TO.N,addr5*%
X180340000Y-22860000D03*
%TO.P,U4,3*%
%TO.N,Net-(D2-Pad2)*%
X167640000Y-30480000D03*
%TO.P,U4,12*%
%TO.N,addr6*%
X182880000Y-22860000D03*
%TO.P,U4,2*%
%TO.N,Net-(D0-Pad2)*%
X165100000Y-30480000D03*
%TO.P,U4,11*%
%TO.N,addr7*%
X185420000Y-22860000D03*
D11*
%TO.P,U4,1*%
%TO.N,+5V*%
X162560000Y-30480000D03*
%TD*%
D10*
%TO.P,U3,20*%
%TO.N,+5V*%
X130810000Y-22860000D03*
%TO.P,U3,10*%
%TO.N,GND*%
X153670000Y-30480000D03*
%TO.P,U3,19*%
%TO.N,PCwb*%
X133350000Y-22860000D03*
%TO.P,U3,9*%
%TO.N,Net-(D8-Pad2)*%
X151130000Y-30480000D03*
%TO.P,U3,18*%
%TO.N,wb0*%
X135890000Y-22860000D03*
%TO.P,U3,8*%
%TO.N,Net-(D7-Pad2)*%
X148590000Y-30480000D03*
%TO.P,U3,17*%
%TO.N,wb1*%
X138430000Y-22860000D03*
%TO.P,U3,7*%
%TO.N,Net-(D6-Pad2)*%
X146050000Y-30480000D03*
%TO.P,U3,16*%
%TO.N,wb2*%
X140970000Y-22860000D03*
%TO.P,U3,6*%
%TO.N,Net-(D5-Pad2)*%
X143510000Y-30480000D03*
%TO.P,U3,15*%
%TO.N,wb3*%
X143510000Y-22860000D03*
%TO.P,U3,5*%
%TO.N,Net-(D4-Pad2)*%
X140970000Y-30480000D03*
%TO.P,U3,14*%
%TO.N,wb4*%
X146050000Y-22860000D03*
%TO.P,U3,4*%
%TO.N,Net-(D3-Pad2)*%
X138430000Y-30480000D03*
%TO.P,U3,13*%
%TO.N,wb5*%
X148590000Y-22860000D03*
%TO.P,U3,3*%
%TO.N,Net-(D2-Pad2)*%
X135890000Y-30480000D03*
%TO.P,U3,12*%
%TO.N,wb6*%
X151130000Y-22860000D03*
%TO.P,U3,2*%
%TO.N,Net-(D0-Pad2)*%
X133350000Y-30480000D03*
%TO.P,U3,11*%
%TO.N,wb7*%
X153670000Y-22860000D03*
D11*
%TO.P,U3,1*%
%TO.N,+5V*%
X130810000Y-30480000D03*
%TD*%
D10*
%TO.P,U2,16*%
%TO.N,+5V*%
X67310000Y-22860000D03*
%TO.P,U2,8*%
%TO.N,GND*%
X85090000Y-30480000D03*
%TO.P,U2,15*%
%TO.N,Net-(U1-Pad10)*%
X69850000Y-22860000D03*
%TO.P,U2,7*%
%TO.N,PCclk*%
X82550000Y-30480000D03*
%TO.P,U2,14*%
%TO.N,Net-(D0-Pad2)*%
X72390000Y-22860000D03*
%TO.P,U2,6*%
%TO.N,Rrs3*%
X80010000Y-30480000D03*
%TO.P,U2,13*%
%TO.N,Net-(D2-Pad2)*%
X74930000Y-22860000D03*
%TO.P,U2,5*%
%TO.N,Rrs2*%
X77470000Y-30480000D03*
%TO.P,U2,12*%
%TO.N,Net-(D3-Pad2)*%
X77470000Y-22860000D03*
%TO.P,U2,4*%
%TO.N,Rrs1*%
X74930000Y-30480000D03*
%TO.P,U2,11*%
%TO.N,Net-(D4-Pad2)*%
X80010000Y-22860000D03*
%TO.P,U2,3*%
%TO.N,Rrs0*%
X72390000Y-30480000D03*
%TO.P,U2,10*%
%TO.N,+5V*%
X82550000Y-22860000D03*
%TO.P,U2,2*%
%TO.N,CLK*%
X69850000Y-30480000D03*
%TO.P,U2,9*%
%TO.N,PCload*%
X85090000Y-22860000D03*
D11*
%TO.P,U2,1*%
%TO.N,reset*%
X67310000Y-30480000D03*
%TD*%
D10*
%TO.P,U1,16*%
%TO.N,+5V*%
X41910000Y-22860000D03*
%TO.P,U1,8*%
%TO.N,GND*%
X59690000Y-30480000D03*
%TO.P,U1,15*%
%TO.N,Net-(U1-Pad15)*%
X44450000Y-22860000D03*
%TO.P,U1,7*%
%TO.N,PCclk*%
X57150000Y-30480000D03*
%TO.P,U1,14*%
%TO.N,Net-(D5-Pad2)*%
X46990000Y-22860000D03*
%TO.P,U1,6*%
%TO.N,Rrs7*%
X54610000Y-30480000D03*
%TO.P,U1,13*%
%TO.N,Net-(D6-Pad2)*%
X49530000Y-22860000D03*
%TO.P,U1,5*%
%TO.N,Rrs6*%
X52070000Y-30480000D03*
%TO.P,U1,12*%
%TO.N,Net-(D7-Pad2)*%
X52070000Y-22860000D03*
%TO.P,U1,4*%
%TO.N,Rrs5*%
X49530000Y-30480000D03*
%TO.P,U1,11*%
%TO.N,Net-(D8-Pad2)*%
X54610000Y-22860000D03*
%TO.P,U1,3*%
%TO.N,Rrs4*%
X46990000Y-30480000D03*
%TO.P,U1,10*%
%TO.N,Net-(U1-Pad10)*%
X57150000Y-22860000D03*
%TO.P,U1,2*%
%TO.N,CLK*%
X44450000Y-30480000D03*
%TO.P,U1,9*%
%TO.N,PCload*%
X59690000Y-22860000D03*
D11*
%TO.P,U1,1*%
%TO.N,reset*%
X41910000Y-30480000D03*
%TD*%
D12*
%TO.P,SW13,1*%
%TO.N,spageclk*%
X148740000Y-80010000D03*
%TO.P,SW13,2*%
%TO.N,GND*%
X148740000Y-84510000D03*
%TO.P,SW13,1*%
%TO.N,spageclk*%
X142240000Y-80010000D03*
%TO.P,SW13,2*%
%TO.N,GND*%
X142240000Y-84510000D03*
%TD*%
%TO.P,SW12,1*%
%TO.N,dpageclk*%
X170030000Y-83820000D03*
%TO.P,SW12,2*%
%TO.N,GND*%
X170030000Y-79320000D03*
%TO.P,SW12,1*%
%TO.N,dpageclk*%
X176530000Y-83820000D03*
%TO.P,SW12,2*%
%TO.N,GND*%
X176530000Y-79320000D03*
%TD*%
%TO.P,SW11,1*%
%TO.N,ipageclk*%
X12550000Y-15240000D03*
%TO.P,SW11,2*%
%TO.N,GND*%
X12550000Y-10740000D03*
%TO.P,SW11,1*%
%TO.N,ipageclk*%
X19050000Y-15240000D03*
%TO.P,SW11,2*%
%TO.N,GND*%
X19050000Y-10740000D03*
%TD*%
%TO.P,SW10,1*%
%TO.N,IRclk*%
X15090000Y-88900000D03*
%TO.P,SW10,2*%
%TO.N,GND*%
X15090000Y-84400000D03*
%TO.P,SW10,1*%
%TO.N,IRclk*%
X21590000Y-88900000D03*
%TO.P,SW10,2*%
%TO.N,GND*%
X21590000Y-84400000D03*
%TD*%
%TO.P,SW9,1*%
%TO.N,SPclk*%
X139700000Y-50220000D03*
%TO.P,SW9,2*%
%TO.N,GND*%
X139700000Y-45720000D03*
%TO.P,SW9,1*%
%TO.N,SPclk*%
X146200000Y-50220000D03*
%TO.P,SW9,2*%
%TO.N,GND*%
X146200000Y-45720000D03*
%TD*%
%TO.P,SW8,1*%
%TO.N,PCclk*%
X54460000Y-16510000D03*
%TO.P,SW8,2*%
%TO.N,+5V*%
X54460000Y-12010000D03*
%TO.P,SW8,1*%
%TO.N,PCclk*%
X60960000Y-16510000D03*
%TO.P,SW8,2*%
%TO.N,+5V*%
X60960000Y-12010000D03*
%TD*%
%TO.P,SW7,1*%
%TO.N,pushpop*%
X177950000Y-45720000D03*
%TO.P,SW7,2*%
%TO.N,GND*%
X177950000Y-50220000D03*
%TO.P,SW7,1*%
%TO.N,pushpop*%
X171450000Y-45720000D03*
%TO.P,SW7,2*%
%TO.N,GND*%
X171450000Y-50220000D03*
%TD*%
%TO.P,SW6,1*%
%TO.N,PCwb*%
X124460000Y-16510000D03*
%TO.P,SW6,2*%
%TO.N,GND*%
X124460000Y-12010000D03*
%TO.P,SW6,1*%
%TO.N,PCwb*%
X130960000Y-16510000D03*
%TO.P,SW6,2*%
%TO.N,GND*%
X130960000Y-12010000D03*
%TD*%
%TO.P,SW5,1*%
%TO.N,PCload*%
X87480000Y-16510000D03*
%TO.P,SW5,2*%
%TO.N,GND*%
X87480000Y-12010000D03*
%TO.P,SW5,1*%
%TO.N,PCload*%
X93980000Y-16510000D03*
%TO.P,SW5,2*%
%TO.N,GND*%
X93980000Y-12010000D03*
%TD*%
%TO.P,SW4,1*%
%TO.N,SPaddr*%
X185270000Y-144780000D03*
%TO.P,SW4,2*%
%TO.N,GND*%
X185270000Y-140280000D03*
%TO.P,SW4,1*%
%TO.N,SPaddr*%
X191770000Y-144780000D03*
%TO.P,SW4,2*%
%TO.N,GND*%
X191770000Y-140280000D03*
%TD*%
%TO.P,SW3,1*%
%TO.N,Rrsaddr*%
X185270000Y-133350000D03*
%TO.P,SW3,2*%
%TO.N,GND*%
X185270000Y-128850000D03*
%TO.P,SW3,1*%
%TO.N,Rrsaddr*%
X191770000Y-133350000D03*
%TO.P,SW3,2*%
%TO.N,GND*%
X191770000Y-128850000D03*
%TD*%
%TO.P,SW2,1*%
%TO.N,PCaddr*%
X185270000Y-121920000D03*
%TO.P,SW2,2*%
%TO.N,GND*%
X185270000Y-117420000D03*
%TO.P,SW2,1*%
%TO.N,PCaddr*%
X191770000Y-121920000D03*
%TO.P,SW2,2*%
%TO.N,GND*%
X191770000Y-117420000D03*
%TD*%
%TO.P,SW1,1*%
%TO.N,reset*%
X161140000Y-8890000D03*
%TO.P,SW1,2*%
%TO.N,GND*%
X161140000Y-4390000D03*
%TO.P,SW1,1*%
%TO.N,reset*%
X167640000Y-8890000D03*
%TO.P,SW1,2*%
%TO.N,GND*%
X167640000Y-4390000D03*
%TD*%
D10*
%TO.P,RN6,9*%
%TO.N,Net-(D41-Pad1)*%
X43180000Y-125730000D03*
%TO.P,RN6,8*%
%TO.N,Net-(D42-Pad1)*%
X45720000Y-125730000D03*
%TO.P,RN6,7*%
%TO.N,Net-(D43-Pad1)*%
X48260000Y-125730000D03*
%TO.P,RN6,6*%
%TO.N,Net-(D44-Pad1)*%
X50800000Y-125730000D03*
%TO.P,RN6,5*%
%TO.N,Net-(D45-Pad1)*%
X53340000Y-125730000D03*
%TO.P,RN6,4*%
%TO.N,Net-(D46-Pad1)*%
X55880000Y-125730000D03*
%TO.P,RN6,3*%
%TO.N,Net-(D47-Pad1)*%
X58420000Y-125730000D03*
%TO.P,RN6,2*%
%TO.N,Net-(D48-Pad1)*%
X60960000Y-125730000D03*
D11*
%TO.P,RN6,1*%
%TO.N,GND*%
X63500000Y-125730000D03*
%TD*%
D10*
%TO.P,RN5,9*%
%TO.N,Net-(D33-Pad1)*%
X101600000Y-83820000D03*
%TO.P,RN5,8*%
%TO.N,Net-(D34-Pad1)*%
X104140000Y-83820000D03*
%TO.P,RN5,7*%
%TO.N,Net-(D35-Pad1)*%
X106680000Y-83820000D03*
%TO.P,RN5,6*%
%TO.N,Net-(D36-Pad1)*%
X109220000Y-83820000D03*
%TO.P,RN5,5*%
%TO.N,Net-(D37-Pad1)*%
X111760000Y-83820000D03*
%TO.P,RN5,4*%
%TO.N,Net-(D38-Pad1)*%
X114300000Y-83820000D03*
%TO.P,RN5,3*%
%TO.N,Net-(D39-Pad1)*%
X116840000Y-83820000D03*
%TO.P,RN5,2*%
%TO.N,Net-(D40-Pad1)*%
X119380000Y-83820000D03*
D11*
%TO.P,RN5,1*%
%TO.N,GND*%
X121920000Y-83820000D03*
%TD*%
D10*
%TO.P,RN4,9*%
%TO.N,Net-(D25-Pad1)*%
X39370000Y-83820000D03*
%TO.P,RN4,8*%
%TO.N,Net-(D26-Pad1)*%
X41910000Y-83820000D03*
%TO.P,RN4,7*%
%TO.N,Net-(D27-Pad1)*%
X44450000Y-83820000D03*
%TO.P,RN4,6*%
%TO.N,Net-(D28-Pad1)*%
X46990000Y-83820000D03*
%TO.P,RN4,5*%
%TO.N,Net-(D29-Pad1)*%
X49530000Y-83820000D03*
%TO.P,RN4,4*%
%TO.N,Net-(D30-Pad1)*%
X52070000Y-83820000D03*
%TO.P,RN4,3*%
%TO.N,Net-(D31-Pad1)*%
X54610000Y-83820000D03*
%TO.P,RN4,2*%
%TO.N,Net-(D32-Pad1)*%
X57150000Y-83820000D03*
D11*
%TO.P,RN4,1*%
%TO.N,GND*%
X59690000Y-83820000D03*
%TD*%
D10*
%TO.P,RN3,9*%
%TO.N,Net-(D17-Pad1)*%
X124460000Y-125730000D03*
%TO.P,RN3,8*%
%TO.N,Net-(D18-Pad1)*%
X127000000Y-125730000D03*
%TO.P,RN3,7*%
%TO.N,Net-(D19-Pad1)*%
X129540000Y-125730000D03*
%TO.P,RN3,6*%
%TO.N,Net-(D20-Pad1)*%
X132080000Y-125730000D03*
%TO.P,RN3,5*%
%TO.N,Net-(D21-Pad1)*%
X134620000Y-125730000D03*
%TO.P,RN3,4*%
%TO.N,Net-(D22-Pad1)*%
X137160000Y-125730000D03*
%TO.P,RN3,3*%
%TO.N,Net-(D23-Pad1)*%
X139700000Y-125730000D03*
%TO.P,RN3,2*%
%TO.N,Net-(D24-Pad1)*%
X142240000Y-125730000D03*
D11*
%TO.P,RN3,1*%
%TO.N,GND*%
X144780000Y-125730000D03*
%TD*%
D10*
%TO.P,RN2,9*%
%TO.N,Net-(D9-Pad1)*%
X38100000Y-49530000D03*
%TO.P,RN2,8*%
%TO.N,Net-(D10-Pad1)*%
X40640000Y-49530000D03*
%TO.P,RN2,7*%
%TO.N,Net-(D11-Pad1)*%
X43180000Y-49530000D03*
%TO.P,RN2,6*%
%TO.N,Net-(D12-Pad1)*%
X45720000Y-49530000D03*
%TO.P,RN2,5*%
%TO.N,Net-(D13-Pad1)*%
X48260000Y-49530000D03*
%TO.P,RN2,4*%
%TO.N,Net-(D14-Pad1)*%
X50800000Y-49530000D03*
%TO.P,RN2,3*%
%TO.N,Net-(D15-Pad1)*%
X53340000Y-49530000D03*
%TO.P,RN2,2*%
%TO.N,Net-(D16-Pad1)*%
X55880000Y-49530000D03*
D11*
%TO.P,RN2,1*%
%TO.N,GND*%
X58420000Y-49530000D03*
%TD*%
D10*
%TO.P,RN1,9*%
%TO.N,Net-(D0-Pad1)*%
X100330000Y-49530000D03*
%TO.P,RN1,8*%
%TO.N,Net-(D2-Pad1)*%
X102870000Y-49530000D03*
%TO.P,RN1,7*%
%TO.N,Net-(D3-Pad1)*%
X105410000Y-49530000D03*
%TO.P,RN1,6*%
%TO.N,Net-(D4-Pad1)*%
X107950000Y-49530000D03*
%TO.P,RN1,5*%
%TO.N,Net-(D5-Pad1)*%
X110490000Y-49530000D03*
%TO.P,RN1,4*%
%TO.N,Net-(D6-Pad1)*%
X113030000Y-49530000D03*
%TO.P,RN1,3*%
%TO.N,Net-(D7-Pad1)*%
X115570000Y-49530000D03*
%TO.P,RN1,2*%
%TO.N,Net-(D8-Pad1)*%
X118110000Y-49530000D03*
D11*
%TO.P,RN1,1*%
%TO.N,GND*%
X120650000Y-49530000D03*
%TD*%
D13*
%TO.P,R13,2*%
%TO.N,Net-(D61-Pad2)*%
X153440000Y-79440000D03*
D14*
%TO.P,R13,1*%
%TO.N,+5V*%
X153440000Y-84520000D03*
%TD*%
D13*
%TO.P,R12,2*%
%TO.N,Net-(D60-Pad2)*%
X180340000Y-78740000D03*
D14*
%TO.P,R12,1*%
%TO.N,+5V*%
X180340000Y-83820000D03*
%TD*%
D13*
%TO.P,R11,2*%
%TO.N,Net-(D59-Pad2)*%
X22860000Y-10590000D03*
D14*
%TO.P,R11,1*%
%TO.N,+5V*%
X22860000Y-15670000D03*
%TD*%
D13*
%TO.P,R10,2*%
%TO.N,Net-(D58-Pad2)*%
X25400000Y-88900000D03*
D14*
%TO.P,R10,1*%
%TO.N,+5V*%
X25400000Y-83820000D03*
%TD*%
D13*
%TO.P,R9,2*%
%TO.N,Net-(D57-Pad2)*%
X149860000Y-45720000D03*
D14*
%TO.P,R9,1*%
%TO.N,+5V*%
X149860000Y-50800000D03*
%TD*%
D13*
%TO.P,R8,2*%
%TO.N,Net-(D56-Pad1)*%
X64770000Y-11430000D03*
D14*
%TO.P,R8,1*%
%TO.N,GND*%
X64770000Y-16510000D03*
%TD*%
D13*
%TO.P,R7,2*%
%TO.N,Net-(D55-Pad2)*%
X181610000Y-45720000D03*
D14*
%TO.P,R7,1*%
%TO.N,+5V*%
X181610000Y-50800000D03*
%TD*%
D13*
%TO.P,R6,2*%
%TO.N,Net-(D54-Pad2)*%
X134620000Y-11430000D03*
D14*
%TO.P,R6,1*%
%TO.N,+5V*%
X134620000Y-16510000D03*
%TD*%
D13*
%TO.P,R5,2*%
%TO.N,Net-(D53-Pad2)*%
X97790000Y-11430000D03*
D14*
%TO.P,R5,1*%
%TO.N,+5V*%
X97790000Y-16510000D03*
%TD*%
D13*
%TO.P,R4,2*%
%TO.N,Net-(D52-Pad2)*%
X195580000Y-139700000D03*
D14*
%TO.P,R4,1*%
%TO.N,+5V*%
X195580000Y-144780000D03*
%TD*%
D13*
%TO.P,R3,2*%
%TO.N,Net-(D51-Pad2)*%
X195580000Y-128270000D03*
D14*
%TO.P,R3,1*%
%TO.N,+5V*%
X195580000Y-133350000D03*
%TD*%
D13*
%TO.P,R2,2*%
%TO.N,Net-(D50-Pad2)*%
X195580000Y-116840000D03*
D14*
%TO.P,R2,1*%
%TO.N,+5V*%
X195580000Y-121920000D03*
%TD*%
D13*
%TO.P,R1,2*%
%TO.N,Net-(D49-Pad2)*%
X172720000Y-3810000D03*
D14*
%TO.P,R1,1*%
%TO.N,+5V*%
X172720000Y-8890000D03*
%TD*%
D15*
%TO.P,J12,8*%
%TO.N,ir7*%
X10160000Y-134620000D03*
%TO.P,J12,7*%
%TO.N,ir6*%
X12700000Y-134620000D03*
%TO.P,J12,6*%
%TO.N,ir5*%
X15240000Y-134620000D03*
%TO.P,J12,5*%
%TO.N,ir4*%
X17780000Y-134620000D03*
%TO.P,J12,4*%
%TO.N,ir3*%
X20320000Y-134620000D03*
%TO.P,J12,3*%
%TO.N,ir2*%
X22860000Y-134620000D03*
%TO.P,J12,2*%
%TO.N,ir1*%
X25400000Y-134620000D03*
D16*
%TO.P,J12,1*%
%TO.N,ir0*%
X27940000Y-134620000D03*
%TD*%
D15*
%TO.P,J11,8*%
%TO.N,ir7*%
X10160000Y-144780000D03*
%TO.P,J11,7*%
%TO.N,ir6*%
X12700000Y-144780000D03*
%TO.P,J11,6*%
%TO.N,ir5*%
X15240000Y-144780000D03*
%TO.P,J11,5*%
%TO.N,ir4*%
X17780000Y-144780000D03*
%TO.P,J11,4*%
%TO.N,ir3*%
X20320000Y-144780000D03*
%TO.P,J11,3*%
%TO.N,ir2*%
X22860000Y-144780000D03*
%TO.P,J11,2*%
%TO.N,ir1*%
X25400000Y-144780000D03*
D16*
%TO.P,J11,1*%
%TO.N,ir0*%
X27940000Y-144780000D03*
%TD*%
D15*
%TO.P,J10,6*%
%TO.N,spageclk*%
X195580000Y-67310000D03*
%TO.P,J10,5*%
%TO.N,dpageclk*%
X195580000Y-64770000D03*
%TO.P,J10,4*%
%TO.N,ipageclk*%
X195580000Y-62230000D03*
%TO.P,J10,3*%
%TO.N,IRclk*%
X195580000Y-59690000D03*
%TO.P,J10,2*%
%TO.N,SPclk*%
X195580000Y-57150000D03*
D16*
%TO.P,J10,1*%
%TO.N,PCclk*%
X195580000Y-54610000D03*
%TD*%
D15*
%TO.P,J9,7*%
%TO.N,pushpop*%
X195580000Y-102870000D03*
%TO.P,J9,6*%
%TO.N,PCwb*%
X195580000Y-100330000D03*
%TO.P,J9,5*%
%TO.N,PCload*%
X195580000Y-97790000D03*
%TO.P,J9,4*%
%TO.N,SPaddr*%
X195580000Y-95250000D03*
%TO.P,J9,3*%
%TO.N,Rrsaddr*%
X195580000Y-92710000D03*
%TO.P,J9,2*%
%TO.N,PCaddr*%
X195580000Y-90170000D03*
D16*
%TO.P,J9,1*%
%TO.N,reset*%
X195580000Y-87630000D03*
%TD*%
D15*
%TO.P,J8,8*%
%TO.N,C7*%
X31750000Y-6350000D03*
%TO.P,J8,7*%
%TO.N,C6*%
X34290000Y-6350000D03*
%TO.P,J8,6*%
%TO.N,C5*%
X36830000Y-6350000D03*
%TO.P,J8,5*%
%TO.N,C4*%
X39370000Y-6350000D03*
%TO.P,J8,4*%
%TO.N,C3*%
X41910000Y-6350000D03*
%TO.P,J8,3*%
%TO.N,C2*%
X44450000Y-6350000D03*
%TO.P,J8,2*%
%TO.N,C1*%
X46990000Y-6350000D03*
D16*
%TO.P,J8,1*%
%TO.N,C0*%
X49530000Y-6350000D03*
%TD*%
D15*
%TO.P,J7,8*%
%TO.N,Rrs7*%
X90170000Y-5080000D03*
%TO.P,J7,7*%
%TO.N,Rrs6*%
X92710000Y-5080000D03*
%TO.P,J7,6*%
%TO.N,Rrs5*%
X95250000Y-5080000D03*
%TO.P,J7,5*%
%TO.N,Rrs4*%
X97790000Y-5080000D03*
%TO.P,J7,4*%
%TO.N,Rrs3*%
X100330000Y-5080000D03*
%TO.P,J7,3*%
%TO.N,Rrs2*%
X102870000Y-5080000D03*
%TO.P,J7,2*%
%TO.N,Rrs1*%
X105410000Y-5080000D03*
D16*
%TO.P,J7,1*%
%TO.N,Rrs0*%
X107950000Y-5080000D03*
%TD*%
D15*
%TO.P,J6,8*%
%TO.N,addr15*%
X96520000Y-144780000D03*
%TO.P,J6,7*%
%TO.N,addr14*%
X99060000Y-144780000D03*
%TO.P,J6,6*%
%TO.N,addr13*%
X101600000Y-144780000D03*
%TO.P,J6,5*%
%TO.N,addr12*%
X104140000Y-144780000D03*
%TO.P,J6,4*%
%TO.N,addr11*%
X106680000Y-144780000D03*
%TO.P,J6,3*%
%TO.N,addr10*%
X109220000Y-144780000D03*
%TO.P,J6,2*%
%TO.N,addr9*%
X111760000Y-144780000D03*
D16*
%TO.P,J6,1*%
%TO.N,addr8*%
X114300000Y-144780000D03*
%TD*%
D15*
%TO.P,J5,8*%
%TO.N,addr7*%
X120650000Y-144780000D03*
%TO.P,J5,7*%
%TO.N,addr6*%
X123190000Y-144780000D03*
%TO.P,J5,6*%
%TO.N,addr5*%
X125730000Y-144780000D03*
%TO.P,J5,5*%
%TO.N,addr4*%
X128270000Y-144780000D03*
%TO.P,J5,4*%
%TO.N,addr3*%
X130810000Y-144780000D03*
%TO.P,J5,3*%
%TO.N,addr2*%
X133350000Y-144780000D03*
%TO.P,J5,2*%
%TO.N,addr1*%
X135890000Y-144780000D03*
D16*
%TO.P,J5,1*%
%TO.N,addr0*%
X138430000Y-144780000D03*
%TD*%
D15*
%TO.P,J4,8*%
%TO.N,wb7*%
X41910000Y-144780000D03*
%TO.P,J4,7*%
%TO.N,wb6*%
X44450000Y-144780000D03*
%TO.P,J4,6*%
%TO.N,wb5*%
X46990000Y-144780000D03*
%TO.P,J4,5*%
%TO.N,wb4*%
X49530000Y-144780000D03*
%TO.P,J4,4*%
%TO.N,wb3*%
X52070000Y-144780000D03*
%TO.P,J4,3*%
%TO.N,wb2*%
X54610000Y-144780000D03*
%TO.P,J4,2*%
%TO.N,wb1*%
X57150000Y-144780000D03*
D16*
%TO.P,J4,1*%
%TO.N,wb0*%
X59690000Y-144780000D03*
%TD*%
D15*
%TO.P,J3,8*%
%TO.N,wb7*%
X41910000Y-134620000D03*
%TO.P,J3,7*%
%TO.N,wb6*%
X44450000Y-134620000D03*
%TO.P,J3,6*%
%TO.N,wb5*%
X46990000Y-134620000D03*
%TO.P,J3,5*%
%TO.N,wb4*%
X49530000Y-134620000D03*
%TO.P,J3,4*%
%TO.N,wb3*%
X52070000Y-134620000D03*
%TO.P,J3,3*%
%TO.N,wb2*%
X54610000Y-134620000D03*
%TO.P,J3,2*%
%TO.N,wb1*%
X57150000Y-134620000D03*
D16*
%TO.P,J3,1*%
%TO.N,wb0*%
X59690000Y-134620000D03*
%TD*%
D15*
%TO.P,J2,3*%
%TO.N,CLK*%
X187960000Y-11430000D03*
%TO.P,J2,2*%
%TO.N,GND*%
X187960000Y-8890000D03*
D16*
%TO.P,J2,1*%
%TO.N,+5V*%
X187960000Y-6350000D03*
%TD*%
D15*
%TO.P,J1,3*%
%TO.N,CLK*%
X194310000Y-11430000D03*
%TO.P,J1,2*%
%TO.N,GND*%
X194310000Y-8890000D03*
D16*
%TO.P,J1,1*%
%TO.N,+5V*%
X194310000Y-6350000D03*
%TD*%
D17*
%TO.P,D61,2*%
%TO.N,Net-(D61-Pad2)*%
X135890000Y-80010000D03*
D18*
%TO.P,D61,1*%
%TO.N,spageclk*%
X135890000Y-82550000D03*
%TD*%
D17*
%TO.P,D60,2*%
%TO.N,Net-(D60-Pad2)*%
X163830000Y-80010000D03*
D18*
%TO.P,D60,1*%
%TO.N,dpageclk*%
X163830000Y-82550000D03*
%TD*%
D17*
%TO.P,D59,2*%
%TO.N,Net-(D59-Pad2)*%
X6350000Y-11430000D03*
D18*
%TO.P,D59,1*%
%TO.N,ipageclk*%
X6350000Y-13970000D03*
%TD*%
D17*
%TO.P,D58,2*%
%TO.N,Net-(D58-Pad2)*%
X7620000Y-85090000D03*
D18*
%TO.P,D58,1*%
%TO.N,IRclk*%
X7620000Y-87630000D03*
%TD*%
D17*
%TO.P,D57,2*%
%TO.N,Net-(D57-Pad2)*%
X133350000Y-46990000D03*
D18*
%TO.P,D57,1*%
%TO.N,SPclk*%
X133350000Y-49530000D03*
%TD*%
D17*
%TO.P,D56,2*%
%TO.N,PCclk*%
X48260000Y-12700000D03*
D18*
%TO.P,D56,1*%
%TO.N,Net-(D56-Pad1)*%
X48260000Y-15240000D03*
%TD*%
D17*
%TO.P,D55,2*%
%TO.N,Net-(D55-Pad2)*%
X163830000Y-46990000D03*
D18*
%TO.P,D55,1*%
%TO.N,pushpop*%
X163830000Y-49530000D03*
%TD*%
D17*
%TO.P,D54,2*%
%TO.N,Net-(D54-Pad2)*%
X118110000Y-12700000D03*
D18*
%TO.P,D54,1*%
%TO.N,PCwb*%
X118110000Y-15240000D03*
%TD*%
D17*
%TO.P,D53,2*%
%TO.N,Net-(D53-Pad2)*%
X81280000Y-12700000D03*
D18*
%TO.P,D53,1*%
%TO.N,PCload*%
X81280000Y-15240000D03*
%TD*%
D17*
%TO.P,D52,2*%
%TO.N,Net-(D52-Pad2)*%
X179070000Y-140970000D03*
D18*
%TO.P,D52,1*%
%TO.N,SPaddr*%
X179070000Y-143510000D03*
%TD*%
D17*
%TO.P,D51,2*%
%TO.N,Net-(D51-Pad2)*%
X179070000Y-129540000D03*
D18*
%TO.P,D51,1*%
%TO.N,Rrsaddr*%
X179070000Y-132080000D03*
%TD*%
D17*
%TO.P,D50,2*%
%TO.N,Net-(D50-Pad2)*%
X179070000Y-118110000D03*
D18*
%TO.P,D50,1*%
%TO.N,PCaddr*%
X179070000Y-120650000D03*
%TD*%
D17*
%TO.P,D49,2*%
%TO.N,Net-(D49-Pad2)*%
X154940000Y-5080000D03*
D18*
%TO.P,D49,1*%
%TO.N,reset*%
X154940000Y-7620000D03*
%TD*%
D17*
%TO.P,D48,2*%
%TO.N,ir7*%
X8890000Y-116840000D03*
D18*
%TO.P,D48,1*%
%TO.N,Net-(D48-Pad1)*%
X8890000Y-119380000D03*
%TD*%
D17*
%TO.P,D47,2*%
%TO.N,ir6*%
X16510000Y-116840000D03*
D18*
%TO.P,D47,1*%
%TO.N,Net-(D47-Pad1)*%
X16510000Y-119380000D03*
%TD*%
D17*
%TO.P,D46,2*%
%TO.N,ir5*%
X24130000Y-116840000D03*
D18*
%TO.P,D46,1*%
%TO.N,Net-(D46-Pad1)*%
X24130000Y-119380000D03*
%TD*%
D17*
%TO.P,D45,2*%
%TO.N,ir4*%
X31750000Y-116840000D03*
D18*
%TO.P,D45,1*%
%TO.N,Net-(D45-Pad1)*%
X31750000Y-119380000D03*
%TD*%
D17*
%TO.P,D44,2*%
%TO.N,ir3*%
X39370000Y-116840000D03*
D18*
%TO.P,D44,1*%
%TO.N,Net-(D44-Pad1)*%
X39370000Y-119380000D03*
%TD*%
D17*
%TO.P,D43,2*%
%TO.N,ir2*%
X46990000Y-116840000D03*
D18*
%TO.P,D43,1*%
%TO.N,Net-(D43-Pad1)*%
X46990000Y-119380000D03*
%TD*%
D17*
%TO.P,D42,2*%
%TO.N,ir1*%
X54610000Y-116840000D03*
D18*
%TO.P,D42,1*%
%TO.N,Net-(D42-Pad1)*%
X54610000Y-119380000D03*
%TD*%
D17*
%TO.P,D41,2*%
%TO.N,ir0*%
X62230000Y-116840000D03*
D18*
%TO.P,D41,1*%
%TO.N,Net-(D41-Pad1)*%
X62230000Y-119380000D03*
%TD*%
D17*
%TO.P,D40,2*%
%TO.N,Net-(D40-Pad2)*%
X67310000Y-74930000D03*
D18*
%TO.P,D40,1*%
%TO.N,Net-(D40-Pad1)*%
X67310000Y-77470000D03*
%TD*%
D17*
%TO.P,D39,2*%
%TO.N,Net-(D39-Pad2)*%
X74930000Y-74930000D03*
D18*
%TO.P,D39,1*%
%TO.N,Net-(D39-Pad1)*%
X74930000Y-77470000D03*
%TD*%
D17*
%TO.P,D38,2*%
%TO.N,Net-(D38-Pad2)*%
X82550000Y-74930000D03*
D18*
%TO.P,D38,1*%
%TO.N,Net-(D38-Pad1)*%
X82550000Y-77470000D03*
%TD*%
D17*
%TO.P,D37,2*%
%TO.N,Net-(D37-Pad2)*%
X90170000Y-74930000D03*
D18*
%TO.P,D37,1*%
%TO.N,Net-(D37-Pad1)*%
X90170000Y-77470000D03*
%TD*%
D17*
%TO.P,D36,2*%
%TO.N,Net-(D36-Pad2)*%
X97790000Y-74930000D03*
D18*
%TO.P,D36,1*%
%TO.N,Net-(D36-Pad1)*%
X97790000Y-77470000D03*
%TD*%
D17*
%TO.P,D35,2*%
%TO.N,Net-(D35-Pad2)*%
X105410000Y-74930000D03*
D18*
%TO.P,D35,1*%
%TO.N,Net-(D35-Pad1)*%
X105410000Y-77470000D03*
%TD*%
D17*
%TO.P,D34,2*%
%TO.N,Net-(D34-Pad2)*%
X113030000Y-74930000D03*
D18*
%TO.P,D34,1*%
%TO.N,Net-(D34-Pad1)*%
X113030000Y-77470000D03*
%TD*%
D17*
%TO.P,D33,2*%
%TO.N,Net-(D33-Pad2)*%
X120650000Y-74930000D03*
D18*
%TO.P,D33,1*%
%TO.N,Net-(D33-Pad1)*%
X120650000Y-77470000D03*
%TD*%
D17*
%TO.P,D32,2*%
%TO.N,Net-(D32-Pad2)*%
X5080000Y-74930000D03*
D18*
%TO.P,D32,1*%
%TO.N,Net-(D32-Pad1)*%
X5080000Y-77470000D03*
%TD*%
D17*
%TO.P,D31,2*%
%TO.N,Net-(D31-Pad2)*%
X12700000Y-74930000D03*
D18*
%TO.P,D31,1*%
%TO.N,Net-(D31-Pad1)*%
X12700000Y-77470000D03*
%TD*%
D17*
%TO.P,D30,2*%
%TO.N,Net-(D30-Pad2)*%
X20320000Y-74930000D03*
D18*
%TO.P,D30,1*%
%TO.N,Net-(D30-Pad1)*%
X20320000Y-77470000D03*
%TD*%
D17*
%TO.P,D29,2*%
%TO.N,Net-(D29-Pad2)*%
X27940000Y-74930000D03*
D18*
%TO.P,D29,1*%
%TO.N,Net-(D29-Pad1)*%
X27940000Y-77470000D03*
%TD*%
D17*
%TO.P,D28,2*%
%TO.N,Net-(D28-Pad2)*%
X35560000Y-74930000D03*
D18*
%TO.P,D28,1*%
%TO.N,Net-(D28-Pad1)*%
X35560000Y-77470000D03*
%TD*%
D17*
%TO.P,D27,2*%
%TO.N,Net-(D27-Pad2)*%
X43180000Y-74930000D03*
D18*
%TO.P,D27,1*%
%TO.N,Net-(D27-Pad1)*%
X43180000Y-77470000D03*
%TD*%
D17*
%TO.P,D26,2*%
%TO.N,Net-(D26-Pad2)*%
X50800000Y-74930000D03*
D18*
%TO.P,D26,1*%
%TO.N,Net-(D26-Pad1)*%
X50800000Y-77470000D03*
%TD*%
D17*
%TO.P,D25,2*%
%TO.N,Net-(D25-Pad2)*%
X58420000Y-74930000D03*
D18*
%TO.P,D25,1*%
%TO.N,Net-(D25-Pad1)*%
X58420000Y-77470000D03*
%TD*%
D17*
%TO.P,D24,2*%
%TO.N,Net-(D24-Pad2)*%
X90170000Y-116840000D03*
D18*
%TO.P,D24,1*%
%TO.N,Net-(D24-Pad1)*%
X90170000Y-119380000D03*
%TD*%
D17*
%TO.P,D23,2*%
%TO.N,Net-(D23-Pad2)*%
X97790000Y-116840000D03*
D18*
%TO.P,D23,1*%
%TO.N,Net-(D23-Pad1)*%
X97790000Y-119380000D03*
%TD*%
D17*
%TO.P,D22,2*%
%TO.N,Net-(D22-Pad2)*%
X105410000Y-116840000D03*
D18*
%TO.P,D22,1*%
%TO.N,Net-(D22-Pad1)*%
X105410000Y-119380000D03*
%TD*%
D17*
%TO.P,D21,2*%
%TO.N,Net-(D21-Pad2)*%
X113030000Y-116840000D03*
D18*
%TO.P,D21,1*%
%TO.N,Net-(D21-Pad1)*%
X113030000Y-119380000D03*
%TD*%
D17*
%TO.P,D20,2*%
%TO.N,Net-(D20-Pad2)*%
X120650000Y-116840000D03*
D18*
%TO.P,D20,1*%
%TO.N,Net-(D20-Pad1)*%
X120650000Y-119380000D03*
%TD*%
D17*
%TO.P,D19,2*%
%TO.N,Net-(D19-Pad2)*%
X128270000Y-116840000D03*
D18*
%TO.P,D19,1*%
%TO.N,Net-(D19-Pad1)*%
X128270000Y-119380000D03*
%TD*%
D17*
%TO.P,D18,2*%
%TO.N,Net-(D18-Pad2)*%
X135890000Y-116840000D03*
D18*
%TO.P,D18,1*%
%TO.N,Net-(D18-Pad1)*%
X135890000Y-119380000D03*
%TD*%
D17*
%TO.P,D17,2*%
%TO.N,Net-(D17-Pad2)*%
X143510000Y-116840000D03*
D18*
%TO.P,D17,1*%
%TO.N,Net-(D17-Pad1)*%
X143510000Y-119380000D03*
%TD*%
D17*
%TO.P,D16,2*%
%TO.N,Net-(D16-Pad2)*%
X5080000Y-38100000D03*
D18*
%TO.P,D16,1*%
%TO.N,Net-(D16-Pad1)*%
X5080000Y-40640000D03*
%TD*%
D17*
%TO.P,D15,2*%
%TO.N,Net-(D15-Pad2)*%
X12700000Y-38100000D03*
D18*
%TO.P,D15,1*%
%TO.N,Net-(D15-Pad1)*%
X12700000Y-40640000D03*
%TD*%
D17*
%TO.P,D14,2*%
%TO.N,Net-(D14-Pad2)*%
X20320000Y-38100000D03*
D18*
%TO.P,D14,1*%
%TO.N,Net-(D14-Pad1)*%
X20320000Y-40640000D03*
%TD*%
D17*
%TO.P,D13,2*%
%TO.N,Net-(D13-Pad2)*%
X27940000Y-38100000D03*
D18*
%TO.P,D13,1*%
%TO.N,Net-(D13-Pad1)*%
X27940000Y-40640000D03*
%TD*%
D17*
%TO.P,D12,2*%
%TO.N,Net-(D12-Pad2)*%
X35560000Y-38100000D03*
D18*
%TO.P,D12,1*%
%TO.N,Net-(D12-Pad1)*%
X35560000Y-40640000D03*
%TD*%
D17*
%TO.P,D11,2*%
%TO.N,Net-(D11-Pad2)*%
X43180000Y-38100000D03*
D18*
%TO.P,D11,1*%
%TO.N,Net-(D11-Pad1)*%
X43180000Y-40640000D03*
%TD*%
D17*
%TO.P,D10,2*%
%TO.N,Net-(D10-Pad2)*%
X50800000Y-38100000D03*
D18*
%TO.P,D10,1*%
%TO.N,Net-(D10-Pad1)*%
X50800000Y-40640000D03*
%TD*%
D17*
%TO.P,D9,2*%
%TO.N,Net-(D9-Pad2)*%
X58420000Y-38100000D03*
D18*
%TO.P,D9,1*%
%TO.N,Net-(D9-Pad1)*%
X58420000Y-40640000D03*
%TD*%
D17*
%TO.P,D8,2*%
%TO.N,Net-(D8-Pad2)*%
X67310000Y-38100000D03*
D18*
%TO.P,D8,1*%
%TO.N,Net-(D8-Pad1)*%
X67310000Y-40640000D03*
%TD*%
D17*
%TO.P,D7,2*%
%TO.N,Net-(D7-Pad2)*%
X74930000Y-38100000D03*
D18*
%TO.P,D7,1*%
%TO.N,Net-(D7-Pad1)*%
X74930000Y-40640000D03*
%TD*%
D17*
%TO.P,D6,2*%
%TO.N,Net-(D6-Pad2)*%
X82550000Y-38100000D03*
D18*
%TO.P,D6,1*%
%TO.N,Net-(D6-Pad1)*%
X82550000Y-40640000D03*
%TD*%
D17*
%TO.P,D5,2*%
%TO.N,Net-(D5-Pad2)*%
X90170000Y-38100000D03*
D18*
%TO.P,D5,1*%
%TO.N,Net-(D5-Pad1)*%
X90170000Y-40640000D03*
%TD*%
D17*
%TO.P,D4,2*%
%TO.N,Net-(D4-Pad2)*%
X97790000Y-38100000D03*
D18*
%TO.P,D4,1*%
%TO.N,Net-(D4-Pad1)*%
X97790000Y-40640000D03*
%TD*%
D17*
%TO.P,D3,2*%
%TO.N,Net-(D3-Pad2)*%
X105410000Y-38100000D03*
D18*
%TO.P,D3,1*%
%TO.N,Net-(D3-Pad1)*%
X105410000Y-40640000D03*
%TD*%
D17*
%TO.P,D2,2*%
%TO.N,Net-(D2-Pad2)*%
X113030000Y-38100000D03*
D18*
%TO.P,D2,1*%
%TO.N,Net-(D2-Pad1)*%
X113030000Y-40640000D03*
%TD*%
D17*
%TO.P,D0,2*%
%TO.N,Net-(D0-Pad2)*%
X120650000Y-38100000D03*
D18*
%TO.P,D0,1*%
%TO.N,Net-(D0-Pad1)*%
X120650000Y-40640000D03*
%TD*%
D19*
%TO.P,C16,2*%
%TO.N,GND*%
X12700000Y-100290000D03*
%TO.P,C16,1*%
%TO.N,+5V*%
X12700000Y-97790000D03*
%TD*%
%TO.P,C15,2*%
%TO.N,GND*%
X127000000Y-59650000D03*
%TO.P,C15,1*%
%TO.N,+5V*%
X127000000Y-57150000D03*
%TD*%
%TO.P,C14,2*%
%TO.N,GND*%
X63500000Y-59690000D03*
%TO.P,C14,1*%
%TO.N,+5V*%
X63500000Y-57190000D03*
%TD*%
%TO.P,C13,2*%
%TO.N,GND*%
X38100000Y-59650000D03*
%TO.P,C13,1*%
%TO.N,+5V*%
X38100000Y-57150000D03*
%TD*%
%TO.P,C12,2*%
%TO.N,GND*%
X140970000Y-100290000D03*
%TO.P,C12,1*%
%TO.N,+5V*%
X140970000Y-97790000D03*
%TD*%
%TO.P,C11,2*%
%TO.N,GND*%
X160020000Y-59650000D03*
%TO.P,C11,1*%
%TO.N,+5V*%
X160020000Y-57150000D03*
%TD*%
%TO.P,C10,2*%
%TO.N,GND*%
X92710000Y-59650000D03*
%TO.P,C10,1*%
%TO.N,+5V*%
X92710000Y-57150000D03*
%TD*%
%TO.P,C9,2*%
%TO.N,GND*%
X2540000Y-59650000D03*
%TO.P,C9,1*%
%TO.N,+5V*%
X2540000Y-57150000D03*
%TD*%
%TO.P,C8,2*%
%TO.N,GND*%
X72390000Y-100290000D03*
%TO.P,C8,1*%
%TO.N,+5V*%
X72390000Y-97790000D03*
%TD*%
%TO.P,C7,2*%
%TO.N,GND*%
X106680000Y-100290000D03*
%TO.P,C7,1*%
%TO.N,+5V*%
X106680000Y-97790000D03*
%TD*%
%TO.P,C6,2*%
%TO.N,GND*%
X92710000Y-26630000D03*
%TO.P,C6,1*%
%TO.N,+5V*%
X92710000Y-24130000D03*
%TD*%
%TO.P,C5,2*%
%TO.N,GND*%
X2540000Y-26630000D03*
%TO.P,C5,1*%
%TO.N,+5V*%
X2540000Y-24130000D03*
%TD*%
%TO.P,C4,2*%
%TO.N,GND*%
X158750000Y-26630000D03*
%TO.P,C4,1*%
%TO.N,+5V*%
X158750000Y-24130000D03*
%TD*%
%TO.P,C3,2*%
%TO.N,GND*%
X125730000Y-26630000D03*
%TO.P,C3,1*%
%TO.N,+5V*%
X125730000Y-24130000D03*
%TD*%
%TO.P,C2,2*%
%TO.N,GND*%
X63500000Y-26630000D03*
%TO.P,C2,1*%
%TO.N,+5V*%
X63500000Y-24130000D03*
%TD*%
%TO.P,C1,2*%
%TO.N,GND*%
X38100000Y-26630000D03*
%TO.P,C1,1*%
%TO.N,+5V*%
X38100000Y-24130000D03*
%TD*%
D20*
%TO.N,+5V*%
X12128400Y-82497700D03*
X165959900Y-52676500D03*
X128793000Y-46385400D03*
%TO.N,Net-(D2-Pad2)*%
X79226900Y-25525100D03*
X94335000Y-36312600D03*
%TO.N,Net-(D2-Pad1)*%
X103872500Y-44264500D03*
%TO.N,Net-(D3-Pad2)*%
X80434800Y-20256900D03*
X107508700Y-26145900D03*
%TO.N,Net-(D4-Pad2)*%
X140828000Y-34710400D03*
%TO.N,Net-(D4-Pad1)*%
X106606800Y-43879900D03*
%TO.N,Net-(D5-Pad2)*%
X48017900Y-26864600D03*
X84222500Y-32501200D03*
%TO.N,Net-(D9-Pad2)*%
X58404200Y-35306500D03*
%TO.N,Net-(D10-Pad2)*%
X40567700Y-36226700D03*
%TO.N,Net-(D13-Pad2)*%
X28452000Y-32403200D03*
%TO.N,Net-(D15-Pad2)*%
X15417700Y-35813000D03*
%TO.N,Net-(D17-Pad2)*%
X109729300Y-108395300D03*
%TO.N,Net-(D26-Pad2)*%
X39050600Y-71818400D03*
%TO.N,Net-(D29-Pad2)*%
X34083000Y-71143400D03*
%TO.N,Net-(D33-Pad2)*%
X129726400Y-53482600D03*
X77597100Y-51878600D03*
%TO.N,Net-(D34-Pad2)*%
X81731900Y-48682500D03*
X120875500Y-52189400D03*
X121389600Y-66174900D03*
%TO.N,Net-(D35-Pad2)*%
X86102800Y-74992000D03*
%TO.N,Net-(D36-Pad2)*%
X87052600Y-79206400D03*
X94969400Y-80427300D03*
%TO.N,Net-(D37-Pad2)*%
X84154400Y-52671200D03*
%TO.N,ir0*%
X29631900Y-111279700D03*
%TO.N,ir2*%
X28679000Y-113379200D03*
%TO.N,ir3*%
X26869300Y-114980800D03*
%TO.N,ir4*%
X35353800Y-114101000D03*
%TO.N,reset*%
X68742800Y-12978600D03*
%TO.N,Rrsaddr*%
X142406500Y-94264400D03*
%TO.N,SPaddr*%
X150848100Y-60514000D03*
X163528500Y-93068800D03*
%TO.N,PCload*%
X61576000Y-20393000D03*
%TO.N,PCwb*%
X193596400Y-40648800D03*
%TO.N,pushpop*%
X88752300Y-57156400D03*
X95522000Y-45713900D03*
X197274800Y-47082600D03*
%TO.N,PCclk*%
X91612100Y-45276500D03*
%TO.N,SPclk*%
X81591900Y-50816900D03*
%TO.N,ipageclk*%
X193959100Y-21795900D03*
%TO.N,CLK*%
X158469300Y-81474400D03*
%TO.N,wb7*%
X26923400Y-99977100D03*
X18171800Y-97714300D03*
X128858600Y-24556500D03*
%TO.N,wb6*%
X99468200Y-16173400D03*
X73967400Y-98965600D03*
%TO.N,wb4*%
X113751500Y-110068300D03*
%TO.N,wb3*%
X142919000Y-26162600D03*
X100425900Y-35162800D03*
%TO.N,wb2*%
X140851500Y-25954600D03*
X31482000Y-42927000D03*
X80447200Y-123557600D03*
%TO.N,wb1*%
X110784700Y-125964400D03*
X20716600Y-128288200D03*
%TO.N,wb0*%
X62973500Y-121523600D03*
X124409000Y-55438600D03*
X122897800Y-55534600D03*
%TO.N,addr0*%
X159541100Y-21723900D03*
%TO.N,addr14*%
X105994100Y-128240500D03*
%TO.N,addr13*%
X104873500Y-143445600D03*
%TO.N,Rrs7*%
X44920500Y-13757500D03*
%TO.N,Rrs6*%
X154475300Y-60028000D03*
X88814200Y-52857000D03*
X73340400Y-27251200D03*
%TO.N,Rrs5*%
X173543300Y-94088500D03*
X189628700Y-20105500D03*
X62904800Y-29554700D03*
X67138700Y-6342400D03*
%TO.N,Rrs4*%
X151479100Y-81935100D03*
X80557000Y-88586700D03*
X51700200Y-13890600D03*
%TO.N,Rrs3*%
X144132300Y-100541400D03*
X129904300Y-92198200D03*
X79464500Y-90477500D03*
X75809400Y-27134700D03*
%TO.N,Rrs2*%
X140897700Y-68947800D03*
X137157200Y-52277900D03*
%TO.N,Rrs1*%
X165496200Y-94133300D03*
X151233000Y-58560200D03*
X134768200Y-52456700D03*
X97618600Y-8169600D03*
%TO.N,Rrs0*%
X142705500Y-88032500D03*
X82528600Y-89090100D03*
X71457800Y-26770300D03*
X83692800Y-26624900D03*
%TO.N,Net-(D0-Pad2)*%
X86804800Y-22723100D03*
%TO.N,Net-(D0-Pad1)*%
X101045900Y-45492200D03*
%TO.N,Net-(U11-Pad8)*%
X55274200Y-42143400D03*
%TD*%
D21*
%TO.N,GND*%
X127000000Y-59650000D02*
X123623100Y-56273100D01*
X123623100Y-56273100D02*
X123623100Y-55234100D01*
X123623100Y-55234100D02*
X122951300Y-54562300D01*
X122951300Y-54562300D02*
X122951200Y-54562300D01*
X122951200Y-54562300D02*
X122951200Y-52956500D01*
X122951200Y-52956500D02*
X120650000Y-50655300D01*
X186616500Y-118766500D02*
X186616500Y-127503500D01*
X185270000Y-117420000D02*
X186616500Y-118766500D01*
X191770000Y-117420000D02*
X187963000Y-117420000D01*
X187963000Y-117420000D02*
X186616500Y-118766500D01*
X190400400Y-138910400D02*
X186639600Y-138910400D01*
X186639600Y-138910400D02*
X185270000Y-140280000D01*
X191770000Y-140280000D02*
X190400400Y-138910400D01*
X191770000Y-128850000D02*
X190400400Y-130219600D01*
X190400400Y-130219600D02*
X190400400Y-138910400D01*
X186616500Y-127503500D02*
X190423500Y-127503500D01*
X190423500Y-127503500D02*
X191770000Y-128850000D01*
X186616500Y-127503500D02*
X185270000Y-128850000D01*
X187960000Y-10065300D02*
X188327400Y-10065300D01*
X188327400Y-10065300D02*
X189135300Y-10873200D01*
X189135300Y-10873200D02*
X189135300Y-19573200D01*
X189135300Y-19573200D02*
X188903400Y-19805100D01*
X188903400Y-19805100D02*
X188903400Y-25871300D01*
X188903400Y-25871300D02*
X185420000Y-29354700D01*
X185420000Y-30480000D02*
X185420000Y-29354700D01*
X133350000Y-104140000D02*
X133350000Y-105265300D01*
X133350000Y-105265300D02*
X133772000Y-105265300D01*
X133772000Y-105265300D02*
X144780000Y-116273300D01*
X144780000Y-116273300D02*
X144780000Y-125730000D01*
X179070000Y-63500000D02*
X179070000Y-62374700D01*
X177950000Y-50220000D02*
X177944700Y-50225300D01*
X177944700Y-50225300D02*
X177944700Y-61249400D01*
X177944700Y-61249400D02*
X179070000Y-62374700D01*
X185420000Y-31605300D02*
X180023600Y-37001700D01*
X180023600Y-37001700D02*
X180023600Y-48146400D01*
X180023600Y-48146400D02*
X177950000Y-50220000D01*
X176530000Y-79320000D02*
X171376500Y-79320000D01*
X176530000Y-79320000D02*
X176530000Y-67165300D01*
X176530000Y-67165300D02*
X179070000Y-64625300D01*
X171376500Y-79320000D02*
X171376500Y-103014700D01*
X170030000Y-79320000D02*
X171376500Y-79320000D01*
X160020000Y-59650000D02*
X161716700Y-59650000D01*
X161716700Y-59650000D02*
X165100000Y-56266700D01*
X165100000Y-56266700D02*
X165100000Y-55519500D01*
X165100000Y-55519500D02*
X170399500Y-50220000D01*
X170399500Y-50220000D02*
X171450000Y-50220000D01*
X142240000Y-84510000D02*
X141681200Y-85068800D01*
X141681200Y-85068800D02*
X141681200Y-96477100D01*
X141681200Y-96477100D02*
X142110000Y-96905900D01*
X142110000Y-96905900D02*
X142110000Y-99150000D01*
X142110000Y-99150000D02*
X140970000Y-100290000D01*
X119380000Y-63500000D02*
X119380000Y-70907800D01*
X119380000Y-70907800D02*
X117566800Y-72721000D01*
X117566800Y-72721000D02*
X117566800Y-78848700D01*
X117566800Y-78848700D02*
X120794700Y-82076600D01*
X120794700Y-82076600D02*
X120794700Y-83820000D01*
X121920000Y-83820000D02*
X120794700Y-83820000D01*
X106680000Y-100290000D02*
X107950000Y-99020000D01*
X107950000Y-99020000D02*
X107950000Y-97461200D01*
X107950000Y-97461200D02*
X120794700Y-84616500D01*
X120794700Y-84616500D02*
X120794700Y-83820000D01*
X92710000Y-26630000D02*
X91570400Y-25490400D01*
X91570400Y-25490400D02*
X91570400Y-14419600D01*
X91570400Y-14419600D02*
X93980000Y-12010000D01*
X59690000Y-87590000D02*
X59690000Y-83820000D01*
X72390000Y-100290000D02*
X59690000Y-87590000D01*
X59690000Y-87590000D02*
X43140000Y-104140000D01*
X43140000Y-104140000D02*
X39370000Y-104140000D01*
X63500000Y-26630000D02*
X64770000Y-25360000D01*
X64770000Y-25360000D02*
X64770000Y-16510000D01*
X63500000Y-26630000D02*
X62414700Y-26630000D01*
X62414700Y-26630000D02*
X59690000Y-29354700D01*
X185420000Y-30480000D02*
X185420000Y-31605300D01*
X187960000Y-8890000D02*
X187960000Y-10065300D01*
X179070000Y-64062600D02*
X179070000Y-63500000D01*
X179070000Y-64062600D02*
X179070000Y-64625300D01*
X158750000Y-26630000D02*
X160267900Y-25112100D01*
X160267900Y-25112100D02*
X160267900Y-10150500D01*
X160267900Y-10150500D02*
X159771300Y-9653900D01*
X159771300Y-9653900D02*
X159771300Y-5758700D01*
X159771300Y-5758700D02*
X161140000Y-4390000D01*
X158750000Y-26630000D02*
X158645300Y-26630000D01*
X158645300Y-26630000D02*
X154795300Y-30480000D01*
X59690000Y-30480000D02*
X59690000Y-29354700D01*
X12700000Y-100290000D02*
X13852300Y-99137700D01*
X13852300Y-99137700D02*
X13852300Y-90858900D01*
X13852300Y-90858900D02*
X13690100Y-90696700D01*
X13690100Y-90696700D02*
X13690100Y-85799900D01*
X13690100Y-85799900D02*
X15090000Y-84400000D01*
X125730000Y-26630000D02*
X125730000Y-43324700D01*
X125730000Y-43324700D02*
X120650000Y-48404700D01*
X124460000Y-12010000D02*
X126857600Y-14407600D01*
X126857600Y-14407600D02*
X126857600Y-25502400D01*
X126857600Y-25502400D02*
X125730000Y-26630000D01*
X120650000Y-49530000D02*
X120650000Y-50655300D01*
X171376500Y-103014700D02*
X171376500Y-103526500D01*
X171376500Y-103526500D02*
X185270000Y-117420000D01*
X168910000Y-103014700D02*
X171376500Y-103014700D01*
X63500000Y-125730000D02*
X63500000Y-124604700D01*
X63500000Y-124604700D02*
X72390000Y-115714700D01*
X72390000Y-115714700D02*
X72390000Y-100290000D01*
X69850000Y-141114700D02*
X63500000Y-134764700D01*
X63500000Y-134764700D02*
X63500000Y-125730000D01*
X168910000Y-104140000D02*
X168910000Y-103014700D01*
X120650000Y-49530000D02*
X120650000Y-48404700D01*
X46990000Y-63500000D02*
X45864700Y-63500000D01*
X45864700Y-63500000D02*
X45864700Y-63218700D01*
X45864700Y-63218700D02*
X42296000Y-59650000D01*
X42296000Y-59650000D02*
X38100000Y-59650000D01*
X72390000Y-63500000D02*
X74930000Y-63500000D01*
X2540000Y-26630000D02*
X1412400Y-27757600D01*
X1412400Y-27757600D02*
X1412400Y-58522400D01*
X1412400Y-58522400D02*
X2540000Y-59650000D01*
X12550000Y-10740000D02*
X4235900Y-19054100D01*
X4235900Y-19054100D02*
X4235900Y-24934100D01*
X4235900Y-24934100D02*
X2540000Y-26630000D01*
X146200000Y-45720000D02*
X153670000Y-38250000D01*
X153670000Y-38250000D02*
X153670000Y-30480000D01*
X69850000Y-142240000D02*
X69850000Y-141114700D01*
X59690000Y-83820000D02*
X59690000Y-82694700D01*
X59690000Y-82694700D02*
X54610000Y-77614700D01*
X54610000Y-77614700D02*
X54610000Y-63500000D01*
X62736700Y-59328000D02*
X59690000Y-62374700D01*
X63500000Y-59690000D02*
X63098600Y-59690000D01*
X63098600Y-59690000D02*
X62736700Y-59328000D01*
X58420000Y-50655300D02*
X61723900Y-53959200D01*
X61723900Y-53959200D02*
X61723900Y-58315300D01*
X61723900Y-58315300D02*
X62736700Y-59328000D01*
X58420000Y-49530000D02*
X58420000Y-50655300D01*
X59690000Y-63500000D02*
X59690000Y-62374700D01*
X153670000Y-30480000D02*
X154795300Y-30480000D01*
%TO.N,+5V*%
X54460000Y-12010000D02*
X53892200Y-11442200D01*
X53892200Y-11442200D02*
X46210100Y-11442200D01*
X46210100Y-11442200D02*
X41910000Y-15742300D01*
X41910000Y-15742300D02*
X41910000Y-22860000D01*
X12700000Y-97790000D02*
X12700000Y-83069300D01*
X12700000Y-83069300D02*
X12128400Y-82497700D01*
X76200000Y-96520000D02*
X81587200Y-91132800D01*
X81587200Y-91132800D02*
X82785500Y-91132800D01*
X82785500Y-91132800D02*
X84154500Y-89763800D01*
X84154500Y-89763800D02*
X84154500Y-87834500D01*
X84154500Y-87834500D02*
X93501800Y-78487200D01*
X93501800Y-78487200D02*
X93501800Y-67643500D01*
X93501800Y-67643500D02*
X96520000Y-64625300D01*
X146050000Y-104140000D02*
X146050000Y-103014700D01*
X146050000Y-96520000D02*
X146050000Y-97645300D01*
X146050000Y-97645300D02*
X146050000Y-103014700D01*
X130810000Y-22860000D02*
X130810000Y-21734700D01*
X130810000Y-21734700D02*
X134620000Y-17924700D01*
X134620000Y-17924700D02*
X134620000Y-16510000D01*
X130810000Y-22860000D02*
X130810000Y-30480000D01*
X96520000Y-31605300D02*
X99487800Y-34573100D01*
X99487800Y-34573100D02*
X99487800Y-44750800D01*
X99487800Y-44750800D02*
X97604700Y-46633900D01*
X97604700Y-46633900D02*
X97604700Y-53670000D01*
X97604700Y-53670000D02*
X96520000Y-54754700D01*
X163830000Y-54754700D02*
X163881700Y-54754700D01*
X163881700Y-54754700D02*
X165959900Y-52676500D01*
X163830000Y-55880000D02*
X163830000Y-54754700D01*
X181610000Y-50800000D02*
X181610000Y-82550000D01*
X181610000Y-82550000D02*
X180340000Y-83820000D01*
X162560000Y-22860000D02*
X162560000Y-21734700D01*
X162560000Y-21734700D02*
X172720000Y-11574700D01*
X172720000Y-11574700D02*
X172720000Y-8890000D01*
X162560000Y-30480000D02*
X162560000Y-22860000D01*
X128793000Y-46385400D02*
X127000000Y-48178400D01*
X127000000Y-48178400D02*
X127000000Y-57150000D01*
X128793000Y-46385400D02*
X130810000Y-44368400D01*
X130810000Y-44368400D02*
X130810000Y-31605300D01*
X130810000Y-30480000D02*
X130810000Y-31605300D01*
X96520000Y-22860000D02*
X96520000Y-21734700D01*
X96520000Y-21734700D02*
X97790000Y-20464700D01*
X97790000Y-20464700D02*
X97790000Y-16510000D01*
X96520000Y-22860000D02*
X96520000Y-30480000D01*
X96520000Y-30480000D02*
X96520000Y-31605300D01*
X96520000Y-55880000D02*
X96520000Y-54754700D01*
X96520000Y-63500000D02*
X96520000Y-64625300D01*
X76200000Y-104140000D02*
X76200000Y-96520000D01*
X130810000Y-63500000D02*
X130810000Y-55880000D01*
X96520000Y-63500000D02*
X96520000Y-55880000D01*
X60960000Y-12010000D02*
X63500000Y-14550000D01*
X63500000Y-14550000D02*
X63500000Y-24130000D01*
X195580000Y-133350000D02*
X196611800Y-134381800D01*
X196611800Y-134381800D02*
X196611800Y-143748200D01*
X196611800Y-143748200D02*
X195580000Y-144780000D01*
X195580000Y-121920000D02*
X196650800Y-122990800D01*
X196650800Y-122990800D02*
X196650800Y-132279200D01*
X196650800Y-132279200D02*
X195580000Y-133350000D01*
%TO.N,Net-(D2-Pad2)*%
X94335000Y-36312600D02*
X86760300Y-28737900D01*
X86760300Y-28737900D02*
X82439700Y-28737900D01*
X82439700Y-28737900D02*
X79226900Y-25525100D01*
%TO.N,Net-(D2-Pad1)*%
X102870000Y-49530000D02*
X102870000Y-48404700D01*
X102870000Y-48404700D02*
X103320300Y-47954400D01*
X103320300Y-47954400D02*
X103320300Y-44816700D01*
X103320300Y-44816700D02*
X103872500Y-44264500D01*
%TO.N,Net-(D3-Pad2)*%
X105410000Y-38100000D02*
X107844700Y-35665300D01*
X107844700Y-35665300D02*
X107844700Y-26481900D01*
X107844700Y-26481900D02*
X107508700Y-26145900D01*
X80434800Y-20256900D02*
X80073100Y-20256900D01*
X80073100Y-20256900D02*
X77470000Y-22860000D01*
%TO.N,Net-(D3-Pad1)*%
X105410000Y-40640000D02*
X105410000Y-49530000D01*
%TO.N,Net-(D4-Pad2)*%
X140970000Y-30480000D02*
X140970000Y-31605300D01*
X140970000Y-31605300D02*
X140828000Y-31747300D01*
X140828000Y-31747300D02*
X140828000Y-34710400D01*
X80010000Y-22860000D02*
X80010000Y-23985300D01*
X97790000Y-38100000D02*
X87062200Y-27372200D01*
X87062200Y-27372200D02*
X83396900Y-27372200D01*
X83396900Y-27372200D02*
X80010000Y-23985300D01*
%TO.N,Net-(D4-Pad1)*%
X106606800Y-43879900D02*
X107950000Y-45223100D01*
X107950000Y-45223100D02*
X107950000Y-49530000D01*
%TO.N,Net-(D5-Pad2)*%
X90170000Y-38100000D02*
X84571200Y-32501200D01*
X84571200Y-32501200D02*
X84222500Y-32501200D01*
X48017900Y-26864600D02*
X46990000Y-25836700D01*
X46990000Y-25836700D02*
X46990000Y-22860000D01*
%TO.N,Net-(D6-Pad2)*%
X82550000Y-38100000D02*
X78784600Y-41865400D01*
X78784600Y-41865400D02*
X66136600Y-41865400D01*
X66136600Y-41865400D02*
X56782800Y-32511600D01*
X56782800Y-32511600D02*
X55001600Y-32511600D01*
X55001600Y-32511600D02*
X53340000Y-30850000D01*
X53340000Y-30850000D02*
X53340000Y-29354600D01*
X53340000Y-29354600D02*
X49530000Y-25544600D01*
X49530000Y-25544600D02*
X49530000Y-22860000D01*
%TO.N,Net-(D7-Pad2)*%
X74930000Y-38100000D02*
X73697600Y-39332400D01*
X73697600Y-39332400D02*
X64410600Y-39332400D01*
X64410600Y-39332400D02*
X55880000Y-30801800D01*
X55880000Y-30801800D02*
X55880000Y-29214700D01*
X55880000Y-29214700D02*
X52070000Y-25404700D01*
X52070000Y-25404700D02*
X52070000Y-22860000D01*
%TO.N,Net-(D8-Pad2)*%
X54610000Y-22860000D02*
X54610000Y-23985300D01*
X67310000Y-38100000D02*
X65667500Y-38100000D01*
X65667500Y-38100000D02*
X58564600Y-30997100D01*
X58564600Y-30997100D02*
X58564600Y-27939900D01*
X58564600Y-27939900D02*
X54610000Y-23985300D01*
%TO.N,Net-(D9-Pad2)*%
X58420000Y-38100000D02*
X58404200Y-38084200D01*
X58404200Y-38084200D02*
X58404200Y-35306500D01*
%TO.N,Net-(D9-Pad1)*%
X58420000Y-40640000D02*
X57194700Y-40640000D01*
X57194700Y-40640000D02*
X57194700Y-41252600D01*
X57194700Y-41252600D02*
X51184300Y-47263000D01*
X51184300Y-47263000D02*
X48900400Y-47263000D01*
X48900400Y-47263000D02*
X46990000Y-49173400D01*
X46990000Y-49173400D02*
X46990000Y-49898100D01*
X46990000Y-49898100D02*
X45772600Y-51115500D01*
X45772600Y-51115500D02*
X39685500Y-51115500D01*
X39685500Y-51115500D02*
X38100000Y-49530000D01*
%TO.N,Net-(D10-Pad2)*%
X50800000Y-38100000D02*
X48926700Y-36226700D01*
X48926700Y-36226700D02*
X40567700Y-36226700D01*
%TO.N,Net-(D10-Pad1)*%
X50800000Y-40640000D02*
X49574700Y-40640000D01*
X49574700Y-40640000D02*
X48349300Y-39414600D01*
X48349300Y-39414600D02*
X42107800Y-39414600D01*
X42107800Y-39414600D02*
X40640000Y-40882400D01*
X40640000Y-40882400D02*
X40640000Y-49530000D01*
%TO.N,Net-(D11-Pad1)*%
X43180000Y-40640000D02*
X43180000Y-49530000D01*
%TO.N,Net-(D12-Pad2)*%
X26670000Y-30480000D02*
X27795300Y-30480000D01*
X35560000Y-38100000D02*
X35238400Y-38100000D01*
X35238400Y-38100000D02*
X27795300Y-30656900D01*
X27795300Y-30656900D02*
X27795300Y-30480000D01*
%TO.N,Net-(D12-Pad1)*%
X45720000Y-49530000D02*
X44594700Y-49530000D01*
X35560000Y-40640000D02*
X35560000Y-41865300D01*
X35560000Y-41865300D02*
X39370000Y-45675300D01*
X39370000Y-45675300D02*
X39370000Y-49893500D01*
X39370000Y-49893500D02*
X40131800Y-50655300D01*
X40131800Y-50655300D02*
X43750800Y-50655300D01*
X43750800Y-50655300D02*
X44594700Y-49811400D01*
X44594700Y-49811400D02*
X44594700Y-49530000D01*
%TO.N,Net-(D13-Pad2)*%
X27940000Y-32403200D02*
X28452000Y-32403200D01*
X26670000Y-22860000D02*
X26670000Y-28454600D01*
X26670000Y-28454600D02*
X25492500Y-29632100D01*
X25492500Y-29632100D02*
X25492500Y-30950100D01*
X25492500Y-30950100D02*
X26945600Y-32403200D01*
X26945600Y-32403200D02*
X27940000Y-32403200D01*
X27940000Y-38100000D02*
X27940000Y-32403200D01*
%TO.N,Net-(D14-Pad2)*%
X19050000Y-22860000D02*
X19050000Y-23985300D01*
X20320000Y-38100000D02*
X20320000Y-25255300D01*
X20320000Y-25255300D02*
X19050000Y-23985300D01*
%TO.N,Net-(D15-Pad2)*%
X12787300Y-35813000D02*
X15417700Y-35813000D01*
X12700000Y-38100000D02*
X12700000Y-35900300D01*
X12700000Y-35900300D02*
X12787300Y-35813000D01*
X12787300Y-35813000D02*
X12787300Y-27708000D01*
X12787300Y-27708000D02*
X16510000Y-23985300D01*
X16510000Y-22860000D02*
X16510000Y-23985300D01*
%TO.N,Net-(D16-Pad2)*%
X8890000Y-22860000D02*
X8890000Y-23985300D01*
X5080000Y-38100000D02*
X5080000Y-27795300D01*
X5080000Y-27795300D02*
X8890000Y-23985300D01*
%TO.N,Net-(D17-Pad2)*%
X113030000Y-104140000D02*
X113030000Y-105265300D01*
X113030000Y-105265300D02*
X112859300Y-105265300D01*
X112859300Y-105265300D02*
X109729300Y-108395300D01*
%TO.N,Net-(D18-Pad2)*%
X135890000Y-116840000D02*
X132080000Y-113030000D01*
X132080000Y-113030000D02*
X132080000Y-96138400D01*
X132080000Y-96138400D02*
X131316100Y-95374500D01*
X131316100Y-95374500D02*
X130340500Y-95374500D01*
X130340500Y-95374500D02*
X129540000Y-96175000D01*
X129540000Y-96175000D02*
X129540000Y-96908600D01*
X129540000Y-96908600D02*
X127448000Y-99000600D01*
X127448000Y-99000600D02*
X125789400Y-99000600D01*
X125789400Y-99000600D02*
X120650000Y-104140000D01*
%TO.N,Net-(D18-Pad1)*%
X127000000Y-125730000D02*
X128125300Y-125730000D01*
X135890000Y-119380000D02*
X135890000Y-120605300D01*
X135890000Y-120605300D02*
X135583700Y-120605300D01*
X135583700Y-120605300D02*
X130810000Y-125379000D01*
X130810000Y-125379000D02*
X130810000Y-126054700D01*
X130810000Y-126054700D02*
X130009400Y-126855300D01*
X130009400Y-126855300D02*
X128969200Y-126855300D01*
X128969200Y-126855300D02*
X128125300Y-126011400D01*
X128125300Y-126011400D02*
X128125300Y-125730000D01*
%TO.N,Net-(D19-Pad2)*%
X123190000Y-104140000D02*
X123190000Y-105265300D01*
X128270000Y-116840000D02*
X128270000Y-110345300D01*
X128270000Y-110345300D02*
X123190000Y-105265300D01*
%TO.N,Net-(D19-Pad1)*%
X129540000Y-125730000D02*
X129540000Y-124604700D01*
X128270000Y-119380000D02*
X128270000Y-123334700D01*
X128270000Y-123334700D02*
X129540000Y-124604700D01*
%TO.N,Net-(D20-Pad1)*%
X120650000Y-119380000D02*
X120650000Y-120605300D01*
X120650000Y-120605300D02*
X120956300Y-120605300D01*
X120956300Y-120605300D02*
X125730000Y-125379000D01*
X125730000Y-125379000D02*
X125730000Y-126073800D01*
X125730000Y-126073800D02*
X126990300Y-127334100D01*
X126990300Y-127334100D02*
X130475900Y-127334100D01*
X130475900Y-127334100D02*
X132080000Y-125730000D01*
%TO.N,Net-(D21-Pad2)*%
X113030000Y-116840000D02*
X121920000Y-107950000D01*
X121920000Y-107950000D02*
X121920000Y-103815000D01*
X121920000Y-103815000D02*
X125060600Y-100674400D01*
X125060600Y-100674400D02*
X126655600Y-100674400D01*
X126655600Y-100674400D02*
X130810000Y-96520000D01*
%TO.N,Net-(D22-Pad2)*%
X91440000Y-104140000D02*
X93055400Y-102524600D01*
X93055400Y-102524600D02*
X96505800Y-102524600D01*
X96505800Y-102524600D02*
X97790000Y-103808800D01*
X97790000Y-103808800D02*
X97790000Y-109220000D01*
X97790000Y-109220000D02*
X105410000Y-116840000D01*
%TO.N,Net-(D23-Pad2)*%
X97790000Y-116840000D02*
X93980000Y-113030000D01*
X93980000Y-113030000D02*
X93980000Y-104140000D01*
%TO.N,Net-(D24-Pad2)*%
X96520000Y-104140000D02*
X95394700Y-104140000D01*
X90170000Y-116840000D02*
X92710000Y-114300000D01*
X92710000Y-114300000D02*
X92710000Y-103811300D01*
X92710000Y-103811300D02*
X93506600Y-103014700D01*
X93506600Y-103014700D02*
X94550800Y-103014700D01*
X94550800Y-103014700D02*
X95394700Y-103858600D01*
X95394700Y-103858600D02*
X95394700Y-104140000D01*
%TO.N,Net-(D26-Pad2)*%
X50800000Y-74930000D02*
X47688400Y-71818400D01*
X47688400Y-71818400D02*
X39050600Y-71818400D01*
%TO.N,Net-(D26-Pad1)*%
X50800000Y-77470000D02*
X50800000Y-78695300D01*
X41910000Y-83820000D02*
X43503000Y-85413000D01*
X43503000Y-85413000D02*
X47009300Y-85413000D01*
X47009300Y-85413000D02*
X48260000Y-84162300D01*
X48260000Y-84162300D02*
X48260000Y-81235300D01*
X48260000Y-81235300D02*
X50800000Y-78695300D01*
%TO.N,Net-(D27-Pad1)*%
X43180000Y-77470000D02*
X43180000Y-78695300D01*
X43180000Y-78695300D02*
X44450000Y-79965300D01*
X44450000Y-79965300D02*
X44450000Y-83820000D01*
%TO.N,Net-(D28-Pad2)*%
X26670000Y-63500000D02*
X26670000Y-66040000D01*
X26670000Y-66040000D02*
X35560000Y-74930000D01*
%TO.N,Net-(D28-Pad1)*%
X46990000Y-83820000D02*
X45864700Y-83820000D01*
X35560000Y-77470000D02*
X37157500Y-77470000D01*
X37157500Y-77470000D02*
X43180000Y-83492500D01*
X43180000Y-83492500D02*
X43180000Y-84226100D01*
X43180000Y-84226100D02*
X43899200Y-84945300D01*
X43899200Y-84945300D02*
X45020800Y-84945300D01*
X45020800Y-84945300D02*
X45864700Y-84101400D01*
X45864700Y-84101400D02*
X45864700Y-83820000D01*
%TO.N,Net-(D29-Pad2)*%
X26670000Y-57005300D02*
X34083000Y-64418300D01*
X34083000Y-64418300D02*
X34083000Y-71143400D01*
X26670000Y-55880000D02*
X26670000Y-57005300D01*
%TO.N,Net-(D30-Pad2)*%
X19050000Y-55880000D02*
X19050000Y-57005300D01*
X20320000Y-74930000D02*
X20320000Y-58275300D01*
X20320000Y-58275300D02*
X19050000Y-57005300D01*
%TO.N,Net-(D31-Pad2)*%
X16510000Y-55880000D02*
X16510000Y-57005300D01*
X12700000Y-74930000D02*
X12700000Y-60815300D01*
X12700000Y-60815300D02*
X16510000Y-57005300D01*
%TO.N,Net-(D32-Pad2)*%
X8890000Y-55880000D02*
X8890000Y-57005300D01*
X5080000Y-74930000D02*
X5080000Y-60815300D01*
X5080000Y-60815300D02*
X8890000Y-57005300D01*
%TO.N,Net-(D33-Pad2)*%
X72390000Y-55880000D02*
X73515300Y-55880000D01*
X133350000Y-63500000D02*
X133350000Y-62374700D01*
X129726400Y-53482600D02*
X130031500Y-53482600D01*
X130031500Y-53482600D02*
X132224700Y-55675800D01*
X132224700Y-55675800D02*
X132224700Y-61249400D01*
X132224700Y-61249400D02*
X133350000Y-62374700D01*
X73515300Y-55880000D02*
X73515300Y-55598700D01*
X73515300Y-55598700D02*
X77235400Y-51878600D01*
X77235400Y-51878600D02*
X77597100Y-51878600D01*
X133350000Y-63500000D02*
X132224700Y-63500000D01*
X120650000Y-74930000D02*
X121498000Y-74930000D01*
X121498000Y-74930000D02*
X132224700Y-64203300D01*
X132224700Y-64203300D02*
X132224700Y-63500000D01*
%TO.N,Net-(D34-Pad2)*%
X76055300Y-55880000D02*
X76055300Y-54609100D01*
X76055300Y-54609100D02*
X81731900Y-48932500D01*
X81731900Y-48932500D02*
X81731900Y-48682500D01*
X74930000Y-55880000D02*
X76055300Y-55880000D01*
X121389600Y-66174900D02*
X120875500Y-65660800D01*
X120875500Y-65660800D02*
X120875500Y-52189400D01*
%TO.N,Net-(D34-Pad1)*%
X104140000Y-83820000D02*
X105265300Y-83820000D01*
X113030000Y-77470000D02*
X111334000Y-77470000D01*
X111334000Y-77470000D02*
X105265300Y-83538700D01*
X105265300Y-83538700D02*
X105265300Y-83820000D01*
%TO.N,Net-(D35-Pad2)*%
X77470000Y-57005300D02*
X78595300Y-58130600D01*
X78595300Y-58130600D02*
X78595300Y-67484500D01*
X78595300Y-67484500D02*
X86102800Y-74992000D01*
X77470000Y-55880000D02*
X77470000Y-57005300D01*
%TO.N,Net-(D35-Pad1)*%
X105410000Y-77470000D02*
X105410000Y-78695300D01*
X105410000Y-78695300D02*
X103005200Y-81100100D01*
X103005200Y-81100100D02*
X103005200Y-84289200D01*
X103005200Y-84289200D02*
X103687600Y-84971600D01*
X103687600Y-84971600D02*
X105528400Y-84971600D01*
X105528400Y-84971600D02*
X106680000Y-83820000D01*
%TO.N,Net-(D36-Pad2)*%
X80010000Y-57005300D02*
X81135300Y-58130600D01*
X81135300Y-58130600D02*
X81135300Y-66574600D01*
X81135300Y-66574600D02*
X87052600Y-72491900D01*
X87052600Y-72491900D02*
X87052600Y-79206400D01*
X94969400Y-80427300D02*
X95753400Y-79643300D01*
X95753400Y-79643300D02*
X95753400Y-76564500D01*
X95753400Y-76564500D02*
X97387900Y-74930000D01*
X97387900Y-74930000D02*
X97790000Y-74930000D01*
X80010000Y-55880000D02*
X80010000Y-57005300D01*
%TO.N,Net-(D37-Pad2)*%
X90170000Y-74930000D02*
X83914400Y-68674400D01*
X83914400Y-68674400D02*
X83914400Y-52911200D01*
X83914400Y-52911200D02*
X84154400Y-52671200D01*
%TO.N,Net-(D38-Pad2)*%
X49530000Y-55880000D02*
X50655300Y-55880000D01*
X82550000Y-74930000D02*
X82195100Y-74930000D01*
X82195100Y-74930000D02*
X71120000Y-63854900D01*
X71120000Y-63854900D02*
X71120000Y-61544300D01*
X71120000Y-61544300D02*
X60634600Y-51058900D01*
X60634600Y-51058900D02*
X60634600Y-49648700D01*
X60634600Y-49648700D02*
X59390500Y-48404600D01*
X59390500Y-48404600D02*
X57417600Y-48404600D01*
X57417600Y-48404600D02*
X57294600Y-48527600D01*
X57294600Y-48527600D02*
X57294600Y-49741400D01*
X57294600Y-49741400D02*
X52281300Y-54754700D01*
X52281300Y-54754700D02*
X51499200Y-54754700D01*
X51499200Y-54754700D02*
X50655300Y-55598600D01*
X50655300Y-55598600D02*
X50655300Y-55880000D01*
%TO.N,Net-(D39-Pad2)*%
X52070000Y-55880000D02*
X52070000Y-57005300D01*
X52070000Y-57005300D02*
X55880000Y-60815300D01*
X55880000Y-60815300D02*
X55880000Y-65241300D01*
X55880000Y-65241300D02*
X66801100Y-76162400D01*
X66801100Y-76162400D02*
X73697600Y-76162400D01*
X73697600Y-76162400D02*
X74930000Y-74930000D01*
%TO.N,Net-(D40-Pad2)*%
X54610000Y-55880000D02*
X54610000Y-57005300D01*
X67310000Y-74930000D02*
X58420000Y-66040000D01*
X58420000Y-66040000D02*
X58420000Y-60815300D01*
X58420000Y-60815300D02*
X54610000Y-57005300D01*
%TO.N,ir0*%
X27940000Y-134620000D02*
X27940000Y-133444700D01*
X27940000Y-133444700D02*
X29404400Y-131980300D01*
X29404400Y-131980300D02*
X29404400Y-111507200D01*
X29404400Y-111507200D02*
X29631900Y-111279700D01*
X27940000Y-144780000D02*
X27940000Y-134620000D01*
%TO.N,Net-(D41-Pad1)*%
X43180000Y-125730000D02*
X44305300Y-125730000D01*
X62230000Y-119380000D02*
X62230000Y-120605300D01*
X62230000Y-120605300D02*
X61923700Y-120605300D01*
X61923700Y-120605300D02*
X57150000Y-125379000D01*
X57150000Y-125379000D02*
X57150000Y-126059400D01*
X57150000Y-126059400D02*
X55406800Y-127802600D01*
X55406800Y-127802600D02*
X46096600Y-127802600D01*
X46096600Y-127802600D02*
X44305300Y-126011300D01*
X44305300Y-126011300D02*
X44305300Y-125730000D01*
%TO.N,ir1*%
X26670000Y-104140000D02*
X26670000Y-105265300D01*
X25400000Y-133444700D02*
X27652000Y-131192700D01*
X27652000Y-131192700D02*
X27652000Y-106247300D01*
X27652000Y-106247300D02*
X26670000Y-105265300D01*
X25400000Y-134620000D02*
X25400000Y-133444700D01*
X25400000Y-144780000D02*
X25400000Y-134620000D01*
%TO.N,Net-(D42-Pad1)*%
X54610000Y-119380000D02*
X54610000Y-120605300D01*
X54610000Y-120605300D02*
X52070000Y-123145300D01*
X52070000Y-123145300D02*
X52070000Y-126074200D01*
X52070000Y-126074200D02*
X50834000Y-127310200D01*
X50834000Y-127310200D02*
X47300200Y-127310200D01*
X47300200Y-127310200D02*
X45720000Y-125730000D01*
%TO.N,ir2*%
X28679000Y-113379200D02*
X28679000Y-131530200D01*
X28679000Y-131530200D02*
X26764600Y-133444600D01*
X26764600Y-133444600D02*
X26764600Y-145078900D01*
X26764600Y-145078900D02*
X25875400Y-145968100D01*
X25875400Y-145968100D02*
X24856100Y-145968100D01*
X24856100Y-145968100D02*
X24035300Y-145147300D01*
X24035300Y-145147300D02*
X24035300Y-144780000D01*
X29210000Y-105265300D02*
X28679000Y-105796300D01*
X28679000Y-105796300D02*
X28679000Y-113379200D01*
X22860000Y-144780000D02*
X24035300Y-144780000D01*
X22860000Y-134620000D02*
X22860000Y-144780000D01*
X29210000Y-104140000D02*
X29210000Y-105265300D01*
%TO.N,Net-(D43-Pad1)*%
X46990000Y-119380000D02*
X46990000Y-120605300D01*
X46990000Y-120605300D02*
X48260000Y-121875300D01*
X48260000Y-121875300D02*
X48260000Y-125730000D01*
%TO.N,ir3*%
X20320000Y-133444700D02*
X26869300Y-126895400D01*
X26869300Y-126895400D02*
X26869300Y-114980800D01*
X36830000Y-105265300D02*
X39370000Y-107805300D01*
X39370000Y-107805300D02*
X39370000Y-116840000D01*
X20320000Y-134620000D02*
X20320000Y-133444700D01*
X20320000Y-144780000D02*
X20320000Y-134620000D01*
X36830000Y-104140000D02*
X36830000Y-105265300D01*
%TO.N,Net-(D44-Pad1)*%
X50800000Y-125730000D02*
X49674700Y-125730000D01*
X39370000Y-119380000D02*
X40967500Y-119380000D01*
X40967500Y-119380000D02*
X46990000Y-125402500D01*
X46990000Y-125402500D02*
X46990000Y-126069400D01*
X46990000Y-126069400D02*
X47775900Y-126855300D01*
X47775900Y-126855300D02*
X48830800Y-126855300D01*
X48830800Y-126855300D02*
X49674700Y-126011400D01*
X49674700Y-126011400D02*
X49674700Y-125730000D01*
%TO.N,ir4*%
X36830000Y-97645300D02*
X35704700Y-98770600D01*
X35704700Y-98770600D02*
X35704700Y-113750100D01*
X35704700Y-113750100D02*
X35353800Y-114101000D01*
X36830000Y-96520000D02*
X36830000Y-97645300D01*
X17780000Y-144780000D02*
X18955300Y-144780000D01*
X31750000Y-116840000D02*
X30029900Y-118560100D01*
X30029900Y-118560100D02*
X30029900Y-144880400D01*
X30029900Y-144880400D02*
X28477400Y-146432900D01*
X28477400Y-146432900D02*
X20240900Y-146432900D01*
X20240900Y-146432900D02*
X18955300Y-145147300D01*
X18955300Y-145147300D02*
X18955300Y-144780000D01*
X17780000Y-144780000D02*
X17780000Y-134620000D01*
%TO.N,ir5*%
X29210000Y-97645300D02*
X28229500Y-97645300D01*
X28229500Y-97645300D02*
X25400000Y-100474800D01*
X25400000Y-100474800D02*
X25400000Y-115570000D01*
X25400000Y-115570000D02*
X24130000Y-116840000D01*
X15240000Y-134620000D02*
X16415300Y-134620000D01*
X24130000Y-116840000D02*
X21521000Y-119449000D01*
X21521000Y-119449000D02*
X21521000Y-128543500D01*
X21521000Y-128543500D02*
X16415300Y-133649200D01*
X16415300Y-133649200D02*
X16415300Y-134620000D01*
X29210000Y-96520000D02*
X29210000Y-97645300D01*
X15240000Y-144780000D02*
X15240000Y-134620000D01*
%TO.N,ir6*%
X16510000Y-116840000D02*
X12700000Y-120650000D01*
X12700000Y-120650000D02*
X12700000Y-134620000D01*
X12700000Y-144780000D02*
X12700000Y-134620000D01*
%TO.N,ir7*%
X10160000Y-116840000D02*
X17924700Y-109075300D01*
X17924700Y-109075300D02*
X17924700Y-98987200D01*
X17924700Y-98987200D02*
X19050000Y-97861900D01*
X19050000Y-97861900D02*
X19050000Y-97645300D01*
X19050000Y-96520000D02*
X19050000Y-97645300D01*
X10160000Y-134620000D02*
X10160000Y-116840000D01*
X10160000Y-116840000D02*
X8890000Y-116840000D01*
X10160000Y-144780000D02*
X10160000Y-134620000D01*
%TO.N,reset*%
X167640000Y-8890000D02*
X168820700Y-7709300D01*
X168820700Y-7709300D02*
X188451800Y-7709300D01*
X188451800Y-7709300D02*
X192871100Y-12128600D01*
X192871100Y-12128600D02*
X192871100Y-83745800D01*
X192871100Y-83745800D02*
X195580000Y-86454700D01*
X195580000Y-87630000D02*
X195580000Y-86454700D01*
X68435300Y-30480000D02*
X68435300Y-30761300D01*
X68435300Y-30761300D02*
X74481300Y-36807300D01*
X74481300Y-36807300D02*
X83016000Y-36807300D01*
X83016000Y-36807300D02*
X85090000Y-38881300D01*
X85090000Y-38881300D02*
X85090000Y-54754700D01*
X67310000Y-30480000D02*
X67310000Y-29354700D01*
X68742800Y-12978600D02*
X68435300Y-13286100D01*
X68435300Y-13286100D02*
X68435300Y-28229400D01*
X68435300Y-28229400D02*
X67310000Y-29354700D01*
X67310000Y-30480000D02*
X68435300Y-30480000D01*
X85090000Y-55880000D02*
X85090000Y-54754700D01*
%TO.N,PCaddr*%
X195580000Y-90170000D02*
X195580000Y-91345300D01*
X191770000Y-121920000D02*
X193315200Y-120374800D01*
X193315200Y-120374800D02*
X193315200Y-93242800D01*
X193315200Y-93242800D02*
X195212700Y-91345300D01*
X195212700Y-91345300D02*
X195580000Y-91345300D01*
%TO.N,Rrsaddr*%
X148590000Y-96520000D02*
X147464700Y-96520000D01*
X147464700Y-96520000D02*
X147464700Y-96238700D01*
X147464700Y-96238700D02*
X145490400Y-94264400D01*
X145490400Y-94264400D02*
X142406500Y-94264400D01*
X195580000Y-92710000D02*
X195580000Y-93885300D01*
X191770000Y-133350000D02*
X193954400Y-131165600D01*
X193954400Y-131165600D02*
X193954400Y-95143600D01*
X193954400Y-95143600D02*
X195212700Y-93885300D01*
X195212700Y-93885300D02*
X195580000Y-93885300D01*
%TO.N,SPaddr*%
X150848100Y-60514000D02*
X152255400Y-61921300D01*
X152255400Y-61921300D02*
X152255400Y-80027900D01*
X152255400Y-80027900D02*
X163528500Y-91301000D01*
X163528500Y-91301000D02*
X163528500Y-93068800D01*
X195580000Y-95837600D02*
X195580000Y-95250000D01*
X195580000Y-95837600D02*
X195580000Y-96425300D01*
X195580000Y-96425300D02*
X195212600Y-96425300D01*
X195212600Y-96425300D02*
X194404700Y-97233200D01*
X194404700Y-97233200D02*
X194404700Y-142145300D01*
X194404700Y-142145300D02*
X191770000Y-144780000D01*
%TO.N,PCload*%
X59690000Y-22860000D02*
X59690000Y-21734700D01*
X61576000Y-20393000D02*
X60234300Y-21734700D01*
X60234300Y-21734700D02*
X59690000Y-21734700D01*
X85090000Y-22860000D02*
X85090000Y-21734700D01*
X87480000Y-16510000D02*
X87480000Y-19344700D01*
X87480000Y-19344700D02*
X85090000Y-21734700D01*
%TO.N,PCwb*%
X195580000Y-100330000D02*
X195580000Y-99154700D01*
X193596400Y-40648800D02*
X193596400Y-68397700D01*
X193596400Y-68397700D02*
X196772700Y-71574000D01*
X196772700Y-71574000D02*
X196772700Y-98327300D01*
X196772700Y-98327300D02*
X195945300Y-99154700D01*
X195945300Y-99154700D02*
X195580000Y-99154700D01*
%TO.N,pushpop*%
X195580000Y-101694700D02*
X195947300Y-101694700D01*
X195947300Y-101694700D02*
X197274800Y-100367200D01*
X197274800Y-100367200D02*
X197274800Y-47082600D01*
X88752300Y-57156400D02*
X89539500Y-56369200D01*
X89539500Y-56369200D02*
X89539500Y-51696400D01*
X89539500Y-51696400D02*
X95522000Y-45713900D01*
X195580000Y-102870000D02*
X195580000Y-101694700D01*
%TO.N,PCclk*%
X53480000Y-16510000D02*
X53480000Y-14007700D01*
X53480000Y-14007700D02*
X52172300Y-12700000D01*
X52172300Y-12700000D02*
X48260000Y-12700000D01*
X82550000Y-30480000D02*
X82550000Y-32594100D01*
X82550000Y-32594100D02*
X88944700Y-38988800D01*
X88944700Y-38988800D02*
X88944700Y-42609100D01*
X88944700Y-42609100D02*
X91612100Y-45276500D01*
X53480000Y-16510000D02*
X54460000Y-16510000D01*
X53480000Y-16510000D02*
X53480000Y-25684700D01*
X53480000Y-25684700D02*
X57150000Y-29354700D01*
X57150000Y-30480000D02*
X57150000Y-29354700D01*
%TO.N,SPclk*%
X82550000Y-63500000D02*
X82550000Y-57471600D01*
X82550000Y-57471600D02*
X81423900Y-56345500D01*
X81423900Y-56345500D02*
X81423900Y-50984900D01*
X81423900Y-50984900D02*
X81591900Y-50816900D01*
%TO.N,IRclk*%
X16510000Y-104140000D02*
X16510000Y-103014700D01*
X16510000Y-103014700D02*
X15090000Y-101594700D01*
X15090000Y-101594700D02*
X15090000Y-88900000D01*
%TO.N,ipageclk*%
X195580000Y-61054700D02*
X195212700Y-61054700D01*
X195212700Y-61054700D02*
X194321700Y-60163700D01*
X194321700Y-60163700D02*
X194321700Y-22158500D01*
X194321700Y-22158500D02*
X193959100Y-21795900D01*
X195580000Y-62230000D02*
X195580000Y-61054700D01*
X171450000Y-63500000D02*
X173990000Y-63500000D01*
%TO.N,CLK*%
X29210000Y-54754700D02*
X32207300Y-51757400D01*
X32207300Y-51757400D02*
X32207300Y-41722900D01*
X32207300Y-41722900D02*
X34515600Y-39414600D01*
X34515600Y-39414600D02*
X36354100Y-39414600D01*
X36354100Y-39414600D02*
X44163400Y-31605300D01*
X44163400Y-31605300D02*
X44450000Y-31605300D01*
X29210000Y-55880000D02*
X29210000Y-54754700D01*
X166370000Y-63500000D02*
X166370000Y-73573700D01*
X166370000Y-73573700D02*
X158469300Y-81474400D01*
X166370000Y-63049900D02*
X166370000Y-63500000D01*
X166370000Y-63049900D02*
X166370000Y-62374700D01*
X187960000Y-12605300D02*
X187960000Y-23194900D01*
X187960000Y-23194900D02*
X184150000Y-27004900D01*
X184150000Y-27004900D02*
X184150000Y-31605400D01*
X184150000Y-31605400D02*
X173054100Y-42701300D01*
X173054100Y-42701300D02*
X173054100Y-50563100D01*
X173054100Y-50563100D02*
X170049700Y-53567500D01*
X170049700Y-53567500D02*
X170049700Y-58695000D01*
X170049700Y-58695000D02*
X166370000Y-62374700D01*
X44450000Y-63500000D02*
X43324700Y-63500000D01*
X29210000Y-55880000D02*
X29210000Y-57005300D01*
X37646500Y-64646800D02*
X37646500Y-74643600D01*
X37646500Y-74643600D02*
X36045500Y-76244600D01*
X36045500Y-76244600D02*
X34500200Y-76244600D01*
X34500200Y-76244600D02*
X34334600Y-76410200D01*
X34334600Y-76410200D02*
X34334600Y-90359300D01*
X34334600Y-90359300D02*
X39370000Y-95394700D01*
X29210000Y-57005300D02*
X30005000Y-57005300D01*
X30005000Y-57005300D02*
X37646500Y-64646800D01*
X37646500Y-64646800D02*
X42881200Y-64646800D01*
X42881200Y-64646800D02*
X43324700Y-64203300D01*
X43324700Y-64203300D02*
X43324700Y-63500000D01*
X39370000Y-96520000D02*
X39370000Y-95394700D01*
X187960000Y-11430000D02*
X187960000Y-12605300D01*
X44450000Y-30480000D02*
X44450000Y-31605300D01*
%TO.N,wb7*%
X115570000Y-95394700D02*
X115570000Y-93981700D01*
X115570000Y-93981700D02*
X123543300Y-86008400D01*
X123543300Y-86008400D02*
X123543300Y-82690400D01*
X123543300Y-82690400D02*
X120264800Y-79411900D01*
X120264800Y-79411900D02*
X119667700Y-79411900D01*
X119667700Y-79411900D02*
X118518600Y-78262800D01*
X118518600Y-78262800D02*
X118518600Y-73361400D01*
X118518600Y-73361400D02*
X128167600Y-63712400D01*
X128167600Y-63712400D02*
X128167600Y-59219900D01*
X128167600Y-59219900D02*
X127347700Y-58400000D01*
X127347700Y-58400000D02*
X126658500Y-58400000D01*
X126658500Y-58400000D02*
X125847300Y-57588800D01*
X125847300Y-57588800D02*
X125847300Y-46161100D01*
X125847300Y-46161100D02*
X128858600Y-43149800D01*
X128858600Y-43149800D02*
X128858600Y-24556500D01*
X41910000Y-134620000D02*
X41910000Y-133444700D01*
X41910000Y-133444700D02*
X33164500Y-124699200D01*
X33164500Y-124699200D02*
X33164500Y-116476700D01*
X33164500Y-116476700D02*
X30584800Y-113897000D01*
X30584800Y-113897000D02*
X30584800Y-103638500D01*
X30584800Y-103638500D02*
X26923400Y-99977100D01*
X41910000Y-134620000D02*
X41910000Y-144780000D01*
X11430000Y-55880000D02*
X11430000Y-57005300D01*
X11430000Y-57005300D02*
X10265100Y-58170200D01*
X10265100Y-58170200D02*
X10265100Y-77671600D01*
X10265100Y-77671600D02*
X16415400Y-83821900D01*
X16415400Y-83821900D02*
X16415400Y-94625200D01*
X16415400Y-94625200D02*
X17635400Y-95845200D01*
X17635400Y-95845200D02*
X17635400Y-97177900D01*
X17635400Y-97177900D02*
X18171800Y-97714300D01*
X115570000Y-96520000D02*
X115570000Y-95394700D01*
%TO.N,wb6*%
X73967400Y-98965600D02*
X73967400Y-97160000D01*
X73967400Y-97160000D02*
X80444900Y-90682500D01*
X80444900Y-90682500D02*
X82598900Y-90682500D01*
X82598900Y-90682500D02*
X83704200Y-89577200D01*
X83704200Y-89577200D02*
X83704200Y-87647800D01*
X83704200Y-87647800D02*
X93051500Y-78300500D01*
X93051500Y-78300500D02*
X93051500Y-64403800D01*
X93051500Y-64403800D02*
X94906000Y-62549300D01*
X94906000Y-62549300D02*
X94906000Y-49512300D01*
X94906000Y-49512300D02*
X97154400Y-47263900D01*
X97154400Y-47263900D02*
X97154400Y-46447300D01*
X97154400Y-46447300D02*
X99017000Y-44584700D01*
X99017000Y-44584700D02*
X99017000Y-36227400D01*
X99017000Y-36227400D02*
X95362500Y-32572900D01*
X95362500Y-32572900D02*
X95362500Y-17472700D01*
X95362500Y-17472700D02*
X97372300Y-15462900D01*
X97372300Y-15462900D02*
X98757700Y-15462900D01*
X98757700Y-15462900D02*
X99468200Y-16173400D01*
X13970000Y-55880000D02*
X15095300Y-55880000D01*
X24130000Y-96520000D02*
X24130000Y-95394700D01*
X24130000Y-95394700D02*
X24130000Y-89444800D01*
X24130000Y-89444800D02*
X17780000Y-83094800D01*
X17780000Y-83094800D02*
X17780000Y-55518300D01*
X17780000Y-55518300D02*
X17016400Y-54754700D01*
X17016400Y-54754700D02*
X15939200Y-54754700D01*
X15939200Y-54754700D02*
X15095300Y-55598600D01*
X15095300Y-55598600D02*
X15095300Y-55880000D01*
X72390000Y-133494700D02*
X73967400Y-131917300D01*
X73967400Y-131917300D02*
X73967400Y-98965600D01*
X72390000Y-134620000D02*
X72390000Y-133494700D01*
X44450000Y-134620000D02*
X44450000Y-144780000D01*
%TO.N,wb5*%
X125730000Y-95394700D02*
X125730000Y-94622400D01*
X125730000Y-94622400D02*
X134620000Y-85732400D01*
X134620000Y-85732400D02*
X134620000Y-55539900D01*
X134620000Y-55539900D02*
X136167000Y-53992900D01*
X136167000Y-53992900D02*
X137104900Y-53992900D01*
X137104900Y-53992900D02*
X138332800Y-52765000D01*
X138332800Y-52765000D02*
X138332800Y-49271400D01*
X138332800Y-49271400D02*
X147286100Y-40318100D01*
X147286100Y-40318100D02*
X147286100Y-25289200D01*
X147286100Y-25289200D02*
X148590000Y-23985300D01*
X46990000Y-133444700D02*
X34065200Y-120519900D01*
X34065200Y-120519900D02*
X34065200Y-115691800D01*
X34065200Y-115691800D02*
X33164600Y-114791200D01*
X33164600Y-114791200D02*
X33164600Y-103792400D01*
X33164600Y-103792400D02*
X31750000Y-102377800D01*
X31750000Y-102377800D02*
X31750000Y-96520000D01*
X148590000Y-22860000D02*
X148590000Y-23985300D01*
X125730000Y-96520000D02*
X125730000Y-95394700D01*
X46990000Y-134620000D02*
X46990000Y-133444700D01*
X46990000Y-144780000D02*
X46990000Y-134620000D01*
X21590000Y-57005300D02*
X22715300Y-58130600D01*
X22715300Y-58130600D02*
X22715300Y-77985200D01*
X22715300Y-77985200D02*
X31750000Y-87019900D01*
X31750000Y-87019900D02*
X31750000Y-96520000D01*
X21590000Y-55880000D02*
X21590000Y-57005300D01*
%TO.N,wb4*%
X125219300Y-97645400D02*
X124460000Y-96886100D01*
X124460000Y-96886100D02*
X124460000Y-79016100D01*
X124460000Y-79016100D02*
X121688500Y-76244600D01*
X121688500Y-76244600D02*
X120229000Y-76244600D01*
X120229000Y-76244600D02*
X119424300Y-75439900D01*
X119424300Y-75439900D02*
X119424300Y-73729500D01*
X119424300Y-73729500D02*
X129076200Y-64077600D01*
X129076200Y-64077600D02*
X129076200Y-53858100D01*
X129076200Y-53858100D02*
X129001100Y-53783000D01*
X129001100Y-53783000D02*
X129001100Y-53182200D01*
X129001100Y-53182200D02*
X129426200Y-52757100D01*
X129426200Y-52757100D02*
X133370900Y-52757100D01*
X133370900Y-52757100D02*
X133810800Y-53197000D01*
X133810800Y-53197000D02*
X137263900Y-53197000D01*
X137263900Y-53197000D02*
X137882500Y-52578400D01*
X137882500Y-52578400D02*
X137882500Y-45600600D01*
X137882500Y-45600600D02*
X144924700Y-38558400D01*
X144924700Y-38558400D02*
X144924700Y-25110600D01*
X144924700Y-25110600D02*
X146050000Y-23985300D01*
X146050000Y-22860000D02*
X146050000Y-23985300D01*
X125219300Y-97645400D02*
X126300700Y-97645400D01*
X126300700Y-97645400D02*
X127144700Y-96801400D01*
X127144700Y-96801400D02*
X127144700Y-96520000D01*
X113751500Y-110068300D02*
X114003100Y-110068300D01*
X114003100Y-110068300D02*
X119380000Y-104691400D01*
X119380000Y-104691400D02*
X119380000Y-103484700D01*
X119380000Y-103484700D02*
X125219300Y-97645400D01*
X128270000Y-96520000D02*
X127144700Y-96520000D01*
X24130000Y-57005300D02*
X25255300Y-58130600D01*
X25255300Y-58130600D02*
X25255300Y-65650300D01*
X25255300Y-65650300D02*
X33823700Y-74218700D01*
X33823700Y-74218700D02*
X33823700Y-94928400D01*
X33823700Y-94928400D02*
X34290000Y-95394700D01*
X49530000Y-134620000D02*
X49530000Y-133444700D01*
X49530000Y-133444700D02*
X49296900Y-133444700D01*
X49296900Y-133444700D02*
X38144600Y-122292400D01*
X38144600Y-122292400D02*
X38144600Y-118320200D01*
X38144600Y-118320200D02*
X38310200Y-118154600D01*
X38310200Y-118154600D02*
X39809900Y-118154600D01*
X39809900Y-118154600D02*
X40605200Y-117359300D01*
X40605200Y-117359300D02*
X40605200Y-108174100D01*
X40605200Y-108174100D02*
X38100000Y-105668900D01*
X38100000Y-105668900D02*
X38100000Y-96198200D01*
X38100000Y-96198200D02*
X37296500Y-95394700D01*
X37296500Y-95394700D02*
X34290000Y-95394700D01*
X49530000Y-144780000D02*
X49530000Y-134620000D01*
X34290000Y-96520000D02*
X34290000Y-95394700D01*
X24130000Y-55880000D02*
X24130000Y-57005300D01*
%TO.N,wb3*%
X80010000Y-133494700D02*
X77603100Y-131087800D01*
X77603100Y-131087800D02*
X77603100Y-96053000D01*
X77603100Y-96053000D02*
X82073000Y-91583100D01*
X82073000Y-91583100D02*
X82972100Y-91583100D01*
X82972100Y-91583100D02*
X84604800Y-89950400D01*
X84604800Y-89950400D02*
X84604800Y-88492100D01*
X84604800Y-88492100D02*
X93952100Y-79144800D01*
X93952100Y-79144800D02*
X93952100Y-70259000D01*
X93952100Y-70259000D02*
X97790000Y-66421100D01*
X97790000Y-66421100D02*
X97790000Y-55019700D01*
X97790000Y-55019700D02*
X98230600Y-54579100D01*
X98230600Y-54579100D02*
X98230600Y-46644900D01*
X98230600Y-46644900D02*
X100425900Y-44449600D01*
X100425900Y-44449600D02*
X100425900Y-35162800D01*
X80010000Y-134620000D02*
X80010000Y-133494700D01*
X142919000Y-26162600D02*
X143510000Y-25571600D01*
X143510000Y-25571600D02*
X143510000Y-22860000D01*
X34290000Y-105265300D02*
X34628500Y-105603800D01*
X34628500Y-105603800D02*
X34628500Y-120155000D01*
X34628500Y-120155000D02*
X48175100Y-133701600D01*
X48175100Y-133701600D02*
X48175100Y-145140400D01*
X48175100Y-145140400D02*
X48997600Y-145962900D01*
X48997600Y-145962900D02*
X50079100Y-145962900D01*
X50079100Y-145962900D02*
X50894700Y-145147300D01*
X50894700Y-145147300D02*
X50894700Y-144780000D01*
X52070000Y-144780000D02*
X50894700Y-144780000D01*
X52070000Y-134620000D02*
X52070000Y-144780000D01*
X34290000Y-104140000D02*
X34290000Y-105265300D01*
X24130000Y-63500000D02*
X24130000Y-67607800D01*
X24130000Y-67607800D02*
X33164700Y-76642500D01*
X33164700Y-76642500D02*
X33164700Y-101889400D01*
X33164700Y-101889400D02*
X34290000Y-103014700D01*
X34290000Y-104140000D02*
X34290000Y-103014700D01*
%TO.N,wb2*%
X21590000Y-63500000D02*
X21590000Y-58415300D01*
X21590000Y-58415300D02*
X20399400Y-57224700D01*
X20399400Y-57224700D02*
X20399400Y-54009600D01*
X20399400Y-54009600D02*
X31482000Y-42927000D01*
X140851500Y-25954600D02*
X140970000Y-25836100D01*
X140970000Y-25836100D02*
X140970000Y-22860000D01*
X31750000Y-103014700D02*
X30624700Y-101889400D01*
X30624700Y-101889400D02*
X30624700Y-86837700D01*
X30624700Y-86837700D02*
X21590000Y-77803000D01*
X21590000Y-77803000D02*
X21590000Y-63500000D01*
X82550000Y-134620000D02*
X82550000Y-133494700D01*
X82550000Y-133494700D02*
X80447200Y-131391900D01*
X80447200Y-131391900D02*
X80447200Y-123557600D01*
X53434700Y-144780000D02*
X53434700Y-145147300D01*
X53434700Y-145147300D02*
X52168700Y-146413300D01*
X52168700Y-146413300D02*
X46956400Y-146413300D01*
X46956400Y-146413300D02*
X45720000Y-145176900D01*
X45720000Y-145176900D02*
X45720000Y-132862200D01*
X45720000Y-132862200D02*
X33614900Y-120757100D01*
X33614900Y-120757100D02*
X33614900Y-115878400D01*
X33614900Y-115878400D02*
X31750100Y-114013600D01*
X31750100Y-114013600D02*
X31750100Y-105265300D01*
X31750100Y-105265300D02*
X31750000Y-105265300D01*
X31750000Y-104140000D02*
X31750000Y-105265300D01*
X54610000Y-144780000D02*
X53434700Y-144780000D01*
X54610000Y-134620000D02*
X54610000Y-144780000D01*
X31750000Y-103577300D02*
X31750000Y-104140000D01*
X31750000Y-103577300D02*
X31750000Y-103014700D01*
%TO.N,wb1*%
X138430000Y-23985300D02*
X138148700Y-23985300D01*
X138148700Y-23985300D02*
X131989600Y-30144400D01*
X131989600Y-30144400D02*
X131989600Y-49556800D01*
X131989600Y-49556800D02*
X128550800Y-52995600D01*
X128550800Y-52995600D02*
X128550800Y-53969600D01*
X128550800Y-53969600D02*
X128618000Y-54036800D01*
X128618000Y-54036800D02*
X128618000Y-63898900D01*
X128618000Y-63898900D02*
X118974000Y-73542900D01*
X118974000Y-73542900D02*
X118974000Y-78081300D01*
X118974000Y-78081300D02*
X119608100Y-78715400D01*
X119608100Y-78715400D02*
X120205200Y-78715400D01*
X120205200Y-78715400D02*
X124003300Y-82513500D01*
X124003300Y-82513500D02*
X124003300Y-86185300D01*
X124003300Y-86185300D02*
X119235300Y-90953300D01*
X119235300Y-90953300D02*
X119235300Y-101889400D01*
X119235300Y-101889400D02*
X118110000Y-103014700D01*
X118110000Y-104140000D02*
X118110000Y-103014700D01*
X118110000Y-105265300D02*
X117528800Y-105265300D01*
X117528800Y-105265300D02*
X110784700Y-112009400D01*
X110784700Y-112009400D02*
X110784700Y-125964400D01*
X118110000Y-104140000D02*
X118110000Y-105265300D01*
X24130000Y-104140000D02*
X24130000Y-105265300D01*
X20716600Y-128288200D02*
X20716600Y-108678700D01*
X20716600Y-108678700D02*
X24130000Y-105265300D01*
X13970000Y-64625300D02*
X17278500Y-67933800D01*
X17278500Y-67933800D02*
X17278500Y-83230200D01*
X17278500Y-83230200D02*
X17728700Y-83680400D01*
X17728700Y-83680400D02*
X17728700Y-87568400D01*
X17728700Y-87568400D02*
X23004700Y-92844400D01*
X23004700Y-92844400D02*
X23004700Y-101889400D01*
X23004700Y-101889400D02*
X24130000Y-103014700D01*
X24130000Y-104140000D02*
X24130000Y-103014700D01*
X138430000Y-22860000D02*
X138430000Y-23985300D01*
X13970000Y-63500000D02*
X13970000Y-64625300D01*
%TO.N,wb0*%
X115570000Y-103014700D02*
X114420600Y-101865300D01*
X114420600Y-101865300D02*
X114420600Y-94494200D01*
X114420600Y-94494200D02*
X123047800Y-85867000D01*
X123047800Y-85867000D02*
X123047800Y-82831800D01*
X123047800Y-82831800D02*
X121552900Y-81336900D01*
X121552900Y-81336900D02*
X120955700Y-81336900D01*
X120955700Y-81336900D02*
X118068100Y-78449300D01*
X118068100Y-78449300D02*
X118068100Y-73174900D01*
X118068100Y-73174900D02*
X122897800Y-68345200D01*
X122897800Y-68345200D02*
X122897800Y-55534600D01*
X135890000Y-22860000D02*
X135890000Y-16314400D01*
X135890000Y-16314400D02*
X135034000Y-15458400D01*
X135034000Y-15458400D02*
X134215400Y-15458400D01*
X134215400Y-15458400D02*
X127359900Y-22313900D01*
X127359900Y-22313900D02*
X127359900Y-42422000D01*
X127359900Y-42422000D02*
X124409000Y-45372900D01*
X124409000Y-45372900D02*
X124409000Y-55438600D01*
X115570000Y-105265300D02*
X110059400Y-110775900D01*
X110059400Y-110775900D02*
X110059400Y-126264800D01*
X110059400Y-126264800D02*
X110417400Y-126622800D01*
X110417400Y-126622800D02*
X110417400Y-145297800D01*
X110417400Y-145297800D02*
X108331900Y-147383300D01*
X108331900Y-147383300D02*
X96763700Y-147383300D01*
X96763700Y-147383300D02*
X87630000Y-138249600D01*
X87630000Y-138249600D02*
X87630000Y-134620000D01*
X59690000Y-134620000D02*
X59690000Y-124807100D01*
X59690000Y-124807100D02*
X62973500Y-121523600D01*
X115570000Y-104140000D02*
X115570000Y-103014700D01*
X115570000Y-104702600D02*
X115570000Y-104140000D01*
X21590000Y-104140000D02*
X21590000Y-103014700D01*
X21590000Y-103014700D02*
X20464700Y-101889400D01*
X20464700Y-101889400D02*
X20464700Y-92281000D01*
X20464700Y-92281000D02*
X17053400Y-88869700D01*
X17053400Y-88869700D02*
X17053400Y-83823000D01*
X17053400Y-83823000D02*
X15332200Y-82101800D01*
X15332200Y-82101800D02*
X15332200Y-77837600D01*
X15332200Y-77837600D02*
X13739200Y-76244600D01*
X13739200Y-76244600D02*
X12258700Y-76244600D01*
X12258700Y-76244600D02*
X11430000Y-75415900D01*
X11430000Y-75415900D02*
X11430000Y-63500000D01*
X115570000Y-104702600D02*
X115570000Y-105265300D01*
%TO.N,addr7*%
X153670000Y-55880000D02*
X153670000Y-54754700D01*
X185420000Y-22860000D02*
X185420000Y-23985300D01*
X185420000Y-23985300D02*
X185138700Y-23985300D01*
X185138700Y-23985300D02*
X179070000Y-30054000D01*
X179070000Y-30054000D02*
X179070000Y-30841900D01*
X179070000Y-30841900D02*
X164186400Y-45725500D01*
X164186400Y-45725500D02*
X162699200Y-45725500D01*
X162699200Y-45725500D02*
X153670000Y-54754700D01*
X153670000Y-55880000D02*
X153670000Y-57005300D01*
X168910000Y-96520000D02*
X168910000Y-93074900D01*
X168910000Y-93074900D02*
X157706300Y-81871200D01*
X157706300Y-81871200D02*
X157706300Y-61041600D01*
X157706300Y-61041600D02*
X153670000Y-57005300D01*
X121825300Y-144780000D02*
X121825300Y-145147300D01*
X121825300Y-145147300D02*
X124907700Y-148229700D01*
X124907700Y-148229700D02*
X140440600Y-148229700D01*
X140440600Y-148229700D02*
X167495400Y-121174900D01*
X167495400Y-121174900D02*
X167495400Y-102959900D01*
X167495400Y-102959900D02*
X168910000Y-101545300D01*
X168910000Y-101545300D02*
X168910000Y-96520000D01*
X120650000Y-144780000D02*
X121825300Y-144780000D01*
%TO.N,addr6*%
X166370000Y-95394700D02*
X166369900Y-95394700D01*
X166369900Y-95394700D02*
X166369900Y-91808700D01*
X166369900Y-91808700D02*
X156022900Y-81461700D01*
X156022900Y-81461700D02*
X156022900Y-63016100D01*
X156022900Y-63016100D02*
X151958300Y-58951500D01*
X151958300Y-58951500D02*
X151958300Y-58259700D01*
X151958300Y-58259700D02*
X151130100Y-57431500D01*
X151130100Y-57431500D02*
X151130000Y-57431500D01*
X151130000Y-57431500D02*
X151130000Y-57005300D01*
X124365300Y-144780000D02*
X124365300Y-145147300D01*
X124365300Y-145147300D02*
X126976000Y-147758000D01*
X126976000Y-147758000D02*
X140219100Y-147758000D01*
X140219100Y-147758000D02*
X162560000Y-125417100D01*
X162560000Y-125417100D02*
X162560000Y-101455300D01*
X162560000Y-101455300D02*
X166370000Y-97645300D01*
X123190000Y-144780000D02*
X124365300Y-144780000D01*
X166370000Y-96520000D02*
X166370000Y-97645300D01*
X166370000Y-95957300D02*
X166370000Y-96520000D01*
X166370000Y-95957300D02*
X166370000Y-95394700D01*
X151130000Y-55880000D02*
X151130000Y-57005300D01*
X182880000Y-23985300D02*
X182692200Y-23985300D01*
X182692200Y-23985300D02*
X176530000Y-30147500D01*
X176530000Y-30147500D02*
X176530000Y-30856900D01*
X176530000Y-30856900D02*
X152255300Y-55131600D01*
X152255300Y-55131600D02*
X152255300Y-55880000D01*
X151130000Y-55880000D02*
X152255300Y-55880000D01*
X182880000Y-22860000D02*
X182880000Y-23985300D01*
%TO.N,addr5*%
X163830000Y-95394700D02*
X159268100Y-90832800D01*
X159268100Y-90832800D02*
X159268100Y-87677500D01*
X159268100Y-87677500D02*
X149715300Y-78124700D01*
X149715300Y-78124700D02*
X149715300Y-55880000D01*
X163830000Y-96520000D02*
X163830000Y-95394700D01*
X148590000Y-55880000D02*
X149715300Y-55880000D01*
X180340000Y-22860000D02*
X180340000Y-23985300D01*
X180340000Y-23985300D02*
X180058700Y-23985300D01*
X180058700Y-23985300D02*
X173990000Y-30054000D01*
X173990000Y-30054000D02*
X173990000Y-30808100D01*
X173990000Y-30808100D02*
X149715300Y-55082800D01*
X149715300Y-55082800D02*
X149715300Y-55880000D01*
%TO.N,addr4*%
X161290000Y-95394700D02*
X158592700Y-92697400D01*
X158592700Y-92697400D02*
X158592700Y-87639000D01*
X158592700Y-87639000D02*
X147175300Y-76221600D01*
X147175300Y-76221600D02*
X147175300Y-55880000D01*
X161290000Y-96520000D02*
X161290000Y-95394700D01*
X129445300Y-144780000D02*
X129445300Y-145147300D01*
X129445300Y-145147300D02*
X131605700Y-147307700D01*
X131605700Y-147307700D02*
X140032500Y-147307700D01*
X140032500Y-147307700D02*
X160164700Y-127175500D01*
X160164700Y-127175500D02*
X160164700Y-98770600D01*
X160164700Y-98770600D02*
X161290000Y-97645300D01*
X161290000Y-96520000D02*
X161290000Y-97645300D01*
X128270000Y-144780000D02*
X129445300Y-144780000D01*
X146050000Y-55880000D02*
X147175300Y-55880000D01*
X177800000Y-22860000D02*
X177800000Y-23985300D01*
X177800000Y-23985300D02*
X177518700Y-23985300D01*
X177518700Y-23985300D02*
X171450000Y-30054000D01*
X171450000Y-30054000D02*
X171450000Y-30839500D01*
X171450000Y-30839500D02*
X147175300Y-55114200D01*
X147175300Y-55114200D02*
X147175300Y-55880000D01*
%TO.N,addr3*%
X158750000Y-95394700D02*
X157627600Y-95394700D01*
X157627600Y-95394700D02*
X145710200Y-83477300D01*
X145710200Y-83477300D02*
X145710200Y-78628000D01*
X145710200Y-78628000D02*
X144635300Y-77553100D01*
X144635300Y-77553100D02*
X144635300Y-58130600D01*
X144635300Y-58130600D02*
X143510000Y-57005300D01*
X175260000Y-22860000D02*
X175260000Y-23985300D01*
X143510000Y-55880000D02*
X143510000Y-54754700D01*
X143510000Y-54754700D02*
X144434200Y-54754700D01*
X144434200Y-54754700D02*
X167191500Y-31997400D01*
X167191500Y-31997400D02*
X167728600Y-31997400D01*
X167728600Y-31997400D02*
X168910000Y-30816000D01*
X168910000Y-30816000D02*
X168910000Y-30054000D01*
X168910000Y-30054000D02*
X174978700Y-23985300D01*
X174978700Y-23985300D02*
X175260000Y-23985300D01*
X143510000Y-55949200D02*
X143510000Y-55880000D01*
X143510000Y-55949200D02*
X143510000Y-57005300D01*
X158750000Y-96520000D02*
X158750000Y-95394700D01*
X158750000Y-96520000D02*
X158750000Y-97645300D01*
X130810000Y-144780000D02*
X131985300Y-144780000D01*
X131985300Y-144780000D02*
X131985300Y-145147400D01*
X131985300Y-145147400D02*
X133695300Y-146857400D01*
X133695300Y-146857400D02*
X139845900Y-146857400D01*
X139845900Y-146857400D02*
X157624700Y-129078600D01*
X157624700Y-129078600D02*
X157624700Y-98770600D01*
X157624700Y-98770600D02*
X158750000Y-97645300D01*
%TO.N,addr2*%
X156210000Y-95394700D02*
X156210000Y-94614000D01*
X156210000Y-94614000D02*
X145259900Y-83663900D01*
X145259900Y-83663900D02*
X145259900Y-78815600D01*
X145259900Y-78815600D02*
X142240000Y-75795700D01*
X142240000Y-75795700D02*
X142240000Y-56496800D01*
X142240000Y-56496800D02*
X141640300Y-55897100D01*
X141640300Y-55897100D02*
X144935100Y-52602300D01*
X144935100Y-52602300D02*
X145704100Y-52602300D01*
X145704100Y-52602300D02*
X166370000Y-31936400D01*
X166370000Y-31936400D02*
X166370000Y-30054000D01*
X166370000Y-30054000D02*
X172438700Y-23985300D01*
X172438700Y-23985300D02*
X172720000Y-23985300D01*
X141640300Y-55897100D02*
X141549800Y-55897100D01*
X141549800Y-55897100D02*
X141532700Y-55880000D01*
X172720000Y-22860000D02*
X172720000Y-23985300D01*
X156210000Y-96520000D02*
X156210000Y-97645300D01*
X133350000Y-144780000D02*
X134525300Y-144780000D01*
X134525300Y-144780000D02*
X134525300Y-145147300D01*
X134525300Y-145147300D02*
X135785000Y-146407000D01*
X135785000Y-146407000D02*
X139659400Y-146407000D01*
X139659400Y-146407000D02*
X155084700Y-130981700D01*
X155084700Y-130981700D02*
X155084700Y-98770600D01*
X155084700Y-98770600D02*
X156210000Y-97645300D01*
X156210000Y-96520000D02*
X156210000Y-95394700D01*
X140970000Y-55880000D02*
X141532700Y-55880000D01*
%TO.N,addr1*%
X153670000Y-96520000D02*
X153670000Y-97645300D01*
X135890000Y-144780000D02*
X137065300Y-144780000D01*
X137065300Y-144780000D02*
X137065300Y-145588000D01*
X137065300Y-145588000D02*
X137432700Y-145955400D01*
X137432700Y-145955400D02*
X139474100Y-145955400D01*
X139474100Y-145955400D02*
X152544700Y-132884800D01*
X152544700Y-132884800D02*
X152544700Y-98770600D01*
X152544700Y-98770600D02*
X153670000Y-97645300D01*
X138430000Y-55880000D02*
X138430000Y-57005300D01*
X153670000Y-96520000D02*
X153670000Y-93347800D01*
X153670000Y-93347800D02*
X139555300Y-79233100D01*
X139555300Y-79233100D02*
X139555300Y-58130600D01*
X139555300Y-58130600D02*
X138430000Y-57005300D01*
X138430000Y-55880000D02*
X138430000Y-54754700D01*
X138430000Y-54754700D02*
X139308000Y-54754700D01*
X139308000Y-54754700D02*
X161231000Y-32831700D01*
X161231000Y-32831700D02*
X162284800Y-32831700D01*
X162284800Y-32831700D02*
X163685400Y-31431100D01*
X163685400Y-31431100D02*
X163685400Y-30198600D01*
X163685400Y-30198600D02*
X169898700Y-23985300D01*
X169898700Y-23985300D02*
X170180000Y-23985300D01*
X170180000Y-22860000D02*
X170180000Y-23985300D01*
%TO.N,addr0*%
X151130000Y-97645300D02*
X150004700Y-98770600D01*
X150004700Y-98770600D02*
X150004700Y-132030000D01*
X150004700Y-132030000D02*
X138430000Y-143604700D01*
X135890000Y-56428200D02*
X144841900Y-47476300D01*
X144841900Y-47476300D02*
X144841900Y-44394600D01*
X144841900Y-44394600D02*
X152400000Y-36836500D01*
X152400000Y-36836500D02*
X152400000Y-28865000D01*
X152400000Y-28865000D02*
X159541100Y-21723900D01*
X135890000Y-56428200D02*
X135890000Y-57005300D01*
X135890000Y-55880000D02*
X135890000Y-56428200D01*
X135890000Y-57005300D02*
X137015300Y-58130600D01*
X137015300Y-58130600D02*
X137015300Y-77330000D01*
X137015300Y-77330000D02*
X151130000Y-91444700D01*
X151130000Y-91444700D02*
X151130000Y-96520000D01*
X151130000Y-97082600D02*
X151130000Y-96520000D01*
X151130000Y-97082600D02*
X151130000Y-97645300D01*
X138430000Y-144780000D02*
X138430000Y-143604700D01*
%TO.N,addr15*%
X119380000Y-57005300D02*
X118254700Y-58130600D01*
X118254700Y-58130600D02*
X118254700Y-71396200D01*
X118254700Y-71396200D02*
X117116500Y-72534400D01*
X117116500Y-72534400D02*
X117116500Y-76458000D01*
X117116500Y-76458000D02*
X110490000Y-83084500D01*
X110490000Y-83084500D02*
X110490000Y-84246000D01*
X110490000Y-84246000D02*
X99341300Y-95394700D01*
X99341300Y-95394700D02*
X99060000Y-95394700D01*
X99060000Y-96520000D02*
X99060000Y-95394700D01*
X119380000Y-55880000D02*
X119380000Y-57005300D01*
X119380000Y-55317300D02*
X119380000Y-55880000D01*
X99060000Y-96520000D02*
X99060000Y-97645300D01*
X96520000Y-144780000D02*
X97695300Y-144780000D01*
X97695300Y-144780000D02*
X97695300Y-145147300D01*
X97695300Y-145147300D02*
X98976100Y-146428100D01*
X98976100Y-146428100D02*
X106698300Y-146428100D01*
X106698300Y-146428100D02*
X107857800Y-145268600D01*
X107857800Y-145268600D02*
X107857800Y-106443100D01*
X107857800Y-106443100D02*
X99060000Y-97645300D01*
X119380000Y-55317300D02*
X119380000Y-54754700D01*
X119380000Y-23985300D02*
X122332600Y-26937900D01*
X122332600Y-26937900D02*
X122332600Y-43458900D01*
X122332600Y-43458900D02*
X119380000Y-46411500D01*
X119380000Y-46411500D02*
X119380000Y-54754700D01*
X119380000Y-22860000D02*
X119380000Y-23985300D01*
%TO.N,addr14*%
X116840000Y-57005300D02*
X115714700Y-58130600D01*
X115714700Y-58130600D02*
X115714700Y-77074800D01*
X115714700Y-77074800D02*
X110520200Y-82269300D01*
X110520200Y-82269300D02*
X109176000Y-82269300D01*
X109176000Y-82269300D02*
X107950000Y-83495300D01*
X107950000Y-83495300D02*
X107950000Y-84246000D01*
X107950000Y-84246000D02*
X96801300Y-95394700D01*
X96801300Y-95394700D02*
X96520000Y-95394700D01*
X96520000Y-96520000D02*
X96520000Y-95394700D01*
X116840000Y-55880000D02*
X116840000Y-57005300D01*
X116840000Y-55317300D02*
X116840000Y-55880000D01*
X116840000Y-55317300D02*
X116840000Y-54754700D01*
X96520000Y-96520000D02*
X96520000Y-97645300D01*
X105994100Y-128240500D02*
X107148800Y-127085800D01*
X107148800Y-127085800D02*
X107148800Y-108274100D01*
X107148800Y-108274100D02*
X96520000Y-97645300D01*
X116840000Y-23985300D02*
X121875300Y-29020600D01*
X121875300Y-29020600D02*
X121875300Y-41674800D01*
X121875300Y-41674800D02*
X116840000Y-46710100D01*
X116840000Y-46710100D02*
X116840000Y-54754700D01*
X116840000Y-22860000D02*
X116840000Y-23985300D01*
%TO.N,addr13*%
X93980000Y-97645300D02*
X94261300Y-97645300D01*
X94261300Y-97645300D02*
X106689100Y-110073100D01*
X106689100Y-110073100D02*
X106689100Y-117376000D01*
X106689100Y-117376000D02*
X105910500Y-118154600D01*
X105910500Y-118154600D02*
X104350200Y-118154600D01*
X104350200Y-118154600D02*
X104184600Y-118320200D01*
X104184600Y-118320200D02*
X104184600Y-142756700D01*
X104184600Y-142756700D02*
X104873500Y-143445600D01*
X114300000Y-23985300D02*
X115454100Y-25139400D01*
X115454100Y-25139400D02*
X115454100Y-45247500D01*
X115454100Y-45247500D02*
X114300000Y-46401600D01*
X114300000Y-46401600D02*
X114300000Y-55880000D01*
X93980000Y-96520000D02*
X93980000Y-97645300D01*
X93980000Y-95394700D02*
X100132000Y-89242700D01*
X100132000Y-89242700D02*
X100132000Y-77135000D01*
X100132000Y-77135000D02*
X113174700Y-64092300D01*
X113174700Y-64092300D02*
X113174700Y-58130600D01*
X113174700Y-58130600D02*
X114300000Y-57005300D01*
X93980000Y-96520000D02*
X93980000Y-95394700D01*
X114300000Y-55880000D02*
X114300000Y-57005300D01*
X114300000Y-22860000D02*
X114300000Y-23985300D01*
%TO.N,addr12*%
X91440000Y-96520000D02*
X91440000Y-97645300D01*
X104140000Y-144780000D02*
X104140000Y-143604700D01*
X104140000Y-143604700D02*
X88941000Y-128405700D01*
X88941000Y-128405700D02*
X88941000Y-109448100D01*
X88941000Y-109448100D02*
X90314700Y-108074400D01*
X90314700Y-108074400D02*
X90314700Y-98770600D01*
X90314700Y-98770600D02*
X91440000Y-97645300D01*
X111760000Y-22860000D02*
X111760000Y-23985300D01*
X111760000Y-55880000D02*
X111760000Y-34135700D01*
X111760000Y-34135700D02*
X112885300Y-33010400D01*
X112885300Y-33010400D02*
X112885300Y-25110600D01*
X112885300Y-25110600D02*
X111760000Y-23985300D01*
X111760000Y-56442600D02*
X111760000Y-55880000D01*
X111760000Y-56442600D02*
X111760000Y-57005300D01*
X111760000Y-57005300D02*
X110375900Y-58389400D01*
X110375900Y-58389400D02*
X110375900Y-65359400D01*
X110375900Y-65359400D02*
X99681700Y-76053600D01*
X99681700Y-76053600D02*
X99681700Y-87153000D01*
X99681700Y-87153000D02*
X91440000Y-95394700D01*
X91440000Y-96520000D02*
X91440000Y-95394700D01*
%TO.N,addr11*%
X88900000Y-96520000D02*
X88900000Y-97645300D01*
X106680000Y-144780000D02*
X105504700Y-144780000D01*
X105504700Y-144780000D02*
X105504700Y-145147300D01*
X105504700Y-145147300D02*
X104680600Y-145971400D01*
X104680600Y-145971400D02*
X103644000Y-145971400D01*
X103644000Y-145971400D02*
X102870000Y-145197400D01*
X102870000Y-145197400D02*
X102870000Y-143604600D01*
X102870000Y-143604600D02*
X87774700Y-128509300D01*
X87774700Y-128509300D02*
X87774700Y-98770600D01*
X87774700Y-98770600D02*
X88900000Y-97645300D01*
X109220000Y-23985300D02*
X110366400Y-25131700D01*
X110366400Y-25131700D02*
X110366400Y-44528900D01*
X110366400Y-44528900D02*
X109220000Y-45675300D01*
X109220000Y-45675300D02*
X109220000Y-55880000D01*
X88900000Y-96520000D02*
X88900000Y-95394700D01*
X109220000Y-55880000D02*
X109220000Y-57005300D01*
X109220000Y-57005300D02*
X108094700Y-58130600D01*
X108094700Y-58130600D02*
X108094700Y-67003700D01*
X108094700Y-67003700D02*
X99231400Y-75867000D01*
X99231400Y-75867000D02*
X99231400Y-85063300D01*
X99231400Y-85063300D02*
X88900000Y-95394700D01*
X109220000Y-22860000D02*
X109220000Y-23985300D01*
%TO.N,addr10*%
X106680000Y-54754700D02*
X104234900Y-52309600D01*
X104234900Y-52309600D02*
X104234900Y-44927900D01*
X104234900Y-44927900D02*
X104597800Y-44565000D01*
X104597800Y-44565000D02*
X104597800Y-43964000D01*
X104597800Y-43964000D02*
X104183100Y-43549300D01*
X104183100Y-43549300D02*
X104183100Y-35510300D01*
X104183100Y-35510300D02*
X105540700Y-34152700D01*
X105540700Y-34152700D02*
X105540700Y-25124600D01*
X105540700Y-25124600D02*
X106680000Y-23985300D01*
X86360000Y-95394700D02*
X96203700Y-85551000D01*
X96203700Y-85551000D02*
X96203700Y-76772800D01*
X96203700Y-76772800D02*
X96814100Y-76162400D01*
X96814100Y-76162400D02*
X98299100Y-76162400D01*
X98299100Y-76162400D02*
X105554700Y-68906800D01*
X105554700Y-68906800D02*
X105554700Y-58130600D01*
X105554700Y-58130600D02*
X106680000Y-57005300D01*
X86360000Y-96520000D02*
X86360000Y-97645300D01*
X109220000Y-144780000D02*
X107067100Y-146932900D01*
X107067100Y-146932900D02*
X96950200Y-146932900D01*
X96950200Y-146932900D02*
X89632700Y-139615400D01*
X89632700Y-139615400D02*
X89632700Y-131668400D01*
X89632700Y-131668400D02*
X85234700Y-127270400D01*
X85234700Y-127270400D02*
X85234700Y-98770600D01*
X85234700Y-98770600D02*
X86360000Y-97645300D01*
X86360000Y-96520000D02*
X86360000Y-95394700D01*
X106680000Y-55880000D02*
X106680000Y-57005300D01*
X106680000Y-55880000D02*
X106680000Y-54754700D01*
X106680000Y-22860000D02*
X106680000Y-23985300D01*
%TO.N,addr9*%
X83820000Y-95394700D02*
X85505400Y-93709300D01*
X85505400Y-93709300D02*
X85505400Y-88865400D01*
X85505400Y-88865400D02*
X94852700Y-79518100D01*
X94852700Y-79518100D02*
X94852700Y-76134500D01*
X94852700Y-76134500D02*
X103014700Y-67972500D01*
X103014700Y-67972500D02*
X103014700Y-58130600D01*
X103014700Y-58130600D02*
X104140000Y-57005300D01*
X83820000Y-96520000D02*
X83820000Y-97645300D01*
X111760000Y-144780000D02*
X108691600Y-147848400D01*
X108691600Y-147848400D02*
X96576400Y-147848400D01*
X96576400Y-147848400D02*
X86360000Y-137632000D01*
X86360000Y-137632000D02*
X86360000Y-129663800D01*
X86360000Y-129663800D02*
X82694700Y-125998500D01*
X82694700Y-125998500D02*
X82694700Y-98770600D01*
X82694700Y-98770600D02*
X83820000Y-97645300D01*
X104140000Y-22860000D02*
X104140000Y-23985300D01*
X104140000Y-55880000D02*
X104140000Y-54754700D01*
X104140000Y-54754700D02*
X101702500Y-52317200D01*
X101702500Y-52317200D02*
X101702500Y-45958600D01*
X101702500Y-45958600D02*
X102725400Y-44935700D01*
X102725400Y-44935700D02*
X102725400Y-25399900D01*
X102725400Y-25399900D02*
X104140000Y-23985300D01*
X104140000Y-56442600D02*
X104140000Y-55880000D01*
X104140000Y-56442600D02*
X104140000Y-57005300D01*
X83820000Y-96520000D02*
X83820000Y-95394700D01*
%TO.N,addr8*%
X81280000Y-95394700D02*
X85055100Y-91619600D01*
X85055100Y-91619600D02*
X85055100Y-88678800D01*
X85055100Y-88678800D02*
X94402400Y-79331500D01*
X94402400Y-79331500D02*
X94402400Y-75947900D01*
X94402400Y-75947900D02*
X100474700Y-69875600D01*
X100474700Y-69875600D02*
X100474700Y-58130600D01*
X100474700Y-58130600D02*
X101600000Y-57005300D01*
X101600000Y-54754700D02*
X99175000Y-52329700D01*
X99175000Y-52329700D02*
X99175000Y-46337400D01*
X99175000Y-46337400D02*
X101151200Y-44361200D01*
X101151200Y-44361200D02*
X101151200Y-34862300D01*
X101151200Y-34862300D02*
X100467400Y-34178500D01*
X100467400Y-34178500D02*
X100467400Y-25117900D01*
X100467400Y-25117900D02*
X101600000Y-23985300D01*
X81280000Y-96520000D02*
X81280000Y-97645300D01*
X114300000Y-144780000D02*
X113124700Y-144780000D01*
X113124700Y-144780000D02*
X113124700Y-145147300D01*
X113124700Y-145147300D02*
X109966300Y-148305700D01*
X109966300Y-148305700D02*
X96396800Y-148305700D01*
X96396800Y-148305700D02*
X83746100Y-135655000D01*
X83746100Y-135655000D02*
X83746100Y-129494200D01*
X83746100Y-129494200D02*
X81757400Y-127505500D01*
X81757400Y-127505500D02*
X81757400Y-117142600D01*
X81757400Y-117142600D02*
X80154700Y-115539900D01*
X80154700Y-115539900D02*
X80154700Y-98770600D01*
X80154700Y-98770600D02*
X81280000Y-97645300D01*
X81280000Y-96520000D02*
X81280000Y-95394700D01*
X101600000Y-55880000D02*
X101600000Y-57005300D01*
X101600000Y-55880000D02*
X101600000Y-54754700D01*
X101600000Y-22860000D02*
X101600000Y-23985300D01*
%TO.N,Rrs7*%
X54610000Y-30480000D02*
X54610000Y-29059300D01*
X54610000Y-29059300D02*
X50909000Y-25358300D01*
X50909000Y-25358300D02*
X50909000Y-15707600D01*
X50909000Y-15707600D02*
X52425500Y-14191100D01*
X52425500Y-14191100D02*
X52425500Y-13590100D01*
X52425500Y-13590100D02*
X51993100Y-13157700D01*
X51993100Y-13157700D02*
X49622700Y-13157700D01*
X49622700Y-13157700D02*
X48831000Y-13949400D01*
X48831000Y-13949400D02*
X45112400Y-13949400D01*
X45112400Y-13949400D02*
X44920500Y-13757500D01*
%TO.N,Rrs6*%
X74468600Y-28379300D02*
X74987900Y-27860000D01*
X74987900Y-27860000D02*
X76109900Y-27860000D01*
X76109900Y-27860000D02*
X76534700Y-27435200D01*
X76534700Y-27435200D02*
X76534700Y-26834200D01*
X76534700Y-26834200D02*
X73756700Y-24056200D01*
X73756700Y-24056200D02*
X73756700Y-22382100D01*
X73756700Y-22382100D02*
X76463800Y-19675000D01*
X76463800Y-19675000D02*
X79132400Y-19675000D01*
X79132400Y-19675000D02*
X82659600Y-16147800D01*
X82659600Y-16147800D02*
X82659600Y-14929100D01*
X82659600Y-14929100D02*
X91534700Y-6054000D01*
X91534700Y-6054000D02*
X91534700Y-5080000D01*
X88814200Y-52857000D02*
X87718100Y-51760900D01*
X87718100Y-51760900D02*
X87718100Y-40218600D01*
X87718100Y-40218600D02*
X80996800Y-33497300D01*
X80996800Y-33497300D02*
X76300700Y-33497300D01*
X76300700Y-33497300D02*
X73800900Y-30997500D01*
X73800900Y-30997500D02*
X73800900Y-29047000D01*
X73800900Y-29047000D02*
X74468600Y-28379300D01*
X74468600Y-28379300D02*
X73340400Y-27251200D01*
X163830000Y-103014700D02*
X167495300Y-99349400D01*
X167495300Y-99349400D02*
X167495300Y-92297100D01*
X167495300Y-92297100D02*
X156527800Y-81329600D01*
X156527800Y-81329600D02*
X156527800Y-62080500D01*
X156527800Y-62080500D02*
X154475300Y-60028000D01*
X163830000Y-104140000D02*
X163830000Y-103014700D01*
X92710000Y-5080000D02*
X91534700Y-5080000D01*
%TO.N,Rrs5*%
X67138700Y-6342400D02*
X66129000Y-7352100D01*
X66129000Y-7352100D02*
X66129000Y-26330500D01*
X66129000Y-26330500D02*
X62904800Y-29554700D01*
X189628700Y-20105500D02*
X189628700Y-78003100D01*
X189628700Y-78003100D02*
X173543300Y-94088500D01*
%TO.N,Rrs4*%
X158750000Y-104140000D02*
X158750000Y-98282200D01*
X158750000Y-98282200D02*
X159883200Y-97149000D01*
X159883200Y-97149000D02*
X159883200Y-95117900D01*
X159883200Y-95117900D02*
X151479100Y-86713800D01*
X151479100Y-86713800D02*
X151479100Y-81935100D01*
X46990000Y-29354700D02*
X48743200Y-27601500D01*
X48743200Y-27601500D02*
X48743200Y-26564100D01*
X48743200Y-26564100D02*
X48359200Y-26180100D01*
X48359200Y-26180100D02*
X48359200Y-18442900D01*
X48359200Y-18442900D02*
X50452400Y-16349700D01*
X50452400Y-16349700D02*
X50452400Y-15138400D01*
X50452400Y-15138400D02*
X51700200Y-13890600D01*
X46990000Y-30480000D02*
X48115300Y-30480000D01*
X48115300Y-30480000D02*
X48115300Y-30761300D01*
X48115300Y-30761300D02*
X56768600Y-39414600D01*
X56768600Y-39414600D02*
X59492300Y-39414600D01*
X59492300Y-39414600D02*
X70975400Y-50897700D01*
X70975400Y-50897700D02*
X70975400Y-56215900D01*
X70975400Y-56215900D02*
X76055400Y-61295900D01*
X76055400Y-61295900D02*
X76055400Y-66401100D01*
X76055400Y-66401100D02*
X83783700Y-74129400D01*
X83783700Y-74129400D02*
X83783700Y-85360000D01*
X83783700Y-85360000D02*
X80557000Y-88586700D01*
X46990000Y-29917300D02*
X46990000Y-30480000D01*
X46990000Y-29917300D02*
X46990000Y-29354700D01*
%TO.N,Rrs3*%
X129904300Y-92198200D02*
X130624400Y-92198200D01*
X130624400Y-92198200D02*
X139867500Y-101441300D01*
X139867500Y-101441300D02*
X143232400Y-101441300D01*
X143232400Y-101441300D02*
X144132300Y-100541400D01*
X81135300Y-30480000D02*
X81135300Y-30198700D01*
X81135300Y-30198700D02*
X82016900Y-29317100D01*
X82016900Y-29317100D02*
X85599900Y-29317100D01*
X85599900Y-29317100D02*
X96293400Y-40010600D01*
X96293400Y-40010600D02*
X96293400Y-47488000D01*
X96293400Y-47488000D02*
X94304800Y-49476600D01*
X94304800Y-49476600D02*
X94304800Y-60775400D01*
X94304800Y-60775400D02*
X92601200Y-62479000D01*
X92601200Y-62479000D02*
X92601200Y-77948300D01*
X92601200Y-77948300D02*
X83253900Y-87295600D01*
X83253900Y-87295600D02*
X83253900Y-89390600D01*
X83253900Y-89390600D02*
X82583800Y-90060700D01*
X82583800Y-90060700D02*
X79881300Y-90060700D01*
X79881300Y-90060700D02*
X79464500Y-90477500D01*
X99154700Y-5080000D02*
X99154700Y-4712700D01*
X99154700Y-4712700D02*
X98326000Y-3884000D01*
X98326000Y-3884000D02*
X88360500Y-3884000D01*
X88360500Y-3884000D02*
X71215100Y-21029400D01*
X71215100Y-21029400D02*
X71215100Y-23366300D01*
X71215100Y-23366300D02*
X74983500Y-27134700D01*
X74983500Y-27134700D02*
X75809400Y-27134700D01*
X80010000Y-30480000D02*
X81135300Y-30480000D01*
X100330000Y-5080000D02*
X99154700Y-5080000D01*
%TO.N,Rrs2*%
X77470000Y-29354700D02*
X77470000Y-24854500D01*
X77470000Y-24854500D02*
X78642800Y-23681700D01*
X78642800Y-23681700D02*
X78642800Y-22590700D01*
X78642800Y-22590700D02*
X80251300Y-20982200D01*
X80251300Y-20982200D02*
X80735300Y-20982200D01*
X80735300Y-20982200D02*
X82155900Y-19561600D01*
X82155900Y-19561600D02*
X82155900Y-19295000D01*
X82155900Y-19295000D02*
X87364000Y-14086900D01*
X87364000Y-14086900D02*
X88586900Y-14086900D01*
X88586900Y-14086900D02*
X93778900Y-8894900D01*
X93778900Y-8894900D02*
X98247100Y-8894900D01*
X98247100Y-8894900D02*
X101694700Y-5447300D01*
X101694700Y-5447300D02*
X101694700Y-5080000D01*
X153670000Y-104140000D02*
X153670000Y-98359000D01*
X153670000Y-98359000D02*
X154803200Y-97225800D01*
X154803200Y-97225800D02*
X154803200Y-93844100D01*
X154803200Y-93844100D02*
X144312400Y-83353300D01*
X144312400Y-83353300D02*
X144312400Y-79812100D01*
X144312400Y-79812100D02*
X140897700Y-76397400D01*
X140897700Y-76397400D02*
X140897700Y-68947800D01*
X102282400Y-5080000D02*
X103908200Y-3454200D01*
X103908200Y-3454200D02*
X124311800Y-3454200D01*
X124311800Y-3454200D02*
X142095400Y-21237800D01*
X142095400Y-21237800D02*
X142095400Y-38249900D01*
X142095400Y-38249900D02*
X137157200Y-43188100D01*
X137157200Y-43188100D02*
X137157200Y-52277900D01*
X102282400Y-5080000D02*
X101694700Y-5080000D01*
X102870000Y-5080000D02*
X102282400Y-5080000D01*
X77470000Y-30480000D02*
X77470000Y-29354700D01*
%TO.N,Rrs1*%
X105410000Y-5080000D02*
X106585400Y-3904600D01*
X106585400Y-3904600D02*
X120087100Y-3904600D01*
X120087100Y-3904600D02*
X129797800Y-13615300D01*
X129797800Y-13615300D02*
X133836000Y-13615300D01*
X133836000Y-13615300D02*
X139607500Y-19386800D01*
X139607500Y-19386800D02*
X139607500Y-38549700D01*
X139607500Y-38549700D02*
X134768200Y-43389000D01*
X134768200Y-43389000D02*
X134768200Y-52456700D01*
X74930000Y-29354700D02*
X75252100Y-29354700D01*
X75252100Y-29354700D02*
X76985000Y-27621800D01*
X76985000Y-27621800D02*
X76985000Y-26647600D01*
X76985000Y-26647600D02*
X76277100Y-25939700D01*
X76277100Y-25939700D02*
X76277100Y-22389000D01*
X76277100Y-22389000D02*
X77323700Y-21342400D01*
X77323700Y-21342400D02*
X78255100Y-21342400D01*
X78255100Y-21342400D02*
X85961000Y-13636500D01*
X85961000Y-13636500D02*
X87856800Y-13636500D01*
X87856800Y-13636500D02*
X93323700Y-8169600D01*
X93323700Y-8169600D02*
X97618600Y-8169600D01*
X151233000Y-58560200D02*
X151233000Y-58941800D01*
X151233000Y-58941800D02*
X155526400Y-63235200D01*
X155526400Y-63235200D02*
X155526400Y-82373500D01*
X155526400Y-82373500D02*
X165496200Y-92343300D01*
X165496200Y-92343300D02*
X165496200Y-94133300D01*
X74930000Y-30480000D02*
X74930000Y-29354700D01*
%TO.N,Rrs0*%
X72390000Y-30480000D02*
X72390000Y-29354700D01*
X83692800Y-26624900D02*
X83692900Y-26624900D01*
X83692900Y-26624900D02*
X83692900Y-18394900D01*
X83692900Y-18394900D02*
X87386200Y-14701600D01*
X87386200Y-14701600D02*
X88776000Y-14701600D01*
X88776000Y-14701600D02*
X94132400Y-9345200D01*
X94132400Y-9345200D02*
X102876800Y-9345200D01*
X102876800Y-9345200D02*
X106774700Y-5447300D01*
X106774700Y-5447300D02*
X106774700Y-5080000D01*
X72390000Y-30480000D02*
X77067500Y-35157500D01*
X77067500Y-35157500D02*
X82020100Y-35157500D01*
X82020100Y-35157500D02*
X86817400Y-39954800D01*
X86817400Y-39954800D02*
X86817400Y-56321600D01*
X86817400Y-56321600D02*
X91395400Y-60899600D01*
X91395400Y-60899600D02*
X91395400Y-78517000D01*
X91395400Y-78517000D02*
X82528600Y-87383800D01*
X82528600Y-87383800D02*
X82528600Y-89090100D01*
X142705500Y-88032500D02*
X149726300Y-95053300D01*
X149726300Y-95053300D02*
X149726300Y-97473400D01*
X149726300Y-97473400D02*
X148590000Y-98609700D01*
X148590000Y-98609700D02*
X148590000Y-104140000D01*
X71457800Y-26770300D02*
X71457800Y-28422500D01*
X71457800Y-28422500D02*
X72390000Y-29354700D01*
X107950000Y-5080000D02*
X106774700Y-5080000D01*
%TO.N,C7*%
X11430000Y-22860000D02*
X12555300Y-22860000D01*
X31750000Y-6350000D02*
X30574700Y-6350000D01*
X30574700Y-6350000D02*
X15190000Y-21734700D01*
X15190000Y-21734700D02*
X13399200Y-21734700D01*
X13399200Y-21734700D02*
X12555300Y-22578600D01*
X12555300Y-22578600D02*
X12555300Y-22860000D01*
%TO.N,C6*%
X13970000Y-22860000D02*
X15095300Y-22860000D01*
X34290000Y-6350000D02*
X33114700Y-6350000D01*
X33114700Y-6350000D02*
X33114700Y-6937600D01*
X33114700Y-6937600D02*
X21222100Y-18830200D01*
X21222100Y-18830200D02*
X18932300Y-18830200D01*
X18932300Y-18830200D02*
X15095300Y-22667200D01*
X15095300Y-22667200D02*
X15095300Y-22860000D01*
%TO.N,C5*%
X21590000Y-22860000D02*
X21590000Y-21734700D01*
X36830000Y-6350000D02*
X36830000Y-7525300D01*
X36830000Y-7525300D02*
X22620600Y-21734700D01*
X22620600Y-21734700D02*
X21590000Y-21734700D01*
%TO.N,C4*%
X39370000Y-6350000D02*
X39370000Y-7525300D01*
X24130000Y-22860000D02*
X24130000Y-21734700D01*
X39370000Y-7525300D02*
X38339400Y-7525300D01*
X38339400Y-7525300D02*
X24130000Y-21734700D01*
%TO.N,C3*%
X41910000Y-6350000D02*
X40734700Y-6350000D01*
X24130000Y-30480000D02*
X24130000Y-24829200D01*
X24130000Y-24829200D02*
X25319600Y-23639600D01*
X25319600Y-23639600D02*
X25319600Y-22540600D01*
X25319600Y-22540600D02*
X40734700Y-7125500D01*
X40734700Y-7125500D02*
X40734700Y-6350000D01*
%TO.N,C2*%
X21590000Y-30480000D02*
X21590000Y-29354700D01*
X44450000Y-6350000D02*
X43274700Y-6350000D01*
X43274700Y-6350000D02*
X43274700Y-5987600D01*
X43274700Y-5987600D02*
X42461800Y-5174700D01*
X42461800Y-5174700D02*
X38821000Y-5174700D01*
X38821000Y-5174700D02*
X38194600Y-5801100D01*
X38194600Y-5801100D02*
X38194600Y-6995100D01*
X38194600Y-6995100D02*
X22715300Y-22474400D01*
X22715300Y-22474400D02*
X22715300Y-28229400D01*
X22715300Y-28229400D02*
X21590000Y-29354700D01*
%TO.N,C1*%
X13970000Y-29354700D02*
X17780000Y-25544700D01*
X17780000Y-25544700D02*
X17780000Y-22513300D01*
X17780000Y-22513300D02*
X19009000Y-21284300D01*
X19009000Y-21284300D02*
X21019900Y-21284300D01*
X21019900Y-21284300D02*
X35560000Y-6744200D01*
X35560000Y-6744200D02*
X35560000Y-5951600D01*
X35560000Y-5951600D02*
X36787200Y-4724400D01*
X36787200Y-4724400D02*
X44556500Y-4724400D01*
X44556500Y-4724400D02*
X45814700Y-5982600D01*
X45814700Y-5982600D02*
X45814700Y-6350000D01*
X46990000Y-6350000D02*
X45814700Y-6350000D01*
X13970000Y-30480000D02*
X13970000Y-29354700D01*
%TO.N,C0*%
X11430000Y-30480000D02*
X11430000Y-29354700D01*
X49530000Y-6350000D02*
X48354700Y-6350000D01*
X48354700Y-6350000D02*
X48354700Y-5982700D01*
X48354700Y-5982700D02*
X46643700Y-4271700D01*
X46643700Y-4271700D02*
X27665800Y-4271700D01*
X27665800Y-4271700D02*
X10304700Y-21632800D01*
X10304700Y-21632800D02*
X10304700Y-28229400D01*
X10304700Y-28229400D02*
X11430000Y-29354700D01*
%TO.N,Net-(U1-Pad10)*%
X69850000Y-22860000D02*
X69850000Y-8027900D01*
X69850000Y-8027900D02*
X67380800Y-5558700D01*
X67380800Y-5558700D02*
X65526000Y-5558700D01*
X65526000Y-5558700D02*
X57150000Y-13934700D01*
X57150000Y-13934700D02*
X57150000Y-22860000D01*
%TO.N,Net-(D0-Pad2)*%
X120650000Y-38100000D02*
X120650000Y-28730900D01*
X120650000Y-28730900D02*
X115570000Y-23650900D01*
X115570000Y-23650900D02*
X115570000Y-22528100D01*
X115570000Y-22528100D02*
X103409100Y-10367200D01*
X103409100Y-10367200D02*
X93747300Y-10367200D01*
X93747300Y-10367200D02*
X90730100Y-13384400D01*
X90730100Y-13384400D02*
X90730100Y-18797800D01*
X90730100Y-18797800D02*
X86804800Y-22723100D01*
%TO.N,Net-(D0-Pad1)*%
X100330000Y-49530000D02*
X100330000Y-48404700D01*
X100330000Y-48404700D02*
X101045900Y-47688800D01*
X101045900Y-47688800D02*
X101045900Y-45492200D01*
%TO.N,Net-(U11-Pad8)*%
X29210000Y-22860000D02*
X38507100Y-22860000D01*
X38507100Y-22860000D02*
X45720000Y-30072900D01*
X45720000Y-30072900D02*
X45720000Y-30951800D01*
X45720000Y-30951800D02*
X55274200Y-40506000D01*
X55274200Y-40506000D02*
X55274200Y-42143400D01*
%TO.N,Net-(U11-Pad10)*%
X168910000Y-63500000D02*
X168910000Y-62374700D01*
X168910000Y-62374700D02*
X173990000Y-57294700D01*
X173990000Y-57294700D02*
X173990000Y-55880000D01*
%TD*%
M02*
