%TF.GenerationSoftware,KiCad,Pcbnew,5.1.6-c6e7f7d~87~ubuntu16.04.1*%
%TF.CreationDate,2020-11-24T00:27:49-05:00*%
%TF.ProjectId,riscy_pc_ir_sp,72697363-795f-4706-935f-69725f73702e,rev?*%
%TF.SameCoordinates,Original*%
%TF.FileFunction,Soldermask,Top*%
%TF.FilePolarity,Negative*%
%FSLAX46Y46*%
G04 Gerber Fmt 4.6, Leading zero omitted, Abs format (unit mm)*
G04 Created by KiCad (PCBNEW 5.1.6-c6e7f7d~87~ubuntu16.04.1) date 2020-11-24 00:27:49*
%MOMM*%
%LPD*%
G01*
G04 APERTURE LIST*
%ADD10O,1.700000X1.700000*%
%ADD11R,1.700000X1.700000*%
%ADD12C,2.100000*%
%ADD13O,1.500000X1.500000*%
%ADD14C,1.500000*%
%ADD15O,1.800000X1.800000*%
%ADD16R,1.800000X1.800000*%
%ADD17C,1.900000*%
%ADD18R,1.900000X1.900000*%
%ADD19C,1.700000*%
G04 APERTURE END LIST*
D10*
%TO.C,SW14*%
X69850000Y-134620000D03*
X87630000Y-142240000D03*
X72390000Y-134620000D03*
X85090000Y-142240000D03*
X74930000Y-134620000D03*
X82550000Y-142240000D03*
X77470000Y-134620000D03*
X80010000Y-142240000D03*
X80010000Y-134620000D03*
X77470000Y-142240000D03*
X82550000Y-134620000D03*
X74930000Y-142240000D03*
X85090000Y-134620000D03*
X72390000Y-142240000D03*
X87630000Y-134620000D03*
D11*
X69850000Y-142240000D03*
%TD*%
D10*
%TO.C,U16*%
X16510000Y-96520000D03*
X39370000Y-104140000D03*
X19050000Y-96520000D03*
X36830000Y-104140000D03*
X21590000Y-96520000D03*
X34290000Y-104140000D03*
X24130000Y-96520000D03*
X31750000Y-104140000D03*
X26670000Y-96520000D03*
X29210000Y-104140000D03*
X29210000Y-96520000D03*
X26670000Y-104140000D03*
X31750000Y-96520000D03*
X24130000Y-104140000D03*
X34290000Y-96520000D03*
X21590000Y-104140000D03*
X36830000Y-96520000D03*
X19050000Y-104140000D03*
X39370000Y-96520000D03*
D11*
X16510000Y-104140000D03*
%TD*%
D10*
%TO.C,U15*%
X130810000Y-55880000D03*
X153670000Y-63500000D03*
X133350000Y-55880000D03*
X151130000Y-63500000D03*
X135890000Y-55880000D03*
X148590000Y-63500000D03*
X138430000Y-55880000D03*
X146050000Y-63500000D03*
X140970000Y-55880000D03*
X143510000Y-63500000D03*
X143510000Y-55880000D03*
X140970000Y-63500000D03*
X146050000Y-55880000D03*
X138430000Y-63500000D03*
X148590000Y-55880000D03*
X135890000Y-63500000D03*
X151130000Y-55880000D03*
X133350000Y-63500000D03*
X153670000Y-55880000D03*
D11*
X130810000Y-63500000D03*
%TD*%
D10*
%TO.C,U14*%
X67310000Y-55880000D03*
X85090000Y-63500000D03*
X69850000Y-55880000D03*
X82550000Y-63500000D03*
X72390000Y-55880000D03*
X80010000Y-63500000D03*
X74930000Y-55880000D03*
X77470000Y-63500000D03*
X77470000Y-55880000D03*
X74930000Y-63500000D03*
X80010000Y-55880000D03*
X72390000Y-63500000D03*
X82550000Y-55880000D03*
X69850000Y-63500000D03*
X85090000Y-55880000D03*
D11*
X67310000Y-63500000D03*
%TD*%
D10*
%TO.C,U13*%
X41910000Y-55880000D03*
X59690000Y-63500000D03*
X44450000Y-55880000D03*
X57150000Y-63500000D03*
X46990000Y-55880000D03*
X54610000Y-63500000D03*
X49530000Y-55880000D03*
X52070000Y-63500000D03*
X52070000Y-55880000D03*
X49530000Y-63500000D03*
X54610000Y-55880000D03*
X46990000Y-63500000D03*
X57150000Y-55880000D03*
X44450000Y-63500000D03*
X59690000Y-55880000D03*
D11*
X41910000Y-63500000D03*
%TD*%
D10*
%TO.C,U12*%
X146050000Y-96520000D03*
X168910000Y-104140000D03*
X148590000Y-96520000D03*
X166370000Y-104140000D03*
X151130000Y-96520000D03*
X163830000Y-104140000D03*
X153670000Y-96520000D03*
X161290000Y-104140000D03*
X156210000Y-96520000D03*
X158750000Y-104140000D03*
X158750000Y-96520000D03*
X156210000Y-104140000D03*
X161290000Y-96520000D03*
X153670000Y-104140000D03*
X163830000Y-96520000D03*
X151130000Y-104140000D03*
X166370000Y-96520000D03*
X148590000Y-104140000D03*
X168910000Y-96520000D03*
D11*
X146050000Y-104140000D03*
%TD*%
D10*
%TO.C,U11*%
X163830000Y-55880000D03*
X179070000Y-63500000D03*
X166370000Y-55880000D03*
X176530000Y-63500000D03*
X168910000Y-55880000D03*
X173990000Y-63500000D03*
X171450000Y-55880000D03*
X171450000Y-63500000D03*
X173990000Y-55880000D03*
X168910000Y-63500000D03*
X176530000Y-55880000D03*
X166370000Y-63500000D03*
X179070000Y-55880000D03*
D11*
X163830000Y-63500000D03*
%TD*%
D10*
%TO.C,U10*%
X96520000Y-55880000D03*
X119380000Y-63500000D03*
X99060000Y-55880000D03*
X116840000Y-63500000D03*
X101600000Y-55880000D03*
X114300000Y-63500000D03*
X104140000Y-55880000D03*
X111760000Y-63500000D03*
X106680000Y-55880000D03*
X109220000Y-63500000D03*
X109220000Y-55880000D03*
X106680000Y-63500000D03*
X111760000Y-55880000D03*
X104140000Y-63500000D03*
X114300000Y-55880000D03*
X101600000Y-63500000D03*
X116840000Y-55880000D03*
X99060000Y-63500000D03*
X119380000Y-55880000D03*
D11*
X96520000Y-63500000D03*
%TD*%
D10*
%TO.C,U9*%
X6350000Y-55880000D03*
X29210000Y-63500000D03*
X8890000Y-55880000D03*
X26670000Y-63500000D03*
X11430000Y-55880000D03*
X24130000Y-63500000D03*
X13970000Y-55880000D03*
X21590000Y-63500000D03*
X16510000Y-55880000D03*
X19050000Y-63500000D03*
X19050000Y-55880000D03*
X16510000Y-63500000D03*
X21590000Y-55880000D03*
X13970000Y-63500000D03*
X24130000Y-55880000D03*
X11430000Y-63500000D03*
X26670000Y-55880000D03*
X8890000Y-63500000D03*
X29210000Y-55880000D03*
D11*
X6350000Y-63500000D03*
%TD*%
D10*
%TO.C,U8*%
X76200000Y-96520000D03*
X99060000Y-104140000D03*
X78740000Y-96520000D03*
X96520000Y-104140000D03*
X81280000Y-96520000D03*
X93980000Y-104140000D03*
X83820000Y-96520000D03*
X91440000Y-104140000D03*
X86360000Y-96520000D03*
X88900000Y-104140000D03*
X88900000Y-96520000D03*
X86360000Y-104140000D03*
X91440000Y-96520000D03*
X83820000Y-104140000D03*
X93980000Y-96520000D03*
X81280000Y-104140000D03*
X96520000Y-96520000D03*
X78740000Y-104140000D03*
X99060000Y-96520000D03*
D11*
X76200000Y-104140000D03*
%TD*%
D10*
%TO.C,U7*%
X110490000Y-96520000D03*
X133350000Y-104140000D03*
X113030000Y-96520000D03*
X130810000Y-104140000D03*
X115570000Y-96520000D03*
X128270000Y-104140000D03*
X118110000Y-96520000D03*
X125730000Y-104140000D03*
X120650000Y-96520000D03*
X123190000Y-104140000D03*
X123190000Y-96520000D03*
X120650000Y-104140000D03*
X125730000Y-96520000D03*
X118110000Y-104140000D03*
X128270000Y-96520000D03*
X115570000Y-104140000D03*
X130810000Y-96520000D03*
X113030000Y-104140000D03*
X133350000Y-96520000D03*
D11*
X110490000Y-104140000D03*
%TD*%
D10*
%TO.C,U6*%
X96520000Y-22860000D03*
X119380000Y-30480000D03*
X99060000Y-22860000D03*
X116840000Y-30480000D03*
X101600000Y-22860000D03*
X114300000Y-30480000D03*
X104140000Y-22860000D03*
X111760000Y-30480000D03*
X106680000Y-22860000D03*
X109220000Y-30480000D03*
X109220000Y-22860000D03*
X106680000Y-30480000D03*
X111760000Y-22860000D03*
X104140000Y-30480000D03*
X114300000Y-22860000D03*
X101600000Y-30480000D03*
X116840000Y-22860000D03*
X99060000Y-30480000D03*
X119380000Y-22860000D03*
D11*
X96520000Y-30480000D03*
%TD*%
D10*
%TO.C,U5*%
X6350000Y-22860000D03*
X29210000Y-30480000D03*
X8890000Y-22860000D03*
X26670000Y-30480000D03*
X11430000Y-22860000D03*
X24130000Y-30480000D03*
X13970000Y-22860000D03*
X21590000Y-30480000D03*
X16510000Y-22860000D03*
X19050000Y-30480000D03*
X19050000Y-22860000D03*
X16510000Y-30480000D03*
X21590000Y-22860000D03*
X13970000Y-30480000D03*
X24130000Y-22860000D03*
X11430000Y-30480000D03*
X26670000Y-22860000D03*
X8890000Y-30480000D03*
X29210000Y-22860000D03*
D11*
X6350000Y-30480000D03*
%TD*%
D10*
%TO.C,U4*%
X162560000Y-22860000D03*
X185420000Y-30480000D03*
X165100000Y-22860000D03*
X182880000Y-30480000D03*
X167640000Y-22860000D03*
X180340000Y-30480000D03*
X170180000Y-22860000D03*
X177800000Y-30480000D03*
X172720000Y-22860000D03*
X175260000Y-30480000D03*
X175260000Y-22860000D03*
X172720000Y-30480000D03*
X177800000Y-22860000D03*
X170180000Y-30480000D03*
X180340000Y-22860000D03*
X167640000Y-30480000D03*
X182880000Y-22860000D03*
X165100000Y-30480000D03*
X185420000Y-22860000D03*
D11*
X162560000Y-30480000D03*
%TD*%
D10*
%TO.C,U3*%
X130810000Y-22860000D03*
X153670000Y-30480000D03*
X133350000Y-22860000D03*
X151130000Y-30480000D03*
X135890000Y-22860000D03*
X148590000Y-30480000D03*
X138430000Y-22860000D03*
X146050000Y-30480000D03*
X140970000Y-22860000D03*
X143510000Y-30480000D03*
X143510000Y-22860000D03*
X140970000Y-30480000D03*
X146050000Y-22860000D03*
X138430000Y-30480000D03*
X148590000Y-22860000D03*
X135890000Y-30480000D03*
X151130000Y-22860000D03*
X133350000Y-30480000D03*
X153670000Y-22860000D03*
D11*
X130810000Y-30480000D03*
%TD*%
D10*
%TO.C,U2*%
X67310000Y-22860000D03*
X85090000Y-30480000D03*
X69850000Y-22860000D03*
X82550000Y-30480000D03*
X72390000Y-22860000D03*
X80010000Y-30480000D03*
X74930000Y-22860000D03*
X77470000Y-30480000D03*
X77470000Y-22860000D03*
X74930000Y-30480000D03*
X80010000Y-22860000D03*
X72390000Y-30480000D03*
X82550000Y-22860000D03*
X69850000Y-30480000D03*
X85090000Y-22860000D03*
D11*
X67310000Y-30480000D03*
%TD*%
D10*
%TO.C,U1*%
X41910000Y-22860000D03*
X59690000Y-30480000D03*
X44450000Y-22860000D03*
X57150000Y-30480000D03*
X46990000Y-22860000D03*
X54610000Y-30480000D03*
X49530000Y-22860000D03*
X52070000Y-30480000D03*
X52070000Y-22860000D03*
X49530000Y-30480000D03*
X54610000Y-22860000D03*
X46990000Y-30480000D03*
X57150000Y-22860000D03*
X44450000Y-30480000D03*
X59690000Y-22860000D03*
D11*
X41910000Y-30480000D03*
%TD*%
D12*
%TO.C,SW13*%
X148740000Y-80010000D03*
X148740000Y-84510000D03*
X142240000Y-80010000D03*
X142240000Y-84510000D03*
%TD*%
%TO.C,SW12*%
X170030000Y-83820000D03*
X170030000Y-79320000D03*
X176530000Y-83820000D03*
X176530000Y-79320000D03*
%TD*%
%TO.C,SW11*%
X12550000Y-15240000D03*
X12550000Y-10740000D03*
X19050000Y-15240000D03*
X19050000Y-10740000D03*
%TD*%
%TO.C,SW10*%
X15090000Y-88900000D03*
X15090000Y-84400000D03*
X21590000Y-88900000D03*
X21590000Y-84400000D03*
%TD*%
%TO.C,SW9*%
X139700000Y-50220000D03*
X139700000Y-45720000D03*
X146200000Y-50220000D03*
X146200000Y-45720000D03*
%TD*%
%TO.C,SW8*%
X54460000Y-16510000D03*
X54460000Y-12010000D03*
X60960000Y-16510000D03*
X60960000Y-12010000D03*
%TD*%
%TO.C,SW7*%
X177950000Y-45720000D03*
X177950000Y-50220000D03*
X171450000Y-45720000D03*
X171450000Y-50220000D03*
%TD*%
%TO.C,SW6*%
X124460000Y-16510000D03*
X124460000Y-12010000D03*
X130960000Y-16510000D03*
X130960000Y-12010000D03*
%TD*%
%TO.C,SW5*%
X87480000Y-16510000D03*
X87480000Y-12010000D03*
X93980000Y-16510000D03*
X93980000Y-12010000D03*
%TD*%
%TO.C,SW4*%
X185270000Y-144780000D03*
X185270000Y-140280000D03*
X191770000Y-144780000D03*
X191770000Y-140280000D03*
%TD*%
%TO.C,SW3*%
X185270000Y-133350000D03*
X185270000Y-128850000D03*
X191770000Y-133350000D03*
X191770000Y-128850000D03*
%TD*%
%TO.C,SW2*%
X185270000Y-121920000D03*
X185270000Y-117420000D03*
X191770000Y-121920000D03*
X191770000Y-117420000D03*
%TD*%
%TO.C,SW1*%
X161140000Y-8890000D03*
X161140000Y-4390000D03*
X167640000Y-8890000D03*
X167640000Y-4390000D03*
%TD*%
D10*
%TO.C,RN6*%
X43180000Y-125730000D03*
X45720000Y-125730000D03*
X48260000Y-125730000D03*
X50800000Y-125730000D03*
X53340000Y-125730000D03*
X55880000Y-125730000D03*
X58420000Y-125730000D03*
X60960000Y-125730000D03*
D11*
X63500000Y-125730000D03*
%TD*%
D10*
%TO.C,RN5*%
X101600000Y-83820000D03*
X104140000Y-83820000D03*
X106680000Y-83820000D03*
X109220000Y-83820000D03*
X111760000Y-83820000D03*
X114300000Y-83820000D03*
X116840000Y-83820000D03*
X119380000Y-83820000D03*
D11*
X121920000Y-83820000D03*
%TD*%
D10*
%TO.C,RN4*%
X39370000Y-83820000D03*
X41910000Y-83820000D03*
X44450000Y-83820000D03*
X46990000Y-83820000D03*
X49530000Y-83820000D03*
X52070000Y-83820000D03*
X54610000Y-83820000D03*
X57150000Y-83820000D03*
D11*
X59690000Y-83820000D03*
%TD*%
D10*
%TO.C,RN3*%
X124460000Y-125730000D03*
X127000000Y-125730000D03*
X129540000Y-125730000D03*
X132080000Y-125730000D03*
X134620000Y-125730000D03*
X137160000Y-125730000D03*
X139700000Y-125730000D03*
X142240000Y-125730000D03*
D11*
X144780000Y-125730000D03*
%TD*%
D10*
%TO.C,RN2*%
X38100000Y-49530000D03*
X40640000Y-49530000D03*
X43180000Y-49530000D03*
X45720000Y-49530000D03*
X48260000Y-49530000D03*
X50800000Y-49530000D03*
X53340000Y-49530000D03*
X55880000Y-49530000D03*
D11*
X58420000Y-49530000D03*
%TD*%
D10*
%TO.C,RN1*%
X100330000Y-49530000D03*
X102870000Y-49530000D03*
X105410000Y-49530000D03*
X107950000Y-49530000D03*
X110490000Y-49530000D03*
X113030000Y-49530000D03*
X115570000Y-49530000D03*
X118110000Y-49530000D03*
D11*
X120650000Y-49530000D03*
%TD*%
D13*
%TO.C,R13*%
X153440000Y-79440000D03*
D14*
X153440000Y-84520000D03*
%TD*%
D13*
%TO.C,R12*%
X180340000Y-78740000D03*
D14*
X180340000Y-83820000D03*
%TD*%
D13*
%TO.C,R11*%
X22860000Y-10590000D03*
D14*
X22860000Y-15670000D03*
%TD*%
D13*
%TO.C,R10*%
X25400000Y-88900000D03*
D14*
X25400000Y-83820000D03*
%TD*%
D13*
%TO.C,R9*%
X149860000Y-45720000D03*
D14*
X149860000Y-50800000D03*
%TD*%
D13*
%TO.C,R8*%
X64770000Y-11430000D03*
D14*
X64770000Y-16510000D03*
%TD*%
D13*
%TO.C,R7*%
X181610000Y-45720000D03*
D14*
X181610000Y-50800000D03*
%TD*%
D13*
%TO.C,R6*%
X134620000Y-11430000D03*
D14*
X134620000Y-16510000D03*
%TD*%
D13*
%TO.C,R5*%
X97790000Y-11430000D03*
D14*
X97790000Y-16510000D03*
%TD*%
D13*
%TO.C,R4*%
X195580000Y-139700000D03*
D14*
X195580000Y-144780000D03*
%TD*%
D13*
%TO.C,R3*%
X195580000Y-128270000D03*
D14*
X195580000Y-133350000D03*
%TD*%
D13*
%TO.C,R2*%
X195580000Y-116840000D03*
D14*
X195580000Y-121920000D03*
%TD*%
D13*
%TO.C,R1*%
X172720000Y-3810000D03*
D14*
X172720000Y-8890000D03*
%TD*%
D15*
%TO.C,J12*%
X10160000Y-134620000D03*
X12700000Y-134620000D03*
X15240000Y-134620000D03*
X17780000Y-134620000D03*
X20320000Y-134620000D03*
X22860000Y-134620000D03*
X25400000Y-134620000D03*
D16*
X27940000Y-134620000D03*
%TD*%
D15*
%TO.C,J11*%
X10160000Y-144780000D03*
X12700000Y-144780000D03*
X15240000Y-144780000D03*
X17780000Y-144780000D03*
X20320000Y-144780000D03*
X22860000Y-144780000D03*
X25400000Y-144780000D03*
D16*
X27940000Y-144780000D03*
%TD*%
D15*
%TO.C,J10*%
X195580000Y-67310000D03*
X195580000Y-64770000D03*
X195580000Y-62230000D03*
X195580000Y-59690000D03*
X195580000Y-57150000D03*
D16*
X195580000Y-54610000D03*
%TD*%
D15*
%TO.C,J9*%
X195580000Y-102870000D03*
X195580000Y-100330000D03*
X195580000Y-97790000D03*
X195580000Y-95250000D03*
X195580000Y-92710000D03*
X195580000Y-90170000D03*
D16*
X195580000Y-87630000D03*
%TD*%
D15*
%TO.C,J8*%
X31750000Y-6350000D03*
X34290000Y-6350000D03*
X36830000Y-6350000D03*
X39370000Y-6350000D03*
X41910000Y-6350000D03*
X44450000Y-6350000D03*
X46990000Y-6350000D03*
D16*
X49530000Y-6350000D03*
%TD*%
D15*
%TO.C,J7*%
X90170000Y-5080000D03*
X92710000Y-5080000D03*
X95250000Y-5080000D03*
X97790000Y-5080000D03*
X100330000Y-5080000D03*
X102870000Y-5080000D03*
X105410000Y-5080000D03*
D16*
X107950000Y-5080000D03*
%TD*%
D15*
%TO.C,J6*%
X96520000Y-144780000D03*
X99060000Y-144780000D03*
X101600000Y-144780000D03*
X104140000Y-144780000D03*
X106680000Y-144780000D03*
X109220000Y-144780000D03*
X111760000Y-144780000D03*
D16*
X114300000Y-144780000D03*
%TD*%
D15*
%TO.C,J5*%
X120650000Y-144780000D03*
X123190000Y-144780000D03*
X125730000Y-144780000D03*
X128270000Y-144780000D03*
X130810000Y-144780000D03*
X133350000Y-144780000D03*
X135890000Y-144780000D03*
D16*
X138430000Y-144780000D03*
%TD*%
D15*
%TO.C,J4*%
X41910000Y-144780000D03*
X44450000Y-144780000D03*
X46990000Y-144780000D03*
X49530000Y-144780000D03*
X52070000Y-144780000D03*
X54610000Y-144780000D03*
X57150000Y-144780000D03*
D16*
X59690000Y-144780000D03*
%TD*%
D15*
%TO.C,J3*%
X41910000Y-134620000D03*
X44450000Y-134620000D03*
X46990000Y-134620000D03*
X49530000Y-134620000D03*
X52070000Y-134620000D03*
X54610000Y-134620000D03*
X57150000Y-134620000D03*
D16*
X59690000Y-134620000D03*
%TD*%
D15*
%TO.C,J2*%
X187960000Y-11430000D03*
X187960000Y-8890000D03*
D16*
X187960000Y-6350000D03*
%TD*%
D15*
%TO.C,J1*%
X194310000Y-11430000D03*
X194310000Y-8890000D03*
D16*
X194310000Y-6350000D03*
%TD*%
D17*
%TO.C,D61*%
X135890000Y-80010000D03*
D18*
X135890000Y-82550000D03*
%TD*%
D17*
%TO.C,D60*%
X163830000Y-80010000D03*
D18*
X163830000Y-82550000D03*
%TD*%
D17*
%TO.C,D59*%
X6350000Y-11430000D03*
D18*
X6350000Y-13970000D03*
%TD*%
D17*
%TO.C,D58*%
X7620000Y-85090000D03*
D18*
X7620000Y-87630000D03*
%TD*%
D17*
%TO.C,D57*%
X133350000Y-46990000D03*
D18*
X133350000Y-49530000D03*
%TD*%
D17*
%TO.C,D56*%
X48260000Y-12700000D03*
D18*
X48260000Y-15240000D03*
%TD*%
D17*
%TO.C,D55*%
X163830000Y-46990000D03*
D18*
X163830000Y-49530000D03*
%TD*%
D17*
%TO.C,D54*%
X118110000Y-12700000D03*
D18*
X118110000Y-15240000D03*
%TD*%
D17*
%TO.C,D53*%
X81280000Y-12700000D03*
D18*
X81280000Y-15240000D03*
%TD*%
D17*
%TO.C,D52*%
X179070000Y-140970000D03*
D18*
X179070000Y-143510000D03*
%TD*%
D17*
%TO.C,D51*%
X179070000Y-129540000D03*
D18*
X179070000Y-132080000D03*
%TD*%
D17*
%TO.C,D50*%
X179070000Y-118110000D03*
D18*
X179070000Y-120650000D03*
%TD*%
D17*
%TO.C,D49*%
X154940000Y-5080000D03*
D18*
X154940000Y-7620000D03*
%TD*%
D17*
%TO.C,D48*%
X8890000Y-116840000D03*
D18*
X8890000Y-119380000D03*
%TD*%
D17*
%TO.C,D47*%
X16510000Y-116840000D03*
D18*
X16510000Y-119380000D03*
%TD*%
D17*
%TO.C,D46*%
X24130000Y-116840000D03*
D18*
X24130000Y-119380000D03*
%TD*%
D17*
%TO.C,D45*%
X31750000Y-116840000D03*
D18*
X31750000Y-119380000D03*
%TD*%
D17*
%TO.C,D44*%
X39370000Y-116840000D03*
D18*
X39370000Y-119380000D03*
%TD*%
D17*
%TO.C,D43*%
X46990000Y-116840000D03*
D18*
X46990000Y-119380000D03*
%TD*%
D17*
%TO.C,D42*%
X54610000Y-116840000D03*
D18*
X54610000Y-119380000D03*
%TD*%
D17*
%TO.C,D41*%
X62230000Y-116840000D03*
D18*
X62230000Y-119380000D03*
%TD*%
D17*
%TO.C,D40*%
X67310000Y-74930000D03*
D18*
X67310000Y-77470000D03*
%TD*%
D17*
%TO.C,D39*%
X74930000Y-74930000D03*
D18*
X74930000Y-77470000D03*
%TD*%
D17*
%TO.C,D38*%
X82550000Y-74930000D03*
D18*
X82550000Y-77470000D03*
%TD*%
D17*
%TO.C,D37*%
X90170000Y-74930000D03*
D18*
X90170000Y-77470000D03*
%TD*%
D17*
%TO.C,D36*%
X97790000Y-74930000D03*
D18*
X97790000Y-77470000D03*
%TD*%
D17*
%TO.C,D35*%
X105410000Y-74930000D03*
D18*
X105410000Y-77470000D03*
%TD*%
D17*
%TO.C,D34*%
X113030000Y-74930000D03*
D18*
X113030000Y-77470000D03*
%TD*%
D17*
%TO.C,D33*%
X120650000Y-74930000D03*
D18*
X120650000Y-77470000D03*
%TD*%
D17*
%TO.C,D32*%
X5080000Y-74930000D03*
D18*
X5080000Y-77470000D03*
%TD*%
D17*
%TO.C,D31*%
X12700000Y-74930000D03*
D18*
X12700000Y-77470000D03*
%TD*%
D17*
%TO.C,D30*%
X20320000Y-74930000D03*
D18*
X20320000Y-77470000D03*
%TD*%
D17*
%TO.C,D29*%
X27940000Y-74930000D03*
D18*
X27940000Y-77470000D03*
%TD*%
D17*
%TO.C,D28*%
X35560000Y-74930000D03*
D18*
X35560000Y-77470000D03*
%TD*%
D17*
%TO.C,D27*%
X43180000Y-74930000D03*
D18*
X43180000Y-77470000D03*
%TD*%
D17*
%TO.C,D26*%
X50800000Y-74930000D03*
D18*
X50800000Y-77470000D03*
%TD*%
D17*
%TO.C,D25*%
X58420000Y-74930000D03*
D18*
X58420000Y-77470000D03*
%TD*%
D17*
%TO.C,D24*%
X90170000Y-116840000D03*
D18*
X90170000Y-119380000D03*
%TD*%
D17*
%TO.C,D23*%
X97790000Y-116840000D03*
D18*
X97790000Y-119380000D03*
%TD*%
D17*
%TO.C,D22*%
X105410000Y-116840000D03*
D18*
X105410000Y-119380000D03*
%TD*%
D17*
%TO.C,D21*%
X113030000Y-116840000D03*
D18*
X113030000Y-119380000D03*
%TD*%
D17*
%TO.C,D20*%
X120650000Y-116840000D03*
D18*
X120650000Y-119380000D03*
%TD*%
D17*
%TO.C,D19*%
X128270000Y-116840000D03*
D18*
X128270000Y-119380000D03*
%TD*%
D17*
%TO.C,D18*%
X135890000Y-116840000D03*
D18*
X135890000Y-119380000D03*
%TD*%
D17*
%TO.C,D17*%
X143510000Y-116840000D03*
D18*
X143510000Y-119380000D03*
%TD*%
D17*
%TO.C,D16*%
X5080000Y-38100000D03*
D18*
X5080000Y-40640000D03*
%TD*%
D17*
%TO.C,D15*%
X12700000Y-38100000D03*
D18*
X12700000Y-40640000D03*
%TD*%
D17*
%TO.C,D14*%
X20320000Y-38100000D03*
D18*
X20320000Y-40640000D03*
%TD*%
D17*
%TO.C,D13*%
X27940000Y-38100000D03*
D18*
X27940000Y-40640000D03*
%TD*%
D17*
%TO.C,D12*%
X35560000Y-38100000D03*
D18*
X35560000Y-40640000D03*
%TD*%
D17*
%TO.C,D11*%
X43180000Y-38100000D03*
D18*
X43180000Y-40640000D03*
%TD*%
D17*
%TO.C,D10*%
X50800000Y-38100000D03*
D18*
X50800000Y-40640000D03*
%TD*%
D17*
%TO.C,D9*%
X58420000Y-38100000D03*
D18*
X58420000Y-40640000D03*
%TD*%
D17*
%TO.C,D8*%
X67310000Y-38100000D03*
D18*
X67310000Y-40640000D03*
%TD*%
D17*
%TO.C,D7*%
X74930000Y-38100000D03*
D18*
X74930000Y-40640000D03*
%TD*%
D17*
%TO.C,D6*%
X82550000Y-38100000D03*
D18*
X82550000Y-40640000D03*
%TD*%
D17*
%TO.C,D5*%
X90170000Y-38100000D03*
D18*
X90170000Y-40640000D03*
%TD*%
D17*
%TO.C,D4*%
X97790000Y-38100000D03*
D18*
X97790000Y-40640000D03*
%TD*%
D17*
%TO.C,D3*%
X105410000Y-38100000D03*
D18*
X105410000Y-40640000D03*
%TD*%
D17*
%TO.C,D2*%
X113030000Y-38100000D03*
D18*
X113030000Y-40640000D03*
%TD*%
D17*
%TO.C,D0*%
X120650000Y-38100000D03*
D18*
X120650000Y-40640000D03*
%TD*%
D19*
%TO.C,C16*%
X12700000Y-100290000D03*
X12700000Y-97790000D03*
%TD*%
%TO.C,C15*%
X127000000Y-59650000D03*
X127000000Y-57150000D03*
%TD*%
%TO.C,C14*%
X63500000Y-59690000D03*
X63500000Y-57190000D03*
%TD*%
%TO.C,C13*%
X38100000Y-59650000D03*
X38100000Y-57150000D03*
%TD*%
%TO.C,C12*%
X140970000Y-100290000D03*
X140970000Y-97790000D03*
%TD*%
%TO.C,C11*%
X160020000Y-59650000D03*
X160020000Y-57150000D03*
%TD*%
%TO.C,C10*%
X92710000Y-59650000D03*
X92710000Y-57150000D03*
%TD*%
%TO.C,C9*%
X2540000Y-59650000D03*
X2540000Y-57150000D03*
%TD*%
%TO.C,C8*%
X72390000Y-100290000D03*
X72390000Y-97790000D03*
%TD*%
%TO.C,C7*%
X106680000Y-100290000D03*
X106680000Y-97790000D03*
%TD*%
%TO.C,C6*%
X92710000Y-26630000D03*
X92710000Y-24130000D03*
%TD*%
%TO.C,C5*%
X2540000Y-26630000D03*
X2540000Y-24130000D03*
%TD*%
%TO.C,C4*%
X158750000Y-26630000D03*
X158750000Y-24130000D03*
%TD*%
%TO.C,C3*%
X125730000Y-26630000D03*
X125730000Y-24130000D03*
%TD*%
%TO.C,C2*%
X63500000Y-26630000D03*
X63500000Y-24130000D03*
%TD*%
%TO.C,C1*%
X38100000Y-26630000D03*
X38100000Y-24130000D03*
%TD*%
M02*
