%TF.GenerationSoftware,KiCad,Pcbnew,5.1.6-c6e7f7d~87~ubuntu16.04.1*%
%TF.CreationDate,2020-11-24T00:27:49-05:00*%
%TF.ProjectId,riscy_pc_ir_sp,72697363-795f-4706-935f-69725f73702e,rev?*%
%TF.SameCoordinates,Original*%
%TF.FileFunction,Legend,Top*%
%TF.FilePolarity,Positive*%
%FSLAX46Y46*%
G04 Gerber Fmt 4.6, Leading zero omitted, Abs format (unit mm)*
G04 Created by KiCad (PCBNEW 5.1.6-c6e7f7d~87~ubuntu16.04.1) date 2020-11-24 00:27:49*
%MOMM*%
%LPD*%
G01*
G04 APERTURE LIST*
%ADD10C,0.120000*%
%ADD11C,0.150000*%
G04 APERTURE END LIST*
D10*
%TO.C,SW14*%
X68520000Y-137430000D02*
G75*
G02*
X68520000Y-139430000I0J-1000000D01*
G01*
X68520000Y-139430000D02*
X68520000Y-141080000D01*
X68520000Y-141080000D02*
X88960000Y-141080000D01*
X88960000Y-141080000D02*
X88960000Y-135780000D01*
X88960000Y-135780000D02*
X68520000Y-135780000D01*
X68520000Y-135780000D02*
X68520000Y-137430000D01*
X68460000Y-143570000D02*
X89020000Y-143570000D01*
X89020000Y-143570000D02*
X89020000Y-133290000D01*
X89020000Y-133290000D02*
X68460000Y-133290000D01*
X68460000Y-133290000D02*
X68460000Y-143570000D01*
%TO.C,U16*%
X15180000Y-97680000D02*
X15180000Y-99330000D01*
X40700000Y-97680000D02*
X15180000Y-97680000D01*
X40700000Y-102980000D02*
X40700000Y-97680000D01*
X15180000Y-102980000D02*
X40700000Y-102980000D01*
X15180000Y-101330000D02*
X15180000Y-102980000D01*
X15180000Y-99330000D02*
G75*
G02*
X15180000Y-101330000I0J-1000000D01*
G01*
%TO.C,U15*%
X129480000Y-57040000D02*
X129480000Y-58690000D01*
X155000000Y-57040000D02*
X129480000Y-57040000D01*
X155000000Y-62340000D02*
X155000000Y-57040000D01*
X129480000Y-62340000D02*
X155000000Y-62340000D01*
X129480000Y-60690000D02*
X129480000Y-62340000D01*
X129480000Y-58690000D02*
G75*
G02*
X129480000Y-60690000I0J-1000000D01*
G01*
%TO.C,U14*%
X65980000Y-57040000D02*
X65980000Y-58690000D01*
X86420000Y-57040000D02*
X65980000Y-57040000D01*
X86420000Y-62340000D02*
X86420000Y-57040000D01*
X65980000Y-62340000D02*
X86420000Y-62340000D01*
X65980000Y-60690000D02*
X65980000Y-62340000D01*
X65980000Y-58690000D02*
G75*
G02*
X65980000Y-60690000I0J-1000000D01*
G01*
%TO.C,U13*%
X40580000Y-57040000D02*
X40580000Y-58690000D01*
X61020000Y-57040000D02*
X40580000Y-57040000D01*
X61020000Y-62340000D02*
X61020000Y-57040000D01*
X40580000Y-62340000D02*
X61020000Y-62340000D01*
X40580000Y-60690000D02*
X40580000Y-62340000D01*
X40580000Y-58690000D02*
G75*
G02*
X40580000Y-60690000I0J-1000000D01*
G01*
%TO.C,U12*%
X144720000Y-97680000D02*
X144720000Y-99330000D01*
X170240000Y-97680000D02*
X144720000Y-97680000D01*
X170240000Y-102980000D02*
X170240000Y-97680000D01*
X144720000Y-102980000D02*
X170240000Y-102980000D01*
X144720000Y-101330000D02*
X144720000Y-102980000D01*
X144720000Y-99330000D02*
G75*
G02*
X144720000Y-101330000I0J-1000000D01*
G01*
%TO.C,U11*%
X162500000Y-57040000D02*
X162500000Y-58690000D01*
X180400000Y-57040000D02*
X162500000Y-57040000D01*
X180400000Y-62340000D02*
X180400000Y-57040000D01*
X162500000Y-62340000D02*
X180400000Y-62340000D01*
X162500000Y-60690000D02*
X162500000Y-62340000D01*
X162500000Y-58690000D02*
G75*
G02*
X162500000Y-60690000I0J-1000000D01*
G01*
%TO.C,U10*%
X95190000Y-57040000D02*
X95190000Y-58690000D01*
X120710000Y-57040000D02*
X95190000Y-57040000D01*
X120710000Y-62340000D02*
X120710000Y-57040000D01*
X95190000Y-62340000D02*
X120710000Y-62340000D01*
X95190000Y-60690000D02*
X95190000Y-62340000D01*
X95190000Y-58690000D02*
G75*
G02*
X95190000Y-60690000I0J-1000000D01*
G01*
%TO.C,U9*%
X5020000Y-57040000D02*
X5020000Y-58690000D01*
X30540000Y-57040000D02*
X5020000Y-57040000D01*
X30540000Y-62340000D02*
X30540000Y-57040000D01*
X5020000Y-62340000D02*
X30540000Y-62340000D01*
X5020000Y-60690000D02*
X5020000Y-62340000D01*
X5020000Y-58690000D02*
G75*
G02*
X5020000Y-60690000I0J-1000000D01*
G01*
%TO.C,U8*%
X74870000Y-97680000D02*
X74870000Y-99330000D01*
X100390000Y-97680000D02*
X74870000Y-97680000D01*
X100390000Y-102980000D02*
X100390000Y-97680000D01*
X74870000Y-102980000D02*
X100390000Y-102980000D01*
X74870000Y-101330000D02*
X74870000Y-102980000D01*
X74870000Y-99330000D02*
G75*
G02*
X74870000Y-101330000I0J-1000000D01*
G01*
%TO.C,U7*%
X109160000Y-97680000D02*
X109160000Y-99330000D01*
X134680000Y-97680000D02*
X109160000Y-97680000D01*
X134680000Y-102980000D02*
X134680000Y-97680000D01*
X109160000Y-102980000D02*
X134680000Y-102980000D01*
X109160000Y-101330000D02*
X109160000Y-102980000D01*
X109160000Y-99330000D02*
G75*
G02*
X109160000Y-101330000I0J-1000000D01*
G01*
%TO.C,U6*%
X95190000Y-24020000D02*
X95190000Y-25670000D01*
X120710000Y-24020000D02*
X95190000Y-24020000D01*
X120710000Y-29320000D02*
X120710000Y-24020000D01*
X95190000Y-29320000D02*
X120710000Y-29320000D01*
X95190000Y-27670000D02*
X95190000Y-29320000D01*
X95190000Y-25670000D02*
G75*
G02*
X95190000Y-27670000I0J-1000000D01*
G01*
%TO.C,U5*%
X5020000Y-24020000D02*
X5020000Y-25670000D01*
X30540000Y-24020000D02*
X5020000Y-24020000D01*
X30540000Y-29320000D02*
X30540000Y-24020000D01*
X5020000Y-29320000D02*
X30540000Y-29320000D01*
X5020000Y-27670000D02*
X5020000Y-29320000D01*
X5020000Y-25670000D02*
G75*
G02*
X5020000Y-27670000I0J-1000000D01*
G01*
%TO.C,U4*%
X161230000Y-24020000D02*
X161230000Y-25670000D01*
X186750000Y-24020000D02*
X161230000Y-24020000D01*
X186750000Y-29320000D02*
X186750000Y-24020000D01*
X161230000Y-29320000D02*
X186750000Y-29320000D01*
X161230000Y-27670000D02*
X161230000Y-29320000D01*
X161230000Y-25670000D02*
G75*
G02*
X161230000Y-27670000I0J-1000000D01*
G01*
%TO.C,U3*%
X129480000Y-24020000D02*
X129480000Y-25670000D01*
X155000000Y-24020000D02*
X129480000Y-24020000D01*
X155000000Y-29320000D02*
X155000000Y-24020000D01*
X129480000Y-29320000D02*
X155000000Y-29320000D01*
X129480000Y-27670000D02*
X129480000Y-29320000D01*
X129480000Y-25670000D02*
G75*
G02*
X129480000Y-27670000I0J-1000000D01*
G01*
%TO.C,U2*%
X65980000Y-24020000D02*
X65980000Y-25670000D01*
X86420000Y-24020000D02*
X65980000Y-24020000D01*
X86420000Y-29320000D02*
X86420000Y-24020000D01*
X65980000Y-29320000D02*
X86420000Y-29320000D01*
X65980000Y-27670000D02*
X65980000Y-29320000D01*
X65980000Y-25670000D02*
G75*
G02*
X65980000Y-27670000I0J-1000000D01*
G01*
%TO.C,U1*%
X40580000Y-24020000D02*
X40580000Y-25670000D01*
X61020000Y-24020000D02*
X40580000Y-24020000D01*
X61020000Y-29320000D02*
X61020000Y-24020000D01*
X40580000Y-29320000D02*
X61020000Y-29320000D01*
X40580000Y-27670000D02*
X40580000Y-29320000D01*
X40580000Y-25670000D02*
G75*
G02*
X40580000Y-27670000I0J-1000000D01*
G01*
%TO.C,SW13*%
X148990000Y-83010000D02*
X148990000Y-81510000D01*
X147740000Y-79010000D02*
X143240000Y-79010000D01*
X141990000Y-81510000D02*
X141990000Y-83010000D01*
X143240000Y-85510000D02*
X147740000Y-85510000D01*
%TO.C,SW12*%
X169780000Y-80820000D02*
X169780000Y-82320000D01*
X171030000Y-84820000D02*
X175530000Y-84820000D01*
X176780000Y-82320000D02*
X176780000Y-80820000D01*
X175530000Y-78320000D02*
X171030000Y-78320000D01*
%TO.C,SW11*%
X12300000Y-12240000D02*
X12300000Y-13740000D01*
X13550000Y-16240000D02*
X18050000Y-16240000D01*
X19300000Y-13740000D02*
X19300000Y-12240000D01*
X18050000Y-9740000D02*
X13550000Y-9740000D01*
%TO.C,SW10*%
X14840000Y-85900000D02*
X14840000Y-87400000D01*
X16090000Y-89900000D02*
X20590000Y-89900000D01*
X21840000Y-87400000D02*
X21840000Y-85900000D01*
X20590000Y-83400000D02*
X16090000Y-83400000D01*
%TO.C,SW9*%
X139450000Y-47220000D02*
X139450000Y-48720000D01*
X140700000Y-51220000D02*
X145200000Y-51220000D01*
X146450000Y-48720000D02*
X146450000Y-47220000D01*
X145200000Y-44720000D02*
X140700000Y-44720000D01*
%TO.C,SW8*%
X54210000Y-13510000D02*
X54210000Y-15010000D01*
X55460000Y-17510000D02*
X59960000Y-17510000D01*
X61210000Y-15010000D02*
X61210000Y-13510000D01*
X59960000Y-11010000D02*
X55460000Y-11010000D01*
%TO.C,SW7*%
X178200000Y-48720000D02*
X178200000Y-47220000D01*
X176950000Y-44720000D02*
X172450000Y-44720000D01*
X171200000Y-47220000D02*
X171200000Y-48720000D01*
X172450000Y-51220000D02*
X176950000Y-51220000D01*
%TO.C,SW6*%
X124210000Y-13510000D02*
X124210000Y-15010000D01*
X125460000Y-17510000D02*
X129960000Y-17510000D01*
X131210000Y-15010000D02*
X131210000Y-13510000D01*
X129960000Y-11010000D02*
X125460000Y-11010000D01*
%TO.C,SW5*%
X87230000Y-13510000D02*
X87230000Y-15010000D01*
X88480000Y-17510000D02*
X92980000Y-17510000D01*
X94230000Y-15010000D02*
X94230000Y-13510000D01*
X92980000Y-11010000D02*
X88480000Y-11010000D01*
%TO.C,SW4*%
X185020000Y-141780000D02*
X185020000Y-143280000D01*
X186270000Y-145780000D02*
X190770000Y-145780000D01*
X192020000Y-143280000D02*
X192020000Y-141780000D01*
X190770000Y-139280000D02*
X186270000Y-139280000D01*
%TO.C,SW3*%
X185020000Y-130350000D02*
X185020000Y-131850000D01*
X186270000Y-134350000D02*
X190770000Y-134350000D01*
X192020000Y-131850000D02*
X192020000Y-130350000D01*
X190770000Y-127850000D02*
X186270000Y-127850000D01*
%TO.C,SW2*%
X185020000Y-118920000D02*
X185020000Y-120420000D01*
X186270000Y-122920000D02*
X190770000Y-122920000D01*
X192020000Y-120420000D02*
X192020000Y-118920000D01*
X190770000Y-116420000D02*
X186270000Y-116420000D01*
%TO.C,SW1*%
X160890000Y-5890000D02*
X160890000Y-7390000D01*
X162140000Y-9890000D02*
X166640000Y-9890000D01*
X167890000Y-7390000D02*
X167890000Y-5890000D01*
X166640000Y-3390000D02*
X162140000Y-3390000D01*
%TO.C,RN6*%
X62230000Y-127130000D02*
X62230000Y-124330000D01*
X41740000Y-127130000D02*
X64940000Y-127130000D01*
X41740000Y-124330000D02*
X41740000Y-127130000D01*
X64940000Y-124330000D02*
X41740000Y-124330000D01*
X64940000Y-127130000D02*
X64940000Y-124330000D01*
%TO.C,RN5*%
X120650000Y-85220000D02*
X120650000Y-82420000D01*
X100160000Y-85220000D02*
X123360000Y-85220000D01*
X100160000Y-82420000D02*
X100160000Y-85220000D01*
X123360000Y-82420000D02*
X100160000Y-82420000D01*
X123360000Y-85220000D02*
X123360000Y-82420000D01*
%TO.C,RN4*%
X58420000Y-85220000D02*
X58420000Y-82420000D01*
X37930000Y-85220000D02*
X61130000Y-85220000D01*
X37930000Y-82420000D02*
X37930000Y-85220000D01*
X61130000Y-82420000D02*
X37930000Y-82420000D01*
X61130000Y-85220000D02*
X61130000Y-82420000D01*
%TO.C,RN3*%
X143510000Y-127130000D02*
X143510000Y-124330000D01*
X123020000Y-127130000D02*
X146220000Y-127130000D01*
X123020000Y-124330000D02*
X123020000Y-127130000D01*
X146220000Y-124330000D02*
X123020000Y-124330000D01*
X146220000Y-127130000D02*
X146220000Y-124330000D01*
%TO.C,RN2*%
X57150000Y-50930000D02*
X57150000Y-48130000D01*
X36660000Y-50930000D02*
X59860000Y-50930000D01*
X36660000Y-48130000D02*
X36660000Y-50930000D01*
X59860000Y-48130000D02*
X36660000Y-48130000D01*
X59860000Y-50930000D02*
X59860000Y-48130000D01*
%TO.C,RN1*%
X119380000Y-50930000D02*
X119380000Y-48130000D01*
X98890000Y-50930000D02*
X122090000Y-50930000D01*
X98890000Y-48130000D02*
X98890000Y-50930000D01*
X122090000Y-48130000D02*
X98890000Y-48130000D01*
X122090000Y-50930000D02*
X122090000Y-48130000D01*
%TO.C,R13*%
X153440000Y-83600000D02*
X153440000Y-80440000D01*
X154360000Y-84520000D02*
G75*
G03*
X154360000Y-84520000I-920000J0D01*
G01*
%TO.C,R12*%
X180340000Y-82900000D02*
X180340000Y-79740000D01*
X181260000Y-83820000D02*
G75*
G03*
X181260000Y-83820000I-920000J0D01*
G01*
%TO.C,R11*%
X22860000Y-14750000D02*
X22860000Y-11590000D01*
X23780000Y-15670000D02*
G75*
G03*
X23780000Y-15670000I-920000J0D01*
G01*
%TO.C,R10*%
X25400000Y-84740000D02*
X25400000Y-87900000D01*
X26320000Y-83820000D02*
G75*
G03*
X26320000Y-83820000I-920000J0D01*
G01*
%TO.C,R9*%
X149860000Y-49880000D02*
X149860000Y-46720000D01*
X150780000Y-50800000D02*
G75*
G03*
X150780000Y-50800000I-920000J0D01*
G01*
%TO.C,R8*%
X64770000Y-15590000D02*
X64770000Y-12430000D01*
X65690000Y-16510000D02*
G75*
G03*
X65690000Y-16510000I-920000J0D01*
G01*
%TO.C,R7*%
X181610000Y-49880000D02*
X181610000Y-46720000D01*
X182530000Y-50800000D02*
G75*
G03*
X182530000Y-50800000I-920000J0D01*
G01*
%TO.C,R6*%
X134620000Y-15590000D02*
X134620000Y-12430000D01*
X135540000Y-16510000D02*
G75*
G03*
X135540000Y-16510000I-920000J0D01*
G01*
%TO.C,R5*%
X97790000Y-15590000D02*
X97790000Y-12430000D01*
X98710000Y-16510000D02*
G75*
G03*
X98710000Y-16510000I-920000J0D01*
G01*
%TO.C,R4*%
X195580000Y-143860000D02*
X195580000Y-140700000D01*
X196500000Y-144780000D02*
G75*
G03*
X196500000Y-144780000I-920000J0D01*
G01*
%TO.C,R3*%
X195580000Y-132430000D02*
X195580000Y-129270000D01*
X196500000Y-133350000D02*
G75*
G03*
X196500000Y-133350000I-920000J0D01*
G01*
%TO.C,R2*%
X195580000Y-121000000D02*
X195580000Y-117840000D01*
X196500000Y-121920000D02*
G75*
G03*
X196500000Y-121920000I-920000J0D01*
G01*
%TO.C,R1*%
X172720000Y-7970000D02*
X172720000Y-4810000D01*
X173640000Y-8890000D02*
G75*
G03*
X173640000Y-8890000I-920000J0D01*
G01*
%TO.C,J12*%
X29270000Y-133290000D02*
X29270000Y-134620000D01*
X27940000Y-133290000D02*
X29270000Y-133290000D01*
X26670000Y-133290000D02*
X26670000Y-135950000D01*
X26670000Y-135950000D02*
X8830000Y-135950000D01*
X26670000Y-133290000D02*
X8830000Y-133290000D01*
X8830000Y-133290000D02*
X8830000Y-135950000D01*
%TO.C,J11*%
X29270000Y-143450000D02*
X29270000Y-144780000D01*
X27940000Y-143450000D02*
X29270000Y-143450000D01*
X26670000Y-143450000D02*
X26670000Y-146110000D01*
X26670000Y-146110000D02*
X8830000Y-146110000D01*
X26670000Y-143450000D02*
X8830000Y-143450000D01*
X8830000Y-143450000D02*
X8830000Y-146110000D01*
%TO.C,J10*%
X194250000Y-53280000D02*
X195580000Y-53280000D01*
X194250000Y-54610000D02*
X194250000Y-53280000D01*
X194250000Y-55880000D02*
X196910000Y-55880000D01*
X196910000Y-55880000D02*
X196910000Y-68640000D01*
X194250000Y-55880000D02*
X194250000Y-68640000D01*
X194250000Y-68640000D02*
X196910000Y-68640000D01*
%TO.C,J9*%
X194250000Y-86300000D02*
X195580000Y-86300000D01*
X194250000Y-87630000D02*
X194250000Y-86300000D01*
X194250000Y-88900000D02*
X196910000Y-88900000D01*
X196910000Y-88900000D02*
X196910000Y-104200000D01*
X194250000Y-88900000D02*
X194250000Y-104200000D01*
X194250000Y-104200000D02*
X196910000Y-104200000D01*
%TO.C,J8*%
X50860000Y-5020000D02*
X50860000Y-6350000D01*
X49530000Y-5020000D02*
X50860000Y-5020000D01*
X48260000Y-5020000D02*
X48260000Y-7680000D01*
X48260000Y-7680000D02*
X30420000Y-7680000D01*
X48260000Y-5020000D02*
X30420000Y-5020000D01*
X30420000Y-5020000D02*
X30420000Y-7680000D01*
%TO.C,J7*%
X109280000Y-3750000D02*
X109280000Y-5080000D01*
X107950000Y-3750000D02*
X109280000Y-3750000D01*
X106680000Y-3750000D02*
X106680000Y-6410000D01*
X106680000Y-6410000D02*
X88840000Y-6410000D01*
X106680000Y-3750000D02*
X88840000Y-3750000D01*
X88840000Y-3750000D02*
X88840000Y-6410000D01*
%TO.C,J6*%
X115630000Y-143450000D02*
X115630000Y-144780000D01*
X114300000Y-143450000D02*
X115630000Y-143450000D01*
X113030000Y-143450000D02*
X113030000Y-146110000D01*
X113030000Y-146110000D02*
X95190000Y-146110000D01*
X113030000Y-143450000D02*
X95190000Y-143450000D01*
X95190000Y-143450000D02*
X95190000Y-146110000D01*
%TO.C,J5*%
X139760000Y-143450000D02*
X139760000Y-144780000D01*
X138430000Y-143450000D02*
X139760000Y-143450000D01*
X137160000Y-143450000D02*
X137160000Y-146110000D01*
X137160000Y-146110000D02*
X119320000Y-146110000D01*
X137160000Y-143450000D02*
X119320000Y-143450000D01*
X119320000Y-143450000D02*
X119320000Y-146110000D01*
%TO.C,J4*%
X61020000Y-143450000D02*
X61020000Y-144780000D01*
X59690000Y-143450000D02*
X61020000Y-143450000D01*
X58420000Y-143450000D02*
X58420000Y-146110000D01*
X58420000Y-146110000D02*
X40580000Y-146110000D01*
X58420000Y-143450000D02*
X40580000Y-143450000D01*
X40580000Y-143450000D02*
X40580000Y-146110000D01*
%TO.C,J3*%
X61020000Y-133290000D02*
X61020000Y-134620000D01*
X59690000Y-133290000D02*
X61020000Y-133290000D01*
X58420000Y-133290000D02*
X58420000Y-135950000D01*
X58420000Y-135950000D02*
X40580000Y-135950000D01*
X58420000Y-133290000D02*
X40580000Y-133290000D01*
X40580000Y-133290000D02*
X40580000Y-135950000D01*
%TO.C,J2*%
X186630000Y-5020000D02*
X187960000Y-5020000D01*
X186630000Y-6350000D02*
X186630000Y-5020000D01*
X186630000Y-7620000D02*
X189290000Y-7620000D01*
X189290000Y-7620000D02*
X189290000Y-12760000D01*
X186630000Y-7620000D02*
X186630000Y-12760000D01*
X186630000Y-12760000D02*
X189290000Y-12760000D01*
%TO.C,J1*%
X192980000Y-5020000D02*
X194310000Y-5020000D01*
X192980000Y-6350000D02*
X192980000Y-5020000D01*
X192980000Y-7620000D02*
X195640000Y-7620000D01*
X195640000Y-7620000D02*
X195640000Y-12760000D01*
X192980000Y-7620000D02*
X192980000Y-12760000D01*
X192980000Y-12760000D02*
X195640000Y-12760000D01*
%TO.C,D61*%
X134345000Y-83840000D02*
X137435000Y-83840000D01*
X138390000Y-81280000D02*
G75*
G03*
X138390000Y-81280000I-2500000J0D01*
G01*
X135889538Y-78290000D02*
G75*
G02*
X137434830Y-83840000I462J-2990000D01*
G01*
X135890462Y-78290000D02*
G75*
G03*
X134345170Y-83840000I-462J-2990000D01*
G01*
%TO.C,D60*%
X162285000Y-83840000D02*
X165375000Y-83840000D01*
X166330000Y-81280000D02*
G75*
G03*
X166330000Y-81280000I-2500000J0D01*
G01*
X163829538Y-78290000D02*
G75*
G02*
X165374830Y-83840000I462J-2990000D01*
G01*
X163830462Y-78290000D02*
G75*
G03*
X162285170Y-83840000I-462J-2990000D01*
G01*
%TO.C,D59*%
X4805000Y-15260000D02*
X7895000Y-15260000D01*
X8850000Y-12700000D02*
G75*
G03*
X8850000Y-12700000I-2500000J0D01*
G01*
X6349538Y-9710000D02*
G75*
G02*
X7894830Y-15260000I462J-2990000D01*
G01*
X6350462Y-9710000D02*
G75*
G03*
X4805170Y-15260000I-462J-2990000D01*
G01*
%TO.C,D58*%
X6075000Y-88920000D02*
X9165000Y-88920000D01*
X10120000Y-86360000D02*
G75*
G03*
X10120000Y-86360000I-2500000J0D01*
G01*
X7619538Y-83370000D02*
G75*
G02*
X9164830Y-88920000I462J-2990000D01*
G01*
X7620462Y-83370000D02*
G75*
G03*
X6075170Y-88920000I-462J-2990000D01*
G01*
%TO.C,D57*%
X131805000Y-50820000D02*
X134895000Y-50820000D01*
X135850000Y-48260000D02*
G75*
G03*
X135850000Y-48260000I-2500000J0D01*
G01*
X133349538Y-45270000D02*
G75*
G02*
X134894830Y-50820000I462J-2990000D01*
G01*
X133350462Y-45270000D02*
G75*
G03*
X131805170Y-50820000I-462J-2990000D01*
G01*
%TO.C,D56*%
X46715000Y-16530000D02*
X49805000Y-16530000D01*
X50760000Y-13970000D02*
G75*
G03*
X50760000Y-13970000I-2500000J0D01*
G01*
X48259538Y-10980000D02*
G75*
G02*
X49804830Y-16530000I462J-2990000D01*
G01*
X48260462Y-10980000D02*
G75*
G03*
X46715170Y-16530000I-462J-2990000D01*
G01*
%TO.C,D55*%
X162285000Y-50820000D02*
X165375000Y-50820000D01*
X166330000Y-48260000D02*
G75*
G03*
X166330000Y-48260000I-2500000J0D01*
G01*
X163829538Y-45270000D02*
G75*
G02*
X165374830Y-50820000I462J-2990000D01*
G01*
X163830462Y-45270000D02*
G75*
G03*
X162285170Y-50820000I-462J-2990000D01*
G01*
%TO.C,D54*%
X116565000Y-16530000D02*
X119655000Y-16530000D01*
X120610000Y-13970000D02*
G75*
G03*
X120610000Y-13970000I-2500000J0D01*
G01*
X118109538Y-10980000D02*
G75*
G02*
X119654830Y-16530000I462J-2990000D01*
G01*
X118110462Y-10980000D02*
G75*
G03*
X116565170Y-16530000I-462J-2990000D01*
G01*
%TO.C,D53*%
X79735000Y-16530000D02*
X82825000Y-16530000D01*
X83780000Y-13970000D02*
G75*
G03*
X83780000Y-13970000I-2500000J0D01*
G01*
X81279538Y-10980000D02*
G75*
G02*
X82824830Y-16530000I462J-2990000D01*
G01*
X81280462Y-10980000D02*
G75*
G03*
X79735170Y-16530000I-462J-2990000D01*
G01*
%TO.C,D52*%
X177525000Y-144800000D02*
X180615000Y-144800000D01*
X181570000Y-142240000D02*
G75*
G03*
X181570000Y-142240000I-2500000J0D01*
G01*
X179069538Y-139250000D02*
G75*
G02*
X180614830Y-144800000I462J-2990000D01*
G01*
X179070462Y-139250000D02*
G75*
G03*
X177525170Y-144800000I-462J-2990000D01*
G01*
%TO.C,D51*%
X177525000Y-133370000D02*
X180615000Y-133370000D01*
X181570000Y-130810000D02*
G75*
G03*
X181570000Y-130810000I-2500000J0D01*
G01*
X179069538Y-127820000D02*
G75*
G02*
X180614830Y-133370000I462J-2990000D01*
G01*
X179070462Y-127820000D02*
G75*
G03*
X177525170Y-133370000I-462J-2990000D01*
G01*
%TO.C,D50*%
X177525000Y-121940000D02*
X180615000Y-121940000D01*
X181570000Y-119380000D02*
G75*
G03*
X181570000Y-119380000I-2500000J0D01*
G01*
X179069538Y-116390000D02*
G75*
G02*
X180614830Y-121940000I462J-2990000D01*
G01*
X179070462Y-116390000D02*
G75*
G03*
X177525170Y-121940000I-462J-2990000D01*
G01*
%TO.C,D49*%
X153395000Y-8910000D02*
X156485000Y-8910000D01*
X157440000Y-6350000D02*
G75*
G03*
X157440000Y-6350000I-2500000J0D01*
G01*
X154939538Y-3360000D02*
G75*
G02*
X156484830Y-8910000I462J-2990000D01*
G01*
X154940462Y-3360000D02*
G75*
G03*
X153395170Y-8910000I-462J-2990000D01*
G01*
%TO.C,D48*%
X7345000Y-120670000D02*
X10435000Y-120670000D01*
X11390000Y-118110000D02*
G75*
G03*
X11390000Y-118110000I-2500000J0D01*
G01*
X8889538Y-115120000D02*
G75*
G02*
X10434830Y-120670000I462J-2990000D01*
G01*
X8890462Y-115120000D02*
G75*
G03*
X7345170Y-120670000I-462J-2990000D01*
G01*
%TO.C,D47*%
X14965000Y-120670000D02*
X18055000Y-120670000D01*
X19010000Y-118110000D02*
G75*
G03*
X19010000Y-118110000I-2500000J0D01*
G01*
X16509538Y-115120000D02*
G75*
G02*
X18054830Y-120670000I462J-2990000D01*
G01*
X16510462Y-115120000D02*
G75*
G03*
X14965170Y-120670000I-462J-2990000D01*
G01*
%TO.C,D46*%
X22585000Y-120670000D02*
X25675000Y-120670000D01*
X26630000Y-118110000D02*
G75*
G03*
X26630000Y-118110000I-2500000J0D01*
G01*
X24129538Y-115120000D02*
G75*
G02*
X25674830Y-120670000I462J-2990000D01*
G01*
X24130462Y-115120000D02*
G75*
G03*
X22585170Y-120670000I-462J-2990000D01*
G01*
%TO.C,D45*%
X30205000Y-120670000D02*
X33295000Y-120670000D01*
X34250000Y-118110000D02*
G75*
G03*
X34250000Y-118110000I-2500000J0D01*
G01*
X31749538Y-115120000D02*
G75*
G02*
X33294830Y-120670000I462J-2990000D01*
G01*
X31750462Y-115120000D02*
G75*
G03*
X30205170Y-120670000I-462J-2990000D01*
G01*
%TO.C,D44*%
X37825000Y-120670000D02*
X40915000Y-120670000D01*
X41870000Y-118110000D02*
G75*
G03*
X41870000Y-118110000I-2500000J0D01*
G01*
X39369538Y-115120000D02*
G75*
G02*
X40914830Y-120670000I462J-2990000D01*
G01*
X39370462Y-115120000D02*
G75*
G03*
X37825170Y-120670000I-462J-2990000D01*
G01*
%TO.C,D43*%
X45445000Y-120670000D02*
X48535000Y-120670000D01*
X49490000Y-118110000D02*
G75*
G03*
X49490000Y-118110000I-2500000J0D01*
G01*
X46989538Y-115120000D02*
G75*
G02*
X48534830Y-120670000I462J-2990000D01*
G01*
X46990462Y-115120000D02*
G75*
G03*
X45445170Y-120670000I-462J-2990000D01*
G01*
%TO.C,D42*%
X53065000Y-120670000D02*
X56155000Y-120670000D01*
X57110000Y-118110000D02*
G75*
G03*
X57110000Y-118110000I-2500000J0D01*
G01*
X54609538Y-115120000D02*
G75*
G02*
X56154830Y-120670000I462J-2990000D01*
G01*
X54610462Y-115120000D02*
G75*
G03*
X53065170Y-120670000I-462J-2990000D01*
G01*
%TO.C,D41*%
X60685000Y-120670000D02*
X63775000Y-120670000D01*
X64730000Y-118110000D02*
G75*
G03*
X64730000Y-118110000I-2500000J0D01*
G01*
X62229538Y-115120000D02*
G75*
G02*
X63774830Y-120670000I462J-2990000D01*
G01*
X62230462Y-115120000D02*
G75*
G03*
X60685170Y-120670000I-462J-2990000D01*
G01*
%TO.C,D40*%
X65765000Y-78760000D02*
X68855000Y-78760000D01*
X69810000Y-76200000D02*
G75*
G03*
X69810000Y-76200000I-2500000J0D01*
G01*
X67309538Y-73210000D02*
G75*
G02*
X68854830Y-78760000I462J-2990000D01*
G01*
X67310462Y-73210000D02*
G75*
G03*
X65765170Y-78760000I-462J-2990000D01*
G01*
%TO.C,D39*%
X73385000Y-78760000D02*
X76475000Y-78760000D01*
X77430000Y-76200000D02*
G75*
G03*
X77430000Y-76200000I-2500000J0D01*
G01*
X74929538Y-73210000D02*
G75*
G02*
X76474830Y-78760000I462J-2990000D01*
G01*
X74930462Y-73210000D02*
G75*
G03*
X73385170Y-78760000I-462J-2990000D01*
G01*
%TO.C,D38*%
X81005000Y-78760000D02*
X84095000Y-78760000D01*
X85050000Y-76200000D02*
G75*
G03*
X85050000Y-76200000I-2500000J0D01*
G01*
X82549538Y-73210000D02*
G75*
G02*
X84094830Y-78760000I462J-2990000D01*
G01*
X82550462Y-73210000D02*
G75*
G03*
X81005170Y-78760000I-462J-2990000D01*
G01*
%TO.C,D37*%
X88625000Y-78760000D02*
X91715000Y-78760000D01*
X92670000Y-76200000D02*
G75*
G03*
X92670000Y-76200000I-2500000J0D01*
G01*
X90169538Y-73210000D02*
G75*
G02*
X91714830Y-78760000I462J-2990000D01*
G01*
X90170462Y-73210000D02*
G75*
G03*
X88625170Y-78760000I-462J-2990000D01*
G01*
%TO.C,D36*%
X96245000Y-78760000D02*
X99335000Y-78760000D01*
X100290000Y-76200000D02*
G75*
G03*
X100290000Y-76200000I-2500000J0D01*
G01*
X97789538Y-73210000D02*
G75*
G02*
X99334830Y-78760000I462J-2990000D01*
G01*
X97790462Y-73210000D02*
G75*
G03*
X96245170Y-78760000I-462J-2990000D01*
G01*
%TO.C,D35*%
X103865000Y-78760000D02*
X106955000Y-78760000D01*
X107910000Y-76200000D02*
G75*
G03*
X107910000Y-76200000I-2500000J0D01*
G01*
X105409538Y-73210000D02*
G75*
G02*
X106954830Y-78760000I462J-2990000D01*
G01*
X105410462Y-73210000D02*
G75*
G03*
X103865170Y-78760000I-462J-2990000D01*
G01*
%TO.C,D34*%
X111485000Y-78760000D02*
X114575000Y-78760000D01*
X115530000Y-76200000D02*
G75*
G03*
X115530000Y-76200000I-2500000J0D01*
G01*
X113029538Y-73210000D02*
G75*
G02*
X114574830Y-78760000I462J-2990000D01*
G01*
X113030462Y-73210000D02*
G75*
G03*
X111485170Y-78760000I-462J-2990000D01*
G01*
%TO.C,D33*%
X119105000Y-78760000D02*
X122195000Y-78760000D01*
X123150000Y-76200000D02*
G75*
G03*
X123150000Y-76200000I-2500000J0D01*
G01*
X120649538Y-73210000D02*
G75*
G02*
X122194830Y-78760000I462J-2990000D01*
G01*
X120650462Y-73210000D02*
G75*
G03*
X119105170Y-78760000I-462J-2990000D01*
G01*
%TO.C,D32*%
X3535000Y-78760000D02*
X6625000Y-78760000D01*
X7580000Y-76200000D02*
G75*
G03*
X7580000Y-76200000I-2500000J0D01*
G01*
X5079538Y-73210000D02*
G75*
G02*
X6624830Y-78760000I462J-2990000D01*
G01*
X5080462Y-73210000D02*
G75*
G03*
X3535170Y-78760000I-462J-2990000D01*
G01*
%TO.C,D31*%
X11155000Y-78760000D02*
X14245000Y-78760000D01*
X15200000Y-76200000D02*
G75*
G03*
X15200000Y-76200000I-2500000J0D01*
G01*
X12699538Y-73210000D02*
G75*
G02*
X14244830Y-78760000I462J-2990000D01*
G01*
X12700462Y-73210000D02*
G75*
G03*
X11155170Y-78760000I-462J-2990000D01*
G01*
%TO.C,D30*%
X18775000Y-78760000D02*
X21865000Y-78760000D01*
X22820000Y-76200000D02*
G75*
G03*
X22820000Y-76200000I-2500000J0D01*
G01*
X20319538Y-73210000D02*
G75*
G02*
X21864830Y-78760000I462J-2990000D01*
G01*
X20320462Y-73210000D02*
G75*
G03*
X18775170Y-78760000I-462J-2990000D01*
G01*
%TO.C,D29*%
X26395000Y-78760000D02*
X29485000Y-78760000D01*
X30440000Y-76200000D02*
G75*
G03*
X30440000Y-76200000I-2500000J0D01*
G01*
X27939538Y-73210000D02*
G75*
G02*
X29484830Y-78760000I462J-2990000D01*
G01*
X27940462Y-73210000D02*
G75*
G03*
X26395170Y-78760000I-462J-2990000D01*
G01*
%TO.C,D28*%
X34015000Y-78760000D02*
X37105000Y-78760000D01*
X38060000Y-76200000D02*
G75*
G03*
X38060000Y-76200000I-2500000J0D01*
G01*
X35559538Y-73210000D02*
G75*
G02*
X37104830Y-78760000I462J-2990000D01*
G01*
X35560462Y-73210000D02*
G75*
G03*
X34015170Y-78760000I-462J-2990000D01*
G01*
%TO.C,D27*%
X41635000Y-78760000D02*
X44725000Y-78760000D01*
X45680000Y-76200000D02*
G75*
G03*
X45680000Y-76200000I-2500000J0D01*
G01*
X43179538Y-73210000D02*
G75*
G02*
X44724830Y-78760000I462J-2990000D01*
G01*
X43180462Y-73210000D02*
G75*
G03*
X41635170Y-78760000I-462J-2990000D01*
G01*
%TO.C,D26*%
X49255000Y-78760000D02*
X52345000Y-78760000D01*
X53300000Y-76200000D02*
G75*
G03*
X53300000Y-76200000I-2500000J0D01*
G01*
X50799538Y-73210000D02*
G75*
G02*
X52344830Y-78760000I462J-2990000D01*
G01*
X50800462Y-73210000D02*
G75*
G03*
X49255170Y-78760000I-462J-2990000D01*
G01*
%TO.C,D25*%
X56875000Y-78760000D02*
X59965000Y-78760000D01*
X60920000Y-76200000D02*
G75*
G03*
X60920000Y-76200000I-2500000J0D01*
G01*
X58419538Y-73210000D02*
G75*
G02*
X59964830Y-78760000I462J-2990000D01*
G01*
X58420462Y-73210000D02*
G75*
G03*
X56875170Y-78760000I-462J-2990000D01*
G01*
%TO.C,D24*%
X88625000Y-120670000D02*
X91715000Y-120670000D01*
X92670000Y-118110000D02*
G75*
G03*
X92670000Y-118110000I-2500000J0D01*
G01*
X90169538Y-115120000D02*
G75*
G02*
X91714830Y-120670000I462J-2990000D01*
G01*
X90170462Y-115120000D02*
G75*
G03*
X88625170Y-120670000I-462J-2990000D01*
G01*
%TO.C,D23*%
X96245000Y-120670000D02*
X99335000Y-120670000D01*
X100290000Y-118110000D02*
G75*
G03*
X100290000Y-118110000I-2500000J0D01*
G01*
X97789538Y-115120000D02*
G75*
G02*
X99334830Y-120670000I462J-2990000D01*
G01*
X97790462Y-115120000D02*
G75*
G03*
X96245170Y-120670000I-462J-2990000D01*
G01*
%TO.C,D22*%
X103865000Y-120670000D02*
X106955000Y-120670000D01*
X107910000Y-118110000D02*
G75*
G03*
X107910000Y-118110000I-2500000J0D01*
G01*
X105409538Y-115120000D02*
G75*
G02*
X106954830Y-120670000I462J-2990000D01*
G01*
X105410462Y-115120000D02*
G75*
G03*
X103865170Y-120670000I-462J-2990000D01*
G01*
%TO.C,D21*%
X111485000Y-120670000D02*
X114575000Y-120670000D01*
X115530000Y-118110000D02*
G75*
G03*
X115530000Y-118110000I-2500000J0D01*
G01*
X113029538Y-115120000D02*
G75*
G02*
X114574830Y-120670000I462J-2990000D01*
G01*
X113030462Y-115120000D02*
G75*
G03*
X111485170Y-120670000I-462J-2990000D01*
G01*
%TO.C,D20*%
X119105000Y-120670000D02*
X122195000Y-120670000D01*
X123150000Y-118110000D02*
G75*
G03*
X123150000Y-118110000I-2500000J0D01*
G01*
X120649538Y-115120000D02*
G75*
G02*
X122194830Y-120670000I462J-2990000D01*
G01*
X120650462Y-115120000D02*
G75*
G03*
X119105170Y-120670000I-462J-2990000D01*
G01*
%TO.C,D19*%
X126725000Y-120670000D02*
X129815000Y-120670000D01*
X130770000Y-118110000D02*
G75*
G03*
X130770000Y-118110000I-2500000J0D01*
G01*
X128269538Y-115120000D02*
G75*
G02*
X129814830Y-120670000I462J-2990000D01*
G01*
X128270462Y-115120000D02*
G75*
G03*
X126725170Y-120670000I-462J-2990000D01*
G01*
%TO.C,D18*%
X134345000Y-120670000D02*
X137435000Y-120670000D01*
X138390000Y-118110000D02*
G75*
G03*
X138390000Y-118110000I-2500000J0D01*
G01*
X135889538Y-115120000D02*
G75*
G02*
X137434830Y-120670000I462J-2990000D01*
G01*
X135890462Y-115120000D02*
G75*
G03*
X134345170Y-120670000I-462J-2990000D01*
G01*
%TO.C,D17*%
X141965000Y-120670000D02*
X145055000Y-120670000D01*
X146010000Y-118110000D02*
G75*
G03*
X146010000Y-118110000I-2500000J0D01*
G01*
X143509538Y-115120000D02*
G75*
G02*
X145054830Y-120670000I462J-2990000D01*
G01*
X143510462Y-115120000D02*
G75*
G03*
X141965170Y-120670000I-462J-2990000D01*
G01*
%TO.C,D16*%
X3535000Y-41930000D02*
X6625000Y-41930000D01*
X7580000Y-39370000D02*
G75*
G03*
X7580000Y-39370000I-2500000J0D01*
G01*
X5079538Y-36380000D02*
G75*
G02*
X6624830Y-41930000I462J-2990000D01*
G01*
X5080462Y-36380000D02*
G75*
G03*
X3535170Y-41930000I-462J-2990000D01*
G01*
%TO.C,D15*%
X11155000Y-41930000D02*
X14245000Y-41930000D01*
X15200000Y-39370000D02*
G75*
G03*
X15200000Y-39370000I-2500000J0D01*
G01*
X12699538Y-36380000D02*
G75*
G02*
X14244830Y-41930000I462J-2990000D01*
G01*
X12700462Y-36380000D02*
G75*
G03*
X11155170Y-41930000I-462J-2990000D01*
G01*
%TO.C,D14*%
X18775000Y-41930000D02*
X21865000Y-41930000D01*
X22820000Y-39370000D02*
G75*
G03*
X22820000Y-39370000I-2500000J0D01*
G01*
X20319538Y-36380000D02*
G75*
G02*
X21864830Y-41930000I462J-2990000D01*
G01*
X20320462Y-36380000D02*
G75*
G03*
X18775170Y-41930000I-462J-2990000D01*
G01*
%TO.C,D13*%
X26395000Y-41930000D02*
X29485000Y-41930000D01*
X30440000Y-39370000D02*
G75*
G03*
X30440000Y-39370000I-2500000J0D01*
G01*
X27939538Y-36380000D02*
G75*
G02*
X29484830Y-41930000I462J-2990000D01*
G01*
X27940462Y-36380000D02*
G75*
G03*
X26395170Y-41930000I-462J-2990000D01*
G01*
%TO.C,D12*%
X34015000Y-41930000D02*
X37105000Y-41930000D01*
X38060000Y-39370000D02*
G75*
G03*
X38060000Y-39370000I-2500000J0D01*
G01*
X35559538Y-36380000D02*
G75*
G02*
X37104830Y-41930000I462J-2990000D01*
G01*
X35560462Y-36380000D02*
G75*
G03*
X34015170Y-41930000I-462J-2990000D01*
G01*
%TO.C,D11*%
X41635000Y-41930000D02*
X44725000Y-41930000D01*
X45680000Y-39370000D02*
G75*
G03*
X45680000Y-39370000I-2500000J0D01*
G01*
X43179538Y-36380000D02*
G75*
G02*
X44724830Y-41930000I462J-2990000D01*
G01*
X43180462Y-36380000D02*
G75*
G03*
X41635170Y-41930000I-462J-2990000D01*
G01*
%TO.C,D10*%
X49255000Y-41930000D02*
X52345000Y-41930000D01*
X53300000Y-39370000D02*
G75*
G03*
X53300000Y-39370000I-2500000J0D01*
G01*
X50799538Y-36380000D02*
G75*
G02*
X52344830Y-41930000I462J-2990000D01*
G01*
X50800462Y-36380000D02*
G75*
G03*
X49255170Y-41930000I-462J-2990000D01*
G01*
%TO.C,D9*%
X56875000Y-41930000D02*
X59965000Y-41930000D01*
X60920000Y-39370000D02*
G75*
G03*
X60920000Y-39370000I-2500000J0D01*
G01*
X58419538Y-36380000D02*
G75*
G02*
X59964830Y-41930000I462J-2990000D01*
G01*
X58420462Y-36380000D02*
G75*
G03*
X56875170Y-41930000I-462J-2990000D01*
G01*
%TO.C,D8*%
X65765000Y-41930000D02*
X68855000Y-41930000D01*
X69810000Y-39370000D02*
G75*
G03*
X69810000Y-39370000I-2500000J0D01*
G01*
X67309538Y-36380000D02*
G75*
G02*
X68854830Y-41930000I462J-2990000D01*
G01*
X67310462Y-36380000D02*
G75*
G03*
X65765170Y-41930000I-462J-2990000D01*
G01*
%TO.C,D7*%
X73385000Y-41930000D02*
X76475000Y-41930000D01*
X77430000Y-39370000D02*
G75*
G03*
X77430000Y-39370000I-2500000J0D01*
G01*
X74929538Y-36380000D02*
G75*
G02*
X76474830Y-41930000I462J-2990000D01*
G01*
X74930462Y-36380000D02*
G75*
G03*
X73385170Y-41930000I-462J-2990000D01*
G01*
%TO.C,D6*%
X81005000Y-41930000D02*
X84095000Y-41930000D01*
X85050000Y-39370000D02*
G75*
G03*
X85050000Y-39370000I-2500000J0D01*
G01*
X82549538Y-36380000D02*
G75*
G02*
X84094830Y-41930000I462J-2990000D01*
G01*
X82550462Y-36380000D02*
G75*
G03*
X81005170Y-41930000I-462J-2990000D01*
G01*
%TO.C,D5*%
X88625000Y-41930000D02*
X91715000Y-41930000D01*
X92670000Y-39370000D02*
G75*
G03*
X92670000Y-39370000I-2500000J0D01*
G01*
X90169538Y-36380000D02*
G75*
G02*
X91714830Y-41930000I462J-2990000D01*
G01*
X90170462Y-36380000D02*
G75*
G03*
X88625170Y-41930000I-462J-2990000D01*
G01*
%TO.C,D4*%
X96245000Y-41930000D02*
X99335000Y-41930000D01*
X100290000Y-39370000D02*
G75*
G03*
X100290000Y-39370000I-2500000J0D01*
G01*
X97789538Y-36380000D02*
G75*
G02*
X99334830Y-41930000I462J-2990000D01*
G01*
X97790462Y-36380000D02*
G75*
G03*
X96245170Y-41930000I-462J-2990000D01*
G01*
%TO.C,D3*%
X103865000Y-41930000D02*
X106955000Y-41930000D01*
X107910000Y-39370000D02*
G75*
G03*
X107910000Y-39370000I-2500000J0D01*
G01*
X105409538Y-36380000D02*
G75*
G02*
X106954830Y-41930000I462J-2990000D01*
G01*
X105410462Y-36380000D02*
G75*
G03*
X103865170Y-41930000I-462J-2990000D01*
G01*
%TO.C,D2*%
X111485000Y-41930000D02*
X114575000Y-41930000D01*
X115530000Y-39370000D02*
G75*
G03*
X115530000Y-39370000I-2500000J0D01*
G01*
X113029538Y-36380000D02*
G75*
G02*
X114574830Y-41930000I462J-2990000D01*
G01*
X113030462Y-36380000D02*
G75*
G03*
X111485170Y-41930000I-462J-2990000D01*
G01*
%TO.C,D0*%
X119105000Y-41930000D02*
X122195000Y-41930000D01*
X123150000Y-39370000D02*
G75*
G03*
X123150000Y-39370000I-2500000J0D01*
G01*
X120649538Y-36380000D02*
G75*
G02*
X122194830Y-41930000I462J-2990000D01*
G01*
X120650462Y-36380000D02*
G75*
G03*
X119105170Y-41930000I-462J-2990000D01*
G01*
%TO.C,C16*%
X11775000Y-100860000D02*
X11530000Y-100860000D01*
X13870000Y-100860000D02*
X13625000Y-100860000D01*
X11775000Y-97220000D02*
X11530000Y-97220000D01*
X13870000Y-97220000D02*
X13625000Y-97220000D01*
X11530000Y-97220000D02*
X11530000Y-100860000D01*
X13870000Y-97220000D02*
X13870000Y-100860000D01*
%TO.C,C15*%
X126075000Y-60220000D02*
X125830000Y-60220000D01*
X128170000Y-60220000D02*
X127925000Y-60220000D01*
X126075000Y-56580000D02*
X125830000Y-56580000D01*
X128170000Y-56580000D02*
X127925000Y-56580000D01*
X125830000Y-56580000D02*
X125830000Y-60220000D01*
X128170000Y-56580000D02*
X128170000Y-60220000D01*
%TO.C,C14*%
X62575000Y-60260000D02*
X62330000Y-60260000D01*
X64670000Y-60260000D02*
X64425000Y-60260000D01*
X62575000Y-56620000D02*
X62330000Y-56620000D01*
X64670000Y-56620000D02*
X64425000Y-56620000D01*
X62330000Y-56620000D02*
X62330000Y-60260000D01*
X64670000Y-56620000D02*
X64670000Y-60260000D01*
%TO.C,C13*%
X37175000Y-60220000D02*
X36930000Y-60220000D01*
X39270000Y-60220000D02*
X39025000Y-60220000D01*
X37175000Y-56580000D02*
X36930000Y-56580000D01*
X39270000Y-56580000D02*
X39025000Y-56580000D01*
X36930000Y-56580000D02*
X36930000Y-60220000D01*
X39270000Y-56580000D02*
X39270000Y-60220000D01*
%TO.C,C12*%
X140045000Y-100860000D02*
X139800000Y-100860000D01*
X142140000Y-100860000D02*
X141895000Y-100860000D01*
X140045000Y-97220000D02*
X139800000Y-97220000D01*
X142140000Y-97220000D02*
X141895000Y-97220000D01*
X139800000Y-97220000D02*
X139800000Y-100860000D01*
X142140000Y-97220000D02*
X142140000Y-100860000D01*
%TO.C,C11*%
X159095000Y-60220000D02*
X158850000Y-60220000D01*
X161190000Y-60220000D02*
X160945000Y-60220000D01*
X159095000Y-56580000D02*
X158850000Y-56580000D01*
X161190000Y-56580000D02*
X160945000Y-56580000D01*
X158850000Y-56580000D02*
X158850000Y-60220000D01*
X161190000Y-56580000D02*
X161190000Y-60220000D01*
%TO.C,C10*%
X91785000Y-60220000D02*
X91540000Y-60220000D01*
X93880000Y-60220000D02*
X93635000Y-60220000D01*
X91785000Y-56580000D02*
X91540000Y-56580000D01*
X93880000Y-56580000D02*
X93635000Y-56580000D01*
X91540000Y-56580000D02*
X91540000Y-60220000D01*
X93880000Y-56580000D02*
X93880000Y-60220000D01*
%TO.C,C9*%
X1615000Y-60220000D02*
X1370000Y-60220000D01*
X3710000Y-60220000D02*
X3465000Y-60220000D01*
X1615000Y-56580000D02*
X1370000Y-56580000D01*
X3710000Y-56580000D02*
X3465000Y-56580000D01*
X1370000Y-56580000D02*
X1370000Y-60220000D01*
X3710000Y-56580000D02*
X3710000Y-60220000D01*
%TO.C,C8*%
X71465000Y-100860000D02*
X71220000Y-100860000D01*
X73560000Y-100860000D02*
X73315000Y-100860000D01*
X71465000Y-97220000D02*
X71220000Y-97220000D01*
X73560000Y-97220000D02*
X73315000Y-97220000D01*
X71220000Y-97220000D02*
X71220000Y-100860000D01*
X73560000Y-97220000D02*
X73560000Y-100860000D01*
%TO.C,C7*%
X105755000Y-100860000D02*
X105510000Y-100860000D01*
X107850000Y-100860000D02*
X107605000Y-100860000D01*
X105755000Y-97220000D02*
X105510000Y-97220000D01*
X107850000Y-97220000D02*
X107605000Y-97220000D01*
X105510000Y-97220000D02*
X105510000Y-100860000D01*
X107850000Y-97220000D02*
X107850000Y-100860000D01*
%TO.C,C6*%
X91785000Y-27200000D02*
X91540000Y-27200000D01*
X93880000Y-27200000D02*
X93635000Y-27200000D01*
X91785000Y-23560000D02*
X91540000Y-23560000D01*
X93880000Y-23560000D02*
X93635000Y-23560000D01*
X91540000Y-23560000D02*
X91540000Y-27200000D01*
X93880000Y-23560000D02*
X93880000Y-27200000D01*
%TO.C,C5*%
X1615000Y-27200000D02*
X1370000Y-27200000D01*
X3710000Y-27200000D02*
X3465000Y-27200000D01*
X1615000Y-23560000D02*
X1370000Y-23560000D01*
X3710000Y-23560000D02*
X3465000Y-23560000D01*
X1370000Y-23560000D02*
X1370000Y-27200000D01*
X3710000Y-23560000D02*
X3710000Y-27200000D01*
%TO.C,C4*%
X157825000Y-27200000D02*
X157580000Y-27200000D01*
X159920000Y-27200000D02*
X159675000Y-27200000D01*
X157825000Y-23560000D02*
X157580000Y-23560000D01*
X159920000Y-23560000D02*
X159675000Y-23560000D01*
X157580000Y-23560000D02*
X157580000Y-27200000D01*
X159920000Y-23560000D02*
X159920000Y-27200000D01*
%TO.C,C3*%
X124805000Y-27200000D02*
X124560000Y-27200000D01*
X126900000Y-27200000D02*
X126655000Y-27200000D01*
X124805000Y-23560000D02*
X124560000Y-23560000D01*
X126900000Y-23560000D02*
X126655000Y-23560000D01*
X124560000Y-23560000D02*
X124560000Y-27200000D01*
X126900000Y-23560000D02*
X126900000Y-27200000D01*
%TO.C,C2*%
X62575000Y-27200000D02*
X62330000Y-27200000D01*
X64670000Y-27200000D02*
X64425000Y-27200000D01*
X62575000Y-23560000D02*
X62330000Y-23560000D01*
X64670000Y-23560000D02*
X64425000Y-23560000D01*
X62330000Y-23560000D02*
X62330000Y-27200000D01*
X64670000Y-23560000D02*
X64670000Y-27200000D01*
%TO.C,C1*%
X37175000Y-27200000D02*
X36930000Y-27200000D01*
X39270000Y-27200000D02*
X39025000Y-27200000D01*
X37175000Y-23560000D02*
X36930000Y-23560000D01*
X39270000Y-23560000D02*
X39025000Y-23560000D01*
X36930000Y-23560000D02*
X36930000Y-27200000D01*
X39270000Y-23560000D02*
X39270000Y-27200000D01*
%TO.C,SW14*%
D11*
X67924761Y-140239523D02*
X67972380Y-140096666D01*
X67972380Y-139858571D01*
X67924761Y-139763333D01*
X67877142Y-139715714D01*
X67781904Y-139668095D01*
X67686666Y-139668095D01*
X67591428Y-139715714D01*
X67543809Y-139763333D01*
X67496190Y-139858571D01*
X67448571Y-140049047D01*
X67400952Y-140144285D01*
X67353333Y-140191904D01*
X67258095Y-140239523D01*
X67162857Y-140239523D01*
X67067619Y-140191904D01*
X67020000Y-140144285D01*
X66972380Y-140049047D01*
X66972380Y-139810952D01*
X67020000Y-139668095D01*
X66972380Y-139334761D02*
X67972380Y-139096666D01*
X67258095Y-138906190D01*
X67972380Y-138715714D01*
X66972380Y-138477619D01*
X67972380Y-137572857D02*
X67972380Y-138144285D01*
X67972380Y-137858571D02*
X66972380Y-137858571D01*
X67115238Y-137953809D01*
X67210476Y-138049047D01*
X67258095Y-138144285D01*
X67305714Y-136715714D02*
X67972380Y-136715714D01*
X66924761Y-136953809D02*
X67639047Y-137191904D01*
X67639047Y-136572857D01*
%TO.C,U16*%
X13632380Y-101568095D02*
X14441904Y-101568095D01*
X14537142Y-101520476D01*
X14584761Y-101472857D01*
X14632380Y-101377619D01*
X14632380Y-101187142D01*
X14584761Y-101091904D01*
X14537142Y-101044285D01*
X14441904Y-100996666D01*
X13632380Y-100996666D01*
X14632380Y-99996666D02*
X14632380Y-100568095D01*
X14632380Y-100282380D02*
X13632380Y-100282380D01*
X13775238Y-100377619D01*
X13870476Y-100472857D01*
X13918095Y-100568095D01*
X13632380Y-99139523D02*
X13632380Y-99330000D01*
X13680000Y-99425238D01*
X13727619Y-99472857D01*
X13870476Y-99568095D01*
X14060952Y-99615714D01*
X14441904Y-99615714D01*
X14537142Y-99568095D01*
X14584761Y-99520476D01*
X14632380Y-99425238D01*
X14632380Y-99234761D01*
X14584761Y-99139523D01*
X14537142Y-99091904D01*
X14441904Y-99044285D01*
X14203809Y-99044285D01*
X14108571Y-99091904D01*
X14060952Y-99139523D01*
X14013333Y-99234761D01*
X14013333Y-99425238D01*
X14060952Y-99520476D01*
X14108571Y-99568095D01*
X14203809Y-99615714D01*
%TO.C,U15*%
X127932380Y-60928095D02*
X128741904Y-60928095D01*
X128837142Y-60880476D01*
X128884761Y-60832857D01*
X128932380Y-60737619D01*
X128932380Y-60547142D01*
X128884761Y-60451904D01*
X128837142Y-60404285D01*
X128741904Y-60356666D01*
X127932380Y-60356666D01*
X128932380Y-59356666D02*
X128932380Y-59928095D01*
X128932380Y-59642380D02*
X127932380Y-59642380D01*
X128075238Y-59737619D01*
X128170476Y-59832857D01*
X128218095Y-59928095D01*
X127932380Y-58451904D02*
X127932380Y-58928095D01*
X128408571Y-58975714D01*
X128360952Y-58928095D01*
X128313333Y-58832857D01*
X128313333Y-58594761D01*
X128360952Y-58499523D01*
X128408571Y-58451904D01*
X128503809Y-58404285D01*
X128741904Y-58404285D01*
X128837142Y-58451904D01*
X128884761Y-58499523D01*
X128932380Y-58594761D01*
X128932380Y-58832857D01*
X128884761Y-58928095D01*
X128837142Y-58975714D01*
%TO.C,U14*%
X64432380Y-60928095D02*
X65241904Y-60928095D01*
X65337142Y-60880476D01*
X65384761Y-60832857D01*
X65432380Y-60737619D01*
X65432380Y-60547142D01*
X65384761Y-60451904D01*
X65337142Y-60404285D01*
X65241904Y-60356666D01*
X64432380Y-60356666D01*
X65432380Y-59356666D02*
X65432380Y-59928095D01*
X65432380Y-59642380D02*
X64432380Y-59642380D01*
X64575238Y-59737619D01*
X64670476Y-59832857D01*
X64718095Y-59928095D01*
X64765714Y-58499523D02*
X65432380Y-58499523D01*
X64384761Y-58737619D02*
X65099047Y-58975714D01*
X65099047Y-58356666D01*
%TO.C,U13*%
X39032380Y-60928095D02*
X39841904Y-60928095D01*
X39937142Y-60880476D01*
X39984761Y-60832857D01*
X40032380Y-60737619D01*
X40032380Y-60547142D01*
X39984761Y-60451904D01*
X39937142Y-60404285D01*
X39841904Y-60356666D01*
X39032380Y-60356666D01*
X40032380Y-59356666D02*
X40032380Y-59928095D01*
X40032380Y-59642380D02*
X39032380Y-59642380D01*
X39175238Y-59737619D01*
X39270476Y-59832857D01*
X39318095Y-59928095D01*
X39032380Y-59023333D02*
X39032380Y-58404285D01*
X39413333Y-58737619D01*
X39413333Y-58594761D01*
X39460952Y-58499523D01*
X39508571Y-58451904D01*
X39603809Y-58404285D01*
X39841904Y-58404285D01*
X39937142Y-58451904D01*
X39984761Y-58499523D01*
X40032380Y-58594761D01*
X40032380Y-58880476D01*
X39984761Y-58975714D01*
X39937142Y-59023333D01*
%TO.C,U12*%
X143172380Y-101568095D02*
X143981904Y-101568095D01*
X144077142Y-101520476D01*
X144124761Y-101472857D01*
X144172380Y-101377619D01*
X144172380Y-101187142D01*
X144124761Y-101091904D01*
X144077142Y-101044285D01*
X143981904Y-100996666D01*
X143172380Y-100996666D01*
X144172380Y-99996666D02*
X144172380Y-100568095D01*
X144172380Y-100282380D02*
X143172380Y-100282380D01*
X143315238Y-100377619D01*
X143410476Y-100472857D01*
X143458095Y-100568095D01*
X143267619Y-99615714D02*
X143220000Y-99568095D01*
X143172380Y-99472857D01*
X143172380Y-99234761D01*
X143220000Y-99139523D01*
X143267619Y-99091904D01*
X143362857Y-99044285D01*
X143458095Y-99044285D01*
X143600952Y-99091904D01*
X144172380Y-99663333D01*
X144172380Y-99044285D01*
%TO.C,U11*%
X160952380Y-60928095D02*
X161761904Y-60928095D01*
X161857142Y-60880476D01*
X161904761Y-60832857D01*
X161952380Y-60737619D01*
X161952380Y-60547142D01*
X161904761Y-60451904D01*
X161857142Y-60404285D01*
X161761904Y-60356666D01*
X160952380Y-60356666D01*
X161952380Y-59356666D02*
X161952380Y-59928095D01*
X161952380Y-59642380D02*
X160952380Y-59642380D01*
X161095238Y-59737619D01*
X161190476Y-59832857D01*
X161238095Y-59928095D01*
X161952380Y-58404285D02*
X161952380Y-58975714D01*
X161952380Y-58690000D02*
X160952380Y-58690000D01*
X161095238Y-58785238D01*
X161190476Y-58880476D01*
X161238095Y-58975714D01*
%TO.C,U10*%
X93642380Y-60928095D02*
X94451904Y-60928095D01*
X94547142Y-60880476D01*
X94594761Y-60832857D01*
X94642380Y-60737619D01*
X94642380Y-60547142D01*
X94594761Y-60451904D01*
X94547142Y-60404285D01*
X94451904Y-60356666D01*
X93642380Y-60356666D01*
X94642380Y-59356666D02*
X94642380Y-59928095D01*
X94642380Y-59642380D02*
X93642380Y-59642380D01*
X93785238Y-59737619D01*
X93880476Y-59832857D01*
X93928095Y-59928095D01*
X93642380Y-58737619D02*
X93642380Y-58642380D01*
X93690000Y-58547142D01*
X93737619Y-58499523D01*
X93832857Y-58451904D01*
X94023333Y-58404285D01*
X94261428Y-58404285D01*
X94451904Y-58451904D01*
X94547142Y-58499523D01*
X94594761Y-58547142D01*
X94642380Y-58642380D01*
X94642380Y-58737619D01*
X94594761Y-58832857D01*
X94547142Y-58880476D01*
X94451904Y-58928095D01*
X94261428Y-58975714D01*
X94023333Y-58975714D01*
X93832857Y-58928095D01*
X93737619Y-58880476D01*
X93690000Y-58832857D01*
X93642380Y-58737619D01*
%TO.C,U9*%
X3472380Y-60451904D02*
X4281904Y-60451904D01*
X4377142Y-60404285D01*
X4424761Y-60356666D01*
X4472380Y-60261428D01*
X4472380Y-60070952D01*
X4424761Y-59975714D01*
X4377142Y-59928095D01*
X4281904Y-59880476D01*
X3472380Y-59880476D01*
X4472380Y-59356666D02*
X4472380Y-59166190D01*
X4424761Y-59070952D01*
X4377142Y-59023333D01*
X4234285Y-58928095D01*
X4043809Y-58880476D01*
X3662857Y-58880476D01*
X3567619Y-58928095D01*
X3520000Y-58975714D01*
X3472380Y-59070952D01*
X3472380Y-59261428D01*
X3520000Y-59356666D01*
X3567619Y-59404285D01*
X3662857Y-59451904D01*
X3900952Y-59451904D01*
X3996190Y-59404285D01*
X4043809Y-59356666D01*
X4091428Y-59261428D01*
X4091428Y-59070952D01*
X4043809Y-58975714D01*
X3996190Y-58928095D01*
X3900952Y-58880476D01*
%TO.C,U8*%
X73322380Y-101091904D02*
X74131904Y-101091904D01*
X74227142Y-101044285D01*
X74274761Y-100996666D01*
X74322380Y-100901428D01*
X74322380Y-100710952D01*
X74274761Y-100615714D01*
X74227142Y-100568095D01*
X74131904Y-100520476D01*
X73322380Y-100520476D01*
X73750952Y-99901428D02*
X73703333Y-99996666D01*
X73655714Y-100044285D01*
X73560476Y-100091904D01*
X73512857Y-100091904D01*
X73417619Y-100044285D01*
X73370000Y-99996666D01*
X73322380Y-99901428D01*
X73322380Y-99710952D01*
X73370000Y-99615714D01*
X73417619Y-99568095D01*
X73512857Y-99520476D01*
X73560476Y-99520476D01*
X73655714Y-99568095D01*
X73703333Y-99615714D01*
X73750952Y-99710952D01*
X73750952Y-99901428D01*
X73798571Y-99996666D01*
X73846190Y-100044285D01*
X73941428Y-100091904D01*
X74131904Y-100091904D01*
X74227142Y-100044285D01*
X74274761Y-99996666D01*
X74322380Y-99901428D01*
X74322380Y-99710952D01*
X74274761Y-99615714D01*
X74227142Y-99568095D01*
X74131904Y-99520476D01*
X73941428Y-99520476D01*
X73846190Y-99568095D01*
X73798571Y-99615714D01*
X73750952Y-99710952D01*
%TO.C,U7*%
X107612380Y-101091904D02*
X108421904Y-101091904D01*
X108517142Y-101044285D01*
X108564761Y-100996666D01*
X108612380Y-100901428D01*
X108612380Y-100710952D01*
X108564761Y-100615714D01*
X108517142Y-100568095D01*
X108421904Y-100520476D01*
X107612380Y-100520476D01*
X107612380Y-100139523D02*
X107612380Y-99472857D01*
X108612380Y-99901428D01*
%TO.C,U6*%
X93642380Y-27431904D02*
X94451904Y-27431904D01*
X94547142Y-27384285D01*
X94594761Y-27336666D01*
X94642380Y-27241428D01*
X94642380Y-27050952D01*
X94594761Y-26955714D01*
X94547142Y-26908095D01*
X94451904Y-26860476D01*
X93642380Y-26860476D01*
X93642380Y-25955714D02*
X93642380Y-26146190D01*
X93690000Y-26241428D01*
X93737619Y-26289047D01*
X93880476Y-26384285D01*
X94070952Y-26431904D01*
X94451904Y-26431904D01*
X94547142Y-26384285D01*
X94594761Y-26336666D01*
X94642380Y-26241428D01*
X94642380Y-26050952D01*
X94594761Y-25955714D01*
X94547142Y-25908095D01*
X94451904Y-25860476D01*
X94213809Y-25860476D01*
X94118571Y-25908095D01*
X94070952Y-25955714D01*
X94023333Y-26050952D01*
X94023333Y-26241428D01*
X94070952Y-26336666D01*
X94118571Y-26384285D01*
X94213809Y-26431904D01*
%TO.C,U5*%
X3472380Y-27431904D02*
X4281904Y-27431904D01*
X4377142Y-27384285D01*
X4424761Y-27336666D01*
X4472380Y-27241428D01*
X4472380Y-27050952D01*
X4424761Y-26955714D01*
X4377142Y-26908095D01*
X4281904Y-26860476D01*
X3472380Y-26860476D01*
X3472380Y-25908095D02*
X3472380Y-26384285D01*
X3948571Y-26431904D01*
X3900952Y-26384285D01*
X3853333Y-26289047D01*
X3853333Y-26050952D01*
X3900952Y-25955714D01*
X3948571Y-25908095D01*
X4043809Y-25860476D01*
X4281904Y-25860476D01*
X4377142Y-25908095D01*
X4424761Y-25955714D01*
X4472380Y-26050952D01*
X4472380Y-26289047D01*
X4424761Y-26384285D01*
X4377142Y-26431904D01*
%TO.C,U4*%
X159682380Y-27431904D02*
X160491904Y-27431904D01*
X160587142Y-27384285D01*
X160634761Y-27336666D01*
X160682380Y-27241428D01*
X160682380Y-27050952D01*
X160634761Y-26955714D01*
X160587142Y-26908095D01*
X160491904Y-26860476D01*
X159682380Y-26860476D01*
X160015714Y-25955714D02*
X160682380Y-25955714D01*
X159634761Y-26193809D02*
X160349047Y-26431904D01*
X160349047Y-25812857D01*
%TO.C,U3*%
X127932380Y-27431904D02*
X128741904Y-27431904D01*
X128837142Y-27384285D01*
X128884761Y-27336666D01*
X128932380Y-27241428D01*
X128932380Y-27050952D01*
X128884761Y-26955714D01*
X128837142Y-26908095D01*
X128741904Y-26860476D01*
X127932380Y-26860476D01*
X127932380Y-26479523D02*
X127932380Y-25860476D01*
X128313333Y-26193809D01*
X128313333Y-26050952D01*
X128360952Y-25955714D01*
X128408571Y-25908095D01*
X128503809Y-25860476D01*
X128741904Y-25860476D01*
X128837142Y-25908095D01*
X128884761Y-25955714D01*
X128932380Y-26050952D01*
X128932380Y-26336666D01*
X128884761Y-26431904D01*
X128837142Y-26479523D01*
%TO.C,U2*%
X64432380Y-27431904D02*
X65241904Y-27431904D01*
X65337142Y-27384285D01*
X65384761Y-27336666D01*
X65432380Y-27241428D01*
X65432380Y-27050952D01*
X65384761Y-26955714D01*
X65337142Y-26908095D01*
X65241904Y-26860476D01*
X64432380Y-26860476D01*
X64527619Y-26431904D02*
X64480000Y-26384285D01*
X64432380Y-26289047D01*
X64432380Y-26050952D01*
X64480000Y-25955714D01*
X64527619Y-25908095D01*
X64622857Y-25860476D01*
X64718095Y-25860476D01*
X64860952Y-25908095D01*
X65432380Y-26479523D01*
X65432380Y-25860476D01*
%TO.C,U1*%
X39032380Y-27431904D02*
X39841904Y-27431904D01*
X39937142Y-27384285D01*
X39984761Y-27336666D01*
X40032380Y-27241428D01*
X40032380Y-27050952D01*
X39984761Y-26955714D01*
X39937142Y-26908095D01*
X39841904Y-26860476D01*
X39032380Y-26860476D01*
X40032380Y-25860476D02*
X40032380Y-26431904D01*
X40032380Y-26146190D02*
X39032380Y-26146190D01*
X39175238Y-26241428D01*
X39270476Y-26336666D01*
X39318095Y-26431904D01*
%TO.C,SW13*%
X143680476Y-78414761D02*
X143823333Y-78462380D01*
X144061428Y-78462380D01*
X144156666Y-78414761D01*
X144204285Y-78367142D01*
X144251904Y-78271904D01*
X144251904Y-78176666D01*
X144204285Y-78081428D01*
X144156666Y-78033809D01*
X144061428Y-77986190D01*
X143870952Y-77938571D01*
X143775714Y-77890952D01*
X143728095Y-77843333D01*
X143680476Y-77748095D01*
X143680476Y-77652857D01*
X143728095Y-77557619D01*
X143775714Y-77510000D01*
X143870952Y-77462380D01*
X144109047Y-77462380D01*
X144251904Y-77510000D01*
X144585238Y-77462380D02*
X144823333Y-78462380D01*
X145013809Y-77748095D01*
X145204285Y-78462380D01*
X145442380Y-77462380D01*
X146347142Y-78462380D02*
X145775714Y-78462380D01*
X146061428Y-78462380D02*
X146061428Y-77462380D01*
X145966190Y-77605238D01*
X145870952Y-77700476D01*
X145775714Y-77748095D01*
X146680476Y-77462380D02*
X147299523Y-77462380D01*
X146966190Y-77843333D01*
X147109047Y-77843333D01*
X147204285Y-77890952D01*
X147251904Y-77938571D01*
X147299523Y-78033809D01*
X147299523Y-78271904D01*
X147251904Y-78367142D01*
X147204285Y-78414761D01*
X147109047Y-78462380D01*
X146823333Y-78462380D01*
X146728095Y-78414761D01*
X146680476Y-78367142D01*
%TO.C,SW12*%
X171470476Y-86224761D02*
X171613333Y-86272380D01*
X171851428Y-86272380D01*
X171946666Y-86224761D01*
X171994285Y-86177142D01*
X172041904Y-86081904D01*
X172041904Y-85986666D01*
X171994285Y-85891428D01*
X171946666Y-85843809D01*
X171851428Y-85796190D01*
X171660952Y-85748571D01*
X171565714Y-85700952D01*
X171518095Y-85653333D01*
X171470476Y-85558095D01*
X171470476Y-85462857D01*
X171518095Y-85367619D01*
X171565714Y-85320000D01*
X171660952Y-85272380D01*
X171899047Y-85272380D01*
X172041904Y-85320000D01*
X172375238Y-85272380D02*
X172613333Y-86272380D01*
X172803809Y-85558095D01*
X172994285Y-86272380D01*
X173232380Y-85272380D01*
X174137142Y-86272380D02*
X173565714Y-86272380D01*
X173851428Y-86272380D02*
X173851428Y-85272380D01*
X173756190Y-85415238D01*
X173660952Y-85510476D01*
X173565714Y-85558095D01*
X174518095Y-85367619D02*
X174565714Y-85320000D01*
X174660952Y-85272380D01*
X174899047Y-85272380D01*
X174994285Y-85320000D01*
X175041904Y-85367619D01*
X175089523Y-85462857D01*
X175089523Y-85558095D01*
X175041904Y-85700952D01*
X174470476Y-86272380D01*
X175089523Y-86272380D01*
%TO.C,SW11*%
X13990476Y-17644761D02*
X14133333Y-17692380D01*
X14371428Y-17692380D01*
X14466666Y-17644761D01*
X14514285Y-17597142D01*
X14561904Y-17501904D01*
X14561904Y-17406666D01*
X14514285Y-17311428D01*
X14466666Y-17263809D01*
X14371428Y-17216190D01*
X14180952Y-17168571D01*
X14085714Y-17120952D01*
X14038095Y-17073333D01*
X13990476Y-16978095D01*
X13990476Y-16882857D01*
X14038095Y-16787619D01*
X14085714Y-16740000D01*
X14180952Y-16692380D01*
X14419047Y-16692380D01*
X14561904Y-16740000D01*
X14895238Y-16692380D02*
X15133333Y-17692380D01*
X15323809Y-16978095D01*
X15514285Y-17692380D01*
X15752380Y-16692380D01*
X16657142Y-17692380D02*
X16085714Y-17692380D01*
X16371428Y-17692380D02*
X16371428Y-16692380D01*
X16276190Y-16835238D01*
X16180952Y-16930476D01*
X16085714Y-16978095D01*
X17609523Y-17692380D02*
X17038095Y-17692380D01*
X17323809Y-17692380D02*
X17323809Y-16692380D01*
X17228571Y-16835238D01*
X17133333Y-16930476D01*
X17038095Y-16978095D01*
%TO.C,SW10*%
X16530476Y-91304761D02*
X16673333Y-91352380D01*
X16911428Y-91352380D01*
X17006666Y-91304761D01*
X17054285Y-91257142D01*
X17101904Y-91161904D01*
X17101904Y-91066666D01*
X17054285Y-90971428D01*
X17006666Y-90923809D01*
X16911428Y-90876190D01*
X16720952Y-90828571D01*
X16625714Y-90780952D01*
X16578095Y-90733333D01*
X16530476Y-90638095D01*
X16530476Y-90542857D01*
X16578095Y-90447619D01*
X16625714Y-90400000D01*
X16720952Y-90352380D01*
X16959047Y-90352380D01*
X17101904Y-90400000D01*
X17435238Y-90352380D02*
X17673333Y-91352380D01*
X17863809Y-90638095D01*
X18054285Y-91352380D01*
X18292380Y-90352380D01*
X19197142Y-91352380D02*
X18625714Y-91352380D01*
X18911428Y-91352380D02*
X18911428Y-90352380D01*
X18816190Y-90495238D01*
X18720952Y-90590476D01*
X18625714Y-90638095D01*
X19816190Y-90352380D02*
X19911428Y-90352380D01*
X20006666Y-90400000D01*
X20054285Y-90447619D01*
X20101904Y-90542857D01*
X20149523Y-90733333D01*
X20149523Y-90971428D01*
X20101904Y-91161904D01*
X20054285Y-91257142D01*
X20006666Y-91304761D01*
X19911428Y-91352380D01*
X19816190Y-91352380D01*
X19720952Y-91304761D01*
X19673333Y-91257142D01*
X19625714Y-91161904D01*
X19578095Y-90971428D01*
X19578095Y-90733333D01*
X19625714Y-90542857D01*
X19673333Y-90447619D01*
X19720952Y-90400000D01*
X19816190Y-90352380D01*
%TO.C,SW9*%
X141616666Y-52624761D02*
X141759523Y-52672380D01*
X141997619Y-52672380D01*
X142092857Y-52624761D01*
X142140476Y-52577142D01*
X142188095Y-52481904D01*
X142188095Y-52386666D01*
X142140476Y-52291428D01*
X142092857Y-52243809D01*
X141997619Y-52196190D01*
X141807142Y-52148571D01*
X141711904Y-52100952D01*
X141664285Y-52053333D01*
X141616666Y-51958095D01*
X141616666Y-51862857D01*
X141664285Y-51767619D01*
X141711904Y-51720000D01*
X141807142Y-51672380D01*
X142045238Y-51672380D01*
X142188095Y-51720000D01*
X142521428Y-51672380D02*
X142759523Y-52672380D01*
X142950000Y-51958095D01*
X143140476Y-52672380D01*
X143378571Y-51672380D01*
X143807142Y-52672380D02*
X143997619Y-52672380D01*
X144092857Y-52624761D01*
X144140476Y-52577142D01*
X144235714Y-52434285D01*
X144283333Y-52243809D01*
X144283333Y-51862857D01*
X144235714Y-51767619D01*
X144188095Y-51720000D01*
X144092857Y-51672380D01*
X143902380Y-51672380D01*
X143807142Y-51720000D01*
X143759523Y-51767619D01*
X143711904Y-51862857D01*
X143711904Y-52100952D01*
X143759523Y-52196190D01*
X143807142Y-52243809D01*
X143902380Y-52291428D01*
X144092857Y-52291428D01*
X144188095Y-52243809D01*
X144235714Y-52196190D01*
X144283333Y-52100952D01*
%TO.C,SW8*%
X56376666Y-18914761D02*
X56519523Y-18962380D01*
X56757619Y-18962380D01*
X56852857Y-18914761D01*
X56900476Y-18867142D01*
X56948095Y-18771904D01*
X56948095Y-18676666D01*
X56900476Y-18581428D01*
X56852857Y-18533809D01*
X56757619Y-18486190D01*
X56567142Y-18438571D01*
X56471904Y-18390952D01*
X56424285Y-18343333D01*
X56376666Y-18248095D01*
X56376666Y-18152857D01*
X56424285Y-18057619D01*
X56471904Y-18010000D01*
X56567142Y-17962380D01*
X56805238Y-17962380D01*
X56948095Y-18010000D01*
X57281428Y-17962380D02*
X57519523Y-18962380D01*
X57710000Y-18248095D01*
X57900476Y-18962380D01*
X58138571Y-17962380D01*
X58662380Y-18390952D02*
X58567142Y-18343333D01*
X58519523Y-18295714D01*
X58471904Y-18200476D01*
X58471904Y-18152857D01*
X58519523Y-18057619D01*
X58567142Y-18010000D01*
X58662380Y-17962380D01*
X58852857Y-17962380D01*
X58948095Y-18010000D01*
X58995714Y-18057619D01*
X59043333Y-18152857D01*
X59043333Y-18200476D01*
X58995714Y-18295714D01*
X58948095Y-18343333D01*
X58852857Y-18390952D01*
X58662380Y-18390952D01*
X58567142Y-18438571D01*
X58519523Y-18486190D01*
X58471904Y-18581428D01*
X58471904Y-18771904D01*
X58519523Y-18867142D01*
X58567142Y-18914761D01*
X58662380Y-18962380D01*
X58852857Y-18962380D01*
X58948095Y-18914761D01*
X58995714Y-18867142D01*
X59043333Y-18771904D01*
X59043333Y-18581428D01*
X58995714Y-18486190D01*
X58948095Y-18438571D01*
X58852857Y-18390952D01*
%TO.C,SW7*%
X173366666Y-44124761D02*
X173509523Y-44172380D01*
X173747619Y-44172380D01*
X173842857Y-44124761D01*
X173890476Y-44077142D01*
X173938095Y-43981904D01*
X173938095Y-43886666D01*
X173890476Y-43791428D01*
X173842857Y-43743809D01*
X173747619Y-43696190D01*
X173557142Y-43648571D01*
X173461904Y-43600952D01*
X173414285Y-43553333D01*
X173366666Y-43458095D01*
X173366666Y-43362857D01*
X173414285Y-43267619D01*
X173461904Y-43220000D01*
X173557142Y-43172380D01*
X173795238Y-43172380D01*
X173938095Y-43220000D01*
X174271428Y-43172380D02*
X174509523Y-44172380D01*
X174700000Y-43458095D01*
X174890476Y-44172380D01*
X175128571Y-43172380D01*
X175414285Y-43172380D02*
X176080952Y-43172380D01*
X175652380Y-44172380D01*
%TO.C,SW6*%
X126376666Y-18914761D02*
X126519523Y-18962380D01*
X126757619Y-18962380D01*
X126852857Y-18914761D01*
X126900476Y-18867142D01*
X126948095Y-18771904D01*
X126948095Y-18676666D01*
X126900476Y-18581428D01*
X126852857Y-18533809D01*
X126757619Y-18486190D01*
X126567142Y-18438571D01*
X126471904Y-18390952D01*
X126424285Y-18343333D01*
X126376666Y-18248095D01*
X126376666Y-18152857D01*
X126424285Y-18057619D01*
X126471904Y-18010000D01*
X126567142Y-17962380D01*
X126805238Y-17962380D01*
X126948095Y-18010000D01*
X127281428Y-17962380D02*
X127519523Y-18962380D01*
X127710000Y-18248095D01*
X127900476Y-18962380D01*
X128138571Y-17962380D01*
X128948095Y-17962380D02*
X128757619Y-17962380D01*
X128662380Y-18010000D01*
X128614761Y-18057619D01*
X128519523Y-18200476D01*
X128471904Y-18390952D01*
X128471904Y-18771904D01*
X128519523Y-18867142D01*
X128567142Y-18914761D01*
X128662380Y-18962380D01*
X128852857Y-18962380D01*
X128948095Y-18914761D01*
X128995714Y-18867142D01*
X129043333Y-18771904D01*
X129043333Y-18533809D01*
X128995714Y-18438571D01*
X128948095Y-18390952D01*
X128852857Y-18343333D01*
X128662380Y-18343333D01*
X128567142Y-18390952D01*
X128519523Y-18438571D01*
X128471904Y-18533809D01*
%TO.C,SW5*%
X89396666Y-18914761D02*
X89539523Y-18962380D01*
X89777619Y-18962380D01*
X89872857Y-18914761D01*
X89920476Y-18867142D01*
X89968095Y-18771904D01*
X89968095Y-18676666D01*
X89920476Y-18581428D01*
X89872857Y-18533809D01*
X89777619Y-18486190D01*
X89587142Y-18438571D01*
X89491904Y-18390952D01*
X89444285Y-18343333D01*
X89396666Y-18248095D01*
X89396666Y-18152857D01*
X89444285Y-18057619D01*
X89491904Y-18010000D01*
X89587142Y-17962380D01*
X89825238Y-17962380D01*
X89968095Y-18010000D01*
X90301428Y-17962380D02*
X90539523Y-18962380D01*
X90730000Y-18248095D01*
X90920476Y-18962380D01*
X91158571Y-17962380D01*
X92015714Y-17962380D02*
X91539523Y-17962380D01*
X91491904Y-18438571D01*
X91539523Y-18390952D01*
X91634761Y-18343333D01*
X91872857Y-18343333D01*
X91968095Y-18390952D01*
X92015714Y-18438571D01*
X92063333Y-18533809D01*
X92063333Y-18771904D01*
X92015714Y-18867142D01*
X91968095Y-18914761D01*
X91872857Y-18962380D01*
X91634761Y-18962380D01*
X91539523Y-18914761D01*
X91491904Y-18867142D01*
%TO.C,SW4*%
X187186666Y-147184761D02*
X187329523Y-147232380D01*
X187567619Y-147232380D01*
X187662857Y-147184761D01*
X187710476Y-147137142D01*
X187758095Y-147041904D01*
X187758095Y-146946666D01*
X187710476Y-146851428D01*
X187662857Y-146803809D01*
X187567619Y-146756190D01*
X187377142Y-146708571D01*
X187281904Y-146660952D01*
X187234285Y-146613333D01*
X187186666Y-146518095D01*
X187186666Y-146422857D01*
X187234285Y-146327619D01*
X187281904Y-146280000D01*
X187377142Y-146232380D01*
X187615238Y-146232380D01*
X187758095Y-146280000D01*
X188091428Y-146232380D02*
X188329523Y-147232380D01*
X188520000Y-146518095D01*
X188710476Y-147232380D01*
X188948571Y-146232380D01*
X189758095Y-146565714D02*
X189758095Y-147232380D01*
X189520000Y-146184761D02*
X189281904Y-146899047D01*
X189900952Y-146899047D01*
%TO.C,SW3*%
X187186666Y-135754761D02*
X187329523Y-135802380D01*
X187567619Y-135802380D01*
X187662857Y-135754761D01*
X187710476Y-135707142D01*
X187758095Y-135611904D01*
X187758095Y-135516666D01*
X187710476Y-135421428D01*
X187662857Y-135373809D01*
X187567619Y-135326190D01*
X187377142Y-135278571D01*
X187281904Y-135230952D01*
X187234285Y-135183333D01*
X187186666Y-135088095D01*
X187186666Y-134992857D01*
X187234285Y-134897619D01*
X187281904Y-134850000D01*
X187377142Y-134802380D01*
X187615238Y-134802380D01*
X187758095Y-134850000D01*
X188091428Y-134802380D02*
X188329523Y-135802380D01*
X188520000Y-135088095D01*
X188710476Y-135802380D01*
X188948571Y-134802380D01*
X189234285Y-134802380D02*
X189853333Y-134802380D01*
X189520000Y-135183333D01*
X189662857Y-135183333D01*
X189758095Y-135230952D01*
X189805714Y-135278571D01*
X189853333Y-135373809D01*
X189853333Y-135611904D01*
X189805714Y-135707142D01*
X189758095Y-135754761D01*
X189662857Y-135802380D01*
X189377142Y-135802380D01*
X189281904Y-135754761D01*
X189234285Y-135707142D01*
%TO.C,SW2*%
X187186666Y-124324761D02*
X187329523Y-124372380D01*
X187567619Y-124372380D01*
X187662857Y-124324761D01*
X187710476Y-124277142D01*
X187758095Y-124181904D01*
X187758095Y-124086666D01*
X187710476Y-123991428D01*
X187662857Y-123943809D01*
X187567619Y-123896190D01*
X187377142Y-123848571D01*
X187281904Y-123800952D01*
X187234285Y-123753333D01*
X187186666Y-123658095D01*
X187186666Y-123562857D01*
X187234285Y-123467619D01*
X187281904Y-123420000D01*
X187377142Y-123372380D01*
X187615238Y-123372380D01*
X187758095Y-123420000D01*
X188091428Y-123372380D02*
X188329523Y-124372380D01*
X188520000Y-123658095D01*
X188710476Y-124372380D01*
X188948571Y-123372380D01*
X189281904Y-123467619D02*
X189329523Y-123420000D01*
X189424761Y-123372380D01*
X189662857Y-123372380D01*
X189758095Y-123420000D01*
X189805714Y-123467619D01*
X189853333Y-123562857D01*
X189853333Y-123658095D01*
X189805714Y-123800952D01*
X189234285Y-124372380D01*
X189853333Y-124372380D01*
%TO.C,SW1*%
X163056666Y-11294761D02*
X163199523Y-11342380D01*
X163437619Y-11342380D01*
X163532857Y-11294761D01*
X163580476Y-11247142D01*
X163628095Y-11151904D01*
X163628095Y-11056666D01*
X163580476Y-10961428D01*
X163532857Y-10913809D01*
X163437619Y-10866190D01*
X163247142Y-10818571D01*
X163151904Y-10770952D01*
X163104285Y-10723333D01*
X163056666Y-10628095D01*
X163056666Y-10532857D01*
X163104285Y-10437619D01*
X163151904Y-10390000D01*
X163247142Y-10342380D01*
X163485238Y-10342380D01*
X163628095Y-10390000D01*
X163961428Y-10342380D02*
X164199523Y-11342380D01*
X164390000Y-10628095D01*
X164580476Y-11342380D01*
X164818571Y-10342380D01*
X165723333Y-11342380D02*
X165151904Y-11342380D01*
X165437619Y-11342380D02*
X165437619Y-10342380D01*
X165342380Y-10485238D01*
X165247142Y-10580476D01*
X165151904Y-10628095D01*
%TO.C,RN6*%
X51379523Y-128582380D02*
X51046190Y-128106190D01*
X50808095Y-128582380D02*
X50808095Y-127582380D01*
X51189047Y-127582380D01*
X51284285Y-127630000D01*
X51331904Y-127677619D01*
X51379523Y-127772857D01*
X51379523Y-127915714D01*
X51331904Y-128010952D01*
X51284285Y-128058571D01*
X51189047Y-128106190D01*
X50808095Y-128106190D01*
X51808095Y-128582380D02*
X51808095Y-127582380D01*
X52379523Y-128582380D01*
X52379523Y-127582380D01*
X53284285Y-127582380D02*
X53093809Y-127582380D01*
X52998571Y-127630000D01*
X52950952Y-127677619D01*
X52855714Y-127820476D01*
X52808095Y-128010952D01*
X52808095Y-128391904D01*
X52855714Y-128487142D01*
X52903333Y-128534761D01*
X52998571Y-128582380D01*
X53189047Y-128582380D01*
X53284285Y-128534761D01*
X53331904Y-128487142D01*
X53379523Y-128391904D01*
X53379523Y-128153809D01*
X53331904Y-128058571D01*
X53284285Y-128010952D01*
X53189047Y-127963333D01*
X52998571Y-127963333D01*
X52903333Y-128010952D01*
X52855714Y-128058571D01*
X52808095Y-128153809D01*
%TO.C,RN5*%
X109799523Y-86672380D02*
X109466190Y-86196190D01*
X109228095Y-86672380D02*
X109228095Y-85672380D01*
X109609047Y-85672380D01*
X109704285Y-85720000D01*
X109751904Y-85767619D01*
X109799523Y-85862857D01*
X109799523Y-86005714D01*
X109751904Y-86100952D01*
X109704285Y-86148571D01*
X109609047Y-86196190D01*
X109228095Y-86196190D01*
X110228095Y-86672380D02*
X110228095Y-85672380D01*
X110799523Y-86672380D01*
X110799523Y-85672380D01*
X111751904Y-85672380D02*
X111275714Y-85672380D01*
X111228095Y-86148571D01*
X111275714Y-86100952D01*
X111370952Y-86053333D01*
X111609047Y-86053333D01*
X111704285Y-86100952D01*
X111751904Y-86148571D01*
X111799523Y-86243809D01*
X111799523Y-86481904D01*
X111751904Y-86577142D01*
X111704285Y-86624761D01*
X111609047Y-86672380D01*
X111370952Y-86672380D01*
X111275714Y-86624761D01*
X111228095Y-86577142D01*
%TO.C,RN4*%
X47569523Y-86672380D02*
X47236190Y-86196190D01*
X46998095Y-86672380D02*
X46998095Y-85672380D01*
X47379047Y-85672380D01*
X47474285Y-85720000D01*
X47521904Y-85767619D01*
X47569523Y-85862857D01*
X47569523Y-86005714D01*
X47521904Y-86100952D01*
X47474285Y-86148571D01*
X47379047Y-86196190D01*
X46998095Y-86196190D01*
X47998095Y-86672380D02*
X47998095Y-85672380D01*
X48569523Y-86672380D01*
X48569523Y-85672380D01*
X49474285Y-86005714D02*
X49474285Y-86672380D01*
X49236190Y-85624761D02*
X48998095Y-86339047D01*
X49617142Y-86339047D01*
%TO.C,RN3*%
X132659523Y-128582380D02*
X132326190Y-128106190D01*
X132088095Y-128582380D02*
X132088095Y-127582380D01*
X132469047Y-127582380D01*
X132564285Y-127630000D01*
X132611904Y-127677619D01*
X132659523Y-127772857D01*
X132659523Y-127915714D01*
X132611904Y-128010952D01*
X132564285Y-128058571D01*
X132469047Y-128106190D01*
X132088095Y-128106190D01*
X133088095Y-128582380D02*
X133088095Y-127582380D01*
X133659523Y-128582380D01*
X133659523Y-127582380D01*
X134040476Y-127582380D02*
X134659523Y-127582380D01*
X134326190Y-127963333D01*
X134469047Y-127963333D01*
X134564285Y-128010952D01*
X134611904Y-128058571D01*
X134659523Y-128153809D01*
X134659523Y-128391904D01*
X134611904Y-128487142D01*
X134564285Y-128534761D01*
X134469047Y-128582380D01*
X134183333Y-128582380D01*
X134088095Y-128534761D01*
X134040476Y-128487142D01*
%TO.C,RN2*%
X46299523Y-52382380D02*
X45966190Y-51906190D01*
X45728095Y-52382380D02*
X45728095Y-51382380D01*
X46109047Y-51382380D01*
X46204285Y-51430000D01*
X46251904Y-51477619D01*
X46299523Y-51572857D01*
X46299523Y-51715714D01*
X46251904Y-51810952D01*
X46204285Y-51858571D01*
X46109047Y-51906190D01*
X45728095Y-51906190D01*
X46728095Y-52382380D02*
X46728095Y-51382380D01*
X47299523Y-52382380D01*
X47299523Y-51382380D01*
X47728095Y-51477619D02*
X47775714Y-51430000D01*
X47870952Y-51382380D01*
X48109047Y-51382380D01*
X48204285Y-51430000D01*
X48251904Y-51477619D01*
X48299523Y-51572857D01*
X48299523Y-51668095D01*
X48251904Y-51810952D01*
X47680476Y-52382380D01*
X48299523Y-52382380D01*
%TO.C,RN1*%
X108529523Y-52382380D02*
X108196190Y-51906190D01*
X107958095Y-52382380D02*
X107958095Y-51382380D01*
X108339047Y-51382380D01*
X108434285Y-51430000D01*
X108481904Y-51477619D01*
X108529523Y-51572857D01*
X108529523Y-51715714D01*
X108481904Y-51810952D01*
X108434285Y-51858571D01*
X108339047Y-51906190D01*
X107958095Y-51906190D01*
X108958095Y-52382380D02*
X108958095Y-51382380D01*
X109529523Y-52382380D01*
X109529523Y-51382380D01*
X110529523Y-52382380D02*
X109958095Y-52382380D01*
X110243809Y-52382380D02*
X110243809Y-51382380D01*
X110148571Y-51525238D01*
X110053333Y-51620476D01*
X109958095Y-51668095D01*
%TO.C,R13*%
X151972380Y-82622857D02*
X151496190Y-82956190D01*
X151972380Y-83194285D02*
X150972380Y-83194285D01*
X150972380Y-82813333D01*
X151020000Y-82718095D01*
X151067619Y-82670476D01*
X151162857Y-82622857D01*
X151305714Y-82622857D01*
X151400952Y-82670476D01*
X151448571Y-82718095D01*
X151496190Y-82813333D01*
X151496190Y-83194285D01*
X151972380Y-81670476D02*
X151972380Y-82241904D01*
X151972380Y-81956190D02*
X150972380Y-81956190D01*
X151115238Y-82051428D01*
X151210476Y-82146666D01*
X151258095Y-82241904D01*
X150972380Y-81337142D02*
X150972380Y-80718095D01*
X151353333Y-81051428D01*
X151353333Y-80908571D01*
X151400952Y-80813333D01*
X151448571Y-80765714D01*
X151543809Y-80718095D01*
X151781904Y-80718095D01*
X151877142Y-80765714D01*
X151924761Y-80813333D01*
X151972380Y-80908571D01*
X151972380Y-81194285D01*
X151924761Y-81289523D01*
X151877142Y-81337142D01*
%TO.C,R12*%
X178872380Y-81922857D02*
X178396190Y-82256190D01*
X178872380Y-82494285D02*
X177872380Y-82494285D01*
X177872380Y-82113333D01*
X177920000Y-82018095D01*
X177967619Y-81970476D01*
X178062857Y-81922857D01*
X178205714Y-81922857D01*
X178300952Y-81970476D01*
X178348571Y-82018095D01*
X178396190Y-82113333D01*
X178396190Y-82494285D01*
X178872380Y-80970476D02*
X178872380Y-81541904D01*
X178872380Y-81256190D02*
X177872380Y-81256190D01*
X178015238Y-81351428D01*
X178110476Y-81446666D01*
X178158095Y-81541904D01*
X177967619Y-80589523D02*
X177920000Y-80541904D01*
X177872380Y-80446666D01*
X177872380Y-80208571D01*
X177920000Y-80113333D01*
X177967619Y-80065714D01*
X178062857Y-80018095D01*
X178158095Y-80018095D01*
X178300952Y-80065714D01*
X178872380Y-80637142D01*
X178872380Y-80018095D01*
%TO.C,R11*%
X21392380Y-13772857D02*
X20916190Y-14106190D01*
X21392380Y-14344285D02*
X20392380Y-14344285D01*
X20392380Y-13963333D01*
X20440000Y-13868095D01*
X20487619Y-13820476D01*
X20582857Y-13772857D01*
X20725714Y-13772857D01*
X20820952Y-13820476D01*
X20868571Y-13868095D01*
X20916190Y-13963333D01*
X20916190Y-14344285D01*
X21392380Y-12820476D02*
X21392380Y-13391904D01*
X21392380Y-13106190D02*
X20392380Y-13106190D01*
X20535238Y-13201428D01*
X20630476Y-13296666D01*
X20678095Y-13391904D01*
X21392380Y-11868095D02*
X21392380Y-12439523D01*
X21392380Y-12153809D02*
X20392380Y-12153809D01*
X20535238Y-12249047D01*
X20630476Y-12344285D01*
X20678095Y-12439523D01*
%TO.C,R10*%
X27772380Y-87002857D02*
X27296190Y-87336190D01*
X27772380Y-87574285D02*
X26772380Y-87574285D01*
X26772380Y-87193333D01*
X26820000Y-87098095D01*
X26867619Y-87050476D01*
X26962857Y-87002857D01*
X27105714Y-87002857D01*
X27200952Y-87050476D01*
X27248571Y-87098095D01*
X27296190Y-87193333D01*
X27296190Y-87574285D01*
X27772380Y-86050476D02*
X27772380Y-86621904D01*
X27772380Y-86336190D02*
X26772380Y-86336190D01*
X26915238Y-86431428D01*
X27010476Y-86526666D01*
X27058095Y-86621904D01*
X26772380Y-85431428D02*
X26772380Y-85336190D01*
X26820000Y-85240952D01*
X26867619Y-85193333D01*
X26962857Y-85145714D01*
X27153333Y-85098095D01*
X27391428Y-85098095D01*
X27581904Y-85145714D01*
X27677142Y-85193333D01*
X27724761Y-85240952D01*
X27772380Y-85336190D01*
X27772380Y-85431428D01*
X27724761Y-85526666D01*
X27677142Y-85574285D01*
X27581904Y-85621904D01*
X27391428Y-85669523D01*
X27153333Y-85669523D01*
X26962857Y-85621904D01*
X26867619Y-85574285D01*
X26820000Y-85526666D01*
X26772380Y-85431428D01*
%TO.C,R9*%
X148392380Y-48426666D02*
X147916190Y-48760000D01*
X148392380Y-48998095D02*
X147392380Y-48998095D01*
X147392380Y-48617142D01*
X147440000Y-48521904D01*
X147487619Y-48474285D01*
X147582857Y-48426666D01*
X147725714Y-48426666D01*
X147820952Y-48474285D01*
X147868571Y-48521904D01*
X147916190Y-48617142D01*
X147916190Y-48998095D01*
X148392380Y-47950476D02*
X148392380Y-47760000D01*
X148344761Y-47664761D01*
X148297142Y-47617142D01*
X148154285Y-47521904D01*
X147963809Y-47474285D01*
X147582857Y-47474285D01*
X147487619Y-47521904D01*
X147440000Y-47569523D01*
X147392380Y-47664761D01*
X147392380Y-47855238D01*
X147440000Y-47950476D01*
X147487619Y-47998095D01*
X147582857Y-48045714D01*
X147820952Y-48045714D01*
X147916190Y-47998095D01*
X147963809Y-47950476D01*
X148011428Y-47855238D01*
X148011428Y-47664761D01*
X147963809Y-47569523D01*
X147916190Y-47521904D01*
X147820952Y-47474285D01*
%TO.C,R8*%
X63302380Y-14136666D02*
X62826190Y-14470000D01*
X63302380Y-14708095D02*
X62302380Y-14708095D01*
X62302380Y-14327142D01*
X62350000Y-14231904D01*
X62397619Y-14184285D01*
X62492857Y-14136666D01*
X62635714Y-14136666D01*
X62730952Y-14184285D01*
X62778571Y-14231904D01*
X62826190Y-14327142D01*
X62826190Y-14708095D01*
X62730952Y-13565238D02*
X62683333Y-13660476D01*
X62635714Y-13708095D01*
X62540476Y-13755714D01*
X62492857Y-13755714D01*
X62397619Y-13708095D01*
X62350000Y-13660476D01*
X62302380Y-13565238D01*
X62302380Y-13374761D01*
X62350000Y-13279523D01*
X62397619Y-13231904D01*
X62492857Y-13184285D01*
X62540476Y-13184285D01*
X62635714Y-13231904D01*
X62683333Y-13279523D01*
X62730952Y-13374761D01*
X62730952Y-13565238D01*
X62778571Y-13660476D01*
X62826190Y-13708095D01*
X62921428Y-13755714D01*
X63111904Y-13755714D01*
X63207142Y-13708095D01*
X63254761Y-13660476D01*
X63302380Y-13565238D01*
X63302380Y-13374761D01*
X63254761Y-13279523D01*
X63207142Y-13231904D01*
X63111904Y-13184285D01*
X62921428Y-13184285D01*
X62826190Y-13231904D01*
X62778571Y-13279523D01*
X62730952Y-13374761D01*
%TO.C,R7*%
X180142380Y-48426666D02*
X179666190Y-48760000D01*
X180142380Y-48998095D02*
X179142380Y-48998095D01*
X179142380Y-48617142D01*
X179190000Y-48521904D01*
X179237619Y-48474285D01*
X179332857Y-48426666D01*
X179475714Y-48426666D01*
X179570952Y-48474285D01*
X179618571Y-48521904D01*
X179666190Y-48617142D01*
X179666190Y-48998095D01*
X179142380Y-48093333D02*
X179142380Y-47426666D01*
X180142380Y-47855238D01*
%TO.C,R6*%
X133152380Y-14136666D02*
X132676190Y-14470000D01*
X133152380Y-14708095D02*
X132152380Y-14708095D01*
X132152380Y-14327142D01*
X132200000Y-14231904D01*
X132247619Y-14184285D01*
X132342857Y-14136666D01*
X132485714Y-14136666D01*
X132580952Y-14184285D01*
X132628571Y-14231904D01*
X132676190Y-14327142D01*
X132676190Y-14708095D01*
X132152380Y-13279523D02*
X132152380Y-13470000D01*
X132200000Y-13565238D01*
X132247619Y-13612857D01*
X132390476Y-13708095D01*
X132580952Y-13755714D01*
X132961904Y-13755714D01*
X133057142Y-13708095D01*
X133104761Y-13660476D01*
X133152380Y-13565238D01*
X133152380Y-13374761D01*
X133104761Y-13279523D01*
X133057142Y-13231904D01*
X132961904Y-13184285D01*
X132723809Y-13184285D01*
X132628571Y-13231904D01*
X132580952Y-13279523D01*
X132533333Y-13374761D01*
X132533333Y-13565238D01*
X132580952Y-13660476D01*
X132628571Y-13708095D01*
X132723809Y-13755714D01*
%TO.C,R5*%
X96322380Y-14136666D02*
X95846190Y-14470000D01*
X96322380Y-14708095D02*
X95322380Y-14708095D01*
X95322380Y-14327142D01*
X95370000Y-14231904D01*
X95417619Y-14184285D01*
X95512857Y-14136666D01*
X95655714Y-14136666D01*
X95750952Y-14184285D01*
X95798571Y-14231904D01*
X95846190Y-14327142D01*
X95846190Y-14708095D01*
X95322380Y-13231904D02*
X95322380Y-13708095D01*
X95798571Y-13755714D01*
X95750952Y-13708095D01*
X95703333Y-13612857D01*
X95703333Y-13374761D01*
X95750952Y-13279523D01*
X95798571Y-13231904D01*
X95893809Y-13184285D01*
X96131904Y-13184285D01*
X96227142Y-13231904D01*
X96274761Y-13279523D01*
X96322380Y-13374761D01*
X96322380Y-13612857D01*
X96274761Y-13708095D01*
X96227142Y-13755714D01*
%TO.C,R4*%
X194112380Y-142406666D02*
X193636190Y-142740000D01*
X194112380Y-142978095D02*
X193112380Y-142978095D01*
X193112380Y-142597142D01*
X193160000Y-142501904D01*
X193207619Y-142454285D01*
X193302857Y-142406666D01*
X193445714Y-142406666D01*
X193540952Y-142454285D01*
X193588571Y-142501904D01*
X193636190Y-142597142D01*
X193636190Y-142978095D01*
X193445714Y-141549523D02*
X194112380Y-141549523D01*
X193064761Y-141787619D02*
X193779047Y-142025714D01*
X193779047Y-141406666D01*
%TO.C,R3*%
X194112380Y-130976666D02*
X193636190Y-131310000D01*
X194112380Y-131548095D02*
X193112380Y-131548095D01*
X193112380Y-131167142D01*
X193160000Y-131071904D01*
X193207619Y-131024285D01*
X193302857Y-130976666D01*
X193445714Y-130976666D01*
X193540952Y-131024285D01*
X193588571Y-131071904D01*
X193636190Y-131167142D01*
X193636190Y-131548095D01*
X193112380Y-130643333D02*
X193112380Y-130024285D01*
X193493333Y-130357619D01*
X193493333Y-130214761D01*
X193540952Y-130119523D01*
X193588571Y-130071904D01*
X193683809Y-130024285D01*
X193921904Y-130024285D01*
X194017142Y-130071904D01*
X194064761Y-130119523D01*
X194112380Y-130214761D01*
X194112380Y-130500476D01*
X194064761Y-130595714D01*
X194017142Y-130643333D01*
%TO.C,R2*%
X194112380Y-119546666D02*
X193636190Y-119880000D01*
X194112380Y-120118095D02*
X193112380Y-120118095D01*
X193112380Y-119737142D01*
X193160000Y-119641904D01*
X193207619Y-119594285D01*
X193302857Y-119546666D01*
X193445714Y-119546666D01*
X193540952Y-119594285D01*
X193588571Y-119641904D01*
X193636190Y-119737142D01*
X193636190Y-120118095D01*
X193207619Y-119165714D02*
X193160000Y-119118095D01*
X193112380Y-119022857D01*
X193112380Y-118784761D01*
X193160000Y-118689523D01*
X193207619Y-118641904D01*
X193302857Y-118594285D01*
X193398095Y-118594285D01*
X193540952Y-118641904D01*
X194112380Y-119213333D01*
X194112380Y-118594285D01*
%TO.C,R1*%
X171252380Y-6516666D02*
X170776190Y-6850000D01*
X171252380Y-7088095D02*
X170252380Y-7088095D01*
X170252380Y-6707142D01*
X170300000Y-6611904D01*
X170347619Y-6564285D01*
X170442857Y-6516666D01*
X170585714Y-6516666D01*
X170680952Y-6564285D01*
X170728571Y-6611904D01*
X170776190Y-6707142D01*
X170776190Y-7088095D01*
X171252380Y-5564285D02*
X171252380Y-6135714D01*
X171252380Y-5850000D02*
X170252380Y-5850000D01*
X170395238Y-5945238D01*
X170490476Y-6040476D01*
X170538095Y-6135714D01*
%TO.C,J12*%
X29722380Y-135429523D02*
X30436666Y-135429523D01*
X30579523Y-135477142D01*
X30674761Y-135572380D01*
X30722380Y-135715238D01*
X30722380Y-135810476D01*
X30722380Y-134429523D02*
X30722380Y-135000952D01*
X30722380Y-134715238D02*
X29722380Y-134715238D01*
X29865238Y-134810476D01*
X29960476Y-134905714D01*
X30008095Y-135000952D01*
X29817619Y-134048571D02*
X29770000Y-134000952D01*
X29722380Y-133905714D01*
X29722380Y-133667619D01*
X29770000Y-133572380D01*
X29817619Y-133524761D01*
X29912857Y-133477142D01*
X30008095Y-133477142D01*
X30150952Y-133524761D01*
X30722380Y-134096190D01*
X30722380Y-133477142D01*
%TO.C,J11*%
X29722380Y-145589523D02*
X30436666Y-145589523D01*
X30579523Y-145637142D01*
X30674761Y-145732380D01*
X30722380Y-145875238D01*
X30722380Y-145970476D01*
X30722380Y-144589523D02*
X30722380Y-145160952D01*
X30722380Y-144875238D02*
X29722380Y-144875238D01*
X29865238Y-144970476D01*
X29960476Y-145065714D01*
X30008095Y-145160952D01*
X30722380Y-143637142D02*
X30722380Y-144208571D01*
X30722380Y-143922857D02*
X29722380Y-143922857D01*
X29865238Y-144018095D01*
X29960476Y-144113333D01*
X30008095Y-144208571D01*
%TO.C,J10*%
X194770476Y-51732380D02*
X194770476Y-52446666D01*
X194722857Y-52589523D01*
X194627619Y-52684761D01*
X194484761Y-52732380D01*
X194389523Y-52732380D01*
X195770476Y-52732380D02*
X195199047Y-52732380D01*
X195484761Y-52732380D02*
X195484761Y-51732380D01*
X195389523Y-51875238D01*
X195294285Y-51970476D01*
X195199047Y-52018095D01*
X196389523Y-51732380D02*
X196484761Y-51732380D01*
X196580000Y-51780000D01*
X196627619Y-51827619D01*
X196675238Y-51922857D01*
X196722857Y-52113333D01*
X196722857Y-52351428D01*
X196675238Y-52541904D01*
X196627619Y-52637142D01*
X196580000Y-52684761D01*
X196484761Y-52732380D01*
X196389523Y-52732380D01*
X196294285Y-52684761D01*
X196246666Y-52637142D01*
X196199047Y-52541904D01*
X196151428Y-52351428D01*
X196151428Y-52113333D01*
X196199047Y-51922857D01*
X196246666Y-51827619D01*
X196294285Y-51780000D01*
X196389523Y-51732380D01*
%TO.C,J9*%
X195246666Y-84752380D02*
X195246666Y-85466666D01*
X195199047Y-85609523D01*
X195103809Y-85704761D01*
X194960952Y-85752380D01*
X194865714Y-85752380D01*
X195770476Y-85752380D02*
X195960952Y-85752380D01*
X196056190Y-85704761D01*
X196103809Y-85657142D01*
X196199047Y-85514285D01*
X196246666Y-85323809D01*
X196246666Y-84942857D01*
X196199047Y-84847619D01*
X196151428Y-84800000D01*
X196056190Y-84752380D01*
X195865714Y-84752380D01*
X195770476Y-84800000D01*
X195722857Y-84847619D01*
X195675238Y-84942857D01*
X195675238Y-85180952D01*
X195722857Y-85276190D01*
X195770476Y-85323809D01*
X195865714Y-85371428D01*
X196056190Y-85371428D01*
X196151428Y-85323809D01*
X196199047Y-85276190D01*
X196246666Y-85180952D01*
%TO.C,J8*%
X51312380Y-6683333D02*
X52026666Y-6683333D01*
X52169523Y-6730952D01*
X52264761Y-6826190D01*
X52312380Y-6969047D01*
X52312380Y-7064285D01*
X51740952Y-6064285D02*
X51693333Y-6159523D01*
X51645714Y-6207142D01*
X51550476Y-6254761D01*
X51502857Y-6254761D01*
X51407619Y-6207142D01*
X51360000Y-6159523D01*
X51312380Y-6064285D01*
X51312380Y-5873809D01*
X51360000Y-5778571D01*
X51407619Y-5730952D01*
X51502857Y-5683333D01*
X51550476Y-5683333D01*
X51645714Y-5730952D01*
X51693333Y-5778571D01*
X51740952Y-5873809D01*
X51740952Y-6064285D01*
X51788571Y-6159523D01*
X51836190Y-6207142D01*
X51931428Y-6254761D01*
X52121904Y-6254761D01*
X52217142Y-6207142D01*
X52264761Y-6159523D01*
X52312380Y-6064285D01*
X52312380Y-5873809D01*
X52264761Y-5778571D01*
X52217142Y-5730952D01*
X52121904Y-5683333D01*
X51931428Y-5683333D01*
X51836190Y-5730952D01*
X51788571Y-5778571D01*
X51740952Y-5873809D01*
%TO.C,J7*%
X109732380Y-5413333D02*
X110446666Y-5413333D01*
X110589523Y-5460952D01*
X110684761Y-5556190D01*
X110732380Y-5699047D01*
X110732380Y-5794285D01*
X109732380Y-5032380D02*
X109732380Y-4365714D01*
X110732380Y-4794285D01*
%TO.C,J6*%
X116082380Y-145113333D02*
X116796666Y-145113333D01*
X116939523Y-145160952D01*
X117034761Y-145256190D01*
X117082380Y-145399047D01*
X117082380Y-145494285D01*
X116082380Y-144208571D02*
X116082380Y-144399047D01*
X116130000Y-144494285D01*
X116177619Y-144541904D01*
X116320476Y-144637142D01*
X116510952Y-144684761D01*
X116891904Y-144684761D01*
X116987142Y-144637142D01*
X117034761Y-144589523D01*
X117082380Y-144494285D01*
X117082380Y-144303809D01*
X117034761Y-144208571D01*
X116987142Y-144160952D01*
X116891904Y-144113333D01*
X116653809Y-144113333D01*
X116558571Y-144160952D01*
X116510952Y-144208571D01*
X116463333Y-144303809D01*
X116463333Y-144494285D01*
X116510952Y-144589523D01*
X116558571Y-144637142D01*
X116653809Y-144684761D01*
%TO.C,J5*%
X140212380Y-145113333D02*
X140926666Y-145113333D01*
X141069523Y-145160952D01*
X141164761Y-145256190D01*
X141212380Y-145399047D01*
X141212380Y-145494285D01*
X140212380Y-144160952D02*
X140212380Y-144637142D01*
X140688571Y-144684761D01*
X140640952Y-144637142D01*
X140593333Y-144541904D01*
X140593333Y-144303809D01*
X140640952Y-144208571D01*
X140688571Y-144160952D01*
X140783809Y-144113333D01*
X141021904Y-144113333D01*
X141117142Y-144160952D01*
X141164761Y-144208571D01*
X141212380Y-144303809D01*
X141212380Y-144541904D01*
X141164761Y-144637142D01*
X141117142Y-144684761D01*
%TO.C,J4*%
X61472380Y-145113333D02*
X62186666Y-145113333D01*
X62329523Y-145160952D01*
X62424761Y-145256190D01*
X62472380Y-145399047D01*
X62472380Y-145494285D01*
X61805714Y-144208571D02*
X62472380Y-144208571D01*
X61424761Y-144446666D02*
X62139047Y-144684761D01*
X62139047Y-144065714D01*
%TO.C,J3*%
X61472380Y-134953333D02*
X62186666Y-134953333D01*
X62329523Y-135000952D01*
X62424761Y-135096190D01*
X62472380Y-135239047D01*
X62472380Y-135334285D01*
X61472380Y-134572380D02*
X61472380Y-133953333D01*
X61853333Y-134286666D01*
X61853333Y-134143809D01*
X61900952Y-134048571D01*
X61948571Y-134000952D01*
X62043809Y-133953333D01*
X62281904Y-133953333D01*
X62377142Y-134000952D01*
X62424761Y-134048571D01*
X62472380Y-134143809D01*
X62472380Y-134429523D01*
X62424761Y-134524761D01*
X62377142Y-134572380D01*
%TO.C,J2*%
X187626666Y-3472380D02*
X187626666Y-4186666D01*
X187579047Y-4329523D01*
X187483809Y-4424761D01*
X187340952Y-4472380D01*
X187245714Y-4472380D01*
X188055238Y-3567619D02*
X188102857Y-3520000D01*
X188198095Y-3472380D01*
X188436190Y-3472380D01*
X188531428Y-3520000D01*
X188579047Y-3567619D01*
X188626666Y-3662857D01*
X188626666Y-3758095D01*
X188579047Y-3900952D01*
X188007619Y-4472380D01*
X188626666Y-4472380D01*
%TO.C,J1*%
X193976666Y-3472380D02*
X193976666Y-4186666D01*
X193929047Y-4329523D01*
X193833809Y-4424761D01*
X193690952Y-4472380D01*
X193595714Y-4472380D01*
X194976666Y-4472380D02*
X194405238Y-4472380D01*
X194690952Y-4472380D02*
X194690952Y-3472380D01*
X194595714Y-3615238D01*
X194500476Y-3710476D01*
X194405238Y-3758095D01*
%TO.C,D61*%
X132382380Y-82494285D02*
X131382380Y-82494285D01*
X131382380Y-82256190D01*
X131430000Y-82113333D01*
X131525238Y-82018095D01*
X131620476Y-81970476D01*
X131810952Y-81922857D01*
X131953809Y-81922857D01*
X132144285Y-81970476D01*
X132239523Y-82018095D01*
X132334761Y-82113333D01*
X132382380Y-82256190D01*
X132382380Y-82494285D01*
X131382380Y-81065714D02*
X131382380Y-81256190D01*
X131430000Y-81351428D01*
X131477619Y-81399047D01*
X131620476Y-81494285D01*
X131810952Y-81541904D01*
X132191904Y-81541904D01*
X132287142Y-81494285D01*
X132334761Y-81446666D01*
X132382380Y-81351428D01*
X132382380Y-81160952D01*
X132334761Y-81065714D01*
X132287142Y-81018095D01*
X132191904Y-80970476D01*
X131953809Y-80970476D01*
X131858571Y-81018095D01*
X131810952Y-81065714D01*
X131763333Y-81160952D01*
X131763333Y-81351428D01*
X131810952Y-81446666D01*
X131858571Y-81494285D01*
X131953809Y-81541904D01*
X132382380Y-80018095D02*
X132382380Y-80589523D01*
X132382380Y-80303809D02*
X131382380Y-80303809D01*
X131525238Y-80399047D01*
X131620476Y-80494285D01*
X131668095Y-80589523D01*
%TO.C,D60*%
X160322380Y-82494285D02*
X159322380Y-82494285D01*
X159322380Y-82256190D01*
X159370000Y-82113333D01*
X159465238Y-82018095D01*
X159560476Y-81970476D01*
X159750952Y-81922857D01*
X159893809Y-81922857D01*
X160084285Y-81970476D01*
X160179523Y-82018095D01*
X160274761Y-82113333D01*
X160322380Y-82256190D01*
X160322380Y-82494285D01*
X159322380Y-81065714D02*
X159322380Y-81256190D01*
X159370000Y-81351428D01*
X159417619Y-81399047D01*
X159560476Y-81494285D01*
X159750952Y-81541904D01*
X160131904Y-81541904D01*
X160227142Y-81494285D01*
X160274761Y-81446666D01*
X160322380Y-81351428D01*
X160322380Y-81160952D01*
X160274761Y-81065714D01*
X160227142Y-81018095D01*
X160131904Y-80970476D01*
X159893809Y-80970476D01*
X159798571Y-81018095D01*
X159750952Y-81065714D01*
X159703333Y-81160952D01*
X159703333Y-81351428D01*
X159750952Y-81446666D01*
X159798571Y-81494285D01*
X159893809Y-81541904D01*
X159322380Y-80351428D02*
X159322380Y-80256190D01*
X159370000Y-80160952D01*
X159417619Y-80113333D01*
X159512857Y-80065714D01*
X159703333Y-80018095D01*
X159941428Y-80018095D01*
X160131904Y-80065714D01*
X160227142Y-80113333D01*
X160274761Y-80160952D01*
X160322380Y-80256190D01*
X160322380Y-80351428D01*
X160274761Y-80446666D01*
X160227142Y-80494285D01*
X160131904Y-80541904D01*
X159941428Y-80589523D01*
X159703333Y-80589523D01*
X159512857Y-80541904D01*
X159417619Y-80494285D01*
X159370000Y-80446666D01*
X159322380Y-80351428D01*
%TO.C,D59*%
X2842380Y-13914285D02*
X1842380Y-13914285D01*
X1842380Y-13676190D01*
X1890000Y-13533333D01*
X1985238Y-13438095D01*
X2080476Y-13390476D01*
X2270952Y-13342857D01*
X2413809Y-13342857D01*
X2604285Y-13390476D01*
X2699523Y-13438095D01*
X2794761Y-13533333D01*
X2842380Y-13676190D01*
X2842380Y-13914285D01*
X1842380Y-12438095D02*
X1842380Y-12914285D01*
X2318571Y-12961904D01*
X2270952Y-12914285D01*
X2223333Y-12819047D01*
X2223333Y-12580952D01*
X2270952Y-12485714D01*
X2318571Y-12438095D01*
X2413809Y-12390476D01*
X2651904Y-12390476D01*
X2747142Y-12438095D01*
X2794761Y-12485714D01*
X2842380Y-12580952D01*
X2842380Y-12819047D01*
X2794761Y-12914285D01*
X2747142Y-12961904D01*
X2842380Y-11914285D02*
X2842380Y-11723809D01*
X2794761Y-11628571D01*
X2747142Y-11580952D01*
X2604285Y-11485714D01*
X2413809Y-11438095D01*
X2032857Y-11438095D01*
X1937619Y-11485714D01*
X1890000Y-11533333D01*
X1842380Y-11628571D01*
X1842380Y-11819047D01*
X1890000Y-11914285D01*
X1937619Y-11961904D01*
X2032857Y-12009523D01*
X2270952Y-12009523D01*
X2366190Y-11961904D01*
X2413809Y-11914285D01*
X2461428Y-11819047D01*
X2461428Y-11628571D01*
X2413809Y-11533333D01*
X2366190Y-11485714D01*
X2270952Y-11438095D01*
%TO.C,D58*%
X4112380Y-87574285D02*
X3112380Y-87574285D01*
X3112380Y-87336190D01*
X3160000Y-87193333D01*
X3255238Y-87098095D01*
X3350476Y-87050476D01*
X3540952Y-87002857D01*
X3683809Y-87002857D01*
X3874285Y-87050476D01*
X3969523Y-87098095D01*
X4064761Y-87193333D01*
X4112380Y-87336190D01*
X4112380Y-87574285D01*
X3112380Y-86098095D02*
X3112380Y-86574285D01*
X3588571Y-86621904D01*
X3540952Y-86574285D01*
X3493333Y-86479047D01*
X3493333Y-86240952D01*
X3540952Y-86145714D01*
X3588571Y-86098095D01*
X3683809Y-86050476D01*
X3921904Y-86050476D01*
X4017142Y-86098095D01*
X4064761Y-86145714D01*
X4112380Y-86240952D01*
X4112380Y-86479047D01*
X4064761Y-86574285D01*
X4017142Y-86621904D01*
X3540952Y-85479047D02*
X3493333Y-85574285D01*
X3445714Y-85621904D01*
X3350476Y-85669523D01*
X3302857Y-85669523D01*
X3207619Y-85621904D01*
X3160000Y-85574285D01*
X3112380Y-85479047D01*
X3112380Y-85288571D01*
X3160000Y-85193333D01*
X3207619Y-85145714D01*
X3302857Y-85098095D01*
X3350476Y-85098095D01*
X3445714Y-85145714D01*
X3493333Y-85193333D01*
X3540952Y-85288571D01*
X3540952Y-85479047D01*
X3588571Y-85574285D01*
X3636190Y-85621904D01*
X3731428Y-85669523D01*
X3921904Y-85669523D01*
X4017142Y-85621904D01*
X4064761Y-85574285D01*
X4112380Y-85479047D01*
X4112380Y-85288571D01*
X4064761Y-85193333D01*
X4017142Y-85145714D01*
X3921904Y-85098095D01*
X3731428Y-85098095D01*
X3636190Y-85145714D01*
X3588571Y-85193333D01*
X3540952Y-85288571D01*
%TO.C,D57*%
X129842380Y-49474285D02*
X128842380Y-49474285D01*
X128842380Y-49236190D01*
X128890000Y-49093333D01*
X128985238Y-48998095D01*
X129080476Y-48950476D01*
X129270952Y-48902857D01*
X129413809Y-48902857D01*
X129604285Y-48950476D01*
X129699523Y-48998095D01*
X129794761Y-49093333D01*
X129842380Y-49236190D01*
X129842380Y-49474285D01*
X128842380Y-47998095D02*
X128842380Y-48474285D01*
X129318571Y-48521904D01*
X129270952Y-48474285D01*
X129223333Y-48379047D01*
X129223333Y-48140952D01*
X129270952Y-48045714D01*
X129318571Y-47998095D01*
X129413809Y-47950476D01*
X129651904Y-47950476D01*
X129747142Y-47998095D01*
X129794761Y-48045714D01*
X129842380Y-48140952D01*
X129842380Y-48379047D01*
X129794761Y-48474285D01*
X129747142Y-48521904D01*
X128842380Y-47617142D02*
X128842380Y-46950476D01*
X129842380Y-47379047D01*
%TO.C,D56*%
X44752380Y-15184285D02*
X43752380Y-15184285D01*
X43752380Y-14946190D01*
X43800000Y-14803333D01*
X43895238Y-14708095D01*
X43990476Y-14660476D01*
X44180952Y-14612857D01*
X44323809Y-14612857D01*
X44514285Y-14660476D01*
X44609523Y-14708095D01*
X44704761Y-14803333D01*
X44752380Y-14946190D01*
X44752380Y-15184285D01*
X43752380Y-13708095D02*
X43752380Y-14184285D01*
X44228571Y-14231904D01*
X44180952Y-14184285D01*
X44133333Y-14089047D01*
X44133333Y-13850952D01*
X44180952Y-13755714D01*
X44228571Y-13708095D01*
X44323809Y-13660476D01*
X44561904Y-13660476D01*
X44657142Y-13708095D01*
X44704761Y-13755714D01*
X44752380Y-13850952D01*
X44752380Y-14089047D01*
X44704761Y-14184285D01*
X44657142Y-14231904D01*
X43752380Y-12803333D02*
X43752380Y-12993809D01*
X43800000Y-13089047D01*
X43847619Y-13136666D01*
X43990476Y-13231904D01*
X44180952Y-13279523D01*
X44561904Y-13279523D01*
X44657142Y-13231904D01*
X44704761Y-13184285D01*
X44752380Y-13089047D01*
X44752380Y-12898571D01*
X44704761Y-12803333D01*
X44657142Y-12755714D01*
X44561904Y-12708095D01*
X44323809Y-12708095D01*
X44228571Y-12755714D01*
X44180952Y-12803333D01*
X44133333Y-12898571D01*
X44133333Y-13089047D01*
X44180952Y-13184285D01*
X44228571Y-13231904D01*
X44323809Y-13279523D01*
%TO.C,D55*%
X160322380Y-49474285D02*
X159322380Y-49474285D01*
X159322380Y-49236190D01*
X159370000Y-49093333D01*
X159465238Y-48998095D01*
X159560476Y-48950476D01*
X159750952Y-48902857D01*
X159893809Y-48902857D01*
X160084285Y-48950476D01*
X160179523Y-48998095D01*
X160274761Y-49093333D01*
X160322380Y-49236190D01*
X160322380Y-49474285D01*
X159322380Y-47998095D02*
X159322380Y-48474285D01*
X159798571Y-48521904D01*
X159750952Y-48474285D01*
X159703333Y-48379047D01*
X159703333Y-48140952D01*
X159750952Y-48045714D01*
X159798571Y-47998095D01*
X159893809Y-47950476D01*
X160131904Y-47950476D01*
X160227142Y-47998095D01*
X160274761Y-48045714D01*
X160322380Y-48140952D01*
X160322380Y-48379047D01*
X160274761Y-48474285D01*
X160227142Y-48521904D01*
X159322380Y-47045714D02*
X159322380Y-47521904D01*
X159798571Y-47569523D01*
X159750952Y-47521904D01*
X159703333Y-47426666D01*
X159703333Y-47188571D01*
X159750952Y-47093333D01*
X159798571Y-47045714D01*
X159893809Y-46998095D01*
X160131904Y-46998095D01*
X160227142Y-47045714D01*
X160274761Y-47093333D01*
X160322380Y-47188571D01*
X160322380Y-47426666D01*
X160274761Y-47521904D01*
X160227142Y-47569523D01*
%TO.C,D54*%
X114602380Y-15184285D02*
X113602380Y-15184285D01*
X113602380Y-14946190D01*
X113650000Y-14803333D01*
X113745238Y-14708095D01*
X113840476Y-14660476D01*
X114030952Y-14612857D01*
X114173809Y-14612857D01*
X114364285Y-14660476D01*
X114459523Y-14708095D01*
X114554761Y-14803333D01*
X114602380Y-14946190D01*
X114602380Y-15184285D01*
X113602380Y-13708095D02*
X113602380Y-14184285D01*
X114078571Y-14231904D01*
X114030952Y-14184285D01*
X113983333Y-14089047D01*
X113983333Y-13850952D01*
X114030952Y-13755714D01*
X114078571Y-13708095D01*
X114173809Y-13660476D01*
X114411904Y-13660476D01*
X114507142Y-13708095D01*
X114554761Y-13755714D01*
X114602380Y-13850952D01*
X114602380Y-14089047D01*
X114554761Y-14184285D01*
X114507142Y-14231904D01*
X113935714Y-12803333D02*
X114602380Y-12803333D01*
X113554761Y-13041428D02*
X114269047Y-13279523D01*
X114269047Y-12660476D01*
%TO.C,D53*%
X77772380Y-15184285D02*
X76772380Y-15184285D01*
X76772380Y-14946190D01*
X76820000Y-14803333D01*
X76915238Y-14708095D01*
X77010476Y-14660476D01*
X77200952Y-14612857D01*
X77343809Y-14612857D01*
X77534285Y-14660476D01*
X77629523Y-14708095D01*
X77724761Y-14803333D01*
X77772380Y-14946190D01*
X77772380Y-15184285D01*
X76772380Y-13708095D02*
X76772380Y-14184285D01*
X77248571Y-14231904D01*
X77200952Y-14184285D01*
X77153333Y-14089047D01*
X77153333Y-13850952D01*
X77200952Y-13755714D01*
X77248571Y-13708095D01*
X77343809Y-13660476D01*
X77581904Y-13660476D01*
X77677142Y-13708095D01*
X77724761Y-13755714D01*
X77772380Y-13850952D01*
X77772380Y-14089047D01*
X77724761Y-14184285D01*
X77677142Y-14231904D01*
X76772380Y-13327142D02*
X76772380Y-12708095D01*
X77153333Y-13041428D01*
X77153333Y-12898571D01*
X77200952Y-12803333D01*
X77248571Y-12755714D01*
X77343809Y-12708095D01*
X77581904Y-12708095D01*
X77677142Y-12755714D01*
X77724761Y-12803333D01*
X77772380Y-12898571D01*
X77772380Y-13184285D01*
X77724761Y-13279523D01*
X77677142Y-13327142D01*
%TO.C,D52*%
X175562380Y-143454285D02*
X174562380Y-143454285D01*
X174562380Y-143216190D01*
X174610000Y-143073333D01*
X174705238Y-142978095D01*
X174800476Y-142930476D01*
X174990952Y-142882857D01*
X175133809Y-142882857D01*
X175324285Y-142930476D01*
X175419523Y-142978095D01*
X175514761Y-143073333D01*
X175562380Y-143216190D01*
X175562380Y-143454285D01*
X174562380Y-141978095D02*
X174562380Y-142454285D01*
X175038571Y-142501904D01*
X174990952Y-142454285D01*
X174943333Y-142359047D01*
X174943333Y-142120952D01*
X174990952Y-142025714D01*
X175038571Y-141978095D01*
X175133809Y-141930476D01*
X175371904Y-141930476D01*
X175467142Y-141978095D01*
X175514761Y-142025714D01*
X175562380Y-142120952D01*
X175562380Y-142359047D01*
X175514761Y-142454285D01*
X175467142Y-142501904D01*
X174657619Y-141549523D02*
X174610000Y-141501904D01*
X174562380Y-141406666D01*
X174562380Y-141168571D01*
X174610000Y-141073333D01*
X174657619Y-141025714D01*
X174752857Y-140978095D01*
X174848095Y-140978095D01*
X174990952Y-141025714D01*
X175562380Y-141597142D01*
X175562380Y-140978095D01*
%TO.C,D51*%
X175562380Y-132024285D02*
X174562380Y-132024285D01*
X174562380Y-131786190D01*
X174610000Y-131643333D01*
X174705238Y-131548095D01*
X174800476Y-131500476D01*
X174990952Y-131452857D01*
X175133809Y-131452857D01*
X175324285Y-131500476D01*
X175419523Y-131548095D01*
X175514761Y-131643333D01*
X175562380Y-131786190D01*
X175562380Y-132024285D01*
X174562380Y-130548095D02*
X174562380Y-131024285D01*
X175038571Y-131071904D01*
X174990952Y-131024285D01*
X174943333Y-130929047D01*
X174943333Y-130690952D01*
X174990952Y-130595714D01*
X175038571Y-130548095D01*
X175133809Y-130500476D01*
X175371904Y-130500476D01*
X175467142Y-130548095D01*
X175514761Y-130595714D01*
X175562380Y-130690952D01*
X175562380Y-130929047D01*
X175514761Y-131024285D01*
X175467142Y-131071904D01*
X175562380Y-129548095D02*
X175562380Y-130119523D01*
X175562380Y-129833809D02*
X174562380Y-129833809D01*
X174705238Y-129929047D01*
X174800476Y-130024285D01*
X174848095Y-130119523D01*
%TO.C,D50*%
X175562380Y-120594285D02*
X174562380Y-120594285D01*
X174562380Y-120356190D01*
X174610000Y-120213333D01*
X174705238Y-120118095D01*
X174800476Y-120070476D01*
X174990952Y-120022857D01*
X175133809Y-120022857D01*
X175324285Y-120070476D01*
X175419523Y-120118095D01*
X175514761Y-120213333D01*
X175562380Y-120356190D01*
X175562380Y-120594285D01*
X174562380Y-119118095D02*
X174562380Y-119594285D01*
X175038571Y-119641904D01*
X174990952Y-119594285D01*
X174943333Y-119499047D01*
X174943333Y-119260952D01*
X174990952Y-119165714D01*
X175038571Y-119118095D01*
X175133809Y-119070476D01*
X175371904Y-119070476D01*
X175467142Y-119118095D01*
X175514761Y-119165714D01*
X175562380Y-119260952D01*
X175562380Y-119499047D01*
X175514761Y-119594285D01*
X175467142Y-119641904D01*
X174562380Y-118451428D02*
X174562380Y-118356190D01*
X174610000Y-118260952D01*
X174657619Y-118213333D01*
X174752857Y-118165714D01*
X174943333Y-118118095D01*
X175181428Y-118118095D01*
X175371904Y-118165714D01*
X175467142Y-118213333D01*
X175514761Y-118260952D01*
X175562380Y-118356190D01*
X175562380Y-118451428D01*
X175514761Y-118546666D01*
X175467142Y-118594285D01*
X175371904Y-118641904D01*
X175181428Y-118689523D01*
X174943333Y-118689523D01*
X174752857Y-118641904D01*
X174657619Y-118594285D01*
X174610000Y-118546666D01*
X174562380Y-118451428D01*
%TO.C,D49*%
X151432380Y-7564285D02*
X150432380Y-7564285D01*
X150432380Y-7326190D01*
X150480000Y-7183333D01*
X150575238Y-7088095D01*
X150670476Y-7040476D01*
X150860952Y-6992857D01*
X151003809Y-6992857D01*
X151194285Y-7040476D01*
X151289523Y-7088095D01*
X151384761Y-7183333D01*
X151432380Y-7326190D01*
X151432380Y-7564285D01*
X150765714Y-6135714D02*
X151432380Y-6135714D01*
X150384761Y-6373809D02*
X151099047Y-6611904D01*
X151099047Y-5992857D01*
X151432380Y-5564285D02*
X151432380Y-5373809D01*
X151384761Y-5278571D01*
X151337142Y-5230952D01*
X151194285Y-5135714D01*
X151003809Y-5088095D01*
X150622857Y-5088095D01*
X150527619Y-5135714D01*
X150480000Y-5183333D01*
X150432380Y-5278571D01*
X150432380Y-5469047D01*
X150480000Y-5564285D01*
X150527619Y-5611904D01*
X150622857Y-5659523D01*
X150860952Y-5659523D01*
X150956190Y-5611904D01*
X151003809Y-5564285D01*
X151051428Y-5469047D01*
X151051428Y-5278571D01*
X151003809Y-5183333D01*
X150956190Y-5135714D01*
X150860952Y-5088095D01*
%TO.C,D48*%
X5382380Y-119324285D02*
X4382380Y-119324285D01*
X4382380Y-119086190D01*
X4430000Y-118943333D01*
X4525238Y-118848095D01*
X4620476Y-118800476D01*
X4810952Y-118752857D01*
X4953809Y-118752857D01*
X5144285Y-118800476D01*
X5239523Y-118848095D01*
X5334761Y-118943333D01*
X5382380Y-119086190D01*
X5382380Y-119324285D01*
X4715714Y-117895714D02*
X5382380Y-117895714D01*
X4334761Y-118133809D02*
X5049047Y-118371904D01*
X5049047Y-117752857D01*
X4810952Y-117229047D02*
X4763333Y-117324285D01*
X4715714Y-117371904D01*
X4620476Y-117419523D01*
X4572857Y-117419523D01*
X4477619Y-117371904D01*
X4430000Y-117324285D01*
X4382380Y-117229047D01*
X4382380Y-117038571D01*
X4430000Y-116943333D01*
X4477619Y-116895714D01*
X4572857Y-116848095D01*
X4620476Y-116848095D01*
X4715714Y-116895714D01*
X4763333Y-116943333D01*
X4810952Y-117038571D01*
X4810952Y-117229047D01*
X4858571Y-117324285D01*
X4906190Y-117371904D01*
X5001428Y-117419523D01*
X5191904Y-117419523D01*
X5287142Y-117371904D01*
X5334761Y-117324285D01*
X5382380Y-117229047D01*
X5382380Y-117038571D01*
X5334761Y-116943333D01*
X5287142Y-116895714D01*
X5191904Y-116848095D01*
X5001428Y-116848095D01*
X4906190Y-116895714D01*
X4858571Y-116943333D01*
X4810952Y-117038571D01*
%TO.C,D47*%
X13002380Y-119324285D02*
X12002380Y-119324285D01*
X12002380Y-119086190D01*
X12050000Y-118943333D01*
X12145238Y-118848095D01*
X12240476Y-118800476D01*
X12430952Y-118752857D01*
X12573809Y-118752857D01*
X12764285Y-118800476D01*
X12859523Y-118848095D01*
X12954761Y-118943333D01*
X13002380Y-119086190D01*
X13002380Y-119324285D01*
X12335714Y-117895714D02*
X13002380Y-117895714D01*
X11954761Y-118133809D02*
X12669047Y-118371904D01*
X12669047Y-117752857D01*
X12002380Y-117467142D02*
X12002380Y-116800476D01*
X13002380Y-117229047D01*
%TO.C,D46*%
X20622380Y-119324285D02*
X19622380Y-119324285D01*
X19622380Y-119086190D01*
X19670000Y-118943333D01*
X19765238Y-118848095D01*
X19860476Y-118800476D01*
X20050952Y-118752857D01*
X20193809Y-118752857D01*
X20384285Y-118800476D01*
X20479523Y-118848095D01*
X20574761Y-118943333D01*
X20622380Y-119086190D01*
X20622380Y-119324285D01*
X19955714Y-117895714D02*
X20622380Y-117895714D01*
X19574761Y-118133809D02*
X20289047Y-118371904D01*
X20289047Y-117752857D01*
X19622380Y-116943333D02*
X19622380Y-117133809D01*
X19670000Y-117229047D01*
X19717619Y-117276666D01*
X19860476Y-117371904D01*
X20050952Y-117419523D01*
X20431904Y-117419523D01*
X20527142Y-117371904D01*
X20574761Y-117324285D01*
X20622380Y-117229047D01*
X20622380Y-117038571D01*
X20574761Y-116943333D01*
X20527142Y-116895714D01*
X20431904Y-116848095D01*
X20193809Y-116848095D01*
X20098571Y-116895714D01*
X20050952Y-116943333D01*
X20003333Y-117038571D01*
X20003333Y-117229047D01*
X20050952Y-117324285D01*
X20098571Y-117371904D01*
X20193809Y-117419523D01*
%TO.C,D45*%
X28242380Y-119324285D02*
X27242380Y-119324285D01*
X27242380Y-119086190D01*
X27290000Y-118943333D01*
X27385238Y-118848095D01*
X27480476Y-118800476D01*
X27670952Y-118752857D01*
X27813809Y-118752857D01*
X28004285Y-118800476D01*
X28099523Y-118848095D01*
X28194761Y-118943333D01*
X28242380Y-119086190D01*
X28242380Y-119324285D01*
X27575714Y-117895714D02*
X28242380Y-117895714D01*
X27194761Y-118133809D02*
X27909047Y-118371904D01*
X27909047Y-117752857D01*
X27242380Y-116895714D02*
X27242380Y-117371904D01*
X27718571Y-117419523D01*
X27670952Y-117371904D01*
X27623333Y-117276666D01*
X27623333Y-117038571D01*
X27670952Y-116943333D01*
X27718571Y-116895714D01*
X27813809Y-116848095D01*
X28051904Y-116848095D01*
X28147142Y-116895714D01*
X28194761Y-116943333D01*
X28242380Y-117038571D01*
X28242380Y-117276666D01*
X28194761Y-117371904D01*
X28147142Y-117419523D01*
%TO.C,D44*%
X35862380Y-119324285D02*
X34862380Y-119324285D01*
X34862380Y-119086190D01*
X34910000Y-118943333D01*
X35005238Y-118848095D01*
X35100476Y-118800476D01*
X35290952Y-118752857D01*
X35433809Y-118752857D01*
X35624285Y-118800476D01*
X35719523Y-118848095D01*
X35814761Y-118943333D01*
X35862380Y-119086190D01*
X35862380Y-119324285D01*
X35195714Y-117895714D02*
X35862380Y-117895714D01*
X34814761Y-118133809D02*
X35529047Y-118371904D01*
X35529047Y-117752857D01*
X35195714Y-116943333D02*
X35862380Y-116943333D01*
X34814761Y-117181428D02*
X35529047Y-117419523D01*
X35529047Y-116800476D01*
%TO.C,D43*%
X43482380Y-119324285D02*
X42482380Y-119324285D01*
X42482380Y-119086190D01*
X42530000Y-118943333D01*
X42625238Y-118848095D01*
X42720476Y-118800476D01*
X42910952Y-118752857D01*
X43053809Y-118752857D01*
X43244285Y-118800476D01*
X43339523Y-118848095D01*
X43434761Y-118943333D01*
X43482380Y-119086190D01*
X43482380Y-119324285D01*
X42815714Y-117895714D02*
X43482380Y-117895714D01*
X42434761Y-118133809D02*
X43149047Y-118371904D01*
X43149047Y-117752857D01*
X42482380Y-117467142D02*
X42482380Y-116848095D01*
X42863333Y-117181428D01*
X42863333Y-117038571D01*
X42910952Y-116943333D01*
X42958571Y-116895714D01*
X43053809Y-116848095D01*
X43291904Y-116848095D01*
X43387142Y-116895714D01*
X43434761Y-116943333D01*
X43482380Y-117038571D01*
X43482380Y-117324285D01*
X43434761Y-117419523D01*
X43387142Y-117467142D01*
%TO.C,D42*%
X51102380Y-119324285D02*
X50102380Y-119324285D01*
X50102380Y-119086190D01*
X50150000Y-118943333D01*
X50245238Y-118848095D01*
X50340476Y-118800476D01*
X50530952Y-118752857D01*
X50673809Y-118752857D01*
X50864285Y-118800476D01*
X50959523Y-118848095D01*
X51054761Y-118943333D01*
X51102380Y-119086190D01*
X51102380Y-119324285D01*
X50435714Y-117895714D02*
X51102380Y-117895714D01*
X50054761Y-118133809D02*
X50769047Y-118371904D01*
X50769047Y-117752857D01*
X50197619Y-117419523D02*
X50150000Y-117371904D01*
X50102380Y-117276666D01*
X50102380Y-117038571D01*
X50150000Y-116943333D01*
X50197619Y-116895714D01*
X50292857Y-116848095D01*
X50388095Y-116848095D01*
X50530952Y-116895714D01*
X51102380Y-117467142D01*
X51102380Y-116848095D01*
%TO.C,D41*%
X58722380Y-119324285D02*
X57722380Y-119324285D01*
X57722380Y-119086190D01*
X57770000Y-118943333D01*
X57865238Y-118848095D01*
X57960476Y-118800476D01*
X58150952Y-118752857D01*
X58293809Y-118752857D01*
X58484285Y-118800476D01*
X58579523Y-118848095D01*
X58674761Y-118943333D01*
X58722380Y-119086190D01*
X58722380Y-119324285D01*
X58055714Y-117895714D02*
X58722380Y-117895714D01*
X57674761Y-118133809D02*
X58389047Y-118371904D01*
X58389047Y-117752857D01*
X58722380Y-116848095D02*
X58722380Y-117419523D01*
X58722380Y-117133809D02*
X57722380Y-117133809D01*
X57865238Y-117229047D01*
X57960476Y-117324285D01*
X58008095Y-117419523D01*
%TO.C,D40*%
X63802380Y-77414285D02*
X62802380Y-77414285D01*
X62802380Y-77176190D01*
X62850000Y-77033333D01*
X62945238Y-76938095D01*
X63040476Y-76890476D01*
X63230952Y-76842857D01*
X63373809Y-76842857D01*
X63564285Y-76890476D01*
X63659523Y-76938095D01*
X63754761Y-77033333D01*
X63802380Y-77176190D01*
X63802380Y-77414285D01*
X63135714Y-75985714D02*
X63802380Y-75985714D01*
X62754761Y-76223809D02*
X63469047Y-76461904D01*
X63469047Y-75842857D01*
X62802380Y-75271428D02*
X62802380Y-75176190D01*
X62850000Y-75080952D01*
X62897619Y-75033333D01*
X62992857Y-74985714D01*
X63183333Y-74938095D01*
X63421428Y-74938095D01*
X63611904Y-74985714D01*
X63707142Y-75033333D01*
X63754761Y-75080952D01*
X63802380Y-75176190D01*
X63802380Y-75271428D01*
X63754761Y-75366666D01*
X63707142Y-75414285D01*
X63611904Y-75461904D01*
X63421428Y-75509523D01*
X63183333Y-75509523D01*
X62992857Y-75461904D01*
X62897619Y-75414285D01*
X62850000Y-75366666D01*
X62802380Y-75271428D01*
%TO.C,D39*%
X71422380Y-77414285D02*
X70422380Y-77414285D01*
X70422380Y-77176190D01*
X70470000Y-77033333D01*
X70565238Y-76938095D01*
X70660476Y-76890476D01*
X70850952Y-76842857D01*
X70993809Y-76842857D01*
X71184285Y-76890476D01*
X71279523Y-76938095D01*
X71374761Y-77033333D01*
X71422380Y-77176190D01*
X71422380Y-77414285D01*
X70422380Y-76509523D02*
X70422380Y-75890476D01*
X70803333Y-76223809D01*
X70803333Y-76080952D01*
X70850952Y-75985714D01*
X70898571Y-75938095D01*
X70993809Y-75890476D01*
X71231904Y-75890476D01*
X71327142Y-75938095D01*
X71374761Y-75985714D01*
X71422380Y-76080952D01*
X71422380Y-76366666D01*
X71374761Y-76461904D01*
X71327142Y-76509523D01*
X71422380Y-75414285D02*
X71422380Y-75223809D01*
X71374761Y-75128571D01*
X71327142Y-75080952D01*
X71184285Y-74985714D01*
X70993809Y-74938095D01*
X70612857Y-74938095D01*
X70517619Y-74985714D01*
X70470000Y-75033333D01*
X70422380Y-75128571D01*
X70422380Y-75319047D01*
X70470000Y-75414285D01*
X70517619Y-75461904D01*
X70612857Y-75509523D01*
X70850952Y-75509523D01*
X70946190Y-75461904D01*
X70993809Y-75414285D01*
X71041428Y-75319047D01*
X71041428Y-75128571D01*
X70993809Y-75033333D01*
X70946190Y-74985714D01*
X70850952Y-74938095D01*
%TO.C,D38*%
X79042380Y-77414285D02*
X78042380Y-77414285D01*
X78042380Y-77176190D01*
X78090000Y-77033333D01*
X78185238Y-76938095D01*
X78280476Y-76890476D01*
X78470952Y-76842857D01*
X78613809Y-76842857D01*
X78804285Y-76890476D01*
X78899523Y-76938095D01*
X78994761Y-77033333D01*
X79042380Y-77176190D01*
X79042380Y-77414285D01*
X78042380Y-76509523D02*
X78042380Y-75890476D01*
X78423333Y-76223809D01*
X78423333Y-76080952D01*
X78470952Y-75985714D01*
X78518571Y-75938095D01*
X78613809Y-75890476D01*
X78851904Y-75890476D01*
X78947142Y-75938095D01*
X78994761Y-75985714D01*
X79042380Y-76080952D01*
X79042380Y-76366666D01*
X78994761Y-76461904D01*
X78947142Y-76509523D01*
X78470952Y-75319047D02*
X78423333Y-75414285D01*
X78375714Y-75461904D01*
X78280476Y-75509523D01*
X78232857Y-75509523D01*
X78137619Y-75461904D01*
X78090000Y-75414285D01*
X78042380Y-75319047D01*
X78042380Y-75128571D01*
X78090000Y-75033333D01*
X78137619Y-74985714D01*
X78232857Y-74938095D01*
X78280476Y-74938095D01*
X78375714Y-74985714D01*
X78423333Y-75033333D01*
X78470952Y-75128571D01*
X78470952Y-75319047D01*
X78518571Y-75414285D01*
X78566190Y-75461904D01*
X78661428Y-75509523D01*
X78851904Y-75509523D01*
X78947142Y-75461904D01*
X78994761Y-75414285D01*
X79042380Y-75319047D01*
X79042380Y-75128571D01*
X78994761Y-75033333D01*
X78947142Y-74985714D01*
X78851904Y-74938095D01*
X78661428Y-74938095D01*
X78566190Y-74985714D01*
X78518571Y-75033333D01*
X78470952Y-75128571D01*
%TO.C,D37*%
X86662380Y-77414285D02*
X85662380Y-77414285D01*
X85662380Y-77176190D01*
X85710000Y-77033333D01*
X85805238Y-76938095D01*
X85900476Y-76890476D01*
X86090952Y-76842857D01*
X86233809Y-76842857D01*
X86424285Y-76890476D01*
X86519523Y-76938095D01*
X86614761Y-77033333D01*
X86662380Y-77176190D01*
X86662380Y-77414285D01*
X85662380Y-76509523D02*
X85662380Y-75890476D01*
X86043333Y-76223809D01*
X86043333Y-76080952D01*
X86090952Y-75985714D01*
X86138571Y-75938095D01*
X86233809Y-75890476D01*
X86471904Y-75890476D01*
X86567142Y-75938095D01*
X86614761Y-75985714D01*
X86662380Y-76080952D01*
X86662380Y-76366666D01*
X86614761Y-76461904D01*
X86567142Y-76509523D01*
X85662380Y-75557142D02*
X85662380Y-74890476D01*
X86662380Y-75319047D01*
%TO.C,D36*%
X94282380Y-77414285D02*
X93282380Y-77414285D01*
X93282380Y-77176190D01*
X93330000Y-77033333D01*
X93425238Y-76938095D01*
X93520476Y-76890476D01*
X93710952Y-76842857D01*
X93853809Y-76842857D01*
X94044285Y-76890476D01*
X94139523Y-76938095D01*
X94234761Y-77033333D01*
X94282380Y-77176190D01*
X94282380Y-77414285D01*
X93282380Y-76509523D02*
X93282380Y-75890476D01*
X93663333Y-76223809D01*
X93663333Y-76080952D01*
X93710952Y-75985714D01*
X93758571Y-75938095D01*
X93853809Y-75890476D01*
X94091904Y-75890476D01*
X94187142Y-75938095D01*
X94234761Y-75985714D01*
X94282380Y-76080952D01*
X94282380Y-76366666D01*
X94234761Y-76461904D01*
X94187142Y-76509523D01*
X93282380Y-75033333D02*
X93282380Y-75223809D01*
X93330000Y-75319047D01*
X93377619Y-75366666D01*
X93520476Y-75461904D01*
X93710952Y-75509523D01*
X94091904Y-75509523D01*
X94187142Y-75461904D01*
X94234761Y-75414285D01*
X94282380Y-75319047D01*
X94282380Y-75128571D01*
X94234761Y-75033333D01*
X94187142Y-74985714D01*
X94091904Y-74938095D01*
X93853809Y-74938095D01*
X93758571Y-74985714D01*
X93710952Y-75033333D01*
X93663333Y-75128571D01*
X93663333Y-75319047D01*
X93710952Y-75414285D01*
X93758571Y-75461904D01*
X93853809Y-75509523D01*
%TO.C,D35*%
X101902380Y-77414285D02*
X100902380Y-77414285D01*
X100902380Y-77176190D01*
X100950000Y-77033333D01*
X101045238Y-76938095D01*
X101140476Y-76890476D01*
X101330952Y-76842857D01*
X101473809Y-76842857D01*
X101664285Y-76890476D01*
X101759523Y-76938095D01*
X101854761Y-77033333D01*
X101902380Y-77176190D01*
X101902380Y-77414285D01*
X100902380Y-76509523D02*
X100902380Y-75890476D01*
X101283333Y-76223809D01*
X101283333Y-76080952D01*
X101330952Y-75985714D01*
X101378571Y-75938095D01*
X101473809Y-75890476D01*
X101711904Y-75890476D01*
X101807142Y-75938095D01*
X101854761Y-75985714D01*
X101902380Y-76080952D01*
X101902380Y-76366666D01*
X101854761Y-76461904D01*
X101807142Y-76509523D01*
X100902380Y-74985714D02*
X100902380Y-75461904D01*
X101378571Y-75509523D01*
X101330952Y-75461904D01*
X101283333Y-75366666D01*
X101283333Y-75128571D01*
X101330952Y-75033333D01*
X101378571Y-74985714D01*
X101473809Y-74938095D01*
X101711904Y-74938095D01*
X101807142Y-74985714D01*
X101854761Y-75033333D01*
X101902380Y-75128571D01*
X101902380Y-75366666D01*
X101854761Y-75461904D01*
X101807142Y-75509523D01*
%TO.C,D34*%
X109522380Y-77414285D02*
X108522380Y-77414285D01*
X108522380Y-77176190D01*
X108570000Y-77033333D01*
X108665238Y-76938095D01*
X108760476Y-76890476D01*
X108950952Y-76842857D01*
X109093809Y-76842857D01*
X109284285Y-76890476D01*
X109379523Y-76938095D01*
X109474761Y-77033333D01*
X109522380Y-77176190D01*
X109522380Y-77414285D01*
X108522380Y-76509523D02*
X108522380Y-75890476D01*
X108903333Y-76223809D01*
X108903333Y-76080952D01*
X108950952Y-75985714D01*
X108998571Y-75938095D01*
X109093809Y-75890476D01*
X109331904Y-75890476D01*
X109427142Y-75938095D01*
X109474761Y-75985714D01*
X109522380Y-76080952D01*
X109522380Y-76366666D01*
X109474761Y-76461904D01*
X109427142Y-76509523D01*
X108855714Y-75033333D02*
X109522380Y-75033333D01*
X108474761Y-75271428D02*
X109189047Y-75509523D01*
X109189047Y-74890476D01*
%TO.C,D33*%
X117142380Y-77414285D02*
X116142380Y-77414285D01*
X116142380Y-77176190D01*
X116190000Y-77033333D01*
X116285238Y-76938095D01*
X116380476Y-76890476D01*
X116570952Y-76842857D01*
X116713809Y-76842857D01*
X116904285Y-76890476D01*
X116999523Y-76938095D01*
X117094761Y-77033333D01*
X117142380Y-77176190D01*
X117142380Y-77414285D01*
X116142380Y-76509523D02*
X116142380Y-75890476D01*
X116523333Y-76223809D01*
X116523333Y-76080952D01*
X116570952Y-75985714D01*
X116618571Y-75938095D01*
X116713809Y-75890476D01*
X116951904Y-75890476D01*
X117047142Y-75938095D01*
X117094761Y-75985714D01*
X117142380Y-76080952D01*
X117142380Y-76366666D01*
X117094761Y-76461904D01*
X117047142Y-76509523D01*
X116142380Y-75557142D02*
X116142380Y-74938095D01*
X116523333Y-75271428D01*
X116523333Y-75128571D01*
X116570952Y-75033333D01*
X116618571Y-74985714D01*
X116713809Y-74938095D01*
X116951904Y-74938095D01*
X117047142Y-74985714D01*
X117094761Y-75033333D01*
X117142380Y-75128571D01*
X117142380Y-75414285D01*
X117094761Y-75509523D01*
X117047142Y-75557142D01*
%TO.C,D32*%
X1572380Y-77414285D02*
X572380Y-77414285D01*
X572380Y-77176190D01*
X620000Y-77033333D01*
X715238Y-76938095D01*
X810476Y-76890476D01*
X1000952Y-76842857D01*
X1143809Y-76842857D01*
X1334285Y-76890476D01*
X1429523Y-76938095D01*
X1524761Y-77033333D01*
X1572380Y-77176190D01*
X1572380Y-77414285D01*
X572380Y-76509523D02*
X572380Y-75890476D01*
X953333Y-76223809D01*
X953333Y-76080952D01*
X1000952Y-75985714D01*
X1048571Y-75938095D01*
X1143809Y-75890476D01*
X1381904Y-75890476D01*
X1477142Y-75938095D01*
X1524761Y-75985714D01*
X1572380Y-76080952D01*
X1572380Y-76366666D01*
X1524761Y-76461904D01*
X1477142Y-76509523D01*
X667619Y-75509523D02*
X620000Y-75461904D01*
X572380Y-75366666D01*
X572380Y-75128571D01*
X620000Y-75033333D01*
X667619Y-74985714D01*
X762857Y-74938095D01*
X858095Y-74938095D01*
X1000952Y-74985714D01*
X1572380Y-75557142D01*
X1572380Y-74938095D01*
%TO.C,D31*%
X9192380Y-77414285D02*
X8192380Y-77414285D01*
X8192380Y-77176190D01*
X8240000Y-77033333D01*
X8335238Y-76938095D01*
X8430476Y-76890476D01*
X8620952Y-76842857D01*
X8763809Y-76842857D01*
X8954285Y-76890476D01*
X9049523Y-76938095D01*
X9144761Y-77033333D01*
X9192380Y-77176190D01*
X9192380Y-77414285D01*
X8192380Y-76509523D02*
X8192380Y-75890476D01*
X8573333Y-76223809D01*
X8573333Y-76080952D01*
X8620952Y-75985714D01*
X8668571Y-75938095D01*
X8763809Y-75890476D01*
X9001904Y-75890476D01*
X9097142Y-75938095D01*
X9144761Y-75985714D01*
X9192380Y-76080952D01*
X9192380Y-76366666D01*
X9144761Y-76461904D01*
X9097142Y-76509523D01*
X9192380Y-74938095D02*
X9192380Y-75509523D01*
X9192380Y-75223809D02*
X8192380Y-75223809D01*
X8335238Y-75319047D01*
X8430476Y-75414285D01*
X8478095Y-75509523D01*
%TO.C,D30*%
X16812380Y-77414285D02*
X15812380Y-77414285D01*
X15812380Y-77176190D01*
X15860000Y-77033333D01*
X15955238Y-76938095D01*
X16050476Y-76890476D01*
X16240952Y-76842857D01*
X16383809Y-76842857D01*
X16574285Y-76890476D01*
X16669523Y-76938095D01*
X16764761Y-77033333D01*
X16812380Y-77176190D01*
X16812380Y-77414285D01*
X15812380Y-76509523D02*
X15812380Y-75890476D01*
X16193333Y-76223809D01*
X16193333Y-76080952D01*
X16240952Y-75985714D01*
X16288571Y-75938095D01*
X16383809Y-75890476D01*
X16621904Y-75890476D01*
X16717142Y-75938095D01*
X16764761Y-75985714D01*
X16812380Y-76080952D01*
X16812380Y-76366666D01*
X16764761Y-76461904D01*
X16717142Y-76509523D01*
X15812380Y-75271428D02*
X15812380Y-75176190D01*
X15860000Y-75080952D01*
X15907619Y-75033333D01*
X16002857Y-74985714D01*
X16193333Y-74938095D01*
X16431428Y-74938095D01*
X16621904Y-74985714D01*
X16717142Y-75033333D01*
X16764761Y-75080952D01*
X16812380Y-75176190D01*
X16812380Y-75271428D01*
X16764761Y-75366666D01*
X16717142Y-75414285D01*
X16621904Y-75461904D01*
X16431428Y-75509523D01*
X16193333Y-75509523D01*
X16002857Y-75461904D01*
X15907619Y-75414285D01*
X15860000Y-75366666D01*
X15812380Y-75271428D01*
%TO.C,D29*%
X24432380Y-77414285D02*
X23432380Y-77414285D01*
X23432380Y-77176190D01*
X23480000Y-77033333D01*
X23575238Y-76938095D01*
X23670476Y-76890476D01*
X23860952Y-76842857D01*
X24003809Y-76842857D01*
X24194285Y-76890476D01*
X24289523Y-76938095D01*
X24384761Y-77033333D01*
X24432380Y-77176190D01*
X24432380Y-77414285D01*
X23527619Y-76461904D02*
X23480000Y-76414285D01*
X23432380Y-76319047D01*
X23432380Y-76080952D01*
X23480000Y-75985714D01*
X23527619Y-75938095D01*
X23622857Y-75890476D01*
X23718095Y-75890476D01*
X23860952Y-75938095D01*
X24432380Y-76509523D01*
X24432380Y-75890476D01*
X24432380Y-75414285D02*
X24432380Y-75223809D01*
X24384761Y-75128571D01*
X24337142Y-75080952D01*
X24194285Y-74985714D01*
X24003809Y-74938095D01*
X23622857Y-74938095D01*
X23527619Y-74985714D01*
X23480000Y-75033333D01*
X23432380Y-75128571D01*
X23432380Y-75319047D01*
X23480000Y-75414285D01*
X23527619Y-75461904D01*
X23622857Y-75509523D01*
X23860952Y-75509523D01*
X23956190Y-75461904D01*
X24003809Y-75414285D01*
X24051428Y-75319047D01*
X24051428Y-75128571D01*
X24003809Y-75033333D01*
X23956190Y-74985714D01*
X23860952Y-74938095D01*
%TO.C,D28*%
X32052380Y-77414285D02*
X31052380Y-77414285D01*
X31052380Y-77176190D01*
X31100000Y-77033333D01*
X31195238Y-76938095D01*
X31290476Y-76890476D01*
X31480952Y-76842857D01*
X31623809Y-76842857D01*
X31814285Y-76890476D01*
X31909523Y-76938095D01*
X32004761Y-77033333D01*
X32052380Y-77176190D01*
X32052380Y-77414285D01*
X31147619Y-76461904D02*
X31100000Y-76414285D01*
X31052380Y-76319047D01*
X31052380Y-76080952D01*
X31100000Y-75985714D01*
X31147619Y-75938095D01*
X31242857Y-75890476D01*
X31338095Y-75890476D01*
X31480952Y-75938095D01*
X32052380Y-76509523D01*
X32052380Y-75890476D01*
X31480952Y-75319047D02*
X31433333Y-75414285D01*
X31385714Y-75461904D01*
X31290476Y-75509523D01*
X31242857Y-75509523D01*
X31147619Y-75461904D01*
X31100000Y-75414285D01*
X31052380Y-75319047D01*
X31052380Y-75128571D01*
X31100000Y-75033333D01*
X31147619Y-74985714D01*
X31242857Y-74938095D01*
X31290476Y-74938095D01*
X31385714Y-74985714D01*
X31433333Y-75033333D01*
X31480952Y-75128571D01*
X31480952Y-75319047D01*
X31528571Y-75414285D01*
X31576190Y-75461904D01*
X31671428Y-75509523D01*
X31861904Y-75509523D01*
X31957142Y-75461904D01*
X32004761Y-75414285D01*
X32052380Y-75319047D01*
X32052380Y-75128571D01*
X32004761Y-75033333D01*
X31957142Y-74985714D01*
X31861904Y-74938095D01*
X31671428Y-74938095D01*
X31576190Y-74985714D01*
X31528571Y-75033333D01*
X31480952Y-75128571D01*
%TO.C,D27*%
X39672380Y-77414285D02*
X38672380Y-77414285D01*
X38672380Y-77176190D01*
X38720000Y-77033333D01*
X38815238Y-76938095D01*
X38910476Y-76890476D01*
X39100952Y-76842857D01*
X39243809Y-76842857D01*
X39434285Y-76890476D01*
X39529523Y-76938095D01*
X39624761Y-77033333D01*
X39672380Y-77176190D01*
X39672380Y-77414285D01*
X38767619Y-76461904D02*
X38720000Y-76414285D01*
X38672380Y-76319047D01*
X38672380Y-76080952D01*
X38720000Y-75985714D01*
X38767619Y-75938095D01*
X38862857Y-75890476D01*
X38958095Y-75890476D01*
X39100952Y-75938095D01*
X39672380Y-76509523D01*
X39672380Y-75890476D01*
X38672380Y-75557142D02*
X38672380Y-74890476D01*
X39672380Y-75319047D01*
%TO.C,D26*%
X47292380Y-77414285D02*
X46292380Y-77414285D01*
X46292380Y-77176190D01*
X46340000Y-77033333D01*
X46435238Y-76938095D01*
X46530476Y-76890476D01*
X46720952Y-76842857D01*
X46863809Y-76842857D01*
X47054285Y-76890476D01*
X47149523Y-76938095D01*
X47244761Y-77033333D01*
X47292380Y-77176190D01*
X47292380Y-77414285D01*
X46387619Y-76461904D02*
X46340000Y-76414285D01*
X46292380Y-76319047D01*
X46292380Y-76080952D01*
X46340000Y-75985714D01*
X46387619Y-75938095D01*
X46482857Y-75890476D01*
X46578095Y-75890476D01*
X46720952Y-75938095D01*
X47292380Y-76509523D01*
X47292380Y-75890476D01*
X46292380Y-75033333D02*
X46292380Y-75223809D01*
X46340000Y-75319047D01*
X46387619Y-75366666D01*
X46530476Y-75461904D01*
X46720952Y-75509523D01*
X47101904Y-75509523D01*
X47197142Y-75461904D01*
X47244761Y-75414285D01*
X47292380Y-75319047D01*
X47292380Y-75128571D01*
X47244761Y-75033333D01*
X47197142Y-74985714D01*
X47101904Y-74938095D01*
X46863809Y-74938095D01*
X46768571Y-74985714D01*
X46720952Y-75033333D01*
X46673333Y-75128571D01*
X46673333Y-75319047D01*
X46720952Y-75414285D01*
X46768571Y-75461904D01*
X46863809Y-75509523D01*
%TO.C,D25*%
X54912380Y-77414285D02*
X53912380Y-77414285D01*
X53912380Y-77176190D01*
X53960000Y-77033333D01*
X54055238Y-76938095D01*
X54150476Y-76890476D01*
X54340952Y-76842857D01*
X54483809Y-76842857D01*
X54674285Y-76890476D01*
X54769523Y-76938095D01*
X54864761Y-77033333D01*
X54912380Y-77176190D01*
X54912380Y-77414285D01*
X54007619Y-76461904D02*
X53960000Y-76414285D01*
X53912380Y-76319047D01*
X53912380Y-76080952D01*
X53960000Y-75985714D01*
X54007619Y-75938095D01*
X54102857Y-75890476D01*
X54198095Y-75890476D01*
X54340952Y-75938095D01*
X54912380Y-76509523D01*
X54912380Y-75890476D01*
X53912380Y-74985714D02*
X53912380Y-75461904D01*
X54388571Y-75509523D01*
X54340952Y-75461904D01*
X54293333Y-75366666D01*
X54293333Y-75128571D01*
X54340952Y-75033333D01*
X54388571Y-74985714D01*
X54483809Y-74938095D01*
X54721904Y-74938095D01*
X54817142Y-74985714D01*
X54864761Y-75033333D01*
X54912380Y-75128571D01*
X54912380Y-75366666D01*
X54864761Y-75461904D01*
X54817142Y-75509523D01*
%TO.C,D24*%
X86662380Y-119324285D02*
X85662380Y-119324285D01*
X85662380Y-119086190D01*
X85710000Y-118943333D01*
X85805238Y-118848095D01*
X85900476Y-118800476D01*
X86090952Y-118752857D01*
X86233809Y-118752857D01*
X86424285Y-118800476D01*
X86519523Y-118848095D01*
X86614761Y-118943333D01*
X86662380Y-119086190D01*
X86662380Y-119324285D01*
X85757619Y-118371904D02*
X85710000Y-118324285D01*
X85662380Y-118229047D01*
X85662380Y-117990952D01*
X85710000Y-117895714D01*
X85757619Y-117848095D01*
X85852857Y-117800476D01*
X85948095Y-117800476D01*
X86090952Y-117848095D01*
X86662380Y-118419523D01*
X86662380Y-117800476D01*
X85995714Y-116943333D02*
X86662380Y-116943333D01*
X85614761Y-117181428D02*
X86329047Y-117419523D01*
X86329047Y-116800476D01*
%TO.C,D23*%
X94282380Y-119324285D02*
X93282380Y-119324285D01*
X93282380Y-119086190D01*
X93330000Y-118943333D01*
X93425238Y-118848095D01*
X93520476Y-118800476D01*
X93710952Y-118752857D01*
X93853809Y-118752857D01*
X94044285Y-118800476D01*
X94139523Y-118848095D01*
X94234761Y-118943333D01*
X94282380Y-119086190D01*
X94282380Y-119324285D01*
X93377619Y-118371904D02*
X93330000Y-118324285D01*
X93282380Y-118229047D01*
X93282380Y-117990952D01*
X93330000Y-117895714D01*
X93377619Y-117848095D01*
X93472857Y-117800476D01*
X93568095Y-117800476D01*
X93710952Y-117848095D01*
X94282380Y-118419523D01*
X94282380Y-117800476D01*
X93282380Y-117467142D02*
X93282380Y-116848095D01*
X93663333Y-117181428D01*
X93663333Y-117038571D01*
X93710952Y-116943333D01*
X93758571Y-116895714D01*
X93853809Y-116848095D01*
X94091904Y-116848095D01*
X94187142Y-116895714D01*
X94234761Y-116943333D01*
X94282380Y-117038571D01*
X94282380Y-117324285D01*
X94234761Y-117419523D01*
X94187142Y-117467142D01*
%TO.C,D22*%
X101902380Y-119324285D02*
X100902380Y-119324285D01*
X100902380Y-119086190D01*
X100950000Y-118943333D01*
X101045238Y-118848095D01*
X101140476Y-118800476D01*
X101330952Y-118752857D01*
X101473809Y-118752857D01*
X101664285Y-118800476D01*
X101759523Y-118848095D01*
X101854761Y-118943333D01*
X101902380Y-119086190D01*
X101902380Y-119324285D01*
X100997619Y-118371904D02*
X100950000Y-118324285D01*
X100902380Y-118229047D01*
X100902380Y-117990952D01*
X100950000Y-117895714D01*
X100997619Y-117848095D01*
X101092857Y-117800476D01*
X101188095Y-117800476D01*
X101330952Y-117848095D01*
X101902380Y-118419523D01*
X101902380Y-117800476D01*
X100997619Y-117419523D02*
X100950000Y-117371904D01*
X100902380Y-117276666D01*
X100902380Y-117038571D01*
X100950000Y-116943333D01*
X100997619Y-116895714D01*
X101092857Y-116848095D01*
X101188095Y-116848095D01*
X101330952Y-116895714D01*
X101902380Y-117467142D01*
X101902380Y-116848095D01*
%TO.C,D21*%
X109522380Y-119324285D02*
X108522380Y-119324285D01*
X108522380Y-119086190D01*
X108570000Y-118943333D01*
X108665238Y-118848095D01*
X108760476Y-118800476D01*
X108950952Y-118752857D01*
X109093809Y-118752857D01*
X109284285Y-118800476D01*
X109379523Y-118848095D01*
X109474761Y-118943333D01*
X109522380Y-119086190D01*
X109522380Y-119324285D01*
X108617619Y-118371904D02*
X108570000Y-118324285D01*
X108522380Y-118229047D01*
X108522380Y-117990952D01*
X108570000Y-117895714D01*
X108617619Y-117848095D01*
X108712857Y-117800476D01*
X108808095Y-117800476D01*
X108950952Y-117848095D01*
X109522380Y-118419523D01*
X109522380Y-117800476D01*
X109522380Y-116848095D02*
X109522380Y-117419523D01*
X109522380Y-117133809D02*
X108522380Y-117133809D01*
X108665238Y-117229047D01*
X108760476Y-117324285D01*
X108808095Y-117419523D01*
%TO.C,D20*%
X117142380Y-119324285D02*
X116142380Y-119324285D01*
X116142380Y-119086190D01*
X116190000Y-118943333D01*
X116285238Y-118848095D01*
X116380476Y-118800476D01*
X116570952Y-118752857D01*
X116713809Y-118752857D01*
X116904285Y-118800476D01*
X116999523Y-118848095D01*
X117094761Y-118943333D01*
X117142380Y-119086190D01*
X117142380Y-119324285D01*
X116237619Y-118371904D02*
X116190000Y-118324285D01*
X116142380Y-118229047D01*
X116142380Y-117990952D01*
X116190000Y-117895714D01*
X116237619Y-117848095D01*
X116332857Y-117800476D01*
X116428095Y-117800476D01*
X116570952Y-117848095D01*
X117142380Y-118419523D01*
X117142380Y-117800476D01*
X116142380Y-117181428D02*
X116142380Y-117086190D01*
X116190000Y-116990952D01*
X116237619Y-116943333D01*
X116332857Y-116895714D01*
X116523333Y-116848095D01*
X116761428Y-116848095D01*
X116951904Y-116895714D01*
X117047142Y-116943333D01*
X117094761Y-116990952D01*
X117142380Y-117086190D01*
X117142380Y-117181428D01*
X117094761Y-117276666D01*
X117047142Y-117324285D01*
X116951904Y-117371904D01*
X116761428Y-117419523D01*
X116523333Y-117419523D01*
X116332857Y-117371904D01*
X116237619Y-117324285D01*
X116190000Y-117276666D01*
X116142380Y-117181428D01*
%TO.C,D19*%
X124762380Y-119324285D02*
X123762380Y-119324285D01*
X123762380Y-119086190D01*
X123810000Y-118943333D01*
X123905238Y-118848095D01*
X124000476Y-118800476D01*
X124190952Y-118752857D01*
X124333809Y-118752857D01*
X124524285Y-118800476D01*
X124619523Y-118848095D01*
X124714761Y-118943333D01*
X124762380Y-119086190D01*
X124762380Y-119324285D01*
X124762380Y-117800476D02*
X124762380Y-118371904D01*
X124762380Y-118086190D02*
X123762380Y-118086190D01*
X123905238Y-118181428D01*
X124000476Y-118276666D01*
X124048095Y-118371904D01*
X124762380Y-117324285D02*
X124762380Y-117133809D01*
X124714761Y-117038571D01*
X124667142Y-116990952D01*
X124524285Y-116895714D01*
X124333809Y-116848095D01*
X123952857Y-116848095D01*
X123857619Y-116895714D01*
X123810000Y-116943333D01*
X123762380Y-117038571D01*
X123762380Y-117229047D01*
X123810000Y-117324285D01*
X123857619Y-117371904D01*
X123952857Y-117419523D01*
X124190952Y-117419523D01*
X124286190Y-117371904D01*
X124333809Y-117324285D01*
X124381428Y-117229047D01*
X124381428Y-117038571D01*
X124333809Y-116943333D01*
X124286190Y-116895714D01*
X124190952Y-116848095D01*
%TO.C,D18*%
X132382380Y-119324285D02*
X131382380Y-119324285D01*
X131382380Y-119086190D01*
X131430000Y-118943333D01*
X131525238Y-118848095D01*
X131620476Y-118800476D01*
X131810952Y-118752857D01*
X131953809Y-118752857D01*
X132144285Y-118800476D01*
X132239523Y-118848095D01*
X132334761Y-118943333D01*
X132382380Y-119086190D01*
X132382380Y-119324285D01*
X132382380Y-117800476D02*
X132382380Y-118371904D01*
X132382380Y-118086190D02*
X131382380Y-118086190D01*
X131525238Y-118181428D01*
X131620476Y-118276666D01*
X131668095Y-118371904D01*
X131810952Y-117229047D02*
X131763333Y-117324285D01*
X131715714Y-117371904D01*
X131620476Y-117419523D01*
X131572857Y-117419523D01*
X131477619Y-117371904D01*
X131430000Y-117324285D01*
X131382380Y-117229047D01*
X131382380Y-117038571D01*
X131430000Y-116943333D01*
X131477619Y-116895714D01*
X131572857Y-116848095D01*
X131620476Y-116848095D01*
X131715714Y-116895714D01*
X131763333Y-116943333D01*
X131810952Y-117038571D01*
X131810952Y-117229047D01*
X131858571Y-117324285D01*
X131906190Y-117371904D01*
X132001428Y-117419523D01*
X132191904Y-117419523D01*
X132287142Y-117371904D01*
X132334761Y-117324285D01*
X132382380Y-117229047D01*
X132382380Y-117038571D01*
X132334761Y-116943333D01*
X132287142Y-116895714D01*
X132191904Y-116848095D01*
X132001428Y-116848095D01*
X131906190Y-116895714D01*
X131858571Y-116943333D01*
X131810952Y-117038571D01*
%TO.C,D17*%
X140002380Y-119324285D02*
X139002380Y-119324285D01*
X139002380Y-119086190D01*
X139050000Y-118943333D01*
X139145238Y-118848095D01*
X139240476Y-118800476D01*
X139430952Y-118752857D01*
X139573809Y-118752857D01*
X139764285Y-118800476D01*
X139859523Y-118848095D01*
X139954761Y-118943333D01*
X140002380Y-119086190D01*
X140002380Y-119324285D01*
X140002380Y-117800476D02*
X140002380Y-118371904D01*
X140002380Y-118086190D02*
X139002380Y-118086190D01*
X139145238Y-118181428D01*
X139240476Y-118276666D01*
X139288095Y-118371904D01*
X139002380Y-117467142D02*
X139002380Y-116800476D01*
X140002380Y-117229047D01*
%TO.C,D16*%
X1572380Y-40584285D02*
X572380Y-40584285D01*
X572380Y-40346190D01*
X620000Y-40203333D01*
X715238Y-40108095D01*
X810476Y-40060476D01*
X1000952Y-40012857D01*
X1143809Y-40012857D01*
X1334285Y-40060476D01*
X1429523Y-40108095D01*
X1524761Y-40203333D01*
X1572380Y-40346190D01*
X1572380Y-40584285D01*
X1572380Y-39060476D02*
X1572380Y-39631904D01*
X1572380Y-39346190D02*
X572380Y-39346190D01*
X715238Y-39441428D01*
X810476Y-39536666D01*
X858095Y-39631904D01*
X572380Y-38203333D02*
X572380Y-38393809D01*
X620000Y-38489047D01*
X667619Y-38536666D01*
X810476Y-38631904D01*
X1000952Y-38679523D01*
X1381904Y-38679523D01*
X1477142Y-38631904D01*
X1524761Y-38584285D01*
X1572380Y-38489047D01*
X1572380Y-38298571D01*
X1524761Y-38203333D01*
X1477142Y-38155714D01*
X1381904Y-38108095D01*
X1143809Y-38108095D01*
X1048571Y-38155714D01*
X1000952Y-38203333D01*
X953333Y-38298571D01*
X953333Y-38489047D01*
X1000952Y-38584285D01*
X1048571Y-38631904D01*
X1143809Y-38679523D01*
%TO.C,D15*%
X9192380Y-40584285D02*
X8192380Y-40584285D01*
X8192380Y-40346190D01*
X8240000Y-40203333D01*
X8335238Y-40108095D01*
X8430476Y-40060476D01*
X8620952Y-40012857D01*
X8763809Y-40012857D01*
X8954285Y-40060476D01*
X9049523Y-40108095D01*
X9144761Y-40203333D01*
X9192380Y-40346190D01*
X9192380Y-40584285D01*
X9192380Y-39060476D02*
X9192380Y-39631904D01*
X9192380Y-39346190D02*
X8192380Y-39346190D01*
X8335238Y-39441428D01*
X8430476Y-39536666D01*
X8478095Y-39631904D01*
X8192380Y-38155714D02*
X8192380Y-38631904D01*
X8668571Y-38679523D01*
X8620952Y-38631904D01*
X8573333Y-38536666D01*
X8573333Y-38298571D01*
X8620952Y-38203333D01*
X8668571Y-38155714D01*
X8763809Y-38108095D01*
X9001904Y-38108095D01*
X9097142Y-38155714D01*
X9144761Y-38203333D01*
X9192380Y-38298571D01*
X9192380Y-38536666D01*
X9144761Y-38631904D01*
X9097142Y-38679523D01*
%TO.C,D14*%
X16812380Y-40584285D02*
X15812380Y-40584285D01*
X15812380Y-40346190D01*
X15860000Y-40203333D01*
X15955238Y-40108095D01*
X16050476Y-40060476D01*
X16240952Y-40012857D01*
X16383809Y-40012857D01*
X16574285Y-40060476D01*
X16669523Y-40108095D01*
X16764761Y-40203333D01*
X16812380Y-40346190D01*
X16812380Y-40584285D01*
X16812380Y-39060476D02*
X16812380Y-39631904D01*
X16812380Y-39346190D02*
X15812380Y-39346190D01*
X15955238Y-39441428D01*
X16050476Y-39536666D01*
X16098095Y-39631904D01*
X16145714Y-38203333D02*
X16812380Y-38203333D01*
X15764761Y-38441428D02*
X16479047Y-38679523D01*
X16479047Y-38060476D01*
%TO.C,D13*%
X24432380Y-40584285D02*
X23432380Y-40584285D01*
X23432380Y-40346190D01*
X23480000Y-40203333D01*
X23575238Y-40108095D01*
X23670476Y-40060476D01*
X23860952Y-40012857D01*
X24003809Y-40012857D01*
X24194285Y-40060476D01*
X24289523Y-40108095D01*
X24384761Y-40203333D01*
X24432380Y-40346190D01*
X24432380Y-40584285D01*
X24432380Y-39060476D02*
X24432380Y-39631904D01*
X24432380Y-39346190D02*
X23432380Y-39346190D01*
X23575238Y-39441428D01*
X23670476Y-39536666D01*
X23718095Y-39631904D01*
X23432380Y-38727142D02*
X23432380Y-38108095D01*
X23813333Y-38441428D01*
X23813333Y-38298571D01*
X23860952Y-38203333D01*
X23908571Y-38155714D01*
X24003809Y-38108095D01*
X24241904Y-38108095D01*
X24337142Y-38155714D01*
X24384761Y-38203333D01*
X24432380Y-38298571D01*
X24432380Y-38584285D01*
X24384761Y-38679523D01*
X24337142Y-38727142D01*
%TO.C,D12*%
X32052380Y-40584285D02*
X31052380Y-40584285D01*
X31052380Y-40346190D01*
X31100000Y-40203333D01*
X31195238Y-40108095D01*
X31290476Y-40060476D01*
X31480952Y-40012857D01*
X31623809Y-40012857D01*
X31814285Y-40060476D01*
X31909523Y-40108095D01*
X32004761Y-40203333D01*
X32052380Y-40346190D01*
X32052380Y-40584285D01*
X32052380Y-39060476D02*
X32052380Y-39631904D01*
X32052380Y-39346190D02*
X31052380Y-39346190D01*
X31195238Y-39441428D01*
X31290476Y-39536666D01*
X31338095Y-39631904D01*
X31147619Y-38679523D02*
X31100000Y-38631904D01*
X31052380Y-38536666D01*
X31052380Y-38298571D01*
X31100000Y-38203333D01*
X31147619Y-38155714D01*
X31242857Y-38108095D01*
X31338095Y-38108095D01*
X31480952Y-38155714D01*
X32052380Y-38727142D01*
X32052380Y-38108095D01*
%TO.C,D11*%
X39672380Y-40584285D02*
X38672380Y-40584285D01*
X38672380Y-40346190D01*
X38720000Y-40203333D01*
X38815238Y-40108095D01*
X38910476Y-40060476D01*
X39100952Y-40012857D01*
X39243809Y-40012857D01*
X39434285Y-40060476D01*
X39529523Y-40108095D01*
X39624761Y-40203333D01*
X39672380Y-40346190D01*
X39672380Y-40584285D01*
X39672380Y-39060476D02*
X39672380Y-39631904D01*
X39672380Y-39346190D02*
X38672380Y-39346190D01*
X38815238Y-39441428D01*
X38910476Y-39536666D01*
X38958095Y-39631904D01*
X39672380Y-38108095D02*
X39672380Y-38679523D01*
X39672380Y-38393809D02*
X38672380Y-38393809D01*
X38815238Y-38489047D01*
X38910476Y-38584285D01*
X38958095Y-38679523D01*
%TO.C,D10*%
X47292380Y-40584285D02*
X46292380Y-40584285D01*
X46292380Y-40346190D01*
X46340000Y-40203333D01*
X46435238Y-40108095D01*
X46530476Y-40060476D01*
X46720952Y-40012857D01*
X46863809Y-40012857D01*
X47054285Y-40060476D01*
X47149523Y-40108095D01*
X47244761Y-40203333D01*
X47292380Y-40346190D01*
X47292380Y-40584285D01*
X47292380Y-39060476D02*
X47292380Y-39631904D01*
X47292380Y-39346190D02*
X46292380Y-39346190D01*
X46435238Y-39441428D01*
X46530476Y-39536666D01*
X46578095Y-39631904D01*
X46292380Y-38441428D02*
X46292380Y-38346190D01*
X46340000Y-38250952D01*
X46387619Y-38203333D01*
X46482857Y-38155714D01*
X46673333Y-38108095D01*
X46911428Y-38108095D01*
X47101904Y-38155714D01*
X47197142Y-38203333D01*
X47244761Y-38250952D01*
X47292380Y-38346190D01*
X47292380Y-38441428D01*
X47244761Y-38536666D01*
X47197142Y-38584285D01*
X47101904Y-38631904D01*
X46911428Y-38679523D01*
X46673333Y-38679523D01*
X46482857Y-38631904D01*
X46387619Y-38584285D01*
X46340000Y-38536666D01*
X46292380Y-38441428D01*
%TO.C,D9*%
X54912380Y-40108095D02*
X53912380Y-40108095D01*
X53912380Y-39870000D01*
X53960000Y-39727142D01*
X54055238Y-39631904D01*
X54150476Y-39584285D01*
X54340952Y-39536666D01*
X54483809Y-39536666D01*
X54674285Y-39584285D01*
X54769523Y-39631904D01*
X54864761Y-39727142D01*
X54912380Y-39870000D01*
X54912380Y-40108095D01*
X54912380Y-39060476D02*
X54912380Y-38870000D01*
X54864761Y-38774761D01*
X54817142Y-38727142D01*
X54674285Y-38631904D01*
X54483809Y-38584285D01*
X54102857Y-38584285D01*
X54007619Y-38631904D01*
X53960000Y-38679523D01*
X53912380Y-38774761D01*
X53912380Y-38965238D01*
X53960000Y-39060476D01*
X54007619Y-39108095D01*
X54102857Y-39155714D01*
X54340952Y-39155714D01*
X54436190Y-39108095D01*
X54483809Y-39060476D01*
X54531428Y-38965238D01*
X54531428Y-38774761D01*
X54483809Y-38679523D01*
X54436190Y-38631904D01*
X54340952Y-38584285D01*
%TO.C,D8*%
X63802380Y-40108095D02*
X62802380Y-40108095D01*
X62802380Y-39870000D01*
X62850000Y-39727142D01*
X62945238Y-39631904D01*
X63040476Y-39584285D01*
X63230952Y-39536666D01*
X63373809Y-39536666D01*
X63564285Y-39584285D01*
X63659523Y-39631904D01*
X63754761Y-39727142D01*
X63802380Y-39870000D01*
X63802380Y-40108095D01*
X63230952Y-38965238D02*
X63183333Y-39060476D01*
X63135714Y-39108095D01*
X63040476Y-39155714D01*
X62992857Y-39155714D01*
X62897619Y-39108095D01*
X62850000Y-39060476D01*
X62802380Y-38965238D01*
X62802380Y-38774761D01*
X62850000Y-38679523D01*
X62897619Y-38631904D01*
X62992857Y-38584285D01*
X63040476Y-38584285D01*
X63135714Y-38631904D01*
X63183333Y-38679523D01*
X63230952Y-38774761D01*
X63230952Y-38965238D01*
X63278571Y-39060476D01*
X63326190Y-39108095D01*
X63421428Y-39155714D01*
X63611904Y-39155714D01*
X63707142Y-39108095D01*
X63754761Y-39060476D01*
X63802380Y-38965238D01*
X63802380Y-38774761D01*
X63754761Y-38679523D01*
X63707142Y-38631904D01*
X63611904Y-38584285D01*
X63421428Y-38584285D01*
X63326190Y-38631904D01*
X63278571Y-38679523D01*
X63230952Y-38774761D01*
%TO.C,D7*%
X71422380Y-40108095D02*
X70422380Y-40108095D01*
X70422380Y-39870000D01*
X70470000Y-39727142D01*
X70565238Y-39631904D01*
X70660476Y-39584285D01*
X70850952Y-39536666D01*
X70993809Y-39536666D01*
X71184285Y-39584285D01*
X71279523Y-39631904D01*
X71374761Y-39727142D01*
X71422380Y-39870000D01*
X71422380Y-40108095D01*
X70422380Y-39203333D02*
X70422380Y-38536666D01*
X71422380Y-38965238D01*
%TO.C,D6*%
X79042380Y-40108095D02*
X78042380Y-40108095D01*
X78042380Y-39870000D01*
X78090000Y-39727142D01*
X78185238Y-39631904D01*
X78280476Y-39584285D01*
X78470952Y-39536666D01*
X78613809Y-39536666D01*
X78804285Y-39584285D01*
X78899523Y-39631904D01*
X78994761Y-39727142D01*
X79042380Y-39870000D01*
X79042380Y-40108095D01*
X78042380Y-38679523D02*
X78042380Y-38870000D01*
X78090000Y-38965238D01*
X78137619Y-39012857D01*
X78280476Y-39108095D01*
X78470952Y-39155714D01*
X78851904Y-39155714D01*
X78947142Y-39108095D01*
X78994761Y-39060476D01*
X79042380Y-38965238D01*
X79042380Y-38774761D01*
X78994761Y-38679523D01*
X78947142Y-38631904D01*
X78851904Y-38584285D01*
X78613809Y-38584285D01*
X78518571Y-38631904D01*
X78470952Y-38679523D01*
X78423333Y-38774761D01*
X78423333Y-38965238D01*
X78470952Y-39060476D01*
X78518571Y-39108095D01*
X78613809Y-39155714D01*
%TO.C,D5*%
X86662380Y-40108095D02*
X85662380Y-40108095D01*
X85662380Y-39870000D01*
X85710000Y-39727142D01*
X85805238Y-39631904D01*
X85900476Y-39584285D01*
X86090952Y-39536666D01*
X86233809Y-39536666D01*
X86424285Y-39584285D01*
X86519523Y-39631904D01*
X86614761Y-39727142D01*
X86662380Y-39870000D01*
X86662380Y-40108095D01*
X85662380Y-38631904D02*
X85662380Y-39108095D01*
X86138571Y-39155714D01*
X86090952Y-39108095D01*
X86043333Y-39012857D01*
X86043333Y-38774761D01*
X86090952Y-38679523D01*
X86138571Y-38631904D01*
X86233809Y-38584285D01*
X86471904Y-38584285D01*
X86567142Y-38631904D01*
X86614761Y-38679523D01*
X86662380Y-38774761D01*
X86662380Y-39012857D01*
X86614761Y-39108095D01*
X86567142Y-39155714D01*
%TO.C,D4*%
X94282380Y-40108095D02*
X93282380Y-40108095D01*
X93282380Y-39870000D01*
X93330000Y-39727142D01*
X93425238Y-39631904D01*
X93520476Y-39584285D01*
X93710952Y-39536666D01*
X93853809Y-39536666D01*
X94044285Y-39584285D01*
X94139523Y-39631904D01*
X94234761Y-39727142D01*
X94282380Y-39870000D01*
X94282380Y-40108095D01*
X93615714Y-38679523D02*
X94282380Y-38679523D01*
X93234761Y-38917619D02*
X93949047Y-39155714D01*
X93949047Y-38536666D01*
%TO.C,D3*%
X101902380Y-40108095D02*
X100902380Y-40108095D01*
X100902380Y-39870000D01*
X100950000Y-39727142D01*
X101045238Y-39631904D01*
X101140476Y-39584285D01*
X101330952Y-39536666D01*
X101473809Y-39536666D01*
X101664285Y-39584285D01*
X101759523Y-39631904D01*
X101854761Y-39727142D01*
X101902380Y-39870000D01*
X101902380Y-40108095D01*
X100902380Y-39203333D02*
X100902380Y-38584285D01*
X101283333Y-38917619D01*
X101283333Y-38774761D01*
X101330952Y-38679523D01*
X101378571Y-38631904D01*
X101473809Y-38584285D01*
X101711904Y-38584285D01*
X101807142Y-38631904D01*
X101854761Y-38679523D01*
X101902380Y-38774761D01*
X101902380Y-39060476D01*
X101854761Y-39155714D01*
X101807142Y-39203333D01*
%TO.C,D2*%
X109522380Y-40108095D02*
X108522380Y-40108095D01*
X108522380Y-39870000D01*
X108570000Y-39727142D01*
X108665238Y-39631904D01*
X108760476Y-39584285D01*
X108950952Y-39536666D01*
X109093809Y-39536666D01*
X109284285Y-39584285D01*
X109379523Y-39631904D01*
X109474761Y-39727142D01*
X109522380Y-39870000D01*
X109522380Y-40108095D01*
X108617619Y-39155714D02*
X108570000Y-39108095D01*
X108522380Y-39012857D01*
X108522380Y-38774761D01*
X108570000Y-38679523D01*
X108617619Y-38631904D01*
X108712857Y-38584285D01*
X108808095Y-38584285D01*
X108950952Y-38631904D01*
X109522380Y-39203333D01*
X109522380Y-38584285D01*
%TO.C,D0*%
X117142380Y-40108095D02*
X116142380Y-40108095D01*
X116142380Y-39870000D01*
X116190000Y-39727142D01*
X116285238Y-39631904D01*
X116380476Y-39584285D01*
X116570952Y-39536666D01*
X116713809Y-39536666D01*
X116904285Y-39584285D01*
X116999523Y-39631904D01*
X117094761Y-39727142D01*
X117142380Y-39870000D01*
X117142380Y-40108095D01*
X116142380Y-38917619D02*
X116142380Y-38822380D01*
X116190000Y-38727142D01*
X116237619Y-38679523D01*
X116332857Y-38631904D01*
X116523333Y-38584285D01*
X116761428Y-38584285D01*
X116951904Y-38631904D01*
X117047142Y-38679523D01*
X117094761Y-38727142D01*
X117142380Y-38822380D01*
X117142380Y-38917619D01*
X117094761Y-39012857D01*
X117047142Y-39060476D01*
X116951904Y-39108095D01*
X116761428Y-39155714D01*
X116523333Y-39155714D01*
X116332857Y-39108095D01*
X116237619Y-39060476D01*
X116190000Y-39012857D01*
X116142380Y-38917619D01*
%TO.C,C16*%
X15357142Y-99682857D02*
X15404761Y-99730476D01*
X15452380Y-99873333D01*
X15452380Y-99968571D01*
X15404761Y-100111428D01*
X15309523Y-100206666D01*
X15214285Y-100254285D01*
X15023809Y-100301904D01*
X14880952Y-100301904D01*
X14690476Y-100254285D01*
X14595238Y-100206666D01*
X14500000Y-100111428D01*
X14452380Y-99968571D01*
X14452380Y-99873333D01*
X14500000Y-99730476D01*
X14547619Y-99682857D01*
X15452380Y-98730476D02*
X15452380Y-99301904D01*
X15452380Y-99016190D02*
X14452380Y-99016190D01*
X14595238Y-99111428D01*
X14690476Y-99206666D01*
X14738095Y-99301904D01*
X14452380Y-97873333D02*
X14452380Y-98063809D01*
X14500000Y-98159047D01*
X14547619Y-98206666D01*
X14690476Y-98301904D01*
X14880952Y-98349523D01*
X15261904Y-98349523D01*
X15357142Y-98301904D01*
X15404761Y-98254285D01*
X15452380Y-98159047D01*
X15452380Y-97968571D01*
X15404761Y-97873333D01*
X15357142Y-97825714D01*
X15261904Y-97778095D01*
X15023809Y-97778095D01*
X14928571Y-97825714D01*
X14880952Y-97873333D01*
X14833333Y-97968571D01*
X14833333Y-98159047D01*
X14880952Y-98254285D01*
X14928571Y-98301904D01*
X15023809Y-98349523D01*
%TO.C,C15*%
X129657142Y-59042857D02*
X129704761Y-59090476D01*
X129752380Y-59233333D01*
X129752380Y-59328571D01*
X129704761Y-59471428D01*
X129609523Y-59566666D01*
X129514285Y-59614285D01*
X129323809Y-59661904D01*
X129180952Y-59661904D01*
X128990476Y-59614285D01*
X128895238Y-59566666D01*
X128800000Y-59471428D01*
X128752380Y-59328571D01*
X128752380Y-59233333D01*
X128800000Y-59090476D01*
X128847619Y-59042857D01*
X129752380Y-58090476D02*
X129752380Y-58661904D01*
X129752380Y-58376190D02*
X128752380Y-58376190D01*
X128895238Y-58471428D01*
X128990476Y-58566666D01*
X129038095Y-58661904D01*
X128752380Y-57185714D02*
X128752380Y-57661904D01*
X129228571Y-57709523D01*
X129180952Y-57661904D01*
X129133333Y-57566666D01*
X129133333Y-57328571D01*
X129180952Y-57233333D01*
X129228571Y-57185714D01*
X129323809Y-57138095D01*
X129561904Y-57138095D01*
X129657142Y-57185714D01*
X129704761Y-57233333D01*
X129752380Y-57328571D01*
X129752380Y-57566666D01*
X129704761Y-57661904D01*
X129657142Y-57709523D01*
%TO.C,C14*%
X66157142Y-59082857D02*
X66204761Y-59130476D01*
X66252380Y-59273333D01*
X66252380Y-59368571D01*
X66204761Y-59511428D01*
X66109523Y-59606666D01*
X66014285Y-59654285D01*
X65823809Y-59701904D01*
X65680952Y-59701904D01*
X65490476Y-59654285D01*
X65395238Y-59606666D01*
X65300000Y-59511428D01*
X65252380Y-59368571D01*
X65252380Y-59273333D01*
X65300000Y-59130476D01*
X65347619Y-59082857D01*
X66252380Y-58130476D02*
X66252380Y-58701904D01*
X66252380Y-58416190D02*
X65252380Y-58416190D01*
X65395238Y-58511428D01*
X65490476Y-58606666D01*
X65538095Y-58701904D01*
X65585714Y-57273333D02*
X66252380Y-57273333D01*
X65204761Y-57511428D02*
X65919047Y-57749523D01*
X65919047Y-57130476D01*
%TO.C,C13*%
X40757142Y-59042857D02*
X40804761Y-59090476D01*
X40852380Y-59233333D01*
X40852380Y-59328571D01*
X40804761Y-59471428D01*
X40709523Y-59566666D01*
X40614285Y-59614285D01*
X40423809Y-59661904D01*
X40280952Y-59661904D01*
X40090476Y-59614285D01*
X39995238Y-59566666D01*
X39900000Y-59471428D01*
X39852380Y-59328571D01*
X39852380Y-59233333D01*
X39900000Y-59090476D01*
X39947619Y-59042857D01*
X40852380Y-58090476D02*
X40852380Y-58661904D01*
X40852380Y-58376190D02*
X39852380Y-58376190D01*
X39995238Y-58471428D01*
X40090476Y-58566666D01*
X40138095Y-58661904D01*
X39852380Y-57757142D02*
X39852380Y-57138095D01*
X40233333Y-57471428D01*
X40233333Y-57328571D01*
X40280952Y-57233333D01*
X40328571Y-57185714D01*
X40423809Y-57138095D01*
X40661904Y-57138095D01*
X40757142Y-57185714D01*
X40804761Y-57233333D01*
X40852380Y-57328571D01*
X40852380Y-57614285D01*
X40804761Y-57709523D01*
X40757142Y-57757142D01*
%TO.C,C12*%
X143627142Y-99682857D02*
X143674761Y-99730476D01*
X143722380Y-99873333D01*
X143722380Y-99968571D01*
X143674761Y-100111428D01*
X143579523Y-100206666D01*
X143484285Y-100254285D01*
X143293809Y-100301904D01*
X143150952Y-100301904D01*
X142960476Y-100254285D01*
X142865238Y-100206666D01*
X142770000Y-100111428D01*
X142722380Y-99968571D01*
X142722380Y-99873333D01*
X142770000Y-99730476D01*
X142817619Y-99682857D01*
X143722380Y-98730476D02*
X143722380Y-99301904D01*
X143722380Y-99016190D02*
X142722380Y-99016190D01*
X142865238Y-99111428D01*
X142960476Y-99206666D01*
X143008095Y-99301904D01*
X142817619Y-98349523D02*
X142770000Y-98301904D01*
X142722380Y-98206666D01*
X142722380Y-97968571D01*
X142770000Y-97873333D01*
X142817619Y-97825714D01*
X142912857Y-97778095D01*
X143008095Y-97778095D01*
X143150952Y-97825714D01*
X143722380Y-98397142D01*
X143722380Y-97778095D01*
%TO.C,C11*%
X162677142Y-59042857D02*
X162724761Y-59090476D01*
X162772380Y-59233333D01*
X162772380Y-59328571D01*
X162724761Y-59471428D01*
X162629523Y-59566666D01*
X162534285Y-59614285D01*
X162343809Y-59661904D01*
X162200952Y-59661904D01*
X162010476Y-59614285D01*
X161915238Y-59566666D01*
X161820000Y-59471428D01*
X161772380Y-59328571D01*
X161772380Y-59233333D01*
X161820000Y-59090476D01*
X161867619Y-59042857D01*
X162772380Y-58090476D02*
X162772380Y-58661904D01*
X162772380Y-58376190D02*
X161772380Y-58376190D01*
X161915238Y-58471428D01*
X162010476Y-58566666D01*
X162058095Y-58661904D01*
X162772380Y-57138095D02*
X162772380Y-57709523D01*
X162772380Y-57423809D02*
X161772380Y-57423809D01*
X161915238Y-57519047D01*
X162010476Y-57614285D01*
X162058095Y-57709523D01*
%TO.C,C10*%
X95367142Y-59042857D02*
X95414761Y-59090476D01*
X95462380Y-59233333D01*
X95462380Y-59328571D01*
X95414761Y-59471428D01*
X95319523Y-59566666D01*
X95224285Y-59614285D01*
X95033809Y-59661904D01*
X94890952Y-59661904D01*
X94700476Y-59614285D01*
X94605238Y-59566666D01*
X94510000Y-59471428D01*
X94462380Y-59328571D01*
X94462380Y-59233333D01*
X94510000Y-59090476D01*
X94557619Y-59042857D01*
X95462380Y-58090476D02*
X95462380Y-58661904D01*
X95462380Y-58376190D02*
X94462380Y-58376190D01*
X94605238Y-58471428D01*
X94700476Y-58566666D01*
X94748095Y-58661904D01*
X94462380Y-57471428D02*
X94462380Y-57376190D01*
X94510000Y-57280952D01*
X94557619Y-57233333D01*
X94652857Y-57185714D01*
X94843333Y-57138095D01*
X95081428Y-57138095D01*
X95271904Y-57185714D01*
X95367142Y-57233333D01*
X95414761Y-57280952D01*
X95462380Y-57376190D01*
X95462380Y-57471428D01*
X95414761Y-57566666D01*
X95367142Y-57614285D01*
X95271904Y-57661904D01*
X95081428Y-57709523D01*
X94843333Y-57709523D01*
X94652857Y-57661904D01*
X94557619Y-57614285D01*
X94510000Y-57566666D01*
X94462380Y-57471428D01*
%TO.C,C9*%
X5197142Y-58566666D02*
X5244761Y-58614285D01*
X5292380Y-58757142D01*
X5292380Y-58852380D01*
X5244761Y-58995238D01*
X5149523Y-59090476D01*
X5054285Y-59138095D01*
X4863809Y-59185714D01*
X4720952Y-59185714D01*
X4530476Y-59138095D01*
X4435238Y-59090476D01*
X4340000Y-58995238D01*
X4292380Y-58852380D01*
X4292380Y-58757142D01*
X4340000Y-58614285D01*
X4387619Y-58566666D01*
X5292380Y-58090476D02*
X5292380Y-57900000D01*
X5244761Y-57804761D01*
X5197142Y-57757142D01*
X5054285Y-57661904D01*
X4863809Y-57614285D01*
X4482857Y-57614285D01*
X4387619Y-57661904D01*
X4340000Y-57709523D01*
X4292380Y-57804761D01*
X4292380Y-57995238D01*
X4340000Y-58090476D01*
X4387619Y-58138095D01*
X4482857Y-58185714D01*
X4720952Y-58185714D01*
X4816190Y-58138095D01*
X4863809Y-58090476D01*
X4911428Y-57995238D01*
X4911428Y-57804761D01*
X4863809Y-57709523D01*
X4816190Y-57661904D01*
X4720952Y-57614285D01*
%TO.C,C8*%
X75047142Y-99206666D02*
X75094761Y-99254285D01*
X75142380Y-99397142D01*
X75142380Y-99492380D01*
X75094761Y-99635238D01*
X74999523Y-99730476D01*
X74904285Y-99778095D01*
X74713809Y-99825714D01*
X74570952Y-99825714D01*
X74380476Y-99778095D01*
X74285238Y-99730476D01*
X74190000Y-99635238D01*
X74142380Y-99492380D01*
X74142380Y-99397142D01*
X74190000Y-99254285D01*
X74237619Y-99206666D01*
X74570952Y-98635238D02*
X74523333Y-98730476D01*
X74475714Y-98778095D01*
X74380476Y-98825714D01*
X74332857Y-98825714D01*
X74237619Y-98778095D01*
X74190000Y-98730476D01*
X74142380Y-98635238D01*
X74142380Y-98444761D01*
X74190000Y-98349523D01*
X74237619Y-98301904D01*
X74332857Y-98254285D01*
X74380476Y-98254285D01*
X74475714Y-98301904D01*
X74523333Y-98349523D01*
X74570952Y-98444761D01*
X74570952Y-98635238D01*
X74618571Y-98730476D01*
X74666190Y-98778095D01*
X74761428Y-98825714D01*
X74951904Y-98825714D01*
X75047142Y-98778095D01*
X75094761Y-98730476D01*
X75142380Y-98635238D01*
X75142380Y-98444761D01*
X75094761Y-98349523D01*
X75047142Y-98301904D01*
X74951904Y-98254285D01*
X74761428Y-98254285D01*
X74666190Y-98301904D01*
X74618571Y-98349523D01*
X74570952Y-98444761D01*
%TO.C,C7*%
X109337142Y-99206666D02*
X109384761Y-99254285D01*
X109432380Y-99397142D01*
X109432380Y-99492380D01*
X109384761Y-99635238D01*
X109289523Y-99730476D01*
X109194285Y-99778095D01*
X109003809Y-99825714D01*
X108860952Y-99825714D01*
X108670476Y-99778095D01*
X108575238Y-99730476D01*
X108480000Y-99635238D01*
X108432380Y-99492380D01*
X108432380Y-99397142D01*
X108480000Y-99254285D01*
X108527619Y-99206666D01*
X108432380Y-98873333D02*
X108432380Y-98206666D01*
X109432380Y-98635238D01*
%TO.C,C6*%
X95367142Y-25546666D02*
X95414761Y-25594285D01*
X95462380Y-25737142D01*
X95462380Y-25832380D01*
X95414761Y-25975238D01*
X95319523Y-26070476D01*
X95224285Y-26118095D01*
X95033809Y-26165714D01*
X94890952Y-26165714D01*
X94700476Y-26118095D01*
X94605238Y-26070476D01*
X94510000Y-25975238D01*
X94462380Y-25832380D01*
X94462380Y-25737142D01*
X94510000Y-25594285D01*
X94557619Y-25546666D01*
X94462380Y-24689523D02*
X94462380Y-24880000D01*
X94510000Y-24975238D01*
X94557619Y-25022857D01*
X94700476Y-25118095D01*
X94890952Y-25165714D01*
X95271904Y-25165714D01*
X95367142Y-25118095D01*
X95414761Y-25070476D01*
X95462380Y-24975238D01*
X95462380Y-24784761D01*
X95414761Y-24689523D01*
X95367142Y-24641904D01*
X95271904Y-24594285D01*
X95033809Y-24594285D01*
X94938571Y-24641904D01*
X94890952Y-24689523D01*
X94843333Y-24784761D01*
X94843333Y-24975238D01*
X94890952Y-25070476D01*
X94938571Y-25118095D01*
X95033809Y-25165714D01*
%TO.C,C5*%
X5197142Y-25546666D02*
X5244761Y-25594285D01*
X5292380Y-25737142D01*
X5292380Y-25832380D01*
X5244761Y-25975238D01*
X5149523Y-26070476D01*
X5054285Y-26118095D01*
X4863809Y-26165714D01*
X4720952Y-26165714D01*
X4530476Y-26118095D01*
X4435238Y-26070476D01*
X4340000Y-25975238D01*
X4292380Y-25832380D01*
X4292380Y-25737142D01*
X4340000Y-25594285D01*
X4387619Y-25546666D01*
X4292380Y-24641904D02*
X4292380Y-25118095D01*
X4768571Y-25165714D01*
X4720952Y-25118095D01*
X4673333Y-25022857D01*
X4673333Y-24784761D01*
X4720952Y-24689523D01*
X4768571Y-24641904D01*
X4863809Y-24594285D01*
X5101904Y-24594285D01*
X5197142Y-24641904D01*
X5244761Y-24689523D01*
X5292380Y-24784761D01*
X5292380Y-25022857D01*
X5244761Y-25118095D01*
X5197142Y-25165714D01*
%TO.C,C4*%
X161407142Y-25546666D02*
X161454761Y-25594285D01*
X161502380Y-25737142D01*
X161502380Y-25832380D01*
X161454761Y-25975238D01*
X161359523Y-26070476D01*
X161264285Y-26118095D01*
X161073809Y-26165714D01*
X160930952Y-26165714D01*
X160740476Y-26118095D01*
X160645238Y-26070476D01*
X160550000Y-25975238D01*
X160502380Y-25832380D01*
X160502380Y-25737142D01*
X160550000Y-25594285D01*
X160597619Y-25546666D01*
X160835714Y-24689523D02*
X161502380Y-24689523D01*
X160454761Y-24927619D02*
X161169047Y-25165714D01*
X161169047Y-24546666D01*
%TO.C,C3*%
X128387142Y-25546666D02*
X128434761Y-25594285D01*
X128482380Y-25737142D01*
X128482380Y-25832380D01*
X128434761Y-25975238D01*
X128339523Y-26070476D01*
X128244285Y-26118095D01*
X128053809Y-26165714D01*
X127910952Y-26165714D01*
X127720476Y-26118095D01*
X127625238Y-26070476D01*
X127530000Y-25975238D01*
X127482380Y-25832380D01*
X127482380Y-25737142D01*
X127530000Y-25594285D01*
X127577619Y-25546666D01*
X127482380Y-25213333D02*
X127482380Y-24594285D01*
X127863333Y-24927619D01*
X127863333Y-24784761D01*
X127910952Y-24689523D01*
X127958571Y-24641904D01*
X128053809Y-24594285D01*
X128291904Y-24594285D01*
X128387142Y-24641904D01*
X128434761Y-24689523D01*
X128482380Y-24784761D01*
X128482380Y-25070476D01*
X128434761Y-25165714D01*
X128387142Y-25213333D01*
%TO.C,C2*%
X66157142Y-25546666D02*
X66204761Y-25594285D01*
X66252380Y-25737142D01*
X66252380Y-25832380D01*
X66204761Y-25975238D01*
X66109523Y-26070476D01*
X66014285Y-26118095D01*
X65823809Y-26165714D01*
X65680952Y-26165714D01*
X65490476Y-26118095D01*
X65395238Y-26070476D01*
X65300000Y-25975238D01*
X65252380Y-25832380D01*
X65252380Y-25737142D01*
X65300000Y-25594285D01*
X65347619Y-25546666D01*
X65347619Y-25165714D02*
X65300000Y-25118095D01*
X65252380Y-25022857D01*
X65252380Y-24784761D01*
X65300000Y-24689523D01*
X65347619Y-24641904D01*
X65442857Y-24594285D01*
X65538095Y-24594285D01*
X65680952Y-24641904D01*
X66252380Y-25213333D01*
X66252380Y-24594285D01*
%TO.C,C1*%
X40757142Y-25546666D02*
X40804761Y-25594285D01*
X40852380Y-25737142D01*
X40852380Y-25832380D01*
X40804761Y-25975238D01*
X40709523Y-26070476D01*
X40614285Y-26118095D01*
X40423809Y-26165714D01*
X40280952Y-26165714D01*
X40090476Y-26118095D01*
X39995238Y-26070476D01*
X39900000Y-25975238D01*
X39852380Y-25832380D01*
X39852380Y-25737142D01*
X39900000Y-25594285D01*
X39947619Y-25546666D01*
X40852380Y-24594285D02*
X40852380Y-25165714D01*
X40852380Y-24880000D02*
X39852380Y-24880000D01*
X39995238Y-24975238D01*
X40090476Y-25070476D01*
X40138095Y-25165714D01*
%TD*%
M02*
