%TF.GenerationSoftware,KiCad,Pcbnew,5.1.6-c6e7f7d~87~ubuntu16.04.1*%
%TF.CreationDate,2021-01-02T02:20:25-05:00*%
%TF.ProjectId,8085basic,38303835-6261-4736-9963-2e6b69636164,rev?*%
%TF.SameCoordinates,Original*%
%TF.FileFunction,Copper,L2,Bot*%
%TF.FilePolarity,Positive*%
%FSLAX46Y46*%
G04 Gerber Fmt 4.6, Leading zero omitted, Abs format (unit mm)*
G04 Created by KiCad (PCBNEW 5.1.6-c6e7f7d~87~ubuntu16.04.1) date 2021-01-02 02:20:25*
%MOMM*%
%LPD*%
G01*
G04 APERTURE LIST*
%TA.AperFunction,ComponentPad*%
%ADD10C,2.200000*%
%TD*%
%TA.AperFunction,ComponentPad*%
%ADD11O,1.600000X1.600000*%
%TD*%
%TA.AperFunction,ComponentPad*%
%ADD12C,1.600000*%
%TD*%
%TA.AperFunction,ComponentPad*%
%ADD13O,1.700000X1.700000*%
%TD*%
%TA.AperFunction,ComponentPad*%
%ADD14R,1.700000X1.700000*%
%TD*%
%TA.AperFunction,ComponentPad*%
%ADD15R,1.600000X1.600000*%
%TD*%
%TA.AperFunction,ComponentPad*%
%ADD16C,1.800000*%
%TD*%
%TA.AperFunction,ComponentPad*%
%ADD17R,1.800000X1.800000*%
%TD*%
%TA.AperFunction,ComponentPad*%
%ADD18C,1.500000*%
%TD*%
%TA.AperFunction,ComponentPad*%
%ADD19C,2.000000*%
%TD*%
%TA.AperFunction,ViaPad*%
%ADD20C,0.800000*%
%TD*%
%TA.AperFunction,Conductor*%
%ADD21C,0.250000*%
%TD*%
G04 APERTURE END LIST*
D10*
%TO.P,SW4,2*%
%TO.N,+5V*%
X151892000Y-85090000D03*
%TO.P,SW4,3*%
%TO.N,N/C*%
X151892000Y-89916000D03*
%TO.P,SW4,1*%
%TO.N,Net-(J1-Pad3)*%
X151990000Y-80390000D03*
%TD*%
%TO.P,SW3,3*%
%TO.N,Net-(R5-Pad1)*%
X127762000Y-85090000D03*
%TO.P,SW3,2*%
%TO.N,GND*%
X127762000Y-89916000D03*
%TO.P,SW3,1*%
%TO.N,Net-(R4-Pad1)*%
X127860000Y-80390000D03*
%TD*%
D11*
%TO.P,R6,2*%
%TO.N,+5V*%
X149860000Y-2540000D03*
D12*
%TO.P,R6,1*%
%TO.N,Net-(R6-Pad1)*%
X149860000Y-12700000D03*
%TD*%
D11*
%TO.P,R5,2*%
%TO.N,+5V*%
X144780000Y-2540000D03*
D12*
%TO.P,R5,1*%
%TO.N,Net-(R5-Pad1)*%
X144780000Y-12700000D03*
%TD*%
D11*
%TO.P,R4,2*%
%TO.N,+5V*%
X143510000Y-17780000D03*
D12*
%TO.P,R4,1*%
%TO.N,Net-(R4-Pad1)*%
X153670000Y-17780000D03*
%TD*%
D11*
%TO.P,R3,2*%
%TO.N,Net-(R3-Pad2)*%
X120650000Y-54610000D03*
D12*
%TO.P,R3,1*%
%TO.N,Net-(D1-Pad2)*%
X120650000Y-64770000D03*
%TD*%
D11*
%TO.P,R2,2*%
%TO.N,Net-(C11-Pad2)*%
X114300000Y-19050000D03*
D12*
%TO.P,R2,1*%
%TO.N,Net-(C12-Pad2)*%
X104140000Y-19050000D03*
%TD*%
D11*
%TO.P,R1,2*%
%TO.N,Net-(R1-Pad2)*%
X17780000Y-69850000D03*
D12*
%TO.P,R1,1*%
%TO.N,+5V*%
X7620000Y-69850000D03*
%TD*%
D13*
%TO.P,J2,11*%
%TO.N,Net-(J2-Pad11)*%
X11430000Y-59690000D03*
%TO.P,J2,10*%
%TO.N,Net-(J2-Pad10)*%
X11430000Y-57150000D03*
%TO.P,J2,9*%
%TO.N,Net-(J2-Pad9)*%
X11430000Y-54610000D03*
%TO.P,J2,8*%
%TO.N,Net-(J2-Pad8)*%
X11430000Y-52070000D03*
%TO.P,J2,7*%
%TO.N,Net-(J2-Pad7)*%
X11430000Y-49530000D03*
%TO.P,J2,6*%
%TO.N,Net-(J2-Pad6)*%
X11430000Y-46990000D03*
%TO.P,J2,5*%
%TO.N,Net-(J2-Pad5)*%
X11430000Y-44450000D03*
%TO.P,J2,4*%
%TO.N,Net-(J2-Pad4)*%
X11430000Y-41910000D03*
%TO.P,J2,3*%
%TO.N,Net-(J2-Pad3)*%
X11430000Y-39370000D03*
%TO.P,J2,2*%
%TO.N,Net-(J2-Pad2)*%
X11430000Y-36830000D03*
D14*
%TO.P,J2,1*%
%TO.N,Net-(J2-Pad1)*%
X11430000Y-34290000D03*
%TD*%
D11*
%TO.P,DIS1,14*%
%TO.N,+5V*%
X148590000Y-54610000D03*
%TO.P,DIS1,7*%
%TO.N,GND*%
X140970000Y-69850000D03*
%TO.P,DIS1,13*%
%TO.N,data2*%
X148590000Y-57150000D03*
%TO.P,DIS1,6*%
%TO.N,N/C*%
X140970000Y-67310000D03*
%TO.P,DIS1,12*%
%TO.N,data3*%
X148590000Y-59690000D03*
%TO.P,DIS1,5*%
%TO.N,GND*%
X140970000Y-64770000D03*
%TO.P,DIS1,11*%
%TO.N,N/C*%
X148590000Y-62230000D03*
%TO.P,DIS1,4*%
%TO.N,Net-(DIS1-Pad4)*%
X140970000Y-62230000D03*
%TO.P,DIS1,10*%
%TO.N,Net-(DIS1-Pad10)*%
X148590000Y-64770000D03*
%TO.P,DIS1,3*%
%TO.N,data0*%
X140970000Y-59690000D03*
%TO.P,DIS1,9*%
%TO.N,N/C*%
X148590000Y-67310000D03*
%TO.P,DIS1,2*%
%TO.N,data1*%
X140970000Y-57150000D03*
%TO.P,DIS1,8*%
%TO.N,GND*%
X148590000Y-69850000D03*
D15*
%TO.P,DIS1,1*%
%TO.N,+5V*%
X140970000Y-54610000D03*
%TD*%
D16*
%TO.P,D1,2*%
%TO.N,Net-(D1-Pad2)*%
X118110000Y-71120000D03*
D17*
%TO.P,D1,1*%
%TO.N,GND*%
X118110000Y-73660000D03*
%TD*%
D11*
%TO.P,DIS2,14*%
%TO.N,+5V*%
X137160000Y-54610000D03*
%TO.P,DIS2,7*%
%TO.N,GND*%
X129540000Y-69850000D03*
%TO.P,DIS2,13*%
%TO.N,data6*%
X137160000Y-57150000D03*
%TO.P,DIS2,6*%
%TO.N,N/C*%
X129540000Y-67310000D03*
%TO.P,DIS2,12*%
%TO.N,data7*%
X137160000Y-59690000D03*
%TO.P,DIS2,5*%
%TO.N,GND*%
X129540000Y-64770000D03*
%TO.P,DIS2,11*%
%TO.N,N/C*%
X137160000Y-62230000D03*
%TO.P,DIS2,4*%
%TO.N,Net-(DIS2-Pad4)*%
X129540000Y-62230000D03*
%TO.P,DIS2,10*%
%TO.N,Net-(DIS2-Pad10)*%
X137160000Y-64770000D03*
%TO.P,DIS2,3*%
%TO.N,data4*%
X129540000Y-59690000D03*
%TO.P,DIS2,9*%
%TO.N,N/C*%
X137160000Y-67310000D03*
%TO.P,DIS2,2*%
%TO.N,data5*%
X129540000Y-57150000D03*
%TO.P,DIS2,8*%
%TO.N,GND*%
X137160000Y-69850000D03*
D15*
%TO.P,DIS2,1*%
%TO.N,+5V*%
X129540000Y-54610000D03*
%TD*%
D11*
%TO.P,DIS4,14*%
%TO.N,+5V*%
X148590000Y-29210000D03*
%TO.P,DIS4,7*%
%TO.N,GND*%
X140970000Y-44450000D03*
%TO.P,DIS4,13*%
%TO.N,addr6*%
X148590000Y-31750000D03*
%TO.P,DIS4,6*%
%TO.N,N/C*%
X140970000Y-41910000D03*
%TO.P,DIS4,12*%
%TO.N,addr7*%
X148590000Y-34290000D03*
%TO.P,DIS4,5*%
%TO.N,GND*%
X140970000Y-39370000D03*
%TO.P,DIS4,11*%
%TO.N,N/C*%
X148590000Y-36830000D03*
%TO.P,DIS4,4*%
%TO.N,Net-(DIS4-Pad4)*%
X140970000Y-36830000D03*
%TO.P,DIS4,10*%
%TO.N,Net-(DIS4-Pad10)*%
X148590000Y-39370000D03*
%TO.P,DIS4,3*%
%TO.N,addr4*%
X140970000Y-34290000D03*
%TO.P,DIS4,9*%
%TO.N,N/C*%
X148590000Y-41910000D03*
%TO.P,DIS4,2*%
%TO.N,addr5*%
X140970000Y-31750000D03*
%TO.P,DIS4,8*%
%TO.N,GND*%
X148590000Y-44450000D03*
D15*
%TO.P,DIS4,1*%
%TO.N,+5V*%
X140970000Y-29210000D03*
%TD*%
D11*
%TO.P,DIS3,14*%
%TO.N,+5V*%
X160020000Y-29210000D03*
%TO.P,DIS3,7*%
%TO.N,GND*%
X152400000Y-44450000D03*
%TO.P,DIS3,13*%
%TO.N,addr2*%
X160020000Y-31750000D03*
%TO.P,DIS3,6*%
%TO.N,N/C*%
X152400000Y-41910000D03*
%TO.P,DIS3,12*%
%TO.N,addr3*%
X160020000Y-34290000D03*
%TO.P,DIS3,5*%
%TO.N,GND*%
X152400000Y-39370000D03*
%TO.P,DIS3,11*%
%TO.N,N/C*%
X160020000Y-36830000D03*
%TO.P,DIS3,4*%
%TO.N,Net-(DIS3-Pad4)*%
X152400000Y-36830000D03*
%TO.P,DIS3,10*%
%TO.N,Net-(DIS3-Pad10)*%
X160020000Y-39370000D03*
%TO.P,DIS3,3*%
%TO.N,addr0*%
X152400000Y-34290000D03*
%TO.P,DIS3,9*%
%TO.N,N/C*%
X160020000Y-41910000D03*
%TO.P,DIS3,2*%
%TO.N,addr1*%
X152400000Y-31750000D03*
%TO.P,DIS3,8*%
%TO.N,GND*%
X160020000Y-44450000D03*
D15*
%TO.P,DIS3,1*%
%TO.N,+5V*%
X152400000Y-29210000D03*
%TD*%
D10*
%TO.P,SW2,3*%
%TO.N,N/C*%
X140110000Y-80390000D03*
%TO.P,SW2,2*%
%TO.N,GND*%
X140110000Y-85090000D03*
%TO.P,SW2,1*%
%TO.N,Net-(R6-Pad1)*%
X140110000Y-89790000D03*
%TD*%
D11*
%TO.P,U10,14*%
%TO.N,+5V*%
X123190000Y-3810000D03*
%TO.P,U10,7*%
%TO.N,GND*%
X138430000Y-11430000D03*
%TO.P,U10,13*%
%TO.N,N/C*%
X125730000Y-3810000D03*
%TO.P,U10,6*%
%TO.N,Net-(U10-Pad2)*%
X135890000Y-11430000D03*
%TO.P,U10,12*%
%TO.N,N/C*%
X128270000Y-3810000D03*
%TO.P,U10,5*%
%TO.N,Net-(R5-Pad1)*%
X133350000Y-11430000D03*
%TO.P,U10,11*%
%TO.N,N/C*%
X130810000Y-3810000D03*
%TO.P,U10,4*%
%TO.N,Net-(U10-Pad3)*%
X130810000Y-11430000D03*
%TO.P,U10,10*%
%TO.N,Net-(U10-Pad10)*%
X133350000Y-3810000D03*
%TO.P,U10,3*%
%TO.N,Net-(U10-Pad3)*%
X128270000Y-11430000D03*
%TO.P,U10,9*%
%TO.N,Net-(R6-Pad1)*%
X135890000Y-3810000D03*
%TO.P,U10,2*%
%TO.N,Net-(U10-Pad2)*%
X125730000Y-11430000D03*
%TO.P,U10,8*%
%TO.N,READY*%
X138430000Y-3810000D03*
D15*
%TO.P,U10,1*%
%TO.N,Net-(R4-Pad1)*%
X123190000Y-11430000D03*
%TD*%
D11*
%TO.P,DIS5,14*%
%TO.N,+5V*%
X137160000Y-29210000D03*
%TO.P,DIS5,7*%
%TO.N,GND*%
X129540000Y-44450000D03*
%TO.P,DIS5,13*%
%TO.N,addr10*%
X137160000Y-31750000D03*
%TO.P,DIS5,6*%
%TO.N,N/C*%
X129540000Y-41910000D03*
%TO.P,DIS5,12*%
%TO.N,addr11*%
X137160000Y-34290000D03*
%TO.P,DIS5,5*%
%TO.N,GND*%
X129540000Y-39370000D03*
%TO.P,DIS5,11*%
%TO.N,N/C*%
X137160000Y-36830000D03*
%TO.P,DIS5,4*%
%TO.N,Net-(DIS5-Pad4)*%
X129540000Y-36830000D03*
%TO.P,DIS5,10*%
%TO.N,Net-(DIS5-Pad10)*%
X137160000Y-39370000D03*
%TO.P,DIS5,3*%
%TO.N,addr8*%
X129540000Y-34290000D03*
%TO.P,DIS5,9*%
%TO.N,N/C*%
X137160000Y-41910000D03*
%TO.P,DIS5,2*%
%TO.N,addr9*%
X129540000Y-31750000D03*
%TO.P,DIS5,8*%
%TO.N,GND*%
X137160000Y-44450000D03*
D15*
%TO.P,DIS5,1*%
%TO.N,+5V*%
X129540000Y-29210000D03*
%TD*%
D12*
%TO.P,C10,2*%
%TO.N,+5V*%
X118110000Y-6310000D03*
%TO.P,C10,1*%
%TO.N,GND*%
X118110000Y-3810000D03*
%TD*%
D11*
%TO.P,DIS6,14*%
%TO.N,+5V*%
X125730000Y-29210000D03*
%TO.P,DIS6,7*%
%TO.N,GND*%
X118110000Y-44450000D03*
%TO.P,DIS6,13*%
%TO.N,addr14*%
X125730000Y-31750000D03*
%TO.P,DIS6,6*%
%TO.N,N/C*%
X118110000Y-41910000D03*
%TO.P,DIS6,12*%
%TO.N,addr15*%
X125730000Y-34290000D03*
%TO.P,DIS6,5*%
%TO.N,GND*%
X118110000Y-39370000D03*
%TO.P,DIS6,11*%
%TO.N,N/C*%
X125730000Y-36830000D03*
%TO.P,DIS6,4*%
%TO.N,Net-(DIS6-Pad4)*%
X118110000Y-36830000D03*
%TO.P,DIS6,10*%
%TO.N,Net-(DIS6-Pad10)*%
X125730000Y-39370000D03*
%TO.P,DIS6,3*%
%TO.N,addr12*%
X118110000Y-34290000D03*
%TO.P,DIS6,9*%
%TO.N,N/C*%
X125730000Y-41910000D03*
%TO.P,DIS6,2*%
%TO.N,addr13*%
X118110000Y-31750000D03*
%TO.P,DIS6,8*%
%TO.N,GND*%
X125730000Y-44450000D03*
D15*
%TO.P,DIS6,1*%
%TO.N,+5V*%
X118110000Y-29210000D03*
%TD*%
D18*
%TO.P,Y1,2*%
%TO.N,Net-(C12-Pad2)*%
X109020000Y-6350000D03*
%TO.P,Y1,1*%
%TO.N,Net-(C11-Pad2)*%
X104140000Y-6350000D03*
%TD*%
D11*
%TO.P,U9,16*%
%TO.N,+5V*%
X74930000Y-7620000D03*
%TO.P,U9,8*%
%TO.N,GND*%
X92710000Y-15240000D03*
%TO.P,U9,15*%
%TO.N,Net-(J2-Pad5)*%
X77470000Y-7620000D03*
%TO.P,U9,7*%
%TO.N,Net-(J2-Pad11)*%
X90170000Y-15240000D03*
%TO.P,U9,14*%
%TO.N,Net-(J2-Pad7)*%
X80010000Y-7620000D03*
%TO.P,U9,6*%
%TO.N,Net-(J2-Pad8)*%
X87630000Y-15240000D03*
%TO.P,U9,13*%
%TO.N,Net-(J2-Pad6)*%
X82550000Y-7620000D03*
%TO.P,U9,5*%
%TO.N,Net-(J2-Pad10)*%
X85090000Y-15240000D03*
%TO.P,U9,12*%
%TO.N,GND*%
X85090000Y-7620000D03*
%TO.P,U9,4*%
%TO.N,Net-(J2-Pad9)*%
X82550000Y-15240000D03*
%TO.P,U9,11*%
%TO.N,Net-(C11-Pad2)*%
X87630000Y-7620000D03*
%TO.P,U9,3*%
%TO.N,Net-(J2-Pad2)*%
X80010000Y-15240000D03*
%TO.P,U9,10*%
%TO.N,Net-(C12-Pad2)*%
X90170000Y-7620000D03*
%TO.P,U9,2*%
%TO.N,Net-(J2-Pad3)*%
X77470000Y-15240000D03*
%TO.P,U9,9*%
%TO.N,Net-(U9-Pad9)*%
X92710000Y-7620000D03*
D15*
%TO.P,U9,1*%
%TO.N,Net-(J2-Pad4)*%
X74930000Y-15240000D03*
%TD*%
D11*
%TO.P,U8,28*%
%TO.N,data1*%
X27940000Y-3810000D03*
%TO.P,U8,14*%
%TO.N,Net-(U8-Pad14)*%
X60960000Y-19050000D03*
%TO.P,U8,27*%
%TO.N,data0*%
X30480000Y-3810000D03*
%TO.P,U8,13*%
%TO.N,Net-(U1-Pad32)*%
X58420000Y-19050000D03*
%TO.P,U8,26*%
%TO.N,+5V*%
X33020000Y-3810000D03*
%TO.P,U8,12*%
%TO.N,addr0*%
X55880000Y-19050000D03*
%TO.P,U8,25*%
%TO.N,Net-(J2-Pad1)*%
X35560000Y-3810000D03*
%TO.P,U8,11*%
%TO.N,Net-(U7-Pad10)*%
X53340000Y-19050000D03*
%TO.P,U8,24*%
%TO.N,Net-(U8-Pad24)*%
X38100000Y-3810000D03*
%TO.P,U8,10*%
%TO.N,Net-(U1-Pad31)*%
X50800000Y-19050000D03*
%TO.P,U8,23*%
%TO.N,Net-(U8-Pad23)*%
X40640000Y-3810000D03*
%TO.P,U8,9*%
%TO.N,Net-(J2-Pad1)*%
X48260000Y-19050000D03*
%TO.P,U8,22*%
%TO.N,Net-(U8-Pad22)*%
X43180000Y-3810000D03*
%TO.P,U8,8*%
%TO.N,data7*%
X45720000Y-19050000D03*
%TO.P,U8,21*%
%TO.N,Net-(U1-Pad3)*%
X45720000Y-3810000D03*
%TO.P,U8,7*%
%TO.N,data6*%
X43180000Y-19050000D03*
%TO.P,U8,20*%
%TO.N,Net-(U1-Pad37)*%
X48260000Y-3810000D03*
%TO.P,U8,6*%
%TO.N,data5*%
X40640000Y-19050000D03*
%TO.P,U8,19*%
%TO.N,Net-(J1-Pad5)*%
X50800000Y-3810000D03*
%TO.P,U8,5*%
%TO.N,data4*%
X38100000Y-19050000D03*
%TO.P,U8,18*%
%TO.N,Net-(U8-Pad18)*%
X53340000Y-3810000D03*
%TO.P,U8,4*%
%TO.N,GND*%
X35560000Y-19050000D03*
%TO.P,U8,17*%
X55880000Y-3810000D03*
%TO.P,U8,3*%
%TO.N,Net-(J1-Pad4)*%
X33020000Y-19050000D03*
%TO.P,U8,16*%
%TO.N,Net-(U8-Pad16)*%
X58420000Y-3810000D03*
%TO.P,U8,2*%
%TO.N,data3*%
X30480000Y-19050000D03*
%TO.P,U8,15*%
%TO.N,Net-(U8-Pad15)*%
X60960000Y-3810000D03*
D15*
%TO.P,U8,1*%
%TO.N,data2*%
X27940000Y-19050000D03*
%TD*%
D11*
%TO.P,U7,16*%
%TO.N,+5V*%
X64770000Y-53340000D03*
%TO.P,U7,8*%
%TO.N,GND*%
X82550000Y-60960000D03*
%TO.P,U7,15*%
%TO.N,Net-(U3-Pad4)*%
X67310000Y-53340000D03*
%TO.P,U7,7*%
%TO.N,Net-(U7-Pad7)*%
X80010000Y-60960000D03*
%TO.P,U7,14*%
%TO.N,Net-(U5-Pad20)*%
X69850000Y-53340000D03*
%TO.P,U7,6*%
%TO.N,+5V*%
X77470000Y-60960000D03*
%TO.P,U7,13*%
%TO.N,Net-(U7-Pad13)*%
X72390000Y-53340000D03*
%TO.P,U7,5*%
%TO.N,GND*%
X74930000Y-60960000D03*
%TO.P,U7,12*%
%TO.N,Net-(U3-Pad5)*%
X74930000Y-53340000D03*
%TO.P,U7,4*%
%TO.N,GND*%
X72390000Y-60960000D03*
%TO.P,U7,11*%
%TO.N,Net-(U7-Pad11)*%
X77470000Y-53340000D03*
%TO.P,U7,3*%
%TO.N,Net-(U1-Pad34)*%
X69850000Y-60960000D03*
%TO.P,U7,10*%
%TO.N,Net-(U7-Pad10)*%
X80010000Y-53340000D03*
%TO.P,U7,2*%
%TO.N,addr15*%
X67310000Y-60960000D03*
%TO.P,U7,9*%
%TO.N,Net-(U7-Pad9)*%
X82550000Y-53340000D03*
D15*
%TO.P,U7,1*%
%TO.N,Net-(U6-Pad5)*%
X64770000Y-60960000D03*
%TD*%
D11*
%TO.P,U6,14*%
%TO.N,+5V*%
X91440000Y-72390000D03*
%TO.P,U6,7*%
%TO.N,GND*%
X106680000Y-80010000D03*
%TO.P,U6,13*%
%TO.N,+5V*%
X93980000Y-72390000D03*
%TO.P,U6,6*%
%TO.N,Net-(R3-Pad2)*%
X104140000Y-80010000D03*
%TO.P,U6,12*%
%TO.N,GND*%
X96520000Y-72390000D03*
%TO.P,U6,5*%
%TO.N,Net-(U6-Pad5)*%
X101600000Y-80010000D03*
%TO.P,U6,11*%
%TO.N,Net-(U10-Pad3)*%
X99060000Y-72390000D03*
%TO.P,U6,4*%
%TO.N,Net-(U1-Pad31)*%
X99060000Y-80010000D03*
%TO.P,U6,10*%
%TO.N,~ALE*%
X101600000Y-72390000D03*
%TO.P,U6,3*%
%TO.N,Net-(U6-Pad3)*%
X96520000Y-80010000D03*
%TO.P,U6,9*%
%TO.N,Net-(U10-Pad10)*%
X104140000Y-72390000D03*
%TO.P,U6,2*%
%TO.N,Net-(U6-Pad2)*%
X93980000Y-80010000D03*
%TO.P,U6,8*%
%TO.N,Net-(U6-Pad8)*%
X106680000Y-72390000D03*
D15*
%TO.P,U6,1*%
%TO.N,Net-(R1-Pad2)*%
X91440000Y-80010000D03*
%TD*%
D11*
%TO.P,U5,28*%
%TO.N,+5V*%
X73660000Y-29210000D03*
%TO.P,U5,14*%
%TO.N,GND*%
X106680000Y-44450000D03*
%TO.P,U5,27*%
%TO.N,Net-(U1-Pad31)*%
X76200000Y-29210000D03*
%TO.P,U5,13*%
%TO.N,data2*%
X104140000Y-44450000D03*
%TO.P,U5,26*%
%TO.N,addr13*%
X78740000Y-29210000D03*
%TO.P,U5,12*%
%TO.N,data1*%
X101600000Y-44450000D03*
%TO.P,U5,25*%
%TO.N,addr8*%
X81280000Y-29210000D03*
%TO.P,U5,11*%
%TO.N,data0*%
X99060000Y-44450000D03*
%TO.P,U5,24*%
%TO.N,addr9*%
X83820000Y-29210000D03*
%TO.P,U5,10*%
%TO.N,addr0*%
X96520000Y-44450000D03*
%TO.P,U5,23*%
%TO.N,addr11*%
X86360000Y-29210000D03*
%TO.P,U5,9*%
%TO.N,addr1*%
X93980000Y-44450000D03*
%TO.P,U5,22*%
%TO.N,Net-(U1-Pad32)*%
X88900000Y-29210000D03*
%TO.P,U5,8*%
%TO.N,addr2*%
X91440000Y-44450000D03*
%TO.P,U5,21*%
%TO.N,addr10*%
X91440000Y-29210000D03*
%TO.P,U5,7*%
%TO.N,addr3*%
X88900000Y-44450000D03*
%TO.P,U5,20*%
%TO.N,Net-(U5-Pad20)*%
X93980000Y-29210000D03*
%TO.P,U5,6*%
%TO.N,addr4*%
X86360000Y-44450000D03*
%TO.P,U5,19*%
%TO.N,data7*%
X96520000Y-29210000D03*
%TO.P,U5,5*%
%TO.N,addr5*%
X83820000Y-44450000D03*
%TO.P,U5,18*%
%TO.N,data6*%
X99060000Y-29210000D03*
%TO.P,U5,4*%
%TO.N,addr6*%
X81280000Y-44450000D03*
%TO.P,U5,17*%
%TO.N,data5*%
X101600000Y-29210000D03*
%TO.P,U5,3*%
%TO.N,addr7*%
X78740000Y-44450000D03*
%TO.P,U5,16*%
%TO.N,data4*%
X104140000Y-29210000D03*
%TO.P,U5,2*%
%TO.N,addr12*%
X76200000Y-44450000D03*
%TO.P,U5,15*%
%TO.N,data3*%
X106680000Y-29210000D03*
D15*
%TO.P,U5,1*%
%TO.N,addr14*%
X73660000Y-44450000D03*
%TD*%
D11*
%TO.P,U4,28*%
%TO.N,+5V*%
X27940000Y-29210000D03*
%TO.P,U4,14*%
%TO.N,GND*%
X60960000Y-44450000D03*
%TO.P,U4,27*%
%TO.N,+5V*%
X30480000Y-29210000D03*
%TO.P,U4,13*%
%TO.N,data2*%
X58420000Y-44450000D03*
%TO.P,U4,26*%
%TO.N,addr13*%
X33020000Y-29210000D03*
%TO.P,U4,12*%
%TO.N,data1*%
X55880000Y-44450000D03*
%TO.P,U4,25*%
%TO.N,addr8*%
X35560000Y-29210000D03*
%TO.P,U4,11*%
%TO.N,data0*%
X53340000Y-44450000D03*
%TO.P,U4,24*%
%TO.N,addr9*%
X38100000Y-29210000D03*
%TO.P,U4,10*%
%TO.N,addr0*%
X50800000Y-44450000D03*
%TO.P,U4,23*%
%TO.N,addr11*%
X40640000Y-29210000D03*
%TO.P,U4,9*%
%TO.N,addr1*%
X48260000Y-44450000D03*
%TO.P,U4,22*%
%TO.N,Net-(U1-Pad32)*%
X43180000Y-29210000D03*
%TO.P,U4,8*%
%TO.N,addr2*%
X45720000Y-44450000D03*
%TO.P,U4,21*%
%TO.N,addr10*%
X45720000Y-29210000D03*
%TO.P,U4,7*%
%TO.N,addr3*%
X43180000Y-44450000D03*
%TO.P,U4,20*%
%TO.N,Net-(U3-Pad8)*%
X48260000Y-29210000D03*
%TO.P,U4,6*%
%TO.N,addr4*%
X40640000Y-44450000D03*
%TO.P,U4,19*%
%TO.N,data7*%
X50800000Y-29210000D03*
%TO.P,U4,5*%
%TO.N,addr5*%
X38100000Y-44450000D03*
%TO.P,U4,18*%
%TO.N,data6*%
X53340000Y-29210000D03*
%TO.P,U4,4*%
%TO.N,addr6*%
X35560000Y-44450000D03*
%TO.P,U4,17*%
%TO.N,data5*%
X55880000Y-29210000D03*
%TO.P,U4,3*%
%TO.N,addr7*%
X33020000Y-44450000D03*
%TO.P,U4,16*%
%TO.N,data4*%
X58420000Y-29210000D03*
%TO.P,U4,2*%
%TO.N,addr12*%
X30480000Y-44450000D03*
%TO.P,U4,15*%
%TO.N,data3*%
X60960000Y-29210000D03*
D15*
%TO.P,U4,1*%
%TO.N,addr14*%
X27940000Y-44450000D03*
%TD*%
D11*
%TO.P,U3,14*%
%TO.N,+5V*%
X95250000Y-53340000D03*
%TO.P,U3,7*%
%TO.N,GND*%
X110490000Y-60960000D03*
%TO.P,U3,13*%
%TO.N,N/C*%
X97790000Y-53340000D03*
%TO.P,U3,6*%
%TO.N,Net-(U3-Pad10)*%
X107950000Y-60960000D03*
%TO.P,U3,12*%
%TO.N,N/C*%
X100330000Y-53340000D03*
%TO.P,U3,5*%
%TO.N,Net-(U3-Pad5)*%
X105410000Y-60960000D03*
%TO.P,U3,11*%
%TO.N,N/C*%
X102870000Y-53340000D03*
%TO.P,U3,4*%
%TO.N,Net-(U3-Pad4)*%
X102870000Y-60960000D03*
%TO.P,U3,10*%
%TO.N,Net-(U3-Pad10)*%
X105410000Y-53340000D03*
%TO.P,U3,3*%
%TO.N,~ALE*%
X100330000Y-60960000D03*
%TO.P,U3,9*%
%TO.N,Net-(U3-Pad10)*%
X107950000Y-53340000D03*
%TO.P,U3,2*%
%TO.N,Net-(U1-Pad30)*%
X97790000Y-60960000D03*
%TO.P,U3,8*%
%TO.N,Net-(U3-Pad8)*%
X110490000Y-53340000D03*
D15*
%TO.P,U3,1*%
%TO.N,Net-(U1-Pad30)*%
X95250000Y-60960000D03*
%TD*%
D11*
%TO.P,U2,20*%
%TO.N,+5V*%
X27940000Y-53340000D03*
%TO.P,U2,10*%
%TO.N,GND*%
X50800000Y-60960000D03*
%TO.P,U2,19*%
%TO.N,addr7*%
X30480000Y-53340000D03*
%TO.P,U2,9*%
%TO.N,addr3*%
X48260000Y-60960000D03*
%TO.P,U2,18*%
%TO.N,data7*%
X33020000Y-53340000D03*
%TO.P,U2,8*%
%TO.N,data3*%
X45720000Y-60960000D03*
%TO.P,U2,17*%
%TO.N,data6*%
X35560000Y-53340000D03*
%TO.P,U2,7*%
%TO.N,data2*%
X43180000Y-60960000D03*
%TO.P,U2,16*%
%TO.N,addr6*%
X38100000Y-53340000D03*
%TO.P,U2,6*%
%TO.N,addr2*%
X40640000Y-60960000D03*
%TO.P,U2,15*%
%TO.N,addr5*%
X40640000Y-53340000D03*
%TO.P,U2,5*%
%TO.N,addr1*%
X38100000Y-60960000D03*
%TO.P,U2,14*%
%TO.N,data5*%
X43180000Y-53340000D03*
%TO.P,U2,4*%
%TO.N,data1*%
X35560000Y-60960000D03*
%TO.P,U2,13*%
%TO.N,data4*%
X45720000Y-53340000D03*
%TO.P,U2,3*%
%TO.N,data0*%
X33020000Y-60960000D03*
%TO.P,U2,12*%
%TO.N,addr4*%
X48260000Y-53340000D03*
%TO.P,U2,2*%
%TO.N,addr0*%
X30480000Y-60960000D03*
%TO.P,U2,11*%
%TO.N,~ALE*%
X50800000Y-53340000D03*
D15*
%TO.P,U2,1*%
%TO.N,+5V*%
X27940000Y-60960000D03*
%TD*%
D11*
%TO.P,U1,40*%
%TO.N,+5V*%
X27940000Y-69850000D03*
%TO.P,U1,20*%
%TO.N,GND*%
X76200000Y-85090000D03*
%TO.P,U1,39*%
X30480000Y-69850000D03*
%TO.P,U1,19*%
%TO.N,data7*%
X73660000Y-85090000D03*
%TO.P,U1,38*%
%TO.N,Net-(U1-Pad38)*%
X33020000Y-69850000D03*
%TO.P,U1,18*%
%TO.N,data6*%
X71120000Y-85090000D03*
%TO.P,U1,37*%
%TO.N,Net-(U1-Pad37)*%
X35560000Y-69850000D03*
%TO.P,U1,17*%
%TO.N,data5*%
X68580000Y-85090000D03*
%TO.P,U1,36*%
%TO.N,Net-(R1-Pad2)*%
X38100000Y-69850000D03*
%TO.P,U1,16*%
%TO.N,data4*%
X66040000Y-85090000D03*
%TO.P,U1,35*%
%TO.N,READY*%
X40640000Y-69850000D03*
%TO.P,U1,15*%
%TO.N,data3*%
X63500000Y-85090000D03*
%TO.P,U1,34*%
%TO.N,Net-(U1-Pad34)*%
X43180000Y-69850000D03*
%TO.P,U1,14*%
%TO.N,data2*%
X60960000Y-85090000D03*
%TO.P,U1,33*%
%TO.N,Net-(U1-Pad33)*%
X45720000Y-69850000D03*
%TO.P,U1,13*%
%TO.N,data1*%
X58420000Y-85090000D03*
%TO.P,U1,32*%
%TO.N,Net-(U1-Pad32)*%
X48260000Y-69850000D03*
%TO.P,U1,12*%
%TO.N,data0*%
X55880000Y-85090000D03*
%TO.P,U1,31*%
%TO.N,Net-(U1-Pad31)*%
X50800000Y-69850000D03*
%TO.P,U1,11*%
%TO.N,Net-(U1-Pad11)*%
X53340000Y-85090000D03*
%TO.P,U1,30*%
%TO.N,Net-(U1-Pad30)*%
X53340000Y-69850000D03*
%TO.P,U1,10*%
%TO.N,GND*%
X50800000Y-85090000D03*
%TO.P,U1,29*%
%TO.N,Net-(U1-Pad29)*%
X55880000Y-69850000D03*
%TO.P,U1,9*%
%TO.N,GND*%
X48260000Y-85090000D03*
%TO.P,U1,28*%
%TO.N,addr15*%
X58420000Y-69850000D03*
%TO.P,U1,8*%
%TO.N,GND*%
X45720000Y-85090000D03*
%TO.P,U1,27*%
%TO.N,addr14*%
X60960000Y-69850000D03*
%TO.P,U1,7*%
%TO.N,GND*%
X43180000Y-85090000D03*
%TO.P,U1,26*%
%TO.N,addr13*%
X63500000Y-69850000D03*
%TO.P,U1,6*%
%TO.N,GND*%
X40640000Y-85090000D03*
%TO.P,U1,25*%
%TO.N,addr12*%
X66040000Y-69850000D03*
%TO.P,U1,5*%
%TO.N,Net-(U1-Pad5)*%
X38100000Y-85090000D03*
%TO.P,U1,24*%
%TO.N,addr11*%
X68580000Y-69850000D03*
%TO.P,U1,4*%
%TO.N,Net-(U1-Pad4)*%
X35560000Y-85090000D03*
%TO.P,U1,23*%
%TO.N,addr10*%
X71120000Y-69850000D03*
%TO.P,U1,3*%
%TO.N,Net-(U1-Pad3)*%
X33020000Y-85090000D03*
%TO.P,U1,22*%
%TO.N,addr9*%
X73660000Y-69850000D03*
%TO.P,U1,2*%
%TO.N,Net-(U1-Pad2)*%
X30480000Y-85090000D03*
%TO.P,U1,21*%
%TO.N,addr8*%
X76200000Y-69850000D03*
D15*
%TO.P,U1,1*%
%TO.N,Net-(C12-Pad2)*%
X27940000Y-85090000D03*
%TD*%
D19*
%TO.P,SW1,1*%
%TO.N,GND*%
X12850000Y-76200000D03*
%TO.P,SW1,2*%
%TO.N,Net-(R1-Pad2)*%
X12850000Y-80700000D03*
%TO.P,SW1,1*%
%TO.N,GND*%
X6350000Y-76200000D03*
%TO.P,SW1,2*%
%TO.N,Net-(R1-Pad2)*%
X6350000Y-80700000D03*
%TD*%
D13*
%TO.P,J1,6*%
%TO.N,Net-(J1-Pad6)*%
X19050000Y-21590000D03*
%TO.P,J1,5*%
%TO.N,Net-(J1-Pad5)*%
X19050000Y-19050000D03*
%TO.P,J1,4*%
%TO.N,Net-(J1-Pad4)*%
X19050000Y-16510000D03*
%TO.P,J1,3*%
%TO.N,Net-(J1-Pad3)*%
X19050000Y-13970000D03*
%TO.P,J1,2*%
%TO.N,Net-(J1-Pad2)*%
X19050000Y-11430000D03*
D14*
%TO.P,J1,1*%
%TO.N,GND*%
X19050000Y-8890000D03*
%TD*%
D12*
%TO.P,C12,2*%
%TO.N,Net-(C12-Pad2)*%
X109220000Y-12740000D03*
%TO.P,C12,1*%
%TO.N,GND*%
X109220000Y-15240000D03*
%TD*%
%TO.P,C11,2*%
%TO.N,Net-(C11-Pad2)*%
X104140000Y-12740000D03*
%TO.P,C11,1*%
%TO.N,GND*%
X104140000Y-15240000D03*
%TD*%
%TO.P,C9,2*%
%TO.N,+5V*%
X71120000Y-11430000D03*
%TO.P,C9,1*%
%TO.N,GND*%
X71120000Y-8930000D03*
%TD*%
%TO.P,C8,2*%
%TO.N,GND*%
X35520000Y-22860000D03*
%TO.P,C8,1*%
%TO.N,+5V*%
X33020000Y-22860000D03*
%TD*%
%TO.P,C7,2*%
%TO.N,+5V*%
X60960000Y-57110000D03*
%TO.P,C7,1*%
%TO.N,GND*%
X60960000Y-54610000D03*
%TD*%
%TO.P,C6,2*%
%TO.N,+5V*%
X87630000Y-76160000D03*
%TO.P,C6,1*%
%TO.N,GND*%
X87630000Y-73660000D03*
%TD*%
%TO.P,C5,2*%
%TO.N,+5V*%
X69850000Y-33020000D03*
%TO.P,C5,1*%
%TO.N,GND*%
X69850000Y-30520000D03*
%TD*%
%TO.P,C4,2*%
%TO.N,+5V*%
X22860000Y-32980000D03*
%TO.P,C4,1*%
%TO.N,GND*%
X22860000Y-30480000D03*
%TD*%
%TO.P,C3,2*%
%TO.N,+5V*%
X91440000Y-57150000D03*
%TO.P,C3,1*%
%TO.N,GND*%
X91440000Y-54650000D03*
%TD*%
%TO.P,C2,2*%
%TO.N,+5V*%
X24130000Y-57150000D03*
%TO.P,C2,1*%
%TO.N,GND*%
X24130000Y-54650000D03*
%TD*%
%TO.P,C1,2*%
%TO.N,+5V*%
X24130000Y-73620000D03*
%TO.P,C1,1*%
%TO.N,GND*%
X24130000Y-71120000D03*
%TD*%
D20*
%TO.N,+5V*%
X73242700Y-12818900D03*
X76546900Y-66470700D03*
X62056300Y-50157200D03*
X77167500Y-57202700D03*
X90836800Y-51157600D03*
X31373200Y-21562900D03*
X64770000Y-57202700D03*
%TO.N,GND*%
X73812900Y-55828400D03*
X53842100Y-62114200D03*
X119431800Y-46448100D03*
%TO.N,Net-(D1-Pad2)*%
X119805700Y-67232200D03*
%TO.N,Net-(R3-Pad2)*%
X115002400Y-66394200D03*
X109843300Y-71977800D03*
%TO.N,data7*%
X51300800Y-22707000D03*
%TO.N,data6*%
X53298600Y-21981400D03*
X92726400Y-52818400D03*
%TO.N,data5*%
X42365100Y-25461400D03*
X83319100Y-46813600D03*
X52204600Y-47875000D03*
%TO.N,data4*%
X50958900Y-50983300D03*
X40579500Y-23801200D03*
X93408100Y-56027300D03*
%TO.N,data3*%
X127393800Y-46326100D03*
X115592200Y-28788100D03*
X76870800Y-26874000D03*
%TO.N,Net-(U1-Pad34)*%
X43384800Y-59141000D03*
%TO.N,data2*%
X64340800Y-36643800D03*
X60304300Y-27169100D03*
X105785400Y-46809700D03*
%TO.N,data1*%
X51327900Y-57068200D03*
%TO.N,Net-(U1-Pad32)*%
X70972000Y-28845500D03*
X46397600Y-67130200D03*
X57321100Y-21524200D03*
%TO.N,data0*%
X50516400Y-55768700D03*
X53527100Y-53047000D03*
X95153000Y-56060600D03*
%TO.N,Net-(U1-Pad31)*%
X78646000Y-22678100D03*
%TO.N,Net-(U3-Pad5)*%
X77978800Y-58372500D03*
%TO.N,Net-(U3-Pad4)*%
X99859700Y-55528800D03*
%TO.N,Net-(U3-Pad8)*%
X54231400Y-35784200D03*
%TO.N,Net-(U5-Pad20)*%
X81673300Y-51502200D03*
X92013600Y-31219400D03*
%TO.N,Net-(U6-Pad5)*%
X91679300Y-68491200D03*
X64823500Y-64978300D03*
%TO.N,Net-(U7-Pad10)*%
X55766700Y-50417700D03*
X55319600Y-21956500D03*
%TO.N,addr2*%
X55988900Y-36516000D03*
X43189200Y-48778500D03*
%TO.N,addr3*%
X55324900Y-48327500D03*
X53952900Y-46321200D03*
X89041000Y-40621900D03*
%TO.N,addr0*%
X58375500Y-37851800D03*
X150457800Y-46790400D03*
X96523000Y-46804700D03*
X38229400Y-42373700D03*
%TO.N,addr1*%
X146447600Y-49985600D03*
X52130100Y-49796600D03*
X93050000Y-49193200D03*
%TO.N,addr6*%
X144163100Y-50138800D03*
X82193700Y-49013600D03*
%TO.N,addr7*%
X36565600Y-42084500D03*
X34664600Y-42615200D03*
X80605500Y-34363200D03*
%TO.N,addr4*%
X90689700Y-32061900D03*
X44764700Y-50833300D03*
%TO.N,addr5*%
X87219600Y-32248400D03*
%TO.N,addr10*%
X49042700Y-31658100D03*
%TO.N,addr11*%
X48273400Y-23286500D03*
X91330800Y-26455800D03*
%TO.N,addr8*%
X132459200Y-60607900D03*
X54289500Y-26859600D03*
X56695700Y-24817800D03*
%TO.N,addr9*%
X88629600Y-31504600D03*
X46232800Y-22277300D03*
%TO.N,addr14*%
X37749400Y-37116900D03*
X41193700Y-41329400D03*
X78893500Y-33011300D03*
%TO.N,addr15*%
X91980200Y-62794000D03*
%TO.N,addr12*%
X88395100Y-65740000D03*
X37706900Y-38684000D03*
X39927200Y-41714700D03*
%TO.N,addr13*%
X74919300Y-26401400D03*
X33557300Y-20625600D03*
%TO.N,~ALE*%
X107477700Y-66402300D03*
%TO.N,Net-(U10-Pad3)*%
X138951500Y-13801500D03*
%TO.N,Net-(J2-Pad5)*%
X21381800Y-3438900D03*
%TO.N,Net-(J2-Pad11)*%
X84636800Y-10751000D03*
%TO.N,Net-(J2-Pad8)*%
X82756100Y-11141100D03*
%TO.N,Net-(J2-Pad6)*%
X19307100Y-5572300D03*
%TO.N,Net-(J2-Pad10)*%
X19011900Y-1190500D03*
X86347500Y-11952200D03*
%TO.N,Net-(J2-Pad9)*%
X17174600Y-12300300D03*
%TO.N,Net-(J2-Pad2)*%
X33509800Y-16990000D03*
%TO.N,Net-(J2-Pad3)*%
X21601800Y-26512900D03*
X28602300Y-14449700D03*
%TO.N,Net-(J2-Pad4)*%
X22658300Y-27970600D03*
X28600500Y-15987900D03*
%TO.N,Net-(J1-Pad3)*%
X143797600Y-28226800D03*
%TD*%
D21*
%TO.N,+5V*%
X91440000Y-57150000D02*
X91440000Y-56302000D01*
X91440000Y-56302000D02*
X92578100Y-55163900D01*
X92578100Y-55163900D02*
X92578100Y-53895600D01*
X92578100Y-53895600D02*
X90836800Y-52154300D01*
X90836800Y-52154300D02*
X90836800Y-51157600D01*
X77470000Y-60960000D02*
X77470000Y-59834700D01*
X77167500Y-57202700D02*
X77167500Y-59532200D01*
X77167500Y-59532200D02*
X77470000Y-59834700D01*
X74930000Y-7620000D02*
X74930000Y-8745300D01*
X74930000Y-8745300D02*
X73804700Y-8745300D01*
X73804700Y-8745300D02*
X71120000Y-11430000D01*
X73660000Y-29210000D02*
X73660000Y-28084700D01*
X73242700Y-12818900D02*
X73242700Y-27667400D01*
X73242700Y-27667400D02*
X73660000Y-28084700D01*
X73660000Y-29210000D02*
X73660000Y-30335300D01*
X73660000Y-30335300D02*
X70975300Y-33020000D01*
X70975300Y-33020000D02*
X69850000Y-33020000D01*
X69850000Y-33020000D02*
X69850000Y-42363500D01*
X69850000Y-42363500D02*
X62056300Y-50157200D01*
X137939700Y-52705000D02*
X139065000Y-51579700D01*
X139065000Y-51579700D02*
X139065000Y-29989700D01*
X137160000Y-53484700D02*
X137939700Y-52705000D01*
X137939700Y-52705000D02*
X139844700Y-54610000D01*
X140970000Y-54610000D02*
X139844700Y-54610000D01*
X139065000Y-29989700D02*
X139844700Y-29210000D01*
X139065000Y-29989700D02*
X138285300Y-29210000D01*
X137160000Y-29210000D02*
X138285300Y-29210000D01*
X140970000Y-29210000D02*
X139844700Y-29210000D01*
X77470000Y-60960000D02*
X77470000Y-65547600D01*
X77470000Y-65547600D02*
X76546900Y-66470700D01*
X137160000Y-54610000D02*
X137160000Y-53484700D01*
X30480000Y-29210000D02*
X30480000Y-22456100D01*
X30480000Y-22456100D02*
X31373200Y-21562900D01*
X31373200Y-21562900D02*
X31894700Y-21041400D01*
X31894700Y-21041400D02*
X31894700Y-6060600D01*
X31894700Y-6060600D02*
X33020000Y-4935300D01*
X33020000Y-3810000D02*
X33020000Y-4935300D01*
X160020000Y-29210000D02*
X160020000Y-30335300D01*
X160020000Y-30335300D02*
X160301300Y-30335300D01*
X160301300Y-30335300D02*
X161165500Y-31199500D01*
X161165500Y-31199500D02*
X161165500Y-75816500D01*
X161165500Y-75816500D02*
X151892000Y-85090000D01*
X149860000Y-3665300D02*
X160020000Y-13825300D01*
X160020000Y-13825300D02*
X160020000Y-29210000D01*
X149860000Y-2540000D02*
X149860000Y-3665300D01*
X125730000Y-29210000D02*
X129540000Y-29210000D01*
X91440000Y-72390000D02*
X90314700Y-72390000D01*
X87630000Y-76160000D02*
X90314700Y-73475300D01*
X90314700Y-73475300D02*
X90314700Y-72390000D01*
X27940000Y-29210000D02*
X27940000Y-30335300D01*
X25492600Y-32980000D02*
X25492600Y-49767300D01*
X25492600Y-49767300D02*
X27940000Y-52214700D01*
X27940000Y-30335300D02*
X25492600Y-32782700D01*
X25492600Y-32782700D02*
X25492600Y-32980000D01*
X25492600Y-32980000D02*
X22860000Y-32980000D01*
X27940000Y-53340000D02*
X27940000Y-52214700D01*
X64770000Y-53340000D02*
X64770000Y-57202700D01*
X25910400Y-57805000D02*
X25910300Y-57805100D01*
X25910300Y-57805100D02*
X24785100Y-57805100D01*
X24785100Y-57805100D02*
X24130000Y-57150000D01*
X27940000Y-53340000D02*
X27940000Y-55775400D01*
X27940000Y-55775400D02*
X25910400Y-57805000D01*
X27940000Y-59834700D02*
X25910400Y-57805000D01*
X27940000Y-60960000D02*
X27940000Y-59834700D01*
X27940000Y-69850000D02*
X27940000Y-60960000D01*
%TO.N,GND*%
X74930000Y-59834700D02*
X73812900Y-58717600D01*
X73812900Y-58717600D02*
X73812900Y-55828400D01*
X140970000Y-40495300D02*
X140793200Y-40495300D01*
X140793200Y-40495300D02*
X139844700Y-41443800D01*
X139844700Y-41443800D02*
X139844700Y-42376200D01*
X139844700Y-42376200D02*
X140793200Y-43324700D01*
X140793200Y-43324700D02*
X140970000Y-43324700D01*
X128414700Y-69850000D02*
X124604700Y-73660000D01*
X124604700Y-73660000D02*
X118110000Y-73660000D01*
X97645300Y-72390000D02*
X97645300Y-72657100D01*
X97645300Y-72657100D02*
X99140400Y-74152200D01*
X99140400Y-74152200D02*
X100822200Y-74152200D01*
X100822200Y-74152200D02*
X106680000Y-80010000D01*
X129540000Y-64770000D02*
X129540000Y-65895300D01*
X128414700Y-69850000D02*
X128414700Y-66739200D01*
X128414700Y-66739200D02*
X129258600Y-65895300D01*
X129258600Y-65895300D02*
X129540000Y-65895300D01*
X128527300Y-69850000D02*
X128414700Y-69850000D01*
X129540000Y-69850000D02*
X128527300Y-69850000D01*
X76200000Y-85090000D02*
X76200000Y-83964700D01*
X76200000Y-83964700D02*
X77325300Y-83964700D01*
X77325300Y-83964700D02*
X87630000Y-73660000D01*
X74930000Y-60960000D02*
X74930000Y-59834700D01*
X69850000Y-30520000D02*
X66627400Y-33742600D01*
X66627400Y-33742600D02*
X66627400Y-37657300D01*
X66627400Y-37657300D02*
X60960000Y-43324700D01*
X60960000Y-44450000D02*
X60960000Y-43324700D01*
X60960000Y-45012600D02*
X60960000Y-44450000D01*
X60960000Y-45012600D02*
X60960000Y-45575300D01*
X50800000Y-60960000D02*
X50800000Y-59834700D01*
X30480000Y-69850000D02*
X29354700Y-69850000D01*
X24130000Y-71120000D02*
X28366000Y-71120000D01*
X28366000Y-71120000D02*
X29354700Y-70131300D01*
X29354700Y-70131300D02*
X29354700Y-69850000D01*
X24130000Y-54650000D02*
X23002400Y-55777600D01*
X23002400Y-55777600D02*
X23002400Y-69992400D01*
X23002400Y-69992400D02*
X24130000Y-71120000D01*
X19050000Y-8890000D02*
X19050000Y-10065300D01*
X19050000Y-10065300D02*
X19417400Y-10065300D01*
X19417400Y-10065300D02*
X20225300Y-10873200D01*
X20225300Y-10873200D02*
X20225300Y-27845300D01*
X20225300Y-27845300D02*
X22860000Y-30480000D01*
X152400000Y-39370000D02*
X152400000Y-40495300D01*
X152400000Y-44450000D02*
X152400000Y-43324700D01*
X152400000Y-43324700D02*
X152118700Y-43324700D01*
X152118700Y-43324700D02*
X151274700Y-42480700D01*
X151274700Y-42480700D02*
X151274700Y-41339200D01*
X151274700Y-41339200D02*
X152118600Y-40495300D01*
X152118600Y-40495300D02*
X152400000Y-40495300D01*
X148590000Y-68724700D02*
X148871300Y-68724700D01*
X148871300Y-68724700D02*
X152400000Y-65196000D01*
X152400000Y-65196000D02*
X152400000Y-44450000D01*
X138430000Y-11430000D02*
X145116400Y-11430000D01*
X145116400Y-11430000D02*
X147816700Y-14130300D01*
X147816700Y-14130300D02*
X147816700Y-21606700D01*
X147816700Y-21606700D02*
X153537200Y-27327200D01*
X153537200Y-27327200D02*
X153537200Y-37306200D01*
X153537200Y-37306200D02*
X152598700Y-38244700D01*
X152598700Y-38244700D02*
X152400000Y-38244700D01*
X96520000Y-72390000D02*
X97645300Y-72390000D01*
X60960000Y-45575300D02*
X60960000Y-49674700D01*
X60960000Y-49674700D02*
X50800000Y-59834700D01*
X118250300Y-46448100D02*
X119431800Y-46448100D01*
X118110000Y-44450000D02*
X118110000Y-46307800D01*
X118110000Y-46307800D02*
X118250300Y-46448100D01*
X110490000Y-59834700D02*
X118250300Y-52074400D01*
X118250300Y-52074400D02*
X118250300Y-46448100D01*
X60960000Y-54610000D02*
X53842100Y-61727900D01*
X53842100Y-61727900D02*
X53842100Y-62114200D01*
X50800000Y-83964700D02*
X51925300Y-82839400D01*
X51925300Y-82839400D02*
X51925300Y-64031000D01*
X51925300Y-64031000D02*
X53842100Y-62114200D01*
X50800000Y-85090000D02*
X50800000Y-83964700D01*
X35560000Y-19050000D02*
X35560000Y-20175300D01*
X35560000Y-20175300D02*
X35520000Y-20215300D01*
X35520000Y-20215300D02*
X35520000Y-22860000D01*
X24130000Y-54650000D02*
X21711600Y-52231600D01*
X21711600Y-52231600D02*
X21711600Y-31628400D01*
X21711600Y-31628400D02*
X22860000Y-30480000D01*
X140110000Y-85090000D02*
X135284000Y-89916000D01*
X135284000Y-89916000D02*
X127762000Y-89916000D01*
X140970000Y-70975300D02*
X141539400Y-71544700D01*
X141539400Y-71544700D02*
X141539400Y-83660600D01*
X141539400Y-83660600D02*
X140110000Y-85090000D01*
X148590000Y-69850000D02*
X148590000Y-68724700D01*
X140970000Y-44450000D02*
X140970000Y-43324700D01*
X140970000Y-39370000D02*
X140970000Y-40495300D01*
X152400000Y-39370000D02*
X152400000Y-38244700D01*
X129540000Y-44450000D02*
X129540000Y-43324700D01*
X129540000Y-39370000D02*
X129540000Y-40495300D01*
X129540000Y-40495300D02*
X129821300Y-40495300D01*
X129821300Y-40495300D02*
X130669600Y-41343600D01*
X130669600Y-41343600D02*
X130669600Y-42372000D01*
X130669600Y-42372000D02*
X129716900Y-43324700D01*
X129716900Y-43324700D02*
X129540000Y-43324700D01*
X118110000Y-44450000D02*
X118110000Y-43324700D01*
X118110000Y-39370000D02*
X118110000Y-40495300D01*
X118110000Y-40495300D02*
X117828700Y-40495300D01*
X117828700Y-40495300D02*
X116984700Y-41339300D01*
X116984700Y-41339300D02*
X116984700Y-42480800D01*
X116984700Y-42480800D02*
X117828600Y-43324700D01*
X117828600Y-43324700D02*
X118110000Y-43324700D01*
X110490000Y-60960000D02*
X110490000Y-59834700D01*
X140970000Y-69850000D02*
X140970000Y-70975300D01*
%TO.N,Net-(C11-Pad2)*%
X104140000Y-12740000D02*
X110450000Y-19050000D01*
X110450000Y-19050000D02*
X114300000Y-19050000D01*
%TO.N,Net-(D1-Pad2)*%
X118110000Y-71120000D02*
X119805700Y-69424300D01*
X119805700Y-69424300D02*
X119805700Y-67232200D01*
%TO.N,Net-(R1-Pad2)*%
X16508800Y-77041200D02*
X17780000Y-75770000D01*
X17780000Y-75770000D02*
X17780000Y-69850000D01*
X12850000Y-80700000D02*
X16508800Y-77041200D01*
X16508800Y-77041200D02*
X26736300Y-87268700D01*
X26736300Y-87268700D02*
X83056000Y-87268700D01*
X83056000Y-87268700D02*
X90314700Y-80010000D01*
X91440000Y-80010000D02*
X90314700Y-80010000D01*
%TO.N,Net-(R3-Pad2)*%
X105265300Y-80010000D02*
X105265300Y-80291300D01*
X105265300Y-80291300D02*
X106120600Y-81146600D01*
X106120600Y-81146600D02*
X107172600Y-81146600D01*
X107172600Y-81146600D02*
X109843300Y-78475900D01*
X109843300Y-78475900D02*
X109843300Y-71977800D01*
X120650000Y-55735300D02*
X115002400Y-61382900D01*
X115002400Y-61382900D02*
X115002400Y-66394200D01*
X104140000Y-80010000D02*
X105265300Y-80010000D01*
X120650000Y-54610000D02*
X120650000Y-55735300D01*
%TO.N,data7*%
X50800000Y-28084700D02*
X51300800Y-27583900D01*
X51300800Y-27583900D02*
X51300800Y-22707000D01*
X50800000Y-29210000D02*
X50800000Y-28084700D01*
%TO.N,data6*%
X53340000Y-29210000D02*
X53340000Y-22022800D01*
X53340000Y-22022800D02*
X53298600Y-21981400D01*
X92726400Y-52818400D02*
X92324700Y-52416700D01*
X92324700Y-52416700D02*
X92324700Y-47702300D01*
X92324700Y-47702300D02*
X92710000Y-47317000D01*
X92710000Y-47317000D02*
X92710000Y-34611500D01*
X92710000Y-34611500D02*
X97934700Y-29386800D01*
X97934700Y-29386800D02*
X97934700Y-29210000D01*
X92726400Y-52818400D02*
X93028400Y-53120400D01*
X93028400Y-53120400D02*
X93028400Y-55350500D01*
X93028400Y-55350500D02*
X92667500Y-55711400D01*
X92667500Y-55711400D02*
X92667500Y-57534000D01*
X92667500Y-57534000D02*
X89215500Y-60986000D01*
X89215500Y-60986000D02*
X88355700Y-60986000D01*
X88355700Y-60986000D02*
X64866400Y-84475300D01*
X64866400Y-84475300D02*
X64866400Y-85565700D01*
X64866400Y-85565700D02*
X65559400Y-86258700D01*
X65559400Y-86258700D02*
X69107300Y-86258700D01*
X69107300Y-86258700D02*
X69994700Y-85371300D01*
X69994700Y-85371300D02*
X69994700Y-85090000D01*
X99060000Y-29210000D02*
X97934700Y-29210000D01*
X71120000Y-85090000D02*
X69994700Y-85090000D01*
%TO.N,Net-(U1-Pad37)*%
X47134700Y-3810000D02*
X47134700Y-3528600D01*
X47134700Y-3528600D02*
X46290800Y-2684700D01*
X46290800Y-2684700D02*
X45213200Y-2684700D01*
X45213200Y-2684700D02*
X44450000Y-3447900D01*
X44450000Y-3447900D02*
X44450000Y-4137400D01*
X44450000Y-4137400D02*
X34343900Y-14243500D01*
X34343900Y-14243500D02*
X34343900Y-41816000D01*
X34343900Y-41816000D02*
X33925500Y-42234400D01*
X33925500Y-42234400D02*
X33925500Y-43453400D01*
X33925500Y-43453400D02*
X34343900Y-43871800D01*
X34343900Y-43871800D02*
X34343900Y-67508600D01*
X34343900Y-67508600D02*
X35560000Y-68724700D01*
X48260000Y-3810000D02*
X47134700Y-3810000D01*
X35560000Y-69850000D02*
X35560000Y-68724700D01*
%TO.N,data5*%
X100474700Y-29210000D02*
X100474700Y-28928600D01*
X100474700Y-28928600D02*
X99630800Y-28084700D01*
X99630800Y-28084700D02*
X90906500Y-28084700D01*
X90906500Y-28084700D02*
X90170000Y-28821200D01*
X90170000Y-28821200D02*
X90170000Y-30990000D01*
X90170000Y-30990000D02*
X85090000Y-36070000D01*
X85090000Y-36070000D02*
X85090000Y-45042700D01*
X85090000Y-45042700D02*
X83319100Y-46813600D01*
X57005300Y-29210000D02*
X57005300Y-28952000D01*
X57005300Y-28952000D02*
X57945000Y-28012300D01*
X57945000Y-28012300D02*
X58814100Y-28012300D01*
X58814100Y-28012300D02*
X59570000Y-28768200D01*
X59570000Y-28768200D02*
X59570000Y-37746700D01*
X59570000Y-37746700D02*
X58395700Y-38921000D01*
X58395700Y-38921000D02*
X57270100Y-38921000D01*
X57270100Y-38921000D02*
X52204600Y-43986500D01*
X52204600Y-43986500D02*
X52204600Y-47875000D01*
X40640000Y-20175300D02*
X42365100Y-21900400D01*
X42365100Y-21900400D02*
X42365100Y-25461400D01*
X40640000Y-19050000D02*
X40640000Y-20175300D01*
X107088900Y-33020000D02*
X118452900Y-33020000D01*
X118452900Y-33020000D02*
X121720900Y-36288000D01*
X121720900Y-36288000D02*
X121720900Y-48909000D01*
X121720900Y-48909000D02*
X128836600Y-56024700D01*
X128836600Y-56024700D02*
X129540000Y-56024700D01*
X102725300Y-29210000D02*
X102725300Y-28928600D01*
X102725300Y-28928600D02*
X103569200Y-28084700D01*
X103569200Y-28084700D02*
X104687200Y-28084700D01*
X104687200Y-28084700D02*
X105304200Y-28701700D01*
X105304200Y-28701700D02*
X105304200Y-31235300D01*
X105304200Y-31235300D02*
X107088900Y-33020000D01*
X68580000Y-85090000D02*
X68580000Y-83892500D01*
X68580000Y-83892500D02*
X96520000Y-55952500D01*
X96520000Y-55952500D02*
X96520000Y-50426100D01*
X96520000Y-50426100D02*
X100330000Y-46616100D01*
X100330000Y-46616100D02*
X100330000Y-39778900D01*
X100330000Y-39778900D02*
X107088900Y-33020000D01*
X129540000Y-57150000D02*
X129540000Y-56024700D01*
X101600000Y-29210000D02*
X100474700Y-29210000D01*
X101600000Y-29210000D02*
X102725300Y-29210000D01*
X55880000Y-29210000D02*
X57005300Y-29210000D01*
%TO.N,data4*%
X50958900Y-50983300D02*
X51995200Y-50983300D01*
X51995200Y-50983300D02*
X52884600Y-50093900D01*
X52884600Y-50093900D02*
X52884600Y-49494100D01*
X52884600Y-49494100D02*
X52385600Y-48995100D01*
X52385600Y-48995100D02*
X52280600Y-48995100D01*
X52280600Y-48995100D02*
X49616000Y-46330500D01*
X49616000Y-46330500D02*
X49616000Y-43953300D01*
X49616000Y-43953300D02*
X58420000Y-35149300D01*
X58420000Y-35149300D02*
X58420000Y-29210000D01*
X46845300Y-53340000D02*
X46845300Y-53058700D01*
X46845300Y-53058700D02*
X48920700Y-50983300D01*
X48920700Y-50983300D02*
X50958900Y-50983300D01*
X38100000Y-19050000D02*
X38100000Y-21321700D01*
X38100000Y-21321700D02*
X40579500Y-23801200D01*
X45720000Y-53340000D02*
X46845300Y-53340000D01*
X104140000Y-30335300D02*
X95105400Y-39369900D01*
X95105400Y-39369900D02*
X95105400Y-48432700D01*
X95105400Y-48432700D02*
X93522300Y-50015800D01*
X93522300Y-50015800D02*
X93522300Y-55913100D01*
X93522300Y-55913100D02*
X93408100Y-56027300D01*
X66040000Y-83964700D02*
X66884000Y-83964700D01*
X66884000Y-83964700D02*
X93408100Y-57440600D01*
X93408100Y-57440600D02*
X93408100Y-56027300D01*
X104140000Y-29210000D02*
X104140000Y-30335300D01*
X66040000Y-85090000D02*
X66040000Y-83964700D01*
%TO.N,data3*%
X77830100Y-27833200D02*
X78031900Y-27631400D01*
X78031900Y-27631400D02*
X105101400Y-27631400D01*
X105101400Y-27631400D02*
X106680000Y-29210000D01*
X63500000Y-83964700D02*
X59802600Y-80267300D01*
X59802600Y-80267300D02*
X59802600Y-69397000D01*
X59802600Y-69397000D02*
X62954200Y-66245400D01*
X62954200Y-66245400D02*
X62954200Y-52168800D01*
X62954200Y-52168800D02*
X64517900Y-50605100D01*
X64517900Y-50605100D02*
X64517900Y-49993600D01*
X64517900Y-49993600D02*
X76080700Y-38430800D01*
X76080700Y-38430800D02*
X76080700Y-32111800D01*
X76080700Y-32111800D02*
X77467400Y-30725100D01*
X77467400Y-30725100D02*
X77467400Y-28195900D01*
X77467400Y-28195900D02*
X77830100Y-27833200D01*
X77830100Y-27833200D02*
X76870800Y-26874000D01*
X115592200Y-28788100D02*
X117139500Y-30335400D01*
X117139500Y-30335400D02*
X118318500Y-30335400D01*
X118318500Y-30335400D02*
X124429500Y-36446400D01*
X124429500Y-36446400D02*
X124429500Y-44751400D01*
X124429500Y-44751400D02*
X126004200Y-46326100D01*
X126004200Y-46326100D02*
X127393800Y-46326100D01*
X63500000Y-85090000D02*
X63500000Y-83964700D01*
%TO.N,Net-(U1-Pad34)*%
X43180000Y-68724700D02*
X42043700Y-67588400D01*
X42043700Y-67588400D02*
X42043700Y-60482100D01*
X42043700Y-60482100D02*
X43384800Y-59141000D01*
X43180000Y-69850000D02*
X43180000Y-68724700D01*
%TO.N,data2*%
X64340800Y-36643800D02*
X64340800Y-30294900D01*
X64340800Y-30294900D02*
X61215000Y-27169100D01*
X61215000Y-27169100D02*
X60304300Y-27169100D01*
X43180000Y-60960000D02*
X43180000Y-64947400D01*
X43180000Y-64947400D02*
X46088100Y-67855500D01*
X46088100Y-67855500D02*
X46770100Y-67855500D01*
X46770100Y-67855500D02*
X47543800Y-67081800D01*
X47543800Y-67081800D02*
X47543800Y-64915700D01*
X47543800Y-64915700D02*
X49385400Y-63074100D01*
X49385400Y-63074100D02*
X49385400Y-60612400D01*
X49385400Y-60612400D02*
X58420000Y-51577800D01*
X58420000Y-51577800D02*
X58420000Y-44450000D01*
X59545300Y-44450000D02*
X59545300Y-41439300D01*
X59545300Y-41439300D02*
X64340800Y-36643800D01*
X58420000Y-44450000D02*
X59545300Y-44450000D01*
X104140000Y-44450000D02*
X104140000Y-45575300D01*
X104140000Y-45575300D02*
X104551000Y-45575300D01*
X104551000Y-45575300D02*
X105785400Y-46809700D01*
%TO.N,data1*%
X89087800Y-67582800D02*
X118139300Y-67582800D01*
X118139300Y-67582800D02*
X119505300Y-66216800D01*
X119505300Y-66216800D02*
X120842200Y-66216800D01*
X120842200Y-66216800D02*
X125958100Y-61100900D01*
X125958100Y-61100900D02*
X130208400Y-61100900D01*
X130208400Y-61100900D02*
X130458000Y-61350500D01*
X130458000Y-61350500D02*
X132742400Y-61350500D01*
X132742400Y-61350500D02*
X135817600Y-58275300D01*
X135817600Y-58275300D02*
X138719400Y-58275300D01*
X138719400Y-58275300D02*
X139844700Y-57150000D01*
X51327900Y-57068200D02*
X56500500Y-51895600D01*
X56500500Y-51895600D02*
X56500500Y-46195800D01*
X56500500Y-46195800D02*
X55880000Y-45575300D01*
X55880000Y-44450000D02*
X55880000Y-45575300D01*
X57294700Y-85090000D02*
X57294700Y-85371300D01*
X57294700Y-85371300D02*
X55990800Y-86675200D01*
X55990800Y-86675200D02*
X26788900Y-86675200D01*
X26788900Y-86675200D02*
X22624800Y-82511100D01*
X22624800Y-82511100D02*
X22624800Y-72780800D01*
X22624800Y-72780800D02*
X17874300Y-68030300D01*
X17874300Y-68030300D02*
X17874300Y-13125000D01*
X17874300Y-13125000D02*
X17925800Y-13073500D01*
X17925800Y-13073500D02*
X17925800Y-12025700D01*
X17925800Y-12025700D02*
X17874300Y-11974200D01*
X17874300Y-11974200D02*
X17874300Y-7894300D01*
X17874300Y-7894300D02*
X19020700Y-6747900D01*
X19020700Y-6747900D02*
X23876800Y-6747900D01*
X23876800Y-6747900D02*
X26814700Y-3810000D01*
X101600000Y-44450000D02*
X101600000Y-47377000D01*
X101600000Y-47377000D02*
X99060000Y-49917000D01*
X99060000Y-49917000D02*
X99060000Y-54049400D01*
X99060000Y-54049400D02*
X87669800Y-65439600D01*
X87669800Y-65439600D02*
X87669800Y-66164800D01*
X87669800Y-66164800D02*
X89087800Y-67582800D01*
X59545300Y-85090000D02*
X59545300Y-85371300D01*
X59545300Y-85371300D02*
X60960800Y-86786800D01*
X60960800Y-86786800D02*
X71058500Y-86786800D01*
X71058500Y-86786800D02*
X72390000Y-85455300D01*
X72390000Y-85455300D02*
X72390000Y-84280600D01*
X72390000Y-84280600D02*
X89087800Y-67582800D01*
X58420000Y-85090000D02*
X57294700Y-85090000D01*
X27940000Y-3810000D02*
X26814700Y-3810000D01*
X140970000Y-57150000D02*
X139844700Y-57150000D01*
X58420000Y-85090000D02*
X59545300Y-85090000D01*
%TO.N,Net-(U1-Pad32)*%
X57321100Y-21524200D02*
X63650700Y-21524200D01*
X63650700Y-21524200D02*
X70972000Y-28845500D01*
X57321100Y-21524200D02*
X57028100Y-21231200D01*
X57028100Y-21231200D02*
X51750900Y-21231200D01*
X51750900Y-21231200D02*
X50575500Y-22406600D01*
X50575500Y-22406600D02*
X50575500Y-22721700D01*
X50575500Y-22721700D02*
X44234500Y-29062700D01*
X44234500Y-29062700D02*
X44234500Y-29210000D01*
X46397600Y-67130200D02*
X44579200Y-65311800D01*
X44579200Y-65311800D02*
X44579200Y-52290400D01*
X44579200Y-52290400D02*
X45524700Y-51344900D01*
X45524700Y-51344900D02*
X45524700Y-47849000D01*
X45524700Y-47849000D02*
X44450000Y-46774300D01*
X44450000Y-46774300D02*
X44450000Y-29425500D01*
X44450000Y-29425500D02*
X44234500Y-29210000D01*
X43180000Y-29210000D02*
X44234500Y-29210000D01*
%TO.N,data0*%
X53340000Y-45575300D02*
X53227600Y-45687700D01*
X53227600Y-45687700D02*
X53227600Y-46881600D01*
X53227600Y-46881600D02*
X53339900Y-46993900D01*
X53339900Y-46993900D02*
X53339900Y-52945200D01*
X50516400Y-55768700D02*
X53339900Y-52945200D01*
X53339900Y-52945200D02*
X53425300Y-52945200D01*
X53425300Y-52945200D02*
X53527100Y-53047000D01*
X53340000Y-44450000D02*
X53340000Y-45575300D01*
X95153000Y-56060600D02*
X94120500Y-55028100D01*
X94120500Y-55028100D02*
X94120500Y-51452400D01*
X94120500Y-51452400D02*
X99060000Y-46512900D01*
X99060000Y-46512900D02*
X99060000Y-44450000D01*
X30480000Y-3810000D02*
X30480000Y-4935300D01*
X33020000Y-60960000D02*
X33020000Y-59834700D01*
X33020000Y-59834700D02*
X29354700Y-56169400D01*
X29354700Y-56169400D02*
X29354700Y-6060600D01*
X29354700Y-6060600D02*
X30480000Y-4935300D01*
%TO.N,Net-(U1-Pad31)*%
X76200000Y-29210000D02*
X76200000Y-28084700D01*
X78646000Y-22678100D02*
X77616900Y-22678100D01*
X77616900Y-22678100D02*
X74194000Y-26101000D01*
X74194000Y-26101000D02*
X74194000Y-26701800D01*
X74194000Y-26701800D02*
X75576900Y-28084700D01*
X75576900Y-28084700D02*
X76200000Y-28084700D01*
X76200000Y-29210000D02*
X76200000Y-29772600D01*
X50800000Y-68724700D02*
X50800000Y-64130600D01*
X50800000Y-64130600D02*
X59283900Y-55646700D01*
X59283900Y-55646700D02*
X59283900Y-54653300D01*
X59283900Y-54653300D02*
X64067600Y-49869600D01*
X64067600Y-49869600D02*
X64067600Y-49791100D01*
X64067600Y-49791100D02*
X75307600Y-38551100D01*
X75307600Y-38551100D02*
X75307600Y-31227700D01*
X75307600Y-31227700D02*
X76200000Y-30335300D01*
X76200000Y-29772600D02*
X76200000Y-30335300D01*
X50800000Y-69850000D02*
X50800000Y-68724700D01*
%TO.N,Net-(U1-Pad3)*%
X31894700Y-85090000D02*
X31894700Y-85371300D01*
X31894700Y-85371300D02*
X31050600Y-86215400D01*
X31050600Y-86215400D02*
X26966000Y-86215400D01*
X26966000Y-86215400D02*
X26814600Y-86064000D01*
X26814600Y-86064000D02*
X26814600Y-82112900D01*
X26814600Y-82112900D02*
X36935300Y-71992200D01*
X36935300Y-71992200D02*
X36935300Y-43674400D01*
X36935300Y-43674400D02*
X37336400Y-43273300D01*
X37336400Y-43273300D02*
X37336400Y-41612000D01*
X37336400Y-41612000D02*
X36531200Y-40806800D01*
X36531200Y-40806800D02*
X36531200Y-35373500D01*
X36531200Y-35373500D02*
X36830000Y-35074700D01*
X36830000Y-35074700D02*
X36830000Y-13825300D01*
X36830000Y-13825300D02*
X45720000Y-4935300D01*
X45720000Y-3810000D02*
X45720000Y-4935300D01*
X33020000Y-85090000D02*
X31894700Y-85090000D01*
%TO.N,Net-(U3-Pad10)*%
X107950000Y-53340000D02*
X107950000Y-60960000D01*
%TO.N,Net-(U3-Pad5)*%
X74930000Y-53340000D02*
X74930000Y-54465300D01*
X74930000Y-54465300D02*
X75492600Y-54465300D01*
X75492600Y-54465300D02*
X77978800Y-56951500D01*
X77978800Y-56951500D02*
X77978800Y-58372500D01*
%TO.N,Net-(U3-Pad4)*%
X99859700Y-55528800D02*
X102870000Y-58539100D01*
X102870000Y-58539100D02*
X102870000Y-60960000D01*
%TO.N,Net-(U3-Pad8)*%
X48260000Y-29210000D02*
X54231400Y-35181400D01*
X54231400Y-35181400D02*
X54231400Y-35784200D01*
%TO.N,Net-(U5-Pad20)*%
X81673300Y-51502200D02*
X87630000Y-45545500D01*
X87630000Y-45545500D02*
X87630000Y-36147400D01*
X87630000Y-36147400D02*
X92013600Y-31763800D01*
X92013600Y-31763800D02*
X92013600Y-31219400D01*
%TO.N,Net-(U6-Pad5)*%
X64770000Y-60960000D02*
X64770000Y-62085300D01*
X101600000Y-80010000D02*
X101600000Y-78884700D01*
X91679300Y-68491200D02*
X95250000Y-72061900D01*
X95250000Y-72061900D02*
X95250000Y-72816000D01*
X95250000Y-72816000D02*
X101318700Y-78884700D01*
X101318700Y-78884700D02*
X101600000Y-78884700D01*
X64770000Y-62085300D02*
X64823500Y-62138800D01*
X64823500Y-62138800D02*
X64823500Y-64978300D01*
%TO.N,Net-(U7-Pad10)*%
X55319600Y-21956500D02*
X58311100Y-24948000D01*
X58311100Y-24948000D02*
X58311100Y-26285000D01*
X58311100Y-26285000D02*
X59936600Y-27910500D01*
X59936600Y-27910500D02*
X61319500Y-27910500D01*
X61319500Y-27910500D02*
X62103900Y-28694900D01*
X62103900Y-28694900D02*
X62103900Y-35918000D01*
X62103900Y-35918000D02*
X54736700Y-43285200D01*
X54736700Y-43285200D02*
X54736700Y-45068900D01*
X54736700Y-45068900D02*
X56050200Y-46382400D01*
X56050200Y-46382400D02*
X56050200Y-50134200D01*
X56050200Y-50134200D02*
X55766700Y-50417700D01*
%TO.N,Net-(C12-Pad2)*%
X90170000Y-8745300D02*
X87721000Y-11194300D01*
X87721000Y-11194300D02*
X86026700Y-11194300D01*
X86026700Y-11194300D02*
X83675400Y-13545600D01*
X83675400Y-13545600D02*
X83675400Y-15982700D01*
X83675400Y-15982700D02*
X73743700Y-25914400D01*
X73743700Y-25914400D02*
X73743700Y-26888400D01*
X73743700Y-26888400D02*
X74794000Y-27938700D01*
X74794000Y-27938700D02*
X74794000Y-38427800D01*
X74794000Y-38427800D02*
X63617300Y-49604500D01*
X63617300Y-49604500D02*
X63617300Y-49630900D01*
X63617300Y-49630900D02*
X58224300Y-55023900D01*
X58224300Y-55023900D02*
X58224300Y-56069400D01*
X58224300Y-56069400D02*
X48219200Y-66074500D01*
X48219200Y-66074500D02*
X48219200Y-67043300D01*
X48219200Y-67043300D02*
X46956700Y-68305800D01*
X46956700Y-68305800D02*
X45663300Y-68305800D01*
X45663300Y-68305800D02*
X44450000Y-69519100D01*
X44450000Y-69519100D02*
X44450000Y-70177500D01*
X44450000Y-70177500D02*
X30662800Y-83964700D01*
X30662800Y-83964700D02*
X29909200Y-83964700D01*
X29909200Y-83964700D02*
X29065300Y-84808600D01*
X29065300Y-84808600D02*
X29065300Y-85090000D01*
X109020000Y-11576800D02*
X103660200Y-11576800D01*
X103660200Y-11576800D02*
X100163500Y-15073500D01*
X109220000Y-12740000D02*
X109220000Y-11776800D01*
X109220000Y-11776800D02*
X109020000Y-11576800D01*
X109020000Y-6350000D02*
X109020000Y-11576800D01*
X100163500Y-15073500D02*
X104140000Y-19050000D01*
X90170000Y-8745300D02*
X93835300Y-8745300D01*
X93835300Y-8745300D02*
X100163500Y-15073500D01*
X90170000Y-8632700D02*
X90170000Y-8745300D01*
X90170000Y-7620000D02*
X90170000Y-8632700D01*
X27940000Y-85090000D02*
X29065300Y-85090000D01*
%TO.N,addr2*%
X45720000Y-44450000D02*
X46845300Y-44450000D01*
X46845300Y-44450000D02*
X46845300Y-44168700D01*
X46845300Y-44168700D02*
X54498000Y-36516000D01*
X54498000Y-36516000D02*
X55988900Y-36516000D01*
X40640000Y-60960000D02*
X40640000Y-59834700D01*
X40640000Y-59834700D02*
X41765300Y-58709400D01*
X41765300Y-58709400D02*
X41765300Y-50202400D01*
X41765300Y-50202400D02*
X43189200Y-48778500D01*
%TO.N,addr3*%
X54286300Y-48327500D02*
X54286300Y-46654600D01*
X54286300Y-46654600D02*
X53952900Y-46321200D01*
X48260000Y-60960000D02*
X48260000Y-59080700D01*
X48260000Y-59080700D02*
X51980400Y-55360300D01*
X51980400Y-55360300D02*
X52294300Y-55360300D01*
X52294300Y-55360300D02*
X54286300Y-53368300D01*
X54286300Y-53368300D02*
X54286300Y-48327500D01*
X54286300Y-48327500D02*
X55324900Y-48327500D01*
X88900000Y-44450000D02*
X88900000Y-43324700D01*
X88900000Y-43324700D02*
X89041000Y-43183700D01*
X89041000Y-43183700D02*
X89041000Y-40621900D01*
%TO.N,addr0*%
X54754700Y-19050000D02*
X54754700Y-18768700D01*
X54754700Y-18768700D02*
X53876100Y-17890100D01*
X53876100Y-17890100D02*
X47757300Y-17890100D01*
X47757300Y-17890100D02*
X46990000Y-18657400D01*
X46990000Y-18657400D02*
X46990000Y-22584200D01*
X46990000Y-22584200D02*
X42916700Y-26657500D01*
X42916700Y-26657500D02*
X41553100Y-26657500D01*
X41553100Y-26657500D02*
X39370000Y-28840600D01*
X39370000Y-28840600D02*
X39370000Y-33171600D01*
X39370000Y-33171600D02*
X36981500Y-35560100D01*
X36981500Y-35560100D02*
X36981500Y-40273300D01*
X36981500Y-40273300D02*
X38229400Y-41521200D01*
X38229400Y-41521200D02*
X38229400Y-42373700D01*
X152400000Y-35415300D02*
X152118700Y-35415300D01*
X152118700Y-35415300D02*
X150457800Y-37076200D01*
X150457800Y-37076200D02*
X150457800Y-46790400D01*
X50800000Y-44450000D02*
X57398200Y-37851800D01*
X57398200Y-37851800D02*
X58375500Y-37851800D01*
X96520000Y-44450000D02*
X96520000Y-45575300D01*
X96520000Y-45575300D02*
X96523000Y-45578300D01*
X96523000Y-45578300D02*
X96523000Y-46804700D01*
X152400000Y-34290000D02*
X152400000Y-35415300D01*
X55880000Y-19050000D02*
X54754700Y-19050000D01*
%TO.N,addr1*%
X152400000Y-31750000D02*
X152400000Y-32875300D01*
X146447600Y-49985600D02*
X149715400Y-46717800D01*
X149715400Y-46717800D02*
X149715400Y-35278600D01*
X149715400Y-35278600D02*
X152118700Y-32875300D01*
X152118700Y-32875300D02*
X152400000Y-32875300D01*
X52130100Y-49796600D02*
X48260000Y-45926500D01*
X48260000Y-45926500D02*
X48260000Y-44450000D01*
X93980000Y-44450000D02*
X93980000Y-48263200D01*
X93980000Y-48263200D02*
X93050000Y-49193200D01*
%TO.N,addr6*%
X81280000Y-44450000D02*
X81280000Y-48099900D01*
X81280000Y-48099900D02*
X82193700Y-49013600D01*
X148590000Y-31750000D02*
X148590000Y-32875300D01*
X144163100Y-50138800D02*
X147464700Y-46837200D01*
X147464700Y-46837200D02*
X147464700Y-33719200D01*
X147464700Y-33719200D02*
X148308600Y-32875300D01*
X148308600Y-32875300D02*
X148590000Y-32875300D01*
%TO.N,addr7*%
X34664600Y-42615200D02*
X36034900Y-42615200D01*
X36034900Y-42615200D02*
X36565600Y-42084500D01*
X78740000Y-43324700D02*
X78985000Y-43079700D01*
X78985000Y-43079700D02*
X78985000Y-35983700D01*
X78985000Y-35983700D02*
X80605500Y-34363200D01*
X78740000Y-44450000D02*
X78740000Y-43324700D01*
X30480000Y-53340000D02*
X30480000Y-52214700D01*
X30480000Y-52214700D02*
X33020000Y-49674700D01*
X33020000Y-49674700D02*
X33020000Y-44450000D01*
%TO.N,addr4*%
X86360000Y-44450000D02*
X86360000Y-36391600D01*
X86360000Y-36391600D02*
X90689700Y-32061900D01*
X40640000Y-44450000D02*
X40640000Y-45575300D01*
X44764700Y-50833300D02*
X44764700Y-49278000D01*
X44764700Y-49278000D02*
X41062000Y-45575300D01*
X41062000Y-45575300D02*
X40640000Y-45575300D01*
%TO.N,addr5*%
X83820000Y-44450000D02*
X83820000Y-35648000D01*
X83820000Y-35648000D02*
X87219600Y-32248400D01*
%TO.N,addr10*%
X91440000Y-30335300D02*
X92155300Y-30335300D01*
X92155300Y-30335300D02*
X92738900Y-30918900D01*
X92738900Y-30918900D02*
X92738900Y-31675400D01*
X92738900Y-31675400D02*
X90111500Y-34302800D01*
X90111500Y-34302800D02*
X90111500Y-58168100D01*
X90111500Y-58168100D02*
X76805400Y-71474200D01*
X76805400Y-71474200D02*
X73588200Y-71474200D01*
X73588200Y-71474200D02*
X72245300Y-70131300D01*
X72245300Y-70131300D02*
X72245300Y-69850000D01*
X91440000Y-29210000D02*
X91440000Y-30335300D01*
X71120000Y-69850000D02*
X72245300Y-69850000D01*
X46845300Y-29210000D02*
X46845300Y-29460700D01*
X46845300Y-29460700D02*
X49042700Y-31658100D01*
X45720000Y-29210000D02*
X46845300Y-29210000D01*
%TO.N,addr11*%
X40640000Y-29210000D02*
X42517100Y-27332900D01*
X42517100Y-27332900D02*
X44227000Y-27332900D01*
X44227000Y-27332900D02*
X48273400Y-23286500D01*
X137160000Y-34290000D02*
X137160000Y-33164700D01*
X91330800Y-26455800D02*
X132605600Y-26455800D01*
X132605600Y-26455800D02*
X136629800Y-30480000D01*
X136629800Y-30480000D02*
X137482500Y-30480000D01*
X137482500Y-30480000D02*
X138285300Y-31282800D01*
X138285300Y-31282800D02*
X138285300Y-32320800D01*
X138285300Y-32320800D02*
X137441400Y-33164700D01*
X137441400Y-33164700D02*
X137160000Y-33164700D01*
X85234700Y-29210000D02*
X85234700Y-28928600D01*
X85234700Y-28928600D02*
X84390800Y-28084700D01*
X84390800Y-28084700D02*
X80800800Y-28084700D01*
X80800800Y-28084700D02*
X79880200Y-29005300D01*
X79880200Y-29005300D02*
X79880200Y-34313000D01*
X79880200Y-34313000D02*
X78534600Y-35658600D01*
X78534600Y-35658600D02*
X78534600Y-39140000D01*
X78534600Y-39140000D02*
X74873000Y-42801600D01*
X74873000Y-42801600D02*
X74873000Y-46630000D01*
X74873000Y-46630000D02*
X68580000Y-52923000D01*
X68580000Y-52923000D02*
X68580000Y-69850000D01*
X86360000Y-29210000D02*
X85234700Y-29210000D01*
%TO.N,addr8*%
X129540000Y-35415300D02*
X129821300Y-35415300D01*
X129821300Y-35415300D02*
X132459200Y-38053200D01*
X132459200Y-38053200D02*
X132459200Y-60607900D01*
X54289500Y-26859600D02*
X56331300Y-24817800D01*
X56331300Y-24817800D02*
X56695700Y-24817800D01*
X81280000Y-29210000D02*
X81280000Y-30335300D01*
X76200000Y-69850000D02*
X76200000Y-68724700D01*
X76200000Y-68724700D02*
X78740000Y-66184700D01*
X78740000Y-66184700D02*
X78740000Y-49756800D01*
X78740000Y-49756800D02*
X79865400Y-48631400D01*
X79865400Y-48631400D02*
X79865400Y-36159900D01*
X79865400Y-36159900D02*
X81358600Y-34666700D01*
X81358600Y-34666700D02*
X81358600Y-30413900D01*
X81358600Y-30413900D02*
X81280000Y-30335300D01*
X129540000Y-34290000D02*
X129540000Y-35415300D01*
%TO.N,addr9*%
X83820000Y-30948400D02*
X82593800Y-32174600D01*
X82593800Y-32174600D02*
X82593800Y-47114000D01*
X82593800Y-47114000D02*
X82942700Y-47462900D01*
X82942700Y-47462900D02*
X82942700Y-49290400D01*
X82942700Y-49290400D02*
X82494200Y-49738900D01*
X82494200Y-49738900D02*
X82410900Y-49738900D01*
X82410900Y-49738900D02*
X80948000Y-51201800D01*
X80948000Y-51201800D02*
X80948000Y-51802600D01*
X80948000Y-51802600D02*
X81197100Y-52051700D01*
X81197100Y-52051700D02*
X81197100Y-66445600D01*
X81197100Y-66445600D02*
X76626100Y-71016600D01*
X76626100Y-71016600D02*
X75670600Y-71016600D01*
X75670600Y-71016600D02*
X74785300Y-70131300D01*
X74785300Y-70131300D02*
X74785300Y-69850000D01*
X38100000Y-29210000D02*
X41102800Y-26207200D01*
X41102800Y-26207200D02*
X42713600Y-26207200D01*
X42713600Y-26207200D02*
X46232800Y-22688000D01*
X46232800Y-22688000D02*
X46232800Y-22277300D01*
X83820000Y-30948400D02*
X88073400Y-30948400D01*
X88073400Y-30948400D02*
X88629600Y-31504600D01*
X83820000Y-30335300D02*
X83820000Y-30948400D01*
X83820000Y-29210000D02*
X83820000Y-30335300D01*
X73660000Y-69850000D02*
X74785300Y-69850000D01*
%TO.N,addr14*%
X37749400Y-37116900D02*
X41193700Y-40561200D01*
X41193700Y-40561200D02*
X41193700Y-41329400D01*
X73660000Y-44450000D02*
X73660000Y-42331800D01*
X73660000Y-42331800D02*
X77442300Y-38549500D01*
X77442300Y-38549500D02*
X77442300Y-34462500D01*
X77442300Y-34462500D02*
X78893500Y-33011300D01*
X73660000Y-44588300D02*
X73660000Y-44450000D01*
X62085300Y-69850000D02*
X62085300Y-70131300D01*
X62085300Y-70131300D02*
X62944000Y-70990000D01*
X62944000Y-70990000D02*
X63957800Y-70990000D01*
X63957800Y-70990000D02*
X64770000Y-70177800D01*
X64770000Y-70177800D02*
X64770000Y-66330500D01*
X64770000Y-66330500D02*
X66040000Y-65060500D01*
X66040000Y-65060500D02*
X66040000Y-52914000D01*
X66040000Y-52914000D02*
X73378700Y-45575300D01*
X73378700Y-45575300D02*
X73660000Y-45575300D01*
X73660000Y-44588300D02*
X73660000Y-45575300D01*
X60960000Y-69850000D02*
X62085300Y-69850000D01*
%TO.N,addr15*%
X91980200Y-62794000D02*
X96318700Y-67132500D01*
X96318700Y-67132500D02*
X115348900Y-67132500D01*
X115348900Y-67132500D02*
X124061400Y-58420000D01*
X124061400Y-58420000D02*
X129880100Y-58420000D01*
X129880100Y-58420000D02*
X130686300Y-57613800D01*
X130686300Y-57613800D02*
X130686300Y-48592800D01*
X130686300Y-48592800D02*
X126855300Y-44761800D01*
X126855300Y-44761800D02*
X126855300Y-36259200D01*
X126855300Y-36259200D02*
X126011400Y-35415300D01*
X126011400Y-35415300D02*
X125730000Y-35415300D01*
X125730000Y-34290000D02*
X125730000Y-35415300D01*
%TO.N,addr12*%
X37706900Y-38684000D02*
X39927200Y-40904300D01*
X39927200Y-40904300D02*
X39927200Y-41714700D01*
X118110000Y-34290000D02*
X118110000Y-35415300D01*
X88395100Y-65740000D02*
X88395100Y-65353400D01*
X88395100Y-65353400D02*
X99204000Y-54544500D01*
X99204000Y-54544500D02*
X100747800Y-54544500D01*
X100747800Y-54544500D02*
X101455400Y-53836900D01*
X101455400Y-53836900D02*
X101455400Y-53077200D01*
X101455400Y-53077200D02*
X116984700Y-37547900D01*
X116984700Y-37547900D02*
X116984700Y-36259200D01*
X116984700Y-36259200D02*
X117828600Y-35415300D01*
X117828600Y-35415300D02*
X118110000Y-35415300D01*
X76200000Y-44450000D02*
X76200000Y-49868300D01*
X76200000Y-49868300D02*
X73660000Y-52408300D01*
X73660000Y-52408300D02*
X73660000Y-54798200D01*
X73660000Y-54798200D02*
X71120000Y-57338200D01*
X71120000Y-57338200D02*
X71120000Y-62458300D01*
X71120000Y-62458300D02*
X69777500Y-63800800D01*
X69777500Y-63800800D02*
X69777500Y-70249600D01*
X69777500Y-70249600D02*
X69037300Y-70989800D01*
X69037300Y-70989800D02*
X68023800Y-70989800D01*
X68023800Y-70989800D02*
X67165300Y-70131300D01*
X67165300Y-70131300D02*
X67165300Y-69850000D01*
X66040000Y-69850000D02*
X67165300Y-69850000D01*
%TO.N,addr13*%
X116984700Y-31750000D02*
X112415800Y-27181100D01*
X112415800Y-27181100D02*
X78203700Y-27181100D01*
X78203700Y-27181100D02*
X77171300Y-26148700D01*
X77171300Y-26148700D02*
X75172000Y-26148700D01*
X75172000Y-26148700D02*
X74919300Y-26401400D01*
X63500000Y-68724700D02*
X63500000Y-52259900D01*
X63500000Y-52259900D02*
X64968200Y-50791700D01*
X64968200Y-50791700D02*
X64968200Y-50180200D01*
X64968200Y-50180200D02*
X76614100Y-38534300D01*
X76614100Y-38534300D02*
X76614100Y-32461200D01*
X76614100Y-32461200D02*
X78740000Y-30335300D01*
X118110000Y-31750000D02*
X116984700Y-31750000D01*
X33020000Y-29210000D02*
X33020000Y-28084700D01*
X33557300Y-20625600D02*
X31894700Y-22288200D01*
X31894700Y-22288200D02*
X31894700Y-26959400D01*
X31894700Y-26959400D02*
X33020000Y-28084700D01*
X63500000Y-69850000D02*
X63500000Y-68724700D01*
X78740000Y-29210000D02*
X78740000Y-30335300D01*
%TO.N,Net-(R5-Pad1)*%
X144780000Y-12700000D02*
X142359900Y-15120100D01*
X142359900Y-15120100D02*
X142359900Y-18221500D01*
X142359900Y-18221500D02*
X143020100Y-18881700D01*
X143020100Y-18881700D02*
X143020100Y-49619200D01*
X143020100Y-49619200D02*
X142987500Y-49651800D01*
X142987500Y-49651800D02*
X142987500Y-50625800D01*
X142987500Y-50625800D02*
X143020100Y-50658400D01*
X143020100Y-50658400D02*
X143020100Y-66870200D01*
X143020100Y-66870200D02*
X141451900Y-68438400D01*
X141451900Y-68438400D02*
X140787300Y-68438400D01*
X140787300Y-68438400D02*
X131036600Y-78189100D01*
X131036600Y-78189100D02*
X131036600Y-81815400D01*
X131036600Y-81815400D02*
X127762000Y-85090000D01*
%TO.N,Net-(R6-Pad1)*%
X140110000Y-89790000D02*
X144624100Y-89790000D01*
X144624100Y-89790000D02*
X153987600Y-80426500D01*
X153987600Y-80426500D02*
X153987600Y-20711000D01*
X153987600Y-20711000D02*
X149860000Y-16583400D01*
X149860000Y-16583400D02*
X149860000Y-12700000D01*
%TO.N,READY*%
X40640000Y-68724700D02*
X39506300Y-67591000D01*
X39506300Y-67591000D02*
X39506300Y-43917600D01*
X39506300Y-43917600D02*
X41369200Y-42054700D01*
X41369200Y-42054700D02*
X41494200Y-42054700D01*
X41494200Y-42054700D02*
X42054300Y-41494600D01*
X42054300Y-41494600D02*
X42054300Y-28739200D01*
X42054300Y-28739200D02*
X42785100Y-28008400D01*
X42785100Y-28008400D02*
X44608800Y-28008400D01*
X44608800Y-28008400D02*
X50125200Y-22492000D01*
X50125200Y-22492000D02*
X50125200Y-22220000D01*
X50125200Y-22220000D02*
X51564300Y-20780900D01*
X51564300Y-20780900D02*
X64255000Y-20780900D01*
X64255000Y-20780900D02*
X72942300Y-12093600D01*
X72942300Y-12093600D02*
X84377500Y-12093600D01*
X84377500Y-12093600D02*
X85727100Y-10744000D01*
X85727100Y-10744000D02*
X86103600Y-10744000D01*
X86103600Y-10744000D02*
X88900000Y-7947600D01*
X88900000Y-7947600D02*
X88900000Y-7221000D01*
X88900000Y-7221000D02*
X91185700Y-4935300D01*
X91185700Y-4935300D02*
X136460800Y-4935300D01*
X136460800Y-4935300D02*
X137304700Y-4091400D01*
X137304700Y-4091400D02*
X137304700Y-3810000D01*
X138430000Y-3810000D02*
X137304700Y-3810000D01*
X40640000Y-69850000D02*
X40640000Y-68724700D01*
%TO.N,~ALE*%
X100330000Y-60960000D02*
X101455300Y-60960000D01*
X101455300Y-60960000D02*
X101455300Y-61241300D01*
X101455300Y-61241300D02*
X106616200Y-66402200D01*
X106616200Y-66402200D02*
X107477700Y-66402200D01*
X107477700Y-66402200D02*
X107477700Y-66402300D01*
%TO.N,Net-(U10-Pad3)*%
X138951500Y-13801500D02*
X138951500Y-20427500D01*
X138951500Y-20427500D02*
X142569700Y-24045700D01*
X142569700Y-24045700D02*
X142569700Y-49432700D01*
X142569700Y-49432700D02*
X142537200Y-49465200D01*
X142537200Y-49465200D02*
X142537200Y-50812400D01*
X142537200Y-50812400D02*
X142569700Y-50844900D01*
X142569700Y-50844900D02*
X142569700Y-59715500D01*
X142569700Y-59715500D02*
X141325200Y-60960000D01*
X141325200Y-60960000D02*
X140041500Y-60960000D01*
X140041500Y-60960000D02*
X137501500Y-63500000D01*
X137501500Y-63500000D02*
X136832500Y-63500000D01*
X136832500Y-63500000D02*
X133973600Y-66358900D01*
X133973600Y-66358900D02*
X133973600Y-67038400D01*
X133973600Y-67038400D02*
X126092300Y-74919700D01*
X126092300Y-74919700D02*
X113865700Y-74919700D01*
X113865700Y-74919700D02*
X110192800Y-71246800D01*
X110192800Y-71246800D02*
X109427200Y-71246800D01*
X109427200Y-71246800D02*
X107158600Y-73515400D01*
X107158600Y-73515400D02*
X101029400Y-73515400D01*
X101029400Y-73515400D02*
X100185300Y-72671300D01*
X100185300Y-72671300D02*
X100185300Y-72390000D01*
X99060000Y-72390000D02*
X100185300Y-72390000D01*
%TO.N,Net-(U10-Pad10)*%
X134475300Y-3810000D02*
X134475300Y-3528600D01*
X134475300Y-3528600D02*
X135319200Y-2684700D01*
X135319200Y-2684700D02*
X138896400Y-2684700D01*
X138896400Y-2684700D02*
X139595300Y-3383600D01*
X139595300Y-3383600D02*
X139595300Y-5532200D01*
X139595300Y-5532200D02*
X137280000Y-7847500D01*
X137280000Y-7847500D02*
X137280000Y-20029800D01*
X137280000Y-20029800D02*
X142118200Y-24868000D01*
X142118200Y-24868000D02*
X142118200Y-49247300D01*
X142118200Y-49247300D02*
X142086900Y-49278600D01*
X142086900Y-49278600D02*
X142086900Y-50999000D01*
X142086900Y-50999000D02*
X142118200Y-51030300D01*
X142118200Y-51030300D02*
X142118200Y-57598400D01*
X142118200Y-57598400D02*
X141296600Y-58420000D01*
X141296600Y-58420000D02*
X140055300Y-58420000D01*
X140055300Y-58420000D02*
X137515300Y-60960000D01*
X137515300Y-60960000D02*
X134735500Y-60960000D01*
X134735500Y-60960000D02*
X132319500Y-63376000D01*
X132319500Y-63376000D02*
X127699200Y-63376000D01*
X127699200Y-63376000D02*
X118706300Y-72368900D01*
X118706300Y-72368900D02*
X112108200Y-72368900D01*
X112108200Y-72368900D02*
X110530200Y-70790900D01*
X110530200Y-70790900D02*
X106583100Y-70790900D01*
X106583100Y-70790900D02*
X105265300Y-72108700D01*
X105265300Y-72108700D02*
X105265300Y-72390000D01*
X133350000Y-3810000D02*
X134475300Y-3810000D01*
X104140000Y-72390000D02*
X105265300Y-72390000D01*
%TO.N,Net-(J2-Pad1)*%
X11430000Y-34290000D02*
X11430000Y-11099900D01*
X11430000Y-11099900D02*
X20297000Y-2232900D01*
X20297000Y-2232900D02*
X34545600Y-2232900D01*
X34545600Y-2232900D02*
X36122700Y-3810000D01*
X36685300Y-3810000D02*
X36685300Y-3528700D01*
X36685300Y-3528700D02*
X38033700Y-2180300D01*
X38033700Y-2180300D02*
X48284500Y-2180300D01*
X48284500Y-2180300D02*
X49530000Y-3425800D01*
X49530000Y-3425800D02*
X49530000Y-6435500D01*
X49530000Y-6435500D02*
X57049500Y-13955000D01*
X57049500Y-13955000D02*
X57049500Y-19472100D01*
X57049500Y-19472100D02*
X56346200Y-20175400D01*
X56346200Y-20175400D02*
X50229400Y-20175400D01*
X50229400Y-20175400D02*
X49385300Y-19331300D01*
X49385300Y-19331300D02*
X49385300Y-19050000D01*
X36122700Y-3810000D02*
X36685300Y-3810000D01*
X35560000Y-3810000D02*
X36122700Y-3810000D01*
X48260000Y-19050000D02*
X49385300Y-19050000D01*
%TO.N,Net-(J2-Pad5)*%
X21381800Y-3438900D02*
X20364800Y-3438900D01*
X20364800Y-3438900D02*
X15999000Y-7804700D01*
X15999000Y-7804700D02*
X15999000Y-39073000D01*
X15999000Y-39073000D02*
X11797300Y-43274700D01*
X11797300Y-43274700D02*
X11430000Y-43274700D01*
X11430000Y-44450000D02*
X11430000Y-43274700D01*
%TO.N,Net-(J2-Pad11)*%
X84636800Y-10751000D02*
X83820000Y-9934200D01*
X83820000Y-9934200D02*
X83820000Y-7223800D01*
X83820000Y-7223800D02*
X77061400Y-465200D01*
X77061400Y-465200D02*
X18711500Y-465200D01*
X18711500Y-465200D02*
X8902100Y-10274600D01*
X8902100Y-10274600D02*
X8902100Y-56354100D01*
X8902100Y-56354100D02*
X11062700Y-58514700D01*
X11062700Y-58514700D02*
X11430000Y-58514700D01*
X11430000Y-59690000D02*
X11430000Y-58514700D01*
%TO.N,Net-(J2-Pad7)*%
X11430000Y-49530000D02*
X11430000Y-48354700D01*
X80010000Y-7620000D02*
X78884700Y-7620000D01*
X78884700Y-7620000D02*
X78884700Y-7338700D01*
X78884700Y-7338700D02*
X73270200Y-1724200D01*
X73270200Y-1724200D02*
X20141000Y-1724200D01*
X20141000Y-1724200D02*
X10253000Y-11612200D01*
X10253000Y-11612200D02*
X10253000Y-47480000D01*
X10253000Y-47480000D02*
X11127700Y-48354700D01*
X11127700Y-48354700D02*
X11430000Y-48354700D01*
%TO.N,Net-(J2-Pad8)*%
X11430000Y-50894700D02*
X11062700Y-50894700D01*
X11062700Y-50894700D02*
X9802700Y-49634700D01*
X9802700Y-49634700D02*
X9802700Y-11425600D01*
X9802700Y-11425600D02*
X19954400Y-1273900D01*
X19954400Y-1273900D02*
X75267600Y-1273900D01*
X75267600Y-1273900D02*
X81280000Y-7286300D01*
X81280000Y-7286300D02*
X81280000Y-9665000D01*
X81280000Y-9665000D02*
X82756100Y-11141100D01*
X11430000Y-52070000D02*
X11430000Y-50894700D01*
%TO.N,Net-(J2-Pad6)*%
X19307100Y-5572300D02*
X16449300Y-8430100D01*
X16449300Y-8430100D02*
X16449300Y-41162700D01*
X16449300Y-41162700D02*
X11797300Y-45814700D01*
X11797300Y-45814700D02*
X11430000Y-45814700D01*
X11430000Y-46990000D02*
X11430000Y-45814700D01*
%TO.N,Net-(J2-Pad10)*%
X19011900Y-1190500D02*
X9352400Y-10850000D01*
X9352400Y-10850000D02*
X9352400Y-54264400D01*
X9352400Y-54264400D02*
X11062700Y-55974700D01*
X11062700Y-55974700D02*
X11430000Y-55974700D01*
X85090000Y-15240000D02*
X85090000Y-14114700D01*
X85090000Y-14114700D02*
X86347500Y-12857200D01*
X86347500Y-12857200D02*
X86347500Y-11952200D01*
X11430000Y-57150000D02*
X11430000Y-55974700D01*
%TO.N,Net-(J2-Pad9)*%
X11430000Y-53434700D02*
X11797300Y-53434700D01*
X11797300Y-53434700D02*
X17174600Y-48057400D01*
X17174600Y-48057400D02*
X17174600Y-12300300D01*
X11430000Y-54610000D02*
X11430000Y-53434700D01*
%TO.N,Net-(J2-Pad2)*%
X33509800Y-16990000D02*
X33509800Y-5363800D01*
X33509800Y-5363800D02*
X34161300Y-4712300D01*
X34161300Y-4712300D02*
X34161300Y-3347100D01*
X34161300Y-3347100D02*
X33497500Y-2683300D01*
X33497500Y-2683300D02*
X20483500Y-2683300D01*
X20483500Y-2683300D02*
X15548700Y-7618100D01*
X15548700Y-7618100D02*
X15548700Y-32344100D01*
X15548700Y-32344100D02*
X12238100Y-35654700D01*
X12238100Y-35654700D02*
X11430000Y-35654700D01*
X11430000Y-36830000D02*
X11430000Y-35654700D01*
%TO.N,Net-(J2-Pad3)*%
X28602300Y-14449700D02*
X21601800Y-21450200D01*
X21601800Y-21450200D02*
X21601800Y-26512900D01*
%TO.N,Net-(J2-Pad4)*%
X22658300Y-27970600D02*
X22658300Y-21930100D01*
X22658300Y-21930100D02*
X28600500Y-15987900D01*
%TO.N,Net-(J1-Pad3)*%
X143797600Y-28226800D02*
X143797600Y-49478600D01*
X143797600Y-49478600D02*
X143437800Y-49838400D01*
X143437800Y-49838400D02*
X143437800Y-50439200D01*
X143437800Y-50439200D02*
X143797600Y-50799000D01*
X143797600Y-50799000D02*
X143797600Y-72197600D01*
X143797600Y-72197600D02*
X151990000Y-80390000D01*
%TD*%
M02*
