M48
; DRILL file {KiCad 5.1.6-c6e7f7d~87~ubuntu16.04.1} date Tue Mar  8 12:59:49 2022
; FORMAT={-:-/ absolute / metric / decimal}
; #@! TF.CreationDate,2022-03-08T12:59:49-05:00
; #@! TF.GenerationSoftware,Kicad,Pcbnew,5.1.6-c6e7f7d~87~ubuntu16.04.1
FMAT,2
METRIC
T1C0.400
T2C0.800
T3C0.900
T4C1.000
T5C1.100
T6C1.200
T7C1.500
T8C2.700
%
G90
G05
T1
X17.175Y-12.3
X19.012Y-1.19
X19.307Y-5.572
X21.382Y-3.439
X21.602Y-26.513
X22.658Y-27.971
X28.601Y-15.988
X28.602Y-14.45
X31.373Y-21.563
X33.51Y-16.99
X33.557Y-20.626
X34.665Y-42.615
X36.566Y-42.084
X37.707Y-38.684
X37.749Y-37.117
X38.229Y-42.374
X39.927Y-41.715
X40.579Y-23.801
X41.194Y-41.329
X42.365Y-25.461
X43.189Y-48.779
X43.385Y-59.141
X44.765Y-50.833
X46.233Y-22.277
X46.398Y-67.13
X48.273Y-23.287
X49.043Y-31.658
X50.516Y-55.769
X50.959Y-50.983
X51.301Y-22.707
X51.328Y-57.068
X52.13Y-49.797
X52.205Y-47.875
X53.299Y-21.981
X53.527Y-53.047
X53.842Y-62.114
X53.953Y-46.321
X54.231Y-35.784
X54.289Y-26.86
X55.32Y-21.956
X55.325Y-48.328
X55.767Y-50.418
X55.989Y-36.516
X56.696Y-24.818
X57.321Y-21.524
X58.375Y-37.852
X60.304Y-27.169
X62.056Y-50.157
X64.341Y-36.644
X64.77Y-57.203
X64.823Y-64.978
X70.972Y-28.845
X73.243Y-12.819
X73.813Y-55.828
X74.919Y-26.401
X76.547Y-66.471
X76.871Y-26.874
X77.167Y-57.203
X77.979Y-58.372
X78.646Y-22.678
X78.894Y-33.011
X80.605Y-34.363
X81.673Y-51.502
X82.194Y-49.014
X82.756Y-11.141
X83.319Y-46.814
X84.637Y-10.751
X86.347Y-11.952
X87.22Y-32.248
X88.395Y-65.74
X88.63Y-31.505
X89.041Y-40.622
X90.69Y-32.062
X90.837Y-51.158
X91.331Y-26.456
X91.679Y-68.491
X91.98Y-62.794
X92.014Y-31.219
X92.726Y-52.818
X93.05Y-49.193
X93.408Y-56.027
X95.153Y-56.061
X96.523Y-46.805
X99.86Y-55.529
X105.785Y-46.81
X107.478Y-66.402
X109.843Y-71.978
X115.002Y-66.394
X115.592Y-28.788
X119.432Y-46.448
X119.806Y-67.232
X127.394Y-46.326
X132.459Y-60.608
X138.951Y-13.801
X143.798Y-28.227
X144.163Y-50.139
X146.448Y-49.986
X150.458Y-46.79
T2
X22.86Y-30.48
X22.86Y-32.98
X104.14Y-19.05
X114.3Y-19.05
X118.11Y-3.81
X118.11Y-6.31
X140.97Y-54.61
X140.97Y-57.15
X140.97Y-59.69
X140.97Y-62.23
X140.97Y-64.77
X140.97Y-67.31
X140.97Y-69.85
X148.59Y-54.61
X148.59Y-57.15
X148.59Y-59.69
X148.59Y-62.23
X148.59Y-64.77
X148.59Y-67.31
X148.59Y-69.85
X27.94Y-29.21
X27.94Y-44.45
X30.48Y-29.21
X30.48Y-44.45
X33.02Y-29.21
X33.02Y-44.45
X35.56Y-29.21
X35.56Y-44.45
X38.1Y-29.21
X38.1Y-44.45
X40.64Y-29.21
X40.64Y-44.45
X43.18Y-29.21
X43.18Y-44.45
X45.72Y-29.21
X45.72Y-44.45
X48.26Y-29.21
X48.26Y-44.45
X50.8Y-29.21
X50.8Y-44.45
X53.34Y-29.21
X53.34Y-44.45
X55.88Y-29.21
X55.88Y-44.45
X58.42Y-29.21
X58.42Y-44.45
X60.96Y-29.21
X60.96Y-44.45
X64.77Y-53.34
X64.77Y-60.96
X67.31Y-53.34
X67.31Y-60.96
X69.85Y-53.34
X69.85Y-60.96
X72.39Y-53.34
X72.39Y-60.96
X74.93Y-53.34
X74.93Y-60.96
X77.47Y-53.34
X77.47Y-60.96
X80.01Y-53.34
X80.01Y-60.96
X82.55Y-53.34
X82.55Y-60.96
X91.44Y-72.39
X91.44Y-80.01
X93.98Y-72.39
X93.98Y-80.01
X96.52Y-72.39
X96.52Y-80.01
X99.06Y-72.39
X99.06Y-80.01
X101.6Y-72.39
X101.6Y-80.01
X104.14Y-72.39
X104.14Y-80.01
X106.68Y-72.39
X106.68Y-80.01
X149.86Y-2.54
X149.86Y-12.7
X74.93Y-7.62
X74.93Y-15.24
X77.47Y-7.62
X77.47Y-15.24
X80.01Y-7.62
X80.01Y-15.24
X82.55Y-7.62
X82.55Y-15.24
X85.09Y-7.62
X85.09Y-15.24
X87.63Y-7.62
X87.63Y-15.24
X90.17Y-7.62
X90.17Y-15.24
X92.71Y-7.62
X92.71Y-15.24
X24.13Y-54.65
X24.13Y-57.15
X71.12Y-8.93
X71.12Y-11.43
X152.4Y-29.21
X152.4Y-31.75
X152.4Y-34.29
X152.4Y-36.83
X152.4Y-39.37
X152.4Y-41.91
X152.4Y-44.45
X160.02Y-29.21
X160.02Y-31.75
X160.02Y-34.29
X160.02Y-36.83
X160.02Y-39.37
X160.02Y-41.91
X160.02Y-44.45
X129.54Y-29.21
X129.54Y-31.75
X129.54Y-34.29
X129.54Y-36.83
X129.54Y-39.37
X129.54Y-41.91
X129.54Y-44.45
X137.16Y-29.21
X137.16Y-31.75
X137.16Y-34.29
X137.16Y-36.83
X137.16Y-39.37
X137.16Y-41.91
X137.16Y-44.45
X87.63Y-73.66
X87.63Y-76.16
X27.94Y-53.34
X27.94Y-60.96
X30.48Y-53.34
X30.48Y-60.96
X33.02Y-53.34
X33.02Y-60.96
X35.56Y-53.34
X35.56Y-60.96
X38.1Y-53.34
X38.1Y-60.96
X40.64Y-53.34
X40.64Y-60.96
X43.18Y-53.34
X43.18Y-60.96
X45.72Y-53.34
X45.72Y-60.96
X48.26Y-53.34
X48.26Y-60.96
X50.8Y-53.34
X50.8Y-60.96
X27.94Y-3.81
X27.94Y-19.05
X30.48Y-3.81
X30.48Y-19.05
X33.02Y-3.81
X33.02Y-19.05
X35.56Y-3.81
X35.56Y-19.05
X38.1Y-3.81
X38.1Y-19.05
X40.64Y-3.81
X40.64Y-19.05
X43.18Y-3.81
X43.18Y-19.05
X45.72Y-3.81
X45.72Y-19.05
X48.26Y-3.81
X48.26Y-19.05
X50.8Y-3.81
X50.8Y-19.05
X53.34Y-3.81
X53.34Y-19.05
X55.88Y-3.81
X55.88Y-19.05
X58.42Y-3.81
X58.42Y-19.05
X60.96Y-3.81
X60.96Y-19.05
X109.22Y-12.74
X109.22Y-15.24
X27.94Y-69.85
X27.94Y-85.09
X30.48Y-69.85
X30.48Y-85.09
X33.02Y-69.85
X33.02Y-85.09
X35.56Y-69.85
X35.56Y-85.09
X38.1Y-69.85
X38.1Y-85.09
X40.64Y-69.85
X40.64Y-85.09
X43.18Y-69.85
X43.18Y-85.09
X45.72Y-69.85
X45.72Y-85.09
X48.26Y-69.85
X48.26Y-85.09
X50.8Y-69.85
X50.8Y-85.09
X53.34Y-69.85
X53.34Y-85.09
X55.88Y-69.85
X55.88Y-85.09
X58.42Y-69.85
X58.42Y-85.09
X60.96Y-69.85
X60.96Y-85.09
X63.5Y-69.85
X63.5Y-85.09
X66.04Y-69.85
X66.04Y-85.09
X68.58Y-69.85
X68.58Y-85.09
X71.12Y-69.85
X71.12Y-85.09
X73.66Y-69.85
X73.66Y-85.09
X76.2Y-69.85
X76.2Y-85.09
X104.14Y-6.35
X109.02Y-6.35
X129.54Y-54.61
X129.54Y-57.15
X129.54Y-59.69
X129.54Y-62.23
X129.54Y-64.77
X129.54Y-67.31
X129.54Y-69.85
X137.16Y-54.61
X137.16Y-57.15
X137.16Y-59.69
X137.16Y-62.23
X137.16Y-64.77
X137.16Y-67.31
X137.16Y-69.85
X144.78Y-2.54
X144.78Y-12.7
X123.19Y-3.81
X123.19Y-11.43
X125.73Y-3.81
X125.73Y-11.43
X128.27Y-3.81
X128.27Y-11.43
X130.81Y-3.81
X130.81Y-11.43
X133.35Y-3.81
X133.35Y-11.43
X135.89Y-3.81
X135.89Y-11.43
X138.43Y-3.81
X138.43Y-11.43
X118.11Y-29.21
X118.11Y-31.75
X118.11Y-34.29
X118.11Y-36.83
X118.11Y-39.37
X118.11Y-41.91
X118.11Y-44.45
X125.73Y-29.21
X125.73Y-31.75
X125.73Y-34.29
X125.73Y-36.83
X125.73Y-39.37
X125.73Y-41.91
X125.73Y-44.45
X24.13Y-71.12
X24.13Y-73.62
X7.62Y-69.85
X17.78Y-69.85
X140.97Y-29.21
X140.97Y-31.75
X140.97Y-34.29
X140.97Y-36.83
X140.97Y-39.37
X140.97Y-41.91
X140.97Y-44.45
X148.59Y-29.21
X148.59Y-31.75
X148.59Y-34.29
X148.59Y-36.83
X148.59Y-39.37
X148.59Y-41.91
X148.59Y-44.45
X33.02Y-22.86
X35.52Y-22.86
X60.96Y-54.61
X60.96Y-57.11
X104.14Y-12.74
X104.14Y-15.24
X95.25Y-53.34
X95.25Y-60.96
X97.79Y-53.34
X97.79Y-60.96
X100.33Y-53.34
X100.33Y-60.96
X102.87Y-53.34
X102.87Y-60.96
X105.41Y-53.34
X105.41Y-60.96
X107.95Y-53.34
X107.95Y-60.96
X110.49Y-53.34
X110.49Y-60.96
X143.51Y-17.78
X153.67Y-17.78
X120.65Y-54.61
X120.65Y-64.77
X73.66Y-29.21
X73.66Y-44.45
X76.2Y-29.21
X76.2Y-44.45
X78.74Y-29.21
X78.74Y-44.45
X81.28Y-29.21
X81.28Y-44.45
X83.82Y-29.21
X83.82Y-44.45
X86.36Y-29.21
X86.36Y-44.45
X88.9Y-29.21
X88.9Y-44.45
X91.44Y-29.21
X91.44Y-44.45
X93.98Y-29.21
X93.98Y-44.45
X96.52Y-29.21
X96.52Y-44.45
X99.06Y-29.21
X99.06Y-44.45
X101.6Y-29.21
X101.6Y-44.45
X104.14Y-29.21
X104.14Y-44.45
X106.68Y-29.21
X106.68Y-44.45
X91.44Y-54.65
X91.44Y-57.15
X69.85Y-30.52
X69.85Y-33.02
T3
X118.11Y-71.12
X118.11Y-73.66
T4
X19.05Y-8.89
X19.05Y-11.43
X19.05Y-13.97
X19.05Y-16.51
X19.05Y-19.05
X19.05Y-21.59
X11.43Y-34.29
X11.43Y-36.83
X11.43Y-39.37
X11.43Y-41.91
X11.43Y-44.45
X11.43Y-46.99
X11.43Y-49.53
X11.43Y-52.07
X11.43Y-54.61
X11.43Y-57.15
X11.43Y-59.69
T5
X6.35Y-76.2
X6.35Y-80.7
X12.85Y-76.2
X12.85Y-80.7
T6
X140.11Y-80.39
X140.11Y-85.09
X140.11Y-89.79
T7
X127.762Y-85.09
X127.762Y-89.916
X127.86Y-80.39
X151.892Y-85.09
X151.892Y-89.916
X151.99Y-80.39
T8
X3.81Y-3.81
X3.81Y-90.17
X160.02Y-90.17
X160.02Y-3.81
T0
M30
