%TF.GenerationSoftware,KiCad,Pcbnew,5.1.6-c6e7f7d~87~ubuntu16.04.1*%
%TF.CreationDate,2021-01-02T02:20:25-05:00*%
%TF.ProjectId,8085basic,38303835-6261-4736-9963-2e6b69636164,rev?*%
%TF.SameCoordinates,Original*%
%TF.FileFunction,Legend,Top*%
%TF.FilePolarity,Positive*%
%FSLAX46Y46*%
G04 Gerber Fmt 4.6, Leading zero omitted, Abs format (unit mm)*
G04 Created by KiCad (PCBNEW 5.1.6-c6e7f7d~87~ubuntu16.04.1) date 2021-01-02 02:20:25*
%MOMM*%
%LPD*%
G01*
G04 APERTURE LIST*
%ADD10C,0.120000*%
%ADD11C,0.150000*%
G04 APERTURE END LIST*
D10*
%TO.C,SW4*%
X148590000Y-78740000D02*
X155448000Y-78740000D01*
X155448000Y-78740000D02*
X155448000Y-91440000D01*
X155448000Y-91440000D02*
X148590000Y-91440000D01*
X148590000Y-91440000D02*
X148590000Y-78740000D01*
%TO.C,SW3*%
X124460000Y-78740000D02*
X131318000Y-78740000D01*
X131318000Y-78740000D02*
X131318000Y-91440000D01*
X131318000Y-91440000D02*
X124460000Y-91440000D01*
X124460000Y-91440000D02*
X124460000Y-78740000D01*
%TO.C,R6*%
X148490000Y-10890000D02*
X151230000Y-10890000D01*
X151230000Y-10890000D02*
X151230000Y-4350000D01*
X151230000Y-4350000D02*
X148490000Y-4350000D01*
X148490000Y-4350000D02*
X148490000Y-10890000D01*
X149860000Y-11660000D02*
X149860000Y-10890000D01*
X149860000Y-3580000D02*
X149860000Y-4350000D01*
%TO.C,R5*%
X143410000Y-10890000D02*
X146150000Y-10890000D01*
X146150000Y-10890000D02*
X146150000Y-4350000D01*
X146150000Y-4350000D02*
X143410000Y-4350000D01*
X143410000Y-4350000D02*
X143410000Y-10890000D01*
X144780000Y-11660000D02*
X144780000Y-10890000D01*
X144780000Y-3580000D02*
X144780000Y-4350000D01*
%TO.C,R4*%
X151860000Y-19150000D02*
X151860000Y-16410000D01*
X151860000Y-16410000D02*
X145320000Y-16410000D01*
X145320000Y-16410000D02*
X145320000Y-19150000D01*
X145320000Y-19150000D02*
X151860000Y-19150000D01*
X152630000Y-17780000D02*
X151860000Y-17780000D01*
X144550000Y-17780000D02*
X145320000Y-17780000D01*
%TO.C,R3*%
X119280000Y-62960000D02*
X122020000Y-62960000D01*
X122020000Y-62960000D02*
X122020000Y-56420000D01*
X122020000Y-56420000D02*
X119280000Y-56420000D01*
X119280000Y-56420000D02*
X119280000Y-62960000D01*
X120650000Y-63730000D02*
X120650000Y-62960000D01*
X120650000Y-55650000D02*
X120650000Y-56420000D01*
%TO.C,R2*%
X105950000Y-17680000D02*
X105950000Y-20420000D01*
X105950000Y-20420000D02*
X112490000Y-20420000D01*
X112490000Y-20420000D02*
X112490000Y-17680000D01*
X112490000Y-17680000D02*
X105950000Y-17680000D01*
X105180000Y-19050000D02*
X105950000Y-19050000D01*
X113260000Y-19050000D02*
X112490000Y-19050000D01*
%TO.C,R1*%
X9430000Y-68480000D02*
X9430000Y-71220000D01*
X9430000Y-71220000D02*
X15970000Y-71220000D01*
X15970000Y-71220000D02*
X15970000Y-68480000D01*
X15970000Y-68480000D02*
X9430000Y-68480000D01*
X8660000Y-69850000D02*
X9430000Y-69850000D01*
X16740000Y-69850000D02*
X15970000Y-69850000D01*
%TO.C,J2*%
X10100000Y-35560000D02*
X12760000Y-35560000D01*
X10100000Y-35560000D02*
X10100000Y-61020000D01*
X10100000Y-61020000D02*
X12760000Y-61020000D01*
X12760000Y-35560000D02*
X12760000Y-61020000D01*
X12760000Y-32960000D02*
X12760000Y-34290000D01*
X11430000Y-32960000D02*
X12760000Y-32960000D01*
%TO.C,DIS1*%
X143780000Y-53280000D02*
X142130000Y-53280000D01*
X142130000Y-53280000D02*
X142130000Y-71180000D01*
X142130000Y-71180000D02*
X147430000Y-71180000D01*
X147430000Y-71180000D02*
X147430000Y-53280000D01*
X147430000Y-53280000D02*
X145780000Y-53280000D01*
X145780000Y-53280000D02*
G75*
G02*
X143780000Y-53280000I-1000000J0D01*
G01*
%TO.C,D1*%
X120610000Y-72390000D02*
G75*
G03*
X120610000Y-72390000I-2500000J0D01*
G01*
X116565000Y-74950000D02*
X119655000Y-74950000D01*
X118109538Y-69400000D02*
G75*
G02*
X119654830Y-74950000I462J-2990000D01*
G01*
X118110462Y-69400000D02*
G75*
G03*
X116565170Y-74950000I-462J-2990000D01*
G01*
%TO.C,DIS2*%
X132350000Y-53280000D02*
X130700000Y-53280000D01*
X130700000Y-53280000D02*
X130700000Y-71180000D01*
X130700000Y-71180000D02*
X136000000Y-71180000D01*
X136000000Y-71180000D02*
X136000000Y-53280000D01*
X136000000Y-53280000D02*
X134350000Y-53280000D01*
X134350000Y-53280000D02*
G75*
G02*
X132350000Y-53280000I-1000000J0D01*
G01*
%TO.C,DIS4*%
X143780000Y-27880000D02*
X142130000Y-27880000D01*
X142130000Y-27880000D02*
X142130000Y-45780000D01*
X142130000Y-45780000D02*
X147430000Y-45780000D01*
X147430000Y-45780000D02*
X147430000Y-27880000D01*
X147430000Y-27880000D02*
X145780000Y-27880000D01*
X145780000Y-27880000D02*
G75*
G02*
X143780000Y-27880000I-1000000J0D01*
G01*
%TO.C,DIS3*%
X155210000Y-27880000D02*
X153560000Y-27880000D01*
X153560000Y-27880000D02*
X153560000Y-45780000D01*
X153560000Y-45780000D02*
X158860000Y-45780000D01*
X158860000Y-45780000D02*
X158860000Y-27880000D01*
X158860000Y-27880000D02*
X157210000Y-27880000D01*
X157210000Y-27880000D02*
G75*
G02*
X155210000Y-27880000I-1000000J0D01*
G01*
%TO.C,SW2*%
X143510000Y-91440000D02*
X136652000Y-91440000D01*
X136652000Y-91440000D02*
X136652000Y-78740000D01*
X136652000Y-78740000D02*
X143510000Y-78740000D01*
X143510000Y-78740000D02*
X143510000Y-91440000D01*
%TO.C,U10*%
X121860000Y-8620000D02*
X121860000Y-10270000D01*
X121860000Y-10270000D02*
X139760000Y-10270000D01*
X139760000Y-10270000D02*
X139760000Y-4970000D01*
X139760000Y-4970000D02*
X121860000Y-4970000D01*
X121860000Y-4970000D02*
X121860000Y-6620000D01*
X121860000Y-6620000D02*
G75*
G02*
X121860000Y-8620000I0J-1000000D01*
G01*
%TO.C,DIS5*%
X132350000Y-27880000D02*
X130700000Y-27880000D01*
X130700000Y-27880000D02*
X130700000Y-45780000D01*
X130700000Y-45780000D02*
X136000000Y-45780000D01*
X136000000Y-45780000D02*
X136000000Y-27880000D01*
X136000000Y-27880000D02*
X134350000Y-27880000D01*
X134350000Y-27880000D02*
G75*
G02*
X132350000Y-27880000I-1000000J0D01*
G01*
%TO.C,C10*%
X119280000Y-3240000D02*
X119280000Y-6880000D01*
X116940000Y-3240000D02*
X116940000Y-6880000D01*
X119280000Y-3240000D02*
X119035000Y-3240000D01*
X117185000Y-3240000D02*
X116940000Y-3240000D01*
X119280000Y-6880000D02*
X119035000Y-6880000D01*
X117185000Y-6880000D02*
X116940000Y-6880000D01*
%TO.C,DIS6*%
X120920000Y-27880000D02*
X119270000Y-27880000D01*
X119270000Y-27880000D02*
X119270000Y-45780000D01*
X119270000Y-45780000D02*
X124570000Y-45780000D01*
X124570000Y-45780000D02*
X124570000Y-27880000D01*
X124570000Y-27880000D02*
X122920000Y-27880000D01*
X122920000Y-27880000D02*
G75*
G02*
X120920000Y-27880000I-1000000J0D01*
G01*
%TO.C,Y1*%
X103455000Y-3825000D02*
X109705000Y-3825000D01*
X103455000Y-8875000D02*
X109705000Y-8875000D01*
X109705000Y-8875000D02*
G75*
G03*
X109705000Y-3825000I0J2525000D01*
G01*
X103455000Y-8875000D02*
G75*
G02*
X103455000Y-3825000I0J2525000D01*
G01*
%TO.C,U9*%
X73600000Y-12430000D02*
X73600000Y-14080000D01*
X73600000Y-14080000D02*
X94040000Y-14080000D01*
X94040000Y-14080000D02*
X94040000Y-8780000D01*
X94040000Y-8780000D02*
X73600000Y-8780000D01*
X73600000Y-8780000D02*
X73600000Y-10430000D01*
X73600000Y-10430000D02*
G75*
G02*
X73600000Y-12430000I0J-1000000D01*
G01*
%TO.C,U8*%
X26610000Y-12430000D02*
X26610000Y-17890000D01*
X26610000Y-17890000D02*
X62290000Y-17890000D01*
X62290000Y-17890000D02*
X62290000Y-4970000D01*
X62290000Y-4970000D02*
X26610000Y-4970000D01*
X26610000Y-4970000D02*
X26610000Y-10430000D01*
X26610000Y-10430000D02*
G75*
G02*
X26610000Y-12430000I0J-1000000D01*
G01*
%TO.C,U7*%
X63440000Y-58150000D02*
X63440000Y-59800000D01*
X63440000Y-59800000D02*
X83880000Y-59800000D01*
X83880000Y-59800000D02*
X83880000Y-54500000D01*
X83880000Y-54500000D02*
X63440000Y-54500000D01*
X63440000Y-54500000D02*
X63440000Y-56150000D01*
X63440000Y-56150000D02*
G75*
G02*
X63440000Y-58150000I0J-1000000D01*
G01*
%TO.C,U6*%
X90110000Y-77200000D02*
X90110000Y-78850000D01*
X90110000Y-78850000D02*
X108010000Y-78850000D01*
X108010000Y-78850000D02*
X108010000Y-73550000D01*
X108010000Y-73550000D02*
X90110000Y-73550000D01*
X90110000Y-73550000D02*
X90110000Y-75200000D01*
X90110000Y-75200000D02*
G75*
G02*
X90110000Y-77200000I0J-1000000D01*
G01*
%TO.C,U5*%
X72330000Y-37830000D02*
X72330000Y-43290000D01*
X72330000Y-43290000D02*
X108010000Y-43290000D01*
X108010000Y-43290000D02*
X108010000Y-30370000D01*
X108010000Y-30370000D02*
X72330000Y-30370000D01*
X72330000Y-30370000D02*
X72330000Y-35830000D01*
X72330000Y-35830000D02*
G75*
G02*
X72330000Y-37830000I0J-1000000D01*
G01*
%TO.C,U4*%
X26610000Y-37830000D02*
X26610000Y-43290000D01*
X26610000Y-43290000D02*
X62290000Y-43290000D01*
X62290000Y-43290000D02*
X62290000Y-30370000D01*
X62290000Y-30370000D02*
X26610000Y-30370000D01*
X26610000Y-30370000D02*
X26610000Y-35830000D01*
X26610000Y-35830000D02*
G75*
G02*
X26610000Y-37830000I0J-1000000D01*
G01*
%TO.C,U3*%
X93920000Y-58150000D02*
X93920000Y-59800000D01*
X93920000Y-59800000D02*
X111820000Y-59800000D01*
X111820000Y-59800000D02*
X111820000Y-54500000D01*
X111820000Y-54500000D02*
X93920000Y-54500000D01*
X93920000Y-54500000D02*
X93920000Y-56150000D01*
X93920000Y-56150000D02*
G75*
G02*
X93920000Y-58150000I0J-1000000D01*
G01*
%TO.C,U2*%
X26610000Y-58150000D02*
X26610000Y-59800000D01*
X26610000Y-59800000D02*
X52130000Y-59800000D01*
X52130000Y-59800000D02*
X52130000Y-54500000D01*
X52130000Y-54500000D02*
X26610000Y-54500000D01*
X26610000Y-54500000D02*
X26610000Y-56150000D01*
X26610000Y-56150000D02*
G75*
G02*
X26610000Y-58150000I0J-1000000D01*
G01*
%TO.C,U1*%
X26610000Y-78470000D02*
X26610000Y-83930000D01*
X26610000Y-83930000D02*
X77530000Y-83930000D01*
X77530000Y-83930000D02*
X77530000Y-71010000D01*
X77530000Y-71010000D02*
X26610000Y-71010000D01*
X26610000Y-71010000D02*
X26610000Y-76470000D01*
X26610000Y-76470000D02*
G75*
G02*
X26610000Y-78470000I0J-1000000D01*
G01*
%TO.C,SW1*%
X7350000Y-81700000D02*
X11850000Y-81700000D01*
X6100000Y-77700000D02*
X6100000Y-79200000D01*
X11850000Y-75200000D02*
X7350000Y-75200000D01*
X13100000Y-79200000D02*
X13100000Y-77700000D01*
%TO.C,J1*%
X17720000Y-22920000D02*
X20380000Y-22920000D01*
X17720000Y-10160000D02*
X17720000Y-22920000D01*
X20380000Y-10160000D02*
X20380000Y-22920000D01*
X17720000Y-10160000D02*
X20380000Y-10160000D01*
X17720000Y-8890000D02*
X17720000Y-7560000D01*
X17720000Y-7560000D02*
X19050000Y-7560000D01*
%TO.C,C12*%
X108050000Y-15810000D02*
X108050000Y-12170000D01*
X110390000Y-15810000D02*
X110390000Y-12170000D01*
X108050000Y-15810000D02*
X108295000Y-15810000D01*
X110145000Y-15810000D02*
X110390000Y-15810000D01*
X108050000Y-12170000D02*
X108295000Y-12170000D01*
X110145000Y-12170000D02*
X110390000Y-12170000D01*
%TO.C,C11*%
X102970000Y-15810000D02*
X102970000Y-12170000D01*
X105310000Y-15810000D02*
X105310000Y-12170000D01*
X102970000Y-15810000D02*
X103215000Y-15810000D01*
X105065000Y-15810000D02*
X105310000Y-15810000D01*
X102970000Y-12170000D02*
X103215000Y-12170000D01*
X105065000Y-12170000D02*
X105310000Y-12170000D01*
%TO.C,C9*%
X72290000Y-8360000D02*
X72290000Y-12000000D01*
X69950000Y-8360000D02*
X69950000Y-12000000D01*
X72290000Y-8360000D02*
X72045000Y-8360000D01*
X70195000Y-8360000D02*
X69950000Y-8360000D01*
X72290000Y-12000000D02*
X72045000Y-12000000D01*
X70195000Y-12000000D02*
X69950000Y-12000000D01*
%TO.C,C8*%
X32450000Y-21690000D02*
X36090000Y-21690000D01*
X32450000Y-24030000D02*
X36090000Y-24030000D01*
X32450000Y-21690000D02*
X32450000Y-21935000D01*
X32450000Y-23785000D02*
X32450000Y-24030000D01*
X36090000Y-21690000D02*
X36090000Y-21935000D01*
X36090000Y-23785000D02*
X36090000Y-24030000D01*
%TO.C,C7*%
X62130000Y-54040000D02*
X62130000Y-57680000D01*
X59790000Y-54040000D02*
X59790000Y-57680000D01*
X62130000Y-54040000D02*
X61885000Y-54040000D01*
X60035000Y-54040000D02*
X59790000Y-54040000D01*
X62130000Y-57680000D02*
X61885000Y-57680000D01*
X60035000Y-57680000D02*
X59790000Y-57680000D01*
%TO.C,C6*%
X88800000Y-73090000D02*
X88800000Y-76730000D01*
X86460000Y-73090000D02*
X86460000Y-76730000D01*
X88800000Y-73090000D02*
X88555000Y-73090000D01*
X86705000Y-73090000D02*
X86460000Y-73090000D01*
X88800000Y-76730000D02*
X88555000Y-76730000D01*
X86705000Y-76730000D02*
X86460000Y-76730000D01*
%TO.C,C5*%
X71020000Y-29950000D02*
X71020000Y-33590000D01*
X68680000Y-29950000D02*
X68680000Y-33590000D01*
X71020000Y-29950000D02*
X70775000Y-29950000D01*
X68925000Y-29950000D02*
X68680000Y-29950000D01*
X71020000Y-33590000D02*
X70775000Y-33590000D01*
X68925000Y-33590000D02*
X68680000Y-33590000D01*
%TO.C,C4*%
X24030000Y-29910000D02*
X24030000Y-33550000D01*
X21690000Y-29910000D02*
X21690000Y-33550000D01*
X24030000Y-29910000D02*
X23785000Y-29910000D01*
X21935000Y-29910000D02*
X21690000Y-29910000D01*
X24030000Y-33550000D02*
X23785000Y-33550000D01*
X21935000Y-33550000D02*
X21690000Y-33550000D01*
%TO.C,C3*%
X92610000Y-54080000D02*
X92610000Y-57720000D01*
X90270000Y-54080000D02*
X90270000Y-57720000D01*
X92610000Y-54080000D02*
X92365000Y-54080000D01*
X90515000Y-54080000D02*
X90270000Y-54080000D01*
X92610000Y-57720000D02*
X92365000Y-57720000D01*
X90515000Y-57720000D02*
X90270000Y-57720000D01*
%TO.C,C2*%
X25300000Y-54080000D02*
X25300000Y-57720000D01*
X22960000Y-54080000D02*
X22960000Y-57720000D01*
X25300000Y-54080000D02*
X25055000Y-54080000D01*
X23205000Y-54080000D02*
X22960000Y-54080000D01*
X25300000Y-57720000D02*
X25055000Y-57720000D01*
X23205000Y-57720000D02*
X22960000Y-57720000D01*
%TO.C,C1*%
X25300000Y-70550000D02*
X25300000Y-74190000D01*
X22960000Y-70550000D02*
X22960000Y-74190000D01*
X25300000Y-70550000D02*
X25055000Y-70550000D01*
X23205000Y-70550000D02*
X22960000Y-70550000D01*
X25300000Y-74190000D02*
X25055000Y-74190000D01*
X23205000Y-74190000D02*
X22960000Y-74190000D01*
%TO.C,REF4*%
D11*
X158972380Y-86922380D02*
X158639047Y-86446190D01*
X158400952Y-86922380D02*
X158400952Y-85922380D01*
X158781904Y-85922380D01*
X158877142Y-85970000D01*
X158924761Y-86017619D01*
X158972380Y-86112857D01*
X158972380Y-86255714D01*
X158924761Y-86350952D01*
X158877142Y-86398571D01*
X158781904Y-86446190D01*
X158400952Y-86446190D01*
X159400952Y-86398571D02*
X159734285Y-86398571D01*
X159877142Y-86922380D02*
X159400952Y-86922380D01*
X159400952Y-85922380D01*
X159877142Y-85922380D01*
X160639047Y-86398571D02*
X160305714Y-86398571D01*
X160305714Y-86922380D02*
X160305714Y-85922380D01*
X160781904Y-85922380D01*
X161591428Y-86255714D02*
X161591428Y-86922380D01*
X161353333Y-85874761D02*
X161115238Y-86589047D01*
X161734285Y-86589047D01*
%TO.C,REF2*%
X158972380Y-562380D02*
X158639047Y-86190D01*
X158400952Y-562380D02*
X158400952Y437619D01*
X158781904Y437619D01*
X158877142Y390000D01*
X158924761Y342380D01*
X158972380Y247142D01*
X158972380Y104285D01*
X158924761Y9047D01*
X158877142Y-38571D01*
X158781904Y-86190D01*
X158400952Y-86190D01*
X159400952Y-38571D02*
X159734285Y-38571D01*
X159877142Y-562380D02*
X159400952Y-562380D01*
X159400952Y437619D01*
X159877142Y437619D01*
X160639047Y-38571D02*
X160305714Y-38571D01*
X160305714Y-562380D02*
X160305714Y437619D01*
X160781904Y437619D01*
X161115238Y342380D02*
X161162857Y390000D01*
X161258095Y437619D01*
X161496190Y437619D01*
X161591428Y390000D01*
X161639047Y342380D01*
X161686666Y247142D01*
X161686666Y151904D01*
X161639047Y9047D01*
X161067619Y-562380D01*
X161686666Y-562380D01*
%TO.C,REF3*%
X2762380Y-86922380D02*
X2429047Y-86446190D01*
X2190952Y-86922380D02*
X2190952Y-85922380D01*
X2571904Y-85922380D01*
X2667142Y-85970000D01*
X2714761Y-86017619D01*
X2762380Y-86112857D01*
X2762380Y-86255714D01*
X2714761Y-86350952D01*
X2667142Y-86398571D01*
X2571904Y-86446190D01*
X2190952Y-86446190D01*
X3190952Y-86398571D02*
X3524285Y-86398571D01*
X3667142Y-86922380D02*
X3190952Y-86922380D01*
X3190952Y-85922380D01*
X3667142Y-85922380D01*
X4429047Y-86398571D02*
X4095714Y-86398571D01*
X4095714Y-86922380D02*
X4095714Y-85922380D01*
X4571904Y-85922380D01*
X4857619Y-85922380D02*
X5476666Y-85922380D01*
X5143333Y-86303333D01*
X5286190Y-86303333D01*
X5381428Y-86350952D01*
X5429047Y-86398571D01*
X5476666Y-86493809D01*
X5476666Y-86731904D01*
X5429047Y-86827142D01*
X5381428Y-86874761D01*
X5286190Y-86922380D01*
X5000476Y-86922380D01*
X4905238Y-86874761D01*
X4857619Y-86827142D01*
%TO.C,REF1*%
X2762380Y-562380D02*
X2429047Y-86190D01*
X2190952Y-562380D02*
X2190952Y437619D01*
X2571904Y437619D01*
X2667142Y390000D01*
X2714761Y342380D01*
X2762380Y247142D01*
X2762380Y104285D01*
X2714761Y9047D01*
X2667142Y-38571D01*
X2571904Y-86190D01*
X2190952Y-86190D01*
X3190952Y-38571D02*
X3524285Y-38571D01*
X3667142Y-562380D02*
X3190952Y-562380D01*
X3190952Y437619D01*
X3667142Y437619D01*
X4429047Y-38571D02*
X4095714Y-38571D01*
X4095714Y-562380D02*
X4095714Y437619D01*
X4571904Y437619D01*
X5476666Y-562380D02*
X4905238Y-562380D01*
X5190952Y-562380D02*
X5190952Y437619D01*
X5095714Y294761D01*
X5000476Y199523D01*
X4905238Y151904D01*
%TO.C,SW4*%
X147256666Y-79644761D02*
X147399523Y-79692380D01*
X147637619Y-79692380D01*
X147732857Y-79644761D01*
X147780476Y-79597142D01*
X147828095Y-79501904D01*
X147828095Y-79406666D01*
X147780476Y-79311428D01*
X147732857Y-79263809D01*
X147637619Y-79216190D01*
X147447142Y-79168571D01*
X147351904Y-79120952D01*
X147304285Y-79073333D01*
X147256666Y-78978095D01*
X147256666Y-78882857D01*
X147304285Y-78787619D01*
X147351904Y-78740000D01*
X147447142Y-78692380D01*
X147685238Y-78692380D01*
X147828095Y-78740000D01*
X148161428Y-78692380D02*
X148399523Y-79692380D01*
X148590000Y-78978095D01*
X148780476Y-79692380D01*
X149018571Y-78692380D01*
X149828095Y-79025714D02*
X149828095Y-79692380D01*
X149590000Y-78644761D02*
X149351904Y-79359047D01*
X149970952Y-79359047D01*
%TO.C,SW3*%
X123126666Y-79644761D02*
X123269523Y-79692380D01*
X123507619Y-79692380D01*
X123602857Y-79644761D01*
X123650476Y-79597142D01*
X123698095Y-79501904D01*
X123698095Y-79406666D01*
X123650476Y-79311428D01*
X123602857Y-79263809D01*
X123507619Y-79216190D01*
X123317142Y-79168571D01*
X123221904Y-79120952D01*
X123174285Y-79073333D01*
X123126666Y-78978095D01*
X123126666Y-78882857D01*
X123174285Y-78787619D01*
X123221904Y-78740000D01*
X123317142Y-78692380D01*
X123555238Y-78692380D01*
X123698095Y-78740000D01*
X124031428Y-78692380D02*
X124269523Y-79692380D01*
X124460000Y-78978095D01*
X124650476Y-79692380D01*
X124888571Y-78692380D01*
X125174285Y-78692380D02*
X125793333Y-78692380D01*
X125460000Y-79073333D01*
X125602857Y-79073333D01*
X125698095Y-79120952D01*
X125745714Y-79168571D01*
X125793333Y-79263809D01*
X125793333Y-79501904D01*
X125745714Y-79597142D01*
X125698095Y-79644761D01*
X125602857Y-79692380D01*
X125317142Y-79692380D01*
X125221904Y-79644761D01*
X125174285Y-79597142D01*
%TO.C,R6*%
X147942380Y-7786666D02*
X147466190Y-8120000D01*
X147942380Y-8358095D02*
X146942380Y-8358095D01*
X146942380Y-7977142D01*
X146990000Y-7881904D01*
X147037619Y-7834285D01*
X147132857Y-7786666D01*
X147275714Y-7786666D01*
X147370952Y-7834285D01*
X147418571Y-7881904D01*
X147466190Y-7977142D01*
X147466190Y-8358095D01*
X146942380Y-6929523D02*
X146942380Y-7120000D01*
X146990000Y-7215238D01*
X147037619Y-7262857D01*
X147180476Y-7358095D01*
X147370952Y-7405714D01*
X147751904Y-7405714D01*
X147847142Y-7358095D01*
X147894761Y-7310476D01*
X147942380Y-7215238D01*
X147942380Y-7024761D01*
X147894761Y-6929523D01*
X147847142Y-6881904D01*
X147751904Y-6834285D01*
X147513809Y-6834285D01*
X147418571Y-6881904D01*
X147370952Y-6929523D01*
X147323333Y-7024761D01*
X147323333Y-7215238D01*
X147370952Y-7310476D01*
X147418571Y-7358095D01*
X147513809Y-7405714D01*
%TO.C,R5*%
X142862380Y-7786666D02*
X142386190Y-8120000D01*
X142862380Y-8358095D02*
X141862380Y-8358095D01*
X141862380Y-7977142D01*
X141910000Y-7881904D01*
X141957619Y-7834285D01*
X142052857Y-7786666D01*
X142195714Y-7786666D01*
X142290952Y-7834285D01*
X142338571Y-7881904D01*
X142386190Y-7977142D01*
X142386190Y-8358095D01*
X141862380Y-6881904D02*
X141862380Y-7358095D01*
X142338571Y-7405714D01*
X142290952Y-7358095D01*
X142243333Y-7262857D01*
X142243333Y-7024761D01*
X142290952Y-6929523D01*
X142338571Y-6881904D01*
X142433809Y-6834285D01*
X142671904Y-6834285D01*
X142767142Y-6881904D01*
X142814761Y-6929523D01*
X142862380Y-7024761D01*
X142862380Y-7262857D01*
X142814761Y-7358095D01*
X142767142Y-7405714D01*
%TO.C,R4*%
X148423333Y-20602380D02*
X148090000Y-20126190D01*
X147851904Y-20602380D02*
X147851904Y-19602380D01*
X148232857Y-19602380D01*
X148328095Y-19650000D01*
X148375714Y-19697619D01*
X148423333Y-19792857D01*
X148423333Y-19935714D01*
X148375714Y-20030952D01*
X148328095Y-20078571D01*
X148232857Y-20126190D01*
X147851904Y-20126190D01*
X149280476Y-19935714D02*
X149280476Y-20602380D01*
X149042380Y-19554761D02*
X148804285Y-20269047D01*
X149423333Y-20269047D01*
%TO.C,R3*%
X118732380Y-59856666D02*
X118256190Y-60190000D01*
X118732380Y-60428095D02*
X117732380Y-60428095D01*
X117732380Y-60047142D01*
X117780000Y-59951904D01*
X117827619Y-59904285D01*
X117922857Y-59856666D01*
X118065714Y-59856666D01*
X118160952Y-59904285D01*
X118208571Y-59951904D01*
X118256190Y-60047142D01*
X118256190Y-60428095D01*
X117732380Y-59523333D02*
X117732380Y-58904285D01*
X118113333Y-59237619D01*
X118113333Y-59094761D01*
X118160952Y-58999523D01*
X118208571Y-58951904D01*
X118303809Y-58904285D01*
X118541904Y-58904285D01*
X118637142Y-58951904D01*
X118684761Y-58999523D01*
X118732380Y-59094761D01*
X118732380Y-59380476D01*
X118684761Y-59475714D01*
X118637142Y-59523333D01*
%TO.C,R2*%
X109053333Y-17132380D02*
X108720000Y-16656190D01*
X108481904Y-17132380D02*
X108481904Y-16132380D01*
X108862857Y-16132380D01*
X108958095Y-16180000D01*
X109005714Y-16227619D01*
X109053333Y-16322857D01*
X109053333Y-16465714D01*
X109005714Y-16560952D01*
X108958095Y-16608571D01*
X108862857Y-16656190D01*
X108481904Y-16656190D01*
X109434285Y-16227619D02*
X109481904Y-16180000D01*
X109577142Y-16132380D01*
X109815238Y-16132380D01*
X109910476Y-16180000D01*
X109958095Y-16227619D01*
X110005714Y-16322857D01*
X110005714Y-16418095D01*
X109958095Y-16560952D01*
X109386666Y-17132380D01*
X110005714Y-17132380D01*
%TO.C,R1*%
X12533333Y-67932380D02*
X12200000Y-67456190D01*
X11961904Y-67932380D02*
X11961904Y-66932380D01*
X12342857Y-66932380D01*
X12438095Y-66980000D01*
X12485714Y-67027619D01*
X12533333Y-67122857D01*
X12533333Y-67265714D01*
X12485714Y-67360952D01*
X12438095Y-67408571D01*
X12342857Y-67456190D01*
X11961904Y-67456190D01*
X13485714Y-67932380D02*
X12914285Y-67932380D01*
X13200000Y-67932380D02*
X13200000Y-66932380D01*
X13104761Y-67075238D01*
X13009523Y-67170476D01*
X12914285Y-67218095D01*
%TO.C,J2*%
X11096666Y-30972380D02*
X11096666Y-31686666D01*
X11049047Y-31829523D01*
X10953809Y-31924761D01*
X10810952Y-31972380D01*
X10715714Y-31972380D01*
X11525238Y-31067619D02*
X11572857Y-31020000D01*
X11668095Y-30972380D01*
X11906190Y-30972380D01*
X12001428Y-31020000D01*
X12049047Y-31067619D01*
X12096666Y-31162857D01*
X12096666Y-31258095D01*
X12049047Y-31400952D01*
X11477619Y-31972380D01*
X12096666Y-31972380D01*
%TO.C,DIS1*%
X143327619Y-52732380D02*
X143327619Y-51732380D01*
X143565714Y-51732380D01*
X143708571Y-51780000D01*
X143803809Y-51875238D01*
X143851428Y-51970476D01*
X143899047Y-52160952D01*
X143899047Y-52303809D01*
X143851428Y-52494285D01*
X143803809Y-52589523D01*
X143708571Y-52684761D01*
X143565714Y-52732380D01*
X143327619Y-52732380D01*
X144327619Y-52732380D02*
X144327619Y-51732380D01*
X144756190Y-52684761D02*
X144899047Y-52732380D01*
X145137142Y-52732380D01*
X145232380Y-52684761D01*
X145280000Y-52637142D01*
X145327619Y-52541904D01*
X145327619Y-52446666D01*
X145280000Y-52351428D01*
X145232380Y-52303809D01*
X145137142Y-52256190D01*
X144946666Y-52208571D01*
X144851428Y-52160952D01*
X144803809Y-52113333D01*
X144756190Y-52018095D01*
X144756190Y-51922857D01*
X144803809Y-51827619D01*
X144851428Y-51780000D01*
X144946666Y-51732380D01*
X145184761Y-51732380D01*
X145327619Y-51780000D01*
X146280000Y-52732380D02*
X145708571Y-52732380D01*
X145994285Y-52732380D02*
X145994285Y-51732380D01*
X145899047Y-51875238D01*
X145803809Y-51970476D01*
X145708571Y-52018095D01*
%TO.C,D1*%
X114602380Y-73128095D02*
X113602380Y-73128095D01*
X113602380Y-72890000D01*
X113650000Y-72747142D01*
X113745238Y-72651904D01*
X113840476Y-72604285D01*
X114030952Y-72556666D01*
X114173809Y-72556666D01*
X114364285Y-72604285D01*
X114459523Y-72651904D01*
X114554761Y-72747142D01*
X114602380Y-72890000D01*
X114602380Y-73128095D01*
X114602380Y-71604285D02*
X114602380Y-72175714D01*
X114602380Y-71890000D02*
X113602380Y-71890000D01*
X113745238Y-71985238D01*
X113840476Y-72080476D01*
X113888095Y-72175714D01*
%TO.C,DIS2*%
X131897619Y-52732380D02*
X131897619Y-51732380D01*
X132135714Y-51732380D01*
X132278571Y-51780000D01*
X132373809Y-51875238D01*
X132421428Y-51970476D01*
X132469047Y-52160952D01*
X132469047Y-52303809D01*
X132421428Y-52494285D01*
X132373809Y-52589523D01*
X132278571Y-52684761D01*
X132135714Y-52732380D01*
X131897619Y-52732380D01*
X132897619Y-52732380D02*
X132897619Y-51732380D01*
X133326190Y-52684761D02*
X133469047Y-52732380D01*
X133707142Y-52732380D01*
X133802380Y-52684761D01*
X133850000Y-52637142D01*
X133897619Y-52541904D01*
X133897619Y-52446666D01*
X133850000Y-52351428D01*
X133802380Y-52303809D01*
X133707142Y-52256190D01*
X133516666Y-52208571D01*
X133421428Y-52160952D01*
X133373809Y-52113333D01*
X133326190Y-52018095D01*
X133326190Y-51922857D01*
X133373809Y-51827619D01*
X133421428Y-51780000D01*
X133516666Y-51732380D01*
X133754761Y-51732380D01*
X133897619Y-51780000D01*
X134278571Y-51827619D02*
X134326190Y-51780000D01*
X134421428Y-51732380D01*
X134659523Y-51732380D01*
X134754761Y-51780000D01*
X134802380Y-51827619D01*
X134850000Y-51922857D01*
X134850000Y-52018095D01*
X134802380Y-52160952D01*
X134230952Y-52732380D01*
X134850000Y-52732380D01*
%TO.C,DIS4*%
X143327619Y-27332380D02*
X143327619Y-26332380D01*
X143565714Y-26332380D01*
X143708571Y-26380000D01*
X143803809Y-26475238D01*
X143851428Y-26570476D01*
X143899047Y-26760952D01*
X143899047Y-26903809D01*
X143851428Y-27094285D01*
X143803809Y-27189523D01*
X143708571Y-27284761D01*
X143565714Y-27332380D01*
X143327619Y-27332380D01*
X144327619Y-27332380D02*
X144327619Y-26332380D01*
X144756190Y-27284761D02*
X144899047Y-27332380D01*
X145137142Y-27332380D01*
X145232380Y-27284761D01*
X145280000Y-27237142D01*
X145327619Y-27141904D01*
X145327619Y-27046666D01*
X145280000Y-26951428D01*
X145232380Y-26903809D01*
X145137142Y-26856190D01*
X144946666Y-26808571D01*
X144851428Y-26760952D01*
X144803809Y-26713333D01*
X144756190Y-26618095D01*
X144756190Y-26522857D01*
X144803809Y-26427619D01*
X144851428Y-26380000D01*
X144946666Y-26332380D01*
X145184761Y-26332380D01*
X145327619Y-26380000D01*
X146184761Y-26665714D02*
X146184761Y-27332380D01*
X145946666Y-26284761D02*
X145708571Y-26999047D01*
X146327619Y-26999047D01*
%TO.C,DIS3*%
X154757619Y-27332380D02*
X154757619Y-26332380D01*
X154995714Y-26332380D01*
X155138571Y-26380000D01*
X155233809Y-26475238D01*
X155281428Y-26570476D01*
X155329047Y-26760952D01*
X155329047Y-26903809D01*
X155281428Y-27094285D01*
X155233809Y-27189523D01*
X155138571Y-27284761D01*
X154995714Y-27332380D01*
X154757619Y-27332380D01*
X155757619Y-27332380D02*
X155757619Y-26332380D01*
X156186190Y-27284761D02*
X156329047Y-27332380D01*
X156567142Y-27332380D01*
X156662380Y-27284761D01*
X156710000Y-27237142D01*
X156757619Y-27141904D01*
X156757619Y-27046666D01*
X156710000Y-26951428D01*
X156662380Y-26903809D01*
X156567142Y-26856190D01*
X156376666Y-26808571D01*
X156281428Y-26760952D01*
X156233809Y-26713333D01*
X156186190Y-26618095D01*
X156186190Y-26522857D01*
X156233809Y-26427619D01*
X156281428Y-26380000D01*
X156376666Y-26332380D01*
X156614761Y-26332380D01*
X156757619Y-26380000D01*
X157090952Y-26332380D02*
X157710000Y-26332380D01*
X157376666Y-26713333D01*
X157519523Y-26713333D01*
X157614761Y-26760952D01*
X157662380Y-26808571D01*
X157710000Y-26903809D01*
X157710000Y-27141904D01*
X157662380Y-27237142D01*
X157614761Y-27284761D01*
X157519523Y-27332380D01*
X157233809Y-27332380D01*
X157138571Y-27284761D01*
X157090952Y-27237142D01*
%TO.C,SW2*%
X142176666Y-91344761D02*
X142319523Y-91392380D01*
X142557619Y-91392380D01*
X142652857Y-91344761D01*
X142700476Y-91297142D01*
X142748095Y-91201904D01*
X142748095Y-91106666D01*
X142700476Y-91011428D01*
X142652857Y-90963809D01*
X142557619Y-90916190D01*
X142367142Y-90868571D01*
X142271904Y-90820952D01*
X142224285Y-90773333D01*
X142176666Y-90678095D01*
X142176666Y-90582857D01*
X142224285Y-90487619D01*
X142271904Y-90440000D01*
X142367142Y-90392380D01*
X142605238Y-90392380D01*
X142748095Y-90440000D01*
X143081428Y-90392380D02*
X143319523Y-91392380D01*
X143510000Y-90678095D01*
X143700476Y-91392380D01*
X143938571Y-90392380D01*
X144271904Y-90487619D02*
X144319523Y-90440000D01*
X144414761Y-90392380D01*
X144652857Y-90392380D01*
X144748095Y-90440000D01*
X144795714Y-90487619D01*
X144843333Y-90582857D01*
X144843333Y-90678095D01*
X144795714Y-90820952D01*
X144224285Y-91392380D01*
X144843333Y-91392380D01*
%TO.C,U10*%
X120312380Y-8858095D02*
X121121904Y-8858095D01*
X121217142Y-8810476D01*
X121264761Y-8762857D01*
X121312380Y-8667619D01*
X121312380Y-8477142D01*
X121264761Y-8381904D01*
X121217142Y-8334285D01*
X121121904Y-8286666D01*
X120312380Y-8286666D01*
X121312380Y-7286666D02*
X121312380Y-7858095D01*
X121312380Y-7572380D02*
X120312380Y-7572380D01*
X120455238Y-7667619D01*
X120550476Y-7762857D01*
X120598095Y-7858095D01*
X120312380Y-6667619D02*
X120312380Y-6572380D01*
X120360000Y-6477142D01*
X120407619Y-6429523D01*
X120502857Y-6381904D01*
X120693333Y-6334285D01*
X120931428Y-6334285D01*
X121121904Y-6381904D01*
X121217142Y-6429523D01*
X121264761Y-6477142D01*
X121312380Y-6572380D01*
X121312380Y-6667619D01*
X121264761Y-6762857D01*
X121217142Y-6810476D01*
X121121904Y-6858095D01*
X120931428Y-6905714D01*
X120693333Y-6905714D01*
X120502857Y-6858095D01*
X120407619Y-6810476D01*
X120360000Y-6762857D01*
X120312380Y-6667619D01*
%TO.C,DIS5*%
X131897619Y-27332380D02*
X131897619Y-26332380D01*
X132135714Y-26332380D01*
X132278571Y-26380000D01*
X132373809Y-26475238D01*
X132421428Y-26570476D01*
X132469047Y-26760952D01*
X132469047Y-26903809D01*
X132421428Y-27094285D01*
X132373809Y-27189523D01*
X132278571Y-27284761D01*
X132135714Y-27332380D01*
X131897619Y-27332380D01*
X132897619Y-27332380D02*
X132897619Y-26332380D01*
X133326190Y-27284761D02*
X133469047Y-27332380D01*
X133707142Y-27332380D01*
X133802380Y-27284761D01*
X133850000Y-27237142D01*
X133897619Y-27141904D01*
X133897619Y-27046666D01*
X133850000Y-26951428D01*
X133802380Y-26903809D01*
X133707142Y-26856190D01*
X133516666Y-26808571D01*
X133421428Y-26760952D01*
X133373809Y-26713333D01*
X133326190Y-26618095D01*
X133326190Y-26522857D01*
X133373809Y-26427619D01*
X133421428Y-26380000D01*
X133516666Y-26332380D01*
X133754761Y-26332380D01*
X133897619Y-26380000D01*
X134802380Y-26332380D02*
X134326190Y-26332380D01*
X134278571Y-26808571D01*
X134326190Y-26760952D01*
X134421428Y-26713333D01*
X134659523Y-26713333D01*
X134754761Y-26760952D01*
X134802380Y-26808571D01*
X134850000Y-26903809D01*
X134850000Y-27141904D01*
X134802380Y-27237142D01*
X134754761Y-27284761D01*
X134659523Y-27332380D01*
X134421428Y-27332380D01*
X134326190Y-27284761D01*
X134278571Y-27237142D01*
%TO.C,C10*%
X120767142Y-5702857D02*
X120814761Y-5750476D01*
X120862380Y-5893333D01*
X120862380Y-5988571D01*
X120814761Y-6131428D01*
X120719523Y-6226666D01*
X120624285Y-6274285D01*
X120433809Y-6321904D01*
X120290952Y-6321904D01*
X120100476Y-6274285D01*
X120005238Y-6226666D01*
X119910000Y-6131428D01*
X119862380Y-5988571D01*
X119862380Y-5893333D01*
X119910000Y-5750476D01*
X119957619Y-5702857D01*
X120862380Y-4750476D02*
X120862380Y-5321904D01*
X120862380Y-5036190D02*
X119862380Y-5036190D01*
X120005238Y-5131428D01*
X120100476Y-5226666D01*
X120148095Y-5321904D01*
X119862380Y-4131428D02*
X119862380Y-4036190D01*
X119910000Y-3940952D01*
X119957619Y-3893333D01*
X120052857Y-3845714D01*
X120243333Y-3798095D01*
X120481428Y-3798095D01*
X120671904Y-3845714D01*
X120767142Y-3893333D01*
X120814761Y-3940952D01*
X120862380Y-4036190D01*
X120862380Y-4131428D01*
X120814761Y-4226666D01*
X120767142Y-4274285D01*
X120671904Y-4321904D01*
X120481428Y-4369523D01*
X120243333Y-4369523D01*
X120052857Y-4321904D01*
X119957619Y-4274285D01*
X119910000Y-4226666D01*
X119862380Y-4131428D01*
%TO.C,DIS6*%
X120467619Y-27332380D02*
X120467619Y-26332380D01*
X120705714Y-26332380D01*
X120848571Y-26380000D01*
X120943809Y-26475238D01*
X120991428Y-26570476D01*
X121039047Y-26760952D01*
X121039047Y-26903809D01*
X120991428Y-27094285D01*
X120943809Y-27189523D01*
X120848571Y-27284761D01*
X120705714Y-27332380D01*
X120467619Y-27332380D01*
X121467619Y-27332380D02*
X121467619Y-26332380D01*
X121896190Y-27284761D02*
X122039047Y-27332380D01*
X122277142Y-27332380D01*
X122372380Y-27284761D01*
X122420000Y-27237142D01*
X122467619Y-27141904D01*
X122467619Y-27046666D01*
X122420000Y-26951428D01*
X122372380Y-26903809D01*
X122277142Y-26856190D01*
X122086666Y-26808571D01*
X121991428Y-26760952D01*
X121943809Y-26713333D01*
X121896190Y-26618095D01*
X121896190Y-26522857D01*
X121943809Y-26427619D01*
X121991428Y-26380000D01*
X122086666Y-26332380D01*
X122324761Y-26332380D01*
X122467619Y-26380000D01*
X123324761Y-26332380D02*
X123134285Y-26332380D01*
X123039047Y-26380000D01*
X122991428Y-26427619D01*
X122896190Y-26570476D01*
X122848571Y-26760952D01*
X122848571Y-27141904D01*
X122896190Y-27237142D01*
X122943809Y-27284761D01*
X123039047Y-27332380D01*
X123229523Y-27332380D01*
X123324761Y-27284761D01*
X123372380Y-27237142D01*
X123420000Y-27141904D01*
X123420000Y-26903809D01*
X123372380Y-26808571D01*
X123324761Y-26760952D01*
X123229523Y-26713333D01*
X123039047Y-26713333D01*
X122943809Y-26760952D01*
X122896190Y-26808571D01*
X122848571Y-26903809D01*
%TO.C,Y1*%
X106103809Y-2801190D02*
X106103809Y-3277380D01*
X105770476Y-2277380D02*
X106103809Y-2801190D01*
X106437142Y-2277380D01*
X107294285Y-3277380D02*
X106722857Y-3277380D01*
X107008571Y-3277380D02*
X107008571Y-2277380D01*
X106913333Y-2420238D01*
X106818095Y-2515476D01*
X106722857Y-2563095D01*
%TO.C,U9*%
X72052380Y-12191904D02*
X72861904Y-12191904D01*
X72957142Y-12144285D01*
X73004761Y-12096666D01*
X73052380Y-12001428D01*
X73052380Y-11810952D01*
X73004761Y-11715714D01*
X72957142Y-11668095D01*
X72861904Y-11620476D01*
X72052380Y-11620476D01*
X73052380Y-11096666D02*
X73052380Y-10906190D01*
X73004761Y-10810952D01*
X72957142Y-10763333D01*
X72814285Y-10668095D01*
X72623809Y-10620476D01*
X72242857Y-10620476D01*
X72147619Y-10668095D01*
X72100000Y-10715714D01*
X72052380Y-10810952D01*
X72052380Y-11001428D01*
X72100000Y-11096666D01*
X72147619Y-11144285D01*
X72242857Y-11191904D01*
X72480952Y-11191904D01*
X72576190Y-11144285D01*
X72623809Y-11096666D01*
X72671428Y-11001428D01*
X72671428Y-10810952D01*
X72623809Y-10715714D01*
X72576190Y-10668095D01*
X72480952Y-10620476D01*
%TO.C,U8*%
X25062380Y-12191904D02*
X25871904Y-12191904D01*
X25967142Y-12144285D01*
X26014761Y-12096666D01*
X26062380Y-12001428D01*
X26062380Y-11810952D01*
X26014761Y-11715714D01*
X25967142Y-11668095D01*
X25871904Y-11620476D01*
X25062380Y-11620476D01*
X25490952Y-11001428D02*
X25443333Y-11096666D01*
X25395714Y-11144285D01*
X25300476Y-11191904D01*
X25252857Y-11191904D01*
X25157619Y-11144285D01*
X25110000Y-11096666D01*
X25062380Y-11001428D01*
X25062380Y-10810952D01*
X25110000Y-10715714D01*
X25157619Y-10668095D01*
X25252857Y-10620476D01*
X25300476Y-10620476D01*
X25395714Y-10668095D01*
X25443333Y-10715714D01*
X25490952Y-10810952D01*
X25490952Y-11001428D01*
X25538571Y-11096666D01*
X25586190Y-11144285D01*
X25681428Y-11191904D01*
X25871904Y-11191904D01*
X25967142Y-11144285D01*
X26014761Y-11096666D01*
X26062380Y-11001428D01*
X26062380Y-10810952D01*
X26014761Y-10715714D01*
X25967142Y-10668095D01*
X25871904Y-10620476D01*
X25681428Y-10620476D01*
X25586190Y-10668095D01*
X25538571Y-10715714D01*
X25490952Y-10810952D01*
%TO.C,U7*%
X61892380Y-57911904D02*
X62701904Y-57911904D01*
X62797142Y-57864285D01*
X62844761Y-57816666D01*
X62892380Y-57721428D01*
X62892380Y-57530952D01*
X62844761Y-57435714D01*
X62797142Y-57388095D01*
X62701904Y-57340476D01*
X61892380Y-57340476D01*
X61892380Y-56959523D02*
X61892380Y-56292857D01*
X62892380Y-56721428D01*
%TO.C,U6*%
X88562380Y-76961904D02*
X89371904Y-76961904D01*
X89467142Y-76914285D01*
X89514761Y-76866666D01*
X89562380Y-76771428D01*
X89562380Y-76580952D01*
X89514761Y-76485714D01*
X89467142Y-76438095D01*
X89371904Y-76390476D01*
X88562380Y-76390476D01*
X88562380Y-75485714D02*
X88562380Y-75676190D01*
X88610000Y-75771428D01*
X88657619Y-75819047D01*
X88800476Y-75914285D01*
X88990952Y-75961904D01*
X89371904Y-75961904D01*
X89467142Y-75914285D01*
X89514761Y-75866666D01*
X89562380Y-75771428D01*
X89562380Y-75580952D01*
X89514761Y-75485714D01*
X89467142Y-75438095D01*
X89371904Y-75390476D01*
X89133809Y-75390476D01*
X89038571Y-75438095D01*
X88990952Y-75485714D01*
X88943333Y-75580952D01*
X88943333Y-75771428D01*
X88990952Y-75866666D01*
X89038571Y-75914285D01*
X89133809Y-75961904D01*
%TO.C,U5*%
X70782380Y-37591904D02*
X71591904Y-37591904D01*
X71687142Y-37544285D01*
X71734761Y-37496666D01*
X71782380Y-37401428D01*
X71782380Y-37210952D01*
X71734761Y-37115714D01*
X71687142Y-37068095D01*
X71591904Y-37020476D01*
X70782380Y-37020476D01*
X70782380Y-36068095D02*
X70782380Y-36544285D01*
X71258571Y-36591904D01*
X71210952Y-36544285D01*
X71163333Y-36449047D01*
X71163333Y-36210952D01*
X71210952Y-36115714D01*
X71258571Y-36068095D01*
X71353809Y-36020476D01*
X71591904Y-36020476D01*
X71687142Y-36068095D01*
X71734761Y-36115714D01*
X71782380Y-36210952D01*
X71782380Y-36449047D01*
X71734761Y-36544285D01*
X71687142Y-36591904D01*
%TO.C,U4*%
X25062380Y-37591904D02*
X25871904Y-37591904D01*
X25967142Y-37544285D01*
X26014761Y-37496666D01*
X26062380Y-37401428D01*
X26062380Y-37210952D01*
X26014761Y-37115714D01*
X25967142Y-37068095D01*
X25871904Y-37020476D01*
X25062380Y-37020476D01*
X25395714Y-36115714D02*
X26062380Y-36115714D01*
X25014761Y-36353809D02*
X25729047Y-36591904D01*
X25729047Y-35972857D01*
%TO.C,U3*%
X92372380Y-57911904D02*
X93181904Y-57911904D01*
X93277142Y-57864285D01*
X93324761Y-57816666D01*
X93372380Y-57721428D01*
X93372380Y-57530952D01*
X93324761Y-57435714D01*
X93277142Y-57388095D01*
X93181904Y-57340476D01*
X92372380Y-57340476D01*
X92372380Y-56959523D02*
X92372380Y-56340476D01*
X92753333Y-56673809D01*
X92753333Y-56530952D01*
X92800952Y-56435714D01*
X92848571Y-56388095D01*
X92943809Y-56340476D01*
X93181904Y-56340476D01*
X93277142Y-56388095D01*
X93324761Y-56435714D01*
X93372380Y-56530952D01*
X93372380Y-56816666D01*
X93324761Y-56911904D01*
X93277142Y-56959523D01*
%TO.C,U2*%
X25062380Y-57911904D02*
X25871904Y-57911904D01*
X25967142Y-57864285D01*
X26014761Y-57816666D01*
X26062380Y-57721428D01*
X26062380Y-57530952D01*
X26014761Y-57435714D01*
X25967142Y-57388095D01*
X25871904Y-57340476D01*
X25062380Y-57340476D01*
X25157619Y-56911904D02*
X25110000Y-56864285D01*
X25062380Y-56769047D01*
X25062380Y-56530952D01*
X25110000Y-56435714D01*
X25157619Y-56388095D01*
X25252857Y-56340476D01*
X25348095Y-56340476D01*
X25490952Y-56388095D01*
X26062380Y-56959523D01*
X26062380Y-56340476D01*
%TO.C,U1*%
X25062380Y-78231904D02*
X25871904Y-78231904D01*
X25967142Y-78184285D01*
X26014761Y-78136666D01*
X26062380Y-78041428D01*
X26062380Y-77850952D01*
X26014761Y-77755714D01*
X25967142Y-77708095D01*
X25871904Y-77660476D01*
X25062380Y-77660476D01*
X26062380Y-76660476D02*
X26062380Y-77231904D01*
X26062380Y-76946190D02*
X25062380Y-76946190D01*
X25205238Y-77041428D01*
X25300476Y-77136666D01*
X25348095Y-77231904D01*
%TO.C,SW1*%
X8266666Y-74604761D02*
X8409523Y-74652380D01*
X8647619Y-74652380D01*
X8742857Y-74604761D01*
X8790476Y-74557142D01*
X8838095Y-74461904D01*
X8838095Y-74366666D01*
X8790476Y-74271428D01*
X8742857Y-74223809D01*
X8647619Y-74176190D01*
X8457142Y-74128571D01*
X8361904Y-74080952D01*
X8314285Y-74033333D01*
X8266666Y-73938095D01*
X8266666Y-73842857D01*
X8314285Y-73747619D01*
X8361904Y-73700000D01*
X8457142Y-73652380D01*
X8695238Y-73652380D01*
X8838095Y-73700000D01*
X9171428Y-73652380D02*
X9409523Y-74652380D01*
X9600000Y-73938095D01*
X9790476Y-74652380D01*
X10028571Y-73652380D01*
X10933333Y-74652380D02*
X10361904Y-74652380D01*
X10647619Y-74652380D02*
X10647619Y-73652380D01*
X10552380Y-73795238D01*
X10457142Y-73890476D01*
X10361904Y-73938095D01*
%TO.C,J1*%
X18716666Y-6012380D02*
X18716666Y-6726666D01*
X18669047Y-6869523D01*
X18573809Y-6964761D01*
X18430952Y-7012380D01*
X18335714Y-7012380D01*
X19716666Y-7012380D02*
X19145238Y-7012380D01*
X19430952Y-7012380D02*
X19430952Y-6012380D01*
X19335714Y-6155238D01*
X19240476Y-6250476D01*
X19145238Y-6298095D01*
%TO.C,C12*%
X107277142Y-14632857D02*
X107324761Y-14680476D01*
X107372380Y-14823333D01*
X107372380Y-14918571D01*
X107324761Y-15061428D01*
X107229523Y-15156666D01*
X107134285Y-15204285D01*
X106943809Y-15251904D01*
X106800952Y-15251904D01*
X106610476Y-15204285D01*
X106515238Y-15156666D01*
X106420000Y-15061428D01*
X106372380Y-14918571D01*
X106372380Y-14823333D01*
X106420000Y-14680476D01*
X106467619Y-14632857D01*
X107372380Y-13680476D02*
X107372380Y-14251904D01*
X107372380Y-13966190D02*
X106372380Y-13966190D01*
X106515238Y-14061428D01*
X106610476Y-14156666D01*
X106658095Y-14251904D01*
X106467619Y-13299523D02*
X106420000Y-13251904D01*
X106372380Y-13156666D01*
X106372380Y-12918571D01*
X106420000Y-12823333D01*
X106467619Y-12775714D01*
X106562857Y-12728095D01*
X106658095Y-12728095D01*
X106800952Y-12775714D01*
X107372380Y-13347142D01*
X107372380Y-12728095D01*
%TO.C,C11*%
X102197142Y-14632857D02*
X102244761Y-14680476D01*
X102292380Y-14823333D01*
X102292380Y-14918571D01*
X102244761Y-15061428D01*
X102149523Y-15156666D01*
X102054285Y-15204285D01*
X101863809Y-15251904D01*
X101720952Y-15251904D01*
X101530476Y-15204285D01*
X101435238Y-15156666D01*
X101340000Y-15061428D01*
X101292380Y-14918571D01*
X101292380Y-14823333D01*
X101340000Y-14680476D01*
X101387619Y-14632857D01*
X102292380Y-13680476D02*
X102292380Y-14251904D01*
X102292380Y-13966190D02*
X101292380Y-13966190D01*
X101435238Y-14061428D01*
X101530476Y-14156666D01*
X101578095Y-14251904D01*
X102292380Y-12728095D02*
X102292380Y-13299523D01*
X102292380Y-13013809D02*
X101292380Y-13013809D01*
X101435238Y-13109047D01*
X101530476Y-13204285D01*
X101578095Y-13299523D01*
%TO.C,C9*%
X73777142Y-10346666D02*
X73824761Y-10394285D01*
X73872380Y-10537142D01*
X73872380Y-10632380D01*
X73824761Y-10775238D01*
X73729523Y-10870476D01*
X73634285Y-10918095D01*
X73443809Y-10965714D01*
X73300952Y-10965714D01*
X73110476Y-10918095D01*
X73015238Y-10870476D01*
X72920000Y-10775238D01*
X72872380Y-10632380D01*
X72872380Y-10537142D01*
X72920000Y-10394285D01*
X72967619Y-10346666D01*
X73872380Y-9870476D02*
X73872380Y-9680000D01*
X73824761Y-9584761D01*
X73777142Y-9537142D01*
X73634285Y-9441904D01*
X73443809Y-9394285D01*
X73062857Y-9394285D01*
X72967619Y-9441904D01*
X72920000Y-9489523D01*
X72872380Y-9584761D01*
X72872380Y-9775238D01*
X72920000Y-9870476D01*
X72967619Y-9918095D01*
X73062857Y-9965714D01*
X73300952Y-9965714D01*
X73396190Y-9918095D01*
X73443809Y-9870476D01*
X73491428Y-9775238D01*
X73491428Y-9584761D01*
X73443809Y-9489523D01*
X73396190Y-9441904D01*
X73300952Y-9394285D01*
%TO.C,C8*%
X34103333Y-20917142D02*
X34055714Y-20964761D01*
X33912857Y-21012380D01*
X33817619Y-21012380D01*
X33674761Y-20964761D01*
X33579523Y-20869523D01*
X33531904Y-20774285D01*
X33484285Y-20583809D01*
X33484285Y-20440952D01*
X33531904Y-20250476D01*
X33579523Y-20155238D01*
X33674761Y-20060000D01*
X33817619Y-20012380D01*
X33912857Y-20012380D01*
X34055714Y-20060000D01*
X34103333Y-20107619D01*
X34674761Y-20440952D02*
X34579523Y-20393333D01*
X34531904Y-20345714D01*
X34484285Y-20250476D01*
X34484285Y-20202857D01*
X34531904Y-20107619D01*
X34579523Y-20060000D01*
X34674761Y-20012380D01*
X34865238Y-20012380D01*
X34960476Y-20060000D01*
X35008095Y-20107619D01*
X35055714Y-20202857D01*
X35055714Y-20250476D01*
X35008095Y-20345714D01*
X34960476Y-20393333D01*
X34865238Y-20440952D01*
X34674761Y-20440952D01*
X34579523Y-20488571D01*
X34531904Y-20536190D01*
X34484285Y-20631428D01*
X34484285Y-20821904D01*
X34531904Y-20917142D01*
X34579523Y-20964761D01*
X34674761Y-21012380D01*
X34865238Y-21012380D01*
X34960476Y-20964761D01*
X35008095Y-20917142D01*
X35055714Y-20821904D01*
X35055714Y-20631428D01*
X35008095Y-20536190D01*
X34960476Y-20488571D01*
X34865238Y-20440952D01*
%TO.C,C7*%
X63617142Y-56026666D02*
X63664761Y-56074285D01*
X63712380Y-56217142D01*
X63712380Y-56312380D01*
X63664761Y-56455238D01*
X63569523Y-56550476D01*
X63474285Y-56598095D01*
X63283809Y-56645714D01*
X63140952Y-56645714D01*
X62950476Y-56598095D01*
X62855238Y-56550476D01*
X62760000Y-56455238D01*
X62712380Y-56312380D01*
X62712380Y-56217142D01*
X62760000Y-56074285D01*
X62807619Y-56026666D01*
X62712380Y-55693333D02*
X62712380Y-55026666D01*
X63712380Y-55455238D01*
%TO.C,C6*%
X90287142Y-75076666D02*
X90334761Y-75124285D01*
X90382380Y-75267142D01*
X90382380Y-75362380D01*
X90334761Y-75505238D01*
X90239523Y-75600476D01*
X90144285Y-75648095D01*
X89953809Y-75695714D01*
X89810952Y-75695714D01*
X89620476Y-75648095D01*
X89525238Y-75600476D01*
X89430000Y-75505238D01*
X89382380Y-75362380D01*
X89382380Y-75267142D01*
X89430000Y-75124285D01*
X89477619Y-75076666D01*
X89382380Y-74219523D02*
X89382380Y-74410000D01*
X89430000Y-74505238D01*
X89477619Y-74552857D01*
X89620476Y-74648095D01*
X89810952Y-74695714D01*
X90191904Y-74695714D01*
X90287142Y-74648095D01*
X90334761Y-74600476D01*
X90382380Y-74505238D01*
X90382380Y-74314761D01*
X90334761Y-74219523D01*
X90287142Y-74171904D01*
X90191904Y-74124285D01*
X89953809Y-74124285D01*
X89858571Y-74171904D01*
X89810952Y-74219523D01*
X89763333Y-74314761D01*
X89763333Y-74505238D01*
X89810952Y-74600476D01*
X89858571Y-74648095D01*
X89953809Y-74695714D01*
%TO.C,C5*%
X72507142Y-31936666D02*
X72554761Y-31984285D01*
X72602380Y-32127142D01*
X72602380Y-32222380D01*
X72554761Y-32365238D01*
X72459523Y-32460476D01*
X72364285Y-32508095D01*
X72173809Y-32555714D01*
X72030952Y-32555714D01*
X71840476Y-32508095D01*
X71745238Y-32460476D01*
X71650000Y-32365238D01*
X71602380Y-32222380D01*
X71602380Y-32127142D01*
X71650000Y-31984285D01*
X71697619Y-31936666D01*
X71602380Y-31031904D02*
X71602380Y-31508095D01*
X72078571Y-31555714D01*
X72030952Y-31508095D01*
X71983333Y-31412857D01*
X71983333Y-31174761D01*
X72030952Y-31079523D01*
X72078571Y-31031904D01*
X72173809Y-30984285D01*
X72411904Y-30984285D01*
X72507142Y-31031904D01*
X72554761Y-31079523D01*
X72602380Y-31174761D01*
X72602380Y-31412857D01*
X72554761Y-31508095D01*
X72507142Y-31555714D01*
%TO.C,C4*%
X25517142Y-31896666D02*
X25564761Y-31944285D01*
X25612380Y-32087142D01*
X25612380Y-32182380D01*
X25564761Y-32325238D01*
X25469523Y-32420476D01*
X25374285Y-32468095D01*
X25183809Y-32515714D01*
X25040952Y-32515714D01*
X24850476Y-32468095D01*
X24755238Y-32420476D01*
X24660000Y-32325238D01*
X24612380Y-32182380D01*
X24612380Y-32087142D01*
X24660000Y-31944285D01*
X24707619Y-31896666D01*
X24945714Y-31039523D02*
X25612380Y-31039523D01*
X24564761Y-31277619D02*
X25279047Y-31515714D01*
X25279047Y-30896666D01*
%TO.C,C3*%
X94097142Y-56066666D02*
X94144761Y-56114285D01*
X94192380Y-56257142D01*
X94192380Y-56352380D01*
X94144761Y-56495238D01*
X94049523Y-56590476D01*
X93954285Y-56638095D01*
X93763809Y-56685714D01*
X93620952Y-56685714D01*
X93430476Y-56638095D01*
X93335238Y-56590476D01*
X93240000Y-56495238D01*
X93192380Y-56352380D01*
X93192380Y-56257142D01*
X93240000Y-56114285D01*
X93287619Y-56066666D01*
X93192380Y-55733333D02*
X93192380Y-55114285D01*
X93573333Y-55447619D01*
X93573333Y-55304761D01*
X93620952Y-55209523D01*
X93668571Y-55161904D01*
X93763809Y-55114285D01*
X94001904Y-55114285D01*
X94097142Y-55161904D01*
X94144761Y-55209523D01*
X94192380Y-55304761D01*
X94192380Y-55590476D01*
X94144761Y-55685714D01*
X94097142Y-55733333D01*
%TO.C,C2*%
X26787142Y-56066666D02*
X26834761Y-56114285D01*
X26882380Y-56257142D01*
X26882380Y-56352380D01*
X26834761Y-56495238D01*
X26739523Y-56590476D01*
X26644285Y-56638095D01*
X26453809Y-56685714D01*
X26310952Y-56685714D01*
X26120476Y-56638095D01*
X26025238Y-56590476D01*
X25930000Y-56495238D01*
X25882380Y-56352380D01*
X25882380Y-56257142D01*
X25930000Y-56114285D01*
X25977619Y-56066666D01*
X25977619Y-55685714D02*
X25930000Y-55638095D01*
X25882380Y-55542857D01*
X25882380Y-55304761D01*
X25930000Y-55209523D01*
X25977619Y-55161904D01*
X26072857Y-55114285D01*
X26168095Y-55114285D01*
X26310952Y-55161904D01*
X26882380Y-55733333D01*
X26882380Y-55114285D01*
%TO.C,C1*%
X26787142Y-72536666D02*
X26834761Y-72584285D01*
X26882380Y-72727142D01*
X26882380Y-72822380D01*
X26834761Y-72965238D01*
X26739523Y-73060476D01*
X26644285Y-73108095D01*
X26453809Y-73155714D01*
X26310952Y-73155714D01*
X26120476Y-73108095D01*
X26025238Y-73060476D01*
X25930000Y-72965238D01*
X25882380Y-72822380D01*
X25882380Y-72727142D01*
X25930000Y-72584285D01*
X25977619Y-72536666D01*
X26882380Y-71584285D02*
X26882380Y-72155714D01*
X26882380Y-71870000D02*
X25882380Y-71870000D01*
X26025238Y-71965238D01*
X26120476Y-72060476D01*
X26168095Y-72155714D01*
%TD*%
M02*
