G04 #@! TF.GenerationSoftware,KiCad,Pcbnew,5.1.6-c6e7f7d~87~ubuntu16.04.1*
G04 #@! TF.CreationDate,2021-01-23T16:03:14-05:00*
G04 #@! TF.ProjectId,riscy_reg,72697363-795f-4726-9567-2e6b69636164,rev?*
G04 #@! TF.SameCoordinates,Original*
G04 #@! TF.FileFunction,Copper,L2,Bot*
G04 #@! TF.FilePolarity,Positive*
%FSLAX46Y46*%
G04 Gerber Fmt 4.6, Leading zero omitted, Abs format (unit mm)*
G04 Created by KiCad (PCBNEW 5.1.6-c6e7f7d~87~ubuntu16.04.1) date 2021-01-23 16:03:14*
%MOMM*%
%LPD*%
G01*
G04 APERTURE LIST*
G04 #@! TA.AperFunction,ComponentPad*
%ADD10O,1.700000X1.700000*%
G04 #@! TD*
G04 #@! TA.AperFunction,ComponentPad*
%ADD11R,1.700000X1.700000*%
G04 #@! TD*
G04 #@! TA.AperFunction,ComponentPad*
%ADD12O,1.600000X1.600000*%
G04 #@! TD*
G04 #@! TA.AperFunction,ComponentPad*
%ADD13R,1.600000X1.600000*%
G04 #@! TD*
G04 #@! TA.AperFunction,ComponentPad*
%ADD14O,1.400000X1.400000*%
G04 #@! TD*
G04 #@! TA.AperFunction,ComponentPad*
%ADD15C,1.400000*%
G04 #@! TD*
G04 #@! TA.AperFunction,ComponentPad*
%ADD16C,1.800000*%
G04 #@! TD*
G04 #@! TA.AperFunction,ComponentPad*
%ADD17R,1.800000X1.800000*%
G04 #@! TD*
G04 #@! TA.AperFunction,ComponentPad*
%ADD18C,1.600000*%
G04 #@! TD*
G04 #@! TA.AperFunction,ViaPad*
%ADD19C,0.800000*%
G04 #@! TD*
G04 #@! TA.AperFunction,Conductor*
%ADD20C,0.250000*%
G04 #@! TD*
G04 APERTURE END LIST*
D10*
G04 #@! TO.P,J11,3*
G04 #@! TO.N,CLK*
X163830000Y-12700000D03*
G04 #@! TO.P,J11,2*
G04 #@! TO.N,GND*
X163830000Y-10160000D03*
D11*
G04 #@! TO.P,J11,1*
G04 #@! TO.N,+5V*
X163830000Y-7620000D03*
G04 #@! TD*
D12*
G04 #@! TO.P,U16,16*
G04 #@! TO.N,+5V*
X76200000Y-156210000D03*
G04 #@! TO.P,U16,8*
G04 #@! TO.N,GND*
X93980000Y-163830000D03*
G04 #@! TO.P,U16,15*
G04 #@! TO.N,N/C*
X78740000Y-156210000D03*
G04 #@! TO.P,U16,7*
G04 #@! TO.N,Net-(U16-Pad7)*
X91440000Y-163830000D03*
G04 #@! TO.P,U16,14*
G04 #@! TO.N,N/C*
X81280000Y-156210000D03*
G04 #@! TO.P,U16,6*
G04 #@! TO.N,Net-(U16-Pad6)*
X88900000Y-163830000D03*
G04 #@! TO.P,U16,13*
G04 #@! TO.N,N/C*
X83820000Y-156210000D03*
G04 #@! TO.P,U16,5*
G04 #@! TO.N,Net-(U16-Pad5)*
X86360000Y-163830000D03*
G04 #@! TO.P,U16,12*
G04 #@! TO.N,N/C*
X86360000Y-156210000D03*
G04 #@! TO.P,U16,4*
G04 #@! TO.N,Net-(U1-Pad1)*
X83820000Y-163830000D03*
G04 #@! TO.P,U16,11*
G04 #@! TO.N,N/C*
X88900000Y-156210000D03*
G04 #@! TO.P,U16,3*
G04 #@! TO.N,rd1*
X81280000Y-163830000D03*
G04 #@! TO.P,U16,10*
G04 #@! TO.N,N/C*
X91440000Y-156210000D03*
G04 #@! TO.P,U16,2*
G04 #@! TO.N,rd0*
X78740000Y-163830000D03*
G04 #@! TO.P,U16,9*
G04 #@! TO.N,N/C*
X93980000Y-156210000D03*
D13*
G04 #@! TO.P,U16,1*
G04 #@! TO.N,regclk*
X76200000Y-163830000D03*
G04 #@! TD*
D12*
G04 #@! TO.P,U15,20*
G04 #@! TO.N,+5V*
X139700000Y-134620000D03*
G04 #@! TO.P,U15,10*
G04 #@! TO.N,GND*
X162560000Y-142240000D03*
G04 #@! TO.P,U15,19*
G04 #@! TO.N,rdwb*
X142240000Y-134620000D03*
G04 #@! TO.P,U15,9*
G04 #@! TO.N,wb7*
X160020000Y-142240000D03*
G04 #@! TO.P,U15,18*
G04 #@! TO.N,Rrd0*
X144780000Y-134620000D03*
G04 #@! TO.P,U15,8*
G04 #@! TO.N,wb6*
X157480000Y-142240000D03*
G04 #@! TO.P,U15,17*
G04 #@! TO.N,Rrd1*
X147320000Y-134620000D03*
G04 #@! TO.P,U15,7*
G04 #@! TO.N,wb5*
X154940000Y-142240000D03*
G04 #@! TO.P,U15,16*
G04 #@! TO.N,Rrd2*
X149860000Y-134620000D03*
G04 #@! TO.P,U15,6*
G04 #@! TO.N,wb4*
X152400000Y-142240000D03*
G04 #@! TO.P,U15,15*
G04 #@! TO.N,Rrd3*
X152400000Y-134620000D03*
G04 #@! TO.P,U15,5*
G04 #@! TO.N,wb3*
X149860000Y-142240000D03*
G04 #@! TO.P,U15,14*
G04 #@! TO.N,Rrd4*
X154940000Y-134620000D03*
G04 #@! TO.P,U15,4*
G04 #@! TO.N,wb2*
X147320000Y-142240000D03*
G04 #@! TO.P,U15,13*
G04 #@! TO.N,Rrd5*
X157480000Y-134620000D03*
G04 #@! TO.P,U15,3*
G04 #@! TO.N,wb1*
X144780000Y-142240000D03*
G04 #@! TO.P,U15,12*
G04 #@! TO.N,Rrd6*
X160020000Y-134620000D03*
G04 #@! TO.P,U15,2*
G04 #@! TO.N,wb0*
X142240000Y-142240000D03*
G04 #@! TO.P,U15,11*
G04 #@! TO.N,Rrd7*
X162560000Y-134620000D03*
D13*
G04 #@! TO.P,U15,1*
G04 #@! TO.N,GND*
X139700000Y-142240000D03*
G04 #@! TD*
D12*
G04 #@! TO.P,U14,16*
G04 #@! TO.N,+5V*
X91440000Y-132080000D03*
G04 #@! TO.P,U14,8*
G04 #@! TO.N,GND*
X109220000Y-139700000D03*
G04 #@! TO.P,U14,15*
X93980000Y-132080000D03*
G04 #@! TO.P,U14,7*
G04 #@! TO.N,Net-(U14-Pad7)*
X106680000Y-139700000D03*
G04 #@! TO.P,U14,14*
G04 #@! TO.N,rs0*
X96520000Y-132080000D03*
G04 #@! TO.P,U14,6*
G04 #@! TO.N,Net-(D1-Pad2)*
X104140000Y-139700000D03*
G04 #@! TO.P,U14,13*
G04 #@! TO.N,Net-(D26-Pad2)*
X99060000Y-132080000D03*
G04 #@! TO.P,U14,5*
G04 #@! TO.N,Net-(D9-Pad2)*
X101600000Y-139700000D03*
G04 #@! TO.P,U14,12*
G04 #@! TO.N,c1*
X101600000Y-132080000D03*
G04 #@! TO.P,U14,4*
G04 #@! TO.N,c0*
X99060000Y-139700000D03*
G04 #@! TO.P,U14,11*
G04 #@! TO.N,Net-(D10-Pad2)*
X104140000Y-132080000D03*
G04 #@! TO.P,U14,3*
G04 #@! TO.N,Net-(D25-Pad2)*
X96520000Y-139700000D03*
G04 #@! TO.P,U14,10*
G04 #@! TO.N,Net-(D2-Pad2)*
X106680000Y-132080000D03*
G04 #@! TO.P,U14,2*
G04 #@! TO.N,rs1*
X93980000Y-139700000D03*
G04 #@! TO.P,U14,9*
G04 #@! TO.N,Net-(U14-Pad9)*
X109220000Y-132080000D03*
D13*
G04 #@! TO.P,U14,1*
G04 #@! TO.N,GND*
X91440000Y-139700000D03*
G04 #@! TD*
D12*
G04 #@! TO.P,U13,16*
G04 #@! TO.N,+5V*
X91440000Y-113030000D03*
G04 #@! TO.P,U13,8*
G04 #@! TO.N,GND*
X109220000Y-120650000D03*
G04 #@! TO.P,U13,15*
X93980000Y-113030000D03*
G04 #@! TO.P,U13,7*
G04 #@! TO.N,Net-(U13-Pad7)*
X106680000Y-120650000D03*
G04 #@! TO.P,U13,14*
G04 #@! TO.N,rs0*
X96520000Y-113030000D03*
G04 #@! TO.P,U13,6*
G04 #@! TO.N,Net-(D3-Pad2)*
X104140000Y-120650000D03*
G04 #@! TO.P,U13,13*
G04 #@! TO.N,Net-(D28-Pad2)*
X99060000Y-113030000D03*
G04 #@! TO.P,U13,5*
G04 #@! TO.N,Net-(D11-Pad2)*
X101600000Y-120650000D03*
G04 #@! TO.P,U13,12*
G04 #@! TO.N,c3*
X101600000Y-113030000D03*
G04 #@! TO.P,U13,4*
G04 #@! TO.N,c2*
X99060000Y-120650000D03*
G04 #@! TO.P,U13,11*
G04 #@! TO.N,Net-(D12-Pad2)*
X104140000Y-113030000D03*
G04 #@! TO.P,U13,3*
G04 #@! TO.N,Net-(D27-Pad2)*
X96520000Y-120650000D03*
G04 #@! TO.P,U13,10*
G04 #@! TO.N,Net-(D4-Pad2)*
X106680000Y-113030000D03*
G04 #@! TO.P,U13,2*
G04 #@! TO.N,rs1*
X93980000Y-120650000D03*
G04 #@! TO.P,U13,9*
G04 #@! TO.N,Net-(U13-Pad9)*
X109220000Y-113030000D03*
D13*
G04 #@! TO.P,U13,1*
G04 #@! TO.N,GND*
X91440000Y-120650000D03*
G04 #@! TD*
D12*
G04 #@! TO.P,U12,16*
G04 #@! TO.N,+5V*
X91440000Y-93980000D03*
G04 #@! TO.P,U12,8*
G04 #@! TO.N,GND*
X109220000Y-101600000D03*
G04 #@! TO.P,U12,15*
X93980000Y-93980000D03*
G04 #@! TO.P,U12,7*
G04 #@! TO.N,Net-(U12-Pad7)*
X106680000Y-101600000D03*
G04 #@! TO.P,U12,14*
G04 #@! TO.N,rs0*
X96520000Y-93980000D03*
G04 #@! TO.P,U12,6*
G04 #@! TO.N,Net-(D5-Pad2)*
X104140000Y-101600000D03*
G04 #@! TO.P,U12,13*
G04 #@! TO.N,Net-(D30-Pad2)*
X99060000Y-93980000D03*
G04 #@! TO.P,U12,5*
G04 #@! TO.N,Net-(D13-Pad2)*
X101600000Y-101600000D03*
G04 #@! TO.P,U12,12*
G04 #@! TO.N,c5*
X101600000Y-93980000D03*
G04 #@! TO.P,U12,4*
G04 #@! TO.N,c4*
X99060000Y-101600000D03*
G04 #@! TO.P,U12,11*
G04 #@! TO.N,Net-(D14-Pad2)*
X104140000Y-93980000D03*
G04 #@! TO.P,U12,3*
G04 #@! TO.N,Net-(D29-Pad2)*
X96520000Y-101600000D03*
G04 #@! TO.P,U12,10*
G04 #@! TO.N,Net-(D6-Pad2)*
X106680000Y-93980000D03*
G04 #@! TO.P,U12,2*
G04 #@! TO.N,rs1*
X93980000Y-101600000D03*
G04 #@! TO.P,U12,9*
G04 #@! TO.N,Net-(U12-Pad9)*
X109220000Y-93980000D03*
D13*
G04 #@! TO.P,U12,1*
G04 #@! TO.N,GND*
X91440000Y-101600000D03*
G04 #@! TD*
D12*
G04 #@! TO.P,U11,16*
G04 #@! TO.N,+5V*
X91440000Y-76200000D03*
G04 #@! TO.P,U11,8*
G04 #@! TO.N,GND*
X109220000Y-83820000D03*
G04 #@! TO.P,U11,15*
X93980000Y-76200000D03*
G04 #@! TO.P,U11,7*
G04 #@! TO.N,Net-(U11-Pad7)*
X106680000Y-83820000D03*
G04 #@! TO.P,U11,14*
G04 #@! TO.N,rs0*
X96520000Y-76200000D03*
G04 #@! TO.P,U11,6*
G04 #@! TO.N,Net-(D7-Pad2)*
X104140000Y-83820000D03*
G04 #@! TO.P,U11,13*
G04 #@! TO.N,Net-(D32-Pad2)*
X99060000Y-76200000D03*
G04 #@! TO.P,U11,5*
G04 #@! TO.N,Net-(D15-Pad2)*
X101600000Y-83820000D03*
G04 #@! TO.P,U11,12*
G04 #@! TO.N,c7*
X101600000Y-76200000D03*
G04 #@! TO.P,U11,4*
G04 #@! TO.N,c6*
X99060000Y-83820000D03*
G04 #@! TO.P,U11,11*
G04 #@! TO.N,Net-(D16-Pad2)*
X104140000Y-76200000D03*
G04 #@! TO.P,U11,3*
G04 #@! TO.N,Net-(D31-Pad2)*
X96520000Y-83820000D03*
G04 #@! TO.P,U11,10*
G04 #@! TO.N,Net-(D8-Pad2)*
X106680000Y-76200000D03*
G04 #@! TO.P,U11,2*
G04 #@! TO.N,rs1*
X93980000Y-83820000D03*
G04 #@! TO.P,U11,9*
G04 #@! TO.N,Net-(U11-Pad9)*
X109220000Y-76200000D03*
D13*
G04 #@! TO.P,U11,1*
G04 #@! TO.N,GND*
X91440000Y-83820000D03*
G04 #@! TD*
D12*
G04 #@! TO.P,U10,16*
G04 #@! TO.N,+5V*
X91440000Y-57150000D03*
G04 #@! TO.P,U10,8*
G04 #@! TO.N,GND*
X109220000Y-64770000D03*
G04 #@! TO.P,U10,15*
X93980000Y-57150000D03*
G04 #@! TO.P,U10,7*
G04 #@! TO.N,Net-(U10-Pad7)*
X106680000Y-64770000D03*
G04 #@! TO.P,U10,14*
G04 #@! TO.N,rd0*
X96520000Y-57150000D03*
G04 #@! TO.P,U10,6*
G04 #@! TO.N,Net-(D1-Pad2)*
X104140000Y-64770000D03*
G04 #@! TO.P,U10,13*
G04 #@! TO.N,Net-(D26-Pad2)*
X99060000Y-57150000D03*
G04 #@! TO.P,U10,5*
G04 #@! TO.N,Net-(D9-Pad2)*
X101600000Y-64770000D03*
G04 #@! TO.P,U10,12*
G04 #@! TO.N,c1*
X101600000Y-57150000D03*
G04 #@! TO.P,U10,4*
G04 #@! TO.N,c0*
X99060000Y-64770000D03*
G04 #@! TO.P,U10,11*
G04 #@! TO.N,Net-(D10-Pad2)*
X104140000Y-57150000D03*
G04 #@! TO.P,U10,3*
G04 #@! TO.N,Net-(D25-Pad2)*
X96520000Y-64770000D03*
G04 #@! TO.P,U10,10*
G04 #@! TO.N,Net-(D2-Pad2)*
X106680000Y-57150000D03*
G04 #@! TO.P,U10,2*
G04 #@! TO.N,rd1*
X93980000Y-64770000D03*
G04 #@! TO.P,U10,9*
G04 #@! TO.N,Net-(U10-Pad9)*
X109220000Y-57150000D03*
D13*
G04 #@! TO.P,U10,1*
G04 #@! TO.N,GND*
X91440000Y-64770000D03*
G04 #@! TD*
D12*
G04 #@! TO.P,U9,16*
G04 #@! TO.N,+5V*
X91440000Y-39370000D03*
G04 #@! TO.P,U9,8*
G04 #@! TO.N,GND*
X109220000Y-46990000D03*
G04 #@! TO.P,U9,15*
X93980000Y-39370000D03*
G04 #@! TO.P,U9,7*
G04 #@! TO.N,Net-(U5-Pad7)*
X106680000Y-46990000D03*
G04 #@! TO.P,U9,14*
G04 #@! TO.N,rd0*
X96520000Y-39370000D03*
G04 #@! TO.P,U9,6*
G04 #@! TO.N,Net-(D3-Pad2)*
X104140000Y-46990000D03*
G04 #@! TO.P,U9,13*
G04 #@! TO.N,Net-(D28-Pad2)*
X99060000Y-39370000D03*
G04 #@! TO.P,U9,5*
G04 #@! TO.N,Net-(D11-Pad2)*
X101600000Y-46990000D03*
G04 #@! TO.P,U9,12*
G04 #@! TO.N,c3*
X101600000Y-39370000D03*
G04 #@! TO.P,U9,4*
G04 #@! TO.N,c2*
X99060000Y-46990000D03*
G04 #@! TO.P,U9,11*
G04 #@! TO.N,Net-(D12-Pad2)*
X104140000Y-39370000D03*
G04 #@! TO.P,U9,3*
G04 #@! TO.N,Net-(D27-Pad2)*
X96520000Y-46990000D03*
G04 #@! TO.P,U9,10*
G04 #@! TO.N,Net-(D4-Pad2)*
X106680000Y-39370000D03*
G04 #@! TO.P,U9,2*
G04 #@! TO.N,rd1*
X93980000Y-46990000D03*
G04 #@! TO.P,U9,9*
G04 #@! TO.N,Net-(U5-Pad8)*
X109220000Y-39370000D03*
D13*
G04 #@! TO.P,U9,1*
G04 #@! TO.N,GND*
X91440000Y-46990000D03*
G04 #@! TD*
D12*
G04 #@! TO.P,U8,16*
G04 #@! TO.N,+5V*
X91440000Y-22860000D03*
G04 #@! TO.P,U8,8*
G04 #@! TO.N,GND*
X109220000Y-30480000D03*
G04 #@! TO.P,U8,15*
X93980000Y-22860000D03*
G04 #@! TO.P,U8,7*
G04 #@! TO.N,Net-(U5-Pad13)*
X106680000Y-30480000D03*
G04 #@! TO.P,U8,14*
G04 #@! TO.N,rd0*
X96520000Y-22860000D03*
G04 #@! TO.P,U8,6*
G04 #@! TO.N,Net-(D5-Pad2)*
X104140000Y-30480000D03*
G04 #@! TO.P,U8,13*
G04 #@! TO.N,Net-(D30-Pad2)*
X99060000Y-22860000D03*
G04 #@! TO.P,U8,5*
G04 #@! TO.N,Net-(D13-Pad2)*
X101600000Y-30480000D03*
G04 #@! TO.P,U8,12*
G04 #@! TO.N,c5*
X101600000Y-22860000D03*
G04 #@! TO.P,U8,4*
G04 #@! TO.N,c4*
X99060000Y-30480000D03*
G04 #@! TO.P,U8,11*
G04 #@! TO.N,Net-(D14-Pad2)*
X104140000Y-22860000D03*
G04 #@! TO.P,U8,3*
G04 #@! TO.N,Net-(D29-Pad2)*
X96520000Y-30480000D03*
G04 #@! TO.P,U8,10*
G04 #@! TO.N,Net-(D6-Pad2)*
X106680000Y-22860000D03*
G04 #@! TO.P,U8,2*
G04 #@! TO.N,rd1*
X93980000Y-30480000D03*
G04 #@! TO.P,U8,9*
G04 #@! TO.N,Net-(U5-Pad14)*
X109220000Y-22860000D03*
D13*
G04 #@! TO.P,U8,1*
G04 #@! TO.N,GND*
X91440000Y-30480000D03*
G04 #@! TD*
D12*
G04 #@! TO.P,U7,16*
G04 #@! TO.N,+5V*
X91440000Y-6350000D03*
G04 #@! TO.P,U7,8*
G04 #@! TO.N,GND*
X109220000Y-13970000D03*
G04 #@! TO.P,U7,15*
X93980000Y-6350000D03*
G04 #@! TO.P,U7,7*
G04 #@! TO.N,Net-(U5-Pad17)*
X106680000Y-13970000D03*
G04 #@! TO.P,U7,14*
G04 #@! TO.N,rd0*
X96520000Y-6350000D03*
G04 #@! TO.P,U7,6*
G04 #@! TO.N,Net-(D7-Pad2)*
X104140000Y-13970000D03*
G04 #@! TO.P,U7,13*
G04 #@! TO.N,Net-(D32-Pad2)*
X99060000Y-6350000D03*
G04 #@! TO.P,U7,5*
G04 #@! TO.N,Net-(D15-Pad2)*
X101600000Y-13970000D03*
G04 #@! TO.P,U7,12*
G04 #@! TO.N,c7*
X101600000Y-6350000D03*
G04 #@! TO.P,U7,4*
G04 #@! TO.N,c6*
X99060000Y-13970000D03*
G04 #@! TO.P,U7,11*
G04 #@! TO.N,Net-(D16-Pad2)*
X104140000Y-6350000D03*
G04 #@! TO.P,U7,3*
G04 #@! TO.N,Net-(D31-Pad2)*
X96520000Y-13970000D03*
G04 #@! TO.P,U7,10*
G04 #@! TO.N,Net-(D8-Pad2)*
X106680000Y-6350000D03*
G04 #@! TO.P,U7,2*
G04 #@! TO.N,rd1*
X93980000Y-13970000D03*
G04 #@! TO.P,U7,9*
G04 #@! TO.N,Net-(U5-Pad18)*
X109220000Y-6350000D03*
D13*
G04 #@! TO.P,U7,1*
G04 #@! TO.N,GND*
X91440000Y-13970000D03*
G04 #@! TD*
D12*
G04 #@! TO.P,U6,20*
G04 #@! TO.N,+5V*
X142240000Y-83820000D03*
G04 #@! TO.P,U6,10*
G04 #@! TO.N,GND*
X165100000Y-91440000D03*
G04 #@! TO.P,U6,19*
G04 #@! TO.N,Rrs7*
X144780000Y-83820000D03*
G04 #@! TO.P,U6,9*
G04 #@! TO.N,Rrs3*
X162560000Y-91440000D03*
G04 #@! TO.P,U6,18*
G04 #@! TO.N,Net-(U11-Pad9)*
X147320000Y-83820000D03*
G04 #@! TO.P,U6,8*
G04 #@! TO.N,Net-(U13-Pad9)*
X160020000Y-91440000D03*
G04 #@! TO.P,U6,17*
G04 #@! TO.N,Net-(U11-Pad7)*
X149860000Y-83820000D03*
G04 #@! TO.P,U6,7*
G04 #@! TO.N,Net-(U13-Pad7)*
X157480000Y-91440000D03*
G04 #@! TO.P,U6,16*
G04 #@! TO.N,Rrs6*
X152400000Y-83820000D03*
G04 #@! TO.P,U6,6*
G04 #@! TO.N,Rrs2*
X154940000Y-91440000D03*
G04 #@! TO.P,U6,15*
G04 #@! TO.N,Rrs5*
X154940000Y-83820000D03*
G04 #@! TO.P,U6,5*
G04 #@! TO.N,Rrs1*
X152400000Y-91440000D03*
G04 #@! TO.P,U6,14*
G04 #@! TO.N,Net-(U12-Pad9)*
X157480000Y-83820000D03*
G04 #@! TO.P,U6,4*
G04 #@! TO.N,Net-(U14-Pad9)*
X149860000Y-91440000D03*
G04 #@! TO.P,U6,13*
G04 #@! TO.N,Net-(U12-Pad7)*
X160020000Y-83820000D03*
G04 #@! TO.P,U6,3*
G04 #@! TO.N,Net-(U14-Pad7)*
X147320000Y-91440000D03*
G04 #@! TO.P,U6,12*
G04 #@! TO.N,Rrs4*
X162560000Y-83820000D03*
G04 #@! TO.P,U6,2*
G04 #@! TO.N,Rrs0*
X144780000Y-91440000D03*
G04 #@! TO.P,U6,11*
G04 #@! TO.N,CLK*
X165100000Y-83820000D03*
D13*
G04 #@! TO.P,U6,1*
G04 #@! TO.N,rdrsclk*
X142240000Y-91440000D03*
G04 #@! TD*
D12*
G04 #@! TO.P,U5,20*
G04 #@! TO.N,+5V*
X140970000Y-35560000D03*
G04 #@! TO.P,U5,10*
G04 #@! TO.N,GND*
X163830000Y-43180000D03*
G04 #@! TO.P,U5,19*
G04 #@! TO.N,Rrd7*
X143510000Y-35560000D03*
G04 #@! TO.P,U5,9*
G04 #@! TO.N,Rrd3*
X161290000Y-43180000D03*
G04 #@! TO.P,U5,18*
G04 #@! TO.N,Net-(U5-Pad18)*
X146050000Y-35560000D03*
G04 #@! TO.P,U5,8*
G04 #@! TO.N,Net-(U5-Pad8)*
X158750000Y-43180000D03*
G04 #@! TO.P,U5,17*
G04 #@! TO.N,Net-(U5-Pad17)*
X148590000Y-35560000D03*
G04 #@! TO.P,U5,7*
G04 #@! TO.N,Net-(U5-Pad7)*
X156210000Y-43180000D03*
G04 #@! TO.P,U5,16*
G04 #@! TO.N,Rrd6*
X151130000Y-35560000D03*
G04 #@! TO.P,U5,6*
G04 #@! TO.N,Rrd2*
X153670000Y-43180000D03*
G04 #@! TO.P,U5,15*
G04 #@! TO.N,Rrd5*
X153670000Y-35560000D03*
G04 #@! TO.P,U5,5*
G04 #@! TO.N,Rrd1*
X151130000Y-43180000D03*
G04 #@! TO.P,U5,14*
G04 #@! TO.N,Net-(U5-Pad14)*
X156210000Y-35560000D03*
G04 #@! TO.P,U5,4*
G04 #@! TO.N,Net-(U10-Pad9)*
X148590000Y-43180000D03*
G04 #@! TO.P,U5,13*
G04 #@! TO.N,Net-(U5-Pad13)*
X158750000Y-35560000D03*
G04 #@! TO.P,U5,3*
G04 #@! TO.N,Net-(U10-Pad7)*
X146050000Y-43180000D03*
G04 #@! TO.P,U5,12*
G04 #@! TO.N,Rrd4*
X161290000Y-35560000D03*
G04 #@! TO.P,U5,2*
G04 #@! TO.N,Rrd0*
X143510000Y-43180000D03*
G04 #@! TO.P,U5,11*
G04 #@! TO.N,CLK*
X163830000Y-35560000D03*
D13*
G04 #@! TO.P,U5,1*
G04 #@! TO.N,rdrsclk*
X140970000Y-43180000D03*
G04 #@! TD*
D12*
G04 #@! TO.P,U4,20*
G04 #@! TO.N,+5V*
X33020000Y-123190000D03*
G04 #@! TO.P,U4,10*
G04 #@! TO.N,GND*
X55880000Y-130810000D03*
G04 #@! TO.P,U4,19*
G04 #@! TO.N,Net-(D32-Pad2)*
X35560000Y-123190000D03*
G04 #@! TO.P,U4,9*
G04 #@! TO.N,Net-(D28-Pad2)*
X53340000Y-130810000D03*
G04 #@! TO.P,U4,18*
G04 #@! TO.N,wb7*
X38100000Y-123190000D03*
G04 #@! TO.P,U4,8*
G04 #@! TO.N,wb3*
X50800000Y-130810000D03*
G04 #@! TO.P,U4,17*
G04 #@! TO.N,wb6*
X40640000Y-123190000D03*
G04 #@! TO.P,U4,7*
G04 #@! TO.N,wb2*
X48260000Y-130810000D03*
G04 #@! TO.P,U4,16*
G04 #@! TO.N,Net-(D31-Pad2)*
X43180000Y-123190000D03*
G04 #@! TO.P,U4,6*
G04 #@! TO.N,Net-(D27-Pad2)*
X45720000Y-130810000D03*
G04 #@! TO.P,U4,15*
G04 #@! TO.N,Net-(D30-Pad2)*
X45720000Y-123190000D03*
G04 #@! TO.P,U4,5*
G04 #@! TO.N,Net-(D26-Pad2)*
X43180000Y-130810000D03*
G04 #@! TO.P,U4,14*
G04 #@! TO.N,wb5*
X48260000Y-123190000D03*
G04 #@! TO.P,U4,4*
G04 #@! TO.N,wb1*
X40640000Y-130810000D03*
G04 #@! TO.P,U4,13*
G04 #@! TO.N,wb4*
X50800000Y-123190000D03*
G04 #@! TO.P,U4,3*
G04 #@! TO.N,wb0*
X38100000Y-130810000D03*
G04 #@! TO.P,U4,12*
G04 #@! TO.N,Net-(D29-Pad2)*
X53340000Y-123190000D03*
G04 #@! TO.P,U4,2*
G04 #@! TO.N,Net-(D25-Pad2)*
X35560000Y-130810000D03*
G04 #@! TO.P,U4,11*
G04 #@! TO.N,CLK*
X55880000Y-123190000D03*
D13*
G04 #@! TO.P,U4,1*
G04 #@! TO.N,Net-(U16-Pad7)*
X33020000Y-130810000D03*
G04 #@! TD*
D12*
G04 #@! TO.P,U3,20*
G04 #@! TO.N,+5V*
X33020000Y-85090000D03*
G04 #@! TO.P,U3,10*
G04 #@! TO.N,GND*
X55880000Y-92710000D03*
G04 #@! TO.P,U3,19*
G04 #@! TO.N,c7*
X35560000Y-85090000D03*
G04 #@! TO.P,U3,9*
G04 #@! TO.N,c3*
X53340000Y-92710000D03*
G04 #@! TO.P,U3,18*
G04 #@! TO.N,wb7*
X38100000Y-85090000D03*
G04 #@! TO.P,U3,8*
G04 #@! TO.N,wb3*
X50800000Y-92710000D03*
G04 #@! TO.P,U3,17*
G04 #@! TO.N,wb6*
X40640000Y-85090000D03*
G04 #@! TO.P,U3,7*
G04 #@! TO.N,wb2*
X48260000Y-92710000D03*
G04 #@! TO.P,U3,16*
G04 #@! TO.N,c6*
X43180000Y-85090000D03*
G04 #@! TO.P,U3,6*
G04 #@! TO.N,c2*
X45720000Y-92710000D03*
G04 #@! TO.P,U3,15*
G04 #@! TO.N,c5*
X45720000Y-85090000D03*
G04 #@! TO.P,U3,5*
G04 #@! TO.N,c1*
X43180000Y-92710000D03*
G04 #@! TO.P,U3,14*
G04 #@! TO.N,wb5*
X48260000Y-85090000D03*
G04 #@! TO.P,U3,4*
G04 #@! TO.N,wb1*
X40640000Y-92710000D03*
G04 #@! TO.P,U3,13*
G04 #@! TO.N,wb4*
X50800000Y-85090000D03*
G04 #@! TO.P,U3,3*
G04 #@! TO.N,wb0*
X38100000Y-92710000D03*
G04 #@! TO.P,U3,12*
G04 #@! TO.N,c4*
X53340000Y-85090000D03*
G04 #@! TO.P,U3,2*
G04 #@! TO.N,c0*
X35560000Y-92710000D03*
G04 #@! TO.P,U3,11*
G04 #@! TO.N,CLK*
X55880000Y-85090000D03*
D13*
G04 #@! TO.P,U3,1*
G04 #@! TO.N,Net-(U16-Pad6)*
X33020000Y-92710000D03*
G04 #@! TD*
D12*
G04 #@! TO.P,U2,20*
G04 #@! TO.N,+5V*
X34290000Y-46990000D03*
G04 #@! TO.P,U2,10*
G04 #@! TO.N,GND*
X57150000Y-54610000D03*
G04 #@! TO.P,U2,19*
G04 #@! TO.N,Net-(D16-Pad2)*
X36830000Y-46990000D03*
G04 #@! TO.P,U2,9*
G04 #@! TO.N,Net-(D12-Pad2)*
X54610000Y-54610000D03*
G04 #@! TO.P,U2,18*
G04 #@! TO.N,wb7*
X39370000Y-46990000D03*
G04 #@! TO.P,U2,8*
G04 #@! TO.N,wb3*
X52070000Y-54610000D03*
G04 #@! TO.P,U2,17*
G04 #@! TO.N,wb6*
X41910000Y-46990000D03*
G04 #@! TO.P,U2,7*
G04 #@! TO.N,wb2*
X49530000Y-54610000D03*
G04 #@! TO.P,U2,16*
G04 #@! TO.N,Net-(D15-Pad2)*
X44450000Y-46990000D03*
G04 #@! TO.P,U2,6*
G04 #@! TO.N,Net-(D11-Pad2)*
X46990000Y-54610000D03*
G04 #@! TO.P,U2,15*
G04 #@! TO.N,Net-(D14-Pad2)*
X46990000Y-46990000D03*
G04 #@! TO.P,U2,5*
G04 #@! TO.N,Net-(D10-Pad2)*
X44450000Y-54610000D03*
G04 #@! TO.P,U2,14*
G04 #@! TO.N,wb5*
X49530000Y-46990000D03*
G04 #@! TO.P,U2,4*
G04 #@! TO.N,wb1*
X41910000Y-54610000D03*
G04 #@! TO.P,U2,13*
G04 #@! TO.N,wb4*
X52070000Y-46990000D03*
G04 #@! TO.P,U2,3*
G04 #@! TO.N,wb0*
X39370000Y-54610000D03*
G04 #@! TO.P,U2,12*
G04 #@! TO.N,Net-(D13-Pad2)*
X54610000Y-46990000D03*
G04 #@! TO.P,U2,2*
G04 #@! TO.N,Net-(D9-Pad2)*
X36830000Y-54610000D03*
G04 #@! TO.P,U2,11*
G04 #@! TO.N,CLK*
X57150000Y-46990000D03*
D13*
G04 #@! TO.P,U2,1*
G04 #@! TO.N,Net-(U16-Pad5)*
X34290000Y-54610000D03*
G04 #@! TD*
D12*
G04 #@! TO.P,U1,20*
G04 #@! TO.N,+5V*
X34290000Y-8890000D03*
G04 #@! TO.P,U1,10*
G04 #@! TO.N,GND*
X57150000Y-16510000D03*
G04 #@! TO.P,U1,19*
G04 #@! TO.N,Net-(D8-Pad2)*
X36830000Y-8890000D03*
G04 #@! TO.P,U1,9*
G04 #@! TO.N,Net-(D4-Pad2)*
X54610000Y-16510000D03*
G04 #@! TO.P,U1,18*
G04 #@! TO.N,wb7*
X39370000Y-8890000D03*
G04 #@! TO.P,U1,8*
G04 #@! TO.N,wb3*
X52070000Y-16510000D03*
G04 #@! TO.P,U1,17*
G04 #@! TO.N,wb6*
X41910000Y-8890000D03*
G04 #@! TO.P,U1,7*
G04 #@! TO.N,wb2*
X49530000Y-16510000D03*
G04 #@! TO.P,U1,16*
G04 #@! TO.N,Net-(D7-Pad2)*
X44450000Y-8890000D03*
G04 #@! TO.P,U1,6*
G04 #@! TO.N,Net-(D3-Pad2)*
X46990000Y-16510000D03*
G04 #@! TO.P,U1,15*
G04 #@! TO.N,Net-(D6-Pad2)*
X46990000Y-8890000D03*
G04 #@! TO.P,U1,5*
G04 #@! TO.N,Net-(D2-Pad2)*
X44450000Y-16510000D03*
G04 #@! TO.P,U1,14*
G04 #@! TO.N,wb5*
X49530000Y-8890000D03*
G04 #@! TO.P,U1,4*
G04 #@! TO.N,wb1*
X41910000Y-16510000D03*
G04 #@! TO.P,U1,13*
G04 #@! TO.N,wb4*
X52070000Y-8890000D03*
G04 #@! TO.P,U1,3*
G04 #@! TO.N,wb0*
X39370000Y-16510000D03*
G04 #@! TO.P,U1,12*
G04 #@! TO.N,Net-(D5-Pad2)*
X54610000Y-8890000D03*
G04 #@! TO.P,U1,2*
G04 #@! TO.N,Net-(D1-Pad2)*
X36830000Y-16510000D03*
G04 #@! TO.P,U1,11*
G04 #@! TO.N,CLK*
X57150000Y-8890000D03*
D13*
G04 #@! TO.P,U1,1*
G04 #@! TO.N,Net-(U1-Pad1)*
X34290000Y-16510000D03*
G04 #@! TD*
D12*
G04 #@! TO.P,RN6,9*
G04 #@! TO.N,Net-(D41-Pad1)*
X161290000Y-111760000D03*
G04 #@! TO.P,RN6,8*
G04 #@! TO.N,Net-(D42-Pad1)*
X158750000Y-111760000D03*
G04 #@! TO.P,RN6,7*
G04 #@! TO.N,Net-(D43-Pad1)*
X156210000Y-111760000D03*
G04 #@! TO.P,RN6,6*
G04 #@! TO.N,Net-(D44-Pad1)*
X153670000Y-111760000D03*
G04 #@! TO.P,RN6,5*
G04 #@! TO.N,Net-(D45-Pad1)*
X151130000Y-111760000D03*
G04 #@! TO.P,RN6,4*
G04 #@! TO.N,Net-(D46-Pad1)*
X148590000Y-111760000D03*
G04 #@! TO.P,RN6,3*
G04 #@! TO.N,Net-(D47-Pad1)*
X146050000Y-111760000D03*
G04 #@! TO.P,RN6,2*
G04 #@! TO.N,Net-(D48-Pad1)*
X143510000Y-111760000D03*
D13*
G04 #@! TO.P,RN6,1*
G04 #@! TO.N,GND*
X140970000Y-111760000D03*
G04 #@! TD*
D12*
G04 #@! TO.P,RN5,9*
G04 #@! TO.N,Net-(D33-Pad1)*
X161290000Y-63500000D03*
G04 #@! TO.P,RN5,8*
G04 #@! TO.N,Net-(D34-Pad1)*
X158750000Y-63500000D03*
G04 #@! TO.P,RN5,7*
G04 #@! TO.N,Net-(D35-Pad1)*
X156210000Y-63500000D03*
G04 #@! TO.P,RN5,6*
G04 #@! TO.N,Net-(D36-Pad1)*
X153670000Y-63500000D03*
G04 #@! TO.P,RN5,5*
G04 #@! TO.N,Net-(D37-Pad1)*
X151130000Y-63500000D03*
G04 #@! TO.P,RN5,4*
G04 #@! TO.N,Net-(D38-Pad1)*
X148590000Y-63500000D03*
G04 #@! TO.P,RN5,3*
G04 #@! TO.N,Net-(D39-Pad1)*
X146050000Y-63500000D03*
G04 #@! TO.P,RN5,2*
G04 #@! TO.N,Net-(D40-Pad1)*
X143510000Y-63500000D03*
D13*
G04 #@! TO.P,RN5,1*
G04 #@! TO.N,GND*
X140970000Y-63500000D03*
G04 #@! TD*
D12*
G04 #@! TO.P,RN4,9*
G04 #@! TO.N,Net-(D25-Pad1)*
X54610000Y-149860000D03*
G04 #@! TO.P,RN4,8*
G04 #@! TO.N,Net-(D26-Pad1)*
X52070000Y-149860000D03*
G04 #@! TO.P,RN4,7*
G04 #@! TO.N,Net-(D27-Pad1)*
X49530000Y-149860000D03*
G04 #@! TO.P,RN4,6*
G04 #@! TO.N,Net-(D28-Pad1)*
X46990000Y-149860000D03*
G04 #@! TO.P,RN4,5*
G04 #@! TO.N,Net-(D29-Pad1)*
X44450000Y-149860000D03*
G04 #@! TO.P,RN4,4*
G04 #@! TO.N,Net-(D30-Pad1)*
X41910000Y-149860000D03*
G04 #@! TO.P,RN4,3*
G04 #@! TO.N,Net-(D31-Pad1)*
X39370000Y-149860000D03*
G04 #@! TO.P,RN4,2*
G04 #@! TO.N,Net-(D32-Pad1)*
X36830000Y-149860000D03*
D13*
G04 #@! TO.P,RN4,1*
G04 #@! TO.N,GND*
X34290000Y-149860000D03*
G04 #@! TD*
D12*
G04 #@! TO.P,RN3,9*
G04 #@! TO.N,Net-(D17-Pad1)*
X53340000Y-111760000D03*
G04 #@! TO.P,RN3,8*
G04 #@! TO.N,Net-(D18-Pad1)*
X50800000Y-111760000D03*
G04 #@! TO.P,RN3,7*
G04 #@! TO.N,Net-(D19-Pad1)*
X48260000Y-111760000D03*
G04 #@! TO.P,RN3,6*
G04 #@! TO.N,Net-(D20-Pad1)*
X45720000Y-111760000D03*
G04 #@! TO.P,RN3,5*
G04 #@! TO.N,Net-(D21-Pad1)*
X43180000Y-111760000D03*
G04 #@! TO.P,RN3,4*
G04 #@! TO.N,Net-(D22-Pad1)*
X40640000Y-111760000D03*
G04 #@! TO.P,RN3,3*
G04 #@! TO.N,Net-(D23-Pad1)*
X38100000Y-111760000D03*
G04 #@! TO.P,RN3,2*
G04 #@! TO.N,Net-(D24-Pad1)*
X35560000Y-111760000D03*
D13*
G04 #@! TO.P,RN3,1*
G04 #@! TO.N,GND*
X33020000Y-111760000D03*
G04 #@! TD*
D12*
G04 #@! TO.P,RN2,9*
G04 #@! TO.N,Net-(D9-Pad1)*
X54610000Y-73660000D03*
G04 #@! TO.P,RN2,8*
G04 #@! TO.N,Net-(D10-Pad1)*
X52070000Y-73660000D03*
G04 #@! TO.P,RN2,7*
G04 #@! TO.N,Net-(D11-Pad1)*
X49530000Y-73660000D03*
G04 #@! TO.P,RN2,6*
G04 #@! TO.N,Net-(D12-Pad1)*
X46990000Y-73660000D03*
G04 #@! TO.P,RN2,5*
G04 #@! TO.N,Net-(D13-Pad1)*
X44450000Y-73660000D03*
G04 #@! TO.P,RN2,4*
G04 #@! TO.N,Net-(D14-Pad1)*
X41910000Y-73660000D03*
G04 #@! TO.P,RN2,3*
G04 #@! TO.N,Net-(D15-Pad1)*
X39370000Y-73660000D03*
G04 #@! TO.P,RN2,2*
G04 #@! TO.N,Net-(D16-Pad1)*
X36830000Y-73660000D03*
D13*
G04 #@! TO.P,RN2,1*
G04 #@! TO.N,GND*
X34290000Y-73660000D03*
G04 #@! TD*
D12*
G04 #@! TO.P,RN1,9*
G04 #@! TO.N,Net-(D1-Pad1)*
X55880000Y-35560000D03*
G04 #@! TO.P,RN1,8*
G04 #@! TO.N,Net-(D2-Pad1)*
X53340000Y-35560000D03*
G04 #@! TO.P,RN1,7*
G04 #@! TO.N,Net-(D3-Pad1)*
X50800000Y-35560000D03*
G04 #@! TO.P,RN1,6*
G04 #@! TO.N,Net-(D4-Pad1)*
X48260000Y-35560000D03*
G04 #@! TO.P,RN1,5*
G04 #@! TO.N,Net-(D5-Pad1)*
X45720000Y-35560000D03*
G04 #@! TO.P,RN1,4*
G04 #@! TO.N,Net-(D6-Pad1)*
X43180000Y-35560000D03*
G04 #@! TO.P,RN1,3*
G04 #@! TO.N,Net-(D7-Pad1)*
X40640000Y-35560000D03*
G04 #@! TO.P,RN1,2*
G04 #@! TO.N,Net-(D8-Pad1)*
X38100000Y-35560000D03*
D13*
G04 #@! TO.P,RN1,1*
G04 #@! TO.N,GND*
X35560000Y-35560000D03*
G04 #@! TD*
D14*
G04 #@! TO.P,R3,2*
G04 #@! TO.N,Net-(D51-Pad2)*
X8890000Y-163830000D03*
D15*
G04 #@! TO.P,R3,1*
G04 #@! TO.N,+5V*
X6350000Y-163830000D03*
G04 #@! TD*
D14*
G04 #@! TO.P,R2,2*
G04 #@! TO.N,Net-(D50-Pad2)*
X139700000Y-10160000D03*
D15*
G04 #@! TO.P,R2,1*
G04 #@! TO.N,+5V*
X137160000Y-10160000D03*
G04 #@! TD*
D14*
G04 #@! TO.P,R1,2*
G04 #@! TO.N,Net-(D49-Pad2)*
X8890000Y-13970000D03*
D15*
G04 #@! TO.P,R1,1*
G04 #@! TO.N,+5V*
X6350000Y-13970000D03*
G04 #@! TD*
D10*
G04 #@! TO.P,J10,3*
G04 #@! TO.N,rdwb*
X16510000Y-190500000D03*
G04 #@! TO.P,J10,2*
G04 #@! TO.N,rdrsclk*
X16510000Y-187960000D03*
D11*
G04 #@! TO.P,J10,1*
G04 #@! TO.N,regclk*
X16510000Y-185420000D03*
G04 #@! TD*
D10*
G04 #@! TO.P,J9,4*
G04 #@! TO.N,rd1*
X81280000Y-177800000D03*
G04 #@! TO.P,J9,3*
G04 #@! TO.N,rd0*
X83820000Y-177800000D03*
G04 #@! TO.P,J9,2*
G04 #@! TO.N,rs1*
X86360000Y-177800000D03*
D11*
G04 #@! TO.P,J9,1*
G04 #@! TO.N,rs0*
X88900000Y-177800000D03*
G04 #@! TD*
D10*
G04 #@! TO.P,J8,8*
G04 #@! TO.N,c7*
X6350000Y-95250000D03*
G04 #@! TO.P,J8,7*
G04 #@! TO.N,c6*
X6350000Y-92710000D03*
G04 #@! TO.P,J8,6*
G04 #@! TO.N,c5*
X6350000Y-90170000D03*
G04 #@! TO.P,J8,5*
G04 #@! TO.N,c4*
X6350000Y-87630000D03*
G04 #@! TO.P,J8,4*
G04 #@! TO.N,c3*
X6350000Y-85090000D03*
G04 #@! TO.P,J8,3*
G04 #@! TO.N,c2*
X6350000Y-82550000D03*
G04 #@! TO.P,J8,2*
G04 #@! TO.N,c1*
X6350000Y-80010000D03*
D11*
G04 #@! TO.P,J8,1*
G04 #@! TO.N,c0*
X6350000Y-77470000D03*
G04 #@! TD*
D10*
G04 #@! TO.P,J7,8*
G04 #@! TO.N,Rrs7*
X143510000Y-161290000D03*
G04 #@! TO.P,J7,7*
G04 #@! TO.N,Rrs6*
X146050000Y-161290000D03*
G04 #@! TO.P,J7,6*
G04 #@! TO.N,Rrs5*
X148590000Y-161290000D03*
G04 #@! TO.P,J7,5*
G04 #@! TO.N,Rrs4*
X151130000Y-161290000D03*
G04 #@! TO.P,J7,4*
G04 #@! TO.N,Rrs3*
X153670000Y-161290000D03*
G04 #@! TO.P,J7,3*
G04 #@! TO.N,Rrs2*
X156210000Y-161290000D03*
G04 #@! TO.P,J7,2*
G04 #@! TO.N,Rrs1*
X158750000Y-161290000D03*
D11*
G04 #@! TO.P,J7,1*
G04 #@! TO.N,Rrs0*
X161290000Y-161290000D03*
G04 #@! TD*
D10*
G04 #@! TO.P,J6,8*
G04 #@! TO.N,Rrs7*
X143510000Y-179070000D03*
G04 #@! TO.P,J6,7*
G04 #@! TO.N,Rrs6*
X146050000Y-179070000D03*
G04 #@! TO.P,J6,6*
G04 #@! TO.N,Rrs5*
X148590000Y-179070000D03*
G04 #@! TO.P,J6,5*
G04 #@! TO.N,Rrs4*
X151130000Y-179070000D03*
G04 #@! TO.P,J6,4*
G04 #@! TO.N,Rrs3*
X153670000Y-179070000D03*
G04 #@! TO.P,J6,3*
G04 #@! TO.N,Rrs2*
X156210000Y-179070000D03*
G04 #@! TO.P,J6,2*
G04 #@! TO.N,Rrs1*
X158750000Y-179070000D03*
D11*
G04 #@! TO.P,J6,1*
G04 #@! TO.N,Rrs0*
X161290000Y-179070000D03*
G04 #@! TD*
D10*
G04 #@! TO.P,J5,8*
G04 #@! TO.N,Rrd7*
X110490000Y-179070000D03*
G04 #@! TO.P,J5,7*
G04 #@! TO.N,Rrd6*
X113030000Y-179070000D03*
G04 #@! TO.P,J5,6*
G04 #@! TO.N,Rrd5*
X115570000Y-179070000D03*
G04 #@! TO.P,J5,5*
G04 #@! TO.N,Rrd4*
X118110000Y-179070000D03*
G04 #@! TO.P,J5,4*
G04 #@! TO.N,Rrd3*
X120650000Y-179070000D03*
G04 #@! TO.P,J5,3*
G04 #@! TO.N,Rrd2*
X123190000Y-179070000D03*
G04 #@! TO.P,J5,2*
G04 #@! TO.N,Rrd1*
X125730000Y-179070000D03*
D11*
G04 #@! TO.P,J5,1*
G04 #@! TO.N,Rrd0*
X128270000Y-179070000D03*
G04 #@! TD*
D10*
G04 #@! TO.P,J4,8*
G04 #@! TO.N,Rrd7*
X110490000Y-161290000D03*
G04 #@! TO.P,J4,7*
G04 #@! TO.N,Rrd6*
X113030000Y-161290000D03*
G04 #@! TO.P,J4,6*
G04 #@! TO.N,Rrd5*
X115570000Y-161290000D03*
G04 #@! TO.P,J4,5*
G04 #@! TO.N,Rrd4*
X118110000Y-161290000D03*
G04 #@! TO.P,J4,4*
G04 #@! TO.N,Rrd3*
X120650000Y-161290000D03*
G04 #@! TO.P,J4,3*
G04 #@! TO.N,Rrd2*
X123190000Y-161290000D03*
G04 #@! TO.P,J4,2*
G04 #@! TO.N,Rrd1*
X125730000Y-161290000D03*
D11*
G04 #@! TO.P,J4,1*
G04 #@! TO.N,Rrd0*
X128270000Y-161290000D03*
G04 #@! TD*
D10*
G04 #@! TO.P,J3,8*
G04 #@! TO.N,wb7*
X34290000Y-166370000D03*
G04 #@! TO.P,J3,7*
G04 #@! TO.N,wb6*
X36830000Y-166370000D03*
G04 #@! TO.P,J3,6*
G04 #@! TO.N,wb5*
X39370000Y-166370000D03*
G04 #@! TO.P,J3,5*
G04 #@! TO.N,wb4*
X41910000Y-166370000D03*
G04 #@! TO.P,J3,4*
G04 #@! TO.N,wb3*
X44450000Y-166370000D03*
G04 #@! TO.P,J3,3*
G04 #@! TO.N,wb2*
X46990000Y-166370000D03*
G04 #@! TO.P,J3,2*
G04 #@! TO.N,wb1*
X49530000Y-166370000D03*
D11*
G04 #@! TO.P,J3,1*
G04 #@! TO.N,wb0*
X52070000Y-166370000D03*
G04 #@! TD*
D10*
G04 #@! TO.P,J2,8*
G04 #@! TO.N,wb7*
X34290000Y-179070000D03*
G04 #@! TO.P,J2,7*
G04 #@! TO.N,wb6*
X36830000Y-179070000D03*
G04 #@! TO.P,J2,6*
G04 #@! TO.N,wb5*
X39370000Y-179070000D03*
G04 #@! TO.P,J2,5*
G04 #@! TO.N,wb4*
X41910000Y-179070000D03*
G04 #@! TO.P,J2,4*
G04 #@! TO.N,wb3*
X44450000Y-179070000D03*
G04 #@! TO.P,J2,3*
G04 #@! TO.N,wb2*
X46990000Y-179070000D03*
G04 #@! TO.P,J2,2*
G04 #@! TO.N,wb1*
X49530000Y-179070000D03*
D11*
G04 #@! TO.P,J2,1*
G04 #@! TO.N,wb0*
X52070000Y-179070000D03*
G04 #@! TD*
D10*
G04 #@! TO.P,J1,3*
G04 #@! TO.N,CLK*
X173990000Y-12700000D03*
G04 #@! TO.P,J1,2*
G04 #@! TO.N,GND*
X173990000Y-10160000D03*
D11*
G04 #@! TO.P,J1,1*
G04 #@! TO.N,+5V*
X173990000Y-7620000D03*
G04 #@! TD*
D16*
G04 #@! TO.P,D51,2*
G04 #@! TO.N,Net-(D51-Pad2)*
X7620000Y-171450000D03*
D17*
G04 #@! TO.P,D51,1*
G04 #@! TO.N,rdwb*
X7620000Y-168910000D03*
G04 #@! TD*
D16*
G04 #@! TO.P,D50,2*
G04 #@! TO.N,Net-(D50-Pad2)*
X138430000Y-17780000D03*
D17*
G04 #@! TO.P,D50,1*
G04 #@! TO.N,rdrsclk*
X138430000Y-15240000D03*
G04 #@! TD*
D16*
G04 #@! TO.P,D49,2*
G04 #@! TO.N,Net-(D49-Pad2)*
X7620000Y-20320000D03*
D17*
G04 #@! TO.P,D49,1*
G04 #@! TO.N,regclk*
X7620000Y-17780000D03*
G04 #@! TD*
D16*
G04 #@! TO.P,D48,2*
G04 #@! TO.N,Rrs7*
X125730000Y-101600000D03*
D17*
G04 #@! TO.P,D48,1*
G04 #@! TO.N,Net-(D48-Pad1)*
X125730000Y-104140000D03*
G04 #@! TD*
D16*
G04 #@! TO.P,D47,2*
G04 #@! TO.N,Rrs6*
X133350000Y-101600000D03*
D17*
G04 #@! TO.P,D47,1*
G04 #@! TO.N,Net-(D47-Pad1)*
X133350000Y-104140000D03*
G04 #@! TD*
D16*
G04 #@! TO.P,D46,2*
G04 #@! TO.N,Rrs5*
X140970000Y-101600000D03*
D17*
G04 #@! TO.P,D46,1*
G04 #@! TO.N,Net-(D46-Pad1)*
X140970000Y-104140000D03*
G04 #@! TD*
D16*
G04 #@! TO.P,D45,2*
G04 #@! TO.N,Rrs4*
X148590000Y-101600000D03*
D17*
G04 #@! TO.P,D45,1*
G04 #@! TO.N,Net-(D45-Pad1)*
X148590000Y-104140000D03*
G04 #@! TD*
D16*
G04 #@! TO.P,D44,2*
G04 #@! TO.N,Rrs3*
X156210000Y-101600000D03*
D17*
G04 #@! TO.P,D44,1*
G04 #@! TO.N,Net-(D44-Pad1)*
X156210000Y-104140000D03*
G04 #@! TD*
D16*
G04 #@! TO.P,D43,2*
G04 #@! TO.N,Rrs2*
X163830000Y-101600000D03*
D17*
G04 #@! TO.P,D43,1*
G04 #@! TO.N,Net-(D43-Pad1)*
X163830000Y-104140000D03*
G04 #@! TD*
D16*
G04 #@! TO.P,D42,2*
G04 #@! TO.N,Rrs1*
X171450000Y-101600000D03*
D17*
G04 #@! TO.P,D42,1*
G04 #@! TO.N,Net-(D42-Pad1)*
X171450000Y-104140000D03*
G04 #@! TD*
D16*
G04 #@! TO.P,D41,2*
G04 #@! TO.N,Rrs0*
X179070000Y-101600000D03*
D17*
G04 #@! TO.P,D41,1*
G04 #@! TO.N,Net-(D41-Pad1)*
X179070000Y-104140000D03*
G04 #@! TD*
D16*
G04 #@! TO.P,D40,2*
G04 #@! TO.N,Rrd7*
X125730000Y-53340000D03*
D17*
G04 #@! TO.P,D40,1*
G04 #@! TO.N,Net-(D40-Pad1)*
X125730000Y-55880000D03*
G04 #@! TD*
D16*
G04 #@! TO.P,D39,2*
G04 #@! TO.N,Rrd6*
X133350000Y-53340000D03*
D17*
G04 #@! TO.P,D39,1*
G04 #@! TO.N,Net-(D39-Pad1)*
X133350000Y-55880000D03*
G04 #@! TD*
D16*
G04 #@! TO.P,D38,2*
G04 #@! TO.N,Rrd5*
X140970000Y-53340000D03*
D17*
G04 #@! TO.P,D38,1*
G04 #@! TO.N,Net-(D38-Pad1)*
X140970000Y-55880000D03*
G04 #@! TD*
D16*
G04 #@! TO.P,D37,2*
G04 #@! TO.N,Rrd4*
X148590000Y-53340000D03*
D17*
G04 #@! TO.P,D37,1*
G04 #@! TO.N,Net-(D37-Pad1)*
X148590000Y-55880000D03*
G04 #@! TD*
D16*
G04 #@! TO.P,D36,2*
G04 #@! TO.N,Rrd3*
X156210000Y-53340000D03*
D17*
G04 #@! TO.P,D36,1*
G04 #@! TO.N,Net-(D36-Pad1)*
X156210000Y-55880000D03*
G04 #@! TD*
D16*
G04 #@! TO.P,D35,2*
G04 #@! TO.N,Rrd2*
X163830000Y-53340000D03*
D17*
G04 #@! TO.P,D35,1*
G04 #@! TO.N,Net-(D35-Pad1)*
X163830000Y-55880000D03*
G04 #@! TD*
D16*
G04 #@! TO.P,D34,2*
G04 #@! TO.N,Rrd1*
X171450000Y-53340000D03*
D17*
G04 #@! TO.P,D34,1*
G04 #@! TO.N,Net-(D34-Pad1)*
X171450000Y-55880000D03*
G04 #@! TD*
D16*
G04 #@! TO.P,D33,2*
G04 #@! TO.N,Rrd0*
X179070000Y-53340000D03*
D17*
G04 #@! TO.P,D33,1*
G04 #@! TO.N,Net-(D33-Pad1)*
X179070000Y-55880000D03*
G04 #@! TD*
D16*
G04 #@! TO.P,D32,2*
G04 #@! TO.N,Net-(D32-Pad2)*
X19050000Y-139700000D03*
D17*
G04 #@! TO.P,D32,1*
G04 #@! TO.N,Net-(D32-Pad1)*
X19050000Y-142240000D03*
G04 #@! TD*
D16*
G04 #@! TO.P,D31,2*
G04 #@! TO.N,Net-(D31-Pad2)*
X26670000Y-139700000D03*
D17*
G04 #@! TO.P,D31,1*
G04 #@! TO.N,Net-(D31-Pad1)*
X26670000Y-142240000D03*
G04 #@! TD*
D16*
G04 #@! TO.P,D30,2*
G04 #@! TO.N,Net-(D30-Pad2)*
X34290000Y-139700000D03*
D17*
G04 #@! TO.P,D30,1*
G04 #@! TO.N,Net-(D30-Pad1)*
X34290000Y-142240000D03*
G04 #@! TD*
D16*
G04 #@! TO.P,D29,2*
G04 #@! TO.N,Net-(D29-Pad2)*
X41910000Y-139700000D03*
D17*
G04 #@! TO.P,D29,1*
G04 #@! TO.N,Net-(D29-Pad1)*
X41910000Y-142240000D03*
G04 #@! TD*
D16*
G04 #@! TO.P,D28,2*
G04 #@! TO.N,Net-(D28-Pad2)*
X49530000Y-139700000D03*
D17*
G04 #@! TO.P,D28,1*
G04 #@! TO.N,Net-(D28-Pad1)*
X49530000Y-142240000D03*
G04 #@! TD*
D16*
G04 #@! TO.P,D27,2*
G04 #@! TO.N,Net-(D27-Pad2)*
X57150000Y-139700000D03*
D17*
G04 #@! TO.P,D27,1*
G04 #@! TO.N,Net-(D27-Pad1)*
X57150000Y-142240000D03*
G04 #@! TD*
D16*
G04 #@! TO.P,D26,2*
G04 #@! TO.N,Net-(D26-Pad2)*
X64770000Y-139700000D03*
D17*
G04 #@! TO.P,D26,1*
G04 #@! TO.N,Net-(D26-Pad1)*
X64770000Y-142240000D03*
G04 #@! TD*
D16*
G04 #@! TO.P,D25,2*
G04 #@! TO.N,Net-(D25-Pad2)*
X72390000Y-139700000D03*
D17*
G04 #@! TO.P,D25,1*
G04 #@! TO.N,Net-(D25-Pad1)*
X72390000Y-142240000D03*
G04 #@! TD*
D16*
G04 #@! TO.P,D24,2*
G04 #@! TO.N,c7*
X17780000Y-101600000D03*
D17*
G04 #@! TO.P,D24,1*
G04 #@! TO.N,Net-(D24-Pad1)*
X17780000Y-104140000D03*
G04 #@! TD*
D16*
G04 #@! TO.P,D23,2*
G04 #@! TO.N,c6*
X25400000Y-101600000D03*
D17*
G04 #@! TO.P,D23,1*
G04 #@! TO.N,Net-(D23-Pad1)*
X25400000Y-104140000D03*
G04 #@! TD*
D16*
G04 #@! TO.P,D22,2*
G04 #@! TO.N,c5*
X33020000Y-101600000D03*
D17*
G04 #@! TO.P,D22,1*
G04 #@! TO.N,Net-(D22-Pad1)*
X33020000Y-104140000D03*
G04 #@! TD*
D16*
G04 #@! TO.P,D21,2*
G04 #@! TO.N,c4*
X40640000Y-101600000D03*
D17*
G04 #@! TO.P,D21,1*
G04 #@! TO.N,Net-(D21-Pad1)*
X40640000Y-104140000D03*
G04 #@! TD*
D16*
G04 #@! TO.P,D20,2*
G04 #@! TO.N,c3*
X48260000Y-101600000D03*
D17*
G04 #@! TO.P,D20,1*
G04 #@! TO.N,Net-(D20-Pad1)*
X48260000Y-104140000D03*
G04 #@! TD*
D16*
G04 #@! TO.P,D19,2*
G04 #@! TO.N,c2*
X55880000Y-101600000D03*
D17*
G04 #@! TO.P,D19,1*
G04 #@! TO.N,Net-(D19-Pad1)*
X55880000Y-104140000D03*
G04 #@! TD*
D16*
G04 #@! TO.P,D18,2*
G04 #@! TO.N,c1*
X63500000Y-101600000D03*
D17*
G04 #@! TO.P,D18,1*
G04 #@! TO.N,Net-(D18-Pad1)*
X63500000Y-104140000D03*
G04 #@! TD*
D16*
G04 #@! TO.P,D17,2*
G04 #@! TO.N,c0*
X71120000Y-101600000D03*
D17*
G04 #@! TO.P,D17,1*
G04 #@! TO.N,Net-(D17-Pad1)*
X71120000Y-104140000D03*
G04 #@! TD*
D16*
G04 #@! TO.P,D16,2*
G04 #@! TO.N,Net-(D16-Pad2)*
X19050000Y-63500000D03*
D17*
G04 #@! TO.P,D16,1*
G04 #@! TO.N,Net-(D16-Pad1)*
X19050000Y-66040000D03*
G04 #@! TD*
D16*
G04 #@! TO.P,D15,2*
G04 #@! TO.N,Net-(D15-Pad2)*
X26670000Y-63500000D03*
D17*
G04 #@! TO.P,D15,1*
G04 #@! TO.N,Net-(D15-Pad1)*
X26670000Y-66040000D03*
G04 #@! TD*
D16*
G04 #@! TO.P,D14,2*
G04 #@! TO.N,Net-(D14-Pad2)*
X34290000Y-63500000D03*
D17*
G04 #@! TO.P,D14,1*
G04 #@! TO.N,Net-(D14-Pad1)*
X34290000Y-66040000D03*
G04 #@! TD*
D16*
G04 #@! TO.P,D13,2*
G04 #@! TO.N,Net-(D13-Pad2)*
X41910000Y-63500000D03*
D17*
G04 #@! TO.P,D13,1*
G04 #@! TO.N,Net-(D13-Pad1)*
X41910000Y-66040000D03*
G04 #@! TD*
D16*
G04 #@! TO.P,D12,2*
G04 #@! TO.N,Net-(D12-Pad2)*
X49530000Y-63500000D03*
D17*
G04 #@! TO.P,D12,1*
G04 #@! TO.N,Net-(D12-Pad1)*
X49530000Y-66040000D03*
G04 #@! TD*
D16*
G04 #@! TO.P,D11,2*
G04 #@! TO.N,Net-(D11-Pad2)*
X57150000Y-63500000D03*
D17*
G04 #@! TO.P,D11,1*
G04 #@! TO.N,Net-(D11-Pad1)*
X57150000Y-66040000D03*
G04 #@! TD*
D16*
G04 #@! TO.P,D10,2*
G04 #@! TO.N,Net-(D10-Pad2)*
X64770000Y-63500000D03*
D17*
G04 #@! TO.P,D10,1*
G04 #@! TO.N,Net-(D10-Pad1)*
X64770000Y-66040000D03*
G04 #@! TD*
D16*
G04 #@! TO.P,D9,2*
G04 #@! TO.N,Net-(D9-Pad2)*
X72390000Y-63500000D03*
D17*
G04 #@! TO.P,D9,1*
G04 #@! TO.N,Net-(D9-Pad1)*
X72390000Y-66040000D03*
G04 #@! TD*
D16*
G04 #@! TO.P,D8,2*
G04 #@! TO.N,Net-(D8-Pad2)*
X19050000Y-25400000D03*
D17*
G04 #@! TO.P,D8,1*
G04 #@! TO.N,Net-(D8-Pad1)*
X19050000Y-27940000D03*
G04 #@! TD*
D16*
G04 #@! TO.P,D7,2*
G04 #@! TO.N,Net-(D7-Pad2)*
X26670000Y-25400000D03*
D17*
G04 #@! TO.P,D7,1*
G04 #@! TO.N,Net-(D7-Pad1)*
X26670000Y-27940000D03*
G04 #@! TD*
D16*
G04 #@! TO.P,D6,2*
G04 #@! TO.N,Net-(D6-Pad2)*
X34290000Y-25400000D03*
D17*
G04 #@! TO.P,D6,1*
G04 #@! TO.N,Net-(D6-Pad1)*
X34290000Y-27940000D03*
G04 #@! TD*
D16*
G04 #@! TO.P,D5,2*
G04 #@! TO.N,Net-(D5-Pad2)*
X41910000Y-25400000D03*
D17*
G04 #@! TO.P,D5,1*
G04 #@! TO.N,Net-(D5-Pad1)*
X41910000Y-27940000D03*
G04 #@! TD*
D16*
G04 #@! TO.P,D4,2*
G04 #@! TO.N,Net-(D4-Pad2)*
X49530000Y-25400000D03*
D17*
G04 #@! TO.P,D4,1*
G04 #@! TO.N,Net-(D4-Pad1)*
X49530000Y-27940000D03*
G04 #@! TD*
D16*
G04 #@! TO.P,D3,2*
G04 #@! TO.N,Net-(D3-Pad2)*
X57150000Y-25400000D03*
D17*
G04 #@! TO.P,D3,1*
G04 #@! TO.N,Net-(D3-Pad1)*
X57150000Y-27940000D03*
G04 #@! TD*
D16*
G04 #@! TO.P,D2,2*
G04 #@! TO.N,Net-(D2-Pad2)*
X64770000Y-25400000D03*
D17*
G04 #@! TO.P,D2,1*
G04 #@! TO.N,Net-(D2-Pad1)*
X64770000Y-27940000D03*
G04 #@! TD*
D16*
G04 #@! TO.P,D1,2*
G04 #@! TO.N,Net-(D1-Pad2)*
X72390000Y-25400000D03*
D17*
G04 #@! TO.P,D1,1*
G04 #@! TO.N,Net-(D1-Pad1)*
X72390000Y-27940000D03*
G04 #@! TD*
D18*
G04 #@! TO.P,C16,2*
G04 #@! TO.N,GND*
X71120000Y-161250000D03*
G04 #@! TO.P,C16,1*
G04 #@! TO.N,+5V*
X71120000Y-158750000D03*
G04 #@! TD*
G04 #@! TO.P,C15,2*
G04 #@! TO.N,GND*
X135890000Y-139660000D03*
G04 #@! TO.P,C15,1*
G04 #@! TO.N,+5V*
X135890000Y-137160000D03*
G04 #@! TD*
G04 #@! TO.P,C14,2*
G04 #@! TO.N,GND*
X85090000Y-137120000D03*
G04 #@! TO.P,C14,1*
G04 #@! TO.N,+5V*
X85090000Y-134620000D03*
G04 #@! TD*
G04 #@! TO.P,C13,2*
G04 #@! TO.N,GND*
X85090000Y-118070000D03*
G04 #@! TO.P,C13,1*
G04 #@! TO.N,+5V*
X85090000Y-115570000D03*
G04 #@! TD*
G04 #@! TO.P,C12,2*
G04 #@! TO.N,GND*
X85090000Y-99020000D03*
G04 #@! TO.P,C12,1*
G04 #@! TO.N,+5V*
X85090000Y-96520000D03*
G04 #@! TD*
G04 #@! TO.P,C11,2*
G04 #@! TO.N,GND*
X85090000Y-81240000D03*
G04 #@! TO.P,C11,1*
G04 #@! TO.N,+5V*
X85090000Y-78740000D03*
G04 #@! TD*
G04 #@! TO.P,C10,2*
G04 #@! TO.N,GND*
X85090000Y-62190000D03*
G04 #@! TO.P,C10,1*
G04 #@! TO.N,+5V*
X85090000Y-59690000D03*
G04 #@! TD*
G04 #@! TO.P,C9,2*
G04 #@! TO.N,GND*
X85090000Y-44410000D03*
G04 #@! TO.P,C9,1*
G04 #@! TO.N,+5V*
X85090000Y-41910000D03*
G04 #@! TD*
G04 #@! TO.P,C8,2*
G04 #@! TO.N,GND*
X86360000Y-27900000D03*
G04 #@! TO.P,C8,1*
G04 #@! TO.N,+5V*
X86360000Y-25400000D03*
G04 #@! TD*
G04 #@! TO.P,C7,2*
G04 #@! TO.N,GND*
X86360000Y-11390000D03*
G04 #@! TO.P,C7,1*
G04 #@! TO.N,+5V*
X86360000Y-8890000D03*
G04 #@! TD*
G04 #@! TO.P,C6,2*
G04 #@! TO.N,GND*
X135890000Y-88860000D03*
G04 #@! TO.P,C6,1*
G04 #@! TO.N,+5V*
X135890000Y-86360000D03*
G04 #@! TD*
G04 #@! TO.P,C5,2*
G04 #@! TO.N,GND*
X135890000Y-40600000D03*
G04 #@! TO.P,C5,1*
G04 #@! TO.N,+5V*
X135890000Y-38100000D03*
G04 #@! TD*
G04 #@! TO.P,C4,2*
G04 #@! TO.N,GND*
X27940000Y-126960000D03*
G04 #@! TO.P,C4,1*
G04 #@! TO.N,+5V*
X27940000Y-124460000D03*
G04 #@! TD*
G04 #@! TO.P,C3,2*
G04 #@! TO.N,GND*
X26670000Y-90130000D03*
G04 #@! TO.P,C3,1*
G04 #@! TO.N,+5V*
X26670000Y-87630000D03*
G04 #@! TD*
G04 #@! TO.P,C2,2*
G04 #@! TO.N,GND*
X29210000Y-52030000D03*
G04 #@! TO.P,C2,1*
G04 #@! TO.N,+5V*
X29210000Y-49530000D03*
G04 #@! TD*
G04 #@! TO.P,C1,2*
G04 #@! TO.N,GND*
X29210000Y-12660000D03*
G04 #@! TO.P,C1,1*
G04 #@! TO.N,+5V*
X29210000Y-10160000D03*
G04 #@! TD*
D19*
G04 #@! TO.N,Net-(D1-Pad2)*
X76805100Y-62591800D03*
G04 #@! TO.N,Net-(D2-Pad2)*
X76050700Y-54332600D03*
G04 #@! TO.N,Net-(D3-Pad2)*
X58657100Y-39019200D03*
X112886600Y-108313800D03*
X112886600Y-56312600D03*
G04 #@! TO.N,Net-(D4-Pad2)*
X110795600Y-108529900D03*
X111568100Y-44142800D03*
X57435800Y-39322800D03*
G04 #@! TO.N,Net-(D5-Pad2)*
X109741700Y-87303500D03*
X109857300Y-37110400D03*
G04 #@! TO.N,Net-(D6-Pad2)*
X111745900Y-89800700D03*
G04 #@! TO.N,Net-(D9-Pad2)*
X87400800Y-135455800D03*
G04 #@! TO.N,Net-(D10-Pad2)*
X97595800Y-61027600D03*
G04 #@! TO.N,Net-(D11-Pad2)*
X88368800Y-116371000D03*
X88443300Y-53394100D03*
X58656800Y-61649400D03*
G04 #@! TO.N,Net-(D12-Pad2)*
X56605600Y-82635400D03*
G04 #@! TO.N,Net-(D13-Pad2)*
X86835500Y-84702500D03*
X84432000Y-36861400D03*
G04 #@! TO.N,Net-(D14-Pad2)*
X111458500Y-86088200D03*
X111067800Y-41698500D03*
X39656500Y-61914600D03*
G04 #@! TO.N,Net-(D15-Pad2)*
X100185400Y-27865000D03*
G04 #@! TO.N,Net-(D16-Pad2)*
X113659200Y-75021600D03*
G04 #@! TO.N,c0*
X73748300Y-72900700D03*
X86939100Y-137209800D03*
G04 #@! TO.N,c1*
X83238100Y-123275000D03*
X73855000Y-60353700D03*
G04 #@! TO.N,c2*
X60604000Y-104004800D03*
X79646400Y-122549700D03*
X75042100Y-52293600D03*
X43127300Y-100374600D03*
G04 #@! TO.N,c3*
X73918500Y-111123500D03*
X75470800Y-41476100D03*
X66132200Y-101164800D03*
G04 #@! TO.N,c4*
X81987900Y-36491300D03*
X81058600Y-89595100D03*
X45659400Y-89245500D03*
G04 #@! TO.N,c5*
X85050100Y-84573100D03*
X89034200Y-29847400D03*
G04 #@! TO.N,c6*
X80953800Y-81838100D03*
X29292000Y-89651500D03*
G04 #@! TO.N,c7*
X21854900Y-89448900D03*
X76927000Y-80094000D03*
G04 #@! TO.N,Rrd0*
X140229000Y-72900700D03*
X143000300Y-137836100D03*
G04 #@! TO.N,Rrd1*
X142043700Y-138986400D03*
X180295300Y-136276300D03*
G04 #@! TO.N,Rrd2*
X139528800Y-139711700D03*
G04 #@! TO.N,Rrd3*
X141471800Y-129379000D03*
G04 #@! TO.N,Rrd6*
X142315800Y-46160900D03*
G04 #@! TO.N,Rrd7*
X129498800Y-131245400D03*
G04 #@! TO.N,Rrs0*
X146488000Y-88698400D03*
G04 #@! TO.N,Rrs3*
X158080100Y-98886600D03*
G04 #@! TO.N,Rrs4*
X158427900Y-97209100D03*
G04 #@! TO.N,Rrs7*
X136768100Y-100513900D03*
G04 #@! TO.N,rdrsclk*
X74797900Y-160979800D03*
G04 #@! TO.N,CLK*
X57820500Y-74367300D03*
G04 #@! TO.N,wb4*
X58254000Y-42195900D03*
G04 #@! TO.N,wb2*
X51984200Y-95289900D03*
X53018500Y-55646900D03*
X55789500Y-137331200D03*
G04 #@! TO.N,wb1*
X46776000Y-138387400D03*
G04 #@! TO.N,wb0*
X57869300Y-97762500D03*
X53360400Y-128140000D03*
G04 #@! TO.N,rd1*
X85931800Y-65616000D03*
G04 #@! TO.N,Net-(U16-Pad5)*
X59565500Y-50650400D03*
X37101100Y-51665900D03*
G04 #@! TO.N,Net-(U16-Pad6)*
X84033400Y-160852000D03*
X59344800Y-102390000D03*
G04 #@! TO.N,Net-(D25-Pad2)*
X89602400Y-140358500D03*
G04 #@! TO.N,Net-(D26-Pad2)*
X60730400Y-136574600D03*
X89631200Y-134332600D03*
G04 #@! TO.N,Net-(D27-Pad2)*
X85517000Y-52281000D03*
X83644600Y-120932100D03*
G04 #@! TO.N,Net-(D28-Pad2)*
X88215100Y-42004100D03*
X87776400Y-114155500D03*
G04 #@! TO.N,Net-(D29-Pad2)*
X89042300Y-34254000D03*
X88226700Y-97960400D03*
G04 #@! TO.N,Net-(D30-Pad2)*
X89545400Y-27793400D03*
X88679400Y-86740800D03*
G04 #@! TO.N,Net-(D31-Pad2)*
X97965300Y-104215100D03*
X114348400Y-78030500D03*
G04 #@! TO.N,Net-(D32-Pad2)*
X79172700Y-94374400D03*
X83472100Y-77179600D03*
G04 #@! TD*
D20*
G04 #@! TO.N,GND*
X85090000Y-44410000D02*
X86242300Y-45562300D01*
X86242300Y-45562300D02*
X86242300Y-61037700D01*
X86242300Y-61037700D02*
X85090000Y-62190000D01*
X109220000Y-120650000D02*
X109220000Y-119524700D01*
X109220000Y-101600000D02*
X109220000Y-109718000D01*
X109220000Y-109718000D02*
X110345300Y-110843300D01*
X110345300Y-110843300D02*
X110345300Y-118399400D01*
X110345300Y-118399400D02*
X109220000Y-119524700D01*
X109220000Y-101037300D02*
X109220000Y-101600000D01*
X109220000Y-48115300D02*
X110345300Y-49240600D01*
X110345300Y-49240600D02*
X110345300Y-62519400D01*
X110345300Y-62519400D02*
X109220000Y-63644700D01*
X109220000Y-30480000D02*
X109220000Y-29354700D01*
X109220000Y-13970000D02*
X109220000Y-15095300D01*
X109220000Y-15095300D02*
X110345300Y-16220600D01*
X110345300Y-16220600D02*
X110345300Y-28229400D01*
X110345300Y-28229400D02*
X109220000Y-29354700D01*
X109220000Y-84945300D02*
X108994900Y-85170400D01*
X108994900Y-85170400D02*
X108994900Y-89587500D01*
X108994900Y-89587500D02*
X110345300Y-90937900D01*
X110345300Y-90937900D02*
X110345300Y-99349400D01*
X110345300Y-99349400D02*
X109220000Y-100474700D01*
X93980000Y-113030000D02*
X93980000Y-111904700D01*
X92354900Y-101037300D02*
X92354900Y-96730400D01*
X92354900Y-96730400D02*
X93980000Y-95105300D01*
X93980000Y-111904700D02*
X92354900Y-110279600D01*
X92354900Y-110279600D02*
X92354900Y-101037300D01*
X92354900Y-101037300D02*
X91440000Y-101037300D01*
X93980000Y-93980000D02*
X93980000Y-95105300D01*
X35560000Y-35560000D02*
X35560000Y-34434700D01*
X29210000Y-12660000D02*
X29210000Y-28084700D01*
X29210000Y-28084700D02*
X35560000Y-34434700D01*
X30010000Y-52030000D02*
X30010000Y-68254700D01*
X30010000Y-68254700D02*
X34290000Y-72534700D01*
X35560000Y-36685300D02*
X31607000Y-40638300D01*
X31607000Y-40638300D02*
X31607000Y-50433000D01*
X31607000Y-50433000D02*
X30010000Y-52030000D01*
X29210000Y-52030000D02*
X30010000Y-52030000D01*
X34290000Y-73660000D02*
X34290000Y-72534700D01*
X34290000Y-73660000D02*
X34290000Y-74785300D01*
X30763000Y-88905900D02*
X30763000Y-108377700D01*
X30763000Y-108377700D02*
X33020000Y-110634700D01*
X34290000Y-74785300D02*
X30763000Y-78312300D01*
X30763000Y-78312300D02*
X30763000Y-88905900D01*
X30763000Y-88905900D02*
X27894100Y-88905900D01*
X27894100Y-88905900D02*
X26670000Y-90130000D01*
X33020000Y-111760000D02*
X33020000Y-110634700D01*
X163830000Y-44305300D02*
X166225300Y-46700600D01*
X166225300Y-46700600D02*
X166225300Y-89189400D01*
X166225300Y-89189400D02*
X165100000Y-90314700D01*
X91440000Y-30480000D02*
X91440000Y-31605300D01*
X93980000Y-39370000D02*
X93980000Y-34145300D01*
X93980000Y-34145300D02*
X91440000Y-31605300D01*
X91440000Y-45864700D02*
X93980000Y-43324700D01*
X93980000Y-43324700D02*
X93980000Y-39370000D01*
X109220000Y-139700000D02*
X110345300Y-139700000D01*
X135890000Y-139660000D02*
X110385300Y-139660000D01*
X110385300Y-139660000D02*
X110345300Y-139700000D01*
X91440000Y-12844700D02*
X87814700Y-12844700D01*
X87814700Y-12844700D02*
X86360000Y-11390000D01*
X93980000Y-6350000D02*
X93980000Y-10304700D01*
X93980000Y-10304700D02*
X91440000Y-12844700D01*
X93980000Y-22860000D02*
X93980000Y-21734700D01*
X91440000Y-13970000D02*
X91440000Y-19194700D01*
X91440000Y-19194700D02*
X93980000Y-21734700D01*
X91440000Y-13407300D02*
X91440000Y-13970000D01*
X91440000Y-30480000D02*
X91440000Y-29354700D01*
X91440000Y-29354700D02*
X93980000Y-26814700D01*
X93980000Y-26814700D02*
X93980000Y-22860000D01*
X33020000Y-111760000D02*
X33020000Y-112885300D01*
X33020000Y-112885300D02*
X31894700Y-114010600D01*
X31894700Y-114010600D02*
X31894700Y-123005300D01*
X31894700Y-123005300D02*
X27940000Y-126960000D01*
X140970000Y-63500000D02*
X140970000Y-62374700D01*
X140970000Y-62374700D02*
X135890000Y-57294700D01*
X135890000Y-57294700D02*
X135890000Y-40600000D01*
X140970000Y-63500000D02*
X140970000Y-83780000D01*
X140970000Y-83780000D02*
X135890000Y-88860000D01*
X109220000Y-30480000D02*
X109220000Y-31605300D01*
X109220000Y-31605300D02*
X108094700Y-32730600D01*
X108094700Y-32730600D02*
X108094700Y-44739400D01*
X108094700Y-44739400D02*
X109220000Y-45864700D01*
X109220000Y-46990000D02*
X109220000Y-45864700D01*
X109220000Y-64770000D02*
X109220000Y-63644700D01*
X109220000Y-46990000D02*
X109220000Y-48115300D01*
X109220000Y-83820000D02*
X109220000Y-82694700D01*
X109220000Y-64770000D02*
X109220000Y-65895300D01*
X109220000Y-65895300D02*
X110345300Y-67020600D01*
X110345300Y-67020600D02*
X110345300Y-81569400D01*
X110345300Y-81569400D02*
X109220000Y-82694700D01*
X91440000Y-83820000D02*
X91440000Y-82694700D01*
X93980000Y-76200000D02*
X93980000Y-80154700D01*
X93980000Y-80154700D02*
X91440000Y-82694700D01*
X91440000Y-65895300D02*
X93980000Y-68435300D01*
X93980000Y-68435300D02*
X93980000Y-76200000D01*
X93980000Y-93980000D02*
X93980000Y-92854700D01*
X93980000Y-92854700D02*
X91440000Y-90314700D01*
X91440000Y-90314700D02*
X91440000Y-83820000D01*
X91440000Y-64770000D02*
X91440000Y-65895300D01*
X165100000Y-91440000D02*
X165100000Y-90314700D01*
X163830000Y-43180000D02*
X163830000Y-44305300D01*
X135890000Y-88860000D02*
X135890000Y-105554700D01*
X135890000Y-105554700D02*
X140970000Y-110634700D01*
X140970000Y-111760000D02*
X140970000Y-110634700D01*
X93980000Y-132080000D02*
X93980000Y-133205300D01*
X91440000Y-139700000D02*
X91440000Y-135745300D01*
X91440000Y-135745300D02*
X93980000Y-133205300D01*
X91440000Y-101600000D02*
X91440000Y-101037300D01*
X91440000Y-120650000D02*
X91440000Y-119524700D01*
X93980000Y-113030000D02*
X93980000Y-116984700D01*
X93980000Y-116984700D02*
X91440000Y-119524700D01*
X91440000Y-120650000D02*
X91440000Y-121775300D01*
X91440000Y-121775300D02*
X93980000Y-124315300D01*
X93980000Y-124315300D02*
X93980000Y-132080000D01*
X109220000Y-101037300D02*
X109220000Y-100474700D01*
X109220000Y-83820000D02*
X109220000Y-84945300D01*
X91440000Y-46990000D02*
X91440000Y-45864700D01*
X93980000Y-57150000D02*
X93980000Y-56024700D01*
X91440000Y-46990000D02*
X91440000Y-53484700D01*
X91440000Y-53484700D02*
X93980000Y-56024700D01*
X91440000Y-13407300D02*
X91440000Y-12844700D01*
X35560000Y-35560000D02*
X35560000Y-36685300D01*
G04 #@! TO.N,+5V*
X91440000Y-130954700D02*
X90314700Y-129829400D01*
X90314700Y-129829400D02*
X90314700Y-117361600D01*
X90314700Y-117361600D02*
X91440000Y-116236300D01*
X91440000Y-116236300D02*
X91440000Y-114155300D01*
X85090000Y-78740000D02*
X83874500Y-79955500D01*
X83874500Y-79955500D02*
X83874500Y-95304500D01*
X83874500Y-95304500D02*
X85090000Y-96520000D01*
X86360000Y-25400000D02*
X85232400Y-24272400D01*
X85232400Y-24272400D02*
X85232400Y-10017600D01*
X85232400Y-10017600D02*
X86360000Y-8890000D01*
X86360000Y-25400000D02*
X90314700Y-25400000D01*
X85090000Y-134620000D02*
X76200000Y-143510000D01*
X76200000Y-143510000D02*
X76200000Y-156210000D01*
X91440000Y-39370000D02*
X91440000Y-40495300D01*
X91440000Y-57150000D02*
X91440000Y-56024700D01*
X91440000Y-56024700D02*
X90314700Y-54899400D01*
X90314700Y-54899400D02*
X90314700Y-41620600D01*
X90314700Y-41620600D02*
X91440000Y-40495300D01*
X86360000Y-8890000D02*
X87774700Y-8890000D01*
X87774700Y-8890000D02*
X90314700Y-6350000D01*
X91440000Y-6350000D02*
X90314700Y-6350000D01*
X91440000Y-39370000D02*
X91440000Y-38244700D01*
X90314700Y-25400000D02*
X90314700Y-25110600D01*
X90314700Y-25110600D02*
X91440000Y-23985300D01*
X91440000Y-38244700D02*
X90314700Y-37119400D01*
X90314700Y-37119400D02*
X90314700Y-25400000D01*
X26670000Y-87630000D02*
X24174600Y-90125400D01*
X24174600Y-90125400D02*
X24174600Y-120694600D01*
X24174600Y-120694600D02*
X27940000Y-124460000D01*
X29210000Y-49530000D02*
X28084700Y-50655300D01*
X28084700Y-50655300D02*
X28084700Y-86215300D01*
X28084700Y-86215300D02*
X26670000Y-87630000D01*
X140970000Y-35560000D02*
X140970000Y-34434700D01*
X137160000Y-10160000D02*
X137160000Y-30624700D01*
X137160000Y-30624700D02*
X140970000Y-34434700D01*
X91440000Y-113030000D02*
X91440000Y-111904700D01*
X91440000Y-93980000D02*
X91440000Y-95105300D01*
X91440000Y-95105300D02*
X90314700Y-96230600D01*
X90314700Y-96230600D02*
X90314700Y-110779400D01*
X90314700Y-110779400D02*
X91440000Y-111904700D01*
X85090000Y-78740000D02*
X85090000Y-74852000D01*
X85090000Y-74852000D02*
X83964600Y-73726600D01*
X83964600Y-73726600D02*
X83964600Y-60815400D01*
X83964600Y-60815400D02*
X85090000Y-59690000D01*
X91440000Y-113030000D02*
X91440000Y-114155300D01*
X91440000Y-132080000D02*
X91440000Y-130954700D01*
X135890000Y-86360000D02*
X124504700Y-97745300D01*
X124504700Y-97745300D02*
X124504700Y-118299400D01*
X124504700Y-118299400D02*
X139700000Y-133494700D01*
X139700000Y-134620000D02*
X139700000Y-133494700D01*
X135890000Y-86360000D02*
X134764600Y-85234600D01*
X134764600Y-85234600D02*
X134764600Y-39225400D01*
X134764600Y-39225400D02*
X135890000Y-38100000D01*
X91440000Y-22860000D02*
X91440000Y-23985300D01*
X28031600Y-12897900D02*
X28031600Y-48351600D01*
X28031600Y-48351600D02*
X29210000Y-49530000D01*
X29210000Y-10160000D02*
X28031600Y-11338400D01*
X28031600Y-11338400D02*
X28031600Y-12897900D01*
X28031600Y-12897900D02*
X7422100Y-12897900D01*
X7422100Y-12897900D02*
X6350000Y-13970000D01*
G04 #@! TO.N,Net-(D1-Pad2)*
X72390000Y-25400000D02*
X76805100Y-29815100D01*
X76805100Y-29815100D02*
X76805100Y-62591800D01*
X104140000Y-65895300D02*
X104140000Y-67168900D01*
X104140000Y-67168900D02*
X105265300Y-68294200D01*
X105265300Y-68294200D02*
X105265300Y-137449400D01*
X105265300Y-137449400D02*
X104140000Y-138574700D01*
X104140000Y-139700000D02*
X104140000Y-138574700D01*
X104140000Y-64770000D02*
X104140000Y-65895300D01*
G04 #@! TO.N,Net-(D2-Pad2)*
X64770000Y-25400000D02*
X76217700Y-36847700D01*
X76217700Y-36847700D02*
X76217700Y-54165600D01*
X76217700Y-54165600D02*
X76050700Y-54332600D01*
X106680000Y-132080000D02*
X106680000Y-130954700D01*
X106680000Y-57150000D02*
X106680000Y-58275300D01*
X106680000Y-58275300D02*
X107805300Y-59400600D01*
X107805300Y-59400600D02*
X107805300Y-129829400D01*
X107805300Y-129829400D02*
X106680000Y-130954700D01*
G04 #@! TO.N,Net-(D3-Pad2)*
X57150000Y-25400000D02*
X57524100Y-25400000D01*
X57524100Y-25400000D02*
X58869800Y-26745700D01*
X58869800Y-26745700D02*
X58869800Y-38806500D01*
X58869800Y-38806500D02*
X58657100Y-39019200D01*
X112886600Y-56312600D02*
X112886600Y-108313800D01*
G04 #@! TO.N,Net-(D3-Pad1)*
X50800000Y-35560000D02*
X50800000Y-34434700D01*
X57150000Y-27940000D02*
X57150000Y-29165300D01*
X57150000Y-29165300D02*
X51880600Y-34434700D01*
X51880600Y-34434700D02*
X50800000Y-34434700D01*
G04 #@! TO.N,Net-(D4-Pad2)*
X110795600Y-108529900D02*
X110795600Y-86776900D01*
X110795600Y-86776900D02*
X110733100Y-86714400D01*
X110733100Y-86714400D02*
X110733100Y-85025500D01*
X110733100Y-85025500D02*
X111260600Y-84498000D01*
X111260600Y-84498000D02*
X111260600Y-44450300D01*
X111260600Y-44450300D02*
X111568100Y-44142800D01*
X54610000Y-24678500D02*
X56646100Y-26714600D01*
X56646100Y-26714600D02*
X58201700Y-26714600D01*
X58201700Y-26714600D02*
X58404500Y-26917400D01*
X58404500Y-26917400D02*
X58404500Y-38226100D01*
X58404500Y-38226100D02*
X57435800Y-39194800D01*
X57435800Y-39194800D02*
X57435800Y-39322800D01*
X54610000Y-16510000D02*
X54610000Y-24678500D01*
X49530000Y-25400000D02*
X50251500Y-24678500D01*
X50251500Y-24678500D02*
X54610000Y-24678500D01*
G04 #@! TO.N,Net-(D4-Pad1)*
X49530000Y-27940000D02*
X49530000Y-29165300D01*
X49530000Y-29165300D02*
X48260000Y-30435300D01*
X48260000Y-30435300D02*
X48260000Y-35560000D01*
G04 #@! TO.N,Net-(D5-Pad2)*
X109857300Y-37110400D02*
X110346900Y-37600000D01*
X110346900Y-37600000D02*
X110346900Y-39892800D01*
X110346900Y-39892800D02*
X110257600Y-39982100D01*
X110257600Y-39982100D02*
X110257600Y-45784300D01*
X110257600Y-45784300D02*
X110810300Y-46337000D01*
X110810300Y-46337000D02*
X110810300Y-84291700D01*
X110810300Y-84291700D02*
X109741700Y-85360300D01*
X109741700Y-85360300D02*
X109741700Y-87303500D01*
X54610000Y-8890000D02*
X53484700Y-8890000D01*
X41910000Y-25400000D02*
X45720000Y-21590000D01*
X45720000Y-21590000D02*
X45720000Y-11960200D01*
X45720000Y-11960200D02*
X48260000Y-9420200D01*
X48260000Y-9420200D02*
X48260000Y-8487600D01*
X48260000Y-8487600D02*
X49021400Y-7726200D01*
X49021400Y-7726200D02*
X52532900Y-7726200D01*
X52532900Y-7726200D02*
X53484700Y-8678000D01*
X53484700Y-8678000D02*
X53484700Y-8890000D01*
G04 #@! TO.N,Net-(D5-Pad1)*
X41910000Y-27940000D02*
X41910000Y-29165300D01*
X41910000Y-29165300D02*
X45720000Y-32975300D01*
X45720000Y-32975300D02*
X45720000Y-35560000D01*
G04 #@! TO.N,Net-(D6-Pad2)*
X111745900Y-89800700D02*
X112183800Y-89362800D01*
X112183800Y-89362800D02*
X112183800Y-85787700D01*
X112183800Y-85787700D02*
X112161300Y-85765200D01*
X112161300Y-85765200D02*
X112161300Y-45340300D01*
X112161300Y-45340300D02*
X112743700Y-44757900D01*
X112743700Y-44757900D02*
X112743700Y-15891500D01*
X112743700Y-15891500D02*
X109666700Y-12814500D01*
X109666700Y-12814500D02*
X108726500Y-12814500D01*
X108726500Y-12814500D02*
X107805300Y-13735700D01*
X107805300Y-13735700D02*
X107805300Y-20609400D01*
X107805300Y-20609400D02*
X106680000Y-21734700D01*
X106680000Y-22860000D02*
X106680000Y-21734700D01*
X46990000Y-8890000D02*
X46990000Y-10015300D01*
X46990000Y-10015300D02*
X46708700Y-10015300D01*
X46708700Y-10015300D02*
X40495300Y-16228700D01*
X40495300Y-16228700D02*
X40495300Y-19194700D01*
X40495300Y-19194700D02*
X34290000Y-25400000D01*
G04 #@! TO.N,Net-(D7-Pad2)*
X104140000Y-83820000D02*
X104140000Y-82694700D01*
X104140000Y-13970000D02*
X104140000Y-15095300D01*
X104140000Y-15095300D02*
X103014700Y-16220600D01*
X103014700Y-16220600D02*
X103014700Y-81569400D01*
X103014700Y-81569400D02*
X104140000Y-82694700D01*
G04 #@! TO.N,Net-(D8-Pad2)*
X106680000Y-6350000D02*
X106680000Y-7475300D01*
X106680000Y-7475300D02*
X105546700Y-8608600D01*
X105546700Y-8608600D02*
X105546700Y-67620500D01*
X105546700Y-67620500D02*
X106680000Y-68753800D01*
X106680000Y-68753800D02*
X106680000Y-76200000D01*
G04 #@! TO.N,Net-(D9-Pad2)*
X87400800Y-135455800D02*
X87400800Y-125714200D01*
X87400800Y-125714200D02*
X75950200Y-114263600D01*
X75950200Y-114263600D02*
X75950200Y-67060100D01*
X75950200Y-67060100D02*
X75950100Y-67060100D01*
X75950100Y-67060100D02*
X72390000Y-63500000D01*
G04 #@! TO.N,Net-(D10-Pad2)*
X97595800Y-61027600D02*
X97716100Y-61147900D01*
X97716100Y-61147900D02*
X97716100Y-86579800D01*
X97716100Y-86579800D02*
X103014700Y-91878400D01*
X103014700Y-91878400D02*
X103014700Y-129829400D01*
X103014700Y-129829400D02*
X104140000Y-130954700D01*
X104140000Y-132080000D02*
X104140000Y-130954700D01*
G04 #@! TO.N,Net-(D11-Pad2)*
X88443300Y-53394100D02*
X88044500Y-53792900D01*
X88044500Y-53792900D02*
X88044500Y-85156400D01*
X88044500Y-85156400D02*
X87467600Y-85733300D01*
X87467600Y-85733300D02*
X87467600Y-98235400D01*
X87467600Y-98235400D02*
X88501800Y-99269600D01*
X88501800Y-99269600D02*
X88501800Y-116238000D01*
X88501800Y-116238000D02*
X88368800Y-116371000D01*
X57150000Y-63500000D02*
X58656800Y-61993200D01*
X58656800Y-61993200D02*
X58656800Y-61649400D01*
G04 #@! TO.N,Net-(D12-Pad2)*
X54610000Y-55735300D02*
X55901100Y-57026400D01*
X55901100Y-57026400D02*
X55901100Y-67086700D01*
X55901100Y-67086700D02*
X56605600Y-67791200D01*
X56605600Y-67791200D02*
X56605600Y-82635400D01*
X54610000Y-54610000D02*
X54610000Y-55735300D01*
G04 #@! TO.N,Net-(D12-Pad1)*
X49530000Y-66040000D02*
X49530000Y-67265300D01*
X49530000Y-67265300D02*
X46990000Y-69805300D01*
X46990000Y-69805300D02*
X46990000Y-73660000D01*
G04 #@! TO.N,Net-(D13-Pad2)*
X86835500Y-84702500D02*
X87143900Y-84394100D01*
X87143900Y-84394100D02*
X87143900Y-39573300D01*
X87143900Y-39573300D02*
X84432000Y-36861400D01*
G04 #@! TO.N,Net-(D13-Pad1)*
X41910000Y-66040000D02*
X41910000Y-67265300D01*
X41910000Y-67265300D02*
X44450000Y-69805300D01*
X44450000Y-69805300D02*
X44450000Y-73660000D01*
G04 #@! TO.N,Net-(D14-Pad2)*
X46990000Y-46990000D02*
X40713900Y-53266100D01*
X40713900Y-53266100D02*
X40713900Y-60857200D01*
X40713900Y-60857200D02*
X39656500Y-61914600D01*
X111458500Y-86088200D02*
X111711000Y-85835700D01*
X111711000Y-85835700D02*
X111711000Y-45153700D01*
X111711000Y-45153700D02*
X112293400Y-44571300D01*
X112293400Y-44571300D02*
X112293400Y-42924100D01*
X112293400Y-42924100D02*
X111067800Y-41698500D01*
G04 #@! TO.N,Net-(D14-Pad1)*
X41910000Y-73660000D02*
X40784700Y-73660000D01*
X34290000Y-66040000D02*
X34290000Y-67265300D01*
X34290000Y-67265300D02*
X34671300Y-67265300D01*
X34671300Y-67265300D02*
X40784700Y-73378700D01*
X40784700Y-73378700D02*
X40784700Y-73660000D01*
G04 #@! TO.N,Net-(D15-Pad2)*
X101600000Y-15095300D02*
X100185400Y-16509900D01*
X100185400Y-16509900D02*
X100185400Y-27865000D01*
X101600000Y-82694700D02*
X100185400Y-81280100D01*
X100185400Y-81280100D02*
X100185400Y-27865000D01*
X101600000Y-83820000D02*
X101600000Y-82694700D01*
X101600000Y-13970000D02*
X101600000Y-15095300D01*
G04 #@! TO.N,Net-(D16-Pad2)*
X104140000Y-6350000D02*
X105265300Y-6350000D01*
X113659200Y-75021600D02*
X113659200Y-14422600D01*
X113659200Y-14422600D02*
X107950000Y-8713400D01*
X107950000Y-8713400D02*
X107950000Y-6005800D01*
X107950000Y-6005800D02*
X107168900Y-5224700D01*
X107168900Y-5224700D02*
X106109200Y-5224700D01*
X106109200Y-5224700D02*
X105265300Y-6068600D01*
X105265300Y-6068600D02*
X105265300Y-6350000D01*
G04 #@! TO.N,Net-(D20-Pad1)*
X48260000Y-104140000D02*
X48260000Y-105365300D01*
X48260000Y-105365300D02*
X45720000Y-107905300D01*
X45720000Y-107905300D02*
X45720000Y-111760000D01*
G04 #@! TO.N,Net-(D21-Pad1)*
X40640000Y-104140000D02*
X40640000Y-105365300D01*
X40640000Y-105365300D02*
X43180000Y-107905300D01*
X43180000Y-107905300D02*
X43180000Y-111760000D01*
G04 #@! TO.N,c0*
X71120000Y-101600000D02*
X73748300Y-98971700D01*
X73748300Y-98971700D02*
X73748300Y-72900700D01*
X71120000Y-101600000D02*
X74980800Y-105460800D01*
X74980800Y-105460800D02*
X74980800Y-113931100D01*
X74980800Y-113931100D02*
X86675400Y-125625700D01*
X86675400Y-125625700D02*
X86675400Y-136946100D01*
X86675400Y-136946100D02*
X86939100Y-137209800D01*
G04 #@! TO.N,c1*
X64090100Y-101600000D02*
X64090100Y-102320900D01*
X64090100Y-102320900D02*
X72706900Y-110937700D01*
X72706900Y-110937700D02*
X72706900Y-112743800D01*
X72706900Y-112743800D02*
X83238100Y-123275000D01*
X73855000Y-60353700D02*
X73164900Y-60353700D01*
X73164900Y-60353700D02*
X70692100Y-62826500D01*
X70692100Y-62826500D02*
X70692100Y-94998000D01*
X70692100Y-94998000D02*
X64090100Y-101600000D01*
X64090100Y-101600000D02*
X63500000Y-101600000D01*
G04 #@! TO.N,c2*
X61421000Y-104004800D02*
X60604000Y-104004800D01*
X61421000Y-104004800D02*
X61421000Y-104324300D01*
X61421000Y-104324300D02*
X79646400Y-122549700D01*
X75042100Y-52293600D02*
X68277900Y-59057800D01*
X68277900Y-59057800D02*
X68277900Y-64850800D01*
X68277900Y-64850800D02*
X61421000Y-71707700D01*
X61421000Y-71707700D02*
X61421000Y-104004800D01*
X43127300Y-100374600D02*
X43127300Y-99431000D01*
X43127300Y-99431000D02*
X45720000Y-96838300D01*
X45720000Y-96838300D02*
X45720000Y-92710000D01*
G04 #@! TO.N,c3*
X53340000Y-93835300D02*
X52383100Y-93835300D01*
X52383100Y-93835300D02*
X48260000Y-97958400D01*
X48260000Y-97958400D02*
X48260000Y-101600000D01*
X66132200Y-101164800D02*
X66132200Y-103337200D01*
X66132200Y-103337200D02*
X73918500Y-111123500D01*
X66132200Y-101164800D02*
X71164600Y-96132400D01*
X71164600Y-96132400D02*
X71164600Y-62992500D01*
X71164600Y-62992500D02*
X72646100Y-61511000D01*
X72646100Y-61511000D02*
X73731400Y-61511000D01*
X73731400Y-61511000D02*
X75190300Y-60052100D01*
X75190300Y-60052100D02*
X75190300Y-53933400D01*
X75190300Y-53933400D02*
X75767400Y-53356300D01*
X75767400Y-53356300D02*
X75767400Y-41772700D01*
X75767400Y-41772700D02*
X75470800Y-41476100D01*
X53340000Y-92710000D02*
X53340000Y-93835300D01*
G04 #@! TO.N,Net-(D28-Pad1)*
X49530000Y-142240000D02*
X49530000Y-143465300D01*
X49530000Y-143465300D02*
X46990000Y-146005300D01*
X46990000Y-146005300D02*
X46990000Y-149860000D01*
G04 #@! TO.N,c4*
X81058600Y-89595100D02*
X81987900Y-88665800D01*
X81987900Y-88665800D02*
X81987900Y-36491300D01*
X40640000Y-101600000D02*
X40640000Y-98515700D01*
X40640000Y-98515700D02*
X44450000Y-94705700D01*
X44450000Y-94705700D02*
X44450000Y-90454900D01*
X44450000Y-90454900D02*
X45659400Y-89245500D01*
G04 #@! TO.N,Net-(D29-Pad1)*
X41910000Y-142240000D02*
X41910000Y-143465300D01*
X41910000Y-143465300D02*
X44450000Y-146005300D01*
X44450000Y-146005300D02*
X44450000Y-149860000D01*
G04 #@! TO.N,c5*
X89034200Y-29847400D02*
X83703500Y-35178100D01*
X83703500Y-35178100D02*
X83703500Y-37646700D01*
X83703500Y-37646700D02*
X86693500Y-40636700D01*
X86693500Y-40636700D02*
X86693500Y-82929700D01*
X86693500Y-82929700D02*
X85050100Y-84573100D01*
X45720000Y-86215300D02*
X45488000Y-86215300D01*
X45488000Y-86215300D02*
X39514600Y-92188700D01*
X39514600Y-92188700D02*
X39514600Y-95105400D01*
X39514600Y-95105400D02*
X33020000Y-101600000D01*
X45720000Y-85090000D02*
X45720000Y-86215300D01*
G04 #@! TO.N,c6*
X99060000Y-13970000D02*
X99060000Y-9010100D01*
X99060000Y-9010100D02*
X100224300Y-7845800D01*
X100224300Y-7845800D02*
X100224300Y-5900200D01*
X100224300Y-5900200D02*
X99098400Y-4774300D01*
X99098400Y-4774300D02*
X88169700Y-4774300D01*
X88169700Y-4774300D02*
X80953800Y-11990200D01*
X80953800Y-11990200D02*
X80953800Y-81838100D01*
X25400000Y-101600000D02*
X29292000Y-97708000D01*
X29292000Y-97708000D02*
X29292000Y-89651500D01*
G04 #@! TO.N,c7*
X76927000Y-80094000D02*
X77991000Y-79030000D01*
X77991000Y-79030000D02*
X77991000Y-14316100D01*
X77991000Y-14316100D02*
X87998100Y-4309000D01*
X87998100Y-4309000D02*
X99559000Y-4309000D01*
X99559000Y-4309000D02*
X101600000Y-6350000D01*
X17780000Y-101600000D02*
X21854900Y-97525100D01*
X21854900Y-97525100D02*
X21854900Y-89448900D01*
G04 #@! TO.N,Rrd0*
X128270000Y-160114700D02*
X140825400Y-147559300D01*
X140825400Y-147559300D02*
X140825400Y-141798500D01*
X140825400Y-141798500D02*
X143000300Y-139623600D01*
X143000300Y-139623600D02*
X143000300Y-137836100D01*
X144780000Y-134620000D02*
X144780000Y-133494700D01*
X140229000Y-72900700D02*
X140229000Y-83659500D01*
X140229000Y-83659500D02*
X136278500Y-87610000D01*
X136278500Y-87610000D02*
X135527300Y-87610000D01*
X135527300Y-87610000D02*
X132117300Y-91020000D01*
X132117300Y-91020000D02*
X132117300Y-106719900D01*
X132117300Y-106719900D02*
X144266200Y-118868800D01*
X144266200Y-118868800D02*
X144266200Y-132980900D01*
X144266200Y-132980900D02*
X144780000Y-133494700D01*
X128270000Y-161290000D02*
X128270000Y-160114700D01*
X128270000Y-179070000D02*
X128270000Y-161290000D01*
G04 #@! TO.N,Rrd1*
X142043700Y-138986400D02*
X140017900Y-141012200D01*
X140017900Y-141012200D02*
X138867500Y-141012200D01*
X138867500Y-141012200D02*
X125730000Y-154149700D01*
X125730000Y-154149700D02*
X125730000Y-161290000D01*
X171450000Y-53340000D02*
X180295300Y-62185300D01*
X180295300Y-62185300D02*
X180295300Y-136276300D01*
X125730000Y-179070000D02*
X125730000Y-161290000D01*
G04 #@! TO.N,Rrd2*
X123190000Y-161290000D02*
X123190000Y-156050500D01*
X123190000Y-156050500D02*
X139528800Y-139711700D01*
X153670000Y-43180000D02*
X153670000Y-44305300D01*
X153670000Y-44305300D02*
X147331600Y-50643700D01*
X147331600Y-50643700D02*
X147331600Y-59067100D01*
X147331600Y-59067100D02*
X149715400Y-61450900D01*
X149715400Y-61450900D02*
X149715400Y-74957400D01*
X149715400Y-74957400D02*
X156068100Y-81310100D01*
X156068100Y-81310100D02*
X156068100Y-84951200D01*
X156068100Y-84951200D02*
X150985300Y-90034000D01*
X150985300Y-90034000D02*
X150985300Y-95527500D01*
X150985300Y-95527500D02*
X147331600Y-99181200D01*
X147331600Y-99181200D02*
X147331600Y-107327100D01*
X147331600Y-107327100D02*
X149860000Y-109855500D01*
X149860000Y-109855500D02*
X149860000Y-134620000D01*
X123190000Y-161290000D02*
X123190000Y-179070000D01*
G04 #@! TO.N,Rrd3*
X120650000Y-161290000D02*
X120650000Y-179070000D01*
X141471800Y-129379000D02*
X140896100Y-129954700D01*
X140896100Y-129954700D02*
X140896100Y-136714000D01*
X140896100Y-136714000D02*
X120650000Y-156960100D01*
X120650000Y-156960100D02*
X120650000Y-161290000D01*
X161290000Y-44305300D02*
X156210000Y-49385300D01*
X156210000Y-49385300D02*
X156210000Y-53340000D01*
X161290000Y-43180000D02*
X161290000Y-44305300D01*
G04 #@! TO.N,Net-(D36-Pad1)*
X156210000Y-55880000D02*
X156210000Y-57105300D01*
X156210000Y-57105300D02*
X153670000Y-59645300D01*
X153670000Y-59645300D02*
X153670000Y-63500000D01*
G04 #@! TO.N,Rrd4*
X148590000Y-53340000D02*
X152473900Y-57223900D01*
X152473900Y-57223900D02*
X152473900Y-65911300D01*
X152473900Y-65911300D02*
X158605400Y-72042800D01*
X158605400Y-72042800D02*
X158605400Y-96005900D01*
X158605400Y-96005900D02*
X157354800Y-97256500D01*
X157354800Y-97256500D02*
X157354800Y-99187000D01*
X157354800Y-99187000D02*
X157436400Y-99268600D01*
X157436400Y-99268600D02*
X157436400Y-112908300D01*
X157436400Y-112908300D02*
X155345700Y-114999000D01*
X155345700Y-114999000D02*
X155345700Y-133089000D01*
X155345700Y-133089000D02*
X154940000Y-133494700D01*
X148590000Y-53340000D02*
X157480000Y-44450000D01*
X157480000Y-44450000D02*
X157480000Y-40495300D01*
X157480000Y-40495300D02*
X161290000Y-36685300D01*
X161290000Y-35560000D02*
X161290000Y-36685300D01*
X154940000Y-134620000D02*
X154940000Y-133494700D01*
X118110000Y-161290000D02*
X118110000Y-179070000D01*
G04 #@! TO.N,Net-(D37-Pad1)*
X148590000Y-55880000D02*
X148590000Y-57105300D01*
X148590000Y-57105300D02*
X151130000Y-59645300D01*
X151130000Y-59645300D02*
X151130000Y-63500000D01*
G04 #@! TO.N,Rrd5*
X115570000Y-161290000D02*
X115570000Y-179070000D01*
X153670000Y-35560000D02*
X154795300Y-35560000D01*
X157480000Y-134620000D02*
X157480000Y-119287200D01*
X157480000Y-119287200D02*
X166711700Y-110055500D01*
X166711700Y-110055500D02*
X166711700Y-36836200D01*
X166711700Y-36836200D02*
X164310200Y-34434700D01*
X164310200Y-34434700D02*
X155639200Y-34434700D01*
X155639200Y-34434700D02*
X154795300Y-35278600D01*
X154795300Y-35278600D02*
X154795300Y-35560000D01*
X153670000Y-35560000D02*
X153670000Y-36685300D01*
X140970000Y-53340000D02*
X147320000Y-46990000D01*
X147320000Y-46990000D02*
X147320000Y-42754000D01*
X147320000Y-42754000D02*
X153388700Y-36685300D01*
X153388700Y-36685300D02*
X153670000Y-36685300D01*
G04 #@! TO.N,Net-(D38-Pad1)*
X148590000Y-63500000D02*
X147464700Y-63500000D01*
X140970000Y-55880000D02*
X140970000Y-57105300D01*
X140970000Y-57105300D02*
X141351300Y-57105300D01*
X141351300Y-57105300D02*
X147464700Y-63218700D01*
X147464700Y-63218700D02*
X147464700Y-63500000D01*
G04 #@! TO.N,Rrd6*
X150004700Y-35560000D02*
X150004700Y-35841400D01*
X150004700Y-35841400D02*
X149160800Y-36685300D01*
X149160800Y-36685300D02*
X148339900Y-36685300D01*
X148339900Y-36685300D02*
X142315800Y-42709400D01*
X142315800Y-42709400D02*
X142315800Y-46160900D01*
X160020000Y-134620000D02*
X160020000Y-119854400D01*
X160020000Y-119854400D02*
X169827600Y-110046800D01*
X169827600Y-110046800D02*
X169827600Y-103461100D01*
X169827600Y-103461100D02*
X170430300Y-102858400D01*
X170430300Y-102858400D02*
X171973200Y-102858400D01*
X171973200Y-102858400D02*
X172675400Y-102156200D01*
X172675400Y-102156200D02*
X172675400Y-98767600D01*
X172675400Y-98767600D02*
X168661700Y-94753900D01*
X168661700Y-94753900D02*
X168661700Y-38135400D01*
X168661700Y-38135400D02*
X164496500Y-33970200D01*
X164496500Y-33970200D02*
X153563700Y-33970200D01*
X153563700Y-33970200D02*
X152255300Y-35278600D01*
X152255300Y-35278600D02*
X152255300Y-35560000D01*
X151130000Y-35560000D02*
X150004700Y-35560000D01*
X151130000Y-35560000D02*
X152255300Y-35560000D01*
X113030000Y-161290000D02*
X113030000Y-179070000D01*
G04 #@! TO.N,Rrd7*
X125730000Y-53340000D02*
X125730000Y-46666200D01*
X125730000Y-46666200D02*
X135710900Y-36685300D01*
X135710900Y-36685300D02*
X141540800Y-36685300D01*
X141540800Y-36685300D02*
X142384700Y-35841400D01*
X142384700Y-35841400D02*
X142384700Y-35560000D01*
X129498800Y-131245400D02*
X124027000Y-125773600D01*
X124027000Y-125773600D02*
X124027000Y-55043000D01*
X124027000Y-55043000D02*
X125730000Y-53340000D01*
X143510000Y-35560000D02*
X142384700Y-35560000D01*
X110490000Y-161290000D02*
X110490000Y-179070000D01*
G04 #@! TO.N,Rrs0*
X144780000Y-91440000D02*
X144780000Y-90314700D01*
X146488000Y-88698400D02*
X144871700Y-90314700D01*
X144871700Y-90314700D02*
X144780000Y-90314700D01*
X161290000Y-161290000D02*
X161290000Y-119380000D01*
X161290000Y-119380000D02*
X179070000Y-101600000D01*
X161290000Y-179070000D02*
X161290000Y-161290000D01*
G04 #@! TO.N,Rrs1*
X158750000Y-161290000D02*
X158750000Y-120329200D01*
X158750000Y-120329200D02*
X169377200Y-109702000D01*
X169377200Y-109702000D02*
X169377200Y-103200200D01*
X169377200Y-103200200D02*
X170977400Y-101600000D01*
X170977400Y-101600000D02*
X171450000Y-101600000D01*
X158750000Y-179070000D02*
X158750000Y-161290000D01*
G04 #@! TO.N,Rrs2*
X156210000Y-161290000D02*
X156210000Y-118225000D01*
X156210000Y-118225000D02*
X160020000Y-114415000D01*
X160020000Y-114415000D02*
X160020000Y-105410000D01*
X160020000Y-105410000D02*
X163830000Y-101600000D01*
X156210000Y-179070000D02*
X156210000Y-161290000D01*
G04 #@! TO.N,Rrs3*
X158080100Y-98886600D02*
X162560000Y-94406700D01*
X162560000Y-94406700D02*
X162560000Y-91440000D01*
X156210000Y-101600000D02*
X154895300Y-102914700D01*
X154895300Y-102914700D02*
X154895300Y-130827500D01*
X154895300Y-130827500D02*
X153670000Y-132052800D01*
X153670000Y-132052800D02*
X153670000Y-161290000D01*
G04 #@! TO.N,Rrs4*
X162560000Y-83820000D02*
X162560000Y-84945300D01*
X158427900Y-97209100D02*
X161434700Y-94202300D01*
X161434700Y-94202300D02*
X161434700Y-86070600D01*
X161434700Y-86070600D02*
X162560000Y-84945300D01*
X151130000Y-161290000D02*
X151130000Y-132224700D01*
X151130000Y-132224700D02*
X152269000Y-131085700D01*
X152269000Y-131085700D02*
X152269000Y-105279000D01*
X152269000Y-105279000D02*
X148590000Y-101600000D01*
X151130000Y-179070000D02*
X151130000Y-161290000D01*
G04 #@! TO.N,Net-(D45-Pad1)*
X148590000Y-104140000D02*
X148590000Y-105365300D01*
X148590000Y-105365300D02*
X151130000Y-107905300D01*
X151130000Y-107905300D02*
X151130000Y-111760000D01*
G04 #@! TO.N,Rrs5*
X154940000Y-83820000D02*
X154940000Y-84945300D01*
X140970000Y-101600000D02*
X148590000Y-93980000D01*
X148590000Y-93980000D02*
X148590000Y-91014000D01*
X148590000Y-91014000D02*
X154658700Y-84945300D01*
X154658700Y-84945300D02*
X154940000Y-84945300D01*
X148590000Y-161290000D02*
X148590000Y-120561400D01*
X148590000Y-120561400D02*
X144635400Y-116606800D01*
X144635400Y-116606800D02*
X144635400Y-110177300D01*
X144635400Y-110177300D02*
X139744600Y-105286500D01*
X139744600Y-105286500D02*
X139744600Y-102825400D01*
X139744600Y-102825400D02*
X140970000Y-101600000D01*
X148590000Y-179070000D02*
X148590000Y-161290000D01*
G04 #@! TO.N,Net-(D46-Pad1)*
X148590000Y-111760000D02*
X147464700Y-111760000D01*
X140970000Y-104140000D02*
X140970000Y-105365300D01*
X140970000Y-105365300D02*
X141351300Y-105365300D01*
X141351300Y-105365300D02*
X147464700Y-111478700D01*
X147464700Y-111478700D02*
X147464700Y-111760000D01*
G04 #@! TO.N,Rrs6*
X140967100Y-113901500D02*
X142095400Y-112773200D01*
X142095400Y-112773200D02*
X142095400Y-109295100D01*
X142095400Y-109295100D02*
X139744500Y-106944200D01*
X139744500Y-106944200D02*
X139744500Y-106307400D01*
X139744500Y-106307400D02*
X139294200Y-105857100D01*
X139294200Y-105857100D02*
X139294200Y-99251400D01*
X139294200Y-99251400D02*
X146050000Y-92495600D01*
X146050000Y-92495600D02*
X146050000Y-91014000D01*
X146050000Y-91014000D02*
X147820000Y-89244000D01*
X147820000Y-89244000D02*
X148101300Y-89244000D01*
X148101300Y-89244000D02*
X152400000Y-84945300D01*
X146050000Y-160114700D02*
X146050000Y-120652500D01*
X146050000Y-120652500D02*
X144787500Y-119390000D01*
X144787500Y-119390000D02*
X144787500Y-118753200D01*
X144787500Y-118753200D02*
X141023100Y-114988800D01*
X141023100Y-114988800D02*
X141023100Y-113957600D01*
X141023100Y-113957600D02*
X140967100Y-113901500D01*
X140967100Y-113901500D02*
X135114900Y-108049400D01*
X135114900Y-108049400D02*
X135114900Y-106229700D01*
X135114900Y-106229700D02*
X134664600Y-105779400D01*
X134664600Y-105779400D02*
X134664600Y-102914600D01*
X134664600Y-102914600D02*
X133350000Y-101600000D01*
X152400000Y-83820000D02*
X152400000Y-84945300D01*
X146050000Y-161290000D02*
X146050000Y-160114700D01*
X146050000Y-179070000D02*
X146050000Y-161290000D01*
G04 #@! TO.N,Rrs7*
X144780000Y-83820000D02*
X144780000Y-88027300D01*
X144780000Y-88027300D02*
X143365400Y-89441900D01*
X143365400Y-89441900D02*
X143365400Y-93916600D01*
X143365400Y-93916600D02*
X136768100Y-100513900D01*
X143510000Y-161290000D02*
X143510000Y-139762000D01*
X143510000Y-139762000D02*
X143776400Y-139495600D01*
X143776400Y-139495600D02*
X143776400Y-136177800D01*
X143776400Y-136177800D02*
X143455600Y-135857000D01*
X143455600Y-135857000D02*
X143455600Y-119325500D01*
X143455600Y-119325500D02*
X143455500Y-119325500D01*
X143455500Y-119325500D02*
X125730000Y-101600000D01*
X143510000Y-179070000D02*
X143510000Y-161290000D01*
G04 #@! TO.N,regclk*
X16510000Y-180709600D02*
X16510000Y-185420000D01*
X7620000Y-19005300D02*
X8079500Y-19005300D01*
X8079500Y-19005300D02*
X16510000Y-27435800D01*
X16510000Y-27435800D02*
X16510000Y-180709600D01*
X76200000Y-163830000D02*
X76200000Y-161331800D01*
X76200000Y-161331800D02*
X75118000Y-160249800D01*
X75118000Y-160249800D02*
X74401900Y-160249800D01*
X74401900Y-160249800D02*
X53942100Y-180709600D01*
X53942100Y-180709600D02*
X16510000Y-180709600D01*
X7620000Y-17780000D02*
X7620000Y-19005300D01*
G04 #@! TO.N,rdrsclk*
X74797900Y-160979800D02*
X47817700Y-187960000D01*
X47817700Y-187960000D02*
X16510000Y-187960000D01*
X140970000Y-43180000D02*
X140970000Y-42054700D01*
X138430000Y-15240000D02*
X138430000Y-16465300D01*
X138430000Y-16465300D02*
X138889500Y-16465300D01*
X138889500Y-16465300D02*
X144635700Y-22211500D01*
X144635700Y-22211500D02*
X144635700Y-38389000D01*
X144635700Y-38389000D02*
X140970000Y-42054700D01*
X140970000Y-44305300D02*
X139744600Y-45530700D01*
X139744600Y-45530700D02*
X139744600Y-57984600D01*
X139744600Y-57984600D02*
X142095400Y-60335400D01*
X142095400Y-60335400D02*
X142095400Y-73686700D01*
X142095400Y-73686700D02*
X143365300Y-74956600D01*
X143365300Y-74956600D02*
X143365300Y-87381500D01*
X143365300Y-87381500D02*
X142240000Y-88506800D01*
X142240000Y-88506800D02*
X142240000Y-90314700D01*
X140970000Y-43742600D02*
X140970000Y-43180000D01*
X140970000Y-43742600D02*
X140970000Y-44305300D01*
X142240000Y-91440000D02*
X142240000Y-90314700D01*
G04 #@! TO.N,Net-(D51-Pad2)*
X7620000Y-171450000D02*
X8890000Y-170180000D01*
X8890000Y-170180000D02*
X8890000Y-163830000D01*
G04 #@! TO.N,CLK*
X57150000Y-10015300D02*
X60285300Y-13150600D01*
X60285300Y-13150600D02*
X60285300Y-42729400D01*
X60285300Y-42729400D02*
X57150000Y-45864700D01*
X55880000Y-83964700D02*
X56377000Y-83964700D01*
X56377000Y-83964700D02*
X57820500Y-82521200D01*
X57820500Y-82521200D02*
X57820500Y-74367300D01*
X57820500Y-74367300D02*
X59382100Y-72805700D01*
X59382100Y-72805700D02*
X59382100Y-51519000D01*
X59382100Y-51519000D02*
X57150000Y-49286900D01*
X57150000Y-49286900D02*
X57150000Y-48115300D01*
X57150000Y-46990000D02*
X57150000Y-45864700D01*
X57150000Y-8890000D02*
X57150000Y-10015300D01*
X55880000Y-85090000D02*
X55880000Y-83964700D01*
X55880000Y-86215300D02*
X57133700Y-87469000D01*
X57133700Y-87469000D02*
X57133700Y-120811000D01*
X57133700Y-120811000D02*
X55880000Y-122064700D01*
X57150000Y-46990000D02*
X57150000Y-48115300D01*
X165100000Y-83820000D02*
X165100000Y-82694700D01*
X165100000Y-82694700D02*
X165100000Y-51199900D01*
X165100000Y-51199900D02*
X162704700Y-48804600D01*
X162704700Y-48804600D02*
X162704700Y-37810600D01*
X162704700Y-37810600D02*
X163830000Y-36685300D01*
X163830000Y-35560000D02*
X163830000Y-36685300D01*
X55880000Y-123190000D02*
X55880000Y-122064700D01*
X55880000Y-85090000D02*
X55880000Y-86215300D01*
G04 #@! TO.N,wb7*
X38100000Y-123190000D02*
X38100000Y-124315300D01*
X34290000Y-166370000D02*
X34290000Y-165194700D01*
X34290000Y-165194700D02*
X33050700Y-163955400D01*
X33050700Y-163955400D02*
X33050700Y-134664900D01*
X33050700Y-134664900D02*
X34145400Y-133570200D01*
X34145400Y-133570200D02*
X34145400Y-128269900D01*
X34145400Y-128269900D02*
X38100000Y-124315300D01*
X38100000Y-86215300D02*
X37396800Y-86215300D01*
X37396800Y-86215300D02*
X31275200Y-92336900D01*
X31275200Y-92336900D02*
X31275200Y-106577100D01*
X31275200Y-106577100D02*
X34145400Y-109447300D01*
X34145400Y-109447300D02*
X34145400Y-118110100D01*
X34145400Y-118110100D02*
X38100000Y-122064700D01*
X36699400Y-45478900D02*
X36699400Y-33680300D01*
X36699400Y-33680300D02*
X32128800Y-29109700D01*
X32128800Y-29109700D02*
X32128800Y-15272300D01*
X32128800Y-15272300D02*
X38244700Y-9156400D01*
X38244700Y-9156400D02*
X38244700Y-8890000D01*
X38100000Y-83964700D02*
X35415400Y-81280100D01*
X35415400Y-81280100D02*
X35415400Y-71549700D01*
X35415400Y-71549700D02*
X32611500Y-68745800D01*
X32611500Y-68745800D02*
X32611500Y-53158100D01*
X32611500Y-53158100D02*
X35560000Y-50209600D01*
X35560000Y-50209600D02*
X35560000Y-46618300D01*
X35560000Y-46618300D02*
X36699400Y-45478900D01*
X38807400Y-46990000D02*
X37296300Y-45478900D01*
X37296300Y-45478900D02*
X36699400Y-45478900D01*
X38100000Y-85090000D02*
X38100000Y-83964700D01*
X38100000Y-85090000D02*
X38100000Y-86215300D01*
X38100000Y-123190000D02*
X38100000Y-122064700D01*
X39370000Y-8890000D02*
X38244700Y-8890000D01*
X39370000Y-46990000D02*
X38807400Y-46990000D01*
G04 #@! TO.N,wb6*
X40640000Y-123190000D02*
X40640000Y-124315300D01*
X36830000Y-166370000D02*
X36830000Y-165194700D01*
X36830000Y-165194700D02*
X35704700Y-164069400D01*
X35704700Y-164069400D02*
X35704700Y-136078000D01*
X35704700Y-136078000D02*
X39514700Y-132268000D01*
X39514700Y-132268000D02*
X39514700Y-125440600D01*
X39514700Y-125440600D02*
X40640000Y-124315300D01*
X36830000Y-179070000D02*
X36830000Y-166370000D01*
X40640000Y-85090000D02*
X40640000Y-86215300D01*
X40640000Y-123190000D02*
X40640000Y-122064700D01*
X40640000Y-122064700D02*
X36974600Y-118399300D01*
X36974600Y-118399300D02*
X36974600Y-110933400D01*
X36974600Y-110933400D02*
X31725600Y-105684400D01*
X31725600Y-105684400D02*
X31725600Y-99704000D01*
X31725600Y-99704000D02*
X36685400Y-94744200D01*
X36685400Y-94744200D02*
X36685400Y-90169900D01*
X36685400Y-90169900D02*
X40640000Y-86215300D01*
X40640000Y-83964700D02*
X38100000Y-81424700D01*
X38100000Y-81424700D02*
X38100000Y-72960500D01*
X38100000Y-72960500D02*
X33064600Y-67925100D01*
X33064600Y-67925100D02*
X33064600Y-62180800D01*
X33064600Y-62180800D02*
X37955400Y-57290000D01*
X37955400Y-57290000D02*
X37955400Y-52069900D01*
X37955400Y-52069900D02*
X41910000Y-48115300D01*
X41910000Y-46990000D02*
X41910000Y-45864700D01*
X41910000Y-8890000D02*
X40784700Y-8890000D01*
X40784700Y-8890000D02*
X40784700Y-9171400D01*
X40784700Y-9171400D02*
X39940800Y-10015300D01*
X39940800Y-10015300D02*
X38659600Y-10015300D01*
X38659600Y-10015300D02*
X32579200Y-16095700D01*
X32579200Y-16095700D02*
X32579200Y-28546400D01*
X32579200Y-28546400D02*
X37123600Y-33090800D01*
X37123600Y-33090800D02*
X37264100Y-33090800D01*
X37264100Y-33090800D02*
X39370000Y-35196700D01*
X39370000Y-35196700D02*
X39370000Y-43324700D01*
X39370000Y-43324700D02*
X41910000Y-45864700D01*
X41910000Y-46990000D02*
X41910000Y-48115300D01*
X40640000Y-85090000D02*
X40640000Y-83964700D01*
G04 #@! TO.N,wb5*
X48260000Y-85090000D02*
X48260000Y-69982000D01*
X48260000Y-69982000D02*
X50755300Y-67486700D01*
X50755300Y-67486700D02*
X50755300Y-62274600D01*
X50755300Y-62274600D02*
X48404700Y-59924000D01*
X48404700Y-59924000D02*
X48404700Y-49240600D01*
X48404700Y-49240600D02*
X49530000Y-48115300D01*
X39370000Y-166370000D02*
X39370000Y-165194700D01*
X39370000Y-165194700D02*
X38243700Y-164068400D01*
X38243700Y-164068400D02*
X38243700Y-135006500D01*
X38243700Y-135006500D02*
X41910000Y-131340200D01*
X41910000Y-131340200D02*
X41910000Y-130014400D01*
X41910000Y-130014400D02*
X44533900Y-127390500D01*
X44533900Y-127390500D02*
X44533900Y-124315300D01*
X39370000Y-179070000D02*
X39370000Y-166370000D01*
X49530000Y-46990000D02*
X49530000Y-48115300D01*
X48260000Y-85652600D02*
X48260000Y-85090000D01*
X48260000Y-85652600D02*
X48260000Y-86215300D01*
X44533900Y-124315300D02*
X48260000Y-124315300D01*
X44533900Y-124315300D02*
X44533900Y-98910600D01*
X44533900Y-98910600D02*
X47134700Y-96309800D01*
X47134700Y-96309800D02*
X47134700Y-87340600D01*
X47134700Y-87340600D02*
X48260000Y-86215300D01*
X48260000Y-123190000D02*
X48260000Y-124315300D01*
X49530000Y-10015300D02*
X48404700Y-11140600D01*
X48404700Y-11140600D02*
X48404700Y-18335600D01*
X48404700Y-18335600D02*
X47117200Y-19623100D01*
X47117200Y-19623100D02*
X47117200Y-40911900D01*
X47117200Y-40911900D02*
X49530000Y-43324700D01*
X49530000Y-43324700D02*
X49530000Y-46990000D01*
X49530000Y-8890000D02*
X49530000Y-10015300D01*
G04 #@! TO.N,wb4*
X52070000Y-8890000D02*
X52070000Y-10015300D01*
X58254000Y-42195900D02*
X59834900Y-40615000D01*
X59834900Y-40615000D02*
X59834900Y-17498900D01*
X59834900Y-17498900D02*
X52351300Y-10015300D01*
X52351300Y-10015300D02*
X52070000Y-10015300D01*
X41910000Y-166370000D02*
X41910000Y-165194700D01*
X41910000Y-165194700D02*
X40640000Y-163924700D01*
X40640000Y-163924700D02*
X40640000Y-139132600D01*
X40640000Y-139132600D02*
X46990000Y-132782600D01*
X46990000Y-132782600D02*
X46990000Y-128125300D01*
X46990000Y-128125300D02*
X50800000Y-124315300D01*
X41910000Y-179070000D02*
X41910000Y-166370000D01*
X50800000Y-123190000D02*
X50800000Y-124315300D01*
X52070000Y-46990000D02*
X52070000Y-48115300D01*
X50800000Y-85090000D02*
X50800000Y-83964700D01*
X50800000Y-83964700D02*
X53195800Y-81568900D01*
X53195800Y-81568900D02*
X53195800Y-59448600D01*
X53195800Y-59448600D02*
X50944700Y-57197500D01*
X50944700Y-57197500D02*
X50944700Y-49240600D01*
X50944700Y-49240600D02*
X52070000Y-48115300D01*
X50800000Y-122064700D02*
X49674700Y-120939400D01*
X49674700Y-120939400D02*
X49674700Y-103286600D01*
X49674700Y-103286600D02*
X49220500Y-102832400D01*
X49220500Y-102832400D02*
X47752200Y-102832400D01*
X47752200Y-102832400D02*
X46986700Y-102066900D01*
X46986700Y-102066900D02*
X46986700Y-97731600D01*
X46986700Y-97731600D02*
X49385400Y-95332900D01*
X49385400Y-95332900D02*
X49385400Y-92362400D01*
X49385400Y-92362400D02*
X50800000Y-90947800D01*
X50800000Y-90947800D02*
X50800000Y-85090000D01*
X50800000Y-123190000D02*
X50800000Y-122064700D01*
G04 #@! TO.N,wb3*
X53846400Y-91584700D02*
X54511400Y-92249700D01*
X54511400Y-92249700D02*
X54511400Y-125963300D01*
X54511400Y-125963300D02*
X50800000Y-129674700D01*
X50800000Y-129674700D02*
X50800000Y-129684700D01*
X44450000Y-166370000D02*
X44450000Y-165194700D01*
X44450000Y-165194700D02*
X45625300Y-164019400D01*
X45625300Y-164019400D02*
X45625300Y-137110000D01*
X45625300Y-137110000D02*
X50800000Y-131935300D01*
X44450000Y-179070000D02*
X44450000Y-166370000D01*
X50800000Y-130810000D02*
X50800000Y-131935300D01*
X52070000Y-55735300D02*
X55291700Y-58957000D01*
X55291700Y-58957000D02*
X55291700Y-67226900D01*
X55291700Y-67226900D02*
X55742000Y-67677200D01*
X55742000Y-67677200D02*
X55742000Y-82433800D01*
X55742000Y-82433800D02*
X54654600Y-83521200D01*
X54654600Y-83521200D02*
X54654600Y-90776500D01*
X54654600Y-90776500D02*
X53846400Y-91584700D01*
X52070000Y-54610000D02*
X52070000Y-55735300D01*
X53846400Y-91584700D02*
X52769200Y-91584700D01*
X52769200Y-91584700D02*
X51925300Y-92428600D01*
X51925300Y-92428600D02*
X51925300Y-92710000D01*
X52070000Y-54047300D02*
X52070000Y-54610000D01*
X52070000Y-54047300D02*
X52070000Y-53484700D01*
X50800000Y-92710000D02*
X51925300Y-92710000D01*
X50800000Y-130810000D02*
X50800000Y-129684700D01*
X52070000Y-16510000D02*
X52070000Y-17635300D01*
X52070000Y-17635300D02*
X48283400Y-21421900D01*
X48283400Y-21421900D02*
X48283400Y-25887100D01*
X48283400Y-25887100D02*
X49110900Y-26714600D01*
X49110900Y-26714600D02*
X50652600Y-26714600D01*
X50652600Y-26714600D02*
X50755400Y-26817400D01*
X50755400Y-26817400D02*
X50755400Y-33613000D01*
X50755400Y-33613000D02*
X49643700Y-34724700D01*
X49643700Y-34724700D02*
X49643700Y-40898800D01*
X49643700Y-40898800D02*
X53195300Y-44450400D01*
X53195300Y-44450400D02*
X53195300Y-52359400D01*
X53195300Y-52359400D02*
X52070000Y-53484700D01*
G04 #@! TO.N,wb2*
X48260000Y-130810000D02*
X48260000Y-128915600D01*
X48260000Y-128915600D02*
X51984200Y-125191400D01*
X51984200Y-125191400D02*
X51984200Y-95289900D01*
X50655300Y-16510000D02*
X50655300Y-16228600D01*
X50655300Y-16228600D02*
X51499200Y-15384700D01*
X51499200Y-15384700D02*
X55112000Y-15384700D01*
X55112000Y-15384700D02*
X55880000Y-16152700D01*
X55880000Y-16152700D02*
X55880000Y-16920500D01*
X55880000Y-16920500D02*
X59384500Y-20425000D01*
X59384500Y-20425000D02*
X59384500Y-39541300D01*
X59384500Y-39541300D02*
X55953900Y-42971900D01*
X55953900Y-42971900D02*
X55953900Y-51176400D01*
X55953900Y-51176400D02*
X53340000Y-53790300D01*
X53340000Y-53790300D02*
X53340000Y-55325400D01*
X53340000Y-55325400D02*
X53018500Y-55646900D01*
X48165300Y-179070000D02*
X48165300Y-179437300D01*
X48165300Y-179437300D02*
X48973400Y-180245400D01*
X48973400Y-180245400D02*
X53054800Y-180245400D01*
X53054800Y-180245400D02*
X55789500Y-177510700D01*
X55789500Y-177510700D02*
X55789500Y-137331200D01*
X49530000Y-16510000D02*
X50655300Y-16510000D01*
X46990000Y-179070000D02*
X48165300Y-179070000D01*
X46990000Y-166370000D02*
X46990000Y-179070000D01*
X48260000Y-91584700D02*
X49385300Y-90459400D01*
X49385300Y-90459400D02*
X49385300Y-82839400D01*
X49385300Y-82839400D02*
X50755400Y-81469300D01*
X50755400Y-81469300D02*
X50755400Y-68348500D01*
X50755400Y-68348500D02*
X51205700Y-67898200D01*
X51205700Y-67898200D02*
X51205700Y-59766000D01*
X51205700Y-59766000D02*
X49530000Y-58090300D01*
X49530000Y-58090300D02*
X49530000Y-54610000D01*
X48260000Y-92710000D02*
X48260000Y-91584700D01*
G04 #@! TO.N,wb1*
X40640000Y-130810000D02*
X40640000Y-129684700D01*
X40640000Y-129684700D02*
X41789400Y-128535300D01*
X41789400Y-128535300D02*
X41789400Y-109920100D01*
X41789400Y-109920100D02*
X39399400Y-107530100D01*
X39399400Y-107530100D02*
X39399400Y-98447800D01*
X39399400Y-98447800D02*
X40640000Y-97207200D01*
X40640000Y-97207200D02*
X40640000Y-92710000D01*
X49530000Y-166370000D02*
X49530000Y-165194700D01*
X49530000Y-165194700D02*
X50755300Y-163969400D01*
X50755300Y-163969400D02*
X50755300Y-141205200D01*
X50755300Y-141205200D02*
X50564700Y-141014600D01*
X50564700Y-141014600D02*
X49094200Y-141014600D01*
X49094200Y-141014600D02*
X46776000Y-138696400D01*
X46776000Y-138696400D02*
X46776000Y-138387400D01*
X49530000Y-179070000D02*
X49530000Y-166370000D01*
X41910000Y-16510000D02*
X41910000Y-23056400D01*
X41910000Y-23056400D02*
X40684600Y-24281800D01*
X40684600Y-24281800D02*
X40684600Y-30627600D01*
X40684600Y-30627600D02*
X44450000Y-34393000D01*
X44450000Y-34393000D02*
X44450000Y-40785100D01*
X44450000Y-40785100D02*
X48127700Y-44462800D01*
X48127700Y-44462800D02*
X48127700Y-47548300D01*
X48127700Y-47548300D02*
X42191300Y-53484700D01*
X42191300Y-53484700D02*
X41910000Y-53484700D01*
X41910000Y-55735300D02*
X45629800Y-59455100D01*
X45629800Y-59455100D02*
X45629800Y-81334500D01*
X45629800Y-81334500D02*
X46911100Y-82615800D01*
X46911100Y-82615800D02*
X46911100Y-86438900D01*
X46911100Y-86438900D02*
X40640000Y-92710000D01*
X41910000Y-54610000D02*
X41910000Y-55735300D01*
X41910000Y-54610000D02*
X41910000Y-53484700D01*
G04 #@! TO.N,wb0*
X53360400Y-128140000D02*
X57869300Y-123631100D01*
X57869300Y-123631100D02*
X57869300Y-97762500D01*
X52070000Y-165194700D02*
X53245300Y-164019400D01*
X53245300Y-164019400D02*
X53245300Y-133815000D01*
X53245300Y-133815000D02*
X54465400Y-132594900D01*
X54465400Y-132594900D02*
X54465400Y-129245000D01*
X54465400Y-129245000D02*
X53360400Y-128140000D01*
X52070000Y-179070000D02*
X52070000Y-166370000D01*
X52070000Y-166370000D02*
X52070000Y-165194700D01*
X39370000Y-54610000D02*
X39370000Y-55735300D01*
X39370000Y-55735300D02*
X38931200Y-56174100D01*
X38931200Y-56174100D02*
X38931200Y-68285800D01*
X38931200Y-68285800D02*
X43091400Y-72446000D01*
X43091400Y-72446000D02*
X43091400Y-78084800D01*
X43091400Y-78084800D02*
X41910000Y-79266200D01*
X41910000Y-79266200D02*
X41910000Y-87774700D01*
X41910000Y-87774700D02*
X38100000Y-91584700D01*
X38100000Y-92710000D02*
X38100000Y-91584700D01*
X39370000Y-16510000D02*
X39370000Y-17635300D01*
X39370000Y-54610000D02*
X39370000Y-53484700D01*
X39370000Y-17635300D02*
X33044200Y-23961100D01*
X33044200Y-23961100D02*
X33044200Y-25951200D01*
X33044200Y-25951200D02*
X33807600Y-26714600D01*
X33807600Y-26714600D02*
X35327700Y-26714600D01*
X35327700Y-26714600D02*
X41765400Y-33152300D01*
X41765400Y-33152300D02*
X41765400Y-45045200D01*
X41765400Y-45045200D02*
X43091400Y-46371200D01*
X43091400Y-46371200D02*
X43091400Y-49763300D01*
X43091400Y-49763300D02*
X39370000Y-53484700D01*
G04 #@! TO.N,rd1*
X85931800Y-65616000D02*
X86219700Y-65903900D01*
X86219700Y-65903900D02*
X86219700Y-82377800D01*
X86219700Y-82377800D02*
X84324800Y-84272700D01*
X84324800Y-84272700D02*
X84324800Y-88004200D01*
X84324800Y-88004200D02*
X86256600Y-89936000D01*
X86256600Y-89936000D02*
X86256600Y-117638500D01*
X86256600Y-117638500D02*
X88126100Y-119508000D01*
X88126100Y-119508000D02*
X88126100Y-154588500D01*
X88126100Y-154588500D02*
X87630000Y-155084600D01*
X87630000Y-155084600D02*
X87630000Y-164155800D01*
X87630000Y-164155800D02*
X86340200Y-165445600D01*
X86340200Y-165445600D02*
X81280000Y-165445600D01*
X93980000Y-30480000D02*
X93980000Y-31605300D01*
X93980000Y-46990000D02*
X93980000Y-45864700D01*
X93980000Y-45864700D02*
X95105300Y-44739400D01*
X95105300Y-44739400D02*
X95105300Y-32730600D01*
X95105300Y-32730600D02*
X93980000Y-31605300D01*
X81280000Y-165445600D02*
X81280000Y-163830000D01*
X81280000Y-177800000D02*
X81280000Y-165445600D01*
X93980000Y-30480000D02*
X93980000Y-29354700D01*
X93980000Y-13970000D02*
X93980000Y-20324700D01*
X93980000Y-20324700D02*
X95105300Y-21450000D01*
X95105300Y-21450000D02*
X95105300Y-28229400D01*
X95105300Y-28229400D02*
X93980000Y-29354700D01*
G04 #@! TO.N,rd0*
X83820000Y-176624700D02*
X90034400Y-170410300D01*
X90034400Y-170410300D02*
X90034400Y-141816200D01*
X90034400Y-141816200D02*
X88877100Y-140658900D01*
X88877100Y-140658900D02*
X88877100Y-116888500D01*
X88877100Y-116888500D02*
X89094100Y-116671500D01*
X89094100Y-116671500D02*
X89094100Y-114808300D01*
X89094100Y-114808300D02*
X88961200Y-114675400D01*
X88961200Y-114675400D02*
X88961200Y-87652900D01*
X88961200Y-87652900D02*
X89440900Y-87173200D01*
X89440900Y-87173200D02*
X89440900Y-86308500D01*
X89440900Y-86308500D02*
X89395400Y-86263000D01*
X89395400Y-86263000D02*
X89395400Y-63463900D01*
X89395400Y-63463900D02*
X95955400Y-56903900D01*
X95955400Y-56903900D02*
X96520000Y-56903900D01*
X83820000Y-177800000D02*
X83820000Y-176624700D01*
X96520000Y-56903900D02*
X96520000Y-56024700D01*
X96520000Y-57150000D02*
X96520000Y-56903900D01*
X83820000Y-177800000D02*
X82644700Y-177800000D01*
X82644700Y-177800000D02*
X82644700Y-178167300D01*
X82644700Y-178167300D02*
X81816200Y-178995800D01*
X81816200Y-178995800D02*
X80785900Y-178995800D01*
X80785900Y-178995800D02*
X78740000Y-176949900D01*
X78740000Y-176949900D02*
X78740000Y-163830000D01*
X96520000Y-23985300D02*
X97645300Y-25110600D01*
X97645300Y-25110600D02*
X97645300Y-37119400D01*
X97645300Y-37119400D02*
X96520000Y-38244700D01*
X96520000Y-56024700D02*
X97645300Y-54899400D01*
X97645300Y-54899400D02*
X97645300Y-41620600D01*
X97645300Y-41620600D02*
X96520000Y-40495300D01*
X96520000Y-39370000D02*
X96520000Y-38244700D01*
X96520000Y-22860000D02*
X96520000Y-23985300D01*
X96520000Y-22297300D02*
X96520000Y-22860000D01*
X96520000Y-39370000D02*
X96520000Y-40495300D01*
X96520000Y-22297300D02*
X96520000Y-21734700D01*
X96520000Y-6350000D02*
X96520000Y-7475300D01*
X96520000Y-7475300D02*
X95394700Y-8600600D01*
X95394700Y-8600600D02*
X95394700Y-20609400D01*
X95394700Y-20609400D02*
X96520000Y-21734700D01*
G04 #@! TO.N,rs1*
X93980000Y-140825300D02*
X92854700Y-141950600D01*
X92854700Y-141950600D02*
X92854700Y-170130000D01*
X92854700Y-170130000D02*
X86360000Y-176624700D01*
X93980000Y-139700000D02*
X93980000Y-138574700D01*
X93980000Y-120650000D02*
X93980000Y-121775300D01*
X93980000Y-121775300D02*
X95105300Y-122900600D01*
X95105300Y-122900600D02*
X95105300Y-137449400D01*
X95105300Y-137449400D02*
X93980000Y-138574700D01*
X93980000Y-120087300D02*
X93980000Y-120650000D01*
X93980000Y-120087300D02*
X93980000Y-119524700D01*
X93980000Y-139700000D02*
X93980000Y-140825300D01*
X86360000Y-177800000D02*
X86360000Y-176624700D01*
X93980000Y-119524700D02*
X95105300Y-118399400D01*
X95105300Y-118399400D02*
X95105300Y-103850600D01*
X95105300Y-103850600D02*
X93980000Y-102725300D01*
X93980000Y-101600000D02*
X93980000Y-102725300D01*
X93980000Y-101037300D02*
X93980000Y-101600000D01*
X93980000Y-101037300D02*
X93980000Y-100474700D01*
X93980000Y-83820000D02*
X93980000Y-84945300D01*
X93980000Y-84945300D02*
X95105300Y-86070600D01*
X95105300Y-86070600D02*
X95105300Y-99349400D01*
X95105300Y-99349400D02*
X93980000Y-100474700D01*
G04 #@! TO.N,rs0*
X96520000Y-113030000D02*
X96520000Y-111904700D01*
X96520000Y-113030000D02*
X96520000Y-114155300D01*
X96520000Y-132080000D02*
X96520000Y-130954700D01*
X96520000Y-130954700D02*
X97645300Y-129829400D01*
X97645300Y-129829400D02*
X97645300Y-115280600D01*
X97645300Y-115280600D02*
X96520000Y-114155300D01*
X88900000Y-176624700D02*
X95250000Y-170274700D01*
X95250000Y-170274700D02*
X95250000Y-138880300D01*
X95250000Y-138880300D02*
X96520000Y-137610300D01*
X96520000Y-137610300D02*
X96520000Y-132080000D01*
X88900000Y-177800000D02*
X88900000Y-176624700D01*
X96520000Y-93980000D02*
X96520000Y-99510300D01*
X96520000Y-99510300D02*
X95383700Y-100646600D01*
X95383700Y-100646600D02*
X95383700Y-102999000D01*
X95383700Y-102999000D02*
X96519900Y-104135200D01*
X96519900Y-104135200D02*
X96519900Y-111904700D01*
X96519900Y-111904700D02*
X96520000Y-111904700D01*
X96520000Y-76200000D02*
X96520000Y-77325300D01*
X96520000Y-77325300D02*
X95394600Y-78450700D01*
X95394600Y-78450700D02*
X95394600Y-84494800D01*
X95394600Y-84494800D02*
X96520000Y-85620200D01*
X96520000Y-85620200D02*
X96520000Y-93980000D01*
G04 #@! TO.N,Net-(U1-Pad1)*
X35415300Y-16510000D02*
X35415300Y-16228600D01*
X35415300Y-16228600D02*
X36259200Y-15384700D01*
X36259200Y-15384700D02*
X39559600Y-15384700D01*
X39559600Y-15384700D02*
X45720000Y-9224300D01*
X45720000Y-9224300D02*
X45720000Y-8494400D01*
X45720000Y-8494400D02*
X46941100Y-7273300D01*
X46941100Y-7273300D02*
X57175400Y-7273300D01*
X57175400Y-7273300D02*
X60738200Y-10836100D01*
X60738200Y-10836100D02*
X60738200Y-102844900D01*
X60738200Y-102844900D02*
X59878700Y-103704400D01*
X59878700Y-103704400D02*
X59878700Y-104305200D01*
X59878700Y-104305200D02*
X86225000Y-130651500D01*
X86225000Y-130651500D02*
X86225000Y-135076500D01*
X86225000Y-135076500D02*
X85556100Y-135745400D01*
X85556100Y-135745400D02*
X84840100Y-135745400D01*
X84840100Y-135745400D02*
X83964600Y-136620900D01*
X83964600Y-136620900D02*
X83964600Y-148118600D01*
X83964600Y-148118600D02*
X84964800Y-149118800D01*
X84964800Y-149118800D02*
X84964800Y-161559900D01*
X84964800Y-161559900D02*
X83820000Y-162704700D01*
X83820000Y-163830000D02*
X83820000Y-162704700D01*
X34290000Y-16510000D02*
X35415300Y-16510000D01*
G04 #@! TO.N,Net-(U16-Pad5)*
X59565500Y-50650400D02*
X59832400Y-50917300D01*
X59832400Y-50917300D02*
X59832400Y-100876700D01*
X59832400Y-100876700D02*
X58616400Y-102092700D01*
X58616400Y-102092700D02*
X58616400Y-140867900D01*
X58616400Y-140867900D02*
X77569200Y-159820700D01*
X77569200Y-159820700D02*
X78945100Y-159820700D01*
X78945100Y-159820700D02*
X82550000Y-163425600D01*
X82550000Y-163425600D02*
X82550000Y-164180500D01*
X82550000Y-164180500D02*
X83324800Y-164955300D01*
X83324800Y-164955300D02*
X84390800Y-164955300D01*
X84390800Y-164955300D02*
X85234700Y-164111400D01*
X85234700Y-164111400D02*
X85234700Y-163830000D01*
X35415300Y-54610000D02*
X35415300Y-53351700D01*
X35415300Y-53351700D02*
X37101100Y-51665900D01*
X34290000Y-54610000D02*
X35415300Y-54610000D01*
X86360000Y-163830000D02*
X85234700Y-163830000D01*
G04 #@! TO.N,Net-(U16-Pad6)*
X59344800Y-102390000D02*
X59344800Y-140946400D01*
X59344800Y-140946400D02*
X76591900Y-158193500D01*
X76591900Y-158193500D02*
X81374900Y-158193500D01*
X81374900Y-158193500D02*
X84033400Y-160852000D01*
G04 #@! TO.N,Net-(D25-Pad2)*
X89602400Y-140358500D02*
X89602400Y-136946000D01*
X89602400Y-136946000D02*
X90376200Y-136172200D01*
X90376200Y-136172200D02*
X90376200Y-133273500D01*
X90376200Y-133273500D02*
X89861900Y-132759200D01*
X89861900Y-132759200D02*
X89861900Y-117177500D01*
X89861900Y-117177500D02*
X89994700Y-117044700D01*
X89994700Y-117044700D02*
X89994700Y-114435100D01*
X89994700Y-114435100D02*
X89861900Y-114302300D01*
X89861900Y-114302300D02*
X89861900Y-88026000D01*
X89861900Y-88026000D02*
X90341500Y-87546400D01*
X90341500Y-87546400D02*
X90341500Y-85935300D01*
X90341500Y-85935300D02*
X90296100Y-85889900D01*
X90296100Y-85889900D02*
X90296100Y-63837000D01*
X90296100Y-63837000D02*
X90488400Y-63644700D01*
X90488400Y-63644700D02*
X94550800Y-63644700D01*
X94550800Y-63644700D02*
X95394700Y-64488600D01*
X95394700Y-64488600D02*
X95394700Y-64770000D01*
X96520000Y-64770000D02*
X95394700Y-64770000D01*
G04 #@! TO.N,Net-(D26-Pad2)*
X89631200Y-134332600D02*
X89411500Y-134112900D01*
X89411500Y-134112900D02*
X89411500Y-116991000D01*
X89411500Y-116991000D02*
X89544400Y-116858100D01*
X89544400Y-116858100D02*
X89544400Y-114621700D01*
X89544400Y-114621700D02*
X89411500Y-114488800D01*
X89411500Y-114488800D02*
X89411500Y-87839500D01*
X89411500Y-87839500D02*
X89891200Y-87359800D01*
X89891200Y-87359800D02*
X89891200Y-86121900D01*
X89891200Y-86121900D02*
X89845700Y-86076400D01*
X89845700Y-86076400D02*
X89845700Y-63650500D01*
X89845700Y-63650500D02*
X95034300Y-58461900D01*
X95034300Y-58461900D02*
X96856800Y-58461900D01*
X96856800Y-58461900D02*
X97934700Y-57384000D01*
X97934700Y-57384000D02*
X97934700Y-57150000D01*
X64770000Y-139700000D02*
X63855800Y-139700000D01*
X63855800Y-139700000D02*
X60730400Y-136574600D01*
X99060000Y-57150000D02*
X97934700Y-57150000D01*
G04 #@! TO.N,Net-(D27-Pad2)*
X85517000Y-52281000D02*
X83472300Y-54325700D01*
X83472300Y-54325700D02*
X83472300Y-75207700D01*
X83472300Y-75207700D02*
X84245800Y-75981200D01*
X84245800Y-75981200D02*
X84245800Y-77715000D01*
X84245800Y-77715000D02*
X83424200Y-78536600D01*
X83424200Y-78536600D02*
X83424200Y-120711700D01*
X83424200Y-120711700D02*
X83644600Y-120932100D01*
G04 #@! TO.N,Net-(D28-Pad2)*
X88215100Y-42004100D02*
X87594200Y-42625000D01*
X87594200Y-42625000D02*
X87594200Y-84969800D01*
X87594200Y-84969800D02*
X87017300Y-85546700D01*
X87017300Y-85546700D02*
X87017300Y-113396400D01*
X87017300Y-113396400D02*
X87776400Y-114155500D01*
X53340000Y-130810000D02*
X53340000Y-131935300D01*
X49530000Y-139700000D02*
X49530000Y-135745300D01*
X49530000Y-135745300D02*
X53340000Y-131935300D01*
G04 #@! TO.N,Net-(D29-Pad2)*
X88226700Y-97960400D02*
X87954100Y-97687800D01*
X87954100Y-97687800D02*
X87954100Y-86440400D01*
X87954100Y-86440400D02*
X88494800Y-85899700D01*
X88494800Y-85899700D02*
X88494800Y-54719400D01*
X88494800Y-54719400D02*
X89168600Y-54045600D01*
X89168600Y-54045600D02*
X89168600Y-34380300D01*
X89168600Y-34380300D02*
X89042300Y-34254000D01*
X41910000Y-139700000D02*
X49385400Y-132224600D01*
X49385400Y-132224600D02*
X49385400Y-129570600D01*
X49385400Y-129570600D02*
X53340000Y-125616000D01*
X53340000Y-125616000D02*
X53340000Y-123190000D01*
G04 #@! TO.N,Net-(D30-Pad2)*
X88679400Y-86740800D02*
X88945100Y-86475100D01*
X88945100Y-86475100D02*
X88945100Y-62400100D01*
X88945100Y-62400100D02*
X89767600Y-61577600D01*
X89767600Y-61577600D02*
X89767600Y-28015600D01*
X89767600Y-28015600D02*
X89545400Y-27793400D01*
G04 #@! TO.N,Net-(D31-Pad2)*
X96520000Y-84945300D02*
X96986300Y-85411600D01*
X96986300Y-85411600D02*
X96986300Y-92575200D01*
X96986300Y-92575200D02*
X97837200Y-93426100D01*
X97837200Y-93426100D02*
X97837200Y-104087000D01*
X97837200Y-104087000D02*
X97965300Y-104215100D01*
X96520000Y-83820000D02*
X96520000Y-84945300D01*
X96520000Y-13970000D02*
X97645300Y-13970000D01*
X114348400Y-78030500D02*
X114431800Y-77947100D01*
X114431800Y-77947100D02*
X114431800Y-9960700D01*
X114431800Y-9960700D02*
X109216700Y-4745600D01*
X109216700Y-4745600D02*
X104119800Y-4745600D01*
X104119800Y-4745600D02*
X102870000Y-5995400D01*
X102870000Y-5995400D02*
X102870000Y-6739200D01*
X102870000Y-6739200D02*
X100330000Y-9279200D01*
X100330000Y-9279200D02*
X100330000Y-14368900D01*
X100330000Y-14368900D02*
X99603600Y-15095300D01*
X99603600Y-15095300D02*
X98489200Y-15095300D01*
X98489200Y-15095300D02*
X97645300Y-14251400D01*
X97645300Y-14251400D02*
X97645300Y-13970000D01*
G04 #@! TO.N,Net-(D32-Pad2)*
X79172700Y-94374400D02*
X82746900Y-90800200D01*
X82746900Y-90800200D02*
X82746900Y-77904800D01*
X82746900Y-77904800D02*
X83472100Y-77179600D01*
X83472100Y-77179600D02*
X83021900Y-76729400D01*
X83021900Y-76729400D02*
X83021900Y-10618500D01*
X83021900Y-10618500D02*
X88415700Y-5224700D01*
X88415700Y-5224700D02*
X97090800Y-5224700D01*
X97090800Y-5224700D02*
X97934700Y-6068600D01*
X97934700Y-6068600D02*
X97934700Y-6350000D01*
X99060000Y-6350000D02*
X97934700Y-6350000D01*
G04 #@! TD*
M02*
