G04 #@! TF.GenerationSoftware,KiCad,Pcbnew,5.1.6-c6e7f7d~87~ubuntu16.04.1*
G04 #@! TF.CreationDate,2021-01-23T16:02:59-05:00*
G04 #@! TF.ProjectId,riscy_reg,72697363-795f-4726-9567-2e6b69636164,rev?*
G04 #@! TF.SameCoordinates,Original*
G04 #@! TF.FileFunction,Legend,Top*
G04 #@! TF.FilePolarity,Positive*
%FSLAX46Y46*%
G04 Gerber Fmt 4.6, Leading zero omitted, Abs format (unit mm)*
G04 Created by KiCad (PCBNEW 5.1.6-c6e7f7d~87~ubuntu16.04.1) date 2021-01-23 16:02:59*
%MOMM*%
%LPD*%
G01*
G04 APERTURE LIST*
%ADD10C,0.120000*%
%ADD11C,0.150000*%
G04 APERTURE END LIST*
D10*
G04 #@! TO.C,J11*
X162500000Y-6290000D02*
X163830000Y-6290000D01*
X162500000Y-7620000D02*
X162500000Y-6290000D01*
X162500000Y-8890000D02*
X165160000Y-8890000D01*
X165160000Y-8890000D02*
X165160000Y-14030000D01*
X162500000Y-8890000D02*
X162500000Y-14030000D01*
X162500000Y-14030000D02*
X165160000Y-14030000D01*
G04 #@! TO.C,U16*
X74870000Y-157370000D02*
X74870000Y-159020000D01*
X95310000Y-157370000D02*
X74870000Y-157370000D01*
X95310000Y-162670000D02*
X95310000Y-157370000D01*
X74870000Y-162670000D02*
X95310000Y-162670000D01*
X74870000Y-161020000D02*
X74870000Y-162670000D01*
X74870000Y-159020000D02*
G75*
G02*
X74870000Y-161020000I0J-1000000D01*
G01*
G04 #@! TO.C,U15*
X138370000Y-135780000D02*
X138370000Y-137430000D01*
X163890000Y-135780000D02*
X138370000Y-135780000D01*
X163890000Y-141080000D02*
X163890000Y-135780000D01*
X138370000Y-141080000D02*
X163890000Y-141080000D01*
X138370000Y-139430000D02*
X138370000Y-141080000D01*
X138370000Y-137430000D02*
G75*
G02*
X138370000Y-139430000I0J-1000000D01*
G01*
G04 #@! TO.C,U14*
X90110000Y-133240000D02*
X90110000Y-134890000D01*
X110550000Y-133240000D02*
X90110000Y-133240000D01*
X110550000Y-138540000D02*
X110550000Y-133240000D01*
X90110000Y-138540000D02*
X110550000Y-138540000D01*
X90110000Y-136890000D02*
X90110000Y-138540000D01*
X90110000Y-134890000D02*
G75*
G02*
X90110000Y-136890000I0J-1000000D01*
G01*
G04 #@! TO.C,U13*
X90110000Y-114190000D02*
X90110000Y-115840000D01*
X110550000Y-114190000D02*
X90110000Y-114190000D01*
X110550000Y-119490000D02*
X110550000Y-114190000D01*
X90110000Y-119490000D02*
X110550000Y-119490000D01*
X90110000Y-117840000D02*
X90110000Y-119490000D01*
X90110000Y-115840000D02*
G75*
G02*
X90110000Y-117840000I0J-1000000D01*
G01*
G04 #@! TO.C,U12*
X90110000Y-95140000D02*
X90110000Y-96790000D01*
X110550000Y-95140000D02*
X90110000Y-95140000D01*
X110550000Y-100440000D02*
X110550000Y-95140000D01*
X90110000Y-100440000D02*
X110550000Y-100440000D01*
X90110000Y-98790000D02*
X90110000Y-100440000D01*
X90110000Y-96790000D02*
G75*
G02*
X90110000Y-98790000I0J-1000000D01*
G01*
G04 #@! TO.C,U11*
X90110000Y-77360000D02*
X90110000Y-79010000D01*
X110550000Y-77360000D02*
X90110000Y-77360000D01*
X110550000Y-82660000D02*
X110550000Y-77360000D01*
X90110000Y-82660000D02*
X110550000Y-82660000D01*
X90110000Y-81010000D02*
X90110000Y-82660000D01*
X90110000Y-79010000D02*
G75*
G02*
X90110000Y-81010000I0J-1000000D01*
G01*
G04 #@! TO.C,U10*
X90110000Y-58310000D02*
X90110000Y-59960000D01*
X110550000Y-58310000D02*
X90110000Y-58310000D01*
X110550000Y-63610000D02*
X110550000Y-58310000D01*
X90110000Y-63610000D02*
X110550000Y-63610000D01*
X90110000Y-61960000D02*
X90110000Y-63610000D01*
X90110000Y-59960000D02*
G75*
G02*
X90110000Y-61960000I0J-1000000D01*
G01*
G04 #@! TO.C,U9*
X90110000Y-40530000D02*
X90110000Y-42180000D01*
X110550000Y-40530000D02*
X90110000Y-40530000D01*
X110550000Y-45830000D02*
X110550000Y-40530000D01*
X90110000Y-45830000D02*
X110550000Y-45830000D01*
X90110000Y-44180000D02*
X90110000Y-45830000D01*
X90110000Y-42180000D02*
G75*
G02*
X90110000Y-44180000I0J-1000000D01*
G01*
G04 #@! TO.C,U8*
X90110000Y-24020000D02*
X90110000Y-25670000D01*
X110550000Y-24020000D02*
X90110000Y-24020000D01*
X110550000Y-29320000D02*
X110550000Y-24020000D01*
X90110000Y-29320000D02*
X110550000Y-29320000D01*
X90110000Y-27670000D02*
X90110000Y-29320000D01*
X90110000Y-25670000D02*
G75*
G02*
X90110000Y-27670000I0J-1000000D01*
G01*
G04 #@! TO.C,U7*
X90110000Y-7510000D02*
X90110000Y-9160000D01*
X110550000Y-7510000D02*
X90110000Y-7510000D01*
X110550000Y-12810000D02*
X110550000Y-7510000D01*
X90110000Y-12810000D02*
X110550000Y-12810000D01*
X90110000Y-11160000D02*
X90110000Y-12810000D01*
X90110000Y-9160000D02*
G75*
G02*
X90110000Y-11160000I0J-1000000D01*
G01*
G04 #@! TO.C,U6*
X140910000Y-84980000D02*
X140910000Y-86630000D01*
X166430000Y-84980000D02*
X140910000Y-84980000D01*
X166430000Y-90280000D02*
X166430000Y-84980000D01*
X140910000Y-90280000D02*
X166430000Y-90280000D01*
X140910000Y-88630000D02*
X140910000Y-90280000D01*
X140910000Y-86630000D02*
G75*
G02*
X140910000Y-88630000I0J-1000000D01*
G01*
G04 #@! TO.C,U5*
X139640000Y-36720000D02*
X139640000Y-38370000D01*
X165160000Y-36720000D02*
X139640000Y-36720000D01*
X165160000Y-42020000D02*
X165160000Y-36720000D01*
X139640000Y-42020000D02*
X165160000Y-42020000D01*
X139640000Y-40370000D02*
X139640000Y-42020000D01*
X139640000Y-38370000D02*
G75*
G02*
X139640000Y-40370000I0J-1000000D01*
G01*
G04 #@! TO.C,U4*
X31690000Y-124350000D02*
X31690000Y-126000000D01*
X57210000Y-124350000D02*
X31690000Y-124350000D01*
X57210000Y-129650000D02*
X57210000Y-124350000D01*
X31690000Y-129650000D02*
X57210000Y-129650000D01*
X31690000Y-128000000D02*
X31690000Y-129650000D01*
X31690000Y-126000000D02*
G75*
G02*
X31690000Y-128000000I0J-1000000D01*
G01*
G04 #@! TO.C,U3*
X31690000Y-86250000D02*
X31690000Y-87900000D01*
X57210000Y-86250000D02*
X31690000Y-86250000D01*
X57210000Y-91550000D02*
X57210000Y-86250000D01*
X31690000Y-91550000D02*
X57210000Y-91550000D01*
X31690000Y-89900000D02*
X31690000Y-91550000D01*
X31690000Y-87900000D02*
G75*
G02*
X31690000Y-89900000I0J-1000000D01*
G01*
G04 #@! TO.C,U2*
X32960000Y-48150000D02*
X32960000Y-49800000D01*
X58480000Y-48150000D02*
X32960000Y-48150000D01*
X58480000Y-53450000D02*
X58480000Y-48150000D01*
X32960000Y-53450000D02*
X58480000Y-53450000D01*
X32960000Y-51800000D02*
X32960000Y-53450000D01*
X32960000Y-49800000D02*
G75*
G02*
X32960000Y-51800000I0J-1000000D01*
G01*
G04 #@! TO.C,U1*
X32960000Y-10050000D02*
X32960000Y-11700000D01*
X58480000Y-10050000D02*
X32960000Y-10050000D01*
X58480000Y-15350000D02*
X58480000Y-10050000D01*
X32960000Y-15350000D02*
X58480000Y-15350000D01*
X32960000Y-13700000D02*
X32960000Y-15350000D01*
X32960000Y-11700000D02*
G75*
G02*
X32960000Y-13700000I0J-1000000D01*
G01*
G04 #@! TO.C,RN6*
X142240000Y-110360000D02*
X142240000Y-113160000D01*
X162730000Y-110360000D02*
X139530000Y-110360000D01*
X162730000Y-113160000D02*
X162730000Y-110360000D01*
X139530000Y-113160000D02*
X162730000Y-113160000D01*
X139530000Y-110360000D02*
X139530000Y-113160000D01*
G04 #@! TO.C,RN5*
X142240000Y-62100000D02*
X142240000Y-64900000D01*
X162730000Y-62100000D02*
X139530000Y-62100000D01*
X162730000Y-64900000D02*
X162730000Y-62100000D01*
X139530000Y-64900000D02*
X162730000Y-64900000D01*
X139530000Y-62100000D02*
X139530000Y-64900000D01*
G04 #@! TO.C,RN4*
X35560000Y-148460000D02*
X35560000Y-151260000D01*
X56050000Y-148460000D02*
X32850000Y-148460000D01*
X56050000Y-151260000D02*
X56050000Y-148460000D01*
X32850000Y-151260000D02*
X56050000Y-151260000D01*
X32850000Y-148460000D02*
X32850000Y-151260000D01*
G04 #@! TO.C,RN3*
X34290000Y-110360000D02*
X34290000Y-113160000D01*
X54780000Y-110360000D02*
X31580000Y-110360000D01*
X54780000Y-113160000D02*
X54780000Y-110360000D01*
X31580000Y-113160000D02*
X54780000Y-113160000D01*
X31580000Y-110360000D02*
X31580000Y-113160000D01*
G04 #@! TO.C,RN2*
X35560000Y-72260000D02*
X35560000Y-75060000D01*
X56050000Y-72260000D02*
X32850000Y-72260000D01*
X56050000Y-75060000D02*
X56050000Y-72260000D01*
X32850000Y-75060000D02*
X56050000Y-75060000D01*
X32850000Y-72260000D02*
X32850000Y-75060000D01*
G04 #@! TO.C,RN1*
X36830000Y-34160000D02*
X36830000Y-36960000D01*
X57320000Y-34160000D02*
X34120000Y-34160000D01*
X57320000Y-36960000D02*
X57320000Y-34160000D01*
X34120000Y-36960000D02*
X57320000Y-36960000D01*
X34120000Y-34160000D02*
X34120000Y-36960000D01*
G04 #@! TO.C,R3*
X7270000Y-163830000D02*
X7890000Y-163830000D01*
X7270000Y-163830000D02*
G75*
G03*
X7270000Y-163830000I-920000J0D01*
G01*
G04 #@! TO.C,R2*
X138080000Y-10160000D02*
X138700000Y-10160000D01*
X138080000Y-10160000D02*
G75*
G03*
X138080000Y-10160000I-920000J0D01*
G01*
G04 #@! TO.C,R1*
X7270000Y-13970000D02*
X7890000Y-13970000D01*
X7270000Y-13970000D02*
G75*
G03*
X7270000Y-13970000I-920000J0D01*
G01*
G04 #@! TO.C,J10*
X15180000Y-184090000D02*
X16510000Y-184090000D01*
X15180000Y-185420000D02*
X15180000Y-184090000D01*
X15180000Y-186690000D02*
X17840000Y-186690000D01*
X17840000Y-186690000D02*
X17840000Y-191830000D01*
X15180000Y-186690000D02*
X15180000Y-191830000D01*
X15180000Y-191830000D02*
X17840000Y-191830000D01*
G04 #@! TO.C,J9*
X90230000Y-176470000D02*
X90230000Y-177800000D01*
X88900000Y-176470000D02*
X90230000Y-176470000D01*
X87630000Y-176470000D02*
X87630000Y-179130000D01*
X87630000Y-179130000D02*
X79950000Y-179130000D01*
X87630000Y-176470000D02*
X79950000Y-176470000D01*
X79950000Y-176470000D02*
X79950000Y-179130000D01*
G04 #@! TO.C,J8*
X5020000Y-76140000D02*
X6350000Y-76140000D01*
X5020000Y-77470000D02*
X5020000Y-76140000D01*
X5020000Y-78740000D02*
X7680000Y-78740000D01*
X7680000Y-78740000D02*
X7680000Y-96580000D01*
X5020000Y-78740000D02*
X5020000Y-96580000D01*
X5020000Y-96580000D02*
X7680000Y-96580000D01*
G04 #@! TO.C,J7*
X162620000Y-159960000D02*
X162620000Y-161290000D01*
X161290000Y-159960000D02*
X162620000Y-159960000D01*
X160020000Y-159960000D02*
X160020000Y-162620000D01*
X160020000Y-162620000D02*
X142180000Y-162620000D01*
X160020000Y-159960000D02*
X142180000Y-159960000D01*
X142180000Y-159960000D02*
X142180000Y-162620000D01*
G04 #@! TO.C,J6*
X162620000Y-177740000D02*
X162620000Y-179070000D01*
X161290000Y-177740000D02*
X162620000Y-177740000D01*
X160020000Y-177740000D02*
X160020000Y-180400000D01*
X160020000Y-180400000D02*
X142180000Y-180400000D01*
X160020000Y-177740000D02*
X142180000Y-177740000D01*
X142180000Y-177740000D02*
X142180000Y-180400000D01*
G04 #@! TO.C,J5*
X129600000Y-177740000D02*
X129600000Y-179070000D01*
X128270000Y-177740000D02*
X129600000Y-177740000D01*
X127000000Y-177740000D02*
X127000000Y-180400000D01*
X127000000Y-180400000D02*
X109160000Y-180400000D01*
X127000000Y-177740000D02*
X109160000Y-177740000D01*
X109160000Y-177740000D02*
X109160000Y-180400000D01*
G04 #@! TO.C,J4*
X129600000Y-159960000D02*
X129600000Y-161290000D01*
X128270000Y-159960000D02*
X129600000Y-159960000D01*
X127000000Y-159960000D02*
X127000000Y-162620000D01*
X127000000Y-162620000D02*
X109160000Y-162620000D01*
X127000000Y-159960000D02*
X109160000Y-159960000D01*
X109160000Y-159960000D02*
X109160000Y-162620000D01*
G04 #@! TO.C,J3*
X53400000Y-165040000D02*
X53400000Y-166370000D01*
X52070000Y-165040000D02*
X53400000Y-165040000D01*
X50800000Y-165040000D02*
X50800000Y-167700000D01*
X50800000Y-167700000D02*
X32960000Y-167700000D01*
X50800000Y-165040000D02*
X32960000Y-165040000D01*
X32960000Y-165040000D02*
X32960000Y-167700000D01*
G04 #@! TO.C,J2*
X53400000Y-177740000D02*
X53400000Y-179070000D01*
X52070000Y-177740000D02*
X53400000Y-177740000D01*
X50800000Y-177740000D02*
X50800000Y-180400000D01*
X50800000Y-180400000D02*
X32960000Y-180400000D01*
X50800000Y-177740000D02*
X32960000Y-177740000D01*
X32960000Y-177740000D02*
X32960000Y-180400000D01*
G04 #@! TO.C,J1*
X172660000Y-6290000D02*
X173990000Y-6290000D01*
X172660000Y-7620000D02*
X172660000Y-6290000D01*
X172660000Y-8890000D02*
X175320000Y-8890000D01*
X175320000Y-8890000D02*
X175320000Y-14030000D01*
X172660000Y-8890000D02*
X172660000Y-14030000D01*
X172660000Y-14030000D02*
X175320000Y-14030000D01*
G04 #@! TO.C,D51*
X9165000Y-167620000D02*
X6075000Y-167620000D01*
X10120000Y-170180000D02*
G75*
G03*
X10120000Y-170180000I-2500000J0D01*
G01*
X7620462Y-173170000D02*
G75*
G02*
X6075170Y-167620000I-462J2990000D01*
G01*
X7619538Y-173170000D02*
G75*
G03*
X9164830Y-167620000I462J2990000D01*
G01*
G04 #@! TO.C,D50*
X139975000Y-13950000D02*
X136885000Y-13950000D01*
X140930000Y-16510000D02*
G75*
G03*
X140930000Y-16510000I-2500000J0D01*
G01*
X138430462Y-19500000D02*
G75*
G02*
X136885170Y-13950000I-462J2990000D01*
G01*
X138429538Y-19500000D02*
G75*
G03*
X139974830Y-13950000I462J2990000D01*
G01*
G04 #@! TO.C,D49*
X9165000Y-16490000D02*
X6075000Y-16490000D01*
X10120000Y-19050000D02*
G75*
G03*
X10120000Y-19050000I-2500000J0D01*
G01*
X7620462Y-22040000D02*
G75*
G02*
X6075170Y-16490000I-462J2990000D01*
G01*
X7619538Y-22040000D02*
G75*
G03*
X9164830Y-16490000I462J2990000D01*
G01*
G04 #@! TO.C,D48*
X124185000Y-105430000D02*
X127275000Y-105430000D01*
X128230000Y-102870000D02*
G75*
G03*
X128230000Y-102870000I-2500000J0D01*
G01*
X125729538Y-99880000D02*
G75*
G02*
X127274830Y-105430000I462J-2990000D01*
G01*
X125730462Y-99880000D02*
G75*
G03*
X124185170Y-105430000I-462J-2990000D01*
G01*
G04 #@! TO.C,D47*
X131805000Y-105430000D02*
X134895000Y-105430000D01*
X135850000Y-102870000D02*
G75*
G03*
X135850000Y-102870000I-2500000J0D01*
G01*
X133349538Y-99880000D02*
G75*
G02*
X134894830Y-105430000I462J-2990000D01*
G01*
X133350462Y-99880000D02*
G75*
G03*
X131805170Y-105430000I-462J-2990000D01*
G01*
G04 #@! TO.C,D46*
X139425000Y-105430000D02*
X142515000Y-105430000D01*
X143470000Y-102870000D02*
G75*
G03*
X143470000Y-102870000I-2500000J0D01*
G01*
X140969538Y-99880000D02*
G75*
G02*
X142514830Y-105430000I462J-2990000D01*
G01*
X140970462Y-99880000D02*
G75*
G03*
X139425170Y-105430000I-462J-2990000D01*
G01*
G04 #@! TO.C,D45*
X147045000Y-105430000D02*
X150135000Y-105430000D01*
X151090000Y-102870000D02*
G75*
G03*
X151090000Y-102870000I-2500000J0D01*
G01*
X148589538Y-99880000D02*
G75*
G02*
X150134830Y-105430000I462J-2990000D01*
G01*
X148590462Y-99880000D02*
G75*
G03*
X147045170Y-105430000I-462J-2990000D01*
G01*
G04 #@! TO.C,D44*
X154665000Y-105430000D02*
X157755000Y-105430000D01*
X158710000Y-102870000D02*
G75*
G03*
X158710000Y-102870000I-2500000J0D01*
G01*
X156209538Y-99880000D02*
G75*
G02*
X157754830Y-105430000I462J-2990000D01*
G01*
X156210462Y-99880000D02*
G75*
G03*
X154665170Y-105430000I-462J-2990000D01*
G01*
G04 #@! TO.C,D43*
X162285000Y-105430000D02*
X165375000Y-105430000D01*
X166330000Y-102870000D02*
G75*
G03*
X166330000Y-102870000I-2500000J0D01*
G01*
X163829538Y-99880000D02*
G75*
G02*
X165374830Y-105430000I462J-2990000D01*
G01*
X163830462Y-99880000D02*
G75*
G03*
X162285170Y-105430000I-462J-2990000D01*
G01*
G04 #@! TO.C,D42*
X169905000Y-105430000D02*
X172995000Y-105430000D01*
X173950000Y-102870000D02*
G75*
G03*
X173950000Y-102870000I-2500000J0D01*
G01*
X171449538Y-99880000D02*
G75*
G02*
X172994830Y-105430000I462J-2990000D01*
G01*
X171450462Y-99880000D02*
G75*
G03*
X169905170Y-105430000I-462J-2990000D01*
G01*
G04 #@! TO.C,D41*
X177525000Y-105430000D02*
X180615000Y-105430000D01*
X181570000Y-102870000D02*
G75*
G03*
X181570000Y-102870000I-2500000J0D01*
G01*
X179069538Y-99880000D02*
G75*
G02*
X180614830Y-105430000I462J-2990000D01*
G01*
X179070462Y-99880000D02*
G75*
G03*
X177525170Y-105430000I-462J-2990000D01*
G01*
G04 #@! TO.C,D40*
X124185000Y-57170000D02*
X127275000Y-57170000D01*
X128230000Y-54610000D02*
G75*
G03*
X128230000Y-54610000I-2500000J0D01*
G01*
X125729538Y-51620000D02*
G75*
G02*
X127274830Y-57170000I462J-2990000D01*
G01*
X125730462Y-51620000D02*
G75*
G03*
X124185170Y-57170000I-462J-2990000D01*
G01*
G04 #@! TO.C,D39*
X131805000Y-57170000D02*
X134895000Y-57170000D01*
X135850000Y-54610000D02*
G75*
G03*
X135850000Y-54610000I-2500000J0D01*
G01*
X133349538Y-51620000D02*
G75*
G02*
X134894830Y-57170000I462J-2990000D01*
G01*
X133350462Y-51620000D02*
G75*
G03*
X131805170Y-57170000I-462J-2990000D01*
G01*
G04 #@! TO.C,D38*
X139425000Y-57170000D02*
X142515000Y-57170000D01*
X143470000Y-54610000D02*
G75*
G03*
X143470000Y-54610000I-2500000J0D01*
G01*
X140969538Y-51620000D02*
G75*
G02*
X142514830Y-57170000I462J-2990000D01*
G01*
X140970462Y-51620000D02*
G75*
G03*
X139425170Y-57170000I-462J-2990000D01*
G01*
G04 #@! TO.C,D37*
X147045000Y-57170000D02*
X150135000Y-57170000D01*
X151090000Y-54610000D02*
G75*
G03*
X151090000Y-54610000I-2500000J0D01*
G01*
X148589538Y-51620000D02*
G75*
G02*
X150134830Y-57170000I462J-2990000D01*
G01*
X148590462Y-51620000D02*
G75*
G03*
X147045170Y-57170000I-462J-2990000D01*
G01*
G04 #@! TO.C,D36*
X154665000Y-57170000D02*
X157755000Y-57170000D01*
X158710000Y-54610000D02*
G75*
G03*
X158710000Y-54610000I-2500000J0D01*
G01*
X156209538Y-51620000D02*
G75*
G02*
X157754830Y-57170000I462J-2990000D01*
G01*
X156210462Y-51620000D02*
G75*
G03*
X154665170Y-57170000I-462J-2990000D01*
G01*
G04 #@! TO.C,D35*
X162285000Y-57170000D02*
X165375000Y-57170000D01*
X166330000Y-54610000D02*
G75*
G03*
X166330000Y-54610000I-2500000J0D01*
G01*
X163829538Y-51620000D02*
G75*
G02*
X165374830Y-57170000I462J-2990000D01*
G01*
X163830462Y-51620000D02*
G75*
G03*
X162285170Y-57170000I-462J-2990000D01*
G01*
G04 #@! TO.C,D34*
X169905000Y-57170000D02*
X172995000Y-57170000D01*
X173950000Y-54610000D02*
G75*
G03*
X173950000Y-54610000I-2500000J0D01*
G01*
X171449538Y-51620000D02*
G75*
G02*
X172994830Y-57170000I462J-2990000D01*
G01*
X171450462Y-51620000D02*
G75*
G03*
X169905170Y-57170000I-462J-2990000D01*
G01*
G04 #@! TO.C,D33*
X177525000Y-57170000D02*
X180615000Y-57170000D01*
X181570000Y-54610000D02*
G75*
G03*
X181570000Y-54610000I-2500000J0D01*
G01*
X179069538Y-51620000D02*
G75*
G02*
X180614830Y-57170000I462J-2990000D01*
G01*
X179070462Y-51620000D02*
G75*
G03*
X177525170Y-57170000I-462J-2990000D01*
G01*
G04 #@! TO.C,D32*
X17505000Y-143530000D02*
X20595000Y-143530000D01*
X21550000Y-140970000D02*
G75*
G03*
X21550000Y-140970000I-2500000J0D01*
G01*
X19049538Y-137980000D02*
G75*
G02*
X20594830Y-143530000I462J-2990000D01*
G01*
X19050462Y-137980000D02*
G75*
G03*
X17505170Y-143530000I-462J-2990000D01*
G01*
G04 #@! TO.C,D31*
X25125000Y-143530000D02*
X28215000Y-143530000D01*
X29170000Y-140970000D02*
G75*
G03*
X29170000Y-140970000I-2500000J0D01*
G01*
X26669538Y-137980000D02*
G75*
G02*
X28214830Y-143530000I462J-2990000D01*
G01*
X26670462Y-137980000D02*
G75*
G03*
X25125170Y-143530000I-462J-2990000D01*
G01*
G04 #@! TO.C,D30*
X32745000Y-143530000D02*
X35835000Y-143530000D01*
X36790000Y-140970000D02*
G75*
G03*
X36790000Y-140970000I-2500000J0D01*
G01*
X34289538Y-137980000D02*
G75*
G02*
X35834830Y-143530000I462J-2990000D01*
G01*
X34290462Y-137980000D02*
G75*
G03*
X32745170Y-143530000I-462J-2990000D01*
G01*
G04 #@! TO.C,D29*
X40365000Y-143530000D02*
X43455000Y-143530000D01*
X44410000Y-140970000D02*
G75*
G03*
X44410000Y-140970000I-2500000J0D01*
G01*
X41909538Y-137980000D02*
G75*
G02*
X43454830Y-143530000I462J-2990000D01*
G01*
X41910462Y-137980000D02*
G75*
G03*
X40365170Y-143530000I-462J-2990000D01*
G01*
G04 #@! TO.C,D28*
X47985000Y-143530000D02*
X51075000Y-143530000D01*
X52030000Y-140970000D02*
G75*
G03*
X52030000Y-140970000I-2500000J0D01*
G01*
X49529538Y-137980000D02*
G75*
G02*
X51074830Y-143530000I462J-2990000D01*
G01*
X49530462Y-137980000D02*
G75*
G03*
X47985170Y-143530000I-462J-2990000D01*
G01*
G04 #@! TO.C,D27*
X55605000Y-143530000D02*
X58695000Y-143530000D01*
X59650000Y-140970000D02*
G75*
G03*
X59650000Y-140970000I-2500000J0D01*
G01*
X57149538Y-137980000D02*
G75*
G02*
X58694830Y-143530000I462J-2990000D01*
G01*
X57150462Y-137980000D02*
G75*
G03*
X55605170Y-143530000I-462J-2990000D01*
G01*
G04 #@! TO.C,D26*
X63225000Y-143530000D02*
X66315000Y-143530000D01*
X67270000Y-140970000D02*
G75*
G03*
X67270000Y-140970000I-2500000J0D01*
G01*
X64769538Y-137980000D02*
G75*
G02*
X66314830Y-143530000I462J-2990000D01*
G01*
X64770462Y-137980000D02*
G75*
G03*
X63225170Y-143530000I-462J-2990000D01*
G01*
G04 #@! TO.C,D25*
X70845000Y-143530000D02*
X73935000Y-143530000D01*
X74890000Y-140970000D02*
G75*
G03*
X74890000Y-140970000I-2500000J0D01*
G01*
X72389538Y-137980000D02*
G75*
G02*
X73934830Y-143530000I462J-2990000D01*
G01*
X72390462Y-137980000D02*
G75*
G03*
X70845170Y-143530000I-462J-2990000D01*
G01*
G04 #@! TO.C,D24*
X16235000Y-105430000D02*
X19325000Y-105430000D01*
X20280000Y-102870000D02*
G75*
G03*
X20280000Y-102870000I-2500000J0D01*
G01*
X17779538Y-99880000D02*
G75*
G02*
X19324830Y-105430000I462J-2990000D01*
G01*
X17780462Y-99880000D02*
G75*
G03*
X16235170Y-105430000I-462J-2990000D01*
G01*
G04 #@! TO.C,D23*
X23855000Y-105430000D02*
X26945000Y-105430000D01*
X27900000Y-102870000D02*
G75*
G03*
X27900000Y-102870000I-2500000J0D01*
G01*
X25399538Y-99880000D02*
G75*
G02*
X26944830Y-105430000I462J-2990000D01*
G01*
X25400462Y-99880000D02*
G75*
G03*
X23855170Y-105430000I-462J-2990000D01*
G01*
G04 #@! TO.C,D22*
X31475000Y-105430000D02*
X34565000Y-105430000D01*
X35520000Y-102870000D02*
G75*
G03*
X35520000Y-102870000I-2500000J0D01*
G01*
X33019538Y-99880000D02*
G75*
G02*
X34564830Y-105430000I462J-2990000D01*
G01*
X33020462Y-99880000D02*
G75*
G03*
X31475170Y-105430000I-462J-2990000D01*
G01*
G04 #@! TO.C,D21*
X39095000Y-105430000D02*
X42185000Y-105430000D01*
X43140000Y-102870000D02*
G75*
G03*
X43140000Y-102870000I-2500000J0D01*
G01*
X40639538Y-99880000D02*
G75*
G02*
X42184830Y-105430000I462J-2990000D01*
G01*
X40640462Y-99880000D02*
G75*
G03*
X39095170Y-105430000I-462J-2990000D01*
G01*
G04 #@! TO.C,D20*
X46715000Y-105430000D02*
X49805000Y-105430000D01*
X50760000Y-102870000D02*
G75*
G03*
X50760000Y-102870000I-2500000J0D01*
G01*
X48259538Y-99880000D02*
G75*
G02*
X49804830Y-105430000I462J-2990000D01*
G01*
X48260462Y-99880000D02*
G75*
G03*
X46715170Y-105430000I-462J-2990000D01*
G01*
G04 #@! TO.C,D19*
X54335000Y-105430000D02*
X57425000Y-105430000D01*
X58380000Y-102870000D02*
G75*
G03*
X58380000Y-102870000I-2500000J0D01*
G01*
X55879538Y-99880000D02*
G75*
G02*
X57424830Y-105430000I462J-2990000D01*
G01*
X55880462Y-99880000D02*
G75*
G03*
X54335170Y-105430000I-462J-2990000D01*
G01*
G04 #@! TO.C,D18*
X61955000Y-105430000D02*
X65045000Y-105430000D01*
X66000000Y-102870000D02*
G75*
G03*
X66000000Y-102870000I-2500000J0D01*
G01*
X63499538Y-99880000D02*
G75*
G02*
X65044830Y-105430000I462J-2990000D01*
G01*
X63500462Y-99880000D02*
G75*
G03*
X61955170Y-105430000I-462J-2990000D01*
G01*
G04 #@! TO.C,D17*
X69575000Y-105430000D02*
X72665000Y-105430000D01*
X73620000Y-102870000D02*
G75*
G03*
X73620000Y-102870000I-2500000J0D01*
G01*
X71119538Y-99880000D02*
G75*
G02*
X72664830Y-105430000I462J-2990000D01*
G01*
X71120462Y-99880000D02*
G75*
G03*
X69575170Y-105430000I-462J-2990000D01*
G01*
G04 #@! TO.C,D16*
X17505000Y-67330000D02*
X20595000Y-67330000D01*
X21550000Y-64770000D02*
G75*
G03*
X21550000Y-64770000I-2500000J0D01*
G01*
X19049538Y-61780000D02*
G75*
G02*
X20594830Y-67330000I462J-2990000D01*
G01*
X19050462Y-61780000D02*
G75*
G03*
X17505170Y-67330000I-462J-2990000D01*
G01*
G04 #@! TO.C,D15*
X25125000Y-67330000D02*
X28215000Y-67330000D01*
X29170000Y-64770000D02*
G75*
G03*
X29170000Y-64770000I-2500000J0D01*
G01*
X26669538Y-61780000D02*
G75*
G02*
X28214830Y-67330000I462J-2990000D01*
G01*
X26670462Y-61780000D02*
G75*
G03*
X25125170Y-67330000I-462J-2990000D01*
G01*
G04 #@! TO.C,D14*
X32745000Y-67330000D02*
X35835000Y-67330000D01*
X36790000Y-64770000D02*
G75*
G03*
X36790000Y-64770000I-2500000J0D01*
G01*
X34289538Y-61780000D02*
G75*
G02*
X35834830Y-67330000I462J-2990000D01*
G01*
X34290462Y-61780000D02*
G75*
G03*
X32745170Y-67330000I-462J-2990000D01*
G01*
G04 #@! TO.C,D13*
X40365000Y-67330000D02*
X43455000Y-67330000D01*
X44410000Y-64770000D02*
G75*
G03*
X44410000Y-64770000I-2500000J0D01*
G01*
X41909538Y-61780000D02*
G75*
G02*
X43454830Y-67330000I462J-2990000D01*
G01*
X41910462Y-61780000D02*
G75*
G03*
X40365170Y-67330000I-462J-2990000D01*
G01*
G04 #@! TO.C,D12*
X47985000Y-67330000D02*
X51075000Y-67330000D01*
X52030000Y-64770000D02*
G75*
G03*
X52030000Y-64770000I-2500000J0D01*
G01*
X49529538Y-61780000D02*
G75*
G02*
X51074830Y-67330000I462J-2990000D01*
G01*
X49530462Y-61780000D02*
G75*
G03*
X47985170Y-67330000I-462J-2990000D01*
G01*
G04 #@! TO.C,D11*
X55605000Y-67330000D02*
X58695000Y-67330000D01*
X59650000Y-64770000D02*
G75*
G03*
X59650000Y-64770000I-2500000J0D01*
G01*
X57149538Y-61780000D02*
G75*
G02*
X58694830Y-67330000I462J-2990000D01*
G01*
X57150462Y-61780000D02*
G75*
G03*
X55605170Y-67330000I-462J-2990000D01*
G01*
G04 #@! TO.C,D10*
X63225000Y-67330000D02*
X66315000Y-67330000D01*
X67270000Y-64770000D02*
G75*
G03*
X67270000Y-64770000I-2500000J0D01*
G01*
X64769538Y-61780000D02*
G75*
G02*
X66314830Y-67330000I462J-2990000D01*
G01*
X64770462Y-61780000D02*
G75*
G03*
X63225170Y-67330000I-462J-2990000D01*
G01*
G04 #@! TO.C,D9*
X70845000Y-67330000D02*
X73935000Y-67330000D01*
X74890000Y-64770000D02*
G75*
G03*
X74890000Y-64770000I-2500000J0D01*
G01*
X72389538Y-61780000D02*
G75*
G02*
X73934830Y-67330000I462J-2990000D01*
G01*
X72390462Y-61780000D02*
G75*
G03*
X70845170Y-67330000I-462J-2990000D01*
G01*
G04 #@! TO.C,D8*
X17505000Y-29230000D02*
X20595000Y-29230000D01*
X21550000Y-26670000D02*
G75*
G03*
X21550000Y-26670000I-2500000J0D01*
G01*
X19049538Y-23680000D02*
G75*
G02*
X20594830Y-29230000I462J-2990000D01*
G01*
X19050462Y-23680000D02*
G75*
G03*
X17505170Y-29230000I-462J-2990000D01*
G01*
G04 #@! TO.C,D7*
X25125000Y-29230000D02*
X28215000Y-29230000D01*
X29170000Y-26670000D02*
G75*
G03*
X29170000Y-26670000I-2500000J0D01*
G01*
X26669538Y-23680000D02*
G75*
G02*
X28214830Y-29230000I462J-2990000D01*
G01*
X26670462Y-23680000D02*
G75*
G03*
X25125170Y-29230000I-462J-2990000D01*
G01*
G04 #@! TO.C,D6*
X32745000Y-29230000D02*
X35835000Y-29230000D01*
X36790000Y-26670000D02*
G75*
G03*
X36790000Y-26670000I-2500000J0D01*
G01*
X34289538Y-23680000D02*
G75*
G02*
X35834830Y-29230000I462J-2990000D01*
G01*
X34290462Y-23680000D02*
G75*
G03*
X32745170Y-29230000I-462J-2990000D01*
G01*
G04 #@! TO.C,D5*
X40365000Y-29230000D02*
X43455000Y-29230000D01*
X44410000Y-26670000D02*
G75*
G03*
X44410000Y-26670000I-2500000J0D01*
G01*
X41909538Y-23680000D02*
G75*
G02*
X43454830Y-29230000I462J-2990000D01*
G01*
X41910462Y-23680000D02*
G75*
G03*
X40365170Y-29230000I-462J-2990000D01*
G01*
G04 #@! TO.C,D4*
X47985000Y-29230000D02*
X51075000Y-29230000D01*
X52030000Y-26670000D02*
G75*
G03*
X52030000Y-26670000I-2500000J0D01*
G01*
X49529538Y-23680000D02*
G75*
G02*
X51074830Y-29230000I462J-2990000D01*
G01*
X49530462Y-23680000D02*
G75*
G03*
X47985170Y-29230000I-462J-2990000D01*
G01*
G04 #@! TO.C,D3*
X55605000Y-29230000D02*
X58695000Y-29230000D01*
X59650000Y-26670000D02*
G75*
G03*
X59650000Y-26670000I-2500000J0D01*
G01*
X57149538Y-23680000D02*
G75*
G02*
X58694830Y-29230000I462J-2990000D01*
G01*
X57150462Y-23680000D02*
G75*
G03*
X55605170Y-29230000I-462J-2990000D01*
G01*
G04 #@! TO.C,D2*
X63225000Y-29230000D02*
X66315000Y-29230000D01*
X67270000Y-26670000D02*
G75*
G03*
X67270000Y-26670000I-2500000J0D01*
G01*
X64769538Y-23680000D02*
G75*
G02*
X66314830Y-29230000I462J-2990000D01*
G01*
X64770462Y-23680000D02*
G75*
G03*
X63225170Y-29230000I-462J-2990000D01*
G01*
G04 #@! TO.C,D1*
X70845000Y-29230000D02*
X73935000Y-29230000D01*
X74890000Y-26670000D02*
G75*
G03*
X74890000Y-26670000I-2500000J0D01*
G01*
X72389538Y-23680000D02*
G75*
G02*
X73934830Y-29230000I462J-2990000D01*
G01*
X72390462Y-23680000D02*
G75*
G03*
X70845170Y-29230000I-462J-2990000D01*
G01*
G04 #@! TO.C,C16*
X70065000Y-161620000D02*
X70000000Y-161620000D01*
X72240000Y-161620000D02*
X72175000Y-161620000D01*
X70065000Y-158380000D02*
X70000000Y-158380000D01*
X72240000Y-158380000D02*
X72175000Y-158380000D01*
X70000000Y-158380000D02*
X70000000Y-161620000D01*
X72240000Y-158380000D02*
X72240000Y-161620000D01*
G04 #@! TO.C,C15*
X134835000Y-140030000D02*
X134770000Y-140030000D01*
X137010000Y-140030000D02*
X136945000Y-140030000D01*
X134835000Y-136790000D02*
X134770000Y-136790000D01*
X137010000Y-136790000D02*
X136945000Y-136790000D01*
X134770000Y-136790000D02*
X134770000Y-140030000D01*
X137010000Y-136790000D02*
X137010000Y-140030000D01*
G04 #@! TO.C,C14*
X84035000Y-137490000D02*
X83970000Y-137490000D01*
X86210000Y-137490000D02*
X86145000Y-137490000D01*
X84035000Y-134250000D02*
X83970000Y-134250000D01*
X86210000Y-134250000D02*
X86145000Y-134250000D01*
X83970000Y-134250000D02*
X83970000Y-137490000D01*
X86210000Y-134250000D02*
X86210000Y-137490000D01*
G04 #@! TO.C,C13*
X84035000Y-118440000D02*
X83970000Y-118440000D01*
X86210000Y-118440000D02*
X86145000Y-118440000D01*
X84035000Y-115200000D02*
X83970000Y-115200000D01*
X86210000Y-115200000D02*
X86145000Y-115200000D01*
X83970000Y-115200000D02*
X83970000Y-118440000D01*
X86210000Y-115200000D02*
X86210000Y-118440000D01*
G04 #@! TO.C,C12*
X84035000Y-99390000D02*
X83970000Y-99390000D01*
X86210000Y-99390000D02*
X86145000Y-99390000D01*
X84035000Y-96150000D02*
X83970000Y-96150000D01*
X86210000Y-96150000D02*
X86145000Y-96150000D01*
X83970000Y-96150000D02*
X83970000Y-99390000D01*
X86210000Y-96150000D02*
X86210000Y-99390000D01*
G04 #@! TO.C,C11*
X84035000Y-81610000D02*
X83970000Y-81610000D01*
X86210000Y-81610000D02*
X86145000Y-81610000D01*
X84035000Y-78370000D02*
X83970000Y-78370000D01*
X86210000Y-78370000D02*
X86145000Y-78370000D01*
X83970000Y-78370000D02*
X83970000Y-81610000D01*
X86210000Y-78370000D02*
X86210000Y-81610000D01*
G04 #@! TO.C,C10*
X84035000Y-62560000D02*
X83970000Y-62560000D01*
X86210000Y-62560000D02*
X86145000Y-62560000D01*
X84035000Y-59320000D02*
X83970000Y-59320000D01*
X86210000Y-59320000D02*
X86145000Y-59320000D01*
X83970000Y-59320000D02*
X83970000Y-62560000D01*
X86210000Y-59320000D02*
X86210000Y-62560000D01*
G04 #@! TO.C,C9*
X84035000Y-44780000D02*
X83970000Y-44780000D01*
X86210000Y-44780000D02*
X86145000Y-44780000D01*
X84035000Y-41540000D02*
X83970000Y-41540000D01*
X86210000Y-41540000D02*
X86145000Y-41540000D01*
X83970000Y-41540000D02*
X83970000Y-44780000D01*
X86210000Y-41540000D02*
X86210000Y-44780000D01*
G04 #@! TO.C,C8*
X85305000Y-28270000D02*
X85240000Y-28270000D01*
X87480000Y-28270000D02*
X87415000Y-28270000D01*
X85305000Y-25030000D02*
X85240000Y-25030000D01*
X87480000Y-25030000D02*
X87415000Y-25030000D01*
X85240000Y-25030000D02*
X85240000Y-28270000D01*
X87480000Y-25030000D02*
X87480000Y-28270000D01*
G04 #@! TO.C,C7*
X85305000Y-11760000D02*
X85240000Y-11760000D01*
X87480000Y-11760000D02*
X87415000Y-11760000D01*
X85305000Y-8520000D02*
X85240000Y-8520000D01*
X87480000Y-8520000D02*
X87415000Y-8520000D01*
X85240000Y-8520000D02*
X85240000Y-11760000D01*
X87480000Y-8520000D02*
X87480000Y-11760000D01*
G04 #@! TO.C,C6*
X134835000Y-89230000D02*
X134770000Y-89230000D01*
X137010000Y-89230000D02*
X136945000Y-89230000D01*
X134835000Y-85990000D02*
X134770000Y-85990000D01*
X137010000Y-85990000D02*
X136945000Y-85990000D01*
X134770000Y-85990000D02*
X134770000Y-89230000D01*
X137010000Y-85990000D02*
X137010000Y-89230000D01*
G04 #@! TO.C,C5*
X134835000Y-40970000D02*
X134770000Y-40970000D01*
X137010000Y-40970000D02*
X136945000Y-40970000D01*
X134835000Y-37730000D02*
X134770000Y-37730000D01*
X137010000Y-37730000D02*
X136945000Y-37730000D01*
X134770000Y-37730000D02*
X134770000Y-40970000D01*
X137010000Y-37730000D02*
X137010000Y-40970000D01*
G04 #@! TO.C,C4*
X26885000Y-127330000D02*
X26820000Y-127330000D01*
X29060000Y-127330000D02*
X28995000Y-127330000D01*
X26885000Y-124090000D02*
X26820000Y-124090000D01*
X29060000Y-124090000D02*
X28995000Y-124090000D01*
X26820000Y-124090000D02*
X26820000Y-127330000D01*
X29060000Y-124090000D02*
X29060000Y-127330000D01*
G04 #@! TO.C,C3*
X25615000Y-90500000D02*
X25550000Y-90500000D01*
X27790000Y-90500000D02*
X27725000Y-90500000D01*
X25615000Y-87260000D02*
X25550000Y-87260000D01*
X27790000Y-87260000D02*
X27725000Y-87260000D01*
X25550000Y-87260000D02*
X25550000Y-90500000D01*
X27790000Y-87260000D02*
X27790000Y-90500000D01*
G04 #@! TO.C,C2*
X28155000Y-52400000D02*
X28090000Y-52400000D01*
X30330000Y-52400000D02*
X30265000Y-52400000D01*
X28155000Y-49160000D02*
X28090000Y-49160000D01*
X30330000Y-49160000D02*
X30265000Y-49160000D01*
X28090000Y-49160000D02*
X28090000Y-52400000D01*
X30330000Y-49160000D02*
X30330000Y-52400000D01*
G04 #@! TO.C,C1*
X28155000Y-13030000D02*
X28090000Y-13030000D01*
X30330000Y-13030000D02*
X30265000Y-13030000D01*
X28155000Y-9790000D02*
X28090000Y-9790000D01*
X30330000Y-9790000D02*
X30265000Y-9790000D01*
X28090000Y-9790000D02*
X28090000Y-13030000D01*
X30330000Y-9790000D02*
X30330000Y-13030000D01*
G04 #@! TO.C,J11*
D11*
X163020476Y-4742380D02*
X163020476Y-5456666D01*
X162972857Y-5599523D01*
X162877619Y-5694761D01*
X162734761Y-5742380D01*
X162639523Y-5742380D01*
X164020476Y-5742380D02*
X163449047Y-5742380D01*
X163734761Y-5742380D02*
X163734761Y-4742380D01*
X163639523Y-4885238D01*
X163544285Y-4980476D01*
X163449047Y-5028095D01*
X164972857Y-5742380D02*
X164401428Y-5742380D01*
X164687142Y-5742380D02*
X164687142Y-4742380D01*
X164591904Y-4885238D01*
X164496666Y-4980476D01*
X164401428Y-5028095D01*
G04 #@! TO.C,U16*
X73322380Y-161258095D02*
X74131904Y-161258095D01*
X74227142Y-161210476D01*
X74274761Y-161162857D01*
X74322380Y-161067619D01*
X74322380Y-160877142D01*
X74274761Y-160781904D01*
X74227142Y-160734285D01*
X74131904Y-160686666D01*
X73322380Y-160686666D01*
X74322380Y-159686666D02*
X74322380Y-160258095D01*
X74322380Y-159972380D02*
X73322380Y-159972380D01*
X73465238Y-160067619D01*
X73560476Y-160162857D01*
X73608095Y-160258095D01*
X73322380Y-158829523D02*
X73322380Y-159020000D01*
X73370000Y-159115238D01*
X73417619Y-159162857D01*
X73560476Y-159258095D01*
X73750952Y-159305714D01*
X74131904Y-159305714D01*
X74227142Y-159258095D01*
X74274761Y-159210476D01*
X74322380Y-159115238D01*
X74322380Y-158924761D01*
X74274761Y-158829523D01*
X74227142Y-158781904D01*
X74131904Y-158734285D01*
X73893809Y-158734285D01*
X73798571Y-158781904D01*
X73750952Y-158829523D01*
X73703333Y-158924761D01*
X73703333Y-159115238D01*
X73750952Y-159210476D01*
X73798571Y-159258095D01*
X73893809Y-159305714D01*
G04 #@! TO.C,U15*
X136822380Y-139668095D02*
X137631904Y-139668095D01*
X137727142Y-139620476D01*
X137774761Y-139572857D01*
X137822380Y-139477619D01*
X137822380Y-139287142D01*
X137774761Y-139191904D01*
X137727142Y-139144285D01*
X137631904Y-139096666D01*
X136822380Y-139096666D01*
X137822380Y-138096666D02*
X137822380Y-138668095D01*
X137822380Y-138382380D02*
X136822380Y-138382380D01*
X136965238Y-138477619D01*
X137060476Y-138572857D01*
X137108095Y-138668095D01*
X136822380Y-137191904D02*
X136822380Y-137668095D01*
X137298571Y-137715714D01*
X137250952Y-137668095D01*
X137203333Y-137572857D01*
X137203333Y-137334761D01*
X137250952Y-137239523D01*
X137298571Y-137191904D01*
X137393809Y-137144285D01*
X137631904Y-137144285D01*
X137727142Y-137191904D01*
X137774761Y-137239523D01*
X137822380Y-137334761D01*
X137822380Y-137572857D01*
X137774761Y-137668095D01*
X137727142Y-137715714D01*
G04 #@! TO.C,U14*
X88562380Y-137128095D02*
X89371904Y-137128095D01*
X89467142Y-137080476D01*
X89514761Y-137032857D01*
X89562380Y-136937619D01*
X89562380Y-136747142D01*
X89514761Y-136651904D01*
X89467142Y-136604285D01*
X89371904Y-136556666D01*
X88562380Y-136556666D01*
X89562380Y-135556666D02*
X89562380Y-136128095D01*
X89562380Y-135842380D02*
X88562380Y-135842380D01*
X88705238Y-135937619D01*
X88800476Y-136032857D01*
X88848095Y-136128095D01*
X88895714Y-134699523D02*
X89562380Y-134699523D01*
X88514761Y-134937619D02*
X89229047Y-135175714D01*
X89229047Y-134556666D01*
G04 #@! TO.C,U13*
X88562380Y-118078095D02*
X89371904Y-118078095D01*
X89467142Y-118030476D01*
X89514761Y-117982857D01*
X89562380Y-117887619D01*
X89562380Y-117697142D01*
X89514761Y-117601904D01*
X89467142Y-117554285D01*
X89371904Y-117506666D01*
X88562380Y-117506666D01*
X89562380Y-116506666D02*
X89562380Y-117078095D01*
X89562380Y-116792380D02*
X88562380Y-116792380D01*
X88705238Y-116887619D01*
X88800476Y-116982857D01*
X88848095Y-117078095D01*
X88562380Y-116173333D02*
X88562380Y-115554285D01*
X88943333Y-115887619D01*
X88943333Y-115744761D01*
X88990952Y-115649523D01*
X89038571Y-115601904D01*
X89133809Y-115554285D01*
X89371904Y-115554285D01*
X89467142Y-115601904D01*
X89514761Y-115649523D01*
X89562380Y-115744761D01*
X89562380Y-116030476D01*
X89514761Y-116125714D01*
X89467142Y-116173333D01*
G04 #@! TO.C,U12*
X88562380Y-99028095D02*
X89371904Y-99028095D01*
X89467142Y-98980476D01*
X89514761Y-98932857D01*
X89562380Y-98837619D01*
X89562380Y-98647142D01*
X89514761Y-98551904D01*
X89467142Y-98504285D01*
X89371904Y-98456666D01*
X88562380Y-98456666D01*
X89562380Y-97456666D02*
X89562380Y-98028095D01*
X89562380Y-97742380D02*
X88562380Y-97742380D01*
X88705238Y-97837619D01*
X88800476Y-97932857D01*
X88848095Y-98028095D01*
X88657619Y-97075714D02*
X88610000Y-97028095D01*
X88562380Y-96932857D01*
X88562380Y-96694761D01*
X88610000Y-96599523D01*
X88657619Y-96551904D01*
X88752857Y-96504285D01*
X88848095Y-96504285D01*
X88990952Y-96551904D01*
X89562380Y-97123333D01*
X89562380Y-96504285D01*
G04 #@! TO.C,U11*
X88562380Y-81248095D02*
X89371904Y-81248095D01*
X89467142Y-81200476D01*
X89514761Y-81152857D01*
X89562380Y-81057619D01*
X89562380Y-80867142D01*
X89514761Y-80771904D01*
X89467142Y-80724285D01*
X89371904Y-80676666D01*
X88562380Y-80676666D01*
X89562380Y-79676666D02*
X89562380Y-80248095D01*
X89562380Y-79962380D02*
X88562380Y-79962380D01*
X88705238Y-80057619D01*
X88800476Y-80152857D01*
X88848095Y-80248095D01*
X89562380Y-78724285D02*
X89562380Y-79295714D01*
X89562380Y-79010000D02*
X88562380Y-79010000D01*
X88705238Y-79105238D01*
X88800476Y-79200476D01*
X88848095Y-79295714D01*
G04 #@! TO.C,U10*
X88562380Y-62198095D02*
X89371904Y-62198095D01*
X89467142Y-62150476D01*
X89514761Y-62102857D01*
X89562380Y-62007619D01*
X89562380Y-61817142D01*
X89514761Y-61721904D01*
X89467142Y-61674285D01*
X89371904Y-61626666D01*
X88562380Y-61626666D01*
X89562380Y-60626666D02*
X89562380Y-61198095D01*
X89562380Y-60912380D02*
X88562380Y-60912380D01*
X88705238Y-61007619D01*
X88800476Y-61102857D01*
X88848095Y-61198095D01*
X88562380Y-60007619D02*
X88562380Y-59912380D01*
X88610000Y-59817142D01*
X88657619Y-59769523D01*
X88752857Y-59721904D01*
X88943333Y-59674285D01*
X89181428Y-59674285D01*
X89371904Y-59721904D01*
X89467142Y-59769523D01*
X89514761Y-59817142D01*
X89562380Y-59912380D01*
X89562380Y-60007619D01*
X89514761Y-60102857D01*
X89467142Y-60150476D01*
X89371904Y-60198095D01*
X89181428Y-60245714D01*
X88943333Y-60245714D01*
X88752857Y-60198095D01*
X88657619Y-60150476D01*
X88610000Y-60102857D01*
X88562380Y-60007619D01*
G04 #@! TO.C,U9*
X88562380Y-43941904D02*
X89371904Y-43941904D01*
X89467142Y-43894285D01*
X89514761Y-43846666D01*
X89562380Y-43751428D01*
X89562380Y-43560952D01*
X89514761Y-43465714D01*
X89467142Y-43418095D01*
X89371904Y-43370476D01*
X88562380Y-43370476D01*
X89562380Y-42846666D02*
X89562380Y-42656190D01*
X89514761Y-42560952D01*
X89467142Y-42513333D01*
X89324285Y-42418095D01*
X89133809Y-42370476D01*
X88752857Y-42370476D01*
X88657619Y-42418095D01*
X88610000Y-42465714D01*
X88562380Y-42560952D01*
X88562380Y-42751428D01*
X88610000Y-42846666D01*
X88657619Y-42894285D01*
X88752857Y-42941904D01*
X88990952Y-42941904D01*
X89086190Y-42894285D01*
X89133809Y-42846666D01*
X89181428Y-42751428D01*
X89181428Y-42560952D01*
X89133809Y-42465714D01*
X89086190Y-42418095D01*
X88990952Y-42370476D01*
G04 #@! TO.C,U8*
X88562380Y-27431904D02*
X89371904Y-27431904D01*
X89467142Y-27384285D01*
X89514761Y-27336666D01*
X89562380Y-27241428D01*
X89562380Y-27050952D01*
X89514761Y-26955714D01*
X89467142Y-26908095D01*
X89371904Y-26860476D01*
X88562380Y-26860476D01*
X88990952Y-26241428D02*
X88943333Y-26336666D01*
X88895714Y-26384285D01*
X88800476Y-26431904D01*
X88752857Y-26431904D01*
X88657619Y-26384285D01*
X88610000Y-26336666D01*
X88562380Y-26241428D01*
X88562380Y-26050952D01*
X88610000Y-25955714D01*
X88657619Y-25908095D01*
X88752857Y-25860476D01*
X88800476Y-25860476D01*
X88895714Y-25908095D01*
X88943333Y-25955714D01*
X88990952Y-26050952D01*
X88990952Y-26241428D01*
X89038571Y-26336666D01*
X89086190Y-26384285D01*
X89181428Y-26431904D01*
X89371904Y-26431904D01*
X89467142Y-26384285D01*
X89514761Y-26336666D01*
X89562380Y-26241428D01*
X89562380Y-26050952D01*
X89514761Y-25955714D01*
X89467142Y-25908095D01*
X89371904Y-25860476D01*
X89181428Y-25860476D01*
X89086190Y-25908095D01*
X89038571Y-25955714D01*
X88990952Y-26050952D01*
G04 #@! TO.C,U7*
X88562380Y-10921904D02*
X89371904Y-10921904D01*
X89467142Y-10874285D01*
X89514761Y-10826666D01*
X89562380Y-10731428D01*
X89562380Y-10540952D01*
X89514761Y-10445714D01*
X89467142Y-10398095D01*
X89371904Y-10350476D01*
X88562380Y-10350476D01*
X88562380Y-9969523D02*
X88562380Y-9302857D01*
X89562380Y-9731428D01*
G04 #@! TO.C,U6*
X139362380Y-88391904D02*
X140171904Y-88391904D01*
X140267142Y-88344285D01*
X140314761Y-88296666D01*
X140362380Y-88201428D01*
X140362380Y-88010952D01*
X140314761Y-87915714D01*
X140267142Y-87868095D01*
X140171904Y-87820476D01*
X139362380Y-87820476D01*
X139362380Y-86915714D02*
X139362380Y-87106190D01*
X139410000Y-87201428D01*
X139457619Y-87249047D01*
X139600476Y-87344285D01*
X139790952Y-87391904D01*
X140171904Y-87391904D01*
X140267142Y-87344285D01*
X140314761Y-87296666D01*
X140362380Y-87201428D01*
X140362380Y-87010952D01*
X140314761Y-86915714D01*
X140267142Y-86868095D01*
X140171904Y-86820476D01*
X139933809Y-86820476D01*
X139838571Y-86868095D01*
X139790952Y-86915714D01*
X139743333Y-87010952D01*
X139743333Y-87201428D01*
X139790952Y-87296666D01*
X139838571Y-87344285D01*
X139933809Y-87391904D01*
G04 #@! TO.C,U5*
X138092380Y-40131904D02*
X138901904Y-40131904D01*
X138997142Y-40084285D01*
X139044761Y-40036666D01*
X139092380Y-39941428D01*
X139092380Y-39750952D01*
X139044761Y-39655714D01*
X138997142Y-39608095D01*
X138901904Y-39560476D01*
X138092380Y-39560476D01*
X138092380Y-38608095D02*
X138092380Y-39084285D01*
X138568571Y-39131904D01*
X138520952Y-39084285D01*
X138473333Y-38989047D01*
X138473333Y-38750952D01*
X138520952Y-38655714D01*
X138568571Y-38608095D01*
X138663809Y-38560476D01*
X138901904Y-38560476D01*
X138997142Y-38608095D01*
X139044761Y-38655714D01*
X139092380Y-38750952D01*
X139092380Y-38989047D01*
X139044761Y-39084285D01*
X138997142Y-39131904D01*
G04 #@! TO.C,U4*
X30142380Y-127761904D02*
X30951904Y-127761904D01*
X31047142Y-127714285D01*
X31094761Y-127666666D01*
X31142380Y-127571428D01*
X31142380Y-127380952D01*
X31094761Y-127285714D01*
X31047142Y-127238095D01*
X30951904Y-127190476D01*
X30142380Y-127190476D01*
X30475714Y-126285714D02*
X31142380Y-126285714D01*
X30094761Y-126523809D02*
X30809047Y-126761904D01*
X30809047Y-126142857D01*
G04 #@! TO.C,U3*
X30142380Y-89661904D02*
X30951904Y-89661904D01*
X31047142Y-89614285D01*
X31094761Y-89566666D01*
X31142380Y-89471428D01*
X31142380Y-89280952D01*
X31094761Y-89185714D01*
X31047142Y-89138095D01*
X30951904Y-89090476D01*
X30142380Y-89090476D01*
X30142380Y-88709523D02*
X30142380Y-88090476D01*
X30523333Y-88423809D01*
X30523333Y-88280952D01*
X30570952Y-88185714D01*
X30618571Y-88138095D01*
X30713809Y-88090476D01*
X30951904Y-88090476D01*
X31047142Y-88138095D01*
X31094761Y-88185714D01*
X31142380Y-88280952D01*
X31142380Y-88566666D01*
X31094761Y-88661904D01*
X31047142Y-88709523D01*
G04 #@! TO.C,U2*
X31412380Y-51561904D02*
X32221904Y-51561904D01*
X32317142Y-51514285D01*
X32364761Y-51466666D01*
X32412380Y-51371428D01*
X32412380Y-51180952D01*
X32364761Y-51085714D01*
X32317142Y-51038095D01*
X32221904Y-50990476D01*
X31412380Y-50990476D01*
X31507619Y-50561904D02*
X31460000Y-50514285D01*
X31412380Y-50419047D01*
X31412380Y-50180952D01*
X31460000Y-50085714D01*
X31507619Y-50038095D01*
X31602857Y-49990476D01*
X31698095Y-49990476D01*
X31840952Y-50038095D01*
X32412380Y-50609523D01*
X32412380Y-49990476D01*
G04 #@! TO.C,U1*
X31412380Y-13461904D02*
X32221904Y-13461904D01*
X32317142Y-13414285D01*
X32364761Y-13366666D01*
X32412380Y-13271428D01*
X32412380Y-13080952D01*
X32364761Y-12985714D01*
X32317142Y-12938095D01*
X32221904Y-12890476D01*
X31412380Y-12890476D01*
X32412380Y-11890476D02*
X32412380Y-12461904D01*
X32412380Y-12176190D02*
X31412380Y-12176190D01*
X31555238Y-12271428D01*
X31650476Y-12366666D01*
X31698095Y-12461904D01*
G04 #@! TO.C,RN6*
X151709523Y-109812380D02*
X151376190Y-109336190D01*
X151138095Y-109812380D02*
X151138095Y-108812380D01*
X151519047Y-108812380D01*
X151614285Y-108860000D01*
X151661904Y-108907619D01*
X151709523Y-109002857D01*
X151709523Y-109145714D01*
X151661904Y-109240952D01*
X151614285Y-109288571D01*
X151519047Y-109336190D01*
X151138095Y-109336190D01*
X152138095Y-109812380D02*
X152138095Y-108812380D01*
X152709523Y-109812380D01*
X152709523Y-108812380D01*
X153614285Y-108812380D02*
X153423809Y-108812380D01*
X153328571Y-108860000D01*
X153280952Y-108907619D01*
X153185714Y-109050476D01*
X153138095Y-109240952D01*
X153138095Y-109621904D01*
X153185714Y-109717142D01*
X153233333Y-109764761D01*
X153328571Y-109812380D01*
X153519047Y-109812380D01*
X153614285Y-109764761D01*
X153661904Y-109717142D01*
X153709523Y-109621904D01*
X153709523Y-109383809D01*
X153661904Y-109288571D01*
X153614285Y-109240952D01*
X153519047Y-109193333D01*
X153328571Y-109193333D01*
X153233333Y-109240952D01*
X153185714Y-109288571D01*
X153138095Y-109383809D01*
G04 #@! TO.C,RN5*
X151709523Y-61552380D02*
X151376190Y-61076190D01*
X151138095Y-61552380D02*
X151138095Y-60552380D01*
X151519047Y-60552380D01*
X151614285Y-60600000D01*
X151661904Y-60647619D01*
X151709523Y-60742857D01*
X151709523Y-60885714D01*
X151661904Y-60980952D01*
X151614285Y-61028571D01*
X151519047Y-61076190D01*
X151138095Y-61076190D01*
X152138095Y-61552380D02*
X152138095Y-60552380D01*
X152709523Y-61552380D01*
X152709523Y-60552380D01*
X153661904Y-60552380D02*
X153185714Y-60552380D01*
X153138095Y-61028571D01*
X153185714Y-60980952D01*
X153280952Y-60933333D01*
X153519047Y-60933333D01*
X153614285Y-60980952D01*
X153661904Y-61028571D01*
X153709523Y-61123809D01*
X153709523Y-61361904D01*
X153661904Y-61457142D01*
X153614285Y-61504761D01*
X153519047Y-61552380D01*
X153280952Y-61552380D01*
X153185714Y-61504761D01*
X153138095Y-61457142D01*
G04 #@! TO.C,RN4*
X45029523Y-147912380D02*
X44696190Y-147436190D01*
X44458095Y-147912380D02*
X44458095Y-146912380D01*
X44839047Y-146912380D01*
X44934285Y-146960000D01*
X44981904Y-147007619D01*
X45029523Y-147102857D01*
X45029523Y-147245714D01*
X44981904Y-147340952D01*
X44934285Y-147388571D01*
X44839047Y-147436190D01*
X44458095Y-147436190D01*
X45458095Y-147912380D02*
X45458095Y-146912380D01*
X46029523Y-147912380D01*
X46029523Y-146912380D01*
X46934285Y-147245714D02*
X46934285Y-147912380D01*
X46696190Y-146864761D02*
X46458095Y-147579047D01*
X47077142Y-147579047D01*
G04 #@! TO.C,RN3*
X43759523Y-109812380D02*
X43426190Y-109336190D01*
X43188095Y-109812380D02*
X43188095Y-108812380D01*
X43569047Y-108812380D01*
X43664285Y-108860000D01*
X43711904Y-108907619D01*
X43759523Y-109002857D01*
X43759523Y-109145714D01*
X43711904Y-109240952D01*
X43664285Y-109288571D01*
X43569047Y-109336190D01*
X43188095Y-109336190D01*
X44188095Y-109812380D02*
X44188095Y-108812380D01*
X44759523Y-109812380D01*
X44759523Y-108812380D01*
X45140476Y-108812380D02*
X45759523Y-108812380D01*
X45426190Y-109193333D01*
X45569047Y-109193333D01*
X45664285Y-109240952D01*
X45711904Y-109288571D01*
X45759523Y-109383809D01*
X45759523Y-109621904D01*
X45711904Y-109717142D01*
X45664285Y-109764761D01*
X45569047Y-109812380D01*
X45283333Y-109812380D01*
X45188095Y-109764761D01*
X45140476Y-109717142D01*
G04 #@! TO.C,RN2*
X28519523Y-57602380D02*
X28186190Y-57126190D01*
X27948095Y-57602380D02*
X27948095Y-56602380D01*
X28329047Y-56602380D01*
X28424285Y-56650000D01*
X28471904Y-56697619D01*
X28519523Y-56792857D01*
X28519523Y-56935714D01*
X28471904Y-57030952D01*
X28424285Y-57078571D01*
X28329047Y-57126190D01*
X27948095Y-57126190D01*
X28948095Y-57602380D02*
X28948095Y-56602380D01*
X29519523Y-57602380D01*
X29519523Y-56602380D01*
X29948095Y-56697619D02*
X29995714Y-56650000D01*
X30090952Y-56602380D01*
X30329047Y-56602380D01*
X30424285Y-56650000D01*
X30471904Y-56697619D01*
X30519523Y-56792857D01*
X30519523Y-56888095D01*
X30471904Y-57030952D01*
X29900476Y-57602380D01*
X30519523Y-57602380D01*
G04 #@! TO.C,RN1*
X46299523Y-33612380D02*
X45966190Y-33136190D01*
X45728095Y-33612380D02*
X45728095Y-32612380D01*
X46109047Y-32612380D01*
X46204285Y-32660000D01*
X46251904Y-32707619D01*
X46299523Y-32802857D01*
X46299523Y-32945714D01*
X46251904Y-33040952D01*
X46204285Y-33088571D01*
X46109047Y-33136190D01*
X45728095Y-33136190D01*
X46728095Y-33612380D02*
X46728095Y-32612380D01*
X47299523Y-33612380D01*
X47299523Y-32612380D01*
X48299523Y-33612380D02*
X47728095Y-33612380D01*
X48013809Y-33612380D02*
X48013809Y-32612380D01*
X47918571Y-32755238D01*
X47823333Y-32850476D01*
X47728095Y-32898095D01*
G04 #@! TO.C,R3*
X7453333Y-162362380D02*
X7120000Y-161886190D01*
X6881904Y-162362380D02*
X6881904Y-161362380D01*
X7262857Y-161362380D01*
X7358095Y-161410000D01*
X7405714Y-161457619D01*
X7453333Y-161552857D01*
X7453333Y-161695714D01*
X7405714Y-161790952D01*
X7358095Y-161838571D01*
X7262857Y-161886190D01*
X6881904Y-161886190D01*
X7786666Y-161362380D02*
X8405714Y-161362380D01*
X8072380Y-161743333D01*
X8215238Y-161743333D01*
X8310476Y-161790952D01*
X8358095Y-161838571D01*
X8405714Y-161933809D01*
X8405714Y-162171904D01*
X8358095Y-162267142D01*
X8310476Y-162314761D01*
X8215238Y-162362380D01*
X7929523Y-162362380D01*
X7834285Y-162314761D01*
X7786666Y-162267142D01*
G04 #@! TO.C,R2*
X138263333Y-8692380D02*
X137930000Y-8216190D01*
X137691904Y-8692380D02*
X137691904Y-7692380D01*
X138072857Y-7692380D01*
X138168095Y-7740000D01*
X138215714Y-7787619D01*
X138263333Y-7882857D01*
X138263333Y-8025714D01*
X138215714Y-8120952D01*
X138168095Y-8168571D01*
X138072857Y-8216190D01*
X137691904Y-8216190D01*
X138644285Y-7787619D02*
X138691904Y-7740000D01*
X138787142Y-7692380D01*
X139025238Y-7692380D01*
X139120476Y-7740000D01*
X139168095Y-7787619D01*
X139215714Y-7882857D01*
X139215714Y-7978095D01*
X139168095Y-8120952D01*
X138596666Y-8692380D01*
X139215714Y-8692380D01*
G04 #@! TO.C,R1*
X7453333Y-12502380D02*
X7120000Y-12026190D01*
X6881904Y-12502380D02*
X6881904Y-11502380D01*
X7262857Y-11502380D01*
X7358095Y-11550000D01*
X7405714Y-11597619D01*
X7453333Y-11692857D01*
X7453333Y-11835714D01*
X7405714Y-11930952D01*
X7358095Y-11978571D01*
X7262857Y-12026190D01*
X6881904Y-12026190D01*
X8405714Y-12502380D02*
X7834285Y-12502380D01*
X8120000Y-12502380D02*
X8120000Y-11502380D01*
X8024761Y-11645238D01*
X7929523Y-11740476D01*
X7834285Y-11788095D01*
G04 #@! TO.C,J10*
X15700476Y-182542380D02*
X15700476Y-183256666D01*
X15652857Y-183399523D01*
X15557619Y-183494761D01*
X15414761Y-183542380D01*
X15319523Y-183542380D01*
X16700476Y-183542380D02*
X16129047Y-183542380D01*
X16414761Y-183542380D02*
X16414761Y-182542380D01*
X16319523Y-182685238D01*
X16224285Y-182780476D01*
X16129047Y-182828095D01*
X17319523Y-182542380D02*
X17414761Y-182542380D01*
X17510000Y-182590000D01*
X17557619Y-182637619D01*
X17605238Y-182732857D01*
X17652857Y-182923333D01*
X17652857Y-183161428D01*
X17605238Y-183351904D01*
X17557619Y-183447142D01*
X17510000Y-183494761D01*
X17414761Y-183542380D01*
X17319523Y-183542380D01*
X17224285Y-183494761D01*
X17176666Y-183447142D01*
X17129047Y-183351904D01*
X17081428Y-183161428D01*
X17081428Y-182923333D01*
X17129047Y-182732857D01*
X17176666Y-182637619D01*
X17224285Y-182590000D01*
X17319523Y-182542380D01*
G04 #@! TO.C,J9*
X90682380Y-178133333D02*
X91396666Y-178133333D01*
X91539523Y-178180952D01*
X91634761Y-178276190D01*
X91682380Y-178419047D01*
X91682380Y-178514285D01*
X91682380Y-177609523D02*
X91682380Y-177419047D01*
X91634761Y-177323809D01*
X91587142Y-177276190D01*
X91444285Y-177180952D01*
X91253809Y-177133333D01*
X90872857Y-177133333D01*
X90777619Y-177180952D01*
X90730000Y-177228571D01*
X90682380Y-177323809D01*
X90682380Y-177514285D01*
X90730000Y-177609523D01*
X90777619Y-177657142D01*
X90872857Y-177704761D01*
X91110952Y-177704761D01*
X91206190Y-177657142D01*
X91253809Y-177609523D01*
X91301428Y-177514285D01*
X91301428Y-177323809D01*
X91253809Y-177228571D01*
X91206190Y-177180952D01*
X91110952Y-177133333D01*
G04 #@! TO.C,J8*
X6016666Y-74592380D02*
X6016666Y-75306666D01*
X5969047Y-75449523D01*
X5873809Y-75544761D01*
X5730952Y-75592380D01*
X5635714Y-75592380D01*
X6635714Y-75020952D02*
X6540476Y-74973333D01*
X6492857Y-74925714D01*
X6445238Y-74830476D01*
X6445238Y-74782857D01*
X6492857Y-74687619D01*
X6540476Y-74640000D01*
X6635714Y-74592380D01*
X6826190Y-74592380D01*
X6921428Y-74640000D01*
X6969047Y-74687619D01*
X7016666Y-74782857D01*
X7016666Y-74830476D01*
X6969047Y-74925714D01*
X6921428Y-74973333D01*
X6826190Y-75020952D01*
X6635714Y-75020952D01*
X6540476Y-75068571D01*
X6492857Y-75116190D01*
X6445238Y-75211428D01*
X6445238Y-75401904D01*
X6492857Y-75497142D01*
X6540476Y-75544761D01*
X6635714Y-75592380D01*
X6826190Y-75592380D01*
X6921428Y-75544761D01*
X6969047Y-75497142D01*
X7016666Y-75401904D01*
X7016666Y-75211428D01*
X6969047Y-75116190D01*
X6921428Y-75068571D01*
X6826190Y-75020952D01*
G04 #@! TO.C,J7*
X163072380Y-161623333D02*
X163786666Y-161623333D01*
X163929523Y-161670952D01*
X164024761Y-161766190D01*
X164072380Y-161909047D01*
X164072380Y-162004285D01*
X163072380Y-161242380D02*
X163072380Y-160575714D01*
X164072380Y-161004285D01*
G04 #@! TO.C,J6*
X163072380Y-179403333D02*
X163786666Y-179403333D01*
X163929523Y-179450952D01*
X164024761Y-179546190D01*
X164072380Y-179689047D01*
X164072380Y-179784285D01*
X163072380Y-178498571D02*
X163072380Y-178689047D01*
X163120000Y-178784285D01*
X163167619Y-178831904D01*
X163310476Y-178927142D01*
X163500952Y-178974761D01*
X163881904Y-178974761D01*
X163977142Y-178927142D01*
X164024761Y-178879523D01*
X164072380Y-178784285D01*
X164072380Y-178593809D01*
X164024761Y-178498571D01*
X163977142Y-178450952D01*
X163881904Y-178403333D01*
X163643809Y-178403333D01*
X163548571Y-178450952D01*
X163500952Y-178498571D01*
X163453333Y-178593809D01*
X163453333Y-178784285D01*
X163500952Y-178879523D01*
X163548571Y-178927142D01*
X163643809Y-178974761D01*
G04 #@! TO.C,J5*
X130052380Y-179403333D02*
X130766666Y-179403333D01*
X130909523Y-179450952D01*
X131004761Y-179546190D01*
X131052380Y-179689047D01*
X131052380Y-179784285D01*
X130052380Y-178450952D02*
X130052380Y-178927142D01*
X130528571Y-178974761D01*
X130480952Y-178927142D01*
X130433333Y-178831904D01*
X130433333Y-178593809D01*
X130480952Y-178498571D01*
X130528571Y-178450952D01*
X130623809Y-178403333D01*
X130861904Y-178403333D01*
X130957142Y-178450952D01*
X131004761Y-178498571D01*
X131052380Y-178593809D01*
X131052380Y-178831904D01*
X131004761Y-178927142D01*
X130957142Y-178974761D01*
G04 #@! TO.C,J4*
X130052380Y-161623333D02*
X130766666Y-161623333D01*
X130909523Y-161670952D01*
X131004761Y-161766190D01*
X131052380Y-161909047D01*
X131052380Y-162004285D01*
X130385714Y-160718571D02*
X131052380Y-160718571D01*
X130004761Y-160956666D02*
X130719047Y-161194761D01*
X130719047Y-160575714D01*
G04 #@! TO.C,J3*
X53852380Y-166703333D02*
X54566666Y-166703333D01*
X54709523Y-166750952D01*
X54804761Y-166846190D01*
X54852380Y-166989047D01*
X54852380Y-167084285D01*
X53852380Y-166322380D02*
X53852380Y-165703333D01*
X54233333Y-166036666D01*
X54233333Y-165893809D01*
X54280952Y-165798571D01*
X54328571Y-165750952D01*
X54423809Y-165703333D01*
X54661904Y-165703333D01*
X54757142Y-165750952D01*
X54804761Y-165798571D01*
X54852380Y-165893809D01*
X54852380Y-166179523D01*
X54804761Y-166274761D01*
X54757142Y-166322380D01*
G04 #@! TO.C,J2*
X53852380Y-179403333D02*
X54566666Y-179403333D01*
X54709523Y-179450952D01*
X54804761Y-179546190D01*
X54852380Y-179689047D01*
X54852380Y-179784285D01*
X53947619Y-178974761D02*
X53900000Y-178927142D01*
X53852380Y-178831904D01*
X53852380Y-178593809D01*
X53900000Y-178498571D01*
X53947619Y-178450952D01*
X54042857Y-178403333D01*
X54138095Y-178403333D01*
X54280952Y-178450952D01*
X54852380Y-179022380D01*
X54852380Y-178403333D01*
G04 #@! TO.C,J1*
X173656666Y-4742380D02*
X173656666Y-5456666D01*
X173609047Y-5599523D01*
X173513809Y-5694761D01*
X173370952Y-5742380D01*
X173275714Y-5742380D01*
X174656666Y-5742380D02*
X174085238Y-5742380D01*
X174370952Y-5742380D02*
X174370952Y-4742380D01*
X174275714Y-4885238D01*
X174180476Y-4980476D01*
X174085238Y-5028095D01*
G04 #@! TO.C,D51*
X12032380Y-171394285D02*
X11032380Y-171394285D01*
X11032380Y-171156190D01*
X11080000Y-171013333D01*
X11175238Y-170918095D01*
X11270476Y-170870476D01*
X11460952Y-170822857D01*
X11603809Y-170822857D01*
X11794285Y-170870476D01*
X11889523Y-170918095D01*
X11984761Y-171013333D01*
X12032380Y-171156190D01*
X12032380Y-171394285D01*
X11032380Y-169918095D02*
X11032380Y-170394285D01*
X11508571Y-170441904D01*
X11460952Y-170394285D01*
X11413333Y-170299047D01*
X11413333Y-170060952D01*
X11460952Y-169965714D01*
X11508571Y-169918095D01*
X11603809Y-169870476D01*
X11841904Y-169870476D01*
X11937142Y-169918095D01*
X11984761Y-169965714D01*
X12032380Y-170060952D01*
X12032380Y-170299047D01*
X11984761Y-170394285D01*
X11937142Y-170441904D01*
X12032380Y-168918095D02*
X12032380Y-169489523D01*
X12032380Y-169203809D02*
X11032380Y-169203809D01*
X11175238Y-169299047D01*
X11270476Y-169394285D01*
X11318095Y-169489523D01*
G04 #@! TO.C,D50*
X142842380Y-17724285D02*
X141842380Y-17724285D01*
X141842380Y-17486190D01*
X141890000Y-17343333D01*
X141985238Y-17248095D01*
X142080476Y-17200476D01*
X142270952Y-17152857D01*
X142413809Y-17152857D01*
X142604285Y-17200476D01*
X142699523Y-17248095D01*
X142794761Y-17343333D01*
X142842380Y-17486190D01*
X142842380Y-17724285D01*
X141842380Y-16248095D02*
X141842380Y-16724285D01*
X142318571Y-16771904D01*
X142270952Y-16724285D01*
X142223333Y-16629047D01*
X142223333Y-16390952D01*
X142270952Y-16295714D01*
X142318571Y-16248095D01*
X142413809Y-16200476D01*
X142651904Y-16200476D01*
X142747142Y-16248095D01*
X142794761Y-16295714D01*
X142842380Y-16390952D01*
X142842380Y-16629047D01*
X142794761Y-16724285D01*
X142747142Y-16771904D01*
X141842380Y-15581428D02*
X141842380Y-15486190D01*
X141890000Y-15390952D01*
X141937619Y-15343333D01*
X142032857Y-15295714D01*
X142223333Y-15248095D01*
X142461428Y-15248095D01*
X142651904Y-15295714D01*
X142747142Y-15343333D01*
X142794761Y-15390952D01*
X142842380Y-15486190D01*
X142842380Y-15581428D01*
X142794761Y-15676666D01*
X142747142Y-15724285D01*
X142651904Y-15771904D01*
X142461428Y-15819523D01*
X142223333Y-15819523D01*
X142032857Y-15771904D01*
X141937619Y-15724285D01*
X141890000Y-15676666D01*
X141842380Y-15581428D01*
G04 #@! TO.C,D49*
X12032380Y-20264285D02*
X11032380Y-20264285D01*
X11032380Y-20026190D01*
X11080000Y-19883333D01*
X11175238Y-19788095D01*
X11270476Y-19740476D01*
X11460952Y-19692857D01*
X11603809Y-19692857D01*
X11794285Y-19740476D01*
X11889523Y-19788095D01*
X11984761Y-19883333D01*
X12032380Y-20026190D01*
X12032380Y-20264285D01*
X11365714Y-18835714D02*
X12032380Y-18835714D01*
X10984761Y-19073809D02*
X11699047Y-19311904D01*
X11699047Y-18692857D01*
X12032380Y-18264285D02*
X12032380Y-18073809D01*
X11984761Y-17978571D01*
X11937142Y-17930952D01*
X11794285Y-17835714D01*
X11603809Y-17788095D01*
X11222857Y-17788095D01*
X11127619Y-17835714D01*
X11080000Y-17883333D01*
X11032380Y-17978571D01*
X11032380Y-18169047D01*
X11080000Y-18264285D01*
X11127619Y-18311904D01*
X11222857Y-18359523D01*
X11460952Y-18359523D01*
X11556190Y-18311904D01*
X11603809Y-18264285D01*
X11651428Y-18169047D01*
X11651428Y-17978571D01*
X11603809Y-17883333D01*
X11556190Y-17835714D01*
X11460952Y-17788095D01*
G04 #@! TO.C,D48*
X122222380Y-104084285D02*
X121222380Y-104084285D01*
X121222380Y-103846190D01*
X121270000Y-103703333D01*
X121365238Y-103608095D01*
X121460476Y-103560476D01*
X121650952Y-103512857D01*
X121793809Y-103512857D01*
X121984285Y-103560476D01*
X122079523Y-103608095D01*
X122174761Y-103703333D01*
X122222380Y-103846190D01*
X122222380Y-104084285D01*
X121555714Y-102655714D02*
X122222380Y-102655714D01*
X121174761Y-102893809D02*
X121889047Y-103131904D01*
X121889047Y-102512857D01*
X121650952Y-101989047D02*
X121603333Y-102084285D01*
X121555714Y-102131904D01*
X121460476Y-102179523D01*
X121412857Y-102179523D01*
X121317619Y-102131904D01*
X121270000Y-102084285D01*
X121222380Y-101989047D01*
X121222380Y-101798571D01*
X121270000Y-101703333D01*
X121317619Y-101655714D01*
X121412857Y-101608095D01*
X121460476Y-101608095D01*
X121555714Y-101655714D01*
X121603333Y-101703333D01*
X121650952Y-101798571D01*
X121650952Y-101989047D01*
X121698571Y-102084285D01*
X121746190Y-102131904D01*
X121841428Y-102179523D01*
X122031904Y-102179523D01*
X122127142Y-102131904D01*
X122174761Y-102084285D01*
X122222380Y-101989047D01*
X122222380Y-101798571D01*
X122174761Y-101703333D01*
X122127142Y-101655714D01*
X122031904Y-101608095D01*
X121841428Y-101608095D01*
X121746190Y-101655714D01*
X121698571Y-101703333D01*
X121650952Y-101798571D01*
G04 #@! TO.C,D47*
X129842380Y-104084285D02*
X128842380Y-104084285D01*
X128842380Y-103846190D01*
X128890000Y-103703333D01*
X128985238Y-103608095D01*
X129080476Y-103560476D01*
X129270952Y-103512857D01*
X129413809Y-103512857D01*
X129604285Y-103560476D01*
X129699523Y-103608095D01*
X129794761Y-103703333D01*
X129842380Y-103846190D01*
X129842380Y-104084285D01*
X129175714Y-102655714D02*
X129842380Y-102655714D01*
X128794761Y-102893809D02*
X129509047Y-103131904D01*
X129509047Y-102512857D01*
X128842380Y-102227142D02*
X128842380Y-101560476D01*
X129842380Y-101989047D01*
G04 #@! TO.C,D46*
X137462380Y-104084285D02*
X136462380Y-104084285D01*
X136462380Y-103846190D01*
X136510000Y-103703333D01*
X136605238Y-103608095D01*
X136700476Y-103560476D01*
X136890952Y-103512857D01*
X137033809Y-103512857D01*
X137224285Y-103560476D01*
X137319523Y-103608095D01*
X137414761Y-103703333D01*
X137462380Y-103846190D01*
X137462380Y-104084285D01*
X136795714Y-102655714D02*
X137462380Y-102655714D01*
X136414761Y-102893809D02*
X137129047Y-103131904D01*
X137129047Y-102512857D01*
X136462380Y-101703333D02*
X136462380Y-101893809D01*
X136510000Y-101989047D01*
X136557619Y-102036666D01*
X136700476Y-102131904D01*
X136890952Y-102179523D01*
X137271904Y-102179523D01*
X137367142Y-102131904D01*
X137414761Y-102084285D01*
X137462380Y-101989047D01*
X137462380Y-101798571D01*
X137414761Y-101703333D01*
X137367142Y-101655714D01*
X137271904Y-101608095D01*
X137033809Y-101608095D01*
X136938571Y-101655714D01*
X136890952Y-101703333D01*
X136843333Y-101798571D01*
X136843333Y-101989047D01*
X136890952Y-102084285D01*
X136938571Y-102131904D01*
X137033809Y-102179523D01*
G04 #@! TO.C,D45*
X145082380Y-104084285D02*
X144082380Y-104084285D01*
X144082380Y-103846190D01*
X144130000Y-103703333D01*
X144225238Y-103608095D01*
X144320476Y-103560476D01*
X144510952Y-103512857D01*
X144653809Y-103512857D01*
X144844285Y-103560476D01*
X144939523Y-103608095D01*
X145034761Y-103703333D01*
X145082380Y-103846190D01*
X145082380Y-104084285D01*
X144415714Y-102655714D02*
X145082380Y-102655714D01*
X144034761Y-102893809D02*
X144749047Y-103131904D01*
X144749047Y-102512857D01*
X144082380Y-101655714D02*
X144082380Y-102131904D01*
X144558571Y-102179523D01*
X144510952Y-102131904D01*
X144463333Y-102036666D01*
X144463333Y-101798571D01*
X144510952Y-101703333D01*
X144558571Y-101655714D01*
X144653809Y-101608095D01*
X144891904Y-101608095D01*
X144987142Y-101655714D01*
X145034761Y-101703333D01*
X145082380Y-101798571D01*
X145082380Y-102036666D01*
X145034761Y-102131904D01*
X144987142Y-102179523D01*
G04 #@! TO.C,D44*
X152702380Y-104084285D02*
X151702380Y-104084285D01*
X151702380Y-103846190D01*
X151750000Y-103703333D01*
X151845238Y-103608095D01*
X151940476Y-103560476D01*
X152130952Y-103512857D01*
X152273809Y-103512857D01*
X152464285Y-103560476D01*
X152559523Y-103608095D01*
X152654761Y-103703333D01*
X152702380Y-103846190D01*
X152702380Y-104084285D01*
X152035714Y-102655714D02*
X152702380Y-102655714D01*
X151654761Y-102893809D02*
X152369047Y-103131904D01*
X152369047Y-102512857D01*
X152035714Y-101703333D02*
X152702380Y-101703333D01*
X151654761Y-101941428D02*
X152369047Y-102179523D01*
X152369047Y-101560476D01*
G04 #@! TO.C,D43*
X160322380Y-104084285D02*
X159322380Y-104084285D01*
X159322380Y-103846190D01*
X159370000Y-103703333D01*
X159465238Y-103608095D01*
X159560476Y-103560476D01*
X159750952Y-103512857D01*
X159893809Y-103512857D01*
X160084285Y-103560476D01*
X160179523Y-103608095D01*
X160274761Y-103703333D01*
X160322380Y-103846190D01*
X160322380Y-104084285D01*
X159655714Y-102655714D02*
X160322380Y-102655714D01*
X159274761Y-102893809D02*
X159989047Y-103131904D01*
X159989047Y-102512857D01*
X159322380Y-102227142D02*
X159322380Y-101608095D01*
X159703333Y-101941428D01*
X159703333Y-101798571D01*
X159750952Y-101703333D01*
X159798571Y-101655714D01*
X159893809Y-101608095D01*
X160131904Y-101608095D01*
X160227142Y-101655714D01*
X160274761Y-101703333D01*
X160322380Y-101798571D01*
X160322380Y-102084285D01*
X160274761Y-102179523D01*
X160227142Y-102227142D01*
G04 #@! TO.C,D42*
X167942380Y-104084285D02*
X166942380Y-104084285D01*
X166942380Y-103846190D01*
X166990000Y-103703333D01*
X167085238Y-103608095D01*
X167180476Y-103560476D01*
X167370952Y-103512857D01*
X167513809Y-103512857D01*
X167704285Y-103560476D01*
X167799523Y-103608095D01*
X167894761Y-103703333D01*
X167942380Y-103846190D01*
X167942380Y-104084285D01*
X167275714Y-102655714D02*
X167942380Y-102655714D01*
X166894761Y-102893809D02*
X167609047Y-103131904D01*
X167609047Y-102512857D01*
X167037619Y-102179523D02*
X166990000Y-102131904D01*
X166942380Y-102036666D01*
X166942380Y-101798571D01*
X166990000Y-101703333D01*
X167037619Y-101655714D01*
X167132857Y-101608095D01*
X167228095Y-101608095D01*
X167370952Y-101655714D01*
X167942380Y-102227142D01*
X167942380Y-101608095D01*
G04 #@! TO.C,D41*
X175562380Y-104084285D02*
X174562380Y-104084285D01*
X174562380Y-103846190D01*
X174610000Y-103703333D01*
X174705238Y-103608095D01*
X174800476Y-103560476D01*
X174990952Y-103512857D01*
X175133809Y-103512857D01*
X175324285Y-103560476D01*
X175419523Y-103608095D01*
X175514761Y-103703333D01*
X175562380Y-103846190D01*
X175562380Y-104084285D01*
X174895714Y-102655714D02*
X175562380Y-102655714D01*
X174514761Y-102893809D02*
X175229047Y-103131904D01*
X175229047Y-102512857D01*
X175562380Y-101608095D02*
X175562380Y-102179523D01*
X175562380Y-101893809D02*
X174562380Y-101893809D01*
X174705238Y-101989047D01*
X174800476Y-102084285D01*
X174848095Y-102179523D01*
G04 #@! TO.C,D40*
X122222380Y-55824285D02*
X121222380Y-55824285D01*
X121222380Y-55586190D01*
X121270000Y-55443333D01*
X121365238Y-55348095D01*
X121460476Y-55300476D01*
X121650952Y-55252857D01*
X121793809Y-55252857D01*
X121984285Y-55300476D01*
X122079523Y-55348095D01*
X122174761Y-55443333D01*
X122222380Y-55586190D01*
X122222380Y-55824285D01*
X121555714Y-54395714D02*
X122222380Y-54395714D01*
X121174761Y-54633809D02*
X121889047Y-54871904D01*
X121889047Y-54252857D01*
X121222380Y-53681428D02*
X121222380Y-53586190D01*
X121270000Y-53490952D01*
X121317619Y-53443333D01*
X121412857Y-53395714D01*
X121603333Y-53348095D01*
X121841428Y-53348095D01*
X122031904Y-53395714D01*
X122127142Y-53443333D01*
X122174761Y-53490952D01*
X122222380Y-53586190D01*
X122222380Y-53681428D01*
X122174761Y-53776666D01*
X122127142Y-53824285D01*
X122031904Y-53871904D01*
X121841428Y-53919523D01*
X121603333Y-53919523D01*
X121412857Y-53871904D01*
X121317619Y-53824285D01*
X121270000Y-53776666D01*
X121222380Y-53681428D01*
G04 #@! TO.C,D39*
X129842380Y-55824285D02*
X128842380Y-55824285D01*
X128842380Y-55586190D01*
X128890000Y-55443333D01*
X128985238Y-55348095D01*
X129080476Y-55300476D01*
X129270952Y-55252857D01*
X129413809Y-55252857D01*
X129604285Y-55300476D01*
X129699523Y-55348095D01*
X129794761Y-55443333D01*
X129842380Y-55586190D01*
X129842380Y-55824285D01*
X128842380Y-54919523D02*
X128842380Y-54300476D01*
X129223333Y-54633809D01*
X129223333Y-54490952D01*
X129270952Y-54395714D01*
X129318571Y-54348095D01*
X129413809Y-54300476D01*
X129651904Y-54300476D01*
X129747142Y-54348095D01*
X129794761Y-54395714D01*
X129842380Y-54490952D01*
X129842380Y-54776666D01*
X129794761Y-54871904D01*
X129747142Y-54919523D01*
X129842380Y-53824285D02*
X129842380Y-53633809D01*
X129794761Y-53538571D01*
X129747142Y-53490952D01*
X129604285Y-53395714D01*
X129413809Y-53348095D01*
X129032857Y-53348095D01*
X128937619Y-53395714D01*
X128890000Y-53443333D01*
X128842380Y-53538571D01*
X128842380Y-53729047D01*
X128890000Y-53824285D01*
X128937619Y-53871904D01*
X129032857Y-53919523D01*
X129270952Y-53919523D01*
X129366190Y-53871904D01*
X129413809Y-53824285D01*
X129461428Y-53729047D01*
X129461428Y-53538571D01*
X129413809Y-53443333D01*
X129366190Y-53395714D01*
X129270952Y-53348095D01*
G04 #@! TO.C,D38*
X137462380Y-55824285D02*
X136462380Y-55824285D01*
X136462380Y-55586190D01*
X136510000Y-55443333D01*
X136605238Y-55348095D01*
X136700476Y-55300476D01*
X136890952Y-55252857D01*
X137033809Y-55252857D01*
X137224285Y-55300476D01*
X137319523Y-55348095D01*
X137414761Y-55443333D01*
X137462380Y-55586190D01*
X137462380Y-55824285D01*
X136462380Y-54919523D02*
X136462380Y-54300476D01*
X136843333Y-54633809D01*
X136843333Y-54490952D01*
X136890952Y-54395714D01*
X136938571Y-54348095D01*
X137033809Y-54300476D01*
X137271904Y-54300476D01*
X137367142Y-54348095D01*
X137414761Y-54395714D01*
X137462380Y-54490952D01*
X137462380Y-54776666D01*
X137414761Y-54871904D01*
X137367142Y-54919523D01*
X136890952Y-53729047D02*
X136843333Y-53824285D01*
X136795714Y-53871904D01*
X136700476Y-53919523D01*
X136652857Y-53919523D01*
X136557619Y-53871904D01*
X136510000Y-53824285D01*
X136462380Y-53729047D01*
X136462380Y-53538571D01*
X136510000Y-53443333D01*
X136557619Y-53395714D01*
X136652857Y-53348095D01*
X136700476Y-53348095D01*
X136795714Y-53395714D01*
X136843333Y-53443333D01*
X136890952Y-53538571D01*
X136890952Y-53729047D01*
X136938571Y-53824285D01*
X136986190Y-53871904D01*
X137081428Y-53919523D01*
X137271904Y-53919523D01*
X137367142Y-53871904D01*
X137414761Y-53824285D01*
X137462380Y-53729047D01*
X137462380Y-53538571D01*
X137414761Y-53443333D01*
X137367142Y-53395714D01*
X137271904Y-53348095D01*
X137081428Y-53348095D01*
X136986190Y-53395714D01*
X136938571Y-53443333D01*
X136890952Y-53538571D01*
G04 #@! TO.C,D37*
X145082380Y-55824285D02*
X144082380Y-55824285D01*
X144082380Y-55586190D01*
X144130000Y-55443333D01*
X144225238Y-55348095D01*
X144320476Y-55300476D01*
X144510952Y-55252857D01*
X144653809Y-55252857D01*
X144844285Y-55300476D01*
X144939523Y-55348095D01*
X145034761Y-55443333D01*
X145082380Y-55586190D01*
X145082380Y-55824285D01*
X144082380Y-54919523D02*
X144082380Y-54300476D01*
X144463333Y-54633809D01*
X144463333Y-54490952D01*
X144510952Y-54395714D01*
X144558571Y-54348095D01*
X144653809Y-54300476D01*
X144891904Y-54300476D01*
X144987142Y-54348095D01*
X145034761Y-54395714D01*
X145082380Y-54490952D01*
X145082380Y-54776666D01*
X145034761Y-54871904D01*
X144987142Y-54919523D01*
X144082380Y-53967142D02*
X144082380Y-53300476D01*
X145082380Y-53729047D01*
G04 #@! TO.C,D36*
X152702380Y-55824285D02*
X151702380Y-55824285D01*
X151702380Y-55586190D01*
X151750000Y-55443333D01*
X151845238Y-55348095D01*
X151940476Y-55300476D01*
X152130952Y-55252857D01*
X152273809Y-55252857D01*
X152464285Y-55300476D01*
X152559523Y-55348095D01*
X152654761Y-55443333D01*
X152702380Y-55586190D01*
X152702380Y-55824285D01*
X151702380Y-54919523D02*
X151702380Y-54300476D01*
X152083333Y-54633809D01*
X152083333Y-54490952D01*
X152130952Y-54395714D01*
X152178571Y-54348095D01*
X152273809Y-54300476D01*
X152511904Y-54300476D01*
X152607142Y-54348095D01*
X152654761Y-54395714D01*
X152702380Y-54490952D01*
X152702380Y-54776666D01*
X152654761Y-54871904D01*
X152607142Y-54919523D01*
X151702380Y-53443333D02*
X151702380Y-53633809D01*
X151750000Y-53729047D01*
X151797619Y-53776666D01*
X151940476Y-53871904D01*
X152130952Y-53919523D01*
X152511904Y-53919523D01*
X152607142Y-53871904D01*
X152654761Y-53824285D01*
X152702380Y-53729047D01*
X152702380Y-53538571D01*
X152654761Y-53443333D01*
X152607142Y-53395714D01*
X152511904Y-53348095D01*
X152273809Y-53348095D01*
X152178571Y-53395714D01*
X152130952Y-53443333D01*
X152083333Y-53538571D01*
X152083333Y-53729047D01*
X152130952Y-53824285D01*
X152178571Y-53871904D01*
X152273809Y-53919523D01*
G04 #@! TO.C,D35*
X160322380Y-55824285D02*
X159322380Y-55824285D01*
X159322380Y-55586190D01*
X159370000Y-55443333D01*
X159465238Y-55348095D01*
X159560476Y-55300476D01*
X159750952Y-55252857D01*
X159893809Y-55252857D01*
X160084285Y-55300476D01*
X160179523Y-55348095D01*
X160274761Y-55443333D01*
X160322380Y-55586190D01*
X160322380Y-55824285D01*
X159322380Y-54919523D02*
X159322380Y-54300476D01*
X159703333Y-54633809D01*
X159703333Y-54490952D01*
X159750952Y-54395714D01*
X159798571Y-54348095D01*
X159893809Y-54300476D01*
X160131904Y-54300476D01*
X160227142Y-54348095D01*
X160274761Y-54395714D01*
X160322380Y-54490952D01*
X160322380Y-54776666D01*
X160274761Y-54871904D01*
X160227142Y-54919523D01*
X159322380Y-53395714D02*
X159322380Y-53871904D01*
X159798571Y-53919523D01*
X159750952Y-53871904D01*
X159703333Y-53776666D01*
X159703333Y-53538571D01*
X159750952Y-53443333D01*
X159798571Y-53395714D01*
X159893809Y-53348095D01*
X160131904Y-53348095D01*
X160227142Y-53395714D01*
X160274761Y-53443333D01*
X160322380Y-53538571D01*
X160322380Y-53776666D01*
X160274761Y-53871904D01*
X160227142Y-53919523D01*
G04 #@! TO.C,D34*
X167942380Y-55824285D02*
X166942380Y-55824285D01*
X166942380Y-55586190D01*
X166990000Y-55443333D01*
X167085238Y-55348095D01*
X167180476Y-55300476D01*
X167370952Y-55252857D01*
X167513809Y-55252857D01*
X167704285Y-55300476D01*
X167799523Y-55348095D01*
X167894761Y-55443333D01*
X167942380Y-55586190D01*
X167942380Y-55824285D01*
X166942380Y-54919523D02*
X166942380Y-54300476D01*
X167323333Y-54633809D01*
X167323333Y-54490952D01*
X167370952Y-54395714D01*
X167418571Y-54348095D01*
X167513809Y-54300476D01*
X167751904Y-54300476D01*
X167847142Y-54348095D01*
X167894761Y-54395714D01*
X167942380Y-54490952D01*
X167942380Y-54776666D01*
X167894761Y-54871904D01*
X167847142Y-54919523D01*
X167275714Y-53443333D02*
X167942380Y-53443333D01*
X166894761Y-53681428D02*
X167609047Y-53919523D01*
X167609047Y-53300476D01*
G04 #@! TO.C,D33*
X175562380Y-55824285D02*
X174562380Y-55824285D01*
X174562380Y-55586190D01*
X174610000Y-55443333D01*
X174705238Y-55348095D01*
X174800476Y-55300476D01*
X174990952Y-55252857D01*
X175133809Y-55252857D01*
X175324285Y-55300476D01*
X175419523Y-55348095D01*
X175514761Y-55443333D01*
X175562380Y-55586190D01*
X175562380Y-55824285D01*
X174562380Y-54919523D02*
X174562380Y-54300476D01*
X174943333Y-54633809D01*
X174943333Y-54490952D01*
X174990952Y-54395714D01*
X175038571Y-54348095D01*
X175133809Y-54300476D01*
X175371904Y-54300476D01*
X175467142Y-54348095D01*
X175514761Y-54395714D01*
X175562380Y-54490952D01*
X175562380Y-54776666D01*
X175514761Y-54871904D01*
X175467142Y-54919523D01*
X174562380Y-53967142D02*
X174562380Y-53348095D01*
X174943333Y-53681428D01*
X174943333Y-53538571D01*
X174990952Y-53443333D01*
X175038571Y-53395714D01*
X175133809Y-53348095D01*
X175371904Y-53348095D01*
X175467142Y-53395714D01*
X175514761Y-53443333D01*
X175562380Y-53538571D01*
X175562380Y-53824285D01*
X175514761Y-53919523D01*
X175467142Y-53967142D01*
G04 #@! TO.C,D32*
X15542380Y-142184285D02*
X14542380Y-142184285D01*
X14542380Y-141946190D01*
X14590000Y-141803333D01*
X14685238Y-141708095D01*
X14780476Y-141660476D01*
X14970952Y-141612857D01*
X15113809Y-141612857D01*
X15304285Y-141660476D01*
X15399523Y-141708095D01*
X15494761Y-141803333D01*
X15542380Y-141946190D01*
X15542380Y-142184285D01*
X14542380Y-141279523D02*
X14542380Y-140660476D01*
X14923333Y-140993809D01*
X14923333Y-140850952D01*
X14970952Y-140755714D01*
X15018571Y-140708095D01*
X15113809Y-140660476D01*
X15351904Y-140660476D01*
X15447142Y-140708095D01*
X15494761Y-140755714D01*
X15542380Y-140850952D01*
X15542380Y-141136666D01*
X15494761Y-141231904D01*
X15447142Y-141279523D01*
X14637619Y-140279523D02*
X14590000Y-140231904D01*
X14542380Y-140136666D01*
X14542380Y-139898571D01*
X14590000Y-139803333D01*
X14637619Y-139755714D01*
X14732857Y-139708095D01*
X14828095Y-139708095D01*
X14970952Y-139755714D01*
X15542380Y-140327142D01*
X15542380Y-139708095D01*
G04 #@! TO.C,D31*
X23162380Y-142184285D02*
X22162380Y-142184285D01*
X22162380Y-141946190D01*
X22210000Y-141803333D01*
X22305238Y-141708095D01*
X22400476Y-141660476D01*
X22590952Y-141612857D01*
X22733809Y-141612857D01*
X22924285Y-141660476D01*
X23019523Y-141708095D01*
X23114761Y-141803333D01*
X23162380Y-141946190D01*
X23162380Y-142184285D01*
X22162380Y-141279523D02*
X22162380Y-140660476D01*
X22543333Y-140993809D01*
X22543333Y-140850952D01*
X22590952Y-140755714D01*
X22638571Y-140708095D01*
X22733809Y-140660476D01*
X22971904Y-140660476D01*
X23067142Y-140708095D01*
X23114761Y-140755714D01*
X23162380Y-140850952D01*
X23162380Y-141136666D01*
X23114761Y-141231904D01*
X23067142Y-141279523D01*
X23162380Y-139708095D02*
X23162380Y-140279523D01*
X23162380Y-139993809D02*
X22162380Y-139993809D01*
X22305238Y-140089047D01*
X22400476Y-140184285D01*
X22448095Y-140279523D01*
G04 #@! TO.C,D30*
X30782380Y-142184285D02*
X29782380Y-142184285D01*
X29782380Y-141946190D01*
X29830000Y-141803333D01*
X29925238Y-141708095D01*
X30020476Y-141660476D01*
X30210952Y-141612857D01*
X30353809Y-141612857D01*
X30544285Y-141660476D01*
X30639523Y-141708095D01*
X30734761Y-141803333D01*
X30782380Y-141946190D01*
X30782380Y-142184285D01*
X29782380Y-141279523D02*
X29782380Y-140660476D01*
X30163333Y-140993809D01*
X30163333Y-140850952D01*
X30210952Y-140755714D01*
X30258571Y-140708095D01*
X30353809Y-140660476D01*
X30591904Y-140660476D01*
X30687142Y-140708095D01*
X30734761Y-140755714D01*
X30782380Y-140850952D01*
X30782380Y-141136666D01*
X30734761Y-141231904D01*
X30687142Y-141279523D01*
X29782380Y-140041428D02*
X29782380Y-139946190D01*
X29830000Y-139850952D01*
X29877619Y-139803333D01*
X29972857Y-139755714D01*
X30163333Y-139708095D01*
X30401428Y-139708095D01*
X30591904Y-139755714D01*
X30687142Y-139803333D01*
X30734761Y-139850952D01*
X30782380Y-139946190D01*
X30782380Y-140041428D01*
X30734761Y-140136666D01*
X30687142Y-140184285D01*
X30591904Y-140231904D01*
X30401428Y-140279523D01*
X30163333Y-140279523D01*
X29972857Y-140231904D01*
X29877619Y-140184285D01*
X29830000Y-140136666D01*
X29782380Y-140041428D01*
G04 #@! TO.C,D29*
X38402380Y-142184285D02*
X37402380Y-142184285D01*
X37402380Y-141946190D01*
X37450000Y-141803333D01*
X37545238Y-141708095D01*
X37640476Y-141660476D01*
X37830952Y-141612857D01*
X37973809Y-141612857D01*
X38164285Y-141660476D01*
X38259523Y-141708095D01*
X38354761Y-141803333D01*
X38402380Y-141946190D01*
X38402380Y-142184285D01*
X37497619Y-141231904D02*
X37450000Y-141184285D01*
X37402380Y-141089047D01*
X37402380Y-140850952D01*
X37450000Y-140755714D01*
X37497619Y-140708095D01*
X37592857Y-140660476D01*
X37688095Y-140660476D01*
X37830952Y-140708095D01*
X38402380Y-141279523D01*
X38402380Y-140660476D01*
X38402380Y-140184285D02*
X38402380Y-139993809D01*
X38354761Y-139898571D01*
X38307142Y-139850952D01*
X38164285Y-139755714D01*
X37973809Y-139708095D01*
X37592857Y-139708095D01*
X37497619Y-139755714D01*
X37450000Y-139803333D01*
X37402380Y-139898571D01*
X37402380Y-140089047D01*
X37450000Y-140184285D01*
X37497619Y-140231904D01*
X37592857Y-140279523D01*
X37830952Y-140279523D01*
X37926190Y-140231904D01*
X37973809Y-140184285D01*
X38021428Y-140089047D01*
X38021428Y-139898571D01*
X37973809Y-139803333D01*
X37926190Y-139755714D01*
X37830952Y-139708095D01*
G04 #@! TO.C,D28*
X46022380Y-142184285D02*
X45022380Y-142184285D01*
X45022380Y-141946190D01*
X45070000Y-141803333D01*
X45165238Y-141708095D01*
X45260476Y-141660476D01*
X45450952Y-141612857D01*
X45593809Y-141612857D01*
X45784285Y-141660476D01*
X45879523Y-141708095D01*
X45974761Y-141803333D01*
X46022380Y-141946190D01*
X46022380Y-142184285D01*
X45117619Y-141231904D02*
X45070000Y-141184285D01*
X45022380Y-141089047D01*
X45022380Y-140850952D01*
X45070000Y-140755714D01*
X45117619Y-140708095D01*
X45212857Y-140660476D01*
X45308095Y-140660476D01*
X45450952Y-140708095D01*
X46022380Y-141279523D01*
X46022380Y-140660476D01*
X45450952Y-140089047D02*
X45403333Y-140184285D01*
X45355714Y-140231904D01*
X45260476Y-140279523D01*
X45212857Y-140279523D01*
X45117619Y-140231904D01*
X45070000Y-140184285D01*
X45022380Y-140089047D01*
X45022380Y-139898571D01*
X45070000Y-139803333D01*
X45117619Y-139755714D01*
X45212857Y-139708095D01*
X45260476Y-139708095D01*
X45355714Y-139755714D01*
X45403333Y-139803333D01*
X45450952Y-139898571D01*
X45450952Y-140089047D01*
X45498571Y-140184285D01*
X45546190Y-140231904D01*
X45641428Y-140279523D01*
X45831904Y-140279523D01*
X45927142Y-140231904D01*
X45974761Y-140184285D01*
X46022380Y-140089047D01*
X46022380Y-139898571D01*
X45974761Y-139803333D01*
X45927142Y-139755714D01*
X45831904Y-139708095D01*
X45641428Y-139708095D01*
X45546190Y-139755714D01*
X45498571Y-139803333D01*
X45450952Y-139898571D01*
G04 #@! TO.C,D27*
X53642380Y-142184285D02*
X52642380Y-142184285D01*
X52642380Y-141946190D01*
X52690000Y-141803333D01*
X52785238Y-141708095D01*
X52880476Y-141660476D01*
X53070952Y-141612857D01*
X53213809Y-141612857D01*
X53404285Y-141660476D01*
X53499523Y-141708095D01*
X53594761Y-141803333D01*
X53642380Y-141946190D01*
X53642380Y-142184285D01*
X52737619Y-141231904D02*
X52690000Y-141184285D01*
X52642380Y-141089047D01*
X52642380Y-140850952D01*
X52690000Y-140755714D01*
X52737619Y-140708095D01*
X52832857Y-140660476D01*
X52928095Y-140660476D01*
X53070952Y-140708095D01*
X53642380Y-141279523D01*
X53642380Y-140660476D01*
X52642380Y-140327142D02*
X52642380Y-139660476D01*
X53642380Y-140089047D01*
G04 #@! TO.C,D26*
X61262380Y-142184285D02*
X60262380Y-142184285D01*
X60262380Y-141946190D01*
X60310000Y-141803333D01*
X60405238Y-141708095D01*
X60500476Y-141660476D01*
X60690952Y-141612857D01*
X60833809Y-141612857D01*
X61024285Y-141660476D01*
X61119523Y-141708095D01*
X61214761Y-141803333D01*
X61262380Y-141946190D01*
X61262380Y-142184285D01*
X60357619Y-141231904D02*
X60310000Y-141184285D01*
X60262380Y-141089047D01*
X60262380Y-140850952D01*
X60310000Y-140755714D01*
X60357619Y-140708095D01*
X60452857Y-140660476D01*
X60548095Y-140660476D01*
X60690952Y-140708095D01*
X61262380Y-141279523D01*
X61262380Y-140660476D01*
X60262380Y-139803333D02*
X60262380Y-139993809D01*
X60310000Y-140089047D01*
X60357619Y-140136666D01*
X60500476Y-140231904D01*
X60690952Y-140279523D01*
X61071904Y-140279523D01*
X61167142Y-140231904D01*
X61214761Y-140184285D01*
X61262380Y-140089047D01*
X61262380Y-139898571D01*
X61214761Y-139803333D01*
X61167142Y-139755714D01*
X61071904Y-139708095D01*
X60833809Y-139708095D01*
X60738571Y-139755714D01*
X60690952Y-139803333D01*
X60643333Y-139898571D01*
X60643333Y-140089047D01*
X60690952Y-140184285D01*
X60738571Y-140231904D01*
X60833809Y-140279523D01*
G04 #@! TO.C,D25*
X68882380Y-142184285D02*
X67882380Y-142184285D01*
X67882380Y-141946190D01*
X67930000Y-141803333D01*
X68025238Y-141708095D01*
X68120476Y-141660476D01*
X68310952Y-141612857D01*
X68453809Y-141612857D01*
X68644285Y-141660476D01*
X68739523Y-141708095D01*
X68834761Y-141803333D01*
X68882380Y-141946190D01*
X68882380Y-142184285D01*
X67977619Y-141231904D02*
X67930000Y-141184285D01*
X67882380Y-141089047D01*
X67882380Y-140850952D01*
X67930000Y-140755714D01*
X67977619Y-140708095D01*
X68072857Y-140660476D01*
X68168095Y-140660476D01*
X68310952Y-140708095D01*
X68882380Y-141279523D01*
X68882380Y-140660476D01*
X67882380Y-139755714D02*
X67882380Y-140231904D01*
X68358571Y-140279523D01*
X68310952Y-140231904D01*
X68263333Y-140136666D01*
X68263333Y-139898571D01*
X68310952Y-139803333D01*
X68358571Y-139755714D01*
X68453809Y-139708095D01*
X68691904Y-139708095D01*
X68787142Y-139755714D01*
X68834761Y-139803333D01*
X68882380Y-139898571D01*
X68882380Y-140136666D01*
X68834761Y-140231904D01*
X68787142Y-140279523D01*
G04 #@! TO.C,D24*
X14272380Y-104084285D02*
X13272380Y-104084285D01*
X13272380Y-103846190D01*
X13320000Y-103703333D01*
X13415238Y-103608095D01*
X13510476Y-103560476D01*
X13700952Y-103512857D01*
X13843809Y-103512857D01*
X14034285Y-103560476D01*
X14129523Y-103608095D01*
X14224761Y-103703333D01*
X14272380Y-103846190D01*
X14272380Y-104084285D01*
X13367619Y-103131904D02*
X13320000Y-103084285D01*
X13272380Y-102989047D01*
X13272380Y-102750952D01*
X13320000Y-102655714D01*
X13367619Y-102608095D01*
X13462857Y-102560476D01*
X13558095Y-102560476D01*
X13700952Y-102608095D01*
X14272380Y-103179523D01*
X14272380Y-102560476D01*
X13605714Y-101703333D02*
X14272380Y-101703333D01*
X13224761Y-101941428D02*
X13939047Y-102179523D01*
X13939047Y-101560476D01*
G04 #@! TO.C,D23*
X21892380Y-104084285D02*
X20892380Y-104084285D01*
X20892380Y-103846190D01*
X20940000Y-103703333D01*
X21035238Y-103608095D01*
X21130476Y-103560476D01*
X21320952Y-103512857D01*
X21463809Y-103512857D01*
X21654285Y-103560476D01*
X21749523Y-103608095D01*
X21844761Y-103703333D01*
X21892380Y-103846190D01*
X21892380Y-104084285D01*
X20987619Y-103131904D02*
X20940000Y-103084285D01*
X20892380Y-102989047D01*
X20892380Y-102750952D01*
X20940000Y-102655714D01*
X20987619Y-102608095D01*
X21082857Y-102560476D01*
X21178095Y-102560476D01*
X21320952Y-102608095D01*
X21892380Y-103179523D01*
X21892380Y-102560476D01*
X20892380Y-102227142D02*
X20892380Y-101608095D01*
X21273333Y-101941428D01*
X21273333Y-101798571D01*
X21320952Y-101703333D01*
X21368571Y-101655714D01*
X21463809Y-101608095D01*
X21701904Y-101608095D01*
X21797142Y-101655714D01*
X21844761Y-101703333D01*
X21892380Y-101798571D01*
X21892380Y-102084285D01*
X21844761Y-102179523D01*
X21797142Y-102227142D01*
G04 #@! TO.C,D22*
X29512380Y-104084285D02*
X28512380Y-104084285D01*
X28512380Y-103846190D01*
X28560000Y-103703333D01*
X28655238Y-103608095D01*
X28750476Y-103560476D01*
X28940952Y-103512857D01*
X29083809Y-103512857D01*
X29274285Y-103560476D01*
X29369523Y-103608095D01*
X29464761Y-103703333D01*
X29512380Y-103846190D01*
X29512380Y-104084285D01*
X28607619Y-103131904D02*
X28560000Y-103084285D01*
X28512380Y-102989047D01*
X28512380Y-102750952D01*
X28560000Y-102655714D01*
X28607619Y-102608095D01*
X28702857Y-102560476D01*
X28798095Y-102560476D01*
X28940952Y-102608095D01*
X29512380Y-103179523D01*
X29512380Y-102560476D01*
X28607619Y-102179523D02*
X28560000Y-102131904D01*
X28512380Y-102036666D01*
X28512380Y-101798571D01*
X28560000Y-101703333D01*
X28607619Y-101655714D01*
X28702857Y-101608095D01*
X28798095Y-101608095D01*
X28940952Y-101655714D01*
X29512380Y-102227142D01*
X29512380Y-101608095D01*
G04 #@! TO.C,D21*
X37132380Y-104084285D02*
X36132380Y-104084285D01*
X36132380Y-103846190D01*
X36180000Y-103703333D01*
X36275238Y-103608095D01*
X36370476Y-103560476D01*
X36560952Y-103512857D01*
X36703809Y-103512857D01*
X36894285Y-103560476D01*
X36989523Y-103608095D01*
X37084761Y-103703333D01*
X37132380Y-103846190D01*
X37132380Y-104084285D01*
X36227619Y-103131904D02*
X36180000Y-103084285D01*
X36132380Y-102989047D01*
X36132380Y-102750952D01*
X36180000Y-102655714D01*
X36227619Y-102608095D01*
X36322857Y-102560476D01*
X36418095Y-102560476D01*
X36560952Y-102608095D01*
X37132380Y-103179523D01*
X37132380Y-102560476D01*
X37132380Y-101608095D02*
X37132380Y-102179523D01*
X37132380Y-101893809D02*
X36132380Y-101893809D01*
X36275238Y-101989047D01*
X36370476Y-102084285D01*
X36418095Y-102179523D01*
G04 #@! TO.C,D20*
X44752380Y-104084285D02*
X43752380Y-104084285D01*
X43752380Y-103846190D01*
X43800000Y-103703333D01*
X43895238Y-103608095D01*
X43990476Y-103560476D01*
X44180952Y-103512857D01*
X44323809Y-103512857D01*
X44514285Y-103560476D01*
X44609523Y-103608095D01*
X44704761Y-103703333D01*
X44752380Y-103846190D01*
X44752380Y-104084285D01*
X43847619Y-103131904D02*
X43800000Y-103084285D01*
X43752380Y-102989047D01*
X43752380Y-102750952D01*
X43800000Y-102655714D01*
X43847619Y-102608095D01*
X43942857Y-102560476D01*
X44038095Y-102560476D01*
X44180952Y-102608095D01*
X44752380Y-103179523D01*
X44752380Y-102560476D01*
X43752380Y-101941428D02*
X43752380Y-101846190D01*
X43800000Y-101750952D01*
X43847619Y-101703333D01*
X43942857Y-101655714D01*
X44133333Y-101608095D01*
X44371428Y-101608095D01*
X44561904Y-101655714D01*
X44657142Y-101703333D01*
X44704761Y-101750952D01*
X44752380Y-101846190D01*
X44752380Y-101941428D01*
X44704761Y-102036666D01*
X44657142Y-102084285D01*
X44561904Y-102131904D01*
X44371428Y-102179523D01*
X44133333Y-102179523D01*
X43942857Y-102131904D01*
X43847619Y-102084285D01*
X43800000Y-102036666D01*
X43752380Y-101941428D01*
G04 #@! TO.C,D19*
X52372380Y-104084285D02*
X51372380Y-104084285D01*
X51372380Y-103846190D01*
X51420000Y-103703333D01*
X51515238Y-103608095D01*
X51610476Y-103560476D01*
X51800952Y-103512857D01*
X51943809Y-103512857D01*
X52134285Y-103560476D01*
X52229523Y-103608095D01*
X52324761Y-103703333D01*
X52372380Y-103846190D01*
X52372380Y-104084285D01*
X52372380Y-102560476D02*
X52372380Y-103131904D01*
X52372380Y-102846190D02*
X51372380Y-102846190D01*
X51515238Y-102941428D01*
X51610476Y-103036666D01*
X51658095Y-103131904D01*
X52372380Y-102084285D02*
X52372380Y-101893809D01*
X52324761Y-101798571D01*
X52277142Y-101750952D01*
X52134285Y-101655714D01*
X51943809Y-101608095D01*
X51562857Y-101608095D01*
X51467619Y-101655714D01*
X51420000Y-101703333D01*
X51372380Y-101798571D01*
X51372380Y-101989047D01*
X51420000Y-102084285D01*
X51467619Y-102131904D01*
X51562857Y-102179523D01*
X51800952Y-102179523D01*
X51896190Y-102131904D01*
X51943809Y-102084285D01*
X51991428Y-101989047D01*
X51991428Y-101798571D01*
X51943809Y-101703333D01*
X51896190Y-101655714D01*
X51800952Y-101608095D01*
G04 #@! TO.C,D18*
X59992380Y-104084285D02*
X58992380Y-104084285D01*
X58992380Y-103846190D01*
X59040000Y-103703333D01*
X59135238Y-103608095D01*
X59230476Y-103560476D01*
X59420952Y-103512857D01*
X59563809Y-103512857D01*
X59754285Y-103560476D01*
X59849523Y-103608095D01*
X59944761Y-103703333D01*
X59992380Y-103846190D01*
X59992380Y-104084285D01*
X59992380Y-102560476D02*
X59992380Y-103131904D01*
X59992380Y-102846190D02*
X58992380Y-102846190D01*
X59135238Y-102941428D01*
X59230476Y-103036666D01*
X59278095Y-103131904D01*
X59420952Y-101989047D02*
X59373333Y-102084285D01*
X59325714Y-102131904D01*
X59230476Y-102179523D01*
X59182857Y-102179523D01*
X59087619Y-102131904D01*
X59040000Y-102084285D01*
X58992380Y-101989047D01*
X58992380Y-101798571D01*
X59040000Y-101703333D01*
X59087619Y-101655714D01*
X59182857Y-101608095D01*
X59230476Y-101608095D01*
X59325714Y-101655714D01*
X59373333Y-101703333D01*
X59420952Y-101798571D01*
X59420952Y-101989047D01*
X59468571Y-102084285D01*
X59516190Y-102131904D01*
X59611428Y-102179523D01*
X59801904Y-102179523D01*
X59897142Y-102131904D01*
X59944761Y-102084285D01*
X59992380Y-101989047D01*
X59992380Y-101798571D01*
X59944761Y-101703333D01*
X59897142Y-101655714D01*
X59801904Y-101608095D01*
X59611428Y-101608095D01*
X59516190Y-101655714D01*
X59468571Y-101703333D01*
X59420952Y-101798571D01*
G04 #@! TO.C,D17*
X67612380Y-104084285D02*
X66612380Y-104084285D01*
X66612380Y-103846190D01*
X66660000Y-103703333D01*
X66755238Y-103608095D01*
X66850476Y-103560476D01*
X67040952Y-103512857D01*
X67183809Y-103512857D01*
X67374285Y-103560476D01*
X67469523Y-103608095D01*
X67564761Y-103703333D01*
X67612380Y-103846190D01*
X67612380Y-104084285D01*
X67612380Y-102560476D02*
X67612380Y-103131904D01*
X67612380Y-102846190D02*
X66612380Y-102846190D01*
X66755238Y-102941428D01*
X66850476Y-103036666D01*
X66898095Y-103131904D01*
X66612380Y-102227142D02*
X66612380Y-101560476D01*
X67612380Y-101989047D01*
G04 #@! TO.C,D16*
X15542380Y-65984285D02*
X14542380Y-65984285D01*
X14542380Y-65746190D01*
X14590000Y-65603333D01*
X14685238Y-65508095D01*
X14780476Y-65460476D01*
X14970952Y-65412857D01*
X15113809Y-65412857D01*
X15304285Y-65460476D01*
X15399523Y-65508095D01*
X15494761Y-65603333D01*
X15542380Y-65746190D01*
X15542380Y-65984285D01*
X15542380Y-64460476D02*
X15542380Y-65031904D01*
X15542380Y-64746190D02*
X14542380Y-64746190D01*
X14685238Y-64841428D01*
X14780476Y-64936666D01*
X14828095Y-65031904D01*
X14542380Y-63603333D02*
X14542380Y-63793809D01*
X14590000Y-63889047D01*
X14637619Y-63936666D01*
X14780476Y-64031904D01*
X14970952Y-64079523D01*
X15351904Y-64079523D01*
X15447142Y-64031904D01*
X15494761Y-63984285D01*
X15542380Y-63889047D01*
X15542380Y-63698571D01*
X15494761Y-63603333D01*
X15447142Y-63555714D01*
X15351904Y-63508095D01*
X15113809Y-63508095D01*
X15018571Y-63555714D01*
X14970952Y-63603333D01*
X14923333Y-63698571D01*
X14923333Y-63889047D01*
X14970952Y-63984285D01*
X15018571Y-64031904D01*
X15113809Y-64079523D01*
G04 #@! TO.C,D15*
X23162380Y-65984285D02*
X22162380Y-65984285D01*
X22162380Y-65746190D01*
X22210000Y-65603333D01*
X22305238Y-65508095D01*
X22400476Y-65460476D01*
X22590952Y-65412857D01*
X22733809Y-65412857D01*
X22924285Y-65460476D01*
X23019523Y-65508095D01*
X23114761Y-65603333D01*
X23162380Y-65746190D01*
X23162380Y-65984285D01*
X23162380Y-64460476D02*
X23162380Y-65031904D01*
X23162380Y-64746190D02*
X22162380Y-64746190D01*
X22305238Y-64841428D01*
X22400476Y-64936666D01*
X22448095Y-65031904D01*
X22162380Y-63555714D02*
X22162380Y-64031904D01*
X22638571Y-64079523D01*
X22590952Y-64031904D01*
X22543333Y-63936666D01*
X22543333Y-63698571D01*
X22590952Y-63603333D01*
X22638571Y-63555714D01*
X22733809Y-63508095D01*
X22971904Y-63508095D01*
X23067142Y-63555714D01*
X23114761Y-63603333D01*
X23162380Y-63698571D01*
X23162380Y-63936666D01*
X23114761Y-64031904D01*
X23067142Y-64079523D01*
G04 #@! TO.C,D14*
X30782380Y-65984285D02*
X29782380Y-65984285D01*
X29782380Y-65746190D01*
X29830000Y-65603333D01*
X29925238Y-65508095D01*
X30020476Y-65460476D01*
X30210952Y-65412857D01*
X30353809Y-65412857D01*
X30544285Y-65460476D01*
X30639523Y-65508095D01*
X30734761Y-65603333D01*
X30782380Y-65746190D01*
X30782380Y-65984285D01*
X30782380Y-64460476D02*
X30782380Y-65031904D01*
X30782380Y-64746190D02*
X29782380Y-64746190D01*
X29925238Y-64841428D01*
X30020476Y-64936666D01*
X30068095Y-65031904D01*
X30115714Y-63603333D02*
X30782380Y-63603333D01*
X29734761Y-63841428D02*
X30449047Y-64079523D01*
X30449047Y-63460476D01*
G04 #@! TO.C,D13*
X38402380Y-65984285D02*
X37402380Y-65984285D01*
X37402380Y-65746190D01*
X37450000Y-65603333D01*
X37545238Y-65508095D01*
X37640476Y-65460476D01*
X37830952Y-65412857D01*
X37973809Y-65412857D01*
X38164285Y-65460476D01*
X38259523Y-65508095D01*
X38354761Y-65603333D01*
X38402380Y-65746190D01*
X38402380Y-65984285D01*
X38402380Y-64460476D02*
X38402380Y-65031904D01*
X38402380Y-64746190D02*
X37402380Y-64746190D01*
X37545238Y-64841428D01*
X37640476Y-64936666D01*
X37688095Y-65031904D01*
X37402380Y-64127142D02*
X37402380Y-63508095D01*
X37783333Y-63841428D01*
X37783333Y-63698571D01*
X37830952Y-63603333D01*
X37878571Y-63555714D01*
X37973809Y-63508095D01*
X38211904Y-63508095D01*
X38307142Y-63555714D01*
X38354761Y-63603333D01*
X38402380Y-63698571D01*
X38402380Y-63984285D01*
X38354761Y-64079523D01*
X38307142Y-64127142D01*
G04 #@! TO.C,D12*
X46022380Y-65984285D02*
X45022380Y-65984285D01*
X45022380Y-65746190D01*
X45070000Y-65603333D01*
X45165238Y-65508095D01*
X45260476Y-65460476D01*
X45450952Y-65412857D01*
X45593809Y-65412857D01*
X45784285Y-65460476D01*
X45879523Y-65508095D01*
X45974761Y-65603333D01*
X46022380Y-65746190D01*
X46022380Y-65984285D01*
X46022380Y-64460476D02*
X46022380Y-65031904D01*
X46022380Y-64746190D02*
X45022380Y-64746190D01*
X45165238Y-64841428D01*
X45260476Y-64936666D01*
X45308095Y-65031904D01*
X45117619Y-64079523D02*
X45070000Y-64031904D01*
X45022380Y-63936666D01*
X45022380Y-63698571D01*
X45070000Y-63603333D01*
X45117619Y-63555714D01*
X45212857Y-63508095D01*
X45308095Y-63508095D01*
X45450952Y-63555714D01*
X46022380Y-64127142D01*
X46022380Y-63508095D01*
G04 #@! TO.C,D11*
X53642380Y-65984285D02*
X52642380Y-65984285D01*
X52642380Y-65746190D01*
X52690000Y-65603333D01*
X52785238Y-65508095D01*
X52880476Y-65460476D01*
X53070952Y-65412857D01*
X53213809Y-65412857D01*
X53404285Y-65460476D01*
X53499523Y-65508095D01*
X53594761Y-65603333D01*
X53642380Y-65746190D01*
X53642380Y-65984285D01*
X53642380Y-64460476D02*
X53642380Y-65031904D01*
X53642380Y-64746190D02*
X52642380Y-64746190D01*
X52785238Y-64841428D01*
X52880476Y-64936666D01*
X52928095Y-65031904D01*
X53642380Y-63508095D02*
X53642380Y-64079523D01*
X53642380Y-63793809D02*
X52642380Y-63793809D01*
X52785238Y-63889047D01*
X52880476Y-63984285D01*
X52928095Y-64079523D01*
G04 #@! TO.C,D10*
X61262380Y-65984285D02*
X60262380Y-65984285D01*
X60262380Y-65746190D01*
X60310000Y-65603333D01*
X60405238Y-65508095D01*
X60500476Y-65460476D01*
X60690952Y-65412857D01*
X60833809Y-65412857D01*
X61024285Y-65460476D01*
X61119523Y-65508095D01*
X61214761Y-65603333D01*
X61262380Y-65746190D01*
X61262380Y-65984285D01*
X61262380Y-64460476D02*
X61262380Y-65031904D01*
X61262380Y-64746190D02*
X60262380Y-64746190D01*
X60405238Y-64841428D01*
X60500476Y-64936666D01*
X60548095Y-65031904D01*
X60262380Y-63841428D02*
X60262380Y-63746190D01*
X60310000Y-63650952D01*
X60357619Y-63603333D01*
X60452857Y-63555714D01*
X60643333Y-63508095D01*
X60881428Y-63508095D01*
X61071904Y-63555714D01*
X61167142Y-63603333D01*
X61214761Y-63650952D01*
X61262380Y-63746190D01*
X61262380Y-63841428D01*
X61214761Y-63936666D01*
X61167142Y-63984285D01*
X61071904Y-64031904D01*
X60881428Y-64079523D01*
X60643333Y-64079523D01*
X60452857Y-64031904D01*
X60357619Y-63984285D01*
X60310000Y-63936666D01*
X60262380Y-63841428D01*
G04 #@! TO.C,D9*
X68882380Y-65508095D02*
X67882380Y-65508095D01*
X67882380Y-65270000D01*
X67930000Y-65127142D01*
X68025238Y-65031904D01*
X68120476Y-64984285D01*
X68310952Y-64936666D01*
X68453809Y-64936666D01*
X68644285Y-64984285D01*
X68739523Y-65031904D01*
X68834761Y-65127142D01*
X68882380Y-65270000D01*
X68882380Y-65508095D01*
X68882380Y-64460476D02*
X68882380Y-64270000D01*
X68834761Y-64174761D01*
X68787142Y-64127142D01*
X68644285Y-64031904D01*
X68453809Y-63984285D01*
X68072857Y-63984285D01*
X67977619Y-64031904D01*
X67930000Y-64079523D01*
X67882380Y-64174761D01*
X67882380Y-64365238D01*
X67930000Y-64460476D01*
X67977619Y-64508095D01*
X68072857Y-64555714D01*
X68310952Y-64555714D01*
X68406190Y-64508095D01*
X68453809Y-64460476D01*
X68501428Y-64365238D01*
X68501428Y-64174761D01*
X68453809Y-64079523D01*
X68406190Y-64031904D01*
X68310952Y-63984285D01*
G04 #@! TO.C,D8*
X15542380Y-27408095D02*
X14542380Y-27408095D01*
X14542380Y-27170000D01*
X14590000Y-27027142D01*
X14685238Y-26931904D01*
X14780476Y-26884285D01*
X14970952Y-26836666D01*
X15113809Y-26836666D01*
X15304285Y-26884285D01*
X15399523Y-26931904D01*
X15494761Y-27027142D01*
X15542380Y-27170000D01*
X15542380Y-27408095D01*
X14970952Y-26265238D02*
X14923333Y-26360476D01*
X14875714Y-26408095D01*
X14780476Y-26455714D01*
X14732857Y-26455714D01*
X14637619Y-26408095D01*
X14590000Y-26360476D01*
X14542380Y-26265238D01*
X14542380Y-26074761D01*
X14590000Y-25979523D01*
X14637619Y-25931904D01*
X14732857Y-25884285D01*
X14780476Y-25884285D01*
X14875714Y-25931904D01*
X14923333Y-25979523D01*
X14970952Y-26074761D01*
X14970952Y-26265238D01*
X15018571Y-26360476D01*
X15066190Y-26408095D01*
X15161428Y-26455714D01*
X15351904Y-26455714D01*
X15447142Y-26408095D01*
X15494761Y-26360476D01*
X15542380Y-26265238D01*
X15542380Y-26074761D01*
X15494761Y-25979523D01*
X15447142Y-25931904D01*
X15351904Y-25884285D01*
X15161428Y-25884285D01*
X15066190Y-25931904D01*
X15018571Y-25979523D01*
X14970952Y-26074761D01*
G04 #@! TO.C,D7*
X23162380Y-27408095D02*
X22162380Y-27408095D01*
X22162380Y-27170000D01*
X22210000Y-27027142D01*
X22305238Y-26931904D01*
X22400476Y-26884285D01*
X22590952Y-26836666D01*
X22733809Y-26836666D01*
X22924285Y-26884285D01*
X23019523Y-26931904D01*
X23114761Y-27027142D01*
X23162380Y-27170000D01*
X23162380Y-27408095D01*
X22162380Y-26503333D02*
X22162380Y-25836666D01*
X23162380Y-26265238D01*
G04 #@! TO.C,D6*
X30782380Y-27408095D02*
X29782380Y-27408095D01*
X29782380Y-27170000D01*
X29830000Y-27027142D01*
X29925238Y-26931904D01*
X30020476Y-26884285D01*
X30210952Y-26836666D01*
X30353809Y-26836666D01*
X30544285Y-26884285D01*
X30639523Y-26931904D01*
X30734761Y-27027142D01*
X30782380Y-27170000D01*
X30782380Y-27408095D01*
X29782380Y-25979523D02*
X29782380Y-26170000D01*
X29830000Y-26265238D01*
X29877619Y-26312857D01*
X30020476Y-26408095D01*
X30210952Y-26455714D01*
X30591904Y-26455714D01*
X30687142Y-26408095D01*
X30734761Y-26360476D01*
X30782380Y-26265238D01*
X30782380Y-26074761D01*
X30734761Y-25979523D01*
X30687142Y-25931904D01*
X30591904Y-25884285D01*
X30353809Y-25884285D01*
X30258571Y-25931904D01*
X30210952Y-25979523D01*
X30163333Y-26074761D01*
X30163333Y-26265238D01*
X30210952Y-26360476D01*
X30258571Y-26408095D01*
X30353809Y-26455714D01*
G04 #@! TO.C,D5*
X38402380Y-27408095D02*
X37402380Y-27408095D01*
X37402380Y-27170000D01*
X37450000Y-27027142D01*
X37545238Y-26931904D01*
X37640476Y-26884285D01*
X37830952Y-26836666D01*
X37973809Y-26836666D01*
X38164285Y-26884285D01*
X38259523Y-26931904D01*
X38354761Y-27027142D01*
X38402380Y-27170000D01*
X38402380Y-27408095D01*
X37402380Y-25931904D02*
X37402380Y-26408095D01*
X37878571Y-26455714D01*
X37830952Y-26408095D01*
X37783333Y-26312857D01*
X37783333Y-26074761D01*
X37830952Y-25979523D01*
X37878571Y-25931904D01*
X37973809Y-25884285D01*
X38211904Y-25884285D01*
X38307142Y-25931904D01*
X38354761Y-25979523D01*
X38402380Y-26074761D01*
X38402380Y-26312857D01*
X38354761Y-26408095D01*
X38307142Y-26455714D01*
G04 #@! TO.C,D4*
X46022380Y-27408095D02*
X45022380Y-27408095D01*
X45022380Y-27170000D01*
X45070000Y-27027142D01*
X45165238Y-26931904D01*
X45260476Y-26884285D01*
X45450952Y-26836666D01*
X45593809Y-26836666D01*
X45784285Y-26884285D01*
X45879523Y-26931904D01*
X45974761Y-27027142D01*
X46022380Y-27170000D01*
X46022380Y-27408095D01*
X45355714Y-25979523D02*
X46022380Y-25979523D01*
X44974761Y-26217619D02*
X45689047Y-26455714D01*
X45689047Y-25836666D01*
G04 #@! TO.C,D3*
X53642380Y-27408095D02*
X52642380Y-27408095D01*
X52642380Y-27170000D01*
X52690000Y-27027142D01*
X52785238Y-26931904D01*
X52880476Y-26884285D01*
X53070952Y-26836666D01*
X53213809Y-26836666D01*
X53404285Y-26884285D01*
X53499523Y-26931904D01*
X53594761Y-27027142D01*
X53642380Y-27170000D01*
X53642380Y-27408095D01*
X52642380Y-26503333D02*
X52642380Y-25884285D01*
X53023333Y-26217619D01*
X53023333Y-26074761D01*
X53070952Y-25979523D01*
X53118571Y-25931904D01*
X53213809Y-25884285D01*
X53451904Y-25884285D01*
X53547142Y-25931904D01*
X53594761Y-25979523D01*
X53642380Y-26074761D01*
X53642380Y-26360476D01*
X53594761Y-26455714D01*
X53547142Y-26503333D01*
G04 #@! TO.C,D2*
X61262380Y-27408095D02*
X60262380Y-27408095D01*
X60262380Y-27170000D01*
X60310000Y-27027142D01*
X60405238Y-26931904D01*
X60500476Y-26884285D01*
X60690952Y-26836666D01*
X60833809Y-26836666D01*
X61024285Y-26884285D01*
X61119523Y-26931904D01*
X61214761Y-27027142D01*
X61262380Y-27170000D01*
X61262380Y-27408095D01*
X60357619Y-26455714D02*
X60310000Y-26408095D01*
X60262380Y-26312857D01*
X60262380Y-26074761D01*
X60310000Y-25979523D01*
X60357619Y-25931904D01*
X60452857Y-25884285D01*
X60548095Y-25884285D01*
X60690952Y-25931904D01*
X61262380Y-26503333D01*
X61262380Y-25884285D01*
G04 #@! TO.C,D1*
X68882380Y-27408095D02*
X67882380Y-27408095D01*
X67882380Y-27170000D01*
X67930000Y-27027142D01*
X68025238Y-26931904D01*
X68120476Y-26884285D01*
X68310952Y-26836666D01*
X68453809Y-26836666D01*
X68644285Y-26884285D01*
X68739523Y-26931904D01*
X68834761Y-27027142D01*
X68882380Y-27170000D01*
X68882380Y-27408095D01*
X68882380Y-25884285D02*
X68882380Y-26455714D01*
X68882380Y-26170000D02*
X67882380Y-26170000D01*
X68025238Y-26265238D01*
X68120476Y-26360476D01*
X68168095Y-26455714D01*
G04 #@! TO.C,C16*
X73727142Y-160642857D02*
X73774761Y-160690476D01*
X73822380Y-160833333D01*
X73822380Y-160928571D01*
X73774761Y-161071428D01*
X73679523Y-161166666D01*
X73584285Y-161214285D01*
X73393809Y-161261904D01*
X73250952Y-161261904D01*
X73060476Y-161214285D01*
X72965238Y-161166666D01*
X72870000Y-161071428D01*
X72822380Y-160928571D01*
X72822380Y-160833333D01*
X72870000Y-160690476D01*
X72917619Y-160642857D01*
X73822380Y-159690476D02*
X73822380Y-160261904D01*
X73822380Y-159976190D02*
X72822380Y-159976190D01*
X72965238Y-160071428D01*
X73060476Y-160166666D01*
X73108095Y-160261904D01*
X72822380Y-158833333D02*
X72822380Y-159023809D01*
X72870000Y-159119047D01*
X72917619Y-159166666D01*
X73060476Y-159261904D01*
X73250952Y-159309523D01*
X73631904Y-159309523D01*
X73727142Y-159261904D01*
X73774761Y-159214285D01*
X73822380Y-159119047D01*
X73822380Y-158928571D01*
X73774761Y-158833333D01*
X73727142Y-158785714D01*
X73631904Y-158738095D01*
X73393809Y-158738095D01*
X73298571Y-158785714D01*
X73250952Y-158833333D01*
X73203333Y-158928571D01*
X73203333Y-159119047D01*
X73250952Y-159214285D01*
X73298571Y-159261904D01*
X73393809Y-159309523D01*
G04 #@! TO.C,C15*
X138497142Y-139052857D02*
X138544761Y-139100476D01*
X138592380Y-139243333D01*
X138592380Y-139338571D01*
X138544761Y-139481428D01*
X138449523Y-139576666D01*
X138354285Y-139624285D01*
X138163809Y-139671904D01*
X138020952Y-139671904D01*
X137830476Y-139624285D01*
X137735238Y-139576666D01*
X137640000Y-139481428D01*
X137592380Y-139338571D01*
X137592380Y-139243333D01*
X137640000Y-139100476D01*
X137687619Y-139052857D01*
X138592380Y-138100476D02*
X138592380Y-138671904D01*
X138592380Y-138386190D02*
X137592380Y-138386190D01*
X137735238Y-138481428D01*
X137830476Y-138576666D01*
X137878095Y-138671904D01*
X137592380Y-137195714D02*
X137592380Y-137671904D01*
X138068571Y-137719523D01*
X138020952Y-137671904D01*
X137973333Y-137576666D01*
X137973333Y-137338571D01*
X138020952Y-137243333D01*
X138068571Y-137195714D01*
X138163809Y-137148095D01*
X138401904Y-137148095D01*
X138497142Y-137195714D01*
X138544761Y-137243333D01*
X138592380Y-137338571D01*
X138592380Y-137576666D01*
X138544761Y-137671904D01*
X138497142Y-137719523D01*
G04 #@! TO.C,C14*
X87697142Y-136512857D02*
X87744761Y-136560476D01*
X87792380Y-136703333D01*
X87792380Y-136798571D01*
X87744761Y-136941428D01*
X87649523Y-137036666D01*
X87554285Y-137084285D01*
X87363809Y-137131904D01*
X87220952Y-137131904D01*
X87030476Y-137084285D01*
X86935238Y-137036666D01*
X86840000Y-136941428D01*
X86792380Y-136798571D01*
X86792380Y-136703333D01*
X86840000Y-136560476D01*
X86887619Y-136512857D01*
X87792380Y-135560476D02*
X87792380Y-136131904D01*
X87792380Y-135846190D02*
X86792380Y-135846190D01*
X86935238Y-135941428D01*
X87030476Y-136036666D01*
X87078095Y-136131904D01*
X87125714Y-134703333D02*
X87792380Y-134703333D01*
X86744761Y-134941428D02*
X87459047Y-135179523D01*
X87459047Y-134560476D01*
G04 #@! TO.C,C13*
X87697142Y-117462857D02*
X87744761Y-117510476D01*
X87792380Y-117653333D01*
X87792380Y-117748571D01*
X87744761Y-117891428D01*
X87649523Y-117986666D01*
X87554285Y-118034285D01*
X87363809Y-118081904D01*
X87220952Y-118081904D01*
X87030476Y-118034285D01*
X86935238Y-117986666D01*
X86840000Y-117891428D01*
X86792380Y-117748571D01*
X86792380Y-117653333D01*
X86840000Y-117510476D01*
X86887619Y-117462857D01*
X87792380Y-116510476D02*
X87792380Y-117081904D01*
X87792380Y-116796190D02*
X86792380Y-116796190D01*
X86935238Y-116891428D01*
X87030476Y-116986666D01*
X87078095Y-117081904D01*
X86792380Y-116177142D02*
X86792380Y-115558095D01*
X87173333Y-115891428D01*
X87173333Y-115748571D01*
X87220952Y-115653333D01*
X87268571Y-115605714D01*
X87363809Y-115558095D01*
X87601904Y-115558095D01*
X87697142Y-115605714D01*
X87744761Y-115653333D01*
X87792380Y-115748571D01*
X87792380Y-116034285D01*
X87744761Y-116129523D01*
X87697142Y-116177142D01*
G04 #@! TO.C,C12*
X87697142Y-98412857D02*
X87744761Y-98460476D01*
X87792380Y-98603333D01*
X87792380Y-98698571D01*
X87744761Y-98841428D01*
X87649523Y-98936666D01*
X87554285Y-98984285D01*
X87363809Y-99031904D01*
X87220952Y-99031904D01*
X87030476Y-98984285D01*
X86935238Y-98936666D01*
X86840000Y-98841428D01*
X86792380Y-98698571D01*
X86792380Y-98603333D01*
X86840000Y-98460476D01*
X86887619Y-98412857D01*
X87792380Y-97460476D02*
X87792380Y-98031904D01*
X87792380Y-97746190D02*
X86792380Y-97746190D01*
X86935238Y-97841428D01*
X87030476Y-97936666D01*
X87078095Y-98031904D01*
X86887619Y-97079523D02*
X86840000Y-97031904D01*
X86792380Y-96936666D01*
X86792380Y-96698571D01*
X86840000Y-96603333D01*
X86887619Y-96555714D01*
X86982857Y-96508095D01*
X87078095Y-96508095D01*
X87220952Y-96555714D01*
X87792380Y-97127142D01*
X87792380Y-96508095D01*
G04 #@! TO.C,C11*
X87697142Y-80632857D02*
X87744761Y-80680476D01*
X87792380Y-80823333D01*
X87792380Y-80918571D01*
X87744761Y-81061428D01*
X87649523Y-81156666D01*
X87554285Y-81204285D01*
X87363809Y-81251904D01*
X87220952Y-81251904D01*
X87030476Y-81204285D01*
X86935238Y-81156666D01*
X86840000Y-81061428D01*
X86792380Y-80918571D01*
X86792380Y-80823333D01*
X86840000Y-80680476D01*
X86887619Y-80632857D01*
X87792380Y-79680476D02*
X87792380Y-80251904D01*
X87792380Y-79966190D02*
X86792380Y-79966190D01*
X86935238Y-80061428D01*
X87030476Y-80156666D01*
X87078095Y-80251904D01*
X87792380Y-78728095D02*
X87792380Y-79299523D01*
X87792380Y-79013809D02*
X86792380Y-79013809D01*
X86935238Y-79109047D01*
X87030476Y-79204285D01*
X87078095Y-79299523D01*
G04 #@! TO.C,C10*
X87697142Y-61582857D02*
X87744761Y-61630476D01*
X87792380Y-61773333D01*
X87792380Y-61868571D01*
X87744761Y-62011428D01*
X87649523Y-62106666D01*
X87554285Y-62154285D01*
X87363809Y-62201904D01*
X87220952Y-62201904D01*
X87030476Y-62154285D01*
X86935238Y-62106666D01*
X86840000Y-62011428D01*
X86792380Y-61868571D01*
X86792380Y-61773333D01*
X86840000Y-61630476D01*
X86887619Y-61582857D01*
X87792380Y-60630476D02*
X87792380Y-61201904D01*
X87792380Y-60916190D02*
X86792380Y-60916190D01*
X86935238Y-61011428D01*
X87030476Y-61106666D01*
X87078095Y-61201904D01*
X86792380Y-60011428D02*
X86792380Y-59916190D01*
X86840000Y-59820952D01*
X86887619Y-59773333D01*
X86982857Y-59725714D01*
X87173333Y-59678095D01*
X87411428Y-59678095D01*
X87601904Y-59725714D01*
X87697142Y-59773333D01*
X87744761Y-59820952D01*
X87792380Y-59916190D01*
X87792380Y-60011428D01*
X87744761Y-60106666D01*
X87697142Y-60154285D01*
X87601904Y-60201904D01*
X87411428Y-60249523D01*
X87173333Y-60249523D01*
X86982857Y-60201904D01*
X86887619Y-60154285D01*
X86840000Y-60106666D01*
X86792380Y-60011428D01*
G04 #@! TO.C,C9*
X87697142Y-43326666D02*
X87744761Y-43374285D01*
X87792380Y-43517142D01*
X87792380Y-43612380D01*
X87744761Y-43755238D01*
X87649523Y-43850476D01*
X87554285Y-43898095D01*
X87363809Y-43945714D01*
X87220952Y-43945714D01*
X87030476Y-43898095D01*
X86935238Y-43850476D01*
X86840000Y-43755238D01*
X86792380Y-43612380D01*
X86792380Y-43517142D01*
X86840000Y-43374285D01*
X86887619Y-43326666D01*
X87792380Y-42850476D02*
X87792380Y-42660000D01*
X87744761Y-42564761D01*
X87697142Y-42517142D01*
X87554285Y-42421904D01*
X87363809Y-42374285D01*
X86982857Y-42374285D01*
X86887619Y-42421904D01*
X86840000Y-42469523D01*
X86792380Y-42564761D01*
X86792380Y-42755238D01*
X86840000Y-42850476D01*
X86887619Y-42898095D01*
X86982857Y-42945714D01*
X87220952Y-42945714D01*
X87316190Y-42898095D01*
X87363809Y-42850476D01*
X87411428Y-42755238D01*
X87411428Y-42564761D01*
X87363809Y-42469523D01*
X87316190Y-42421904D01*
X87220952Y-42374285D01*
G04 #@! TO.C,C8*
X88967142Y-26816666D02*
X89014761Y-26864285D01*
X89062380Y-27007142D01*
X89062380Y-27102380D01*
X89014761Y-27245238D01*
X88919523Y-27340476D01*
X88824285Y-27388095D01*
X88633809Y-27435714D01*
X88490952Y-27435714D01*
X88300476Y-27388095D01*
X88205238Y-27340476D01*
X88110000Y-27245238D01*
X88062380Y-27102380D01*
X88062380Y-27007142D01*
X88110000Y-26864285D01*
X88157619Y-26816666D01*
X88490952Y-26245238D02*
X88443333Y-26340476D01*
X88395714Y-26388095D01*
X88300476Y-26435714D01*
X88252857Y-26435714D01*
X88157619Y-26388095D01*
X88110000Y-26340476D01*
X88062380Y-26245238D01*
X88062380Y-26054761D01*
X88110000Y-25959523D01*
X88157619Y-25911904D01*
X88252857Y-25864285D01*
X88300476Y-25864285D01*
X88395714Y-25911904D01*
X88443333Y-25959523D01*
X88490952Y-26054761D01*
X88490952Y-26245238D01*
X88538571Y-26340476D01*
X88586190Y-26388095D01*
X88681428Y-26435714D01*
X88871904Y-26435714D01*
X88967142Y-26388095D01*
X89014761Y-26340476D01*
X89062380Y-26245238D01*
X89062380Y-26054761D01*
X89014761Y-25959523D01*
X88967142Y-25911904D01*
X88871904Y-25864285D01*
X88681428Y-25864285D01*
X88586190Y-25911904D01*
X88538571Y-25959523D01*
X88490952Y-26054761D01*
G04 #@! TO.C,C7*
X88967142Y-10306666D02*
X89014761Y-10354285D01*
X89062380Y-10497142D01*
X89062380Y-10592380D01*
X89014761Y-10735238D01*
X88919523Y-10830476D01*
X88824285Y-10878095D01*
X88633809Y-10925714D01*
X88490952Y-10925714D01*
X88300476Y-10878095D01*
X88205238Y-10830476D01*
X88110000Y-10735238D01*
X88062380Y-10592380D01*
X88062380Y-10497142D01*
X88110000Y-10354285D01*
X88157619Y-10306666D01*
X88062380Y-9973333D02*
X88062380Y-9306666D01*
X89062380Y-9735238D01*
G04 #@! TO.C,C6*
X138497142Y-87776666D02*
X138544761Y-87824285D01*
X138592380Y-87967142D01*
X138592380Y-88062380D01*
X138544761Y-88205238D01*
X138449523Y-88300476D01*
X138354285Y-88348095D01*
X138163809Y-88395714D01*
X138020952Y-88395714D01*
X137830476Y-88348095D01*
X137735238Y-88300476D01*
X137640000Y-88205238D01*
X137592380Y-88062380D01*
X137592380Y-87967142D01*
X137640000Y-87824285D01*
X137687619Y-87776666D01*
X137592380Y-86919523D02*
X137592380Y-87110000D01*
X137640000Y-87205238D01*
X137687619Y-87252857D01*
X137830476Y-87348095D01*
X138020952Y-87395714D01*
X138401904Y-87395714D01*
X138497142Y-87348095D01*
X138544761Y-87300476D01*
X138592380Y-87205238D01*
X138592380Y-87014761D01*
X138544761Y-86919523D01*
X138497142Y-86871904D01*
X138401904Y-86824285D01*
X138163809Y-86824285D01*
X138068571Y-86871904D01*
X138020952Y-86919523D01*
X137973333Y-87014761D01*
X137973333Y-87205238D01*
X138020952Y-87300476D01*
X138068571Y-87348095D01*
X138163809Y-87395714D01*
G04 #@! TO.C,C5*
X138497142Y-39516666D02*
X138544761Y-39564285D01*
X138592380Y-39707142D01*
X138592380Y-39802380D01*
X138544761Y-39945238D01*
X138449523Y-40040476D01*
X138354285Y-40088095D01*
X138163809Y-40135714D01*
X138020952Y-40135714D01*
X137830476Y-40088095D01*
X137735238Y-40040476D01*
X137640000Y-39945238D01*
X137592380Y-39802380D01*
X137592380Y-39707142D01*
X137640000Y-39564285D01*
X137687619Y-39516666D01*
X137592380Y-38611904D02*
X137592380Y-39088095D01*
X138068571Y-39135714D01*
X138020952Y-39088095D01*
X137973333Y-38992857D01*
X137973333Y-38754761D01*
X138020952Y-38659523D01*
X138068571Y-38611904D01*
X138163809Y-38564285D01*
X138401904Y-38564285D01*
X138497142Y-38611904D01*
X138544761Y-38659523D01*
X138592380Y-38754761D01*
X138592380Y-38992857D01*
X138544761Y-39088095D01*
X138497142Y-39135714D01*
G04 #@! TO.C,C4*
X30547142Y-125876666D02*
X30594761Y-125924285D01*
X30642380Y-126067142D01*
X30642380Y-126162380D01*
X30594761Y-126305238D01*
X30499523Y-126400476D01*
X30404285Y-126448095D01*
X30213809Y-126495714D01*
X30070952Y-126495714D01*
X29880476Y-126448095D01*
X29785238Y-126400476D01*
X29690000Y-126305238D01*
X29642380Y-126162380D01*
X29642380Y-126067142D01*
X29690000Y-125924285D01*
X29737619Y-125876666D01*
X29975714Y-125019523D02*
X30642380Y-125019523D01*
X29594761Y-125257619D02*
X30309047Y-125495714D01*
X30309047Y-124876666D01*
G04 #@! TO.C,C3*
X29277142Y-89046666D02*
X29324761Y-89094285D01*
X29372380Y-89237142D01*
X29372380Y-89332380D01*
X29324761Y-89475238D01*
X29229523Y-89570476D01*
X29134285Y-89618095D01*
X28943809Y-89665714D01*
X28800952Y-89665714D01*
X28610476Y-89618095D01*
X28515238Y-89570476D01*
X28420000Y-89475238D01*
X28372380Y-89332380D01*
X28372380Y-89237142D01*
X28420000Y-89094285D01*
X28467619Y-89046666D01*
X28372380Y-88713333D02*
X28372380Y-88094285D01*
X28753333Y-88427619D01*
X28753333Y-88284761D01*
X28800952Y-88189523D01*
X28848571Y-88141904D01*
X28943809Y-88094285D01*
X29181904Y-88094285D01*
X29277142Y-88141904D01*
X29324761Y-88189523D01*
X29372380Y-88284761D01*
X29372380Y-88570476D01*
X29324761Y-88665714D01*
X29277142Y-88713333D01*
G04 #@! TO.C,C2*
X31817142Y-50946666D02*
X31864761Y-50994285D01*
X31912380Y-51137142D01*
X31912380Y-51232380D01*
X31864761Y-51375238D01*
X31769523Y-51470476D01*
X31674285Y-51518095D01*
X31483809Y-51565714D01*
X31340952Y-51565714D01*
X31150476Y-51518095D01*
X31055238Y-51470476D01*
X30960000Y-51375238D01*
X30912380Y-51232380D01*
X30912380Y-51137142D01*
X30960000Y-50994285D01*
X31007619Y-50946666D01*
X31007619Y-50565714D02*
X30960000Y-50518095D01*
X30912380Y-50422857D01*
X30912380Y-50184761D01*
X30960000Y-50089523D01*
X31007619Y-50041904D01*
X31102857Y-49994285D01*
X31198095Y-49994285D01*
X31340952Y-50041904D01*
X31912380Y-50613333D01*
X31912380Y-49994285D01*
G04 #@! TO.C,C1*
X31817142Y-11576666D02*
X31864761Y-11624285D01*
X31912380Y-11767142D01*
X31912380Y-11862380D01*
X31864761Y-12005238D01*
X31769523Y-12100476D01*
X31674285Y-12148095D01*
X31483809Y-12195714D01*
X31340952Y-12195714D01*
X31150476Y-12148095D01*
X31055238Y-12100476D01*
X30960000Y-12005238D01*
X30912380Y-11862380D01*
X30912380Y-11767142D01*
X30960000Y-11624285D01*
X31007619Y-11576666D01*
X31912380Y-10624285D02*
X31912380Y-11195714D01*
X31912380Y-10910000D02*
X30912380Y-10910000D01*
X31055238Y-11005238D01*
X31150476Y-11100476D01*
X31198095Y-11195714D01*
G04 #@! TD*
M02*
