G04 #@! TF.GenerationSoftware,KiCad,Pcbnew,5.1.6-c6e7f7d~87~ubuntu16.04.1*
G04 #@! TF.CreationDate,2020-11-11T22:35:59-05:00*
G04 #@! TF.ProjectId,riscy,72697363-792e-46b6-9963-61645f706362,rev?*
G04 #@! TF.SameCoordinates,Original*
G04 #@! TF.FileFunction,Legend,Top*
G04 #@! TF.FilePolarity,Positive*
%FSLAX46Y46*%
G04 Gerber Fmt 4.6, Leading zero omitted, Abs format (unit mm)*
G04 Created by KiCad (PCBNEW 5.1.6-c6e7f7d~87~ubuntu16.04.1) date 2020-11-11 22:35:59*
%MOMM*%
%LPD*%
G01*
G04 APERTURE LIST*
%ADD10C,0.120000*%
%ADD11C,0.150000*%
G04 APERTURE END LIST*
D10*
G04 #@! TO.C,J11*
X265370000Y-26730000D02*
X268030000Y-26730000D01*
X265370000Y-21590000D02*
X265370000Y-26730000D01*
X268030000Y-21590000D02*
X268030000Y-26730000D01*
X265370000Y-21590000D02*
X268030000Y-21590000D01*
X265370000Y-20320000D02*
X265370000Y-18990000D01*
X265370000Y-18990000D02*
X266700000Y-18990000D01*
G04 #@! TO.C,U16*
X217440000Y-124400000D02*
X215790000Y-124400000D01*
X215790000Y-124400000D02*
X215790000Y-144840000D01*
X215790000Y-144840000D02*
X221090000Y-144840000D01*
X221090000Y-144840000D02*
X221090000Y-124400000D01*
X221090000Y-124400000D02*
X219440000Y-124400000D01*
X219440000Y-124400000D02*
G75*
G02*
X217440000Y-124400000I-1000000J0D01*
G01*
G04 #@! TO.C,U15*
X38040000Y-166100000D02*
X38040000Y-167750000D01*
X38040000Y-167750000D02*
X63560000Y-167750000D01*
X63560000Y-167750000D02*
X63560000Y-162450000D01*
X63560000Y-162450000D02*
X38040000Y-162450000D01*
X38040000Y-162450000D02*
X38040000Y-164100000D01*
X38040000Y-164100000D02*
G75*
G02*
X38040000Y-166100000I0J-1000000D01*
G01*
G04 #@! TO.C,U14*
X269510000Y-79950000D02*
X267860000Y-79950000D01*
X267860000Y-79950000D02*
X267860000Y-100390000D01*
X267860000Y-100390000D02*
X273160000Y-100390000D01*
X273160000Y-100390000D02*
X273160000Y-79950000D01*
X273160000Y-79950000D02*
X271510000Y-79950000D01*
X271510000Y-79950000D02*
G75*
G02*
X269510000Y-79950000I-1000000J0D01*
G01*
G04 #@! TO.C,U13*
X235220000Y-79950000D02*
X233570000Y-79950000D01*
X233570000Y-79950000D02*
X233570000Y-100390000D01*
X233570000Y-100390000D02*
X238870000Y-100390000D01*
X238870000Y-100390000D02*
X238870000Y-79950000D01*
X238870000Y-79950000D02*
X237220000Y-79950000D01*
X237220000Y-79950000D02*
G75*
G02*
X235220000Y-79950000I-1000000J0D01*
G01*
G04 #@! TO.C,U12*
X200930000Y-79950000D02*
X199280000Y-79950000D01*
X199280000Y-79950000D02*
X199280000Y-100390000D01*
X199280000Y-100390000D02*
X204580000Y-100390000D01*
X204580000Y-100390000D02*
X204580000Y-79950000D01*
X204580000Y-79950000D02*
X202930000Y-79950000D01*
X202930000Y-79950000D02*
G75*
G02*
X200930000Y-79950000I-1000000J0D01*
G01*
G04 #@! TO.C,U11*
X166640000Y-78680000D02*
X164990000Y-78680000D01*
X164990000Y-78680000D02*
X164990000Y-99120000D01*
X164990000Y-99120000D02*
X170290000Y-99120000D01*
X170290000Y-99120000D02*
X170290000Y-78680000D01*
X170290000Y-78680000D02*
X168640000Y-78680000D01*
X168640000Y-78680000D02*
G75*
G02*
X166640000Y-78680000I-1000000J0D01*
G01*
G04 #@! TO.C,U10*
X131080000Y-78680000D02*
X129430000Y-78680000D01*
X129430000Y-78680000D02*
X129430000Y-99120000D01*
X129430000Y-99120000D02*
X134730000Y-99120000D01*
X134730000Y-99120000D02*
X134730000Y-78680000D01*
X134730000Y-78680000D02*
X133080000Y-78680000D01*
X133080000Y-78680000D02*
G75*
G02*
X131080000Y-78680000I-1000000J0D01*
G01*
G04 #@! TO.C,U9*
X96790000Y-78680000D02*
X95140000Y-78680000D01*
X95140000Y-78680000D02*
X95140000Y-99120000D01*
X95140000Y-99120000D02*
X100440000Y-99120000D01*
X100440000Y-99120000D02*
X100440000Y-78680000D01*
X100440000Y-78680000D02*
X98790000Y-78680000D01*
X98790000Y-78680000D02*
G75*
G02*
X96790000Y-78680000I-1000000J0D01*
G01*
G04 #@! TO.C,U8*
X63770000Y-78680000D02*
X62120000Y-78680000D01*
X62120000Y-78680000D02*
X62120000Y-99120000D01*
X62120000Y-99120000D02*
X67420000Y-99120000D01*
X67420000Y-99120000D02*
X67420000Y-78680000D01*
X67420000Y-78680000D02*
X65770000Y-78680000D01*
X65770000Y-78680000D02*
G75*
G02*
X63770000Y-78680000I-1000000J0D01*
G01*
G04 #@! TO.C,U7*
X30750000Y-78680000D02*
X29100000Y-78680000D01*
X29100000Y-78680000D02*
X29100000Y-99120000D01*
X29100000Y-99120000D02*
X34400000Y-99120000D01*
X34400000Y-99120000D02*
X34400000Y-78680000D01*
X34400000Y-78680000D02*
X32750000Y-78680000D01*
X32750000Y-78680000D02*
G75*
G02*
X30750000Y-78680000I-1000000J0D01*
G01*
G04 #@! TO.C,U6*
X128210000Y-119110000D02*
X128210000Y-120760000D01*
X128210000Y-120760000D02*
X153730000Y-120760000D01*
X153730000Y-120760000D02*
X153730000Y-115460000D01*
X153730000Y-115460000D02*
X128210000Y-115460000D01*
X128210000Y-115460000D02*
X128210000Y-117110000D01*
X128210000Y-117110000D02*
G75*
G02*
X128210000Y-119110000I0J-1000000D01*
G01*
G04 #@! TO.C,U5*
X38040000Y-119110000D02*
X38040000Y-120760000D01*
X38040000Y-120760000D02*
X63560000Y-120760000D01*
X63560000Y-120760000D02*
X63560000Y-115460000D01*
X63560000Y-115460000D02*
X38040000Y-115460000D01*
X38040000Y-115460000D02*
X38040000Y-117110000D01*
X38040000Y-117110000D02*
G75*
G02*
X38040000Y-119110000I0J-1000000D01*
G01*
G04 #@! TO.C,U4*
X224730000Y-32750000D02*
X224730000Y-34400000D01*
X224730000Y-34400000D02*
X250250000Y-34400000D01*
X250250000Y-34400000D02*
X250250000Y-29100000D01*
X250250000Y-29100000D02*
X224730000Y-29100000D01*
X224730000Y-29100000D02*
X224730000Y-30750000D01*
X224730000Y-30750000D02*
G75*
G02*
X224730000Y-32750000I0J-1000000D01*
G01*
G04 #@! TO.C,U3*
X161230000Y-32750000D02*
X161230000Y-34400000D01*
X161230000Y-34400000D02*
X186750000Y-34400000D01*
X186750000Y-34400000D02*
X186750000Y-29100000D01*
X186750000Y-29100000D02*
X161230000Y-29100000D01*
X161230000Y-29100000D02*
X161230000Y-30750000D01*
X161230000Y-30750000D02*
G75*
G02*
X161230000Y-32750000I0J-1000000D01*
G01*
G04 #@! TO.C,U2*
X96460000Y-32750000D02*
X96460000Y-34400000D01*
X96460000Y-34400000D02*
X121980000Y-34400000D01*
X121980000Y-34400000D02*
X121980000Y-29100000D01*
X121980000Y-29100000D02*
X96460000Y-29100000D01*
X96460000Y-29100000D02*
X96460000Y-30750000D01*
X96460000Y-30750000D02*
G75*
G02*
X96460000Y-32750000I0J-1000000D01*
G01*
G04 #@! TO.C,U1*
X31690000Y-32750000D02*
X31690000Y-34400000D01*
X31690000Y-34400000D02*
X57210000Y-34400000D01*
X57210000Y-34400000D02*
X57210000Y-29100000D01*
X57210000Y-29100000D02*
X31690000Y-29100000D01*
X31690000Y-29100000D02*
X31690000Y-30750000D01*
X31690000Y-30750000D02*
G75*
G02*
X31690000Y-32750000I0J-1000000D01*
G01*
G04 #@! TO.C,RN6*
X126830000Y-140840000D02*
X126830000Y-143640000D01*
X126830000Y-143640000D02*
X150030000Y-143640000D01*
X150030000Y-143640000D02*
X150030000Y-140840000D01*
X150030000Y-140840000D02*
X126830000Y-140840000D01*
X129540000Y-140840000D02*
X129540000Y-143640000D01*
G04 #@! TO.C,RN5*
X37930000Y-140840000D02*
X37930000Y-143640000D01*
X37930000Y-143640000D02*
X61130000Y-143640000D01*
X61130000Y-143640000D02*
X61130000Y-140840000D01*
X61130000Y-140840000D02*
X37930000Y-140840000D01*
X40640000Y-140840000D02*
X40640000Y-143640000D01*
G04 #@! TO.C,RN4*
X225890000Y-53210000D02*
X225890000Y-56010000D01*
X225890000Y-56010000D02*
X249090000Y-56010000D01*
X249090000Y-56010000D02*
X249090000Y-53210000D01*
X249090000Y-53210000D02*
X225890000Y-53210000D01*
X228600000Y-53210000D02*
X228600000Y-56010000D01*
G04 #@! TO.C,RN3*
X161120000Y-53210000D02*
X161120000Y-56010000D01*
X161120000Y-56010000D02*
X184320000Y-56010000D01*
X184320000Y-56010000D02*
X184320000Y-53210000D01*
X184320000Y-53210000D02*
X161120000Y-53210000D01*
X163830000Y-53210000D02*
X163830000Y-56010000D01*
G04 #@! TO.C,RN2*
X96350000Y-53210000D02*
X96350000Y-56010000D01*
X96350000Y-56010000D02*
X119550000Y-56010000D01*
X119550000Y-56010000D02*
X119550000Y-53210000D01*
X119550000Y-53210000D02*
X96350000Y-53210000D01*
X99060000Y-53210000D02*
X99060000Y-56010000D01*
G04 #@! TO.C,RN1*
X32850000Y-53210000D02*
X32850000Y-56010000D01*
X32850000Y-56010000D02*
X56050000Y-56010000D01*
X56050000Y-56010000D02*
X56050000Y-53210000D01*
X56050000Y-53210000D02*
X32850000Y-53210000D01*
X35560000Y-53210000D02*
X35560000Y-56010000D01*
G04 #@! TO.C,R3*
X23780000Y-158750000D02*
G75*
G03*
X23780000Y-158750000I-920000J0D01*
G01*
X23780000Y-158750000D02*
X24400000Y-158750000D01*
G04 #@! TO.C,R2*
X18700000Y-111760000D02*
G75*
G03*
X18700000Y-111760000I-920000J0D01*
G01*
X18700000Y-111760000D02*
X19320000Y-111760000D01*
G04 #@! TO.C,R1*
X16160000Y-21590000D02*
G75*
G03*
X16160000Y-21590000I-920000J0D01*
G01*
X16160000Y-21590000D02*
X16780000Y-21590000D01*
G04 #@! TO.C,J10*
X275530000Y-161350000D02*
X278190000Y-161350000D01*
X275530000Y-156210000D02*
X275530000Y-161350000D01*
X278190000Y-156210000D02*
X278190000Y-161350000D01*
X275530000Y-156210000D02*
X278190000Y-156210000D01*
X275530000Y-154940000D02*
X275530000Y-153610000D01*
X275530000Y-153610000D02*
X276860000Y-153610000D01*
G04 #@! TO.C,J9*
X237430000Y-162620000D02*
X240090000Y-162620000D01*
X237430000Y-154940000D02*
X237430000Y-162620000D01*
X240090000Y-154940000D02*
X240090000Y-162620000D01*
X237430000Y-154940000D02*
X240090000Y-154940000D01*
X237430000Y-153670000D02*
X237430000Y-152340000D01*
X237430000Y-152340000D02*
X238760000Y-152340000D01*
G04 #@! TO.C,J8*
X163770000Y-15180000D02*
X163770000Y-17840000D01*
X181610000Y-15180000D02*
X163770000Y-15180000D01*
X181610000Y-17840000D02*
X163770000Y-17840000D01*
X181610000Y-15180000D02*
X181610000Y-17840000D01*
X182880000Y-15180000D02*
X184210000Y-15180000D01*
X184210000Y-15180000D02*
X184210000Y-16510000D01*
G04 #@! TO.C,J7*
X151070000Y-159960000D02*
X151070000Y-162620000D01*
X168910000Y-159960000D02*
X151070000Y-159960000D01*
X168910000Y-162620000D02*
X151070000Y-162620000D01*
X168910000Y-159960000D02*
X168910000Y-162620000D01*
X170180000Y-159960000D02*
X171510000Y-159960000D01*
X171510000Y-159960000D02*
X171510000Y-161290000D01*
G04 #@! TO.C,J6*
X151070000Y-177740000D02*
X151070000Y-180400000D01*
X168910000Y-177740000D02*
X151070000Y-177740000D01*
X168910000Y-180400000D02*
X151070000Y-180400000D01*
X168910000Y-177740000D02*
X168910000Y-180400000D01*
X170180000Y-177740000D02*
X171510000Y-177740000D01*
X171510000Y-177740000D02*
X171510000Y-179070000D01*
G04 #@! TO.C,J5*
X87570000Y-177740000D02*
X87570000Y-180400000D01*
X105410000Y-177740000D02*
X87570000Y-177740000D01*
X105410000Y-180400000D02*
X87570000Y-180400000D01*
X105410000Y-177740000D02*
X105410000Y-180400000D01*
X106680000Y-177740000D02*
X108010000Y-177740000D01*
X108010000Y-177740000D02*
X108010000Y-179070000D01*
G04 #@! TO.C,J4*
X87570000Y-159960000D02*
X87570000Y-162620000D01*
X105410000Y-159960000D02*
X87570000Y-159960000D01*
X105410000Y-162620000D02*
X87570000Y-162620000D01*
X105410000Y-159960000D02*
X105410000Y-162620000D01*
X106680000Y-159960000D02*
X108010000Y-159960000D01*
X108010000Y-159960000D02*
X108010000Y-161290000D01*
G04 #@! TO.C,J3*
X40580000Y-180280000D02*
X40580000Y-182940000D01*
X58420000Y-180280000D02*
X40580000Y-180280000D01*
X58420000Y-182940000D02*
X40580000Y-182940000D01*
X58420000Y-180280000D02*
X58420000Y-182940000D01*
X59690000Y-180280000D02*
X61020000Y-180280000D01*
X61020000Y-180280000D02*
X61020000Y-181610000D01*
G04 #@! TO.C,J2*
X40580000Y-192980000D02*
X40580000Y-195640000D01*
X58420000Y-192980000D02*
X40580000Y-192980000D01*
X58420000Y-195640000D02*
X40580000Y-195640000D01*
X58420000Y-192980000D02*
X58420000Y-195640000D01*
X59690000Y-192980000D02*
X61020000Y-192980000D01*
X61020000Y-192980000D02*
X61020000Y-194310000D01*
G04 #@! TO.C,J1*
X275530000Y-26730000D02*
X278190000Y-26730000D01*
X275530000Y-21590000D02*
X275530000Y-26730000D01*
X278190000Y-21590000D02*
X278190000Y-26730000D01*
X275530000Y-21590000D02*
X278190000Y-21590000D01*
X275530000Y-20320000D02*
X275530000Y-18990000D01*
X275530000Y-18990000D02*
X276860000Y-18990000D01*
G04 #@! TO.C,D51*
X26630000Y-165100000D02*
G75*
G03*
X26630000Y-165100000I-2500000J0D01*
G01*
X25675000Y-162540000D02*
X22585000Y-162540000D01*
X24130462Y-168090000D02*
G75*
G02*
X22585170Y-162540000I-462J2990000D01*
G01*
X24129538Y-168090000D02*
G75*
G03*
X25674830Y-162540000I462J2990000D01*
G01*
G04 #@! TO.C,D50*
X21550000Y-118110000D02*
G75*
G03*
X21550000Y-118110000I-2500000J0D01*
G01*
X20595000Y-115550000D02*
X17505000Y-115550000D01*
X19050462Y-121100000D02*
G75*
G02*
X17505170Y-115550000I-462J2990000D01*
G01*
X19049538Y-121100000D02*
G75*
G03*
X20594830Y-115550000I462J2990000D01*
G01*
G04 #@! TO.C,D49*
X19010000Y-26670000D02*
G75*
G03*
X19010000Y-26670000I-2500000J0D01*
G01*
X18055000Y-24110000D02*
X14965000Y-24110000D01*
X16510462Y-29660000D02*
G75*
G02*
X14965170Y-24110000I-462J2990000D01*
G01*
X16509538Y-29660000D02*
G75*
G03*
X18054830Y-24110000I462J2990000D01*
G01*
G04 #@! TO.C,D48*
X115530000Y-133350000D02*
G75*
G03*
X115530000Y-133350000I-2500000J0D01*
G01*
X111485000Y-135910000D02*
X114575000Y-135910000D01*
X113029538Y-130360000D02*
G75*
G02*
X114574830Y-135910000I462J-2990000D01*
G01*
X113030462Y-130360000D02*
G75*
G03*
X111485170Y-135910000I-462J-2990000D01*
G01*
G04 #@! TO.C,D47*
X123150000Y-133350000D02*
G75*
G03*
X123150000Y-133350000I-2500000J0D01*
G01*
X119105000Y-135910000D02*
X122195000Y-135910000D01*
X120649538Y-130360000D02*
G75*
G02*
X122194830Y-135910000I462J-2990000D01*
G01*
X120650462Y-130360000D02*
G75*
G03*
X119105170Y-135910000I-462J-2990000D01*
G01*
G04 #@! TO.C,D46*
X130770000Y-133350000D02*
G75*
G03*
X130770000Y-133350000I-2500000J0D01*
G01*
X126725000Y-135910000D02*
X129815000Y-135910000D01*
X128269538Y-130360000D02*
G75*
G02*
X129814830Y-135910000I462J-2990000D01*
G01*
X128270462Y-130360000D02*
G75*
G03*
X126725170Y-135910000I-462J-2990000D01*
G01*
G04 #@! TO.C,D45*
X138390000Y-133350000D02*
G75*
G03*
X138390000Y-133350000I-2500000J0D01*
G01*
X134345000Y-135910000D02*
X137435000Y-135910000D01*
X135889538Y-130360000D02*
G75*
G02*
X137434830Y-135910000I462J-2990000D01*
G01*
X135890462Y-130360000D02*
G75*
G03*
X134345170Y-135910000I-462J-2990000D01*
G01*
G04 #@! TO.C,D44*
X146010000Y-133350000D02*
G75*
G03*
X146010000Y-133350000I-2500000J0D01*
G01*
X141965000Y-135910000D02*
X145055000Y-135910000D01*
X143509538Y-130360000D02*
G75*
G02*
X145054830Y-135910000I462J-2990000D01*
G01*
X143510462Y-130360000D02*
G75*
G03*
X141965170Y-135910000I-462J-2990000D01*
G01*
G04 #@! TO.C,D43*
X153630000Y-133350000D02*
G75*
G03*
X153630000Y-133350000I-2500000J0D01*
G01*
X149585000Y-135910000D02*
X152675000Y-135910000D01*
X151129538Y-130360000D02*
G75*
G02*
X152674830Y-135910000I462J-2990000D01*
G01*
X151130462Y-130360000D02*
G75*
G03*
X149585170Y-135910000I-462J-2990000D01*
G01*
G04 #@! TO.C,D42*
X161250000Y-133350000D02*
G75*
G03*
X161250000Y-133350000I-2500000J0D01*
G01*
X157205000Y-135910000D02*
X160295000Y-135910000D01*
X158749538Y-130360000D02*
G75*
G02*
X160294830Y-135910000I462J-2990000D01*
G01*
X158750462Y-130360000D02*
G75*
G03*
X157205170Y-135910000I-462J-2990000D01*
G01*
G04 #@! TO.C,D41*
X168870000Y-133350000D02*
G75*
G03*
X168870000Y-133350000I-2500000J0D01*
G01*
X164825000Y-135910000D02*
X167915000Y-135910000D01*
X166369538Y-130360000D02*
G75*
G02*
X167914830Y-135910000I462J-2990000D01*
G01*
X166370462Y-130360000D02*
G75*
G03*
X164825170Y-135910000I-462J-2990000D01*
G01*
G04 #@! TO.C,D40*
X26630000Y-133350000D02*
G75*
G03*
X26630000Y-133350000I-2500000J0D01*
G01*
X22585000Y-135910000D02*
X25675000Y-135910000D01*
X24129538Y-130360000D02*
G75*
G02*
X25674830Y-135910000I462J-2990000D01*
G01*
X24130462Y-130360000D02*
G75*
G03*
X22585170Y-135910000I-462J-2990000D01*
G01*
G04 #@! TO.C,D39*
X34250000Y-133350000D02*
G75*
G03*
X34250000Y-133350000I-2500000J0D01*
G01*
X30205000Y-135910000D02*
X33295000Y-135910000D01*
X31749538Y-130360000D02*
G75*
G02*
X33294830Y-135910000I462J-2990000D01*
G01*
X31750462Y-130360000D02*
G75*
G03*
X30205170Y-135910000I-462J-2990000D01*
G01*
G04 #@! TO.C,D38*
X41870000Y-133350000D02*
G75*
G03*
X41870000Y-133350000I-2500000J0D01*
G01*
X37825000Y-135910000D02*
X40915000Y-135910000D01*
X39369538Y-130360000D02*
G75*
G02*
X40914830Y-135910000I462J-2990000D01*
G01*
X39370462Y-130360000D02*
G75*
G03*
X37825170Y-135910000I-462J-2990000D01*
G01*
G04 #@! TO.C,D37*
X49490000Y-133350000D02*
G75*
G03*
X49490000Y-133350000I-2500000J0D01*
G01*
X45445000Y-135910000D02*
X48535000Y-135910000D01*
X46989538Y-130360000D02*
G75*
G02*
X48534830Y-135910000I462J-2990000D01*
G01*
X46990462Y-130360000D02*
G75*
G03*
X45445170Y-135910000I-462J-2990000D01*
G01*
G04 #@! TO.C,D36*
X57110000Y-133350000D02*
G75*
G03*
X57110000Y-133350000I-2500000J0D01*
G01*
X53065000Y-135910000D02*
X56155000Y-135910000D01*
X54609538Y-130360000D02*
G75*
G02*
X56154830Y-135910000I462J-2990000D01*
G01*
X54610462Y-130360000D02*
G75*
G03*
X53065170Y-135910000I-462J-2990000D01*
G01*
G04 #@! TO.C,D35*
X64730000Y-133350000D02*
G75*
G03*
X64730000Y-133350000I-2500000J0D01*
G01*
X60685000Y-135910000D02*
X63775000Y-135910000D01*
X62229538Y-130360000D02*
G75*
G02*
X63774830Y-135910000I462J-2990000D01*
G01*
X62230462Y-130360000D02*
G75*
G03*
X60685170Y-135910000I-462J-2990000D01*
G01*
G04 #@! TO.C,D34*
X72350000Y-133350000D02*
G75*
G03*
X72350000Y-133350000I-2500000J0D01*
G01*
X68305000Y-135910000D02*
X71395000Y-135910000D01*
X69849538Y-130360000D02*
G75*
G02*
X71394830Y-135910000I462J-2990000D01*
G01*
X69850462Y-130360000D02*
G75*
G03*
X68305170Y-135910000I-462J-2990000D01*
G01*
G04 #@! TO.C,D33*
X79970000Y-133350000D02*
G75*
G03*
X79970000Y-133350000I-2500000J0D01*
G01*
X75925000Y-135910000D02*
X79015000Y-135910000D01*
X77469538Y-130360000D02*
G75*
G02*
X79014830Y-135910000I462J-2990000D01*
G01*
X77470462Y-130360000D02*
G75*
G03*
X75925170Y-135910000I-462J-2990000D01*
G01*
G04 #@! TO.C,D32*
X214590000Y-45720000D02*
G75*
G03*
X214590000Y-45720000I-2500000J0D01*
G01*
X210545000Y-48280000D02*
X213635000Y-48280000D01*
X212089538Y-42730000D02*
G75*
G02*
X213634830Y-48280000I462J-2990000D01*
G01*
X212090462Y-42730000D02*
G75*
G03*
X210545170Y-48280000I-462J-2990000D01*
G01*
G04 #@! TO.C,D31*
X222210000Y-45720000D02*
G75*
G03*
X222210000Y-45720000I-2500000J0D01*
G01*
X218165000Y-48280000D02*
X221255000Y-48280000D01*
X219709538Y-42730000D02*
G75*
G02*
X221254830Y-48280000I462J-2990000D01*
G01*
X219710462Y-42730000D02*
G75*
G03*
X218165170Y-48280000I-462J-2990000D01*
G01*
G04 #@! TO.C,D30*
X229830000Y-45720000D02*
G75*
G03*
X229830000Y-45720000I-2500000J0D01*
G01*
X225785000Y-48280000D02*
X228875000Y-48280000D01*
X227329538Y-42730000D02*
G75*
G02*
X228874830Y-48280000I462J-2990000D01*
G01*
X227330462Y-42730000D02*
G75*
G03*
X225785170Y-48280000I-462J-2990000D01*
G01*
G04 #@! TO.C,D29*
X237450000Y-45720000D02*
G75*
G03*
X237450000Y-45720000I-2500000J0D01*
G01*
X233405000Y-48280000D02*
X236495000Y-48280000D01*
X234949538Y-42730000D02*
G75*
G02*
X236494830Y-48280000I462J-2990000D01*
G01*
X234950462Y-42730000D02*
G75*
G03*
X233405170Y-48280000I-462J-2990000D01*
G01*
G04 #@! TO.C,D28*
X245070000Y-45720000D02*
G75*
G03*
X245070000Y-45720000I-2500000J0D01*
G01*
X241025000Y-48280000D02*
X244115000Y-48280000D01*
X242569538Y-42730000D02*
G75*
G02*
X244114830Y-48280000I462J-2990000D01*
G01*
X242570462Y-42730000D02*
G75*
G03*
X241025170Y-48280000I-462J-2990000D01*
G01*
G04 #@! TO.C,D27*
X252690000Y-45720000D02*
G75*
G03*
X252690000Y-45720000I-2500000J0D01*
G01*
X248645000Y-48280000D02*
X251735000Y-48280000D01*
X250189538Y-42730000D02*
G75*
G02*
X251734830Y-48280000I462J-2990000D01*
G01*
X250190462Y-42730000D02*
G75*
G03*
X248645170Y-48280000I-462J-2990000D01*
G01*
G04 #@! TO.C,D26*
X260310000Y-45720000D02*
G75*
G03*
X260310000Y-45720000I-2500000J0D01*
G01*
X256265000Y-48280000D02*
X259355000Y-48280000D01*
X257809538Y-42730000D02*
G75*
G02*
X259354830Y-48280000I462J-2990000D01*
G01*
X257810462Y-42730000D02*
G75*
G03*
X256265170Y-48280000I-462J-2990000D01*
G01*
G04 #@! TO.C,D25*
X267930000Y-45720000D02*
G75*
G03*
X267930000Y-45720000I-2500000J0D01*
G01*
X263885000Y-48280000D02*
X266975000Y-48280000D01*
X265429538Y-42730000D02*
G75*
G02*
X266974830Y-48280000I462J-2990000D01*
G01*
X265430462Y-42730000D02*
G75*
G03*
X263885170Y-48280000I-462J-2990000D01*
G01*
G04 #@! TO.C,D24*
X149820000Y-45720000D02*
G75*
G03*
X149820000Y-45720000I-2500000J0D01*
G01*
X145775000Y-48280000D02*
X148865000Y-48280000D01*
X147319538Y-42730000D02*
G75*
G02*
X148864830Y-48280000I462J-2990000D01*
G01*
X147320462Y-42730000D02*
G75*
G03*
X145775170Y-48280000I-462J-2990000D01*
G01*
G04 #@! TO.C,D23*
X157440000Y-45720000D02*
G75*
G03*
X157440000Y-45720000I-2500000J0D01*
G01*
X153395000Y-48280000D02*
X156485000Y-48280000D01*
X154939538Y-42730000D02*
G75*
G02*
X156484830Y-48280000I462J-2990000D01*
G01*
X154940462Y-42730000D02*
G75*
G03*
X153395170Y-48280000I-462J-2990000D01*
G01*
G04 #@! TO.C,D22*
X165060000Y-45720000D02*
G75*
G03*
X165060000Y-45720000I-2500000J0D01*
G01*
X161015000Y-48280000D02*
X164105000Y-48280000D01*
X162559538Y-42730000D02*
G75*
G02*
X164104830Y-48280000I462J-2990000D01*
G01*
X162560462Y-42730000D02*
G75*
G03*
X161015170Y-48280000I-462J-2990000D01*
G01*
G04 #@! TO.C,D21*
X172680000Y-45720000D02*
G75*
G03*
X172680000Y-45720000I-2500000J0D01*
G01*
X168635000Y-48280000D02*
X171725000Y-48280000D01*
X170179538Y-42730000D02*
G75*
G02*
X171724830Y-48280000I462J-2990000D01*
G01*
X170180462Y-42730000D02*
G75*
G03*
X168635170Y-48280000I-462J-2990000D01*
G01*
G04 #@! TO.C,D20*
X180300000Y-45720000D02*
G75*
G03*
X180300000Y-45720000I-2500000J0D01*
G01*
X176255000Y-48280000D02*
X179345000Y-48280000D01*
X177799538Y-42730000D02*
G75*
G02*
X179344830Y-48280000I462J-2990000D01*
G01*
X177800462Y-42730000D02*
G75*
G03*
X176255170Y-48280000I-462J-2990000D01*
G01*
G04 #@! TO.C,D19*
X187920000Y-45720000D02*
G75*
G03*
X187920000Y-45720000I-2500000J0D01*
G01*
X183875000Y-48280000D02*
X186965000Y-48280000D01*
X185419538Y-42730000D02*
G75*
G02*
X186964830Y-48280000I462J-2990000D01*
G01*
X185420462Y-42730000D02*
G75*
G03*
X183875170Y-48280000I-462J-2990000D01*
G01*
G04 #@! TO.C,D18*
X195540000Y-45720000D02*
G75*
G03*
X195540000Y-45720000I-2500000J0D01*
G01*
X191495000Y-48280000D02*
X194585000Y-48280000D01*
X193039538Y-42730000D02*
G75*
G02*
X194584830Y-48280000I462J-2990000D01*
G01*
X193040462Y-42730000D02*
G75*
G03*
X191495170Y-48280000I-462J-2990000D01*
G01*
G04 #@! TO.C,D17*
X203160000Y-45720000D02*
G75*
G03*
X203160000Y-45720000I-2500000J0D01*
G01*
X199115000Y-48280000D02*
X202205000Y-48280000D01*
X200659538Y-42730000D02*
G75*
G02*
X202204830Y-48280000I462J-2990000D01*
G01*
X200660462Y-42730000D02*
G75*
G03*
X199115170Y-48280000I-462J-2990000D01*
G01*
G04 #@! TO.C,D16*
X85050000Y-45720000D02*
G75*
G03*
X85050000Y-45720000I-2500000J0D01*
G01*
X81005000Y-48280000D02*
X84095000Y-48280000D01*
X82549538Y-42730000D02*
G75*
G02*
X84094830Y-48280000I462J-2990000D01*
G01*
X82550462Y-42730000D02*
G75*
G03*
X81005170Y-48280000I-462J-2990000D01*
G01*
G04 #@! TO.C,D15*
X92670000Y-45720000D02*
G75*
G03*
X92670000Y-45720000I-2500000J0D01*
G01*
X88625000Y-48280000D02*
X91715000Y-48280000D01*
X90169538Y-42730000D02*
G75*
G02*
X91714830Y-48280000I462J-2990000D01*
G01*
X90170462Y-42730000D02*
G75*
G03*
X88625170Y-48280000I-462J-2990000D01*
G01*
G04 #@! TO.C,D14*
X100290000Y-45720000D02*
G75*
G03*
X100290000Y-45720000I-2500000J0D01*
G01*
X96245000Y-48280000D02*
X99335000Y-48280000D01*
X97789538Y-42730000D02*
G75*
G02*
X99334830Y-48280000I462J-2990000D01*
G01*
X97790462Y-42730000D02*
G75*
G03*
X96245170Y-48280000I-462J-2990000D01*
G01*
G04 #@! TO.C,D13*
X107910000Y-45720000D02*
G75*
G03*
X107910000Y-45720000I-2500000J0D01*
G01*
X103865000Y-48280000D02*
X106955000Y-48280000D01*
X105409538Y-42730000D02*
G75*
G02*
X106954830Y-48280000I462J-2990000D01*
G01*
X105410462Y-42730000D02*
G75*
G03*
X103865170Y-48280000I-462J-2990000D01*
G01*
G04 #@! TO.C,D12*
X115530000Y-45720000D02*
G75*
G03*
X115530000Y-45720000I-2500000J0D01*
G01*
X111485000Y-48280000D02*
X114575000Y-48280000D01*
X113029538Y-42730000D02*
G75*
G02*
X114574830Y-48280000I462J-2990000D01*
G01*
X113030462Y-42730000D02*
G75*
G03*
X111485170Y-48280000I-462J-2990000D01*
G01*
G04 #@! TO.C,D11*
X123150000Y-45720000D02*
G75*
G03*
X123150000Y-45720000I-2500000J0D01*
G01*
X119105000Y-48280000D02*
X122195000Y-48280000D01*
X120649538Y-42730000D02*
G75*
G02*
X122194830Y-48280000I462J-2990000D01*
G01*
X120650462Y-42730000D02*
G75*
G03*
X119105170Y-48280000I-462J-2990000D01*
G01*
G04 #@! TO.C,D10*
X130770000Y-45720000D02*
G75*
G03*
X130770000Y-45720000I-2500000J0D01*
G01*
X126725000Y-48280000D02*
X129815000Y-48280000D01*
X128269538Y-42730000D02*
G75*
G02*
X129814830Y-48280000I462J-2990000D01*
G01*
X128270462Y-42730000D02*
G75*
G03*
X126725170Y-48280000I-462J-2990000D01*
G01*
G04 #@! TO.C,D9*
X138390000Y-45720000D02*
G75*
G03*
X138390000Y-45720000I-2500000J0D01*
G01*
X134345000Y-48280000D02*
X137435000Y-48280000D01*
X135889538Y-42730000D02*
G75*
G02*
X137434830Y-48280000I462J-2990000D01*
G01*
X135890462Y-42730000D02*
G75*
G03*
X134345170Y-48280000I-462J-2990000D01*
G01*
G04 #@! TO.C,D8*
X20280000Y-45720000D02*
G75*
G03*
X20280000Y-45720000I-2500000J0D01*
G01*
X16235000Y-48280000D02*
X19325000Y-48280000D01*
X17779538Y-42730000D02*
G75*
G02*
X19324830Y-48280000I462J-2990000D01*
G01*
X17780462Y-42730000D02*
G75*
G03*
X16235170Y-48280000I-462J-2990000D01*
G01*
G04 #@! TO.C,D7*
X27900000Y-45720000D02*
G75*
G03*
X27900000Y-45720000I-2500000J0D01*
G01*
X23855000Y-48280000D02*
X26945000Y-48280000D01*
X25399538Y-42730000D02*
G75*
G02*
X26944830Y-48280000I462J-2990000D01*
G01*
X25400462Y-42730000D02*
G75*
G03*
X23855170Y-48280000I-462J-2990000D01*
G01*
G04 #@! TO.C,D6*
X35520000Y-45720000D02*
G75*
G03*
X35520000Y-45720000I-2500000J0D01*
G01*
X31475000Y-48280000D02*
X34565000Y-48280000D01*
X33019538Y-42730000D02*
G75*
G02*
X34564830Y-48280000I462J-2990000D01*
G01*
X33020462Y-42730000D02*
G75*
G03*
X31475170Y-48280000I-462J-2990000D01*
G01*
G04 #@! TO.C,D5*
X43140000Y-45720000D02*
G75*
G03*
X43140000Y-45720000I-2500000J0D01*
G01*
X39095000Y-48280000D02*
X42185000Y-48280000D01*
X40639538Y-42730000D02*
G75*
G02*
X42184830Y-48280000I462J-2990000D01*
G01*
X40640462Y-42730000D02*
G75*
G03*
X39095170Y-48280000I-462J-2990000D01*
G01*
G04 #@! TO.C,D4*
X50760000Y-45720000D02*
G75*
G03*
X50760000Y-45720000I-2500000J0D01*
G01*
X46715000Y-48280000D02*
X49805000Y-48280000D01*
X48259538Y-42730000D02*
G75*
G02*
X49804830Y-48280000I462J-2990000D01*
G01*
X48260462Y-42730000D02*
G75*
G03*
X46715170Y-48280000I-462J-2990000D01*
G01*
G04 #@! TO.C,D3*
X58380000Y-45720000D02*
G75*
G03*
X58380000Y-45720000I-2500000J0D01*
G01*
X54335000Y-48280000D02*
X57425000Y-48280000D01*
X55879538Y-42730000D02*
G75*
G02*
X57424830Y-48280000I462J-2990000D01*
G01*
X55880462Y-42730000D02*
G75*
G03*
X54335170Y-48280000I-462J-2990000D01*
G01*
G04 #@! TO.C,D2*
X66000000Y-45720000D02*
G75*
G03*
X66000000Y-45720000I-2500000J0D01*
G01*
X61955000Y-48280000D02*
X65045000Y-48280000D01*
X63499538Y-42730000D02*
G75*
G02*
X65044830Y-48280000I462J-2990000D01*
G01*
X63500462Y-42730000D02*
G75*
G03*
X61955170Y-48280000I-462J-2990000D01*
G01*
G04 #@! TO.C,D1*
X73620000Y-45720000D02*
G75*
G03*
X73620000Y-45720000I-2500000J0D01*
G01*
X69575000Y-48280000D02*
X72665000Y-48280000D01*
X71119538Y-42730000D02*
G75*
G02*
X72664830Y-48280000I462J-2990000D01*
G01*
X71120462Y-42730000D02*
G75*
G03*
X69575170Y-48280000I-462J-2990000D01*
G01*
G04 #@! TO.C,C16*
X220080000Y-121770000D02*
X216840000Y-121770000D01*
X220080000Y-119530000D02*
X216840000Y-119530000D01*
X220080000Y-121770000D02*
X220080000Y-121705000D01*
X220080000Y-119595000D02*
X220080000Y-119530000D01*
X216840000Y-121770000D02*
X216840000Y-121705000D01*
X216840000Y-119595000D02*
X216840000Y-119530000D01*
G04 #@! TO.C,C15*
X36680000Y-163460000D02*
X36680000Y-166700000D01*
X34440000Y-163460000D02*
X34440000Y-166700000D01*
X36680000Y-163460000D02*
X36615000Y-163460000D01*
X34505000Y-163460000D02*
X34440000Y-163460000D01*
X36680000Y-166700000D02*
X36615000Y-166700000D01*
X34505000Y-166700000D02*
X34440000Y-166700000D01*
G04 #@! TO.C,C14*
X272150000Y-76050000D02*
X268910000Y-76050000D01*
X272150000Y-73810000D02*
X268910000Y-73810000D01*
X272150000Y-76050000D02*
X272150000Y-75985000D01*
X272150000Y-73875000D02*
X272150000Y-73810000D01*
X268910000Y-76050000D02*
X268910000Y-75985000D01*
X268910000Y-73875000D02*
X268910000Y-73810000D01*
G04 #@! TO.C,C13*
X237860000Y-76050000D02*
X234620000Y-76050000D01*
X237860000Y-73810000D02*
X234620000Y-73810000D01*
X237860000Y-76050000D02*
X237860000Y-75985000D01*
X237860000Y-73875000D02*
X237860000Y-73810000D01*
X234620000Y-76050000D02*
X234620000Y-75985000D01*
X234620000Y-73875000D02*
X234620000Y-73810000D01*
G04 #@! TO.C,C12*
X203570000Y-76050000D02*
X200330000Y-76050000D01*
X203570000Y-73810000D02*
X200330000Y-73810000D01*
X203570000Y-76050000D02*
X203570000Y-75985000D01*
X203570000Y-73875000D02*
X203570000Y-73810000D01*
X200330000Y-76050000D02*
X200330000Y-75985000D01*
X200330000Y-73875000D02*
X200330000Y-73810000D01*
G04 #@! TO.C,C11*
X169280000Y-74780000D02*
X166040000Y-74780000D01*
X169280000Y-72540000D02*
X166040000Y-72540000D01*
X169280000Y-74780000D02*
X169280000Y-74715000D01*
X169280000Y-72605000D02*
X169280000Y-72540000D01*
X166040000Y-74780000D02*
X166040000Y-74715000D01*
X166040000Y-72605000D02*
X166040000Y-72540000D01*
G04 #@! TO.C,C10*
X133720000Y-74780000D02*
X130480000Y-74780000D01*
X133720000Y-72540000D02*
X130480000Y-72540000D01*
X133720000Y-74780000D02*
X133720000Y-74715000D01*
X133720000Y-72605000D02*
X133720000Y-72540000D01*
X130480000Y-74780000D02*
X130480000Y-74715000D01*
X130480000Y-72605000D02*
X130480000Y-72540000D01*
G04 #@! TO.C,C9*
X99430000Y-74780000D02*
X96190000Y-74780000D01*
X99430000Y-72540000D02*
X96190000Y-72540000D01*
X99430000Y-74780000D02*
X99430000Y-74715000D01*
X99430000Y-72605000D02*
X99430000Y-72540000D01*
X96190000Y-74780000D02*
X96190000Y-74715000D01*
X96190000Y-72605000D02*
X96190000Y-72540000D01*
G04 #@! TO.C,C8*
X66410000Y-76050000D02*
X63170000Y-76050000D01*
X66410000Y-73810000D02*
X63170000Y-73810000D01*
X66410000Y-76050000D02*
X66410000Y-75985000D01*
X66410000Y-73875000D02*
X66410000Y-73810000D01*
X63170000Y-76050000D02*
X63170000Y-75985000D01*
X63170000Y-73875000D02*
X63170000Y-73810000D01*
G04 #@! TO.C,C7*
X33390000Y-76050000D02*
X30150000Y-76050000D01*
X33390000Y-73810000D02*
X30150000Y-73810000D01*
X33390000Y-76050000D02*
X33390000Y-75985000D01*
X33390000Y-73875000D02*
X33390000Y-73810000D01*
X30150000Y-76050000D02*
X30150000Y-75985000D01*
X30150000Y-73875000D02*
X30150000Y-73810000D01*
G04 #@! TO.C,C6*
X124310000Y-116470000D02*
X124310000Y-119710000D01*
X122070000Y-116470000D02*
X122070000Y-119710000D01*
X124310000Y-116470000D02*
X124245000Y-116470000D01*
X122135000Y-116470000D02*
X122070000Y-116470000D01*
X124310000Y-119710000D02*
X124245000Y-119710000D01*
X122135000Y-119710000D02*
X122070000Y-119710000D01*
G04 #@! TO.C,C5*
X35410000Y-116470000D02*
X35410000Y-119710000D01*
X33170000Y-116470000D02*
X33170000Y-119710000D01*
X35410000Y-116470000D02*
X35345000Y-116470000D01*
X33235000Y-116470000D02*
X33170000Y-116470000D01*
X35410000Y-119710000D02*
X35345000Y-119710000D01*
X33235000Y-119710000D02*
X33170000Y-119710000D01*
G04 #@! TO.C,C4*
X222100000Y-28840000D02*
X222100000Y-32080000D01*
X219860000Y-28840000D02*
X219860000Y-32080000D01*
X222100000Y-28840000D02*
X222035000Y-28840000D01*
X219925000Y-28840000D02*
X219860000Y-28840000D01*
X222100000Y-32080000D02*
X222035000Y-32080000D01*
X219925000Y-32080000D02*
X219860000Y-32080000D01*
G04 #@! TO.C,C3*
X157330000Y-30110000D02*
X157330000Y-33350000D01*
X155090000Y-30110000D02*
X155090000Y-33350000D01*
X157330000Y-30110000D02*
X157265000Y-30110000D01*
X155155000Y-30110000D02*
X155090000Y-30110000D01*
X157330000Y-33350000D02*
X157265000Y-33350000D01*
X155155000Y-33350000D02*
X155090000Y-33350000D01*
G04 #@! TO.C,C2*
X93830000Y-30110000D02*
X93830000Y-33350000D01*
X91590000Y-30110000D02*
X91590000Y-33350000D01*
X93830000Y-30110000D02*
X93765000Y-30110000D01*
X91655000Y-30110000D02*
X91590000Y-30110000D01*
X93830000Y-33350000D02*
X93765000Y-33350000D01*
X91655000Y-33350000D02*
X91590000Y-33350000D01*
G04 #@! TO.C,C1*
X29060000Y-28840000D02*
X29060000Y-32080000D01*
X26820000Y-28840000D02*
X26820000Y-32080000D01*
X29060000Y-28840000D02*
X28995000Y-28840000D01*
X26885000Y-28840000D02*
X26820000Y-28840000D01*
X29060000Y-32080000D02*
X28995000Y-32080000D01*
X26885000Y-32080000D02*
X26820000Y-32080000D01*
G04 #@! TO.C,J11*
D11*
X265890476Y-17442380D02*
X265890476Y-18156666D01*
X265842857Y-18299523D01*
X265747619Y-18394761D01*
X265604761Y-18442380D01*
X265509523Y-18442380D01*
X266890476Y-18442380D02*
X266319047Y-18442380D01*
X266604761Y-18442380D02*
X266604761Y-17442380D01*
X266509523Y-17585238D01*
X266414285Y-17680476D01*
X266319047Y-17728095D01*
X267842857Y-18442380D02*
X267271428Y-18442380D01*
X267557142Y-18442380D02*
X267557142Y-17442380D01*
X267461904Y-17585238D01*
X267366666Y-17680476D01*
X267271428Y-17728095D01*
G04 #@! TO.C,U16*
X217201904Y-122852380D02*
X217201904Y-123661904D01*
X217249523Y-123757142D01*
X217297142Y-123804761D01*
X217392380Y-123852380D01*
X217582857Y-123852380D01*
X217678095Y-123804761D01*
X217725714Y-123757142D01*
X217773333Y-123661904D01*
X217773333Y-122852380D01*
X218773333Y-123852380D02*
X218201904Y-123852380D01*
X218487619Y-123852380D02*
X218487619Y-122852380D01*
X218392380Y-122995238D01*
X218297142Y-123090476D01*
X218201904Y-123138095D01*
X219630476Y-122852380D02*
X219440000Y-122852380D01*
X219344761Y-122900000D01*
X219297142Y-122947619D01*
X219201904Y-123090476D01*
X219154285Y-123280952D01*
X219154285Y-123661904D01*
X219201904Y-123757142D01*
X219249523Y-123804761D01*
X219344761Y-123852380D01*
X219535238Y-123852380D01*
X219630476Y-123804761D01*
X219678095Y-123757142D01*
X219725714Y-123661904D01*
X219725714Y-123423809D01*
X219678095Y-123328571D01*
X219630476Y-123280952D01*
X219535238Y-123233333D01*
X219344761Y-123233333D01*
X219249523Y-123280952D01*
X219201904Y-123328571D01*
X219154285Y-123423809D01*
G04 #@! TO.C,U15*
X36492380Y-166338095D02*
X37301904Y-166338095D01*
X37397142Y-166290476D01*
X37444761Y-166242857D01*
X37492380Y-166147619D01*
X37492380Y-165957142D01*
X37444761Y-165861904D01*
X37397142Y-165814285D01*
X37301904Y-165766666D01*
X36492380Y-165766666D01*
X37492380Y-164766666D02*
X37492380Y-165338095D01*
X37492380Y-165052380D02*
X36492380Y-165052380D01*
X36635238Y-165147619D01*
X36730476Y-165242857D01*
X36778095Y-165338095D01*
X36492380Y-163861904D02*
X36492380Y-164338095D01*
X36968571Y-164385714D01*
X36920952Y-164338095D01*
X36873333Y-164242857D01*
X36873333Y-164004761D01*
X36920952Y-163909523D01*
X36968571Y-163861904D01*
X37063809Y-163814285D01*
X37301904Y-163814285D01*
X37397142Y-163861904D01*
X37444761Y-163909523D01*
X37492380Y-164004761D01*
X37492380Y-164242857D01*
X37444761Y-164338095D01*
X37397142Y-164385714D01*
G04 #@! TO.C,U14*
X269271904Y-78402380D02*
X269271904Y-79211904D01*
X269319523Y-79307142D01*
X269367142Y-79354761D01*
X269462380Y-79402380D01*
X269652857Y-79402380D01*
X269748095Y-79354761D01*
X269795714Y-79307142D01*
X269843333Y-79211904D01*
X269843333Y-78402380D01*
X270843333Y-79402380D02*
X270271904Y-79402380D01*
X270557619Y-79402380D02*
X270557619Y-78402380D01*
X270462380Y-78545238D01*
X270367142Y-78640476D01*
X270271904Y-78688095D01*
X271700476Y-78735714D02*
X271700476Y-79402380D01*
X271462380Y-78354761D02*
X271224285Y-79069047D01*
X271843333Y-79069047D01*
G04 #@! TO.C,U13*
X234981904Y-78402380D02*
X234981904Y-79211904D01*
X235029523Y-79307142D01*
X235077142Y-79354761D01*
X235172380Y-79402380D01*
X235362857Y-79402380D01*
X235458095Y-79354761D01*
X235505714Y-79307142D01*
X235553333Y-79211904D01*
X235553333Y-78402380D01*
X236553333Y-79402380D02*
X235981904Y-79402380D01*
X236267619Y-79402380D02*
X236267619Y-78402380D01*
X236172380Y-78545238D01*
X236077142Y-78640476D01*
X235981904Y-78688095D01*
X236886666Y-78402380D02*
X237505714Y-78402380D01*
X237172380Y-78783333D01*
X237315238Y-78783333D01*
X237410476Y-78830952D01*
X237458095Y-78878571D01*
X237505714Y-78973809D01*
X237505714Y-79211904D01*
X237458095Y-79307142D01*
X237410476Y-79354761D01*
X237315238Y-79402380D01*
X237029523Y-79402380D01*
X236934285Y-79354761D01*
X236886666Y-79307142D01*
G04 #@! TO.C,U12*
X200691904Y-78402380D02*
X200691904Y-79211904D01*
X200739523Y-79307142D01*
X200787142Y-79354761D01*
X200882380Y-79402380D01*
X201072857Y-79402380D01*
X201168095Y-79354761D01*
X201215714Y-79307142D01*
X201263333Y-79211904D01*
X201263333Y-78402380D01*
X202263333Y-79402380D02*
X201691904Y-79402380D01*
X201977619Y-79402380D02*
X201977619Y-78402380D01*
X201882380Y-78545238D01*
X201787142Y-78640476D01*
X201691904Y-78688095D01*
X202644285Y-78497619D02*
X202691904Y-78450000D01*
X202787142Y-78402380D01*
X203025238Y-78402380D01*
X203120476Y-78450000D01*
X203168095Y-78497619D01*
X203215714Y-78592857D01*
X203215714Y-78688095D01*
X203168095Y-78830952D01*
X202596666Y-79402380D01*
X203215714Y-79402380D01*
G04 #@! TO.C,U11*
X166401904Y-77132380D02*
X166401904Y-77941904D01*
X166449523Y-78037142D01*
X166497142Y-78084761D01*
X166592380Y-78132380D01*
X166782857Y-78132380D01*
X166878095Y-78084761D01*
X166925714Y-78037142D01*
X166973333Y-77941904D01*
X166973333Y-77132380D01*
X167973333Y-78132380D02*
X167401904Y-78132380D01*
X167687619Y-78132380D02*
X167687619Y-77132380D01*
X167592380Y-77275238D01*
X167497142Y-77370476D01*
X167401904Y-77418095D01*
X168925714Y-78132380D02*
X168354285Y-78132380D01*
X168640000Y-78132380D02*
X168640000Y-77132380D01*
X168544761Y-77275238D01*
X168449523Y-77370476D01*
X168354285Y-77418095D01*
G04 #@! TO.C,U10*
X130841904Y-77132380D02*
X130841904Y-77941904D01*
X130889523Y-78037142D01*
X130937142Y-78084761D01*
X131032380Y-78132380D01*
X131222857Y-78132380D01*
X131318095Y-78084761D01*
X131365714Y-78037142D01*
X131413333Y-77941904D01*
X131413333Y-77132380D01*
X132413333Y-78132380D02*
X131841904Y-78132380D01*
X132127619Y-78132380D02*
X132127619Y-77132380D01*
X132032380Y-77275238D01*
X131937142Y-77370476D01*
X131841904Y-77418095D01*
X133032380Y-77132380D02*
X133127619Y-77132380D01*
X133222857Y-77180000D01*
X133270476Y-77227619D01*
X133318095Y-77322857D01*
X133365714Y-77513333D01*
X133365714Y-77751428D01*
X133318095Y-77941904D01*
X133270476Y-78037142D01*
X133222857Y-78084761D01*
X133127619Y-78132380D01*
X133032380Y-78132380D01*
X132937142Y-78084761D01*
X132889523Y-78037142D01*
X132841904Y-77941904D01*
X132794285Y-77751428D01*
X132794285Y-77513333D01*
X132841904Y-77322857D01*
X132889523Y-77227619D01*
X132937142Y-77180000D01*
X133032380Y-77132380D01*
G04 #@! TO.C,U9*
X97028095Y-77132380D02*
X97028095Y-77941904D01*
X97075714Y-78037142D01*
X97123333Y-78084761D01*
X97218571Y-78132380D01*
X97409047Y-78132380D01*
X97504285Y-78084761D01*
X97551904Y-78037142D01*
X97599523Y-77941904D01*
X97599523Y-77132380D01*
X98123333Y-78132380D02*
X98313809Y-78132380D01*
X98409047Y-78084761D01*
X98456666Y-78037142D01*
X98551904Y-77894285D01*
X98599523Y-77703809D01*
X98599523Y-77322857D01*
X98551904Y-77227619D01*
X98504285Y-77180000D01*
X98409047Y-77132380D01*
X98218571Y-77132380D01*
X98123333Y-77180000D01*
X98075714Y-77227619D01*
X98028095Y-77322857D01*
X98028095Y-77560952D01*
X98075714Y-77656190D01*
X98123333Y-77703809D01*
X98218571Y-77751428D01*
X98409047Y-77751428D01*
X98504285Y-77703809D01*
X98551904Y-77656190D01*
X98599523Y-77560952D01*
G04 #@! TO.C,U8*
X64008095Y-77132380D02*
X64008095Y-77941904D01*
X64055714Y-78037142D01*
X64103333Y-78084761D01*
X64198571Y-78132380D01*
X64389047Y-78132380D01*
X64484285Y-78084761D01*
X64531904Y-78037142D01*
X64579523Y-77941904D01*
X64579523Y-77132380D01*
X65198571Y-77560952D02*
X65103333Y-77513333D01*
X65055714Y-77465714D01*
X65008095Y-77370476D01*
X65008095Y-77322857D01*
X65055714Y-77227619D01*
X65103333Y-77180000D01*
X65198571Y-77132380D01*
X65389047Y-77132380D01*
X65484285Y-77180000D01*
X65531904Y-77227619D01*
X65579523Y-77322857D01*
X65579523Y-77370476D01*
X65531904Y-77465714D01*
X65484285Y-77513333D01*
X65389047Y-77560952D01*
X65198571Y-77560952D01*
X65103333Y-77608571D01*
X65055714Y-77656190D01*
X65008095Y-77751428D01*
X65008095Y-77941904D01*
X65055714Y-78037142D01*
X65103333Y-78084761D01*
X65198571Y-78132380D01*
X65389047Y-78132380D01*
X65484285Y-78084761D01*
X65531904Y-78037142D01*
X65579523Y-77941904D01*
X65579523Y-77751428D01*
X65531904Y-77656190D01*
X65484285Y-77608571D01*
X65389047Y-77560952D01*
G04 #@! TO.C,U7*
X30988095Y-77132380D02*
X30988095Y-77941904D01*
X31035714Y-78037142D01*
X31083333Y-78084761D01*
X31178571Y-78132380D01*
X31369047Y-78132380D01*
X31464285Y-78084761D01*
X31511904Y-78037142D01*
X31559523Y-77941904D01*
X31559523Y-77132380D01*
X31940476Y-77132380D02*
X32607142Y-77132380D01*
X32178571Y-78132380D01*
G04 #@! TO.C,U6*
X126662380Y-118871904D02*
X127471904Y-118871904D01*
X127567142Y-118824285D01*
X127614761Y-118776666D01*
X127662380Y-118681428D01*
X127662380Y-118490952D01*
X127614761Y-118395714D01*
X127567142Y-118348095D01*
X127471904Y-118300476D01*
X126662380Y-118300476D01*
X126662380Y-117395714D02*
X126662380Y-117586190D01*
X126710000Y-117681428D01*
X126757619Y-117729047D01*
X126900476Y-117824285D01*
X127090952Y-117871904D01*
X127471904Y-117871904D01*
X127567142Y-117824285D01*
X127614761Y-117776666D01*
X127662380Y-117681428D01*
X127662380Y-117490952D01*
X127614761Y-117395714D01*
X127567142Y-117348095D01*
X127471904Y-117300476D01*
X127233809Y-117300476D01*
X127138571Y-117348095D01*
X127090952Y-117395714D01*
X127043333Y-117490952D01*
X127043333Y-117681428D01*
X127090952Y-117776666D01*
X127138571Y-117824285D01*
X127233809Y-117871904D01*
G04 #@! TO.C,U5*
X36492380Y-118871904D02*
X37301904Y-118871904D01*
X37397142Y-118824285D01*
X37444761Y-118776666D01*
X37492380Y-118681428D01*
X37492380Y-118490952D01*
X37444761Y-118395714D01*
X37397142Y-118348095D01*
X37301904Y-118300476D01*
X36492380Y-118300476D01*
X36492380Y-117348095D02*
X36492380Y-117824285D01*
X36968571Y-117871904D01*
X36920952Y-117824285D01*
X36873333Y-117729047D01*
X36873333Y-117490952D01*
X36920952Y-117395714D01*
X36968571Y-117348095D01*
X37063809Y-117300476D01*
X37301904Y-117300476D01*
X37397142Y-117348095D01*
X37444761Y-117395714D01*
X37492380Y-117490952D01*
X37492380Y-117729047D01*
X37444761Y-117824285D01*
X37397142Y-117871904D01*
G04 #@! TO.C,U4*
X223182380Y-32511904D02*
X223991904Y-32511904D01*
X224087142Y-32464285D01*
X224134761Y-32416666D01*
X224182380Y-32321428D01*
X224182380Y-32130952D01*
X224134761Y-32035714D01*
X224087142Y-31988095D01*
X223991904Y-31940476D01*
X223182380Y-31940476D01*
X223515714Y-31035714D02*
X224182380Y-31035714D01*
X223134761Y-31273809D02*
X223849047Y-31511904D01*
X223849047Y-30892857D01*
G04 #@! TO.C,U3*
X159682380Y-32511904D02*
X160491904Y-32511904D01*
X160587142Y-32464285D01*
X160634761Y-32416666D01*
X160682380Y-32321428D01*
X160682380Y-32130952D01*
X160634761Y-32035714D01*
X160587142Y-31988095D01*
X160491904Y-31940476D01*
X159682380Y-31940476D01*
X159682380Y-31559523D02*
X159682380Y-30940476D01*
X160063333Y-31273809D01*
X160063333Y-31130952D01*
X160110952Y-31035714D01*
X160158571Y-30988095D01*
X160253809Y-30940476D01*
X160491904Y-30940476D01*
X160587142Y-30988095D01*
X160634761Y-31035714D01*
X160682380Y-31130952D01*
X160682380Y-31416666D01*
X160634761Y-31511904D01*
X160587142Y-31559523D01*
G04 #@! TO.C,U2*
X94912380Y-32511904D02*
X95721904Y-32511904D01*
X95817142Y-32464285D01*
X95864761Y-32416666D01*
X95912380Y-32321428D01*
X95912380Y-32130952D01*
X95864761Y-32035714D01*
X95817142Y-31988095D01*
X95721904Y-31940476D01*
X94912380Y-31940476D01*
X95007619Y-31511904D02*
X94960000Y-31464285D01*
X94912380Y-31369047D01*
X94912380Y-31130952D01*
X94960000Y-31035714D01*
X95007619Y-30988095D01*
X95102857Y-30940476D01*
X95198095Y-30940476D01*
X95340952Y-30988095D01*
X95912380Y-31559523D01*
X95912380Y-30940476D01*
G04 #@! TO.C,U1*
X30142380Y-32511904D02*
X30951904Y-32511904D01*
X31047142Y-32464285D01*
X31094761Y-32416666D01*
X31142380Y-32321428D01*
X31142380Y-32130952D01*
X31094761Y-32035714D01*
X31047142Y-31988095D01*
X30951904Y-31940476D01*
X30142380Y-31940476D01*
X31142380Y-30940476D02*
X31142380Y-31511904D01*
X31142380Y-31226190D02*
X30142380Y-31226190D01*
X30285238Y-31321428D01*
X30380476Y-31416666D01*
X30428095Y-31511904D01*
G04 #@! TO.C,RN6*
X139009523Y-140292380D02*
X138676190Y-139816190D01*
X138438095Y-140292380D02*
X138438095Y-139292380D01*
X138819047Y-139292380D01*
X138914285Y-139340000D01*
X138961904Y-139387619D01*
X139009523Y-139482857D01*
X139009523Y-139625714D01*
X138961904Y-139720952D01*
X138914285Y-139768571D01*
X138819047Y-139816190D01*
X138438095Y-139816190D01*
X139438095Y-140292380D02*
X139438095Y-139292380D01*
X140009523Y-140292380D01*
X140009523Y-139292380D01*
X140914285Y-139292380D02*
X140723809Y-139292380D01*
X140628571Y-139340000D01*
X140580952Y-139387619D01*
X140485714Y-139530476D01*
X140438095Y-139720952D01*
X140438095Y-140101904D01*
X140485714Y-140197142D01*
X140533333Y-140244761D01*
X140628571Y-140292380D01*
X140819047Y-140292380D01*
X140914285Y-140244761D01*
X140961904Y-140197142D01*
X141009523Y-140101904D01*
X141009523Y-139863809D01*
X140961904Y-139768571D01*
X140914285Y-139720952D01*
X140819047Y-139673333D01*
X140628571Y-139673333D01*
X140533333Y-139720952D01*
X140485714Y-139768571D01*
X140438095Y-139863809D01*
G04 #@! TO.C,RN5*
X50109523Y-140292380D02*
X49776190Y-139816190D01*
X49538095Y-140292380D02*
X49538095Y-139292380D01*
X49919047Y-139292380D01*
X50014285Y-139340000D01*
X50061904Y-139387619D01*
X50109523Y-139482857D01*
X50109523Y-139625714D01*
X50061904Y-139720952D01*
X50014285Y-139768571D01*
X49919047Y-139816190D01*
X49538095Y-139816190D01*
X50538095Y-140292380D02*
X50538095Y-139292380D01*
X51109523Y-140292380D01*
X51109523Y-139292380D01*
X52061904Y-139292380D02*
X51585714Y-139292380D01*
X51538095Y-139768571D01*
X51585714Y-139720952D01*
X51680952Y-139673333D01*
X51919047Y-139673333D01*
X52014285Y-139720952D01*
X52061904Y-139768571D01*
X52109523Y-139863809D01*
X52109523Y-140101904D01*
X52061904Y-140197142D01*
X52014285Y-140244761D01*
X51919047Y-140292380D01*
X51680952Y-140292380D01*
X51585714Y-140244761D01*
X51538095Y-140197142D01*
G04 #@! TO.C,RN4*
X238069523Y-52662380D02*
X237736190Y-52186190D01*
X237498095Y-52662380D02*
X237498095Y-51662380D01*
X237879047Y-51662380D01*
X237974285Y-51710000D01*
X238021904Y-51757619D01*
X238069523Y-51852857D01*
X238069523Y-51995714D01*
X238021904Y-52090952D01*
X237974285Y-52138571D01*
X237879047Y-52186190D01*
X237498095Y-52186190D01*
X238498095Y-52662380D02*
X238498095Y-51662380D01*
X239069523Y-52662380D01*
X239069523Y-51662380D01*
X239974285Y-51995714D02*
X239974285Y-52662380D01*
X239736190Y-51614761D02*
X239498095Y-52329047D01*
X240117142Y-52329047D01*
G04 #@! TO.C,RN3*
X173299523Y-52662380D02*
X172966190Y-52186190D01*
X172728095Y-52662380D02*
X172728095Y-51662380D01*
X173109047Y-51662380D01*
X173204285Y-51710000D01*
X173251904Y-51757619D01*
X173299523Y-51852857D01*
X173299523Y-51995714D01*
X173251904Y-52090952D01*
X173204285Y-52138571D01*
X173109047Y-52186190D01*
X172728095Y-52186190D01*
X173728095Y-52662380D02*
X173728095Y-51662380D01*
X174299523Y-52662380D01*
X174299523Y-51662380D01*
X174680476Y-51662380D02*
X175299523Y-51662380D01*
X174966190Y-52043333D01*
X175109047Y-52043333D01*
X175204285Y-52090952D01*
X175251904Y-52138571D01*
X175299523Y-52233809D01*
X175299523Y-52471904D01*
X175251904Y-52567142D01*
X175204285Y-52614761D01*
X175109047Y-52662380D01*
X174823333Y-52662380D01*
X174728095Y-52614761D01*
X174680476Y-52567142D01*
G04 #@! TO.C,RN2*
X92019523Y-38552380D02*
X91686190Y-38076190D01*
X91448095Y-38552380D02*
X91448095Y-37552380D01*
X91829047Y-37552380D01*
X91924285Y-37600000D01*
X91971904Y-37647619D01*
X92019523Y-37742857D01*
X92019523Y-37885714D01*
X91971904Y-37980952D01*
X91924285Y-38028571D01*
X91829047Y-38076190D01*
X91448095Y-38076190D01*
X92448095Y-38552380D02*
X92448095Y-37552380D01*
X93019523Y-38552380D01*
X93019523Y-37552380D01*
X93448095Y-37647619D02*
X93495714Y-37600000D01*
X93590952Y-37552380D01*
X93829047Y-37552380D01*
X93924285Y-37600000D01*
X93971904Y-37647619D01*
X94019523Y-37742857D01*
X94019523Y-37838095D01*
X93971904Y-37980952D01*
X93400476Y-38552380D01*
X94019523Y-38552380D01*
G04 #@! TO.C,RN1*
X45029523Y-52662380D02*
X44696190Y-52186190D01*
X44458095Y-52662380D02*
X44458095Y-51662380D01*
X44839047Y-51662380D01*
X44934285Y-51710000D01*
X44981904Y-51757619D01*
X45029523Y-51852857D01*
X45029523Y-51995714D01*
X44981904Y-52090952D01*
X44934285Y-52138571D01*
X44839047Y-52186190D01*
X44458095Y-52186190D01*
X45458095Y-52662380D02*
X45458095Y-51662380D01*
X46029523Y-52662380D01*
X46029523Y-51662380D01*
X47029523Y-52662380D02*
X46458095Y-52662380D01*
X46743809Y-52662380D02*
X46743809Y-51662380D01*
X46648571Y-51805238D01*
X46553333Y-51900476D01*
X46458095Y-51948095D01*
G04 #@! TO.C,R3*
X23963333Y-157282380D02*
X23630000Y-156806190D01*
X23391904Y-157282380D02*
X23391904Y-156282380D01*
X23772857Y-156282380D01*
X23868095Y-156330000D01*
X23915714Y-156377619D01*
X23963333Y-156472857D01*
X23963333Y-156615714D01*
X23915714Y-156710952D01*
X23868095Y-156758571D01*
X23772857Y-156806190D01*
X23391904Y-156806190D01*
X24296666Y-156282380D02*
X24915714Y-156282380D01*
X24582380Y-156663333D01*
X24725238Y-156663333D01*
X24820476Y-156710952D01*
X24868095Y-156758571D01*
X24915714Y-156853809D01*
X24915714Y-157091904D01*
X24868095Y-157187142D01*
X24820476Y-157234761D01*
X24725238Y-157282380D01*
X24439523Y-157282380D01*
X24344285Y-157234761D01*
X24296666Y-157187142D01*
G04 #@! TO.C,R2*
X18883333Y-110292380D02*
X18550000Y-109816190D01*
X18311904Y-110292380D02*
X18311904Y-109292380D01*
X18692857Y-109292380D01*
X18788095Y-109340000D01*
X18835714Y-109387619D01*
X18883333Y-109482857D01*
X18883333Y-109625714D01*
X18835714Y-109720952D01*
X18788095Y-109768571D01*
X18692857Y-109816190D01*
X18311904Y-109816190D01*
X19264285Y-109387619D02*
X19311904Y-109340000D01*
X19407142Y-109292380D01*
X19645238Y-109292380D01*
X19740476Y-109340000D01*
X19788095Y-109387619D01*
X19835714Y-109482857D01*
X19835714Y-109578095D01*
X19788095Y-109720952D01*
X19216666Y-110292380D01*
X19835714Y-110292380D01*
G04 #@! TO.C,R1*
X16343333Y-20122380D02*
X16010000Y-19646190D01*
X15771904Y-20122380D02*
X15771904Y-19122380D01*
X16152857Y-19122380D01*
X16248095Y-19170000D01*
X16295714Y-19217619D01*
X16343333Y-19312857D01*
X16343333Y-19455714D01*
X16295714Y-19550952D01*
X16248095Y-19598571D01*
X16152857Y-19646190D01*
X15771904Y-19646190D01*
X17295714Y-20122380D02*
X16724285Y-20122380D01*
X17010000Y-20122380D02*
X17010000Y-19122380D01*
X16914761Y-19265238D01*
X16819523Y-19360476D01*
X16724285Y-19408095D01*
G04 #@! TO.C,J10*
X276050476Y-152062380D02*
X276050476Y-152776666D01*
X276002857Y-152919523D01*
X275907619Y-153014761D01*
X275764761Y-153062380D01*
X275669523Y-153062380D01*
X277050476Y-153062380D02*
X276479047Y-153062380D01*
X276764761Y-153062380D02*
X276764761Y-152062380D01*
X276669523Y-152205238D01*
X276574285Y-152300476D01*
X276479047Y-152348095D01*
X277669523Y-152062380D02*
X277764761Y-152062380D01*
X277860000Y-152110000D01*
X277907619Y-152157619D01*
X277955238Y-152252857D01*
X278002857Y-152443333D01*
X278002857Y-152681428D01*
X277955238Y-152871904D01*
X277907619Y-152967142D01*
X277860000Y-153014761D01*
X277764761Y-153062380D01*
X277669523Y-153062380D01*
X277574285Y-153014761D01*
X277526666Y-152967142D01*
X277479047Y-152871904D01*
X277431428Y-152681428D01*
X277431428Y-152443333D01*
X277479047Y-152252857D01*
X277526666Y-152157619D01*
X277574285Y-152110000D01*
X277669523Y-152062380D01*
G04 #@! TO.C,J9*
X238426666Y-150792380D02*
X238426666Y-151506666D01*
X238379047Y-151649523D01*
X238283809Y-151744761D01*
X238140952Y-151792380D01*
X238045714Y-151792380D01*
X238950476Y-151792380D02*
X239140952Y-151792380D01*
X239236190Y-151744761D01*
X239283809Y-151697142D01*
X239379047Y-151554285D01*
X239426666Y-151363809D01*
X239426666Y-150982857D01*
X239379047Y-150887619D01*
X239331428Y-150840000D01*
X239236190Y-150792380D01*
X239045714Y-150792380D01*
X238950476Y-150840000D01*
X238902857Y-150887619D01*
X238855238Y-150982857D01*
X238855238Y-151220952D01*
X238902857Y-151316190D01*
X238950476Y-151363809D01*
X239045714Y-151411428D01*
X239236190Y-151411428D01*
X239331428Y-151363809D01*
X239379047Y-151316190D01*
X239426666Y-151220952D01*
G04 #@! TO.C,J8*
X184662380Y-16843333D02*
X185376666Y-16843333D01*
X185519523Y-16890952D01*
X185614761Y-16986190D01*
X185662380Y-17129047D01*
X185662380Y-17224285D01*
X185090952Y-16224285D02*
X185043333Y-16319523D01*
X184995714Y-16367142D01*
X184900476Y-16414761D01*
X184852857Y-16414761D01*
X184757619Y-16367142D01*
X184710000Y-16319523D01*
X184662380Y-16224285D01*
X184662380Y-16033809D01*
X184710000Y-15938571D01*
X184757619Y-15890952D01*
X184852857Y-15843333D01*
X184900476Y-15843333D01*
X184995714Y-15890952D01*
X185043333Y-15938571D01*
X185090952Y-16033809D01*
X185090952Y-16224285D01*
X185138571Y-16319523D01*
X185186190Y-16367142D01*
X185281428Y-16414761D01*
X185471904Y-16414761D01*
X185567142Y-16367142D01*
X185614761Y-16319523D01*
X185662380Y-16224285D01*
X185662380Y-16033809D01*
X185614761Y-15938571D01*
X185567142Y-15890952D01*
X185471904Y-15843333D01*
X185281428Y-15843333D01*
X185186190Y-15890952D01*
X185138571Y-15938571D01*
X185090952Y-16033809D01*
G04 #@! TO.C,J7*
X171962380Y-161623333D02*
X172676666Y-161623333D01*
X172819523Y-161670952D01*
X172914761Y-161766190D01*
X172962380Y-161909047D01*
X172962380Y-162004285D01*
X171962380Y-161242380D02*
X171962380Y-160575714D01*
X172962380Y-161004285D01*
G04 #@! TO.C,J6*
X171962380Y-179403333D02*
X172676666Y-179403333D01*
X172819523Y-179450952D01*
X172914761Y-179546190D01*
X172962380Y-179689047D01*
X172962380Y-179784285D01*
X171962380Y-178498571D02*
X171962380Y-178689047D01*
X172010000Y-178784285D01*
X172057619Y-178831904D01*
X172200476Y-178927142D01*
X172390952Y-178974761D01*
X172771904Y-178974761D01*
X172867142Y-178927142D01*
X172914761Y-178879523D01*
X172962380Y-178784285D01*
X172962380Y-178593809D01*
X172914761Y-178498571D01*
X172867142Y-178450952D01*
X172771904Y-178403333D01*
X172533809Y-178403333D01*
X172438571Y-178450952D01*
X172390952Y-178498571D01*
X172343333Y-178593809D01*
X172343333Y-178784285D01*
X172390952Y-178879523D01*
X172438571Y-178927142D01*
X172533809Y-178974761D01*
G04 #@! TO.C,J5*
X108462380Y-179403333D02*
X109176666Y-179403333D01*
X109319523Y-179450952D01*
X109414761Y-179546190D01*
X109462380Y-179689047D01*
X109462380Y-179784285D01*
X108462380Y-178450952D02*
X108462380Y-178927142D01*
X108938571Y-178974761D01*
X108890952Y-178927142D01*
X108843333Y-178831904D01*
X108843333Y-178593809D01*
X108890952Y-178498571D01*
X108938571Y-178450952D01*
X109033809Y-178403333D01*
X109271904Y-178403333D01*
X109367142Y-178450952D01*
X109414761Y-178498571D01*
X109462380Y-178593809D01*
X109462380Y-178831904D01*
X109414761Y-178927142D01*
X109367142Y-178974761D01*
G04 #@! TO.C,J4*
X108462380Y-161623333D02*
X109176666Y-161623333D01*
X109319523Y-161670952D01*
X109414761Y-161766190D01*
X109462380Y-161909047D01*
X109462380Y-162004285D01*
X108795714Y-160718571D02*
X109462380Y-160718571D01*
X108414761Y-160956666D02*
X109129047Y-161194761D01*
X109129047Y-160575714D01*
G04 #@! TO.C,J3*
X61472380Y-181943333D02*
X62186666Y-181943333D01*
X62329523Y-181990952D01*
X62424761Y-182086190D01*
X62472380Y-182229047D01*
X62472380Y-182324285D01*
X61472380Y-181562380D02*
X61472380Y-180943333D01*
X61853333Y-181276666D01*
X61853333Y-181133809D01*
X61900952Y-181038571D01*
X61948571Y-180990952D01*
X62043809Y-180943333D01*
X62281904Y-180943333D01*
X62377142Y-180990952D01*
X62424761Y-181038571D01*
X62472380Y-181133809D01*
X62472380Y-181419523D01*
X62424761Y-181514761D01*
X62377142Y-181562380D01*
G04 #@! TO.C,J2*
X61472380Y-194643333D02*
X62186666Y-194643333D01*
X62329523Y-194690952D01*
X62424761Y-194786190D01*
X62472380Y-194929047D01*
X62472380Y-195024285D01*
X61567619Y-194214761D02*
X61520000Y-194167142D01*
X61472380Y-194071904D01*
X61472380Y-193833809D01*
X61520000Y-193738571D01*
X61567619Y-193690952D01*
X61662857Y-193643333D01*
X61758095Y-193643333D01*
X61900952Y-193690952D01*
X62472380Y-194262380D01*
X62472380Y-193643333D01*
G04 #@! TO.C,J1*
X276526666Y-17442380D02*
X276526666Y-18156666D01*
X276479047Y-18299523D01*
X276383809Y-18394761D01*
X276240952Y-18442380D01*
X276145714Y-18442380D01*
X277526666Y-18442380D02*
X276955238Y-18442380D01*
X277240952Y-18442380D02*
X277240952Y-17442380D01*
X277145714Y-17585238D01*
X277050476Y-17680476D01*
X276955238Y-17728095D01*
G04 #@! TO.C,D51*
X28542380Y-166314285D02*
X27542380Y-166314285D01*
X27542380Y-166076190D01*
X27590000Y-165933333D01*
X27685238Y-165838095D01*
X27780476Y-165790476D01*
X27970952Y-165742857D01*
X28113809Y-165742857D01*
X28304285Y-165790476D01*
X28399523Y-165838095D01*
X28494761Y-165933333D01*
X28542380Y-166076190D01*
X28542380Y-166314285D01*
X27542380Y-164838095D02*
X27542380Y-165314285D01*
X28018571Y-165361904D01*
X27970952Y-165314285D01*
X27923333Y-165219047D01*
X27923333Y-164980952D01*
X27970952Y-164885714D01*
X28018571Y-164838095D01*
X28113809Y-164790476D01*
X28351904Y-164790476D01*
X28447142Y-164838095D01*
X28494761Y-164885714D01*
X28542380Y-164980952D01*
X28542380Y-165219047D01*
X28494761Y-165314285D01*
X28447142Y-165361904D01*
X28542380Y-163838095D02*
X28542380Y-164409523D01*
X28542380Y-164123809D02*
X27542380Y-164123809D01*
X27685238Y-164219047D01*
X27780476Y-164314285D01*
X27828095Y-164409523D01*
G04 #@! TO.C,D50*
X23462380Y-119324285D02*
X22462380Y-119324285D01*
X22462380Y-119086190D01*
X22510000Y-118943333D01*
X22605238Y-118848095D01*
X22700476Y-118800476D01*
X22890952Y-118752857D01*
X23033809Y-118752857D01*
X23224285Y-118800476D01*
X23319523Y-118848095D01*
X23414761Y-118943333D01*
X23462380Y-119086190D01*
X23462380Y-119324285D01*
X22462380Y-117848095D02*
X22462380Y-118324285D01*
X22938571Y-118371904D01*
X22890952Y-118324285D01*
X22843333Y-118229047D01*
X22843333Y-117990952D01*
X22890952Y-117895714D01*
X22938571Y-117848095D01*
X23033809Y-117800476D01*
X23271904Y-117800476D01*
X23367142Y-117848095D01*
X23414761Y-117895714D01*
X23462380Y-117990952D01*
X23462380Y-118229047D01*
X23414761Y-118324285D01*
X23367142Y-118371904D01*
X22462380Y-117181428D02*
X22462380Y-117086190D01*
X22510000Y-116990952D01*
X22557619Y-116943333D01*
X22652857Y-116895714D01*
X22843333Y-116848095D01*
X23081428Y-116848095D01*
X23271904Y-116895714D01*
X23367142Y-116943333D01*
X23414761Y-116990952D01*
X23462380Y-117086190D01*
X23462380Y-117181428D01*
X23414761Y-117276666D01*
X23367142Y-117324285D01*
X23271904Y-117371904D01*
X23081428Y-117419523D01*
X22843333Y-117419523D01*
X22652857Y-117371904D01*
X22557619Y-117324285D01*
X22510000Y-117276666D01*
X22462380Y-117181428D01*
G04 #@! TO.C,D49*
X20922380Y-27884285D02*
X19922380Y-27884285D01*
X19922380Y-27646190D01*
X19970000Y-27503333D01*
X20065238Y-27408095D01*
X20160476Y-27360476D01*
X20350952Y-27312857D01*
X20493809Y-27312857D01*
X20684285Y-27360476D01*
X20779523Y-27408095D01*
X20874761Y-27503333D01*
X20922380Y-27646190D01*
X20922380Y-27884285D01*
X20255714Y-26455714D02*
X20922380Y-26455714D01*
X19874761Y-26693809D02*
X20589047Y-26931904D01*
X20589047Y-26312857D01*
X20922380Y-25884285D02*
X20922380Y-25693809D01*
X20874761Y-25598571D01*
X20827142Y-25550952D01*
X20684285Y-25455714D01*
X20493809Y-25408095D01*
X20112857Y-25408095D01*
X20017619Y-25455714D01*
X19970000Y-25503333D01*
X19922380Y-25598571D01*
X19922380Y-25789047D01*
X19970000Y-25884285D01*
X20017619Y-25931904D01*
X20112857Y-25979523D01*
X20350952Y-25979523D01*
X20446190Y-25931904D01*
X20493809Y-25884285D01*
X20541428Y-25789047D01*
X20541428Y-25598571D01*
X20493809Y-25503333D01*
X20446190Y-25455714D01*
X20350952Y-25408095D01*
G04 #@! TO.C,D48*
X109522380Y-134564285D02*
X108522380Y-134564285D01*
X108522380Y-134326190D01*
X108570000Y-134183333D01*
X108665238Y-134088095D01*
X108760476Y-134040476D01*
X108950952Y-133992857D01*
X109093809Y-133992857D01*
X109284285Y-134040476D01*
X109379523Y-134088095D01*
X109474761Y-134183333D01*
X109522380Y-134326190D01*
X109522380Y-134564285D01*
X108855714Y-133135714D02*
X109522380Y-133135714D01*
X108474761Y-133373809D02*
X109189047Y-133611904D01*
X109189047Y-132992857D01*
X108950952Y-132469047D02*
X108903333Y-132564285D01*
X108855714Y-132611904D01*
X108760476Y-132659523D01*
X108712857Y-132659523D01*
X108617619Y-132611904D01*
X108570000Y-132564285D01*
X108522380Y-132469047D01*
X108522380Y-132278571D01*
X108570000Y-132183333D01*
X108617619Y-132135714D01*
X108712857Y-132088095D01*
X108760476Y-132088095D01*
X108855714Y-132135714D01*
X108903333Y-132183333D01*
X108950952Y-132278571D01*
X108950952Y-132469047D01*
X108998571Y-132564285D01*
X109046190Y-132611904D01*
X109141428Y-132659523D01*
X109331904Y-132659523D01*
X109427142Y-132611904D01*
X109474761Y-132564285D01*
X109522380Y-132469047D01*
X109522380Y-132278571D01*
X109474761Y-132183333D01*
X109427142Y-132135714D01*
X109331904Y-132088095D01*
X109141428Y-132088095D01*
X109046190Y-132135714D01*
X108998571Y-132183333D01*
X108950952Y-132278571D01*
G04 #@! TO.C,D47*
X117142380Y-134564285D02*
X116142380Y-134564285D01*
X116142380Y-134326190D01*
X116190000Y-134183333D01*
X116285238Y-134088095D01*
X116380476Y-134040476D01*
X116570952Y-133992857D01*
X116713809Y-133992857D01*
X116904285Y-134040476D01*
X116999523Y-134088095D01*
X117094761Y-134183333D01*
X117142380Y-134326190D01*
X117142380Y-134564285D01*
X116475714Y-133135714D02*
X117142380Y-133135714D01*
X116094761Y-133373809D02*
X116809047Y-133611904D01*
X116809047Y-132992857D01*
X116142380Y-132707142D02*
X116142380Y-132040476D01*
X117142380Y-132469047D01*
G04 #@! TO.C,D46*
X124762380Y-134564285D02*
X123762380Y-134564285D01*
X123762380Y-134326190D01*
X123810000Y-134183333D01*
X123905238Y-134088095D01*
X124000476Y-134040476D01*
X124190952Y-133992857D01*
X124333809Y-133992857D01*
X124524285Y-134040476D01*
X124619523Y-134088095D01*
X124714761Y-134183333D01*
X124762380Y-134326190D01*
X124762380Y-134564285D01*
X124095714Y-133135714D02*
X124762380Y-133135714D01*
X123714761Y-133373809D02*
X124429047Y-133611904D01*
X124429047Y-132992857D01*
X123762380Y-132183333D02*
X123762380Y-132373809D01*
X123810000Y-132469047D01*
X123857619Y-132516666D01*
X124000476Y-132611904D01*
X124190952Y-132659523D01*
X124571904Y-132659523D01*
X124667142Y-132611904D01*
X124714761Y-132564285D01*
X124762380Y-132469047D01*
X124762380Y-132278571D01*
X124714761Y-132183333D01*
X124667142Y-132135714D01*
X124571904Y-132088095D01*
X124333809Y-132088095D01*
X124238571Y-132135714D01*
X124190952Y-132183333D01*
X124143333Y-132278571D01*
X124143333Y-132469047D01*
X124190952Y-132564285D01*
X124238571Y-132611904D01*
X124333809Y-132659523D01*
G04 #@! TO.C,D45*
X132382380Y-134564285D02*
X131382380Y-134564285D01*
X131382380Y-134326190D01*
X131430000Y-134183333D01*
X131525238Y-134088095D01*
X131620476Y-134040476D01*
X131810952Y-133992857D01*
X131953809Y-133992857D01*
X132144285Y-134040476D01*
X132239523Y-134088095D01*
X132334761Y-134183333D01*
X132382380Y-134326190D01*
X132382380Y-134564285D01*
X131715714Y-133135714D02*
X132382380Y-133135714D01*
X131334761Y-133373809D02*
X132049047Y-133611904D01*
X132049047Y-132992857D01*
X131382380Y-132135714D02*
X131382380Y-132611904D01*
X131858571Y-132659523D01*
X131810952Y-132611904D01*
X131763333Y-132516666D01*
X131763333Y-132278571D01*
X131810952Y-132183333D01*
X131858571Y-132135714D01*
X131953809Y-132088095D01*
X132191904Y-132088095D01*
X132287142Y-132135714D01*
X132334761Y-132183333D01*
X132382380Y-132278571D01*
X132382380Y-132516666D01*
X132334761Y-132611904D01*
X132287142Y-132659523D01*
G04 #@! TO.C,D44*
X140002380Y-134564285D02*
X139002380Y-134564285D01*
X139002380Y-134326190D01*
X139050000Y-134183333D01*
X139145238Y-134088095D01*
X139240476Y-134040476D01*
X139430952Y-133992857D01*
X139573809Y-133992857D01*
X139764285Y-134040476D01*
X139859523Y-134088095D01*
X139954761Y-134183333D01*
X140002380Y-134326190D01*
X140002380Y-134564285D01*
X139335714Y-133135714D02*
X140002380Y-133135714D01*
X138954761Y-133373809D02*
X139669047Y-133611904D01*
X139669047Y-132992857D01*
X139335714Y-132183333D02*
X140002380Y-132183333D01*
X138954761Y-132421428D02*
X139669047Y-132659523D01*
X139669047Y-132040476D01*
G04 #@! TO.C,D43*
X147622380Y-134564285D02*
X146622380Y-134564285D01*
X146622380Y-134326190D01*
X146670000Y-134183333D01*
X146765238Y-134088095D01*
X146860476Y-134040476D01*
X147050952Y-133992857D01*
X147193809Y-133992857D01*
X147384285Y-134040476D01*
X147479523Y-134088095D01*
X147574761Y-134183333D01*
X147622380Y-134326190D01*
X147622380Y-134564285D01*
X146955714Y-133135714D02*
X147622380Y-133135714D01*
X146574761Y-133373809D02*
X147289047Y-133611904D01*
X147289047Y-132992857D01*
X146622380Y-132707142D02*
X146622380Y-132088095D01*
X147003333Y-132421428D01*
X147003333Y-132278571D01*
X147050952Y-132183333D01*
X147098571Y-132135714D01*
X147193809Y-132088095D01*
X147431904Y-132088095D01*
X147527142Y-132135714D01*
X147574761Y-132183333D01*
X147622380Y-132278571D01*
X147622380Y-132564285D01*
X147574761Y-132659523D01*
X147527142Y-132707142D01*
G04 #@! TO.C,D42*
X155242380Y-134564285D02*
X154242380Y-134564285D01*
X154242380Y-134326190D01*
X154290000Y-134183333D01*
X154385238Y-134088095D01*
X154480476Y-134040476D01*
X154670952Y-133992857D01*
X154813809Y-133992857D01*
X155004285Y-134040476D01*
X155099523Y-134088095D01*
X155194761Y-134183333D01*
X155242380Y-134326190D01*
X155242380Y-134564285D01*
X154575714Y-133135714D02*
X155242380Y-133135714D01*
X154194761Y-133373809D02*
X154909047Y-133611904D01*
X154909047Y-132992857D01*
X154337619Y-132659523D02*
X154290000Y-132611904D01*
X154242380Y-132516666D01*
X154242380Y-132278571D01*
X154290000Y-132183333D01*
X154337619Y-132135714D01*
X154432857Y-132088095D01*
X154528095Y-132088095D01*
X154670952Y-132135714D01*
X155242380Y-132707142D01*
X155242380Y-132088095D01*
G04 #@! TO.C,D41*
X162862380Y-134564285D02*
X161862380Y-134564285D01*
X161862380Y-134326190D01*
X161910000Y-134183333D01*
X162005238Y-134088095D01*
X162100476Y-134040476D01*
X162290952Y-133992857D01*
X162433809Y-133992857D01*
X162624285Y-134040476D01*
X162719523Y-134088095D01*
X162814761Y-134183333D01*
X162862380Y-134326190D01*
X162862380Y-134564285D01*
X162195714Y-133135714D02*
X162862380Y-133135714D01*
X161814761Y-133373809D02*
X162529047Y-133611904D01*
X162529047Y-132992857D01*
X162862380Y-132088095D02*
X162862380Y-132659523D01*
X162862380Y-132373809D02*
X161862380Y-132373809D01*
X162005238Y-132469047D01*
X162100476Y-132564285D01*
X162148095Y-132659523D01*
G04 #@! TO.C,D40*
X20622380Y-134564285D02*
X19622380Y-134564285D01*
X19622380Y-134326190D01*
X19670000Y-134183333D01*
X19765238Y-134088095D01*
X19860476Y-134040476D01*
X20050952Y-133992857D01*
X20193809Y-133992857D01*
X20384285Y-134040476D01*
X20479523Y-134088095D01*
X20574761Y-134183333D01*
X20622380Y-134326190D01*
X20622380Y-134564285D01*
X19955714Y-133135714D02*
X20622380Y-133135714D01*
X19574761Y-133373809D02*
X20289047Y-133611904D01*
X20289047Y-132992857D01*
X19622380Y-132421428D02*
X19622380Y-132326190D01*
X19670000Y-132230952D01*
X19717619Y-132183333D01*
X19812857Y-132135714D01*
X20003333Y-132088095D01*
X20241428Y-132088095D01*
X20431904Y-132135714D01*
X20527142Y-132183333D01*
X20574761Y-132230952D01*
X20622380Y-132326190D01*
X20622380Y-132421428D01*
X20574761Y-132516666D01*
X20527142Y-132564285D01*
X20431904Y-132611904D01*
X20241428Y-132659523D01*
X20003333Y-132659523D01*
X19812857Y-132611904D01*
X19717619Y-132564285D01*
X19670000Y-132516666D01*
X19622380Y-132421428D01*
G04 #@! TO.C,D39*
X28242380Y-134564285D02*
X27242380Y-134564285D01*
X27242380Y-134326190D01*
X27290000Y-134183333D01*
X27385238Y-134088095D01*
X27480476Y-134040476D01*
X27670952Y-133992857D01*
X27813809Y-133992857D01*
X28004285Y-134040476D01*
X28099523Y-134088095D01*
X28194761Y-134183333D01*
X28242380Y-134326190D01*
X28242380Y-134564285D01*
X27242380Y-133659523D02*
X27242380Y-133040476D01*
X27623333Y-133373809D01*
X27623333Y-133230952D01*
X27670952Y-133135714D01*
X27718571Y-133088095D01*
X27813809Y-133040476D01*
X28051904Y-133040476D01*
X28147142Y-133088095D01*
X28194761Y-133135714D01*
X28242380Y-133230952D01*
X28242380Y-133516666D01*
X28194761Y-133611904D01*
X28147142Y-133659523D01*
X28242380Y-132564285D02*
X28242380Y-132373809D01*
X28194761Y-132278571D01*
X28147142Y-132230952D01*
X28004285Y-132135714D01*
X27813809Y-132088095D01*
X27432857Y-132088095D01*
X27337619Y-132135714D01*
X27290000Y-132183333D01*
X27242380Y-132278571D01*
X27242380Y-132469047D01*
X27290000Y-132564285D01*
X27337619Y-132611904D01*
X27432857Y-132659523D01*
X27670952Y-132659523D01*
X27766190Y-132611904D01*
X27813809Y-132564285D01*
X27861428Y-132469047D01*
X27861428Y-132278571D01*
X27813809Y-132183333D01*
X27766190Y-132135714D01*
X27670952Y-132088095D01*
G04 #@! TO.C,D38*
X35862380Y-134564285D02*
X34862380Y-134564285D01*
X34862380Y-134326190D01*
X34910000Y-134183333D01*
X35005238Y-134088095D01*
X35100476Y-134040476D01*
X35290952Y-133992857D01*
X35433809Y-133992857D01*
X35624285Y-134040476D01*
X35719523Y-134088095D01*
X35814761Y-134183333D01*
X35862380Y-134326190D01*
X35862380Y-134564285D01*
X34862380Y-133659523D02*
X34862380Y-133040476D01*
X35243333Y-133373809D01*
X35243333Y-133230952D01*
X35290952Y-133135714D01*
X35338571Y-133088095D01*
X35433809Y-133040476D01*
X35671904Y-133040476D01*
X35767142Y-133088095D01*
X35814761Y-133135714D01*
X35862380Y-133230952D01*
X35862380Y-133516666D01*
X35814761Y-133611904D01*
X35767142Y-133659523D01*
X35290952Y-132469047D02*
X35243333Y-132564285D01*
X35195714Y-132611904D01*
X35100476Y-132659523D01*
X35052857Y-132659523D01*
X34957619Y-132611904D01*
X34910000Y-132564285D01*
X34862380Y-132469047D01*
X34862380Y-132278571D01*
X34910000Y-132183333D01*
X34957619Y-132135714D01*
X35052857Y-132088095D01*
X35100476Y-132088095D01*
X35195714Y-132135714D01*
X35243333Y-132183333D01*
X35290952Y-132278571D01*
X35290952Y-132469047D01*
X35338571Y-132564285D01*
X35386190Y-132611904D01*
X35481428Y-132659523D01*
X35671904Y-132659523D01*
X35767142Y-132611904D01*
X35814761Y-132564285D01*
X35862380Y-132469047D01*
X35862380Y-132278571D01*
X35814761Y-132183333D01*
X35767142Y-132135714D01*
X35671904Y-132088095D01*
X35481428Y-132088095D01*
X35386190Y-132135714D01*
X35338571Y-132183333D01*
X35290952Y-132278571D01*
G04 #@! TO.C,D37*
X43482380Y-134564285D02*
X42482380Y-134564285D01*
X42482380Y-134326190D01*
X42530000Y-134183333D01*
X42625238Y-134088095D01*
X42720476Y-134040476D01*
X42910952Y-133992857D01*
X43053809Y-133992857D01*
X43244285Y-134040476D01*
X43339523Y-134088095D01*
X43434761Y-134183333D01*
X43482380Y-134326190D01*
X43482380Y-134564285D01*
X42482380Y-133659523D02*
X42482380Y-133040476D01*
X42863333Y-133373809D01*
X42863333Y-133230952D01*
X42910952Y-133135714D01*
X42958571Y-133088095D01*
X43053809Y-133040476D01*
X43291904Y-133040476D01*
X43387142Y-133088095D01*
X43434761Y-133135714D01*
X43482380Y-133230952D01*
X43482380Y-133516666D01*
X43434761Y-133611904D01*
X43387142Y-133659523D01*
X42482380Y-132707142D02*
X42482380Y-132040476D01*
X43482380Y-132469047D01*
G04 #@! TO.C,D36*
X51102380Y-134564285D02*
X50102380Y-134564285D01*
X50102380Y-134326190D01*
X50150000Y-134183333D01*
X50245238Y-134088095D01*
X50340476Y-134040476D01*
X50530952Y-133992857D01*
X50673809Y-133992857D01*
X50864285Y-134040476D01*
X50959523Y-134088095D01*
X51054761Y-134183333D01*
X51102380Y-134326190D01*
X51102380Y-134564285D01*
X50102380Y-133659523D02*
X50102380Y-133040476D01*
X50483333Y-133373809D01*
X50483333Y-133230952D01*
X50530952Y-133135714D01*
X50578571Y-133088095D01*
X50673809Y-133040476D01*
X50911904Y-133040476D01*
X51007142Y-133088095D01*
X51054761Y-133135714D01*
X51102380Y-133230952D01*
X51102380Y-133516666D01*
X51054761Y-133611904D01*
X51007142Y-133659523D01*
X50102380Y-132183333D02*
X50102380Y-132373809D01*
X50150000Y-132469047D01*
X50197619Y-132516666D01*
X50340476Y-132611904D01*
X50530952Y-132659523D01*
X50911904Y-132659523D01*
X51007142Y-132611904D01*
X51054761Y-132564285D01*
X51102380Y-132469047D01*
X51102380Y-132278571D01*
X51054761Y-132183333D01*
X51007142Y-132135714D01*
X50911904Y-132088095D01*
X50673809Y-132088095D01*
X50578571Y-132135714D01*
X50530952Y-132183333D01*
X50483333Y-132278571D01*
X50483333Y-132469047D01*
X50530952Y-132564285D01*
X50578571Y-132611904D01*
X50673809Y-132659523D01*
G04 #@! TO.C,D35*
X58722380Y-134564285D02*
X57722380Y-134564285D01*
X57722380Y-134326190D01*
X57770000Y-134183333D01*
X57865238Y-134088095D01*
X57960476Y-134040476D01*
X58150952Y-133992857D01*
X58293809Y-133992857D01*
X58484285Y-134040476D01*
X58579523Y-134088095D01*
X58674761Y-134183333D01*
X58722380Y-134326190D01*
X58722380Y-134564285D01*
X57722380Y-133659523D02*
X57722380Y-133040476D01*
X58103333Y-133373809D01*
X58103333Y-133230952D01*
X58150952Y-133135714D01*
X58198571Y-133088095D01*
X58293809Y-133040476D01*
X58531904Y-133040476D01*
X58627142Y-133088095D01*
X58674761Y-133135714D01*
X58722380Y-133230952D01*
X58722380Y-133516666D01*
X58674761Y-133611904D01*
X58627142Y-133659523D01*
X57722380Y-132135714D02*
X57722380Y-132611904D01*
X58198571Y-132659523D01*
X58150952Y-132611904D01*
X58103333Y-132516666D01*
X58103333Y-132278571D01*
X58150952Y-132183333D01*
X58198571Y-132135714D01*
X58293809Y-132088095D01*
X58531904Y-132088095D01*
X58627142Y-132135714D01*
X58674761Y-132183333D01*
X58722380Y-132278571D01*
X58722380Y-132516666D01*
X58674761Y-132611904D01*
X58627142Y-132659523D01*
G04 #@! TO.C,D34*
X66342380Y-134564285D02*
X65342380Y-134564285D01*
X65342380Y-134326190D01*
X65390000Y-134183333D01*
X65485238Y-134088095D01*
X65580476Y-134040476D01*
X65770952Y-133992857D01*
X65913809Y-133992857D01*
X66104285Y-134040476D01*
X66199523Y-134088095D01*
X66294761Y-134183333D01*
X66342380Y-134326190D01*
X66342380Y-134564285D01*
X65342380Y-133659523D02*
X65342380Y-133040476D01*
X65723333Y-133373809D01*
X65723333Y-133230952D01*
X65770952Y-133135714D01*
X65818571Y-133088095D01*
X65913809Y-133040476D01*
X66151904Y-133040476D01*
X66247142Y-133088095D01*
X66294761Y-133135714D01*
X66342380Y-133230952D01*
X66342380Y-133516666D01*
X66294761Y-133611904D01*
X66247142Y-133659523D01*
X65675714Y-132183333D02*
X66342380Y-132183333D01*
X65294761Y-132421428D02*
X66009047Y-132659523D01*
X66009047Y-132040476D01*
G04 #@! TO.C,D33*
X73962380Y-134564285D02*
X72962380Y-134564285D01*
X72962380Y-134326190D01*
X73010000Y-134183333D01*
X73105238Y-134088095D01*
X73200476Y-134040476D01*
X73390952Y-133992857D01*
X73533809Y-133992857D01*
X73724285Y-134040476D01*
X73819523Y-134088095D01*
X73914761Y-134183333D01*
X73962380Y-134326190D01*
X73962380Y-134564285D01*
X72962380Y-133659523D02*
X72962380Y-133040476D01*
X73343333Y-133373809D01*
X73343333Y-133230952D01*
X73390952Y-133135714D01*
X73438571Y-133088095D01*
X73533809Y-133040476D01*
X73771904Y-133040476D01*
X73867142Y-133088095D01*
X73914761Y-133135714D01*
X73962380Y-133230952D01*
X73962380Y-133516666D01*
X73914761Y-133611904D01*
X73867142Y-133659523D01*
X72962380Y-132707142D02*
X72962380Y-132088095D01*
X73343333Y-132421428D01*
X73343333Y-132278571D01*
X73390952Y-132183333D01*
X73438571Y-132135714D01*
X73533809Y-132088095D01*
X73771904Y-132088095D01*
X73867142Y-132135714D01*
X73914761Y-132183333D01*
X73962380Y-132278571D01*
X73962380Y-132564285D01*
X73914761Y-132659523D01*
X73867142Y-132707142D01*
G04 #@! TO.C,D32*
X208582380Y-46934285D02*
X207582380Y-46934285D01*
X207582380Y-46696190D01*
X207630000Y-46553333D01*
X207725238Y-46458095D01*
X207820476Y-46410476D01*
X208010952Y-46362857D01*
X208153809Y-46362857D01*
X208344285Y-46410476D01*
X208439523Y-46458095D01*
X208534761Y-46553333D01*
X208582380Y-46696190D01*
X208582380Y-46934285D01*
X207582380Y-46029523D02*
X207582380Y-45410476D01*
X207963333Y-45743809D01*
X207963333Y-45600952D01*
X208010952Y-45505714D01*
X208058571Y-45458095D01*
X208153809Y-45410476D01*
X208391904Y-45410476D01*
X208487142Y-45458095D01*
X208534761Y-45505714D01*
X208582380Y-45600952D01*
X208582380Y-45886666D01*
X208534761Y-45981904D01*
X208487142Y-46029523D01*
X207677619Y-45029523D02*
X207630000Y-44981904D01*
X207582380Y-44886666D01*
X207582380Y-44648571D01*
X207630000Y-44553333D01*
X207677619Y-44505714D01*
X207772857Y-44458095D01*
X207868095Y-44458095D01*
X208010952Y-44505714D01*
X208582380Y-45077142D01*
X208582380Y-44458095D01*
G04 #@! TO.C,D31*
X216202380Y-46934285D02*
X215202380Y-46934285D01*
X215202380Y-46696190D01*
X215250000Y-46553333D01*
X215345238Y-46458095D01*
X215440476Y-46410476D01*
X215630952Y-46362857D01*
X215773809Y-46362857D01*
X215964285Y-46410476D01*
X216059523Y-46458095D01*
X216154761Y-46553333D01*
X216202380Y-46696190D01*
X216202380Y-46934285D01*
X215202380Y-46029523D02*
X215202380Y-45410476D01*
X215583333Y-45743809D01*
X215583333Y-45600952D01*
X215630952Y-45505714D01*
X215678571Y-45458095D01*
X215773809Y-45410476D01*
X216011904Y-45410476D01*
X216107142Y-45458095D01*
X216154761Y-45505714D01*
X216202380Y-45600952D01*
X216202380Y-45886666D01*
X216154761Y-45981904D01*
X216107142Y-46029523D01*
X216202380Y-44458095D02*
X216202380Y-45029523D01*
X216202380Y-44743809D02*
X215202380Y-44743809D01*
X215345238Y-44839047D01*
X215440476Y-44934285D01*
X215488095Y-45029523D01*
G04 #@! TO.C,D30*
X223822380Y-46934285D02*
X222822380Y-46934285D01*
X222822380Y-46696190D01*
X222870000Y-46553333D01*
X222965238Y-46458095D01*
X223060476Y-46410476D01*
X223250952Y-46362857D01*
X223393809Y-46362857D01*
X223584285Y-46410476D01*
X223679523Y-46458095D01*
X223774761Y-46553333D01*
X223822380Y-46696190D01*
X223822380Y-46934285D01*
X222822380Y-46029523D02*
X222822380Y-45410476D01*
X223203333Y-45743809D01*
X223203333Y-45600952D01*
X223250952Y-45505714D01*
X223298571Y-45458095D01*
X223393809Y-45410476D01*
X223631904Y-45410476D01*
X223727142Y-45458095D01*
X223774761Y-45505714D01*
X223822380Y-45600952D01*
X223822380Y-45886666D01*
X223774761Y-45981904D01*
X223727142Y-46029523D01*
X222822380Y-44791428D02*
X222822380Y-44696190D01*
X222870000Y-44600952D01*
X222917619Y-44553333D01*
X223012857Y-44505714D01*
X223203333Y-44458095D01*
X223441428Y-44458095D01*
X223631904Y-44505714D01*
X223727142Y-44553333D01*
X223774761Y-44600952D01*
X223822380Y-44696190D01*
X223822380Y-44791428D01*
X223774761Y-44886666D01*
X223727142Y-44934285D01*
X223631904Y-44981904D01*
X223441428Y-45029523D01*
X223203333Y-45029523D01*
X223012857Y-44981904D01*
X222917619Y-44934285D01*
X222870000Y-44886666D01*
X222822380Y-44791428D01*
G04 #@! TO.C,D29*
X231442380Y-46934285D02*
X230442380Y-46934285D01*
X230442380Y-46696190D01*
X230490000Y-46553333D01*
X230585238Y-46458095D01*
X230680476Y-46410476D01*
X230870952Y-46362857D01*
X231013809Y-46362857D01*
X231204285Y-46410476D01*
X231299523Y-46458095D01*
X231394761Y-46553333D01*
X231442380Y-46696190D01*
X231442380Y-46934285D01*
X230537619Y-45981904D02*
X230490000Y-45934285D01*
X230442380Y-45839047D01*
X230442380Y-45600952D01*
X230490000Y-45505714D01*
X230537619Y-45458095D01*
X230632857Y-45410476D01*
X230728095Y-45410476D01*
X230870952Y-45458095D01*
X231442380Y-46029523D01*
X231442380Y-45410476D01*
X231442380Y-44934285D02*
X231442380Y-44743809D01*
X231394761Y-44648571D01*
X231347142Y-44600952D01*
X231204285Y-44505714D01*
X231013809Y-44458095D01*
X230632857Y-44458095D01*
X230537619Y-44505714D01*
X230490000Y-44553333D01*
X230442380Y-44648571D01*
X230442380Y-44839047D01*
X230490000Y-44934285D01*
X230537619Y-44981904D01*
X230632857Y-45029523D01*
X230870952Y-45029523D01*
X230966190Y-44981904D01*
X231013809Y-44934285D01*
X231061428Y-44839047D01*
X231061428Y-44648571D01*
X231013809Y-44553333D01*
X230966190Y-44505714D01*
X230870952Y-44458095D01*
G04 #@! TO.C,D28*
X239062380Y-46934285D02*
X238062380Y-46934285D01*
X238062380Y-46696190D01*
X238110000Y-46553333D01*
X238205238Y-46458095D01*
X238300476Y-46410476D01*
X238490952Y-46362857D01*
X238633809Y-46362857D01*
X238824285Y-46410476D01*
X238919523Y-46458095D01*
X239014761Y-46553333D01*
X239062380Y-46696190D01*
X239062380Y-46934285D01*
X238157619Y-45981904D02*
X238110000Y-45934285D01*
X238062380Y-45839047D01*
X238062380Y-45600952D01*
X238110000Y-45505714D01*
X238157619Y-45458095D01*
X238252857Y-45410476D01*
X238348095Y-45410476D01*
X238490952Y-45458095D01*
X239062380Y-46029523D01*
X239062380Y-45410476D01*
X238490952Y-44839047D02*
X238443333Y-44934285D01*
X238395714Y-44981904D01*
X238300476Y-45029523D01*
X238252857Y-45029523D01*
X238157619Y-44981904D01*
X238110000Y-44934285D01*
X238062380Y-44839047D01*
X238062380Y-44648571D01*
X238110000Y-44553333D01*
X238157619Y-44505714D01*
X238252857Y-44458095D01*
X238300476Y-44458095D01*
X238395714Y-44505714D01*
X238443333Y-44553333D01*
X238490952Y-44648571D01*
X238490952Y-44839047D01*
X238538571Y-44934285D01*
X238586190Y-44981904D01*
X238681428Y-45029523D01*
X238871904Y-45029523D01*
X238967142Y-44981904D01*
X239014761Y-44934285D01*
X239062380Y-44839047D01*
X239062380Y-44648571D01*
X239014761Y-44553333D01*
X238967142Y-44505714D01*
X238871904Y-44458095D01*
X238681428Y-44458095D01*
X238586190Y-44505714D01*
X238538571Y-44553333D01*
X238490952Y-44648571D01*
G04 #@! TO.C,D27*
X246682380Y-46934285D02*
X245682380Y-46934285D01*
X245682380Y-46696190D01*
X245730000Y-46553333D01*
X245825238Y-46458095D01*
X245920476Y-46410476D01*
X246110952Y-46362857D01*
X246253809Y-46362857D01*
X246444285Y-46410476D01*
X246539523Y-46458095D01*
X246634761Y-46553333D01*
X246682380Y-46696190D01*
X246682380Y-46934285D01*
X245777619Y-45981904D02*
X245730000Y-45934285D01*
X245682380Y-45839047D01*
X245682380Y-45600952D01*
X245730000Y-45505714D01*
X245777619Y-45458095D01*
X245872857Y-45410476D01*
X245968095Y-45410476D01*
X246110952Y-45458095D01*
X246682380Y-46029523D01*
X246682380Y-45410476D01*
X245682380Y-45077142D02*
X245682380Y-44410476D01*
X246682380Y-44839047D01*
G04 #@! TO.C,D26*
X254302380Y-46934285D02*
X253302380Y-46934285D01*
X253302380Y-46696190D01*
X253350000Y-46553333D01*
X253445238Y-46458095D01*
X253540476Y-46410476D01*
X253730952Y-46362857D01*
X253873809Y-46362857D01*
X254064285Y-46410476D01*
X254159523Y-46458095D01*
X254254761Y-46553333D01*
X254302380Y-46696190D01*
X254302380Y-46934285D01*
X253397619Y-45981904D02*
X253350000Y-45934285D01*
X253302380Y-45839047D01*
X253302380Y-45600952D01*
X253350000Y-45505714D01*
X253397619Y-45458095D01*
X253492857Y-45410476D01*
X253588095Y-45410476D01*
X253730952Y-45458095D01*
X254302380Y-46029523D01*
X254302380Y-45410476D01*
X253302380Y-44553333D02*
X253302380Y-44743809D01*
X253350000Y-44839047D01*
X253397619Y-44886666D01*
X253540476Y-44981904D01*
X253730952Y-45029523D01*
X254111904Y-45029523D01*
X254207142Y-44981904D01*
X254254761Y-44934285D01*
X254302380Y-44839047D01*
X254302380Y-44648571D01*
X254254761Y-44553333D01*
X254207142Y-44505714D01*
X254111904Y-44458095D01*
X253873809Y-44458095D01*
X253778571Y-44505714D01*
X253730952Y-44553333D01*
X253683333Y-44648571D01*
X253683333Y-44839047D01*
X253730952Y-44934285D01*
X253778571Y-44981904D01*
X253873809Y-45029523D01*
G04 #@! TO.C,D25*
X261922380Y-46934285D02*
X260922380Y-46934285D01*
X260922380Y-46696190D01*
X260970000Y-46553333D01*
X261065238Y-46458095D01*
X261160476Y-46410476D01*
X261350952Y-46362857D01*
X261493809Y-46362857D01*
X261684285Y-46410476D01*
X261779523Y-46458095D01*
X261874761Y-46553333D01*
X261922380Y-46696190D01*
X261922380Y-46934285D01*
X261017619Y-45981904D02*
X260970000Y-45934285D01*
X260922380Y-45839047D01*
X260922380Y-45600952D01*
X260970000Y-45505714D01*
X261017619Y-45458095D01*
X261112857Y-45410476D01*
X261208095Y-45410476D01*
X261350952Y-45458095D01*
X261922380Y-46029523D01*
X261922380Y-45410476D01*
X260922380Y-44505714D02*
X260922380Y-44981904D01*
X261398571Y-45029523D01*
X261350952Y-44981904D01*
X261303333Y-44886666D01*
X261303333Y-44648571D01*
X261350952Y-44553333D01*
X261398571Y-44505714D01*
X261493809Y-44458095D01*
X261731904Y-44458095D01*
X261827142Y-44505714D01*
X261874761Y-44553333D01*
X261922380Y-44648571D01*
X261922380Y-44886666D01*
X261874761Y-44981904D01*
X261827142Y-45029523D01*
G04 #@! TO.C,D24*
X143812380Y-46934285D02*
X142812380Y-46934285D01*
X142812380Y-46696190D01*
X142860000Y-46553333D01*
X142955238Y-46458095D01*
X143050476Y-46410476D01*
X143240952Y-46362857D01*
X143383809Y-46362857D01*
X143574285Y-46410476D01*
X143669523Y-46458095D01*
X143764761Y-46553333D01*
X143812380Y-46696190D01*
X143812380Y-46934285D01*
X142907619Y-45981904D02*
X142860000Y-45934285D01*
X142812380Y-45839047D01*
X142812380Y-45600952D01*
X142860000Y-45505714D01*
X142907619Y-45458095D01*
X143002857Y-45410476D01*
X143098095Y-45410476D01*
X143240952Y-45458095D01*
X143812380Y-46029523D01*
X143812380Y-45410476D01*
X143145714Y-44553333D02*
X143812380Y-44553333D01*
X142764761Y-44791428D02*
X143479047Y-45029523D01*
X143479047Y-44410476D01*
G04 #@! TO.C,D23*
X151432380Y-46934285D02*
X150432380Y-46934285D01*
X150432380Y-46696190D01*
X150480000Y-46553333D01*
X150575238Y-46458095D01*
X150670476Y-46410476D01*
X150860952Y-46362857D01*
X151003809Y-46362857D01*
X151194285Y-46410476D01*
X151289523Y-46458095D01*
X151384761Y-46553333D01*
X151432380Y-46696190D01*
X151432380Y-46934285D01*
X150527619Y-45981904D02*
X150480000Y-45934285D01*
X150432380Y-45839047D01*
X150432380Y-45600952D01*
X150480000Y-45505714D01*
X150527619Y-45458095D01*
X150622857Y-45410476D01*
X150718095Y-45410476D01*
X150860952Y-45458095D01*
X151432380Y-46029523D01*
X151432380Y-45410476D01*
X150432380Y-45077142D02*
X150432380Y-44458095D01*
X150813333Y-44791428D01*
X150813333Y-44648571D01*
X150860952Y-44553333D01*
X150908571Y-44505714D01*
X151003809Y-44458095D01*
X151241904Y-44458095D01*
X151337142Y-44505714D01*
X151384761Y-44553333D01*
X151432380Y-44648571D01*
X151432380Y-44934285D01*
X151384761Y-45029523D01*
X151337142Y-45077142D01*
G04 #@! TO.C,D22*
X159052380Y-46934285D02*
X158052380Y-46934285D01*
X158052380Y-46696190D01*
X158100000Y-46553333D01*
X158195238Y-46458095D01*
X158290476Y-46410476D01*
X158480952Y-46362857D01*
X158623809Y-46362857D01*
X158814285Y-46410476D01*
X158909523Y-46458095D01*
X159004761Y-46553333D01*
X159052380Y-46696190D01*
X159052380Y-46934285D01*
X158147619Y-45981904D02*
X158100000Y-45934285D01*
X158052380Y-45839047D01*
X158052380Y-45600952D01*
X158100000Y-45505714D01*
X158147619Y-45458095D01*
X158242857Y-45410476D01*
X158338095Y-45410476D01*
X158480952Y-45458095D01*
X159052380Y-46029523D01*
X159052380Y-45410476D01*
X158147619Y-45029523D02*
X158100000Y-44981904D01*
X158052380Y-44886666D01*
X158052380Y-44648571D01*
X158100000Y-44553333D01*
X158147619Y-44505714D01*
X158242857Y-44458095D01*
X158338095Y-44458095D01*
X158480952Y-44505714D01*
X159052380Y-45077142D01*
X159052380Y-44458095D01*
G04 #@! TO.C,D21*
X166672380Y-46934285D02*
X165672380Y-46934285D01*
X165672380Y-46696190D01*
X165720000Y-46553333D01*
X165815238Y-46458095D01*
X165910476Y-46410476D01*
X166100952Y-46362857D01*
X166243809Y-46362857D01*
X166434285Y-46410476D01*
X166529523Y-46458095D01*
X166624761Y-46553333D01*
X166672380Y-46696190D01*
X166672380Y-46934285D01*
X165767619Y-45981904D02*
X165720000Y-45934285D01*
X165672380Y-45839047D01*
X165672380Y-45600952D01*
X165720000Y-45505714D01*
X165767619Y-45458095D01*
X165862857Y-45410476D01*
X165958095Y-45410476D01*
X166100952Y-45458095D01*
X166672380Y-46029523D01*
X166672380Y-45410476D01*
X166672380Y-44458095D02*
X166672380Y-45029523D01*
X166672380Y-44743809D02*
X165672380Y-44743809D01*
X165815238Y-44839047D01*
X165910476Y-44934285D01*
X165958095Y-45029523D01*
G04 #@! TO.C,D20*
X174292380Y-46934285D02*
X173292380Y-46934285D01*
X173292380Y-46696190D01*
X173340000Y-46553333D01*
X173435238Y-46458095D01*
X173530476Y-46410476D01*
X173720952Y-46362857D01*
X173863809Y-46362857D01*
X174054285Y-46410476D01*
X174149523Y-46458095D01*
X174244761Y-46553333D01*
X174292380Y-46696190D01*
X174292380Y-46934285D01*
X173387619Y-45981904D02*
X173340000Y-45934285D01*
X173292380Y-45839047D01*
X173292380Y-45600952D01*
X173340000Y-45505714D01*
X173387619Y-45458095D01*
X173482857Y-45410476D01*
X173578095Y-45410476D01*
X173720952Y-45458095D01*
X174292380Y-46029523D01*
X174292380Y-45410476D01*
X173292380Y-44791428D02*
X173292380Y-44696190D01*
X173340000Y-44600952D01*
X173387619Y-44553333D01*
X173482857Y-44505714D01*
X173673333Y-44458095D01*
X173911428Y-44458095D01*
X174101904Y-44505714D01*
X174197142Y-44553333D01*
X174244761Y-44600952D01*
X174292380Y-44696190D01*
X174292380Y-44791428D01*
X174244761Y-44886666D01*
X174197142Y-44934285D01*
X174101904Y-44981904D01*
X173911428Y-45029523D01*
X173673333Y-45029523D01*
X173482857Y-44981904D01*
X173387619Y-44934285D01*
X173340000Y-44886666D01*
X173292380Y-44791428D01*
G04 #@! TO.C,D19*
X181912380Y-46934285D02*
X180912380Y-46934285D01*
X180912380Y-46696190D01*
X180960000Y-46553333D01*
X181055238Y-46458095D01*
X181150476Y-46410476D01*
X181340952Y-46362857D01*
X181483809Y-46362857D01*
X181674285Y-46410476D01*
X181769523Y-46458095D01*
X181864761Y-46553333D01*
X181912380Y-46696190D01*
X181912380Y-46934285D01*
X181912380Y-45410476D02*
X181912380Y-45981904D01*
X181912380Y-45696190D02*
X180912380Y-45696190D01*
X181055238Y-45791428D01*
X181150476Y-45886666D01*
X181198095Y-45981904D01*
X181912380Y-44934285D02*
X181912380Y-44743809D01*
X181864761Y-44648571D01*
X181817142Y-44600952D01*
X181674285Y-44505714D01*
X181483809Y-44458095D01*
X181102857Y-44458095D01*
X181007619Y-44505714D01*
X180960000Y-44553333D01*
X180912380Y-44648571D01*
X180912380Y-44839047D01*
X180960000Y-44934285D01*
X181007619Y-44981904D01*
X181102857Y-45029523D01*
X181340952Y-45029523D01*
X181436190Y-44981904D01*
X181483809Y-44934285D01*
X181531428Y-44839047D01*
X181531428Y-44648571D01*
X181483809Y-44553333D01*
X181436190Y-44505714D01*
X181340952Y-44458095D01*
G04 #@! TO.C,D18*
X189532380Y-46934285D02*
X188532380Y-46934285D01*
X188532380Y-46696190D01*
X188580000Y-46553333D01*
X188675238Y-46458095D01*
X188770476Y-46410476D01*
X188960952Y-46362857D01*
X189103809Y-46362857D01*
X189294285Y-46410476D01*
X189389523Y-46458095D01*
X189484761Y-46553333D01*
X189532380Y-46696190D01*
X189532380Y-46934285D01*
X189532380Y-45410476D02*
X189532380Y-45981904D01*
X189532380Y-45696190D02*
X188532380Y-45696190D01*
X188675238Y-45791428D01*
X188770476Y-45886666D01*
X188818095Y-45981904D01*
X188960952Y-44839047D02*
X188913333Y-44934285D01*
X188865714Y-44981904D01*
X188770476Y-45029523D01*
X188722857Y-45029523D01*
X188627619Y-44981904D01*
X188580000Y-44934285D01*
X188532380Y-44839047D01*
X188532380Y-44648571D01*
X188580000Y-44553333D01*
X188627619Y-44505714D01*
X188722857Y-44458095D01*
X188770476Y-44458095D01*
X188865714Y-44505714D01*
X188913333Y-44553333D01*
X188960952Y-44648571D01*
X188960952Y-44839047D01*
X189008571Y-44934285D01*
X189056190Y-44981904D01*
X189151428Y-45029523D01*
X189341904Y-45029523D01*
X189437142Y-44981904D01*
X189484761Y-44934285D01*
X189532380Y-44839047D01*
X189532380Y-44648571D01*
X189484761Y-44553333D01*
X189437142Y-44505714D01*
X189341904Y-44458095D01*
X189151428Y-44458095D01*
X189056190Y-44505714D01*
X189008571Y-44553333D01*
X188960952Y-44648571D01*
G04 #@! TO.C,D17*
X197152380Y-46934285D02*
X196152380Y-46934285D01*
X196152380Y-46696190D01*
X196200000Y-46553333D01*
X196295238Y-46458095D01*
X196390476Y-46410476D01*
X196580952Y-46362857D01*
X196723809Y-46362857D01*
X196914285Y-46410476D01*
X197009523Y-46458095D01*
X197104761Y-46553333D01*
X197152380Y-46696190D01*
X197152380Y-46934285D01*
X197152380Y-45410476D02*
X197152380Y-45981904D01*
X197152380Y-45696190D02*
X196152380Y-45696190D01*
X196295238Y-45791428D01*
X196390476Y-45886666D01*
X196438095Y-45981904D01*
X196152380Y-45077142D02*
X196152380Y-44410476D01*
X197152380Y-44839047D01*
G04 #@! TO.C,D16*
X79042380Y-46934285D02*
X78042380Y-46934285D01*
X78042380Y-46696190D01*
X78090000Y-46553333D01*
X78185238Y-46458095D01*
X78280476Y-46410476D01*
X78470952Y-46362857D01*
X78613809Y-46362857D01*
X78804285Y-46410476D01*
X78899523Y-46458095D01*
X78994761Y-46553333D01*
X79042380Y-46696190D01*
X79042380Y-46934285D01*
X79042380Y-45410476D02*
X79042380Y-45981904D01*
X79042380Y-45696190D02*
X78042380Y-45696190D01*
X78185238Y-45791428D01*
X78280476Y-45886666D01*
X78328095Y-45981904D01*
X78042380Y-44553333D02*
X78042380Y-44743809D01*
X78090000Y-44839047D01*
X78137619Y-44886666D01*
X78280476Y-44981904D01*
X78470952Y-45029523D01*
X78851904Y-45029523D01*
X78947142Y-44981904D01*
X78994761Y-44934285D01*
X79042380Y-44839047D01*
X79042380Y-44648571D01*
X78994761Y-44553333D01*
X78947142Y-44505714D01*
X78851904Y-44458095D01*
X78613809Y-44458095D01*
X78518571Y-44505714D01*
X78470952Y-44553333D01*
X78423333Y-44648571D01*
X78423333Y-44839047D01*
X78470952Y-44934285D01*
X78518571Y-44981904D01*
X78613809Y-45029523D01*
G04 #@! TO.C,D15*
X86662380Y-46934285D02*
X85662380Y-46934285D01*
X85662380Y-46696190D01*
X85710000Y-46553333D01*
X85805238Y-46458095D01*
X85900476Y-46410476D01*
X86090952Y-46362857D01*
X86233809Y-46362857D01*
X86424285Y-46410476D01*
X86519523Y-46458095D01*
X86614761Y-46553333D01*
X86662380Y-46696190D01*
X86662380Y-46934285D01*
X86662380Y-45410476D02*
X86662380Y-45981904D01*
X86662380Y-45696190D02*
X85662380Y-45696190D01*
X85805238Y-45791428D01*
X85900476Y-45886666D01*
X85948095Y-45981904D01*
X85662380Y-44505714D02*
X85662380Y-44981904D01*
X86138571Y-45029523D01*
X86090952Y-44981904D01*
X86043333Y-44886666D01*
X86043333Y-44648571D01*
X86090952Y-44553333D01*
X86138571Y-44505714D01*
X86233809Y-44458095D01*
X86471904Y-44458095D01*
X86567142Y-44505714D01*
X86614761Y-44553333D01*
X86662380Y-44648571D01*
X86662380Y-44886666D01*
X86614761Y-44981904D01*
X86567142Y-45029523D01*
G04 #@! TO.C,D14*
X94282380Y-46934285D02*
X93282380Y-46934285D01*
X93282380Y-46696190D01*
X93330000Y-46553333D01*
X93425238Y-46458095D01*
X93520476Y-46410476D01*
X93710952Y-46362857D01*
X93853809Y-46362857D01*
X94044285Y-46410476D01*
X94139523Y-46458095D01*
X94234761Y-46553333D01*
X94282380Y-46696190D01*
X94282380Y-46934285D01*
X94282380Y-45410476D02*
X94282380Y-45981904D01*
X94282380Y-45696190D02*
X93282380Y-45696190D01*
X93425238Y-45791428D01*
X93520476Y-45886666D01*
X93568095Y-45981904D01*
X93615714Y-44553333D02*
X94282380Y-44553333D01*
X93234761Y-44791428D02*
X93949047Y-45029523D01*
X93949047Y-44410476D01*
G04 #@! TO.C,D13*
X101902380Y-46934285D02*
X100902380Y-46934285D01*
X100902380Y-46696190D01*
X100950000Y-46553333D01*
X101045238Y-46458095D01*
X101140476Y-46410476D01*
X101330952Y-46362857D01*
X101473809Y-46362857D01*
X101664285Y-46410476D01*
X101759523Y-46458095D01*
X101854761Y-46553333D01*
X101902380Y-46696190D01*
X101902380Y-46934285D01*
X101902380Y-45410476D02*
X101902380Y-45981904D01*
X101902380Y-45696190D02*
X100902380Y-45696190D01*
X101045238Y-45791428D01*
X101140476Y-45886666D01*
X101188095Y-45981904D01*
X100902380Y-45077142D02*
X100902380Y-44458095D01*
X101283333Y-44791428D01*
X101283333Y-44648571D01*
X101330952Y-44553333D01*
X101378571Y-44505714D01*
X101473809Y-44458095D01*
X101711904Y-44458095D01*
X101807142Y-44505714D01*
X101854761Y-44553333D01*
X101902380Y-44648571D01*
X101902380Y-44934285D01*
X101854761Y-45029523D01*
X101807142Y-45077142D01*
G04 #@! TO.C,D12*
X109522380Y-46934285D02*
X108522380Y-46934285D01*
X108522380Y-46696190D01*
X108570000Y-46553333D01*
X108665238Y-46458095D01*
X108760476Y-46410476D01*
X108950952Y-46362857D01*
X109093809Y-46362857D01*
X109284285Y-46410476D01*
X109379523Y-46458095D01*
X109474761Y-46553333D01*
X109522380Y-46696190D01*
X109522380Y-46934285D01*
X109522380Y-45410476D02*
X109522380Y-45981904D01*
X109522380Y-45696190D02*
X108522380Y-45696190D01*
X108665238Y-45791428D01*
X108760476Y-45886666D01*
X108808095Y-45981904D01*
X108617619Y-45029523D02*
X108570000Y-44981904D01*
X108522380Y-44886666D01*
X108522380Y-44648571D01*
X108570000Y-44553333D01*
X108617619Y-44505714D01*
X108712857Y-44458095D01*
X108808095Y-44458095D01*
X108950952Y-44505714D01*
X109522380Y-45077142D01*
X109522380Y-44458095D01*
G04 #@! TO.C,D11*
X117142380Y-46934285D02*
X116142380Y-46934285D01*
X116142380Y-46696190D01*
X116190000Y-46553333D01*
X116285238Y-46458095D01*
X116380476Y-46410476D01*
X116570952Y-46362857D01*
X116713809Y-46362857D01*
X116904285Y-46410476D01*
X116999523Y-46458095D01*
X117094761Y-46553333D01*
X117142380Y-46696190D01*
X117142380Y-46934285D01*
X117142380Y-45410476D02*
X117142380Y-45981904D01*
X117142380Y-45696190D02*
X116142380Y-45696190D01*
X116285238Y-45791428D01*
X116380476Y-45886666D01*
X116428095Y-45981904D01*
X117142380Y-44458095D02*
X117142380Y-45029523D01*
X117142380Y-44743809D02*
X116142380Y-44743809D01*
X116285238Y-44839047D01*
X116380476Y-44934285D01*
X116428095Y-45029523D01*
G04 #@! TO.C,D10*
X124762380Y-46934285D02*
X123762380Y-46934285D01*
X123762380Y-46696190D01*
X123810000Y-46553333D01*
X123905238Y-46458095D01*
X124000476Y-46410476D01*
X124190952Y-46362857D01*
X124333809Y-46362857D01*
X124524285Y-46410476D01*
X124619523Y-46458095D01*
X124714761Y-46553333D01*
X124762380Y-46696190D01*
X124762380Y-46934285D01*
X124762380Y-45410476D02*
X124762380Y-45981904D01*
X124762380Y-45696190D02*
X123762380Y-45696190D01*
X123905238Y-45791428D01*
X124000476Y-45886666D01*
X124048095Y-45981904D01*
X123762380Y-44791428D02*
X123762380Y-44696190D01*
X123810000Y-44600952D01*
X123857619Y-44553333D01*
X123952857Y-44505714D01*
X124143333Y-44458095D01*
X124381428Y-44458095D01*
X124571904Y-44505714D01*
X124667142Y-44553333D01*
X124714761Y-44600952D01*
X124762380Y-44696190D01*
X124762380Y-44791428D01*
X124714761Y-44886666D01*
X124667142Y-44934285D01*
X124571904Y-44981904D01*
X124381428Y-45029523D01*
X124143333Y-45029523D01*
X123952857Y-44981904D01*
X123857619Y-44934285D01*
X123810000Y-44886666D01*
X123762380Y-44791428D01*
G04 #@! TO.C,D9*
X132382380Y-46458095D02*
X131382380Y-46458095D01*
X131382380Y-46220000D01*
X131430000Y-46077142D01*
X131525238Y-45981904D01*
X131620476Y-45934285D01*
X131810952Y-45886666D01*
X131953809Y-45886666D01*
X132144285Y-45934285D01*
X132239523Y-45981904D01*
X132334761Y-46077142D01*
X132382380Y-46220000D01*
X132382380Y-46458095D01*
X132382380Y-45410476D02*
X132382380Y-45220000D01*
X132334761Y-45124761D01*
X132287142Y-45077142D01*
X132144285Y-44981904D01*
X131953809Y-44934285D01*
X131572857Y-44934285D01*
X131477619Y-44981904D01*
X131430000Y-45029523D01*
X131382380Y-45124761D01*
X131382380Y-45315238D01*
X131430000Y-45410476D01*
X131477619Y-45458095D01*
X131572857Y-45505714D01*
X131810952Y-45505714D01*
X131906190Y-45458095D01*
X131953809Y-45410476D01*
X132001428Y-45315238D01*
X132001428Y-45124761D01*
X131953809Y-45029523D01*
X131906190Y-44981904D01*
X131810952Y-44934285D01*
G04 #@! TO.C,D8*
X14272380Y-46458095D02*
X13272380Y-46458095D01*
X13272380Y-46220000D01*
X13320000Y-46077142D01*
X13415238Y-45981904D01*
X13510476Y-45934285D01*
X13700952Y-45886666D01*
X13843809Y-45886666D01*
X14034285Y-45934285D01*
X14129523Y-45981904D01*
X14224761Y-46077142D01*
X14272380Y-46220000D01*
X14272380Y-46458095D01*
X13700952Y-45315238D02*
X13653333Y-45410476D01*
X13605714Y-45458095D01*
X13510476Y-45505714D01*
X13462857Y-45505714D01*
X13367619Y-45458095D01*
X13320000Y-45410476D01*
X13272380Y-45315238D01*
X13272380Y-45124761D01*
X13320000Y-45029523D01*
X13367619Y-44981904D01*
X13462857Y-44934285D01*
X13510476Y-44934285D01*
X13605714Y-44981904D01*
X13653333Y-45029523D01*
X13700952Y-45124761D01*
X13700952Y-45315238D01*
X13748571Y-45410476D01*
X13796190Y-45458095D01*
X13891428Y-45505714D01*
X14081904Y-45505714D01*
X14177142Y-45458095D01*
X14224761Y-45410476D01*
X14272380Y-45315238D01*
X14272380Y-45124761D01*
X14224761Y-45029523D01*
X14177142Y-44981904D01*
X14081904Y-44934285D01*
X13891428Y-44934285D01*
X13796190Y-44981904D01*
X13748571Y-45029523D01*
X13700952Y-45124761D01*
G04 #@! TO.C,D7*
X21892380Y-46458095D02*
X20892380Y-46458095D01*
X20892380Y-46220000D01*
X20940000Y-46077142D01*
X21035238Y-45981904D01*
X21130476Y-45934285D01*
X21320952Y-45886666D01*
X21463809Y-45886666D01*
X21654285Y-45934285D01*
X21749523Y-45981904D01*
X21844761Y-46077142D01*
X21892380Y-46220000D01*
X21892380Y-46458095D01*
X20892380Y-45553333D02*
X20892380Y-44886666D01*
X21892380Y-45315238D01*
G04 #@! TO.C,D6*
X29512380Y-46458095D02*
X28512380Y-46458095D01*
X28512380Y-46220000D01*
X28560000Y-46077142D01*
X28655238Y-45981904D01*
X28750476Y-45934285D01*
X28940952Y-45886666D01*
X29083809Y-45886666D01*
X29274285Y-45934285D01*
X29369523Y-45981904D01*
X29464761Y-46077142D01*
X29512380Y-46220000D01*
X29512380Y-46458095D01*
X28512380Y-45029523D02*
X28512380Y-45220000D01*
X28560000Y-45315238D01*
X28607619Y-45362857D01*
X28750476Y-45458095D01*
X28940952Y-45505714D01*
X29321904Y-45505714D01*
X29417142Y-45458095D01*
X29464761Y-45410476D01*
X29512380Y-45315238D01*
X29512380Y-45124761D01*
X29464761Y-45029523D01*
X29417142Y-44981904D01*
X29321904Y-44934285D01*
X29083809Y-44934285D01*
X28988571Y-44981904D01*
X28940952Y-45029523D01*
X28893333Y-45124761D01*
X28893333Y-45315238D01*
X28940952Y-45410476D01*
X28988571Y-45458095D01*
X29083809Y-45505714D01*
G04 #@! TO.C,D5*
X37132380Y-46458095D02*
X36132380Y-46458095D01*
X36132380Y-46220000D01*
X36180000Y-46077142D01*
X36275238Y-45981904D01*
X36370476Y-45934285D01*
X36560952Y-45886666D01*
X36703809Y-45886666D01*
X36894285Y-45934285D01*
X36989523Y-45981904D01*
X37084761Y-46077142D01*
X37132380Y-46220000D01*
X37132380Y-46458095D01*
X36132380Y-44981904D02*
X36132380Y-45458095D01*
X36608571Y-45505714D01*
X36560952Y-45458095D01*
X36513333Y-45362857D01*
X36513333Y-45124761D01*
X36560952Y-45029523D01*
X36608571Y-44981904D01*
X36703809Y-44934285D01*
X36941904Y-44934285D01*
X37037142Y-44981904D01*
X37084761Y-45029523D01*
X37132380Y-45124761D01*
X37132380Y-45362857D01*
X37084761Y-45458095D01*
X37037142Y-45505714D01*
G04 #@! TO.C,D4*
X44752380Y-46458095D02*
X43752380Y-46458095D01*
X43752380Y-46220000D01*
X43800000Y-46077142D01*
X43895238Y-45981904D01*
X43990476Y-45934285D01*
X44180952Y-45886666D01*
X44323809Y-45886666D01*
X44514285Y-45934285D01*
X44609523Y-45981904D01*
X44704761Y-46077142D01*
X44752380Y-46220000D01*
X44752380Y-46458095D01*
X44085714Y-45029523D02*
X44752380Y-45029523D01*
X43704761Y-45267619D02*
X44419047Y-45505714D01*
X44419047Y-44886666D01*
G04 #@! TO.C,D3*
X52372380Y-46458095D02*
X51372380Y-46458095D01*
X51372380Y-46220000D01*
X51420000Y-46077142D01*
X51515238Y-45981904D01*
X51610476Y-45934285D01*
X51800952Y-45886666D01*
X51943809Y-45886666D01*
X52134285Y-45934285D01*
X52229523Y-45981904D01*
X52324761Y-46077142D01*
X52372380Y-46220000D01*
X52372380Y-46458095D01*
X51372380Y-45553333D02*
X51372380Y-44934285D01*
X51753333Y-45267619D01*
X51753333Y-45124761D01*
X51800952Y-45029523D01*
X51848571Y-44981904D01*
X51943809Y-44934285D01*
X52181904Y-44934285D01*
X52277142Y-44981904D01*
X52324761Y-45029523D01*
X52372380Y-45124761D01*
X52372380Y-45410476D01*
X52324761Y-45505714D01*
X52277142Y-45553333D01*
G04 #@! TO.C,D2*
X59992380Y-46458095D02*
X58992380Y-46458095D01*
X58992380Y-46220000D01*
X59040000Y-46077142D01*
X59135238Y-45981904D01*
X59230476Y-45934285D01*
X59420952Y-45886666D01*
X59563809Y-45886666D01*
X59754285Y-45934285D01*
X59849523Y-45981904D01*
X59944761Y-46077142D01*
X59992380Y-46220000D01*
X59992380Y-46458095D01*
X59087619Y-45505714D02*
X59040000Y-45458095D01*
X58992380Y-45362857D01*
X58992380Y-45124761D01*
X59040000Y-45029523D01*
X59087619Y-44981904D01*
X59182857Y-44934285D01*
X59278095Y-44934285D01*
X59420952Y-44981904D01*
X59992380Y-45553333D01*
X59992380Y-44934285D01*
G04 #@! TO.C,D1*
X67612380Y-46458095D02*
X66612380Y-46458095D01*
X66612380Y-46220000D01*
X66660000Y-46077142D01*
X66755238Y-45981904D01*
X66850476Y-45934285D01*
X67040952Y-45886666D01*
X67183809Y-45886666D01*
X67374285Y-45934285D01*
X67469523Y-45981904D01*
X67564761Y-46077142D01*
X67612380Y-46220000D01*
X67612380Y-46458095D01*
X67612380Y-44934285D02*
X67612380Y-45505714D01*
X67612380Y-45220000D02*
X66612380Y-45220000D01*
X66755238Y-45315238D01*
X66850476Y-45410476D01*
X66898095Y-45505714D01*
G04 #@! TO.C,C16*
X217817142Y-123257142D02*
X217769523Y-123304761D01*
X217626666Y-123352380D01*
X217531428Y-123352380D01*
X217388571Y-123304761D01*
X217293333Y-123209523D01*
X217245714Y-123114285D01*
X217198095Y-122923809D01*
X217198095Y-122780952D01*
X217245714Y-122590476D01*
X217293333Y-122495238D01*
X217388571Y-122400000D01*
X217531428Y-122352380D01*
X217626666Y-122352380D01*
X217769523Y-122400000D01*
X217817142Y-122447619D01*
X218769523Y-123352380D02*
X218198095Y-123352380D01*
X218483809Y-123352380D02*
X218483809Y-122352380D01*
X218388571Y-122495238D01*
X218293333Y-122590476D01*
X218198095Y-122638095D01*
X219626666Y-122352380D02*
X219436190Y-122352380D01*
X219340952Y-122400000D01*
X219293333Y-122447619D01*
X219198095Y-122590476D01*
X219150476Y-122780952D01*
X219150476Y-123161904D01*
X219198095Y-123257142D01*
X219245714Y-123304761D01*
X219340952Y-123352380D01*
X219531428Y-123352380D01*
X219626666Y-123304761D01*
X219674285Y-123257142D01*
X219721904Y-123161904D01*
X219721904Y-122923809D01*
X219674285Y-122828571D01*
X219626666Y-122780952D01*
X219531428Y-122733333D01*
X219340952Y-122733333D01*
X219245714Y-122780952D01*
X219198095Y-122828571D01*
X219150476Y-122923809D01*
G04 #@! TO.C,C15*
X38167142Y-165722857D02*
X38214761Y-165770476D01*
X38262380Y-165913333D01*
X38262380Y-166008571D01*
X38214761Y-166151428D01*
X38119523Y-166246666D01*
X38024285Y-166294285D01*
X37833809Y-166341904D01*
X37690952Y-166341904D01*
X37500476Y-166294285D01*
X37405238Y-166246666D01*
X37310000Y-166151428D01*
X37262380Y-166008571D01*
X37262380Y-165913333D01*
X37310000Y-165770476D01*
X37357619Y-165722857D01*
X38262380Y-164770476D02*
X38262380Y-165341904D01*
X38262380Y-165056190D02*
X37262380Y-165056190D01*
X37405238Y-165151428D01*
X37500476Y-165246666D01*
X37548095Y-165341904D01*
X37262380Y-163865714D02*
X37262380Y-164341904D01*
X37738571Y-164389523D01*
X37690952Y-164341904D01*
X37643333Y-164246666D01*
X37643333Y-164008571D01*
X37690952Y-163913333D01*
X37738571Y-163865714D01*
X37833809Y-163818095D01*
X38071904Y-163818095D01*
X38167142Y-163865714D01*
X38214761Y-163913333D01*
X38262380Y-164008571D01*
X38262380Y-164246666D01*
X38214761Y-164341904D01*
X38167142Y-164389523D01*
G04 #@! TO.C,C14*
X269887142Y-77537142D02*
X269839523Y-77584761D01*
X269696666Y-77632380D01*
X269601428Y-77632380D01*
X269458571Y-77584761D01*
X269363333Y-77489523D01*
X269315714Y-77394285D01*
X269268095Y-77203809D01*
X269268095Y-77060952D01*
X269315714Y-76870476D01*
X269363333Y-76775238D01*
X269458571Y-76680000D01*
X269601428Y-76632380D01*
X269696666Y-76632380D01*
X269839523Y-76680000D01*
X269887142Y-76727619D01*
X270839523Y-77632380D02*
X270268095Y-77632380D01*
X270553809Y-77632380D02*
X270553809Y-76632380D01*
X270458571Y-76775238D01*
X270363333Y-76870476D01*
X270268095Y-76918095D01*
X271696666Y-76965714D02*
X271696666Y-77632380D01*
X271458571Y-76584761D02*
X271220476Y-77299047D01*
X271839523Y-77299047D01*
G04 #@! TO.C,C13*
X235597142Y-77537142D02*
X235549523Y-77584761D01*
X235406666Y-77632380D01*
X235311428Y-77632380D01*
X235168571Y-77584761D01*
X235073333Y-77489523D01*
X235025714Y-77394285D01*
X234978095Y-77203809D01*
X234978095Y-77060952D01*
X235025714Y-76870476D01*
X235073333Y-76775238D01*
X235168571Y-76680000D01*
X235311428Y-76632380D01*
X235406666Y-76632380D01*
X235549523Y-76680000D01*
X235597142Y-76727619D01*
X236549523Y-77632380D02*
X235978095Y-77632380D01*
X236263809Y-77632380D02*
X236263809Y-76632380D01*
X236168571Y-76775238D01*
X236073333Y-76870476D01*
X235978095Y-76918095D01*
X236882857Y-76632380D02*
X237501904Y-76632380D01*
X237168571Y-77013333D01*
X237311428Y-77013333D01*
X237406666Y-77060952D01*
X237454285Y-77108571D01*
X237501904Y-77203809D01*
X237501904Y-77441904D01*
X237454285Y-77537142D01*
X237406666Y-77584761D01*
X237311428Y-77632380D01*
X237025714Y-77632380D01*
X236930476Y-77584761D01*
X236882857Y-77537142D01*
G04 #@! TO.C,C12*
X201307142Y-77537142D02*
X201259523Y-77584761D01*
X201116666Y-77632380D01*
X201021428Y-77632380D01*
X200878571Y-77584761D01*
X200783333Y-77489523D01*
X200735714Y-77394285D01*
X200688095Y-77203809D01*
X200688095Y-77060952D01*
X200735714Y-76870476D01*
X200783333Y-76775238D01*
X200878571Y-76680000D01*
X201021428Y-76632380D01*
X201116666Y-76632380D01*
X201259523Y-76680000D01*
X201307142Y-76727619D01*
X202259523Y-77632380D02*
X201688095Y-77632380D01*
X201973809Y-77632380D02*
X201973809Y-76632380D01*
X201878571Y-76775238D01*
X201783333Y-76870476D01*
X201688095Y-76918095D01*
X202640476Y-76727619D02*
X202688095Y-76680000D01*
X202783333Y-76632380D01*
X203021428Y-76632380D01*
X203116666Y-76680000D01*
X203164285Y-76727619D01*
X203211904Y-76822857D01*
X203211904Y-76918095D01*
X203164285Y-77060952D01*
X202592857Y-77632380D01*
X203211904Y-77632380D01*
G04 #@! TO.C,C11*
X167017142Y-76267142D02*
X166969523Y-76314761D01*
X166826666Y-76362380D01*
X166731428Y-76362380D01*
X166588571Y-76314761D01*
X166493333Y-76219523D01*
X166445714Y-76124285D01*
X166398095Y-75933809D01*
X166398095Y-75790952D01*
X166445714Y-75600476D01*
X166493333Y-75505238D01*
X166588571Y-75410000D01*
X166731428Y-75362380D01*
X166826666Y-75362380D01*
X166969523Y-75410000D01*
X167017142Y-75457619D01*
X167969523Y-76362380D02*
X167398095Y-76362380D01*
X167683809Y-76362380D02*
X167683809Y-75362380D01*
X167588571Y-75505238D01*
X167493333Y-75600476D01*
X167398095Y-75648095D01*
X168921904Y-76362380D02*
X168350476Y-76362380D01*
X168636190Y-76362380D02*
X168636190Y-75362380D01*
X168540952Y-75505238D01*
X168445714Y-75600476D01*
X168350476Y-75648095D01*
G04 #@! TO.C,C10*
X131457142Y-76267142D02*
X131409523Y-76314761D01*
X131266666Y-76362380D01*
X131171428Y-76362380D01*
X131028571Y-76314761D01*
X130933333Y-76219523D01*
X130885714Y-76124285D01*
X130838095Y-75933809D01*
X130838095Y-75790952D01*
X130885714Y-75600476D01*
X130933333Y-75505238D01*
X131028571Y-75410000D01*
X131171428Y-75362380D01*
X131266666Y-75362380D01*
X131409523Y-75410000D01*
X131457142Y-75457619D01*
X132409523Y-76362380D02*
X131838095Y-76362380D01*
X132123809Y-76362380D02*
X132123809Y-75362380D01*
X132028571Y-75505238D01*
X131933333Y-75600476D01*
X131838095Y-75648095D01*
X133028571Y-75362380D02*
X133123809Y-75362380D01*
X133219047Y-75410000D01*
X133266666Y-75457619D01*
X133314285Y-75552857D01*
X133361904Y-75743333D01*
X133361904Y-75981428D01*
X133314285Y-76171904D01*
X133266666Y-76267142D01*
X133219047Y-76314761D01*
X133123809Y-76362380D01*
X133028571Y-76362380D01*
X132933333Y-76314761D01*
X132885714Y-76267142D01*
X132838095Y-76171904D01*
X132790476Y-75981428D01*
X132790476Y-75743333D01*
X132838095Y-75552857D01*
X132885714Y-75457619D01*
X132933333Y-75410000D01*
X133028571Y-75362380D01*
G04 #@! TO.C,C9*
X97643333Y-76267142D02*
X97595714Y-76314761D01*
X97452857Y-76362380D01*
X97357619Y-76362380D01*
X97214761Y-76314761D01*
X97119523Y-76219523D01*
X97071904Y-76124285D01*
X97024285Y-75933809D01*
X97024285Y-75790952D01*
X97071904Y-75600476D01*
X97119523Y-75505238D01*
X97214761Y-75410000D01*
X97357619Y-75362380D01*
X97452857Y-75362380D01*
X97595714Y-75410000D01*
X97643333Y-75457619D01*
X98119523Y-76362380D02*
X98310000Y-76362380D01*
X98405238Y-76314761D01*
X98452857Y-76267142D01*
X98548095Y-76124285D01*
X98595714Y-75933809D01*
X98595714Y-75552857D01*
X98548095Y-75457619D01*
X98500476Y-75410000D01*
X98405238Y-75362380D01*
X98214761Y-75362380D01*
X98119523Y-75410000D01*
X98071904Y-75457619D01*
X98024285Y-75552857D01*
X98024285Y-75790952D01*
X98071904Y-75886190D01*
X98119523Y-75933809D01*
X98214761Y-75981428D01*
X98405238Y-75981428D01*
X98500476Y-75933809D01*
X98548095Y-75886190D01*
X98595714Y-75790952D01*
G04 #@! TO.C,C8*
X64623333Y-77537142D02*
X64575714Y-77584761D01*
X64432857Y-77632380D01*
X64337619Y-77632380D01*
X64194761Y-77584761D01*
X64099523Y-77489523D01*
X64051904Y-77394285D01*
X64004285Y-77203809D01*
X64004285Y-77060952D01*
X64051904Y-76870476D01*
X64099523Y-76775238D01*
X64194761Y-76680000D01*
X64337619Y-76632380D01*
X64432857Y-76632380D01*
X64575714Y-76680000D01*
X64623333Y-76727619D01*
X65194761Y-77060952D02*
X65099523Y-77013333D01*
X65051904Y-76965714D01*
X65004285Y-76870476D01*
X65004285Y-76822857D01*
X65051904Y-76727619D01*
X65099523Y-76680000D01*
X65194761Y-76632380D01*
X65385238Y-76632380D01*
X65480476Y-76680000D01*
X65528095Y-76727619D01*
X65575714Y-76822857D01*
X65575714Y-76870476D01*
X65528095Y-76965714D01*
X65480476Y-77013333D01*
X65385238Y-77060952D01*
X65194761Y-77060952D01*
X65099523Y-77108571D01*
X65051904Y-77156190D01*
X65004285Y-77251428D01*
X65004285Y-77441904D01*
X65051904Y-77537142D01*
X65099523Y-77584761D01*
X65194761Y-77632380D01*
X65385238Y-77632380D01*
X65480476Y-77584761D01*
X65528095Y-77537142D01*
X65575714Y-77441904D01*
X65575714Y-77251428D01*
X65528095Y-77156190D01*
X65480476Y-77108571D01*
X65385238Y-77060952D01*
G04 #@! TO.C,C7*
X31603333Y-77537142D02*
X31555714Y-77584761D01*
X31412857Y-77632380D01*
X31317619Y-77632380D01*
X31174761Y-77584761D01*
X31079523Y-77489523D01*
X31031904Y-77394285D01*
X30984285Y-77203809D01*
X30984285Y-77060952D01*
X31031904Y-76870476D01*
X31079523Y-76775238D01*
X31174761Y-76680000D01*
X31317619Y-76632380D01*
X31412857Y-76632380D01*
X31555714Y-76680000D01*
X31603333Y-76727619D01*
X31936666Y-76632380D02*
X32603333Y-76632380D01*
X32174761Y-77632380D01*
G04 #@! TO.C,C6*
X125797142Y-118256666D02*
X125844761Y-118304285D01*
X125892380Y-118447142D01*
X125892380Y-118542380D01*
X125844761Y-118685238D01*
X125749523Y-118780476D01*
X125654285Y-118828095D01*
X125463809Y-118875714D01*
X125320952Y-118875714D01*
X125130476Y-118828095D01*
X125035238Y-118780476D01*
X124940000Y-118685238D01*
X124892380Y-118542380D01*
X124892380Y-118447142D01*
X124940000Y-118304285D01*
X124987619Y-118256666D01*
X124892380Y-117399523D02*
X124892380Y-117590000D01*
X124940000Y-117685238D01*
X124987619Y-117732857D01*
X125130476Y-117828095D01*
X125320952Y-117875714D01*
X125701904Y-117875714D01*
X125797142Y-117828095D01*
X125844761Y-117780476D01*
X125892380Y-117685238D01*
X125892380Y-117494761D01*
X125844761Y-117399523D01*
X125797142Y-117351904D01*
X125701904Y-117304285D01*
X125463809Y-117304285D01*
X125368571Y-117351904D01*
X125320952Y-117399523D01*
X125273333Y-117494761D01*
X125273333Y-117685238D01*
X125320952Y-117780476D01*
X125368571Y-117828095D01*
X125463809Y-117875714D01*
G04 #@! TO.C,C5*
X36897142Y-118256666D02*
X36944761Y-118304285D01*
X36992380Y-118447142D01*
X36992380Y-118542380D01*
X36944761Y-118685238D01*
X36849523Y-118780476D01*
X36754285Y-118828095D01*
X36563809Y-118875714D01*
X36420952Y-118875714D01*
X36230476Y-118828095D01*
X36135238Y-118780476D01*
X36040000Y-118685238D01*
X35992380Y-118542380D01*
X35992380Y-118447142D01*
X36040000Y-118304285D01*
X36087619Y-118256666D01*
X35992380Y-117351904D02*
X35992380Y-117828095D01*
X36468571Y-117875714D01*
X36420952Y-117828095D01*
X36373333Y-117732857D01*
X36373333Y-117494761D01*
X36420952Y-117399523D01*
X36468571Y-117351904D01*
X36563809Y-117304285D01*
X36801904Y-117304285D01*
X36897142Y-117351904D01*
X36944761Y-117399523D01*
X36992380Y-117494761D01*
X36992380Y-117732857D01*
X36944761Y-117828095D01*
X36897142Y-117875714D01*
G04 #@! TO.C,C4*
X223587142Y-30626666D02*
X223634761Y-30674285D01*
X223682380Y-30817142D01*
X223682380Y-30912380D01*
X223634761Y-31055238D01*
X223539523Y-31150476D01*
X223444285Y-31198095D01*
X223253809Y-31245714D01*
X223110952Y-31245714D01*
X222920476Y-31198095D01*
X222825238Y-31150476D01*
X222730000Y-31055238D01*
X222682380Y-30912380D01*
X222682380Y-30817142D01*
X222730000Y-30674285D01*
X222777619Y-30626666D01*
X223015714Y-29769523D02*
X223682380Y-29769523D01*
X222634761Y-30007619D02*
X223349047Y-30245714D01*
X223349047Y-29626666D01*
G04 #@! TO.C,C3*
X158817142Y-31896666D02*
X158864761Y-31944285D01*
X158912380Y-32087142D01*
X158912380Y-32182380D01*
X158864761Y-32325238D01*
X158769523Y-32420476D01*
X158674285Y-32468095D01*
X158483809Y-32515714D01*
X158340952Y-32515714D01*
X158150476Y-32468095D01*
X158055238Y-32420476D01*
X157960000Y-32325238D01*
X157912380Y-32182380D01*
X157912380Y-32087142D01*
X157960000Y-31944285D01*
X158007619Y-31896666D01*
X157912380Y-31563333D02*
X157912380Y-30944285D01*
X158293333Y-31277619D01*
X158293333Y-31134761D01*
X158340952Y-31039523D01*
X158388571Y-30991904D01*
X158483809Y-30944285D01*
X158721904Y-30944285D01*
X158817142Y-30991904D01*
X158864761Y-31039523D01*
X158912380Y-31134761D01*
X158912380Y-31420476D01*
X158864761Y-31515714D01*
X158817142Y-31563333D01*
G04 #@! TO.C,C2*
X95317142Y-31896666D02*
X95364761Y-31944285D01*
X95412380Y-32087142D01*
X95412380Y-32182380D01*
X95364761Y-32325238D01*
X95269523Y-32420476D01*
X95174285Y-32468095D01*
X94983809Y-32515714D01*
X94840952Y-32515714D01*
X94650476Y-32468095D01*
X94555238Y-32420476D01*
X94460000Y-32325238D01*
X94412380Y-32182380D01*
X94412380Y-32087142D01*
X94460000Y-31944285D01*
X94507619Y-31896666D01*
X94507619Y-31515714D02*
X94460000Y-31468095D01*
X94412380Y-31372857D01*
X94412380Y-31134761D01*
X94460000Y-31039523D01*
X94507619Y-30991904D01*
X94602857Y-30944285D01*
X94698095Y-30944285D01*
X94840952Y-30991904D01*
X95412380Y-31563333D01*
X95412380Y-30944285D01*
G04 #@! TO.C,C1*
X30547142Y-30626666D02*
X30594761Y-30674285D01*
X30642380Y-30817142D01*
X30642380Y-30912380D01*
X30594761Y-31055238D01*
X30499523Y-31150476D01*
X30404285Y-31198095D01*
X30213809Y-31245714D01*
X30070952Y-31245714D01*
X29880476Y-31198095D01*
X29785238Y-31150476D01*
X29690000Y-31055238D01*
X29642380Y-30912380D01*
X29642380Y-30817142D01*
X29690000Y-30674285D01*
X29737619Y-30626666D01*
X30642380Y-29674285D02*
X30642380Y-30245714D01*
X30642380Y-29960000D02*
X29642380Y-29960000D01*
X29785238Y-30055238D01*
X29880476Y-30150476D01*
X29928095Y-30245714D01*
G04 #@! TD*
M02*
