M48
; DRILL file {KiCad 5.1.6-c6e7f7d~87~ubuntu16.04.1} date Wed Nov 11 22:37:16 2020
; FORMAT={-:-/ absolute / metric / decimal}
; #@! TF.CreationDate,2020-11-11T22:37:16-05:00
; #@! TF.GenerationSoftware,Kicad,Pcbnew,5.1.6-c6e7f7d~87~ubuntu16.04.1
FMAT,2
METRIC
T1C0.400
T2C0.700
T3C0.800
T4C0.900
T5C1.000
%
G90
G05
T1
X22.473Y-47.623
X34.958Y-66.752
X37.414Y-39.027
X44.627Y-126.864
X48.404Y-117.562
X49.403Y-164.56
X50.121Y-173.045
X51.462Y-147.108
X51.873Y-42.678
X54.237Y-153.591
X57.679Y-87.504
X60.285Y-52.942
X60.619Y-31.733
X64.725Y-66.027
X65.106Y-80.251
X65.45Y-77.6
X69.065Y-38.781
X70.132Y-63.968
X70.338Y-69.941
X71.466Y-66.725
X84.292Y-101.911
X97.052Y-64.563
X97.286Y-88.876
X97.522Y-77.384
X105.29Y-102.641
X106.541Y-77.949
X108.21Y-74.126
X109.003Y-61.855
X109.746Y-77.044
X110.928Y-39.425
X112.536Y-59.824
X120.21Y-101.153
X124.191Y-25.923
X125.732Y-115.424
X130.024Y-103.18
X132.879Y-101.886
X133.221Y-61.216
X136.622Y-66.284
X138.658Y-73.95
X139.325Y-49.024
X139.325Y-61.568
X139.6Y-81.063
X139.751Y-126.182
X140.112Y-74.096
X151.137Y-98.627
X155.087Y-69.17
X155.087Y-71.275
X155.393Y-26.726
X156.165Y-70.667
X158.514Y-101.736
X159.338Y-35.522
X162.793Y-102.591
X162.85Y-68.65
X166.981Y-59.15
X167.307Y-102.978
X167.568Y-62.361
X167.584Y-81.413
X168.797Y-61.893
X171.419Y-63.139
X172.029Y-69.083
X173.45Y-67.174
X174.526Y-39.713
X177.035Y-88.242
X180.125Y-72.142
X183.755Y-31.546
X184.587Y-78.362
X206.112Y-65.584
X215.322Y-66.962
X216.815Y-69.022
X220.461Y-108.334
X225.82Y-87.759
X226.661Y-97.935
X227.27Y-70.703
X229.772Y-137.428
X238.869Y-39.146
X243.392Y-78.222
X247.116Y-77.694
X247.838Y-39.817
T2
X22.86Y-158.75
X25.4Y-158.75
X15.24Y-21.59
X17.78Y-21.59
X17.78Y-111.76
X20.32Y-111.76
T3
X214.63Y-125.73
X214.63Y-128.27
X214.63Y-130.81
X214.63Y-133.35
X214.63Y-135.89
X214.63Y-138.43
X214.63Y-140.97
X214.63Y-143.51
X222.25Y-125.73
X222.25Y-128.27
X222.25Y-130.81
X222.25Y-133.35
X222.25Y-135.89
X222.25Y-138.43
X222.25Y-140.97
X222.25Y-143.51
X156.21Y-30.48
X156.21Y-32.98
X39.37Y-142.24
X41.91Y-142.24
X44.45Y-142.24
X46.99Y-142.24
X49.53Y-142.24
X52.07Y-142.24
X54.61Y-142.24
X57.15Y-142.24
X59.69Y-142.24
X163.83Y-80.01
X163.83Y-82.55
X163.83Y-85.09
X163.83Y-87.63
X163.83Y-90.17
X163.83Y-92.71
X163.83Y-95.25
X163.83Y-97.79
X171.45Y-80.01
X171.45Y-82.55
X171.45Y-85.09
X171.45Y-87.63
X171.45Y-90.17
X171.45Y-92.71
X171.45Y-95.25
X171.45Y-97.79
X92.71Y-30.48
X92.71Y-32.98
X234.99Y-74.93
X237.49Y-74.93
X60.96Y-80.01
X60.96Y-82.55
X60.96Y-85.09
X60.96Y-87.63
X60.96Y-90.17
X60.96Y-92.71
X60.96Y-95.25
X60.96Y-97.79
X68.58Y-80.01
X68.58Y-82.55
X68.58Y-85.09
X68.58Y-87.63
X68.58Y-90.17
X68.58Y-92.71
X68.58Y-95.25
X68.58Y-97.79
X266.7Y-81.28
X266.7Y-83.82
X266.7Y-86.36
X266.7Y-88.9
X266.7Y-91.44
X266.7Y-93.98
X266.7Y-96.52
X266.7Y-99.06
X274.32Y-81.28
X274.32Y-83.82
X274.32Y-86.36
X274.32Y-88.9
X274.32Y-91.44
X274.32Y-93.98
X274.32Y-96.52
X274.32Y-99.06
X30.52Y-74.93
X33.02Y-74.93
X162.56Y-54.61
X165.1Y-54.61
X167.64Y-54.61
X170.18Y-54.61
X172.72Y-54.61
X175.26Y-54.61
X177.8Y-54.61
X180.34Y-54.61
X182.88Y-54.61
X226.06Y-27.94
X226.06Y-35.56
X228.6Y-27.94
X228.6Y-35.56
X231.14Y-27.94
X231.14Y-35.56
X233.68Y-27.94
X233.68Y-35.56
X236.22Y-27.94
X236.22Y-35.56
X238.76Y-27.94
X238.76Y-35.56
X241.3Y-27.94
X241.3Y-35.56
X243.84Y-27.94
X243.84Y-35.56
X246.38Y-27.94
X246.38Y-35.56
X248.92Y-27.94
X248.92Y-35.56
X96.56Y-73.66
X99.06Y-73.66
X39.37Y-161.29
X39.37Y-168.91
X41.91Y-161.29
X41.91Y-168.91
X44.45Y-161.29
X44.45Y-168.91
X46.99Y-161.29
X46.99Y-168.91
X49.53Y-161.29
X49.53Y-168.91
X52.07Y-161.29
X52.07Y-168.91
X54.61Y-161.29
X54.61Y-168.91
X57.15Y-161.29
X57.15Y-168.91
X59.69Y-161.29
X59.69Y-168.91
X62.23Y-161.29
X62.23Y-168.91
X63.54Y-74.93
X66.04Y-74.93
X128.27Y-80.01
X128.27Y-82.55
X128.27Y-85.09
X128.27Y-87.63
X128.27Y-90.17
X128.27Y-92.71
X128.27Y-95.25
X128.27Y-97.79
X135.89Y-80.01
X135.89Y-82.55
X135.89Y-85.09
X135.89Y-87.63
X135.89Y-90.17
X135.89Y-92.71
X135.89Y-95.25
X135.89Y-97.79
X217.21Y-120.65
X219.71Y-120.65
X97.79Y-27.94
X97.79Y-35.56
X100.33Y-27.94
X100.33Y-35.56
X102.87Y-27.94
X102.87Y-35.56
X105.41Y-27.94
X105.41Y-35.56
X107.95Y-27.94
X107.95Y-35.56
X110.49Y-27.94
X110.49Y-35.56
X113.03Y-27.94
X113.03Y-35.56
X115.57Y-27.94
X115.57Y-35.56
X118.11Y-27.94
X118.11Y-35.56
X120.65Y-27.94
X120.65Y-35.56
X27.94Y-80.01
X27.94Y-82.55
X27.94Y-85.09
X27.94Y-87.63
X27.94Y-90.17
X27.94Y-92.71
X27.94Y-95.25
X27.94Y-97.79
X35.56Y-80.01
X35.56Y-82.55
X35.56Y-85.09
X35.56Y-87.63
X35.56Y-90.17
X35.56Y-92.71
X35.56Y-95.25
X35.56Y-97.79
X232.41Y-81.28
X232.41Y-83.82
X232.41Y-86.36
X232.41Y-88.9
X232.41Y-91.44
X232.41Y-93.98
X232.41Y-96.52
X232.41Y-99.06
X240.03Y-81.28
X240.03Y-83.82
X240.03Y-86.36
X240.03Y-88.9
X240.03Y-91.44
X240.03Y-93.98
X240.03Y-96.52
X240.03Y-99.06
X162.56Y-27.94
X162.56Y-35.56
X165.1Y-27.94
X165.1Y-35.56
X167.64Y-27.94
X167.64Y-35.56
X170.18Y-27.94
X170.18Y-35.56
X172.72Y-27.94
X172.72Y-35.56
X175.26Y-27.94
X175.26Y-35.56
X177.8Y-27.94
X177.8Y-35.56
X180.34Y-27.94
X180.34Y-35.56
X182.88Y-27.94
X182.88Y-35.56
X185.42Y-27.94
X185.42Y-35.56
X129.54Y-114.3
X129.54Y-121.92
X132.08Y-114.3
X132.08Y-121.92
X134.62Y-114.3
X134.62Y-121.92
X137.16Y-114.3
X137.16Y-121.92
X139.7Y-114.3
X139.7Y-121.92
X142.24Y-114.3
X142.24Y-121.92
X144.78Y-114.3
X144.78Y-121.92
X147.32Y-114.3
X147.32Y-121.92
X149.86Y-114.3
X149.86Y-121.92
X152.4Y-114.3
X152.4Y-121.92
X166.41Y-73.66
X168.91Y-73.66
X130.85Y-73.66
X133.35Y-73.66
X97.79Y-54.61
X100.33Y-54.61
X102.87Y-54.61
X105.41Y-54.61
X107.95Y-54.61
X110.49Y-54.61
X113.03Y-54.61
X115.57Y-54.61
X118.11Y-54.61
X198.12Y-81.28
X198.12Y-83.82
X198.12Y-86.36
X198.12Y-88.9
X198.12Y-91.44
X198.12Y-93.98
X198.12Y-96.52
X198.12Y-99.06
X205.74Y-81.28
X205.74Y-83.82
X205.74Y-86.36
X205.74Y-88.9
X205.74Y-91.44
X205.74Y-93.98
X205.74Y-96.52
X205.74Y-99.06
X35.56Y-163.83
X35.56Y-166.33
X39.37Y-114.3
X39.37Y-121.92
X41.91Y-114.3
X41.91Y-121.92
X44.45Y-114.3
X44.45Y-121.92
X46.99Y-114.3
X46.99Y-121.92
X49.53Y-114.3
X49.53Y-121.92
X52.07Y-114.3
X52.07Y-121.92
X54.61Y-114.3
X54.61Y-121.92
X57.15Y-114.3
X57.15Y-121.92
X59.69Y-114.3
X59.69Y-121.92
X62.23Y-114.3
X62.23Y-121.92
X220.98Y-29.21
X220.98Y-31.71
X34.29Y-54.61
X36.83Y-54.61
X39.37Y-54.61
X41.91Y-54.61
X44.45Y-54.61
X46.99Y-54.61
X49.53Y-54.61
X52.07Y-54.61
X54.61Y-54.61
X227.33Y-54.61
X229.87Y-54.61
X232.41Y-54.61
X234.95Y-54.61
X237.49Y-54.61
X240.03Y-54.61
X242.57Y-54.61
X245.11Y-54.61
X247.65Y-54.61
X128.27Y-142.24
X130.81Y-142.24
X133.35Y-142.24
X135.89Y-142.24
X138.43Y-142.24
X140.97Y-142.24
X143.51Y-142.24
X146.05Y-142.24
X148.59Y-142.24
X200.7Y-74.93
X203.2Y-74.93
X93.98Y-80.01
X93.98Y-82.55
X93.98Y-85.09
X93.98Y-87.63
X93.98Y-90.17
X93.98Y-92.71
X93.98Y-95.25
X93.98Y-97.79
X101.6Y-80.01
X101.6Y-82.55
X101.6Y-85.09
X101.6Y-87.63
X101.6Y-90.17
X101.6Y-92.71
X101.6Y-95.25
X101.6Y-97.79
X33.02Y-27.94
X33.02Y-35.56
X35.56Y-27.94
X35.56Y-35.56
X38.1Y-27.94
X38.1Y-35.56
X40.64Y-27.94
X40.64Y-35.56
X43.18Y-27.94
X43.18Y-35.56
X45.72Y-27.94
X45.72Y-35.56
X48.26Y-27.94
X48.26Y-35.56
X50.8Y-27.94
X50.8Y-35.56
X53.34Y-27.94
X53.34Y-35.56
X55.88Y-27.94
X55.88Y-35.56
X269.28Y-74.93
X271.78Y-74.93
X27.94Y-29.21
X27.94Y-31.71
X123.19Y-116.84
X123.19Y-119.34
X34.29Y-116.84
X34.29Y-119.34
T4
X265.43Y-44.45
X265.43Y-46.99
X234.95Y-44.45
X234.95Y-46.99
X24.13Y-163.83
X24.13Y-166.37
X90.17Y-44.45
X90.17Y-46.99
X54.61Y-132.08
X54.61Y-134.62
X170.18Y-44.45
X170.18Y-46.99
X19.05Y-116.84
X19.05Y-119.38
X31.75Y-132.08
X31.75Y-134.62
X63.5Y-44.45
X63.5Y-46.99
X55.88Y-44.45
X55.88Y-46.99
X17.78Y-44.45
X17.78Y-46.99
X250.19Y-44.45
X250.19Y-46.99
X128.27Y-132.08
X128.27Y-134.62
X257.81Y-44.45
X257.81Y-46.99
X71.12Y-44.45
X71.12Y-46.99
X113.03Y-132.08
X113.03Y-134.62
X33.02Y-44.45
X33.02Y-46.99
X128.27Y-44.45
X128.27Y-46.99
X227.33Y-44.45
X227.33Y-46.99
X200.66Y-44.45
X200.66Y-46.99
X82.55Y-44.45
X82.55Y-46.99
X154.94Y-44.45
X154.94Y-46.99
X166.37Y-132.08
X166.37Y-134.62
X162.56Y-44.45
X162.56Y-46.99
X46.99Y-132.08
X46.99Y-134.62
X77.47Y-132.08
X77.47Y-134.62
X105.41Y-44.45
X105.41Y-46.99
X212.09Y-44.45
X212.09Y-46.99
X48.26Y-44.45
X48.26Y-46.99
X147.32Y-44.45
X147.32Y-46.99
X158.75Y-132.08
X158.75Y-134.62
X151.13Y-132.08
X151.13Y-134.62
X120.65Y-44.45
X120.65Y-46.99
X62.23Y-132.08
X62.23Y-134.62
X113.03Y-44.45
X113.03Y-46.99
X135.89Y-132.08
X135.89Y-134.62
X242.57Y-44.45
X242.57Y-46.99
X177.8Y-44.45
X177.8Y-46.99
X25.4Y-44.45
X25.4Y-46.99
X97.79Y-44.45
X97.79Y-46.99
X143.51Y-132.08
X143.51Y-134.62
X120.65Y-132.08
X120.65Y-134.62
X24.13Y-132.08
X24.13Y-134.62
X40.64Y-44.45
X40.64Y-46.99
X135.89Y-44.45
X135.89Y-46.99
X219.71Y-44.45
X219.71Y-46.99
X193.04Y-44.45
X193.04Y-46.99
X185.42Y-44.45
X185.42Y-46.99
X69.85Y-132.08
X69.85Y-134.62
X16.51Y-25.4
X16.51Y-27.94
X39.37Y-132.08
X39.37Y-134.62
T5
X88.9Y-179.07
X91.44Y-179.07
X93.98Y-179.07
X96.52Y-179.07
X99.06Y-179.07
X101.6Y-179.07
X104.14Y-179.07
X106.68Y-179.07
X152.4Y-161.29
X154.94Y-161.29
X157.48Y-161.29
X160.02Y-161.29
X162.56Y-161.29
X165.1Y-161.29
X167.64Y-161.29
X170.18Y-161.29
X266.7Y-20.32
X266.7Y-22.86
X266.7Y-25.4
X165.1Y-16.51
X167.64Y-16.51
X170.18Y-16.51
X172.72Y-16.51
X175.26Y-16.51
X177.8Y-16.51
X180.34Y-16.51
X182.88Y-16.51
X238.76Y-153.67
X238.76Y-156.21
X238.76Y-158.75
X238.76Y-161.29
X152.4Y-179.07
X154.94Y-179.07
X157.48Y-179.07
X160.02Y-179.07
X162.56Y-179.07
X165.1Y-179.07
X167.64Y-179.07
X170.18Y-179.07
X41.91Y-194.31
X44.45Y-194.31
X46.99Y-194.31
X49.53Y-194.31
X52.07Y-194.31
X54.61Y-194.31
X57.15Y-194.31
X59.69Y-194.31
X41.91Y-181.61
X44.45Y-181.61
X46.99Y-181.61
X49.53Y-181.61
X52.07Y-181.61
X54.61Y-181.61
X57.15Y-181.61
X59.69Y-181.61
X88.9Y-161.29
X91.44Y-161.29
X93.98Y-161.29
X96.52Y-161.29
X99.06Y-161.29
X101.6Y-161.29
X104.14Y-161.29
X106.68Y-161.29
X276.86Y-154.94
X276.86Y-157.48
X276.86Y-160.02
X276.86Y-20.32
X276.86Y-22.86
X276.86Y-25.4
T0
M30
