M48
; DRILL file {KiCad 5.1.6-c6e7f7d~87~ubuntu16.04.1} date Sat Jan 23 16:03:22 2021
; FORMAT={-:-/ absolute / metric / decimal}
; #@! TF.CreationDate,2021-01-23T16:03:22-05:00
; #@! TF.GenerationSoftware,Kicad,Pcbnew,5.1.6-c6e7f7d~87~ubuntu16.04.1
FMAT,2
METRIC
T1C0.400
T2C0.700
T3C0.800
T4C0.900
T5C1.000
%
G90
G05
T1
X21.855Y-89.449
X29.292Y-89.651
X37.101Y-51.666
X39.657Y-61.915
X43.127Y-100.375
X45.659Y-89.245
X46.776Y-138.387
X51.984Y-95.29
X53.018Y-55.647
X53.36Y-128.14
X55.789Y-137.331
X56.606Y-82.635
X57.436Y-39.323
X57.82Y-74.367
X57.869Y-97.762
X58.254Y-42.196
X58.657Y-61.649
X58.657Y-39.019
X59.345Y-102.39
X59.566Y-50.65
X60.604Y-104.005
X60.73Y-136.575
X66.132Y-101.165
X73.748Y-72.901
X73.855Y-60.354
X73.918Y-111.123
X74.798Y-160.98
X75.042Y-52.294
X75.471Y-41.476
X76.051Y-54.333
X76.805Y-62.592
X76.927Y-80.094
X79.173Y-94.374
X79.646Y-122.55
X80.954Y-81.838
X81.059Y-89.595
X81.988Y-36.491
X83.238Y-123.275
X83.472Y-77.18
X83.645Y-120.932
X84.033Y-160.852
X84.432Y-36.861
X85.05Y-84.573
X85.517Y-52.281
X85.932Y-65.616
X86.835Y-84.703
X86.939Y-137.21
X87.401Y-135.456
X87.776Y-114.155
X88.215Y-42.004
X88.227Y-97.96
X88.369Y-116.371
X88.443Y-53.394
X88.679Y-86.741
X89.034Y-29.847
X89.042Y-34.254
X89.545Y-27.793
X89.602Y-140.358
X89.631Y-134.333
X97.596Y-61.028
X97.965Y-104.215
X100.185Y-27.865
X109.742Y-87.303
X109.857Y-37.11
X110.796Y-108.53
X111.068Y-41.698
X111.459Y-86.088
X111.568Y-44.143
X111.746Y-89.801
X112.887Y-56.313
X112.887Y-108.314
X113.659Y-75.022
X114.348Y-78.031
X129.499Y-131.245
X136.768Y-100.514
X139.529Y-139.712
X140.229Y-72.901
X141.472Y-129.379
X142.044Y-138.986
X142.316Y-46.161
X143.0Y-137.836
X146.488Y-88.698
X158.08Y-98.887
X158.428Y-97.209
X180.295Y-136.276
T2
X137.16Y-10.16
X139.7Y-10.16
X6.35Y-163.83
X8.89Y-163.83
X6.35Y-13.97
X8.89Y-13.97
T3
X91.44Y-132.08
X91.44Y-139.7
X93.98Y-132.08
X93.98Y-139.7
X96.52Y-132.08
X96.52Y-139.7
X99.06Y-132.08
X99.06Y-139.7
X101.6Y-132.08
X101.6Y-139.7
X104.14Y-132.08
X104.14Y-139.7
X106.68Y-132.08
X106.68Y-139.7
X109.22Y-132.08
X109.22Y-139.7
X91.44Y-6.35
X91.44Y-13.97
X93.98Y-6.35
X93.98Y-13.97
X96.52Y-6.35
X96.52Y-13.97
X99.06Y-6.35
X99.06Y-13.97
X101.6Y-6.35
X101.6Y-13.97
X104.14Y-6.35
X104.14Y-13.97
X106.68Y-6.35
X106.68Y-13.97
X109.22Y-6.35
X109.22Y-13.97
X71.12Y-158.75
X71.12Y-161.25
X85.09Y-115.57
X85.09Y-118.07
X34.29Y-73.66
X36.83Y-73.66
X39.37Y-73.66
X41.91Y-73.66
X44.45Y-73.66
X46.99Y-73.66
X49.53Y-73.66
X52.07Y-73.66
X54.61Y-73.66
X135.89Y-86.36
X135.89Y-88.86
X85.09Y-134.62
X85.09Y-137.12
X76.2Y-156.21
X76.2Y-163.83
X78.74Y-156.21
X78.74Y-163.83
X81.28Y-156.21
X81.28Y-163.83
X83.82Y-156.21
X83.82Y-163.83
X86.36Y-156.21
X86.36Y-163.83
X88.9Y-156.21
X88.9Y-163.83
X91.44Y-156.21
X91.44Y-163.83
X93.98Y-156.21
X93.98Y-163.83
X34.29Y-46.99
X34.29Y-54.61
X36.83Y-46.99
X36.83Y-54.61
X39.37Y-46.99
X39.37Y-54.61
X41.91Y-46.99
X41.91Y-54.61
X44.45Y-46.99
X44.45Y-54.61
X46.99Y-46.99
X46.99Y-54.61
X49.53Y-46.99
X49.53Y-54.61
X52.07Y-46.99
X52.07Y-54.61
X54.61Y-46.99
X54.61Y-54.61
X57.15Y-46.99
X57.15Y-54.61
X86.36Y-25.4
X86.36Y-27.9
X34.29Y-8.89
X34.29Y-16.51
X36.83Y-8.89
X36.83Y-16.51
X39.37Y-8.89
X39.37Y-16.51
X41.91Y-8.89
X41.91Y-16.51
X44.45Y-8.89
X44.45Y-16.51
X46.99Y-8.89
X46.99Y-16.51
X49.53Y-8.89
X49.53Y-16.51
X52.07Y-8.89
X52.07Y-16.51
X54.61Y-8.89
X54.61Y-16.51
X57.15Y-8.89
X57.15Y-16.51
X29.21Y-49.53
X29.21Y-52.03
X91.44Y-113.03
X91.44Y-120.65
X93.98Y-113.03
X93.98Y-120.65
X96.52Y-113.03
X96.52Y-120.65
X99.06Y-113.03
X99.06Y-120.65
X101.6Y-113.03
X101.6Y-120.65
X104.14Y-113.03
X104.14Y-120.65
X106.68Y-113.03
X106.68Y-120.65
X109.22Y-113.03
X109.22Y-120.65
X139.7Y-134.62
X139.7Y-142.24
X142.24Y-134.62
X142.24Y-142.24
X144.78Y-134.62
X144.78Y-142.24
X147.32Y-134.62
X147.32Y-142.24
X149.86Y-134.62
X149.86Y-142.24
X152.4Y-134.62
X152.4Y-142.24
X154.94Y-134.62
X154.94Y-142.24
X157.48Y-134.62
X157.48Y-142.24
X160.02Y-134.62
X160.02Y-142.24
X162.56Y-134.62
X162.56Y-142.24
X135.89Y-38.1
X135.89Y-40.6
X91.44Y-57.15
X91.44Y-64.77
X93.98Y-57.15
X93.98Y-64.77
X96.52Y-57.15
X96.52Y-64.77
X99.06Y-57.15
X99.06Y-64.77
X101.6Y-57.15
X101.6Y-64.77
X104.14Y-57.15
X104.14Y-64.77
X106.68Y-57.15
X106.68Y-64.77
X109.22Y-57.15
X109.22Y-64.77
X35.56Y-35.56
X38.1Y-35.56
X40.64Y-35.56
X43.18Y-35.56
X45.72Y-35.56
X48.26Y-35.56
X50.8Y-35.56
X53.34Y-35.56
X55.88Y-35.56
X85.09Y-41.91
X85.09Y-44.41
X135.89Y-137.16
X135.89Y-139.66
X85.09Y-96.52
X85.09Y-99.02
X29.21Y-10.16
X29.21Y-12.66
X91.44Y-22.86
X91.44Y-30.48
X93.98Y-22.86
X93.98Y-30.48
X96.52Y-22.86
X96.52Y-30.48
X99.06Y-22.86
X99.06Y-30.48
X101.6Y-22.86
X101.6Y-30.48
X104.14Y-22.86
X104.14Y-30.48
X106.68Y-22.86
X106.68Y-30.48
X109.22Y-22.86
X109.22Y-30.48
X34.29Y-149.86
X36.83Y-149.86
X39.37Y-149.86
X41.91Y-149.86
X44.45Y-149.86
X46.99Y-149.86
X49.53Y-149.86
X52.07Y-149.86
X54.61Y-149.86
X142.24Y-83.82
X142.24Y-91.44
X144.78Y-83.82
X144.78Y-91.44
X147.32Y-83.82
X147.32Y-91.44
X149.86Y-83.82
X149.86Y-91.44
X152.4Y-83.82
X152.4Y-91.44
X154.94Y-83.82
X154.94Y-91.44
X157.48Y-83.82
X157.48Y-91.44
X160.02Y-83.82
X160.02Y-91.44
X162.56Y-83.82
X162.56Y-91.44
X165.1Y-83.82
X165.1Y-91.44
X140.97Y-35.56
X140.97Y-43.18
X143.51Y-35.56
X143.51Y-43.18
X146.05Y-35.56
X146.05Y-43.18
X148.59Y-35.56
X148.59Y-43.18
X151.13Y-35.56
X151.13Y-43.18
X153.67Y-35.56
X153.67Y-43.18
X156.21Y-35.56
X156.21Y-43.18
X158.75Y-35.56
X158.75Y-43.18
X161.29Y-35.56
X161.29Y-43.18
X163.83Y-35.56
X163.83Y-43.18
X140.97Y-63.5
X143.51Y-63.5
X146.05Y-63.5
X148.59Y-63.5
X151.13Y-63.5
X153.67Y-63.5
X156.21Y-63.5
X158.75Y-63.5
X161.29Y-63.5
X140.97Y-111.76
X143.51Y-111.76
X146.05Y-111.76
X148.59Y-111.76
X151.13Y-111.76
X153.67Y-111.76
X156.21Y-111.76
X158.75Y-111.76
X161.29Y-111.76
X85.09Y-59.69
X85.09Y-62.19
X33.02Y-111.76
X35.56Y-111.76
X38.1Y-111.76
X40.64Y-111.76
X43.18Y-111.76
X45.72Y-111.76
X48.26Y-111.76
X50.8Y-111.76
X53.34Y-111.76
X33.02Y-85.09
X33.02Y-92.71
X35.56Y-85.09
X35.56Y-92.71
X38.1Y-85.09
X38.1Y-92.71
X40.64Y-85.09
X40.64Y-92.71
X43.18Y-85.09
X43.18Y-92.71
X45.72Y-85.09
X45.72Y-92.71
X48.26Y-85.09
X48.26Y-92.71
X50.8Y-85.09
X50.8Y-92.71
X53.34Y-85.09
X53.34Y-92.71
X55.88Y-85.09
X55.88Y-92.71
X91.44Y-39.37
X91.44Y-46.99
X93.98Y-39.37
X93.98Y-46.99
X96.52Y-39.37
X96.52Y-46.99
X99.06Y-39.37
X99.06Y-46.99
X101.6Y-39.37
X101.6Y-46.99
X104.14Y-39.37
X104.14Y-46.99
X106.68Y-39.37
X106.68Y-46.99
X109.22Y-39.37
X109.22Y-46.99
X33.02Y-123.19
X33.02Y-130.81
X35.56Y-123.19
X35.56Y-130.81
X38.1Y-123.19
X38.1Y-130.81
X40.64Y-123.19
X40.64Y-130.81
X43.18Y-123.19
X43.18Y-130.81
X45.72Y-123.19
X45.72Y-130.81
X48.26Y-123.19
X48.26Y-130.81
X50.8Y-123.19
X50.8Y-130.81
X53.34Y-123.19
X53.34Y-130.81
X55.88Y-123.19
X55.88Y-130.81
X26.67Y-87.63
X26.67Y-90.13
X91.44Y-76.2
X91.44Y-83.82
X93.98Y-76.2
X93.98Y-83.82
X96.52Y-76.2
X96.52Y-83.82
X99.06Y-76.2
X99.06Y-83.82
X101.6Y-76.2
X101.6Y-83.82
X104.14Y-76.2
X104.14Y-83.82
X106.68Y-76.2
X106.68Y-83.82
X109.22Y-76.2
X109.22Y-83.82
X86.36Y-8.89
X86.36Y-11.39
X85.09Y-78.74
X85.09Y-81.24
X91.44Y-93.98
X91.44Y-101.6
X93.98Y-93.98
X93.98Y-101.6
X96.52Y-93.98
X96.52Y-101.6
X99.06Y-93.98
X99.06Y-101.6
X101.6Y-93.98
X101.6Y-101.6
X104.14Y-93.98
X104.14Y-101.6
X106.68Y-93.98
X106.68Y-101.6
X109.22Y-93.98
X109.22Y-101.6
X27.94Y-124.46
X27.94Y-126.96
T4
X25.4Y-101.6
X25.4Y-104.14
X72.39Y-63.5
X72.39Y-66.04
X41.91Y-63.5
X41.91Y-66.04
X7.62Y-17.78
X7.62Y-20.32
X57.15Y-63.5
X57.15Y-66.04
X163.83Y-53.34
X163.83Y-55.88
X19.05Y-63.5
X19.05Y-66.04
X34.29Y-63.5
X34.29Y-66.04
X41.91Y-139.7
X41.91Y-142.24
X140.97Y-101.6
X140.97Y-104.14
X34.29Y-139.7
X34.29Y-142.24
X125.73Y-53.34
X125.73Y-55.88
X179.07Y-101.6
X179.07Y-104.14
X140.97Y-53.34
X140.97Y-55.88
X34.29Y-25.4
X34.29Y-27.94
X133.35Y-53.34
X133.35Y-55.88
X40.64Y-101.6
X40.64Y-104.14
X64.77Y-63.5
X64.77Y-66.04
X156.21Y-101.6
X156.21Y-104.14
X19.05Y-139.7
X19.05Y-142.24
X55.88Y-101.6
X55.88Y-104.14
X41.91Y-25.4
X41.91Y-27.94
X171.45Y-53.34
X171.45Y-55.88
X19.05Y-25.4
X19.05Y-27.94
X48.26Y-101.6
X48.26Y-104.14
X57.15Y-25.4
X57.15Y-27.94
X72.39Y-25.4
X72.39Y-27.94
X71.12Y-101.6
X71.12Y-104.14
X26.67Y-139.7
X26.67Y-142.24
X138.43Y-15.24
X138.43Y-17.78
X179.07Y-53.34
X179.07Y-55.88
X57.15Y-139.7
X57.15Y-142.24
X49.53Y-63.5
X49.53Y-66.04
X26.67Y-25.4
X26.67Y-27.94
X148.59Y-101.6
X148.59Y-104.14
X72.39Y-139.7
X72.39Y-142.24
X156.21Y-53.34
X156.21Y-55.88
X64.77Y-25.4
X64.77Y-27.94
X7.62Y-168.91
X7.62Y-171.45
X49.53Y-25.4
X49.53Y-27.94
X133.35Y-101.6
X133.35Y-104.14
X148.59Y-53.34
X148.59Y-55.88
X125.73Y-101.6
X125.73Y-104.14
X49.53Y-139.7
X49.53Y-142.24
X171.45Y-101.6
X171.45Y-104.14
X63.5Y-101.6
X63.5Y-104.14
X17.78Y-101.6
X17.78Y-104.14
X64.77Y-139.7
X64.77Y-142.24
X26.67Y-63.5
X26.67Y-66.04
X163.83Y-101.6
X163.83Y-104.14
X33.02Y-101.6
X33.02Y-104.14
T5
X143.51Y-179.07
X146.05Y-179.07
X148.59Y-179.07
X151.13Y-179.07
X153.67Y-179.07
X156.21Y-179.07
X158.75Y-179.07
X161.29Y-179.07
X110.49Y-161.29
X113.03Y-161.29
X115.57Y-161.29
X118.11Y-161.29
X120.65Y-161.29
X123.19Y-161.29
X125.73Y-161.29
X128.27Y-161.29
X16.51Y-185.42
X16.51Y-187.96
X16.51Y-190.5
X6.35Y-77.47
X6.35Y-80.01
X6.35Y-82.55
X6.35Y-85.09
X6.35Y-87.63
X6.35Y-90.17
X6.35Y-92.71
X6.35Y-95.25
X34.29Y-166.37
X36.83Y-166.37
X39.37Y-166.37
X41.91Y-166.37
X44.45Y-166.37
X46.99Y-166.37
X49.53Y-166.37
X52.07Y-166.37
X163.83Y-7.62
X163.83Y-10.16
X163.83Y-12.7
X81.28Y-177.8
X83.82Y-177.8
X86.36Y-177.8
X88.9Y-177.8
X173.99Y-7.62
X173.99Y-10.16
X173.99Y-12.7
X110.49Y-179.07
X113.03Y-179.07
X115.57Y-179.07
X118.11Y-179.07
X120.65Y-179.07
X123.19Y-179.07
X125.73Y-179.07
X128.27Y-179.07
X143.51Y-161.29
X146.05Y-161.29
X148.59Y-161.29
X151.13Y-161.29
X153.67Y-161.29
X156.21Y-161.29
X158.75Y-161.29
X161.29Y-161.29
X34.29Y-179.07
X36.83Y-179.07
X39.37Y-179.07
X41.91Y-179.07
X44.45Y-179.07
X46.99Y-179.07
X49.53Y-179.07
X52.07Y-179.07
T0
M30
