%TF.GenerationSoftware,KiCad,Pcbnew,5.1.6-c6e7f7d~87~ubuntu16.04.1*%
%TF.CreationDate,2020-11-27T02:48:22-05:00*%
%TF.ProjectId,riscyalu,72697363-7961-46c7-952e-6b696361645f,rev?*%
%TF.SameCoordinates,Original*%
%TF.FileFunction,Copper,L2,Bot*%
%TF.FilePolarity,Positive*%
%FSLAX46Y46*%
G04 Gerber Fmt 4.6, Leading zero omitted, Abs format (unit mm)*
G04 Created by KiCad (PCBNEW 5.1.6-c6e7f7d~87~ubuntu16.04.1) date 2020-11-27 02:48:22*
%MOMM*%
%LPD*%
G01*
G04 APERTURE LIST*
%TA.AperFunction,Profile*%
%ADD10C,0.100000*%
%TD*%
%TA.AperFunction,ComponentPad*%
%ADD11C,2.000000*%
%TD*%
%TA.AperFunction,ComponentPad*%
%ADD12O,1.400000X1.400000*%
%TD*%
%TA.AperFunction,ComponentPad*%
%ADD13C,1.400000*%
%TD*%
%TA.AperFunction,ComponentPad*%
%ADD14O,1.700000X1.700000*%
%TD*%
%TA.AperFunction,ComponentPad*%
%ADD15R,1.700000X1.700000*%
%TD*%
%TA.AperFunction,ComponentPad*%
%ADD16C,1.800000*%
%TD*%
%TA.AperFunction,ComponentPad*%
%ADD17R,1.800000X1.800000*%
%TD*%
%TA.AperFunction,ComponentPad*%
%ADD18O,1.600000X1.600000*%
%TD*%
%TA.AperFunction,ComponentPad*%
%ADD19R,1.600000X1.600000*%
%TD*%
%TA.AperFunction,ComponentPad*%
%ADD20C,1.600000*%
%TD*%
%TA.AperFunction,ViaPad*%
%ADD21C,0.800000*%
%TD*%
%TA.AperFunction,Conductor*%
%ADD22C,0.250000*%
%TD*%
G04 APERTURE END LIST*
D10*
X149860000Y-10160000D02*
X149860000Y-160020000D01*
X10160000Y-10160000D02*
X149860000Y-10160000D01*
X10160000Y-160020000D02*
X10160000Y-10160000D01*
X149860000Y-160020000D02*
X10160000Y-160020000D01*
D11*
%TO.P,SW3,1*%
%TO.N,addwb*%
X113180000Y-115570000D03*
%TO.P,SW3,2*%
%TO.N,GND*%
X113180000Y-120070000D03*
%TO.P,SW3,1*%
%TO.N,addwb*%
X106680000Y-115570000D03*
%TO.P,SW3,2*%
%TO.N,GND*%
X106680000Y-120070000D03*
%TD*%
%TO.P,SW2,1*%
%TO.N,sliwb*%
X66190000Y-116840000D03*
%TO.P,SW2,2*%
%TO.N,GND*%
X66190000Y-121340000D03*
%TO.P,SW2,1*%
%TO.N,sliwb*%
X59690000Y-116840000D03*
%TO.P,SW2,2*%
%TO.N,GND*%
X59690000Y-121340000D03*
%TD*%
%TO.P,SW1,1*%
%TO.N,nandwb*%
X44600000Y-116840000D03*
%TO.P,SW1,2*%
%TO.N,GND*%
X44600000Y-121340000D03*
%TO.P,SW1,1*%
%TO.N,nandwb*%
X38100000Y-116840000D03*
%TO.P,SW1,2*%
%TO.N,GND*%
X38100000Y-121340000D03*
%TD*%
D12*
%TO.P,R21,2*%
%TO.N,+5V*%
X101600000Y-120650000D03*
D13*
%TO.P,R21,1*%
%TO.N,addwb*%
X101600000Y-115570000D03*
%TD*%
D12*
%TO.P,R20,2*%
%TO.N,+5V*%
X54610000Y-121920000D03*
D13*
%TO.P,R20,1*%
%TO.N,sliwb*%
X54610000Y-116840000D03*
%TD*%
D12*
%TO.P,R19,2*%
%TO.N,+5V*%
X31750000Y-121920000D03*
D13*
%TO.P,R19,1*%
%TO.N,nandwb*%
X31750000Y-116840000D03*
%TD*%
D14*
%TO.P,J9,3*%
%TO.N,Net-(J1-Pad3)*%
X147320000Y-26670000D03*
%TO.P,J9,2*%
%TO.N,GND*%
X147320000Y-24130000D03*
D15*
%TO.P,J9,1*%
%TO.N,+5V*%
X147320000Y-21590000D03*
%TD*%
D12*
%TO.P,R18,2*%
%TO.N,GND*%
X53340000Y-127000000D03*
D13*
%TO.P,R18,1*%
%TO.N,Net-(D18-Pad1)*%
X48260000Y-127000000D03*
%TD*%
D12*
%TO.P,R17,2*%
%TO.N,GND*%
X62230000Y-127000000D03*
D13*
%TO.P,R17,1*%
%TO.N,Net-(D17-Pad1)*%
X57150000Y-127000000D03*
%TD*%
D12*
%TO.P,R16,2*%
%TO.N,GND*%
X71120000Y-127000000D03*
D13*
%TO.P,R16,1*%
%TO.N,Net-(D16-Pad1)*%
X66040000Y-127000000D03*
%TD*%
D12*
%TO.P,R15,2*%
%TO.N,GND*%
X80010000Y-127000000D03*
D13*
%TO.P,R15,1*%
%TO.N,Net-(D15-Pad1)*%
X74930000Y-127000000D03*
%TD*%
D12*
%TO.P,R14,2*%
%TO.N,GND*%
X88900000Y-127000000D03*
D13*
%TO.P,R14,1*%
%TO.N,Net-(D14-Pad1)*%
X83820000Y-127000000D03*
%TD*%
D12*
%TO.P,R13,2*%
%TO.N,GND*%
X97790000Y-127000000D03*
D13*
%TO.P,R13,1*%
%TO.N,Net-(D13-Pad1)*%
X92710000Y-127000000D03*
%TD*%
D12*
%TO.P,R12,2*%
%TO.N,GND*%
X106680000Y-127000000D03*
D13*
%TO.P,R12,1*%
%TO.N,Net-(D12-Pad1)*%
X101600000Y-127000000D03*
%TD*%
D12*
%TO.P,R11,2*%
%TO.N,GND*%
X115570000Y-127000000D03*
D13*
%TO.P,R11,1*%
%TO.N,Net-(D11-Pad1)*%
X110490000Y-127000000D03*
%TD*%
D16*
%TO.P,D18,2*%
%TO.N,wb7*%
X50800000Y-132080000D03*
D17*
%TO.P,D18,1*%
%TO.N,Net-(D18-Pad1)*%
X50800000Y-134620000D03*
%TD*%
D16*
%TO.P,D17,2*%
%TO.N,wb6*%
X59690000Y-132080000D03*
D17*
%TO.P,D17,1*%
%TO.N,Net-(D17-Pad1)*%
X59690000Y-134620000D03*
%TD*%
D16*
%TO.P,D16,2*%
%TO.N,wb5*%
X68580000Y-132080000D03*
D17*
%TO.P,D16,1*%
%TO.N,Net-(D16-Pad1)*%
X68580000Y-134620000D03*
%TD*%
D16*
%TO.P,D15,2*%
%TO.N,wb4*%
X77470000Y-132080000D03*
D17*
%TO.P,D15,1*%
%TO.N,Net-(D15-Pad1)*%
X77470000Y-134620000D03*
%TD*%
D16*
%TO.P,D14,2*%
%TO.N,wb3*%
X86360000Y-132080000D03*
D17*
%TO.P,D14,1*%
%TO.N,Net-(D14-Pad1)*%
X86360000Y-134620000D03*
%TD*%
D16*
%TO.P,D13,2*%
%TO.N,wb2*%
X95250000Y-132080000D03*
D17*
%TO.P,D13,1*%
%TO.N,Net-(D13-Pad1)*%
X95250000Y-134620000D03*
%TD*%
D16*
%TO.P,D12,2*%
%TO.N,wb1*%
X104140000Y-132080000D03*
D17*
%TO.P,D12,1*%
%TO.N,Net-(D12-Pad1)*%
X104140000Y-134620000D03*
%TD*%
D16*
%TO.P,D11,2*%
%TO.N,wb0*%
X113030000Y-132080000D03*
D17*
%TO.P,D11,1*%
%TO.N,Net-(D11-Pad1)*%
X113030000Y-134620000D03*
%TD*%
D18*
%TO.P,U13,14*%
%TO.N,+5V*%
X120650000Y-44450000D03*
%TO.P,U13,7*%
%TO.N,GND*%
X135890000Y-52070000D03*
%TO.P,U13,13*%
%TO.N,N/C*%
X123190000Y-44450000D03*
%TO.P,U13,6*%
%TO.N,eq*%
X133350000Y-52070000D03*
%TO.P,U13,12*%
%TO.N,N/C*%
X125730000Y-44450000D03*
%TO.P,U13,5*%
%TO.N,noteq*%
X130810000Y-52070000D03*
%TO.P,U13,11*%
%TO.N,N/C*%
X128270000Y-44450000D03*
%TO.P,U13,4*%
%TO.N,noteq*%
X128270000Y-52070000D03*
%TO.P,U13,10*%
%TO.N,Rrd7*%
X130810000Y-44450000D03*
%TO.P,U13,3*%
%TO.N,lt*%
X125730000Y-52070000D03*
%TO.P,U13,9*%
%TO.N,Rrd7*%
X133350000Y-44450000D03*
%TO.P,U13,2*%
%TO.N,ge*%
X123190000Y-52070000D03*
%TO.P,U13,8*%
X135890000Y-44450000D03*
D19*
%TO.P,U13,1*%
X120650000Y-52070000D03*
%TD*%
D18*
%TO.P,U12,20*%
%TO.N,+5V*%
X74930000Y-44450000D03*
%TO.P,U12,10*%
%TO.N,GND*%
X97790000Y-52070000D03*
%TO.P,U12,19*%
%TO.N,noteq*%
X77470000Y-44450000D03*
%TO.P,U12,9*%
%TO.N,Rrd3*%
X95250000Y-52070000D03*
%TO.P,U12,18*%
%TO.N,Rrd7*%
X80010000Y-44450000D03*
%TO.P,U12,8*%
%TO.N,GND*%
X92710000Y-52070000D03*
%TO.P,U12,17*%
X82550000Y-44450000D03*
%TO.P,U12,7*%
%TO.N,Rrd2*%
X90170000Y-52070000D03*
%TO.P,U12,16*%
%TO.N,Rrd6*%
X85090000Y-44450000D03*
%TO.P,U12,6*%
%TO.N,GND*%
X87630000Y-52070000D03*
%TO.P,U12,15*%
X87630000Y-44450000D03*
%TO.P,U12,5*%
%TO.N,Rrd1*%
X85090000Y-52070000D03*
%TO.P,U12,14*%
%TO.N,Rrd5*%
X90170000Y-44450000D03*
%TO.P,U12,4*%
%TO.N,GND*%
X82550000Y-52070000D03*
%TO.P,U12,13*%
X92710000Y-44450000D03*
%TO.P,U12,3*%
%TO.N,Rrd0*%
X80010000Y-52070000D03*
%TO.P,U12,12*%
%TO.N,Rrd4*%
X95250000Y-44450000D03*
%TO.P,U12,2*%
%TO.N,GND*%
X77470000Y-52070000D03*
%TO.P,U12,11*%
X97790000Y-44450000D03*
D19*
%TO.P,U12,1*%
%TO.N,Net-(U12-Pad1)*%
X74930000Y-52070000D03*
%TD*%
D18*
%TO.P,U11,14*%
%TO.N,+5V*%
X54610000Y-68580000D03*
%TO.P,U11,7*%
%TO.N,GND*%
X69850000Y-76200000D03*
%TO.P,U11,13*%
%TO.N,Rrs3*%
X57150000Y-68580000D03*
%TO.P,U11,6*%
%TO.N,Net-(U11-Pad6)*%
X67310000Y-76200000D03*
%TO.P,U11,12*%
%TO.N,incdec*%
X59690000Y-68580000D03*
%TO.P,U11,5*%
%TO.N,Rrs1*%
X64770000Y-76200000D03*
%TO.P,U11,11*%
%TO.N,Net-(U11-Pad11)*%
X62230000Y-68580000D03*
%TO.P,U11,4*%
%TO.N,incdec*%
X62230000Y-76200000D03*
%TO.P,U11,10*%
%TO.N,Rrs2*%
X64770000Y-68580000D03*
%TO.P,U11,3*%
%TO.N,Net-(U11-Pad3)*%
X59690000Y-76200000D03*
%TO.P,U11,9*%
%TO.N,incdec*%
X67310000Y-68580000D03*
%TO.P,U11,2*%
%TO.N,Rrs0*%
X57150000Y-76200000D03*
%TO.P,U11,8*%
%TO.N,Net-(U11-Pad8)*%
X69850000Y-68580000D03*
D19*
%TO.P,U11,1*%
%TO.N,incdec*%
X54610000Y-76200000D03*
%TD*%
D18*
%TO.P,U10,14*%
%TO.N,+5V*%
X24130000Y-68580000D03*
%TO.P,U10,7*%
%TO.N,GND*%
X39370000Y-76200000D03*
%TO.P,U10,13*%
%TO.N,Rrs7*%
X26670000Y-68580000D03*
%TO.P,U10,6*%
%TO.N,Net-(U10-Pad6)*%
X36830000Y-76200000D03*
%TO.P,U10,12*%
%TO.N,incdec*%
X29210000Y-68580000D03*
%TO.P,U10,5*%
%TO.N,Rrs5*%
X34290000Y-76200000D03*
%TO.P,U10,11*%
%TO.N,Net-(U10-Pad11)*%
X31750000Y-68580000D03*
%TO.P,U10,4*%
%TO.N,incdec*%
X31750000Y-76200000D03*
%TO.P,U10,10*%
%TO.N,Rrs6*%
X34290000Y-68580000D03*
%TO.P,U10,3*%
%TO.N,Net-(U10-Pad3)*%
X29210000Y-76200000D03*
%TO.P,U10,9*%
%TO.N,incdec*%
X36830000Y-68580000D03*
%TO.P,U10,2*%
%TO.N,Rrs4*%
X26670000Y-76200000D03*
%TO.P,U10,8*%
%TO.N,Net-(U10-Pad8)*%
X39370000Y-68580000D03*
D19*
%TO.P,U10,1*%
%TO.N,incdec*%
X24130000Y-76200000D03*
%TD*%
D18*
%TO.P,U9,14*%
%TO.N,+5V*%
X121920000Y-68580000D03*
%TO.P,U9,7*%
%TO.N,GND*%
X137160000Y-76200000D03*
%TO.P,U9,13*%
%TO.N,addsub*%
X124460000Y-68580000D03*
%TO.P,U9,6*%
%TO.N,Net-(U7-Pad2)*%
X134620000Y-76200000D03*
%TO.P,U9,12*%
%TO.N,Net-(U11-Pad11)*%
X127000000Y-68580000D03*
%TO.P,U9,5*%
%TO.N,addsub*%
X132080000Y-76200000D03*
%TO.P,U9,11*%
%TO.N,Net-(U7-Pad11)*%
X129540000Y-68580000D03*
%TO.P,U9,4*%
%TO.N,Net-(U11-Pad6)*%
X129540000Y-76200000D03*
%TO.P,U9,10*%
%TO.N,addsub*%
X132080000Y-68580000D03*
%TO.P,U9,3*%
%TO.N,Net-(U7-Pad6)*%
X127000000Y-76200000D03*
%TO.P,U9,9*%
%TO.N,Net-(U11-Pad8)*%
X134620000Y-68580000D03*
%TO.P,U9,2*%
%TO.N,addsub*%
X124460000Y-76200000D03*
%TO.P,U9,8*%
%TO.N,Net-(U7-Pad15)*%
X137160000Y-68580000D03*
D19*
%TO.P,U9,1*%
%TO.N,Net-(U11-Pad3)*%
X121920000Y-76200000D03*
%TD*%
D18*
%TO.P,U8,14*%
%TO.N,+5V*%
X87630000Y-68580000D03*
%TO.P,U8,7*%
%TO.N,GND*%
X102870000Y-76200000D03*
%TO.P,U8,13*%
%TO.N,Net-(U10-Pad11)*%
X90170000Y-68580000D03*
%TO.P,U8,6*%
%TO.N,Net-(U6-Pad2)*%
X100330000Y-76200000D03*
%TO.P,U8,12*%
%TO.N,addsub*%
X92710000Y-68580000D03*
%TO.P,U8,5*%
%TO.N,Net-(U10-Pad6)*%
X97790000Y-76200000D03*
%TO.P,U8,11*%
%TO.N,Net-(U6-Pad11)*%
X95250000Y-68580000D03*
%TO.P,U8,4*%
%TO.N,addsub*%
X95250000Y-76200000D03*
%TO.P,U8,10*%
%TO.N,Net-(U10-Pad8)*%
X97790000Y-68580000D03*
%TO.P,U8,3*%
%TO.N,Net-(U6-Pad6)*%
X92710000Y-76200000D03*
%TO.P,U8,9*%
%TO.N,addsub*%
X100330000Y-68580000D03*
%TO.P,U8,2*%
%TO.N,Net-(U10-Pad3)*%
X90170000Y-76200000D03*
%TO.P,U8,8*%
%TO.N,Net-(U6-Pad15)*%
X102870000Y-68580000D03*
D19*
%TO.P,U8,1*%
%TO.N,addsub*%
X87630000Y-76200000D03*
%TD*%
D18*
%TO.P,U7,16*%
%TO.N,+5V*%
X55880000Y-88900000D03*
%TO.P,U7,8*%
%TO.N,GND*%
X73660000Y-96520000D03*
%TO.P,U7,15*%
%TO.N,Net-(U7-Pad15)*%
X58420000Y-88900000D03*
%TO.P,U7,7*%
%TO.N,addsub*%
X71120000Y-96520000D03*
%TO.P,U7,14*%
%TO.N,Rrd2*%
X60960000Y-88900000D03*
%TO.P,U7,6*%
%TO.N,Net-(U7-Pad6)*%
X68580000Y-96520000D03*
%TO.P,U7,13*%
%TO.N,Net-(U5-Pad4)*%
X63500000Y-88900000D03*
%TO.P,U7,5*%
%TO.N,Rrd0*%
X66040000Y-96520000D03*
%TO.P,U7,12*%
%TO.N,Rrd3*%
X66040000Y-88900000D03*
%TO.P,U7,4*%
%TO.N,Net-(U5-Pad2)*%
X63500000Y-96520000D03*
%TO.P,U7,11*%
%TO.N,Net-(U7-Pad11)*%
X68580000Y-88900000D03*
%TO.P,U7,3*%
%TO.N,Rrd1*%
X60960000Y-96520000D03*
%TO.P,U7,10*%
%TO.N,Net-(U5-Pad5)*%
X71120000Y-88900000D03*
%TO.P,U7,2*%
%TO.N,Net-(U7-Pad2)*%
X58420000Y-96520000D03*
%TO.P,U7,9*%
%TO.N,Net-(U6-Pad7)*%
X73660000Y-88900000D03*
D19*
%TO.P,U7,1*%
%TO.N,Net-(U5-Pad3)*%
X55880000Y-96520000D03*
%TD*%
D18*
%TO.P,U6,16*%
%TO.N,+5V*%
X24130000Y-88900000D03*
%TO.P,U6,8*%
%TO.N,GND*%
X41910000Y-96520000D03*
%TO.P,U6,15*%
%TO.N,Net-(U6-Pad15)*%
X26670000Y-88900000D03*
%TO.P,U6,7*%
%TO.N,Net-(U6-Pad7)*%
X39370000Y-96520000D03*
%TO.P,U6,14*%
%TO.N,Rrd6*%
X29210000Y-88900000D03*
%TO.P,U6,6*%
%TO.N,Net-(U6-Pad6)*%
X36830000Y-96520000D03*
%TO.P,U6,13*%
%TO.N,Net-(U5-Pad8)*%
X31750000Y-88900000D03*
%TO.P,U6,5*%
%TO.N,Rrd4*%
X34290000Y-96520000D03*
%TO.P,U6,12*%
%TO.N,Rrd7*%
X34290000Y-88900000D03*
%TO.P,U6,4*%
%TO.N,Net-(U5-Pad6)*%
X31750000Y-96520000D03*
%TO.P,U6,11*%
%TO.N,Net-(U6-Pad11)*%
X36830000Y-88900000D03*
%TO.P,U6,3*%
%TO.N,Rrd5*%
X29210000Y-96520000D03*
%TO.P,U6,10*%
%TO.N,Net-(U5-Pad9)*%
X39370000Y-88900000D03*
%TO.P,U6,2*%
%TO.N,Net-(U6-Pad2)*%
X26670000Y-96520000D03*
%TO.P,U6,9*%
%TO.N,Net-(U6-Pad9)*%
X41910000Y-88900000D03*
D19*
%TO.P,U6,1*%
%TO.N,Net-(U5-Pad7)*%
X24130000Y-96520000D03*
%TD*%
D18*
%TO.P,U5,20*%
%TO.N,+5V*%
X90170000Y-88900000D03*
%TO.P,U5,10*%
%TO.N,GND*%
X113030000Y-96520000D03*
%TO.P,U5,19*%
%TO.N,addwb*%
X92710000Y-88900000D03*
%TO.P,U5,9*%
%TO.N,Net-(U5-Pad9)*%
X110490000Y-96520000D03*
%TO.P,U5,18*%
%TO.N,wb0*%
X95250000Y-88900000D03*
%TO.P,U5,8*%
%TO.N,Net-(U5-Pad8)*%
X107950000Y-96520000D03*
%TO.P,U5,17*%
%TO.N,wb1*%
X97790000Y-88900000D03*
%TO.P,U5,7*%
%TO.N,Net-(U5-Pad7)*%
X105410000Y-96520000D03*
%TO.P,U5,16*%
%TO.N,wb2*%
X100330000Y-88900000D03*
%TO.P,U5,6*%
%TO.N,Net-(U5-Pad6)*%
X102870000Y-96520000D03*
%TO.P,U5,15*%
%TO.N,wb3*%
X102870000Y-88900000D03*
%TO.P,U5,5*%
%TO.N,Net-(U5-Pad5)*%
X100330000Y-96520000D03*
%TO.P,U5,14*%
%TO.N,wb4*%
X105410000Y-88900000D03*
%TO.P,U5,4*%
%TO.N,Net-(U5-Pad4)*%
X97790000Y-96520000D03*
%TO.P,U5,13*%
%TO.N,wb5*%
X107950000Y-88900000D03*
%TO.P,U5,3*%
%TO.N,Net-(U5-Pad3)*%
X95250000Y-96520000D03*
%TO.P,U5,12*%
%TO.N,wb6*%
X110490000Y-88900000D03*
%TO.P,U5,2*%
%TO.N,Net-(U5-Pad2)*%
X92710000Y-96520000D03*
%TO.P,U5,11*%
%TO.N,wb7*%
X113030000Y-88900000D03*
D19*
%TO.P,U5,1*%
%TO.N,+5V*%
X90170000Y-96520000D03*
%TD*%
D18*
%TO.P,U4,20*%
%TO.N,+5V*%
X88900000Y-24130000D03*
%TO.P,U4,10*%
%TO.N,GND*%
X111760000Y-31750000D03*
%TO.P,U4,19*%
%TO.N,sliwb*%
X91440000Y-24130000D03*
%TO.P,U4,9*%
%TO.N,Rrd3*%
X109220000Y-31750000D03*
%TO.P,U4,18*%
%TO.N,wb0*%
X93980000Y-24130000D03*
%TO.P,U4,8*%
%TO.N,Rrd2*%
X106680000Y-31750000D03*
%TO.P,U4,17*%
%TO.N,wb1*%
X96520000Y-24130000D03*
%TO.P,U4,7*%
%TO.N,Rrd1*%
X104140000Y-31750000D03*
%TO.P,U4,16*%
%TO.N,wb2*%
X99060000Y-24130000D03*
%TO.P,U4,6*%
%TO.N,Rrd0*%
X101600000Y-31750000D03*
%TO.P,U4,15*%
%TO.N,wb3*%
X101600000Y-24130000D03*
%TO.P,U4,5*%
%TO.N,imm3*%
X99060000Y-31750000D03*
%TO.P,U4,14*%
%TO.N,wb4*%
X104140000Y-24130000D03*
%TO.P,U4,4*%
%TO.N,imm2*%
X96520000Y-31750000D03*
%TO.P,U4,13*%
%TO.N,wb5*%
X106680000Y-24130000D03*
%TO.P,U4,3*%
%TO.N,imm1*%
X93980000Y-31750000D03*
%TO.P,U4,12*%
%TO.N,wb6*%
X109220000Y-24130000D03*
%TO.P,U4,2*%
%TO.N,imm0*%
X91440000Y-31750000D03*
%TO.P,U4,11*%
%TO.N,wb7*%
X111760000Y-24130000D03*
D19*
%TO.P,U4,1*%
%TO.N,+5V*%
X88900000Y-31750000D03*
%TD*%
D18*
%TO.P,U3,20*%
%TO.N,+5V*%
X34290000Y-44450000D03*
%TO.P,U3,10*%
%TO.N,GND*%
X57150000Y-52070000D03*
%TO.P,U3,19*%
%TO.N,nandwb*%
X36830000Y-44450000D03*
%TO.P,U3,9*%
%TO.N,Net-(U2-Pad11)*%
X54610000Y-52070000D03*
%TO.P,U3,18*%
%TO.N,wb0*%
X39370000Y-44450000D03*
%TO.P,U3,8*%
%TO.N,Net-(U2-Pad8)*%
X52070000Y-52070000D03*
%TO.P,U3,17*%
%TO.N,wb1*%
X41910000Y-44450000D03*
%TO.P,U3,7*%
%TO.N,Net-(U2-Pad6)*%
X49530000Y-52070000D03*
%TO.P,U3,16*%
%TO.N,wb2*%
X44450000Y-44450000D03*
%TO.P,U3,6*%
%TO.N,Net-(U2-Pad3)*%
X46990000Y-52070000D03*
%TO.P,U3,15*%
%TO.N,wb3*%
X46990000Y-44450000D03*
%TO.P,U3,5*%
%TO.N,Net-(U1-Pad11)*%
X44450000Y-52070000D03*
%TO.P,U3,14*%
%TO.N,wb4*%
X49530000Y-44450000D03*
%TO.P,U3,4*%
%TO.N,Net-(U1-Pad8)*%
X41910000Y-52070000D03*
%TO.P,U3,13*%
%TO.N,wb5*%
X52070000Y-44450000D03*
%TO.P,U3,3*%
%TO.N,Net-(U1-Pad6)*%
X39370000Y-52070000D03*
%TO.P,U3,12*%
%TO.N,wb6*%
X54610000Y-44450000D03*
%TO.P,U3,2*%
%TO.N,Net-(U1-Pad3)*%
X36830000Y-52070000D03*
%TO.P,U3,11*%
%TO.N,wb7*%
X57150000Y-44450000D03*
D19*
%TO.P,U3,1*%
%TO.N,+5V*%
X34290000Y-52070000D03*
%TD*%
D18*
%TO.P,U2,14*%
%TO.N,+5V*%
X53340000Y-24130000D03*
%TO.P,U2,7*%
%TO.N,GND*%
X68580000Y-31750000D03*
%TO.P,U2,13*%
%TO.N,Rrd7*%
X55880000Y-24130000D03*
%TO.P,U2,6*%
%TO.N,Net-(U2-Pad6)*%
X66040000Y-31750000D03*
%TO.P,U2,12*%
%TO.N,Rrs7*%
X58420000Y-24130000D03*
%TO.P,U2,5*%
%TO.N,Rrd5*%
X63500000Y-31750000D03*
%TO.P,U2,11*%
%TO.N,Net-(U2-Pad11)*%
X60960000Y-24130000D03*
%TO.P,U2,4*%
%TO.N,Rrs5*%
X60960000Y-31750000D03*
%TO.P,U2,10*%
%TO.N,Rrd6*%
X63500000Y-24130000D03*
%TO.P,U2,3*%
%TO.N,Net-(U2-Pad3)*%
X58420000Y-31750000D03*
%TO.P,U2,9*%
%TO.N,Rrs6*%
X66040000Y-24130000D03*
%TO.P,U2,2*%
%TO.N,Rrd4*%
X55880000Y-31750000D03*
%TO.P,U2,8*%
%TO.N,Net-(U2-Pad8)*%
X68580000Y-24130000D03*
D19*
%TO.P,U2,1*%
%TO.N,Rrs4*%
X53340000Y-31750000D03*
%TD*%
D18*
%TO.P,U1,14*%
%TO.N,+5V*%
X24130000Y-24130000D03*
%TO.P,U1,7*%
%TO.N,GND*%
X39370000Y-31750000D03*
%TO.P,U1,13*%
%TO.N,Rrd3*%
X26670000Y-24130000D03*
%TO.P,U1,6*%
%TO.N,Net-(U1-Pad6)*%
X36830000Y-31750000D03*
%TO.P,U1,12*%
%TO.N,Rrs3*%
X29210000Y-24130000D03*
%TO.P,U1,5*%
%TO.N,Rrd1*%
X34290000Y-31750000D03*
%TO.P,U1,11*%
%TO.N,Net-(U1-Pad11)*%
X31750000Y-24130000D03*
%TO.P,U1,4*%
%TO.N,Rrs1*%
X31750000Y-31750000D03*
%TO.P,U1,10*%
%TO.N,Rrd2*%
X34290000Y-24130000D03*
%TO.P,U1,3*%
%TO.N,Net-(U1-Pad3)*%
X29210000Y-31750000D03*
%TO.P,U1,9*%
%TO.N,Rrs2*%
X36830000Y-24130000D03*
%TO.P,U1,2*%
%TO.N,Rrd0*%
X26670000Y-31750000D03*
%TO.P,U1,8*%
%TO.N,Net-(U1-Pad8)*%
X39370000Y-24130000D03*
D19*
%TO.P,U1,1*%
%TO.N,Rrs0*%
X24130000Y-31750000D03*
%TD*%
D12*
%TO.P,R10,2*%
%TO.N,GND*%
X123190000Y-118110000D03*
D13*
%TO.P,R10,1*%
%TO.N,Net-(D10-Pad1)*%
X123190000Y-123190000D03*
%TD*%
D12*
%TO.P,R9,2*%
%TO.N,GND*%
X123190000Y-107950000D03*
D13*
%TO.P,R9,1*%
%TO.N,Net-(D9-Pad1)*%
X123190000Y-113030000D03*
%TD*%
D12*
%TO.P,R8,2*%
%TO.N,GND*%
X123190000Y-97790000D03*
D13*
%TO.P,R8,1*%
%TO.N,Net-(D8-Pad1)*%
X123190000Y-102870000D03*
%TD*%
D12*
%TO.P,R7,2*%
%TO.N,GND*%
X123190000Y-87630000D03*
D13*
%TO.P,R7,1*%
%TO.N,Net-(D7-Pad1)*%
X123190000Y-92710000D03*
%TD*%
D12*
%TO.P,R5,2*%
%TO.N,incdec*%
X74930000Y-105410000D03*
D13*
%TO.P,R5,1*%
%TO.N,Net-(D5-Pad1)*%
X74930000Y-110490000D03*
%TD*%
D12*
%TO.P,R4,2*%
%TO.N,addsub*%
X90170000Y-110490000D03*
D13*
%TO.P,R4,1*%
%TO.N,Net-(D4-Pad1)*%
X90170000Y-105410000D03*
%TD*%
D12*
%TO.P,R3,2*%
%TO.N,addwb*%
X104140000Y-105410000D03*
D13*
%TO.P,R3,1*%
%TO.N,Net-(D3-Pad1)*%
X104140000Y-110490000D03*
%TD*%
D12*
%TO.P,R2,2*%
%TO.N,sliwb*%
X55880000Y-105410000D03*
D13*
%TO.P,R2,1*%
%TO.N,Net-(D2-Pad1)*%
X55880000Y-110490000D03*
%TD*%
D12*
%TO.P,R1,2*%
%TO.N,nandwb*%
X34290000Y-110490000D03*
D13*
%TO.P,R1,1*%
%TO.N,Net-(D1-Pad1)*%
X34290000Y-105410000D03*
%TD*%
D14*
%TO.P,J8,4*%
%TO.N,ge*%
X129540000Y-142240000D03*
%TO.P,J8,3*%
%TO.N,lt*%
X129540000Y-139700000D03*
%TO.P,J8,2*%
%TO.N,noteq*%
X129540000Y-137160000D03*
D15*
%TO.P,J8,1*%
%TO.N,eq*%
X129540000Y-134620000D03*
%TD*%
D14*
%TO.P,J7,5*%
%TO.N,sliwb*%
X77470000Y-143510000D03*
%TO.P,J7,4*%
%TO.N,nandwb*%
X74930000Y-143510000D03*
%TO.P,J7,3*%
%TO.N,addwb*%
X72390000Y-143510000D03*
%TO.P,J7,2*%
%TO.N,incdec*%
X69850000Y-143510000D03*
D15*
%TO.P,J7,1*%
%TO.N,addsub*%
X67310000Y-143510000D03*
%TD*%
D14*
%TO.P,J6,4*%
%TO.N,imm3*%
X116840000Y-15240000D03*
%TO.P,J6,3*%
%TO.N,imm2*%
X119380000Y-15240000D03*
%TO.P,J6,2*%
%TO.N,imm1*%
X121920000Y-15240000D03*
D15*
%TO.P,J6,1*%
%TO.N,imm0*%
X124460000Y-15240000D03*
%TD*%
D14*
%TO.P,J5,8*%
%TO.N,Rrs7*%
X66040000Y-15240000D03*
%TO.P,J5,7*%
%TO.N,Rrs6*%
X68580000Y-15240000D03*
%TO.P,J5,6*%
%TO.N,Rrs5*%
X71120000Y-15240000D03*
%TO.P,J5,5*%
%TO.N,Rrs4*%
X73660000Y-15240000D03*
%TO.P,J5,4*%
%TO.N,Rrs3*%
X76200000Y-15240000D03*
%TO.P,J5,3*%
%TO.N,Rrs2*%
X78740000Y-15240000D03*
%TO.P,J5,2*%
%TO.N,Rrs1*%
X81280000Y-15240000D03*
D15*
%TO.P,J5,1*%
%TO.N,Rrs0*%
X83820000Y-15240000D03*
%TD*%
D14*
%TO.P,J4,8*%
%TO.N,Rrd7*%
X20320000Y-15240000D03*
%TO.P,J4,7*%
%TO.N,Rrd6*%
X22860000Y-15240000D03*
%TO.P,J4,6*%
%TO.N,Rrd5*%
X25400000Y-15240000D03*
%TO.P,J4,5*%
%TO.N,Rrd4*%
X27940000Y-15240000D03*
%TO.P,J4,4*%
%TO.N,Rrd3*%
X30480000Y-15240000D03*
%TO.P,J4,3*%
%TO.N,Rrd2*%
X33020000Y-15240000D03*
%TO.P,J4,2*%
%TO.N,Rrd1*%
X35560000Y-15240000D03*
D15*
%TO.P,J4,1*%
%TO.N,Rrd0*%
X38100000Y-15240000D03*
%TD*%
D14*
%TO.P,J3,8*%
%TO.N,wb7*%
X20320000Y-143510000D03*
%TO.P,J3,7*%
%TO.N,wb6*%
X22860000Y-143510000D03*
%TO.P,J3,6*%
%TO.N,wb5*%
X25400000Y-143510000D03*
%TO.P,J3,5*%
%TO.N,wb4*%
X27940000Y-143510000D03*
%TO.P,J3,4*%
%TO.N,wb3*%
X30480000Y-143510000D03*
%TO.P,J3,3*%
%TO.N,wb2*%
X33020000Y-143510000D03*
%TO.P,J3,2*%
%TO.N,wb1*%
X35560000Y-143510000D03*
D15*
%TO.P,J3,1*%
%TO.N,wb0*%
X38100000Y-143510000D03*
%TD*%
D14*
%TO.P,J2,8*%
%TO.N,wb7*%
X20320000Y-128270000D03*
%TO.P,J2,7*%
%TO.N,wb6*%
X22860000Y-128270000D03*
%TO.P,J2,6*%
%TO.N,wb5*%
X25400000Y-128270000D03*
%TO.P,J2,5*%
%TO.N,wb4*%
X27940000Y-128270000D03*
%TO.P,J2,4*%
%TO.N,wb3*%
X30480000Y-128270000D03*
%TO.P,J2,3*%
%TO.N,wb2*%
X33020000Y-128270000D03*
%TO.P,J2,2*%
%TO.N,wb1*%
X35560000Y-128270000D03*
D15*
%TO.P,J2,1*%
%TO.N,wb0*%
X38100000Y-128270000D03*
%TD*%
D14*
%TO.P,J1,3*%
%TO.N,Net-(J1-Pad3)*%
X142240000Y-26670000D03*
%TO.P,J1,2*%
%TO.N,GND*%
X142240000Y-24130000D03*
D15*
%TO.P,J1,1*%
%TO.N,+5V*%
X142240000Y-21590000D03*
%TD*%
D16*
%TO.P,D10,2*%
%TO.N,ge*%
X130810000Y-120650000D03*
D17*
%TO.P,D10,1*%
%TO.N,Net-(D10-Pad1)*%
X128270000Y-120650000D03*
%TD*%
D16*
%TO.P,D9,2*%
%TO.N,lt*%
X130810000Y-110490000D03*
D17*
%TO.P,D9,1*%
%TO.N,Net-(D9-Pad1)*%
X128270000Y-110490000D03*
%TD*%
D16*
%TO.P,D8,2*%
%TO.N,noteq*%
X130810000Y-100330000D03*
D17*
%TO.P,D8,1*%
%TO.N,Net-(D8-Pad1)*%
X128270000Y-100330000D03*
%TD*%
D16*
%TO.P,D7,2*%
%TO.N,eq*%
X130810000Y-90170000D03*
D17*
%TO.P,D7,1*%
%TO.N,Net-(D7-Pad1)*%
X128270000Y-90170000D03*
%TD*%
D16*
%TO.P,D5,2*%
%TO.N,+5V*%
X82550000Y-107950000D03*
D17*
%TO.P,D5,1*%
%TO.N,Net-(D5-Pad1)*%
X80010000Y-107950000D03*
%TD*%
D16*
%TO.P,D4,2*%
%TO.N,+5V*%
X97790000Y-107950000D03*
D17*
%TO.P,D4,1*%
%TO.N,Net-(D4-Pad1)*%
X95250000Y-107950000D03*
%TD*%
D16*
%TO.P,D3,2*%
%TO.N,+5V*%
X111760000Y-107950000D03*
D17*
%TO.P,D3,1*%
%TO.N,Net-(D3-Pad1)*%
X109220000Y-107950000D03*
%TD*%
D16*
%TO.P,D2,2*%
%TO.N,+5V*%
X63500000Y-107950000D03*
D17*
%TO.P,D2,1*%
%TO.N,Net-(D2-Pad1)*%
X60960000Y-107950000D03*
%TD*%
D16*
%TO.P,D1,2*%
%TO.N,+5V*%
X43180000Y-107950000D03*
D17*
%TO.P,D1,1*%
%TO.N,Net-(D1-Pad1)*%
X40640000Y-107950000D03*
%TD*%
D20*
%TO.P,C13,2*%
%TO.N,GND*%
X115570000Y-50720000D03*
%TO.P,C13,1*%
%TO.N,+5V*%
X115570000Y-45720000D03*
%TD*%
%TO.P,C12,2*%
%TO.N,GND*%
X69850000Y-50720000D03*
%TO.P,C12,1*%
%TO.N,+5V*%
X69850000Y-45720000D03*
%TD*%
%TO.P,C11,2*%
%TO.N,GND*%
X49530000Y-74850000D03*
%TO.P,C11,1*%
%TO.N,+5V*%
X49530000Y-69850000D03*
%TD*%
%TO.P,C10,2*%
%TO.N,GND*%
X17780000Y-74850000D03*
%TO.P,C10,1*%
%TO.N,+5V*%
X17780000Y-69850000D03*
%TD*%
%TO.P,C9,2*%
%TO.N,GND*%
X116840000Y-74850000D03*
%TO.P,C9,1*%
%TO.N,+5V*%
X116840000Y-69850000D03*
%TD*%
%TO.P,C8,2*%
%TO.N,GND*%
X82550000Y-74850000D03*
%TO.P,C8,1*%
%TO.N,+5V*%
X82550000Y-69850000D03*
%TD*%
%TO.P,C7,2*%
%TO.N,GND*%
X50800000Y-95170000D03*
%TO.P,C7,1*%
%TO.N,+5V*%
X50800000Y-90170000D03*
%TD*%
%TO.P,C6,2*%
%TO.N,GND*%
X19050000Y-95170000D03*
%TO.P,C6,1*%
%TO.N,+5V*%
X19050000Y-90170000D03*
%TD*%
%TO.P,C5,2*%
%TO.N,GND*%
X85090000Y-95170000D03*
%TO.P,C5,1*%
%TO.N,+5V*%
X85090000Y-90170000D03*
%TD*%
%TO.P,C4,2*%
%TO.N,GND*%
X83820000Y-30400000D03*
%TO.P,C4,1*%
%TO.N,+5V*%
X83820000Y-25400000D03*
%TD*%
%TO.P,C3,2*%
%TO.N,GND*%
X29210000Y-50720000D03*
%TO.P,C3,1*%
%TO.N,+5V*%
X29210000Y-45720000D03*
%TD*%
%TO.P,C2,2*%
%TO.N,GND*%
X48260000Y-30400000D03*
%TO.P,C2,1*%
%TO.N,+5V*%
X48260000Y-25400000D03*
%TD*%
%TO.P,C1,2*%
%TO.N,GND*%
X19050000Y-30400000D03*
%TO.P,C1,1*%
%TO.N,+5V*%
X19050000Y-25400000D03*
%TD*%
D21*
%TO.N,+5V*%
X92921100Y-111334000D03*
X23853800Y-41851900D03*
%TO.N,noteq*%
X68513600Y-63789400D03*
%TO.N,wb7*%
X104411600Y-38727700D03*
X54946800Y-125141400D03*
%TO.N,wb6*%
X97251500Y-40798000D03*
%TO.N,wb5*%
X96379500Y-39546000D03*
X76200000Y-129670800D03*
%TO.N,wb4*%
X99860700Y-47244200D03*
X94155200Y-47851800D03*
%TO.N,wb3*%
X40913600Y-48273100D03*
X105128900Y-94128300D03*
X52690600Y-42246300D03*
X49317000Y-42246300D03*
%TO.N,wb2*%
X99037400Y-112086500D03*
X95250000Y-125515400D03*
%TO.N,wb1*%
X60887500Y-37150500D03*
X100528600Y-106204000D03*
X61224300Y-39223200D03*
%TO.N,wb0*%
X71792400Y-30775400D03*
X62915700Y-36333500D03*
%TO.N,Rrd7*%
X62791600Y-13458200D03*
X106073100Y-38334200D03*
%TO.N,Rrd6*%
X66537600Y-65837900D03*
%TO.N,Rrd5*%
X60614300Y-42805500D03*
%TO.N,Rrd4*%
X57675700Y-47832400D03*
%TO.N,Rrd3*%
X71668700Y-62361000D03*
%TO.N,Rrd2*%
X66956100Y-62815100D03*
X31566700Y-49691000D03*
%TO.N,Rrd1*%
X53358900Y-47977500D03*
X49694700Y-34377400D03*
%TO.N,Rrd0*%
X90123700Y-40331400D03*
X30833300Y-47580000D03*
%TO.N,Rrs7*%
X36667000Y-40993500D03*
X47256300Y-34922800D03*
%TO.N,Rrs6*%
X38100000Y-49457900D03*
X53890300Y-37521700D03*
%TO.N,Rrs5*%
X42486600Y-77640000D03*
%TO.N,Rrs4*%
X36080800Y-47592600D03*
X51717200Y-35553600D03*
%TO.N,Rrs2*%
X42695300Y-23004700D03*
%TO.N,Rrs0*%
X24964300Y-55652100D03*
X58151200Y-63877400D03*
%TO.N,sliwb*%
X74322300Y-29980000D03*
X70771800Y-137210000D03*
%TO.N,nandwb*%
X28041400Y-85675300D03*
%TO.N,addwb*%
X93835300Y-102845900D03*
%TO.N,incdec*%
X54892100Y-100242500D03*
%TO.N,Net-(U2-Pad6)*%
X50825700Y-40686900D03*
%TO.N,Net-(U2-Pad11)*%
X49881600Y-48138900D03*
%TO.N,Net-(U2-Pad3)*%
X56125500Y-37522500D03*
%TO.N,Net-(U5-Pad9)*%
X45584200Y-92215400D03*
%TO.N,Net-(U5-Pad5)*%
X82405500Y-92795200D03*
%TO.N,Net-(U5-Pad4)*%
X63249400Y-92432300D03*
%TO.N,Net-(U6-Pad15)*%
X28564600Y-91666500D03*
%TO.N,Net-(U7-Pad6)*%
X76653500Y-91621100D03*
%TO.N,Net-(U7-Pad2)*%
X65024100Y-91427300D03*
%TO.N,Net-(U10-Pad11)*%
X88316900Y-64528100D03*
%TO.N,Net-(U10-Pad6)*%
X33726200Y-86923800D03*
%TO.N,Net-(U10-Pad8)*%
X97270600Y-65339300D03*
%TO.N,Net-(U10-Pad3)*%
X30343700Y-91668700D03*
%TO.N,Net-(U11-Pad6)*%
X126333800Y-71476200D03*
%TO.N,Net-(U11-Pad3)*%
X63495900Y-79116000D03*
X121621300Y-72730400D03*
%TO.N,Net-(D14-Pad1)*%
X83094900Y-131271900D03*
%TO.N,Net-(D17-Pad1)*%
X63449400Y-130487300D03*
%TD*%
D22*
%TO.N,GND*%
X97790000Y-44450000D02*
X96664700Y-44450000D01*
X96664700Y-44450000D02*
X96664700Y-44168700D01*
X96664700Y-44168700D02*
X95817200Y-43321200D01*
X95817200Y-43321200D02*
X93838800Y-43321200D01*
X93838800Y-43321200D02*
X92710000Y-44450000D01*
X113030000Y-96520000D02*
X114155300Y-96520000D01*
X123190000Y-97790000D02*
X115425300Y-97790000D01*
X115425300Y-97790000D02*
X114155300Y-96520000D01*
X73660000Y-96520000D02*
X72534700Y-96520000D01*
X50800000Y-95170000D02*
X71466000Y-95170000D01*
X71466000Y-95170000D02*
X72534700Y-96238700D01*
X72534700Y-96238700D02*
X72534700Y-96520000D01*
X54365300Y-127000000D02*
X55488300Y-127000000D01*
X55488300Y-127000000D02*
X56513600Y-125974700D01*
X56513600Y-125974700D02*
X60179400Y-125974700D01*
X60179400Y-125974700D02*
X61204700Y-127000000D01*
X39370000Y-76200000D02*
X38244700Y-76200000D01*
X97790000Y-52070000D02*
X96664700Y-52070000D01*
X92710000Y-52070000D02*
X93835300Y-52070000D01*
X93835300Y-52070000D02*
X93835300Y-52351300D01*
X93835300Y-52351300D02*
X94679300Y-53195300D01*
X94679300Y-53195300D02*
X95820800Y-53195300D01*
X95820800Y-53195300D02*
X96664700Y-52351400D01*
X96664700Y-52351400D02*
X96664700Y-52070000D01*
X69705300Y-31750000D02*
X82470000Y-31750000D01*
X82470000Y-31750000D02*
X83820000Y-30400000D01*
X29210000Y-50720000D02*
X25003200Y-54926800D01*
X25003200Y-54926800D02*
X24663900Y-54926800D01*
X24663900Y-54926800D02*
X24239000Y-55351700D01*
X24239000Y-55351700D02*
X24239000Y-56640300D01*
X24239000Y-56640300D02*
X24205400Y-56673900D01*
X24205400Y-56673900D02*
X24205400Y-58535100D01*
X24205400Y-58535100D02*
X24152800Y-58587700D01*
X24152800Y-58587700D02*
X24152800Y-65674100D01*
X24152800Y-65674100D02*
X24146800Y-65680100D01*
X24146800Y-65680100D02*
X24146800Y-66209500D01*
X24146800Y-66209500D02*
X24104200Y-66252100D01*
X24104200Y-66252100D02*
X24104200Y-66387400D01*
X24104200Y-66387400D02*
X22955300Y-67536300D01*
X22955300Y-67536300D02*
X22955300Y-69006400D01*
X22955300Y-69006400D02*
X23289500Y-69340500D01*
X97790000Y-52070000D02*
X114220000Y-52070000D01*
X114220000Y-52070000D02*
X115570000Y-50720000D01*
X82550000Y-52070000D02*
X83675300Y-52070000D01*
X87630000Y-52070000D02*
X86504700Y-52070000D01*
X86504700Y-52070000D02*
X86504700Y-52351300D01*
X86504700Y-52351300D02*
X85660700Y-53195300D01*
X85660700Y-53195300D02*
X84519200Y-53195300D01*
X84519200Y-53195300D02*
X83675300Y-52351400D01*
X83675300Y-52351400D02*
X83675300Y-52070000D01*
X81424700Y-52070000D02*
X81424700Y-51788700D01*
X81424700Y-51788700D02*
X80580700Y-50944700D01*
X80580700Y-50944700D02*
X77470000Y-50944700D01*
X77470000Y-50944700D02*
X77245300Y-50720000D01*
X77245300Y-50720000D02*
X69850000Y-50720000D01*
X77470000Y-52070000D02*
X77470000Y-50944700D01*
X68580000Y-31750000D02*
X69705300Y-31750000D01*
X88900000Y-127000000D02*
X89925300Y-127000000D01*
X97790000Y-127000000D02*
X96764700Y-127000000D01*
X96764700Y-127000000D02*
X95739400Y-128025300D01*
X95739400Y-128025300D02*
X90950600Y-128025300D01*
X90950600Y-128025300D02*
X89925300Y-127000000D01*
X39370000Y-31750000D02*
X38244700Y-31750000D01*
X19050000Y-30400000D02*
X37176000Y-30400000D01*
X37176000Y-30400000D02*
X38244700Y-31468700D01*
X38244700Y-31468700D02*
X38244700Y-31750000D01*
X102870000Y-76200000D02*
X103995300Y-76200000D01*
X116840000Y-74850000D02*
X105345300Y-74850000D01*
X105345300Y-74850000D02*
X103995300Y-76200000D01*
X58275300Y-52070000D02*
X59625300Y-50720000D01*
X59625300Y-50720000D02*
X69850000Y-50720000D01*
X57150000Y-52070000D02*
X58275300Y-52070000D01*
X44600000Y-121340000D02*
X38100000Y-121340000D01*
X82550000Y-52070000D02*
X81424700Y-52070000D01*
X137160000Y-76200000D02*
X136034700Y-76200000D01*
X136034700Y-76200000D02*
X136034700Y-76481300D01*
X136034700Y-76481300D02*
X124886000Y-87630000D01*
X124886000Y-87630000D02*
X123190000Y-87630000D01*
X135890000Y-52070000D02*
X134764700Y-52070000D01*
X115570000Y-50720000D02*
X115809600Y-50480400D01*
X115809600Y-50480400D02*
X133456400Y-50480400D01*
X133456400Y-50480400D02*
X134764700Y-51788700D01*
X134764700Y-51788700D02*
X134764700Y-52070000D01*
X115570000Y-120070000D02*
X120204700Y-120070000D01*
X120204700Y-120070000D02*
X122164700Y-118110000D01*
X113180000Y-120070000D02*
X115570000Y-120070000D01*
X115570000Y-120070000D02*
X115570000Y-127000000D01*
X23289500Y-69340500D02*
X27318900Y-73370000D01*
X27318900Y-73370000D02*
X35696000Y-73370000D01*
X35696000Y-73370000D02*
X38244700Y-75918700D01*
X38244700Y-75918700D02*
X38244700Y-76200000D01*
X23289500Y-69340500D02*
X17780000Y-74850000D01*
X39370000Y-76200000D02*
X40495300Y-76200000D01*
X49530000Y-74850000D02*
X41845300Y-74850000D01*
X41845300Y-74850000D02*
X40495300Y-76200000D01*
X123190000Y-118110000D02*
X122164700Y-118110000D01*
X106680000Y-120070000D02*
X113180000Y-120070000D01*
X87630000Y-44450000D02*
X86504700Y-44450000D01*
X82550000Y-44450000D02*
X83675300Y-44450000D01*
X83675300Y-44450000D02*
X83675300Y-44168700D01*
X83675300Y-44168700D02*
X84519300Y-43324700D01*
X84519300Y-43324700D02*
X85660800Y-43324700D01*
X85660800Y-43324700D02*
X86504700Y-44168600D01*
X86504700Y-44168600D02*
X86504700Y-44450000D01*
X88900000Y-127000000D02*
X87874700Y-127000000D01*
X80010000Y-127000000D02*
X81035300Y-127000000D01*
X81035300Y-127000000D02*
X82060600Y-125974700D01*
X82060600Y-125974700D02*
X86849400Y-125974700D01*
X86849400Y-125974700D02*
X87874700Y-127000000D01*
X79497400Y-127000000D02*
X80010000Y-127000000D01*
X79497400Y-127000000D02*
X78984700Y-127000000D01*
X71120000Y-127000000D02*
X72145300Y-127000000D01*
X72145300Y-127000000D02*
X73170600Y-128025300D01*
X73170600Y-128025300D02*
X77959400Y-128025300D01*
X77959400Y-128025300D02*
X78984700Y-127000000D01*
X70607400Y-127000000D02*
X71120000Y-127000000D01*
X70607400Y-127000000D02*
X70094700Y-127000000D01*
X70094700Y-127000000D02*
X69069400Y-128025300D01*
X69069400Y-128025300D02*
X64280600Y-128025300D01*
X64280600Y-128025300D02*
X63255300Y-127000000D01*
X62230000Y-127000000D02*
X61204700Y-127000000D01*
X53340000Y-127000000D02*
X54365300Y-127000000D01*
X62230000Y-127000000D02*
X63255300Y-127000000D01*
X69850000Y-76200000D02*
X70975300Y-76200000D01*
X82550000Y-74850000D02*
X72325300Y-74850000D01*
X72325300Y-74850000D02*
X70975300Y-76200000D01*
X39370000Y-31750000D02*
X40495300Y-31750000D01*
X48260000Y-30400000D02*
X41845300Y-30400000D01*
X41845300Y-30400000D02*
X40495300Y-31750000D01*
%TO.N,+5V*%
X101253900Y-106719100D02*
X100574700Y-107398300D01*
X100574700Y-107398300D02*
X100574700Y-118599400D01*
X100574700Y-118599400D02*
X101600000Y-119624700D01*
X111760000Y-107950000D02*
X110529100Y-106719100D01*
X110529100Y-106719100D02*
X101253900Y-106719100D01*
X101253900Y-106719100D02*
X101253900Y-105903500D01*
X101253900Y-105903500D02*
X100829100Y-105478700D01*
X100829100Y-105478700D02*
X100228200Y-105478700D01*
X100228200Y-105478700D02*
X97790000Y-107916900D01*
X97790000Y-107916900D02*
X97790000Y-107950000D01*
X97790000Y-107950000D02*
X94406000Y-111334000D01*
X94406000Y-111334000D02*
X92921100Y-111334000D01*
X49530000Y-69850000D02*
X52214700Y-69850000D01*
X52214700Y-69850000D02*
X53484700Y-68580000D01*
X25255300Y-68580000D02*
X25255300Y-68861300D01*
X25255300Y-68861300D02*
X26557600Y-70163600D01*
X26557600Y-70163600D02*
X49216400Y-70163600D01*
X49216400Y-70163600D02*
X49530000Y-69850000D01*
X54610000Y-68580000D02*
X53484700Y-68580000D01*
X101600000Y-120650000D02*
X101600000Y-119624700D01*
X24130000Y-68580000D02*
X25255300Y-68580000D01*
X63500000Y-107950000D02*
X64725400Y-109175400D01*
X64725400Y-109175400D02*
X81324600Y-109175400D01*
X81324600Y-109175400D02*
X82550000Y-107950000D01*
X29210000Y-45720000D02*
X27721900Y-45720000D01*
X27721900Y-45720000D02*
X23853800Y-41851900D01*
X54610000Y-121920000D02*
X53584700Y-121920000D01*
X45991000Y-119090000D02*
X35605300Y-119090000D01*
X35605300Y-119090000D02*
X32775300Y-121920000D01*
X53584700Y-121920000D02*
X50754700Y-119090000D01*
X50754700Y-119090000D02*
X45991000Y-119090000D01*
X43180000Y-107950000D02*
X45991000Y-110761000D01*
X45991000Y-110761000D02*
X45991000Y-119090000D01*
X31750000Y-121920000D02*
X32775300Y-121920000D01*
X120650000Y-44450000D02*
X120650000Y-43324700D01*
X120650000Y-43324700D02*
X121092900Y-43324700D01*
X121092900Y-43324700D02*
X142240000Y-22177600D01*
X121920000Y-68580000D02*
X120794700Y-68580000D01*
X116840000Y-69850000D02*
X119524700Y-69850000D01*
X119524700Y-69850000D02*
X120794700Y-68580000D01*
X55880000Y-88900000D02*
X54754700Y-88900000D01*
X50800000Y-90170000D02*
X53484700Y-90170000D01*
X53484700Y-90170000D02*
X54754700Y-88900000D01*
X31894700Y-45720000D02*
X29210000Y-45720000D01*
X33164700Y-44450000D02*
X31894700Y-45720000D01*
X31894700Y-45720000D02*
X34290000Y-48115300D01*
X34290000Y-48115300D02*
X34290000Y-52070000D01*
X147320000Y-21590000D02*
X146144700Y-21590000D01*
X142240000Y-22177600D02*
X145557100Y-22177600D01*
X145557100Y-22177600D02*
X146144700Y-21590000D01*
X142240000Y-21590000D02*
X142240000Y-22177600D01*
X85090000Y-24130000D02*
X83820000Y-25400000D01*
X88881600Y-24130000D02*
X85090000Y-24130000D01*
X85090000Y-24130000D02*
X82644600Y-21684600D01*
X82644600Y-21684600D02*
X82644600Y-14898500D01*
X82644600Y-14898500D02*
X81809300Y-14063200D01*
X81809300Y-14063200D02*
X78250600Y-14063200D01*
X78250600Y-14063200D02*
X77470000Y-14843800D01*
X77470000Y-14843800D02*
X77470000Y-15632300D01*
X77470000Y-15632300D02*
X70237600Y-22864700D01*
X70237600Y-22864700D02*
X68179400Y-22864700D01*
X68179400Y-22864700D02*
X67310000Y-23734100D01*
X67310000Y-23734100D02*
X67310000Y-24473500D01*
X67310000Y-24473500D02*
X66028300Y-25755200D01*
X66028300Y-25755200D02*
X55809200Y-25755200D01*
X55809200Y-25755200D02*
X54465300Y-24411300D01*
X54465300Y-24411300D02*
X54465300Y-24130000D01*
X88900000Y-24130000D02*
X88881600Y-24130000D01*
X86504700Y-68580000D02*
X85234700Y-69850000D01*
X85234700Y-69850000D02*
X82550000Y-69850000D01*
X53340000Y-24130000D02*
X54465300Y-24130000D01*
X74930000Y-44450000D02*
X73804700Y-44450000D01*
X69850000Y-45720000D02*
X72534700Y-45720000D01*
X72534700Y-45720000D02*
X73804700Y-44450000D01*
X87630000Y-68580000D02*
X86504700Y-68580000D01*
X90170000Y-88900000D02*
X89044700Y-88900000D01*
X85090000Y-90170000D02*
X87774700Y-90170000D01*
X87774700Y-90170000D02*
X89044700Y-88900000D01*
X34290000Y-44450000D02*
X33164700Y-44450000D01*
%TO.N,Net-(D1-Pad1)*%
X40640000Y-107950000D02*
X36830000Y-107950000D01*
X36830000Y-107950000D02*
X34290000Y-105410000D01*
%TO.N,Net-(D2-Pad1)*%
X60960000Y-107950000D02*
X58420000Y-107950000D01*
X58420000Y-107950000D02*
X55880000Y-110490000D01*
%TO.N,Net-(D3-Pad1)*%
X109220000Y-107950000D02*
X106680000Y-107950000D01*
X106680000Y-107950000D02*
X104140000Y-110490000D01*
%TO.N,Net-(D4-Pad1)*%
X95250000Y-107950000D02*
X92710000Y-107950000D01*
X92710000Y-107950000D02*
X90170000Y-105410000D01*
%TO.N,eq*%
X130810000Y-90170000D02*
X139253200Y-81726800D01*
X139253200Y-81726800D02*
X139253200Y-59098500D01*
X139253200Y-59098500D02*
X133350000Y-53195300D01*
X133350000Y-52070000D02*
X133350000Y-53195300D01*
%TO.N,Net-(D7-Pad1)*%
X128270000Y-90170000D02*
X125730000Y-90170000D01*
X125730000Y-90170000D02*
X123190000Y-92710000D01*
%TO.N,noteq*%
X128270000Y-52070000D02*
X116550600Y-63789400D01*
X116550600Y-63789400D02*
X68513600Y-63789400D01*
X130810000Y-52070000D02*
X128270000Y-52070000D01*
%TO.N,Net-(D8-Pad1)*%
X128270000Y-100330000D02*
X125730000Y-100330000D01*
X125730000Y-100330000D02*
X123190000Y-102870000D01*
%TO.N,lt*%
X125730000Y-52070000D02*
X126855300Y-52070000D01*
X126855300Y-52070000D02*
X126855300Y-51788700D01*
X126855300Y-51788700D02*
X127701900Y-50942100D01*
X127701900Y-50942100D02*
X131331100Y-50942100D01*
X131331100Y-50942100D02*
X131935400Y-51546400D01*
X131935400Y-51546400D02*
X131935400Y-60283400D01*
X131935400Y-60283400D02*
X138802900Y-67150900D01*
X138802900Y-67150900D02*
X138802900Y-76875000D01*
X138802900Y-76875000D02*
X129577600Y-86100300D01*
X129577600Y-86100300D02*
X129577600Y-109257600D01*
X129577600Y-109257600D02*
X130810000Y-110490000D01*
X129540000Y-139700000D02*
X129540000Y-138524700D01*
X129540000Y-138524700D02*
X129907300Y-138524700D01*
X129907300Y-138524700D02*
X132093300Y-136338700D01*
X132093300Y-136338700D02*
X132093300Y-111773300D01*
X132093300Y-111773300D02*
X130810000Y-110490000D01*
%TO.N,Net-(D9-Pad1)*%
X128270000Y-110490000D02*
X125730000Y-110490000D01*
X125730000Y-110490000D02*
X123190000Y-113030000D01*
%TO.N,ge*%
X129540000Y-142240000D02*
X129540000Y-141064700D01*
X129540000Y-141064700D02*
X129172700Y-141064700D01*
X129172700Y-141064700D02*
X128364600Y-140256600D01*
X128364600Y-140256600D02*
X128364600Y-123095400D01*
X128364600Y-123095400D02*
X130810000Y-120650000D01*
%TO.N,Net-(D10-Pad1)*%
X128270000Y-120650000D02*
X125730000Y-120650000D01*
X125730000Y-120650000D02*
X123190000Y-123190000D01*
%TO.N,Net-(J1-Pad3)*%
X142240000Y-26670000D02*
X147320000Y-26670000D01*
%TO.N,wb7*%
X113030000Y-90025300D02*
X111904700Y-91150600D01*
X111904700Y-91150600D02*
X111904700Y-96758700D01*
X111904700Y-96758700D02*
X106586100Y-102077300D01*
X106586100Y-102077300D02*
X91665400Y-102077300D01*
X91665400Y-102077300D02*
X68677700Y-125065000D01*
X68677700Y-125065000D02*
X55023200Y-125065000D01*
X55023200Y-125065000D02*
X54946800Y-125141400D01*
X102978300Y-37294400D02*
X98451200Y-41821500D01*
X98451200Y-41821500D02*
X92754800Y-41821500D01*
X92754800Y-41821500D02*
X92496100Y-42080200D01*
X92496100Y-42080200D02*
X60313900Y-42080200D01*
X60313900Y-42080200D02*
X58275300Y-44118800D01*
X58275300Y-44118800D02*
X58275300Y-44450000D01*
X104411600Y-38727700D02*
X102978300Y-37294400D01*
X102978300Y-37294400D02*
X102978300Y-31281600D01*
X102978300Y-31281600D02*
X104085500Y-30174400D01*
X104085500Y-30174400D02*
X105715600Y-30174400D01*
X105715600Y-30174400D02*
X111760000Y-24130000D01*
X113030000Y-88900000D02*
X113030000Y-90025300D01*
X24938000Y-132080000D02*
X50800000Y-132080000D01*
X21495300Y-128270000D02*
X21495300Y-128637300D01*
X21495300Y-128637300D02*
X24938000Y-132080000D01*
X24938000Y-132080000D02*
X20320000Y-136698000D01*
X20320000Y-136698000D02*
X20320000Y-143510000D01*
X20320000Y-128270000D02*
X21495300Y-128270000D01*
X57150000Y-44450000D02*
X58275300Y-44450000D01*
%TO.N,wb6*%
X54610000Y-44450000D02*
X55735300Y-44450000D01*
X97251500Y-40798000D02*
X93141400Y-40798000D01*
X93141400Y-40798000D02*
X92387300Y-41552100D01*
X92387300Y-41552100D02*
X58351900Y-41552100D01*
X58351900Y-41552100D02*
X55735300Y-44168700D01*
X55735300Y-44168700D02*
X55735300Y-44450000D01*
X22860000Y-128270000D02*
X24035300Y-128270000D01*
X24035300Y-128270000D02*
X24035300Y-128637300D01*
X24035300Y-128637300D02*
X25613800Y-130215800D01*
X25613800Y-130215800D02*
X57825800Y-130215800D01*
X57825800Y-130215800D02*
X59690000Y-132080000D01*
%TO.N,wb5*%
X96379500Y-39546000D02*
X93756400Y-39546000D01*
X93756400Y-39546000D02*
X92200700Y-41101700D01*
X92200700Y-41101700D02*
X56282600Y-41101700D01*
X56282600Y-41101700D02*
X53195300Y-44189000D01*
X53195300Y-44189000D02*
X53195300Y-44450000D01*
X52070000Y-44450000D02*
X53195300Y-44450000D01*
X76200000Y-129670800D02*
X70989200Y-129670800D01*
X70989200Y-129670800D02*
X68580000Y-132080000D01*
X26575300Y-128270000D02*
X26575300Y-128637400D01*
X26575300Y-128637400D02*
X27383200Y-129445300D01*
X27383200Y-129445300D02*
X65945300Y-129445300D01*
X65945300Y-129445300D02*
X68580000Y-132080000D01*
X25400000Y-128270000D02*
X26575300Y-128270000D01*
%TO.N,wb4*%
X50655300Y-44450000D02*
X50655300Y-44731300D01*
X50655300Y-44731300D02*
X51881000Y-45957000D01*
X51881000Y-45957000D02*
X54768700Y-45957000D01*
X54768700Y-45957000D02*
X57369400Y-48557700D01*
X57369400Y-48557700D02*
X57976200Y-48557700D01*
X57976200Y-48557700D02*
X58455900Y-48078000D01*
X58455900Y-48078000D02*
X58455900Y-48077900D01*
X58455900Y-48077900D02*
X93929100Y-48077900D01*
X93929100Y-48077900D02*
X94155200Y-47851800D01*
X99860700Y-47244200D02*
X94762800Y-47244200D01*
X94762800Y-47244200D02*
X94155200Y-47851800D01*
X27940000Y-143510000D02*
X29115300Y-143510000D01*
X29115300Y-143510000D02*
X29115300Y-143142700D01*
X29115300Y-143142700D02*
X36223700Y-136034300D01*
X36223700Y-136034300D02*
X63105100Y-136034300D01*
X63105100Y-136034300D02*
X65744800Y-133394600D01*
X65744800Y-133394600D02*
X69355000Y-133394600D01*
X69355000Y-133394600D02*
X70669600Y-132080000D01*
X70669600Y-132080000D02*
X77470000Y-132080000D01*
X49530000Y-44450000D02*
X50655300Y-44450000D01*
%TO.N,wb3*%
X46990000Y-44757600D02*
X43474500Y-48273100D01*
X43474500Y-48273100D02*
X40913600Y-48273100D01*
X100474700Y-24130000D02*
X100474700Y-24411400D01*
X100474700Y-24411400D02*
X99630800Y-25255300D01*
X99630800Y-25255300D02*
X95385500Y-25255300D01*
X95385500Y-25255300D02*
X90016200Y-30624600D01*
X90016200Y-30624600D02*
X87770300Y-30624600D01*
X87770300Y-30624600D02*
X77784200Y-40610700D01*
X77784200Y-40610700D02*
X55353700Y-40610700D01*
X55353700Y-40610700D02*
X53718100Y-42246300D01*
X53718100Y-42246300D02*
X52690600Y-42246300D01*
X46990000Y-44757600D02*
X46990000Y-44573300D01*
X46990000Y-44573300D02*
X49317000Y-42246300D01*
X102870000Y-88900000D02*
X101744700Y-88900000D01*
X105128900Y-94128300D02*
X98863900Y-94128300D01*
X98863900Y-94128300D02*
X94071800Y-89336200D01*
X94071800Y-89336200D02*
X94071800Y-88417600D01*
X94071800Y-88417600D02*
X94714700Y-87774700D01*
X94714700Y-87774700D02*
X100900800Y-87774700D01*
X100900800Y-87774700D02*
X101744700Y-88618600D01*
X101744700Y-88618600D02*
X101744700Y-88900000D01*
X31655300Y-143510000D02*
X31655300Y-143142700D01*
X31655300Y-143142700D02*
X38313300Y-136484700D01*
X38313300Y-136484700D02*
X73303900Y-136484700D01*
X73303900Y-136484700D02*
X76394000Y-133394600D01*
X76394000Y-133394600D02*
X79799800Y-133394600D01*
X79799800Y-133394600D02*
X82658700Y-130535700D01*
X82658700Y-130535700D02*
X84815700Y-130535700D01*
X84815700Y-130535700D02*
X86360000Y-132080000D01*
X101600000Y-24130000D02*
X100474700Y-24130000D01*
X46990000Y-44450000D02*
X46990000Y-44757600D01*
X30480000Y-143510000D02*
X31655300Y-143510000D01*
%TO.N,wb2*%
X95250000Y-125515400D02*
X95250000Y-115873900D01*
X95250000Y-115873900D02*
X99037400Y-112086500D01*
X34195300Y-128270000D02*
X34195300Y-127915500D01*
X34195300Y-127915500D02*
X36158800Y-125952000D01*
X36158800Y-125952000D02*
X55899300Y-125952000D01*
X55899300Y-125952000D02*
X56335900Y-125515400D01*
X56335900Y-125515400D02*
X95250000Y-125515400D01*
X33020000Y-128270000D02*
X34195300Y-128270000D01*
%TO.N,wb1*%
X99762700Y-128040400D02*
X99762700Y-106969900D01*
X99762700Y-106969900D02*
X100528600Y-106204000D01*
X36735300Y-128270000D02*
X36735300Y-127462000D01*
X36735300Y-127462000D02*
X37102700Y-127094600D01*
X37102700Y-127094600D02*
X42811400Y-127094600D01*
X42811400Y-127094600D02*
X44208500Y-128491700D01*
X44208500Y-128491700D02*
X99311400Y-128491700D01*
X99311400Y-128491700D02*
X99762700Y-128040400D01*
X99762700Y-128040400D02*
X103802300Y-132080000D01*
X103802300Y-132080000D02*
X104140000Y-132080000D01*
X43035300Y-44450000D02*
X43035300Y-44168700D01*
X43035300Y-44168700D02*
X50420200Y-36783800D01*
X50420200Y-36783800D02*
X60520800Y-36783800D01*
X60520800Y-36783800D02*
X60887500Y-37150500D01*
X61224300Y-39223200D02*
X77897900Y-39223200D01*
X77897900Y-39223200D02*
X88760900Y-28360200D01*
X88760900Y-28360200D02*
X91363500Y-28360200D01*
X91363500Y-28360200D02*
X95394700Y-24329000D01*
X95394700Y-24329000D02*
X95394700Y-24130000D01*
X41910000Y-44450000D02*
X43035300Y-44450000D01*
X35560000Y-128270000D02*
X36735300Y-128270000D01*
X96520000Y-24130000D02*
X95394700Y-24130000D01*
%TO.N,wb0*%
X40495300Y-44450000D02*
X40495300Y-44245500D01*
X40495300Y-44245500D02*
X48407300Y-36333500D01*
X48407300Y-36333500D02*
X62915700Y-36333500D01*
X93980000Y-24130000D02*
X92854700Y-24130000D01*
X92854700Y-24130000D02*
X92854700Y-24411300D01*
X92854700Y-24411300D02*
X89356200Y-27909800D01*
X89356200Y-27909800D02*
X80638800Y-27909800D01*
X80638800Y-27909800D02*
X77773300Y-30775300D01*
X77773300Y-30775300D02*
X71792400Y-30775300D01*
X71792400Y-30775300D02*
X71792400Y-30775400D01*
X38100000Y-128270000D02*
X39275300Y-128270000D01*
X39275300Y-128270000D02*
X39947400Y-128942100D01*
X39947400Y-128942100D02*
X88344500Y-128942100D01*
X88344500Y-128942100D02*
X92713100Y-133310700D01*
X92713100Y-133310700D02*
X111799300Y-133310700D01*
X111799300Y-133310700D02*
X113030000Y-132080000D01*
X39370000Y-44450000D02*
X40495300Y-44450000D01*
X96375300Y-88900000D02*
X96375300Y-89076800D01*
X96375300Y-89076800D02*
X97323800Y-90025300D01*
X97323800Y-90025300D02*
X103396200Y-90025300D01*
X103396200Y-90025300D02*
X104259000Y-89162500D01*
X104259000Y-89162500D02*
X104259000Y-88387400D01*
X104259000Y-88387400D02*
X104871800Y-87774600D01*
X104871800Y-87774600D02*
X114632700Y-87774600D01*
X114632700Y-87774600D02*
X124230600Y-97372500D01*
X124230600Y-97372500D02*
X124230600Y-100347100D01*
X124230600Y-100347100D02*
X122146400Y-102431300D01*
X122146400Y-102431300D02*
X122146400Y-113626100D01*
X122146400Y-113626100D02*
X124223000Y-115702700D01*
X124223000Y-115702700D02*
X124223000Y-120547600D01*
X124223000Y-120547600D02*
X113030000Y-131740600D01*
X113030000Y-131740600D02*
X113030000Y-132080000D01*
X95250000Y-88900000D02*
X96375300Y-88900000D01*
%TO.N,Rrd7*%
X81135300Y-44450000D02*
X81135300Y-44731300D01*
X81135300Y-44731300D02*
X82020200Y-45616200D01*
X82020200Y-45616200D02*
X90598800Y-45616200D01*
X90598800Y-45616200D02*
X91440000Y-44775000D01*
X91440000Y-44775000D02*
X91440000Y-44095300D01*
X91440000Y-44095300D02*
X93263500Y-42271800D01*
X93263500Y-42271800D02*
X102135500Y-42271800D01*
X102135500Y-42271800D02*
X106073100Y-38334200D01*
X58623400Y-17626400D02*
X64677400Y-23680500D01*
X64677400Y-23680500D02*
X64677400Y-24606900D01*
X64677400Y-24606900D02*
X64029000Y-25255300D01*
X64029000Y-25255300D02*
X57849200Y-25255300D01*
X57849200Y-25255300D02*
X57005300Y-24411400D01*
X57005300Y-24411400D02*
X57005300Y-24130000D01*
X21495300Y-15240000D02*
X21495300Y-14872700D01*
X21495300Y-14872700D02*
X22778600Y-13589400D01*
X22778600Y-13589400D02*
X25432200Y-13589400D01*
X25432200Y-13589400D02*
X25882500Y-13139100D01*
X25882500Y-13139100D02*
X34701900Y-13139100D01*
X34701900Y-13139100D02*
X35152200Y-13589400D01*
X35152200Y-13589400D02*
X54586300Y-13589400D01*
X54586300Y-13589400D02*
X58623400Y-17626400D01*
X58623400Y-17626400D02*
X62791600Y-13458200D01*
X80010000Y-44450000D02*
X81135300Y-44450000D01*
X133350000Y-44450000D02*
X130810000Y-44450000D01*
X55880000Y-24130000D02*
X57005300Y-24130000D01*
X20320000Y-15240000D02*
X21495300Y-15240000D01*
%TO.N,Rrd6*%
X29210000Y-88900000D02*
X39695900Y-78414100D01*
X39695900Y-78414100D02*
X47746700Y-78414100D01*
X47746700Y-78414100D02*
X51112400Y-75048400D01*
X51112400Y-75048400D02*
X54856600Y-75048400D01*
X54856600Y-75048400D02*
X61014000Y-68891000D01*
X61014000Y-68891000D02*
X61014000Y-68202800D01*
X61014000Y-68202800D02*
X62553200Y-66663600D01*
X62553200Y-66663600D02*
X65711900Y-66663600D01*
X65711900Y-66663600D02*
X66537600Y-65837900D01*
X63500000Y-24130000D02*
X62374700Y-24130000D01*
X22860000Y-15240000D02*
X24035300Y-15240000D01*
X24035300Y-15240000D02*
X24035300Y-14872600D01*
X24035300Y-14872600D02*
X24843200Y-14064700D01*
X24843200Y-14064700D02*
X25818700Y-14064700D01*
X25818700Y-14064700D02*
X26294000Y-13589400D01*
X26294000Y-13589400D02*
X34290000Y-13589400D01*
X34290000Y-13589400D02*
X34740400Y-14039800D01*
X34740400Y-14039800D02*
X52565800Y-14039800D01*
X52565800Y-14039800D02*
X62374700Y-23848700D01*
X62374700Y-23848700D02*
X62374700Y-24130000D01*
%TO.N,Rrd5*%
X90170000Y-44450000D02*
X89044700Y-44450000D01*
X60614300Y-42805500D02*
X87681500Y-42805500D01*
X87681500Y-42805500D02*
X89044700Y-44168700D01*
X89044700Y-44168700D02*
X89044700Y-44450000D01*
X63500000Y-31750000D02*
X62374700Y-31750000D01*
X25400000Y-15240000D02*
X26575300Y-15240000D01*
X26575300Y-15240000D02*
X26575300Y-14872700D01*
X26575300Y-14872700D02*
X27385700Y-14062300D01*
X27385700Y-14062300D02*
X33509500Y-14062300D01*
X33509500Y-14062300D02*
X34290000Y-14842800D01*
X34290000Y-14842800D02*
X34290000Y-15679600D01*
X34290000Y-15679600D02*
X47039300Y-28428900D01*
X47039300Y-28428900D02*
X59334900Y-28428900D01*
X59334900Y-28428900D02*
X62374700Y-31468700D01*
X62374700Y-31468700D02*
X62374700Y-31750000D01*
%TO.N,Rrd4*%
X94124700Y-44450000D02*
X94124700Y-44661400D01*
X94124700Y-44661400D02*
X91433500Y-47352600D01*
X91433500Y-47352600D02*
X58155500Y-47352600D01*
X58155500Y-47352600D02*
X57675700Y-47832400D01*
X95250000Y-44450000D02*
X94124700Y-44450000D01*
X27940000Y-15240000D02*
X27940000Y-16415300D01*
X27940000Y-16415300D02*
X33020000Y-21495300D01*
X33020000Y-21495300D02*
X33020000Y-24456600D01*
X33020000Y-24456600D02*
X37554800Y-28991400D01*
X37554800Y-28991400D02*
X52699400Y-28991400D01*
X52699400Y-28991400D02*
X54754700Y-31046700D01*
X54754700Y-31046700D02*
X54754700Y-31750000D01*
X55880000Y-31750000D02*
X54754700Y-31750000D01*
%TO.N,Rrd3*%
X71668700Y-62361000D02*
X70712000Y-61404300D01*
X70712000Y-61404300D02*
X40221200Y-61404300D01*
X40221200Y-61404300D02*
X32196000Y-53379100D01*
X32196000Y-53379100D02*
X32196000Y-50087500D01*
X32196000Y-50087500D02*
X32292000Y-49991500D01*
X32292000Y-49991500D02*
X32292000Y-49390500D01*
X32292000Y-49390500D02*
X31446700Y-48545200D01*
X31446700Y-48545200D02*
X28815000Y-48545200D01*
X28815000Y-48545200D02*
X17443700Y-37173900D01*
X17443700Y-37173900D02*
X17443700Y-29741900D01*
X17443700Y-29741900D02*
X21930300Y-25255300D01*
X21930300Y-25255300D02*
X24700800Y-25255300D01*
X24700800Y-25255300D02*
X25544700Y-24411400D01*
X25544700Y-24411400D02*
X25544700Y-24130000D01*
X95250000Y-52070000D02*
X98449900Y-48870100D01*
X98449900Y-48870100D02*
X100534400Y-48870100D01*
X100534400Y-48870100D02*
X109220000Y-40184500D01*
X109220000Y-40184500D02*
X109220000Y-31750000D01*
X26670000Y-24130000D02*
X25544700Y-24130000D01*
%TO.N,Rrd2*%
X89044700Y-52070000D02*
X89044700Y-52351300D01*
X89044700Y-52351300D02*
X78259100Y-63136900D01*
X78259100Y-63136900D02*
X69399600Y-63136900D01*
X69399600Y-63136900D02*
X69077800Y-62815100D01*
X69077800Y-62815100D02*
X66956100Y-62815100D01*
X66956100Y-62815100D02*
X40995100Y-62815100D01*
X40995100Y-62815100D02*
X31566700Y-53386700D01*
X31566700Y-53386700D02*
X31566700Y-49691000D01*
X89607400Y-52070000D02*
X92650000Y-49027400D01*
X92650000Y-49027400D02*
X94642300Y-49027400D01*
X94642300Y-49027400D02*
X95249900Y-48419800D01*
X95249900Y-48419800D02*
X100347800Y-48419800D01*
X100347800Y-48419800D02*
X107248700Y-41518900D01*
X107248700Y-41518900D02*
X107248700Y-33444000D01*
X107248700Y-33444000D02*
X106680000Y-32875300D01*
X106680000Y-31750000D02*
X106680000Y-32875300D01*
X89607400Y-52070000D02*
X89044700Y-52070000D01*
X90170000Y-52070000D02*
X89607400Y-52070000D01*
X33020000Y-15240000D02*
X33020000Y-16415300D01*
X33020000Y-16415300D02*
X34290000Y-17685300D01*
X34290000Y-17685300D02*
X34290000Y-24130000D01*
%TO.N,Rrd1*%
X85090000Y-50944700D02*
X83153300Y-49008000D01*
X83153300Y-49008000D02*
X54389400Y-49008000D01*
X54389400Y-49008000D02*
X53358900Y-47977500D01*
X85090000Y-50944700D02*
X87457600Y-48577100D01*
X87457600Y-48577100D02*
X94455700Y-48577100D01*
X94455700Y-48577100D02*
X95063200Y-47969600D01*
X95063200Y-47969600D02*
X95063200Y-47969500D01*
X95063200Y-47969500D02*
X100161200Y-47969500D01*
X100161200Y-47969500D02*
X106798400Y-41332300D01*
X106798400Y-41332300D02*
X106798400Y-35533700D01*
X106798400Y-35533700D02*
X104140000Y-32875300D01*
X35415300Y-31750000D02*
X35415300Y-32031400D01*
X35415300Y-32031400D02*
X36259200Y-32875300D01*
X36259200Y-32875300D02*
X48192600Y-32875300D01*
X48192600Y-32875300D02*
X49694700Y-34377400D01*
X34290000Y-31750000D02*
X35415300Y-31750000D01*
X104140000Y-31750000D02*
X104140000Y-32875300D01*
X85090000Y-52070000D02*
X85090000Y-50944700D01*
%TO.N,Rrd0*%
X78884700Y-52070000D02*
X78884700Y-52351300D01*
X78884700Y-52351300D02*
X77584800Y-53651200D01*
X77584800Y-53651200D02*
X33136900Y-53651200D01*
X33136900Y-53651200D02*
X32646300Y-53160600D01*
X32646300Y-53160600D02*
X32646300Y-50274100D01*
X32646300Y-50274100D02*
X32742300Y-50178100D01*
X32742300Y-50178100D02*
X32742300Y-49203900D01*
X32742300Y-49203900D02*
X31118400Y-47580000D01*
X31118400Y-47580000D02*
X30833300Y-47580000D01*
X100474700Y-31750000D02*
X100474700Y-31954500D01*
X100474700Y-31954500D02*
X92097800Y-40331400D01*
X92097800Y-40331400D02*
X90123700Y-40331400D01*
X101600000Y-31750000D02*
X100474700Y-31750000D01*
X80010000Y-52070000D02*
X78884700Y-52070000D01*
%TO.N,Rrs7*%
X47256300Y-34922800D02*
X42737700Y-34922800D01*
X42737700Y-34922800D02*
X36667000Y-40993500D01*
%TO.N,Rrs6*%
X53890300Y-37521700D02*
X52307500Y-37521700D01*
X52307500Y-37521700D02*
X45720000Y-44109200D01*
X45720000Y-44109200D02*
X45720000Y-44829300D01*
X45720000Y-44829300D02*
X43001500Y-47547800D01*
X43001500Y-47547800D02*
X40010100Y-47547800D01*
X40010100Y-47547800D02*
X38100000Y-49457900D01*
X68580000Y-15240000D02*
X68580000Y-16415300D01*
X68580000Y-16415300D02*
X66040000Y-18955300D01*
X66040000Y-18955300D02*
X66040000Y-24130000D01*
%TO.N,Rrs5*%
X35415300Y-76200000D02*
X35415300Y-76481400D01*
X35415300Y-76481400D02*
X36573900Y-77640000D01*
X36573900Y-77640000D02*
X42486600Y-77640000D01*
X34290000Y-76200000D02*
X35415300Y-76200000D01*
%TO.N,Rrs4*%
X36080800Y-47592600D02*
X38100000Y-45573400D01*
X38100000Y-45573400D02*
X38100000Y-44070300D01*
X38100000Y-44070300D02*
X46430000Y-35740300D01*
X46430000Y-35740300D02*
X51530500Y-35740300D01*
X51530500Y-35740300D02*
X51717200Y-35553600D01*
%TO.N,Rrs3*%
X75024700Y-15240000D02*
X75024700Y-14872700D01*
X75024700Y-14872700D02*
X72840800Y-12688800D01*
X72840800Y-12688800D02*
X21192400Y-12688800D01*
X21192400Y-12688800D02*
X19133400Y-14747800D01*
X19133400Y-14747800D02*
X19133400Y-15756200D01*
X19133400Y-15756200D02*
X26381900Y-23004700D01*
X26381900Y-23004700D02*
X27240800Y-23004700D01*
X27240800Y-23004700D02*
X28084700Y-23848600D01*
X28084700Y-23848600D02*
X28084700Y-24130000D01*
X29210000Y-24130000D02*
X28084700Y-24130000D01*
X76200000Y-15240000D02*
X75024700Y-15240000D01*
%TO.N,Rrs2*%
X78740000Y-16415300D02*
X68911500Y-26243800D01*
X68911500Y-26243800D02*
X52769200Y-26243800D01*
X52769200Y-26243800D02*
X49530100Y-23004700D01*
X49530100Y-23004700D02*
X42695300Y-23004700D01*
X78740000Y-15240000D02*
X78740000Y-16415300D01*
%TO.N,Rrs1*%
X32875300Y-31750000D02*
X32875300Y-32031300D01*
X32875300Y-32031300D02*
X34845200Y-34001200D01*
X34845200Y-34001200D02*
X48292800Y-34001200D01*
X48292800Y-34001200D02*
X49394300Y-35102700D01*
X49394300Y-35102700D02*
X50063100Y-35102700D01*
X50063100Y-35102700D02*
X50910400Y-34255400D01*
X50910400Y-34255400D02*
X62599800Y-34255400D01*
X62599800Y-34255400D02*
X64914600Y-31940600D01*
X64914600Y-31940600D02*
X64914600Y-31262000D01*
X64914600Y-31262000D02*
X80104700Y-16071900D01*
X80104700Y-16071900D02*
X80104700Y-15240000D01*
X31750000Y-31750000D02*
X32875300Y-31750000D01*
X81280000Y-15240000D02*
X80104700Y-15240000D01*
%TO.N,Rrs0*%
X24964300Y-55652100D02*
X33189600Y-63877400D01*
X33189600Y-63877400D02*
X58151200Y-63877400D01*
%TO.N,imm1*%
X93980000Y-31750000D02*
X92844700Y-32885300D01*
X92844700Y-32885300D02*
X90982100Y-32885300D01*
X90982100Y-32885300D02*
X90277500Y-32180700D01*
X90277500Y-32180700D02*
X90277500Y-31280400D01*
X90277500Y-31280400D02*
X95852200Y-25705700D01*
X95852200Y-25705700D02*
X104166900Y-25705700D01*
X104166900Y-25705700D02*
X105330100Y-24542500D01*
X105330100Y-24542500D02*
X105330100Y-23844500D01*
X105330100Y-23844500D02*
X112759300Y-16415300D01*
X112759300Y-16415300D02*
X119936800Y-16415300D01*
X119936800Y-16415300D02*
X120744700Y-15607400D01*
X120744700Y-15607400D02*
X120744700Y-15240000D01*
X121920000Y-15240000D02*
X120744700Y-15240000D01*
%TO.N,imm0*%
X123284700Y-15240000D02*
X123284700Y-15551600D01*
X123284700Y-15551600D02*
X121784100Y-17052200D01*
X121784100Y-17052200D02*
X117181100Y-17052200D01*
X117181100Y-17052200D02*
X110490000Y-23743300D01*
X110490000Y-23743300D02*
X110490000Y-24499300D01*
X110490000Y-24499300D02*
X105265200Y-29724100D01*
X105265200Y-29724100D02*
X94309800Y-29724100D01*
X94309800Y-29724100D02*
X92565300Y-31468600D01*
X92565300Y-31468600D02*
X92565300Y-31750000D01*
X91440000Y-31750000D02*
X92565300Y-31750000D01*
X124460000Y-15240000D02*
X123284700Y-15240000D01*
%TO.N,sliwb*%
X90314700Y-24130000D02*
X90314700Y-24342900D01*
X90314700Y-24342900D02*
X87640600Y-27017000D01*
X87640600Y-27017000D02*
X77285200Y-27017000D01*
X77285200Y-27017000D02*
X77285200Y-27017100D01*
X77285200Y-27017100D02*
X74322300Y-29980000D01*
X76294700Y-143510000D02*
X76294700Y-142732900D01*
X76294700Y-142732900D02*
X70771800Y-137210000D01*
X91440000Y-24130000D02*
X90314700Y-24130000D01*
X77470000Y-143510000D02*
X76294700Y-143510000D01*
X59690000Y-116840000D02*
X54610000Y-116840000D01*
X66190000Y-116840000D02*
X59690000Y-116840000D01*
%TO.N,nandwb*%
X34290000Y-110490000D02*
X34290000Y-109464700D01*
X34290000Y-109464700D02*
X22554200Y-97728900D01*
X22554200Y-97728900D02*
X22554200Y-95058800D01*
X22554200Y-95058800D02*
X28041400Y-89571600D01*
X28041400Y-89571600D02*
X28041400Y-85675300D01*
X34290000Y-116840000D02*
X34290000Y-110490000D01*
X34290000Y-116840000D02*
X38100000Y-116840000D01*
X31750000Y-116840000D02*
X34290000Y-116840000D01*
X38100000Y-116840000D02*
X44600000Y-116840000D01*
%TO.N,addwb*%
X103114700Y-105410000D02*
X100550600Y-102845900D01*
X100550600Y-102845900D02*
X93835300Y-102845900D01*
X101600000Y-115570000D02*
X106680000Y-115570000D01*
X106680000Y-115570000D02*
X113180000Y-115570000D01*
X104140000Y-105410000D02*
X103114700Y-105410000D01*
%TO.N,incdec*%
X67310000Y-67454700D02*
X67310000Y-65584500D01*
X67310000Y-65584500D02*
X66838100Y-65112600D01*
X66838100Y-65112600D02*
X66237200Y-65112600D01*
X66237200Y-65112600D02*
X65411500Y-65938300D01*
X65411500Y-65938300D02*
X62331700Y-65938300D01*
X62331700Y-65938300D02*
X59690000Y-68580000D01*
X74930000Y-105410000D02*
X60059600Y-105410000D01*
X60059600Y-105410000D02*
X54892100Y-100242500D01*
X24130000Y-76200000D02*
X25255300Y-76200000D01*
X31750000Y-76200000D02*
X30624700Y-76200000D01*
X30624700Y-76200000D02*
X30624700Y-75918700D01*
X30624700Y-75918700D02*
X29780700Y-75074700D01*
X29780700Y-75074700D02*
X26099200Y-75074700D01*
X26099200Y-75074700D02*
X25255300Y-75918600D01*
X25255300Y-75918600D02*
X25255300Y-76200000D01*
X58564700Y-68580000D02*
X58564700Y-68298600D01*
X58564700Y-68298600D02*
X57699000Y-67432900D01*
X57699000Y-67432900D02*
X45004600Y-67432900D01*
X45004600Y-67432900D02*
X42724300Y-69713200D01*
X42724300Y-69713200D02*
X37400600Y-69713200D01*
X37400600Y-69713200D02*
X36830000Y-69142600D01*
X62230000Y-76200000D02*
X61104700Y-76200000D01*
X54610000Y-76200000D02*
X55735300Y-76200000D01*
X55735300Y-76200000D02*
X55735300Y-76481300D01*
X55735300Y-76481300D02*
X56580300Y-77326300D01*
X56580300Y-77326300D02*
X60171700Y-77326300D01*
X60171700Y-77326300D02*
X61104700Y-76393300D01*
X61104700Y-76393300D02*
X61104700Y-76200000D01*
X36830000Y-68580000D02*
X36830000Y-69142600D01*
X36830000Y-69142600D02*
X36267300Y-69705300D01*
X36267300Y-69705300D02*
X31179200Y-69705300D01*
X31179200Y-69705300D02*
X30335300Y-68861400D01*
X30335300Y-68861400D02*
X30335300Y-68580000D01*
X29210000Y-68580000D02*
X30335300Y-68580000D01*
X59690000Y-68580000D02*
X58564700Y-68580000D01*
X67310000Y-68580000D02*
X67310000Y-67454700D01*
%TO.N,addsub*%
X124460000Y-68580000D02*
X123334700Y-68580000D01*
X99871800Y-68580000D02*
X100997100Y-67454700D01*
X100997100Y-67454700D02*
X122490800Y-67454700D01*
X122490800Y-67454700D02*
X123334700Y-68298600D01*
X123334700Y-68298600D02*
X123334700Y-68580000D01*
X100330000Y-68580000D02*
X99871800Y-68580000D01*
X99767400Y-68580000D02*
X99204700Y-68580000D01*
X99767400Y-68580000D02*
X99871800Y-68580000D01*
X92710000Y-68580000D02*
X93835300Y-68580000D01*
X93835300Y-68580000D02*
X93835300Y-68298700D01*
X93835300Y-68298700D02*
X94679300Y-67454700D01*
X94679300Y-67454700D02*
X98360800Y-67454700D01*
X98360800Y-67454700D02*
X99204700Y-68298600D01*
X99204700Y-68298600D02*
X99204700Y-68580000D01*
X87630000Y-76200000D02*
X88755300Y-76200000D01*
X88755300Y-76200000D02*
X88755300Y-76481300D01*
X88755300Y-76481300D02*
X89620100Y-77346100D01*
X89620100Y-77346100D02*
X94103900Y-77346100D01*
X94103900Y-77346100D02*
X95250000Y-76200000D01*
X130110800Y-75074700D02*
X130954700Y-75918600D01*
X130954700Y-75918600D02*
X130954700Y-76200000D01*
X124460000Y-76200000D02*
X125585300Y-75074700D01*
X125585300Y-75074700D02*
X130110800Y-75074700D01*
X132080000Y-68580000D02*
X132080000Y-73105500D01*
X132080000Y-73105500D02*
X130110800Y-75074700D01*
X132080000Y-76200000D02*
X130954700Y-76200000D01*
%TO.N,Net-(U1-Pad11)*%
X43324700Y-52070000D02*
X43324700Y-52351300D01*
X43324700Y-52351300D02*
X42480600Y-53195400D01*
X42480600Y-53195400D02*
X33327800Y-53195400D01*
X33327800Y-53195400D02*
X33096600Y-52964200D01*
X33096600Y-52964200D02*
X33096600Y-50460700D01*
X33096600Y-50460700D02*
X33192600Y-50364700D01*
X33192600Y-50364700D02*
X33192600Y-48913500D01*
X33192600Y-48913500D02*
X31133800Y-46854700D01*
X31133800Y-46854700D02*
X27830600Y-46854700D01*
X27830600Y-46854700D02*
X17894100Y-36918200D01*
X17894100Y-36918200D02*
X17894100Y-29928400D01*
X17894100Y-29928400D02*
X21247100Y-26575400D01*
X21247100Y-26575400D02*
X28413200Y-26575400D01*
X28413200Y-26575400D02*
X30624700Y-24363900D01*
X30624700Y-24363900D02*
X30624700Y-24130000D01*
X31750000Y-24130000D02*
X30624700Y-24130000D01*
X44450000Y-52070000D02*
X43324700Y-52070000D01*
%TO.N,Net-(U1-Pad3)*%
X29210000Y-32875300D02*
X35415600Y-39080900D01*
X35415600Y-39080900D02*
X35415600Y-47232100D01*
X35415600Y-47232100D02*
X35355500Y-47292200D01*
X35355500Y-47292200D02*
X35355500Y-49470200D01*
X35355500Y-49470200D02*
X36830000Y-50944700D01*
X29210000Y-31750000D02*
X29210000Y-32875300D01*
X36830000Y-52070000D02*
X36830000Y-50944700D01*
%TO.N,Net-(U2-Pad6)*%
X66040000Y-32875300D02*
X66040000Y-34235000D01*
X66040000Y-34235000D02*
X62044800Y-38230200D01*
X62044800Y-38230200D02*
X56963000Y-38230200D01*
X56963000Y-38230200D02*
X54506300Y-40686900D01*
X54506300Y-40686900D02*
X50825700Y-40686900D01*
X66040000Y-31750000D02*
X66040000Y-32875300D01*
%TO.N,Net-(U2-Pad11)*%
X53484700Y-52070000D02*
X53484700Y-51742000D01*
X53484700Y-51742000D02*
X49881600Y-48138900D01*
X54610000Y-52070000D02*
X53484700Y-52070000D01*
%TO.N,Net-(U2-Pad3)*%
X56125500Y-37522500D02*
X53686400Y-39961600D01*
X53686400Y-39961600D02*
X50525300Y-39961600D01*
X50525300Y-39961600D02*
X50100400Y-40386500D01*
X50100400Y-40386500D02*
X50100400Y-42488700D01*
X50100400Y-42488700D02*
X49392300Y-43196800D01*
X49392300Y-43196800D02*
X49176800Y-43196800D01*
X49176800Y-43196800D02*
X48260000Y-44113600D01*
X48260000Y-44113600D02*
X48260000Y-49674700D01*
X48260000Y-49674700D02*
X46990000Y-50944700D01*
X46990000Y-52070000D02*
X46990000Y-50944700D01*
%TO.N,Net-(U5-Pad9)*%
X45584200Y-92215400D02*
X61396000Y-92215400D01*
X61396000Y-92215400D02*
X61949200Y-91662200D01*
X61949200Y-91662200D02*
X64167900Y-91662200D01*
X64167900Y-91662200D02*
X65302400Y-92796700D01*
X65302400Y-92796700D02*
X81378300Y-92796700D01*
X81378300Y-92796700D02*
X82105100Y-92069900D01*
X82105100Y-92069900D02*
X96140700Y-92069900D01*
X96140700Y-92069900D02*
X99465500Y-95394700D01*
X99465500Y-95394700D02*
X108520800Y-95394700D01*
X108520800Y-95394700D02*
X109364700Y-96238600D01*
X109364700Y-96238600D02*
X109364700Y-96520000D01*
X110490000Y-96520000D02*
X109364700Y-96520000D01*
%TO.N,Net-(U5-Pad8)*%
X106824700Y-96520000D02*
X106824700Y-96801300D01*
X106824700Y-96801300D02*
X104150900Y-99475100D01*
X104150900Y-99475100D02*
X24960900Y-99475100D01*
X24960900Y-99475100D02*
X23004600Y-97518800D01*
X23004600Y-97518800D02*
X23004600Y-95563500D01*
X23004600Y-95563500D02*
X28542800Y-90025300D01*
X28542800Y-90025300D02*
X29780800Y-90025300D01*
X29780800Y-90025300D02*
X30624700Y-89181400D01*
X30624700Y-89181400D02*
X30624700Y-88900000D01*
X107950000Y-96520000D02*
X106824700Y-96520000D01*
X31750000Y-88900000D02*
X30624700Y-88900000D01*
%TO.N,Net-(U5-Pad7)*%
X105410000Y-96520000D02*
X104284700Y-96520000D01*
X24130000Y-96520000D02*
X25255300Y-96520000D01*
X25255300Y-96520000D02*
X25255300Y-96801300D01*
X25255300Y-96801300D02*
X27478700Y-99024700D01*
X27478700Y-99024700D02*
X102061300Y-99024700D01*
X102061300Y-99024700D02*
X104284700Y-96801300D01*
X104284700Y-96801300D02*
X104284700Y-96520000D01*
%TO.N,Net-(U5-Pad6)*%
X101744700Y-96520000D02*
X101744700Y-96801400D01*
X101744700Y-96801400D02*
X100000200Y-98545900D01*
X100000200Y-98545900D02*
X34642900Y-98545900D01*
X34642900Y-98545900D02*
X32875300Y-96778300D01*
X32875300Y-96778300D02*
X32875300Y-96520000D01*
X102870000Y-96520000D02*
X101744700Y-96520000D01*
X31750000Y-96520000D02*
X32875300Y-96520000D01*
%TO.N,Net-(U5-Pad5)*%
X100330000Y-96520000D02*
X99204700Y-96520000D01*
X82405500Y-92795200D02*
X95697600Y-92795200D01*
X95697600Y-92795200D02*
X99204700Y-96302300D01*
X99204700Y-96302300D02*
X99204700Y-96520000D01*
%TO.N,Net-(U5-Pad4)*%
X63249400Y-92432300D02*
X64753600Y-93936500D01*
X64753600Y-93936500D02*
X94285500Y-93936500D01*
X94285500Y-93936500D02*
X96664700Y-96315700D01*
X96664700Y-96315700D02*
X96664700Y-96520000D01*
X97790000Y-96520000D02*
X96664700Y-96520000D01*
%TO.N,Net-(U5-Pad3)*%
X57005300Y-96520000D02*
X57005300Y-96801400D01*
X57005300Y-96801400D02*
X58299500Y-98095600D01*
X58299500Y-98095600D02*
X92741900Y-98095600D01*
X92741900Y-98095600D02*
X94124700Y-96712800D01*
X94124700Y-96712800D02*
X94124700Y-96520000D01*
X95250000Y-96520000D02*
X94124700Y-96520000D01*
X55880000Y-96520000D02*
X57005300Y-96520000D01*
%TO.N,Net-(U5-Pad2)*%
X92710000Y-96520000D02*
X91584700Y-96520000D01*
X63500000Y-96520000D02*
X64625300Y-96520000D01*
X64625300Y-96520000D02*
X64625300Y-96783700D01*
X64625300Y-96783700D02*
X65486900Y-97645300D01*
X65486900Y-97645300D02*
X91104800Y-97645300D01*
X91104800Y-97645300D02*
X91584700Y-97165400D01*
X91584700Y-97165400D02*
X91584700Y-96520000D01*
%TO.N,Net-(U6-Pad15)*%
X101744700Y-68580000D02*
X101744700Y-68861400D01*
X101744700Y-68861400D02*
X97692400Y-72913700D01*
X97692400Y-72913700D02*
X86763200Y-72913700D01*
X86763200Y-72913700D02*
X81296500Y-78380400D01*
X81296500Y-78380400D02*
X62874100Y-78380400D01*
X62874100Y-78380400D02*
X60843300Y-80411200D01*
X60843300Y-80411200D02*
X48779800Y-80411200D01*
X48779800Y-80411200D02*
X40640000Y-88551000D01*
X40640000Y-88551000D02*
X40640000Y-89251900D01*
X40640000Y-89251900D02*
X38948500Y-90943400D01*
X38948500Y-90943400D02*
X29287700Y-90943400D01*
X29287700Y-90943400D02*
X28564600Y-91666500D01*
X102870000Y-68580000D02*
X101744700Y-68580000D01*
%TO.N,Net-(U6-Pad7)*%
X72534700Y-88900000D02*
X72534700Y-89082400D01*
X72534700Y-89082400D02*
X70967700Y-90649400D01*
X70967700Y-90649400D02*
X61781000Y-90649400D01*
X61781000Y-90649400D02*
X61111500Y-91318900D01*
X61111500Y-91318900D02*
X45432500Y-91318900D01*
X45432500Y-91318900D02*
X40495300Y-96256100D01*
X40495300Y-96256100D02*
X40495300Y-96520000D01*
X73660000Y-88900000D02*
X72534700Y-88900000D01*
X39370000Y-96520000D02*
X40495300Y-96520000D01*
%TO.N,Net-(U6-Pad6)*%
X92710000Y-76200000D02*
X93835300Y-76200000D01*
X36830000Y-96520000D02*
X37955300Y-96520000D01*
X37955300Y-96520000D02*
X37955300Y-96238600D01*
X37955300Y-96238600D02*
X38799200Y-95394700D01*
X38799200Y-95394700D02*
X39974700Y-95394700D01*
X39974700Y-95394700D02*
X50156000Y-85213400D01*
X50156000Y-85213400D02*
X92927000Y-85213400D01*
X92927000Y-85213400D02*
X101508400Y-76632000D01*
X101508400Y-76632000D02*
X101508400Y-75715800D01*
X101508400Y-75715800D02*
X100867300Y-75074700D01*
X100867300Y-75074700D02*
X94679200Y-75074700D01*
X94679200Y-75074700D02*
X93835300Y-75918600D01*
X93835300Y-75918600D02*
X93835300Y-76200000D01*
%TO.N,Net-(U6-Pad11)*%
X36830000Y-88900000D02*
X37955300Y-88900000D01*
X37955300Y-88900000D02*
X37955300Y-88618700D01*
X37955300Y-88618700D02*
X46613200Y-79960800D01*
X46613200Y-79960800D02*
X59190200Y-79960800D01*
X59190200Y-79960800D02*
X61278700Y-77872300D01*
X61278700Y-77872300D02*
X81119300Y-77872300D01*
X81119300Y-77872300D02*
X89275100Y-69716500D01*
X89275100Y-69716500D02*
X94113500Y-69716500D01*
X94113500Y-69716500D02*
X95250000Y-68580000D01*
%TO.N,Net-(U6-Pad2)*%
X99204700Y-76200000D02*
X99204700Y-76404600D01*
X99204700Y-76404600D02*
X91032800Y-84576500D01*
X91032800Y-84576500D02*
X49861400Y-84576500D01*
X49861400Y-84576500D02*
X41517600Y-92920300D01*
X41517600Y-92920300D02*
X31184700Y-92920300D01*
X31184700Y-92920300D02*
X27795300Y-96309700D01*
X27795300Y-96309700D02*
X27795300Y-96520000D01*
X100330000Y-76200000D02*
X99204700Y-76200000D01*
X26670000Y-96520000D02*
X27795300Y-96520000D01*
%TO.N,Net-(U7-Pad15)*%
X137160000Y-68580000D02*
X136020400Y-67440400D01*
X136020400Y-67440400D02*
X131550600Y-67440400D01*
X131550600Y-67440400D02*
X130810000Y-68181000D01*
X130810000Y-68181000D02*
X130810000Y-68907500D01*
X130810000Y-68907500D02*
X125443000Y-74274500D01*
X125443000Y-74274500D02*
X121699300Y-74274500D01*
X121699300Y-74274500D02*
X109859700Y-86114100D01*
X109859700Y-86114100D02*
X72255000Y-86114100D01*
X72255000Y-86114100D02*
X69850000Y-88519100D01*
X69850000Y-88519100D02*
X69850000Y-89236600D01*
X69850000Y-89236600D02*
X69053700Y-90032900D01*
X69053700Y-90032900D02*
X60396900Y-90032900D01*
X60396900Y-90032900D02*
X59545300Y-89181300D01*
X59545300Y-89181300D02*
X59545300Y-88900000D01*
X58420000Y-88900000D02*
X59545300Y-88900000D01*
%TO.N,Net-(U7-Pad6)*%
X125874700Y-76200000D02*
X125874700Y-76481300D01*
X125874700Y-76481300D02*
X115482200Y-86873800D01*
X115482200Y-86873800D02*
X81400800Y-86873800D01*
X81400800Y-86873800D02*
X76653500Y-91621100D01*
X127000000Y-76200000D02*
X125874700Y-76200000D01*
%TO.N,Net-(U7-Pad11)*%
X68580000Y-88900000D02*
X71816200Y-85663800D01*
X71816200Y-85663800D02*
X109645300Y-85663800D01*
X109645300Y-85663800D02*
X121757500Y-73551600D01*
X121757500Y-73551600D02*
X125284200Y-73551600D01*
X125284200Y-73551600D02*
X128414700Y-70421100D01*
X128414700Y-70421100D02*
X128414700Y-68580000D01*
X129540000Y-68580000D02*
X128414700Y-68580000D01*
%TO.N,Net-(U7-Pad2)*%
X65024100Y-91427300D02*
X65943200Y-92346400D01*
X65943200Y-92346400D02*
X76954000Y-92346400D01*
X76954000Y-92346400D02*
X81976200Y-87324200D01*
X81976200Y-87324200D02*
X120998300Y-87324200D01*
X120998300Y-87324200D02*
X130997200Y-77325300D01*
X130997200Y-77325300D02*
X132650800Y-77325300D01*
X132650800Y-77325300D02*
X133494700Y-76481400D01*
X133494700Y-76481400D02*
X133494700Y-76200000D01*
X134620000Y-76200000D02*
X133494700Y-76200000D01*
%TO.N,Net-(U10-Pad11)*%
X88316900Y-64528100D02*
X67527400Y-64528100D01*
X67527400Y-64528100D02*
X67211300Y-64212000D01*
X67211300Y-64212000D02*
X65864000Y-64212000D01*
X65864000Y-64212000D02*
X65447800Y-64628200D01*
X65447800Y-64628200D02*
X36545800Y-64628200D01*
X36545800Y-64628200D02*
X32875300Y-68298700D01*
X32875300Y-68298700D02*
X32875300Y-68580000D01*
X31750000Y-68580000D02*
X32875300Y-68580000D01*
%TO.N,Net-(U10-Pad6)*%
X96664700Y-76200000D02*
X96664700Y-76388800D01*
X96664700Y-76388800D02*
X91181700Y-81871800D01*
X91181700Y-81871800D02*
X51292300Y-81871800D01*
X51292300Y-81871800D02*
X40735000Y-92429100D01*
X40735000Y-92429100D02*
X28294200Y-92429100D01*
X28294200Y-92429100D02*
X27794400Y-91929300D01*
X27794400Y-91929300D02*
X27794400Y-91410700D01*
X27794400Y-91410700D02*
X28712000Y-90493100D01*
X28712000Y-90493100D02*
X31780900Y-90493100D01*
X31780900Y-90493100D02*
X32875400Y-89398600D01*
X32875400Y-89398600D02*
X32875400Y-87774600D01*
X32875400Y-87774600D02*
X33726200Y-86923800D01*
X97790000Y-76200000D02*
X96664700Y-76200000D01*
%TO.N,Net-(U10-Pad8)*%
X97270600Y-65339300D02*
X67701700Y-65339300D01*
X67701700Y-65339300D02*
X67024700Y-64662300D01*
X67024700Y-64662300D02*
X66050600Y-64662300D01*
X66050600Y-64662300D02*
X65373600Y-65339300D01*
X65373600Y-65339300D02*
X43736000Y-65339300D01*
X43736000Y-65339300D02*
X40495300Y-68580000D01*
X39370000Y-68580000D02*
X40495300Y-68580000D01*
%TO.N,Net-(U10-Pad3)*%
X90170000Y-76200000D02*
X89044600Y-75074600D01*
X89044600Y-75074600D02*
X86667700Y-75074600D01*
X86667700Y-75074600D02*
X80880700Y-80861600D01*
X80880700Y-80861600D02*
X51665600Y-80861600D01*
X51665600Y-80861600D02*
X40858500Y-91668700D01*
X40858500Y-91668700D02*
X30343700Y-91668700D01*
%TO.N,Net-(U11-Pad11)*%
X62230000Y-68580000D02*
X63355300Y-68580000D01*
X127000000Y-68580000D02*
X124939400Y-66519400D01*
X124939400Y-66519400D02*
X74764800Y-66519400D01*
X74764800Y-66519400D02*
X71578900Y-69705300D01*
X71578900Y-69705300D02*
X64199200Y-69705300D01*
X64199200Y-69705300D02*
X63355300Y-68861400D01*
X63355300Y-68861400D02*
X63355300Y-68580000D01*
%TO.N,Net-(U11-Pad6)*%
X68435300Y-76200000D02*
X68435300Y-75918700D01*
X68435300Y-75918700D02*
X77384200Y-66969800D01*
X77384200Y-66969800D02*
X124443100Y-66969800D01*
X124443100Y-66969800D02*
X125730000Y-68256700D01*
X125730000Y-68256700D02*
X125730000Y-70872400D01*
X125730000Y-70872400D02*
X126333800Y-71476200D01*
X67310000Y-76200000D02*
X68435300Y-76200000D01*
%TO.N,Net-(U11-Pad8)*%
X69850000Y-68580000D02*
X70975300Y-68580000D01*
X134620000Y-68580000D02*
X135745300Y-68580000D01*
X135745300Y-68580000D02*
X135745300Y-68861300D01*
X135745300Y-68861300D02*
X136611200Y-69727200D01*
X136611200Y-69727200D02*
X137628700Y-69727200D01*
X137628700Y-69727200D02*
X138352500Y-69003400D01*
X138352500Y-69003400D02*
X138352500Y-68132200D01*
X138352500Y-68132200D02*
X136289300Y-66069000D01*
X136289300Y-66069000D02*
X73486300Y-66069000D01*
X73486300Y-66069000D02*
X70975300Y-68580000D01*
%TO.N,Net-(U11-Pad3)*%
X63495900Y-79116000D02*
X81197900Y-79116000D01*
X81197900Y-79116000D02*
X86927100Y-73386800D01*
X86927100Y-73386800D02*
X120964900Y-73386800D01*
X120964900Y-73386800D02*
X121621300Y-72730400D01*
%TO.N,Net-(D14-Pad1)*%
X86360000Y-133394700D02*
X85217700Y-133394700D01*
X85217700Y-133394700D02*
X83094900Y-131271900D01*
X86360000Y-134620000D02*
X86360000Y-133394700D01*
%TO.N,Net-(D17-Pad1)*%
X59690000Y-133394700D02*
X60542000Y-133394700D01*
X60542000Y-133394700D02*
X63449400Y-130487300D01*
X59690000Y-134620000D02*
X59690000Y-133394700D01*
%TD*%
M02*
