%TF.GenerationSoftware,KiCad,Pcbnew,5.1.6-c6e7f7d~87~ubuntu16.04.1*%
%TF.CreationDate,2021-01-23T13:40:13-05:00*%
%TF.ProjectId,riscyalu,72697363-7961-46c7-952e-6b696361645f,rev?*%
%TF.SameCoordinates,Original*%
%TF.FileFunction,Copper,L2,Bot*%
%TF.FilePolarity,Positive*%
%FSLAX46Y46*%
G04 Gerber Fmt 4.6, Leading zero omitted, Abs format (unit mm)*
G04 Created by KiCad (PCBNEW 5.1.6-c6e7f7d~87~ubuntu16.04.1) date 2021-01-23 13:40:13*
%MOMM*%
%LPD*%
G01*
G04 APERTURE LIST*
%TA.AperFunction,ComponentPad*%
%ADD10O,1.700000X1.700000*%
%TD*%
%TA.AperFunction,ComponentPad*%
%ADD11R,1.700000X1.700000*%
%TD*%
%TA.AperFunction,ComponentPad*%
%ADD12C,2.000000*%
%TD*%
%TA.AperFunction,ComponentPad*%
%ADD13O,1.400000X1.400000*%
%TD*%
%TA.AperFunction,ComponentPad*%
%ADD14C,1.400000*%
%TD*%
%TA.AperFunction,ComponentPad*%
%ADD15C,1.800000*%
%TD*%
%TA.AperFunction,ComponentPad*%
%ADD16R,1.800000X1.800000*%
%TD*%
%TA.AperFunction,ComponentPad*%
%ADD17O,1.600000X1.600000*%
%TD*%
%TA.AperFunction,ComponentPad*%
%ADD18R,1.600000X1.600000*%
%TD*%
%TA.AperFunction,ComponentPad*%
%ADD19C,1.600000*%
%TD*%
%TA.AperFunction,ViaPad*%
%ADD20C,0.800000*%
%TD*%
%TA.AperFunction,Conductor*%
%ADD21C,0.250000*%
%TD*%
G04 APERTURE END LIST*
D10*
%TO.P,J10,2*%
%TO.N,imm1*%
X121920000Y-12700000D03*
D11*
%TO.P,J10,1*%
%TO.N,imm0*%
X124460000Y-12700000D03*
%TD*%
D12*
%TO.P,SW3,1*%
%TO.N,addwb*%
X113180000Y-115570000D03*
%TO.P,SW3,2*%
%TO.N,GND*%
X113180000Y-120070000D03*
%TO.P,SW3,1*%
%TO.N,addwb*%
X106680000Y-115570000D03*
%TO.P,SW3,2*%
%TO.N,GND*%
X106680000Y-120070000D03*
%TD*%
%TO.P,SW2,1*%
%TO.N,sliwb*%
X66190000Y-116840000D03*
%TO.P,SW2,2*%
%TO.N,GND*%
X66190000Y-121340000D03*
%TO.P,SW2,1*%
%TO.N,sliwb*%
X59690000Y-116840000D03*
%TO.P,SW2,2*%
%TO.N,GND*%
X59690000Y-121340000D03*
%TD*%
%TO.P,SW1,1*%
%TO.N,nandwb*%
X44600000Y-116840000D03*
%TO.P,SW1,2*%
%TO.N,GND*%
X44600000Y-121340000D03*
%TO.P,SW1,1*%
%TO.N,nandwb*%
X38100000Y-116840000D03*
%TO.P,SW1,2*%
%TO.N,GND*%
X38100000Y-121340000D03*
%TD*%
D13*
%TO.P,R21,2*%
%TO.N,+5V*%
X101600000Y-120650000D03*
D14*
%TO.P,R21,1*%
%TO.N,addwb*%
X101600000Y-115570000D03*
%TD*%
D13*
%TO.P,R20,2*%
%TO.N,+5V*%
X54610000Y-121920000D03*
D14*
%TO.P,R20,1*%
%TO.N,sliwb*%
X54610000Y-116840000D03*
%TD*%
D13*
%TO.P,R19,2*%
%TO.N,+5V*%
X31750000Y-121920000D03*
D14*
%TO.P,R19,1*%
%TO.N,nandwb*%
X31750000Y-116840000D03*
%TD*%
D10*
%TO.P,J9,3*%
%TO.N,Net-(J1-Pad3)*%
X147320000Y-26670000D03*
%TO.P,J9,2*%
%TO.N,GND*%
X147320000Y-24130000D03*
D11*
%TO.P,J9,1*%
%TO.N,+5V*%
X147320000Y-21590000D03*
%TD*%
D13*
%TO.P,R18,2*%
%TO.N,GND*%
X53340000Y-127000000D03*
D14*
%TO.P,R18,1*%
%TO.N,Net-(D18-Pad1)*%
X48260000Y-127000000D03*
%TD*%
D13*
%TO.P,R17,2*%
%TO.N,GND*%
X62230000Y-127000000D03*
D14*
%TO.P,R17,1*%
%TO.N,Net-(D17-Pad1)*%
X57150000Y-127000000D03*
%TD*%
D13*
%TO.P,R16,2*%
%TO.N,GND*%
X71120000Y-127000000D03*
D14*
%TO.P,R16,1*%
%TO.N,Net-(D16-Pad1)*%
X66040000Y-127000000D03*
%TD*%
D13*
%TO.P,R15,2*%
%TO.N,GND*%
X80010000Y-127000000D03*
D14*
%TO.P,R15,1*%
%TO.N,Net-(D15-Pad1)*%
X74930000Y-127000000D03*
%TD*%
D13*
%TO.P,R14,2*%
%TO.N,GND*%
X88900000Y-127000000D03*
D14*
%TO.P,R14,1*%
%TO.N,Net-(D14-Pad1)*%
X83820000Y-127000000D03*
%TD*%
D13*
%TO.P,R13,2*%
%TO.N,GND*%
X97790000Y-127000000D03*
D14*
%TO.P,R13,1*%
%TO.N,Net-(D13-Pad1)*%
X92710000Y-127000000D03*
%TD*%
D13*
%TO.P,R12,2*%
%TO.N,GND*%
X106680000Y-127000000D03*
D14*
%TO.P,R12,1*%
%TO.N,Net-(D12-Pad1)*%
X101600000Y-127000000D03*
%TD*%
D13*
%TO.P,R11,2*%
%TO.N,GND*%
X115570000Y-127000000D03*
D14*
%TO.P,R11,1*%
%TO.N,Net-(D11-Pad1)*%
X110490000Y-127000000D03*
%TD*%
D15*
%TO.P,D18,2*%
%TO.N,wb7*%
X50800000Y-132080000D03*
D16*
%TO.P,D18,1*%
%TO.N,Net-(D18-Pad1)*%
X50800000Y-134620000D03*
%TD*%
D15*
%TO.P,D17,2*%
%TO.N,wb6*%
X59690000Y-132080000D03*
D16*
%TO.P,D17,1*%
%TO.N,Net-(D17-Pad1)*%
X59690000Y-134620000D03*
%TD*%
D15*
%TO.P,D16,2*%
%TO.N,wb5*%
X68580000Y-132080000D03*
D16*
%TO.P,D16,1*%
%TO.N,Net-(D16-Pad1)*%
X68580000Y-134620000D03*
%TD*%
D15*
%TO.P,D15,2*%
%TO.N,wb4*%
X77470000Y-132080000D03*
D16*
%TO.P,D15,1*%
%TO.N,Net-(D15-Pad1)*%
X77470000Y-134620000D03*
%TD*%
D15*
%TO.P,D14,2*%
%TO.N,wb3*%
X86360000Y-132080000D03*
D16*
%TO.P,D14,1*%
%TO.N,Net-(D14-Pad1)*%
X86360000Y-134620000D03*
%TD*%
D15*
%TO.P,D13,2*%
%TO.N,wb2*%
X95250000Y-132080000D03*
D16*
%TO.P,D13,1*%
%TO.N,Net-(D13-Pad1)*%
X95250000Y-134620000D03*
%TD*%
D15*
%TO.P,D12,2*%
%TO.N,wb1*%
X104140000Y-132080000D03*
D16*
%TO.P,D12,1*%
%TO.N,Net-(D12-Pad1)*%
X104140000Y-134620000D03*
%TD*%
D15*
%TO.P,D11,2*%
%TO.N,wb0*%
X113030000Y-132080000D03*
D16*
%TO.P,D11,1*%
%TO.N,Net-(D11-Pad1)*%
X113030000Y-134620000D03*
%TD*%
D17*
%TO.P,U13,14*%
%TO.N,+5V*%
X120650000Y-44450000D03*
%TO.P,U13,7*%
%TO.N,GND*%
X135890000Y-52070000D03*
%TO.P,U13,13*%
%TO.N,N/C*%
X123190000Y-44450000D03*
%TO.P,U13,6*%
%TO.N,eq*%
X133350000Y-52070000D03*
%TO.P,U13,12*%
%TO.N,N/C*%
X125730000Y-44450000D03*
%TO.P,U13,5*%
%TO.N,noteq*%
X130810000Y-52070000D03*
%TO.P,U13,11*%
%TO.N,N/C*%
X128270000Y-44450000D03*
%TO.P,U13,4*%
%TO.N,noteq*%
X128270000Y-52070000D03*
%TO.P,U13,10*%
%TO.N,Rrd7*%
X130810000Y-44450000D03*
%TO.P,U13,3*%
%TO.N,lt*%
X125730000Y-52070000D03*
%TO.P,U13,9*%
%TO.N,Rrd7*%
X133350000Y-44450000D03*
%TO.P,U13,2*%
%TO.N,ge*%
X123190000Y-52070000D03*
%TO.P,U13,8*%
X135890000Y-44450000D03*
D18*
%TO.P,U13,1*%
X120650000Y-52070000D03*
%TD*%
D17*
%TO.P,U12,20*%
%TO.N,+5V*%
X74930000Y-44450000D03*
%TO.P,U12,10*%
%TO.N,GND*%
X97790000Y-52070000D03*
%TO.P,U12,19*%
%TO.N,noteq*%
X77470000Y-44450000D03*
%TO.P,U12,9*%
%TO.N,Rrd3*%
X95250000Y-52070000D03*
%TO.P,U12,18*%
%TO.N,Rrd7*%
X80010000Y-44450000D03*
%TO.P,U12,8*%
%TO.N,GND*%
X92710000Y-52070000D03*
%TO.P,U12,17*%
X82550000Y-44450000D03*
%TO.P,U12,7*%
%TO.N,Rrd2*%
X90170000Y-52070000D03*
%TO.P,U12,16*%
%TO.N,Rrd6*%
X85090000Y-44450000D03*
%TO.P,U12,6*%
%TO.N,GND*%
X87630000Y-52070000D03*
%TO.P,U12,15*%
X87630000Y-44450000D03*
%TO.P,U12,5*%
%TO.N,Rrd1*%
X85090000Y-52070000D03*
%TO.P,U12,14*%
%TO.N,Rrd5*%
X90170000Y-44450000D03*
%TO.P,U12,4*%
%TO.N,GND*%
X82550000Y-52070000D03*
%TO.P,U12,13*%
X92710000Y-44450000D03*
%TO.P,U12,3*%
%TO.N,Rrd0*%
X80010000Y-52070000D03*
%TO.P,U12,12*%
%TO.N,Rrd4*%
X95250000Y-44450000D03*
%TO.P,U12,2*%
%TO.N,GND*%
X77470000Y-52070000D03*
%TO.P,U12,11*%
X97790000Y-44450000D03*
D18*
%TO.P,U12,1*%
%TO.N,Net-(U12-Pad1)*%
X74930000Y-52070000D03*
%TD*%
D17*
%TO.P,U11,14*%
%TO.N,+5V*%
X54610000Y-68580000D03*
%TO.P,U11,7*%
%TO.N,GND*%
X69850000Y-76200000D03*
%TO.P,U11,13*%
%TO.N,Rrs3*%
X57150000Y-68580000D03*
%TO.P,U11,6*%
%TO.N,Net-(U11-Pad6)*%
X67310000Y-76200000D03*
%TO.P,U11,12*%
%TO.N,incdec*%
X59690000Y-68580000D03*
%TO.P,U11,5*%
%TO.N,Rrs1*%
X64770000Y-76200000D03*
%TO.P,U11,11*%
%TO.N,Net-(U11-Pad11)*%
X62230000Y-68580000D03*
%TO.P,U11,4*%
%TO.N,incdec*%
X62230000Y-76200000D03*
%TO.P,U11,10*%
%TO.N,Rrs2*%
X64770000Y-68580000D03*
%TO.P,U11,3*%
%TO.N,Net-(U11-Pad3)*%
X59690000Y-76200000D03*
%TO.P,U11,9*%
%TO.N,incdec*%
X67310000Y-68580000D03*
%TO.P,U11,2*%
%TO.N,Rrs0*%
X57150000Y-76200000D03*
%TO.P,U11,8*%
%TO.N,Net-(U11-Pad8)*%
X69850000Y-68580000D03*
D18*
%TO.P,U11,1*%
%TO.N,incdec*%
X54610000Y-76200000D03*
%TD*%
D17*
%TO.P,U10,14*%
%TO.N,+5V*%
X24130000Y-68580000D03*
%TO.P,U10,7*%
%TO.N,GND*%
X39370000Y-76200000D03*
%TO.P,U10,13*%
%TO.N,Rrs7*%
X26670000Y-68580000D03*
%TO.P,U10,6*%
%TO.N,Net-(U10-Pad6)*%
X36830000Y-76200000D03*
%TO.P,U10,12*%
%TO.N,incdec*%
X29210000Y-68580000D03*
%TO.P,U10,5*%
%TO.N,Rrs5*%
X34290000Y-76200000D03*
%TO.P,U10,11*%
%TO.N,Net-(U10-Pad11)*%
X31750000Y-68580000D03*
%TO.P,U10,4*%
%TO.N,incdec*%
X31750000Y-76200000D03*
%TO.P,U10,10*%
%TO.N,Rrs6*%
X34290000Y-68580000D03*
%TO.P,U10,3*%
%TO.N,Net-(U10-Pad3)*%
X29210000Y-76200000D03*
%TO.P,U10,9*%
%TO.N,incdec*%
X36830000Y-68580000D03*
%TO.P,U10,2*%
%TO.N,Rrs4*%
X26670000Y-76200000D03*
%TO.P,U10,8*%
%TO.N,Net-(U10-Pad8)*%
X39370000Y-68580000D03*
D18*
%TO.P,U10,1*%
%TO.N,incdec*%
X24130000Y-76200000D03*
%TD*%
D17*
%TO.P,U9,14*%
%TO.N,+5V*%
X121920000Y-68580000D03*
%TO.P,U9,7*%
%TO.N,GND*%
X137160000Y-76200000D03*
%TO.P,U9,13*%
%TO.N,addsub*%
X124460000Y-68580000D03*
%TO.P,U9,6*%
%TO.N,Net-(U7-Pad2)*%
X134620000Y-76200000D03*
%TO.P,U9,12*%
%TO.N,Net-(U11-Pad11)*%
X127000000Y-68580000D03*
%TO.P,U9,5*%
%TO.N,addsub*%
X132080000Y-76200000D03*
%TO.P,U9,11*%
%TO.N,Net-(U7-Pad11)*%
X129540000Y-68580000D03*
%TO.P,U9,4*%
%TO.N,Net-(U11-Pad6)*%
X129540000Y-76200000D03*
%TO.P,U9,10*%
%TO.N,addsub*%
X132080000Y-68580000D03*
%TO.P,U9,3*%
%TO.N,Net-(U7-Pad6)*%
X127000000Y-76200000D03*
%TO.P,U9,9*%
%TO.N,Net-(U11-Pad8)*%
X134620000Y-68580000D03*
%TO.P,U9,2*%
%TO.N,addsub*%
X124460000Y-76200000D03*
%TO.P,U9,8*%
%TO.N,Net-(U7-Pad15)*%
X137160000Y-68580000D03*
D18*
%TO.P,U9,1*%
%TO.N,Net-(U11-Pad3)*%
X121920000Y-76200000D03*
%TD*%
D17*
%TO.P,U8,14*%
%TO.N,+5V*%
X87630000Y-68580000D03*
%TO.P,U8,7*%
%TO.N,GND*%
X102870000Y-76200000D03*
%TO.P,U8,13*%
%TO.N,Net-(U10-Pad11)*%
X90170000Y-68580000D03*
%TO.P,U8,6*%
%TO.N,Net-(U6-Pad2)*%
X100330000Y-76200000D03*
%TO.P,U8,12*%
%TO.N,addsub*%
X92710000Y-68580000D03*
%TO.P,U8,5*%
%TO.N,Net-(U10-Pad6)*%
X97790000Y-76200000D03*
%TO.P,U8,11*%
%TO.N,Net-(U6-Pad11)*%
X95250000Y-68580000D03*
%TO.P,U8,4*%
%TO.N,addsub*%
X95250000Y-76200000D03*
%TO.P,U8,10*%
%TO.N,Net-(U10-Pad8)*%
X97790000Y-68580000D03*
%TO.P,U8,3*%
%TO.N,Net-(U6-Pad6)*%
X92710000Y-76200000D03*
%TO.P,U8,9*%
%TO.N,addsub*%
X100330000Y-68580000D03*
%TO.P,U8,2*%
%TO.N,Net-(U10-Pad3)*%
X90170000Y-76200000D03*
%TO.P,U8,8*%
%TO.N,Net-(U6-Pad15)*%
X102870000Y-68580000D03*
D18*
%TO.P,U8,1*%
%TO.N,addsub*%
X87630000Y-76200000D03*
%TD*%
D17*
%TO.P,U7,16*%
%TO.N,+5V*%
X55880000Y-88900000D03*
%TO.P,U7,8*%
%TO.N,GND*%
X73660000Y-96520000D03*
%TO.P,U7,15*%
%TO.N,Net-(U7-Pad15)*%
X58420000Y-88900000D03*
%TO.P,U7,7*%
%TO.N,addsub*%
X71120000Y-96520000D03*
%TO.P,U7,14*%
%TO.N,Rrd2*%
X60960000Y-88900000D03*
%TO.P,U7,6*%
%TO.N,Net-(U7-Pad6)*%
X68580000Y-96520000D03*
%TO.P,U7,13*%
%TO.N,Net-(U5-Pad4)*%
X63500000Y-88900000D03*
%TO.P,U7,5*%
%TO.N,Rrd0*%
X66040000Y-96520000D03*
%TO.P,U7,12*%
%TO.N,Rrd3*%
X66040000Y-88900000D03*
%TO.P,U7,4*%
%TO.N,Net-(U5-Pad2)*%
X63500000Y-96520000D03*
%TO.P,U7,11*%
%TO.N,Net-(U7-Pad11)*%
X68580000Y-88900000D03*
%TO.P,U7,3*%
%TO.N,Rrd1*%
X60960000Y-96520000D03*
%TO.P,U7,10*%
%TO.N,Net-(U5-Pad5)*%
X71120000Y-88900000D03*
%TO.P,U7,2*%
%TO.N,Net-(U7-Pad2)*%
X58420000Y-96520000D03*
%TO.P,U7,9*%
%TO.N,Net-(U6-Pad7)*%
X73660000Y-88900000D03*
D18*
%TO.P,U7,1*%
%TO.N,Net-(U5-Pad3)*%
X55880000Y-96520000D03*
%TD*%
D17*
%TO.P,U6,16*%
%TO.N,+5V*%
X24130000Y-88900000D03*
%TO.P,U6,8*%
%TO.N,GND*%
X41910000Y-96520000D03*
%TO.P,U6,15*%
%TO.N,Net-(U6-Pad15)*%
X26670000Y-88900000D03*
%TO.P,U6,7*%
%TO.N,Net-(U6-Pad7)*%
X39370000Y-96520000D03*
%TO.P,U6,14*%
%TO.N,Rrd6*%
X29210000Y-88900000D03*
%TO.P,U6,6*%
%TO.N,Net-(U6-Pad6)*%
X36830000Y-96520000D03*
%TO.P,U6,13*%
%TO.N,Net-(U5-Pad8)*%
X31750000Y-88900000D03*
%TO.P,U6,5*%
%TO.N,Rrd4*%
X34290000Y-96520000D03*
%TO.P,U6,12*%
%TO.N,Rrd7*%
X34290000Y-88900000D03*
%TO.P,U6,4*%
%TO.N,Net-(U5-Pad6)*%
X31750000Y-96520000D03*
%TO.P,U6,11*%
%TO.N,Net-(U6-Pad11)*%
X36830000Y-88900000D03*
%TO.P,U6,3*%
%TO.N,Rrd5*%
X29210000Y-96520000D03*
%TO.P,U6,10*%
%TO.N,Net-(U5-Pad9)*%
X39370000Y-88900000D03*
%TO.P,U6,2*%
%TO.N,Net-(U6-Pad2)*%
X26670000Y-96520000D03*
%TO.P,U6,9*%
%TO.N,Net-(U6-Pad9)*%
X41910000Y-88900000D03*
D18*
%TO.P,U6,1*%
%TO.N,Net-(U5-Pad7)*%
X24130000Y-96520000D03*
%TD*%
D17*
%TO.P,U5,20*%
%TO.N,+5V*%
X90170000Y-88900000D03*
%TO.P,U5,10*%
%TO.N,GND*%
X113030000Y-96520000D03*
%TO.P,U5,19*%
%TO.N,addwb*%
X92710000Y-88900000D03*
%TO.P,U5,9*%
%TO.N,Net-(U5-Pad9)*%
X110490000Y-96520000D03*
%TO.P,U5,18*%
%TO.N,wb0*%
X95250000Y-88900000D03*
%TO.P,U5,8*%
%TO.N,Net-(U5-Pad8)*%
X107950000Y-96520000D03*
%TO.P,U5,17*%
%TO.N,wb1*%
X97790000Y-88900000D03*
%TO.P,U5,7*%
%TO.N,Net-(U5-Pad7)*%
X105410000Y-96520000D03*
%TO.P,U5,16*%
%TO.N,wb2*%
X100330000Y-88900000D03*
%TO.P,U5,6*%
%TO.N,Net-(U5-Pad6)*%
X102870000Y-96520000D03*
%TO.P,U5,15*%
%TO.N,wb3*%
X102870000Y-88900000D03*
%TO.P,U5,5*%
%TO.N,Net-(U5-Pad5)*%
X100330000Y-96520000D03*
%TO.P,U5,14*%
%TO.N,wb4*%
X105410000Y-88900000D03*
%TO.P,U5,4*%
%TO.N,Net-(U5-Pad4)*%
X97790000Y-96520000D03*
%TO.P,U5,13*%
%TO.N,wb5*%
X107950000Y-88900000D03*
%TO.P,U5,3*%
%TO.N,Net-(U5-Pad3)*%
X95250000Y-96520000D03*
%TO.P,U5,12*%
%TO.N,wb6*%
X110490000Y-88900000D03*
%TO.P,U5,2*%
%TO.N,Net-(U5-Pad2)*%
X92710000Y-96520000D03*
%TO.P,U5,11*%
%TO.N,wb7*%
X113030000Y-88900000D03*
D18*
%TO.P,U5,1*%
%TO.N,+5V*%
X90170000Y-96520000D03*
%TD*%
D17*
%TO.P,U4,20*%
%TO.N,+5V*%
X88900000Y-24130000D03*
%TO.P,U4,10*%
%TO.N,GND*%
X111760000Y-31750000D03*
%TO.P,U4,19*%
%TO.N,sliwb*%
X91440000Y-24130000D03*
%TO.P,U4,9*%
%TO.N,Rrd3*%
X109220000Y-31750000D03*
%TO.P,U4,18*%
%TO.N,wb0*%
X93980000Y-24130000D03*
%TO.P,U4,8*%
%TO.N,Rrd2*%
X106680000Y-31750000D03*
%TO.P,U4,17*%
%TO.N,wb1*%
X96520000Y-24130000D03*
%TO.P,U4,7*%
%TO.N,Rrd1*%
X104140000Y-31750000D03*
%TO.P,U4,16*%
%TO.N,wb2*%
X99060000Y-24130000D03*
%TO.P,U4,6*%
%TO.N,Rrd0*%
X101600000Y-31750000D03*
%TO.P,U4,15*%
%TO.N,wb3*%
X101600000Y-24130000D03*
%TO.P,U4,5*%
%TO.N,imm3*%
X99060000Y-31750000D03*
%TO.P,U4,14*%
%TO.N,wb4*%
X104140000Y-24130000D03*
%TO.P,U4,4*%
%TO.N,imm2*%
X96520000Y-31750000D03*
%TO.P,U4,13*%
%TO.N,wb5*%
X106680000Y-24130000D03*
%TO.P,U4,3*%
%TO.N,imm1*%
X93980000Y-31750000D03*
%TO.P,U4,12*%
%TO.N,wb6*%
X109220000Y-24130000D03*
%TO.P,U4,2*%
%TO.N,imm0*%
X91440000Y-31750000D03*
%TO.P,U4,11*%
%TO.N,wb7*%
X111760000Y-24130000D03*
D18*
%TO.P,U4,1*%
%TO.N,+5V*%
X88900000Y-31750000D03*
%TD*%
D17*
%TO.P,U3,20*%
%TO.N,+5V*%
X34290000Y-44450000D03*
%TO.P,U3,10*%
%TO.N,GND*%
X57150000Y-52070000D03*
%TO.P,U3,19*%
%TO.N,nandwb*%
X36830000Y-44450000D03*
%TO.P,U3,9*%
%TO.N,Net-(U2-Pad11)*%
X54610000Y-52070000D03*
%TO.P,U3,18*%
%TO.N,wb0*%
X39370000Y-44450000D03*
%TO.P,U3,8*%
%TO.N,Net-(U2-Pad8)*%
X52070000Y-52070000D03*
%TO.P,U3,17*%
%TO.N,wb1*%
X41910000Y-44450000D03*
%TO.P,U3,7*%
%TO.N,Net-(U2-Pad6)*%
X49530000Y-52070000D03*
%TO.P,U3,16*%
%TO.N,wb2*%
X44450000Y-44450000D03*
%TO.P,U3,6*%
%TO.N,Net-(U2-Pad3)*%
X46990000Y-52070000D03*
%TO.P,U3,15*%
%TO.N,wb3*%
X46990000Y-44450000D03*
%TO.P,U3,5*%
%TO.N,Net-(U1-Pad11)*%
X44450000Y-52070000D03*
%TO.P,U3,14*%
%TO.N,wb4*%
X49530000Y-44450000D03*
%TO.P,U3,4*%
%TO.N,Net-(U1-Pad8)*%
X41910000Y-52070000D03*
%TO.P,U3,13*%
%TO.N,wb5*%
X52070000Y-44450000D03*
%TO.P,U3,3*%
%TO.N,Net-(U1-Pad6)*%
X39370000Y-52070000D03*
%TO.P,U3,12*%
%TO.N,wb6*%
X54610000Y-44450000D03*
%TO.P,U3,2*%
%TO.N,Net-(U1-Pad3)*%
X36830000Y-52070000D03*
%TO.P,U3,11*%
%TO.N,wb7*%
X57150000Y-44450000D03*
D18*
%TO.P,U3,1*%
%TO.N,+5V*%
X34290000Y-52070000D03*
%TD*%
D17*
%TO.P,U2,14*%
%TO.N,+5V*%
X53340000Y-24130000D03*
%TO.P,U2,7*%
%TO.N,GND*%
X68580000Y-31750000D03*
%TO.P,U2,13*%
%TO.N,Rrd7*%
X55880000Y-24130000D03*
%TO.P,U2,6*%
%TO.N,Net-(U2-Pad6)*%
X66040000Y-31750000D03*
%TO.P,U2,12*%
%TO.N,Rrs7*%
X58420000Y-24130000D03*
%TO.P,U2,5*%
%TO.N,Rrd5*%
X63500000Y-31750000D03*
%TO.P,U2,11*%
%TO.N,Net-(U2-Pad11)*%
X60960000Y-24130000D03*
%TO.P,U2,4*%
%TO.N,Rrs5*%
X60960000Y-31750000D03*
%TO.P,U2,10*%
%TO.N,Rrd6*%
X63500000Y-24130000D03*
%TO.P,U2,3*%
%TO.N,Net-(U2-Pad3)*%
X58420000Y-31750000D03*
%TO.P,U2,9*%
%TO.N,Rrs6*%
X66040000Y-24130000D03*
%TO.P,U2,2*%
%TO.N,Rrd4*%
X55880000Y-31750000D03*
%TO.P,U2,8*%
%TO.N,Net-(U2-Pad8)*%
X68580000Y-24130000D03*
D18*
%TO.P,U2,1*%
%TO.N,Rrs4*%
X53340000Y-31750000D03*
%TD*%
D17*
%TO.P,U1,14*%
%TO.N,+5V*%
X24130000Y-24130000D03*
%TO.P,U1,7*%
%TO.N,GND*%
X39370000Y-31750000D03*
%TO.P,U1,13*%
%TO.N,Rrd3*%
X26670000Y-24130000D03*
%TO.P,U1,6*%
%TO.N,Net-(U1-Pad6)*%
X36830000Y-31750000D03*
%TO.P,U1,12*%
%TO.N,Rrs3*%
X29210000Y-24130000D03*
%TO.P,U1,5*%
%TO.N,Rrd1*%
X34290000Y-31750000D03*
%TO.P,U1,11*%
%TO.N,Net-(U1-Pad11)*%
X31750000Y-24130000D03*
%TO.P,U1,4*%
%TO.N,Rrs1*%
X31750000Y-31750000D03*
%TO.P,U1,10*%
%TO.N,Rrd2*%
X34290000Y-24130000D03*
%TO.P,U1,3*%
%TO.N,Net-(U1-Pad3)*%
X29210000Y-31750000D03*
%TO.P,U1,9*%
%TO.N,Rrs2*%
X36830000Y-24130000D03*
%TO.P,U1,2*%
%TO.N,Rrd0*%
X26670000Y-31750000D03*
%TO.P,U1,8*%
%TO.N,Net-(U1-Pad8)*%
X39370000Y-24130000D03*
D18*
%TO.P,U1,1*%
%TO.N,Rrs0*%
X24130000Y-31750000D03*
%TD*%
D13*
%TO.P,R10,2*%
%TO.N,GND*%
X123190000Y-118110000D03*
D14*
%TO.P,R10,1*%
%TO.N,Net-(D10-Pad1)*%
X123190000Y-123190000D03*
%TD*%
D13*
%TO.P,R9,2*%
%TO.N,GND*%
X123190000Y-107950000D03*
D14*
%TO.P,R9,1*%
%TO.N,Net-(D9-Pad1)*%
X123190000Y-113030000D03*
%TD*%
D13*
%TO.P,R8,2*%
%TO.N,GND*%
X123190000Y-97790000D03*
D14*
%TO.P,R8,1*%
%TO.N,Net-(D8-Pad1)*%
X123190000Y-102870000D03*
%TD*%
D13*
%TO.P,R7,2*%
%TO.N,GND*%
X123190000Y-87630000D03*
D14*
%TO.P,R7,1*%
%TO.N,Net-(D7-Pad1)*%
X123190000Y-92710000D03*
%TD*%
D13*
%TO.P,R5,2*%
%TO.N,incdec*%
X74930000Y-105410000D03*
D14*
%TO.P,R5,1*%
%TO.N,Net-(D5-Pad1)*%
X74930000Y-110490000D03*
%TD*%
D13*
%TO.P,R4,2*%
%TO.N,addsub*%
X90170000Y-110490000D03*
D14*
%TO.P,R4,1*%
%TO.N,Net-(D4-Pad1)*%
X90170000Y-105410000D03*
%TD*%
D13*
%TO.P,R3,2*%
%TO.N,addwb*%
X104140000Y-105410000D03*
D14*
%TO.P,R3,1*%
%TO.N,Net-(D3-Pad1)*%
X104140000Y-110490000D03*
%TD*%
D13*
%TO.P,R2,2*%
%TO.N,sliwb*%
X55880000Y-105410000D03*
D14*
%TO.P,R2,1*%
%TO.N,Net-(D2-Pad1)*%
X55880000Y-110490000D03*
%TD*%
D13*
%TO.P,R1,2*%
%TO.N,nandwb*%
X34290000Y-110490000D03*
D14*
%TO.P,R1,1*%
%TO.N,Net-(D1-Pad1)*%
X34290000Y-105410000D03*
%TD*%
D10*
%TO.P,J8,4*%
%TO.N,ge*%
X129540000Y-142240000D03*
%TO.P,J8,3*%
%TO.N,lt*%
X129540000Y-139700000D03*
%TO.P,J8,2*%
%TO.N,noteq*%
X129540000Y-137160000D03*
D11*
%TO.P,J8,1*%
%TO.N,eq*%
X129540000Y-134620000D03*
%TD*%
D10*
%TO.P,J7,5*%
%TO.N,sliwb*%
X77470000Y-143510000D03*
%TO.P,J7,4*%
%TO.N,nandwb*%
X74930000Y-143510000D03*
%TO.P,J7,3*%
%TO.N,addwb*%
X72390000Y-143510000D03*
%TO.P,J7,2*%
%TO.N,incdec*%
X69850000Y-143510000D03*
D11*
%TO.P,J7,1*%
%TO.N,addsub*%
X67310000Y-143510000D03*
%TD*%
D10*
%TO.P,J6,4*%
%TO.N,imm3*%
X116840000Y-20320000D03*
%TO.P,J6,3*%
%TO.N,imm2*%
X119380000Y-20320000D03*
%TO.P,J6,2*%
%TO.N,imm1*%
X121920000Y-20320000D03*
D11*
%TO.P,J6,1*%
%TO.N,imm0*%
X124460000Y-20320000D03*
%TD*%
D10*
%TO.P,J5,8*%
%TO.N,Rrs7*%
X66040000Y-15240000D03*
%TO.P,J5,7*%
%TO.N,Rrs6*%
X68580000Y-15240000D03*
%TO.P,J5,6*%
%TO.N,Rrs5*%
X71120000Y-15240000D03*
%TO.P,J5,5*%
%TO.N,Rrs4*%
X73660000Y-15240000D03*
%TO.P,J5,4*%
%TO.N,Rrs3*%
X76200000Y-15240000D03*
%TO.P,J5,3*%
%TO.N,Rrs2*%
X78740000Y-15240000D03*
%TO.P,J5,2*%
%TO.N,Rrs1*%
X81280000Y-15240000D03*
D11*
%TO.P,J5,1*%
%TO.N,Rrs0*%
X83820000Y-15240000D03*
%TD*%
D10*
%TO.P,J4,8*%
%TO.N,Rrd7*%
X20320000Y-15240000D03*
%TO.P,J4,7*%
%TO.N,Rrd6*%
X22860000Y-15240000D03*
%TO.P,J4,6*%
%TO.N,Rrd5*%
X25400000Y-15240000D03*
%TO.P,J4,5*%
%TO.N,Rrd4*%
X27940000Y-15240000D03*
%TO.P,J4,4*%
%TO.N,Rrd3*%
X30480000Y-15240000D03*
%TO.P,J4,3*%
%TO.N,Rrd2*%
X33020000Y-15240000D03*
%TO.P,J4,2*%
%TO.N,Rrd1*%
X35560000Y-15240000D03*
D11*
%TO.P,J4,1*%
%TO.N,Rrd0*%
X38100000Y-15240000D03*
%TD*%
D10*
%TO.P,J3,8*%
%TO.N,wb7*%
X20320000Y-143510000D03*
%TO.P,J3,7*%
%TO.N,wb6*%
X22860000Y-143510000D03*
%TO.P,J3,6*%
%TO.N,wb5*%
X25400000Y-143510000D03*
%TO.P,J3,5*%
%TO.N,wb4*%
X27940000Y-143510000D03*
%TO.P,J3,4*%
%TO.N,wb3*%
X30480000Y-143510000D03*
%TO.P,J3,3*%
%TO.N,wb2*%
X33020000Y-143510000D03*
%TO.P,J3,2*%
%TO.N,wb1*%
X35560000Y-143510000D03*
D11*
%TO.P,J3,1*%
%TO.N,wb0*%
X38100000Y-143510000D03*
%TD*%
D10*
%TO.P,J2,8*%
%TO.N,wb7*%
X20320000Y-128270000D03*
%TO.P,J2,7*%
%TO.N,wb6*%
X22860000Y-128270000D03*
%TO.P,J2,6*%
%TO.N,wb5*%
X25400000Y-128270000D03*
%TO.P,J2,5*%
%TO.N,wb4*%
X27940000Y-128270000D03*
%TO.P,J2,4*%
%TO.N,wb3*%
X30480000Y-128270000D03*
%TO.P,J2,3*%
%TO.N,wb2*%
X33020000Y-128270000D03*
%TO.P,J2,2*%
%TO.N,wb1*%
X35560000Y-128270000D03*
D11*
%TO.P,J2,1*%
%TO.N,wb0*%
X38100000Y-128270000D03*
%TD*%
D10*
%TO.P,J1,3*%
%TO.N,Net-(J1-Pad3)*%
X142240000Y-26670000D03*
%TO.P,J1,2*%
%TO.N,GND*%
X142240000Y-24130000D03*
D11*
%TO.P,J1,1*%
%TO.N,+5V*%
X142240000Y-21590000D03*
%TD*%
D15*
%TO.P,D10,2*%
%TO.N,ge*%
X130810000Y-120650000D03*
D16*
%TO.P,D10,1*%
%TO.N,Net-(D10-Pad1)*%
X128270000Y-120650000D03*
%TD*%
D15*
%TO.P,D9,2*%
%TO.N,lt*%
X130810000Y-110490000D03*
D16*
%TO.P,D9,1*%
%TO.N,Net-(D9-Pad1)*%
X128270000Y-110490000D03*
%TD*%
D15*
%TO.P,D8,2*%
%TO.N,noteq*%
X130810000Y-100330000D03*
D16*
%TO.P,D8,1*%
%TO.N,Net-(D8-Pad1)*%
X128270000Y-100330000D03*
%TD*%
D15*
%TO.P,D7,2*%
%TO.N,eq*%
X130810000Y-90170000D03*
D16*
%TO.P,D7,1*%
%TO.N,Net-(D7-Pad1)*%
X128270000Y-90170000D03*
%TD*%
D15*
%TO.P,D5,2*%
%TO.N,+5V*%
X82550000Y-107950000D03*
D16*
%TO.P,D5,1*%
%TO.N,Net-(D5-Pad1)*%
X80010000Y-107950000D03*
%TD*%
D15*
%TO.P,D4,2*%
%TO.N,+5V*%
X97790000Y-107950000D03*
D16*
%TO.P,D4,1*%
%TO.N,Net-(D4-Pad1)*%
X95250000Y-107950000D03*
%TD*%
D15*
%TO.P,D3,2*%
%TO.N,+5V*%
X111760000Y-107950000D03*
D16*
%TO.P,D3,1*%
%TO.N,Net-(D3-Pad1)*%
X109220000Y-107950000D03*
%TD*%
D15*
%TO.P,D2,2*%
%TO.N,+5V*%
X63500000Y-107950000D03*
D16*
%TO.P,D2,1*%
%TO.N,Net-(D2-Pad1)*%
X60960000Y-107950000D03*
%TD*%
D15*
%TO.P,D1,2*%
%TO.N,+5V*%
X43180000Y-107950000D03*
D16*
%TO.P,D1,1*%
%TO.N,Net-(D1-Pad1)*%
X40640000Y-107950000D03*
%TD*%
D19*
%TO.P,C13,2*%
%TO.N,GND*%
X115570000Y-50720000D03*
%TO.P,C13,1*%
%TO.N,+5V*%
X115570000Y-45720000D03*
%TD*%
%TO.P,C12,2*%
%TO.N,GND*%
X69850000Y-50720000D03*
%TO.P,C12,1*%
%TO.N,+5V*%
X69850000Y-45720000D03*
%TD*%
%TO.P,C11,2*%
%TO.N,GND*%
X49530000Y-74850000D03*
%TO.P,C11,1*%
%TO.N,+5V*%
X49530000Y-69850000D03*
%TD*%
%TO.P,C10,2*%
%TO.N,GND*%
X17780000Y-74850000D03*
%TO.P,C10,1*%
%TO.N,+5V*%
X17780000Y-69850000D03*
%TD*%
%TO.P,C9,2*%
%TO.N,GND*%
X116840000Y-74850000D03*
%TO.P,C9,1*%
%TO.N,+5V*%
X116840000Y-69850000D03*
%TD*%
%TO.P,C8,2*%
%TO.N,GND*%
X82550000Y-74850000D03*
%TO.P,C8,1*%
%TO.N,+5V*%
X82550000Y-69850000D03*
%TD*%
%TO.P,C7,2*%
%TO.N,GND*%
X50800000Y-95170000D03*
%TO.P,C7,1*%
%TO.N,+5V*%
X50800000Y-90170000D03*
%TD*%
%TO.P,C6,2*%
%TO.N,GND*%
X19050000Y-95170000D03*
%TO.P,C6,1*%
%TO.N,+5V*%
X19050000Y-90170000D03*
%TD*%
%TO.P,C5,2*%
%TO.N,GND*%
X85090000Y-95170000D03*
%TO.P,C5,1*%
%TO.N,+5V*%
X85090000Y-90170000D03*
%TD*%
%TO.P,C4,2*%
%TO.N,GND*%
X83820000Y-30400000D03*
%TO.P,C4,1*%
%TO.N,+5V*%
X83820000Y-25400000D03*
%TD*%
%TO.P,C3,2*%
%TO.N,GND*%
X29210000Y-50720000D03*
%TO.P,C3,1*%
%TO.N,+5V*%
X29210000Y-45720000D03*
%TD*%
%TO.P,C2,2*%
%TO.N,GND*%
X48260000Y-30400000D03*
%TO.P,C2,1*%
%TO.N,+5V*%
X48260000Y-25400000D03*
%TD*%
%TO.P,C1,2*%
%TO.N,GND*%
X19050000Y-30400000D03*
%TO.P,C1,1*%
%TO.N,+5V*%
X19050000Y-25400000D03*
%TD*%
D20*
%TO.N,GND*%
X31854800Y-35724100D03*
%TO.N,lt*%
X125841600Y-105800800D03*
%TO.N,wb6*%
X67700800Y-43211000D03*
X72310800Y-23441700D03*
X79553700Y-96919900D03*
%TO.N,wb5*%
X86510900Y-96160800D03*
X80114100Y-130169000D03*
%TO.N,wb4*%
X48386700Y-92738600D03*
X80333500Y-91335000D03*
%TO.N,wb3*%
X91295400Y-87238200D03*
X47572700Y-129528200D03*
%TO.N,wb0*%
X44411100Y-93775600D03*
%TO.N,Rrd7*%
X80010000Y-42199700D03*
X80010000Y-22071700D03*
%TO.N,Rrd6*%
X84706100Y-27990700D03*
%TO.N,Rrd5*%
X85919400Y-28165900D03*
%TO.N,Rrd4*%
X59779600Y-44958800D03*
%TO.N,Rrd3*%
X109220000Y-48213100D03*
%TO.N,Rrd2*%
X43094400Y-84677100D03*
X43094400Y-31024100D03*
X106680000Y-47487800D03*
%TO.N,Rrd1*%
X89568800Y-33697700D03*
X87249100Y-26629000D03*
%TO.N,Rrd0*%
X101600000Y-43994900D03*
X83543800Y-58755800D03*
%TO.N,Rrs7*%
X34058800Y-37624200D03*
X54031600Y-29824000D03*
%TO.N,Rrs6*%
X55553300Y-49742000D03*
%TO.N,Rrs5*%
X34388100Y-39283000D03*
%TO.N,Rrs4*%
X35436800Y-38352400D03*
%TO.N,Rrs2*%
X46526100Y-13595800D03*
%TO.N,Rrs1*%
X52735900Y-29093800D03*
X57150000Y-21621400D03*
%TO.N,Rrs0*%
X61154800Y-52507400D03*
%TO.N,incdec*%
X54195600Y-100316000D03*
X36830000Y-70977600D03*
%TO.N,addsub*%
X66740300Y-109502500D03*
%TO.N,Net-(U2-Pad6)*%
X55880000Y-39409300D03*
%TO.N,Net-(U5-Pad4)*%
X64459200Y-98726900D03*
%TO.N,Net-(U6-Pad15)*%
X102870000Y-72207200D03*
%TO.N,Net-(U6-Pad6)*%
X35435000Y-82531800D03*
%TO.N,Net-(U6-Pad11)*%
X95393900Y-73574600D03*
%TO.N,Net-(U7-Pad6)*%
X79226000Y-84499600D03*
%TO.N,Net-(U7-Pad11)*%
X88458300Y-65976300D03*
X128513900Y-65976300D03*
%TO.N,Net-(U7-Pad2)*%
X58420000Y-90769800D03*
%TD*%
D21*
%TO.N,GND*%
X57150000Y-50944700D02*
X57150000Y-50312900D01*
X57150000Y-50312900D02*
X55853800Y-49016700D01*
X55853800Y-49016700D02*
X30913300Y-49016700D01*
X30913300Y-49016700D02*
X29210000Y-50720000D01*
X30603500Y-30621300D02*
X37397300Y-30621300D01*
X37397300Y-30621300D02*
X38244700Y-31468700D01*
X38244700Y-31468700D02*
X38244700Y-31750000D01*
X19050000Y-30400000D02*
X30382200Y-30400000D01*
X30382200Y-30400000D02*
X30603500Y-30621300D01*
X30603500Y-30621300D02*
X30603500Y-34472800D01*
X30603500Y-34472800D02*
X31854800Y-35724100D01*
X39370000Y-31750000D02*
X38244700Y-31750000D01*
X114437500Y-52070000D02*
X116027300Y-53659800D01*
X116027300Y-53659800D02*
X133456300Y-53659800D01*
X133456300Y-53659800D02*
X134764700Y-52351400D01*
X134764700Y-52351400D02*
X134764700Y-52070000D01*
X123190000Y-118110000D02*
X122164700Y-118110000D01*
X113180000Y-120070000D02*
X120204700Y-120070000D01*
X120204700Y-120070000D02*
X122164700Y-118110000D01*
X106680000Y-120070000D02*
X113180000Y-120070000D01*
X113030000Y-96520000D02*
X114155300Y-96520000D01*
X123190000Y-97790000D02*
X115425300Y-97790000D01*
X115425300Y-97790000D02*
X114155300Y-96520000D01*
X102870000Y-76200000D02*
X103995300Y-76200000D01*
X116840000Y-74850000D02*
X105345300Y-74850000D01*
X105345300Y-74850000D02*
X103995300Y-76200000D01*
X96664700Y-44450000D02*
X96664700Y-44731300D01*
X96664700Y-44731300D02*
X95767300Y-45628700D01*
X95767300Y-45628700D02*
X94451400Y-45628700D01*
X94451400Y-45628700D02*
X93272700Y-44450000D01*
X97790000Y-44450000D02*
X96664700Y-44450000D01*
X93272700Y-44450000D02*
X92147400Y-45575300D01*
X92147400Y-45575300D02*
X89599200Y-45575300D01*
X89599200Y-45575300D02*
X88755300Y-44731400D01*
X88755300Y-44731400D02*
X88755300Y-44450000D01*
X87630000Y-44450000D02*
X88755300Y-44450000D01*
X92710000Y-44450000D02*
X93272700Y-44450000D01*
X87630000Y-50944700D02*
X84519200Y-50944700D01*
X84519200Y-50944700D02*
X83675300Y-51788600D01*
X83675300Y-51788600D02*
X83675300Y-52070000D01*
X87630000Y-52070000D02*
X87630000Y-50944700D01*
X82550000Y-52070000D02*
X83675300Y-52070000D01*
X87630000Y-50944700D02*
X90740800Y-50944700D01*
X90740800Y-50944700D02*
X91584700Y-51788600D01*
X91584700Y-51788600D02*
X91584700Y-52070000D01*
X88900000Y-127000000D02*
X87874700Y-127000000D01*
X80010000Y-127000000D02*
X81035300Y-127000000D01*
X81035300Y-127000000D02*
X82060600Y-128025300D01*
X82060600Y-128025300D02*
X86849400Y-128025300D01*
X86849400Y-128025300D02*
X87874700Y-127000000D01*
X79497400Y-127000000D02*
X80010000Y-127000000D01*
X79497400Y-127000000D02*
X78984700Y-127000000D01*
X76551700Y-51573600D02*
X75698000Y-50720000D01*
X75698000Y-50720000D02*
X69850000Y-50720000D01*
X76907400Y-52070000D02*
X76907400Y-51929400D01*
X76907400Y-51929400D02*
X76551700Y-51573600D01*
X76551700Y-51573600D02*
X82550000Y-45575300D01*
X82550000Y-44450000D02*
X82550000Y-45575300D01*
X71120000Y-127000000D02*
X72145300Y-127000000D01*
X78984700Y-127000000D02*
X77959400Y-128025300D01*
X77959400Y-128025300D02*
X73170600Y-128025300D01*
X73170600Y-128025300D02*
X72145300Y-127000000D01*
X71120000Y-127000000D02*
X70094700Y-127000000D01*
X62230000Y-127000000D02*
X63255300Y-127000000D01*
X63255300Y-127000000D02*
X64280600Y-128025300D01*
X64280600Y-128025300D02*
X69069400Y-128025300D01*
X69069400Y-128025300D02*
X70094700Y-127000000D01*
X61717400Y-127000000D02*
X62230000Y-127000000D01*
X61717400Y-127000000D02*
X61204700Y-127000000D01*
X69850000Y-76200000D02*
X70975300Y-76200000D01*
X82550000Y-74850000D02*
X72325300Y-74850000D01*
X72325300Y-74850000D02*
X70975300Y-76200000D01*
X49530000Y-74850000D02*
X49822900Y-74557100D01*
X49822900Y-74557100D02*
X62243700Y-74557100D01*
X62243700Y-74557100D02*
X63500000Y-75813400D01*
X63500000Y-75813400D02*
X63500000Y-76521500D01*
X63500000Y-76521500D02*
X64303800Y-77325300D01*
X64303800Y-77325300D02*
X68724700Y-77325300D01*
X68724700Y-77325300D02*
X69850000Y-76200000D01*
X40495300Y-76200000D02*
X41845300Y-74850000D01*
X41845300Y-74850000D02*
X49530000Y-74850000D01*
X57150000Y-52070000D02*
X57150000Y-50944700D01*
X40495300Y-31750000D02*
X46910000Y-31750000D01*
X46910000Y-31750000D02*
X48260000Y-30400000D01*
X97790000Y-127000000D02*
X96764700Y-127000000D01*
X88900000Y-127000000D02*
X89925300Y-127000000D01*
X89925300Y-127000000D02*
X90950600Y-128025300D01*
X90950600Y-128025300D02*
X95739400Y-128025300D01*
X95739400Y-128025300D02*
X96764700Y-127000000D01*
X59690000Y-121340000D02*
X66190000Y-121340000D01*
X44600000Y-121340000D02*
X45099800Y-120840200D01*
X45099800Y-120840200D02*
X59190200Y-120840200D01*
X59190200Y-120840200D02*
X59690000Y-121340000D01*
X38100000Y-121340000D02*
X44600000Y-121340000D01*
X53340000Y-127000000D02*
X54365300Y-127000000D01*
X54365300Y-127000000D02*
X55390600Y-128025300D01*
X55390600Y-128025300D02*
X60179400Y-128025300D01*
X60179400Y-128025300D02*
X61204700Y-127000000D01*
X106680000Y-127000000D02*
X105654700Y-127000000D01*
X97790000Y-127000000D02*
X98815300Y-127000000D01*
X98815300Y-127000000D02*
X99840600Y-128025300D01*
X99840600Y-128025300D02*
X104629400Y-128025300D01*
X104629400Y-128025300D02*
X105654700Y-127000000D01*
X38244700Y-76200000D02*
X38244700Y-75918700D01*
X38244700Y-75918700D02*
X36937100Y-74611100D01*
X36937100Y-74611100D02*
X18018900Y-74611100D01*
X18018900Y-74611100D02*
X17780000Y-74850000D01*
X72534700Y-96520000D02*
X72534700Y-96238700D01*
X72534700Y-96238700D02*
X71466000Y-95170000D01*
X71466000Y-95170000D02*
X50800000Y-95170000D01*
X68580000Y-31750000D02*
X69705300Y-31750000D01*
X69705300Y-31750000D02*
X71055300Y-30400000D01*
X71055300Y-30400000D02*
X83820000Y-30400000D01*
X39370000Y-31750000D02*
X40495300Y-31750000D01*
X115570000Y-50720000D02*
X114437500Y-51852500D01*
X114437500Y-51852500D02*
X114437500Y-52070000D01*
X114437500Y-52070000D02*
X98915300Y-52070000D01*
X135890000Y-52070000D02*
X134764700Y-52070000D01*
X92710000Y-52070000D02*
X91584700Y-52070000D01*
X82550000Y-44450000D02*
X83675300Y-44450000D01*
X87630000Y-44450000D02*
X86504700Y-44450000D01*
X86504700Y-44450000D02*
X86504700Y-44687100D01*
X86504700Y-44687100D02*
X85616500Y-45575300D01*
X85616500Y-45575300D02*
X84519200Y-45575300D01*
X84519200Y-45575300D02*
X83675300Y-44731400D01*
X83675300Y-44731400D02*
X83675300Y-44450000D01*
X77470000Y-52070000D02*
X76907400Y-52070000D01*
X43035300Y-96520000D02*
X44385300Y-95170000D01*
X44385300Y-95170000D02*
X50800000Y-95170000D01*
X73660000Y-96520000D02*
X72534700Y-96520000D01*
X142240000Y-24130000D02*
X147320000Y-24130000D01*
X97790000Y-52070000D02*
X98915300Y-52070000D01*
X39370000Y-76200000D02*
X40495300Y-76200000D01*
X39370000Y-76200000D02*
X38244700Y-76200000D01*
X41910000Y-96520000D02*
X43035300Y-96520000D01*
X73660000Y-96520000D02*
X74785300Y-96520000D01*
X85090000Y-95170000D02*
X76135300Y-95170000D01*
X76135300Y-95170000D02*
X74785300Y-96520000D01*
%TO.N,+5V*%
X34290000Y-52070000D02*
X34290000Y-53195300D01*
X34290000Y-53195300D02*
X24130000Y-63355300D01*
X24130000Y-63355300D02*
X24130000Y-68580000D01*
X24130000Y-88900000D02*
X23004700Y-88900000D01*
X19050000Y-90170000D02*
X21734700Y-90170000D01*
X21734700Y-90170000D02*
X23004700Y-88900000D01*
X147320000Y-21590000D02*
X146144700Y-21590000D01*
X142240000Y-22177600D02*
X145557100Y-22177600D01*
X145557100Y-22177600D02*
X146144700Y-21590000D01*
X142240000Y-22177600D02*
X142240000Y-22765300D01*
X142240000Y-21590000D02*
X142240000Y-22177600D01*
X116840000Y-69850000D02*
X116523200Y-70166800D01*
X116523200Y-70166800D02*
X89216800Y-70166800D01*
X89216800Y-70166800D02*
X87630000Y-68580000D01*
X120794700Y-68580000D02*
X119524700Y-69850000D01*
X119524700Y-69850000D02*
X116840000Y-69850000D01*
X87630000Y-68580000D02*
X83820000Y-68580000D01*
X83820000Y-68580000D02*
X82550000Y-69850000D01*
X82550000Y-107950000D02*
X83775400Y-109175400D01*
X83775400Y-109175400D02*
X96564600Y-109175400D01*
X96564600Y-109175400D02*
X97790000Y-107950000D01*
X63500000Y-107950000D02*
X64725400Y-106724600D01*
X64725400Y-106724600D02*
X81324600Y-106724600D01*
X81324600Y-106724600D02*
X82550000Y-107950000D01*
X88843500Y-33998100D02*
X89853400Y-35008000D01*
X89853400Y-35008000D02*
X104858000Y-35008000D01*
X104858000Y-35008000D02*
X115570000Y-45720000D01*
X88900000Y-32875300D02*
X88843500Y-32931800D01*
X88843500Y-32931800D02*
X88843500Y-33998100D01*
X88843500Y-33998100D02*
X86225900Y-33998100D01*
X86225900Y-33998100D02*
X76055300Y-44168700D01*
X76055300Y-44168700D02*
X76055300Y-44450000D01*
X90170000Y-88900000D02*
X89044700Y-88900000D01*
X85090000Y-90170000D02*
X87774700Y-90170000D01*
X87774700Y-90170000D02*
X89044700Y-88900000D01*
X74930000Y-44450000D02*
X76055300Y-44450000D01*
X115570000Y-45720000D02*
X118254700Y-45720000D01*
X118254700Y-45720000D02*
X119524700Y-44450000D01*
X88900000Y-31750000D02*
X88900000Y-32875300D01*
X83820000Y-25400000D02*
X72319700Y-25400000D01*
X72319700Y-25400000D02*
X69441700Y-22522000D01*
X69441700Y-22522000D02*
X58413600Y-22522000D01*
X58413600Y-22522000D02*
X57291500Y-23644100D01*
X57291500Y-23644100D02*
X57291500Y-24316000D01*
X57291500Y-24316000D02*
X56352100Y-25255400D01*
X56352100Y-25255400D02*
X53902800Y-25255400D01*
X53902800Y-25255400D02*
X52777400Y-24130000D01*
X63500000Y-107950000D02*
X62274600Y-106724600D01*
X62274600Y-106724600D02*
X44405400Y-106724600D01*
X44405400Y-106724600D02*
X43180000Y-107950000D01*
X31750000Y-121920000D02*
X32775300Y-121920000D01*
X54610000Y-121920000D02*
X53584700Y-121920000D01*
X53584700Y-121920000D02*
X52799100Y-122705600D01*
X52799100Y-122705600D02*
X33560900Y-122705600D01*
X33560900Y-122705600D02*
X32775300Y-121920000D01*
X49530000Y-69850000D02*
X49223800Y-70156200D01*
X49223800Y-70156200D02*
X26550200Y-70156200D01*
X26550200Y-70156200D02*
X25255300Y-68861300D01*
X25255300Y-68861300D02*
X25255300Y-68580000D01*
X49530000Y-69850000D02*
X52214700Y-69850000D01*
X52214700Y-69850000D02*
X53484700Y-68580000D01*
X24130000Y-68580000D02*
X25255300Y-68580000D01*
X24130000Y-68580000D02*
X19050000Y-68580000D01*
X19050000Y-68580000D02*
X17780000Y-69850000D01*
X23004700Y-24130000D02*
X20320000Y-24130000D01*
X20320000Y-24130000D02*
X19050000Y-25400000D01*
X87774700Y-24130000D02*
X86504700Y-25400000D01*
X86504700Y-25400000D02*
X83820000Y-25400000D01*
X120650000Y-44450000D02*
X120650000Y-43324700D01*
X142240000Y-22765300D02*
X141209400Y-22765300D01*
X141209400Y-22765300D02*
X120650000Y-43324700D01*
X111760000Y-107950000D02*
X110534600Y-106724600D01*
X110534600Y-106724600D02*
X99015400Y-106724600D01*
X99015400Y-106724600D02*
X97790000Y-107950000D01*
X52777400Y-24130000D02*
X52214700Y-24130000D01*
X53340000Y-24130000D02*
X52777400Y-24130000D01*
X120650000Y-44450000D02*
X119524700Y-44450000D01*
X74930000Y-44450000D02*
X73804700Y-44450000D01*
X69850000Y-45720000D02*
X72534700Y-45720000D01*
X72534700Y-45720000D02*
X73804700Y-44450000D01*
X54610000Y-68580000D02*
X53484700Y-68580000D01*
X121920000Y-68580000D02*
X120794700Y-68580000D01*
X55880000Y-88900000D02*
X54754700Y-88900000D01*
X50800000Y-90170000D02*
X53484700Y-90170000D01*
X53484700Y-90170000D02*
X54754700Y-88900000D01*
X88900000Y-24130000D02*
X87774700Y-24130000D01*
X34290000Y-44450000D02*
X33164700Y-44450000D01*
X29210000Y-45720000D02*
X31894700Y-45720000D01*
X31894700Y-45720000D02*
X33164700Y-44450000D01*
X48260000Y-25400000D02*
X50944700Y-25400000D01*
X50944700Y-25400000D02*
X52214700Y-24130000D01*
X24130000Y-24130000D02*
X23004700Y-24130000D01*
%TO.N,Net-(D1-Pad1)*%
X40640000Y-107950000D02*
X36830000Y-107950000D01*
X36830000Y-107950000D02*
X34290000Y-105410000D01*
%TO.N,Net-(D3-Pad1)*%
X109220000Y-107950000D02*
X106680000Y-107950000D01*
X106680000Y-107950000D02*
X104140000Y-110490000D01*
%TO.N,Net-(D4-Pad1)*%
X95250000Y-107950000D02*
X92710000Y-107950000D01*
X92710000Y-107950000D02*
X90170000Y-105410000D01*
%TO.N,Net-(D5-Pad1)*%
X80010000Y-107950000D02*
X77470000Y-107950000D01*
X77470000Y-107950000D02*
X74930000Y-110490000D01*
%TO.N,Net-(D7-Pad1)*%
X128270000Y-90170000D02*
X125730000Y-90170000D01*
X125730000Y-90170000D02*
X123190000Y-92710000D01*
%TO.N,noteq*%
X78595300Y-44450000D02*
X78595300Y-44269600D01*
X78595300Y-44269600D02*
X79939900Y-42925000D01*
X79939900Y-42925000D02*
X80760300Y-42925000D01*
X80760300Y-42925000D02*
X80810900Y-42874400D01*
X80810900Y-42874400D02*
X110220200Y-42874400D01*
X110220200Y-42874400D02*
X118290500Y-50944700D01*
X118290500Y-50944700D02*
X126300800Y-50944700D01*
X126300800Y-50944700D02*
X127144700Y-51788600D01*
X127144700Y-51788600D02*
X127144700Y-52070000D01*
X128270000Y-52070000D02*
X127144700Y-52070000D01*
X77470000Y-44450000D02*
X78595300Y-44450000D01*
%TO.N,Net-(D8-Pad1)*%
X128270000Y-100330000D02*
X125730000Y-100330000D01*
X125730000Y-100330000D02*
X123190000Y-102870000D01*
%TO.N,lt*%
X130810000Y-110490000D02*
X126120800Y-105800800D01*
X126120800Y-105800800D02*
X125841600Y-105800800D01*
%TO.N,Net-(D9-Pad1)*%
X128270000Y-110490000D02*
X125730000Y-110490000D01*
X125730000Y-110490000D02*
X123190000Y-113030000D01*
%TO.N,ge*%
X123190000Y-52070000D02*
X124315300Y-52070000D01*
X124315300Y-52070000D02*
X124315300Y-52351400D01*
X124315300Y-52351400D02*
X125159200Y-53195300D01*
X125159200Y-53195300D02*
X128764900Y-53195300D01*
X128764900Y-53195300D02*
X129540000Y-52420200D01*
X129540000Y-52420200D02*
X129540000Y-51644000D01*
X129540000Y-51644000D02*
X135608700Y-45575300D01*
X135608700Y-45575300D02*
X135890000Y-45575300D01*
X120650000Y-52070000D02*
X123190000Y-52070000D01*
X135890000Y-44450000D02*
X135890000Y-45575300D01*
%TO.N,Net-(D10-Pad1)*%
X128270000Y-120650000D02*
X125730000Y-120650000D01*
X125730000Y-120650000D02*
X123190000Y-123190000D01*
%TO.N,Net-(J1-Pad3)*%
X142240000Y-26670000D02*
X147320000Y-26670000D01*
%TO.N,wb7*%
X24938000Y-132080000D02*
X50800000Y-132080000D01*
X21495300Y-128270000D02*
X21495300Y-128637300D01*
X21495300Y-128637300D02*
X24938000Y-132080000D01*
X24938000Y-132080000D02*
X20320000Y-136698000D01*
X20320000Y-136698000D02*
X20320000Y-143510000D01*
X111760000Y-24130000D02*
X110634700Y-24130000D01*
X57150000Y-44450000D02*
X58275300Y-44450000D01*
X58275300Y-44450000D02*
X58660600Y-44064700D01*
X58660600Y-44064700D02*
X73106700Y-44064700D01*
X73106700Y-44064700D02*
X83623700Y-33547700D01*
X83623700Y-33547700D02*
X84520900Y-33547700D01*
X84520900Y-33547700D02*
X90194300Y-27874300D01*
X90194300Y-27874300D02*
X107171700Y-27874300D01*
X107171700Y-27874300D02*
X110634700Y-24411300D01*
X110634700Y-24411300D02*
X110634700Y-24130000D01*
X20320000Y-128270000D02*
X21495300Y-128270000D01*
%TO.N,wb6*%
X79553700Y-96919900D02*
X87280900Y-96919900D01*
X87280900Y-96919900D02*
X92388900Y-91811900D01*
X92388900Y-91811900D02*
X106686000Y-91811900D01*
X106686000Y-91811900D02*
X109364700Y-89133200D01*
X109364700Y-89133200D02*
X109364700Y-88900000D01*
X55735300Y-44450000D02*
X55735300Y-44168700D01*
X55735300Y-44168700D02*
X56693000Y-43211000D01*
X56693000Y-43211000D02*
X67700800Y-43211000D01*
X109220000Y-24130000D02*
X108094700Y-24130000D01*
X54610000Y-44450000D02*
X55735300Y-44450000D01*
X108094700Y-24130000D02*
X108094700Y-23848700D01*
X108094700Y-23848700D02*
X106705100Y-22459100D01*
X106705100Y-22459100D02*
X82518700Y-22459100D01*
X82518700Y-22459100D02*
X81536100Y-23441700D01*
X81536100Y-23441700D02*
X72310800Y-23441700D01*
X22860000Y-128270000D02*
X24035300Y-128270000D01*
X24035300Y-128270000D02*
X24035300Y-128637300D01*
X24035300Y-128637300D02*
X26145300Y-130747300D01*
X26145300Y-130747300D02*
X58357300Y-130747300D01*
X58357300Y-130747300D02*
X59690000Y-132080000D01*
X110490000Y-88900000D02*
X109364700Y-88900000D01*
%TO.N,wb5*%
X68580000Y-132080000D02*
X70491000Y-130169000D01*
X70491000Y-130169000D02*
X80114100Y-130169000D01*
X107950000Y-88900000D02*
X106824700Y-88900000D01*
X105554700Y-24130000D02*
X105554700Y-24411300D01*
X105554700Y-24411300D02*
X103809800Y-26156200D01*
X103809800Y-26156200D02*
X91263500Y-26156200D01*
X91263500Y-26156200D02*
X84808900Y-32610800D01*
X84808900Y-32610800D02*
X81680100Y-32610800D01*
X81680100Y-32610800D02*
X71813300Y-42477600D01*
X71813300Y-42477600D02*
X54886400Y-42477600D01*
X54886400Y-42477600D02*
X53195300Y-44168700D01*
X53195300Y-44168700D02*
X53195300Y-44450000D01*
X106824700Y-88900000D02*
X106824700Y-89181300D01*
X106824700Y-89181300D02*
X104786200Y-91219800D01*
X104786200Y-91219800D02*
X91451900Y-91219800D01*
X91451900Y-91219800D02*
X86510900Y-96160800D01*
X26575300Y-128270000D02*
X26575300Y-128637300D01*
X26575300Y-128637300D02*
X28217000Y-130279000D01*
X28217000Y-130279000D02*
X66779000Y-130279000D01*
X66779000Y-130279000D02*
X68580000Y-132080000D01*
X52070000Y-44450000D02*
X53195300Y-44450000D01*
X106680000Y-24130000D02*
X105554700Y-24130000D01*
X25400000Y-128270000D02*
X26575300Y-128270000D01*
%TO.N,wb4*%
X104284700Y-88900000D02*
X104284700Y-88618600D01*
X104284700Y-88618600D02*
X102179000Y-86512900D01*
X102179000Y-86512900D02*
X85155600Y-86512900D01*
X85155600Y-86512900D02*
X80333500Y-91335000D01*
X27940000Y-143510000D02*
X29115300Y-143510000D01*
X29115300Y-143510000D02*
X29115300Y-143142700D01*
X29115300Y-143142700D02*
X38863400Y-133394600D01*
X38863400Y-133394600D02*
X76155400Y-133394600D01*
X76155400Y-133394600D02*
X77470000Y-132080000D01*
X80333500Y-91335000D02*
X78929900Y-92738600D01*
X78929900Y-92738600D02*
X48386700Y-92738600D01*
X105410000Y-88900000D02*
X104284700Y-88900000D01*
%TO.N,wb3*%
X86360000Y-132080000D02*
X83723700Y-129443700D01*
X83723700Y-129443700D02*
X47657200Y-129443700D01*
X47657200Y-129443700D02*
X47572700Y-129528200D01*
X101744700Y-88900000D02*
X101744700Y-88618700D01*
X101744700Y-88618700D02*
X100364200Y-87238200D01*
X100364200Y-87238200D02*
X91295400Y-87238200D01*
X102870000Y-88900000D02*
X101744700Y-88900000D01*
X47572700Y-129528200D02*
X41581000Y-129528200D01*
X41581000Y-129528200D02*
X39141500Y-127088700D01*
X39141500Y-127088700D02*
X37114200Y-127088700D01*
X37114200Y-127088700D02*
X36924300Y-127278600D01*
X36924300Y-127278600D02*
X36924300Y-128608000D01*
X36924300Y-128608000D02*
X36077400Y-129454900D01*
X36077400Y-129454900D02*
X32472900Y-129454900D01*
X32472900Y-129454900D02*
X31655300Y-128637300D01*
X31655300Y-128637300D02*
X31655300Y-128270000D01*
X30480000Y-128270000D02*
X31655300Y-128270000D01*
%TO.N,wb2*%
X97934700Y-24130000D02*
X97934700Y-24411400D01*
X97934700Y-24411400D02*
X96640300Y-25705800D01*
X96640300Y-25705800D02*
X91011200Y-25705800D01*
X91011200Y-25705800D02*
X84556600Y-32160400D01*
X84556600Y-32160400D02*
X81332900Y-32160400D01*
X81332900Y-32160400D02*
X71519500Y-41973800D01*
X71519500Y-41973800D02*
X47847000Y-41973800D01*
X47847000Y-41973800D02*
X45575300Y-44245500D01*
X45575300Y-44245500D02*
X45575300Y-44450000D01*
X95250000Y-132080000D02*
X91791100Y-128621100D01*
X91791100Y-128621100D02*
X41310900Y-128621100D01*
X41310900Y-128621100D02*
X39328200Y-126638400D01*
X39328200Y-126638400D02*
X35459600Y-126638400D01*
X35459600Y-126638400D02*
X34195300Y-127902700D01*
X34195300Y-127902700D02*
X34195300Y-128270000D01*
X44450000Y-44450000D02*
X45575300Y-44450000D01*
X99060000Y-24130000D02*
X97934700Y-24130000D01*
X33020000Y-128270000D02*
X34195300Y-128270000D01*
%TO.N,wb1*%
X41910000Y-44450000D02*
X43035300Y-44450000D01*
X96520000Y-24130000D02*
X95394700Y-24130000D01*
X95394700Y-24130000D02*
X95394700Y-24411400D01*
X95394700Y-24411400D02*
X94550800Y-25255300D01*
X94550800Y-25255300D02*
X90824800Y-25255300D01*
X90824800Y-25255300D02*
X84554700Y-31525400D01*
X84554700Y-31525400D02*
X77761200Y-31525400D01*
X77761200Y-31525400D02*
X68663600Y-40623000D01*
X68663600Y-40623000D02*
X46581000Y-40623000D01*
X46581000Y-40623000D02*
X43035300Y-44168700D01*
X43035300Y-44168700D02*
X43035300Y-44450000D01*
X104140000Y-132080000D02*
X103689700Y-132080000D01*
X103689700Y-132080000D02*
X93435000Y-142334700D01*
X93435000Y-142334700D02*
X37102500Y-142334700D01*
X37102500Y-142334700D02*
X36735300Y-142701900D01*
X36735300Y-142701900D02*
X36735300Y-143510000D01*
X35560000Y-143510000D02*
X36735300Y-143510000D01*
%TO.N,wb0*%
X94124700Y-88900000D02*
X94124700Y-89181400D01*
X94124700Y-89181400D02*
X92695900Y-90610200D01*
X92695900Y-90610200D02*
X90286200Y-90610200D01*
X90286200Y-90610200D02*
X87120800Y-93775600D01*
X87120800Y-93775600D02*
X44411100Y-93775600D01*
X95250000Y-88900000D02*
X94124700Y-88900000D01*
X92854700Y-24130000D02*
X92854700Y-23848700D01*
X92854700Y-23848700D02*
X91959600Y-22953600D01*
X91959600Y-22953600D02*
X90989400Y-22953600D01*
X90989400Y-22953600D02*
X90025400Y-23917600D01*
X90025400Y-23917600D02*
X90025400Y-25147100D01*
X90025400Y-25147100D02*
X85992600Y-29179900D01*
X85992600Y-29179900D02*
X69502400Y-29179900D01*
X69502400Y-29179900D02*
X67310000Y-31372300D01*
X67310000Y-31372300D02*
X67310000Y-32123900D01*
X67310000Y-32123900D02*
X59261300Y-40172600D01*
X59261300Y-40172600D02*
X44491400Y-40172600D01*
X44491400Y-40172600D02*
X40495300Y-44168700D01*
X40495300Y-44168700D02*
X40495300Y-44450000D01*
X38100000Y-143510000D02*
X39275300Y-143510000D01*
X113030000Y-132080000D02*
X99945100Y-145164900D01*
X99945100Y-145164900D02*
X40930200Y-145164900D01*
X40930200Y-145164900D02*
X39275300Y-143510000D01*
X39370000Y-44450000D02*
X40495300Y-44450000D01*
X93980000Y-24130000D02*
X92854700Y-24130000D01*
%TO.N,Rrd7*%
X80010000Y-42199700D02*
X110407400Y-42199700D01*
X110407400Y-42199700D02*
X115083200Y-46875500D01*
X115083200Y-46875500D02*
X122396300Y-46875500D01*
X122396300Y-46875500D02*
X124460000Y-44811800D01*
X124460000Y-44811800D02*
X124460000Y-44068100D01*
X124460000Y-44068100D02*
X125203400Y-43324700D01*
X125203400Y-43324700D02*
X128840800Y-43324700D01*
X128840800Y-43324700D02*
X129684700Y-44168600D01*
X129684700Y-44168600D02*
X129684700Y-44450000D01*
X55880000Y-24130000D02*
X54754700Y-24130000D01*
X20320000Y-15240000D02*
X21495300Y-15240000D01*
X21495300Y-15240000D02*
X21495300Y-14864200D01*
X21495300Y-14864200D02*
X23268900Y-13090600D01*
X23268900Y-13090600D02*
X39945700Y-13090600D01*
X39945700Y-13090600D02*
X49859800Y-23004700D01*
X49859800Y-23004700D02*
X53910800Y-23004700D01*
X53910800Y-23004700D02*
X54754700Y-23848600D01*
X54754700Y-23848600D02*
X54754700Y-24130000D01*
X80010000Y-22071700D02*
X57938300Y-22071700D01*
X57938300Y-22071700D02*
X55880000Y-24130000D01*
X130810000Y-44450000D02*
X129684700Y-44450000D01*
X133350000Y-44450000D02*
X130810000Y-44450000D01*
%TO.N,Rrd6*%
X24035300Y-15240000D02*
X24035300Y-14872600D01*
X24035300Y-14872600D02*
X25332000Y-13575900D01*
X25332000Y-13575900D02*
X33088800Y-13575900D01*
X33088800Y-13575900D02*
X34290000Y-14777100D01*
X34290000Y-14777100D02*
X34290000Y-15686900D01*
X34290000Y-15686900D02*
X35743900Y-17140800D01*
X35743900Y-17140800D02*
X37772400Y-17140800D01*
X37772400Y-17140800D02*
X47666500Y-27034900D01*
X47666500Y-27034900D02*
X59751100Y-27034900D01*
X59751100Y-27034900D02*
X62374700Y-24411300D01*
X62374700Y-24411300D02*
X62374700Y-24130000D01*
X62937400Y-24130000D02*
X66798100Y-27990700D01*
X66798100Y-27990700D02*
X84706100Y-27990700D01*
X62937400Y-24130000D02*
X62374700Y-24130000D01*
X63500000Y-24130000D02*
X62937400Y-24130000D01*
X22860000Y-15240000D02*
X24035300Y-15240000D01*
%TO.N,Rrd5*%
X26575300Y-15240000D02*
X26575300Y-14872700D01*
X26575300Y-14872700D02*
X27383400Y-14064600D01*
X27383400Y-14064600D02*
X30968800Y-14064600D01*
X30968800Y-14064600D02*
X31750000Y-14845800D01*
X31750000Y-14845800D02*
X31750000Y-15704500D01*
X31750000Y-15704500D02*
X34181600Y-18136100D01*
X34181600Y-18136100D02*
X37952400Y-18136100D01*
X37952400Y-18136100D02*
X47730700Y-27914400D01*
X47730700Y-27914400D02*
X58820400Y-27914400D01*
X58820400Y-27914400D02*
X62374700Y-31468700D01*
X62374700Y-31468700D02*
X62374700Y-31750000D01*
X63500000Y-31750000D02*
X66520500Y-28729500D01*
X66520500Y-28729500D02*
X85355800Y-28729500D01*
X85355800Y-28729500D02*
X85919400Y-28165900D01*
X63500000Y-31750000D02*
X62374700Y-31750000D01*
X25400000Y-15240000D02*
X26575300Y-15240000D01*
%TO.N,Rrd4*%
X94124700Y-44450000D02*
X94124700Y-44168600D01*
X94124700Y-44168600D02*
X93280800Y-43324700D01*
X93280800Y-43324700D02*
X82046100Y-43324700D01*
X82046100Y-43324700D02*
X81280000Y-44090800D01*
X81280000Y-44090800D02*
X81280000Y-44785800D01*
X81280000Y-44785800D02*
X79217300Y-46848500D01*
X79217300Y-46848500D02*
X61669300Y-46848500D01*
X61669300Y-46848500D02*
X59779600Y-44958800D01*
X95250000Y-44450000D02*
X94124700Y-44450000D01*
X55880000Y-31750000D02*
X55880000Y-30624700D01*
X27940000Y-15240000D02*
X29115300Y-15240000D01*
X29115300Y-15240000D02*
X29115300Y-15607300D01*
X29115300Y-15607300D02*
X35052200Y-21544200D01*
X35052200Y-21544200D02*
X38376000Y-21544200D01*
X38376000Y-21544200D02*
X45196600Y-28364800D01*
X45196600Y-28364800D02*
X53620100Y-28364800D01*
X53620100Y-28364800D02*
X55880000Y-30624700D01*
%TO.N,Rrd3*%
X95812700Y-52070000D02*
X88387600Y-59495100D01*
X88387600Y-59495100D02*
X66969100Y-59495100D01*
X66969100Y-59495100D02*
X56040400Y-48566400D01*
X56040400Y-48566400D02*
X30434300Y-48566400D01*
X30434300Y-48566400D02*
X17896400Y-36028500D01*
X17896400Y-36028500D02*
X17896400Y-29921500D01*
X17896400Y-29921500D02*
X22562600Y-25255300D01*
X22562600Y-25255300D02*
X24612200Y-25255300D01*
X24612200Y-25255300D02*
X25544700Y-24322800D01*
X25544700Y-24322800D02*
X25544700Y-24130000D01*
X26670000Y-24130000D02*
X25544700Y-24130000D01*
X95812700Y-52070000D02*
X96375300Y-52070000D01*
X95250000Y-52070000D02*
X95812700Y-52070000D01*
X96375300Y-52070000D02*
X96375300Y-51788700D01*
X96375300Y-51788700D02*
X99950900Y-48213100D01*
X99950900Y-48213100D02*
X109220000Y-48213100D01*
%TO.N,Rrd2*%
X60960000Y-88900000D02*
X59834700Y-88900000D01*
X59834700Y-88900000D02*
X59834700Y-89181300D01*
X59834700Y-89181300D02*
X58981100Y-90034900D01*
X58981100Y-90034900D02*
X57890500Y-90034900D01*
X57890500Y-90034900D02*
X57287000Y-89431400D01*
X57287000Y-89431400D02*
X57287000Y-88709500D01*
X57287000Y-88709500D02*
X53254600Y-84677100D01*
X53254600Y-84677100D02*
X43094400Y-84677100D01*
X35415300Y-24130000D02*
X35415300Y-24381400D01*
X35415300Y-24381400D02*
X42058000Y-31024100D01*
X42058000Y-31024100D02*
X43094400Y-31024100D01*
X34290000Y-24130000D02*
X35415300Y-24130000D01*
X90170000Y-52070000D02*
X91334800Y-53234800D01*
X91334800Y-53234800D02*
X93193600Y-53234800D01*
X93193600Y-53234800D02*
X93980000Y-52448400D01*
X93980000Y-52448400D02*
X93980000Y-51696500D01*
X93980000Y-51696500D02*
X98188700Y-47487800D01*
X98188700Y-47487800D02*
X106680000Y-47487800D01*
%TO.N,Rrd1*%
X89568800Y-33697700D02*
X102192300Y-33697700D01*
X102192300Y-33697700D02*
X104140000Y-31750000D01*
X35560000Y-15240000D02*
X36735300Y-15240000D01*
X36735300Y-15240000D02*
X36735300Y-16059700D01*
X36735300Y-16059700D02*
X37090900Y-16415300D01*
X37090900Y-16415300D02*
X37683800Y-16415300D01*
X37683800Y-16415300D02*
X47801000Y-26532500D01*
X47801000Y-26532500D02*
X57630400Y-26532500D01*
X57630400Y-26532500D02*
X59690000Y-24472900D01*
X59690000Y-24472900D02*
X59690000Y-23738700D01*
X59690000Y-23738700D02*
X60456300Y-22972400D01*
X60456300Y-22972400D02*
X69013900Y-22972400D01*
X69013900Y-22972400D02*
X72670500Y-26629000D01*
X72670500Y-26629000D02*
X87249100Y-26629000D01*
%TO.N,Rrd0*%
X79447400Y-52070000D02*
X84480000Y-47037400D01*
X84480000Y-47037400D02*
X98557500Y-47037400D01*
X98557500Y-47037400D02*
X101600000Y-43994900D01*
X79447400Y-52070000D02*
X78884700Y-52070000D01*
X80010000Y-52070000D02*
X79447400Y-52070000D01*
X78884700Y-53195300D02*
X83543800Y-57854400D01*
X83543800Y-57854400D02*
X83543800Y-58755800D01*
X26670000Y-32875300D02*
X26951300Y-32875300D01*
X26951300Y-32875300D02*
X38100000Y-44024000D01*
X38100000Y-44024000D02*
X38100000Y-44827800D01*
X38100000Y-44827800D02*
X39154600Y-45882400D01*
X39154600Y-45882400D02*
X58901200Y-45882400D01*
X58901200Y-45882400D02*
X66214100Y-53195300D01*
X66214100Y-53195300D02*
X78884700Y-53195300D01*
X78884700Y-52070000D02*
X78884700Y-53195300D01*
X26670000Y-31750000D02*
X26670000Y-32875300D01*
%TO.N,Rrs7*%
X34058800Y-37624200D02*
X44842400Y-37624200D01*
X44842400Y-37624200D02*
X52642600Y-29824000D01*
X52642600Y-29824000D02*
X54031600Y-29824000D01*
%TO.N,Rrs6*%
X34290000Y-67454700D02*
X48260000Y-53484700D01*
X48260000Y-53484700D02*
X48260000Y-51742500D01*
X48260000Y-51742500D02*
X50260500Y-49742000D01*
X50260500Y-49742000D02*
X55553300Y-49742000D01*
X34290000Y-68580000D02*
X34290000Y-67454700D01*
%TO.N,Rrs5*%
X59834700Y-31750000D02*
X59834700Y-32031300D01*
X59834700Y-32031300D02*
X52583000Y-39283000D01*
X52583000Y-39283000D02*
X34388100Y-39283000D01*
X60960000Y-31750000D02*
X59834700Y-31750000D01*
%TO.N,Rrs4*%
X52214700Y-31750000D02*
X45612300Y-38352400D01*
X45612300Y-38352400D02*
X35436800Y-38352400D01*
X53340000Y-31750000D02*
X52214700Y-31750000D01*
%TO.N,Rrs3*%
X75024700Y-15240000D02*
X75024700Y-14872600D01*
X75024700Y-14872600D02*
X74216800Y-14064700D01*
X74216800Y-14064700D02*
X63643700Y-14064700D01*
X63643700Y-14064700D02*
X63371700Y-14336700D01*
X63371700Y-14336700D02*
X44855000Y-14336700D01*
X44855000Y-14336700D02*
X43158600Y-12640300D01*
X43158600Y-12640300D02*
X21184200Y-12640300D01*
X21184200Y-12640300D02*
X19115400Y-14709100D01*
X19115400Y-14709100D02*
X19115400Y-15711500D01*
X19115400Y-15711500D02*
X26408600Y-23004700D01*
X26408600Y-23004700D02*
X27240800Y-23004700D01*
X27240800Y-23004700D02*
X28084700Y-23848600D01*
X28084700Y-23848600D02*
X28084700Y-24130000D01*
X76200000Y-15240000D02*
X75024700Y-15240000D01*
X29210000Y-24130000D02*
X28084700Y-24130000D01*
%TO.N,Rrs2*%
X78740000Y-15240000D02*
X77564700Y-15240000D01*
X77564700Y-15240000D02*
X77564700Y-14872700D01*
X77564700Y-14872700D02*
X76287800Y-13595800D01*
X76287800Y-13595800D02*
X46526100Y-13595800D01*
%TO.N,Rrs1*%
X32875300Y-31750000D02*
X32875300Y-32031400D01*
X32875300Y-32031400D02*
X33719200Y-32875300D01*
X33719200Y-32875300D02*
X48954400Y-32875300D01*
X48954400Y-32875300D02*
X52735900Y-29093800D01*
X80104700Y-15240000D02*
X80104700Y-15607300D01*
X80104700Y-15607300D02*
X74090600Y-21621400D01*
X74090600Y-21621400D02*
X57150000Y-21621400D01*
X31750000Y-31750000D02*
X32875300Y-31750000D01*
X81280000Y-15240000D02*
X80104700Y-15240000D01*
%TO.N,Rrs0*%
X24130000Y-31750000D02*
X24130000Y-32875300D01*
X24130000Y-32875300D02*
X24411300Y-32875300D01*
X24411300Y-32875300D02*
X35560000Y-44024000D01*
X35560000Y-44024000D02*
X35560000Y-44809500D01*
X35560000Y-44809500D02*
X37595900Y-46845400D01*
X37595900Y-46845400D02*
X55492800Y-46845400D01*
X55492800Y-46845400D02*
X61154800Y-52507400D01*
%TO.N,imm2*%
X96520000Y-31750000D02*
X97645300Y-31750000D01*
X119380000Y-20320000D02*
X118204700Y-20320000D01*
X118204700Y-20320000D02*
X118204700Y-20687300D01*
X118204700Y-20687300D02*
X108876900Y-30015100D01*
X108876900Y-30015100D02*
X99098900Y-30015100D01*
X99098900Y-30015100D02*
X97645300Y-31468700D01*
X97645300Y-31468700D02*
X97645300Y-31750000D01*
%TO.N,imm1*%
X120744700Y-20320000D02*
X120744700Y-19952600D01*
X120744700Y-19952600D02*
X119936800Y-19144700D01*
X119936800Y-19144700D02*
X116341200Y-19144700D01*
X116341200Y-19144700D02*
X113669400Y-21816500D01*
X113669400Y-21816500D02*
X113669400Y-23812200D01*
X113669400Y-23812200D02*
X108207800Y-29273800D01*
X108207800Y-29273800D02*
X97300200Y-29273800D01*
X97300200Y-29273800D02*
X95105300Y-31468700D01*
X95105300Y-31468700D02*
X95105300Y-31750000D01*
X121920000Y-20320000D02*
X120744700Y-20320000D01*
X93980000Y-31750000D02*
X95105300Y-31750000D01*
%TO.N,imm0*%
X91440000Y-31750000D02*
X92565300Y-31750000D01*
X124460000Y-20320000D02*
X123284700Y-20320000D01*
X123284700Y-20320000D02*
X123284700Y-20687300D01*
X123284700Y-20687300D02*
X113402300Y-30569700D01*
X113402300Y-30569700D02*
X103728700Y-30569700D01*
X103728700Y-30569700D02*
X102870000Y-31428400D01*
X102870000Y-31428400D02*
X102870000Y-32152000D01*
X102870000Y-32152000D02*
X102146700Y-32875300D01*
X102146700Y-32875300D02*
X93409200Y-32875300D01*
X93409200Y-32875300D02*
X92565300Y-32031400D01*
X92565300Y-32031400D02*
X92565300Y-31750000D01*
%TO.N,sliwb*%
X59690000Y-116840000D02*
X66190000Y-116840000D01*
X54610000Y-116840000D02*
X59690000Y-116840000D01*
%TO.N,nandwb*%
X38100000Y-116840000D02*
X44600000Y-116840000D01*
X31750000Y-116840000D02*
X38100000Y-116840000D01*
%TO.N,addwb*%
X106680000Y-115570000D02*
X105308700Y-116941300D01*
X105308700Y-116941300D02*
X105308700Y-121177600D01*
X105308700Y-121177600D02*
X107717700Y-123586600D01*
X107717700Y-123586600D02*
X107717700Y-130252800D01*
X107717700Y-130252800D02*
X104575900Y-133394600D01*
X104575900Y-133394600D02*
X103064000Y-133394600D01*
X103064000Y-133394600D02*
X91748400Y-144710200D01*
X91748400Y-144710200D02*
X74398200Y-144710200D01*
X74398200Y-144710200D02*
X73565300Y-143877300D01*
X73565300Y-143877300D02*
X73565300Y-143510000D01*
X72390000Y-143510000D02*
X73565300Y-143510000D01*
X106680000Y-115570000D02*
X113180000Y-115570000D01*
X101600000Y-115570000D02*
X106680000Y-115570000D01*
%TO.N,incdec*%
X24130000Y-76200000D02*
X25255300Y-76200000D01*
X31750000Y-76200000D02*
X30624700Y-76200000D01*
X30624700Y-76200000D02*
X30624700Y-75918700D01*
X30624700Y-75918700D02*
X29780700Y-75074700D01*
X29780700Y-75074700D02*
X26099200Y-75074700D01*
X26099200Y-75074700D02*
X25255300Y-75918600D01*
X25255300Y-75918600D02*
X25255300Y-76200000D01*
X54610000Y-76200000D02*
X55735300Y-76200000D01*
X55735300Y-76200000D02*
X55735300Y-75918700D01*
X55735300Y-75918700D02*
X56592900Y-75061100D01*
X56592900Y-75061100D02*
X61091100Y-75061100D01*
X61091100Y-75061100D02*
X62230000Y-76200000D01*
X74930000Y-105410000D02*
X59289600Y-105410000D01*
X59289600Y-105410000D02*
X54195600Y-100316000D01*
X59690000Y-68580000D02*
X58564700Y-68580000D01*
X58564700Y-68580000D02*
X58564700Y-68861300D01*
X58564700Y-68861300D02*
X56448400Y-70977600D01*
X56448400Y-70977600D02*
X36830000Y-70977600D01*
X59690000Y-68580000D02*
X60815300Y-68580000D01*
X67310000Y-68580000D02*
X66184700Y-68580000D01*
X66184700Y-68580000D02*
X66184700Y-68861300D01*
X66184700Y-68861300D02*
X65340700Y-69705300D01*
X65340700Y-69705300D02*
X61659200Y-69705300D01*
X61659200Y-69705300D02*
X60815300Y-68861400D01*
X60815300Y-68861400D02*
X60815300Y-68580000D01*
%TO.N,addsub*%
X99767400Y-68580000D02*
X100892700Y-67454700D01*
X100892700Y-67454700D02*
X124460000Y-67454700D01*
X124460000Y-68580000D02*
X124460000Y-67454700D01*
X124460000Y-67454700D02*
X130110800Y-67454700D01*
X130110800Y-67454700D02*
X130954700Y-68298600D01*
X130954700Y-68298600D02*
X130954700Y-68580000D01*
X99767400Y-68580000D02*
X99204700Y-68580000D01*
X100330000Y-68580000D02*
X99767400Y-68580000D01*
X92710000Y-68580000D02*
X93835300Y-68580000D01*
X93835300Y-68580000D02*
X93835300Y-68861300D01*
X93835300Y-68861300D02*
X94679300Y-69705300D01*
X94679300Y-69705300D02*
X98360800Y-69705300D01*
X98360800Y-69705300D02*
X99204700Y-68861400D01*
X99204700Y-68861400D02*
X99204700Y-68580000D01*
X90170000Y-110490000D02*
X89144700Y-110490000D01*
X66740300Y-109502500D02*
X68753100Y-111515300D01*
X68753100Y-111515300D02*
X88119400Y-111515300D01*
X88119400Y-111515300D02*
X89144700Y-110490000D01*
X132080000Y-68580000D02*
X130954700Y-68580000D01*
%TO.N,Net-(U2-Pad6)*%
X64914700Y-31750000D02*
X64914700Y-31972900D01*
X64914700Y-31972900D02*
X57478300Y-39409300D01*
X57478300Y-39409300D02*
X55880000Y-39409300D01*
X66040000Y-31750000D02*
X64914700Y-31750000D01*
%TO.N,Net-(U5-Pad9)*%
X110490000Y-95394700D02*
X114176400Y-91708300D01*
X114176400Y-91708300D02*
X114176400Y-88447400D01*
X114176400Y-88447400D02*
X111341300Y-85612300D01*
X111341300Y-85612300D02*
X83733700Y-85612300D01*
X83733700Y-85612300D02*
X82068900Y-87277100D01*
X82068900Y-87277100D02*
X68609900Y-87277100D01*
X68609900Y-87277100D02*
X67310000Y-88577000D01*
X67310000Y-88577000D02*
X67310000Y-89275800D01*
X67310000Y-89275800D02*
X65080800Y-91505000D01*
X65080800Y-91505000D02*
X42819000Y-91505000D01*
X42819000Y-91505000D02*
X40495300Y-89181300D01*
X40495300Y-89181300D02*
X40495300Y-88900000D01*
X39370000Y-88900000D02*
X40495300Y-88900000D01*
X110490000Y-96520000D02*
X110490000Y-95394700D01*
%TO.N,Net-(U5-Pad8)*%
X106824700Y-96520000D02*
X106824700Y-96801300D01*
X106824700Y-96801300D02*
X103676400Y-99949600D01*
X103676400Y-99949600D02*
X55683300Y-99949600D01*
X55683300Y-99949600D02*
X54874100Y-99140400D01*
X54874100Y-99140400D02*
X32744100Y-99140400D01*
X32744100Y-99140400D02*
X30624700Y-97021000D01*
X30624700Y-97021000D02*
X30624700Y-91150600D01*
X30624700Y-91150600D02*
X31750000Y-90025300D01*
X31750000Y-88900000D02*
X31750000Y-90025300D01*
X107950000Y-96520000D02*
X106824700Y-96520000D01*
%TO.N,Net-(U5-Pad7)*%
X105410000Y-96520000D02*
X106535300Y-95394700D01*
X106535300Y-95394700D02*
X108479000Y-95394700D01*
X108479000Y-95394700D02*
X109127400Y-96043100D01*
X109127400Y-96043100D02*
X109127400Y-96969500D01*
X109127400Y-96969500D02*
X105697000Y-100399900D01*
X105697000Y-100399900D02*
X55496700Y-100399900D01*
X55496700Y-100399900D02*
X54687500Y-99590700D01*
X54687500Y-99590700D02*
X28044700Y-99590700D01*
X28044700Y-99590700D02*
X25255300Y-96801300D01*
X25255300Y-96801300D02*
X25255300Y-96520000D01*
X24130000Y-96520000D02*
X25255300Y-96520000D01*
%TO.N,Net-(U5-Pad6)*%
X32875300Y-96520000D02*
X32875300Y-96778300D01*
X32875300Y-96778300D02*
X34787100Y-98690100D01*
X34787100Y-98690100D02*
X57533200Y-98690100D01*
X57533200Y-98690100D02*
X58342400Y-99499300D01*
X58342400Y-99499300D02*
X99046800Y-99499300D01*
X99046800Y-99499300D02*
X101744700Y-96801400D01*
X101744700Y-96801400D02*
X101744700Y-96520000D01*
X102870000Y-96520000D02*
X101744700Y-96520000D01*
X31750000Y-96520000D02*
X32875300Y-96520000D01*
%TO.N,Net-(U5-Pad5)*%
X100330000Y-96520000D02*
X102127700Y-94722300D01*
X102127700Y-94722300D02*
X106330300Y-94722300D01*
X106330300Y-94722300D02*
X111630400Y-89422200D01*
X111630400Y-89422200D02*
X111630400Y-88428000D01*
X111630400Y-88428000D02*
X109265000Y-86062600D01*
X109265000Y-86062600D02*
X84672100Y-86062600D01*
X84672100Y-86062600D02*
X83007200Y-87727500D01*
X83007200Y-87727500D02*
X72292500Y-87727500D01*
X72292500Y-87727500D02*
X71120000Y-88900000D01*
%TO.N,Net-(U5-Pad4)*%
X97790000Y-96520000D02*
X96664700Y-96520000D01*
X64459200Y-98726900D02*
X94739100Y-98726900D01*
X94739100Y-98726900D02*
X96664700Y-96801300D01*
X96664700Y-96801300D02*
X96664700Y-96520000D01*
%TO.N,Net-(U5-Pad3)*%
X94124700Y-96520000D02*
X94124700Y-96727400D01*
X94124700Y-96727400D02*
X92756500Y-98095600D01*
X92756500Y-98095600D02*
X64853700Y-98095600D01*
X64853700Y-98095600D02*
X64759700Y-98001600D01*
X64759700Y-98001600D02*
X58205500Y-98001600D01*
X58205500Y-98001600D02*
X57005300Y-96801400D01*
X57005300Y-96801400D02*
X57005300Y-96520000D01*
X95250000Y-96520000D02*
X94124700Y-96520000D01*
X55880000Y-96520000D02*
X57005300Y-96520000D01*
%TO.N,Net-(U5-Pad2)*%
X91584700Y-96520000D02*
X91584700Y-97223400D01*
X91584700Y-97223400D02*
X91162800Y-97645300D01*
X91162800Y-97645300D02*
X65514500Y-97645300D01*
X65514500Y-97645300D02*
X64625300Y-96756100D01*
X64625300Y-96756100D02*
X64625300Y-96520000D01*
X92710000Y-96520000D02*
X91584700Y-96520000D01*
X63500000Y-96520000D02*
X64625300Y-96520000D01*
%TO.N,Net-(U6-Pad15)*%
X102870000Y-72207200D02*
X102611500Y-71948700D01*
X102611500Y-71948700D02*
X19043000Y-71948700D01*
X19043000Y-71948700D02*
X16608300Y-74383400D01*
X16608300Y-74383400D02*
X16608300Y-77713000D01*
X16608300Y-77713000D02*
X26670000Y-87774700D01*
X26670000Y-88900000D02*
X26670000Y-87774700D01*
%TO.N,Net-(U6-Pad7)*%
X72534700Y-88900000D02*
X72534700Y-89181300D01*
X72534700Y-89181300D02*
X69711100Y-92004900D01*
X69711100Y-92004900D02*
X44831400Y-92004900D01*
X44831400Y-92004900D02*
X40495300Y-96341000D01*
X40495300Y-96341000D02*
X40495300Y-96520000D01*
X73660000Y-88900000D02*
X72534700Y-88900000D01*
X39370000Y-96520000D02*
X40495300Y-96520000D01*
%TO.N,Net-(U6-Pad6)*%
X35435000Y-82531800D02*
X38390000Y-79576800D01*
X38390000Y-79576800D02*
X88489200Y-79576800D01*
X88489200Y-79576800D02*
X91584700Y-76481300D01*
X91584700Y-76481300D02*
X91584700Y-76200000D01*
X92710000Y-76200000D02*
X91584700Y-76200000D01*
%TO.N,Net-(U6-Pad11)*%
X37955300Y-88900000D02*
X37955300Y-88722800D01*
X37955300Y-88722800D02*
X43563400Y-83114700D01*
X43563400Y-83114700D02*
X95012200Y-83114700D01*
X95012200Y-83114700D02*
X101507400Y-76619500D01*
X101507400Y-76619500D02*
X101507400Y-75723100D01*
X101507400Y-75723100D02*
X99742600Y-73958300D01*
X99742600Y-73958300D02*
X95777600Y-73958300D01*
X95777600Y-73958300D02*
X95393900Y-73574600D01*
X36830000Y-88900000D02*
X37955300Y-88900000D01*
%TO.N,Net-(U6-Pad2)*%
X26670000Y-96520000D02*
X26670000Y-93240200D01*
X26670000Y-93240200D02*
X30480000Y-89430200D01*
X30480000Y-89430200D02*
X30480000Y-88516500D01*
X30480000Y-88516500D02*
X38834600Y-80161900D01*
X38834600Y-80161900D02*
X95524100Y-80161900D01*
X95524100Y-80161900D02*
X99204700Y-76481300D01*
X99204700Y-76481300D02*
X99204700Y-76200000D01*
X100330000Y-76200000D02*
X99204700Y-76200000D01*
%TO.N,Net-(U7-Pad15)*%
X137160000Y-69705300D02*
X136878700Y-69705300D01*
X136878700Y-69705300D02*
X130810000Y-75774000D01*
X130810000Y-75774000D02*
X130810000Y-76603000D01*
X130810000Y-76603000D02*
X122701300Y-84711700D01*
X122701300Y-84711700D02*
X82086600Y-84711700D01*
X82086600Y-84711700D02*
X80564200Y-86234100D01*
X80564200Y-86234100D02*
X61085900Y-86234100D01*
X61085900Y-86234100D02*
X58420000Y-88900000D01*
X137160000Y-68580000D02*
X137160000Y-69705300D01*
%TO.N,Net-(U7-Pad6)*%
X125874700Y-76200000D02*
X125874700Y-76406100D01*
X125874700Y-76406100D02*
X118019400Y-84261400D01*
X118019400Y-84261400D02*
X79464200Y-84261400D01*
X79464200Y-84261400D02*
X79226000Y-84499600D01*
X127000000Y-76200000D02*
X125874700Y-76200000D01*
%TO.N,Net-(U7-Pad11)*%
X88458300Y-65976300D02*
X128513900Y-65976300D01*
%TO.N,Net-(U7-Pad2)*%
X133494700Y-76200000D02*
X133494700Y-76405900D01*
X133494700Y-76405900D02*
X124738600Y-85162000D01*
X124738600Y-85162000D02*
X83547000Y-85162000D01*
X83547000Y-85162000D02*
X81882500Y-86826500D01*
X81882500Y-86826500D02*
X66444600Y-86826500D01*
X66444600Y-86826500D02*
X64770000Y-88501100D01*
X64770000Y-88501100D02*
X64770000Y-89224200D01*
X64770000Y-89224200D02*
X63224400Y-90769800D01*
X63224400Y-90769800D02*
X58420000Y-90769800D01*
X134620000Y-76200000D02*
X133494700Y-76200000D01*
%TO.N,Net-(U10-Pad11)*%
X32875300Y-68580000D02*
X32875300Y-68861400D01*
X32875300Y-68861400D02*
X33719200Y-69705300D01*
X33719200Y-69705300D02*
X42714200Y-69705300D01*
X42714200Y-69705300D02*
X45462700Y-66956800D01*
X45462700Y-66956800D02*
X87702800Y-66956800D01*
X87702800Y-66956800D02*
X89044700Y-68298700D01*
X89044700Y-68298700D02*
X89044700Y-68580000D01*
X31750000Y-68580000D02*
X32875300Y-68580000D01*
X90170000Y-68580000D02*
X89044700Y-68580000D01*
%TO.N,Net-(U10-Pad6)*%
X96664700Y-76200000D02*
X96664700Y-75918600D01*
X96664700Y-75918600D02*
X95820800Y-75074700D01*
X95820800Y-75074700D02*
X85101000Y-75074700D01*
X85101000Y-75074700D02*
X81949800Y-78225900D01*
X81949800Y-78225900D02*
X38855900Y-78225900D01*
X38855900Y-78225900D02*
X36830000Y-76200000D01*
X97790000Y-76200000D02*
X96664700Y-76200000D01*
%TO.N,Net-(U10-Pad8)*%
X40495300Y-68580000D02*
X42594600Y-66480700D01*
X42594600Y-66480700D02*
X87937000Y-66480700D01*
X87937000Y-66480700D02*
X88157900Y-66701600D01*
X88157900Y-66701600D02*
X95067600Y-66701600D01*
X95067600Y-66701600D02*
X96664700Y-68298700D01*
X96664700Y-68298700D02*
X96664700Y-68580000D01*
X39370000Y-68580000D02*
X40495300Y-68580000D01*
X97790000Y-68580000D02*
X96664700Y-68580000D01*
%TO.N,Net-(U10-Pad3)*%
X90170000Y-76200000D02*
X89044700Y-76200000D01*
X89044700Y-76200000D02*
X89044700Y-76903300D01*
X89044700Y-76903300D02*
X87254000Y-78694000D01*
X87254000Y-78694000D02*
X31704000Y-78694000D01*
X31704000Y-78694000D02*
X29210000Y-76200000D01*
%TO.N,Net-(U11-Pad11)*%
X125874700Y-68580000D02*
X125874700Y-68861300D01*
X125874700Y-68861300D02*
X123760000Y-70976000D01*
X123760000Y-70976000D02*
X76042600Y-70976000D01*
X76042600Y-70976000D02*
X72521300Y-67454700D01*
X72521300Y-67454700D02*
X64199200Y-67454700D01*
X64199200Y-67454700D02*
X63355300Y-68298600D01*
X63355300Y-68298600D02*
X63355300Y-68580000D01*
X62230000Y-68580000D02*
X63355300Y-68580000D01*
X127000000Y-68580000D02*
X125874700Y-68580000D01*
%TO.N,Net-(U11-Pad6)*%
X128414700Y-76200000D02*
X128414700Y-75918700D01*
X128414700Y-75918700D02*
X125518600Y-73022600D01*
X125518600Y-73022600D02*
X96504600Y-73022600D01*
X96504600Y-73022600D02*
X95881000Y-72399000D01*
X95881000Y-72399000D02*
X71955000Y-72399000D01*
X71955000Y-72399000D02*
X68435300Y-75918700D01*
X68435300Y-75918700D02*
X68435300Y-76200000D01*
X67310000Y-76200000D02*
X68435300Y-76200000D01*
X129540000Y-76200000D02*
X128414700Y-76200000D01*
%TO.N,Net-(U11-Pad8)*%
X70975300Y-68580000D02*
X73821900Y-71426600D01*
X73821900Y-71426600D02*
X130929500Y-71426600D01*
X130929500Y-71426600D02*
X133494700Y-68861400D01*
X133494700Y-68861400D02*
X133494700Y-68580000D01*
X69850000Y-68580000D02*
X70975300Y-68580000D01*
X134620000Y-68580000D02*
X133494700Y-68580000D01*
%TO.N,Net-(U11-Pad3)*%
X120794700Y-76200000D02*
X118067600Y-73472900D01*
X118067600Y-73472900D02*
X96318000Y-73472900D01*
X96318000Y-73472900D02*
X95694400Y-72849300D01*
X95694400Y-72849300D02*
X86316100Y-72849300D01*
X86316100Y-72849300D02*
X81389800Y-77775600D01*
X81389800Y-77775600D02*
X62198100Y-77775600D01*
X62198100Y-77775600D02*
X60815300Y-76392800D01*
X60815300Y-76392800D02*
X60815300Y-76200000D01*
X59690000Y-76200000D02*
X60815300Y-76200000D01*
X121920000Y-76200000D02*
X120794700Y-76200000D01*
%TD*%
M02*
