%TF.GenerationSoftware,KiCad,Pcbnew,5.1.6-c6e7f7d~87~ubuntu16.04.1*%
%TF.CreationDate,2021-01-23T13:40:13-05:00*%
%TF.ProjectId,riscyalu,72697363-7961-46c7-952e-6b696361645f,rev?*%
%TF.SameCoordinates,Original*%
%TF.FileFunction,Legend,Top*%
%TF.FilePolarity,Positive*%
%FSLAX46Y46*%
G04 Gerber Fmt 4.6, Leading zero omitted, Abs format (unit mm)*
G04 Created by KiCad (PCBNEW 5.1.6-c6e7f7d~87~ubuntu16.04.1) date 2021-01-23 13:40:13*
%MOMM*%
%LPD*%
G01*
G04 APERTURE LIST*
%ADD10C,0.120000*%
%ADD11C,0.150000*%
G04 APERTURE END LIST*
D10*
%TO.C,J10*%
X120590000Y-11370000D02*
X120590000Y-14030000D01*
X123190000Y-11370000D02*
X120590000Y-11370000D01*
X123190000Y-14030000D02*
X120590000Y-14030000D01*
X123190000Y-11370000D02*
X123190000Y-14030000D01*
X124460000Y-11370000D02*
X125790000Y-11370000D01*
X125790000Y-11370000D02*
X125790000Y-12700000D01*
%TO.C,SW3*%
X107680000Y-121070000D02*
X112180000Y-121070000D01*
X106430000Y-117070000D02*
X106430000Y-118570000D01*
X112180000Y-114570000D02*
X107680000Y-114570000D01*
X113430000Y-118570000D02*
X113430000Y-117070000D01*
%TO.C,SW2*%
X60690000Y-122340000D02*
X65190000Y-122340000D01*
X59440000Y-118340000D02*
X59440000Y-119840000D01*
X65190000Y-115840000D02*
X60690000Y-115840000D01*
X66440000Y-119840000D02*
X66440000Y-118340000D01*
%TO.C,SW1*%
X39100000Y-122340000D02*
X43600000Y-122340000D01*
X37850000Y-118340000D02*
X37850000Y-119840000D01*
X43600000Y-115840000D02*
X39100000Y-115840000D01*
X44850000Y-119840000D02*
X44850000Y-118340000D01*
%TO.C,R21*%
X102520000Y-116190000D02*
X102520000Y-120030000D01*
X100680000Y-116190000D02*
X100680000Y-120030000D01*
%TO.C,R20*%
X55530000Y-117460000D02*
X55530000Y-121300000D01*
X53690000Y-117460000D02*
X53690000Y-121300000D01*
%TO.C,R19*%
X32670000Y-117460000D02*
X32670000Y-121300000D01*
X30830000Y-117460000D02*
X30830000Y-121300000D01*
%TO.C,J9*%
X145990000Y-20260000D02*
X147320000Y-20260000D01*
X145990000Y-21590000D02*
X145990000Y-20260000D01*
X145990000Y-22860000D02*
X148650000Y-22860000D01*
X148650000Y-22860000D02*
X148650000Y-28000000D01*
X145990000Y-22860000D02*
X145990000Y-28000000D01*
X145990000Y-28000000D02*
X148650000Y-28000000D01*
%TO.C,R18*%
X48880000Y-126080000D02*
X52720000Y-126080000D01*
X48880000Y-127920000D02*
X52720000Y-127920000D01*
%TO.C,R17*%
X57770000Y-126080000D02*
X61610000Y-126080000D01*
X57770000Y-127920000D02*
X61610000Y-127920000D01*
%TO.C,R16*%
X66660000Y-126080000D02*
X70500000Y-126080000D01*
X66660000Y-127920000D02*
X70500000Y-127920000D01*
%TO.C,R15*%
X75550000Y-126080000D02*
X79390000Y-126080000D01*
X75550000Y-127920000D02*
X79390000Y-127920000D01*
%TO.C,R14*%
X84440000Y-126080000D02*
X88280000Y-126080000D01*
X84440000Y-127920000D02*
X88280000Y-127920000D01*
%TO.C,R13*%
X93330000Y-126080000D02*
X97170000Y-126080000D01*
X93330000Y-127920000D02*
X97170000Y-127920000D01*
%TO.C,R12*%
X102220000Y-126080000D02*
X106060000Y-126080000D01*
X102220000Y-127920000D02*
X106060000Y-127920000D01*
%TO.C,R11*%
X111110000Y-126080000D02*
X114950000Y-126080000D01*
X111110000Y-127920000D02*
X114950000Y-127920000D01*
%TO.C,D18*%
X53300000Y-133350000D02*
G75*
G03*
X53300000Y-133350000I-2500000J0D01*
G01*
X49255000Y-135910000D02*
X52345000Y-135910000D01*
X50799538Y-130360000D02*
G75*
G02*
X52344830Y-135910000I462J-2990000D01*
G01*
X50800462Y-130360000D02*
G75*
G03*
X49255170Y-135910000I-462J-2990000D01*
G01*
%TO.C,D17*%
X62190000Y-133350000D02*
G75*
G03*
X62190000Y-133350000I-2500000J0D01*
G01*
X58145000Y-135910000D02*
X61235000Y-135910000D01*
X59689538Y-130360000D02*
G75*
G02*
X61234830Y-135910000I462J-2990000D01*
G01*
X59690462Y-130360000D02*
G75*
G03*
X58145170Y-135910000I-462J-2990000D01*
G01*
%TO.C,D16*%
X71080000Y-133350000D02*
G75*
G03*
X71080000Y-133350000I-2500000J0D01*
G01*
X67035000Y-135910000D02*
X70125000Y-135910000D01*
X68579538Y-130360000D02*
G75*
G02*
X70124830Y-135910000I462J-2990000D01*
G01*
X68580462Y-130360000D02*
G75*
G03*
X67035170Y-135910000I-462J-2990000D01*
G01*
%TO.C,D15*%
X79970000Y-133350000D02*
G75*
G03*
X79970000Y-133350000I-2500000J0D01*
G01*
X75925000Y-135910000D02*
X79015000Y-135910000D01*
X77469538Y-130360000D02*
G75*
G02*
X79014830Y-135910000I462J-2990000D01*
G01*
X77470462Y-130360000D02*
G75*
G03*
X75925170Y-135910000I-462J-2990000D01*
G01*
%TO.C,D14*%
X88860000Y-133350000D02*
G75*
G03*
X88860000Y-133350000I-2500000J0D01*
G01*
X84815000Y-135910000D02*
X87905000Y-135910000D01*
X86359538Y-130360000D02*
G75*
G02*
X87904830Y-135910000I462J-2990000D01*
G01*
X86360462Y-130360000D02*
G75*
G03*
X84815170Y-135910000I-462J-2990000D01*
G01*
%TO.C,D13*%
X97750000Y-133350000D02*
G75*
G03*
X97750000Y-133350000I-2500000J0D01*
G01*
X93705000Y-135910000D02*
X96795000Y-135910000D01*
X95249538Y-130360000D02*
G75*
G02*
X96794830Y-135910000I462J-2990000D01*
G01*
X95250462Y-130360000D02*
G75*
G03*
X93705170Y-135910000I-462J-2990000D01*
G01*
%TO.C,D12*%
X106640000Y-133350000D02*
G75*
G03*
X106640000Y-133350000I-2500000J0D01*
G01*
X102595000Y-135910000D02*
X105685000Y-135910000D01*
X104139538Y-130360000D02*
G75*
G02*
X105684830Y-135910000I462J-2990000D01*
G01*
X104140462Y-130360000D02*
G75*
G03*
X102595170Y-135910000I-462J-2990000D01*
G01*
%TO.C,D11*%
X115530000Y-133350000D02*
G75*
G03*
X115530000Y-133350000I-2500000J0D01*
G01*
X111485000Y-135910000D02*
X114575000Y-135910000D01*
X113029538Y-130360000D02*
G75*
G02*
X114574830Y-135910000I462J-2990000D01*
G01*
X113030462Y-130360000D02*
G75*
G03*
X111485170Y-135910000I-462J-2990000D01*
G01*
%TO.C,U13*%
X119320000Y-49260000D02*
X119320000Y-50910000D01*
X119320000Y-50910000D02*
X137220000Y-50910000D01*
X137220000Y-50910000D02*
X137220000Y-45610000D01*
X137220000Y-45610000D02*
X119320000Y-45610000D01*
X119320000Y-45610000D02*
X119320000Y-47260000D01*
X119320000Y-47260000D02*
G75*
G02*
X119320000Y-49260000I0J-1000000D01*
G01*
%TO.C,U12*%
X73600000Y-49260000D02*
X73600000Y-50910000D01*
X73600000Y-50910000D02*
X99120000Y-50910000D01*
X99120000Y-50910000D02*
X99120000Y-45610000D01*
X99120000Y-45610000D02*
X73600000Y-45610000D01*
X73600000Y-45610000D02*
X73600000Y-47260000D01*
X73600000Y-47260000D02*
G75*
G02*
X73600000Y-49260000I0J-1000000D01*
G01*
%TO.C,U11*%
X53280000Y-73390000D02*
X53280000Y-75040000D01*
X53280000Y-75040000D02*
X71180000Y-75040000D01*
X71180000Y-75040000D02*
X71180000Y-69740000D01*
X71180000Y-69740000D02*
X53280000Y-69740000D01*
X53280000Y-69740000D02*
X53280000Y-71390000D01*
X53280000Y-71390000D02*
G75*
G02*
X53280000Y-73390000I0J-1000000D01*
G01*
%TO.C,U10*%
X22800000Y-73390000D02*
X22800000Y-75040000D01*
X22800000Y-75040000D02*
X40700000Y-75040000D01*
X40700000Y-75040000D02*
X40700000Y-69740000D01*
X40700000Y-69740000D02*
X22800000Y-69740000D01*
X22800000Y-69740000D02*
X22800000Y-71390000D01*
X22800000Y-71390000D02*
G75*
G02*
X22800000Y-73390000I0J-1000000D01*
G01*
%TO.C,U9*%
X120590000Y-73390000D02*
X120590000Y-75040000D01*
X120590000Y-75040000D02*
X138490000Y-75040000D01*
X138490000Y-75040000D02*
X138490000Y-69740000D01*
X138490000Y-69740000D02*
X120590000Y-69740000D01*
X120590000Y-69740000D02*
X120590000Y-71390000D01*
X120590000Y-71390000D02*
G75*
G02*
X120590000Y-73390000I0J-1000000D01*
G01*
%TO.C,U8*%
X86300000Y-73390000D02*
X86300000Y-75040000D01*
X86300000Y-75040000D02*
X104200000Y-75040000D01*
X104200000Y-75040000D02*
X104200000Y-69740000D01*
X104200000Y-69740000D02*
X86300000Y-69740000D01*
X86300000Y-69740000D02*
X86300000Y-71390000D01*
X86300000Y-71390000D02*
G75*
G02*
X86300000Y-73390000I0J-1000000D01*
G01*
%TO.C,U7*%
X54550000Y-93710000D02*
X54550000Y-95360000D01*
X54550000Y-95360000D02*
X74990000Y-95360000D01*
X74990000Y-95360000D02*
X74990000Y-90060000D01*
X74990000Y-90060000D02*
X54550000Y-90060000D01*
X54550000Y-90060000D02*
X54550000Y-91710000D01*
X54550000Y-91710000D02*
G75*
G02*
X54550000Y-93710000I0J-1000000D01*
G01*
%TO.C,U6*%
X22800000Y-93710000D02*
X22800000Y-95360000D01*
X22800000Y-95360000D02*
X43240000Y-95360000D01*
X43240000Y-95360000D02*
X43240000Y-90060000D01*
X43240000Y-90060000D02*
X22800000Y-90060000D01*
X22800000Y-90060000D02*
X22800000Y-91710000D01*
X22800000Y-91710000D02*
G75*
G02*
X22800000Y-93710000I0J-1000000D01*
G01*
%TO.C,U5*%
X88840000Y-93710000D02*
X88840000Y-95360000D01*
X88840000Y-95360000D02*
X114360000Y-95360000D01*
X114360000Y-95360000D02*
X114360000Y-90060000D01*
X114360000Y-90060000D02*
X88840000Y-90060000D01*
X88840000Y-90060000D02*
X88840000Y-91710000D01*
X88840000Y-91710000D02*
G75*
G02*
X88840000Y-93710000I0J-1000000D01*
G01*
%TO.C,U4*%
X87570000Y-28940000D02*
X87570000Y-30590000D01*
X87570000Y-30590000D02*
X113090000Y-30590000D01*
X113090000Y-30590000D02*
X113090000Y-25290000D01*
X113090000Y-25290000D02*
X87570000Y-25290000D01*
X87570000Y-25290000D02*
X87570000Y-26940000D01*
X87570000Y-26940000D02*
G75*
G02*
X87570000Y-28940000I0J-1000000D01*
G01*
%TO.C,U3*%
X32960000Y-49260000D02*
X32960000Y-50910000D01*
X32960000Y-50910000D02*
X58480000Y-50910000D01*
X58480000Y-50910000D02*
X58480000Y-45610000D01*
X58480000Y-45610000D02*
X32960000Y-45610000D01*
X32960000Y-45610000D02*
X32960000Y-47260000D01*
X32960000Y-47260000D02*
G75*
G02*
X32960000Y-49260000I0J-1000000D01*
G01*
%TO.C,U2*%
X52010000Y-28940000D02*
X52010000Y-30590000D01*
X52010000Y-30590000D02*
X69910000Y-30590000D01*
X69910000Y-30590000D02*
X69910000Y-25290000D01*
X69910000Y-25290000D02*
X52010000Y-25290000D01*
X52010000Y-25290000D02*
X52010000Y-26940000D01*
X52010000Y-26940000D02*
G75*
G02*
X52010000Y-28940000I0J-1000000D01*
G01*
%TO.C,U1*%
X22800000Y-28940000D02*
X22800000Y-30590000D01*
X22800000Y-30590000D02*
X40700000Y-30590000D01*
X40700000Y-30590000D02*
X40700000Y-25290000D01*
X40700000Y-25290000D02*
X22800000Y-25290000D01*
X22800000Y-25290000D02*
X22800000Y-26940000D01*
X22800000Y-26940000D02*
G75*
G02*
X22800000Y-28940000I0J-1000000D01*
G01*
%TO.C,R10*%
X122270000Y-122570000D02*
X122270000Y-118730000D01*
X124110000Y-122570000D02*
X124110000Y-118730000D01*
%TO.C,R9*%
X122270000Y-112410000D02*
X122270000Y-108570000D01*
X124110000Y-112410000D02*
X124110000Y-108570000D01*
%TO.C,R8*%
X122270000Y-102250000D02*
X122270000Y-98410000D01*
X124110000Y-102250000D02*
X124110000Y-98410000D01*
%TO.C,R7*%
X122270000Y-92090000D02*
X122270000Y-88250000D01*
X124110000Y-92090000D02*
X124110000Y-88250000D01*
%TO.C,R5*%
X74010000Y-109870000D02*
X74010000Y-106030000D01*
X75850000Y-109870000D02*
X75850000Y-106030000D01*
%TO.C,R4*%
X91090000Y-106030000D02*
X91090000Y-109870000D01*
X89250000Y-106030000D02*
X89250000Y-109870000D01*
%TO.C,R3*%
X103220000Y-109870000D02*
X103220000Y-106030000D01*
X105060000Y-109870000D02*
X105060000Y-106030000D01*
%TO.C,R2*%
X54960000Y-109870000D02*
X54960000Y-106030000D01*
X56800000Y-109870000D02*
X56800000Y-106030000D01*
%TO.C,R1*%
X35210000Y-106030000D02*
X35210000Y-109870000D01*
X33370000Y-106030000D02*
X33370000Y-109870000D01*
%TO.C,J8*%
X128210000Y-143570000D02*
X130870000Y-143570000D01*
X128210000Y-135890000D02*
X128210000Y-143570000D01*
X130870000Y-135890000D02*
X130870000Y-143570000D01*
X128210000Y-135890000D02*
X130870000Y-135890000D01*
X128210000Y-134620000D02*
X128210000Y-133290000D01*
X128210000Y-133290000D02*
X129540000Y-133290000D01*
%TO.C,J7*%
X78800000Y-144840000D02*
X78800000Y-142180000D01*
X68580000Y-144840000D02*
X78800000Y-144840000D01*
X68580000Y-142180000D02*
X78800000Y-142180000D01*
X68580000Y-144840000D02*
X68580000Y-142180000D01*
X67310000Y-144840000D02*
X65980000Y-144840000D01*
X65980000Y-144840000D02*
X65980000Y-143510000D01*
%TO.C,J6*%
X115510000Y-18990000D02*
X115510000Y-21650000D01*
X123190000Y-18990000D02*
X115510000Y-18990000D01*
X123190000Y-21650000D02*
X115510000Y-21650000D01*
X123190000Y-18990000D02*
X123190000Y-21650000D01*
X124460000Y-18990000D02*
X125790000Y-18990000D01*
X125790000Y-18990000D02*
X125790000Y-20320000D01*
%TO.C,J5*%
X64710000Y-13910000D02*
X64710000Y-16570000D01*
X82550000Y-13910000D02*
X64710000Y-13910000D01*
X82550000Y-16570000D02*
X64710000Y-16570000D01*
X82550000Y-13910000D02*
X82550000Y-16570000D01*
X83820000Y-13910000D02*
X85150000Y-13910000D01*
X85150000Y-13910000D02*
X85150000Y-15240000D01*
%TO.C,J4*%
X18990000Y-13910000D02*
X18990000Y-16570000D01*
X36830000Y-13910000D02*
X18990000Y-13910000D01*
X36830000Y-16570000D02*
X18990000Y-16570000D01*
X36830000Y-13910000D02*
X36830000Y-16570000D01*
X38100000Y-13910000D02*
X39430000Y-13910000D01*
X39430000Y-13910000D02*
X39430000Y-15240000D01*
%TO.C,J3*%
X18990000Y-142180000D02*
X18990000Y-144840000D01*
X36830000Y-142180000D02*
X18990000Y-142180000D01*
X36830000Y-144840000D02*
X18990000Y-144840000D01*
X36830000Y-142180000D02*
X36830000Y-144840000D01*
X38100000Y-142180000D02*
X39430000Y-142180000D01*
X39430000Y-142180000D02*
X39430000Y-143510000D01*
%TO.C,J2*%
X18990000Y-126940000D02*
X18990000Y-129600000D01*
X36830000Y-126940000D02*
X18990000Y-126940000D01*
X36830000Y-129600000D02*
X18990000Y-129600000D01*
X36830000Y-126940000D02*
X36830000Y-129600000D01*
X38100000Y-126940000D02*
X39430000Y-126940000D01*
X39430000Y-126940000D02*
X39430000Y-128270000D01*
%TO.C,J1*%
X140910000Y-28000000D02*
X143570000Y-28000000D01*
X140910000Y-22860000D02*
X140910000Y-28000000D01*
X143570000Y-22860000D02*
X143570000Y-28000000D01*
X140910000Y-22860000D02*
X143570000Y-22860000D01*
X140910000Y-21590000D02*
X140910000Y-20260000D01*
X140910000Y-20260000D02*
X142240000Y-20260000D01*
%TO.C,D10*%
X132040000Y-120650000D02*
G75*
G03*
X132040000Y-120650000I-2500000J0D01*
G01*
X126980000Y-119105000D02*
X126980000Y-122195000D01*
X132530000Y-120649538D02*
G75*
G02*
X126980000Y-122194830I-2990000J-462D01*
G01*
X132530000Y-120650462D02*
G75*
G03*
X126980000Y-119105170I-2990000J462D01*
G01*
%TO.C,D9*%
X132040000Y-110490000D02*
G75*
G03*
X132040000Y-110490000I-2500000J0D01*
G01*
X126980000Y-108945000D02*
X126980000Y-112035000D01*
X132530000Y-110489538D02*
G75*
G02*
X126980000Y-112034830I-2990000J-462D01*
G01*
X132530000Y-110490462D02*
G75*
G03*
X126980000Y-108945170I-2990000J462D01*
G01*
%TO.C,D8*%
X132040000Y-100330000D02*
G75*
G03*
X132040000Y-100330000I-2500000J0D01*
G01*
X126980000Y-98785000D02*
X126980000Y-101875000D01*
X132530000Y-100329538D02*
G75*
G02*
X126980000Y-101874830I-2990000J-462D01*
G01*
X132530000Y-100330462D02*
G75*
G03*
X126980000Y-98785170I-2990000J462D01*
G01*
%TO.C,D7*%
X132040000Y-90170000D02*
G75*
G03*
X132040000Y-90170000I-2500000J0D01*
G01*
X126980000Y-88625000D02*
X126980000Y-91715000D01*
X132530000Y-90169538D02*
G75*
G02*
X126980000Y-91714830I-2990000J-462D01*
G01*
X132530000Y-90170462D02*
G75*
G03*
X126980000Y-88625170I-2990000J462D01*
G01*
%TO.C,D5*%
X83780000Y-107950000D02*
G75*
G03*
X83780000Y-107950000I-2500000J0D01*
G01*
X78720000Y-106405000D02*
X78720000Y-109495000D01*
X84270000Y-107949538D02*
G75*
G02*
X78720000Y-109494830I-2990000J-462D01*
G01*
X84270000Y-107950462D02*
G75*
G03*
X78720000Y-106405170I-2990000J462D01*
G01*
%TO.C,D4*%
X99020000Y-107950000D02*
G75*
G03*
X99020000Y-107950000I-2500000J0D01*
G01*
X93960000Y-106405000D02*
X93960000Y-109495000D01*
X99510000Y-107949538D02*
G75*
G02*
X93960000Y-109494830I-2990000J-462D01*
G01*
X99510000Y-107950462D02*
G75*
G03*
X93960000Y-106405170I-2990000J462D01*
G01*
%TO.C,D3*%
X112990000Y-107950000D02*
G75*
G03*
X112990000Y-107950000I-2500000J0D01*
G01*
X107930000Y-106405000D02*
X107930000Y-109495000D01*
X113480000Y-107949538D02*
G75*
G02*
X107930000Y-109494830I-2990000J-462D01*
G01*
X113480000Y-107950462D02*
G75*
G03*
X107930000Y-106405170I-2990000J462D01*
G01*
%TO.C,D2*%
X64730000Y-107950000D02*
G75*
G03*
X64730000Y-107950000I-2500000J0D01*
G01*
X59670000Y-106405000D02*
X59670000Y-109495000D01*
X65220000Y-107949538D02*
G75*
G02*
X59670000Y-109494830I-2990000J-462D01*
G01*
X65220000Y-107950462D02*
G75*
G03*
X59670000Y-106405170I-2990000J462D01*
G01*
%TO.C,D1*%
X44410000Y-107950000D02*
G75*
G03*
X44410000Y-107950000I-2500000J0D01*
G01*
X39350000Y-106405000D02*
X39350000Y-109495000D01*
X44900000Y-107949538D02*
G75*
G02*
X39350000Y-109494830I-2990000J-462D01*
G01*
X44900000Y-107950462D02*
G75*
G03*
X39350000Y-106405170I-2990000J462D01*
G01*
%TO.C,C13*%
X116940000Y-44600000D02*
X116940000Y-51840000D01*
X114200000Y-44600000D02*
X114200000Y-51840000D01*
X116940000Y-44600000D02*
X114200000Y-44600000D01*
X116940000Y-51840000D02*
X114200000Y-51840000D01*
%TO.C,C12*%
X71220000Y-44600000D02*
X71220000Y-51840000D01*
X68480000Y-44600000D02*
X68480000Y-51840000D01*
X71220000Y-44600000D02*
X68480000Y-44600000D01*
X71220000Y-51840000D02*
X68480000Y-51840000D01*
%TO.C,C11*%
X50900000Y-68730000D02*
X50900000Y-75970000D01*
X48160000Y-68730000D02*
X48160000Y-75970000D01*
X50900000Y-68730000D02*
X48160000Y-68730000D01*
X50900000Y-75970000D02*
X48160000Y-75970000D01*
%TO.C,C10*%
X19150000Y-68730000D02*
X19150000Y-75970000D01*
X16410000Y-68730000D02*
X16410000Y-75970000D01*
X19150000Y-68730000D02*
X16410000Y-68730000D01*
X19150000Y-75970000D02*
X16410000Y-75970000D01*
%TO.C,C9*%
X118210000Y-68730000D02*
X118210000Y-75970000D01*
X115470000Y-68730000D02*
X115470000Y-75970000D01*
X118210000Y-68730000D02*
X115470000Y-68730000D01*
X118210000Y-75970000D02*
X115470000Y-75970000D01*
%TO.C,C8*%
X83920000Y-68730000D02*
X83920000Y-75970000D01*
X81180000Y-68730000D02*
X81180000Y-75970000D01*
X83920000Y-68730000D02*
X81180000Y-68730000D01*
X83920000Y-75970000D02*
X81180000Y-75970000D01*
%TO.C,C7*%
X52170000Y-89050000D02*
X52170000Y-96290000D01*
X49430000Y-89050000D02*
X49430000Y-96290000D01*
X52170000Y-89050000D02*
X49430000Y-89050000D01*
X52170000Y-96290000D02*
X49430000Y-96290000D01*
%TO.C,C6*%
X20420000Y-89050000D02*
X20420000Y-96290000D01*
X17680000Y-89050000D02*
X17680000Y-96290000D01*
X20420000Y-89050000D02*
X17680000Y-89050000D01*
X20420000Y-96290000D02*
X17680000Y-96290000D01*
%TO.C,C5*%
X86460000Y-89050000D02*
X86460000Y-96290000D01*
X83720000Y-89050000D02*
X83720000Y-96290000D01*
X86460000Y-89050000D02*
X83720000Y-89050000D01*
X86460000Y-96290000D02*
X83720000Y-96290000D01*
%TO.C,C4*%
X85190000Y-24280000D02*
X85190000Y-31520000D01*
X82450000Y-24280000D02*
X82450000Y-31520000D01*
X85190000Y-24280000D02*
X82450000Y-24280000D01*
X85190000Y-31520000D02*
X82450000Y-31520000D01*
%TO.C,C3*%
X30580000Y-44600000D02*
X30580000Y-51840000D01*
X27840000Y-44600000D02*
X27840000Y-51840000D01*
X30580000Y-44600000D02*
X27840000Y-44600000D01*
X30580000Y-51840000D02*
X27840000Y-51840000D01*
%TO.C,C2*%
X49630000Y-24280000D02*
X49630000Y-31520000D01*
X46890000Y-24280000D02*
X46890000Y-31520000D01*
X49630000Y-24280000D02*
X46890000Y-24280000D01*
X49630000Y-31520000D02*
X46890000Y-31520000D01*
%TO.C,C1*%
X20420000Y-24280000D02*
X20420000Y-31520000D01*
X17680000Y-24280000D02*
X17680000Y-31520000D01*
X20420000Y-24280000D02*
X17680000Y-24280000D01*
X20420000Y-31520000D02*
X17680000Y-31520000D01*
%TO.C,J10*%
D11*
X126242380Y-13509523D02*
X126956666Y-13509523D01*
X127099523Y-13557142D01*
X127194761Y-13652380D01*
X127242380Y-13795238D01*
X127242380Y-13890476D01*
X127242380Y-12509523D02*
X127242380Y-13080952D01*
X127242380Y-12795238D02*
X126242380Y-12795238D01*
X126385238Y-12890476D01*
X126480476Y-12985714D01*
X126528095Y-13080952D01*
X126242380Y-11890476D02*
X126242380Y-11795238D01*
X126290000Y-11700000D01*
X126337619Y-11652380D01*
X126432857Y-11604761D01*
X126623333Y-11557142D01*
X126861428Y-11557142D01*
X127051904Y-11604761D01*
X127147142Y-11652380D01*
X127194761Y-11700000D01*
X127242380Y-11795238D01*
X127242380Y-11890476D01*
X127194761Y-11985714D01*
X127147142Y-12033333D01*
X127051904Y-12080952D01*
X126861428Y-12128571D01*
X126623333Y-12128571D01*
X126432857Y-12080952D01*
X126337619Y-12033333D01*
X126290000Y-11985714D01*
X126242380Y-11890476D01*
%TO.C,REF3*%
X12922380Y-151692380D02*
X12589047Y-151216190D01*
X12350952Y-151692380D02*
X12350952Y-150692380D01*
X12731904Y-150692380D01*
X12827142Y-150740000D01*
X12874761Y-150787619D01*
X12922380Y-150882857D01*
X12922380Y-151025714D01*
X12874761Y-151120952D01*
X12827142Y-151168571D01*
X12731904Y-151216190D01*
X12350952Y-151216190D01*
X13350952Y-151168571D02*
X13684285Y-151168571D01*
X13827142Y-151692380D02*
X13350952Y-151692380D01*
X13350952Y-150692380D01*
X13827142Y-150692380D01*
X14589047Y-151168571D02*
X14255714Y-151168571D01*
X14255714Y-151692380D02*
X14255714Y-150692380D01*
X14731904Y-150692380D01*
X15017619Y-150692380D02*
X15636666Y-150692380D01*
X15303333Y-151073333D01*
X15446190Y-151073333D01*
X15541428Y-151120952D01*
X15589047Y-151168571D01*
X15636666Y-151263809D01*
X15636666Y-151501904D01*
X15589047Y-151597142D01*
X15541428Y-151644761D01*
X15446190Y-151692380D01*
X15160476Y-151692380D01*
X15065238Y-151644761D01*
X15017619Y-151597142D01*
%TO.C,REF4*%
X143732380Y-151692380D02*
X143399047Y-151216190D01*
X143160952Y-151692380D02*
X143160952Y-150692380D01*
X143541904Y-150692380D01*
X143637142Y-150740000D01*
X143684761Y-150787619D01*
X143732380Y-150882857D01*
X143732380Y-151025714D01*
X143684761Y-151120952D01*
X143637142Y-151168571D01*
X143541904Y-151216190D01*
X143160952Y-151216190D01*
X144160952Y-151168571D02*
X144494285Y-151168571D01*
X144637142Y-151692380D02*
X144160952Y-151692380D01*
X144160952Y-150692380D01*
X144637142Y-150692380D01*
X145399047Y-151168571D02*
X145065714Y-151168571D01*
X145065714Y-151692380D02*
X145065714Y-150692380D01*
X145541904Y-150692380D01*
X146351428Y-151025714D02*
X146351428Y-151692380D01*
X146113333Y-150644761D02*
X145875238Y-151359047D01*
X146494285Y-151359047D01*
%TO.C,REF2*%
X145002380Y-32312380D02*
X144669047Y-31836190D01*
X144430952Y-32312380D02*
X144430952Y-31312380D01*
X144811904Y-31312380D01*
X144907142Y-31360000D01*
X144954761Y-31407619D01*
X145002380Y-31502857D01*
X145002380Y-31645714D01*
X144954761Y-31740952D01*
X144907142Y-31788571D01*
X144811904Y-31836190D01*
X144430952Y-31836190D01*
X145430952Y-31788571D02*
X145764285Y-31788571D01*
X145907142Y-32312380D02*
X145430952Y-32312380D01*
X145430952Y-31312380D01*
X145907142Y-31312380D01*
X146669047Y-31788571D02*
X146335714Y-31788571D01*
X146335714Y-32312380D02*
X146335714Y-31312380D01*
X146811904Y-31312380D01*
X147145238Y-31407619D02*
X147192857Y-31360000D01*
X147288095Y-31312380D01*
X147526190Y-31312380D01*
X147621428Y-31360000D01*
X147669047Y-31407619D01*
X147716666Y-31502857D01*
X147716666Y-31598095D01*
X147669047Y-31740952D01*
X147097619Y-32312380D01*
X147716666Y-32312380D01*
%TO.C,REF1*%
X12922380Y-10722380D02*
X12589047Y-10246190D01*
X12350952Y-10722380D02*
X12350952Y-9722380D01*
X12731904Y-9722380D01*
X12827142Y-9770000D01*
X12874761Y-9817619D01*
X12922380Y-9912857D01*
X12922380Y-10055714D01*
X12874761Y-10150952D01*
X12827142Y-10198571D01*
X12731904Y-10246190D01*
X12350952Y-10246190D01*
X13350952Y-10198571D02*
X13684285Y-10198571D01*
X13827142Y-10722380D02*
X13350952Y-10722380D01*
X13350952Y-9722380D01*
X13827142Y-9722380D01*
X14589047Y-10198571D02*
X14255714Y-10198571D01*
X14255714Y-10722380D02*
X14255714Y-9722380D01*
X14731904Y-9722380D01*
X15636666Y-10722380D02*
X15065238Y-10722380D01*
X15350952Y-10722380D02*
X15350952Y-9722380D01*
X15255714Y-9865238D01*
X15160476Y-9960476D01*
X15065238Y-10008095D01*
%TO.C,SW3*%
X108596666Y-113974761D02*
X108739523Y-114022380D01*
X108977619Y-114022380D01*
X109072857Y-113974761D01*
X109120476Y-113927142D01*
X109168095Y-113831904D01*
X109168095Y-113736666D01*
X109120476Y-113641428D01*
X109072857Y-113593809D01*
X108977619Y-113546190D01*
X108787142Y-113498571D01*
X108691904Y-113450952D01*
X108644285Y-113403333D01*
X108596666Y-113308095D01*
X108596666Y-113212857D01*
X108644285Y-113117619D01*
X108691904Y-113070000D01*
X108787142Y-113022380D01*
X109025238Y-113022380D01*
X109168095Y-113070000D01*
X109501428Y-113022380D02*
X109739523Y-114022380D01*
X109930000Y-113308095D01*
X110120476Y-114022380D01*
X110358571Y-113022380D01*
X110644285Y-113022380D02*
X111263333Y-113022380D01*
X110930000Y-113403333D01*
X111072857Y-113403333D01*
X111168095Y-113450952D01*
X111215714Y-113498571D01*
X111263333Y-113593809D01*
X111263333Y-113831904D01*
X111215714Y-113927142D01*
X111168095Y-113974761D01*
X111072857Y-114022380D01*
X110787142Y-114022380D01*
X110691904Y-113974761D01*
X110644285Y-113927142D01*
%TO.C,SW2*%
X61606666Y-115244761D02*
X61749523Y-115292380D01*
X61987619Y-115292380D01*
X62082857Y-115244761D01*
X62130476Y-115197142D01*
X62178095Y-115101904D01*
X62178095Y-115006666D01*
X62130476Y-114911428D01*
X62082857Y-114863809D01*
X61987619Y-114816190D01*
X61797142Y-114768571D01*
X61701904Y-114720952D01*
X61654285Y-114673333D01*
X61606666Y-114578095D01*
X61606666Y-114482857D01*
X61654285Y-114387619D01*
X61701904Y-114340000D01*
X61797142Y-114292380D01*
X62035238Y-114292380D01*
X62178095Y-114340000D01*
X62511428Y-114292380D02*
X62749523Y-115292380D01*
X62940000Y-114578095D01*
X63130476Y-115292380D01*
X63368571Y-114292380D01*
X63701904Y-114387619D02*
X63749523Y-114340000D01*
X63844761Y-114292380D01*
X64082857Y-114292380D01*
X64178095Y-114340000D01*
X64225714Y-114387619D01*
X64273333Y-114482857D01*
X64273333Y-114578095D01*
X64225714Y-114720952D01*
X63654285Y-115292380D01*
X64273333Y-115292380D01*
%TO.C,SW1*%
X40016666Y-115244761D02*
X40159523Y-115292380D01*
X40397619Y-115292380D01*
X40492857Y-115244761D01*
X40540476Y-115197142D01*
X40588095Y-115101904D01*
X40588095Y-115006666D01*
X40540476Y-114911428D01*
X40492857Y-114863809D01*
X40397619Y-114816190D01*
X40207142Y-114768571D01*
X40111904Y-114720952D01*
X40064285Y-114673333D01*
X40016666Y-114578095D01*
X40016666Y-114482857D01*
X40064285Y-114387619D01*
X40111904Y-114340000D01*
X40207142Y-114292380D01*
X40445238Y-114292380D01*
X40588095Y-114340000D01*
X40921428Y-114292380D02*
X41159523Y-115292380D01*
X41350000Y-114578095D01*
X41540476Y-115292380D01*
X41778571Y-114292380D01*
X42683333Y-115292380D02*
X42111904Y-115292380D01*
X42397619Y-115292380D02*
X42397619Y-114292380D01*
X42302380Y-114435238D01*
X42207142Y-114530476D01*
X42111904Y-114578095D01*
%TO.C,R21*%
X103972380Y-118752857D02*
X103496190Y-119086190D01*
X103972380Y-119324285D02*
X102972380Y-119324285D01*
X102972380Y-118943333D01*
X103020000Y-118848095D01*
X103067619Y-118800476D01*
X103162857Y-118752857D01*
X103305714Y-118752857D01*
X103400952Y-118800476D01*
X103448571Y-118848095D01*
X103496190Y-118943333D01*
X103496190Y-119324285D01*
X103067619Y-118371904D02*
X103020000Y-118324285D01*
X102972380Y-118229047D01*
X102972380Y-117990952D01*
X103020000Y-117895714D01*
X103067619Y-117848095D01*
X103162857Y-117800476D01*
X103258095Y-117800476D01*
X103400952Y-117848095D01*
X103972380Y-118419523D01*
X103972380Y-117800476D01*
X103972380Y-116848095D02*
X103972380Y-117419523D01*
X103972380Y-117133809D02*
X102972380Y-117133809D01*
X103115238Y-117229047D01*
X103210476Y-117324285D01*
X103258095Y-117419523D01*
%TO.C,R20*%
X56982380Y-120022857D02*
X56506190Y-120356190D01*
X56982380Y-120594285D02*
X55982380Y-120594285D01*
X55982380Y-120213333D01*
X56030000Y-120118095D01*
X56077619Y-120070476D01*
X56172857Y-120022857D01*
X56315714Y-120022857D01*
X56410952Y-120070476D01*
X56458571Y-120118095D01*
X56506190Y-120213333D01*
X56506190Y-120594285D01*
X56077619Y-119641904D02*
X56030000Y-119594285D01*
X55982380Y-119499047D01*
X55982380Y-119260952D01*
X56030000Y-119165714D01*
X56077619Y-119118095D01*
X56172857Y-119070476D01*
X56268095Y-119070476D01*
X56410952Y-119118095D01*
X56982380Y-119689523D01*
X56982380Y-119070476D01*
X55982380Y-118451428D02*
X55982380Y-118356190D01*
X56030000Y-118260952D01*
X56077619Y-118213333D01*
X56172857Y-118165714D01*
X56363333Y-118118095D01*
X56601428Y-118118095D01*
X56791904Y-118165714D01*
X56887142Y-118213333D01*
X56934761Y-118260952D01*
X56982380Y-118356190D01*
X56982380Y-118451428D01*
X56934761Y-118546666D01*
X56887142Y-118594285D01*
X56791904Y-118641904D01*
X56601428Y-118689523D01*
X56363333Y-118689523D01*
X56172857Y-118641904D01*
X56077619Y-118594285D01*
X56030000Y-118546666D01*
X55982380Y-118451428D01*
%TO.C,R19*%
X34122380Y-120022857D02*
X33646190Y-120356190D01*
X34122380Y-120594285D02*
X33122380Y-120594285D01*
X33122380Y-120213333D01*
X33170000Y-120118095D01*
X33217619Y-120070476D01*
X33312857Y-120022857D01*
X33455714Y-120022857D01*
X33550952Y-120070476D01*
X33598571Y-120118095D01*
X33646190Y-120213333D01*
X33646190Y-120594285D01*
X34122380Y-119070476D02*
X34122380Y-119641904D01*
X34122380Y-119356190D02*
X33122380Y-119356190D01*
X33265238Y-119451428D01*
X33360476Y-119546666D01*
X33408095Y-119641904D01*
X34122380Y-118594285D02*
X34122380Y-118403809D01*
X34074761Y-118308571D01*
X34027142Y-118260952D01*
X33884285Y-118165714D01*
X33693809Y-118118095D01*
X33312857Y-118118095D01*
X33217619Y-118165714D01*
X33170000Y-118213333D01*
X33122380Y-118308571D01*
X33122380Y-118499047D01*
X33170000Y-118594285D01*
X33217619Y-118641904D01*
X33312857Y-118689523D01*
X33550952Y-118689523D01*
X33646190Y-118641904D01*
X33693809Y-118594285D01*
X33741428Y-118499047D01*
X33741428Y-118308571D01*
X33693809Y-118213333D01*
X33646190Y-118165714D01*
X33550952Y-118118095D01*
%TO.C,J9*%
X146986666Y-18712380D02*
X146986666Y-19426666D01*
X146939047Y-19569523D01*
X146843809Y-19664761D01*
X146700952Y-19712380D01*
X146605714Y-19712380D01*
X147510476Y-19712380D02*
X147700952Y-19712380D01*
X147796190Y-19664761D01*
X147843809Y-19617142D01*
X147939047Y-19474285D01*
X147986666Y-19283809D01*
X147986666Y-18902857D01*
X147939047Y-18807619D01*
X147891428Y-18760000D01*
X147796190Y-18712380D01*
X147605714Y-18712380D01*
X147510476Y-18760000D01*
X147462857Y-18807619D01*
X147415238Y-18902857D01*
X147415238Y-19140952D01*
X147462857Y-19236190D01*
X147510476Y-19283809D01*
X147605714Y-19331428D01*
X147796190Y-19331428D01*
X147891428Y-19283809D01*
X147939047Y-19236190D01*
X147986666Y-19140952D01*
%TO.C,R18*%
X50157142Y-125532380D02*
X49823809Y-125056190D01*
X49585714Y-125532380D02*
X49585714Y-124532380D01*
X49966666Y-124532380D01*
X50061904Y-124580000D01*
X50109523Y-124627619D01*
X50157142Y-124722857D01*
X50157142Y-124865714D01*
X50109523Y-124960952D01*
X50061904Y-125008571D01*
X49966666Y-125056190D01*
X49585714Y-125056190D01*
X51109523Y-125532380D02*
X50538095Y-125532380D01*
X50823809Y-125532380D02*
X50823809Y-124532380D01*
X50728571Y-124675238D01*
X50633333Y-124770476D01*
X50538095Y-124818095D01*
X51680952Y-124960952D02*
X51585714Y-124913333D01*
X51538095Y-124865714D01*
X51490476Y-124770476D01*
X51490476Y-124722857D01*
X51538095Y-124627619D01*
X51585714Y-124580000D01*
X51680952Y-124532380D01*
X51871428Y-124532380D01*
X51966666Y-124580000D01*
X52014285Y-124627619D01*
X52061904Y-124722857D01*
X52061904Y-124770476D01*
X52014285Y-124865714D01*
X51966666Y-124913333D01*
X51871428Y-124960952D01*
X51680952Y-124960952D01*
X51585714Y-125008571D01*
X51538095Y-125056190D01*
X51490476Y-125151428D01*
X51490476Y-125341904D01*
X51538095Y-125437142D01*
X51585714Y-125484761D01*
X51680952Y-125532380D01*
X51871428Y-125532380D01*
X51966666Y-125484761D01*
X52014285Y-125437142D01*
X52061904Y-125341904D01*
X52061904Y-125151428D01*
X52014285Y-125056190D01*
X51966666Y-125008571D01*
X51871428Y-124960952D01*
%TO.C,R17*%
X59047142Y-125532380D02*
X58713809Y-125056190D01*
X58475714Y-125532380D02*
X58475714Y-124532380D01*
X58856666Y-124532380D01*
X58951904Y-124580000D01*
X58999523Y-124627619D01*
X59047142Y-124722857D01*
X59047142Y-124865714D01*
X58999523Y-124960952D01*
X58951904Y-125008571D01*
X58856666Y-125056190D01*
X58475714Y-125056190D01*
X59999523Y-125532380D02*
X59428095Y-125532380D01*
X59713809Y-125532380D02*
X59713809Y-124532380D01*
X59618571Y-124675238D01*
X59523333Y-124770476D01*
X59428095Y-124818095D01*
X60332857Y-124532380D02*
X60999523Y-124532380D01*
X60570952Y-125532380D01*
%TO.C,R16*%
X67937142Y-125532380D02*
X67603809Y-125056190D01*
X67365714Y-125532380D02*
X67365714Y-124532380D01*
X67746666Y-124532380D01*
X67841904Y-124580000D01*
X67889523Y-124627619D01*
X67937142Y-124722857D01*
X67937142Y-124865714D01*
X67889523Y-124960952D01*
X67841904Y-125008571D01*
X67746666Y-125056190D01*
X67365714Y-125056190D01*
X68889523Y-125532380D02*
X68318095Y-125532380D01*
X68603809Y-125532380D02*
X68603809Y-124532380D01*
X68508571Y-124675238D01*
X68413333Y-124770476D01*
X68318095Y-124818095D01*
X69746666Y-124532380D02*
X69556190Y-124532380D01*
X69460952Y-124580000D01*
X69413333Y-124627619D01*
X69318095Y-124770476D01*
X69270476Y-124960952D01*
X69270476Y-125341904D01*
X69318095Y-125437142D01*
X69365714Y-125484761D01*
X69460952Y-125532380D01*
X69651428Y-125532380D01*
X69746666Y-125484761D01*
X69794285Y-125437142D01*
X69841904Y-125341904D01*
X69841904Y-125103809D01*
X69794285Y-125008571D01*
X69746666Y-124960952D01*
X69651428Y-124913333D01*
X69460952Y-124913333D01*
X69365714Y-124960952D01*
X69318095Y-125008571D01*
X69270476Y-125103809D01*
%TO.C,R15*%
X76827142Y-125532380D02*
X76493809Y-125056190D01*
X76255714Y-125532380D02*
X76255714Y-124532380D01*
X76636666Y-124532380D01*
X76731904Y-124580000D01*
X76779523Y-124627619D01*
X76827142Y-124722857D01*
X76827142Y-124865714D01*
X76779523Y-124960952D01*
X76731904Y-125008571D01*
X76636666Y-125056190D01*
X76255714Y-125056190D01*
X77779523Y-125532380D02*
X77208095Y-125532380D01*
X77493809Y-125532380D02*
X77493809Y-124532380D01*
X77398571Y-124675238D01*
X77303333Y-124770476D01*
X77208095Y-124818095D01*
X78684285Y-124532380D02*
X78208095Y-124532380D01*
X78160476Y-125008571D01*
X78208095Y-124960952D01*
X78303333Y-124913333D01*
X78541428Y-124913333D01*
X78636666Y-124960952D01*
X78684285Y-125008571D01*
X78731904Y-125103809D01*
X78731904Y-125341904D01*
X78684285Y-125437142D01*
X78636666Y-125484761D01*
X78541428Y-125532380D01*
X78303333Y-125532380D01*
X78208095Y-125484761D01*
X78160476Y-125437142D01*
%TO.C,R14*%
X85717142Y-125532380D02*
X85383809Y-125056190D01*
X85145714Y-125532380D02*
X85145714Y-124532380D01*
X85526666Y-124532380D01*
X85621904Y-124580000D01*
X85669523Y-124627619D01*
X85717142Y-124722857D01*
X85717142Y-124865714D01*
X85669523Y-124960952D01*
X85621904Y-125008571D01*
X85526666Y-125056190D01*
X85145714Y-125056190D01*
X86669523Y-125532380D02*
X86098095Y-125532380D01*
X86383809Y-125532380D02*
X86383809Y-124532380D01*
X86288571Y-124675238D01*
X86193333Y-124770476D01*
X86098095Y-124818095D01*
X87526666Y-124865714D02*
X87526666Y-125532380D01*
X87288571Y-124484761D02*
X87050476Y-125199047D01*
X87669523Y-125199047D01*
%TO.C,R13*%
X94607142Y-125532380D02*
X94273809Y-125056190D01*
X94035714Y-125532380D02*
X94035714Y-124532380D01*
X94416666Y-124532380D01*
X94511904Y-124580000D01*
X94559523Y-124627619D01*
X94607142Y-124722857D01*
X94607142Y-124865714D01*
X94559523Y-124960952D01*
X94511904Y-125008571D01*
X94416666Y-125056190D01*
X94035714Y-125056190D01*
X95559523Y-125532380D02*
X94988095Y-125532380D01*
X95273809Y-125532380D02*
X95273809Y-124532380D01*
X95178571Y-124675238D01*
X95083333Y-124770476D01*
X94988095Y-124818095D01*
X95892857Y-124532380D02*
X96511904Y-124532380D01*
X96178571Y-124913333D01*
X96321428Y-124913333D01*
X96416666Y-124960952D01*
X96464285Y-125008571D01*
X96511904Y-125103809D01*
X96511904Y-125341904D01*
X96464285Y-125437142D01*
X96416666Y-125484761D01*
X96321428Y-125532380D01*
X96035714Y-125532380D01*
X95940476Y-125484761D01*
X95892857Y-125437142D01*
%TO.C,R12*%
X103497142Y-125532380D02*
X103163809Y-125056190D01*
X102925714Y-125532380D02*
X102925714Y-124532380D01*
X103306666Y-124532380D01*
X103401904Y-124580000D01*
X103449523Y-124627619D01*
X103497142Y-124722857D01*
X103497142Y-124865714D01*
X103449523Y-124960952D01*
X103401904Y-125008571D01*
X103306666Y-125056190D01*
X102925714Y-125056190D01*
X104449523Y-125532380D02*
X103878095Y-125532380D01*
X104163809Y-125532380D02*
X104163809Y-124532380D01*
X104068571Y-124675238D01*
X103973333Y-124770476D01*
X103878095Y-124818095D01*
X104830476Y-124627619D02*
X104878095Y-124580000D01*
X104973333Y-124532380D01*
X105211428Y-124532380D01*
X105306666Y-124580000D01*
X105354285Y-124627619D01*
X105401904Y-124722857D01*
X105401904Y-124818095D01*
X105354285Y-124960952D01*
X104782857Y-125532380D01*
X105401904Y-125532380D01*
%TO.C,R11*%
X112387142Y-125532380D02*
X112053809Y-125056190D01*
X111815714Y-125532380D02*
X111815714Y-124532380D01*
X112196666Y-124532380D01*
X112291904Y-124580000D01*
X112339523Y-124627619D01*
X112387142Y-124722857D01*
X112387142Y-124865714D01*
X112339523Y-124960952D01*
X112291904Y-125008571D01*
X112196666Y-125056190D01*
X111815714Y-125056190D01*
X113339523Y-125532380D02*
X112768095Y-125532380D01*
X113053809Y-125532380D02*
X113053809Y-124532380D01*
X112958571Y-124675238D01*
X112863333Y-124770476D01*
X112768095Y-124818095D01*
X114291904Y-125532380D02*
X113720476Y-125532380D01*
X114006190Y-125532380D02*
X114006190Y-124532380D01*
X113910952Y-124675238D01*
X113815714Y-124770476D01*
X113720476Y-124818095D01*
%TO.C,D18*%
X47292380Y-134564285D02*
X46292380Y-134564285D01*
X46292380Y-134326190D01*
X46340000Y-134183333D01*
X46435238Y-134088095D01*
X46530476Y-134040476D01*
X46720952Y-133992857D01*
X46863809Y-133992857D01*
X47054285Y-134040476D01*
X47149523Y-134088095D01*
X47244761Y-134183333D01*
X47292380Y-134326190D01*
X47292380Y-134564285D01*
X47292380Y-133040476D02*
X47292380Y-133611904D01*
X47292380Y-133326190D02*
X46292380Y-133326190D01*
X46435238Y-133421428D01*
X46530476Y-133516666D01*
X46578095Y-133611904D01*
X46720952Y-132469047D02*
X46673333Y-132564285D01*
X46625714Y-132611904D01*
X46530476Y-132659523D01*
X46482857Y-132659523D01*
X46387619Y-132611904D01*
X46340000Y-132564285D01*
X46292380Y-132469047D01*
X46292380Y-132278571D01*
X46340000Y-132183333D01*
X46387619Y-132135714D01*
X46482857Y-132088095D01*
X46530476Y-132088095D01*
X46625714Y-132135714D01*
X46673333Y-132183333D01*
X46720952Y-132278571D01*
X46720952Y-132469047D01*
X46768571Y-132564285D01*
X46816190Y-132611904D01*
X46911428Y-132659523D01*
X47101904Y-132659523D01*
X47197142Y-132611904D01*
X47244761Y-132564285D01*
X47292380Y-132469047D01*
X47292380Y-132278571D01*
X47244761Y-132183333D01*
X47197142Y-132135714D01*
X47101904Y-132088095D01*
X46911428Y-132088095D01*
X46816190Y-132135714D01*
X46768571Y-132183333D01*
X46720952Y-132278571D01*
%TO.C,D17*%
X56182380Y-134564285D02*
X55182380Y-134564285D01*
X55182380Y-134326190D01*
X55230000Y-134183333D01*
X55325238Y-134088095D01*
X55420476Y-134040476D01*
X55610952Y-133992857D01*
X55753809Y-133992857D01*
X55944285Y-134040476D01*
X56039523Y-134088095D01*
X56134761Y-134183333D01*
X56182380Y-134326190D01*
X56182380Y-134564285D01*
X56182380Y-133040476D02*
X56182380Y-133611904D01*
X56182380Y-133326190D02*
X55182380Y-133326190D01*
X55325238Y-133421428D01*
X55420476Y-133516666D01*
X55468095Y-133611904D01*
X55182380Y-132707142D02*
X55182380Y-132040476D01*
X56182380Y-132469047D01*
%TO.C,D16*%
X65072380Y-134564285D02*
X64072380Y-134564285D01*
X64072380Y-134326190D01*
X64120000Y-134183333D01*
X64215238Y-134088095D01*
X64310476Y-134040476D01*
X64500952Y-133992857D01*
X64643809Y-133992857D01*
X64834285Y-134040476D01*
X64929523Y-134088095D01*
X65024761Y-134183333D01*
X65072380Y-134326190D01*
X65072380Y-134564285D01*
X65072380Y-133040476D02*
X65072380Y-133611904D01*
X65072380Y-133326190D02*
X64072380Y-133326190D01*
X64215238Y-133421428D01*
X64310476Y-133516666D01*
X64358095Y-133611904D01*
X64072380Y-132183333D02*
X64072380Y-132373809D01*
X64120000Y-132469047D01*
X64167619Y-132516666D01*
X64310476Y-132611904D01*
X64500952Y-132659523D01*
X64881904Y-132659523D01*
X64977142Y-132611904D01*
X65024761Y-132564285D01*
X65072380Y-132469047D01*
X65072380Y-132278571D01*
X65024761Y-132183333D01*
X64977142Y-132135714D01*
X64881904Y-132088095D01*
X64643809Y-132088095D01*
X64548571Y-132135714D01*
X64500952Y-132183333D01*
X64453333Y-132278571D01*
X64453333Y-132469047D01*
X64500952Y-132564285D01*
X64548571Y-132611904D01*
X64643809Y-132659523D01*
%TO.C,D15*%
X73962380Y-134564285D02*
X72962380Y-134564285D01*
X72962380Y-134326190D01*
X73010000Y-134183333D01*
X73105238Y-134088095D01*
X73200476Y-134040476D01*
X73390952Y-133992857D01*
X73533809Y-133992857D01*
X73724285Y-134040476D01*
X73819523Y-134088095D01*
X73914761Y-134183333D01*
X73962380Y-134326190D01*
X73962380Y-134564285D01*
X73962380Y-133040476D02*
X73962380Y-133611904D01*
X73962380Y-133326190D02*
X72962380Y-133326190D01*
X73105238Y-133421428D01*
X73200476Y-133516666D01*
X73248095Y-133611904D01*
X72962380Y-132135714D02*
X72962380Y-132611904D01*
X73438571Y-132659523D01*
X73390952Y-132611904D01*
X73343333Y-132516666D01*
X73343333Y-132278571D01*
X73390952Y-132183333D01*
X73438571Y-132135714D01*
X73533809Y-132088095D01*
X73771904Y-132088095D01*
X73867142Y-132135714D01*
X73914761Y-132183333D01*
X73962380Y-132278571D01*
X73962380Y-132516666D01*
X73914761Y-132611904D01*
X73867142Y-132659523D01*
%TO.C,D14*%
X82852380Y-134564285D02*
X81852380Y-134564285D01*
X81852380Y-134326190D01*
X81900000Y-134183333D01*
X81995238Y-134088095D01*
X82090476Y-134040476D01*
X82280952Y-133992857D01*
X82423809Y-133992857D01*
X82614285Y-134040476D01*
X82709523Y-134088095D01*
X82804761Y-134183333D01*
X82852380Y-134326190D01*
X82852380Y-134564285D01*
X82852380Y-133040476D02*
X82852380Y-133611904D01*
X82852380Y-133326190D02*
X81852380Y-133326190D01*
X81995238Y-133421428D01*
X82090476Y-133516666D01*
X82138095Y-133611904D01*
X82185714Y-132183333D02*
X82852380Y-132183333D01*
X81804761Y-132421428D02*
X82519047Y-132659523D01*
X82519047Y-132040476D01*
%TO.C,D13*%
X91742380Y-134564285D02*
X90742380Y-134564285D01*
X90742380Y-134326190D01*
X90790000Y-134183333D01*
X90885238Y-134088095D01*
X90980476Y-134040476D01*
X91170952Y-133992857D01*
X91313809Y-133992857D01*
X91504285Y-134040476D01*
X91599523Y-134088095D01*
X91694761Y-134183333D01*
X91742380Y-134326190D01*
X91742380Y-134564285D01*
X91742380Y-133040476D02*
X91742380Y-133611904D01*
X91742380Y-133326190D02*
X90742380Y-133326190D01*
X90885238Y-133421428D01*
X90980476Y-133516666D01*
X91028095Y-133611904D01*
X90742380Y-132707142D02*
X90742380Y-132088095D01*
X91123333Y-132421428D01*
X91123333Y-132278571D01*
X91170952Y-132183333D01*
X91218571Y-132135714D01*
X91313809Y-132088095D01*
X91551904Y-132088095D01*
X91647142Y-132135714D01*
X91694761Y-132183333D01*
X91742380Y-132278571D01*
X91742380Y-132564285D01*
X91694761Y-132659523D01*
X91647142Y-132707142D01*
%TO.C,D12*%
X100632380Y-134564285D02*
X99632380Y-134564285D01*
X99632380Y-134326190D01*
X99680000Y-134183333D01*
X99775238Y-134088095D01*
X99870476Y-134040476D01*
X100060952Y-133992857D01*
X100203809Y-133992857D01*
X100394285Y-134040476D01*
X100489523Y-134088095D01*
X100584761Y-134183333D01*
X100632380Y-134326190D01*
X100632380Y-134564285D01*
X100632380Y-133040476D02*
X100632380Y-133611904D01*
X100632380Y-133326190D02*
X99632380Y-133326190D01*
X99775238Y-133421428D01*
X99870476Y-133516666D01*
X99918095Y-133611904D01*
X99727619Y-132659523D02*
X99680000Y-132611904D01*
X99632380Y-132516666D01*
X99632380Y-132278571D01*
X99680000Y-132183333D01*
X99727619Y-132135714D01*
X99822857Y-132088095D01*
X99918095Y-132088095D01*
X100060952Y-132135714D01*
X100632380Y-132707142D01*
X100632380Y-132088095D01*
%TO.C,D11*%
X109522380Y-134564285D02*
X108522380Y-134564285D01*
X108522380Y-134326190D01*
X108570000Y-134183333D01*
X108665238Y-134088095D01*
X108760476Y-134040476D01*
X108950952Y-133992857D01*
X109093809Y-133992857D01*
X109284285Y-134040476D01*
X109379523Y-134088095D01*
X109474761Y-134183333D01*
X109522380Y-134326190D01*
X109522380Y-134564285D01*
X109522380Y-133040476D02*
X109522380Y-133611904D01*
X109522380Y-133326190D02*
X108522380Y-133326190D01*
X108665238Y-133421428D01*
X108760476Y-133516666D01*
X108808095Y-133611904D01*
X109522380Y-132088095D02*
X109522380Y-132659523D01*
X109522380Y-132373809D02*
X108522380Y-132373809D01*
X108665238Y-132469047D01*
X108760476Y-132564285D01*
X108808095Y-132659523D01*
%TO.C,U13*%
X117772380Y-49498095D02*
X118581904Y-49498095D01*
X118677142Y-49450476D01*
X118724761Y-49402857D01*
X118772380Y-49307619D01*
X118772380Y-49117142D01*
X118724761Y-49021904D01*
X118677142Y-48974285D01*
X118581904Y-48926666D01*
X117772380Y-48926666D01*
X118772380Y-47926666D02*
X118772380Y-48498095D01*
X118772380Y-48212380D02*
X117772380Y-48212380D01*
X117915238Y-48307619D01*
X118010476Y-48402857D01*
X118058095Y-48498095D01*
X117772380Y-47593333D02*
X117772380Y-46974285D01*
X118153333Y-47307619D01*
X118153333Y-47164761D01*
X118200952Y-47069523D01*
X118248571Y-47021904D01*
X118343809Y-46974285D01*
X118581904Y-46974285D01*
X118677142Y-47021904D01*
X118724761Y-47069523D01*
X118772380Y-47164761D01*
X118772380Y-47450476D01*
X118724761Y-47545714D01*
X118677142Y-47593333D01*
%TO.C,U12*%
X72052380Y-49498095D02*
X72861904Y-49498095D01*
X72957142Y-49450476D01*
X73004761Y-49402857D01*
X73052380Y-49307619D01*
X73052380Y-49117142D01*
X73004761Y-49021904D01*
X72957142Y-48974285D01*
X72861904Y-48926666D01*
X72052380Y-48926666D01*
X73052380Y-47926666D02*
X73052380Y-48498095D01*
X73052380Y-48212380D02*
X72052380Y-48212380D01*
X72195238Y-48307619D01*
X72290476Y-48402857D01*
X72338095Y-48498095D01*
X72147619Y-47545714D02*
X72100000Y-47498095D01*
X72052380Y-47402857D01*
X72052380Y-47164761D01*
X72100000Y-47069523D01*
X72147619Y-47021904D01*
X72242857Y-46974285D01*
X72338095Y-46974285D01*
X72480952Y-47021904D01*
X73052380Y-47593333D01*
X73052380Y-46974285D01*
%TO.C,U11*%
X51732380Y-73628095D02*
X52541904Y-73628095D01*
X52637142Y-73580476D01*
X52684761Y-73532857D01*
X52732380Y-73437619D01*
X52732380Y-73247142D01*
X52684761Y-73151904D01*
X52637142Y-73104285D01*
X52541904Y-73056666D01*
X51732380Y-73056666D01*
X52732380Y-72056666D02*
X52732380Y-72628095D01*
X52732380Y-72342380D02*
X51732380Y-72342380D01*
X51875238Y-72437619D01*
X51970476Y-72532857D01*
X52018095Y-72628095D01*
X52732380Y-71104285D02*
X52732380Y-71675714D01*
X52732380Y-71390000D02*
X51732380Y-71390000D01*
X51875238Y-71485238D01*
X51970476Y-71580476D01*
X52018095Y-71675714D01*
%TO.C,U10*%
X21252380Y-73628095D02*
X22061904Y-73628095D01*
X22157142Y-73580476D01*
X22204761Y-73532857D01*
X22252380Y-73437619D01*
X22252380Y-73247142D01*
X22204761Y-73151904D01*
X22157142Y-73104285D01*
X22061904Y-73056666D01*
X21252380Y-73056666D01*
X22252380Y-72056666D02*
X22252380Y-72628095D01*
X22252380Y-72342380D02*
X21252380Y-72342380D01*
X21395238Y-72437619D01*
X21490476Y-72532857D01*
X21538095Y-72628095D01*
X21252380Y-71437619D02*
X21252380Y-71342380D01*
X21300000Y-71247142D01*
X21347619Y-71199523D01*
X21442857Y-71151904D01*
X21633333Y-71104285D01*
X21871428Y-71104285D01*
X22061904Y-71151904D01*
X22157142Y-71199523D01*
X22204761Y-71247142D01*
X22252380Y-71342380D01*
X22252380Y-71437619D01*
X22204761Y-71532857D01*
X22157142Y-71580476D01*
X22061904Y-71628095D01*
X21871428Y-71675714D01*
X21633333Y-71675714D01*
X21442857Y-71628095D01*
X21347619Y-71580476D01*
X21300000Y-71532857D01*
X21252380Y-71437619D01*
%TO.C,U9*%
X119042380Y-73151904D02*
X119851904Y-73151904D01*
X119947142Y-73104285D01*
X119994761Y-73056666D01*
X120042380Y-72961428D01*
X120042380Y-72770952D01*
X119994761Y-72675714D01*
X119947142Y-72628095D01*
X119851904Y-72580476D01*
X119042380Y-72580476D01*
X120042380Y-72056666D02*
X120042380Y-71866190D01*
X119994761Y-71770952D01*
X119947142Y-71723333D01*
X119804285Y-71628095D01*
X119613809Y-71580476D01*
X119232857Y-71580476D01*
X119137619Y-71628095D01*
X119090000Y-71675714D01*
X119042380Y-71770952D01*
X119042380Y-71961428D01*
X119090000Y-72056666D01*
X119137619Y-72104285D01*
X119232857Y-72151904D01*
X119470952Y-72151904D01*
X119566190Y-72104285D01*
X119613809Y-72056666D01*
X119661428Y-71961428D01*
X119661428Y-71770952D01*
X119613809Y-71675714D01*
X119566190Y-71628095D01*
X119470952Y-71580476D01*
%TO.C,U8*%
X84752380Y-73151904D02*
X85561904Y-73151904D01*
X85657142Y-73104285D01*
X85704761Y-73056666D01*
X85752380Y-72961428D01*
X85752380Y-72770952D01*
X85704761Y-72675714D01*
X85657142Y-72628095D01*
X85561904Y-72580476D01*
X84752380Y-72580476D01*
X85180952Y-71961428D02*
X85133333Y-72056666D01*
X85085714Y-72104285D01*
X84990476Y-72151904D01*
X84942857Y-72151904D01*
X84847619Y-72104285D01*
X84800000Y-72056666D01*
X84752380Y-71961428D01*
X84752380Y-71770952D01*
X84800000Y-71675714D01*
X84847619Y-71628095D01*
X84942857Y-71580476D01*
X84990476Y-71580476D01*
X85085714Y-71628095D01*
X85133333Y-71675714D01*
X85180952Y-71770952D01*
X85180952Y-71961428D01*
X85228571Y-72056666D01*
X85276190Y-72104285D01*
X85371428Y-72151904D01*
X85561904Y-72151904D01*
X85657142Y-72104285D01*
X85704761Y-72056666D01*
X85752380Y-71961428D01*
X85752380Y-71770952D01*
X85704761Y-71675714D01*
X85657142Y-71628095D01*
X85561904Y-71580476D01*
X85371428Y-71580476D01*
X85276190Y-71628095D01*
X85228571Y-71675714D01*
X85180952Y-71770952D01*
%TO.C,U7*%
X53002380Y-93471904D02*
X53811904Y-93471904D01*
X53907142Y-93424285D01*
X53954761Y-93376666D01*
X54002380Y-93281428D01*
X54002380Y-93090952D01*
X53954761Y-92995714D01*
X53907142Y-92948095D01*
X53811904Y-92900476D01*
X53002380Y-92900476D01*
X53002380Y-92519523D02*
X53002380Y-91852857D01*
X54002380Y-92281428D01*
%TO.C,U6*%
X21252380Y-93471904D02*
X22061904Y-93471904D01*
X22157142Y-93424285D01*
X22204761Y-93376666D01*
X22252380Y-93281428D01*
X22252380Y-93090952D01*
X22204761Y-92995714D01*
X22157142Y-92948095D01*
X22061904Y-92900476D01*
X21252380Y-92900476D01*
X21252380Y-91995714D02*
X21252380Y-92186190D01*
X21300000Y-92281428D01*
X21347619Y-92329047D01*
X21490476Y-92424285D01*
X21680952Y-92471904D01*
X22061904Y-92471904D01*
X22157142Y-92424285D01*
X22204761Y-92376666D01*
X22252380Y-92281428D01*
X22252380Y-92090952D01*
X22204761Y-91995714D01*
X22157142Y-91948095D01*
X22061904Y-91900476D01*
X21823809Y-91900476D01*
X21728571Y-91948095D01*
X21680952Y-91995714D01*
X21633333Y-92090952D01*
X21633333Y-92281428D01*
X21680952Y-92376666D01*
X21728571Y-92424285D01*
X21823809Y-92471904D01*
%TO.C,U5*%
X87292380Y-93471904D02*
X88101904Y-93471904D01*
X88197142Y-93424285D01*
X88244761Y-93376666D01*
X88292380Y-93281428D01*
X88292380Y-93090952D01*
X88244761Y-92995714D01*
X88197142Y-92948095D01*
X88101904Y-92900476D01*
X87292380Y-92900476D01*
X87292380Y-91948095D02*
X87292380Y-92424285D01*
X87768571Y-92471904D01*
X87720952Y-92424285D01*
X87673333Y-92329047D01*
X87673333Y-92090952D01*
X87720952Y-91995714D01*
X87768571Y-91948095D01*
X87863809Y-91900476D01*
X88101904Y-91900476D01*
X88197142Y-91948095D01*
X88244761Y-91995714D01*
X88292380Y-92090952D01*
X88292380Y-92329047D01*
X88244761Y-92424285D01*
X88197142Y-92471904D01*
%TO.C,U4*%
X86022380Y-28701904D02*
X86831904Y-28701904D01*
X86927142Y-28654285D01*
X86974761Y-28606666D01*
X87022380Y-28511428D01*
X87022380Y-28320952D01*
X86974761Y-28225714D01*
X86927142Y-28178095D01*
X86831904Y-28130476D01*
X86022380Y-28130476D01*
X86355714Y-27225714D02*
X87022380Y-27225714D01*
X85974761Y-27463809D02*
X86689047Y-27701904D01*
X86689047Y-27082857D01*
%TO.C,U3*%
X31412380Y-49021904D02*
X32221904Y-49021904D01*
X32317142Y-48974285D01*
X32364761Y-48926666D01*
X32412380Y-48831428D01*
X32412380Y-48640952D01*
X32364761Y-48545714D01*
X32317142Y-48498095D01*
X32221904Y-48450476D01*
X31412380Y-48450476D01*
X31412380Y-48069523D02*
X31412380Y-47450476D01*
X31793333Y-47783809D01*
X31793333Y-47640952D01*
X31840952Y-47545714D01*
X31888571Y-47498095D01*
X31983809Y-47450476D01*
X32221904Y-47450476D01*
X32317142Y-47498095D01*
X32364761Y-47545714D01*
X32412380Y-47640952D01*
X32412380Y-47926666D01*
X32364761Y-48021904D01*
X32317142Y-48069523D01*
%TO.C,U2*%
X50462380Y-28701904D02*
X51271904Y-28701904D01*
X51367142Y-28654285D01*
X51414761Y-28606666D01*
X51462380Y-28511428D01*
X51462380Y-28320952D01*
X51414761Y-28225714D01*
X51367142Y-28178095D01*
X51271904Y-28130476D01*
X50462380Y-28130476D01*
X50557619Y-27701904D02*
X50510000Y-27654285D01*
X50462380Y-27559047D01*
X50462380Y-27320952D01*
X50510000Y-27225714D01*
X50557619Y-27178095D01*
X50652857Y-27130476D01*
X50748095Y-27130476D01*
X50890952Y-27178095D01*
X51462380Y-27749523D01*
X51462380Y-27130476D01*
%TO.C,U1*%
X21252380Y-28701904D02*
X22061904Y-28701904D01*
X22157142Y-28654285D01*
X22204761Y-28606666D01*
X22252380Y-28511428D01*
X22252380Y-28320952D01*
X22204761Y-28225714D01*
X22157142Y-28178095D01*
X22061904Y-28130476D01*
X21252380Y-28130476D01*
X22252380Y-27130476D02*
X22252380Y-27701904D01*
X22252380Y-27416190D02*
X21252380Y-27416190D01*
X21395238Y-27511428D01*
X21490476Y-27606666D01*
X21538095Y-27701904D01*
%TO.C,R10*%
X121722380Y-121292857D02*
X121246190Y-121626190D01*
X121722380Y-121864285D02*
X120722380Y-121864285D01*
X120722380Y-121483333D01*
X120770000Y-121388095D01*
X120817619Y-121340476D01*
X120912857Y-121292857D01*
X121055714Y-121292857D01*
X121150952Y-121340476D01*
X121198571Y-121388095D01*
X121246190Y-121483333D01*
X121246190Y-121864285D01*
X121722380Y-120340476D02*
X121722380Y-120911904D01*
X121722380Y-120626190D02*
X120722380Y-120626190D01*
X120865238Y-120721428D01*
X120960476Y-120816666D01*
X121008095Y-120911904D01*
X120722380Y-119721428D02*
X120722380Y-119626190D01*
X120770000Y-119530952D01*
X120817619Y-119483333D01*
X120912857Y-119435714D01*
X121103333Y-119388095D01*
X121341428Y-119388095D01*
X121531904Y-119435714D01*
X121627142Y-119483333D01*
X121674761Y-119530952D01*
X121722380Y-119626190D01*
X121722380Y-119721428D01*
X121674761Y-119816666D01*
X121627142Y-119864285D01*
X121531904Y-119911904D01*
X121341428Y-119959523D01*
X121103333Y-119959523D01*
X120912857Y-119911904D01*
X120817619Y-119864285D01*
X120770000Y-119816666D01*
X120722380Y-119721428D01*
%TO.C,R9*%
X121722380Y-110656666D02*
X121246190Y-110990000D01*
X121722380Y-111228095D02*
X120722380Y-111228095D01*
X120722380Y-110847142D01*
X120770000Y-110751904D01*
X120817619Y-110704285D01*
X120912857Y-110656666D01*
X121055714Y-110656666D01*
X121150952Y-110704285D01*
X121198571Y-110751904D01*
X121246190Y-110847142D01*
X121246190Y-111228095D01*
X121722380Y-110180476D02*
X121722380Y-109990000D01*
X121674761Y-109894761D01*
X121627142Y-109847142D01*
X121484285Y-109751904D01*
X121293809Y-109704285D01*
X120912857Y-109704285D01*
X120817619Y-109751904D01*
X120770000Y-109799523D01*
X120722380Y-109894761D01*
X120722380Y-110085238D01*
X120770000Y-110180476D01*
X120817619Y-110228095D01*
X120912857Y-110275714D01*
X121150952Y-110275714D01*
X121246190Y-110228095D01*
X121293809Y-110180476D01*
X121341428Y-110085238D01*
X121341428Y-109894761D01*
X121293809Y-109799523D01*
X121246190Y-109751904D01*
X121150952Y-109704285D01*
%TO.C,R8*%
X121722380Y-100496666D02*
X121246190Y-100830000D01*
X121722380Y-101068095D02*
X120722380Y-101068095D01*
X120722380Y-100687142D01*
X120770000Y-100591904D01*
X120817619Y-100544285D01*
X120912857Y-100496666D01*
X121055714Y-100496666D01*
X121150952Y-100544285D01*
X121198571Y-100591904D01*
X121246190Y-100687142D01*
X121246190Y-101068095D01*
X121150952Y-99925238D02*
X121103333Y-100020476D01*
X121055714Y-100068095D01*
X120960476Y-100115714D01*
X120912857Y-100115714D01*
X120817619Y-100068095D01*
X120770000Y-100020476D01*
X120722380Y-99925238D01*
X120722380Y-99734761D01*
X120770000Y-99639523D01*
X120817619Y-99591904D01*
X120912857Y-99544285D01*
X120960476Y-99544285D01*
X121055714Y-99591904D01*
X121103333Y-99639523D01*
X121150952Y-99734761D01*
X121150952Y-99925238D01*
X121198571Y-100020476D01*
X121246190Y-100068095D01*
X121341428Y-100115714D01*
X121531904Y-100115714D01*
X121627142Y-100068095D01*
X121674761Y-100020476D01*
X121722380Y-99925238D01*
X121722380Y-99734761D01*
X121674761Y-99639523D01*
X121627142Y-99591904D01*
X121531904Y-99544285D01*
X121341428Y-99544285D01*
X121246190Y-99591904D01*
X121198571Y-99639523D01*
X121150952Y-99734761D01*
%TO.C,R7*%
X121722380Y-90336666D02*
X121246190Y-90670000D01*
X121722380Y-90908095D02*
X120722380Y-90908095D01*
X120722380Y-90527142D01*
X120770000Y-90431904D01*
X120817619Y-90384285D01*
X120912857Y-90336666D01*
X121055714Y-90336666D01*
X121150952Y-90384285D01*
X121198571Y-90431904D01*
X121246190Y-90527142D01*
X121246190Y-90908095D01*
X120722380Y-90003333D02*
X120722380Y-89336666D01*
X121722380Y-89765238D01*
%TO.C,R5*%
X73462380Y-108116666D02*
X72986190Y-108450000D01*
X73462380Y-108688095D02*
X72462380Y-108688095D01*
X72462380Y-108307142D01*
X72510000Y-108211904D01*
X72557619Y-108164285D01*
X72652857Y-108116666D01*
X72795714Y-108116666D01*
X72890952Y-108164285D01*
X72938571Y-108211904D01*
X72986190Y-108307142D01*
X72986190Y-108688095D01*
X72462380Y-107211904D02*
X72462380Y-107688095D01*
X72938571Y-107735714D01*
X72890952Y-107688095D01*
X72843333Y-107592857D01*
X72843333Y-107354761D01*
X72890952Y-107259523D01*
X72938571Y-107211904D01*
X73033809Y-107164285D01*
X73271904Y-107164285D01*
X73367142Y-107211904D01*
X73414761Y-107259523D01*
X73462380Y-107354761D01*
X73462380Y-107592857D01*
X73414761Y-107688095D01*
X73367142Y-107735714D01*
%TO.C,R4*%
X92542380Y-108116666D02*
X92066190Y-108450000D01*
X92542380Y-108688095D02*
X91542380Y-108688095D01*
X91542380Y-108307142D01*
X91590000Y-108211904D01*
X91637619Y-108164285D01*
X91732857Y-108116666D01*
X91875714Y-108116666D01*
X91970952Y-108164285D01*
X92018571Y-108211904D01*
X92066190Y-108307142D01*
X92066190Y-108688095D01*
X91875714Y-107259523D02*
X92542380Y-107259523D01*
X91494761Y-107497619D02*
X92209047Y-107735714D01*
X92209047Y-107116666D01*
%TO.C,R3*%
X102672380Y-108116666D02*
X102196190Y-108450000D01*
X102672380Y-108688095D02*
X101672380Y-108688095D01*
X101672380Y-108307142D01*
X101720000Y-108211904D01*
X101767619Y-108164285D01*
X101862857Y-108116666D01*
X102005714Y-108116666D01*
X102100952Y-108164285D01*
X102148571Y-108211904D01*
X102196190Y-108307142D01*
X102196190Y-108688095D01*
X101672380Y-107783333D02*
X101672380Y-107164285D01*
X102053333Y-107497619D01*
X102053333Y-107354761D01*
X102100952Y-107259523D01*
X102148571Y-107211904D01*
X102243809Y-107164285D01*
X102481904Y-107164285D01*
X102577142Y-107211904D01*
X102624761Y-107259523D01*
X102672380Y-107354761D01*
X102672380Y-107640476D01*
X102624761Y-107735714D01*
X102577142Y-107783333D01*
%TO.C,R2*%
X54412380Y-108116666D02*
X53936190Y-108450000D01*
X54412380Y-108688095D02*
X53412380Y-108688095D01*
X53412380Y-108307142D01*
X53460000Y-108211904D01*
X53507619Y-108164285D01*
X53602857Y-108116666D01*
X53745714Y-108116666D01*
X53840952Y-108164285D01*
X53888571Y-108211904D01*
X53936190Y-108307142D01*
X53936190Y-108688095D01*
X53507619Y-107735714D02*
X53460000Y-107688095D01*
X53412380Y-107592857D01*
X53412380Y-107354761D01*
X53460000Y-107259523D01*
X53507619Y-107211904D01*
X53602857Y-107164285D01*
X53698095Y-107164285D01*
X53840952Y-107211904D01*
X54412380Y-107783333D01*
X54412380Y-107164285D01*
%TO.C,R1*%
X36662380Y-108116666D02*
X36186190Y-108450000D01*
X36662380Y-108688095D02*
X35662380Y-108688095D01*
X35662380Y-108307142D01*
X35710000Y-108211904D01*
X35757619Y-108164285D01*
X35852857Y-108116666D01*
X35995714Y-108116666D01*
X36090952Y-108164285D01*
X36138571Y-108211904D01*
X36186190Y-108307142D01*
X36186190Y-108688095D01*
X36662380Y-107164285D02*
X36662380Y-107735714D01*
X36662380Y-107450000D02*
X35662380Y-107450000D01*
X35805238Y-107545238D01*
X35900476Y-107640476D01*
X35948095Y-107735714D01*
%TO.C,J8*%
X129206666Y-131742380D02*
X129206666Y-132456666D01*
X129159047Y-132599523D01*
X129063809Y-132694761D01*
X128920952Y-132742380D01*
X128825714Y-132742380D01*
X129825714Y-132170952D02*
X129730476Y-132123333D01*
X129682857Y-132075714D01*
X129635238Y-131980476D01*
X129635238Y-131932857D01*
X129682857Y-131837619D01*
X129730476Y-131790000D01*
X129825714Y-131742380D01*
X130016190Y-131742380D01*
X130111428Y-131790000D01*
X130159047Y-131837619D01*
X130206666Y-131932857D01*
X130206666Y-131980476D01*
X130159047Y-132075714D01*
X130111428Y-132123333D01*
X130016190Y-132170952D01*
X129825714Y-132170952D01*
X129730476Y-132218571D01*
X129682857Y-132266190D01*
X129635238Y-132361428D01*
X129635238Y-132551904D01*
X129682857Y-132647142D01*
X129730476Y-132694761D01*
X129825714Y-132742380D01*
X130016190Y-132742380D01*
X130111428Y-132694761D01*
X130159047Y-132647142D01*
X130206666Y-132551904D01*
X130206666Y-132361428D01*
X130159047Y-132266190D01*
X130111428Y-132218571D01*
X130016190Y-132170952D01*
%TO.C,J7*%
X64432380Y-143843333D02*
X65146666Y-143843333D01*
X65289523Y-143890952D01*
X65384761Y-143986190D01*
X65432380Y-144129047D01*
X65432380Y-144224285D01*
X64432380Y-143462380D02*
X64432380Y-142795714D01*
X65432380Y-143224285D01*
%TO.C,J6*%
X126242380Y-20653333D02*
X126956666Y-20653333D01*
X127099523Y-20700952D01*
X127194761Y-20796190D01*
X127242380Y-20939047D01*
X127242380Y-21034285D01*
X126242380Y-19748571D02*
X126242380Y-19939047D01*
X126290000Y-20034285D01*
X126337619Y-20081904D01*
X126480476Y-20177142D01*
X126670952Y-20224761D01*
X127051904Y-20224761D01*
X127147142Y-20177142D01*
X127194761Y-20129523D01*
X127242380Y-20034285D01*
X127242380Y-19843809D01*
X127194761Y-19748571D01*
X127147142Y-19700952D01*
X127051904Y-19653333D01*
X126813809Y-19653333D01*
X126718571Y-19700952D01*
X126670952Y-19748571D01*
X126623333Y-19843809D01*
X126623333Y-20034285D01*
X126670952Y-20129523D01*
X126718571Y-20177142D01*
X126813809Y-20224761D01*
%TO.C,J5*%
X85602380Y-15573333D02*
X86316666Y-15573333D01*
X86459523Y-15620952D01*
X86554761Y-15716190D01*
X86602380Y-15859047D01*
X86602380Y-15954285D01*
X85602380Y-14620952D02*
X85602380Y-15097142D01*
X86078571Y-15144761D01*
X86030952Y-15097142D01*
X85983333Y-15001904D01*
X85983333Y-14763809D01*
X86030952Y-14668571D01*
X86078571Y-14620952D01*
X86173809Y-14573333D01*
X86411904Y-14573333D01*
X86507142Y-14620952D01*
X86554761Y-14668571D01*
X86602380Y-14763809D01*
X86602380Y-15001904D01*
X86554761Y-15097142D01*
X86507142Y-15144761D01*
%TO.C,J4*%
X39882380Y-15573333D02*
X40596666Y-15573333D01*
X40739523Y-15620952D01*
X40834761Y-15716190D01*
X40882380Y-15859047D01*
X40882380Y-15954285D01*
X40215714Y-14668571D02*
X40882380Y-14668571D01*
X39834761Y-14906666D02*
X40549047Y-15144761D01*
X40549047Y-14525714D01*
%TO.C,J3*%
X39882380Y-143843333D02*
X40596666Y-143843333D01*
X40739523Y-143890952D01*
X40834761Y-143986190D01*
X40882380Y-144129047D01*
X40882380Y-144224285D01*
X39882380Y-143462380D02*
X39882380Y-142843333D01*
X40263333Y-143176666D01*
X40263333Y-143033809D01*
X40310952Y-142938571D01*
X40358571Y-142890952D01*
X40453809Y-142843333D01*
X40691904Y-142843333D01*
X40787142Y-142890952D01*
X40834761Y-142938571D01*
X40882380Y-143033809D01*
X40882380Y-143319523D01*
X40834761Y-143414761D01*
X40787142Y-143462380D01*
%TO.C,J2*%
X39882380Y-128603333D02*
X40596666Y-128603333D01*
X40739523Y-128650952D01*
X40834761Y-128746190D01*
X40882380Y-128889047D01*
X40882380Y-128984285D01*
X39977619Y-128174761D02*
X39930000Y-128127142D01*
X39882380Y-128031904D01*
X39882380Y-127793809D01*
X39930000Y-127698571D01*
X39977619Y-127650952D01*
X40072857Y-127603333D01*
X40168095Y-127603333D01*
X40310952Y-127650952D01*
X40882380Y-128222380D01*
X40882380Y-127603333D01*
%TO.C,J1*%
X141906666Y-18712380D02*
X141906666Y-19426666D01*
X141859047Y-19569523D01*
X141763809Y-19664761D01*
X141620952Y-19712380D01*
X141525714Y-19712380D01*
X142906666Y-19712380D02*
X142335238Y-19712380D01*
X142620952Y-19712380D02*
X142620952Y-18712380D01*
X142525714Y-18855238D01*
X142430476Y-18950476D01*
X142335238Y-18998095D01*
%TO.C,D10*%
X128325714Y-117142380D02*
X128325714Y-116142380D01*
X128563809Y-116142380D01*
X128706666Y-116190000D01*
X128801904Y-116285238D01*
X128849523Y-116380476D01*
X128897142Y-116570952D01*
X128897142Y-116713809D01*
X128849523Y-116904285D01*
X128801904Y-116999523D01*
X128706666Y-117094761D01*
X128563809Y-117142380D01*
X128325714Y-117142380D01*
X129849523Y-117142380D02*
X129278095Y-117142380D01*
X129563809Y-117142380D02*
X129563809Y-116142380D01*
X129468571Y-116285238D01*
X129373333Y-116380476D01*
X129278095Y-116428095D01*
X130468571Y-116142380D02*
X130563809Y-116142380D01*
X130659047Y-116190000D01*
X130706666Y-116237619D01*
X130754285Y-116332857D01*
X130801904Y-116523333D01*
X130801904Y-116761428D01*
X130754285Y-116951904D01*
X130706666Y-117047142D01*
X130659047Y-117094761D01*
X130563809Y-117142380D01*
X130468571Y-117142380D01*
X130373333Y-117094761D01*
X130325714Y-117047142D01*
X130278095Y-116951904D01*
X130230476Y-116761428D01*
X130230476Y-116523333D01*
X130278095Y-116332857D01*
X130325714Y-116237619D01*
X130373333Y-116190000D01*
X130468571Y-116142380D01*
%TO.C,D9*%
X128801904Y-106982380D02*
X128801904Y-105982380D01*
X129040000Y-105982380D01*
X129182857Y-106030000D01*
X129278095Y-106125238D01*
X129325714Y-106220476D01*
X129373333Y-106410952D01*
X129373333Y-106553809D01*
X129325714Y-106744285D01*
X129278095Y-106839523D01*
X129182857Y-106934761D01*
X129040000Y-106982380D01*
X128801904Y-106982380D01*
X129849523Y-106982380D02*
X130040000Y-106982380D01*
X130135238Y-106934761D01*
X130182857Y-106887142D01*
X130278095Y-106744285D01*
X130325714Y-106553809D01*
X130325714Y-106172857D01*
X130278095Y-106077619D01*
X130230476Y-106030000D01*
X130135238Y-105982380D01*
X129944761Y-105982380D01*
X129849523Y-106030000D01*
X129801904Y-106077619D01*
X129754285Y-106172857D01*
X129754285Y-106410952D01*
X129801904Y-106506190D01*
X129849523Y-106553809D01*
X129944761Y-106601428D01*
X130135238Y-106601428D01*
X130230476Y-106553809D01*
X130278095Y-106506190D01*
X130325714Y-106410952D01*
%TO.C,D8*%
X128801904Y-96822380D02*
X128801904Y-95822380D01*
X129040000Y-95822380D01*
X129182857Y-95870000D01*
X129278095Y-95965238D01*
X129325714Y-96060476D01*
X129373333Y-96250952D01*
X129373333Y-96393809D01*
X129325714Y-96584285D01*
X129278095Y-96679523D01*
X129182857Y-96774761D01*
X129040000Y-96822380D01*
X128801904Y-96822380D01*
X129944761Y-96250952D02*
X129849523Y-96203333D01*
X129801904Y-96155714D01*
X129754285Y-96060476D01*
X129754285Y-96012857D01*
X129801904Y-95917619D01*
X129849523Y-95870000D01*
X129944761Y-95822380D01*
X130135238Y-95822380D01*
X130230476Y-95870000D01*
X130278095Y-95917619D01*
X130325714Y-96012857D01*
X130325714Y-96060476D01*
X130278095Y-96155714D01*
X130230476Y-96203333D01*
X130135238Y-96250952D01*
X129944761Y-96250952D01*
X129849523Y-96298571D01*
X129801904Y-96346190D01*
X129754285Y-96441428D01*
X129754285Y-96631904D01*
X129801904Y-96727142D01*
X129849523Y-96774761D01*
X129944761Y-96822380D01*
X130135238Y-96822380D01*
X130230476Y-96774761D01*
X130278095Y-96727142D01*
X130325714Y-96631904D01*
X130325714Y-96441428D01*
X130278095Y-96346190D01*
X130230476Y-96298571D01*
X130135238Y-96250952D01*
%TO.C,D7*%
X128801904Y-86662380D02*
X128801904Y-85662380D01*
X129040000Y-85662380D01*
X129182857Y-85710000D01*
X129278095Y-85805238D01*
X129325714Y-85900476D01*
X129373333Y-86090952D01*
X129373333Y-86233809D01*
X129325714Y-86424285D01*
X129278095Y-86519523D01*
X129182857Y-86614761D01*
X129040000Y-86662380D01*
X128801904Y-86662380D01*
X129706666Y-85662380D02*
X130373333Y-85662380D01*
X129944761Y-86662380D01*
%TO.C,D5*%
X80541904Y-104442380D02*
X80541904Y-103442380D01*
X80780000Y-103442380D01*
X80922857Y-103490000D01*
X81018095Y-103585238D01*
X81065714Y-103680476D01*
X81113333Y-103870952D01*
X81113333Y-104013809D01*
X81065714Y-104204285D01*
X81018095Y-104299523D01*
X80922857Y-104394761D01*
X80780000Y-104442380D01*
X80541904Y-104442380D01*
X82018095Y-103442380D02*
X81541904Y-103442380D01*
X81494285Y-103918571D01*
X81541904Y-103870952D01*
X81637142Y-103823333D01*
X81875238Y-103823333D01*
X81970476Y-103870952D01*
X82018095Y-103918571D01*
X82065714Y-104013809D01*
X82065714Y-104251904D01*
X82018095Y-104347142D01*
X81970476Y-104394761D01*
X81875238Y-104442380D01*
X81637142Y-104442380D01*
X81541904Y-104394761D01*
X81494285Y-104347142D01*
%TO.C,D4*%
X95781904Y-104442380D02*
X95781904Y-103442380D01*
X96020000Y-103442380D01*
X96162857Y-103490000D01*
X96258095Y-103585238D01*
X96305714Y-103680476D01*
X96353333Y-103870952D01*
X96353333Y-104013809D01*
X96305714Y-104204285D01*
X96258095Y-104299523D01*
X96162857Y-104394761D01*
X96020000Y-104442380D01*
X95781904Y-104442380D01*
X97210476Y-103775714D02*
X97210476Y-104442380D01*
X96972380Y-103394761D02*
X96734285Y-104109047D01*
X97353333Y-104109047D01*
%TO.C,D3*%
X109751904Y-104442380D02*
X109751904Y-103442380D01*
X109990000Y-103442380D01*
X110132857Y-103490000D01*
X110228095Y-103585238D01*
X110275714Y-103680476D01*
X110323333Y-103870952D01*
X110323333Y-104013809D01*
X110275714Y-104204285D01*
X110228095Y-104299523D01*
X110132857Y-104394761D01*
X109990000Y-104442380D01*
X109751904Y-104442380D01*
X110656666Y-103442380D02*
X111275714Y-103442380D01*
X110942380Y-103823333D01*
X111085238Y-103823333D01*
X111180476Y-103870952D01*
X111228095Y-103918571D01*
X111275714Y-104013809D01*
X111275714Y-104251904D01*
X111228095Y-104347142D01*
X111180476Y-104394761D01*
X111085238Y-104442380D01*
X110799523Y-104442380D01*
X110704285Y-104394761D01*
X110656666Y-104347142D01*
%TO.C,D2*%
X61491904Y-104442380D02*
X61491904Y-103442380D01*
X61730000Y-103442380D01*
X61872857Y-103490000D01*
X61968095Y-103585238D01*
X62015714Y-103680476D01*
X62063333Y-103870952D01*
X62063333Y-104013809D01*
X62015714Y-104204285D01*
X61968095Y-104299523D01*
X61872857Y-104394761D01*
X61730000Y-104442380D01*
X61491904Y-104442380D01*
X62444285Y-103537619D02*
X62491904Y-103490000D01*
X62587142Y-103442380D01*
X62825238Y-103442380D01*
X62920476Y-103490000D01*
X62968095Y-103537619D01*
X63015714Y-103632857D01*
X63015714Y-103728095D01*
X62968095Y-103870952D01*
X62396666Y-104442380D01*
X63015714Y-104442380D01*
%TO.C,D1*%
X41171904Y-104442380D02*
X41171904Y-103442380D01*
X41410000Y-103442380D01*
X41552857Y-103490000D01*
X41648095Y-103585238D01*
X41695714Y-103680476D01*
X41743333Y-103870952D01*
X41743333Y-104013809D01*
X41695714Y-104204285D01*
X41648095Y-104299523D01*
X41552857Y-104394761D01*
X41410000Y-104442380D01*
X41171904Y-104442380D01*
X42695714Y-104442380D02*
X42124285Y-104442380D01*
X42410000Y-104442380D02*
X42410000Y-103442380D01*
X42314761Y-103585238D01*
X42219523Y-103680476D01*
X42124285Y-103728095D01*
%TO.C,C13*%
X118427142Y-48862857D02*
X118474761Y-48910476D01*
X118522380Y-49053333D01*
X118522380Y-49148571D01*
X118474761Y-49291428D01*
X118379523Y-49386666D01*
X118284285Y-49434285D01*
X118093809Y-49481904D01*
X117950952Y-49481904D01*
X117760476Y-49434285D01*
X117665238Y-49386666D01*
X117570000Y-49291428D01*
X117522380Y-49148571D01*
X117522380Y-49053333D01*
X117570000Y-48910476D01*
X117617619Y-48862857D01*
X118522380Y-47910476D02*
X118522380Y-48481904D01*
X118522380Y-48196190D02*
X117522380Y-48196190D01*
X117665238Y-48291428D01*
X117760476Y-48386666D01*
X117808095Y-48481904D01*
X117522380Y-47577142D02*
X117522380Y-46958095D01*
X117903333Y-47291428D01*
X117903333Y-47148571D01*
X117950952Y-47053333D01*
X117998571Y-47005714D01*
X118093809Y-46958095D01*
X118331904Y-46958095D01*
X118427142Y-47005714D01*
X118474761Y-47053333D01*
X118522380Y-47148571D01*
X118522380Y-47434285D01*
X118474761Y-47529523D01*
X118427142Y-47577142D01*
%TO.C,C12*%
X72707142Y-48862857D02*
X72754761Y-48910476D01*
X72802380Y-49053333D01*
X72802380Y-49148571D01*
X72754761Y-49291428D01*
X72659523Y-49386666D01*
X72564285Y-49434285D01*
X72373809Y-49481904D01*
X72230952Y-49481904D01*
X72040476Y-49434285D01*
X71945238Y-49386666D01*
X71850000Y-49291428D01*
X71802380Y-49148571D01*
X71802380Y-49053333D01*
X71850000Y-48910476D01*
X71897619Y-48862857D01*
X72802380Y-47910476D02*
X72802380Y-48481904D01*
X72802380Y-48196190D02*
X71802380Y-48196190D01*
X71945238Y-48291428D01*
X72040476Y-48386666D01*
X72088095Y-48481904D01*
X71897619Y-47529523D02*
X71850000Y-47481904D01*
X71802380Y-47386666D01*
X71802380Y-47148571D01*
X71850000Y-47053333D01*
X71897619Y-47005714D01*
X71992857Y-46958095D01*
X72088095Y-46958095D01*
X72230952Y-47005714D01*
X72802380Y-47577142D01*
X72802380Y-46958095D01*
%TO.C,C11*%
X52387142Y-72992857D02*
X52434761Y-73040476D01*
X52482380Y-73183333D01*
X52482380Y-73278571D01*
X52434761Y-73421428D01*
X52339523Y-73516666D01*
X52244285Y-73564285D01*
X52053809Y-73611904D01*
X51910952Y-73611904D01*
X51720476Y-73564285D01*
X51625238Y-73516666D01*
X51530000Y-73421428D01*
X51482380Y-73278571D01*
X51482380Y-73183333D01*
X51530000Y-73040476D01*
X51577619Y-72992857D01*
X52482380Y-72040476D02*
X52482380Y-72611904D01*
X52482380Y-72326190D02*
X51482380Y-72326190D01*
X51625238Y-72421428D01*
X51720476Y-72516666D01*
X51768095Y-72611904D01*
X52482380Y-71088095D02*
X52482380Y-71659523D01*
X52482380Y-71373809D02*
X51482380Y-71373809D01*
X51625238Y-71469047D01*
X51720476Y-71564285D01*
X51768095Y-71659523D01*
%TO.C,C10*%
X20637142Y-72992857D02*
X20684761Y-73040476D01*
X20732380Y-73183333D01*
X20732380Y-73278571D01*
X20684761Y-73421428D01*
X20589523Y-73516666D01*
X20494285Y-73564285D01*
X20303809Y-73611904D01*
X20160952Y-73611904D01*
X19970476Y-73564285D01*
X19875238Y-73516666D01*
X19780000Y-73421428D01*
X19732380Y-73278571D01*
X19732380Y-73183333D01*
X19780000Y-73040476D01*
X19827619Y-72992857D01*
X20732380Y-72040476D02*
X20732380Y-72611904D01*
X20732380Y-72326190D02*
X19732380Y-72326190D01*
X19875238Y-72421428D01*
X19970476Y-72516666D01*
X20018095Y-72611904D01*
X19732380Y-71421428D02*
X19732380Y-71326190D01*
X19780000Y-71230952D01*
X19827619Y-71183333D01*
X19922857Y-71135714D01*
X20113333Y-71088095D01*
X20351428Y-71088095D01*
X20541904Y-71135714D01*
X20637142Y-71183333D01*
X20684761Y-71230952D01*
X20732380Y-71326190D01*
X20732380Y-71421428D01*
X20684761Y-71516666D01*
X20637142Y-71564285D01*
X20541904Y-71611904D01*
X20351428Y-71659523D01*
X20113333Y-71659523D01*
X19922857Y-71611904D01*
X19827619Y-71564285D01*
X19780000Y-71516666D01*
X19732380Y-71421428D01*
%TO.C,C9*%
X119697142Y-72516666D02*
X119744761Y-72564285D01*
X119792380Y-72707142D01*
X119792380Y-72802380D01*
X119744761Y-72945238D01*
X119649523Y-73040476D01*
X119554285Y-73088095D01*
X119363809Y-73135714D01*
X119220952Y-73135714D01*
X119030476Y-73088095D01*
X118935238Y-73040476D01*
X118840000Y-72945238D01*
X118792380Y-72802380D01*
X118792380Y-72707142D01*
X118840000Y-72564285D01*
X118887619Y-72516666D01*
X119792380Y-72040476D02*
X119792380Y-71850000D01*
X119744761Y-71754761D01*
X119697142Y-71707142D01*
X119554285Y-71611904D01*
X119363809Y-71564285D01*
X118982857Y-71564285D01*
X118887619Y-71611904D01*
X118840000Y-71659523D01*
X118792380Y-71754761D01*
X118792380Y-71945238D01*
X118840000Y-72040476D01*
X118887619Y-72088095D01*
X118982857Y-72135714D01*
X119220952Y-72135714D01*
X119316190Y-72088095D01*
X119363809Y-72040476D01*
X119411428Y-71945238D01*
X119411428Y-71754761D01*
X119363809Y-71659523D01*
X119316190Y-71611904D01*
X119220952Y-71564285D01*
%TO.C,C8*%
X85407142Y-72516666D02*
X85454761Y-72564285D01*
X85502380Y-72707142D01*
X85502380Y-72802380D01*
X85454761Y-72945238D01*
X85359523Y-73040476D01*
X85264285Y-73088095D01*
X85073809Y-73135714D01*
X84930952Y-73135714D01*
X84740476Y-73088095D01*
X84645238Y-73040476D01*
X84550000Y-72945238D01*
X84502380Y-72802380D01*
X84502380Y-72707142D01*
X84550000Y-72564285D01*
X84597619Y-72516666D01*
X84930952Y-71945238D02*
X84883333Y-72040476D01*
X84835714Y-72088095D01*
X84740476Y-72135714D01*
X84692857Y-72135714D01*
X84597619Y-72088095D01*
X84550000Y-72040476D01*
X84502380Y-71945238D01*
X84502380Y-71754761D01*
X84550000Y-71659523D01*
X84597619Y-71611904D01*
X84692857Y-71564285D01*
X84740476Y-71564285D01*
X84835714Y-71611904D01*
X84883333Y-71659523D01*
X84930952Y-71754761D01*
X84930952Y-71945238D01*
X84978571Y-72040476D01*
X85026190Y-72088095D01*
X85121428Y-72135714D01*
X85311904Y-72135714D01*
X85407142Y-72088095D01*
X85454761Y-72040476D01*
X85502380Y-71945238D01*
X85502380Y-71754761D01*
X85454761Y-71659523D01*
X85407142Y-71611904D01*
X85311904Y-71564285D01*
X85121428Y-71564285D01*
X85026190Y-71611904D01*
X84978571Y-71659523D01*
X84930952Y-71754761D01*
%TO.C,C7*%
X53657142Y-92836666D02*
X53704761Y-92884285D01*
X53752380Y-93027142D01*
X53752380Y-93122380D01*
X53704761Y-93265238D01*
X53609523Y-93360476D01*
X53514285Y-93408095D01*
X53323809Y-93455714D01*
X53180952Y-93455714D01*
X52990476Y-93408095D01*
X52895238Y-93360476D01*
X52800000Y-93265238D01*
X52752380Y-93122380D01*
X52752380Y-93027142D01*
X52800000Y-92884285D01*
X52847619Y-92836666D01*
X52752380Y-92503333D02*
X52752380Y-91836666D01*
X53752380Y-92265238D01*
%TO.C,C6*%
X21907142Y-92836666D02*
X21954761Y-92884285D01*
X22002380Y-93027142D01*
X22002380Y-93122380D01*
X21954761Y-93265238D01*
X21859523Y-93360476D01*
X21764285Y-93408095D01*
X21573809Y-93455714D01*
X21430952Y-93455714D01*
X21240476Y-93408095D01*
X21145238Y-93360476D01*
X21050000Y-93265238D01*
X21002380Y-93122380D01*
X21002380Y-93027142D01*
X21050000Y-92884285D01*
X21097619Y-92836666D01*
X21002380Y-91979523D02*
X21002380Y-92170000D01*
X21050000Y-92265238D01*
X21097619Y-92312857D01*
X21240476Y-92408095D01*
X21430952Y-92455714D01*
X21811904Y-92455714D01*
X21907142Y-92408095D01*
X21954761Y-92360476D01*
X22002380Y-92265238D01*
X22002380Y-92074761D01*
X21954761Y-91979523D01*
X21907142Y-91931904D01*
X21811904Y-91884285D01*
X21573809Y-91884285D01*
X21478571Y-91931904D01*
X21430952Y-91979523D01*
X21383333Y-92074761D01*
X21383333Y-92265238D01*
X21430952Y-92360476D01*
X21478571Y-92408095D01*
X21573809Y-92455714D01*
%TO.C,C5*%
X87947142Y-92836666D02*
X87994761Y-92884285D01*
X88042380Y-93027142D01*
X88042380Y-93122380D01*
X87994761Y-93265238D01*
X87899523Y-93360476D01*
X87804285Y-93408095D01*
X87613809Y-93455714D01*
X87470952Y-93455714D01*
X87280476Y-93408095D01*
X87185238Y-93360476D01*
X87090000Y-93265238D01*
X87042380Y-93122380D01*
X87042380Y-93027142D01*
X87090000Y-92884285D01*
X87137619Y-92836666D01*
X87042380Y-91931904D02*
X87042380Y-92408095D01*
X87518571Y-92455714D01*
X87470952Y-92408095D01*
X87423333Y-92312857D01*
X87423333Y-92074761D01*
X87470952Y-91979523D01*
X87518571Y-91931904D01*
X87613809Y-91884285D01*
X87851904Y-91884285D01*
X87947142Y-91931904D01*
X87994761Y-91979523D01*
X88042380Y-92074761D01*
X88042380Y-92312857D01*
X87994761Y-92408095D01*
X87947142Y-92455714D01*
%TO.C,C4*%
X86677142Y-28066666D02*
X86724761Y-28114285D01*
X86772380Y-28257142D01*
X86772380Y-28352380D01*
X86724761Y-28495238D01*
X86629523Y-28590476D01*
X86534285Y-28638095D01*
X86343809Y-28685714D01*
X86200952Y-28685714D01*
X86010476Y-28638095D01*
X85915238Y-28590476D01*
X85820000Y-28495238D01*
X85772380Y-28352380D01*
X85772380Y-28257142D01*
X85820000Y-28114285D01*
X85867619Y-28066666D01*
X86105714Y-27209523D02*
X86772380Y-27209523D01*
X85724761Y-27447619D02*
X86439047Y-27685714D01*
X86439047Y-27066666D01*
%TO.C,C3*%
X32067142Y-48386666D02*
X32114761Y-48434285D01*
X32162380Y-48577142D01*
X32162380Y-48672380D01*
X32114761Y-48815238D01*
X32019523Y-48910476D01*
X31924285Y-48958095D01*
X31733809Y-49005714D01*
X31590952Y-49005714D01*
X31400476Y-48958095D01*
X31305238Y-48910476D01*
X31210000Y-48815238D01*
X31162380Y-48672380D01*
X31162380Y-48577142D01*
X31210000Y-48434285D01*
X31257619Y-48386666D01*
X31162380Y-48053333D02*
X31162380Y-47434285D01*
X31543333Y-47767619D01*
X31543333Y-47624761D01*
X31590952Y-47529523D01*
X31638571Y-47481904D01*
X31733809Y-47434285D01*
X31971904Y-47434285D01*
X32067142Y-47481904D01*
X32114761Y-47529523D01*
X32162380Y-47624761D01*
X32162380Y-47910476D01*
X32114761Y-48005714D01*
X32067142Y-48053333D01*
%TO.C,C2*%
X51117142Y-28066666D02*
X51164761Y-28114285D01*
X51212380Y-28257142D01*
X51212380Y-28352380D01*
X51164761Y-28495238D01*
X51069523Y-28590476D01*
X50974285Y-28638095D01*
X50783809Y-28685714D01*
X50640952Y-28685714D01*
X50450476Y-28638095D01*
X50355238Y-28590476D01*
X50260000Y-28495238D01*
X50212380Y-28352380D01*
X50212380Y-28257142D01*
X50260000Y-28114285D01*
X50307619Y-28066666D01*
X50307619Y-27685714D02*
X50260000Y-27638095D01*
X50212380Y-27542857D01*
X50212380Y-27304761D01*
X50260000Y-27209523D01*
X50307619Y-27161904D01*
X50402857Y-27114285D01*
X50498095Y-27114285D01*
X50640952Y-27161904D01*
X51212380Y-27733333D01*
X51212380Y-27114285D01*
%TO.C,C1*%
X21907142Y-28066666D02*
X21954761Y-28114285D01*
X22002380Y-28257142D01*
X22002380Y-28352380D01*
X21954761Y-28495238D01*
X21859523Y-28590476D01*
X21764285Y-28638095D01*
X21573809Y-28685714D01*
X21430952Y-28685714D01*
X21240476Y-28638095D01*
X21145238Y-28590476D01*
X21050000Y-28495238D01*
X21002380Y-28352380D01*
X21002380Y-28257142D01*
X21050000Y-28114285D01*
X21097619Y-28066666D01*
X22002380Y-27114285D02*
X22002380Y-27685714D01*
X22002380Y-27400000D02*
X21002380Y-27400000D01*
X21145238Y-27495238D01*
X21240476Y-27590476D01*
X21288095Y-27685714D01*
%TD*%
M02*
