M48
; DRILL file {KiCad 5.1.6-c6e7f7d~87~ubuntu16.04.1} date Tue Mar  8 12:54:42 2022
; FORMAT={-:-/ absolute / metric / decimal}
; #@! TF.CreationDate,2022-03-08T12:54:42-05:00
; #@! TF.GenerationSoftware,Kicad,Pcbnew,5.1.6-c6e7f7d~87~ubuntu16.04.1
FMAT,2
METRIC
T1C0.400
T2C0.700
T3C0.800
T4C0.900
T5C1.000
T6C1.100
T7C2.700
%
G90
G05
T1
X31.855Y-35.724
X34.059Y-37.624
X34.388Y-39.283
X35.435Y-82.532
X35.437Y-38.352
X36.83Y-70.978
X43.094Y-31.024
X43.094Y-84.677
X44.411Y-93.776
X46.526Y-13.596
X47.573Y-129.528
X48.387Y-92.739
X52.736Y-29.094
X54.032Y-29.824
X54.196Y-100.316
X55.553Y-49.742
X55.88Y-39.409
X57.15Y-21.621
X58.42Y-90.77
X59.78Y-44.959
X61.155Y-52.507
X64.459Y-98.727
X66.74Y-109.502
X67.701Y-43.211
X72.311Y-23.442
X79.226Y-84.5
X79.554Y-96.92
X80.01Y-22.072
X80.01Y-42.2
X80.114Y-130.169
X80.334Y-91.335
X83.544Y-58.756
X84.706Y-27.991
X85.919Y-28.166
X86.511Y-96.161
X87.249Y-26.629
X88.458Y-65.976
X89.569Y-33.698
X91.295Y-87.238
X95.394Y-73.575
X101.6Y-43.995
X102.87Y-72.207
X106.68Y-47.488
X109.22Y-48.213
X125.842Y-105.801
X128.514Y-65.976
T2
X110.49Y-127.0
X115.57Y-127.0
X101.6Y-127.0
X106.68Y-127.0
X83.82Y-127.0
X88.9Y-127.0
X54.61Y-116.84
X54.61Y-121.92
X101.6Y-115.57
X101.6Y-120.65
X55.88Y-105.41
X55.88Y-110.49
X123.19Y-107.95
X123.19Y-113.03
X123.19Y-97.79
X123.19Y-102.87
X74.93Y-127.0
X80.01Y-127.0
X90.17Y-105.41
X90.17Y-110.49
X31.75Y-116.84
X31.75Y-121.92
X123.19Y-118.11
X123.19Y-123.19
X57.15Y-127.0
X62.23Y-127.0
X74.93Y-105.41
X74.93Y-110.49
X48.26Y-127.0
X53.34Y-127.0
X92.71Y-127.0
X97.79Y-127.0
X34.29Y-105.41
X34.29Y-110.49
X123.19Y-87.63
X123.19Y-92.71
X66.04Y-127.0
X71.12Y-127.0
X104.14Y-105.41
X104.14Y-110.49
T3
X121.92Y-68.58
X121.92Y-76.2
X124.46Y-68.58
X124.46Y-76.2
X127.0Y-68.58
X127.0Y-76.2
X129.54Y-68.58
X129.54Y-76.2
X132.08Y-68.58
X132.08Y-76.2
X134.62Y-68.58
X134.62Y-76.2
X137.16Y-68.58
X137.16Y-76.2
X74.93Y-44.45
X74.93Y-52.07
X77.47Y-44.45
X77.47Y-52.07
X80.01Y-44.45
X80.01Y-52.07
X82.55Y-44.45
X82.55Y-52.07
X85.09Y-44.45
X85.09Y-52.07
X87.63Y-44.45
X87.63Y-52.07
X90.17Y-44.45
X90.17Y-52.07
X92.71Y-44.45
X92.71Y-52.07
X95.25Y-44.45
X95.25Y-52.07
X97.79Y-44.45
X97.79Y-52.07
X24.13Y-24.13
X24.13Y-31.75
X26.67Y-24.13
X26.67Y-31.75
X29.21Y-24.13
X29.21Y-31.75
X31.75Y-24.13
X31.75Y-31.75
X34.29Y-24.13
X34.29Y-31.75
X36.83Y-24.13
X36.83Y-31.75
X39.37Y-24.13
X39.37Y-31.75
X69.85Y-45.72
X69.85Y-50.72
X83.82Y-25.4
X83.82Y-30.4
X34.29Y-44.45
X34.29Y-52.07
X36.83Y-44.45
X36.83Y-52.07
X39.37Y-44.45
X39.37Y-52.07
X41.91Y-44.45
X41.91Y-52.07
X44.45Y-44.45
X44.45Y-52.07
X46.99Y-44.45
X46.99Y-52.07
X49.53Y-44.45
X49.53Y-52.07
X52.07Y-44.45
X52.07Y-52.07
X54.61Y-44.45
X54.61Y-52.07
X57.15Y-44.45
X57.15Y-52.07
X24.13Y-68.58
X24.13Y-76.2
X26.67Y-68.58
X26.67Y-76.2
X29.21Y-68.58
X29.21Y-76.2
X31.75Y-68.58
X31.75Y-76.2
X34.29Y-68.58
X34.29Y-76.2
X36.83Y-68.58
X36.83Y-76.2
X39.37Y-68.58
X39.37Y-76.2
X19.05Y-90.17
X19.05Y-95.17
X50.8Y-90.17
X50.8Y-95.17
X116.84Y-69.85
X116.84Y-74.85
X82.55Y-69.85
X82.55Y-74.85
X88.9Y-24.13
X88.9Y-31.75
X91.44Y-24.13
X91.44Y-31.75
X93.98Y-24.13
X93.98Y-31.75
X96.52Y-24.13
X96.52Y-31.75
X99.06Y-24.13
X99.06Y-31.75
X101.6Y-24.13
X101.6Y-31.75
X104.14Y-24.13
X104.14Y-31.75
X106.68Y-24.13
X106.68Y-31.75
X109.22Y-24.13
X109.22Y-31.75
X111.76Y-24.13
X111.76Y-31.75
X87.63Y-68.58
X87.63Y-76.2
X90.17Y-68.58
X90.17Y-76.2
X92.71Y-68.58
X92.71Y-76.2
X95.25Y-68.58
X95.25Y-76.2
X97.79Y-68.58
X97.79Y-76.2
X100.33Y-68.58
X100.33Y-76.2
X102.87Y-68.58
X102.87Y-76.2
X85.09Y-90.17
X85.09Y-95.17
X120.65Y-44.45
X120.65Y-52.07
X123.19Y-44.45
X123.19Y-52.07
X125.73Y-44.45
X125.73Y-52.07
X128.27Y-44.45
X128.27Y-52.07
X130.81Y-44.45
X130.81Y-52.07
X133.35Y-44.45
X133.35Y-52.07
X135.89Y-44.45
X135.89Y-52.07
X24.13Y-88.9
X24.13Y-96.52
X26.67Y-88.9
X26.67Y-96.52
X29.21Y-88.9
X29.21Y-96.52
X31.75Y-88.9
X31.75Y-96.52
X34.29Y-88.9
X34.29Y-96.52
X36.83Y-88.9
X36.83Y-96.52
X39.37Y-88.9
X39.37Y-96.52
X41.91Y-88.9
X41.91Y-96.52
X17.78Y-69.85
X17.78Y-74.85
X48.26Y-25.4
X48.26Y-30.4
X115.57Y-45.72
X115.57Y-50.72
X53.34Y-24.13
X53.34Y-31.75
X55.88Y-24.13
X55.88Y-31.75
X58.42Y-24.13
X58.42Y-31.75
X60.96Y-24.13
X60.96Y-31.75
X63.5Y-24.13
X63.5Y-31.75
X66.04Y-24.13
X66.04Y-31.75
X68.58Y-24.13
X68.58Y-31.75
X55.88Y-88.9
X55.88Y-96.52
X58.42Y-88.9
X58.42Y-96.52
X60.96Y-88.9
X60.96Y-96.52
X63.5Y-88.9
X63.5Y-96.52
X66.04Y-88.9
X66.04Y-96.52
X68.58Y-88.9
X68.58Y-96.52
X71.12Y-88.9
X71.12Y-96.52
X73.66Y-88.9
X73.66Y-96.52
X54.61Y-68.58
X54.61Y-76.2
X57.15Y-68.58
X57.15Y-76.2
X59.69Y-68.58
X59.69Y-76.2
X62.23Y-68.58
X62.23Y-76.2
X64.77Y-68.58
X64.77Y-76.2
X67.31Y-68.58
X67.31Y-76.2
X69.85Y-68.58
X69.85Y-76.2
X90.17Y-88.9
X90.17Y-96.52
X92.71Y-88.9
X92.71Y-96.52
X95.25Y-88.9
X95.25Y-96.52
X97.79Y-88.9
X97.79Y-96.52
X100.33Y-88.9
X100.33Y-96.52
X102.87Y-88.9
X102.87Y-96.52
X105.41Y-88.9
X105.41Y-96.52
X107.95Y-88.9
X107.95Y-96.52
X110.49Y-88.9
X110.49Y-96.52
X113.03Y-88.9
X113.03Y-96.52
X49.53Y-69.85
X49.53Y-74.85
X29.21Y-45.72
X29.21Y-50.72
X19.05Y-25.4
X19.05Y-30.4
T4
X59.69Y-132.08
X59.69Y-134.62
X128.27Y-120.65
X130.81Y-120.65
X77.47Y-132.08
X77.47Y-134.62
X95.25Y-132.08
X95.25Y-134.62
X40.64Y-107.95
X43.18Y-107.95
X128.27Y-100.33
X130.81Y-100.33
X113.03Y-132.08
X113.03Y-134.62
X50.8Y-132.08
X50.8Y-134.62
X128.27Y-110.49
X130.81Y-110.49
X104.14Y-132.08
X104.14Y-134.62
X128.27Y-90.17
X130.81Y-90.17
X95.25Y-107.95
X97.79Y-107.95
X86.36Y-132.08
X86.36Y-134.62
X68.58Y-132.08
X68.58Y-134.62
X60.96Y-107.95
X63.5Y-107.95
X80.01Y-107.95
X82.55Y-107.95
X109.22Y-107.95
X111.76Y-107.95
T5
X121.92Y-12.7
X124.46Y-12.7
X20.32Y-128.27
X22.86Y-128.27
X25.4Y-128.27
X27.94Y-128.27
X30.48Y-128.27
X33.02Y-128.27
X35.56Y-128.27
X38.1Y-128.27
X116.84Y-20.32
X119.38Y-20.32
X121.92Y-20.32
X124.46Y-20.32
X66.04Y-15.24
X68.58Y-15.24
X71.12Y-15.24
X73.66Y-15.24
X76.2Y-15.24
X78.74Y-15.24
X81.28Y-15.24
X83.82Y-15.24
X20.32Y-143.51
X22.86Y-143.51
X25.4Y-143.51
X27.94Y-143.51
X30.48Y-143.51
X33.02Y-143.51
X35.56Y-143.51
X38.1Y-143.51
X20.32Y-15.24
X22.86Y-15.24
X25.4Y-15.24
X27.94Y-15.24
X30.48Y-15.24
X33.02Y-15.24
X35.56Y-15.24
X38.1Y-15.24
X142.24Y-21.59
X142.24Y-24.13
X142.24Y-26.67
X129.54Y-134.62
X129.54Y-137.16
X129.54Y-139.7
X129.54Y-142.24
X67.31Y-143.51
X69.85Y-143.51
X72.39Y-143.51
X74.93Y-143.51
X77.47Y-143.51
X147.32Y-21.59
X147.32Y-24.13
X147.32Y-26.67
T6
X38.1Y-116.84
X38.1Y-121.34
X44.6Y-116.84
X44.6Y-121.34
X106.68Y-115.57
X106.68Y-120.07
X113.18Y-115.57
X113.18Y-120.07
X59.69Y-116.84
X59.69Y-121.34
X66.19Y-116.84
X66.19Y-121.34
T7
X13.97Y-154.94
X144.78Y-154.94
X13.97Y-13.97
X146.05Y-35.56
T0
M30
