%TF.GenerationSoftware,KiCad,Pcbnew,5.1.6-c6e7f7d~87~ubuntu16.04.1*%
%TF.CreationDate,2020-11-27T02:48:22-05:00*%
%TF.ProjectId,riscyalu,72697363-7961-46c7-952e-6b696361645f,rev?*%
%TF.SameCoordinates,Original*%
%TF.FileFunction,Copper,L1,Top*%
%TF.FilePolarity,Positive*%
%FSLAX46Y46*%
G04 Gerber Fmt 4.6, Leading zero omitted, Abs format (unit mm)*
G04 Created by KiCad (PCBNEW 5.1.6-c6e7f7d~87~ubuntu16.04.1) date 2020-11-27 02:48:22*
%MOMM*%
%LPD*%
G01*
G04 APERTURE LIST*
%TA.AperFunction,Profile*%
%ADD10C,0.100000*%
%TD*%
%TA.AperFunction,NonConductor*%
%ADD11C,0.300000*%
%TD*%
%TA.AperFunction,ComponentPad*%
%ADD12C,2.000000*%
%TD*%
%TA.AperFunction,ComponentPad*%
%ADD13O,1.400000X1.400000*%
%TD*%
%TA.AperFunction,ComponentPad*%
%ADD14C,1.400000*%
%TD*%
%TA.AperFunction,ComponentPad*%
%ADD15O,1.700000X1.700000*%
%TD*%
%TA.AperFunction,ComponentPad*%
%ADD16R,1.700000X1.700000*%
%TD*%
%TA.AperFunction,ComponentPad*%
%ADD17C,1.800000*%
%TD*%
%TA.AperFunction,ComponentPad*%
%ADD18R,1.800000X1.800000*%
%TD*%
%TA.AperFunction,ComponentPad*%
%ADD19O,1.600000X1.600000*%
%TD*%
%TA.AperFunction,ComponentPad*%
%ADD20R,1.600000X1.600000*%
%TD*%
%TA.AperFunction,ComponentPad*%
%ADD21C,1.600000*%
%TD*%
%TA.AperFunction,ViaPad*%
%ADD22C,0.800000*%
%TD*%
%TA.AperFunction,Conductor*%
%ADD23C,0.250000*%
%TD*%
G04 APERTURE END LIST*
D10*
X149860000Y-10160000D02*
X149860000Y-160020000D01*
X10160000Y-10160000D02*
X149860000Y-10160000D01*
X10160000Y-160020000D02*
X10160000Y-10160000D01*
X149860000Y-160020000D02*
X10160000Y-160020000D01*
D11*
X107958571Y-154348571D02*
X107101428Y-154348571D01*
X107530000Y-154348571D02*
X107530000Y-152848571D01*
X107387142Y-153062857D01*
X107244285Y-153205714D01*
X107101428Y-153277142D01*
X109387142Y-154348571D02*
X108530000Y-154348571D01*
X108958571Y-154348571D02*
X108958571Y-152848571D01*
X108815714Y-153062857D01*
X108672857Y-153205714D01*
X108530000Y-153277142D01*
X112244285Y-152777142D02*
X110958571Y-154705714D01*
X113815714Y-152991428D02*
X113887142Y-152920000D01*
X114030000Y-152848571D01*
X114387142Y-152848571D01*
X114530000Y-152920000D01*
X114601428Y-152991428D01*
X114672857Y-153134285D01*
X114672857Y-153277142D01*
X114601428Y-153491428D01*
X113744285Y-154348571D01*
X114672857Y-154348571D01*
X115601428Y-152848571D02*
X115744285Y-152848571D01*
X115887142Y-152920000D01*
X115958571Y-152991428D01*
X116030000Y-153134285D01*
X116101428Y-153420000D01*
X116101428Y-153777142D01*
X116030000Y-154062857D01*
X115958571Y-154205714D01*
X115887142Y-154277142D01*
X115744285Y-154348571D01*
X115601428Y-154348571D01*
X115458571Y-154277142D01*
X115387142Y-154205714D01*
X115315714Y-154062857D01*
X115244285Y-153777142D01*
X115244285Y-153420000D01*
X115315714Y-153134285D01*
X115387142Y-152991428D01*
X115458571Y-152920000D01*
X115601428Y-152848571D01*
X116672857Y-152991428D02*
X116744285Y-152920000D01*
X116887142Y-152848571D01*
X117244285Y-152848571D01*
X117387142Y-152920000D01*
X117458571Y-152991428D01*
X117530000Y-153134285D01*
X117530000Y-153277142D01*
X117458571Y-153491428D01*
X116601428Y-154348571D01*
X117530000Y-154348571D01*
X118458571Y-152848571D02*
X118601428Y-152848571D01*
X118744285Y-152920000D01*
X118815714Y-152991428D01*
X118887142Y-153134285D01*
X118958571Y-153420000D01*
X118958571Y-153777142D01*
X118887142Y-154062857D01*
X118815714Y-154205714D01*
X118744285Y-154277142D01*
X118601428Y-154348571D01*
X118458571Y-154348571D01*
X118315714Y-154277142D01*
X118244285Y-154205714D01*
X118172857Y-154062857D01*
X118101428Y-153777142D01*
X118101428Y-153420000D01*
X118172857Y-153134285D01*
X118244285Y-152991428D01*
X118315714Y-152920000D01*
X118458571Y-152848571D01*
X87714285Y-154348571D02*
X87714285Y-152848571D01*
X88214285Y-153920000D01*
X88714285Y-152848571D01*
X88714285Y-154348571D01*
X89428571Y-154348571D02*
X89428571Y-153348571D01*
X89428571Y-152848571D02*
X89357142Y-152920000D01*
X89428571Y-152991428D01*
X89500000Y-152920000D01*
X89428571Y-152848571D01*
X89428571Y-152991428D01*
X90785714Y-154277142D02*
X90642857Y-154348571D01*
X90357142Y-154348571D01*
X90214285Y-154277142D01*
X90142857Y-154205714D01*
X90071428Y-154062857D01*
X90071428Y-153634285D01*
X90142857Y-153491428D01*
X90214285Y-153420000D01*
X90357142Y-153348571D01*
X90642857Y-153348571D01*
X90785714Y-153420000D01*
X91428571Y-154348571D02*
X91428571Y-152848571D01*
X92071428Y-154348571D02*
X92071428Y-153562857D01*
X92000000Y-153420000D01*
X91857142Y-153348571D01*
X91642857Y-153348571D01*
X91500000Y-153420000D01*
X91428571Y-153491428D01*
X93428571Y-154348571D02*
X93428571Y-153562857D01*
X93357142Y-153420000D01*
X93214285Y-153348571D01*
X92928571Y-153348571D01*
X92785714Y-153420000D01*
X93428571Y-154277142D02*
X93285714Y-154348571D01*
X92928571Y-154348571D01*
X92785714Y-154277142D01*
X92714285Y-154134285D01*
X92714285Y-153991428D01*
X92785714Y-153848571D01*
X92928571Y-153777142D01*
X93285714Y-153777142D01*
X93428571Y-153705714D01*
X94714285Y-154277142D02*
X94571428Y-154348571D01*
X94285714Y-154348571D01*
X94142857Y-154277142D01*
X94071428Y-154134285D01*
X94071428Y-153562857D01*
X94142857Y-153420000D01*
X94285714Y-153348571D01*
X94571428Y-153348571D01*
X94714285Y-153420000D01*
X94785714Y-153562857D01*
X94785714Y-153705714D01*
X94071428Y-153848571D01*
X95642857Y-154348571D02*
X95500000Y-154277142D01*
X95428571Y-154134285D01*
X95428571Y-152848571D01*
X97857142Y-153562857D02*
X98071428Y-153634285D01*
X98142857Y-153705714D01*
X98214285Y-153848571D01*
X98214285Y-154062857D01*
X98142857Y-154205714D01*
X98071428Y-154277142D01*
X97928571Y-154348571D01*
X97357142Y-154348571D01*
X97357142Y-152848571D01*
X97857142Y-152848571D01*
X98000000Y-152920000D01*
X98071428Y-152991428D01*
X98142857Y-153134285D01*
X98142857Y-153277142D01*
X98071428Y-153420000D01*
X98000000Y-153491428D01*
X97857142Y-153562857D01*
X97357142Y-153562857D01*
X99071428Y-154348571D02*
X98928571Y-154277142D01*
X98857142Y-154134285D01*
X98857142Y-152848571D01*
X100285714Y-154348571D02*
X100285714Y-153562857D01*
X100214285Y-153420000D01*
X100071428Y-153348571D01*
X99785714Y-153348571D01*
X99642857Y-153420000D01*
X100285714Y-154277142D02*
X100142857Y-154348571D01*
X99785714Y-154348571D01*
X99642857Y-154277142D01*
X99571428Y-154134285D01*
X99571428Y-153991428D01*
X99642857Y-153848571D01*
X99785714Y-153777142D01*
X100142857Y-153777142D01*
X100285714Y-153705714D01*
X101642857Y-154277142D02*
X101499999Y-154348571D01*
X101214285Y-154348571D01*
X101071428Y-154277142D01*
X100999999Y-154205714D01*
X100928571Y-154062857D01*
X100928571Y-153634285D01*
X100999999Y-153491428D01*
X101071428Y-153420000D01*
X101214285Y-153348571D01*
X101499999Y-153348571D01*
X101642857Y-153420000D01*
X102285714Y-154348571D02*
X102285714Y-152848571D01*
X102428571Y-153777142D02*
X102857142Y-154348571D01*
X102857142Y-153348571D02*
X102285714Y-153920000D01*
X82389999Y-150538571D02*
X81889999Y-149824285D01*
X81532857Y-150538571D02*
X81532857Y-149038571D01*
X82104285Y-149038571D01*
X82247142Y-149110000D01*
X82318571Y-149181428D01*
X82389999Y-149324285D01*
X82389999Y-149538571D01*
X82318571Y-149681428D01*
X82247142Y-149752857D01*
X82104285Y-149824285D01*
X81532857Y-149824285D01*
X83032857Y-150538571D02*
X83032857Y-149038571D01*
X83675714Y-150467142D02*
X83889999Y-150538571D01*
X84247142Y-150538571D01*
X84389999Y-150467142D01*
X84461428Y-150395714D01*
X84532857Y-150252857D01*
X84532857Y-150110000D01*
X84461428Y-149967142D01*
X84389999Y-149895714D01*
X84247142Y-149824285D01*
X83961428Y-149752857D01*
X83818571Y-149681428D01*
X83747142Y-149610000D01*
X83675714Y-149467142D01*
X83675714Y-149324285D01*
X83747142Y-149181428D01*
X83818571Y-149110000D01*
X83961428Y-149038571D01*
X84318571Y-149038571D01*
X84532857Y-149110000D01*
X86032857Y-150395714D02*
X85961428Y-150467142D01*
X85747142Y-150538571D01*
X85604285Y-150538571D01*
X85389999Y-150467142D01*
X85247142Y-150324285D01*
X85175714Y-150181428D01*
X85104285Y-149895714D01*
X85104285Y-149681428D01*
X85175714Y-149395714D01*
X85247142Y-149252857D01*
X85389999Y-149110000D01*
X85604285Y-149038571D01*
X85747142Y-149038571D01*
X85961428Y-149110000D01*
X86032857Y-149181428D01*
X86961428Y-149824285D02*
X86961428Y-150538571D01*
X86461428Y-149038571D02*
X86961428Y-149824285D01*
X87461428Y-149038571D01*
X89032857Y-150110000D02*
X89747142Y-150110000D01*
X88889999Y-150538571D02*
X89389999Y-149038571D01*
X89889999Y-150538571D01*
X90389999Y-150538571D02*
X90389999Y-149538571D01*
X90389999Y-149824285D02*
X90461428Y-149681428D01*
X90532857Y-149610000D01*
X90675714Y-149538571D01*
X90818571Y-149538571D01*
X91318571Y-150538571D02*
X91318571Y-149538571D01*
X91318571Y-149038571D02*
X91247142Y-149110000D01*
X91318571Y-149181428D01*
X91389999Y-149110000D01*
X91318571Y-149038571D01*
X91318571Y-149181428D01*
X91818571Y-149538571D02*
X92389999Y-149538571D01*
X92032857Y-149038571D02*
X92032857Y-150324285D01*
X92104285Y-150467142D01*
X92247142Y-150538571D01*
X92389999Y-150538571D01*
X92889999Y-150538571D02*
X92889999Y-149038571D01*
X93532857Y-150538571D02*
X93532857Y-149752857D01*
X93461428Y-149610000D01*
X93318571Y-149538571D01*
X93104285Y-149538571D01*
X92961428Y-149610000D01*
X92889999Y-149681428D01*
X94247142Y-150538571D02*
X94247142Y-149538571D01*
X94247142Y-149681428D02*
X94318571Y-149610000D01*
X94461428Y-149538571D01*
X94675714Y-149538571D01*
X94818571Y-149610000D01*
X94889999Y-149752857D01*
X94889999Y-150538571D01*
X94889999Y-149752857D02*
X94961428Y-149610000D01*
X95104285Y-149538571D01*
X95318571Y-149538571D01*
X95461428Y-149610000D01*
X95532857Y-149752857D01*
X95532857Y-150538571D01*
X96818571Y-150467142D02*
X96675714Y-150538571D01*
X96389999Y-150538571D01*
X96247142Y-150467142D01*
X96175714Y-150324285D01*
X96175714Y-149752857D01*
X96247142Y-149610000D01*
X96389999Y-149538571D01*
X96675714Y-149538571D01*
X96818571Y-149610000D01*
X96889999Y-149752857D01*
X96889999Y-149895714D01*
X96175714Y-150038571D01*
X97318571Y-149538571D02*
X97889999Y-149538571D01*
X97532857Y-149038571D02*
X97532857Y-150324285D01*
X97604285Y-150467142D01*
X97747142Y-150538571D01*
X97889999Y-150538571D01*
X98389999Y-150538571D02*
X98389999Y-149538571D01*
X98389999Y-149038571D02*
X98318571Y-149110000D01*
X98389999Y-149181428D01*
X98461428Y-149110000D01*
X98389999Y-149038571D01*
X98389999Y-149181428D01*
X99747142Y-150467142D02*
X99604285Y-150538571D01*
X99318571Y-150538571D01*
X99175714Y-150467142D01*
X99104285Y-150395714D01*
X99032857Y-150252857D01*
X99032857Y-149824285D01*
X99104285Y-149681428D01*
X99175714Y-149610000D01*
X99318571Y-149538571D01*
X99604285Y-149538571D01*
X99747142Y-149610000D01*
X102604285Y-148967142D02*
X101318571Y-150895714D01*
X104961428Y-150538571D02*
X104247142Y-150538571D01*
X104247142Y-149038571D01*
X105675714Y-150538571D02*
X105532857Y-150467142D01*
X105461428Y-150395714D01*
X105389999Y-150252857D01*
X105389999Y-149824285D01*
X105461428Y-149681428D01*
X105532857Y-149610000D01*
X105675714Y-149538571D01*
X105889999Y-149538571D01*
X106032857Y-149610000D01*
X106104285Y-149681428D01*
X106175714Y-149824285D01*
X106175714Y-150252857D01*
X106104285Y-150395714D01*
X106032857Y-150467142D01*
X105889999Y-150538571D01*
X105675714Y-150538571D01*
X107461428Y-149538571D02*
X107461428Y-150752857D01*
X107389999Y-150895714D01*
X107318571Y-150967142D01*
X107175714Y-151038571D01*
X106961428Y-151038571D01*
X106818571Y-150967142D01*
X107461428Y-150467142D02*
X107318571Y-150538571D01*
X107032857Y-150538571D01*
X106889999Y-150467142D01*
X106818571Y-150395714D01*
X106747142Y-150252857D01*
X106747142Y-149824285D01*
X106818571Y-149681428D01*
X106889999Y-149610000D01*
X107032857Y-149538571D01*
X107318571Y-149538571D01*
X107461428Y-149610000D01*
X108175714Y-150538571D02*
X108175714Y-149538571D01*
X108175714Y-149038571D02*
X108104285Y-149110000D01*
X108175714Y-149181428D01*
X108247142Y-149110000D01*
X108175714Y-149038571D01*
X108175714Y-149181428D01*
X109532857Y-150467142D02*
X109389999Y-150538571D01*
X109104285Y-150538571D01*
X108961428Y-150467142D01*
X108889999Y-150395714D01*
X108818571Y-150252857D01*
X108818571Y-149824285D01*
X108889999Y-149681428D01*
X108961428Y-149610000D01*
X109104285Y-149538571D01*
X109389999Y-149538571D01*
X109532857Y-149610000D01*
X111318571Y-149038571D02*
X111318571Y-150252857D01*
X111389999Y-150395714D01*
X111461428Y-150467142D01*
X111604285Y-150538571D01*
X111889999Y-150538571D01*
X112032857Y-150467142D01*
X112104285Y-150395714D01*
X112175714Y-150252857D01*
X112175714Y-149038571D01*
X112889999Y-149538571D02*
X112889999Y-150538571D01*
X112889999Y-149681428D02*
X112961428Y-149610000D01*
X113104285Y-149538571D01*
X113318571Y-149538571D01*
X113461428Y-149610000D01*
X113532857Y-149752857D01*
X113532857Y-150538571D01*
X114247142Y-150538571D02*
X114247142Y-149538571D01*
X114247142Y-149038571D02*
X114175714Y-149110000D01*
X114247142Y-149181428D01*
X114318571Y-149110000D01*
X114247142Y-149038571D01*
X114247142Y-149181428D01*
X114747142Y-149538571D02*
X115318571Y-149538571D01*
X114961428Y-149038571D02*
X114961428Y-150324285D01*
X115032857Y-150467142D01*
X115175714Y-150538571D01*
X115318571Y-150538571D01*
X121532857Y-150538571D02*
X121532857Y-149538571D01*
X121532857Y-149824285D02*
X121604285Y-149681428D01*
X121675714Y-149610000D01*
X121818571Y-149538571D01*
X121961428Y-149538571D01*
X123032857Y-150467142D02*
X122889999Y-150538571D01*
X122604285Y-150538571D01*
X122461428Y-150467142D01*
X122389999Y-150324285D01*
X122389999Y-149752857D01*
X122461428Y-149610000D01*
X122604285Y-149538571D01*
X122889999Y-149538571D01*
X123032857Y-149610000D01*
X123104285Y-149752857D01*
X123104285Y-149895714D01*
X122389999Y-150038571D01*
X123604285Y-149538571D02*
X123961428Y-150538571D01*
X124318571Y-149538571D01*
X125961428Y-149181428D02*
X126032857Y-149110000D01*
X126175714Y-149038571D01*
X126532857Y-149038571D01*
X126675714Y-149110000D01*
X126747142Y-149181428D01*
X126818571Y-149324285D01*
X126818571Y-149467142D01*
X126747142Y-149681428D01*
X125889999Y-150538571D01*
X126818571Y-150538571D01*
X115804285Y-108628571D02*
X115804285Y-107842857D01*
X115732857Y-107700000D01*
X115590000Y-107628571D01*
X115304285Y-107628571D01*
X115161428Y-107700000D01*
X115804285Y-108557142D02*
X115661428Y-108628571D01*
X115304285Y-108628571D01*
X115161428Y-108557142D01*
X115090000Y-108414285D01*
X115090000Y-108271428D01*
X115161428Y-108128571D01*
X115304285Y-108057142D01*
X115661428Y-108057142D01*
X115804285Y-107985714D01*
X117161428Y-108628571D02*
X117161428Y-107128571D01*
X117161428Y-108557142D02*
X117018571Y-108628571D01*
X116732857Y-108628571D01*
X116590000Y-108557142D01*
X116518571Y-108485714D01*
X116447142Y-108342857D01*
X116447142Y-107914285D01*
X116518571Y-107771428D01*
X116590000Y-107700000D01*
X116732857Y-107628571D01*
X117018571Y-107628571D01*
X117161428Y-107700000D01*
X118518571Y-108628571D02*
X118518571Y-107128571D01*
X118518571Y-108557142D02*
X118375714Y-108628571D01*
X118090000Y-108628571D01*
X117947142Y-108557142D01*
X117875714Y-108485714D01*
X117804285Y-108342857D01*
X117804285Y-107914285D01*
X117875714Y-107771428D01*
X117947142Y-107700000D01*
X118090000Y-107628571D01*
X118375714Y-107628571D01*
X118518571Y-107700000D01*
X95020000Y-115672142D02*
X96162857Y-115672142D01*
X95591428Y-116243571D02*
X95591428Y-115100714D01*
X96877142Y-115672142D02*
X98020000Y-115672142D01*
X97448571Y-116243571D02*
X97448571Y-115100714D01*
X95020000Y-118222142D02*
X96162857Y-118222142D01*
X96877142Y-118222142D02*
X98020000Y-118222142D01*
X78994285Y-114407142D02*
X80137142Y-114407142D01*
X79565714Y-114978571D02*
X79565714Y-113835714D01*
X81922857Y-113407142D02*
X80637142Y-115335714D01*
X82422857Y-114407142D02*
X83565714Y-114407142D01*
X61158571Y-102207142D02*
X61301428Y-102278571D01*
X61587142Y-102278571D01*
X61730000Y-102207142D01*
X61801428Y-102064285D01*
X61801428Y-101992857D01*
X61730000Y-101850000D01*
X61587142Y-101778571D01*
X61372857Y-101778571D01*
X61230000Y-101707142D01*
X61158571Y-101564285D01*
X61158571Y-101492857D01*
X61230000Y-101350000D01*
X61372857Y-101278571D01*
X61587142Y-101278571D01*
X61730000Y-101350000D01*
X62658571Y-102278571D02*
X62515714Y-102207142D01*
X62444285Y-102064285D01*
X62444285Y-100778571D01*
X63230000Y-102278571D02*
X63230000Y-101278571D01*
X63230000Y-100778571D02*
X63158571Y-100850000D01*
X63230000Y-100921428D01*
X63301428Y-100850000D01*
X63230000Y-100778571D01*
X63230000Y-100921428D01*
X39552857Y-101278571D02*
X39552857Y-102278571D01*
X39552857Y-101421428D02*
X39624285Y-101350000D01*
X39767142Y-101278571D01*
X39981428Y-101278571D01*
X40124285Y-101350000D01*
X40195714Y-101492857D01*
X40195714Y-102278571D01*
X41552857Y-102278571D02*
X41552857Y-101492857D01*
X41481428Y-101350000D01*
X41338571Y-101278571D01*
X41052857Y-101278571D01*
X40910000Y-101350000D01*
X41552857Y-102207142D02*
X41410000Y-102278571D01*
X41052857Y-102278571D01*
X40910000Y-102207142D01*
X40838571Y-102064285D01*
X40838571Y-101921428D01*
X40910000Y-101778571D01*
X41052857Y-101707142D01*
X41410000Y-101707142D01*
X41552857Y-101635714D01*
X42267142Y-101278571D02*
X42267142Y-102278571D01*
X42267142Y-101421428D02*
X42338571Y-101350000D01*
X42481428Y-101278571D01*
X42695714Y-101278571D01*
X42838571Y-101350000D01*
X42910000Y-101492857D01*
X42910000Y-102278571D01*
X44267142Y-102278571D02*
X44267142Y-100778571D01*
X44267142Y-102207142D02*
X44124285Y-102278571D01*
X43838571Y-102278571D01*
X43695714Y-102207142D01*
X43624285Y-102135714D01*
X43552857Y-101992857D01*
X43552857Y-101564285D01*
X43624285Y-101421428D01*
X43695714Y-101350000D01*
X43838571Y-101278571D01*
X44124285Y-101278571D01*
X44267142Y-101350000D01*
X67968571Y-156185714D02*
X67182857Y-156185714D01*
X67040000Y-156257142D01*
X66968571Y-156400000D01*
X66968571Y-156685714D01*
X67040000Y-156828571D01*
X67897142Y-156185714D02*
X67968571Y-156328571D01*
X67968571Y-156685714D01*
X67897142Y-156828571D01*
X67754285Y-156900000D01*
X67611428Y-156900000D01*
X67468571Y-156828571D01*
X67397142Y-156685714D01*
X67397142Y-156328571D01*
X67325714Y-156185714D01*
X67968571Y-154828571D02*
X66468571Y-154828571D01*
X67897142Y-154828571D02*
X67968571Y-154971428D01*
X67968571Y-155257142D01*
X67897142Y-155400000D01*
X67825714Y-155471428D01*
X67682857Y-155542857D01*
X67254285Y-155542857D01*
X67111428Y-155471428D01*
X67040000Y-155400000D01*
X66968571Y-155257142D01*
X66968571Y-154971428D01*
X67040000Y-154828571D01*
X67968571Y-153471428D02*
X66468571Y-153471428D01*
X67897142Y-153471428D02*
X67968571Y-153614285D01*
X67968571Y-153900000D01*
X67897142Y-154042857D01*
X67825714Y-154114285D01*
X67682857Y-154185714D01*
X67254285Y-154185714D01*
X67111428Y-154114285D01*
X67040000Y-154042857D01*
X66968571Y-153900000D01*
X66968571Y-153614285D01*
X67040000Y-153471428D01*
X66397142Y-151685714D02*
X68325714Y-152971428D01*
X67897142Y-151257142D02*
X67968571Y-151114285D01*
X67968571Y-150828571D01*
X67897142Y-150685714D01*
X67754285Y-150614285D01*
X67682857Y-150614285D01*
X67540000Y-150685714D01*
X67468571Y-150828571D01*
X67468571Y-151042857D01*
X67397142Y-151185714D01*
X67254285Y-151257142D01*
X67182857Y-151257142D01*
X67040000Y-151185714D01*
X66968571Y-151042857D01*
X66968571Y-150828571D01*
X67040000Y-150685714D01*
X66968571Y-149328571D02*
X67968571Y-149328571D01*
X66968571Y-149971428D02*
X67754285Y-149971428D01*
X67897142Y-149900000D01*
X67968571Y-149757142D01*
X67968571Y-149542857D01*
X67897142Y-149400000D01*
X67825714Y-149328571D01*
X67968571Y-148614285D02*
X66468571Y-148614285D01*
X67040000Y-148614285D02*
X66968571Y-148471428D01*
X66968571Y-148185714D01*
X67040000Y-148042857D01*
X67111428Y-147971428D01*
X67254285Y-147900000D01*
X67682857Y-147900000D01*
X67825714Y-147971428D01*
X67897142Y-148042857D01*
X67968571Y-148185714D01*
X67968571Y-148471428D01*
X67897142Y-148614285D01*
X70518571Y-156471428D02*
X69518571Y-156471428D01*
X69018571Y-156471428D02*
X69090000Y-156542857D01*
X69161428Y-156471428D01*
X69090000Y-156400000D01*
X69018571Y-156471428D01*
X69161428Y-156471428D01*
X69518571Y-155757142D02*
X70518571Y-155757142D01*
X69661428Y-155757142D02*
X69590000Y-155685714D01*
X69518571Y-155542857D01*
X69518571Y-155328571D01*
X69590000Y-155185714D01*
X69732857Y-155114285D01*
X70518571Y-155114285D01*
X70447142Y-153757142D02*
X70518571Y-153900000D01*
X70518571Y-154185714D01*
X70447142Y-154328571D01*
X70375714Y-154400000D01*
X70232857Y-154471428D01*
X69804285Y-154471428D01*
X69661428Y-154400000D01*
X69590000Y-154328571D01*
X69518571Y-154185714D01*
X69518571Y-153900000D01*
X69590000Y-153757142D01*
X68947142Y-152042857D02*
X70875714Y-153328571D01*
X70518571Y-150900000D02*
X69018571Y-150900000D01*
X70447142Y-150900000D02*
X70518571Y-151042857D01*
X70518571Y-151328571D01*
X70447142Y-151471428D01*
X70375714Y-151542857D01*
X70232857Y-151614285D01*
X69804285Y-151614285D01*
X69661428Y-151542857D01*
X69590000Y-151471428D01*
X69518571Y-151328571D01*
X69518571Y-151042857D01*
X69590000Y-150900000D01*
X70447142Y-149614285D02*
X70518571Y-149757142D01*
X70518571Y-150042857D01*
X70447142Y-150185714D01*
X70304285Y-150257142D01*
X69732857Y-150257142D01*
X69590000Y-150185714D01*
X69518571Y-150042857D01*
X69518571Y-149757142D01*
X69590000Y-149614285D01*
X69732857Y-149542857D01*
X69875714Y-149542857D01*
X70018571Y-150257142D01*
X70447142Y-148257142D02*
X70518571Y-148400000D01*
X70518571Y-148685714D01*
X70447142Y-148828571D01*
X70375714Y-148900000D01*
X70232857Y-148971428D01*
X69804285Y-148971428D01*
X69661428Y-148900000D01*
X69590000Y-148828571D01*
X69518571Y-148685714D01*
X69518571Y-148400000D01*
X69590000Y-148257142D01*
X73068571Y-157150000D02*
X72282857Y-157150000D01*
X72140000Y-157221428D01*
X72068571Y-157364285D01*
X72068571Y-157650000D01*
X72140000Y-157792857D01*
X72997142Y-157150000D02*
X73068571Y-157292857D01*
X73068571Y-157650000D01*
X72997142Y-157792857D01*
X72854285Y-157864285D01*
X72711428Y-157864285D01*
X72568571Y-157792857D01*
X72497142Y-157650000D01*
X72497142Y-157292857D01*
X72425714Y-157150000D01*
X73068571Y-155792857D02*
X71568571Y-155792857D01*
X72997142Y-155792857D02*
X73068571Y-155935714D01*
X73068571Y-156221428D01*
X72997142Y-156364285D01*
X72925714Y-156435714D01*
X72782857Y-156507142D01*
X72354285Y-156507142D01*
X72211428Y-156435714D01*
X72140000Y-156364285D01*
X72068571Y-156221428D01*
X72068571Y-155935714D01*
X72140000Y-155792857D01*
X73068571Y-154435714D02*
X71568571Y-154435714D01*
X72997142Y-154435714D02*
X73068571Y-154578571D01*
X73068571Y-154864285D01*
X72997142Y-155007142D01*
X72925714Y-155078571D01*
X72782857Y-155150000D01*
X72354285Y-155150000D01*
X72211428Y-155078571D01*
X72140000Y-155007142D01*
X72068571Y-154864285D01*
X72068571Y-154578571D01*
X72140000Y-154435714D01*
X72068571Y-152792857D02*
X72068571Y-152221428D01*
X71568571Y-152578571D02*
X72854285Y-152578571D01*
X72997142Y-152507142D01*
X73068571Y-152364285D01*
X73068571Y-152221428D01*
X73068571Y-151507142D02*
X72997142Y-151650000D01*
X72925714Y-151721428D01*
X72782857Y-151792857D01*
X72354285Y-151792857D01*
X72211428Y-151721428D01*
X72140000Y-151650000D01*
X72068571Y-151507142D01*
X72068571Y-151292857D01*
X72140000Y-151150000D01*
X72211428Y-151078571D01*
X72354285Y-151007142D01*
X72782857Y-151007142D01*
X72925714Y-151078571D01*
X72997142Y-151150000D01*
X73068571Y-151292857D01*
X73068571Y-151507142D01*
X72068571Y-149364285D02*
X73068571Y-149078571D01*
X72354285Y-148792857D01*
X73068571Y-148507142D01*
X72068571Y-148221428D01*
X73068571Y-147650000D02*
X71568571Y-147650000D01*
X72140000Y-147650000D02*
X72068571Y-147507142D01*
X72068571Y-147221428D01*
X72140000Y-147078571D01*
X72211428Y-147007142D01*
X72354285Y-146935714D01*
X72782857Y-146935714D01*
X72925714Y-147007142D01*
X72997142Y-147078571D01*
X73068571Y-147221428D01*
X73068571Y-147507142D01*
X72997142Y-147650000D01*
X74618571Y-158471428D02*
X75618571Y-158471428D01*
X74761428Y-158471428D02*
X74690000Y-158400000D01*
X74618571Y-158257142D01*
X74618571Y-158042857D01*
X74690000Y-157900000D01*
X74832857Y-157828571D01*
X75618571Y-157828571D01*
X75618571Y-156471428D02*
X74832857Y-156471428D01*
X74690000Y-156542857D01*
X74618571Y-156685714D01*
X74618571Y-156971428D01*
X74690000Y-157114285D01*
X75547142Y-156471428D02*
X75618571Y-156614285D01*
X75618571Y-156971428D01*
X75547142Y-157114285D01*
X75404285Y-157185714D01*
X75261428Y-157185714D01*
X75118571Y-157114285D01*
X75047142Y-156971428D01*
X75047142Y-156614285D01*
X74975714Y-156471428D01*
X74618571Y-155757142D02*
X75618571Y-155757142D01*
X74761428Y-155757142D02*
X74690000Y-155685714D01*
X74618571Y-155542857D01*
X74618571Y-155328571D01*
X74690000Y-155185714D01*
X74832857Y-155114285D01*
X75618571Y-155114285D01*
X75618571Y-153757142D02*
X74118571Y-153757142D01*
X75547142Y-153757142D02*
X75618571Y-153900000D01*
X75618571Y-154185714D01*
X75547142Y-154328571D01*
X75475714Y-154400000D01*
X75332857Y-154471428D01*
X74904285Y-154471428D01*
X74761428Y-154400000D01*
X74690000Y-154328571D01*
X74618571Y-154185714D01*
X74618571Y-153900000D01*
X74690000Y-153757142D01*
X74618571Y-152114285D02*
X74618571Y-151542857D01*
X74118571Y-151900000D02*
X75404285Y-151900000D01*
X75547142Y-151828571D01*
X75618571Y-151685714D01*
X75618571Y-151542857D01*
X75618571Y-150828571D02*
X75547142Y-150971428D01*
X75475714Y-151042857D01*
X75332857Y-151114285D01*
X74904285Y-151114285D01*
X74761428Y-151042857D01*
X74690000Y-150971428D01*
X74618571Y-150828571D01*
X74618571Y-150614285D01*
X74690000Y-150471428D01*
X74761428Y-150400000D01*
X74904285Y-150328571D01*
X75332857Y-150328571D01*
X75475714Y-150400000D01*
X75547142Y-150471428D01*
X75618571Y-150614285D01*
X75618571Y-150828571D01*
X74618571Y-148685714D02*
X75618571Y-148400000D01*
X74904285Y-148114285D01*
X75618571Y-147828571D01*
X74618571Y-147542857D01*
X75618571Y-146971428D02*
X74118571Y-146971428D01*
X74690000Y-146971428D02*
X74618571Y-146828571D01*
X74618571Y-146542857D01*
X74690000Y-146400000D01*
X74761428Y-146328571D01*
X74904285Y-146257142D01*
X75332857Y-146257142D01*
X75475714Y-146328571D01*
X75547142Y-146400000D01*
X75618571Y-146542857D01*
X75618571Y-146828571D01*
X75547142Y-146971428D01*
X78097142Y-157185714D02*
X78168571Y-157042857D01*
X78168571Y-156757142D01*
X78097142Y-156614285D01*
X77954285Y-156542857D01*
X77882857Y-156542857D01*
X77740000Y-156614285D01*
X77668571Y-156757142D01*
X77668571Y-156971428D01*
X77597142Y-157114285D01*
X77454285Y-157185714D01*
X77382857Y-157185714D01*
X77240000Y-157114285D01*
X77168571Y-156971428D01*
X77168571Y-156757142D01*
X77240000Y-156614285D01*
X78168571Y-155685714D02*
X78097142Y-155828571D01*
X77954285Y-155900000D01*
X76668571Y-155900000D01*
X78168571Y-155114285D02*
X77168571Y-155114285D01*
X76668571Y-155114285D02*
X76740000Y-155185714D01*
X76811428Y-155114285D01*
X76740000Y-155042857D01*
X76668571Y-155114285D01*
X76811428Y-155114285D01*
X77168571Y-153471428D02*
X77168571Y-152900000D01*
X76668571Y-153257142D02*
X77954285Y-153257142D01*
X78097142Y-153185714D01*
X78168571Y-153042857D01*
X78168571Y-152900000D01*
X78168571Y-152185714D02*
X78097142Y-152328571D01*
X78025714Y-152400000D01*
X77882857Y-152471428D01*
X77454285Y-152471428D01*
X77311428Y-152400000D01*
X77240000Y-152328571D01*
X77168571Y-152185714D01*
X77168571Y-151971428D01*
X77240000Y-151828571D01*
X77311428Y-151757142D01*
X77454285Y-151685714D01*
X77882857Y-151685714D01*
X78025714Y-151757142D01*
X78097142Y-151828571D01*
X78168571Y-151971428D01*
X78168571Y-152185714D01*
X77168571Y-150042857D02*
X78168571Y-149757142D01*
X77454285Y-149471428D01*
X78168571Y-149185714D01*
X77168571Y-148900000D01*
X78168571Y-148328571D02*
X76668571Y-148328571D01*
X77240000Y-148328571D02*
X77168571Y-148185714D01*
X77168571Y-147900000D01*
X77240000Y-147757142D01*
X77311428Y-147685714D01*
X77454285Y-147614285D01*
X77882857Y-147614285D01*
X78025714Y-147685714D01*
X78097142Y-147757142D01*
X78168571Y-147900000D01*
X78168571Y-148185714D01*
X78097142Y-148328571D01*
X96485714Y-139950000D02*
X97200000Y-139950000D01*
X96342857Y-140378571D02*
X96842857Y-138878571D01*
X97342857Y-140378571D01*
X98557142Y-140378571D02*
X97842857Y-140378571D01*
X97842857Y-138878571D01*
X99057142Y-138878571D02*
X99057142Y-140092857D01*
X99128571Y-140235714D01*
X99200000Y-140307142D01*
X99342857Y-140378571D01*
X99628571Y-140378571D01*
X99771428Y-140307142D01*
X99842857Y-140235714D01*
X99914285Y-140092857D01*
X99914285Y-138878571D01*
X101985714Y-140378571D02*
X101842857Y-140307142D01*
X101771428Y-140235714D01*
X101700000Y-140092857D01*
X101700000Y-139664285D01*
X101771428Y-139521428D01*
X101842857Y-139450000D01*
X101985714Y-139378571D01*
X102200000Y-139378571D01*
X102342857Y-139450000D01*
X102414285Y-139521428D01*
X102485714Y-139664285D01*
X102485714Y-140092857D01*
X102414285Y-140235714D01*
X102342857Y-140307142D01*
X102200000Y-140378571D01*
X101985714Y-140378571D01*
X103771428Y-139378571D02*
X103771428Y-140378571D01*
X103128571Y-139378571D02*
X103128571Y-140164285D01*
X103200000Y-140307142D01*
X103342857Y-140378571D01*
X103557142Y-140378571D01*
X103700000Y-140307142D01*
X103771428Y-140235714D01*
X104271428Y-139378571D02*
X104842857Y-139378571D01*
X104485714Y-138878571D02*
X104485714Y-140164285D01*
X104557142Y-140307142D01*
X104700000Y-140378571D01*
X104842857Y-140378571D01*
X105342857Y-139378571D02*
X105342857Y-140878571D01*
X105342857Y-139450000D02*
X105485714Y-139378571D01*
X105771428Y-139378571D01*
X105914285Y-139450000D01*
X105985714Y-139521428D01*
X106057142Y-139664285D01*
X106057142Y-140092857D01*
X105985714Y-140235714D01*
X105914285Y-140307142D01*
X105771428Y-140378571D01*
X105485714Y-140378571D01*
X105342857Y-140307142D01*
X107342857Y-139378571D02*
X107342857Y-140378571D01*
X106700000Y-139378571D02*
X106700000Y-140164285D01*
X106771428Y-140307142D01*
X106914285Y-140378571D01*
X107128571Y-140378571D01*
X107271428Y-140307142D01*
X107342857Y-140235714D01*
X107842857Y-139378571D02*
X108414285Y-139378571D01*
X108057142Y-138878571D02*
X108057142Y-140164285D01*
X108128571Y-140307142D01*
X108271428Y-140378571D01*
X108414285Y-140378571D01*
X110485714Y-140950000D02*
X110414285Y-140878571D01*
X110271428Y-140664285D01*
X110200000Y-140521428D01*
X110128571Y-140307142D01*
X110057142Y-139950000D01*
X110057142Y-139664285D01*
X110128571Y-139307142D01*
X110200000Y-139092857D01*
X110271428Y-138950000D01*
X110414285Y-138735714D01*
X110485714Y-138664285D01*
X110914285Y-139378571D02*
X111200000Y-140378571D01*
X111485714Y-139664285D01*
X111771428Y-140378571D01*
X112057142Y-139378571D01*
X112628571Y-140378571D02*
X112628571Y-138878571D01*
X112628571Y-139450000D02*
X112771428Y-139378571D01*
X113057142Y-139378571D01*
X113200000Y-139450000D01*
X113271428Y-139521428D01*
X113342857Y-139664285D01*
X113342857Y-140092857D01*
X113271428Y-140235714D01*
X113200000Y-140307142D01*
X113057142Y-140378571D01*
X112771428Y-140378571D01*
X112628571Y-140307142D01*
X115128571Y-140378571D02*
X115128571Y-138878571D01*
X115128571Y-139450000D02*
X115271428Y-139378571D01*
X115557142Y-139378571D01*
X115700000Y-139450000D01*
X115771428Y-139521428D01*
X115842857Y-139664285D01*
X115842857Y-140092857D01*
X115771428Y-140235714D01*
X115700000Y-140307142D01*
X115557142Y-140378571D01*
X115271428Y-140378571D01*
X115128571Y-140307142D01*
X117128571Y-139378571D02*
X117128571Y-140378571D01*
X116485714Y-139378571D02*
X116485714Y-140164285D01*
X116557142Y-140307142D01*
X116700000Y-140378571D01*
X116914285Y-140378571D01*
X117057142Y-140307142D01*
X117128571Y-140235714D01*
X117771428Y-140307142D02*
X117914285Y-140378571D01*
X118200000Y-140378571D01*
X118342857Y-140307142D01*
X118414285Y-140164285D01*
X118414285Y-140092857D01*
X118342857Y-139950000D01*
X118200000Y-139878571D01*
X117985714Y-139878571D01*
X117842857Y-139807142D01*
X117771428Y-139664285D01*
X117771428Y-139592857D01*
X117842857Y-139450000D01*
X117985714Y-139378571D01*
X118200000Y-139378571D01*
X118342857Y-139450000D01*
X118914285Y-140950000D02*
X118985714Y-140878571D01*
X119128571Y-140664285D01*
X119200000Y-140521428D01*
X119271428Y-140307142D01*
X119342857Y-139950000D01*
X119342857Y-139664285D01*
X119271428Y-139307142D01*
X119200000Y-139092857D01*
X119128571Y-138950000D01*
X118985714Y-138735714D01*
X118914285Y-138664285D01*
X20332857Y-146998571D02*
X20618571Y-147998571D01*
X20904285Y-147284285D01*
X21190000Y-147998571D01*
X21475714Y-146998571D01*
X22047142Y-147998571D02*
X22047142Y-146998571D01*
X22047142Y-147284285D02*
X22118571Y-147141428D01*
X22190000Y-147070000D01*
X22332857Y-146998571D01*
X22475714Y-146998571D01*
X22975714Y-147998571D02*
X22975714Y-146998571D01*
X22975714Y-146498571D02*
X22904285Y-146570000D01*
X22975714Y-146641428D01*
X23047142Y-146570000D01*
X22975714Y-146498571D01*
X22975714Y-146641428D01*
X23475714Y-146998571D02*
X24047142Y-146998571D01*
X23690000Y-146498571D02*
X23690000Y-147784285D01*
X23761428Y-147927142D01*
X23904285Y-147998571D01*
X24047142Y-147998571D01*
X25118571Y-147927142D02*
X24975714Y-147998571D01*
X24690000Y-147998571D01*
X24547142Y-147927142D01*
X24475714Y-147784285D01*
X24475714Y-147212857D01*
X24547142Y-147070000D01*
X24690000Y-146998571D01*
X24975714Y-146998571D01*
X25118571Y-147070000D01*
X25190000Y-147212857D01*
X25190000Y-147355714D01*
X24475714Y-147498571D01*
X25832857Y-147998571D02*
X25832857Y-146498571D01*
X25832857Y-147070000D02*
X25975714Y-146998571D01*
X26261428Y-146998571D01*
X26404285Y-147070000D01*
X26475714Y-147141428D01*
X26547142Y-147284285D01*
X26547142Y-147712857D01*
X26475714Y-147855714D01*
X26404285Y-147927142D01*
X26261428Y-147998571D01*
X25975714Y-147998571D01*
X25832857Y-147927142D01*
X27832857Y-147998571D02*
X27832857Y-147212857D01*
X27761428Y-147070000D01*
X27618571Y-146998571D01*
X27332857Y-146998571D01*
X27190000Y-147070000D01*
X27832857Y-147927142D02*
X27690000Y-147998571D01*
X27332857Y-147998571D01*
X27190000Y-147927142D01*
X27118571Y-147784285D01*
X27118571Y-147641428D01*
X27190000Y-147498571D01*
X27332857Y-147427142D01*
X27690000Y-147427142D01*
X27832857Y-147355714D01*
X29190000Y-147927142D02*
X29047142Y-147998571D01*
X28761428Y-147998571D01*
X28618571Y-147927142D01*
X28547142Y-147855714D01*
X28475714Y-147712857D01*
X28475714Y-147284285D01*
X28547142Y-147141428D01*
X28618571Y-147070000D01*
X28761428Y-146998571D01*
X29047142Y-146998571D01*
X29190000Y-147070000D01*
X29832857Y-147998571D02*
X29832857Y-146498571D01*
X29975714Y-147427142D02*
X30404285Y-147998571D01*
X30404285Y-146998571D02*
X29832857Y-147570000D01*
X32190000Y-147998571D02*
X32190000Y-146498571D01*
X32190000Y-147070000D02*
X32332857Y-146998571D01*
X32618571Y-146998571D01*
X32761428Y-147070000D01*
X32832857Y-147141428D01*
X32904285Y-147284285D01*
X32904285Y-147712857D01*
X32832857Y-147855714D01*
X32761428Y-147927142D01*
X32618571Y-147998571D01*
X32332857Y-147998571D01*
X32190000Y-147927142D01*
X34190000Y-146998571D02*
X34190000Y-147998571D01*
X33547142Y-146998571D02*
X33547142Y-147784285D01*
X33618571Y-147927142D01*
X33761428Y-147998571D01*
X33975714Y-147998571D01*
X34118571Y-147927142D01*
X34190000Y-147855714D01*
X34832857Y-147927142D02*
X34975714Y-147998571D01*
X35261428Y-147998571D01*
X35404285Y-147927142D01*
X35475714Y-147784285D01*
X35475714Y-147712857D01*
X35404285Y-147570000D01*
X35261428Y-147498571D01*
X35047142Y-147498571D01*
X34904285Y-147427142D01*
X34832857Y-147284285D01*
X34832857Y-147212857D01*
X34904285Y-147070000D01*
X35047142Y-146998571D01*
X35261428Y-146998571D01*
X35404285Y-147070000D01*
X133120000Y-134497857D02*
X134262857Y-134497857D01*
X134262857Y-134926428D02*
X133120000Y-134926428D01*
X134977142Y-134497857D02*
X136120000Y-134497857D01*
X136120000Y-134926428D02*
X134977142Y-134926428D01*
X133691428Y-137690714D02*
X133762857Y-137762142D01*
X133691428Y-137833571D01*
X133620000Y-137762142D01*
X133691428Y-137690714D01*
X133691428Y-137833571D01*
X133691428Y-137262142D02*
X133620000Y-136405000D01*
X133691428Y-136333571D01*
X133762857Y-136405000D01*
X133691428Y-137262142D01*
X133691428Y-136333571D01*
X134405714Y-137047857D02*
X135548571Y-137047857D01*
X135548571Y-137476428D02*
X134405714Y-137476428D01*
X135191428Y-139383571D02*
X134048571Y-139812142D01*
X135191428Y-140240714D01*
X133120000Y-141933571D02*
X134262857Y-142362142D01*
X133120000Y-142790714D01*
X134977142Y-142147857D02*
X136120000Y-142147857D01*
X136120000Y-142576428D02*
X134977142Y-142576428D01*
X135307142Y-121328571D02*
X134807142Y-120614285D01*
X134450000Y-121328571D02*
X134450000Y-119828571D01*
X135021428Y-119828571D01*
X135164285Y-119900000D01*
X135235714Y-119971428D01*
X135307142Y-120114285D01*
X135307142Y-120328571D01*
X135235714Y-120471428D01*
X135164285Y-120542857D01*
X135021428Y-120614285D01*
X134450000Y-120614285D01*
X135950000Y-121328571D02*
X135950000Y-120328571D01*
X135950000Y-120614285D02*
X136021428Y-120471428D01*
X136092857Y-120400000D01*
X136235714Y-120328571D01*
X136378571Y-120328571D01*
X137521428Y-121328571D02*
X137521428Y-119828571D01*
X137521428Y-121257142D02*
X137378571Y-121328571D01*
X137092857Y-121328571D01*
X136950000Y-121257142D01*
X136878571Y-121185714D01*
X136807142Y-121042857D01*
X136807142Y-120614285D01*
X136878571Y-120471428D01*
X136950000Y-120400000D01*
X137092857Y-120328571D01*
X137378571Y-120328571D01*
X137521428Y-120400000D01*
X139378571Y-120328571D02*
X140521428Y-120757142D01*
X139378571Y-121185714D01*
X141235714Y-120542857D02*
X142378571Y-120542857D01*
X142378571Y-120971428D02*
X141235714Y-120971428D01*
X144521428Y-119828571D02*
X144664285Y-119828571D01*
X144807142Y-119900000D01*
X144878571Y-119971428D01*
X144950000Y-120114285D01*
X145021428Y-120400000D01*
X145021428Y-120757142D01*
X144950000Y-121042857D01*
X144878571Y-121185714D01*
X144807142Y-121257142D01*
X144664285Y-121328571D01*
X144521428Y-121328571D01*
X144378571Y-121257142D01*
X144307142Y-121185714D01*
X144235714Y-121042857D01*
X144164285Y-120757142D01*
X144164285Y-120400000D01*
X144235714Y-120114285D01*
X144307142Y-119971428D01*
X144378571Y-119900000D01*
X144521428Y-119828571D01*
X134965714Y-111168571D02*
X134465714Y-110454285D01*
X134108571Y-111168571D02*
X134108571Y-109668571D01*
X134680000Y-109668571D01*
X134822857Y-109740000D01*
X134894285Y-109811428D01*
X134965714Y-109954285D01*
X134965714Y-110168571D01*
X134894285Y-110311428D01*
X134822857Y-110382857D01*
X134680000Y-110454285D01*
X134108571Y-110454285D01*
X135608571Y-111168571D02*
X135608571Y-110168571D01*
X135608571Y-110454285D02*
X135680000Y-110311428D01*
X135751428Y-110240000D01*
X135894285Y-110168571D01*
X136037142Y-110168571D01*
X137180000Y-111168571D02*
X137180000Y-109668571D01*
X137180000Y-111097142D02*
X137037142Y-111168571D01*
X136751428Y-111168571D01*
X136608571Y-111097142D01*
X136537142Y-111025714D01*
X136465714Y-110882857D01*
X136465714Y-110454285D01*
X136537142Y-110311428D01*
X136608571Y-110240000D01*
X136751428Y-110168571D01*
X137037142Y-110168571D01*
X137180000Y-110240000D01*
X140180000Y-110168571D02*
X139037142Y-110597142D01*
X140180000Y-111025714D01*
X142322857Y-109668571D02*
X142465714Y-109668571D01*
X142608571Y-109740000D01*
X142680000Y-109811428D01*
X142751428Y-109954285D01*
X142822857Y-110240000D01*
X142822857Y-110597142D01*
X142751428Y-110882857D01*
X142680000Y-111025714D01*
X142608571Y-111097142D01*
X142465714Y-111168571D01*
X142322857Y-111168571D01*
X142180000Y-111097142D01*
X142108571Y-111025714D01*
X142037142Y-110882857D01*
X141965714Y-110597142D01*
X141965714Y-110240000D01*
X142037142Y-109954285D01*
X142108571Y-109811428D01*
X142180000Y-109740000D01*
X142322857Y-109668571D01*
X135878571Y-101008571D02*
X135378571Y-100294285D01*
X135021428Y-101008571D02*
X135021428Y-99508571D01*
X135592857Y-99508571D01*
X135735714Y-99580000D01*
X135807142Y-99651428D01*
X135878571Y-99794285D01*
X135878571Y-100008571D01*
X135807142Y-100151428D01*
X135735714Y-100222857D01*
X135592857Y-100294285D01*
X135021428Y-100294285D01*
X136521428Y-101008571D02*
X136521428Y-100008571D01*
X136521428Y-100294285D02*
X136592857Y-100151428D01*
X136664285Y-100080000D01*
X136807142Y-100008571D01*
X136950000Y-100008571D01*
X138092857Y-101008571D02*
X138092857Y-99508571D01*
X138092857Y-100937142D02*
X137950000Y-101008571D01*
X137664285Y-101008571D01*
X137521428Y-100937142D01*
X137450000Y-100865714D01*
X137378571Y-100722857D01*
X137378571Y-100294285D01*
X137450000Y-100151428D01*
X137521428Y-100080000D01*
X137664285Y-100008571D01*
X137950000Y-100008571D01*
X138092857Y-100080000D01*
X139950000Y-100865714D02*
X140021428Y-100937142D01*
X139950000Y-101008571D01*
X139878571Y-100937142D01*
X139950000Y-100865714D01*
X139950000Y-101008571D01*
X139950000Y-100437142D02*
X139878571Y-99580000D01*
X139950000Y-99508571D01*
X140021428Y-99580000D01*
X139950000Y-100437142D01*
X139950000Y-99508571D01*
X140664285Y-100222857D02*
X141807142Y-100222857D01*
X141807142Y-100651428D02*
X140664285Y-100651428D01*
X143950000Y-99508571D02*
X144092857Y-99508571D01*
X144235714Y-99580000D01*
X144307142Y-99651428D01*
X144378571Y-99794285D01*
X144450000Y-100080000D01*
X144450000Y-100437142D01*
X144378571Y-100722857D01*
X144307142Y-100865714D01*
X144235714Y-100937142D01*
X144092857Y-101008571D01*
X143950000Y-101008571D01*
X143807142Y-100937142D01*
X143735714Y-100865714D01*
X143664285Y-100722857D01*
X143592857Y-100437142D01*
X143592857Y-100080000D01*
X143664285Y-99794285D01*
X143735714Y-99651428D01*
X143807142Y-99580000D01*
X143950000Y-99508571D01*
X135307142Y-90848571D02*
X134807142Y-90134285D01*
X134450000Y-90848571D02*
X134450000Y-89348571D01*
X135021428Y-89348571D01*
X135164285Y-89420000D01*
X135235714Y-89491428D01*
X135307142Y-89634285D01*
X135307142Y-89848571D01*
X135235714Y-89991428D01*
X135164285Y-90062857D01*
X135021428Y-90134285D01*
X134450000Y-90134285D01*
X135950000Y-90848571D02*
X135950000Y-89848571D01*
X135950000Y-90134285D02*
X136021428Y-89991428D01*
X136092857Y-89920000D01*
X136235714Y-89848571D01*
X136378571Y-89848571D01*
X137521428Y-90848571D02*
X137521428Y-89348571D01*
X137521428Y-90777142D02*
X137378571Y-90848571D01*
X137092857Y-90848571D01*
X136950000Y-90777142D01*
X136878571Y-90705714D01*
X136807142Y-90562857D01*
X136807142Y-90134285D01*
X136878571Y-89991428D01*
X136950000Y-89920000D01*
X137092857Y-89848571D01*
X137378571Y-89848571D01*
X137521428Y-89920000D01*
X139378571Y-90062857D02*
X140521428Y-90062857D01*
X140521428Y-90491428D02*
X139378571Y-90491428D01*
X141235714Y-90062857D02*
X142378571Y-90062857D01*
X142378571Y-90491428D02*
X141235714Y-90491428D01*
X144521428Y-89348571D02*
X144664285Y-89348571D01*
X144807142Y-89420000D01*
X144878571Y-89491428D01*
X144950000Y-89634285D01*
X145021428Y-89920000D01*
X145021428Y-90277142D01*
X144950000Y-90562857D01*
X144878571Y-90705714D01*
X144807142Y-90777142D01*
X144664285Y-90848571D01*
X144521428Y-90848571D01*
X144378571Y-90777142D01*
X144307142Y-90705714D01*
X144235714Y-90562857D01*
X144164285Y-90277142D01*
X144164285Y-89920000D01*
X144235714Y-89634285D01*
X144307142Y-89491428D01*
X144378571Y-89420000D01*
X144521428Y-89348571D01*
X116022857Y-94428571D02*
X117022857Y-94428571D01*
X116380000Y-95928571D01*
X118237142Y-94928571D02*
X118237142Y-95928571D01*
X117880000Y-94357142D02*
X117522857Y-95428571D01*
X118451428Y-95428571D01*
X118951428Y-94571428D02*
X119022857Y-94500000D01*
X119165714Y-94428571D01*
X119522857Y-94428571D01*
X119665714Y-94500000D01*
X119737142Y-94571428D01*
X119808571Y-94714285D01*
X119808571Y-94857142D01*
X119737142Y-95071428D01*
X118880000Y-95928571D01*
X119808571Y-95928571D01*
X121094285Y-94928571D02*
X121094285Y-95928571D01*
X120737142Y-94357142D02*
X120380000Y-95428571D01*
X121308571Y-95428571D01*
X122594285Y-94428571D02*
X121880000Y-94428571D01*
X121808571Y-95142857D01*
X121880000Y-95071428D01*
X122022857Y-95000000D01*
X122380000Y-95000000D01*
X122522857Y-95071428D01*
X122594285Y-95142857D01*
X122665714Y-95285714D01*
X122665714Y-95642857D01*
X122594285Y-95785714D01*
X122522857Y-95857142D01*
X122380000Y-95928571D01*
X122022857Y-95928571D01*
X121880000Y-95857142D01*
X121808571Y-95785714D01*
X74112857Y-98238571D02*
X75112857Y-98238571D01*
X74470000Y-99738571D01*
X76327142Y-98738571D02*
X76327142Y-99738571D01*
X75970000Y-98167142D02*
X75612857Y-99238571D01*
X76541428Y-99238571D01*
X77041428Y-98381428D02*
X77112857Y-98310000D01*
X77255714Y-98238571D01*
X77612857Y-98238571D01*
X77755714Y-98310000D01*
X77827142Y-98381428D01*
X77898571Y-98524285D01*
X77898571Y-98667142D01*
X77827142Y-98881428D01*
X76970000Y-99738571D01*
X77898571Y-99738571D01*
X78755714Y-98881428D02*
X78612857Y-98810000D01*
X78541428Y-98738571D01*
X78470000Y-98595714D01*
X78470000Y-98524285D01*
X78541428Y-98381428D01*
X78612857Y-98310000D01*
X78755714Y-98238571D01*
X79041428Y-98238571D01*
X79184285Y-98310000D01*
X79255714Y-98381428D01*
X79327142Y-98524285D01*
X79327142Y-98595714D01*
X79255714Y-98738571D01*
X79184285Y-98810000D01*
X79041428Y-98881428D01*
X78755714Y-98881428D01*
X78612857Y-98952857D01*
X78541428Y-99024285D01*
X78470000Y-99167142D01*
X78470000Y-99452857D01*
X78541428Y-99595714D01*
X78612857Y-99667142D01*
X78755714Y-99738571D01*
X79041428Y-99738571D01*
X79184285Y-99667142D01*
X79255714Y-99595714D01*
X79327142Y-99452857D01*
X79327142Y-99167142D01*
X79255714Y-99024285D01*
X79184285Y-98952857D01*
X79041428Y-98881428D01*
X79827142Y-98238571D02*
X80755714Y-98238571D01*
X80255714Y-98810000D01*
X80470000Y-98810000D01*
X80612857Y-98881428D01*
X80684285Y-98952857D01*
X80755714Y-99095714D01*
X80755714Y-99452857D01*
X80684285Y-99595714D01*
X80612857Y-99667142D01*
X80470000Y-99738571D01*
X80041428Y-99738571D01*
X79898571Y-99667142D01*
X79827142Y-99595714D01*
X23312857Y-100778571D02*
X24312857Y-100778571D01*
X23670000Y-102278571D01*
X25527142Y-101278571D02*
X25527142Y-102278571D01*
X25170000Y-100707142D02*
X24812857Y-101778571D01*
X25741428Y-101778571D01*
X26241428Y-100921428D02*
X26312857Y-100850000D01*
X26455714Y-100778571D01*
X26812857Y-100778571D01*
X26955714Y-100850000D01*
X27027142Y-100921428D01*
X27098571Y-101064285D01*
X27098571Y-101207142D01*
X27027142Y-101421428D01*
X26170000Y-102278571D01*
X27098571Y-102278571D01*
X27955714Y-101421428D02*
X27812857Y-101350000D01*
X27741428Y-101278571D01*
X27670000Y-101135714D01*
X27670000Y-101064285D01*
X27741428Y-100921428D01*
X27812857Y-100850000D01*
X27955714Y-100778571D01*
X28241428Y-100778571D01*
X28384285Y-100850000D01*
X28455714Y-100921428D01*
X28527142Y-101064285D01*
X28527142Y-101135714D01*
X28455714Y-101278571D01*
X28384285Y-101350000D01*
X28241428Y-101421428D01*
X27955714Y-101421428D01*
X27812857Y-101492857D01*
X27741428Y-101564285D01*
X27670000Y-101707142D01*
X27670000Y-101992857D01*
X27741428Y-102135714D01*
X27812857Y-102207142D01*
X27955714Y-102278571D01*
X28241428Y-102278571D01*
X28384285Y-102207142D01*
X28455714Y-102135714D01*
X28527142Y-101992857D01*
X28527142Y-101707142D01*
X28455714Y-101564285D01*
X28384285Y-101492857D01*
X28241428Y-101421428D01*
X29027142Y-100778571D02*
X29955714Y-100778571D01*
X29455714Y-101350000D01*
X29670000Y-101350000D01*
X29812857Y-101421428D01*
X29884285Y-101492857D01*
X29955714Y-101635714D01*
X29955714Y-101992857D01*
X29884285Y-102135714D01*
X29812857Y-102207142D01*
X29670000Y-102278571D01*
X29241428Y-102278571D01*
X29098571Y-102207142D01*
X29027142Y-102135714D01*
X39267142Y-80458571D02*
X40267142Y-80458571D01*
X39624285Y-81958571D01*
X41481428Y-80958571D02*
X41481428Y-81958571D01*
X41124285Y-80387142D02*
X40767142Y-81458571D01*
X41695714Y-81458571D01*
X42124285Y-80458571D02*
X43052857Y-80458571D01*
X42552857Y-81030000D01*
X42767142Y-81030000D01*
X42910000Y-81101428D01*
X42981428Y-81172857D01*
X43052857Y-81315714D01*
X43052857Y-81672857D01*
X42981428Y-81815714D01*
X42910000Y-81887142D01*
X42767142Y-81958571D01*
X42338571Y-81958571D01*
X42195714Y-81887142D01*
X42124285Y-81815714D01*
X43624285Y-80601428D02*
X43695714Y-80530000D01*
X43838571Y-80458571D01*
X44195714Y-80458571D01*
X44338571Y-80530000D01*
X44410000Y-80601428D01*
X44481428Y-80744285D01*
X44481428Y-80887142D01*
X44410000Y-81101428D01*
X43552857Y-81958571D01*
X44481428Y-81958571D01*
X72287142Y-79188571D02*
X73287142Y-79188571D01*
X72644285Y-80688571D01*
X74501428Y-79688571D02*
X74501428Y-80688571D01*
X74144285Y-79117142D02*
X73787142Y-80188571D01*
X74715714Y-80188571D01*
X75144285Y-79188571D02*
X76072857Y-79188571D01*
X75572857Y-79760000D01*
X75787142Y-79760000D01*
X75930000Y-79831428D01*
X76001428Y-79902857D01*
X76072857Y-80045714D01*
X76072857Y-80402857D01*
X76001428Y-80545714D01*
X75930000Y-80617142D01*
X75787142Y-80688571D01*
X75358571Y-80688571D01*
X75215714Y-80617142D01*
X75144285Y-80545714D01*
X76644285Y-79331428D02*
X76715714Y-79260000D01*
X76858571Y-79188571D01*
X77215714Y-79188571D01*
X77358571Y-79260000D01*
X77430000Y-79331428D01*
X77501428Y-79474285D01*
X77501428Y-79617142D01*
X77430000Y-79831428D01*
X76572857Y-80688571D01*
X77501428Y-80688571D01*
X101497142Y-65218571D02*
X102497142Y-65218571D01*
X101854285Y-66718571D01*
X103711428Y-65718571D02*
X103711428Y-66718571D01*
X103354285Y-65147142D02*
X102997142Y-66218571D01*
X103925714Y-66218571D01*
X104711428Y-65861428D02*
X104568571Y-65790000D01*
X104497142Y-65718571D01*
X104425714Y-65575714D01*
X104425714Y-65504285D01*
X104497142Y-65361428D01*
X104568571Y-65290000D01*
X104711428Y-65218571D01*
X104997142Y-65218571D01*
X105140000Y-65290000D01*
X105211428Y-65361428D01*
X105282857Y-65504285D01*
X105282857Y-65575714D01*
X105211428Y-65718571D01*
X105140000Y-65790000D01*
X104997142Y-65861428D01*
X104711428Y-65861428D01*
X104568571Y-65932857D01*
X104497142Y-66004285D01*
X104425714Y-66147142D01*
X104425714Y-66432857D01*
X104497142Y-66575714D01*
X104568571Y-66647142D01*
X104711428Y-66718571D01*
X104997142Y-66718571D01*
X105140000Y-66647142D01*
X105211428Y-66575714D01*
X105282857Y-66432857D01*
X105282857Y-66147142D01*
X105211428Y-66004285D01*
X105140000Y-65932857D01*
X104997142Y-65861428D01*
X106568571Y-65218571D02*
X106282857Y-65218571D01*
X106140000Y-65290000D01*
X106068571Y-65361428D01*
X105925714Y-65575714D01*
X105854285Y-65861428D01*
X105854285Y-66432857D01*
X105925714Y-66575714D01*
X105997142Y-66647142D01*
X106140000Y-66718571D01*
X106425714Y-66718571D01*
X106568571Y-66647142D01*
X106640000Y-66575714D01*
X106711428Y-66432857D01*
X106711428Y-66075714D01*
X106640000Y-65932857D01*
X106568571Y-65861428D01*
X106425714Y-65790000D01*
X106140000Y-65790000D01*
X105997142Y-65861428D01*
X105925714Y-65932857D01*
X105854285Y-66075714D01*
X124357142Y-65218571D02*
X125357142Y-65218571D01*
X124714285Y-66718571D01*
X126571428Y-65718571D02*
X126571428Y-66718571D01*
X126214285Y-65147142D02*
X125857142Y-66218571D01*
X126785714Y-66218571D01*
X127571428Y-65861428D02*
X127428571Y-65790000D01*
X127357142Y-65718571D01*
X127285714Y-65575714D01*
X127285714Y-65504285D01*
X127357142Y-65361428D01*
X127428571Y-65290000D01*
X127571428Y-65218571D01*
X127857142Y-65218571D01*
X128000000Y-65290000D01*
X128071428Y-65361428D01*
X128142857Y-65504285D01*
X128142857Y-65575714D01*
X128071428Y-65718571D01*
X128000000Y-65790000D01*
X127857142Y-65861428D01*
X127571428Y-65861428D01*
X127428571Y-65932857D01*
X127357142Y-66004285D01*
X127285714Y-66147142D01*
X127285714Y-66432857D01*
X127357142Y-66575714D01*
X127428571Y-66647142D01*
X127571428Y-66718571D01*
X127857142Y-66718571D01*
X128000000Y-66647142D01*
X128071428Y-66575714D01*
X128142857Y-66432857D01*
X128142857Y-66147142D01*
X128071428Y-66004285D01*
X128000000Y-65932857D01*
X127857142Y-65861428D01*
X129428571Y-65218571D02*
X129142857Y-65218571D01*
X129000000Y-65290000D01*
X128928571Y-65361428D01*
X128785714Y-65575714D01*
X128714285Y-65861428D01*
X128714285Y-66432857D01*
X128785714Y-66575714D01*
X128857142Y-66647142D01*
X129000000Y-66718571D01*
X129285714Y-66718571D01*
X129428571Y-66647142D01*
X129500000Y-66575714D01*
X129571428Y-66432857D01*
X129571428Y-66075714D01*
X129500000Y-65932857D01*
X129428571Y-65861428D01*
X129285714Y-65790000D01*
X129000000Y-65790000D01*
X128857142Y-65861428D01*
X128785714Y-65932857D01*
X128714285Y-66075714D01*
X98242857Y-20768571D02*
X99242857Y-20768571D01*
X98600000Y-22268571D01*
X100457142Y-21268571D02*
X100457142Y-22268571D01*
X100100000Y-20697142D02*
X99742857Y-21768571D01*
X100671428Y-21768571D01*
X101171428Y-20911428D02*
X101242857Y-20840000D01*
X101385714Y-20768571D01*
X101742857Y-20768571D01*
X101885714Y-20840000D01*
X101957142Y-20911428D01*
X102028571Y-21054285D01*
X102028571Y-21197142D01*
X101957142Y-21411428D01*
X101100000Y-22268571D01*
X102028571Y-22268571D01*
X103314285Y-21268571D02*
X103314285Y-22268571D01*
X102957142Y-20697142D02*
X102600000Y-21768571D01*
X103528571Y-21768571D01*
X104814285Y-20768571D02*
X104100000Y-20768571D01*
X104028571Y-21482857D01*
X104100000Y-21411428D01*
X104242857Y-21340000D01*
X104600000Y-21340000D01*
X104742857Y-21411428D01*
X104814285Y-21482857D01*
X104885714Y-21625714D01*
X104885714Y-21982857D01*
X104814285Y-22125714D01*
X104742857Y-22197142D01*
X104600000Y-22268571D01*
X104242857Y-22268571D01*
X104100000Y-22197142D01*
X104028571Y-22125714D01*
X50697142Y-19498571D02*
X51697142Y-19498571D01*
X51054285Y-20998571D01*
X52911428Y-19998571D02*
X52911428Y-20998571D01*
X52554285Y-19427142D02*
X52197142Y-20498571D01*
X53125714Y-20498571D01*
X53982857Y-19498571D02*
X54125714Y-19498571D01*
X54268571Y-19570000D01*
X54340000Y-19641428D01*
X54411428Y-19784285D01*
X54482857Y-20070000D01*
X54482857Y-20427142D01*
X54411428Y-20712857D01*
X54340000Y-20855714D01*
X54268571Y-20927142D01*
X54125714Y-20998571D01*
X53982857Y-20998571D01*
X53840000Y-20927142D01*
X53768571Y-20855714D01*
X53697142Y-20712857D01*
X53625714Y-20427142D01*
X53625714Y-20070000D01*
X53697142Y-19784285D01*
X53768571Y-19641428D01*
X53840000Y-19570000D01*
X53982857Y-19498571D01*
X55411428Y-19498571D02*
X55554285Y-19498571D01*
X55697142Y-19570000D01*
X55768571Y-19641428D01*
X55840000Y-19784285D01*
X55911428Y-20070000D01*
X55911428Y-20427142D01*
X55840000Y-20712857D01*
X55768571Y-20855714D01*
X55697142Y-20927142D01*
X55554285Y-20998571D01*
X55411428Y-20998571D01*
X55268571Y-20927142D01*
X55197142Y-20855714D01*
X55125714Y-20712857D01*
X55054285Y-20427142D01*
X55054285Y-20070000D01*
X55125714Y-19784285D01*
X55197142Y-19641428D01*
X55268571Y-19570000D01*
X55411428Y-19498571D01*
X16407142Y-32198571D02*
X17407142Y-32198571D01*
X16764285Y-33698571D01*
X18621428Y-32698571D02*
X18621428Y-33698571D01*
X18264285Y-32127142D02*
X17907142Y-33198571D01*
X18835714Y-33198571D01*
X19692857Y-32198571D02*
X19835714Y-32198571D01*
X19978571Y-32270000D01*
X20050000Y-32341428D01*
X20121428Y-32484285D01*
X20192857Y-32770000D01*
X20192857Y-33127142D01*
X20121428Y-33412857D01*
X20050000Y-33555714D01*
X19978571Y-33627142D01*
X19835714Y-33698571D01*
X19692857Y-33698571D01*
X19550000Y-33627142D01*
X19478571Y-33555714D01*
X19407142Y-33412857D01*
X19335714Y-33127142D01*
X19335714Y-32770000D01*
X19407142Y-32484285D01*
X19478571Y-32341428D01*
X19550000Y-32270000D01*
X19692857Y-32198571D01*
X21121428Y-32198571D02*
X21264285Y-32198571D01*
X21407142Y-32270000D01*
X21478571Y-32341428D01*
X21550000Y-32484285D01*
X21621428Y-32770000D01*
X21621428Y-33127142D01*
X21550000Y-33412857D01*
X21478571Y-33555714D01*
X21407142Y-33627142D01*
X21264285Y-33698571D01*
X21121428Y-33698571D01*
X20978571Y-33627142D01*
X20907142Y-33555714D01*
X20835714Y-33412857D01*
X20764285Y-33127142D01*
X20764285Y-32770000D01*
X20835714Y-32484285D01*
X20907142Y-32341428D01*
X20978571Y-32270000D01*
X21121428Y-32198571D01*
X14422857Y-49978571D02*
X15422857Y-49978571D01*
X14780000Y-51478571D01*
X16637142Y-50478571D02*
X16637142Y-51478571D01*
X16280000Y-49907142D02*
X15922857Y-50978571D01*
X16851428Y-50978571D01*
X17351428Y-50121428D02*
X17422857Y-50050000D01*
X17565714Y-49978571D01*
X17922857Y-49978571D01*
X18065714Y-50050000D01*
X18137142Y-50121428D01*
X18208571Y-50264285D01*
X18208571Y-50407142D01*
X18137142Y-50621428D01*
X17280000Y-51478571D01*
X18208571Y-51478571D01*
X19494285Y-50478571D02*
X19494285Y-51478571D01*
X19137142Y-49907142D02*
X18780000Y-50978571D01*
X19708571Y-50978571D01*
X20994285Y-49978571D02*
X20280000Y-49978571D01*
X20208571Y-50692857D01*
X20280000Y-50621428D01*
X20422857Y-50550000D01*
X20780000Y-50550000D01*
X20922857Y-50621428D01*
X20994285Y-50692857D01*
X21065714Y-50835714D01*
X21065714Y-51192857D01*
X20994285Y-51335714D01*
X20922857Y-51407142D01*
X20780000Y-51478571D01*
X20422857Y-51478571D01*
X20280000Y-51407142D01*
X20208571Y-51335714D01*
X98242857Y-53788571D02*
X99242857Y-53788571D01*
X98600000Y-55288571D01*
X100457142Y-54288571D02*
X100457142Y-55288571D01*
X100100000Y-53717142D02*
X99742857Y-54788571D01*
X100671428Y-54788571D01*
X101885714Y-53788571D02*
X101600000Y-53788571D01*
X101457142Y-53860000D01*
X101385714Y-53931428D01*
X101242857Y-54145714D01*
X101171428Y-54431428D01*
X101171428Y-55002857D01*
X101242857Y-55145714D01*
X101314285Y-55217142D01*
X101457142Y-55288571D01*
X101742857Y-55288571D01*
X101885714Y-55217142D01*
X101957142Y-55145714D01*
X102028571Y-55002857D01*
X102028571Y-54645714D01*
X101957142Y-54502857D01*
X101885714Y-54431428D01*
X101742857Y-54360000D01*
X101457142Y-54360000D01*
X101314285Y-54431428D01*
X101242857Y-54502857D01*
X101171428Y-54645714D01*
X102885714Y-54431428D02*
X102742857Y-54360000D01*
X102671428Y-54288571D01*
X102600000Y-54145714D01*
X102600000Y-54074285D01*
X102671428Y-53931428D01*
X102742857Y-53860000D01*
X102885714Y-53788571D01*
X103171428Y-53788571D01*
X103314285Y-53860000D01*
X103385714Y-53931428D01*
X103457142Y-54074285D01*
X103457142Y-54145714D01*
X103385714Y-54288571D01*
X103314285Y-54360000D01*
X103171428Y-54431428D01*
X102885714Y-54431428D01*
X102742857Y-54502857D01*
X102671428Y-54574285D01*
X102600000Y-54717142D01*
X102600000Y-55002857D01*
X102671428Y-55145714D01*
X102742857Y-55217142D01*
X102885714Y-55288571D01*
X103171428Y-55288571D01*
X103314285Y-55217142D01*
X103385714Y-55145714D01*
X103457142Y-55002857D01*
X103457142Y-54717142D01*
X103385714Y-54574285D01*
X103314285Y-54502857D01*
X103171428Y-54431428D01*
X104028571Y-53931428D02*
X104100000Y-53860000D01*
X104242857Y-53788571D01*
X104600000Y-53788571D01*
X104742857Y-53860000D01*
X104814285Y-53931428D01*
X104885714Y-54074285D01*
X104885714Y-54217142D01*
X104814285Y-54431428D01*
X103957142Y-55288571D01*
X104885714Y-55288571D01*
X139597142Y-47438571D02*
X140597142Y-47438571D01*
X139954285Y-48938571D01*
X141811428Y-47938571D02*
X141811428Y-48938571D01*
X141454285Y-47367142D02*
X141097142Y-48438571D01*
X142025714Y-48438571D01*
X142882857Y-47438571D02*
X143025714Y-47438571D01*
X143168571Y-47510000D01*
X143240000Y-47581428D01*
X143311428Y-47724285D01*
X143382857Y-48010000D01*
X143382857Y-48367142D01*
X143311428Y-48652857D01*
X143240000Y-48795714D01*
X143168571Y-48867142D01*
X143025714Y-48938571D01*
X142882857Y-48938571D01*
X142740000Y-48867142D01*
X142668571Y-48795714D01*
X142597142Y-48652857D01*
X142525714Y-48367142D01*
X142525714Y-48010000D01*
X142597142Y-47724285D01*
X142668571Y-47581428D01*
X142740000Y-47510000D01*
X142882857Y-47438571D01*
X144311428Y-47438571D02*
X144454285Y-47438571D01*
X144597142Y-47510000D01*
X144668571Y-47581428D01*
X144740000Y-47724285D01*
X144811428Y-48010000D01*
X144811428Y-48367142D01*
X144740000Y-48652857D01*
X144668571Y-48795714D01*
X144597142Y-48867142D01*
X144454285Y-48938571D01*
X144311428Y-48938571D01*
X144168571Y-48867142D01*
X144097142Y-48795714D01*
X144025714Y-48652857D01*
X143954285Y-48367142D01*
X143954285Y-48010000D01*
X144025714Y-47724285D01*
X144097142Y-47581428D01*
X144168571Y-47510000D01*
X144311428Y-47438571D01*
X135675714Y-20763571D02*
X134961428Y-20763571D01*
X134890000Y-21477857D01*
X134961428Y-21406428D01*
X135104285Y-21335000D01*
X135461428Y-21335000D01*
X135604285Y-21406428D01*
X135675714Y-21477857D01*
X135747142Y-21620714D01*
X135747142Y-21977857D01*
X135675714Y-22120714D01*
X135604285Y-22192142D01*
X135461428Y-22263571D01*
X135104285Y-22263571D01*
X134961428Y-22192142D01*
X134890000Y-22120714D01*
X136247142Y-21263571D02*
X136604285Y-22263571D01*
X136961428Y-21263571D01*
X134747142Y-23385000D02*
X134604285Y-23313571D01*
X134390000Y-23313571D01*
X134175714Y-23385000D01*
X134032857Y-23527857D01*
X133961428Y-23670714D01*
X133890000Y-23956428D01*
X133890000Y-24170714D01*
X133961428Y-24456428D01*
X134032857Y-24599285D01*
X134175714Y-24742142D01*
X134390000Y-24813571D01*
X134532857Y-24813571D01*
X134747142Y-24742142D01*
X134818571Y-24670714D01*
X134818571Y-24170714D01*
X134532857Y-24170714D01*
X135461428Y-24813571D02*
X135461428Y-23313571D01*
X136318571Y-24813571D01*
X136318571Y-23313571D01*
X137032857Y-24813571D02*
X137032857Y-23313571D01*
X137390000Y-23313571D01*
X137604285Y-23385000D01*
X137747142Y-23527857D01*
X137818571Y-23670714D01*
X137890000Y-23956428D01*
X137890000Y-24170714D01*
X137818571Y-24456428D01*
X137747142Y-24599285D01*
X137604285Y-24742142D01*
X137390000Y-24813571D01*
X137032857Y-24813571D01*
X128338571Y-15918571D02*
X128338571Y-14418571D01*
X129052857Y-15918571D02*
X129052857Y-14918571D01*
X129052857Y-15061428D02*
X129124285Y-14990000D01*
X129267142Y-14918571D01*
X129481428Y-14918571D01*
X129624285Y-14990000D01*
X129695714Y-15132857D01*
X129695714Y-15918571D01*
X129695714Y-15132857D02*
X129767142Y-14990000D01*
X129910000Y-14918571D01*
X130124285Y-14918571D01*
X130267142Y-14990000D01*
X130338571Y-15132857D01*
X130338571Y-15918571D01*
X131052857Y-15918571D02*
X131052857Y-14918571D01*
X131052857Y-15061428D02*
X131124285Y-14990000D01*
X131267142Y-14918571D01*
X131481428Y-14918571D01*
X131624285Y-14990000D01*
X131695714Y-15132857D01*
X131695714Y-15918571D01*
X131695714Y-15132857D02*
X131767142Y-14990000D01*
X131910000Y-14918571D01*
X132124285Y-14918571D01*
X132267142Y-14990000D01*
X132338571Y-15132857D01*
X132338571Y-15918571D01*
X133624285Y-15847142D02*
X133481428Y-15918571D01*
X133195714Y-15918571D01*
X133052857Y-15847142D01*
X132981428Y-15704285D01*
X132981428Y-15132857D01*
X133052857Y-14990000D01*
X133195714Y-14918571D01*
X133481428Y-14918571D01*
X133624285Y-14990000D01*
X133695714Y-15132857D01*
X133695714Y-15275714D01*
X132981428Y-15418571D01*
X134981428Y-15918571D02*
X134981428Y-14418571D01*
X134981428Y-15847142D02*
X134838571Y-15918571D01*
X134552857Y-15918571D01*
X134410000Y-15847142D01*
X134338571Y-15775714D01*
X134267142Y-15632857D01*
X134267142Y-15204285D01*
X134338571Y-15061428D01*
X134410000Y-14990000D01*
X134552857Y-14918571D01*
X134838571Y-14918571D01*
X134981428Y-14990000D01*
X135695714Y-15918571D02*
X135695714Y-14918571D01*
X135695714Y-14418571D02*
X135624285Y-14490000D01*
X135695714Y-14561428D01*
X135767142Y-14490000D01*
X135695714Y-14418571D01*
X135695714Y-14561428D01*
X137052857Y-15918571D02*
X137052857Y-15132857D01*
X136981428Y-14990000D01*
X136838571Y-14918571D01*
X136552857Y-14918571D01*
X136410000Y-14990000D01*
X137052857Y-15847142D02*
X136910000Y-15918571D01*
X136552857Y-15918571D01*
X136410000Y-15847142D01*
X136338571Y-15704285D01*
X136338571Y-15561428D01*
X136410000Y-15418571D01*
X136552857Y-15347142D01*
X136910000Y-15347142D01*
X137052857Y-15275714D01*
X137552857Y-14918571D02*
X138124285Y-14918571D01*
X137767142Y-14418571D02*
X137767142Y-15704285D01*
X137838571Y-15847142D01*
X137981428Y-15918571D01*
X138124285Y-15918571D01*
X139195714Y-15847142D02*
X139052857Y-15918571D01*
X138767142Y-15918571D01*
X138624285Y-15847142D01*
X138552857Y-15704285D01*
X138552857Y-15132857D01*
X138624285Y-14990000D01*
X138767142Y-14918571D01*
X139052857Y-14918571D01*
X139195714Y-14990000D01*
X139267142Y-15132857D01*
X139267142Y-15275714D01*
X138552857Y-15418571D01*
X141052857Y-15918571D02*
X141052857Y-14418571D01*
X141767142Y-14918571D02*
X141767142Y-15918571D01*
X141767142Y-15061428D02*
X141838571Y-14990000D01*
X141981428Y-14918571D01*
X142195714Y-14918571D01*
X142338571Y-14990000D01*
X142410000Y-15132857D01*
X142410000Y-15918571D01*
X143124285Y-14918571D02*
X143124285Y-16418571D01*
X143124285Y-14990000D02*
X143267142Y-14918571D01*
X143552857Y-14918571D01*
X143695714Y-14990000D01*
X143767142Y-15061428D01*
X143838571Y-15204285D01*
X143838571Y-15632857D01*
X143767142Y-15775714D01*
X143695714Y-15847142D01*
X143552857Y-15918571D01*
X143267142Y-15918571D01*
X143124285Y-15847142D01*
X145124285Y-14918571D02*
X145124285Y-15918571D01*
X144481428Y-14918571D02*
X144481428Y-15704285D01*
X144552857Y-15847142D01*
X144695714Y-15918571D01*
X144910000Y-15918571D01*
X145052857Y-15847142D01*
X145124285Y-15775714D01*
X145624285Y-14918571D02*
X146195714Y-14918571D01*
X145838571Y-14418571D02*
X145838571Y-15704285D01*
X145910000Y-15847142D01*
X146052857Y-15918571D01*
X146195714Y-15918571D01*
X90274285Y-14648571D02*
X89774285Y-13934285D01*
X89417142Y-14648571D02*
X89417142Y-13148571D01*
X89988571Y-13148571D01*
X90131428Y-13220000D01*
X90202857Y-13291428D01*
X90274285Y-13434285D01*
X90274285Y-13648571D01*
X90202857Y-13791428D01*
X90131428Y-13862857D01*
X89988571Y-13934285D01*
X89417142Y-13934285D01*
X91488571Y-14577142D02*
X91345714Y-14648571D01*
X91060000Y-14648571D01*
X90917142Y-14577142D01*
X90845714Y-14434285D01*
X90845714Y-13862857D01*
X90917142Y-13720000D01*
X91060000Y-13648571D01*
X91345714Y-13648571D01*
X91488571Y-13720000D01*
X91560000Y-13862857D01*
X91560000Y-14005714D01*
X90845714Y-14148571D01*
X92845714Y-13648571D02*
X92845714Y-14862857D01*
X92774285Y-15005714D01*
X92702857Y-15077142D01*
X92560000Y-15148571D01*
X92345714Y-15148571D01*
X92202857Y-15077142D01*
X92845714Y-14577142D02*
X92702857Y-14648571D01*
X92417142Y-14648571D01*
X92274285Y-14577142D01*
X92202857Y-14505714D01*
X92131428Y-14362857D01*
X92131428Y-13934285D01*
X92202857Y-13791428D01*
X92274285Y-13720000D01*
X92417142Y-13648571D01*
X92702857Y-13648571D01*
X92845714Y-13720000D01*
X93560000Y-14648571D02*
X93560000Y-13648571D01*
X93560000Y-13148571D02*
X93488571Y-13220000D01*
X93560000Y-13291428D01*
X93631428Y-13220000D01*
X93560000Y-13148571D01*
X93560000Y-13291428D01*
X94202857Y-14577142D02*
X94345714Y-14648571D01*
X94631428Y-14648571D01*
X94774285Y-14577142D01*
X94845714Y-14434285D01*
X94845714Y-14362857D01*
X94774285Y-14220000D01*
X94631428Y-14148571D01*
X94417142Y-14148571D01*
X94274285Y-14077142D01*
X94202857Y-13934285D01*
X94202857Y-13862857D01*
X94274285Y-13720000D01*
X94417142Y-13648571D01*
X94631428Y-13648571D01*
X94774285Y-13720000D01*
X95274285Y-13648571D02*
X95845714Y-13648571D01*
X95488571Y-13148571D02*
X95488571Y-14434285D01*
X95560000Y-14577142D01*
X95702857Y-14648571D01*
X95845714Y-14648571D01*
X96917142Y-14577142D02*
X96774285Y-14648571D01*
X96488571Y-14648571D01*
X96345714Y-14577142D01*
X96274285Y-14434285D01*
X96274285Y-13862857D01*
X96345714Y-13720000D01*
X96488571Y-13648571D01*
X96774285Y-13648571D01*
X96917142Y-13720000D01*
X96988571Y-13862857D01*
X96988571Y-14005714D01*
X96274285Y-14148571D01*
X97631428Y-14648571D02*
X97631428Y-13648571D01*
X97631428Y-13934285D02*
X97702857Y-13791428D01*
X97774285Y-13720000D01*
X97917142Y-13648571D01*
X98060000Y-13648571D01*
X100560000Y-14648571D02*
X100060000Y-13934285D01*
X99702857Y-14648571D02*
X99702857Y-13148571D01*
X100274285Y-13148571D01*
X100417142Y-13220000D01*
X100488571Y-13291428D01*
X100560000Y-13434285D01*
X100560000Y-13648571D01*
X100488571Y-13791428D01*
X100417142Y-13862857D01*
X100274285Y-13934285D01*
X99702857Y-13934285D01*
X101131428Y-14577142D02*
X101345714Y-14648571D01*
X101702857Y-14648571D01*
X101845714Y-14577142D01*
X101917142Y-14505714D01*
X101988571Y-14362857D01*
X101988571Y-14220000D01*
X101917142Y-14077142D01*
X101845714Y-14005714D01*
X101702857Y-13934285D01*
X101417142Y-13862857D01*
X101274285Y-13791428D01*
X101202857Y-13720000D01*
X101131428Y-13577142D01*
X101131428Y-13434285D01*
X101202857Y-13291428D01*
X101274285Y-13220000D01*
X101417142Y-13148571D01*
X101774285Y-13148571D01*
X101988571Y-13220000D01*
X103774285Y-14648571D02*
X103774285Y-13148571D01*
X104488571Y-13648571D02*
X104488571Y-14648571D01*
X104488571Y-13791428D02*
X104560000Y-13720000D01*
X104702857Y-13648571D01*
X104917142Y-13648571D01*
X105060000Y-13720000D01*
X105131428Y-13862857D01*
X105131428Y-14648571D01*
X105845714Y-13648571D02*
X105845714Y-15148571D01*
X105845714Y-13720000D02*
X105988571Y-13648571D01*
X106274285Y-13648571D01*
X106417142Y-13720000D01*
X106488571Y-13791428D01*
X106560000Y-13934285D01*
X106560000Y-14362857D01*
X106488571Y-14505714D01*
X106417142Y-14577142D01*
X106274285Y-14648571D01*
X105988571Y-14648571D01*
X105845714Y-14577142D01*
X107845714Y-13648571D02*
X107845714Y-14648571D01*
X107202857Y-13648571D02*
X107202857Y-14434285D01*
X107274285Y-14577142D01*
X107417142Y-14648571D01*
X107631428Y-14648571D01*
X107774285Y-14577142D01*
X107845714Y-14505714D01*
X108345714Y-13648571D02*
X108917142Y-13648571D01*
X108560000Y-13148571D02*
X108560000Y-14434285D01*
X108631428Y-14577142D01*
X108774285Y-14648571D01*
X108917142Y-14648571D01*
X41978571Y-14648571D02*
X41478571Y-13934285D01*
X41121428Y-14648571D02*
X41121428Y-13148571D01*
X41692857Y-13148571D01*
X41835714Y-13220000D01*
X41907142Y-13291428D01*
X41978571Y-13434285D01*
X41978571Y-13648571D01*
X41907142Y-13791428D01*
X41835714Y-13862857D01*
X41692857Y-13934285D01*
X41121428Y-13934285D01*
X43192857Y-14577142D02*
X43050000Y-14648571D01*
X42764285Y-14648571D01*
X42621428Y-14577142D01*
X42550000Y-14434285D01*
X42550000Y-13862857D01*
X42621428Y-13720000D01*
X42764285Y-13648571D01*
X43050000Y-13648571D01*
X43192857Y-13720000D01*
X43264285Y-13862857D01*
X43264285Y-14005714D01*
X42550000Y-14148571D01*
X44550000Y-13648571D02*
X44550000Y-14862857D01*
X44478571Y-15005714D01*
X44407142Y-15077142D01*
X44264285Y-15148571D01*
X44050000Y-15148571D01*
X43907142Y-15077142D01*
X44550000Y-14577142D02*
X44407142Y-14648571D01*
X44121428Y-14648571D01*
X43978571Y-14577142D01*
X43907142Y-14505714D01*
X43835714Y-14362857D01*
X43835714Y-13934285D01*
X43907142Y-13791428D01*
X43978571Y-13720000D01*
X44121428Y-13648571D01*
X44407142Y-13648571D01*
X44550000Y-13720000D01*
X45264285Y-14648571D02*
X45264285Y-13648571D01*
X45264285Y-13148571D02*
X45192857Y-13220000D01*
X45264285Y-13291428D01*
X45335714Y-13220000D01*
X45264285Y-13148571D01*
X45264285Y-13291428D01*
X45907142Y-14577142D02*
X46050000Y-14648571D01*
X46335714Y-14648571D01*
X46478571Y-14577142D01*
X46550000Y-14434285D01*
X46550000Y-14362857D01*
X46478571Y-14220000D01*
X46335714Y-14148571D01*
X46121428Y-14148571D01*
X45978571Y-14077142D01*
X45907142Y-13934285D01*
X45907142Y-13862857D01*
X45978571Y-13720000D01*
X46121428Y-13648571D01*
X46335714Y-13648571D01*
X46478571Y-13720000D01*
X46978571Y-13648571D02*
X47550000Y-13648571D01*
X47192857Y-13148571D02*
X47192857Y-14434285D01*
X47264285Y-14577142D01*
X47407142Y-14648571D01*
X47550000Y-14648571D01*
X48621428Y-14577142D02*
X48478571Y-14648571D01*
X48192857Y-14648571D01*
X48050000Y-14577142D01*
X47978571Y-14434285D01*
X47978571Y-13862857D01*
X48050000Y-13720000D01*
X48192857Y-13648571D01*
X48478571Y-13648571D01*
X48621428Y-13720000D01*
X48692857Y-13862857D01*
X48692857Y-14005714D01*
X47978571Y-14148571D01*
X49335714Y-14648571D02*
X49335714Y-13648571D01*
X49335714Y-13934285D02*
X49407142Y-13791428D01*
X49478571Y-13720000D01*
X49621428Y-13648571D01*
X49764285Y-13648571D01*
X52264285Y-14648571D02*
X51764285Y-13934285D01*
X51407142Y-14648571D02*
X51407142Y-13148571D01*
X51978571Y-13148571D01*
X52121428Y-13220000D01*
X52192857Y-13291428D01*
X52264285Y-13434285D01*
X52264285Y-13648571D01*
X52192857Y-13791428D01*
X52121428Y-13862857D01*
X51978571Y-13934285D01*
X51407142Y-13934285D01*
X52907142Y-14648571D02*
X52907142Y-13148571D01*
X53264285Y-13148571D01*
X53478571Y-13220000D01*
X53621428Y-13362857D01*
X53692857Y-13505714D01*
X53764285Y-13791428D01*
X53764285Y-14005714D01*
X53692857Y-14291428D01*
X53621428Y-14434285D01*
X53478571Y-14577142D01*
X53264285Y-14648571D01*
X52907142Y-14648571D01*
X55550000Y-14648571D02*
X55550000Y-13148571D01*
X56264285Y-13648571D02*
X56264285Y-14648571D01*
X56264285Y-13791428D02*
X56335714Y-13720000D01*
X56478571Y-13648571D01*
X56692857Y-13648571D01*
X56835714Y-13720000D01*
X56907142Y-13862857D01*
X56907142Y-14648571D01*
X57621428Y-13648571D02*
X57621428Y-15148571D01*
X57621428Y-13720000D02*
X57764285Y-13648571D01*
X58050000Y-13648571D01*
X58192857Y-13720000D01*
X58264285Y-13791428D01*
X58335714Y-13934285D01*
X58335714Y-14362857D01*
X58264285Y-14505714D01*
X58192857Y-14577142D01*
X58050000Y-14648571D01*
X57764285Y-14648571D01*
X57621428Y-14577142D01*
X59621428Y-13648571D02*
X59621428Y-14648571D01*
X58978571Y-13648571D02*
X58978571Y-14434285D01*
X59050000Y-14577142D01*
X59192857Y-14648571D01*
X59407142Y-14648571D01*
X59550000Y-14577142D01*
X59621428Y-14505714D01*
X60121428Y-13648571D02*
X60692857Y-13648571D01*
X60335714Y-13148571D02*
X60335714Y-14434285D01*
X60407142Y-14577142D01*
X60550000Y-14648571D01*
X60692857Y-14648571D01*
D12*
%TO.P,SW3,1*%
%TO.N,addwb*%
X113180000Y-115570000D03*
%TO.P,SW3,2*%
%TO.N,GND*%
X113180000Y-120070000D03*
%TO.P,SW3,1*%
%TO.N,addwb*%
X106680000Y-115570000D03*
%TO.P,SW3,2*%
%TO.N,GND*%
X106680000Y-120070000D03*
%TD*%
%TO.P,SW2,1*%
%TO.N,sliwb*%
X66190000Y-116840000D03*
%TO.P,SW2,2*%
%TO.N,GND*%
X66190000Y-121340000D03*
%TO.P,SW2,1*%
%TO.N,sliwb*%
X59690000Y-116840000D03*
%TO.P,SW2,2*%
%TO.N,GND*%
X59690000Y-121340000D03*
%TD*%
%TO.P,SW1,1*%
%TO.N,nandwb*%
X44600000Y-116840000D03*
%TO.P,SW1,2*%
%TO.N,GND*%
X44600000Y-121340000D03*
%TO.P,SW1,1*%
%TO.N,nandwb*%
X38100000Y-116840000D03*
%TO.P,SW1,2*%
%TO.N,GND*%
X38100000Y-121340000D03*
%TD*%
D13*
%TO.P,R21,2*%
%TO.N,+5V*%
X101600000Y-120650000D03*
D14*
%TO.P,R21,1*%
%TO.N,addwb*%
X101600000Y-115570000D03*
%TD*%
D13*
%TO.P,R20,2*%
%TO.N,+5V*%
X54610000Y-121920000D03*
D14*
%TO.P,R20,1*%
%TO.N,sliwb*%
X54610000Y-116840000D03*
%TD*%
D13*
%TO.P,R19,2*%
%TO.N,+5V*%
X31750000Y-121920000D03*
D14*
%TO.P,R19,1*%
%TO.N,nandwb*%
X31750000Y-116840000D03*
%TD*%
D15*
%TO.P,J9,3*%
%TO.N,Net-(J1-Pad3)*%
X147320000Y-26670000D03*
%TO.P,J9,2*%
%TO.N,GND*%
X147320000Y-24130000D03*
D16*
%TO.P,J9,1*%
%TO.N,+5V*%
X147320000Y-21590000D03*
%TD*%
D13*
%TO.P,R18,2*%
%TO.N,GND*%
X53340000Y-127000000D03*
D14*
%TO.P,R18,1*%
%TO.N,Net-(D18-Pad1)*%
X48260000Y-127000000D03*
%TD*%
D13*
%TO.P,R17,2*%
%TO.N,GND*%
X62230000Y-127000000D03*
D14*
%TO.P,R17,1*%
%TO.N,Net-(D17-Pad1)*%
X57150000Y-127000000D03*
%TD*%
D13*
%TO.P,R16,2*%
%TO.N,GND*%
X71120000Y-127000000D03*
D14*
%TO.P,R16,1*%
%TO.N,Net-(D16-Pad1)*%
X66040000Y-127000000D03*
%TD*%
D13*
%TO.P,R15,2*%
%TO.N,GND*%
X80010000Y-127000000D03*
D14*
%TO.P,R15,1*%
%TO.N,Net-(D15-Pad1)*%
X74930000Y-127000000D03*
%TD*%
D13*
%TO.P,R14,2*%
%TO.N,GND*%
X88900000Y-127000000D03*
D14*
%TO.P,R14,1*%
%TO.N,Net-(D14-Pad1)*%
X83820000Y-127000000D03*
%TD*%
D13*
%TO.P,R13,2*%
%TO.N,GND*%
X97790000Y-127000000D03*
D14*
%TO.P,R13,1*%
%TO.N,Net-(D13-Pad1)*%
X92710000Y-127000000D03*
%TD*%
D13*
%TO.P,R12,2*%
%TO.N,GND*%
X106680000Y-127000000D03*
D14*
%TO.P,R12,1*%
%TO.N,Net-(D12-Pad1)*%
X101600000Y-127000000D03*
%TD*%
D13*
%TO.P,R11,2*%
%TO.N,GND*%
X115570000Y-127000000D03*
D14*
%TO.P,R11,1*%
%TO.N,Net-(D11-Pad1)*%
X110490000Y-127000000D03*
%TD*%
D17*
%TO.P,D18,2*%
%TO.N,wb7*%
X50800000Y-132080000D03*
D18*
%TO.P,D18,1*%
%TO.N,Net-(D18-Pad1)*%
X50800000Y-134620000D03*
%TD*%
D17*
%TO.P,D17,2*%
%TO.N,wb6*%
X59690000Y-132080000D03*
D18*
%TO.P,D17,1*%
%TO.N,Net-(D17-Pad1)*%
X59690000Y-134620000D03*
%TD*%
D17*
%TO.P,D16,2*%
%TO.N,wb5*%
X68580000Y-132080000D03*
D18*
%TO.P,D16,1*%
%TO.N,Net-(D16-Pad1)*%
X68580000Y-134620000D03*
%TD*%
D17*
%TO.P,D15,2*%
%TO.N,wb4*%
X77470000Y-132080000D03*
D18*
%TO.P,D15,1*%
%TO.N,Net-(D15-Pad1)*%
X77470000Y-134620000D03*
%TD*%
D17*
%TO.P,D14,2*%
%TO.N,wb3*%
X86360000Y-132080000D03*
D18*
%TO.P,D14,1*%
%TO.N,Net-(D14-Pad1)*%
X86360000Y-134620000D03*
%TD*%
D17*
%TO.P,D13,2*%
%TO.N,wb2*%
X95250000Y-132080000D03*
D18*
%TO.P,D13,1*%
%TO.N,Net-(D13-Pad1)*%
X95250000Y-134620000D03*
%TD*%
D17*
%TO.P,D12,2*%
%TO.N,wb1*%
X104140000Y-132080000D03*
D18*
%TO.P,D12,1*%
%TO.N,Net-(D12-Pad1)*%
X104140000Y-134620000D03*
%TD*%
D17*
%TO.P,D11,2*%
%TO.N,wb0*%
X113030000Y-132080000D03*
D18*
%TO.P,D11,1*%
%TO.N,Net-(D11-Pad1)*%
X113030000Y-134620000D03*
%TD*%
D19*
%TO.P,U13,14*%
%TO.N,+5V*%
X120650000Y-44450000D03*
%TO.P,U13,7*%
%TO.N,GND*%
X135890000Y-52070000D03*
%TO.P,U13,13*%
%TO.N,N/C*%
X123190000Y-44450000D03*
%TO.P,U13,6*%
%TO.N,eq*%
X133350000Y-52070000D03*
%TO.P,U13,12*%
%TO.N,N/C*%
X125730000Y-44450000D03*
%TO.P,U13,5*%
%TO.N,noteq*%
X130810000Y-52070000D03*
%TO.P,U13,11*%
%TO.N,N/C*%
X128270000Y-44450000D03*
%TO.P,U13,4*%
%TO.N,noteq*%
X128270000Y-52070000D03*
%TO.P,U13,10*%
%TO.N,Rrd7*%
X130810000Y-44450000D03*
%TO.P,U13,3*%
%TO.N,lt*%
X125730000Y-52070000D03*
%TO.P,U13,9*%
%TO.N,Rrd7*%
X133350000Y-44450000D03*
%TO.P,U13,2*%
%TO.N,ge*%
X123190000Y-52070000D03*
%TO.P,U13,8*%
X135890000Y-44450000D03*
D20*
%TO.P,U13,1*%
X120650000Y-52070000D03*
%TD*%
D19*
%TO.P,U12,20*%
%TO.N,+5V*%
X74930000Y-44450000D03*
%TO.P,U12,10*%
%TO.N,GND*%
X97790000Y-52070000D03*
%TO.P,U12,19*%
%TO.N,noteq*%
X77470000Y-44450000D03*
%TO.P,U12,9*%
%TO.N,Rrd3*%
X95250000Y-52070000D03*
%TO.P,U12,18*%
%TO.N,Rrd7*%
X80010000Y-44450000D03*
%TO.P,U12,8*%
%TO.N,GND*%
X92710000Y-52070000D03*
%TO.P,U12,17*%
X82550000Y-44450000D03*
%TO.P,U12,7*%
%TO.N,Rrd2*%
X90170000Y-52070000D03*
%TO.P,U12,16*%
%TO.N,Rrd6*%
X85090000Y-44450000D03*
%TO.P,U12,6*%
%TO.N,GND*%
X87630000Y-52070000D03*
%TO.P,U12,15*%
X87630000Y-44450000D03*
%TO.P,U12,5*%
%TO.N,Rrd1*%
X85090000Y-52070000D03*
%TO.P,U12,14*%
%TO.N,Rrd5*%
X90170000Y-44450000D03*
%TO.P,U12,4*%
%TO.N,GND*%
X82550000Y-52070000D03*
%TO.P,U12,13*%
X92710000Y-44450000D03*
%TO.P,U12,3*%
%TO.N,Rrd0*%
X80010000Y-52070000D03*
%TO.P,U12,12*%
%TO.N,Rrd4*%
X95250000Y-44450000D03*
%TO.P,U12,2*%
%TO.N,GND*%
X77470000Y-52070000D03*
%TO.P,U12,11*%
X97790000Y-44450000D03*
D20*
%TO.P,U12,1*%
%TO.N,Net-(U12-Pad1)*%
X74930000Y-52070000D03*
%TD*%
D19*
%TO.P,U11,14*%
%TO.N,+5V*%
X54610000Y-68580000D03*
%TO.P,U11,7*%
%TO.N,GND*%
X69850000Y-76200000D03*
%TO.P,U11,13*%
%TO.N,Rrs3*%
X57150000Y-68580000D03*
%TO.P,U11,6*%
%TO.N,Net-(U11-Pad6)*%
X67310000Y-76200000D03*
%TO.P,U11,12*%
%TO.N,incdec*%
X59690000Y-68580000D03*
%TO.P,U11,5*%
%TO.N,Rrs1*%
X64770000Y-76200000D03*
%TO.P,U11,11*%
%TO.N,Net-(U11-Pad11)*%
X62230000Y-68580000D03*
%TO.P,U11,4*%
%TO.N,incdec*%
X62230000Y-76200000D03*
%TO.P,U11,10*%
%TO.N,Rrs2*%
X64770000Y-68580000D03*
%TO.P,U11,3*%
%TO.N,Net-(U11-Pad3)*%
X59690000Y-76200000D03*
%TO.P,U11,9*%
%TO.N,incdec*%
X67310000Y-68580000D03*
%TO.P,U11,2*%
%TO.N,Rrs0*%
X57150000Y-76200000D03*
%TO.P,U11,8*%
%TO.N,Net-(U11-Pad8)*%
X69850000Y-68580000D03*
D20*
%TO.P,U11,1*%
%TO.N,incdec*%
X54610000Y-76200000D03*
%TD*%
D19*
%TO.P,U10,14*%
%TO.N,+5V*%
X24130000Y-68580000D03*
%TO.P,U10,7*%
%TO.N,GND*%
X39370000Y-76200000D03*
%TO.P,U10,13*%
%TO.N,Rrs7*%
X26670000Y-68580000D03*
%TO.P,U10,6*%
%TO.N,Net-(U10-Pad6)*%
X36830000Y-76200000D03*
%TO.P,U10,12*%
%TO.N,incdec*%
X29210000Y-68580000D03*
%TO.P,U10,5*%
%TO.N,Rrs5*%
X34290000Y-76200000D03*
%TO.P,U10,11*%
%TO.N,Net-(U10-Pad11)*%
X31750000Y-68580000D03*
%TO.P,U10,4*%
%TO.N,incdec*%
X31750000Y-76200000D03*
%TO.P,U10,10*%
%TO.N,Rrs6*%
X34290000Y-68580000D03*
%TO.P,U10,3*%
%TO.N,Net-(U10-Pad3)*%
X29210000Y-76200000D03*
%TO.P,U10,9*%
%TO.N,incdec*%
X36830000Y-68580000D03*
%TO.P,U10,2*%
%TO.N,Rrs4*%
X26670000Y-76200000D03*
%TO.P,U10,8*%
%TO.N,Net-(U10-Pad8)*%
X39370000Y-68580000D03*
D20*
%TO.P,U10,1*%
%TO.N,incdec*%
X24130000Y-76200000D03*
%TD*%
D19*
%TO.P,U9,14*%
%TO.N,+5V*%
X121920000Y-68580000D03*
%TO.P,U9,7*%
%TO.N,GND*%
X137160000Y-76200000D03*
%TO.P,U9,13*%
%TO.N,addsub*%
X124460000Y-68580000D03*
%TO.P,U9,6*%
%TO.N,Net-(U7-Pad2)*%
X134620000Y-76200000D03*
%TO.P,U9,12*%
%TO.N,Net-(U11-Pad11)*%
X127000000Y-68580000D03*
%TO.P,U9,5*%
%TO.N,addsub*%
X132080000Y-76200000D03*
%TO.P,U9,11*%
%TO.N,Net-(U7-Pad11)*%
X129540000Y-68580000D03*
%TO.P,U9,4*%
%TO.N,Net-(U11-Pad6)*%
X129540000Y-76200000D03*
%TO.P,U9,10*%
%TO.N,addsub*%
X132080000Y-68580000D03*
%TO.P,U9,3*%
%TO.N,Net-(U7-Pad6)*%
X127000000Y-76200000D03*
%TO.P,U9,9*%
%TO.N,Net-(U11-Pad8)*%
X134620000Y-68580000D03*
%TO.P,U9,2*%
%TO.N,addsub*%
X124460000Y-76200000D03*
%TO.P,U9,8*%
%TO.N,Net-(U7-Pad15)*%
X137160000Y-68580000D03*
D20*
%TO.P,U9,1*%
%TO.N,Net-(U11-Pad3)*%
X121920000Y-76200000D03*
%TD*%
D19*
%TO.P,U8,14*%
%TO.N,+5V*%
X87630000Y-68580000D03*
%TO.P,U8,7*%
%TO.N,GND*%
X102870000Y-76200000D03*
%TO.P,U8,13*%
%TO.N,Net-(U10-Pad11)*%
X90170000Y-68580000D03*
%TO.P,U8,6*%
%TO.N,Net-(U6-Pad2)*%
X100330000Y-76200000D03*
%TO.P,U8,12*%
%TO.N,addsub*%
X92710000Y-68580000D03*
%TO.P,U8,5*%
%TO.N,Net-(U10-Pad6)*%
X97790000Y-76200000D03*
%TO.P,U8,11*%
%TO.N,Net-(U6-Pad11)*%
X95250000Y-68580000D03*
%TO.P,U8,4*%
%TO.N,addsub*%
X95250000Y-76200000D03*
%TO.P,U8,10*%
%TO.N,Net-(U10-Pad8)*%
X97790000Y-68580000D03*
%TO.P,U8,3*%
%TO.N,Net-(U6-Pad6)*%
X92710000Y-76200000D03*
%TO.P,U8,9*%
%TO.N,addsub*%
X100330000Y-68580000D03*
%TO.P,U8,2*%
%TO.N,Net-(U10-Pad3)*%
X90170000Y-76200000D03*
%TO.P,U8,8*%
%TO.N,Net-(U6-Pad15)*%
X102870000Y-68580000D03*
D20*
%TO.P,U8,1*%
%TO.N,addsub*%
X87630000Y-76200000D03*
%TD*%
D19*
%TO.P,U7,16*%
%TO.N,+5V*%
X55880000Y-88900000D03*
%TO.P,U7,8*%
%TO.N,GND*%
X73660000Y-96520000D03*
%TO.P,U7,15*%
%TO.N,Net-(U7-Pad15)*%
X58420000Y-88900000D03*
%TO.P,U7,7*%
%TO.N,addsub*%
X71120000Y-96520000D03*
%TO.P,U7,14*%
%TO.N,Rrd2*%
X60960000Y-88900000D03*
%TO.P,U7,6*%
%TO.N,Net-(U7-Pad6)*%
X68580000Y-96520000D03*
%TO.P,U7,13*%
%TO.N,Net-(U5-Pad4)*%
X63500000Y-88900000D03*
%TO.P,U7,5*%
%TO.N,Rrd0*%
X66040000Y-96520000D03*
%TO.P,U7,12*%
%TO.N,Rrd3*%
X66040000Y-88900000D03*
%TO.P,U7,4*%
%TO.N,Net-(U5-Pad2)*%
X63500000Y-96520000D03*
%TO.P,U7,11*%
%TO.N,Net-(U7-Pad11)*%
X68580000Y-88900000D03*
%TO.P,U7,3*%
%TO.N,Rrd1*%
X60960000Y-96520000D03*
%TO.P,U7,10*%
%TO.N,Net-(U5-Pad5)*%
X71120000Y-88900000D03*
%TO.P,U7,2*%
%TO.N,Net-(U7-Pad2)*%
X58420000Y-96520000D03*
%TO.P,U7,9*%
%TO.N,Net-(U6-Pad7)*%
X73660000Y-88900000D03*
D20*
%TO.P,U7,1*%
%TO.N,Net-(U5-Pad3)*%
X55880000Y-96520000D03*
%TD*%
D19*
%TO.P,U6,16*%
%TO.N,+5V*%
X24130000Y-88900000D03*
%TO.P,U6,8*%
%TO.N,GND*%
X41910000Y-96520000D03*
%TO.P,U6,15*%
%TO.N,Net-(U6-Pad15)*%
X26670000Y-88900000D03*
%TO.P,U6,7*%
%TO.N,Net-(U6-Pad7)*%
X39370000Y-96520000D03*
%TO.P,U6,14*%
%TO.N,Rrd6*%
X29210000Y-88900000D03*
%TO.P,U6,6*%
%TO.N,Net-(U6-Pad6)*%
X36830000Y-96520000D03*
%TO.P,U6,13*%
%TO.N,Net-(U5-Pad8)*%
X31750000Y-88900000D03*
%TO.P,U6,5*%
%TO.N,Rrd4*%
X34290000Y-96520000D03*
%TO.P,U6,12*%
%TO.N,Rrd7*%
X34290000Y-88900000D03*
%TO.P,U6,4*%
%TO.N,Net-(U5-Pad6)*%
X31750000Y-96520000D03*
%TO.P,U6,11*%
%TO.N,Net-(U6-Pad11)*%
X36830000Y-88900000D03*
%TO.P,U6,3*%
%TO.N,Rrd5*%
X29210000Y-96520000D03*
%TO.P,U6,10*%
%TO.N,Net-(U5-Pad9)*%
X39370000Y-88900000D03*
%TO.P,U6,2*%
%TO.N,Net-(U6-Pad2)*%
X26670000Y-96520000D03*
%TO.P,U6,9*%
%TO.N,Net-(U6-Pad9)*%
X41910000Y-88900000D03*
D20*
%TO.P,U6,1*%
%TO.N,Net-(U5-Pad7)*%
X24130000Y-96520000D03*
%TD*%
D19*
%TO.P,U5,20*%
%TO.N,+5V*%
X90170000Y-88900000D03*
%TO.P,U5,10*%
%TO.N,GND*%
X113030000Y-96520000D03*
%TO.P,U5,19*%
%TO.N,addwb*%
X92710000Y-88900000D03*
%TO.P,U5,9*%
%TO.N,Net-(U5-Pad9)*%
X110490000Y-96520000D03*
%TO.P,U5,18*%
%TO.N,wb0*%
X95250000Y-88900000D03*
%TO.P,U5,8*%
%TO.N,Net-(U5-Pad8)*%
X107950000Y-96520000D03*
%TO.P,U5,17*%
%TO.N,wb1*%
X97790000Y-88900000D03*
%TO.P,U5,7*%
%TO.N,Net-(U5-Pad7)*%
X105410000Y-96520000D03*
%TO.P,U5,16*%
%TO.N,wb2*%
X100330000Y-88900000D03*
%TO.P,U5,6*%
%TO.N,Net-(U5-Pad6)*%
X102870000Y-96520000D03*
%TO.P,U5,15*%
%TO.N,wb3*%
X102870000Y-88900000D03*
%TO.P,U5,5*%
%TO.N,Net-(U5-Pad5)*%
X100330000Y-96520000D03*
%TO.P,U5,14*%
%TO.N,wb4*%
X105410000Y-88900000D03*
%TO.P,U5,4*%
%TO.N,Net-(U5-Pad4)*%
X97790000Y-96520000D03*
%TO.P,U5,13*%
%TO.N,wb5*%
X107950000Y-88900000D03*
%TO.P,U5,3*%
%TO.N,Net-(U5-Pad3)*%
X95250000Y-96520000D03*
%TO.P,U5,12*%
%TO.N,wb6*%
X110490000Y-88900000D03*
%TO.P,U5,2*%
%TO.N,Net-(U5-Pad2)*%
X92710000Y-96520000D03*
%TO.P,U5,11*%
%TO.N,wb7*%
X113030000Y-88900000D03*
D20*
%TO.P,U5,1*%
%TO.N,+5V*%
X90170000Y-96520000D03*
%TD*%
D19*
%TO.P,U4,20*%
%TO.N,+5V*%
X88900000Y-24130000D03*
%TO.P,U4,10*%
%TO.N,GND*%
X111760000Y-31750000D03*
%TO.P,U4,19*%
%TO.N,sliwb*%
X91440000Y-24130000D03*
%TO.P,U4,9*%
%TO.N,Rrd3*%
X109220000Y-31750000D03*
%TO.P,U4,18*%
%TO.N,wb0*%
X93980000Y-24130000D03*
%TO.P,U4,8*%
%TO.N,Rrd2*%
X106680000Y-31750000D03*
%TO.P,U4,17*%
%TO.N,wb1*%
X96520000Y-24130000D03*
%TO.P,U4,7*%
%TO.N,Rrd1*%
X104140000Y-31750000D03*
%TO.P,U4,16*%
%TO.N,wb2*%
X99060000Y-24130000D03*
%TO.P,U4,6*%
%TO.N,Rrd0*%
X101600000Y-31750000D03*
%TO.P,U4,15*%
%TO.N,wb3*%
X101600000Y-24130000D03*
%TO.P,U4,5*%
%TO.N,imm3*%
X99060000Y-31750000D03*
%TO.P,U4,14*%
%TO.N,wb4*%
X104140000Y-24130000D03*
%TO.P,U4,4*%
%TO.N,imm2*%
X96520000Y-31750000D03*
%TO.P,U4,13*%
%TO.N,wb5*%
X106680000Y-24130000D03*
%TO.P,U4,3*%
%TO.N,imm1*%
X93980000Y-31750000D03*
%TO.P,U4,12*%
%TO.N,wb6*%
X109220000Y-24130000D03*
%TO.P,U4,2*%
%TO.N,imm0*%
X91440000Y-31750000D03*
%TO.P,U4,11*%
%TO.N,wb7*%
X111760000Y-24130000D03*
D20*
%TO.P,U4,1*%
%TO.N,+5V*%
X88900000Y-31750000D03*
%TD*%
D19*
%TO.P,U3,20*%
%TO.N,+5V*%
X34290000Y-44450000D03*
%TO.P,U3,10*%
%TO.N,GND*%
X57150000Y-52070000D03*
%TO.P,U3,19*%
%TO.N,nandwb*%
X36830000Y-44450000D03*
%TO.P,U3,9*%
%TO.N,Net-(U2-Pad11)*%
X54610000Y-52070000D03*
%TO.P,U3,18*%
%TO.N,wb0*%
X39370000Y-44450000D03*
%TO.P,U3,8*%
%TO.N,Net-(U2-Pad8)*%
X52070000Y-52070000D03*
%TO.P,U3,17*%
%TO.N,wb1*%
X41910000Y-44450000D03*
%TO.P,U3,7*%
%TO.N,Net-(U2-Pad6)*%
X49530000Y-52070000D03*
%TO.P,U3,16*%
%TO.N,wb2*%
X44450000Y-44450000D03*
%TO.P,U3,6*%
%TO.N,Net-(U2-Pad3)*%
X46990000Y-52070000D03*
%TO.P,U3,15*%
%TO.N,wb3*%
X46990000Y-44450000D03*
%TO.P,U3,5*%
%TO.N,Net-(U1-Pad11)*%
X44450000Y-52070000D03*
%TO.P,U3,14*%
%TO.N,wb4*%
X49530000Y-44450000D03*
%TO.P,U3,4*%
%TO.N,Net-(U1-Pad8)*%
X41910000Y-52070000D03*
%TO.P,U3,13*%
%TO.N,wb5*%
X52070000Y-44450000D03*
%TO.P,U3,3*%
%TO.N,Net-(U1-Pad6)*%
X39370000Y-52070000D03*
%TO.P,U3,12*%
%TO.N,wb6*%
X54610000Y-44450000D03*
%TO.P,U3,2*%
%TO.N,Net-(U1-Pad3)*%
X36830000Y-52070000D03*
%TO.P,U3,11*%
%TO.N,wb7*%
X57150000Y-44450000D03*
D20*
%TO.P,U3,1*%
%TO.N,+5V*%
X34290000Y-52070000D03*
%TD*%
D19*
%TO.P,U2,14*%
%TO.N,+5V*%
X53340000Y-24130000D03*
%TO.P,U2,7*%
%TO.N,GND*%
X68580000Y-31750000D03*
%TO.P,U2,13*%
%TO.N,Rrd7*%
X55880000Y-24130000D03*
%TO.P,U2,6*%
%TO.N,Net-(U2-Pad6)*%
X66040000Y-31750000D03*
%TO.P,U2,12*%
%TO.N,Rrs7*%
X58420000Y-24130000D03*
%TO.P,U2,5*%
%TO.N,Rrd5*%
X63500000Y-31750000D03*
%TO.P,U2,11*%
%TO.N,Net-(U2-Pad11)*%
X60960000Y-24130000D03*
%TO.P,U2,4*%
%TO.N,Rrs5*%
X60960000Y-31750000D03*
%TO.P,U2,10*%
%TO.N,Rrd6*%
X63500000Y-24130000D03*
%TO.P,U2,3*%
%TO.N,Net-(U2-Pad3)*%
X58420000Y-31750000D03*
%TO.P,U2,9*%
%TO.N,Rrs6*%
X66040000Y-24130000D03*
%TO.P,U2,2*%
%TO.N,Rrd4*%
X55880000Y-31750000D03*
%TO.P,U2,8*%
%TO.N,Net-(U2-Pad8)*%
X68580000Y-24130000D03*
D20*
%TO.P,U2,1*%
%TO.N,Rrs4*%
X53340000Y-31750000D03*
%TD*%
D19*
%TO.P,U1,14*%
%TO.N,+5V*%
X24130000Y-24130000D03*
%TO.P,U1,7*%
%TO.N,GND*%
X39370000Y-31750000D03*
%TO.P,U1,13*%
%TO.N,Rrd3*%
X26670000Y-24130000D03*
%TO.P,U1,6*%
%TO.N,Net-(U1-Pad6)*%
X36830000Y-31750000D03*
%TO.P,U1,12*%
%TO.N,Rrs3*%
X29210000Y-24130000D03*
%TO.P,U1,5*%
%TO.N,Rrd1*%
X34290000Y-31750000D03*
%TO.P,U1,11*%
%TO.N,Net-(U1-Pad11)*%
X31750000Y-24130000D03*
%TO.P,U1,4*%
%TO.N,Rrs1*%
X31750000Y-31750000D03*
%TO.P,U1,10*%
%TO.N,Rrd2*%
X34290000Y-24130000D03*
%TO.P,U1,3*%
%TO.N,Net-(U1-Pad3)*%
X29210000Y-31750000D03*
%TO.P,U1,9*%
%TO.N,Rrs2*%
X36830000Y-24130000D03*
%TO.P,U1,2*%
%TO.N,Rrd0*%
X26670000Y-31750000D03*
%TO.P,U1,8*%
%TO.N,Net-(U1-Pad8)*%
X39370000Y-24130000D03*
D20*
%TO.P,U1,1*%
%TO.N,Rrs0*%
X24130000Y-31750000D03*
%TD*%
D13*
%TO.P,R10,2*%
%TO.N,GND*%
X123190000Y-118110000D03*
D14*
%TO.P,R10,1*%
%TO.N,Net-(D10-Pad1)*%
X123190000Y-123190000D03*
%TD*%
D13*
%TO.P,R9,2*%
%TO.N,GND*%
X123190000Y-107950000D03*
D14*
%TO.P,R9,1*%
%TO.N,Net-(D9-Pad1)*%
X123190000Y-113030000D03*
%TD*%
D13*
%TO.P,R8,2*%
%TO.N,GND*%
X123190000Y-97790000D03*
D14*
%TO.P,R8,1*%
%TO.N,Net-(D8-Pad1)*%
X123190000Y-102870000D03*
%TD*%
D13*
%TO.P,R7,2*%
%TO.N,GND*%
X123190000Y-87630000D03*
D14*
%TO.P,R7,1*%
%TO.N,Net-(D7-Pad1)*%
X123190000Y-92710000D03*
%TD*%
D13*
%TO.P,R5,2*%
%TO.N,incdec*%
X74930000Y-105410000D03*
D14*
%TO.P,R5,1*%
%TO.N,Net-(D5-Pad1)*%
X74930000Y-110490000D03*
%TD*%
D13*
%TO.P,R4,2*%
%TO.N,addsub*%
X90170000Y-110490000D03*
D14*
%TO.P,R4,1*%
%TO.N,Net-(D4-Pad1)*%
X90170000Y-105410000D03*
%TD*%
D13*
%TO.P,R3,2*%
%TO.N,addwb*%
X104140000Y-105410000D03*
D14*
%TO.P,R3,1*%
%TO.N,Net-(D3-Pad1)*%
X104140000Y-110490000D03*
%TD*%
D13*
%TO.P,R2,2*%
%TO.N,sliwb*%
X55880000Y-105410000D03*
D14*
%TO.P,R2,1*%
%TO.N,Net-(D2-Pad1)*%
X55880000Y-110490000D03*
%TD*%
D13*
%TO.P,R1,2*%
%TO.N,nandwb*%
X34290000Y-110490000D03*
D14*
%TO.P,R1,1*%
%TO.N,Net-(D1-Pad1)*%
X34290000Y-105410000D03*
%TD*%
D15*
%TO.P,J8,4*%
%TO.N,ge*%
X129540000Y-142240000D03*
%TO.P,J8,3*%
%TO.N,lt*%
X129540000Y-139700000D03*
%TO.P,J8,2*%
%TO.N,noteq*%
X129540000Y-137160000D03*
D16*
%TO.P,J8,1*%
%TO.N,eq*%
X129540000Y-134620000D03*
%TD*%
D15*
%TO.P,J7,5*%
%TO.N,sliwb*%
X77470000Y-143510000D03*
%TO.P,J7,4*%
%TO.N,nandwb*%
X74930000Y-143510000D03*
%TO.P,J7,3*%
%TO.N,addwb*%
X72390000Y-143510000D03*
%TO.P,J7,2*%
%TO.N,incdec*%
X69850000Y-143510000D03*
D16*
%TO.P,J7,1*%
%TO.N,addsub*%
X67310000Y-143510000D03*
%TD*%
D15*
%TO.P,J6,4*%
%TO.N,imm3*%
X116840000Y-15240000D03*
%TO.P,J6,3*%
%TO.N,imm2*%
X119380000Y-15240000D03*
%TO.P,J6,2*%
%TO.N,imm1*%
X121920000Y-15240000D03*
D16*
%TO.P,J6,1*%
%TO.N,imm0*%
X124460000Y-15240000D03*
%TD*%
D15*
%TO.P,J5,8*%
%TO.N,Rrs7*%
X66040000Y-15240000D03*
%TO.P,J5,7*%
%TO.N,Rrs6*%
X68580000Y-15240000D03*
%TO.P,J5,6*%
%TO.N,Rrs5*%
X71120000Y-15240000D03*
%TO.P,J5,5*%
%TO.N,Rrs4*%
X73660000Y-15240000D03*
%TO.P,J5,4*%
%TO.N,Rrs3*%
X76200000Y-15240000D03*
%TO.P,J5,3*%
%TO.N,Rrs2*%
X78740000Y-15240000D03*
%TO.P,J5,2*%
%TO.N,Rrs1*%
X81280000Y-15240000D03*
D16*
%TO.P,J5,1*%
%TO.N,Rrs0*%
X83820000Y-15240000D03*
%TD*%
D15*
%TO.P,J4,8*%
%TO.N,Rrd7*%
X20320000Y-15240000D03*
%TO.P,J4,7*%
%TO.N,Rrd6*%
X22860000Y-15240000D03*
%TO.P,J4,6*%
%TO.N,Rrd5*%
X25400000Y-15240000D03*
%TO.P,J4,5*%
%TO.N,Rrd4*%
X27940000Y-15240000D03*
%TO.P,J4,4*%
%TO.N,Rrd3*%
X30480000Y-15240000D03*
%TO.P,J4,3*%
%TO.N,Rrd2*%
X33020000Y-15240000D03*
%TO.P,J4,2*%
%TO.N,Rrd1*%
X35560000Y-15240000D03*
D16*
%TO.P,J4,1*%
%TO.N,Rrd0*%
X38100000Y-15240000D03*
%TD*%
D15*
%TO.P,J3,8*%
%TO.N,wb7*%
X20320000Y-143510000D03*
%TO.P,J3,7*%
%TO.N,wb6*%
X22860000Y-143510000D03*
%TO.P,J3,6*%
%TO.N,wb5*%
X25400000Y-143510000D03*
%TO.P,J3,5*%
%TO.N,wb4*%
X27940000Y-143510000D03*
%TO.P,J3,4*%
%TO.N,wb3*%
X30480000Y-143510000D03*
%TO.P,J3,3*%
%TO.N,wb2*%
X33020000Y-143510000D03*
%TO.P,J3,2*%
%TO.N,wb1*%
X35560000Y-143510000D03*
D16*
%TO.P,J3,1*%
%TO.N,wb0*%
X38100000Y-143510000D03*
%TD*%
D15*
%TO.P,J2,8*%
%TO.N,wb7*%
X20320000Y-128270000D03*
%TO.P,J2,7*%
%TO.N,wb6*%
X22860000Y-128270000D03*
%TO.P,J2,6*%
%TO.N,wb5*%
X25400000Y-128270000D03*
%TO.P,J2,5*%
%TO.N,wb4*%
X27940000Y-128270000D03*
%TO.P,J2,4*%
%TO.N,wb3*%
X30480000Y-128270000D03*
%TO.P,J2,3*%
%TO.N,wb2*%
X33020000Y-128270000D03*
%TO.P,J2,2*%
%TO.N,wb1*%
X35560000Y-128270000D03*
D16*
%TO.P,J2,1*%
%TO.N,wb0*%
X38100000Y-128270000D03*
%TD*%
D15*
%TO.P,J1,3*%
%TO.N,Net-(J1-Pad3)*%
X142240000Y-26670000D03*
%TO.P,J1,2*%
%TO.N,GND*%
X142240000Y-24130000D03*
D16*
%TO.P,J1,1*%
%TO.N,+5V*%
X142240000Y-21590000D03*
%TD*%
D17*
%TO.P,D10,2*%
%TO.N,ge*%
X130810000Y-120650000D03*
D18*
%TO.P,D10,1*%
%TO.N,Net-(D10-Pad1)*%
X128270000Y-120650000D03*
%TD*%
D17*
%TO.P,D9,2*%
%TO.N,lt*%
X130810000Y-110490000D03*
D18*
%TO.P,D9,1*%
%TO.N,Net-(D9-Pad1)*%
X128270000Y-110490000D03*
%TD*%
D17*
%TO.P,D8,2*%
%TO.N,noteq*%
X130810000Y-100330000D03*
D18*
%TO.P,D8,1*%
%TO.N,Net-(D8-Pad1)*%
X128270000Y-100330000D03*
%TD*%
D17*
%TO.P,D7,2*%
%TO.N,eq*%
X130810000Y-90170000D03*
D18*
%TO.P,D7,1*%
%TO.N,Net-(D7-Pad1)*%
X128270000Y-90170000D03*
%TD*%
D17*
%TO.P,D5,2*%
%TO.N,+5V*%
X82550000Y-107950000D03*
D18*
%TO.P,D5,1*%
%TO.N,Net-(D5-Pad1)*%
X80010000Y-107950000D03*
%TD*%
D17*
%TO.P,D4,2*%
%TO.N,+5V*%
X97790000Y-107950000D03*
D18*
%TO.P,D4,1*%
%TO.N,Net-(D4-Pad1)*%
X95250000Y-107950000D03*
%TD*%
D17*
%TO.P,D3,2*%
%TO.N,+5V*%
X111760000Y-107950000D03*
D18*
%TO.P,D3,1*%
%TO.N,Net-(D3-Pad1)*%
X109220000Y-107950000D03*
%TD*%
D17*
%TO.P,D2,2*%
%TO.N,+5V*%
X63500000Y-107950000D03*
D18*
%TO.P,D2,1*%
%TO.N,Net-(D2-Pad1)*%
X60960000Y-107950000D03*
%TD*%
D17*
%TO.P,D1,2*%
%TO.N,+5V*%
X43180000Y-107950000D03*
D18*
%TO.P,D1,1*%
%TO.N,Net-(D1-Pad1)*%
X40640000Y-107950000D03*
%TD*%
D21*
%TO.P,C13,2*%
%TO.N,GND*%
X115570000Y-50720000D03*
%TO.P,C13,1*%
%TO.N,+5V*%
X115570000Y-45720000D03*
%TD*%
%TO.P,C12,2*%
%TO.N,GND*%
X69850000Y-50720000D03*
%TO.P,C12,1*%
%TO.N,+5V*%
X69850000Y-45720000D03*
%TD*%
%TO.P,C11,2*%
%TO.N,GND*%
X49530000Y-74850000D03*
%TO.P,C11,1*%
%TO.N,+5V*%
X49530000Y-69850000D03*
%TD*%
%TO.P,C10,2*%
%TO.N,GND*%
X17780000Y-74850000D03*
%TO.P,C10,1*%
%TO.N,+5V*%
X17780000Y-69850000D03*
%TD*%
%TO.P,C9,2*%
%TO.N,GND*%
X116840000Y-74850000D03*
%TO.P,C9,1*%
%TO.N,+5V*%
X116840000Y-69850000D03*
%TD*%
%TO.P,C8,2*%
%TO.N,GND*%
X82550000Y-74850000D03*
%TO.P,C8,1*%
%TO.N,+5V*%
X82550000Y-69850000D03*
%TD*%
%TO.P,C7,2*%
%TO.N,GND*%
X50800000Y-95170000D03*
%TO.P,C7,1*%
%TO.N,+5V*%
X50800000Y-90170000D03*
%TD*%
%TO.P,C6,2*%
%TO.N,GND*%
X19050000Y-95170000D03*
%TO.P,C6,1*%
%TO.N,+5V*%
X19050000Y-90170000D03*
%TD*%
%TO.P,C5,2*%
%TO.N,GND*%
X85090000Y-95170000D03*
%TO.P,C5,1*%
%TO.N,+5V*%
X85090000Y-90170000D03*
%TD*%
%TO.P,C4,2*%
%TO.N,GND*%
X83820000Y-30400000D03*
%TO.P,C4,1*%
%TO.N,+5V*%
X83820000Y-25400000D03*
%TD*%
%TO.P,C3,2*%
%TO.N,GND*%
X29210000Y-50720000D03*
%TO.P,C3,1*%
%TO.N,+5V*%
X29210000Y-45720000D03*
%TD*%
%TO.P,C2,2*%
%TO.N,GND*%
X48260000Y-30400000D03*
%TO.P,C2,1*%
%TO.N,+5V*%
X48260000Y-25400000D03*
%TD*%
%TO.P,C1,2*%
%TO.N,GND*%
X19050000Y-30400000D03*
%TO.P,C1,1*%
%TO.N,+5V*%
X19050000Y-25400000D03*
%TD*%
D22*
%TO.N,+5V*%
X92921100Y-111334000D03*
X23853800Y-41851900D03*
%TO.N,noteq*%
X68513600Y-63789400D03*
%TO.N,wb7*%
X104411600Y-38727700D03*
X54946800Y-125141400D03*
%TO.N,wb6*%
X97251500Y-40798000D03*
%TO.N,wb5*%
X96379500Y-39546000D03*
X76200000Y-129670800D03*
%TO.N,wb4*%
X99860700Y-47244200D03*
X94155200Y-47851800D03*
%TO.N,wb3*%
X40913600Y-48273100D03*
X105128900Y-94128300D03*
X52690600Y-42246300D03*
X49317000Y-42246300D03*
%TO.N,wb2*%
X99037400Y-112086500D03*
X95250000Y-125515400D03*
%TO.N,wb1*%
X60887500Y-37150500D03*
X100528600Y-106204000D03*
X61224300Y-39223200D03*
%TO.N,wb0*%
X71792400Y-30775400D03*
X62915700Y-36333500D03*
%TO.N,Rrd7*%
X62791600Y-13458200D03*
X106073100Y-38334200D03*
%TO.N,Rrd6*%
X66537600Y-65837900D03*
%TO.N,Rrd5*%
X60614300Y-42805500D03*
%TO.N,Rrd4*%
X57675700Y-47832400D03*
%TO.N,Rrd3*%
X71668700Y-62361000D03*
%TO.N,Rrd2*%
X66956100Y-62815100D03*
X31566700Y-49691000D03*
%TO.N,Rrd1*%
X53358900Y-47977500D03*
X49694700Y-34377400D03*
%TO.N,Rrd0*%
X90123700Y-40331400D03*
X30833300Y-47580000D03*
%TO.N,Rrs7*%
X36667000Y-40993500D03*
X47256300Y-34922800D03*
%TO.N,Rrs6*%
X38100000Y-49457900D03*
X53890300Y-37521700D03*
%TO.N,Rrs5*%
X42486600Y-77640000D03*
%TO.N,Rrs4*%
X36080800Y-47592600D03*
X51717200Y-35553600D03*
%TO.N,Rrs2*%
X42695300Y-23004700D03*
%TO.N,Rrs0*%
X24964300Y-55652100D03*
X58151200Y-63877400D03*
%TO.N,sliwb*%
X74322300Y-29980000D03*
X70771800Y-137210000D03*
%TO.N,nandwb*%
X28041400Y-85675300D03*
%TO.N,addwb*%
X93835300Y-102845900D03*
%TO.N,incdec*%
X54892100Y-100242500D03*
%TO.N,Net-(U2-Pad6)*%
X50825700Y-40686900D03*
%TO.N,Net-(U2-Pad11)*%
X49881600Y-48138900D03*
%TO.N,Net-(U2-Pad3)*%
X56125500Y-37522500D03*
%TO.N,Net-(U5-Pad9)*%
X45584200Y-92215400D03*
%TO.N,Net-(U5-Pad5)*%
X82405500Y-92795200D03*
%TO.N,Net-(U5-Pad4)*%
X63249400Y-92432300D03*
%TO.N,Net-(U6-Pad15)*%
X28564600Y-91666500D03*
%TO.N,Net-(U7-Pad6)*%
X76653500Y-91621100D03*
%TO.N,Net-(U7-Pad2)*%
X65024100Y-91427300D03*
%TO.N,Net-(U10-Pad11)*%
X88316900Y-64528100D03*
%TO.N,Net-(U10-Pad6)*%
X33726200Y-86923800D03*
%TO.N,Net-(U10-Pad8)*%
X97270600Y-65339300D03*
%TO.N,Net-(U10-Pad3)*%
X30343700Y-91668700D03*
%TO.N,Net-(U11-Pad6)*%
X126333800Y-71476200D03*
%TO.N,Net-(U11-Pad3)*%
X63495900Y-79116000D03*
X121621300Y-72730400D03*
%TO.N,Net-(D14-Pad1)*%
X83094900Y-131271900D03*
%TO.N,Net-(D17-Pad1)*%
X63449400Y-130487300D03*
%TD*%
D23*
%TO.N,GND*%
X29210000Y-50720000D02*
X31563500Y-50720000D01*
X31563500Y-50720000D02*
X32292000Y-49991500D01*
X32292000Y-49991500D02*
X32292000Y-39953300D01*
X32292000Y-39953300D02*
X39370000Y-32875300D01*
X111760000Y-31750000D02*
X111760000Y-32875300D01*
X115570000Y-50720000D02*
X113680500Y-48830500D01*
X113680500Y-48830500D02*
X113680500Y-34795800D01*
X113680500Y-34795800D02*
X111760000Y-32875300D01*
X83073300Y-93153200D02*
X83130800Y-93095700D01*
X83130800Y-93095700D02*
X83130800Y-92494700D01*
X83130800Y-92494700D02*
X82942600Y-92306500D01*
X82942600Y-92306500D02*
X82942600Y-75242600D01*
X82942600Y-75242600D02*
X82550000Y-74850000D01*
X73660000Y-96520000D02*
X79445200Y-96520000D01*
X79445200Y-96520000D02*
X82444700Y-93520500D01*
X82444700Y-93520500D02*
X82706000Y-93520500D01*
X82706000Y-93520500D02*
X83073300Y-93153200D01*
X85090000Y-95170000D02*
X83073300Y-93153200D01*
X97790000Y-52070000D02*
X97790000Y-50944700D01*
X97790000Y-44450000D02*
X97790000Y-45575300D01*
X97790000Y-45575300D02*
X97790000Y-50944700D01*
X53340000Y-127000000D02*
X52314700Y-127000000D01*
X52314700Y-127000000D02*
X46654700Y-121340000D01*
X46654700Y-121340000D02*
X44600000Y-121340000D01*
X17780000Y-74850000D02*
X17780000Y-93900000D01*
X17780000Y-93900000D02*
X19050000Y-95170000D01*
X92710000Y-44450000D02*
X91584700Y-44450000D01*
X87630000Y-44450000D02*
X88755300Y-44450000D01*
X88755300Y-44450000D02*
X88755300Y-44731300D01*
X88755300Y-44731300D02*
X89599300Y-45575300D01*
X89599300Y-45575300D02*
X90740800Y-45575300D01*
X90740800Y-45575300D02*
X91584700Y-44731400D01*
X91584700Y-44731400D02*
X91584700Y-44450000D01*
X41910000Y-96520000D02*
X43035300Y-96520000D01*
X49530000Y-93900000D02*
X50800000Y-95170000D01*
X49530000Y-74850000D02*
X49530000Y-93900000D01*
X49530000Y-93900000D02*
X45655300Y-93900000D01*
X45655300Y-93900000D02*
X43035300Y-96520000D01*
X82550000Y-44450000D02*
X82550000Y-43324700D01*
X82550000Y-43324700D02*
X83820000Y-42054700D01*
X83820000Y-42054700D02*
X83820000Y-30400000D01*
X62230000Y-124704700D02*
X62825300Y-124704700D01*
X62825300Y-124704700D02*
X66190000Y-121340000D01*
X59690000Y-121340000D02*
X59690000Y-122164700D01*
X59690000Y-122164700D02*
X62230000Y-124704700D01*
X62230000Y-125974700D02*
X62230000Y-124704700D01*
X147320000Y-24130000D02*
X146144700Y-24130000D01*
X142240000Y-24717600D02*
X145557100Y-24717600D01*
X145557100Y-24717600D02*
X146144700Y-24130000D01*
X142240000Y-24717600D02*
X142240000Y-25305300D01*
X142240000Y-24130000D02*
X142240000Y-24717600D01*
X104629400Y-125974700D02*
X105654700Y-127000000D01*
X98815300Y-127000000D02*
X99840600Y-125974700D01*
X99840600Y-125974700D02*
X104629400Y-125974700D01*
X106680000Y-120070000D02*
X104629400Y-122120600D01*
X104629400Y-122120600D02*
X104629400Y-125974700D01*
X123190000Y-87630000D02*
X123190000Y-86604700D01*
X116840000Y-74850000D02*
X116840000Y-80254700D01*
X116840000Y-80254700D02*
X123190000Y-86604700D01*
X142240000Y-25305300D02*
X141872600Y-25305300D01*
X141872600Y-25305300D02*
X137015300Y-30162600D01*
X137015300Y-30162600D02*
X137015300Y-49819400D01*
X137015300Y-49819400D02*
X135890000Y-50944700D01*
X123190000Y-87630000D02*
X123190000Y-88655300D01*
X123190000Y-97790000D02*
X123190000Y-96764700D01*
X123190000Y-96764700D02*
X124215300Y-95739400D01*
X124215300Y-95739400D02*
X124215300Y-89680600D01*
X124215300Y-89680600D02*
X123190000Y-88655300D01*
X123190000Y-98302600D02*
X123190000Y-97790000D01*
X123190000Y-98302600D02*
X123190000Y-98815300D01*
X123190000Y-107950000D02*
X123190000Y-106924700D01*
X123190000Y-106924700D02*
X124215300Y-105899400D01*
X124215300Y-105899400D02*
X124215300Y-99840600D01*
X124215300Y-99840600D02*
X123190000Y-98815300D01*
X123190000Y-108462600D02*
X123190000Y-107950000D01*
X123190000Y-108462600D02*
X123190000Y-108975300D01*
X106680000Y-127000000D02*
X105654700Y-127000000D01*
X97790000Y-127000000D02*
X98815300Y-127000000D01*
X82550000Y-74850000D02*
X86504700Y-70895300D01*
X86504700Y-70895300D02*
X86504700Y-54320600D01*
X86504700Y-54320600D02*
X87630000Y-53195300D01*
X87630000Y-52070000D02*
X87630000Y-53195300D01*
X62230000Y-127000000D02*
X62230000Y-125974700D01*
X123190000Y-118110000D02*
X123190000Y-117084700D01*
X123190000Y-108975300D02*
X124215300Y-110000600D01*
X124215300Y-110000600D02*
X124215300Y-116059400D01*
X124215300Y-116059400D02*
X123190000Y-117084700D01*
X135890000Y-52070000D02*
X135890000Y-50944700D01*
X137160000Y-76200000D02*
X137160000Y-75074700D01*
X137160000Y-75074700D02*
X135890000Y-73804700D01*
X135890000Y-73804700D02*
X135890000Y-52070000D01*
X39370000Y-31750000D02*
X39370000Y-32875300D01*
X87630000Y-52070000D02*
X88755300Y-52070000D01*
X92710000Y-52070000D02*
X91584700Y-52070000D01*
X91584700Y-52070000D02*
X91584700Y-51788600D01*
X91584700Y-51788600D02*
X90740800Y-50944700D01*
X90740800Y-50944700D02*
X89599200Y-50944700D01*
X89599200Y-50944700D02*
X88755300Y-51788600D01*
X88755300Y-51788600D02*
X88755300Y-52070000D01*
%TO.N,+5V*%
X91242200Y-110879400D02*
X92466500Y-110879400D01*
X92466500Y-110879400D02*
X92921100Y-111334000D01*
X91242200Y-110879400D02*
X90570100Y-111551500D01*
X90570100Y-111551500D02*
X86151500Y-111551500D01*
X86151500Y-111551500D02*
X82550000Y-107950000D01*
X90170000Y-97645300D02*
X91242200Y-98717500D01*
X91242200Y-98717500D02*
X91242200Y-110879400D01*
X48260000Y-24130000D02*
X48260000Y-22549800D01*
X48260000Y-22549800D02*
X39311500Y-13601300D01*
X39311500Y-13601300D02*
X25356100Y-13601300D01*
X25356100Y-13601300D02*
X24130000Y-14827400D01*
X24130000Y-14827400D02*
X24130000Y-24130000D01*
X48260000Y-25400000D02*
X48260000Y-24130000D01*
X48260000Y-24130000D02*
X52214700Y-24130000D01*
X53340000Y-24130000D02*
X52214700Y-24130000D01*
X20038700Y-88900000D02*
X23004700Y-88900000D01*
X19050000Y-90170000D02*
X19050000Y-89888700D01*
X19050000Y-89888700D02*
X20038700Y-88900000D01*
X20038700Y-72108600D02*
X20038700Y-72108700D01*
X20038700Y-72108700D02*
X20038700Y-88900000D01*
X24130000Y-88900000D02*
X23004700Y-88900000D01*
X20038700Y-72108600D02*
X24130000Y-68017300D01*
X17780000Y-69850000D02*
X20038700Y-72108600D01*
X111760000Y-107950000D02*
X114920400Y-104789600D01*
X114920400Y-104789600D02*
X114920400Y-71769600D01*
X114920400Y-71769600D02*
X116840000Y-69850000D01*
X23853800Y-41851900D02*
X23853800Y-67178500D01*
X23853800Y-67178500D02*
X24130000Y-67454700D01*
X23004600Y-26380700D02*
X23004600Y-41002700D01*
X23004600Y-41002700D02*
X23853800Y-41851900D01*
X50800000Y-90170000D02*
X51927900Y-91297900D01*
X51927900Y-91297900D02*
X51927900Y-99202100D01*
X51927900Y-99202100D02*
X43180000Y-107950000D01*
X49530000Y-69850000D02*
X50800000Y-71120000D01*
X50800000Y-71120000D02*
X50800000Y-90170000D01*
X24130000Y-25255300D02*
X23004600Y-26380700D01*
X19050000Y-25400000D02*
X22023900Y-25400000D01*
X22023900Y-25400000D02*
X23004600Y-26380700D01*
X24130000Y-24130000D02*
X24130000Y-25255300D01*
X116840000Y-46355000D02*
X117619700Y-46355000D01*
X117619700Y-46355000D02*
X119524700Y-44450000D01*
X115570000Y-45720000D02*
X116205000Y-46355000D01*
X116205000Y-46355000D02*
X116840000Y-46355000D01*
X116840000Y-46355000D02*
X116840000Y-69850000D01*
X120650000Y-44450000D02*
X119524700Y-44450000D01*
X88900000Y-29270300D02*
X88900000Y-31750000D01*
X88900000Y-24130000D02*
X88900000Y-29270300D01*
X74930000Y-44450000D02*
X74930000Y-37612600D01*
X74930000Y-37612600D02*
X83272300Y-29270300D01*
X83272300Y-29270300D02*
X88900000Y-29270300D01*
X54610000Y-121920000D02*
X54610000Y-120894700D01*
X63500000Y-107950000D02*
X55635300Y-115814700D01*
X55635300Y-115814700D02*
X55635300Y-119869400D01*
X55635300Y-119869400D02*
X54610000Y-120894700D01*
X24130000Y-68017300D02*
X24130000Y-67454700D01*
X24130000Y-68580000D02*
X24130000Y-68017300D01*
X87630000Y-68580000D02*
X87630000Y-69705300D01*
X90170000Y-88900000D02*
X90170000Y-87774700D01*
X90170000Y-87774700D02*
X88755300Y-86360000D01*
X88755300Y-86360000D02*
X88755300Y-70830600D01*
X88755300Y-70830600D02*
X87630000Y-69705300D01*
X90170000Y-96520000D02*
X90170000Y-88900000D01*
X90170000Y-96520000D02*
X90170000Y-97645300D01*
%TO.N,Net-(D5-Pad1)*%
X80010000Y-107950000D02*
X77470000Y-107950000D01*
X77470000Y-107950000D02*
X74930000Y-110490000D01*
%TO.N,eq*%
X129540000Y-134620000D02*
X129540000Y-91440000D01*
X129540000Y-91440000D02*
X130810000Y-90170000D01*
%TO.N,noteq*%
X77470000Y-44450000D02*
X77470000Y-45950500D01*
X77470000Y-45950500D02*
X68513600Y-54906900D01*
X68513600Y-54906900D02*
X68513600Y-63789400D01*
X129540000Y-137160000D02*
X129540000Y-135984700D01*
X129540000Y-135984700D02*
X130348000Y-135984700D01*
X130348000Y-135984700D02*
X132051200Y-134281500D01*
X132051200Y-134281500D02*
X132051200Y-101571200D01*
X132051200Y-101571200D02*
X130810000Y-100330000D01*
X130810000Y-100330000D02*
X132057600Y-99082400D01*
X132057600Y-99082400D02*
X132057600Y-79925600D01*
X132057600Y-79925600D02*
X130810000Y-78678000D01*
X130810000Y-78678000D02*
X130810000Y-52070000D01*
%TO.N,ge*%
X123190000Y-52070000D02*
X121775300Y-52070000D01*
X129540000Y-141064700D02*
X129172700Y-141064700D01*
X129172700Y-141064700D02*
X124834400Y-136726400D01*
X124834400Y-136726400D02*
X124834400Y-83114400D01*
X124834400Y-83114400D02*
X123190000Y-81470000D01*
X123190000Y-81470000D02*
X123190000Y-52070000D01*
X120650000Y-52070000D02*
X121775300Y-52070000D01*
X129540000Y-142240000D02*
X129540000Y-141064700D01*
X135890000Y-44450000D02*
X134764700Y-44450000D01*
X123190000Y-52070000D02*
X124315300Y-52070000D01*
X124315300Y-52070000D02*
X124315300Y-51788600D01*
X124315300Y-51788600D02*
X130528600Y-45575300D01*
X130528600Y-45575300D02*
X133920800Y-45575300D01*
X133920800Y-45575300D02*
X134764700Y-44731400D01*
X134764700Y-44731400D02*
X134764700Y-44450000D01*
%TO.N,wb7*%
X50800000Y-132080000D02*
X54946800Y-127933200D01*
X54946800Y-127933200D02*
X54946800Y-125141400D01*
X113030000Y-88900000D02*
X113030000Y-47346100D01*
X113030000Y-47346100D02*
X104411600Y-38727700D01*
%TO.N,wb6*%
X103686300Y-40489600D02*
X97559900Y-40489600D01*
X97559900Y-40489600D02*
X97251500Y-40798000D01*
X110490000Y-88900000D02*
X110490000Y-47293300D01*
X110490000Y-47293300D02*
X103686300Y-40489600D01*
X103686300Y-40489600D02*
X103686300Y-38427300D01*
X103686300Y-38427300D02*
X107950000Y-34163600D01*
X107950000Y-34163600D02*
X107950000Y-31110200D01*
X107950000Y-31110200D02*
X123124200Y-15936000D01*
X123124200Y-15936000D02*
X123124200Y-14759600D01*
X123124200Y-14759600D02*
X121959500Y-13594900D01*
X121959500Y-13594900D02*
X116779900Y-13594900D01*
X116779900Y-13594900D02*
X109220000Y-21154800D01*
X109220000Y-21154800D02*
X109220000Y-24130000D01*
X110490000Y-88900000D02*
X110490000Y-90025300D01*
X59690000Y-132080000D02*
X60915300Y-133305300D01*
X60915300Y-133305300D02*
X60915300Y-139981200D01*
X60915300Y-139981200D02*
X66070900Y-145136800D01*
X66070900Y-145136800D02*
X87016800Y-145136800D01*
X87016800Y-145136800D02*
X96493200Y-135660400D01*
X96493200Y-135660400D02*
X96493200Y-123828900D01*
X96493200Y-123828900D02*
X107275200Y-113046900D01*
X107275200Y-113046900D02*
X107275200Y-100839700D01*
X107275200Y-100839700D02*
X109364700Y-98750200D01*
X109364700Y-98750200D02*
X109364700Y-91150600D01*
X109364700Y-91150600D02*
X110490000Y-90025300D01*
X22860000Y-128270000D02*
X22860000Y-143510000D01*
%TO.N,wb5*%
X76200000Y-129670800D02*
X76200000Y-129080900D01*
X76200000Y-129080900D02*
X93646400Y-111634500D01*
X93646400Y-111634500D02*
X93646400Y-105915800D01*
X93646400Y-105915800D02*
X96632700Y-102929500D01*
X96632700Y-102929500D02*
X96632700Y-88448600D01*
X96632700Y-88448600D02*
X97306600Y-87774700D01*
X96379500Y-39546000D02*
X95352500Y-38519000D01*
X95352500Y-38519000D02*
X95352500Y-31321600D01*
X95352500Y-31321600D02*
X101418800Y-25255300D01*
X101418800Y-25255300D02*
X104710800Y-25255300D01*
X104710800Y-25255300D02*
X105554700Y-24411400D01*
X105554700Y-24411400D02*
X105554700Y-24130000D01*
X96379500Y-39546000D02*
X96379500Y-86847600D01*
X96379500Y-86847600D02*
X97306600Y-87774700D01*
X97306600Y-87774700D02*
X105980800Y-87774700D01*
X105980800Y-87774700D02*
X106824700Y-88618600D01*
X106824700Y-88618600D02*
X106824700Y-88900000D01*
X106680000Y-24130000D02*
X105554700Y-24130000D01*
X107950000Y-88900000D02*
X106824700Y-88900000D01*
X25400000Y-128270000D02*
X25400000Y-143510000D01*
%TO.N,wb4*%
X77470000Y-132080000D02*
X77470000Y-131827500D01*
X77470000Y-131827500D02*
X96485700Y-112811800D01*
X96485700Y-112811800D02*
X99337900Y-112811800D01*
X99337900Y-112811800D02*
X99762700Y-112387000D01*
X99762700Y-112387000D02*
X99762700Y-109614900D01*
X99762700Y-109614900D02*
X102495600Y-106882000D01*
X102495600Y-106882000D02*
X102495600Y-102256100D01*
X102495600Y-102256100D02*
X104140000Y-100611700D01*
X104140000Y-100611700D02*
X104140000Y-91585200D01*
X104140000Y-91585200D02*
X105651100Y-90074100D01*
X103014700Y-24130000D02*
X103014700Y-23848600D01*
X103014700Y-23848600D02*
X102170800Y-23004700D01*
X102170800Y-23004700D02*
X101133500Y-23004700D01*
X101133500Y-23004700D02*
X100330000Y-23808200D01*
X100330000Y-23808200D02*
X100330000Y-24482100D01*
X100330000Y-24482100D02*
X99289100Y-25523000D01*
X99289100Y-25523000D02*
X98544200Y-25523000D01*
X98544200Y-25523000D02*
X92814200Y-31253000D01*
X92814200Y-31253000D02*
X92814200Y-35966600D01*
X92814200Y-35966600D02*
X93867400Y-37019800D01*
X93867400Y-37019800D02*
X93867400Y-47564000D01*
X93867400Y-47564000D02*
X94155200Y-47851800D01*
X105651100Y-90074100D02*
X108380600Y-90074100D01*
X108380600Y-90074100D02*
X109075500Y-89379200D01*
X109075500Y-89379200D02*
X109075500Y-56459000D01*
X109075500Y-56459000D02*
X99860700Y-47244200D01*
X105410000Y-89833000D02*
X105651100Y-90074100D01*
X105410000Y-88900000D02*
X105410000Y-89833000D01*
X104140000Y-24130000D02*
X103014700Y-24130000D01*
X27940000Y-128270000D02*
X27940000Y-143510000D01*
%TO.N,wb3*%
X30480000Y-128270000D02*
X30480000Y-92853000D01*
X30480000Y-92853000D02*
X31103000Y-92230000D01*
X31103000Y-92230000D02*
X31103000Y-90736600D01*
X31103000Y-90736600D02*
X30611700Y-90245300D01*
X30611700Y-90245300D02*
X30611700Y-74793600D01*
X30611700Y-74793600D02*
X35415400Y-69989900D01*
X35415400Y-69989900D02*
X35415400Y-62558800D01*
X35415400Y-62558800D02*
X40736800Y-57237400D01*
X40736800Y-57237400D02*
X40736800Y-48449900D01*
X40736800Y-48449900D02*
X40913600Y-48273100D01*
X52690600Y-42246300D02*
X52690600Y-41526000D01*
X52690600Y-41526000D02*
X51126200Y-39961600D01*
X51126200Y-39961600D02*
X50525300Y-39961600D01*
X50525300Y-39961600D02*
X49317000Y-41169900D01*
X49317000Y-41169900D02*
X49317000Y-42246300D01*
X30480000Y-143510000D02*
X30480000Y-128270000D01*
X86360000Y-132080000D02*
X86360000Y-131853500D01*
X86360000Y-131853500D02*
X101460900Y-116752600D01*
X101460900Y-116752600D02*
X101897700Y-116752600D01*
X101897700Y-116752600D02*
X106556300Y-112094000D01*
X106556300Y-112094000D02*
X106556300Y-95555700D01*
X106556300Y-95555700D02*
X105128900Y-94128300D01*
%TO.N,wb2*%
X100330000Y-90025300D02*
X101455300Y-91150600D01*
X101455300Y-91150600D02*
X101455300Y-107166600D01*
X101455300Y-107166600D02*
X99037400Y-109584500D01*
X99037400Y-109584500D02*
X99037400Y-112086500D01*
X99060000Y-24130000D02*
X97934700Y-24130000D01*
X44450000Y-44450000D02*
X44450000Y-36048500D01*
X44450000Y-36048500D02*
X54610000Y-25888500D01*
X54610000Y-25888500D02*
X54610000Y-23757200D01*
X54610000Y-23757200D02*
X65714200Y-12653000D01*
X65714200Y-12653000D02*
X86739000Y-12653000D01*
X86739000Y-12653000D02*
X97934700Y-23848700D01*
X97934700Y-23848700D02*
X97934700Y-24130000D01*
X44450000Y-45012600D02*
X44450000Y-44450000D01*
X33020000Y-128270000D02*
X33020000Y-127094700D01*
X44450000Y-45575300D02*
X43317400Y-46707900D01*
X43317400Y-46707900D02*
X43317400Y-60593100D01*
X43317400Y-60593100D02*
X38100000Y-65810500D01*
X38100000Y-65810500D02*
X38100000Y-69110200D01*
X38100000Y-69110200D02*
X33000900Y-74209300D01*
X33000900Y-74209300D02*
X33000900Y-127075600D01*
X33000900Y-127075600D02*
X33020000Y-127094700D01*
X44450000Y-45012600D02*
X44450000Y-45575300D01*
X33020000Y-128270000D02*
X33020000Y-143510000D01*
X100330000Y-88900000D02*
X100330000Y-90025300D01*
X95250000Y-132080000D02*
X95250000Y-125515400D01*
%TO.N,wb1*%
X97790000Y-90025300D02*
X99015400Y-91250700D01*
X99015400Y-91250700D02*
X99015400Y-104690800D01*
X99015400Y-104690800D02*
X100528600Y-106204000D01*
X35560000Y-127094700D02*
X39875900Y-122778800D01*
X39875900Y-122778800D02*
X39875900Y-117902100D01*
X39875900Y-117902100D02*
X52900400Y-104877600D01*
X52900400Y-104877600D02*
X52900400Y-59187900D01*
X52900400Y-59187900D02*
X61189900Y-50898400D01*
X61189900Y-50898400D02*
X61189900Y-43769100D01*
X61189900Y-43769100D02*
X61384800Y-43574200D01*
X61384800Y-43574200D02*
X61384800Y-39383700D01*
X61384800Y-39383700D02*
X61224300Y-39223200D01*
X61224300Y-39223200D02*
X60887500Y-38886400D01*
X60887500Y-38886400D02*
X60887500Y-37150500D01*
X97790000Y-88900000D02*
X97790000Y-90025300D01*
X35560000Y-128270000D02*
X35560000Y-127094700D01*
X35560000Y-143510000D02*
X35560000Y-128270000D01*
%TO.N,wb0*%
X62915700Y-36333500D02*
X66234300Y-36333500D01*
X66234300Y-36333500D02*
X71792400Y-30775400D01*
X38100000Y-127094700D02*
X42154500Y-123040200D01*
X42154500Y-123040200D02*
X42154500Y-117411200D01*
X42154500Y-117411200D02*
X53350700Y-106215000D01*
X53350700Y-106215000D02*
X53350700Y-59374500D01*
X53350700Y-59374500D02*
X61640200Y-51085000D01*
X61640200Y-51085000D02*
X61640200Y-43955700D01*
X61640200Y-43955700D02*
X61971400Y-43624500D01*
X61971400Y-43624500D02*
X61971400Y-37277800D01*
X61971400Y-37277800D02*
X62915700Y-36333500D01*
X38100000Y-128270000D02*
X38100000Y-127094700D01*
X38100000Y-143510000D02*
X38100000Y-128270000D01*
%TO.N,Rrd7*%
X117263000Y-30624500D02*
X111286800Y-30624500D01*
X111286800Y-30624500D02*
X110556100Y-31355200D01*
X110556100Y-31355200D02*
X110556100Y-33851200D01*
X110556100Y-33851200D02*
X106073100Y-38334200D01*
X129684700Y-44450000D02*
X129684700Y-43046200D01*
X129684700Y-43046200D02*
X117263000Y-30624500D01*
X117263000Y-30624500D02*
X125645900Y-22241600D01*
X125645900Y-22241600D02*
X125645900Y-14229000D01*
X125645900Y-14229000D02*
X123619500Y-12202600D01*
X123619500Y-12202600D02*
X64047200Y-12202600D01*
X64047200Y-12202600D02*
X62791600Y-13458200D01*
X34290000Y-87774700D02*
X34491000Y-87573700D01*
X34491000Y-87573700D02*
X34491000Y-81336300D01*
X34491000Y-81336300D02*
X38100000Y-77727300D01*
X38100000Y-77727300D02*
X38100000Y-73179500D01*
X38100000Y-73179500D02*
X45822500Y-65457000D01*
X45822500Y-65457000D02*
X45822500Y-35312900D01*
X45822500Y-35312900D02*
X55880000Y-25255400D01*
X55880000Y-25255400D02*
X55880000Y-24130000D01*
X34290000Y-88900000D02*
X34290000Y-87774700D01*
X130810000Y-44450000D02*
X129684700Y-44450000D01*
%TO.N,Rrd6*%
X85090000Y-44450000D02*
X78740000Y-50800000D01*
X78740000Y-50800000D02*
X78740000Y-53601400D01*
X78740000Y-53601400D02*
X69238900Y-63102500D01*
X69238900Y-63102500D02*
X69238900Y-64089900D01*
X69238900Y-64089900D02*
X67490900Y-65837900D01*
X67490900Y-65837900D02*
X66537600Y-65837900D01*
X85090000Y-44450000D02*
X85090000Y-43324700D01*
X63500000Y-23004700D02*
X69850000Y-16654700D01*
X69850000Y-16654700D02*
X69850000Y-14836900D01*
X69850000Y-14836900D02*
X71522900Y-13164000D01*
X71522900Y-13164000D02*
X85241100Y-13164000D01*
X85241100Y-13164000D02*
X90025400Y-17948300D01*
X90025400Y-17948300D02*
X90025400Y-38389300D01*
X90025400Y-38389300D02*
X85090000Y-43324700D01*
X63500000Y-24130000D02*
X63500000Y-23004700D01*
%TO.N,Rrd5*%
X60614300Y-42805500D02*
X60151900Y-42343100D01*
X60151900Y-42343100D02*
X60151900Y-36223400D01*
X60151900Y-36223400D02*
X63500000Y-32875300D01*
X63500000Y-31750000D02*
X63500000Y-32875300D01*
X29210000Y-95394700D02*
X25537400Y-91722100D01*
X25537400Y-91722100D02*
X25537400Y-56856000D01*
X25537400Y-56856000D02*
X25720800Y-56672600D01*
X25720800Y-56672600D02*
X25720800Y-55382800D01*
X25720800Y-55382800D02*
X25400000Y-55062000D01*
X25400000Y-55062000D02*
X25400000Y-15240000D01*
X29210000Y-96520000D02*
X29210000Y-95394700D01*
%TO.N,Rrd4*%
X55735400Y-46718800D02*
X56562100Y-46718800D01*
X56562100Y-46718800D02*
X57675700Y-47832400D01*
X55735400Y-46718800D02*
X55735400Y-40392800D01*
X55735400Y-40392800D02*
X53138000Y-37795400D01*
X53138000Y-37795400D02*
X53138000Y-35617300D01*
X53138000Y-35617300D02*
X55880000Y-32875300D01*
X34290000Y-95394700D02*
X35415300Y-94269400D01*
X35415300Y-94269400D02*
X35415300Y-81804000D01*
X35415300Y-81804000D02*
X40625100Y-76594200D01*
X40625100Y-76594200D02*
X40625100Y-76203400D01*
X40625100Y-76203400D02*
X50655400Y-66173100D01*
X50655400Y-66173100D02*
X50655400Y-51798800D01*
X50655400Y-51798800D02*
X55735400Y-46718800D01*
X34290000Y-96520000D02*
X34290000Y-95394700D01*
X55880000Y-31750000D02*
X55880000Y-32875300D01*
%TO.N,Rrd3*%
X71668700Y-62361000D02*
X73872700Y-62361000D01*
X73872700Y-62361000D02*
X83820000Y-52413700D01*
X83820000Y-52413700D02*
X83820000Y-51687700D01*
X83820000Y-51687700D02*
X85025800Y-50481900D01*
X85025800Y-50481900D02*
X92817900Y-50481900D01*
X92817900Y-50481900D02*
X94124700Y-51788700D01*
X94124700Y-51788700D02*
X94124700Y-52070000D01*
X66040000Y-88900000D02*
X66040000Y-81980600D01*
X66040000Y-81980600D02*
X71668700Y-76351900D01*
X71668700Y-76351900D02*
X71668700Y-62361000D01*
X95250000Y-52070000D02*
X94124700Y-52070000D01*
X26670000Y-24130000D02*
X26670000Y-23004700D01*
X30480000Y-15240000D02*
X30480000Y-19194700D01*
X30480000Y-19194700D02*
X26670000Y-23004700D01*
%TO.N,Rrd2*%
X34290000Y-25255300D02*
X33164700Y-26380600D01*
X33164700Y-26380600D02*
X33164700Y-32730700D01*
X33164700Y-32730700D02*
X31566700Y-34328700D01*
X31566700Y-34328700D02*
X31566700Y-49691000D01*
X66956100Y-62815100D02*
X65812300Y-63958900D01*
X65812300Y-63958900D02*
X65812300Y-67347800D01*
X65812300Y-67347800D02*
X65971300Y-67506800D01*
X65971300Y-67506800D02*
X65971300Y-77884900D01*
X65971300Y-77884900D02*
X60960000Y-82896200D01*
X60960000Y-82896200D02*
X60960000Y-87774700D01*
X60960000Y-88900000D02*
X60960000Y-87774700D01*
X34290000Y-24130000D02*
X34290000Y-25255300D01*
%TO.N,Rrd1*%
X49694700Y-34377400D02*
X49694700Y-37567700D01*
X49694700Y-37567700D02*
X53421700Y-41294700D01*
X53421700Y-41294700D02*
X53421700Y-47914700D01*
X53421700Y-47914700D02*
X53358900Y-47977500D01*
X60960000Y-95394700D02*
X62104700Y-95394700D01*
X62104700Y-95394700D02*
X67310000Y-90189400D01*
X67310000Y-90189400D02*
X67310000Y-83148400D01*
X67310000Y-83148400D02*
X85090000Y-65368400D01*
X85090000Y-65368400D02*
X85090000Y-53195300D01*
X60960000Y-96520000D02*
X60960000Y-95394700D01*
X85090000Y-52070000D02*
X85090000Y-53195300D01*
X34290000Y-30624700D02*
X35666500Y-29248200D01*
X35666500Y-29248200D02*
X35666500Y-22102300D01*
X35666500Y-22102300D02*
X39275400Y-18493400D01*
X39275400Y-18493400D02*
X39275400Y-14211500D01*
X39275400Y-14211500D02*
X39128500Y-14064600D01*
X39128500Y-14064600D02*
X37102700Y-14064600D01*
X37102700Y-14064600D02*
X36735300Y-14432000D01*
X36735300Y-14432000D02*
X36735300Y-15240000D01*
X34290000Y-31750000D02*
X34290000Y-30624700D01*
X35560000Y-15240000D02*
X36735300Y-15240000D01*
%TO.N,Rrd0*%
X64914700Y-96520000D02*
X64914700Y-96801400D01*
X64914700Y-96801400D02*
X64070800Y-97645300D01*
X64070800Y-97645300D02*
X57932300Y-97645300D01*
X57932300Y-97645300D02*
X57294000Y-97007000D01*
X57294000Y-97007000D02*
X57294000Y-94215400D01*
X57294000Y-94215400D02*
X62226500Y-89282900D01*
X62226500Y-89282900D02*
X62226500Y-83678900D01*
X62226500Y-83678900D02*
X68654800Y-77250600D01*
X68654800Y-77250600D02*
X68654800Y-65310900D01*
X68654800Y-65310900D02*
X69689200Y-64276500D01*
X69689200Y-64276500D02*
X69689200Y-63289100D01*
X69689200Y-63289100D02*
X79783000Y-53195300D01*
X79783000Y-53195300D02*
X80010000Y-53195300D01*
X26670000Y-32875300D02*
X30833300Y-37038600D01*
X30833300Y-37038600D02*
X30833300Y-47580000D01*
X80010000Y-50944700D02*
X80291300Y-50944700D01*
X80291300Y-50944700D02*
X86360000Y-44876000D01*
X86360000Y-44876000D02*
X86360000Y-44095100D01*
X86360000Y-44095100D02*
X90123700Y-40331400D01*
X66040000Y-96520000D02*
X64914700Y-96520000D01*
X80010000Y-52070000D02*
X80010000Y-53195300D01*
X80010000Y-51507300D02*
X80010000Y-52070000D01*
X80010000Y-51507300D02*
X80010000Y-50944700D01*
X26670000Y-31750000D02*
X26670000Y-30624700D01*
X38100000Y-15240000D02*
X38100000Y-16415300D01*
X38100000Y-16415300D02*
X33020000Y-21495300D01*
X33020000Y-21495300D02*
X33020000Y-24556000D01*
X33020000Y-24556000D02*
X26951300Y-30624700D01*
X26951300Y-30624700D02*
X26670000Y-30624700D01*
X26670000Y-31750000D02*
X26670000Y-32875300D01*
%TO.N,Rrs7*%
X26670000Y-68580000D02*
X26670000Y-56250400D01*
X26670000Y-56250400D02*
X32742300Y-50178100D01*
X32742300Y-50178100D02*
X32742300Y-49794300D01*
X32742300Y-49794300D02*
X35704600Y-46832000D01*
X35704600Y-46832000D02*
X35704600Y-41955900D01*
X35704600Y-41955900D02*
X36667000Y-40993500D01*
X58420000Y-24032400D02*
X58146700Y-24032400D01*
X58146700Y-24032400D02*
X47256300Y-34922800D01*
X66040000Y-15240000D02*
X66040000Y-16415300D01*
X66040000Y-16415300D02*
X66037100Y-16415300D01*
X66037100Y-16415300D02*
X58420000Y-24032400D01*
X58420000Y-24130000D02*
X58420000Y-24032400D01*
%TO.N,Rrs6*%
X34290000Y-68580000D02*
X34290000Y-61042600D01*
X34290000Y-61042600D02*
X38100000Y-57232600D01*
X38100000Y-57232600D02*
X38100000Y-49457900D01*
X66040000Y-24130000D02*
X59965600Y-30204400D01*
X59965600Y-30204400D02*
X58291200Y-30204400D01*
X58291200Y-30204400D02*
X57076100Y-31419500D01*
X57076100Y-31419500D02*
X57076100Y-34335900D01*
X57076100Y-34335900D02*
X53890300Y-37521700D01*
%TO.N,Rrs5*%
X61522700Y-31750000D02*
X61522700Y-33425500D01*
X61522700Y-33425500D02*
X59701500Y-35246700D01*
X59701500Y-35246700D02*
X59701500Y-47837400D01*
X59701500Y-47837400D02*
X55880000Y-51658900D01*
X55880000Y-51658900D02*
X55880000Y-53629300D01*
X55880000Y-53629300D02*
X52450000Y-57059300D01*
X52450000Y-57059300D02*
X52450000Y-65087600D01*
X52450000Y-65087600D02*
X42486600Y-75051000D01*
X42486600Y-75051000D02*
X42486600Y-77640000D01*
X61522700Y-31750000D02*
X62085300Y-31750000D01*
X60960000Y-31750000D02*
X61522700Y-31750000D01*
X71120000Y-15240000D02*
X72295300Y-15240000D01*
X72295300Y-15240000D02*
X72295300Y-14872700D01*
X72295300Y-14872700D02*
X73111100Y-14056900D01*
X73111100Y-14056900D02*
X74213600Y-14056900D01*
X74213600Y-14056900D02*
X74840400Y-14683700D01*
X74840400Y-14683700D02*
X74840400Y-19504100D01*
X74840400Y-19504100D02*
X63719800Y-30624700D01*
X63719800Y-30624700D02*
X62929200Y-30624700D01*
X62929200Y-30624700D02*
X62085300Y-31468600D01*
X62085300Y-31468600D02*
X62085300Y-31750000D01*
%TO.N,Rrs4*%
X53340000Y-32875300D02*
X51717200Y-34498100D01*
X51717200Y-34498100D02*
X51717200Y-35553600D01*
X26670000Y-76200000D02*
X26670000Y-70626400D01*
X26670000Y-70626400D02*
X27940000Y-69356400D01*
X27940000Y-69356400D02*
X27940000Y-55733400D01*
X27940000Y-55733400D02*
X36080800Y-47592600D01*
X53340000Y-31750000D02*
X54465300Y-31750000D01*
X73660000Y-15240000D02*
X73264500Y-15240000D01*
X73264500Y-15240000D02*
X64770000Y-23734500D01*
X64770000Y-23734500D02*
X64770000Y-24495800D01*
X64770000Y-24495800D02*
X63290100Y-25975700D01*
X63290100Y-25975700D02*
X59958300Y-25975700D01*
X59958300Y-25975700D02*
X54465300Y-31468700D01*
X54465300Y-31468700D02*
X54465300Y-31750000D01*
X53340000Y-31750000D02*
X53340000Y-32875300D01*
%TO.N,Rrs3*%
X57150000Y-67454700D02*
X57150000Y-63849600D01*
X57150000Y-63849600D02*
X62664100Y-58335500D01*
X62664100Y-58335500D02*
X62664100Y-44472200D01*
X62664100Y-44472200D02*
X63114300Y-44022000D01*
X63114300Y-44022000D02*
X63114300Y-42213800D01*
X63114300Y-42213800D02*
X76200000Y-29128100D01*
X76200000Y-29128100D02*
X76200000Y-15240000D01*
X57150000Y-68580000D02*
X57150000Y-67454700D01*
%TO.N,Rrs2*%
X42695300Y-23004700D02*
X38799200Y-23004700D01*
X38799200Y-23004700D02*
X37955300Y-23848600D01*
X37955300Y-23848600D02*
X37955300Y-24130000D01*
X36830000Y-24130000D02*
X37955300Y-24130000D01*
X79915300Y-15240000D02*
X79915300Y-14872700D01*
X79915300Y-14872700D02*
X81173700Y-13614300D01*
X81173700Y-13614300D02*
X85035100Y-13614300D01*
X85035100Y-13614300D02*
X85445700Y-14024900D01*
X85445700Y-14024900D02*
X85445700Y-25835300D01*
X85445700Y-25835300D02*
X64770000Y-46511000D01*
X64770000Y-46511000D02*
X64770000Y-67454700D01*
X64770000Y-68580000D02*
X64770000Y-67454700D01*
X78740000Y-15240000D02*
X79915300Y-15240000D01*
%TO.N,Rrs1*%
X64770000Y-75074700D02*
X63644700Y-73949400D01*
X63644700Y-73949400D02*
X63644700Y-47439400D01*
X63644700Y-47439400D02*
X64222900Y-46861200D01*
X64222900Y-46861200D02*
X64222900Y-43245600D01*
X64222900Y-43245600D02*
X84995300Y-22473200D01*
X84995300Y-22473200D02*
X84995300Y-14211400D01*
X84995300Y-14211400D02*
X84848500Y-14064600D01*
X84848500Y-14064600D02*
X82822700Y-14064600D01*
X82822700Y-14064600D02*
X82455300Y-14432000D01*
X82455300Y-14432000D02*
X82455300Y-15240000D01*
X64770000Y-76200000D02*
X64770000Y-75074700D01*
X81280000Y-15240000D02*
X82455300Y-15240000D01*
%TO.N,Rrs0*%
X58151200Y-63877400D02*
X58290600Y-64016800D01*
X58290600Y-64016800D02*
X58290600Y-73934100D01*
X58290600Y-73934100D02*
X57150000Y-75074700D01*
X83820000Y-15240000D02*
X83820000Y-22181000D01*
X83820000Y-22181000D02*
X63772600Y-42228400D01*
X63772600Y-42228400D02*
X63772600Y-46674600D01*
X63772600Y-46674600D02*
X63194300Y-47252900D01*
X63194300Y-47252900D02*
X63194300Y-58834300D01*
X63194300Y-58834300D02*
X58151200Y-63877400D01*
X24130000Y-31750000D02*
X24130000Y-32875300D01*
X24964300Y-55652100D02*
X24923700Y-55611500D01*
X24923700Y-55611500D02*
X24923700Y-33669000D01*
X24923700Y-33669000D02*
X24130000Y-32875300D01*
X57150000Y-76200000D02*
X57150000Y-75074700D01*
%TO.N,imm3*%
X99060000Y-31750000D02*
X100185300Y-31750000D01*
X116840000Y-15240000D02*
X118034500Y-14045500D01*
X118034500Y-14045500D02*
X119848600Y-14045500D01*
X119848600Y-14045500D02*
X120599900Y-14796800D01*
X120599900Y-14796800D02*
X120599900Y-16916600D01*
X120599900Y-16916600D02*
X110839700Y-26676800D01*
X110839700Y-26676800D02*
X110150200Y-26676800D01*
X110150200Y-26676800D02*
X105410000Y-31417000D01*
X105410000Y-31417000D02*
X105410000Y-32079500D01*
X105410000Y-32079500D02*
X104614200Y-32875300D01*
X104614200Y-32875300D02*
X101029200Y-32875300D01*
X101029200Y-32875300D02*
X100185300Y-32031400D01*
X100185300Y-32031400D02*
X100185300Y-31750000D01*
%TO.N,imm2*%
X96520000Y-31750000D02*
X97645300Y-31750000D01*
X119380000Y-15240000D02*
X118204700Y-15240000D01*
X118204700Y-15240000D02*
X118204700Y-16004500D01*
X118204700Y-16004500D02*
X110484400Y-23724800D01*
X110484400Y-23724800D02*
X110484400Y-24467600D01*
X110484400Y-24467600D02*
X104327300Y-30624700D01*
X104327300Y-30624700D02*
X98489200Y-30624700D01*
X98489200Y-30624700D02*
X97645300Y-31468600D01*
X97645300Y-31468600D02*
X97645300Y-31750000D01*
%TO.N,sliwb*%
X55880000Y-104384700D02*
X55880000Y-99044400D01*
X55880000Y-99044400D02*
X54733700Y-97898100D01*
X54733700Y-97898100D02*
X54733700Y-79353200D01*
X54733700Y-79353200D02*
X55880000Y-78206900D01*
X55880000Y-78206900D02*
X55880000Y-64405900D01*
X55880000Y-64405900D02*
X62090600Y-58195300D01*
X62090600Y-58195300D02*
X62090600Y-44408600D01*
X62090600Y-44408600D02*
X62439000Y-44060200D01*
X62439000Y-44060200D02*
X62439000Y-41863300D01*
X62439000Y-41863300D02*
X74322300Y-29980000D01*
X55880000Y-105410000D02*
X55880000Y-106435300D01*
X54610000Y-116840000D02*
X54610000Y-107705300D01*
X54610000Y-107705300D02*
X55880000Y-106435300D01*
X66190000Y-116840000D02*
X68490900Y-119140900D01*
X68490900Y-119140900D02*
X68490900Y-125885400D01*
X68490900Y-125885400D02*
X70771800Y-128166300D01*
X70771800Y-128166300D02*
X70771800Y-137210000D01*
X55880000Y-105410000D02*
X55880000Y-104384700D01*
%TO.N,nandwb*%
X73754700Y-143510000D02*
X73754700Y-143877300D01*
X73754700Y-143877300D02*
X72946600Y-144685400D01*
X72946600Y-144685400D02*
X66321100Y-144685400D01*
X66321100Y-144685400D02*
X61552200Y-139916500D01*
X61552200Y-139916500D02*
X61552200Y-132168300D01*
X61552200Y-132168300D02*
X60143900Y-130760000D01*
X60143900Y-130760000D02*
X59452500Y-130760000D01*
X59452500Y-130760000D02*
X55848900Y-127156400D01*
X55848900Y-127156400D02*
X55848900Y-125017700D01*
X55848900Y-125017700D02*
X47671200Y-116840000D01*
X47671200Y-116840000D02*
X44600000Y-116840000D01*
X36830000Y-44450000D02*
X36830000Y-45575300D01*
X28041400Y-85675300D02*
X28041400Y-75278900D01*
X28041400Y-75278900D02*
X30480000Y-72840300D01*
X30480000Y-72840300D02*
X30480000Y-59731700D01*
X30480000Y-59731700D02*
X35415400Y-54796300D01*
X35415400Y-54796300D02*
X35415400Y-50085800D01*
X35415400Y-50085800D02*
X36830000Y-48671200D01*
X36830000Y-48671200D02*
X36830000Y-45575300D01*
X74930000Y-143510000D02*
X73754700Y-143510000D01*
%TO.N,addwb*%
X72390000Y-143510000D02*
X85231400Y-130668600D01*
X85231400Y-130668600D02*
X86681500Y-130668600D01*
X86681500Y-130668600D02*
X101600000Y-115750100D01*
X101600000Y-115750100D02*
X101600000Y-115570000D01*
X92710000Y-90025300D02*
X93835300Y-91150600D01*
X93835300Y-91150600D02*
X93835300Y-102845900D01*
X101600000Y-115570000D02*
X101600000Y-108975300D01*
X101600000Y-108975300D02*
X104140000Y-106435300D01*
X104140000Y-105410000D02*
X104140000Y-106435300D01*
X92710000Y-88900000D02*
X92710000Y-90025300D01*
%TO.N,incdec*%
X54610000Y-76200000D02*
X54610000Y-77325300D01*
X54892100Y-100242500D02*
X54246400Y-99596800D01*
X54246400Y-99596800D02*
X54246400Y-77688900D01*
X54246400Y-77688900D02*
X54610000Y-77325300D01*
X74930000Y-105410000D02*
X74930000Y-106435300D01*
X69850000Y-143510000D02*
X69850000Y-142334700D01*
X69850000Y-142334700D02*
X73904700Y-138280000D01*
X73904700Y-138280000D02*
X73904700Y-107460600D01*
X73904700Y-107460600D02*
X74930000Y-106435300D01*
X62230000Y-76200000D02*
X62230000Y-75074700D01*
X59690000Y-68580000D02*
X59690000Y-72534700D01*
X59690000Y-72534700D02*
X62230000Y-75074700D01*
X36830000Y-68580000D02*
X36830000Y-69705300D01*
X36830000Y-69705300D02*
X31750000Y-74785300D01*
X31750000Y-74785300D02*
X31750000Y-76200000D01*
%TO.N,addsub*%
X72180800Y-102096800D02*
X72180800Y-137463900D01*
X72180800Y-137463900D02*
X67310000Y-142334700D01*
X95250000Y-76200000D02*
X95250000Y-75074700D01*
X95250000Y-75074700D02*
X92710000Y-72534700D01*
X92710000Y-72534700D02*
X92710000Y-68580000D01*
X72180800Y-102096800D02*
X72180800Y-98706100D01*
X72180800Y-98706100D02*
X71120000Y-97645300D01*
X72180800Y-102096800D02*
X80751500Y-102096800D01*
X80751500Y-102096800D02*
X89144700Y-110490000D01*
X87630000Y-76200000D02*
X87630000Y-95218300D01*
X87630000Y-95218300D02*
X80751500Y-102096800D01*
X71120000Y-96520000D02*
X71120000Y-97645300D01*
X67310000Y-143510000D02*
X67310000Y-142334700D01*
X90170000Y-110490000D02*
X89144700Y-110490000D01*
X124460000Y-76200000D02*
X124460000Y-68580000D01*
%TO.N,Net-(U1-Pad6)*%
X37955300Y-31750000D02*
X37955300Y-31468600D01*
X37955300Y-31468600D02*
X38799200Y-30624700D01*
X38799200Y-30624700D02*
X39847700Y-30624700D01*
X39847700Y-30624700D02*
X40506100Y-31283100D01*
X40506100Y-31283100D02*
X40506100Y-47654900D01*
X40506100Y-47654900D02*
X39370000Y-48791000D01*
X39370000Y-48791000D02*
X39370000Y-50944700D01*
X36830000Y-31750000D02*
X37955300Y-31750000D01*
X39370000Y-52070000D02*
X39370000Y-50944700D01*
%TO.N,Net-(U1-Pad8)*%
X39370000Y-24130000D02*
X39370000Y-25255300D01*
X41910000Y-52070000D02*
X41910000Y-47139100D01*
X41910000Y-47139100D02*
X43049300Y-45999800D01*
X43049300Y-45999800D02*
X43049300Y-28934600D01*
X43049300Y-28934600D02*
X39370000Y-25255300D01*
%TO.N,Net-(U2-Pad6)*%
X49530000Y-50944700D02*
X50825700Y-49649000D01*
X50825700Y-49649000D02*
X50825700Y-40686900D01*
X49530000Y-52070000D02*
X49530000Y-50944700D01*
%TO.N,Net-(U2-Pad11)*%
X49881600Y-48138900D02*
X48366500Y-46623800D01*
X48366500Y-46623800D02*
X48366500Y-34608900D01*
X48366500Y-34608900D02*
X57533500Y-25441900D01*
X57533500Y-25441900D02*
X58804300Y-25441900D01*
X58804300Y-25441900D02*
X59834700Y-24411500D01*
X59834700Y-24411500D02*
X59834700Y-24130000D01*
X60960000Y-24130000D02*
X59834700Y-24130000D01*
%TO.N,Net-(U2-Pad3)*%
X56125500Y-37522500D02*
X58420000Y-35228000D01*
X58420000Y-35228000D02*
X58420000Y-31750000D01*
%TO.N,Net-(U2-Pad8)*%
X53195300Y-52070000D02*
X53195300Y-51892100D01*
X53195300Y-51892100D02*
X56529700Y-48557700D01*
X56529700Y-48557700D02*
X57976200Y-48557700D01*
X57976200Y-48557700D02*
X59111200Y-47422700D01*
X59111200Y-47422700D02*
X59111200Y-34386500D01*
X59111200Y-34386500D02*
X59690000Y-33807700D01*
X59690000Y-33807700D02*
X59690000Y-31355600D01*
X59690000Y-31355600D02*
X65790300Y-25255300D01*
X65790300Y-25255300D02*
X66610800Y-25255300D01*
X66610800Y-25255300D02*
X67454700Y-24411400D01*
X67454700Y-24411400D02*
X67454700Y-24130000D01*
X52070000Y-52070000D02*
X53195300Y-52070000D01*
X68580000Y-24130000D02*
X67454700Y-24130000D01*
%TO.N,Net-(U5-Pad9)*%
X40495300Y-88900000D02*
X40495300Y-89181300D01*
X40495300Y-89181300D02*
X43529400Y-92215400D01*
X43529400Y-92215400D02*
X45584200Y-92215400D01*
X39370000Y-88900000D02*
X40495300Y-88900000D01*
%TO.N,Net-(U5-Pad5)*%
X71120000Y-88900000D02*
X72245300Y-88900000D01*
X72245300Y-88900000D02*
X72245300Y-89181400D01*
X72245300Y-89181400D02*
X73089200Y-90025300D01*
X73089200Y-90025300D02*
X79635600Y-90025300D01*
X79635600Y-90025300D02*
X82405500Y-92795200D01*
%TO.N,Net-(U5-Pad4)*%
X63500000Y-90025300D02*
X63249400Y-90275900D01*
X63249400Y-90275900D02*
X63249400Y-92432300D01*
X63500000Y-88900000D02*
X63500000Y-90025300D01*
%TO.N,Net-(U6-Pad15)*%
X26670000Y-90025300D02*
X26923400Y-90025300D01*
X26923400Y-90025300D02*
X28564600Y-91666500D01*
X26670000Y-88900000D02*
X26670000Y-90025300D01*
%TO.N,Net-(U7-Pad6)*%
X69705300Y-96520000D02*
X69705300Y-96238700D01*
X69705300Y-96238700D02*
X74322900Y-91621100D01*
X74322900Y-91621100D02*
X76653500Y-91621100D01*
X68580000Y-96520000D02*
X69705300Y-96520000D01*
%TO.N,Net-(U7-Pad2)*%
X59545300Y-96520000D02*
X59545300Y-96098000D01*
X59545300Y-96098000D02*
X61512700Y-94130600D01*
X61512700Y-94130600D02*
X62576900Y-94130600D01*
X62576900Y-94130600D02*
X65024100Y-91683400D01*
X65024100Y-91683400D02*
X65024100Y-91427300D01*
X58420000Y-96520000D02*
X59545300Y-96520000D01*
%TO.N,Net-(U10-Pad11)*%
X90170000Y-68580000D02*
X90170000Y-66381200D01*
X90170000Y-66381200D02*
X88316900Y-64528100D01*
%TO.N,Net-(U10-Pad6)*%
X36830000Y-77325300D02*
X33726200Y-80429100D01*
X33726200Y-80429100D02*
X33726200Y-86923800D01*
X36830000Y-76200000D02*
X36830000Y-77325300D01*
%TO.N,Net-(U10-Pad8)*%
X97790000Y-67454700D02*
X97270600Y-66935300D01*
X97270600Y-66935300D02*
X97270600Y-65339300D01*
X97790000Y-68580000D02*
X97790000Y-67454700D01*
%TO.N,Net-(U10-Pad3)*%
X30343700Y-91668700D02*
X28081000Y-89406000D01*
X28081000Y-89406000D02*
X28081000Y-86947000D01*
X28081000Y-86947000D02*
X29210000Y-85818000D01*
X29210000Y-85818000D02*
X29210000Y-76200000D01*
%TO.N,Net-(U11-Pad6)*%
X129540000Y-75074700D02*
X126333800Y-71868500D01*
X126333800Y-71868500D02*
X126333800Y-71476200D01*
X129540000Y-76200000D02*
X129540000Y-75074700D01*
%TO.N,Net-(U11-Pad3)*%
X121920000Y-75074700D02*
X121621300Y-74776000D01*
X121621300Y-74776000D02*
X121621300Y-72730400D01*
X121920000Y-76200000D02*
X121920000Y-75074700D01*
X59690000Y-76200000D02*
X60815300Y-76200000D01*
X63495900Y-79116000D02*
X60815300Y-76435400D01*
X60815300Y-76435400D02*
X60815300Y-76200000D01*
%TO.N,Net-(D11-Pad1)*%
X113030000Y-134620000D02*
X113030000Y-133394700D01*
X113030000Y-133394700D02*
X112570500Y-133394700D01*
X112570500Y-133394700D02*
X110490000Y-131314200D01*
X110490000Y-131314200D02*
X110490000Y-127000000D01*
%TO.N,Net-(D12-Pad1)*%
X104140000Y-134620000D02*
X104140000Y-133394700D01*
X104140000Y-133394700D02*
X103680500Y-133394700D01*
X103680500Y-133394700D02*
X101600000Y-131314200D01*
X101600000Y-131314200D02*
X101600000Y-127000000D01*
%TO.N,Net-(D13-Pad1)*%
X95250000Y-134620000D02*
X95250000Y-133394700D01*
X95250000Y-133394700D02*
X94790500Y-133394700D01*
X94790500Y-133394700D02*
X92710000Y-131314200D01*
X92710000Y-131314200D02*
X92710000Y-127000000D01*
%TO.N,Net-(D14-Pad1)*%
X83820000Y-127000000D02*
X83094900Y-127725100D01*
X83094900Y-127725100D02*
X83094900Y-131271900D01*
%TO.N,Net-(D15-Pad1)*%
X77470000Y-134620000D02*
X77470000Y-133394700D01*
X77470000Y-133394700D02*
X77010500Y-133394700D01*
X77010500Y-133394700D02*
X74930000Y-131314200D01*
X74930000Y-131314200D02*
X74930000Y-127000000D01*
%TO.N,Net-(D16-Pad1)*%
X68580000Y-134620000D02*
X68580000Y-133394700D01*
X68580000Y-133394700D02*
X68120500Y-133394700D01*
X68120500Y-133394700D02*
X66040000Y-131314200D01*
X66040000Y-131314200D02*
X66040000Y-127000000D01*
%TO.N,Net-(D17-Pad1)*%
X57150000Y-127000000D02*
X59962100Y-127000000D01*
X59962100Y-127000000D02*
X63449400Y-130487300D01*
%TO.N,Net-(D18-Pad1)*%
X50800000Y-134620000D02*
X50800000Y-133394700D01*
X50800000Y-133394700D02*
X50340500Y-133394700D01*
X50340500Y-133394700D02*
X48260000Y-131314200D01*
X48260000Y-131314200D02*
X48260000Y-127000000D01*
%TD*%
M02*
