M48
; DRILL file {KiCad 5.1.6-c6e7f7d~87~ubuntu16.04.1} date Tue Mar  8 12:51:23 2022
; FORMAT={-:-/ absolute / metric / decimal}
; #@! TF.CreationDate,2022-03-08T12:51:23-05:00
; #@! TF.GenerationSoftware,Kicad,Pcbnew,5.1.6-c6e7f7d~87~ubuntu16.04.1
FMAT,2
METRIC
T1C0.400
T2C0.800
T3C0.900
T4C1.000
T5C2.700
%
G90
G05
T1
X9.517Y-42.659
X14.723Y-84.564
X24.139Y-38.343
X25.158Y-48.54
X25.953Y-70.576
X26.904Y-71.829
X36.336Y-87.523
X38.243Y-72.585
X40.75Y-16.059
X41.814Y-57.972
X42.04Y-89.867
X42.052Y-78.978
X48.52Y-93.409
X49.766Y-103.859
X50.121Y-86.308
X52.884Y-108.699
X57.819Y-75.102
X62.246Y-59.948
X65.068Y-73.897
X65.103Y-41.863
X67.705Y-62.742
X69.757Y-98.605
X69.813Y-16.204
X71.311Y-31.64
X72.483Y-89.009
X74.423Y-67.569
X75.152Y-80.615
X90.161Y-67.895
X93.375Y-60.151
X94.229Y-68.728
X96.405Y-74.634
X97.247Y-48.965
X98.632Y-74.558
X99.84Y-69.615
X100.998Y-76.54
X101.478Y-47.148
X101.841Y-39.43
X102.498Y-34.969
X103.272Y-83.575
X105.779Y-26.691
X105.797Y-25.637
X106.261Y-24.147
X106.316Y-37.733
X111.106Y-69.225
X114.399Y-117.061
X114.55Y-91.607
X116.188Y-60.096
X116.233Y-119.235
X116.844Y-43.049
X117.343Y-68.33
X118.275Y-92.384
X119.474Y-66.813
X121.241Y-70.124
X121.307Y-71.829
X122.884Y-90.85
X125.953Y-74.558
X128.186Y-55.982
X131.877Y-44.348
X132.616Y-45.913
X133.125Y-64.77
X134.512Y-40.009
X135.026Y-72.585
X138.781Y-35.226
X142.027Y-56.025
X144.196Y-68.437
X144.305Y-32.158
X148.222Y-41.587
X149.989Y-86.758
X151.773Y-19.662
X153.011Y-80.294
X153.29Y-39.626
X154.082Y-38.848
X155.126Y-67.582
X158.329Y-32.883
X160.509Y-62.654
X163.691Y-31.242
X164.215Y-76.531
X184.017Y-66.967
X184.762Y-52.798
T2
X83.82Y-5.08
X83.82Y-20.32
X86.36Y-5.08
X86.36Y-20.32
X88.9Y-5.08
X88.9Y-20.32
X91.44Y-5.08
X91.44Y-20.32
X93.98Y-5.08
X93.98Y-20.32
X96.52Y-5.08
X96.52Y-20.32
X99.06Y-5.08
X99.06Y-20.32
X101.6Y-5.08
X101.6Y-20.32
X104.14Y-5.08
X104.14Y-20.32
X106.68Y-5.08
X106.68Y-20.32
X109.22Y-5.08
X109.22Y-20.32
X111.76Y-5.08
X111.76Y-20.32
X82.55Y-36.83
X82.55Y-44.45
X85.09Y-36.83
X85.09Y-44.45
X87.63Y-36.83
X87.63Y-44.45
X90.17Y-36.83
X90.17Y-44.45
X92.71Y-36.83
X92.71Y-44.45
X95.25Y-36.83
X95.25Y-44.45
X97.79Y-36.83
X97.79Y-44.45
X167.64Y-36.83
X167.64Y-44.45
X170.18Y-36.83
X170.18Y-44.45
X172.72Y-36.83
X172.72Y-44.45
X175.26Y-36.83
X175.26Y-44.45
X177.8Y-36.83
X177.8Y-44.45
X180.34Y-36.83
X180.34Y-44.45
X182.88Y-36.83
X182.88Y-44.45
X137.16Y-58.42
X137.16Y-60.92
X140.97Y-57.15
X140.97Y-64.77
X143.51Y-57.15
X143.51Y-64.77
X146.05Y-57.15
X146.05Y-64.77
X148.59Y-57.15
X148.59Y-64.77
X151.13Y-57.15
X151.13Y-64.77
X153.67Y-57.15
X153.67Y-64.77
X156.21Y-57.15
X156.21Y-64.77
X25.4Y-17.78
X25.4Y-25.4
X27.94Y-17.78
X27.94Y-25.4
X30.48Y-17.78
X30.48Y-25.4
X33.02Y-17.78
X33.02Y-25.4
X35.56Y-17.78
X35.56Y-25.4
X38.1Y-17.78
X38.1Y-25.4
X40.64Y-17.78
X40.64Y-25.4
X43.18Y-17.78
X43.18Y-25.4
X163.83Y-38.1
X163.83Y-40.6
X21.22Y-57.69
X21.22Y-60.19
X147.32Y-11.47
X147.32Y-13.97
X92.71Y-118.11
X95.25Y-118.11
X97.79Y-118.11
X100.33Y-118.11
X102.87Y-118.11
X105.41Y-118.11
X107.95Y-118.11
X110.49Y-118.11
X113.03Y-118.11
X78.74Y-58.42
X78.74Y-60.92
X50.8Y-78.74
X50.8Y-81.24
X78.74Y-38.1
X78.74Y-40.6
X50.8Y-38.1
X50.8Y-40.6
X163.83Y-78.74
X163.83Y-81.24
X176.53Y-11.43
X176.53Y-13.93
X25.4Y-57.15
X25.4Y-64.77
X27.94Y-57.15
X27.94Y-64.77
X30.48Y-57.15
X30.48Y-64.77
X33.02Y-57.15
X33.02Y-64.77
X35.56Y-57.15
X35.56Y-64.77
X38.1Y-57.15
X38.1Y-64.77
X40.64Y-57.15
X40.64Y-64.77
X119.38Y-11.43
X119.38Y-13.93
X137.16Y-38.1
X137.16Y-40.6
X163.83Y-58.42
X163.83Y-60.92
X143.51Y-118.11
X146.05Y-118.11
X148.59Y-118.11
X151.13Y-118.11
X153.67Y-118.11
X156.21Y-118.11
X158.75Y-118.11
X161.29Y-118.11
X163.83Y-118.11
X107.95Y-78.74
X107.95Y-81.24
X80.01Y-6.35
X80.01Y-8.85
X54.61Y-57.15
X54.61Y-64.77
X57.15Y-57.15
X57.15Y-64.77
X59.69Y-57.15
X59.69Y-64.77
X62.23Y-57.15
X62.23Y-64.77
X64.77Y-57.15
X64.77Y-64.77
X67.31Y-57.15
X67.31Y-64.77
X69.85Y-57.15
X69.85Y-64.77
X54.61Y-77.47
X54.61Y-85.09
X57.15Y-77.47
X57.15Y-85.09
X59.69Y-77.47
X59.69Y-85.09
X62.23Y-77.47
X62.23Y-85.09
X64.77Y-77.47
X64.77Y-85.09
X67.31Y-77.47
X67.31Y-85.09
X69.85Y-77.47
X69.85Y-85.09
X55.88Y-17.78
X55.88Y-25.4
X58.42Y-17.78
X58.42Y-25.4
X60.96Y-17.78
X60.96Y-25.4
X63.5Y-17.78
X63.5Y-25.4
X66.04Y-17.78
X66.04Y-25.4
X68.58Y-17.78
X68.58Y-25.4
X71.12Y-17.78
X71.12Y-25.4
X73.66Y-17.78
X73.66Y-25.4
X67.31Y-118.11
X69.85Y-118.11
X72.39Y-118.11
X74.93Y-118.11
X77.47Y-118.11
X80.01Y-118.11
X82.55Y-118.11
X85.09Y-118.11
X87.63Y-118.11
X118.11Y-118.11
X120.65Y-118.11
X123.19Y-118.11
X125.73Y-118.11
X128.27Y-118.11
X130.81Y-118.11
X133.35Y-118.11
X135.89Y-118.11
X138.43Y-118.11
X54.61Y-36.83
X54.61Y-44.45
X57.15Y-36.83
X57.15Y-44.45
X59.69Y-36.83
X59.69Y-44.45
X62.23Y-36.83
X62.23Y-44.45
X64.77Y-36.83
X64.77Y-44.45
X67.31Y-36.83
X67.31Y-44.45
X69.85Y-36.83
X69.85Y-44.45
X82.55Y-57.15
X82.55Y-64.77
X85.09Y-57.15
X85.09Y-64.77
X87.63Y-57.15
X87.63Y-64.77
X90.17Y-57.15
X90.17Y-64.77
X92.71Y-57.15
X92.71Y-64.77
X95.25Y-57.15
X95.25Y-64.77
X97.79Y-57.15
X97.79Y-64.77
X52.07Y-17.78
X52.07Y-20.28
X123.19Y-10.16
X123.19Y-17.78
X125.73Y-10.16
X125.73Y-17.78
X128.27Y-10.16
X128.27Y-17.78
X130.81Y-10.16
X130.81Y-17.78
X133.35Y-10.16
X133.35Y-17.78
X135.89Y-10.16
X135.89Y-17.78
X138.43Y-10.16
X138.43Y-17.78
X140.97Y-10.16
X140.97Y-17.78
X25.4Y-77.47
X25.4Y-85.09
X27.94Y-77.47
X27.94Y-85.09
X30.48Y-77.47
X30.48Y-85.09
X33.02Y-77.47
X33.02Y-85.09
X35.56Y-77.47
X35.56Y-85.09
X38.1Y-77.47
X38.1Y-85.09
X40.64Y-77.47
X40.64Y-85.09
X180.34Y-10.16
X180.34Y-17.78
X182.88Y-10.16
X182.88Y-17.78
X185.42Y-10.16
X185.42Y-17.78
X187.96Y-10.16
X187.96Y-17.78
X190.5Y-10.16
X190.5Y-17.78
X193.04Y-10.16
X193.04Y-17.78
X195.58Y-10.16
X195.58Y-17.78
X107.95Y-58.42
X107.95Y-60.92
X107.95Y-38.1
X107.95Y-40.6
X167.64Y-57.15
X167.64Y-64.77
X170.18Y-57.15
X170.18Y-64.77
X172.72Y-57.15
X172.72Y-64.77
X175.26Y-57.15
X175.26Y-64.77
X177.8Y-57.15
X177.8Y-64.77
X180.34Y-57.15
X180.34Y-64.77
X182.88Y-57.15
X182.88Y-64.77
X167.64Y-77.47
X167.64Y-85.09
X170.18Y-77.47
X170.18Y-85.09
X172.72Y-77.47
X172.72Y-85.09
X175.26Y-77.47
X175.26Y-85.09
X177.8Y-77.47
X177.8Y-85.09
X180.34Y-77.47
X180.34Y-85.09
X182.88Y-77.47
X182.88Y-85.09
X111.76Y-57.15
X111.76Y-64.77
X114.3Y-57.15
X114.3Y-64.77
X116.84Y-57.15
X116.84Y-64.77
X119.38Y-57.15
X119.38Y-64.77
X121.92Y-57.15
X121.92Y-64.77
X124.46Y-57.15
X124.46Y-64.77
X127.0Y-57.15
X127.0Y-64.77
X50.8Y-58.46
X50.8Y-60.96
X111.76Y-77.47
X111.76Y-85.09
X114.3Y-77.47
X114.3Y-85.09
X116.84Y-77.47
X116.84Y-85.09
X119.38Y-77.47
X119.38Y-85.09
X121.92Y-77.47
X121.92Y-85.09
X124.46Y-77.47
X124.46Y-85.09
X127.0Y-77.47
X127.0Y-85.09
X21.59Y-78.74
X21.59Y-81.24
X21.59Y-38.1
X21.59Y-40.6
X137.16Y-78.74
X137.16Y-81.24
X82.55Y-77.47
X82.55Y-85.09
X85.09Y-77.47
X85.09Y-85.09
X87.63Y-77.47
X87.63Y-85.09
X90.17Y-77.47
X90.17Y-85.09
X92.71Y-77.47
X92.71Y-85.09
X95.25Y-77.47
X95.25Y-85.09
X97.79Y-77.47
X97.79Y-85.09
X21.59Y-17.78
X21.59Y-20.28
X140.97Y-36.83
X140.97Y-44.45
X143.51Y-36.83
X143.51Y-44.45
X146.05Y-36.83
X146.05Y-44.45
X148.59Y-36.83
X148.59Y-44.45
X151.13Y-36.83
X151.13Y-44.45
X153.67Y-36.83
X153.67Y-44.45
X156.21Y-36.83
X156.21Y-44.45
X151.13Y-10.16
X151.13Y-17.78
X153.67Y-10.16
X153.67Y-17.78
X156.21Y-10.16
X156.21Y-17.78
X158.75Y-10.16
X158.75Y-17.78
X161.29Y-10.16
X161.29Y-17.78
X163.83Y-10.16
X163.83Y-17.78
X166.37Y-10.16
X166.37Y-17.78
X168.91Y-10.16
X168.91Y-17.78
X25.4Y-36.83
X25.4Y-44.45
X27.94Y-36.83
X27.94Y-44.45
X30.48Y-36.83
X30.48Y-44.45
X33.02Y-36.83
X33.02Y-44.45
X35.56Y-36.83
X35.56Y-44.45
X38.1Y-36.83
X38.1Y-44.45
X40.64Y-36.83
X40.64Y-44.45
X111.76Y-36.83
X111.76Y-44.45
X114.3Y-36.83
X114.3Y-44.45
X116.84Y-36.83
X116.84Y-44.45
X119.38Y-36.83
X119.38Y-44.45
X121.92Y-36.83
X121.92Y-44.45
X124.46Y-36.83
X124.46Y-44.45
X127.0Y-36.83
X127.0Y-44.45
X140.97Y-77.47
X140.97Y-85.09
X143.51Y-77.47
X143.51Y-85.09
X146.05Y-77.47
X146.05Y-85.09
X148.59Y-77.47
X148.59Y-85.09
X151.13Y-77.47
X151.13Y-85.09
X153.67Y-77.47
X153.67Y-85.09
X156.21Y-77.47
X156.21Y-85.09
X78.74Y-78.74
X78.74Y-81.24
T3
X173.99Y-100.33
X173.99Y-102.87
X71.12Y-100.33
X71.12Y-102.87
X101.6Y-124.46
X101.6Y-127.0
X154.94Y-124.46
X154.94Y-127.0
X48.26Y-100.33
X48.26Y-102.87
X40.64Y-100.33
X40.64Y-102.87
X48.26Y-124.46
X48.26Y-127.0
X93.98Y-124.46
X93.98Y-127.0
X162.56Y-100.33
X162.56Y-102.87
X40.64Y-124.46
X40.64Y-127.0
X151.13Y-100.33
X151.13Y-102.87
X124.46Y-124.46
X124.46Y-127.0
X33.02Y-124.46
X33.02Y-127.0
X116.84Y-124.46
X116.84Y-127.0
X55.88Y-124.46
X55.88Y-127.0
X33.02Y-100.33
X33.02Y-102.87
X25.4Y-124.46
X25.4Y-127.0
X162.56Y-124.46
X162.56Y-127.0
X86.36Y-124.46
X86.36Y-127.0
X78.74Y-124.46
X78.74Y-127.0
X109.22Y-124.46
X109.22Y-127.0
X71.12Y-124.46
X71.12Y-127.0
X147.32Y-124.46
X147.32Y-127.0
X25.4Y-100.33
X25.4Y-102.87
X63.5Y-124.46
X63.5Y-127.0
X139.7Y-124.46
X139.7Y-127.0
X132.08Y-124.46
X132.08Y-127.0
T4
X11.43Y-78.74
X11.43Y-81.28
X11.43Y-83.82
X11.43Y-86.36
X11.43Y-88.9
X11.43Y-91.44
X11.43Y-99.06
X11.43Y-101.6
X11.43Y-104.14
X11.43Y-106.68
X11.43Y-55.88
X11.43Y-58.42
X11.43Y-60.96
X11.43Y-63.5
X11.43Y-66.04
X11.43Y-68.58
X11.43Y-71.12
X11.43Y-25.4
X11.43Y-27.94
X11.43Y-30.48
X11.43Y-38.1
X11.43Y-40.64
X11.43Y-43.18
X11.43Y-45.72
X11.43Y-48.26
X8.89Y-5.08
X8.89Y-7.62
X8.89Y-10.16
X25.4Y-6.35
X27.94Y-6.35
X30.48Y-6.35
X33.02Y-6.35
X35.56Y-6.35
X38.1Y-6.35
X40.64Y-6.35
X43.18Y-6.35
X11.43Y-114.3
X11.43Y-116.84
X11.43Y-119.38
X11.43Y-121.92
X54.61Y-6.35
X57.15Y-6.35
X59.69Y-6.35
X62.23Y-6.35
X16.51Y-5.08
X16.51Y-7.62
X16.51Y-10.16
T5
X194.31Y-3.81
X194.31Y-140.97
X3.81Y-140.97
X3.81Y-17.78
T0
M30
