%TF.GenerationSoftware,KiCad,Pcbnew,5.1.6-c6e7f7d~87~ubuntu16.04.1*%
%TF.CreationDate,2022-03-08T12:51:21-05:00*%
%TF.ProjectId,riscy_control,72697363-795f-4636-9f6e-74726f6c2e6b,rev?*%
%TF.SameCoordinates,Original*%
%TF.FileFunction,Copper,L2,Bot*%
%TF.FilePolarity,Positive*%
%FSLAX46Y46*%
G04 Gerber Fmt 4.6, Leading zero omitted, Abs format (unit mm)*
G04 Created by KiCad (PCBNEW 5.1.6-c6e7f7d~87~ubuntu16.04.1) date 2022-03-08 12:51:21*
%MOMM*%
%LPD*%
G01*
G04 APERTURE LIST*
%TA.AperFunction,ComponentPad*%
%ADD10O,1.700000X1.700000*%
%TD*%
%TA.AperFunction,ComponentPad*%
%ADD11R,1.700000X1.700000*%
%TD*%
%TA.AperFunction,ComponentPad*%
%ADD12O,1.600000X1.600000*%
%TD*%
%TA.AperFunction,ComponentPad*%
%ADD13R,1.600000X1.600000*%
%TD*%
%TA.AperFunction,ComponentPad*%
%ADD14C,1.800000*%
%TD*%
%TA.AperFunction,ComponentPad*%
%ADD15R,1.800000X1.800000*%
%TD*%
%TA.AperFunction,ComponentPad*%
%ADD16C,1.600000*%
%TD*%
%TA.AperFunction,ViaPad*%
%ADD17C,0.800000*%
%TD*%
%TA.AperFunction,Conductor*%
%ADD18C,0.250000*%
%TD*%
G04 APERTURE END LIST*
D10*
%TO.P,J9,4*%
%TO.N,reset*%
X11430000Y-106680000D03*
%TO.P,J9,3*%
%TO.N,fpcontrol*%
X11430000Y-104140000D03*
%TO.P,J9,2*%
%TO.N,memwr*%
X11430000Y-101600000D03*
D11*
%TO.P,J9,1*%
%TO.N,memrd*%
X11430000Y-99060000D03*
%TD*%
D12*
%TO.P,U2,24*%
%TO.N,+5V*%
X83820000Y-5080000D03*
%TO.P,U2,12*%
%TO.N,GND*%
X111760000Y-20320000D03*
%TO.P,U2,23*%
%TO.N,Net-(J3-Pad5)*%
X86360000Y-5080000D03*
%TO.P,U2,11*%
%TO.N,op10*%
X109220000Y-20320000D03*
%TO.P,U2,22*%
%TO.N,Net-(J3-Pad6)*%
X88900000Y-5080000D03*
%TO.P,U2,10*%
%TO.N,op_jmpfar*%
X106680000Y-20320000D03*
%TO.P,U2,21*%
%TO.N,Net-(J3-Pad7)*%
X91440000Y-5080000D03*
%TO.P,U2,9*%
%TO.N,Net-(U2-Pad9)*%
X104140000Y-20320000D03*
%TO.P,U2,20*%
%TO.N,Net-(J3-Pad8)*%
X93980000Y-5080000D03*
%TO.P,U2,8*%
%TO.N,op_add*%
X101600000Y-20320000D03*
%TO.P,U2,19*%
%TO.N,running*%
X96520000Y-5080000D03*
%TO.P,U2,7*%
%TO.N,op_nand*%
X99060000Y-20320000D03*
%TO.P,U2,18*%
%TO.N,running*%
X99060000Y-5080000D03*
%TO.P,U2,6*%
%TO.N,op_jalr*%
X96520000Y-20320000D03*
%TO.P,U2,17*%
%TO.N,Net-(U2-Pad17)*%
X101600000Y-5080000D03*
%TO.P,U2,5*%
%TO.N,op_skip*%
X93980000Y-20320000D03*
%TO.P,U2,16*%
%TO.N,Net-(U2-Pad16)*%
X104140000Y-5080000D03*
%TO.P,U2,4*%
%TO.N,op_store*%
X91440000Y-20320000D03*
%TO.P,U2,15*%
%TO.N,Net-(U2-Pad15)*%
X106680000Y-5080000D03*
%TO.P,U2,3*%
%TO.N,op_load*%
X88900000Y-20320000D03*
%TO.P,U2,14*%
%TO.N,Net-(U2-Pad14)*%
X109220000Y-5080000D03*
%TO.P,U2,2*%
%TO.N,op_sub*%
X86360000Y-20320000D03*
%TO.P,U2,13*%
%TO.N,Net-(U2-Pad13)*%
X111760000Y-5080000D03*
D13*
%TO.P,U2,1*%
%TO.N,Net-(U2-Pad1)*%
X83820000Y-20320000D03*
%TD*%
D12*
%TO.P,U24,16*%
%TO.N,+5V*%
X55880000Y-17780000D03*
%TO.P,U24,8*%
%TO.N,GND*%
X73660000Y-25400000D03*
%TO.P,U24,15*%
X58420000Y-17780000D03*
%TO.P,U24,7*%
%TO.N,Net-(U24-Pad7)*%
X71120000Y-25400000D03*
%TO.P,U24,14*%
%TO.N,Net-(J3-Pad1)*%
X60960000Y-17780000D03*
%TO.P,U24,6*%
%TO.N,Net-(U24-Pad6)*%
X68580000Y-25400000D03*
%TO.P,U24,13*%
%TO.N,Net-(J4-Pad3)*%
X63500000Y-17780000D03*
%TO.P,U24,5*%
%TO.N,Net-(U24-Pad5)*%
X66040000Y-25400000D03*
%TO.P,U24,12*%
%TO.N,Net-(J4-Pad4)*%
X66040000Y-17780000D03*
%TO.P,U24,4*%
%TO.N,Net-(U24-Pad4)*%
X63500000Y-25400000D03*
%TO.P,U24,11*%
%TO.N,Net-(J4-Pad1)*%
X68580000Y-17780000D03*
%TO.P,U24,3*%
%TO.N,Net-(U24-Pad3)*%
X60960000Y-25400000D03*
%TO.P,U24,10*%
%TO.N,Net-(J4-Pad2)*%
X71120000Y-17780000D03*
%TO.P,U24,2*%
%TO.N,Net-(J3-Pad2)*%
X58420000Y-25400000D03*
%TO.P,U24,9*%
%TO.N,doskip*%
X73660000Y-17780000D03*
D13*
%TO.P,U24,1*%
%TO.N,Net-(U24-Pad1)*%
X55880000Y-25400000D03*
%TD*%
D12*
%TO.P,U23,14*%
%TO.N,+5V*%
X167640000Y-77470000D03*
%TO.P,U23,7*%
%TO.N,GND*%
X182880000Y-85090000D03*
%TO.P,U23,13*%
%TO.N,op_stackpage*%
X170180000Y-77470000D03*
%TO.P,U23,6*%
%TO.N,Net-(U16-Pad2)*%
X180340000Y-85090000D03*
%TO.P,U23,12*%
%TO.N,Net-(U16-Pad6)*%
X172720000Y-77470000D03*
%TO.P,U23,5*%
%TO.N,op_store*%
X177800000Y-85090000D03*
%TO.P,U23,11*%
%TO.N,Net-(U17-Pad1)*%
X175260000Y-77470000D03*
%TO.P,U23,4*%
%TO.N,op_push*%
X175260000Y-85090000D03*
%TO.P,U23,10*%
%TO.N,op_pop*%
X177800000Y-77470000D03*
%TO.P,U23,3*%
%TO.N,N/C*%
X172720000Y-85090000D03*
%TO.P,U23,9*%
%TO.N,Net-(U20-Pad3)*%
X180340000Y-77470000D03*
%TO.P,U23,2*%
%TO.N,N/C*%
X170180000Y-85090000D03*
%TO.P,U23,8*%
%TO.N,Net-(U14-Pad13)*%
X182880000Y-77470000D03*
D13*
%TO.P,U23,1*%
%TO.N,N/C*%
X167640000Y-85090000D03*
%TD*%
D12*
%TO.P,U22,14*%
%TO.N,+5V*%
X140970000Y-77470000D03*
%TO.P,U22,7*%
%TO.N,GND*%
X156210000Y-85090000D03*
%TO.P,U22,13*%
%TO.N,cycle_de*%
X143510000Y-77470000D03*
%TO.P,U22,6*%
%TO.N,spageclk*%
X153670000Y-85090000D03*
%TO.P,U22,12*%
%TO.N,op_push*%
X146050000Y-77470000D03*
%TO.P,U22,5*%
%TO.N,cycle_ex*%
X151130000Y-85090000D03*
%TO.P,U22,11*%
%TO.N,Net-(U20-Pad4)*%
X148590000Y-77470000D03*
%TO.P,U22,4*%
%TO.N,op_stackpage*%
X148590000Y-85090000D03*
%TO.P,U22,10*%
%TO.N,IRclk*%
X151130000Y-77470000D03*
%TO.P,U22,3*%
%TO.N,Net-(U22-Pad3)*%
X146050000Y-85090000D03*
%TO.P,U22,9*%
%TO.N,not_fpcontrol*%
X153670000Y-77470000D03*
%TO.P,U22,2*%
X143510000Y-85090000D03*
%TO.P,U22,8*%
%TO.N,PCaddr*%
X156210000Y-77470000D03*
D13*
%TO.P,U22,1*%
%TO.N,running*%
X140970000Y-85090000D03*
%TD*%
D12*
%TO.P,U21,14*%
%TO.N,+5V*%
X111760000Y-77470000D03*
%TO.P,U21,7*%
%TO.N,GND*%
X127000000Y-85090000D03*
%TO.P,U21,13*%
%TO.N,op10*%
X114300000Y-77470000D03*
%TO.P,U21,6*%
%TO.N,memwr*%
X124460000Y-85090000D03*
%TO.P,U21,12*%
%TO.N,cycle_ex_3*%
X116840000Y-77470000D03*
%TO.P,U21,5*%
%TO.N,CLK*%
X121920000Y-85090000D03*
%TO.P,U21,11*%
%TO.N,SPaddr*%
X119380000Y-77470000D03*
%TO.P,U21,4*%
%TO.N,Net-(U14-Pad8)*%
X119380000Y-85090000D03*
%TO.P,U21,10*%
%TO.N,op_pop*%
X121920000Y-77470000D03*
%TO.P,U21,3*%
%TO.N,Rrsaddr*%
X116840000Y-85090000D03*
%TO.P,U21,9*%
%TO.N,cycle_3*%
X124460000Y-77470000D03*
%TO.P,U21,2*%
%TO.N,Net-(U21-Pad2)*%
X114300000Y-85090000D03*
%TO.P,U21,8*%
%TO.N,Net-(U20-Pad5)*%
X127000000Y-77470000D03*
D13*
%TO.P,U21,1*%
%TO.N,not_fpcontrol*%
X111760000Y-85090000D03*
%TD*%
D12*
%TO.P,U20,14*%
%TO.N,+5V*%
X82550000Y-77470000D03*
%TO.P,U20,7*%
%TO.N,GND*%
X97790000Y-85090000D03*
%TO.P,U20,13*%
%TO.N,op_push*%
X85090000Y-77470000D03*
%TO.P,U20,6*%
%TO.N,SPclk*%
X95250000Y-85090000D03*
%TO.P,U20,12*%
%TO.N,op_store*%
X87630000Y-77470000D03*
%TO.P,U20,5*%
%TO.N,Net-(U20-Pad5)*%
X92710000Y-85090000D03*
%TO.P,U20,11*%
%TO.N,Net-(U14-Pad9)*%
X90170000Y-77470000D03*
%TO.P,U20,4*%
%TO.N,Net-(U20-Pad4)*%
X90170000Y-85090000D03*
%TO.P,U20,10*%
%TO.N,op_pop*%
X92710000Y-77470000D03*
%TO.P,U20,3*%
%TO.N,Net-(U20-Pad3)*%
X87630000Y-85090000D03*
%TO.P,U20,9*%
%TO.N,op_load*%
X95250000Y-77470000D03*
%TO.P,U20,2*%
%TO.N,op_in*%
X85090000Y-85090000D03*
%TO.P,U20,8*%
%TO.N,Net-(U14-Pad5)*%
X97790000Y-77470000D03*
D13*
%TO.P,U20,1*%
%TO.N,Net-(U12-Pad11)*%
X82550000Y-85090000D03*
%TD*%
D12*
%TO.P,U19,14*%
%TO.N,+5V*%
X54610000Y-77470000D03*
%TO.P,U19,7*%
%TO.N,GND*%
X69850000Y-85090000D03*
%TO.P,U19,13*%
%TO.N,N/C*%
X57150000Y-77470000D03*
%TO.P,U19,6*%
%TO.N,inwb*%
X67310000Y-85090000D03*
%TO.P,U19,12*%
%TO.N,N/C*%
X59690000Y-77470000D03*
%TO.P,U19,5*%
%TO.N,cycle_ex*%
X64770000Y-85090000D03*
%TO.P,U19,11*%
%TO.N,N/C*%
X62230000Y-77470000D03*
%TO.P,U19,4*%
%TO.N,op_in*%
X62230000Y-85090000D03*
%TO.P,U19,10*%
%TO.N,cycle_3*%
X64770000Y-77470000D03*
%TO.P,U19,3*%
%TO.N,N/C*%
X59690000Y-85090000D03*
%TO.P,U19,9*%
%TO.N,op_in*%
X67310000Y-77470000D03*
%TO.P,U19,2*%
%TO.N,N/C*%
X57150000Y-85090000D03*
%TO.P,U19,8*%
%TO.N,Net-(U18-Pad4)*%
X69850000Y-77470000D03*
D13*
%TO.P,U19,1*%
%TO.N,N/C*%
X54610000Y-85090000D03*
%TD*%
D12*
%TO.P,U18,14*%
%TO.N,+5V*%
X25400000Y-77470000D03*
%TO.P,U18,7*%
%TO.N,GND*%
X40640000Y-85090000D03*
%TO.P,U18,13*%
%TO.N,reset*%
X27940000Y-77470000D03*
%TO.P,U18,6*%
%TO.N,inclr*%
X38100000Y-85090000D03*
%TO.P,U18,12*%
%TO.N,running*%
X30480000Y-77470000D03*
%TO.P,U18,5*%
%TO.N,Net-(U18-Pad4)*%
X35560000Y-85090000D03*
%TO.P,U18,11*%
%TO.N,halted*%
X33020000Y-77470000D03*
%TO.P,U18,4*%
%TO.N,Net-(U18-Pad4)*%
X33020000Y-85090000D03*
%TO.P,U18,10*%
%TO.N,halted*%
X35560000Y-77470000D03*
%TO.P,U18,3*%
%TO.N,out3*%
X30480000Y-85090000D03*
%TO.P,U18,9*%
%TO.N,op_halt*%
X38100000Y-77470000D03*
%TO.P,U18,2*%
%TO.N,Net-(U17-Pad8)*%
X27940000Y-85090000D03*
%TO.P,U18,8*%
%TO.N,running*%
X40640000Y-77470000D03*
D13*
%TO.P,U18,1*%
%TO.N,Net-(U17-Pad8)*%
X25400000Y-85090000D03*
%TD*%
D12*
%TO.P,U17,14*%
%TO.N,+5V*%
X167640000Y-57150000D03*
%TO.P,U17,7*%
%TO.N,GND*%
X182880000Y-64770000D03*
%TO.P,U17,13*%
%TO.N,N/C*%
X170180000Y-57150000D03*
%TO.P,U17,6*%
%TO.N,outwb*%
X180340000Y-64770000D03*
%TO.P,U17,12*%
%TO.N,N/C*%
X172720000Y-57150000D03*
%TO.P,U17,5*%
%TO.N,cycle_ex*%
X177800000Y-64770000D03*
%TO.P,U17,11*%
%TO.N,N/C*%
X175260000Y-57150000D03*
%TO.P,U17,4*%
%TO.N,op_out*%
X175260000Y-64770000D03*
%TO.P,U17,10*%
%TO.N,cycle_3*%
X177800000Y-57150000D03*
%TO.P,U17,3*%
%TO.N,rdwb*%
X172720000Y-64770000D03*
%TO.P,U17,9*%
%TO.N,op_out*%
X180340000Y-57150000D03*
%TO.P,U17,2*%
%TO.N,cycle_ex_3*%
X170180000Y-64770000D03*
%TO.P,U17,8*%
%TO.N,Net-(U17-Pad8)*%
X182880000Y-57150000D03*
D13*
%TO.P,U17,1*%
%TO.N,Net-(U17-Pad1)*%
X167640000Y-64770000D03*
%TD*%
D12*
%TO.P,U16,14*%
%TO.N,+5V*%
X140970000Y-57150000D03*
%TO.P,U16,7*%
%TO.N,GND*%
X156210000Y-64770000D03*
%TO.P,U16,13*%
%TO.N,N/C*%
X143510000Y-57150000D03*
%TO.P,U16,6*%
%TO.N,Net-(U16-Pad6)*%
X153670000Y-64770000D03*
%TO.P,U16,12*%
%TO.N,N/C*%
X146050000Y-57150000D03*
%TO.P,U16,5*%
%TO.N,Net-(U16-Pad3)*%
X151130000Y-64770000D03*
%TO.P,U16,11*%
%TO.N,N/C*%
X148590000Y-57150000D03*
%TO.P,U16,4*%
%TO.N,op_page*%
X148590000Y-64770000D03*
%TO.P,U16,10*%
%TO.N,cycle_3*%
X151130000Y-57150000D03*
%TO.P,U16,3*%
%TO.N,Net-(U16-Pad3)*%
X146050000Y-64770000D03*
%TO.P,U16,9*%
%TO.N,cycle_ex*%
X153670000Y-57150000D03*
%TO.P,U16,2*%
%TO.N,Net-(U16-Pad2)*%
X143510000Y-64770000D03*
%TO.P,U16,8*%
%TO.N,cycle_ex_3*%
X156210000Y-57150000D03*
D13*
%TO.P,U16,1*%
%TO.N,op_out*%
X140970000Y-64770000D03*
%TD*%
D12*
%TO.P,U15,14*%
%TO.N,+5V*%
X111760000Y-57150000D03*
%TO.P,U15,7*%
%TO.N,GND*%
X127000000Y-64770000D03*
%TO.P,U15,13*%
%TO.N,cycle_ex*%
X114300000Y-57150000D03*
%TO.P,U15,6*%
%TO.N,dpageclk*%
X124460000Y-64770000D03*
%TO.P,U15,12*%
%TO.N,op_jmpfar*%
X116840000Y-57150000D03*
%TO.P,U15,5*%
%TO.N,cycle_ex*%
X121920000Y-64770000D03*
%TO.P,U15,11*%
%TO.N,ipageclk*%
X119380000Y-57150000D03*
%TO.P,U15,4*%
%TO.N,op_page*%
X119380000Y-64770000D03*
%TO.P,U15,10*%
%TO.N,N/C*%
X121920000Y-57150000D03*
%TO.P,U15,3*%
%TO.N,nandwb*%
X116840000Y-64770000D03*
%TO.P,U15,9*%
%TO.N,N/C*%
X124460000Y-57150000D03*
%TO.P,U15,2*%
%TO.N,op_nand*%
X114300000Y-64770000D03*
%TO.P,U15,8*%
%TO.N,N/C*%
X127000000Y-57150000D03*
D13*
%TO.P,U15,1*%
%TO.N,cycle_ex*%
X111760000Y-64770000D03*
%TD*%
D12*
%TO.P,U14,14*%
%TO.N,+5V*%
X82550000Y-57150000D03*
%TO.P,U14,7*%
%TO.N,GND*%
X97790000Y-64770000D03*
%TO.P,U14,13*%
%TO.N,Net-(U14-Pad13)*%
X85090000Y-57150000D03*
%TO.P,U14,6*%
%TO.N,Net-(U14-Pad6)*%
X95250000Y-64770000D03*
%TO.P,U14,12*%
%TO.N,cycle_ex*%
X87630000Y-57150000D03*
%TO.P,U14,5*%
%TO.N,Net-(U14-Pad5)*%
X92710000Y-64770000D03*
%TO.P,U14,11*%
%TO.N,regclk*%
X90170000Y-57150000D03*
%TO.P,U14,4*%
%TO.N,cycle_ex*%
X90170000Y-64770000D03*
%TO.P,U14,10*%
%TO.N,cycle_3*%
X92710000Y-57150000D03*
%TO.P,U14,3*%
%TO.N,sliwb*%
X87630000Y-64770000D03*
%TO.P,U14,9*%
%TO.N,Net-(U14-Pad9)*%
X95250000Y-57150000D03*
%TO.P,U14,2*%
%TO.N,cycle_ex*%
X85090000Y-64770000D03*
%TO.P,U14,8*%
%TO.N,Net-(U14-Pad8)*%
X97790000Y-57150000D03*
D13*
%TO.P,U14,1*%
%TO.N,op_sli*%
X82550000Y-64770000D03*
%TD*%
D12*
%TO.P,U13,14*%
%TO.N,+5V*%
X54610000Y-57150000D03*
%TO.P,U13,7*%
%TO.N,GND*%
X69850000Y-64770000D03*
%TO.P,U13,13*%
%TO.N,N/C*%
X57150000Y-57150000D03*
%TO.P,U13,6*%
X67310000Y-64770000D03*
%TO.P,U13,12*%
X59690000Y-57150000D03*
%TO.P,U13,5*%
X64770000Y-64770000D03*
%TO.P,U13,11*%
X62230000Y-57150000D03*
%TO.P,U13,4*%
X62230000Y-64770000D03*
%TO.P,U13,10*%
%TO.N,fpcontrol*%
X64770000Y-57150000D03*
%TO.P,U13,3*%
%TO.N,N/C*%
X59690000Y-64770000D03*
%TO.P,U13,9*%
%TO.N,fpcontrol*%
X67310000Y-57150000D03*
%TO.P,U13,2*%
%TO.N,N/C*%
X57150000Y-64770000D03*
%TO.P,U13,8*%
%TO.N,not_fpcontrol*%
X69850000Y-57150000D03*
D13*
%TO.P,U13,1*%
%TO.N,N/C*%
X54610000Y-64770000D03*
%TD*%
D12*
%TO.P,U12,14*%
%TO.N,+5V*%
X25400000Y-57150000D03*
%TO.P,U12,7*%
%TO.N,GND*%
X40640000Y-64770000D03*
%TO.P,U12,13*%
%TO.N,op_nand*%
X27940000Y-57150000D03*
%TO.P,U12,6*%
%TO.N,Net-(U12-Pad6)*%
X38100000Y-64770000D03*
%TO.P,U12,12*%
%TO.N,Net-(U12-Pad12)*%
X30480000Y-57150000D03*
%TO.P,U12,5*%
%TO.N,op_sli*%
X35560000Y-64770000D03*
%TO.P,U12,11*%
%TO.N,Net-(U12-Pad11)*%
X33020000Y-57150000D03*
%TO.P,U12,4*%
%TO.N,Net-(U12-Pad3)*%
X33020000Y-64770000D03*
%TO.P,U12,10*%
%TO.N,op_load*%
X35560000Y-57150000D03*
%TO.P,U12,3*%
%TO.N,Net-(U12-Pad3)*%
X30480000Y-64770000D03*
%TO.P,U12,9*%
%TO.N,Net-(U12-Pad6)*%
X38100000Y-57150000D03*
%TO.P,U12,2*%
%TO.N,op_jalr*%
X27940000Y-64770000D03*
%TO.P,U12,8*%
%TO.N,Net-(U12-Pad12)*%
X40640000Y-57150000D03*
D13*
%TO.P,U12,1*%
%TO.N,Net-(U11-Pad11)*%
X25400000Y-64770000D03*
%TD*%
D12*
%TO.P,U11,14*%
%TO.N,+5V*%
X167640000Y-36830000D03*
%TO.P,U11,7*%
%TO.N,GND*%
X182880000Y-44450000D03*
%TO.P,U11,13*%
%TO.N,op_jmpfar*%
X170180000Y-36830000D03*
%TO.P,U11,6*%
%TO.N,Net-(U11-Pad6)*%
X180340000Y-44450000D03*
%TO.P,U11,12*%
%TO.N,Net-(U11-Pad12)*%
X172720000Y-36830000D03*
%TO.P,U11,5*%
%TO.N,op_inc*%
X177800000Y-44450000D03*
%TO.P,U11,11*%
%TO.N,Net-(U11-Pad11)*%
X175260000Y-36830000D03*
%TO.P,U11,4*%
%TO.N,Net-(U11-Pad3)*%
X175260000Y-44450000D03*
%TO.P,U11,10*%
%TO.N,op_dec*%
X177800000Y-36830000D03*
%TO.P,U11,3*%
%TO.N,Net-(U11-Pad3)*%
X172720000Y-44450000D03*
%TO.P,U11,9*%
%TO.N,Net-(U11-Pad6)*%
X180340000Y-36830000D03*
%TO.P,U11,2*%
%TO.N,op_sub*%
X170180000Y-44450000D03*
%TO.P,U11,8*%
%TO.N,Net-(U11-Pad12)*%
X182880000Y-36830000D03*
D13*
%TO.P,U11,1*%
%TO.N,op_add*%
X167640000Y-44450000D03*
%TD*%
%TO.P,U10,1*%
%TO.N,IRclk*%
X54610000Y-44450000D03*
D12*
%TO.P,U10,8*%
%TO.N,incdec*%
X69850000Y-36830000D03*
%TO.P,U10,2*%
%TO.N,Net-(U10-Pad2)*%
X57150000Y-44450000D03*
%TO.P,U10,9*%
%TO.N,op_inc*%
X67310000Y-36830000D03*
%TO.P,U10,3*%
%TO.N,PCclk*%
X59690000Y-44450000D03*
%TO.P,U10,10*%
%TO.N,op_dec*%
X64770000Y-36830000D03*
%TO.P,U10,4*%
%TO.N,N/C*%
X62230000Y-44450000D03*
%TO.P,U10,11*%
%TO.N,addsub*%
X62230000Y-36830000D03*
%TO.P,U10,5*%
%TO.N,N/C*%
X64770000Y-44450000D03*
%TO.P,U10,12*%
%TO.N,op_sub*%
X59690000Y-36830000D03*
%TO.P,U10,6*%
%TO.N,N/C*%
X67310000Y-44450000D03*
%TO.P,U10,13*%
%TO.N,op_inc*%
X57150000Y-36830000D03*
%TO.P,U10,7*%
%TO.N,GND*%
X69850000Y-44450000D03*
%TO.P,U10,14*%
%TO.N,+5V*%
X54610000Y-36830000D03*
%TD*%
D13*
%TO.P,U9,1*%
%TO.N,IRclk*%
X140970000Y-44450000D03*
D12*
%TO.P,U9,8*%
%TO.N,Net-(U10-Pad2)*%
X156210000Y-36830000D03*
%TO.P,U9,2*%
%TO.N,Net-(U14-Pad6)*%
X143510000Y-44450000D03*
%TO.P,U9,9*%
%TO.N,Net-(U7-Pad6)*%
X153670000Y-36830000D03*
%TO.P,U9,3*%
%TO.N,memrd*%
X146050000Y-44450000D03*
%TO.P,U9,10*%
%TO.N,PCload*%
X151130000Y-36830000D03*
%TO.P,U9,4*%
%TO.N,N/C*%
X148590000Y-44450000D03*
%TO.P,U9,11*%
%TO.N,PCload*%
X148590000Y-36830000D03*
%TO.P,U9,5*%
%TO.N,N/C*%
X151130000Y-44450000D03*
%TO.P,U9,12*%
%TO.N,Net-(U7-Pad8)*%
X146050000Y-36830000D03*
%TO.P,U9,6*%
%TO.N,N/C*%
X153670000Y-44450000D03*
%TO.P,U9,13*%
%TO.N,Net-(U7-Pad11)*%
X143510000Y-36830000D03*
%TO.P,U9,7*%
%TO.N,GND*%
X156210000Y-44450000D03*
%TO.P,U9,14*%
%TO.N,+5V*%
X140970000Y-36830000D03*
%TD*%
D13*
%TO.P,U8,1*%
%TO.N,N/C*%
X111760000Y-44450000D03*
D12*
%TO.P,U8,8*%
X127000000Y-36830000D03*
%TO.P,U8,2*%
X114300000Y-44450000D03*
%TO.P,U8,9*%
X124460000Y-36830000D03*
%TO.P,U8,3*%
X116840000Y-44450000D03*
%TO.P,U8,10*%
X121920000Y-36830000D03*
%TO.P,U8,4*%
X119380000Y-44450000D03*
%TO.P,U8,11*%
%TO.N,addwb*%
X119380000Y-36830000D03*
%TO.P,U8,5*%
%TO.N,N/C*%
X121920000Y-44450000D03*
%TO.P,U8,12*%
%TO.N,cycle_ex*%
X116840000Y-36830000D03*
%TO.P,U8,6*%
%TO.N,N/C*%
X124460000Y-44450000D03*
%TO.P,U8,13*%
%TO.N,Net-(U11-Pad12)*%
X114300000Y-36830000D03*
%TO.P,U8,7*%
%TO.N,GND*%
X127000000Y-44450000D03*
%TO.P,U8,14*%
%TO.N,+5V*%
X111760000Y-36830000D03*
%TD*%
D13*
%TO.P,U7,1*%
%TO.N,doskip*%
X82550000Y-44450000D03*
D12*
%TO.P,U7,8*%
%TO.N,Net-(U7-Pad8)*%
X97790000Y-36830000D03*
%TO.P,U7,2*%
%TO.N,op_skip*%
X85090000Y-44450000D03*
%TO.P,U7,9*%
%TO.N,cycle_ex*%
X95250000Y-36830000D03*
%TO.P,U7,3*%
%TO.N,Net-(U7-Pad3)*%
X87630000Y-44450000D03*
%TO.P,U7,10*%
%TO.N,op_jmpfar*%
X92710000Y-36830000D03*
%TO.P,U7,4*%
%TO.N,cycle_ex*%
X90170000Y-44450000D03*
%TO.P,U7,11*%
%TO.N,Net-(U7-Pad11)*%
X90170000Y-36830000D03*
%TO.P,U7,5*%
%TO.N,Net-(U7-Pad3)*%
X92710000Y-44450000D03*
%TO.P,U7,12*%
%TO.N,cycle_ex*%
X87630000Y-36830000D03*
%TO.P,U7,6*%
%TO.N,Net-(U7-Pad6)*%
X95250000Y-44450000D03*
%TO.P,U7,13*%
%TO.N,op_jalr*%
X85090000Y-36830000D03*
%TO.P,U7,7*%
%TO.N,GND*%
X97790000Y-44450000D03*
%TO.P,U7,14*%
%TO.N,+5V*%
X82550000Y-36830000D03*
%TD*%
%TO.P,U6,14*%
%TO.N,+5V*%
X25400000Y-36830000D03*
%TO.P,U6,7*%
%TO.N,GND*%
X40640000Y-44450000D03*
%TO.P,U6,13*%
%TO.N,N/C*%
X27940000Y-36830000D03*
%TO.P,U6,6*%
X38100000Y-44450000D03*
%TO.P,U6,12*%
X30480000Y-36830000D03*
%TO.P,U6,5*%
X35560000Y-44450000D03*
%TO.P,U6,11*%
X33020000Y-36830000D03*
%TO.P,U6,4*%
X33020000Y-44450000D03*
%TO.P,U6,10*%
X35560000Y-36830000D03*
%TO.P,U6,3*%
%TO.N,Net-(U1-Pad2)*%
X30480000Y-44450000D03*
%TO.P,U6,9*%
%TO.N,N/C*%
X38100000Y-36830000D03*
%TO.P,U6,2*%
%TO.N,CLK*%
X27940000Y-44450000D03*
%TO.P,U6,8*%
%TO.N,N/C*%
X40640000Y-36830000D03*
D13*
%TO.P,U6,1*%
%TO.N,halted*%
X25400000Y-44450000D03*
%TD*%
D12*
%TO.P,U5,16*%
%TO.N,+5V*%
X151130000Y-10160000D03*
%TO.P,U5,8*%
%TO.N,GND*%
X168910000Y-17780000D03*
%TO.P,U5,15*%
%TO.N,op10*%
X153670000Y-10160000D03*
%TO.P,U5,7*%
%TO.N,op_in*%
X166370000Y-17780000D03*
%TO.P,U5,14*%
%TO.N,Net-(J3-Pad1)*%
X156210000Y-10160000D03*
%TO.P,U5,6*%
%TO.N,op_out*%
X163830000Y-17780000D03*
%TO.P,U5,13*%
%TO.N,Net-(J3-Pad2)*%
X158750000Y-10160000D03*
%TO.P,U5,5*%
%TO.N,op_dec*%
X161290000Y-17780000D03*
%TO.P,U5,12*%
%TO.N,op_push*%
X161290000Y-10160000D03*
%TO.P,U5,4*%
%TO.N,op_inc*%
X158750000Y-17780000D03*
%TO.P,U5,11*%
%TO.N,op_pop*%
X163830000Y-10160000D03*
%TO.P,U5,3*%
%TO.N,Net-(J3-Pad2)*%
X156210000Y-17780000D03*
%TO.P,U5,10*%
%TO.N,op_stackpage*%
X166370000Y-10160000D03*
%TO.P,U5,2*%
%TO.N,Net-(J3-Pad1)*%
X153670000Y-17780000D03*
%TO.P,U5,9*%
%TO.N,Net-(U5-Pad9)*%
X168910000Y-10160000D03*
D13*
%TO.P,U5,1*%
%TO.N,Net-(U2-Pad9)*%
X151130000Y-17780000D03*
%TD*%
D12*
%TO.P,U4,14*%
%TO.N,+5V*%
X180340000Y-10160000D03*
%TO.P,U4,7*%
%TO.N,GND*%
X195580000Y-17780000D03*
%TO.P,U4,13*%
%TO.N,N/C*%
X182880000Y-10160000D03*
%TO.P,U4,6*%
X193040000Y-17780000D03*
%TO.P,U4,12*%
X185420000Y-10160000D03*
%TO.P,U4,5*%
X190500000Y-17780000D03*
%TO.P,U4,11*%
X187960000Y-10160000D03*
%TO.P,U4,4*%
X187960000Y-17780000D03*
%TO.P,U4,10*%
%TO.N,IRclk*%
X190500000Y-10160000D03*
%TO.P,U4,3*%
%TO.N,op_sli*%
X185420000Y-17780000D03*
%TO.P,U4,9*%
%TO.N,SPaddr*%
X193040000Y-10160000D03*
%TO.P,U4,2*%
%TO.N,Net-(J3-Pad8)*%
X182880000Y-17780000D03*
%TO.P,U4,8*%
%TO.N,Net-(U21-Pad2)*%
X195580000Y-10160000D03*
D13*
%TO.P,U4,1*%
%TO.N,Net-(J3-Pad7)*%
X180340000Y-17780000D03*
%TD*%
D12*
%TO.P,U3,16*%
%TO.N,+5V*%
X123190000Y-10160000D03*
%TO.P,U3,8*%
%TO.N,GND*%
X140970000Y-17780000D03*
%TO.P,U3,15*%
%TO.N,Net-(U22-Pad3)*%
X125730000Y-10160000D03*
%TO.P,U3,7*%
%TO.N,op_page*%
X138430000Y-17780000D03*
%TO.P,U3,14*%
%TO.N,Net-(U1-Pad14)*%
X128270000Y-10160000D03*
%TO.P,U3,6*%
%TO.N,Net-(U3-Pad6)*%
X135890000Y-17780000D03*
%TO.P,U3,13*%
%TO.N,Net-(U1-Pad13)*%
X130810000Y-10160000D03*
%TO.P,U3,5*%
%TO.N,op_halt*%
X133350000Y-17780000D03*
%TO.P,U3,12*%
%TO.N,IRclk*%
X133350000Y-10160000D03*
%TO.P,U3,4*%
%TO.N,op_nop*%
X130810000Y-17780000D03*
%TO.P,U3,11*%
%TO.N,cycle_de*%
X135890000Y-10160000D03*
%TO.P,U3,3*%
%TO.N,Net-(J3-Pad2)*%
X128270000Y-17780000D03*
%TO.P,U3,10*%
%TO.N,cycle_ex*%
X138430000Y-10160000D03*
%TO.P,U3,2*%
%TO.N,Net-(J3-Pad1)*%
X125730000Y-17780000D03*
%TO.P,U3,9*%
%TO.N,cycle_3*%
X140970000Y-10160000D03*
D13*
%TO.P,U3,1*%
%TO.N,Net-(U2-Pad1)*%
X123190000Y-17780000D03*
%TD*%
D12*
%TO.P,U1,16*%
%TO.N,+5V*%
X25400000Y-17780000D03*
%TO.P,U1,8*%
%TO.N,GND*%
X43180000Y-25400000D03*
%TO.P,U1,15*%
%TO.N,Net-(U1-Pad15)*%
X27940000Y-17780000D03*
%TO.P,U1,7*%
%TO.N,+5V*%
X40640000Y-25400000D03*
%TO.P,U1,14*%
%TO.N,Net-(U1-Pad14)*%
X30480000Y-17780000D03*
%TO.P,U1,6*%
%TO.N,Net-(U1-Pad6)*%
X38100000Y-25400000D03*
%TO.P,U1,13*%
%TO.N,Net-(U1-Pad13)*%
X33020000Y-17780000D03*
%TO.P,U1,5*%
%TO.N,Net-(U1-Pad5)*%
X35560000Y-25400000D03*
%TO.P,U1,12*%
%TO.N,Net-(U1-Pad12)*%
X35560000Y-17780000D03*
%TO.P,U1,4*%
%TO.N,Net-(U1-Pad4)*%
X33020000Y-25400000D03*
%TO.P,U1,11*%
%TO.N,Net-(U1-Pad11)*%
X38100000Y-17780000D03*
%TO.P,U1,3*%
%TO.N,Net-(U1-Pad3)*%
X30480000Y-25400000D03*
%TO.P,U1,10*%
%TO.N,+5V*%
X40640000Y-17780000D03*
%TO.P,U1,2*%
%TO.N,Net-(U1-Pad2)*%
X27940000Y-25400000D03*
%TO.P,U1,9*%
%TO.N,+5V*%
X43180000Y-17780000D03*
D13*
%TO.P,U1,1*%
%TO.N,reset*%
X25400000Y-25400000D03*
%TD*%
D12*
%TO.P,RN4,9*%
%TO.N,Net-(RN4-Pad9)*%
X163830000Y-118110000D03*
%TO.P,RN4,8*%
%TO.N,Net-(RN4-Pad8)*%
X161290000Y-118110000D03*
%TO.P,RN4,7*%
%TO.N,Net-(RN4-Pad7)*%
X158750000Y-118110000D03*
%TO.P,RN4,6*%
%TO.N,Net-(RN4-Pad6)*%
X156210000Y-118110000D03*
%TO.P,RN4,5*%
%TO.N,Net-(D27-Pad2)*%
X153670000Y-118110000D03*
%TO.P,RN4,4*%
%TO.N,Net-(D26-Pad2)*%
X151130000Y-118110000D03*
%TO.P,RN4,3*%
%TO.N,Net-(D25-Pad2)*%
X148590000Y-118110000D03*
%TO.P,RN4,2*%
%TO.N,Net-(D24-Pad2)*%
X146050000Y-118110000D03*
D13*
%TO.P,RN4,1*%
%TO.N,+5V*%
X143510000Y-118110000D03*
%TD*%
D12*
%TO.P,RN3,9*%
%TO.N,Net-(RN3-Pad9)*%
X138430000Y-118110000D03*
%TO.P,RN3,8*%
%TO.N,Net-(D23-Pad2)*%
X135890000Y-118110000D03*
%TO.P,RN3,7*%
%TO.N,Net-(D22-Pad2)*%
X133350000Y-118110000D03*
%TO.P,RN3,6*%
%TO.N,Net-(D21-Pad2)*%
X130810000Y-118110000D03*
%TO.P,RN3,5*%
%TO.N,Net-(D20-Pad2)*%
X128270000Y-118110000D03*
%TO.P,RN3,4*%
%TO.N,Net-(D19-Pad2)*%
X125730000Y-118110000D03*
%TO.P,RN3,3*%
%TO.N,Net-(D18-Pad2)*%
X123190000Y-118110000D03*
%TO.P,RN3,2*%
%TO.N,Net-(D17-Pad2)*%
X120650000Y-118110000D03*
D13*
%TO.P,RN3,1*%
%TO.N,+5V*%
X118110000Y-118110000D03*
%TD*%
D12*
%TO.P,RN2,9*%
%TO.N,Net-(D16-Pad2)*%
X113030000Y-118110000D03*
%TO.P,RN2,8*%
%TO.N,Net-(D15-Pad2)*%
X110490000Y-118110000D03*
%TO.P,RN2,7*%
%TO.N,Net-(D14-Pad2)*%
X107950000Y-118110000D03*
%TO.P,RN2,6*%
%TO.N,Net-(D13-Pad2)*%
X105410000Y-118110000D03*
%TO.P,RN2,5*%
%TO.N,Net-(D12-Pad2)*%
X102870000Y-118110000D03*
%TO.P,RN2,4*%
%TO.N,Net-(D11-Pad2)*%
X100330000Y-118110000D03*
%TO.P,RN2,3*%
%TO.N,Net-(D10-Pad2)*%
X97790000Y-118110000D03*
%TO.P,RN2,2*%
%TO.N,Net-(D9-Pad2)*%
X95250000Y-118110000D03*
D13*
%TO.P,RN2,1*%
%TO.N,+5V*%
X92710000Y-118110000D03*
%TD*%
D12*
%TO.P,RN1,9*%
%TO.N,Net-(D8-Pad2)*%
X87630000Y-118110000D03*
%TO.P,RN1,8*%
%TO.N,Net-(D7-Pad2)*%
X85090000Y-118110000D03*
%TO.P,RN1,7*%
%TO.N,Net-(D6-Pad2)*%
X82550000Y-118110000D03*
%TO.P,RN1,6*%
%TO.N,Net-(D5-Pad2)*%
X80010000Y-118110000D03*
%TO.P,RN1,5*%
%TO.N,Net-(D4-Pad2)*%
X77470000Y-118110000D03*
%TO.P,RN1,4*%
%TO.N,Net-(D3-Pad2)*%
X74930000Y-118110000D03*
%TO.P,RN1,3*%
%TO.N,Net-(D2-Pad2)*%
X72390000Y-118110000D03*
%TO.P,RN1,2*%
%TO.N,Net-(D1-Pad2)*%
X69850000Y-118110000D03*
D13*
%TO.P,RN1,1*%
%TO.N,+5V*%
X67310000Y-118110000D03*
%TD*%
D10*
%TO.P,J10,4*%
%TO.N,out3*%
X11430000Y-121920000D03*
%TO.P,J10,3*%
%TO.N,outwb*%
X11430000Y-119380000D03*
%TO.P,J10,2*%
%TO.N,inclr*%
X11430000Y-116840000D03*
D11*
%TO.P,J10,1*%
%TO.N,inwb*%
X11430000Y-114300000D03*
%TD*%
D10*
%TO.P,J8,6*%
%TO.N,spageclk*%
X11430000Y-91440000D03*
%TO.P,J8,5*%
%TO.N,dpageclk*%
X11430000Y-88900000D03*
%TO.P,J8,4*%
%TO.N,ipageclk*%
X11430000Y-86360000D03*
%TO.P,J8,3*%
%TO.N,IRclk*%
X11430000Y-83820000D03*
%TO.P,J8,2*%
%TO.N,SPclk*%
X11430000Y-81280000D03*
D11*
%TO.P,J8,1*%
%TO.N,PCclk*%
X11430000Y-78740000D03*
%TD*%
D10*
%TO.P,J7,7*%
%TO.N,op_push*%
X11430000Y-71120000D03*
%TO.P,J7,6*%
%TO.N,PCload*%
X11430000Y-68580000D03*
%TO.P,J7,5*%
X11430000Y-66040000D03*
%TO.P,J7,4*%
%TO.N,SPaddr*%
X11430000Y-63500000D03*
%TO.P,J7,3*%
%TO.N,Rrsaddr*%
X11430000Y-60960000D03*
%TO.P,J7,2*%
%TO.N,PCaddr*%
X11430000Y-58420000D03*
D11*
%TO.P,J7,1*%
%TO.N,reset*%
X11430000Y-55880000D03*
%TD*%
D10*
%TO.P,J6,5*%
%TO.N,sliwb*%
X11430000Y-48260000D03*
%TO.P,J6,4*%
%TO.N,nandwb*%
X11430000Y-45720000D03*
%TO.P,J6,3*%
%TO.N,addwb*%
X11430000Y-43180000D03*
%TO.P,J6,2*%
%TO.N,incdec*%
X11430000Y-40640000D03*
D11*
%TO.P,J6,1*%
%TO.N,addsub*%
X11430000Y-38100000D03*
%TD*%
D10*
%TO.P,J5,3*%
%TO.N,rdwb*%
X11430000Y-30480000D03*
%TO.P,J5,2*%
%TO.N,cycle_de*%
X11430000Y-27940000D03*
D11*
%TO.P,J5,1*%
%TO.N,regclk*%
X11430000Y-25400000D03*
%TD*%
D10*
%TO.P,J4,4*%
%TO.N,Net-(J4-Pad4)*%
X54610000Y-6350000D03*
%TO.P,J4,3*%
%TO.N,Net-(J4-Pad3)*%
X57150000Y-6350000D03*
%TO.P,J4,2*%
%TO.N,Net-(J4-Pad2)*%
X59690000Y-6350000D03*
D11*
%TO.P,J4,1*%
%TO.N,Net-(J4-Pad1)*%
X62230000Y-6350000D03*
%TD*%
D10*
%TO.P,J3,8*%
%TO.N,Net-(J3-Pad8)*%
X25400000Y-6350000D03*
%TO.P,J3,7*%
%TO.N,Net-(J3-Pad7)*%
X27940000Y-6350000D03*
%TO.P,J3,6*%
%TO.N,Net-(J3-Pad6)*%
X30480000Y-6350000D03*
%TO.P,J3,5*%
%TO.N,Net-(J3-Pad5)*%
X33020000Y-6350000D03*
%TO.P,J3,4*%
%TO.N,Net-(J3-Pad4)*%
X35560000Y-6350000D03*
%TO.P,J3,3*%
%TO.N,Net-(J3-Pad3)*%
X38100000Y-6350000D03*
%TO.P,J3,2*%
%TO.N,Net-(J3-Pad2)*%
X40640000Y-6350000D03*
D11*
%TO.P,J3,1*%
%TO.N,Net-(J3-Pad1)*%
X43180000Y-6350000D03*
%TD*%
D10*
%TO.P,J2,3*%
%TO.N,CLK*%
X16510000Y-10160000D03*
%TO.P,J2,2*%
%TO.N,GND*%
X16510000Y-7620000D03*
D11*
%TO.P,J2,1*%
%TO.N,+5V*%
X16510000Y-5080000D03*
%TD*%
D10*
%TO.P,J1,3*%
%TO.N,CLK*%
X8890000Y-10160000D03*
%TO.P,J1,2*%
%TO.N,GND*%
X8890000Y-7620000D03*
D11*
%TO.P,J1,1*%
%TO.N,+5V*%
X8890000Y-5080000D03*
%TD*%
D14*
%TO.P,D27,2*%
%TO.N,Net-(D27-Pad2)*%
X71120000Y-100330000D03*
D15*
%TO.P,D27,1*%
%TO.N,doskip*%
X71120000Y-102870000D03*
%TD*%
D14*
%TO.P,D26,2*%
%TO.N,Net-(D26-Pad2)*%
X173990000Y-100330000D03*
D15*
%TO.P,D26,1*%
%TO.N,fpcontrol*%
X173990000Y-102870000D03*
%TD*%
D14*
%TO.P,D25,2*%
%TO.N,Net-(D25-Pad2)*%
X162560000Y-100330000D03*
D15*
%TO.P,D25,1*%
%TO.N,running*%
X162560000Y-102870000D03*
%TD*%
D14*
%TO.P,D24,2*%
%TO.N,Net-(D24-Pad2)*%
X151130000Y-100330000D03*
D15*
%TO.P,D24,1*%
%TO.N,halted*%
X151130000Y-102870000D03*
%TD*%
D14*
%TO.P,D23,2*%
%TO.N,Net-(D23-Pad2)*%
X162560000Y-124460000D03*
D15*
%TO.P,D23,1*%
%TO.N,op_sli*%
X162560000Y-127000000D03*
%TD*%
D14*
%TO.P,D22,2*%
%TO.N,Net-(D22-Pad2)*%
X154940000Y-124460000D03*
D15*
%TO.P,D22,1*%
%TO.N,op_stackpage*%
X154940000Y-127000000D03*
%TD*%
D14*
%TO.P,D21,2*%
%TO.N,Net-(D21-Pad2)*%
X147320000Y-124460000D03*
D15*
%TO.P,D21,1*%
%TO.N,op_pop*%
X147320000Y-127000000D03*
%TD*%
D14*
%TO.P,D20,2*%
%TO.N,Net-(D20-Pad2)*%
X139700000Y-124460000D03*
D15*
%TO.P,D20,1*%
%TO.N,op_push*%
X139700000Y-127000000D03*
%TD*%
D14*
%TO.P,D19,2*%
%TO.N,Net-(D19-Pad2)*%
X132080000Y-124460000D03*
D15*
%TO.P,D19,1*%
%TO.N,op_jmpfar*%
X132080000Y-127000000D03*
%TD*%
D14*
%TO.P,D18,2*%
%TO.N,Net-(D18-Pad2)*%
X124460000Y-124460000D03*
D15*
%TO.P,D18,1*%
%TO.N,op_in*%
X124460000Y-127000000D03*
%TD*%
D14*
%TO.P,D17,2*%
%TO.N,Net-(D17-Pad2)*%
X116840000Y-124460000D03*
D15*
%TO.P,D17,1*%
%TO.N,op_out*%
X116840000Y-127000000D03*
%TD*%
D14*
%TO.P,D16,2*%
%TO.N,Net-(D16-Pad2)*%
X109220000Y-124460000D03*
D15*
%TO.P,D16,1*%
%TO.N,op_dec*%
X109220000Y-127000000D03*
%TD*%
D14*
%TO.P,D15,2*%
%TO.N,Net-(D15-Pad2)*%
X101600000Y-124460000D03*
D15*
%TO.P,D15,1*%
%TO.N,op_inc*%
X101600000Y-127000000D03*
%TD*%
D14*
%TO.P,D14,2*%
%TO.N,Net-(D14-Pad2)*%
X93980000Y-124460000D03*
D15*
%TO.P,D14,1*%
%TO.N,op_add*%
X93980000Y-127000000D03*
%TD*%
D14*
%TO.P,D13,2*%
%TO.N,Net-(D13-Pad2)*%
X86360000Y-124460000D03*
D15*
%TO.P,D13,1*%
%TO.N,op_nand*%
X86360000Y-127000000D03*
%TD*%
D14*
%TO.P,D12,2*%
%TO.N,Net-(D12-Pad2)*%
X78740000Y-124460000D03*
D15*
%TO.P,D12,1*%
%TO.N,op_jalr*%
X78740000Y-127000000D03*
%TD*%
D14*
%TO.P,D11,2*%
%TO.N,Net-(D11-Pad2)*%
X71120000Y-124460000D03*
D15*
%TO.P,D11,1*%
%TO.N,op_skip*%
X71120000Y-127000000D03*
%TD*%
D14*
%TO.P,D10,2*%
%TO.N,Net-(D10-Pad2)*%
X63500000Y-124460000D03*
D15*
%TO.P,D10,1*%
%TO.N,op_store*%
X63500000Y-127000000D03*
%TD*%
D14*
%TO.P,D9,2*%
%TO.N,Net-(D9-Pad2)*%
X55880000Y-124460000D03*
D15*
%TO.P,D9,1*%
%TO.N,op_load*%
X55880000Y-127000000D03*
%TD*%
D14*
%TO.P,D8,2*%
%TO.N,Net-(D8-Pad2)*%
X48260000Y-124460000D03*
D15*
%TO.P,D8,1*%
%TO.N,op_sub*%
X48260000Y-127000000D03*
%TD*%
D14*
%TO.P,D7,2*%
%TO.N,Net-(D7-Pad2)*%
X40640000Y-124460000D03*
D15*
%TO.P,D7,1*%
%TO.N,op_page*%
X40640000Y-127000000D03*
%TD*%
D14*
%TO.P,D6,2*%
%TO.N,Net-(D6-Pad2)*%
X33020000Y-124460000D03*
D15*
%TO.P,D6,1*%
%TO.N,op_halt*%
X33020000Y-127000000D03*
%TD*%
D14*
%TO.P,D5,2*%
%TO.N,Net-(D5-Pad2)*%
X25400000Y-124460000D03*
D15*
%TO.P,D5,1*%
%TO.N,op_nop*%
X25400000Y-127000000D03*
%TD*%
D14*
%TO.P,D4,2*%
%TO.N,Net-(D4-Pad2)*%
X48260000Y-100330000D03*
D15*
%TO.P,D4,1*%
%TO.N,cycle_3*%
X48260000Y-102870000D03*
%TD*%
D14*
%TO.P,D3,2*%
%TO.N,Net-(D3-Pad2)*%
X40640000Y-100330000D03*
D15*
%TO.P,D3,1*%
%TO.N,cycle_ex*%
X40640000Y-102870000D03*
%TD*%
D14*
%TO.P,D2,2*%
%TO.N,Net-(D2-Pad2)*%
X33020000Y-100330000D03*
D15*
%TO.P,D2,1*%
%TO.N,cycle_de*%
X33020000Y-102870000D03*
%TD*%
D14*
%TO.P,D1,2*%
%TO.N,Net-(D1-Pad2)*%
X25400000Y-100330000D03*
D15*
%TO.P,D1,1*%
%TO.N,IRclk*%
X25400000Y-102870000D03*
%TD*%
D16*
%TO.P,C24,2*%
%TO.N,GND*%
X52070000Y-20280000D03*
%TO.P,C24,1*%
%TO.N,+5V*%
X52070000Y-17780000D03*
%TD*%
%TO.P,C23,2*%
%TO.N,GND*%
X163830000Y-81240000D03*
%TO.P,C23,1*%
%TO.N,+5V*%
X163830000Y-78740000D03*
%TD*%
%TO.P,C22,2*%
%TO.N,GND*%
X137160000Y-81240000D03*
%TO.P,C22,1*%
%TO.N,+5V*%
X137160000Y-78740000D03*
%TD*%
%TO.P,C21,2*%
%TO.N,GND*%
X107950000Y-81240000D03*
%TO.P,C21,1*%
%TO.N,+5V*%
X107950000Y-78740000D03*
%TD*%
%TO.P,C20,2*%
%TO.N,GND*%
X78740000Y-81240000D03*
%TO.P,C20,1*%
%TO.N,+5V*%
X78740000Y-78740000D03*
%TD*%
%TO.P,C19,2*%
%TO.N,GND*%
X50800000Y-81240000D03*
%TO.P,C19,1*%
%TO.N,+5V*%
X50800000Y-78740000D03*
%TD*%
%TO.P,C18,2*%
%TO.N,GND*%
X21590000Y-81240000D03*
%TO.P,C18,1*%
%TO.N,+5V*%
X21590000Y-78740000D03*
%TD*%
%TO.P,C17,2*%
%TO.N,GND*%
X163830000Y-60920000D03*
%TO.P,C17,1*%
%TO.N,+5V*%
X163830000Y-58420000D03*
%TD*%
%TO.P,C16,2*%
%TO.N,GND*%
X137160000Y-60920000D03*
%TO.P,C16,1*%
%TO.N,+5V*%
X137160000Y-58420000D03*
%TD*%
%TO.P,C15,2*%
%TO.N,GND*%
X107950000Y-60920000D03*
%TO.P,C15,1*%
%TO.N,+5V*%
X107950000Y-58420000D03*
%TD*%
%TO.P,C14,2*%
%TO.N,GND*%
X78740000Y-60920000D03*
%TO.P,C14,1*%
%TO.N,+5V*%
X78740000Y-58420000D03*
%TD*%
%TO.P,C13,2*%
%TO.N,GND*%
X50800000Y-60960000D03*
%TO.P,C13,1*%
%TO.N,+5V*%
X50800000Y-58460000D03*
%TD*%
%TO.P,C12,2*%
%TO.N,GND*%
X21220000Y-60190000D03*
%TO.P,C12,1*%
%TO.N,+5V*%
X21220000Y-57690000D03*
%TD*%
%TO.P,C11,2*%
%TO.N,GND*%
X163830000Y-40600000D03*
%TO.P,C11,1*%
%TO.N,+5V*%
X163830000Y-38100000D03*
%TD*%
%TO.P,C10,1*%
%TO.N,+5V*%
X50800000Y-38100000D03*
%TO.P,C10,2*%
%TO.N,GND*%
X50800000Y-40600000D03*
%TD*%
%TO.P,C9,1*%
%TO.N,+5V*%
X137160000Y-38100000D03*
%TO.P,C9,2*%
%TO.N,GND*%
X137160000Y-40600000D03*
%TD*%
%TO.P,C8,1*%
%TO.N,+5V*%
X107950000Y-38100000D03*
%TO.P,C8,2*%
%TO.N,GND*%
X107950000Y-40600000D03*
%TD*%
%TO.P,C7,1*%
%TO.N,+5V*%
X78740000Y-38100000D03*
%TO.P,C7,2*%
%TO.N,GND*%
X78740000Y-40600000D03*
%TD*%
%TO.P,C6,2*%
%TO.N,GND*%
X21590000Y-40600000D03*
%TO.P,C6,1*%
%TO.N,+5V*%
X21590000Y-38100000D03*
%TD*%
%TO.P,C5,2*%
%TO.N,GND*%
X147320000Y-13970000D03*
%TO.P,C5,1*%
%TO.N,+5V*%
X147320000Y-11470000D03*
%TD*%
%TO.P,C4,2*%
%TO.N,GND*%
X176530000Y-13930000D03*
%TO.P,C4,1*%
%TO.N,+5V*%
X176530000Y-11430000D03*
%TD*%
%TO.P,C3,2*%
%TO.N,GND*%
X119380000Y-13930000D03*
%TO.P,C3,1*%
%TO.N,+5V*%
X119380000Y-11430000D03*
%TD*%
%TO.P,C2,2*%
%TO.N,GND*%
X80010000Y-8850000D03*
%TO.P,C2,1*%
%TO.N,+5V*%
X80010000Y-6350000D03*
%TD*%
%TO.P,C1,2*%
%TO.N,GND*%
X21590000Y-20280000D03*
%TO.P,C1,1*%
%TO.N,+5V*%
X21590000Y-17780000D03*
%TD*%
D17*
%TO.N,IRclk*%
X134512500Y-40009000D03*
%TO.N,cycle_de*%
X144305400Y-32158000D03*
%TO.N,cycle_ex*%
X75151900Y-80615000D03*
X49766400Y-103858600D03*
%TO.N,cycle_3*%
X128186100Y-55982100D03*
X67704900Y-62741900D03*
%TO.N,op_nop*%
X40750100Y-16059200D03*
%TO.N,op_halt*%
X135025700Y-72585200D03*
X38242700Y-72585200D03*
%TO.N,op_page*%
X116233500Y-119235400D03*
%TO.N,op_sub*%
X71311500Y-31639700D03*
X163691500Y-31241700D03*
%TO.N,op_load*%
X100998000Y-76540000D03*
X41813900Y-57972300D03*
%TO.N,op_store*%
X65068100Y-73896900D03*
%TO.N,op_jalr*%
X94228700Y-68728200D03*
%TO.N,op_nand*%
X111106400Y-69225400D03*
X99839500Y-69615200D03*
%TO.N,op_add*%
X101477900Y-47148200D03*
%TO.N,op_inc*%
X106261000Y-24147200D03*
X101841200Y-39430500D03*
%TO.N,op_dec*%
X105796900Y-25637000D03*
X102497800Y-34968800D03*
%TO.N,op_out*%
X133125300Y-64770000D03*
%TO.N,op_in*%
X105778800Y-26690900D03*
X103271600Y-83575300D03*
X114399400Y-117061300D03*
%TO.N,op_jmpfar*%
X131877400Y-44347800D03*
X106316100Y-37733400D03*
%TO.N,op_pop*%
X164214600Y-76530800D03*
%TO.N,op_sli*%
X184017200Y-66966800D03*
%TO.N,halted*%
X42052100Y-78978200D03*
X48519900Y-93408900D03*
%TO.N,running*%
X149989500Y-86758000D03*
X42040300Y-89867400D03*
%TO.N,fpcontrol*%
X69756500Y-98605200D03*
%TO.N,CLK*%
X36336000Y-87523300D03*
%TO.N,Net-(J3-Pad2)*%
X69813400Y-16204300D03*
%TO.N,rdwb*%
X158329200Y-32883300D03*
%TO.N,regclk*%
X25158200Y-48539800D03*
%TO.N,addwb*%
X116843800Y-43049300D03*
%TO.N,incdec*%
X65103300Y-41863300D03*
%TO.N,PCload*%
X148221800Y-41587300D03*
%TO.N,SPaddr*%
X184762100Y-52797600D03*
X119474300Y-66813200D03*
%TO.N,Rrsaddr*%
X14722500Y-84564100D03*
%TO.N,reset*%
X9517400Y-42659200D03*
%TO.N,dpageclk*%
X121306600Y-71829300D03*
X26904200Y-71829300D03*
%TO.N,ipageclk*%
X121241500Y-70124200D03*
X25953100Y-70575600D03*
%TO.N,PCclk*%
X57818700Y-75102200D03*
%TO.N,memwr*%
X118274700Y-92383600D03*
%TO.N,memrd*%
X122884100Y-90850500D03*
X132616100Y-45913300D03*
%TO.N,inwb*%
X52884000Y-108698800D03*
%TO.N,op10*%
X151773500Y-19662100D03*
%TO.N,Net-(U21-Pad2)*%
X114550500Y-91607100D03*
%TO.N,Net-(U7-Pad6)*%
X153289700Y-39626300D03*
X97246800Y-48964500D03*
%TO.N,Net-(U7-Pad11)*%
X138781400Y-35225700D03*
%TO.N,Net-(U14-Pad6)*%
X142026800Y-56024600D03*
%TO.N,Net-(U10-Pad2)*%
X154082400Y-38848400D03*
%TO.N,Net-(U11-Pad11)*%
X24139000Y-38342800D03*
%TO.N,Net-(U12-Pad11)*%
X74423400Y-67568900D03*
%TO.N,not_fpcontrol*%
X72482600Y-89008700D03*
X153010600Y-80293700D03*
%TO.N,Net-(U14-Pad13)*%
X90161400Y-67895500D03*
%TO.N,Net-(U14-Pad9)*%
X93374700Y-60150600D03*
%TO.N,cycle_ex_3*%
X117342900Y-68330000D03*
X155126300Y-67581900D03*
X160509000Y-62654400D03*
%TO.N,Net-(U20-Pad5)*%
X125953400Y-74557700D03*
X98632400Y-74557700D03*
%TO.N,Net-(U20-Pad3)*%
X96404600Y-74634100D03*
%TO.N,Net-(U17-Pad8)*%
X50120800Y-86307700D03*
X62246300Y-59948000D03*
%TO.N,Net-(U14-Pad8)*%
X116188100Y-60095600D03*
%TO.N,Net-(U16-Pad2)*%
X144195900Y-68436900D03*
%TD*%
D18*
%TO.N,GND*%
X111760000Y-20320000D02*
X111760000Y-21445300D01*
X107950000Y-40600000D02*
X110634700Y-37915300D01*
X110634700Y-37915300D02*
X110634700Y-22570600D01*
X110634700Y-22570600D02*
X111760000Y-21445300D01*
X97790000Y-65895300D02*
X97790000Y-68591400D01*
X97790000Y-68591400D02*
X99815900Y-70617300D01*
X99815900Y-70617300D02*
X99815900Y-81938800D01*
X99815900Y-81938800D02*
X97790000Y-83964700D01*
X176530000Y-17780000D02*
X176530000Y-13930000D01*
X182880000Y-43324700D02*
X181754700Y-42199400D01*
X181754700Y-42199400D02*
X181754700Y-23004700D01*
X181754700Y-23004700D02*
X176530000Y-17780000D01*
X176530000Y-17780000D02*
X170035300Y-17780000D01*
X168910000Y-17780000D02*
X170035300Y-17780000D01*
X182880000Y-44450000D02*
X182880000Y-43324700D01*
X182880000Y-45012600D02*
X182880000Y-44450000D01*
X182880000Y-45012600D02*
X182880000Y-45575300D01*
X97790000Y-64770000D02*
X97790000Y-63644700D01*
X97790000Y-44450000D02*
X97790000Y-45575300D01*
X97790000Y-45575300D02*
X98915300Y-46700600D01*
X98915300Y-46700600D02*
X98915300Y-62519400D01*
X98915300Y-62519400D02*
X97790000Y-63644700D01*
X69850000Y-44450000D02*
X69850000Y-45575300D01*
X69850000Y-45575300D02*
X68716800Y-46708500D01*
X68716800Y-46708500D02*
X68716800Y-57779000D01*
X68716800Y-57779000D02*
X69850000Y-58912200D01*
X69850000Y-58912200D02*
X69850000Y-64770000D01*
X69850000Y-85090000D02*
X69850000Y-83964700D01*
X69850000Y-64770000D02*
X69850000Y-65895300D01*
X69850000Y-65895300D02*
X70975300Y-67020600D01*
X70975300Y-67020600D02*
X70975300Y-82839400D01*
X70975300Y-82839400D02*
X69850000Y-83964700D01*
X16510000Y-7620000D02*
X16510000Y-8795300D01*
X21590000Y-20280000D02*
X17685300Y-16375300D01*
X17685300Y-16375300D02*
X17685300Y-9603200D01*
X17685300Y-9603200D02*
X16877400Y-8795300D01*
X16877400Y-8795300D02*
X16510000Y-8795300D01*
X156210000Y-44450000D02*
X156210000Y-45575300D01*
X156210000Y-64770000D02*
X156210000Y-63644700D01*
X156210000Y-63644700D02*
X155084700Y-62519400D01*
X155084700Y-62519400D02*
X155084700Y-46700600D01*
X155084700Y-46700600D02*
X156210000Y-45575300D01*
X78740000Y-40600000D02*
X73660000Y-35520000D01*
X73660000Y-35520000D02*
X73660000Y-25400000D01*
X127000000Y-64770000D02*
X127000000Y-65895300D01*
X127000000Y-85090000D02*
X127000000Y-83964700D01*
X127000000Y-83964700D02*
X123301600Y-80266300D01*
X123301600Y-80266300D02*
X123301600Y-69593700D01*
X123301600Y-69593700D02*
X127000000Y-65895300D01*
X111760000Y-20320000D02*
X112885300Y-20320000D01*
X112885300Y-20320000D02*
X119275300Y-13930000D01*
X119275300Y-13930000D02*
X119380000Y-13930000D01*
X97790000Y-64770000D02*
X97790000Y-65895300D01*
X40640000Y-64770000D02*
X40640000Y-63644700D01*
X40640000Y-44450000D02*
X40640000Y-45575300D01*
X40640000Y-45575300D02*
X39514700Y-46700600D01*
X39514700Y-46700600D02*
X39514700Y-62519400D01*
X39514700Y-62519400D02*
X40640000Y-63644700D01*
X21590000Y-40600000D02*
X22355200Y-41365200D01*
X22355200Y-41365200D02*
X22355200Y-59054800D01*
X22355200Y-59054800D02*
X21220000Y-60190000D01*
X127000000Y-63644700D02*
X125874700Y-62519400D01*
X125874700Y-62519400D02*
X125874700Y-46700600D01*
X125874700Y-46700600D02*
X127000000Y-45575300D01*
X40640000Y-64770000D02*
X40640000Y-65895300D01*
X40640000Y-85090000D02*
X40640000Y-80005300D01*
X40640000Y-80005300D02*
X39514700Y-78880000D01*
X39514700Y-78880000D02*
X39514700Y-67020600D01*
X39514700Y-67020600D02*
X40640000Y-65895300D01*
X97790000Y-85090000D02*
X97790000Y-83964700D01*
X182880000Y-85090000D02*
X182880000Y-83964700D01*
X182880000Y-64770000D02*
X182880000Y-65895300D01*
X182880000Y-65895300D02*
X181754700Y-67020600D01*
X181754700Y-67020600D02*
X181754700Y-82839400D01*
X181754700Y-82839400D02*
X182880000Y-83964700D01*
X182880000Y-64207300D02*
X182880000Y-64770000D01*
X182880000Y-64207300D02*
X182880000Y-63644700D01*
X127000000Y-64207300D02*
X127000000Y-63644700D01*
X127000000Y-64770000D02*
X127000000Y-64272200D01*
X127000000Y-64207300D02*
X127000000Y-64272200D01*
X182880000Y-45575300D02*
X181754700Y-46700600D01*
X181754700Y-46700600D02*
X181754700Y-62519400D01*
X181754700Y-62519400D02*
X182880000Y-63644700D01*
X127000000Y-44450000D02*
X127000000Y-45575300D01*
X73660000Y-25400000D02*
X73660000Y-24274700D01*
X80010000Y-8850000D02*
X80010000Y-17924700D01*
X80010000Y-17924700D02*
X73660000Y-24274700D01*
%TO.N,+5V*%
X107950000Y-58420000D02*
X109480500Y-59950500D01*
X109480500Y-59950500D02*
X109480500Y-74065200D01*
X109480500Y-74065200D02*
X111760000Y-76344700D01*
X21590000Y-38100000D02*
X21590000Y-38736800D01*
X21590000Y-38736800D02*
X23187400Y-40334200D01*
X23187400Y-40334200D02*
X23187400Y-53812100D01*
X23187400Y-53812100D02*
X25400000Y-56024700D01*
X167640000Y-36830000D02*
X167640000Y-37955300D01*
X165100000Y-39370000D02*
X165100000Y-53484700D01*
X165100000Y-53484700D02*
X167640000Y-56024700D01*
X163830000Y-38100000D02*
X165100000Y-39370000D01*
X165100000Y-39370000D02*
X166514700Y-37955300D01*
X166514700Y-37955300D02*
X167640000Y-37955300D01*
X140970000Y-37955300D02*
X142095300Y-39080600D01*
X142095300Y-39080600D02*
X142095300Y-54899400D01*
X142095300Y-54899400D02*
X140970000Y-56024700D01*
X167640000Y-57150000D02*
X167640000Y-56024700D01*
X123190000Y-10160000D02*
X124315300Y-10160000D01*
X124315300Y-10160000D02*
X124315300Y-9878700D01*
X124315300Y-9878700D02*
X125642600Y-8551400D01*
X125642600Y-8551400D02*
X144401400Y-8551400D01*
X144401400Y-8551400D02*
X147320000Y-11470000D01*
X143510000Y-118110000D02*
X143510000Y-116984700D01*
X137160000Y-78740000D02*
X142384700Y-83964700D01*
X142384700Y-83964700D02*
X142384700Y-115859400D01*
X142384700Y-115859400D02*
X143510000Y-116984700D01*
X50800000Y-38100000D02*
X40640000Y-27940000D01*
X40640000Y-27940000D02*
X40640000Y-25400000D01*
X52070000Y-39370000D02*
X50800000Y-38100000D01*
X25400000Y-36830000D02*
X25400000Y-35704700D01*
X25400000Y-17780000D02*
X25400000Y-18905300D01*
X25400000Y-18905300D02*
X26525300Y-20030600D01*
X26525300Y-20030600D02*
X26525300Y-34579400D01*
X26525300Y-34579400D02*
X25400000Y-35704700D01*
X111760000Y-36830000D02*
X111760000Y-35704700D01*
X111760000Y-35704700D02*
X120507600Y-26957100D01*
X120507600Y-26957100D02*
X120507600Y-12557600D01*
X120507600Y-12557600D02*
X119380000Y-11430000D01*
X111760000Y-37392600D02*
X111760000Y-36830000D01*
X111760000Y-37392600D02*
X111760000Y-37955300D01*
X82550000Y-6840300D02*
X80500300Y-6840300D01*
X80500300Y-6840300D02*
X80010000Y-6350000D01*
X83820000Y-6205300D02*
X83185000Y-6840300D01*
X83185000Y-6840300D02*
X82550000Y-6840300D01*
X82550000Y-6840300D02*
X82550000Y-36830000D01*
X54610000Y-36830000D02*
X54610000Y-37955300D01*
X54610000Y-56024700D02*
X52070000Y-53484700D01*
X52070000Y-53484700D02*
X52070000Y-39370000D01*
X52070000Y-39370000D02*
X53484700Y-37955300D01*
X53484700Y-37955300D02*
X54610000Y-37955300D01*
X54610000Y-57150000D02*
X54610000Y-58275300D01*
X52050000Y-59710000D02*
X50800000Y-58460000D01*
X54610000Y-76344700D02*
X52050000Y-73784700D01*
X52050000Y-73784700D02*
X52050000Y-59710000D01*
X52050000Y-59710000D02*
X53484700Y-58275300D01*
X53484700Y-58275300D02*
X54610000Y-58275300D01*
X111760000Y-56024700D02*
X110634700Y-54899400D01*
X110634700Y-54899400D02*
X110634700Y-43515200D01*
X110634700Y-43515200D02*
X111759900Y-42390000D01*
X111759900Y-42390000D02*
X111760000Y-42390000D01*
X111760000Y-42390000D02*
X111760000Y-37955300D01*
X111760000Y-77470000D02*
X111760000Y-76344700D01*
X83820000Y-5080000D02*
X83820000Y-6205300D01*
X40640000Y-25400000D02*
X40640000Y-17780000D01*
X140970000Y-36830000D02*
X140970000Y-37955300D01*
X140970000Y-57150000D02*
X140970000Y-56024700D01*
X140970000Y-57712600D02*
X140970000Y-57150000D01*
X140970000Y-57712600D02*
X140970000Y-58275300D01*
X54610000Y-77470000D02*
X54610000Y-76344700D01*
X140970000Y-77470000D02*
X140970000Y-76344700D01*
X140970000Y-58275300D02*
X142095300Y-59400600D01*
X142095300Y-59400600D02*
X142095300Y-75219400D01*
X142095300Y-75219400D02*
X140970000Y-76344700D01*
X82550000Y-77470000D02*
X82550000Y-76344700D01*
X78740000Y-58420000D02*
X81424700Y-61104700D01*
X81424700Y-61104700D02*
X81424700Y-75219400D01*
X81424700Y-75219400D02*
X82550000Y-76344700D01*
X54610000Y-57150000D02*
X54610000Y-56024700D01*
X25400000Y-57150000D02*
X25400000Y-56024700D01*
X111760000Y-57150000D02*
X111760000Y-56024700D01*
X82550000Y-57150000D02*
X82550000Y-56024700D01*
X82550000Y-36830000D02*
X82550000Y-37955300D01*
X82550000Y-37955300D02*
X83675300Y-39080600D01*
X83675300Y-39080600D02*
X83675300Y-54899400D01*
X83675300Y-54899400D02*
X82550000Y-56024700D01*
X16510000Y-5080000D02*
X16510000Y-6255300D01*
X16510000Y-6255300D02*
X16877300Y-6255300D01*
X16877300Y-6255300D02*
X21590000Y-10968000D01*
X21590000Y-10968000D02*
X21590000Y-17780000D01*
%TO.N,IRclk*%
X134512500Y-40009000D02*
X138953500Y-44450000D01*
X138953500Y-44450000D02*
X140970000Y-44450000D01*
X134512500Y-40009000D02*
X134512500Y-12447800D01*
X134512500Y-12447800D02*
X133350000Y-11285300D01*
X133350000Y-10160000D02*
X133350000Y-11285300D01*
X151130000Y-77470000D02*
X150004700Y-77470000D01*
X140970000Y-44450000D02*
X140970000Y-45575300D01*
X140970000Y-45575300D02*
X139817900Y-46727400D01*
X139817900Y-46727400D02*
X139817900Y-77939700D01*
X139817900Y-77939700D02*
X140473600Y-78595400D01*
X140473600Y-78595400D02*
X144051500Y-78595400D01*
X144051500Y-78595400D02*
X144635400Y-78011500D01*
X144635400Y-78011500D02*
X144635400Y-77291900D01*
X144635400Y-77291900D02*
X145582600Y-76344700D01*
X145582600Y-76344700D02*
X149160800Y-76344700D01*
X149160800Y-76344700D02*
X150004700Y-77188600D01*
X150004700Y-77188600D02*
X150004700Y-77470000D01*
%TO.N,cycle_de*%
X143510000Y-76344700D02*
X144921200Y-74933500D01*
X144921200Y-74933500D02*
X144921200Y-32773800D01*
X144921200Y-32773800D02*
X144305400Y-32158000D01*
X33020000Y-101644700D02*
X32560400Y-101644700D01*
X32560400Y-101644700D02*
X31642800Y-100727100D01*
X31642800Y-100727100D02*
X31642800Y-74311500D01*
X31642800Y-74311500D02*
X13940100Y-56608800D01*
X13940100Y-56608800D02*
X13940100Y-31257900D01*
X13940100Y-31257900D02*
X11797500Y-29115300D01*
X11797500Y-29115300D02*
X11430000Y-29115300D01*
X144305400Y-32158000D02*
X137015300Y-24867900D01*
X137015300Y-24867900D02*
X137015300Y-12410600D01*
X137015300Y-12410600D02*
X135890000Y-11285300D01*
X11430000Y-27940000D02*
X11430000Y-29115300D01*
X33020000Y-102870000D02*
X33020000Y-101644700D01*
X135890000Y-10160000D02*
X135890000Y-11285300D01*
X143510000Y-77470000D02*
X143510000Y-76344700D01*
%TO.N,cycle_ex*%
X139555300Y-10160000D02*
X139555300Y-9878700D01*
X139555300Y-9878700D02*
X140406400Y-9027600D01*
X140406400Y-9027600D02*
X141432400Y-9027600D01*
X141432400Y-9027600D02*
X145646500Y-13241700D01*
X145646500Y-13241700D02*
X145646500Y-15369000D01*
X145646500Y-15369000D02*
X152520200Y-22242700D01*
X152520200Y-22242700D02*
X152520200Y-54874900D01*
X152520200Y-54874900D02*
X153670000Y-56024700D01*
X85090000Y-64770000D02*
X85090000Y-65895300D01*
X75151900Y-80615000D02*
X75776900Y-79990000D01*
X75776900Y-79990000D02*
X81662300Y-79990000D01*
X81662300Y-79990000D02*
X83964700Y-77687600D01*
X83964700Y-77687600D02*
X83964700Y-67020600D01*
X83964700Y-67020600D02*
X85090000Y-65895300D01*
X64770000Y-85090000D02*
X64770000Y-88855000D01*
X64770000Y-88855000D02*
X49766400Y-103858600D01*
X114300000Y-57150000D02*
X114300000Y-56024700D01*
X116840000Y-36830000D02*
X116840000Y-37955300D01*
X116840000Y-37955300D02*
X115425300Y-39370000D01*
X115425300Y-39370000D02*
X115425300Y-54899400D01*
X115425300Y-54899400D02*
X114300000Y-56024700D01*
X114300000Y-57150000D02*
X114300000Y-58275300D01*
X111760000Y-64770000D02*
X111760000Y-60815300D01*
X111760000Y-60815300D02*
X114300000Y-58275300D01*
X87630000Y-57150000D02*
X87630000Y-58275300D01*
X87630000Y-58275300D02*
X90170000Y-60815300D01*
X90170000Y-60815300D02*
X90170000Y-64770000D01*
X90170000Y-45575300D02*
X87630000Y-48115300D01*
X87630000Y-48115300D02*
X87630000Y-57150000D01*
X153670000Y-57150000D02*
X153670000Y-56024700D01*
X138430000Y-10160000D02*
X139555300Y-10160000D01*
X151130000Y-85090000D02*
X151130000Y-83964700D01*
X153670000Y-57150000D02*
X153670000Y-58275300D01*
X153670000Y-58275300D02*
X152255300Y-59690000D01*
X152255300Y-59690000D02*
X152255300Y-82839400D01*
X152255300Y-82839400D02*
X151130000Y-83964700D01*
X90170000Y-44450000D02*
X90170000Y-45575300D01*
X90170000Y-40495300D02*
X90170000Y-44450000D01*
X95250000Y-36830000D02*
X94124700Y-36830000D01*
X90170000Y-40495300D02*
X90740700Y-40495300D01*
X90740700Y-40495300D02*
X94124700Y-37111300D01*
X94124700Y-37111300D02*
X94124700Y-36830000D01*
X87630000Y-37955300D02*
X90170000Y-40495300D01*
X87630000Y-36830000D02*
X87630000Y-37955300D01*
%TO.N,Net-(D4-Pad2)*%
X48260000Y-100330000D02*
X47034600Y-101555400D01*
X47034600Y-101555400D02*
X47034600Y-103904900D01*
X47034600Y-103904900D02*
X60114400Y-116984700D01*
X60114400Y-116984700D02*
X75500800Y-116984700D01*
X75500800Y-116984700D02*
X76344700Y-117828600D01*
X76344700Y-117828600D02*
X76344700Y-118110000D01*
X77470000Y-118110000D02*
X76344700Y-118110000D01*
%TO.N,cycle_3*%
X64770000Y-77470000D02*
X64770000Y-78595300D01*
X48260000Y-102870000D02*
X48260000Y-101644700D01*
X48260000Y-101644700D02*
X48719500Y-101644700D01*
X48719500Y-101644700D02*
X63644700Y-86719500D01*
X63644700Y-86719500D02*
X63644700Y-79720600D01*
X63644700Y-79720600D02*
X64770000Y-78595300D01*
X140970000Y-11285300D02*
X140970000Y-11702700D01*
X140970000Y-11702700D02*
X150004700Y-20737400D01*
X150004700Y-20737400D02*
X150004700Y-54899400D01*
X150004700Y-54899400D02*
X151130000Y-56024700D01*
X64770000Y-76344700D02*
X65895300Y-75219400D01*
X65895300Y-75219400D02*
X65895300Y-64551500D01*
X65895300Y-64551500D02*
X67704900Y-62741900D01*
X124460000Y-77470000D02*
X124460000Y-74789300D01*
X124460000Y-74789300D02*
X128186100Y-71063200D01*
X128186100Y-71063200D02*
X128186100Y-55982100D01*
X64770000Y-77470000D02*
X64770000Y-76344700D01*
X140970000Y-10160000D02*
X140970000Y-11285300D01*
X151130000Y-57150000D02*
X151130000Y-56024700D01*
%TO.N,op_nop*%
X25400000Y-125774700D02*
X25859500Y-125774700D01*
X25859500Y-125774700D02*
X37061300Y-114572900D01*
X37061300Y-114572900D02*
X37061300Y-87222800D01*
X37061300Y-87222800D02*
X36970700Y-87132200D01*
X36970700Y-87132200D02*
X36970700Y-20854100D01*
X36970700Y-20854100D02*
X39370000Y-18454800D01*
X39370000Y-18454800D02*
X39370000Y-17439300D01*
X39370000Y-17439300D02*
X40750100Y-16059200D01*
X25400000Y-127000000D02*
X25400000Y-125774700D01*
%TO.N,op_halt*%
X38100000Y-77470000D02*
X38100000Y-76344700D01*
X133350000Y-17780000D02*
X133350000Y-40145700D01*
X133350000Y-40145700D02*
X135025700Y-41821400D01*
X135025700Y-41821400D02*
X135025700Y-72585200D01*
X38100000Y-76344700D02*
X38242700Y-76202000D01*
X38242700Y-76202000D02*
X38242700Y-72585200D01*
X38100000Y-78032600D02*
X38100000Y-77470000D01*
X38100000Y-78032600D02*
X38100000Y-78595300D01*
X33020000Y-125774700D02*
X33479500Y-125774700D01*
X33479500Y-125774700D02*
X39250300Y-120003900D01*
X39250300Y-120003900D02*
X39250300Y-79745600D01*
X39250300Y-79745600D02*
X38100000Y-78595300D01*
X33020000Y-127000000D02*
X33020000Y-125774700D01*
%TO.N,op_page*%
X119380000Y-65895300D02*
X119612800Y-65895300D01*
X119612800Y-65895300D02*
X120511600Y-66794100D01*
X120511600Y-66794100D02*
X120511600Y-89019900D01*
X120511600Y-89019900D02*
X116233500Y-93298000D01*
X116233500Y-93298000D02*
X116233500Y-119235400D01*
X119380000Y-64770000D02*
X119380000Y-65895300D01*
X138430000Y-17780000D02*
X138430000Y-18905300D01*
X148590000Y-64770000D02*
X148590000Y-63644700D01*
X148590000Y-63644700D02*
X147464700Y-62519400D01*
X147464700Y-62519400D02*
X147464700Y-27940000D01*
X147464700Y-27940000D02*
X138430000Y-18905300D01*
%TO.N,op_sub*%
X48260000Y-125774700D02*
X47800500Y-125774700D01*
X47800500Y-125774700D02*
X46119200Y-124093400D01*
X46119200Y-124093400D02*
X46119200Y-100092300D01*
X46119200Y-100092300D02*
X49363100Y-96848400D01*
X49363100Y-96848400D02*
X49363100Y-85593800D01*
X49363100Y-85593800D02*
X55735400Y-79221500D01*
X55735400Y-79221500D02*
X55735400Y-42472800D01*
X55735400Y-42472800D02*
X60252800Y-37955400D01*
X60252800Y-37955400D02*
X67829200Y-37955400D01*
X67829200Y-37955400D02*
X68580000Y-37204600D01*
X68580000Y-37204600D02*
X68580000Y-34371200D01*
X68580000Y-34371200D02*
X71311500Y-31639700D01*
X59690000Y-37392600D02*
X60252800Y-37955400D01*
X48260000Y-127000000D02*
X48260000Y-125774700D01*
X170180000Y-43324700D02*
X169054700Y-42199400D01*
X169054700Y-42199400D02*
X169054700Y-36604900D01*
X169054700Y-36604900D02*
X163691500Y-31241700D01*
X170180000Y-44450000D02*
X170180000Y-43324700D01*
X59690000Y-36830000D02*
X59690000Y-37392600D01*
%TO.N,op_load*%
X100998000Y-76540000D02*
X100998000Y-69290500D01*
X100998000Y-69290500D02*
X100215200Y-68507700D01*
X100215200Y-68507700D02*
X100215200Y-19830400D01*
X100215200Y-19830400D02*
X99579500Y-19194700D01*
X99579500Y-19194700D02*
X90869200Y-19194700D01*
X90869200Y-19194700D02*
X90025300Y-20038600D01*
X90025300Y-20038600D02*
X90025300Y-20320000D01*
X88900000Y-20320000D02*
X90025300Y-20320000D01*
X41813900Y-57972300D02*
X41813900Y-78190700D01*
X41813900Y-78190700D02*
X41326800Y-78677800D01*
X41326800Y-78677800D02*
X41326800Y-79278600D01*
X41326800Y-79278600D02*
X43572300Y-81524100D01*
X43572300Y-81524100D02*
X43572300Y-124599000D01*
X43572300Y-124599000D02*
X47198700Y-128225400D01*
X47198700Y-128225400D02*
X53429300Y-128225400D01*
X53429300Y-128225400D02*
X54654700Y-127000000D01*
X95250000Y-77470000D02*
X95250000Y-78595300D01*
X55880000Y-127000000D02*
X57105300Y-127000000D01*
X57105300Y-127000000D02*
X58330700Y-128225400D01*
X58330700Y-128225400D02*
X72199400Y-128225400D01*
X72199400Y-128225400D02*
X81280000Y-119144800D01*
X81280000Y-119144800D02*
X81280000Y-96669100D01*
X81280000Y-96669100D02*
X91295400Y-86653700D01*
X91295400Y-86653700D02*
X91295400Y-82549900D01*
X91295400Y-82549900D02*
X95250000Y-78595300D01*
X55267400Y-127000000D02*
X55880000Y-127000000D01*
X55267400Y-127000000D02*
X54654700Y-127000000D01*
%TO.N,op_store*%
X63500000Y-125774700D02*
X63040400Y-125774700D01*
X63040400Y-125774700D02*
X46576300Y-109310600D01*
X46576300Y-109310600D02*
X46576300Y-100272200D01*
X46576300Y-100272200D02*
X53265500Y-93583000D01*
X53265500Y-93583000D02*
X53265500Y-84335500D01*
X53265500Y-84335500D02*
X57791600Y-79809400D01*
X57791600Y-79809400D02*
X58999500Y-79809400D01*
X58999500Y-79809400D02*
X60960000Y-77848900D01*
X60960000Y-77848900D02*
X60960000Y-76581000D01*
X60960000Y-76581000D02*
X63644100Y-73896900D01*
X63644100Y-73896900D02*
X63644100Y-47520700D01*
X63644100Y-47520700D02*
X66040000Y-45124800D01*
X66040000Y-45124800D02*
X66040000Y-43969500D01*
X66040000Y-43969500D02*
X72036800Y-37972700D01*
X72036800Y-37972700D02*
X72036800Y-31339200D01*
X72036800Y-31339200D02*
X69988800Y-29291200D01*
X69988800Y-29291200D02*
X69988800Y-20711400D01*
X69988800Y-20711400D02*
X72390000Y-18310200D01*
X72390000Y-18310200D02*
X72390000Y-12366200D01*
X72390000Y-12366200D02*
X80824400Y-3931800D01*
X80824400Y-3931800D02*
X84322800Y-3931800D01*
X84322800Y-3931800D02*
X85016100Y-4625100D01*
X85016100Y-4625100D02*
X85016100Y-16207800D01*
X85016100Y-16207800D02*
X87630000Y-18821700D01*
X87630000Y-18821700D02*
X87630000Y-20659700D01*
X87630000Y-20659700D02*
X88428700Y-21458400D01*
X88428700Y-21458400D02*
X90301600Y-21458400D01*
X90301600Y-21458400D02*
X91440000Y-20320000D01*
X63644100Y-73896900D02*
X65068100Y-73896900D01*
X63500000Y-127000000D02*
X63500000Y-125774700D01*
%TO.N,op_skip*%
X85090000Y-44450000D02*
X85090000Y-54423400D01*
X85090000Y-54423400D02*
X83956700Y-55556700D01*
X83956700Y-55556700D02*
X83956700Y-58453700D01*
X83956700Y-58453700D02*
X86284800Y-60781800D01*
X86284800Y-60781800D02*
X86284800Y-87527900D01*
X86284800Y-87527900D02*
X78740000Y-95072700D01*
X78740000Y-95072700D02*
X78740000Y-118614200D01*
X78740000Y-118614200D02*
X71579500Y-125774700D01*
X71579500Y-125774700D02*
X71120000Y-125774700D01*
X71120000Y-127000000D02*
X71120000Y-125774700D01*
X93980000Y-21445300D02*
X83950600Y-31474700D01*
X83950600Y-31474700D02*
X83950600Y-38225900D01*
X83950600Y-38225900D02*
X85090000Y-39365300D01*
X85090000Y-39365300D02*
X85090000Y-44450000D01*
X93980000Y-20320000D02*
X93980000Y-21445300D01*
%TO.N,op_jalr*%
X78740000Y-125774700D02*
X79199500Y-125774700D01*
X79199500Y-125774700D02*
X83820000Y-121154200D01*
X83820000Y-121154200D02*
X83820000Y-100319600D01*
X83820000Y-100319600D02*
X96549400Y-87590200D01*
X96549400Y-87590200D02*
X96549400Y-81159800D01*
X96549400Y-81159800D02*
X99365600Y-78343600D01*
X99365600Y-78343600D02*
X99365600Y-73865100D01*
X99365600Y-73865100D02*
X94228700Y-68728200D01*
X95843600Y-35704700D02*
X95843600Y-22121700D01*
X95843600Y-22121700D02*
X96520000Y-21445300D01*
X94228700Y-68728200D02*
X94104300Y-68603800D01*
X94104300Y-68603800D02*
X94104300Y-40664800D01*
X94104300Y-40664800D02*
X96430300Y-38338800D01*
X96430300Y-38338800D02*
X96430300Y-36291400D01*
X96430300Y-36291400D02*
X95843600Y-35704700D01*
X95843600Y-35704700D02*
X87059200Y-35704700D01*
X87059200Y-35704700D02*
X86215300Y-36548600D01*
X86215300Y-36548600D02*
X86215300Y-36830000D01*
X96520000Y-20320000D02*
X96520000Y-21445300D01*
X85090000Y-36830000D02*
X86215300Y-36830000D01*
X78740000Y-127000000D02*
X78740000Y-125774700D01*
%TO.N,op_nand*%
X114300000Y-64770000D02*
X114300000Y-65895300D01*
X114300000Y-65895300D02*
X111106400Y-69088900D01*
X111106400Y-69088900D02*
X111106400Y-69225400D01*
X86360000Y-125774700D02*
X86819500Y-125774700D01*
X86819500Y-125774700D02*
X91584600Y-121009600D01*
X91584600Y-121009600D02*
X91584600Y-94810500D01*
X91584600Y-94810500D02*
X100266300Y-86128800D01*
X100266300Y-86128800D02*
X100266300Y-70042000D01*
X100266300Y-70042000D02*
X99839500Y-69615200D01*
X86360000Y-127000000D02*
X86360000Y-125774700D01*
X99060000Y-20320000D02*
X99060000Y-21445300D01*
X99839500Y-69615200D02*
X99526300Y-69302000D01*
X99526300Y-69302000D02*
X99526300Y-21911600D01*
X99526300Y-21911600D02*
X99060000Y-21445300D01*
%TO.N,op_add*%
X101477900Y-47148200D02*
X101115800Y-46786100D01*
X101115800Y-46786100D02*
X101115800Y-21929500D01*
X101115800Y-21929500D02*
X101600000Y-21445300D01*
X93980000Y-125774700D02*
X94439500Y-125774700D01*
X94439500Y-125774700D02*
X96520000Y-123694200D01*
X96520000Y-123694200D02*
X96520000Y-92621800D01*
X96520000Y-92621800D02*
X100716800Y-88425000D01*
X100716800Y-88425000D02*
X100716800Y-78172400D01*
X100716800Y-78172400D02*
X101729800Y-77159400D01*
X101729800Y-77159400D02*
X101729800Y-47400100D01*
X101729800Y-47400100D02*
X101477900Y-47148200D01*
X101600000Y-20320000D02*
X101600000Y-21445300D01*
X93980000Y-127000000D02*
X93980000Y-125774700D01*
%TO.N,Net-(D15-Pad2)*%
X110490000Y-118110000D02*
X109364700Y-118110000D01*
X101600000Y-124460000D02*
X103296000Y-124460000D01*
X103296000Y-124460000D02*
X109364700Y-118391300D01*
X109364700Y-118391300D02*
X109364700Y-118110000D01*
%TO.N,op_inc*%
X106261000Y-24147200D02*
X101772400Y-28635800D01*
X101772400Y-28635800D02*
X101772400Y-39361700D01*
X101772400Y-39361700D02*
X101841200Y-39430500D01*
X101600000Y-125774700D02*
X101140500Y-125774700D01*
X101140500Y-125774700D02*
X100347100Y-124981300D01*
X100347100Y-124981300D02*
X100347100Y-121325300D01*
X100347100Y-121325300D02*
X101734000Y-119938400D01*
X101734000Y-119938400D02*
X101734000Y-78429000D01*
X101734000Y-78429000D02*
X102219100Y-77943900D01*
X102219100Y-77943900D02*
X102219100Y-39808400D01*
X102219100Y-39808400D02*
X101841200Y-39430500D01*
X101600000Y-127000000D02*
X101600000Y-125774700D01*
X177800000Y-43324700D02*
X176674700Y-42199400D01*
X176674700Y-42199400D02*
X176674700Y-36571500D01*
X176674700Y-36571500D02*
X159008500Y-18905300D01*
X159008500Y-18905300D02*
X158750000Y-18905300D01*
X158750000Y-17780000D02*
X158750000Y-18905300D01*
X177800000Y-44450000D02*
X177800000Y-43324700D01*
X57150000Y-36830000D02*
X58275300Y-36830000D01*
X67310000Y-36830000D02*
X66184700Y-36830000D01*
X66184700Y-36830000D02*
X66184700Y-36548700D01*
X66184700Y-36548700D02*
X65340700Y-35704700D01*
X65340700Y-35704700D02*
X59119200Y-35704700D01*
X59119200Y-35704700D02*
X58275300Y-36548600D01*
X58275300Y-36548600D02*
X58275300Y-36830000D01*
%TO.N,op_dec*%
X102497800Y-34968800D02*
X102497800Y-28936100D01*
X102497800Y-28936100D02*
X105796900Y-25637000D01*
X109220000Y-125774700D02*
X109679500Y-125774700D01*
X109679500Y-125774700D02*
X111618100Y-123836100D01*
X111618100Y-123836100D02*
X111618100Y-116842700D01*
X111618100Y-116842700D02*
X102495700Y-107720300D01*
X102495700Y-107720300D02*
X102495700Y-83023700D01*
X102495700Y-83023700D02*
X102679200Y-82840200D01*
X102679200Y-82840200D02*
X102679200Y-35150200D01*
X102679200Y-35150200D02*
X102497800Y-34968800D01*
X109220000Y-127000000D02*
X109220000Y-125774700D01*
X161290000Y-17780000D02*
X161290000Y-19194700D01*
X161290000Y-19194700D02*
X177800000Y-35704700D01*
X177800000Y-36830000D02*
X177800000Y-35704700D01*
%TO.N,Net-(D17-Pad2)*%
X116840000Y-124460000D02*
X120650000Y-120650000D01*
X120650000Y-120650000D02*
X120650000Y-118110000D01*
%TO.N,op_out*%
X175260000Y-64770000D02*
X175260000Y-63644700D01*
X175260000Y-63644700D02*
X180340000Y-58564700D01*
X180340000Y-58564700D02*
X180340000Y-57150000D01*
X133125300Y-64770000D02*
X133125300Y-83447900D01*
X133125300Y-83447900D02*
X122056600Y-94516600D01*
X122056600Y-94516600D02*
X122056600Y-121017600D01*
X122056600Y-121017600D02*
X117299500Y-125774700D01*
X117299500Y-125774700D02*
X116840000Y-125774700D01*
X163830000Y-17780000D02*
X163830000Y-18905300D01*
X180340000Y-57150000D02*
X180340000Y-56024700D01*
X180340000Y-56024700D02*
X179214700Y-54899400D01*
X179214700Y-54899400D02*
X179214700Y-34290000D01*
X179214700Y-34290000D02*
X163830000Y-18905300D01*
X116840000Y-127000000D02*
X116840000Y-125774700D01*
%TO.N,op_in*%
X103271600Y-83575300D02*
X103271600Y-29198100D01*
X103271600Y-29198100D02*
X105778800Y-26690900D01*
X114399400Y-117061300D02*
X103271600Y-105933500D01*
X103271600Y-105933500D02*
X103271600Y-83575300D01*
%TO.N,op_jmpfar*%
X106316100Y-37733400D02*
X106316100Y-53876700D01*
X106316100Y-53876700D02*
X109930800Y-57491400D01*
X109930800Y-57491400D02*
X109930800Y-73878600D01*
X109930800Y-73878600D02*
X113174600Y-77122400D01*
X113174600Y-77122400D02*
X113174600Y-77960100D01*
X113174600Y-77960100D02*
X113826100Y-78611600D01*
X113826100Y-78611600D02*
X115425200Y-78611600D01*
X106316100Y-37733400D02*
X106987500Y-37062000D01*
X106987500Y-37062000D02*
X106987500Y-21752800D01*
X106987500Y-21752800D02*
X106680000Y-21445300D01*
X106680000Y-20320000D02*
X106680000Y-21445300D01*
X116840000Y-57150000D02*
X116840000Y-58275300D01*
X115425200Y-78611600D02*
X115425400Y-78611400D01*
X115425400Y-78611400D02*
X115425400Y-59689900D01*
X115425400Y-59689900D02*
X116840000Y-58275300D01*
X115425200Y-78611600D02*
X115493400Y-78679800D01*
X115493400Y-78679800D02*
X115493400Y-127917200D01*
X115493400Y-127917200D02*
X115801500Y-128225300D01*
X115801500Y-128225300D02*
X129629400Y-128225300D01*
X129629400Y-128225300D02*
X130854700Y-127000000D01*
X116840000Y-57150000D02*
X116840000Y-53870200D01*
X116840000Y-53870200D02*
X125730000Y-44980200D01*
X125730000Y-44980200D02*
X125730000Y-44048900D01*
X125730000Y-44048900D02*
X126454300Y-43324600D01*
X126454300Y-43324600D02*
X130854200Y-43324600D01*
X130854200Y-43324600D02*
X131877400Y-44347800D01*
X132080000Y-127000000D02*
X130854700Y-127000000D01*
%TO.N,op_push*%
X174134700Y-85090000D02*
X174134700Y-73343300D01*
X174134700Y-73343300D02*
X159056600Y-58265200D01*
X159056600Y-58265200D02*
X159056600Y-35263200D01*
X159056600Y-35263200D02*
X157592500Y-33799100D01*
X157592500Y-33799100D02*
X157592500Y-16265500D01*
X157592500Y-16265500D02*
X161290000Y-12568000D01*
X161290000Y-12568000D02*
X161290000Y-10160000D01*
X147175300Y-83913200D02*
X147175300Y-79720600D01*
X147175300Y-79720600D02*
X146050000Y-78595300D01*
X139700000Y-125774700D02*
X140159500Y-125774700D01*
X140159500Y-125774700D02*
X144700000Y-121234200D01*
X144700000Y-121234200D02*
X144700000Y-92225400D01*
X144700000Y-92225400D02*
X147175300Y-89750100D01*
X147175300Y-89750100D02*
X147175300Y-83913200D01*
X147175300Y-83913200D02*
X149016800Y-83913200D01*
X149016800Y-83913200D02*
X149715400Y-84611800D01*
X149715400Y-84611800D02*
X149715400Y-85310500D01*
X149715400Y-85310500D02*
X150620300Y-86215400D01*
X150620300Y-86215400D02*
X173218500Y-86215400D01*
X173218500Y-86215400D02*
X174134700Y-85299200D01*
X174134700Y-85299200D02*
X174134700Y-85090000D01*
X146050000Y-77470000D02*
X146050000Y-78595300D01*
X139700000Y-127000000D02*
X139700000Y-125774700D01*
X175260000Y-85090000D02*
X174134700Y-85090000D01*
%TO.N,op_pop*%
X164214600Y-76530800D02*
X164214600Y-65333900D01*
X164214600Y-65333900D02*
X157568300Y-58687600D01*
X157568300Y-58687600D02*
X157568300Y-35704600D01*
X157568300Y-35704600D02*
X154610200Y-32746500D01*
X154610200Y-32746500D02*
X154610200Y-23524600D01*
X154610200Y-23524600D02*
X150004600Y-18919000D01*
X150004600Y-18919000D02*
X150004600Y-13085600D01*
X150004600Y-13085600D02*
X152400000Y-10690200D01*
X152400000Y-10690200D02*
X152400000Y-9796300D01*
X152400000Y-9796300D02*
X153643900Y-8552400D01*
X153643900Y-8552400D02*
X166368000Y-8552400D01*
X166368000Y-8552400D02*
X167531500Y-9715900D01*
X167531500Y-9715900D02*
X167531500Y-10617700D01*
X167531500Y-10617700D02*
X166836500Y-11312700D01*
X166836500Y-11312700D02*
X164982700Y-11312700D01*
X164982700Y-11312700D02*
X163830000Y-10160000D01*
X177800000Y-77470000D02*
X177800000Y-78595300D01*
X147320000Y-127000000D02*
X148545300Y-127000000D01*
X148545300Y-127000000D02*
X149770700Y-128225400D01*
X149770700Y-128225400D02*
X156046400Y-128225400D01*
X156046400Y-128225400D02*
X176674700Y-107597100D01*
X176674700Y-107597100D02*
X176674700Y-79720600D01*
X176674700Y-79720600D02*
X177800000Y-78595300D01*
%TO.N,op_stackpage*%
X170180000Y-76344700D02*
X170180000Y-70080000D01*
X170180000Y-70080000D02*
X158606300Y-58506300D01*
X158606300Y-58506300D02*
X158606300Y-35625900D01*
X158606300Y-35625900D02*
X155060700Y-32080300D01*
X155060700Y-32080300D02*
X155060700Y-16903600D01*
X155060700Y-16903600D02*
X157480000Y-14484300D01*
X157480000Y-14484300D02*
X157480000Y-9827000D01*
X157480000Y-9827000D02*
X158272300Y-9034700D01*
X158272300Y-9034700D02*
X164400800Y-9034700D01*
X164400800Y-9034700D02*
X165244700Y-9878600D01*
X165244700Y-9878600D02*
X165244700Y-10160000D01*
X170180000Y-77470000D02*
X170180000Y-76344700D01*
X166370000Y-10160000D02*
X165244700Y-10160000D01*
X148590000Y-86215300D02*
X148590000Y-86627200D01*
X148590000Y-86627200D02*
X152355800Y-90393000D01*
X152355800Y-90393000D02*
X152355800Y-103963000D01*
X152355800Y-103963000D02*
X147447700Y-108871100D01*
X147447700Y-108871100D02*
X147447700Y-118741900D01*
X147447700Y-118741900D02*
X154480500Y-125774700D01*
X154480500Y-125774700D02*
X154940000Y-125774700D01*
X154940000Y-127000000D02*
X154940000Y-125774700D01*
X148590000Y-85090000D02*
X148590000Y-86215300D01*
%TO.N,op_sli*%
X184017200Y-66966800D02*
X184017200Y-20308100D01*
X184017200Y-20308100D02*
X185420000Y-18905300D01*
X162560000Y-125774700D02*
X163019500Y-125774700D01*
X163019500Y-125774700D02*
X184017200Y-104777000D01*
X184017200Y-104777000D02*
X184017200Y-66966800D01*
X185420000Y-17780000D02*
X185420000Y-18905300D01*
X162560000Y-127000000D02*
X162560000Y-125774700D01*
%TO.N,Net-(D24-Pad2)*%
X151130000Y-100330000D02*
X146050000Y-105410000D01*
X146050000Y-105410000D02*
X146050000Y-118110000D01*
%TO.N,halted*%
X48519900Y-93408900D02*
X48519900Y-85446000D01*
X48519900Y-85446000D02*
X42052100Y-78978200D01*
X25400000Y-45575300D02*
X29171400Y-49346700D01*
X29171400Y-49346700D02*
X29171400Y-71203200D01*
X29171400Y-71203200D02*
X33020000Y-75051800D01*
X33020000Y-75051800D02*
X33020000Y-77470000D01*
X25400000Y-44450000D02*
X25400000Y-45575300D01*
%TO.N,Net-(D25-Pad2)*%
X162560000Y-100330000D02*
X148590000Y-114300000D01*
X148590000Y-114300000D02*
X148590000Y-118110000D01*
%TO.N,running*%
X100185300Y-5080000D02*
X100185300Y-5361400D01*
X100185300Y-5361400D02*
X101029200Y-6205300D01*
X101029200Y-6205300D02*
X115755200Y-6205300D01*
X115755200Y-6205300D02*
X124380200Y-14830300D01*
X124380200Y-14830300D02*
X124380200Y-33981900D01*
X124380200Y-33981900D02*
X125730000Y-35331700D01*
X125730000Y-35331700D02*
X125730000Y-37174600D01*
X125730000Y-37174600D02*
X133854800Y-45299400D01*
X133854800Y-45299400D02*
X133854800Y-71613500D01*
X133854800Y-71613500D02*
X133850100Y-71618200D01*
X133850100Y-71618200D02*
X133850100Y-77094300D01*
X133850100Y-77094300D02*
X136745800Y-79990000D01*
X136745800Y-79990000D02*
X137516300Y-79990000D01*
X137516300Y-79990000D02*
X140970000Y-83443700D01*
X140970000Y-83443700D02*
X140970000Y-85090000D01*
X40640000Y-78595300D02*
X40640000Y-79228700D01*
X40640000Y-79228700D02*
X42040300Y-80629000D01*
X42040300Y-80629000D02*
X42040300Y-89867400D01*
X162560000Y-101644700D02*
X163019500Y-101644700D01*
X163019500Y-101644700D02*
X163790800Y-100873400D01*
X163790800Y-100873400D02*
X163790800Y-99824900D01*
X163790800Y-99824900D02*
X150723900Y-86758000D01*
X150723900Y-86758000D02*
X149989500Y-86758000D01*
X162560000Y-102870000D02*
X162560000Y-101644700D01*
X99060000Y-5080000D02*
X100185300Y-5080000D01*
X40640000Y-77470000D02*
X40640000Y-78595300D01*
%TO.N,Net-(D26-Pad2)*%
X151130000Y-118110000D02*
X152255300Y-118110000D01*
X173990000Y-100330000D02*
X169754000Y-100330000D01*
X169754000Y-100330000D02*
X152255300Y-117828700D01*
X152255300Y-117828700D02*
X152255300Y-118110000D01*
%TO.N,fpcontrol*%
X67310000Y-57150000D02*
X67310000Y-58275300D01*
X67310000Y-58275300D02*
X68435300Y-59400600D01*
X68435300Y-59400600D02*
X68435300Y-97284000D01*
X68435300Y-97284000D02*
X69756500Y-98605200D01*
%TO.N,doskip*%
X71120000Y-102870000D02*
X71120000Y-101644700D01*
X81509700Y-45012600D02*
X72534700Y-36037600D01*
X72534700Y-36037600D02*
X72534700Y-20030600D01*
X72534700Y-20030600D02*
X73660000Y-18905300D01*
X82550000Y-45012600D02*
X81509700Y-45012600D01*
X71120000Y-101644700D02*
X71579500Y-101644700D01*
X71579500Y-101644700D02*
X73217500Y-100006700D01*
X73217500Y-100006700D02*
X73217500Y-53304800D01*
X73217500Y-53304800D02*
X81509700Y-45012600D01*
X73660000Y-17780000D02*
X73660000Y-18905300D01*
X82550000Y-44450000D02*
X82550000Y-45012600D01*
%TO.N,CLK*%
X27940000Y-44450000D02*
X27940000Y-45575300D01*
X27940000Y-45575300D02*
X34145400Y-51780700D01*
X34145400Y-51780700D02*
X34145400Y-85332700D01*
X34145400Y-85332700D02*
X36336000Y-87523300D01*
X16510000Y-11335300D02*
X16510000Y-29536000D01*
X16510000Y-29536000D02*
X27940000Y-40966000D01*
X27940000Y-40966000D02*
X27940000Y-44450000D01*
X16510000Y-10160000D02*
X16510000Y-11335300D01*
%TO.N,Net-(J3-Pad8)*%
X93980000Y-5080000D02*
X92854700Y-5080000D01*
X25400000Y-6350000D02*
X26575300Y-6350000D01*
X26575300Y-6350000D02*
X26575300Y-5982700D01*
X26575300Y-5982700D02*
X29104700Y-3453300D01*
X29104700Y-3453300D02*
X91509300Y-3453300D01*
X91509300Y-3453300D02*
X92854700Y-4798700D01*
X92854700Y-4798700D02*
X92854700Y-5080000D01*
%TO.N,Net-(J3-Pad7)*%
X91440000Y-5080000D02*
X92604800Y-6244800D01*
X92604800Y-6244800D02*
X94463600Y-6244800D01*
X94463600Y-6244800D02*
X95250000Y-5458400D01*
X95250000Y-5458400D02*
X95250000Y-4706400D01*
X95250000Y-4706400D02*
X96046500Y-3909900D01*
X96046500Y-3909900D02*
X165185900Y-3909900D01*
X165185900Y-3909900D02*
X173956000Y-12680000D01*
X173956000Y-12680000D02*
X176900600Y-12680000D01*
X176900600Y-12680000D02*
X180340000Y-16119400D01*
X180340000Y-16119400D02*
X180340000Y-17780000D01*
%TO.N,Net-(J3-Pad2)*%
X158750000Y-10160000D02*
X158750000Y-14114700D01*
X158750000Y-14114700D02*
X156210000Y-16654700D01*
X156210000Y-17780000D02*
X156210000Y-16654700D01*
X58420000Y-22500800D02*
X58420000Y-25400000D01*
X41815300Y-6350000D02*
X41815300Y-7158100D01*
X41815300Y-7158100D02*
X42182500Y-7525300D01*
X42182500Y-7525300D02*
X43444500Y-7525300D01*
X43444500Y-7525300D02*
X58420000Y-22500800D01*
X69813400Y-16204300D02*
X69813400Y-18139500D01*
X69813400Y-18139500D02*
X65452100Y-22500800D01*
X65452100Y-22500800D02*
X58420000Y-22500800D01*
X40640000Y-6350000D02*
X41815300Y-6350000D01*
%TO.N,Net-(J3-Pad1)*%
X60960000Y-17780000D02*
X59834700Y-17780000D01*
X43180000Y-6350000D02*
X48686000Y-6350000D01*
X48686000Y-6350000D02*
X59834700Y-17498700D01*
X59834700Y-17498700D02*
X59834700Y-17780000D01*
X156210000Y-10160000D02*
X156210000Y-14114700D01*
X156210000Y-14114700D02*
X153670000Y-16654700D01*
X153670000Y-17780000D02*
X153670000Y-16654700D01*
%TO.N,Net-(J4-Pad4)*%
X66040000Y-17780000D02*
X66040000Y-16654700D01*
X54610000Y-6350000D02*
X55785300Y-6350000D01*
X55785300Y-6350000D02*
X55785300Y-5982700D01*
X55785300Y-5982700D02*
X56609700Y-5158300D01*
X56609700Y-5158300D02*
X57681100Y-5158300D01*
X57681100Y-5158300D02*
X58420000Y-5897200D01*
X58420000Y-5897200D02*
X58420000Y-9034700D01*
X58420000Y-9034700D02*
X66040000Y-16654700D01*
%TO.N,Net-(J4-Pad3)*%
X63500000Y-17780000D02*
X63500000Y-16654700D01*
X57150000Y-6350000D02*
X57150000Y-10304700D01*
X57150000Y-10304700D02*
X63500000Y-16654700D01*
%TO.N,Net-(J4-Pad2)*%
X59690000Y-6350000D02*
X60865300Y-6350000D01*
X60865300Y-6350000D02*
X60865300Y-5542000D01*
X60865300Y-5542000D02*
X61232700Y-5174600D01*
X61232700Y-5174600D02*
X63219400Y-5174600D01*
X63219400Y-5174600D02*
X71120000Y-13075200D01*
X71120000Y-13075200D02*
X71120000Y-17780000D01*
%TO.N,Net-(J4-Pad1)*%
X62230000Y-6350000D02*
X62230000Y-7525300D01*
X62230000Y-7525300D02*
X68580000Y-13875300D01*
X68580000Y-13875300D02*
X68580000Y-17780000D01*
%TO.N,rdwb*%
X172720000Y-64770000D02*
X172720000Y-63644700D01*
X172720000Y-63644700D02*
X172438700Y-63644700D01*
X172438700Y-63644700D02*
X159507000Y-50713000D01*
X159507000Y-50713000D02*
X159507000Y-34061100D01*
X159507000Y-34061100D02*
X158329200Y-32883300D01*
%TO.N,regclk*%
X11430000Y-25400000D02*
X11430000Y-26575300D01*
X11430000Y-26575300D02*
X11797300Y-26575300D01*
X11797300Y-26575300D02*
X23412500Y-38190500D01*
X23412500Y-38190500D02*
X23412500Y-39604200D01*
X23412500Y-39604200D02*
X23637800Y-39829500D01*
X23637800Y-39829500D02*
X23637800Y-47019400D01*
X23637800Y-47019400D02*
X25158200Y-48539800D01*
%TO.N,addwb*%
X119380000Y-36830000D02*
X119380000Y-37955300D01*
X119380000Y-37955300D02*
X116843800Y-40491500D01*
X116843800Y-40491500D02*
X116843800Y-43049300D01*
%TO.N,incdec*%
X69850000Y-36830000D02*
X69850000Y-37955300D01*
X65103300Y-41863300D02*
X69011300Y-37955300D01*
X69011300Y-37955300D02*
X69850000Y-37955300D01*
%TO.N,PCload*%
X148590000Y-36830000D02*
X148590000Y-41219100D01*
X148590000Y-41219100D02*
X148221800Y-41587300D01*
X11430000Y-66040000D02*
X11430000Y-68580000D01*
%TO.N,SPaddr*%
X119380000Y-77470000D02*
X119380000Y-76344700D01*
X119474300Y-66813200D02*
X119474300Y-76250400D01*
X119474300Y-76250400D02*
X119380000Y-76344700D01*
X193040000Y-10160000D02*
X193040000Y-11285300D01*
X184762100Y-52797600D02*
X191914700Y-45645000D01*
X191914700Y-45645000D02*
X191914700Y-12410600D01*
X191914700Y-12410600D02*
X193040000Y-11285300D01*
%TO.N,Rrsaddr*%
X11430000Y-62135300D02*
X11797300Y-62135300D01*
X11797300Y-62135300D02*
X14722500Y-65060500D01*
X14722500Y-65060500D02*
X14722500Y-84564100D01*
X11430000Y-60960000D02*
X11430000Y-62135300D01*
%TO.N,reset*%
X27940000Y-77470000D02*
X27940000Y-71245600D01*
X27940000Y-71245600D02*
X12605300Y-55910900D01*
X12605300Y-55910900D02*
X12605300Y-55880000D01*
X11430000Y-55880000D02*
X11430000Y-54704700D01*
X11430000Y-55880000D02*
X12605300Y-55880000D01*
X11430000Y-54704700D02*
X9517400Y-52792100D01*
X9517400Y-52792100D02*
X9517400Y-42659200D01*
X11430000Y-105504700D02*
X11797400Y-105504700D01*
X11797400Y-105504700D02*
X18233800Y-99068300D01*
X18233800Y-99068300D02*
X18233800Y-88301500D01*
X18233800Y-88301500D02*
X27940000Y-78595300D01*
X11430000Y-106680000D02*
X11430000Y-105504700D01*
X27940000Y-77470000D02*
X27940000Y-78595300D01*
%TO.N,dpageclk*%
X124460000Y-64770000D02*
X124460000Y-65895300D01*
X11430000Y-88900000D02*
X12605300Y-88900000D01*
X12605300Y-88900000D02*
X20174300Y-81331000D01*
X20174300Y-81331000D02*
X20174300Y-78559200D01*
X20174300Y-78559200D02*
X26904200Y-71829300D01*
X121306600Y-71829300D02*
X122820100Y-70315800D01*
X122820100Y-70315800D02*
X122820100Y-67535200D01*
X122820100Y-67535200D02*
X124460000Y-65895300D01*
%TO.N,ipageclk*%
X25953100Y-70575600D02*
X18728800Y-77799900D01*
X18728800Y-77799900D02*
X18728800Y-81638300D01*
X18728800Y-81638300D02*
X14007100Y-86360000D01*
X14007100Y-86360000D02*
X11430000Y-86360000D01*
X119380000Y-58275300D02*
X120505300Y-59400600D01*
X120505300Y-59400600D02*
X120505300Y-65762900D01*
X120505300Y-65762900D02*
X121241500Y-66499100D01*
X121241500Y-66499100D02*
X121241500Y-70124200D01*
X119380000Y-57150000D02*
X119380000Y-58275300D01*
%TO.N,PCclk*%
X59690000Y-45575300D02*
X58508100Y-46757200D01*
X58508100Y-46757200D02*
X58508100Y-74412800D01*
X58508100Y-74412800D02*
X57818700Y-75102200D01*
X59690000Y-44450000D02*
X59690000Y-45575300D01*
%TO.N,memwr*%
X124460000Y-86215300D02*
X124443000Y-86215300D01*
X124443000Y-86215300D02*
X118274700Y-92383600D01*
X124460000Y-85090000D02*
X124460000Y-86215300D01*
%TO.N,memrd*%
X122884100Y-90850500D02*
X128911400Y-84823200D01*
X128911400Y-84823200D02*
X128911400Y-49618000D01*
X128911400Y-49618000D02*
X132616100Y-45913300D01*
%TO.N,out3*%
X30480000Y-86215300D02*
X30480000Y-91925800D01*
X30480000Y-91925800D02*
X10246700Y-112159100D01*
X10246700Y-112159100D02*
X10246700Y-119928700D01*
X10246700Y-119928700D02*
X11062700Y-120744700D01*
X11062700Y-120744700D02*
X11430000Y-120744700D01*
X30480000Y-85090000D02*
X30480000Y-86215300D01*
X11430000Y-121920000D02*
X11430000Y-120744700D01*
%TO.N,outwb*%
X180340000Y-64770000D02*
X180340000Y-65895300D01*
X11430000Y-119380000D02*
X12605300Y-119380000D01*
X12605300Y-119380000D02*
X21909500Y-128684200D01*
X21909500Y-128684200D02*
X156224500Y-128684200D01*
X156224500Y-128684200D02*
X179214700Y-105694000D01*
X179214700Y-105694000D02*
X179214700Y-67020600D01*
X179214700Y-67020600D02*
X180340000Y-65895300D01*
%TO.N,inclr*%
X11430000Y-116840000D02*
X12605300Y-116840000D01*
X12605300Y-116840000D02*
X23990700Y-128225400D01*
X23990700Y-128225400D02*
X26492100Y-128225400D01*
X26492100Y-128225400D02*
X38100000Y-116617500D01*
X38100000Y-116617500D02*
X38100000Y-85090000D01*
%TO.N,inwb*%
X67310000Y-85090000D02*
X67310000Y-94272800D01*
X67310000Y-94272800D02*
X52884000Y-108698800D01*
%TO.N,Net-(U1-Pad2)*%
X27940000Y-25400000D02*
X27940000Y-26525300D01*
X30480000Y-44450000D02*
X30480000Y-43324700D01*
X30480000Y-43324700D02*
X29065300Y-41910000D01*
X29065300Y-41910000D02*
X29065300Y-27650600D01*
X29065300Y-27650600D02*
X27940000Y-26525300D01*
%TO.N,op10*%
X109220000Y-20320000D02*
X109220000Y-38442400D01*
X109220000Y-38442400D02*
X108312400Y-39350000D01*
X108312400Y-39350000D02*
X107560300Y-39350000D01*
X107560300Y-39350000D02*
X106800900Y-40109400D01*
X106800900Y-40109400D02*
X106800900Y-53499300D01*
X106800900Y-53499300D02*
X110381100Y-57079500D01*
X110381100Y-57079500D02*
X110381100Y-72425800D01*
X110381100Y-72425800D02*
X114300000Y-76344700D01*
X153670000Y-11285300D02*
X152544700Y-12410600D01*
X152544700Y-12410600D02*
X152544700Y-18890900D01*
X152544700Y-18890900D02*
X151773500Y-19662100D01*
X153670000Y-10160000D02*
X153670000Y-11285300D01*
X114300000Y-77470000D02*
X114300000Y-76344700D01*
%TO.N,Net-(U22-Pad3)*%
X125730000Y-11285300D02*
X126855300Y-12410600D01*
X126855300Y-12410600D02*
X126855300Y-35093700D01*
X126855300Y-35093700D02*
X134305100Y-42543500D01*
X134305100Y-42543500D02*
X134305100Y-71800100D01*
X134305100Y-71800100D02*
X134300400Y-71804800D01*
X134300400Y-71804800D02*
X134300400Y-73059100D01*
X134300400Y-73059100D02*
X145206000Y-83964700D01*
X145206000Y-83964700D02*
X146050000Y-83964700D01*
X125730000Y-10160000D02*
X125730000Y-11285300D01*
X146050000Y-85090000D02*
X146050000Y-83964700D01*
%TO.N,Net-(U21-Pad2)*%
X114300000Y-85090000D02*
X114300000Y-91356600D01*
X114300000Y-91356600D02*
X114550500Y-91607100D01*
%TO.N,Net-(U7-Pad6)*%
X95250000Y-44450000D02*
X95250000Y-45575300D01*
X153670000Y-37955300D02*
X153289700Y-38335600D01*
X153289700Y-38335600D02*
X153289700Y-39626300D01*
X153670000Y-36830000D02*
X153670000Y-37955300D01*
X95250000Y-45575300D02*
X97246800Y-47572100D01*
X97246800Y-47572100D02*
X97246800Y-48964500D01*
%TO.N,Net-(U7-Pad11)*%
X142384700Y-36830000D02*
X142384700Y-36548700D01*
X142384700Y-36548700D02*
X141061700Y-35225700D01*
X141061700Y-35225700D02*
X138781400Y-35225700D01*
X143510000Y-36830000D02*
X142384700Y-36830000D01*
%TO.N,Net-(U14-Pad6)*%
X143510000Y-44450000D02*
X143510000Y-54541400D01*
X143510000Y-54541400D02*
X142026800Y-56024600D01*
%TO.N,Net-(U10-Pad2)*%
X156210000Y-37955300D02*
X154975500Y-37955300D01*
X154975500Y-37955300D02*
X154082400Y-38848400D01*
X156210000Y-36830000D02*
X156210000Y-37955300D01*
%TO.N,Net-(U11-Pad6)*%
X180340000Y-36830000D02*
X180340000Y-44450000D01*
%TO.N,Net-(U11-Pad11)*%
X25400000Y-64770000D02*
X25400000Y-63644700D01*
X25400000Y-63644700D02*
X26590600Y-62454100D01*
X26590600Y-62454100D02*
X26590600Y-47717500D01*
X26590600Y-47717500D02*
X24139000Y-45265900D01*
X24139000Y-45265900D02*
X24139000Y-38342800D01*
%TO.N,Net-(U12-Pad6)*%
X38100000Y-57150000D02*
X38100000Y-64770000D01*
%TO.N,Net-(U12-Pad11)*%
X81424700Y-85090000D02*
X78587800Y-85090000D01*
X78587800Y-85090000D02*
X74423400Y-80925600D01*
X74423400Y-80925600D02*
X74423400Y-67568900D01*
X82550000Y-85090000D02*
X81424700Y-85090000D01*
%TO.N,not_fpcontrol*%
X69850000Y-58275300D02*
X72482600Y-60907900D01*
X72482600Y-60907900D02*
X72482600Y-89008700D01*
X153670000Y-77470000D02*
X153670000Y-79634300D01*
X153670000Y-79634300D02*
X153010600Y-80293700D01*
X69850000Y-57150000D02*
X69850000Y-58275300D01*
%TO.N,Net-(U14-Pad13)*%
X85090000Y-58275300D02*
X88900000Y-62085300D01*
X88900000Y-62085300D02*
X88900000Y-66634100D01*
X88900000Y-66634100D02*
X90161400Y-67895500D01*
X85090000Y-57150000D02*
X85090000Y-58275300D01*
%TO.N,Net-(U14-Pad5)*%
X92710000Y-65895300D02*
X92710000Y-69869400D01*
X92710000Y-69869400D02*
X97790000Y-74949400D01*
X97790000Y-74949400D02*
X97790000Y-76344700D01*
X97790000Y-77470000D02*
X97790000Y-76344700D01*
X92710000Y-64770000D02*
X92710000Y-65895300D01*
%TO.N,Net-(U14-Pad9)*%
X90170000Y-76344700D02*
X91295300Y-75219400D01*
X91295300Y-75219400D02*
X91295300Y-62230000D01*
X91295300Y-62230000D02*
X93374700Y-60150600D01*
X90170000Y-77470000D02*
X90170000Y-76344700D01*
%TO.N,Net-(U16-Pad6)*%
X153670000Y-65895300D02*
X153670000Y-67167900D01*
X153670000Y-67167900D02*
X163758200Y-77256100D01*
X163758200Y-77256100D02*
X164339400Y-77256100D01*
X164339400Y-77256100D02*
X165678600Y-78595300D01*
X165678600Y-78595300D02*
X170750800Y-78595300D01*
X170750800Y-78595300D02*
X171594700Y-77751400D01*
X171594700Y-77751400D02*
X171594700Y-77470000D01*
X153670000Y-64770000D02*
X153670000Y-65895300D01*
X172720000Y-77470000D02*
X171594700Y-77470000D01*
%TO.N,cycle_ex_3*%
X158997100Y-62654400D02*
X158997100Y-63711100D01*
X158997100Y-63711100D02*
X155126300Y-67581900D01*
X156210000Y-58275300D02*
X158997100Y-61062400D01*
X158997100Y-61062400D02*
X158997100Y-62654400D01*
X158997100Y-62654400D02*
X160509000Y-62654400D01*
X117342900Y-68330000D02*
X116840000Y-68832900D01*
X116840000Y-68832900D02*
X116840000Y-77470000D01*
X156210000Y-57150000D02*
X156210000Y-58275300D01*
%TO.N,Net-(U17-Pad1)*%
X167640000Y-64770000D02*
X167640000Y-65895300D01*
X167640000Y-65895300D02*
X175260000Y-73515300D01*
X175260000Y-73515300D02*
X175260000Y-77470000D01*
%TO.N,Net-(U20-Pad5)*%
X92710000Y-83964700D02*
X92923700Y-83964700D01*
X92923700Y-83964700D02*
X98915300Y-77973100D01*
X98915300Y-77973100D02*
X98915300Y-74840600D01*
X98915300Y-74840600D02*
X98632400Y-74557700D01*
X127000000Y-77470000D02*
X127000000Y-75604200D01*
X127000000Y-75604200D02*
X126999900Y-75604200D01*
X126999900Y-75604200D02*
X125953400Y-74557700D01*
X92710000Y-85090000D02*
X92710000Y-83964700D01*
%TO.N,Net-(U20-Pad3)*%
X87630000Y-83964700D02*
X87911300Y-83964700D01*
X87911300Y-83964700D02*
X93980000Y-77896000D01*
X93980000Y-77896000D02*
X93980000Y-77058700D01*
X93980000Y-77058700D02*
X96404600Y-74634100D01*
X87630000Y-85090000D02*
X87630000Y-83964700D01*
%TO.N,Net-(U17-Pad8)*%
X62246300Y-59948000D02*
X60960000Y-61234300D01*
X60960000Y-61234300D02*
X60960000Y-72986800D01*
X60960000Y-72986800D02*
X58368700Y-75578100D01*
X58368700Y-75578100D02*
X58368700Y-78059800D01*
X58368700Y-78059800D02*
X50120800Y-86307700D01*
%TO.N,Net-(U14-Pad8)*%
X116188100Y-60095600D02*
X118254600Y-62162100D01*
X118254600Y-62162100D02*
X118254600Y-82839300D01*
X118254600Y-82839300D02*
X119380000Y-83964700D01*
X119380000Y-85090000D02*
X119380000Y-83964700D01*
%TO.N,Net-(U16-Pad2)*%
X143510000Y-64770000D02*
X143510000Y-65895300D01*
X143510000Y-65895300D02*
X144195900Y-66581200D01*
X144195900Y-66581200D02*
X144195900Y-68436900D01*
%TD*%
M02*
