%TF.GenerationSoftware,KiCad,Pcbnew,5.1.6-c6e7f7d~87~ubuntu16.04.1*%
%TF.CreationDate,2022-03-08T12:57:42-05:00*%
%TF.ProjectId,video,76696465-6f2e-46b6-9963-61645f706362,rev?*%
%TF.SameCoordinates,Original*%
%TF.FileFunction,Copper,L2,Bot*%
%TF.FilePolarity,Positive*%
%FSLAX46Y46*%
G04 Gerber Fmt 4.6, Leading zero omitted, Abs format (unit mm)*
G04 Created by KiCad (PCBNEW 5.1.6-c6e7f7d~87~ubuntu16.04.1) date 2022-03-08 12:57:42*
%MOMM*%
%LPD*%
G01*
G04 APERTURE LIST*
%TA.AperFunction,ComponentPad*%
%ADD10C,1.600000*%
%TD*%
%TA.AperFunction,ComponentPad*%
%ADD11O,1.600000X1.600000*%
%TD*%
%TA.AperFunction,ComponentPad*%
%ADD12R,1.600000X1.600000*%
%TD*%
%TA.AperFunction,ComponentPad*%
%ADD13O,1.700000X1.700000*%
%TD*%
%TA.AperFunction,ComponentPad*%
%ADD14R,1.700000X1.700000*%
%TD*%
%TA.AperFunction,ComponentPad*%
%ADD15C,1.800000*%
%TD*%
%TA.AperFunction,ComponentPad*%
%ADD16R,1.800000X1.800000*%
%TD*%
%TA.AperFunction,ComponentPad*%
%ADD17C,1.440000*%
%TD*%
%TA.AperFunction,ComponentPad*%
%ADD18R,1.500000X1.500000*%
%TD*%
%TA.AperFunction,ComponentPad*%
%ADD19C,1.500000*%
%TD*%
%TA.AperFunction,ViaPad*%
%ADD20C,0.800000*%
%TD*%
%TA.AperFunction,Conductor*%
%ADD21C,0.250000*%
%TD*%
G04 APERTURE END LIST*
D10*
%TO.P,C6,2*%
%TO.N,GND*%
X1270000Y-34210000D03*
%TO.P,C6,1*%
%TO.N,+5V*%
X1270000Y-29210000D03*
%TD*%
%TO.P,C5,2*%
%TO.N,GND*%
X6350000Y-15160000D03*
%TO.P,C5,1*%
%TO.N,+5V*%
X6350000Y-10160000D03*
%TD*%
D11*
%TO.P,U31,14*%
%TO.N,+5V*%
X208280000Y-29210000D03*
%TO.P,U31,7*%
%TO.N,GND*%
X223520000Y-36830000D03*
%TO.P,U31,13*%
%TO.N,N/C*%
X210820000Y-29210000D03*
%TO.P,U31,6*%
%TO.N,~BS*%
X220980000Y-36830000D03*
%TO.P,U31,12*%
%TO.N,N/C*%
X213360000Y-29210000D03*
%TO.P,U31,5*%
%TO.N,Net-(U30-Pad8)*%
X218440000Y-36830000D03*
%TO.P,U31,11*%
%TO.N,N/C*%
X215900000Y-29210000D03*
%TO.P,U31,4*%
%TO.N,Net-(U28-Pad8)*%
X215900000Y-36830000D03*
%TO.P,U31,10*%
%TO.N,N/C*%
X218440000Y-29210000D03*
%TO.P,U31,3*%
%TO.N,Net-(C3-Pad1)*%
X213360000Y-36830000D03*
%TO.P,U31,9*%
%TO.N,N/C*%
X220980000Y-29210000D03*
%TO.P,U31,2*%
%TO.N,Net-(U30-Pad8)*%
X210820000Y-36830000D03*
%TO.P,U31,8*%
%TO.N,N/C*%
X223520000Y-29210000D03*
D12*
%TO.P,U31,1*%
%TO.N,Net-(U28-Pad6)*%
X208280000Y-36830000D03*
%TD*%
D11*
%TO.P,U30,14*%
%TO.N,+5V*%
X207010000Y-72390000D03*
%TO.P,U30,7*%
%TO.N,GND*%
X222250000Y-80010000D03*
%TO.P,U30,13*%
%TO.N,CR*%
X209550000Y-72390000D03*
%TO.P,U30,6*%
%TO.N,Net-(U30-Pad6)*%
X219710000Y-80010000D03*
%TO.P,U30,12*%
%TO.N,CR*%
X212090000Y-72390000D03*
%TO.P,U30,5*%
%TO.N,Net-(U13-Pad6)*%
X217170000Y-80010000D03*
%TO.P,U30,11*%
%TO.N,Net-(U19-Pad11)*%
X214630000Y-72390000D03*
%TO.P,U30,4*%
%TO.N,Net-(U13-Pad6)*%
X214630000Y-80010000D03*
%TO.P,U30,10*%
%TO.N,charinStrobe*%
X217170000Y-72390000D03*
%TO.P,U30,3*%
%TO.N,Net-(U26-Pad4)*%
X212090000Y-80010000D03*
%TO.P,U30,9*%
%TO.N,Net-(U30-Pad6)*%
X219710000Y-72390000D03*
%TO.P,U30,2*%
%TO.N,CLS*%
X209550000Y-80010000D03*
%TO.P,U30,8*%
%TO.N,Net-(U30-Pad8)*%
X222250000Y-72390000D03*
D12*
%TO.P,U30,1*%
%TO.N,CLS*%
X207010000Y-80010000D03*
%TD*%
D11*
%TO.P,R16,2*%
%TO.N,reset*%
X2540000Y-12700000D03*
D10*
%TO.P,R16,1*%
%TO.N,+5V*%
X2540000Y-22860000D03*
%TD*%
D11*
%TO.P,R15,2*%
%TO.N,CLS*%
X60960000Y-96520000D03*
D10*
%TO.P,R15,1*%
%TO.N,GND*%
X50800000Y-96520000D03*
%TD*%
%TO.P,C4,2*%
%TO.N,GND*%
X71120000Y-90130000D03*
D12*
%TO.P,C4,1*%
%TO.N,+5V*%
X71120000Y-87630000D03*
%TD*%
D10*
%TO.P,C3,2*%
%TO.N,+5V*%
X38180000Y-85090000D03*
%TO.P,C3,1*%
%TO.N,Net-(C3-Pad1)*%
X43180000Y-85090000D03*
%TD*%
D12*
%TO.P,U14,1*%
%TO.N,Net-(U14-Pad1)*%
X149860000Y-40640000D03*
D11*
%TO.P,U14,13*%
%TO.N,char3*%
X177800000Y-25400000D03*
%TO.P,U14,2*%
%TO.N,Net-(U14-Pad2)*%
X152400000Y-40640000D03*
%TO.P,U14,14*%
%TO.N,char4*%
X175260000Y-25400000D03*
%TO.P,U14,3*%
%TO.N,Net-(U14-Pad3)*%
X154940000Y-40640000D03*
%TO.P,U14,15*%
%TO.N,char5*%
X172720000Y-25400000D03*
%TO.P,U14,4*%
%TO.N,Net-(U14-Pad4)*%
X157480000Y-40640000D03*
%TO.P,U14,16*%
%TO.N,Net-(U14-Pad16)*%
X170180000Y-25400000D03*
%TO.P,U14,5*%
%TO.N,Net-(U14-Pad5)*%
X160020000Y-40640000D03*
%TO.P,U14,17*%
%TO.N,Net-(U14-Pad17)*%
X167640000Y-25400000D03*
%TO.P,U14,6*%
%TO.N,Net-(U14-Pad6)*%
X162560000Y-40640000D03*
%TO.P,U14,18*%
%TO.N,GND*%
X165100000Y-25400000D03*
%TO.P,U14,7*%
%TO.N,Net-(U14-Pad7)*%
X165100000Y-40640000D03*
%TO.P,U14,19*%
%TO.N,GND*%
X162560000Y-25400000D03*
%TO.P,U14,8*%
%TO.N,Net-(U14-Pad8)*%
X167640000Y-40640000D03*
%TO.P,U14,20*%
%TO.N,Net-(U14-Pad20)*%
X160020000Y-25400000D03*
%TO.P,U14,9*%
%TO.N,char0*%
X170180000Y-40640000D03*
%TO.P,U14,21*%
%TO.N,~vramWrite*%
X157480000Y-25400000D03*
%TO.P,U14,10*%
%TO.N,char1*%
X172720000Y-40640000D03*
%TO.P,U14,22*%
%TO.N,GND*%
X154940000Y-25400000D03*
%TO.P,U14,11*%
%TO.N,char2*%
X175260000Y-40640000D03*
%TO.P,U14,23*%
%TO.N,Net-(U14-Pad23)*%
X152400000Y-25400000D03*
%TO.P,U14,12*%
%TO.N,GND*%
X177800000Y-40640000D03*
%TO.P,U14,24*%
%TO.N,+5V*%
X149860000Y-25400000D03*
%TD*%
%TO.P,U10,24*%
%TO.N,+5V*%
X33020000Y-25400000D03*
%TO.P,U10,12*%
%TO.N,GND*%
X60960000Y-40640000D03*
%TO.P,U10,23*%
%TO.N,char5*%
X35560000Y-25400000D03*
%TO.P,U10,11*%
%TO.N,Net-(U10-Pad11)*%
X58420000Y-40640000D03*
%TO.P,U10,22*%
%TO.N,GND*%
X38100000Y-25400000D03*
%TO.P,U10,10*%
%TO.N,Net-(U10-Pad10)*%
X55880000Y-40640000D03*
%TO.P,U10,21*%
%TO.N,+5V*%
X40640000Y-25400000D03*
%TO.P,U10,9*%
%TO.N,Net-(U10-Pad9)*%
X53340000Y-40640000D03*
%TO.P,U10,20*%
%TO.N,GND*%
X43180000Y-25400000D03*
%TO.P,U10,8*%
%TO.N,charline0*%
X50800000Y-40640000D03*
%TO.P,U10,19*%
%TO.N,GND*%
X45720000Y-25400000D03*
%TO.P,U10,7*%
%TO.N,charline1*%
X48260000Y-40640000D03*
%TO.P,U10,18*%
%TO.N,GND*%
X48260000Y-25400000D03*
%TO.P,U10,6*%
%TO.N,charline2*%
X45720000Y-40640000D03*
%TO.P,U10,17*%
%TO.N,Net-(U10-Pad17)*%
X50800000Y-25400000D03*
%TO.P,U10,5*%
%TO.N,char0*%
X43180000Y-40640000D03*
%TO.P,U10,16*%
%TO.N,Net-(U10-Pad16)*%
X53340000Y-25400000D03*
%TO.P,U10,4*%
%TO.N,char1*%
X40640000Y-40640000D03*
%TO.P,U10,15*%
%TO.N,Net-(U10-Pad15)*%
X55880000Y-25400000D03*
%TO.P,U10,3*%
%TO.N,char2*%
X38100000Y-40640000D03*
%TO.P,U10,14*%
%TO.N,Net-(U10-Pad14)*%
X58420000Y-25400000D03*
%TO.P,U10,2*%
%TO.N,char3*%
X35560000Y-40640000D03*
%TO.P,U10,13*%
%TO.N,Net-(U10-Pad13)*%
X60960000Y-25400000D03*
D12*
%TO.P,U10,1*%
%TO.N,char4*%
X33020000Y-40640000D03*
%TD*%
D11*
%TO.P,U32,20*%
%TO.N,+5V*%
X172720000Y-72390000D03*
%TO.P,U32,10*%
%TO.N,GND*%
X195580000Y-80010000D03*
%TO.P,U32,19*%
%TO.N,Net-(U26-Pad4)*%
X175260000Y-72390000D03*
%TO.P,U32,9*%
%TO.N,char4*%
X193040000Y-80010000D03*
%TO.P,U32,18*%
%TO.N,char0*%
X177800000Y-72390000D03*
%TO.P,U32,8*%
%TO.N,GND*%
X190500000Y-80010000D03*
%TO.P,U32,17*%
X180340000Y-72390000D03*
%TO.P,U32,7*%
%TO.N,char5*%
X187960000Y-80010000D03*
%TO.P,U32,16*%
%TO.N,char1*%
X182880000Y-72390000D03*
%TO.P,U32,6*%
%TO.N,GND*%
X185420000Y-80010000D03*
%TO.P,U32,15*%
X185420000Y-72390000D03*
%TO.P,U32,5*%
%TO.N,char6*%
X182880000Y-80010000D03*
%TO.P,U32,14*%
%TO.N,char2*%
X187960000Y-72390000D03*
%TO.P,U32,4*%
%TO.N,GND*%
X180340000Y-80010000D03*
%TO.P,U32,13*%
%TO.N,+5V*%
X190500000Y-72390000D03*
%TO.P,U32,3*%
%TO.N,Net-(U32-Pad3)*%
X177800000Y-80010000D03*
%TO.P,U32,12*%
%TO.N,char3*%
X193040000Y-72390000D03*
%TO.P,U32,2*%
%TO.N,GND*%
X175260000Y-80010000D03*
%TO.P,U32,11*%
X195580000Y-72390000D03*
D12*
%TO.P,U32,1*%
%TO.N,Net-(U26-Pad4)*%
X172720000Y-80010000D03*
%TD*%
D11*
%TO.P,R13,2*%
%TO.N,Net-(D9-Pad1)*%
X101600000Y-87630000D03*
D10*
%TO.P,R13,1*%
%TO.N,GND*%
X91440000Y-87630000D03*
%TD*%
D11*
%TO.P,R12,2*%
%TO.N,Net-(D8-Pad1)*%
X115570000Y-87630000D03*
D10*
%TO.P,R12,1*%
%TO.N,GND*%
X105410000Y-87630000D03*
%TD*%
D11*
%TO.P,R11,2*%
%TO.N,Net-(D7-Pad1)*%
X129540000Y-87630000D03*
D10*
%TO.P,R11,1*%
%TO.N,GND*%
X119380000Y-87630000D03*
%TD*%
D11*
%TO.P,R10,2*%
%TO.N,Net-(D6-Pad1)*%
X143510000Y-87630000D03*
D10*
%TO.P,R10,1*%
%TO.N,GND*%
X133350000Y-87630000D03*
%TD*%
D11*
%TO.P,R9,2*%
%TO.N,Net-(D5-Pad1)*%
X157480000Y-87630000D03*
D10*
%TO.P,R9,1*%
%TO.N,GND*%
X147320000Y-87630000D03*
%TD*%
D11*
%TO.P,R8,2*%
%TO.N,Net-(D4-Pad1)*%
X171450000Y-87630000D03*
D10*
%TO.P,R8,1*%
%TO.N,GND*%
X161290000Y-87630000D03*
%TD*%
D11*
%TO.P,R7,2*%
%TO.N,Net-(D3-Pad1)*%
X185420000Y-87630000D03*
D10*
%TO.P,R7,1*%
%TO.N,GND*%
X175260000Y-87630000D03*
%TD*%
D11*
%TO.P,R6,2*%
%TO.N,Net-(D2-Pad1)*%
X199390000Y-87630000D03*
D10*
%TO.P,R6,1*%
%TO.N,GND*%
X189230000Y-87630000D03*
%TD*%
D11*
%TO.P,R5,2*%
%TO.N,Net-(D1-Pad1)*%
X213360000Y-87630000D03*
D10*
%TO.P,R5,1*%
%TO.N,GND*%
X203200000Y-87630000D03*
%TD*%
D13*
%TO.P,J2,12*%
%TO.N,+5V*%
X11430000Y-95250000D03*
%TO.P,J2,11*%
%TO.N,GND*%
X13970000Y-95250000D03*
%TO.P,J2,10*%
%TO.N,charinStrobe*%
X16510000Y-95250000D03*
%TO.P,J2,9*%
%TO.N,CLS*%
X19050000Y-95250000D03*
%TO.P,J2,8*%
%TO.N,reset*%
X21590000Y-95250000D03*
%TO.P,J2,7*%
%TO.N,charin6*%
X24130000Y-95250000D03*
%TO.P,J2,6*%
%TO.N,charin5*%
X26670000Y-95250000D03*
%TO.P,J2,5*%
%TO.N,charin4*%
X29210000Y-95250000D03*
%TO.P,J2,4*%
%TO.N,charin3*%
X31750000Y-95250000D03*
%TO.P,J2,3*%
%TO.N,charin2*%
X34290000Y-95250000D03*
%TO.P,J2,2*%
%TO.N,charin1*%
X36830000Y-95250000D03*
D14*
%TO.P,J2,1*%
%TO.N,charin0*%
X39370000Y-95250000D03*
%TD*%
D15*
%TO.P,D9,2*%
%TO.N,cursorY3*%
X137160000Y-92710000D03*
D16*
%TO.P,D9,1*%
%TO.N,Net-(D9-Pad1)*%
X137160000Y-95250000D03*
%TD*%
D15*
%TO.P,D8,2*%
%TO.N,cursorY2*%
X144780000Y-92710000D03*
D16*
%TO.P,D8,1*%
%TO.N,Net-(D8-Pad1)*%
X144780000Y-95250000D03*
%TD*%
D15*
%TO.P,D7,2*%
%TO.N,cursorY1*%
X152400000Y-92710000D03*
D16*
%TO.P,D7,1*%
%TO.N,Net-(D7-Pad1)*%
X152400000Y-95250000D03*
%TD*%
D15*
%TO.P,D6,2*%
%TO.N,cursorY0*%
X160020000Y-92710000D03*
D16*
%TO.P,D6,1*%
%TO.N,Net-(D6-Pad1)*%
X160020000Y-95250000D03*
%TD*%
D15*
%TO.P,D5,2*%
%TO.N,cursorX4*%
X173990000Y-92710000D03*
D16*
%TO.P,D5,1*%
%TO.N,Net-(D5-Pad1)*%
X173990000Y-95250000D03*
%TD*%
D15*
%TO.P,D4,2*%
%TO.N,cursorX3*%
X181610000Y-92710000D03*
D16*
%TO.P,D4,1*%
%TO.N,Net-(D4-Pad1)*%
X181610000Y-95250000D03*
%TD*%
D15*
%TO.P,D3,2*%
%TO.N,cursorX2*%
X189230000Y-92710000D03*
D16*
%TO.P,D3,1*%
%TO.N,Net-(D3-Pad1)*%
X189230000Y-95250000D03*
%TD*%
D15*
%TO.P,D2,2*%
%TO.N,cursorX1*%
X196850000Y-92710000D03*
D16*
%TO.P,D2,1*%
%TO.N,Net-(D2-Pad1)*%
X196850000Y-95250000D03*
%TD*%
D15*
%TO.P,D1,2*%
%TO.N,cursorX0*%
X204470000Y-92710000D03*
D16*
%TO.P,D1,1*%
%TO.N,Net-(D1-Pad1)*%
X204470000Y-95250000D03*
%TD*%
D11*
%TO.P,U29,14*%
%TO.N,+5V*%
X132080000Y-53340000D03*
%TO.P,U29,7*%
%TO.N,GND*%
X147320000Y-60960000D03*
%TO.P,U29,13*%
%TO.N,Net-(U25-Pad6)*%
X134620000Y-53340000D03*
%TO.P,U29,6*%
%TO.N,Net-(U25-Pad4)*%
X144780000Y-60960000D03*
%TO.P,U29,12*%
%TO.N,+5V*%
X137160000Y-53340000D03*
%TO.P,U29,5*%
%TO.N,Net-(U29-Pad5)*%
X142240000Y-60960000D03*
%TO.P,U29,11*%
%TO.N,HACTIVE*%
X139700000Y-53340000D03*
%TO.P,U29,4*%
%TO.N,+5V*%
X139700000Y-60960000D03*
%TO.P,U29,10*%
X142240000Y-53340000D03*
%TO.P,U29,3*%
%TO.N,Net-(U26-Pad3)*%
X137160000Y-60960000D03*
%TO.P,U29,9*%
%TO.N,cursor_inc*%
X144780000Y-53340000D03*
%TO.P,U29,2*%
%TO.N,+5V*%
X134620000Y-60960000D03*
%TO.P,U29,8*%
%TO.N,Net-(U29-Pad8)*%
X147320000Y-53340000D03*
D12*
%TO.P,U29,1*%
%TO.N,cursor_inc*%
X132080000Y-60960000D03*
%TD*%
D11*
%TO.P,U28,14*%
%TO.N,+5V*%
X106680000Y-53340000D03*
%TO.P,U28,7*%
%TO.N,GND*%
X121920000Y-60960000D03*
%TO.P,U28,13*%
%TO.N,Net-(U27-Pad8)*%
X109220000Y-53340000D03*
%TO.P,U28,6*%
%TO.N,Net-(U28-Pad6)*%
X119380000Y-60960000D03*
%TO.P,U28,12*%
%TO.N,Net-(U27-Pad6)*%
X111760000Y-53340000D03*
%TO.P,U28,5*%
%TO.N,charin0*%
X116840000Y-60960000D03*
%TO.P,U28,11*%
%TO.N,N/C*%
X114300000Y-53340000D03*
%TO.P,U28,4*%
%TO.N,Net-(U27-Pad2)*%
X114300000Y-60960000D03*
%TO.P,U28,10*%
%TO.N,Net-(U27-Pad4)*%
X116840000Y-53340000D03*
%TO.P,U28,3*%
%TO.N,N/C*%
X111760000Y-60960000D03*
%TO.P,U28,9*%
%TO.N,charin3*%
X119380000Y-53340000D03*
%TO.P,U28,2*%
%TO.N,charin2*%
X109220000Y-60960000D03*
%TO.P,U28,8*%
%TO.N,Net-(U28-Pad8)*%
X121920000Y-53340000D03*
D12*
%TO.P,U28,1*%
%TO.N,charin3*%
X106680000Y-60960000D03*
%TD*%
D11*
%TO.P,U27,14*%
%TO.N,+5V*%
X81280000Y-53600000D03*
%TO.P,U27,7*%
%TO.N,GND*%
X96520000Y-61220000D03*
%TO.P,U27,13*%
%TO.N,cursorX4*%
X83820000Y-53600000D03*
%TO.P,U27,6*%
%TO.N,Net-(U27-Pad6)*%
X93980000Y-61220000D03*
%TO.P,U27,12*%
%TO.N,Net-(U26-Pad10)*%
X86360000Y-53600000D03*
%TO.P,U27,5*%
%TO.N,charin1*%
X91440000Y-61220000D03*
%TO.P,U27,11*%
%TO.N,Net-(C3-Pad1)*%
X88900000Y-53600000D03*
%TO.P,U27,4*%
%TO.N,Net-(U27-Pad4)*%
X88900000Y-61220000D03*
%TO.P,U27,10*%
%TO.N,CR*%
X91440000Y-53600000D03*
%TO.P,U27,3*%
%TO.N,charin2*%
X86360000Y-61220000D03*
%TO.P,U27,9*%
%TO.N,charin0*%
X93980000Y-53600000D03*
%TO.P,U27,2*%
%TO.N,Net-(U27-Pad2)*%
X83820000Y-61220000D03*
%TO.P,U27,8*%
%TO.N,Net-(U27-Pad8)*%
X96520000Y-53600000D03*
D12*
%TO.P,U27,1*%
%TO.N,charin1*%
X81280000Y-61220000D03*
%TD*%
D11*
%TO.P,U26,14*%
%TO.N,+5V*%
X55880000Y-53340000D03*
%TO.P,U26,7*%
%TO.N,GND*%
X71120000Y-60960000D03*
%TO.P,U26,13*%
%TO.N,N/C*%
X58420000Y-53340000D03*
%TO.P,U26,6*%
%TO.N,~vramWrite*%
X68580000Y-60960000D03*
%TO.P,U26,12*%
%TO.N,N/C*%
X60960000Y-53340000D03*
%TO.P,U26,5*%
%TO.N,cursor_inc*%
X66040000Y-60960000D03*
%TO.P,U26,11*%
%TO.N,N/C*%
X63500000Y-53340000D03*
%TO.P,U26,4*%
%TO.N,Net-(U26-Pad4)*%
X63500000Y-60960000D03*
%TO.P,U26,10*%
%TO.N,Net-(U26-Pad10)*%
X66040000Y-53340000D03*
%TO.P,U26,3*%
%TO.N,Net-(U26-Pad3)*%
X60960000Y-60960000D03*
%TO.P,U26,9*%
%TO.N,Net-(U19-Pad11)*%
X68580000Y-53340000D03*
%TO.P,U26,2*%
%TO.N,charinStrobe*%
X58420000Y-60960000D03*
%TO.P,U26,8*%
%TO.N,Net-(U18-Pad5)*%
X71120000Y-53340000D03*
D12*
%TO.P,U26,1*%
%TO.N,Net-(U13-Pad6)*%
X55880000Y-60960000D03*
%TD*%
D11*
%TO.P,U25,14*%
%TO.N,+5V*%
X185420000Y-29210000D03*
%TO.P,U25,7*%
%TO.N,GND*%
X200660000Y-36830000D03*
%TO.P,U25,13*%
%TO.N,N/C*%
X187960000Y-29210000D03*
%TO.P,U25,6*%
%TO.N,Net-(U25-Pad6)*%
X198120000Y-36830000D03*
%TO.P,U25,12*%
%TO.N,N/C*%
X190500000Y-29210000D03*
%TO.P,U25,5*%
%TO.N,HACTIVE*%
X195580000Y-36830000D03*
%TO.P,U25,11*%
%TO.N,N/C*%
X193040000Y-29210000D03*
%TO.P,U25,4*%
%TO.N,Net-(U25-Pad4)*%
X193040000Y-36830000D03*
%TO.P,U25,10*%
%TO.N,~HACTIVE*%
X195580000Y-29210000D03*
%TO.P,U25,3*%
%TO.N,Net-(U11-Pad4)*%
X190500000Y-36830000D03*
%TO.P,U25,9*%
%TO.N,CLS*%
X198120000Y-29210000D03*
%TO.P,U25,2*%
%TO.N,videoAtCursor*%
X187960000Y-36830000D03*
%TO.P,U25,8*%
%TO.N,Net-(U14-Pad20)*%
X200660000Y-29210000D03*
D12*
%TO.P,U25,1*%
%TO.N,Net-(U25-Pad1)*%
X185420000Y-36830000D03*
%TD*%
D11*
%TO.P,U24,20*%
%TO.N,+5V*%
X157480000Y-53340000D03*
%TO.P,U24,10*%
%TO.N,GND*%
X180340000Y-60960000D03*
%TO.P,U24,19*%
%TO.N,Net-(U24-Pad19)*%
X160020000Y-53340000D03*
%TO.P,U24,9*%
%TO.N,char3*%
X177800000Y-60960000D03*
%TO.P,U24,18*%
%TO.N,Net-(U24-Pad18)*%
X162560000Y-53340000D03*
%TO.P,U24,8*%
%TO.N,charin3*%
X175260000Y-60960000D03*
%TO.P,U24,17*%
%TO.N,charin6*%
X165100000Y-53340000D03*
%TO.P,U24,7*%
%TO.N,charin2*%
X172720000Y-60960000D03*
%TO.P,U24,16*%
%TO.N,char6*%
X167640000Y-53340000D03*
%TO.P,U24,6*%
%TO.N,char2*%
X170180000Y-60960000D03*
%TO.P,U24,15*%
%TO.N,char5*%
X170180000Y-53340000D03*
%TO.P,U24,5*%
%TO.N,char1*%
X167640000Y-60960000D03*
%TO.P,U24,14*%
%TO.N,charin5*%
X172720000Y-53340000D03*
%TO.P,U24,4*%
%TO.N,charin1*%
X165100000Y-60960000D03*
%TO.P,U24,13*%
%TO.N,charin4*%
X175260000Y-53340000D03*
%TO.P,U24,3*%
%TO.N,charin0*%
X162560000Y-60960000D03*
%TO.P,U24,12*%
%TO.N,char4*%
X177800000Y-53340000D03*
%TO.P,U24,2*%
%TO.N,char0*%
X160020000Y-60960000D03*
%TO.P,U24,11*%
%TO.N,charinStrobe*%
X180340000Y-53340000D03*
D12*
%TO.P,U24,1*%
%TO.N,HACTIVE*%
X157480000Y-60960000D03*
%TD*%
D11*
%TO.P,U23,16*%
%TO.N,+5V*%
X146050000Y-72390000D03*
%TO.P,U23,8*%
%TO.N,GND*%
X163830000Y-80010000D03*
%TO.P,U23,15*%
%TO.N,H0*%
X148590000Y-72390000D03*
%TO.P,U23,7*%
%TO.N,Net-(U23-Pad7)*%
X161290000Y-80010000D03*
%TO.P,U23,14*%
%TO.N,GND*%
X151130000Y-72390000D03*
%TO.P,U23,6*%
%TO.N,videoAtCursor*%
X158750000Y-80010000D03*
%TO.P,U23,13*%
%TO.N,GND*%
X153670000Y-72390000D03*
%TO.P,U23,5*%
%TO.N,Net-(U23-Pad5)*%
X156210000Y-80010000D03*
%TO.P,U23,12*%
%TO.N,GND*%
X156210000Y-72390000D03*
%TO.P,U23,4*%
%TO.N,Net-(U23-Pad4)*%
X153670000Y-80010000D03*
%TO.P,U23,11*%
%TO.N,GND*%
X158750000Y-72390000D03*
%TO.P,U23,3*%
%TO.N,Net-(U22-Pad6)*%
X151130000Y-80010000D03*
%TO.P,U23,10*%
%TO.N,GND*%
X161290000Y-72390000D03*
%TO.P,U23,2*%
%TO.N,Net-(U23-Pad2)*%
X148590000Y-80010000D03*
%TO.P,U23,9*%
%TO.N,GND*%
X163830000Y-72390000D03*
D12*
%TO.P,U23,1*%
%TO.N,cursorX0*%
X146050000Y-80010000D03*
%TD*%
D11*
%TO.P,U22,16*%
%TO.N,+5V*%
X116840000Y-72390000D03*
%TO.P,U22,8*%
%TO.N,GND*%
X134620000Y-80010000D03*
%TO.P,U22,15*%
%TO.N,H4*%
X119380000Y-72390000D03*
%TO.P,U22,7*%
%TO.N,Net-(U22-Pad7)*%
X132080000Y-80010000D03*
%TO.P,U22,14*%
%TO.N,cursorX3*%
X121920000Y-72390000D03*
%TO.P,U22,6*%
%TO.N,Net-(U22-Pad6)*%
X129540000Y-80010000D03*
%TO.P,U22,13*%
%TO.N,H3*%
X124460000Y-72390000D03*
%TO.P,U22,5*%
%TO.N,Net-(U22-Pad5)*%
X127000000Y-80010000D03*
%TO.P,U22,12*%
%TO.N,H2*%
X127000000Y-72390000D03*
%TO.P,U22,4*%
%TO.N,Net-(U22-Pad4)*%
X124460000Y-80010000D03*
%TO.P,U22,11*%
%TO.N,cursorX2*%
X129540000Y-72390000D03*
%TO.P,U22,3*%
%TO.N,Net-(U21-Pad6)*%
X121920000Y-80010000D03*
%TO.P,U22,10*%
%TO.N,H1*%
X132080000Y-72390000D03*
%TO.P,U22,2*%
%TO.N,Net-(U22-Pad2)*%
X119380000Y-80010000D03*
%TO.P,U22,9*%
%TO.N,cursorX1*%
X134620000Y-72390000D03*
D12*
%TO.P,U22,1*%
%TO.N,cursorX4*%
X116840000Y-80010000D03*
%TD*%
D11*
%TO.P,U21,16*%
%TO.N,+5V*%
X88900000Y-72390000D03*
%TO.P,U21,8*%
%TO.N,GND*%
X106680000Y-80010000D03*
%TO.P,U21,15*%
%TO.N,V3*%
X91440000Y-72390000D03*
%TO.P,U21,7*%
%TO.N,Net-(U21-Pad7)*%
X104140000Y-80010000D03*
%TO.P,U21,14*%
%TO.N,cursorY2*%
X93980000Y-72390000D03*
%TO.P,U21,6*%
%TO.N,Net-(U21-Pad6)*%
X101600000Y-80010000D03*
%TO.P,U21,13*%
%TO.N,V2*%
X96520000Y-72390000D03*
%TO.P,U21,5*%
%TO.N,Net-(U21-Pad5)*%
X99060000Y-80010000D03*
%TO.P,U21,12*%
%TO.N,V1*%
X99060000Y-72390000D03*
%TO.P,U21,4*%
%TO.N,Net-(U21-Pad4)*%
X96520000Y-80010000D03*
%TO.P,U21,11*%
%TO.N,cursorY1*%
X101600000Y-72390000D03*
%TO.P,U21,3*%
%TO.N,+5V*%
X93980000Y-80010000D03*
%TO.P,U21,10*%
%TO.N,V0*%
X104140000Y-72390000D03*
%TO.P,U21,2*%
%TO.N,Net-(U21-Pad2)*%
X91440000Y-80010000D03*
%TO.P,U21,9*%
%TO.N,cursorY0*%
X106680000Y-72390000D03*
D12*
%TO.P,U21,1*%
%TO.N,cursorY3*%
X88900000Y-80010000D03*
%TD*%
D11*
%TO.P,U20,16*%
%TO.N,+5V*%
X60960000Y-72390000D03*
%TO.P,U20,8*%
%TO.N,GND*%
X78740000Y-80010000D03*
%TO.P,U20,15*%
X63500000Y-72390000D03*
%TO.P,U20,7*%
%TO.N,cursorX3*%
X76200000Y-80010000D03*
%TO.P,U20,14*%
%TO.N,CLS*%
X66040000Y-72390000D03*
%TO.P,U20,6*%
%TO.N,cursorX2*%
X73660000Y-80010000D03*
%TO.P,U20,13*%
%TO.N,Net-(U19-Pad4)*%
X68580000Y-72390000D03*
%TO.P,U20,5*%
%TO.N,cursor_inc*%
X71120000Y-80010000D03*
%TO.P,U20,12*%
%TO.N,Net-(U19-Pad5)*%
X71120000Y-72390000D03*
%TO.P,U20,4*%
%TO.N,~BS*%
X68580000Y-80010000D03*
%TO.P,U20,11*%
%TO.N,Net-(U19-Pad11)*%
X73660000Y-72390000D03*
%TO.P,U20,3*%
%TO.N,cursorX0*%
X66040000Y-80010000D03*
%TO.P,U20,10*%
%TO.N,GND*%
X76200000Y-72390000D03*
%TO.P,U20,2*%
%TO.N,cursorX1*%
X63500000Y-80010000D03*
%TO.P,U20,9*%
%TO.N,GND*%
X78740000Y-72390000D03*
D12*
%TO.P,U20,1*%
X60960000Y-80010000D03*
%TD*%
D11*
%TO.P,U19,16*%
%TO.N,+5V*%
X33020000Y-72390000D03*
%TO.P,U19,8*%
%TO.N,GND*%
X50800000Y-80010000D03*
%TO.P,U19,15*%
X35560000Y-72390000D03*
%TO.P,U19,7*%
%TO.N,Net-(U19-Pad7)*%
X48260000Y-80010000D03*
%TO.P,U19,14*%
%TO.N,CLS*%
X38100000Y-72390000D03*
%TO.P,U19,6*%
%TO.N,Net-(U19-Pad6)*%
X45720000Y-80010000D03*
%TO.P,U19,13*%
%TO.N,Net-(U19-Pad13)*%
X40640000Y-72390000D03*
%TO.P,U19,5*%
%TO.N,Net-(U19-Pad5)*%
X43180000Y-80010000D03*
%TO.P,U19,12*%
%TO.N,Net-(U19-Pad12)*%
X43180000Y-72390000D03*
%TO.P,U19,4*%
%TO.N,Net-(U19-Pad4)*%
X40640000Y-80010000D03*
%TO.P,U19,11*%
%TO.N,Net-(U19-Pad11)*%
X45720000Y-72390000D03*
%TO.P,U19,3*%
%TO.N,cursorX4*%
X38100000Y-80010000D03*
%TO.P,U19,10*%
%TO.N,GND*%
X48260000Y-72390000D03*
%TO.P,U19,2*%
%TO.N,Net-(U19-Pad2)*%
X35560000Y-80010000D03*
%TO.P,U19,9*%
%TO.N,GND*%
X50800000Y-72390000D03*
D12*
%TO.P,U19,1*%
X33020000Y-80010000D03*
%TD*%
D11*
%TO.P,U18,16*%
%TO.N,+5V*%
X5080000Y-72390000D03*
%TO.P,U18,8*%
%TO.N,GND*%
X22860000Y-80010000D03*
%TO.P,U18,15*%
X7620000Y-72390000D03*
%TO.P,U18,7*%
%TO.N,cursorY3*%
X20320000Y-80010000D03*
%TO.P,U18,14*%
%TO.N,CLS*%
X10160000Y-72390000D03*
%TO.P,U18,6*%
%TO.N,cursorY2*%
X17780000Y-80010000D03*
%TO.P,U18,13*%
%TO.N,Net-(U18-Pad13)*%
X12700000Y-72390000D03*
%TO.P,U18,5*%
%TO.N,Net-(U18-Pad5)*%
X15240000Y-80010000D03*
%TO.P,U18,12*%
%TO.N,Net-(U18-Pad12)*%
X15240000Y-72390000D03*
%TO.P,U18,4*%
%TO.N,+5V*%
X12700000Y-80010000D03*
%TO.P,U18,11*%
X17780000Y-72390000D03*
%TO.P,U18,3*%
%TO.N,cursorY0*%
X10160000Y-80010000D03*
%TO.P,U18,10*%
%TO.N,GND*%
X20320000Y-72390000D03*
%TO.P,U18,2*%
%TO.N,cursorY1*%
X7620000Y-80010000D03*
%TO.P,U18,9*%
%TO.N,GND*%
X22860000Y-72390000D03*
D12*
%TO.P,U18,1*%
X5080000Y-80010000D03*
%TD*%
D11*
%TO.P,U17,16*%
%TO.N,+5V*%
X123190000Y-29210000D03*
%TO.P,U17,8*%
%TO.N,GND*%
X140970000Y-36830000D03*
%TO.P,U17,15*%
X125730000Y-29210000D03*
%TO.P,U17,7*%
%TO.N,Net-(U17-Pad7)*%
X138430000Y-36830000D03*
%TO.P,U17,14*%
%TO.N,H0*%
X128270000Y-29210000D03*
%TO.P,U17,6*%
%TO.N,Net-(U17-Pad6)*%
X135890000Y-36830000D03*
%TO.P,U17,13*%
%TO.N,cursorX0*%
X130810000Y-29210000D03*
%TO.P,U17,5*%
%TO.N,Net-(U17-Pad5)*%
X133350000Y-36830000D03*
%TO.P,U17,12*%
%TO.N,Net-(U14-Pad8)*%
X133350000Y-29210000D03*
%TO.P,U17,4*%
%TO.N,Net-(U17-Pad4)*%
X130810000Y-36830000D03*
%TO.P,U17,11*%
%TO.N,Net-(U17-Pad11)*%
X135890000Y-29210000D03*
%TO.P,U17,3*%
%TO.N,Net-(U17-Pad3)*%
X128270000Y-36830000D03*
%TO.P,U17,10*%
%TO.N,Net-(U17-Pad10)*%
X138430000Y-29210000D03*
%TO.P,U17,2*%
%TO.N,Net-(U17-Pad2)*%
X125730000Y-36830000D03*
%TO.P,U17,9*%
%TO.N,Net-(U17-Pad9)*%
X140970000Y-29210000D03*
D12*
%TO.P,U17,1*%
%TO.N,~HACTIVE*%
X123190000Y-36830000D03*
%TD*%
D11*
%TO.P,U16,16*%
%TO.N,+5V*%
X96520000Y-29210000D03*
%TO.P,U16,8*%
%TO.N,GND*%
X114300000Y-36830000D03*
%TO.P,U16,15*%
X99060000Y-29210000D03*
%TO.P,U16,7*%
%TO.N,Net-(U14-Pad6)*%
X111760000Y-36830000D03*
%TO.P,U16,14*%
%TO.N,H4*%
X101600000Y-29210000D03*
%TO.P,U16,6*%
%TO.N,cursorX2*%
X109220000Y-36830000D03*
%TO.P,U16,13*%
%TO.N,cursorX4*%
X104140000Y-29210000D03*
%TO.P,U16,5*%
%TO.N,H2*%
X106680000Y-36830000D03*
%TO.P,U16,12*%
%TO.N,Net-(U14-Pad4)*%
X106680000Y-29210000D03*
%TO.P,U16,4*%
%TO.N,Net-(U14-Pad7)*%
X104140000Y-36830000D03*
%TO.P,U16,11*%
%TO.N,H3*%
X109220000Y-29210000D03*
%TO.P,U16,3*%
%TO.N,cursorX1*%
X101600000Y-36830000D03*
%TO.P,U16,10*%
%TO.N,cursorX3*%
X111760000Y-29210000D03*
%TO.P,U16,2*%
%TO.N,H1*%
X99060000Y-36830000D03*
%TO.P,U16,9*%
%TO.N,Net-(U14-Pad5)*%
X114300000Y-29210000D03*
D12*
%TO.P,U16,1*%
%TO.N,~HACTIVE*%
X96520000Y-36830000D03*
%TD*%
D11*
%TO.P,U15,16*%
%TO.N,+5V*%
X69850000Y-29210000D03*
%TO.P,U15,8*%
%TO.N,GND*%
X87630000Y-36830000D03*
%TO.P,U15,15*%
X72390000Y-29210000D03*
%TO.P,U15,7*%
%TO.N,Net-(U14-Pad2)*%
X85090000Y-36830000D03*
%TO.P,U15,14*%
%TO.N,V3*%
X74930000Y-29210000D03*
%TO.P,U15,6*%
%TO.N,cursorY1*%
X82550000Y-36830000D03*
%TO.P,U15,13*%
%TO.N,cursorY3*%
X77470000Y-29210000D03*
%TO.P,U15,5*%
%TO.N,V1*%
X80010000Y-36830000D03*
%TO.P,U15,12*%
%TO.N,Net-(U14-Pad23)*%
X80010000Y-29210000D03*
%TO.P,U15,4*%
%TO.N,Net-(U14-Pad3)*%
X77470000Y-36830000D03*
%TO.P,U15,11*%
%TO.N,V2*%
X82550000Y-29210000D03*
%TO.P,U15,3*%
%TO.N,cursorY0*%
X74930000Y-36830000D03*
%TO.P,U15,10*%
%TO.N,cursorY2*%
X85090000Y-29210000D03*
%TO.P,U15,2*%
%TO.N,V0*%
X72390000Y-36830000D03*
%TO.P,U15,9*%
%TO.N,Net-(U14-Pad1)*%
X87630000Y-29210000D03*
D12*
%TO.P,U15,1*%
%TO.N,~HACTIVE*%
X69850000Y-36830000D03*
%TD*%
D11*
%TO.P,U13,14*%
%TO.N,+5V*%
X190500000Y-53340000D03*
%TO.P,U13,7*%
%TO.N,GND*%
X205740000Y-60960000D03*
%TO.P,U13,13*%
%TO.N,N/C*%
X193040000Y-53340000D03*
%TO.P,U13,6*%
%TO.N,Net-(U13-Pad6)*%
X203200000Y-60960000D03*
%TO.P,U13,12*%
%TO.N,N/C*%
X195580000Y-53340000D03*
%TO.P,U13,5*%
%TO.N,charin6*%
X200660000Y-60960000D03*
%TO.P,U13,11*%
%TO.N,N/C*%
X198120000Y-53340000D03*
%TO.P,U13,4*%
%TO.N,charin5*%
X198120000Y-60960000D03*
%TO.P,U13,10*%
%TO.N,N/C*%
X200660000Y-53340000D03*
%TO.P,U13,3*%
%TO.N,VACTIVE*%
X195580000Y-60960000D03*
%TO.P,U13,9*%
%TO.N,N/C*%
X203200000Y-53340000D03*
%TO.P,U13,2*%
%TO.N,Net-(U13-Pad2)*%
X193040000Y-60960000D03*
%TO.P,U13,8*%
%TO.N,N/C*%
X205740000Y-53340000D03*
D12*
%TO.P,U13,1*%
%TO.N,Net-(U13-Pad1)*%
X190500000Y-60960000D03*
%TD*%
D11*
%TO.P,U12,14*%
%TO.N,+5V*%
X30480000Y-53340000D03*
%TO.P,U12,7*%
%TO.N,GND*%
X45720000Y-60960000D03*
%TO.P,U12,13*%
%TO.N,Net-(C2-Pad1)*%
X33020000Y-53340000D03*
%TO.P,U12,6*%
%TO.N,Net-(U12-Pad6)*%
X43180000Y-60960000D03*
%TO.P,U12,12*%
%TO.N,dotclk*%
X35560000Y-53340000D03*
%TO.P,U12,5*%
%TO.N,Net-(U12-Pad5)*%
X40640000Y-60960000D03*
%TO.P,U12,11*%
%TO.N,N/C*%
X38100000Y-53340000D03*
%TO.P,U12,4*%
%TO.N,HACTIVE*%
X38100000Y-60960000D03*
%TO.P,U12,10*%
%TO.N,N/C*%
X40640000Y-53340000D03*
%TO.P,U12,3*%
%TO.N,~HACTIVE*%
X35560000Y-60960000D03*
%TO.P,U12,9*%
%TO.N,Net-(U11-Pad11)*%
X43180000Y-53340000D03*
%TO.P,U12,2*%
%TO.N,Net-(U1-Pad9)*%
X33020000Y-60960000D03*
%TO.P,U12,8*%
%TO.N,HBLANK*%
X45720000Y-53340000D03*
D12*
%TO.P,U12,1*%
%TO.N,Net-(U1-Pad15)*%
X30480000Y-60960000D03*
%TD*%
D11*
%TO.P,U11,14*%
%TO.N,+5V*%
X5080000Y-53340000D03*
%TO.P,U11,7*%
%TO.N,GND*%
X20320000Y-60960000D03*
%TO.P,U11,13*%
%TO.N,H4*%
X7620000Y-53340000D03*
%TO.P,U11,6*%
%TO.N,Net-(U11-Pad6)*%
X17780000Y-60960000D03*
%TO.P,U11,12*%
%TO.N,~HACTIVE*%
X10160000Y-53340000D03*
%TO.P,U11,5*%
%TO.N,HACTIVE*%
X15240000Y-60960000D03*
%TO.P,U11,11*%
%TO.N,Net-(U11-Pad11)*%
X12700000Y-53340000D03*
%TO.P,U11,4*%
%TO.N,Net-(U11-Pad4)*%
X12700000Y-60960000D03*
%TO.P,U11,10*%
%TO.N,VACTIVE*%
X15240000Y-53340000D03*
%TO.P,U11,3*%
%TO.N,Net-(Q1-Pad2)*%
X10160000Y-60960000D03*
%TO.P,U11,9*%
%TO.N,Net-(U11-Pad6)*%
X17780000Y-53340000D03*
%TO.P,U11,2*%
%TO.N,VBLANK*%
X7620000Y-60960000D03*
%TO.P,U11,8*%
%TO.N,video_shift*%
X20320000Y-53340000D03*
D12*
%TO.P,U11,1*%
%TO.N,HBLANK*%
X5080000Y-60960000D03*
%TD*%
D11*
%TO.P,U9,16*%
%TO.N,+5V*%
X5080000Y-29210000D03*
%TO.P,U9,8*%
%TO.N,GND*%
X22860000Y-36830000D03*
%TO.P,U9,15*%
%TO.N,Net-(U1-Pad9)*%
X7620000Y-29210000D03*
%TO.P,U9,7*%
%TO.N,dotclk*%
X20320000Y-36830000D03*
%TO.P,U9,14*%
%TO.N,Net-(U10-Pad15)*%
X10160000Y-29210000D03*
%TO.P,U9,6*%
%TO.N,GND*%
X17780000Y-36830000D03*
%TO.P,U9,13*%
%TO.N,Net-(U25-Pad1)*%
X12700000Y-29210000D03*
%TO.P,U9,5*%
%TO.N,Net-(U10-Pad10)*%
X15240000Y-36830000D03*
%TO.P,U9,12*%
%TO.N,Net-(U10-Pad14)*%
X15240000Y-29210000D03*
%TO.P,U9,4*%
%TO.N,Net-(U10-Pad9)*%
X12700000Y-36830000D03*
%TO.P,U9,11*%
%TO.N,Net-(U10-Pad13)*%
X17780000Y-29210000D03*
%TO.P,U9,3*%
%TO.N,GND*%
X10160000Y-36830000D03*
%TO.P,U9,10*%
%TO.N,Net-(U10-Pad11)*%
X20320000Y-29210000D03*
%TO.P,U9,2*%
%TO.N,GND*%
X7620000Y-36830000D03*
%TO.P,U9,9*%
%TO.N,reset*%
X22860000Y-29210000D03*
D12*
%TO.P,U9,1*%
%TO.N,Net-(U25-Pad1)*%
X5080000Y-36830000D03*
%TD*%
D11*
%TO.P,U8,16*%
%TO.N,+5V*%
X204470000Y-7620000D03*
%TO.P,U8,8*%
%TO.N,GND*%
X222250000Y-15240000D03*
%TO.P,U8,15*%
%TO.N,Net-(U7-Pad10)*%
X207010000Y-7620000D03*
%TO.P,U8,7*%
%TO.N,VACTIVE*%
X219710000Y-15240000D03*
%TO.P,U8,14*%
%TO.N,charline0*%
X209550000Y-7620000D03*
%TO.P,U8,6*%
%TO.N,GND*%
X217170000Y-15240000D03*
%TO.P,U8,13*%
%TO.N,charline1*%
X212090000Y-7620000D03*
%TO.P,U8,5*%
%TO.N,GND*%
X214630000Y-15240000D03*
%TO.P,U8,12*%
%TO.N,charline2*%
X214630000Y-7620000D03*
%TO.P,U8,4*%
%TO.N,GND*%
X212090000Y-15240000D03*
%TO.P,U8,11*%
%TO.N,V0*%
X217170000Y-7620000D03*
%TO.P,U8,3*%
%TO.N,GND*%
X209550000Y-15240000D03*
%TO.P,U8,10*%
%TO.N,+5V*%
X219710000Y-7620000D03*
%TO.P,U8,2*%
%TO.N,~HACTIVE*%
X207010000Y-15240000D03*
%TO.P,U8,9*%
%TO.N,Net-(U12-Pad6)*%
X222250000Y-7620000D03*
D12*
%TO.P,U8,1*%
%TO.N,reset*%
X204470000Y-15240000D03*
%TD*%
D11*
%TO.P,U7,16*%
%TO.N,+5V*%
X176530000Y-7620000D03*
%TO.P,U7,8*%
%TO.N,GND*%
X194310000Y-15240000D03*
%TO.P,U7,15*%
%TO.N,Net-(U7-Pad15)*%
X179070000Y-7620000D03*
%TO.P,U7,7*%
%TO.N,VACTIVE*%
X191770000Y-15240000D03*
%TO.P,U7,14*%
%TO.N,V1*%
X181610000Y-7620000D03*
%TO.P,U7,6*%
%TO.N,GND*%
X189230000Y-15240000D03*
%TO.P,U7,13*%
%TO.N,V2*%
X184150000Y-7620000D03*
%TO.P,U7,5*%
%TO.N,GND*%
X186690000Y-15240000D03*
%TO.P,U7,12*%
%TO.N,V3*%
X186690000Y-7620000D03*
%TO.P,U7,4*%
%TO.N,GND*%
X184150000Y-15240000D03*
%TO.P,U7,11*%
%TO.N,Net-(U7-Pad11)*%
X189230000Y-7620000D03*
%TO.P,U7,3*%
%TO.N,GND*%
X181610000Y-15240000D03*
%TO.P,U7,10*%
%TO.N,Net-(U7-Pad10)*%
X191770000Y-7620000D03*
%TO.P,U7,2*%
%TO.N,~HACTIVE*%
X179070000Y-15240000D03*
%TO.P,U7,9*%
%TO.N,Net-(U12-Pad6)*%
X194310000Y-7620000D03*
D12*
%TO.P,U7,1*%
%TO.N,reset*%
X176530000Y-15240000D03*
%TD*%
D11*
%TO.P,U6,16*%
%TO.N,+5V*%
X148590000Y-7620000D03*
%TO.P,U6,8*%
%TO.N,GND*%
X166370000Y-15240000D03*
%TO.P,U6,15*%
%TO.N,Net-(U5-Pad10)*%
X151130000Y-7620000D03*
%TO.P,U6,7*%
%TO.N,+5V*%
X163830000Y-15240000D03*
%TO.P,U6,14*%
%TO.N,Net-(U6-Pad14)*%
X153670000Y-7620000D03*
%TO.P,U6,6*%
%TO.N,+5V*%
X161290000Y-15240000D03*
%TO.P,U6,13*%
%TO.N,Net-(U6-Pad13)*%
X156210000Y-7620000D03*
%TO.P,U6,5*%
%TO.N,GND*%
X158750000Y-15240000D03*
%TO.P,U6,12*%
%TO.N,Net-(U6-Pad12)*%
X158750000Y-7620000D03*
%TO.P,U6,4*%
%TO.N,+5V*%
X156210000Y-15240000D03*
%TO.P,U6,11*%
%TO.N,Net-(U6-Pad11)*%
X161290000Y-7620000D03*
%TO.P,U6,3*%
%TO.N,GND*%
X153670000Y-15240000D03*
%TO.P,U6,10*%
%TO.N,+5V*%
X163830000Y-7620000D03*
%TO.P,U6,2*%
%TO.N,~HACTIVE*%
X151130000Y-15240000D03*
%TO.P,U6,9*%
%TO.N,Net-(U12-Pad6)*%
X166370000Y-7620000D03*
D12*
%TO.P,U6,1*%
%TO.N,reset*%
X148590000Y-15240000D03*
%TD*%
D11*
%TO.P,U5,16*%
%TO.N,+5V*%
X120650000Y-7620000D03*
%TO.P,U5,8*%
%TO.N,GND*%
X138430000Y-15240000D03*
%TO.P,U5,15*%
%TO.N,Net-(U4-Pad10)*%
X123190000Y-7620000D03*
%TO.P,U5,7*%
%TO.N,+5V*%
X135890000Y-15240000D03*
%TO.P,U5,14*%
%TO.N,Net-(U5-Pad14)*%
X125730000Y-7620000D03*
%TO.P,U5,6*%
%TO.N,+5V*%
X133350000Y-15240000D03*
%TO.P,U5,13*%
%TO.N,Net-(U5-Pad13)*%
X128270000Y-7620000D03*
%TO.P,U5,5*%
%TO.N,+5V*%
X130810000Y-15240000D03*
%TO.P,U5,12*%
%TO.N,Net-(U13-Pad2)*%
X130810000Y-7620000D03*
%TO.P,U5,4*%
%TO.N,+5V*%
X128270000Y-15240000D03*
%TO.P,U5,11*%
%TO.N,Net-(U13-Pad1)*%
X133350000Y-7620000D03*
%TO.P,U5,3*%
%TO.N,+5V*%
X125730000Y-15240000D03*
%TO.P,U5,10*%
%TO.N,Net-(U5-Pad10)*%
X135890000Y-7620000D03*
%TO.P,U5,2*%
%TO.N,~HACTIVE*%
X123190000Y-15240000D03*
%TO.P,U5,9*%
%TO.N,Net-(U12-Pad6)*%
X138430000Y-7620000D03*
D12*
%TO.P,U5,1*%
%TO.N,reset*%
X120650000Y-15240000D03*
%TD*%
D11*
%TO.P,U4,16*%
%TO.N,+5V*%
X92710000Y-7620000D03*
%TO.P,U4,8*%
%TO.N,GND*%
X110490000Y-15240000D03*
%TO.P,U4,15*%
%TO.N,Net-(U12-Pad5)*%
X95250000Y-7620000D03*
%TO.P,U4,7*%
%TO.N,+5V*%
X107950000Y-15240000D03*
%TO.P,U4,14*%
%TO.N,VBLANK*%
X97790000Y-7620000D03*
%TO.P,U4,6*%
%TO.N,+5V*%
X105410000Y-15240000D03*
%TO.P,U4,13*%
%TO.N,Net-(U4-Pad13)*%
X100330000Y-7620000D03*
%TO.P,U4,5*%
%TO.N,+5V*%
X102870000Y-15240000D03*
%TO.P,U4,12*%
%TO.N,Net-(U4-Pad12)*%
X102870000Y-7620000D03*
%TO.P,U4,4*%
%TO.N,+5V*%
X100330000Y-15240000D03*
%TO.P,U4,11*%
%TO.N,Net-(U4-Pad11)*%
X105410000Y-7620000D03*
%TO.P,U4,3*%
%TO.N,GND*%
X97790000Y-15240000D03*
%TO.P,U4,10*%
%TO.N,Net-(U4-Pad10)*%
X107950000Y-7620000D03*
%TO.P,U4,2*%
%TO.N,~HACTIVE*%
X95250000Y-15240000D03*
%TO.P,U4,9*%
%TO.N,Net-(U12-Pad6)*%
X110490000Y-7620000D03*
D12*
%TO.P,U4,1*%
%TO.N,reset*%
X92710000Y-15240000D03*
%TD*%
D11*
%TO.P,U3,16*%
%TO.N,+5V*%
X64770000Y-7620000D03*
%TO.P,U3,8*%
%TO.N,GND*%
X82550000Y-15240000D03*
%TO.P,U3,15*%
%TO.N,Net-(U2-Pad10)*%
X67310000Y-7620000D03*
%TO.P,U3,7*%
%TO.N,+5V*%
X80010000Y-15240000D03*
%TO.P,U3,14*%
%TO.N,H0*%
X69850000Y-7620000D03*
%TO.P,U3,6*%
%TO.N,Net-(U3-Pad6)*%
X77470000Y-15240000D03*
%TO.P,U3,13*%
%TO.N,H1*%
X72390000Y-7620000D03*
%TO.P,U3,5*%
%TO.N,Net-(U3-Pad5)*%
X74930000Y-15240000D03*
%TO.P,U3,12*%
%TO.N,H2*%
X74930000Y-7620000D03*
%TO.P,U3,4*%
%TO.N,Net-(U3-Pad4)*%
X72390000Y-15240000D03*
%TO.P,U3,11*%
%TO.N,H3*%
X77470000Y-7620000D03*
%TO.P,U3,3*%
%TO.N,Net-(U3-Pad3)*%
X69850000Y-15240000D03*
%TO.P,U3,10*%
%TO.N,+5V*%
X80010000Y-7620000D03*
%TO.P,U3,2*%
%TO.N,Net-(U1-Pad15)*%
X67310000Y-15240000D03*
%TO.P,U3,9*%
%TO.N,+5V*%
X82550000Y-7620000D03*
D12*
%TO.P,U3,1*%
%TO.N,reset*%
X64770000Y-15240000D03*
%TD*%
D11*
%TO.P,U2,16*%
%TO.N,+5V*%
X36830000Y-7620000D03*
%TO.P,U2,8*%
%TO.N,GND*%
X54610000Y-15240000D03*
%TO.P,U2,15*%
%TO.N,Net-(U2-Pad15)*%
X39370000Y-7620000D03*
%TO.P,U2,7*%
%TO.N,+5V*%
X52070000Y-15240000D03*
%TO.P,U2,14*%
%TO.N,H4*%
X41910000Y-7620000D03*
%TO.P,U2,6*%
%TO.N,Net-(U2-Pad6)*%
X49530000Y-15240000D03*
%TO.P,U2,13*%
%TO.N,~HACTIVE*%
X44450000Y-7620000D03*
%TO.P,U2,5*%
%TO.N,Net-(U2-Pad5)*%
X46990000Y-15240000D03*
%TO.P,U2,12*%
%TO.N,Net-(U2-Pad12)*%
X46990000Y-7620000D03*
%TO.P,U2,4*%
%TO.N,Net-(U2-Pad4)*%
X44450000Y-15240000D03*
%TO.P,U2,11*%
%TO.N,Net-(U2-Pad11)*%
X49530000Y-7620000D03*
%TO.P,U2,3*%
%TO.N,Net-(U2-Pad3)*%
X41910000Y-15240000D03*
%TO.P,U2,10*%
%TO.N,Net-(U2-Pad10)*%
X52070000Y-7620000D03*
%TO.P,U2,2*%
%TO.N,Net-(U1-Pad15)*%
X39370000Y-15240000D03*
%TO.P,U2,9*%
%TO.N,+5V*%
X54610000Y-7620000D03*
D12*
%TO.P,U2,1*%
%TO.N,reset*%
X36830000Y-15240000D03*
%TD*%
D11*
%TO.P,U1,16*%
%TO.N,+5V*%
X10160000Y-7620000D03*
%TO.P,U1,8*%
%TO.N,GND*%
X27940000Y-15240000D03*
%TO.P,U1,15*%
%TO.N,Net-(U1-Pad15)*%
X12700000Y-7620000D03*
%TO.P,U1,7*%
%TO.N,+5V*%
X25400000Y-15240000D03*
%TO.P,U1,14*%
%TO.N,Net-(U1-Pad14)*%
X15240000Y-7620000D03*
%TO.P,U1,6*%
%TO.N,+5V*%
X22860000Y-15240000D03*
%TO.P,U1,13*%
%TO.N,Net-(U1-Pad13)*%
X17780000Y-7620000D03*
%TO.P,U1,5*%
%TO.N,GND*%
X20320000Y-15240000D03*
%TO.P,U1,12*%
%TO.N,Net-(U1-Pad12)*%
X20320000Y-7620000D03*
%TO.P,U1,4*%
%TO.N,+5V*%
X17780000Y-15240000D03*
%TO.P,U1,11*%
%TO.N,Net-(U1-Pad11)*%
X22860000Y-7620000D03*
%TO.P,U1,3*%
%TO.N,GND*%
X15240000Y-15240000D03*
%TO.P,U1,10*%
%TO.N,+5V*%
X25400000Y-7620000D03*
%TO.P,U1,2*%
%TO.N,dotclk*%
X12700000Y-15240000D03*
%TO.P,U1,9*%
%TO.N,Net-(U1-Pad9)*%
X27940000Y-7620000D03*
D12*
%TO.P,U1,1*%
%TO.N,reset*%
X10160000Y-15240000D03*
%TD*%
D17*
%TO.P,RV2,1*%
%TO.N,Net-(RV2-Pad1)*%
X223520000Y-95250000D03*
%TO.P,RV2,2*%
%TO.N,dotclk*%
X226060000Y-92710000D03*
%TO.P,RV2,3*%
%TO.N,Net-(R4-Pad1)*%
X223520000Y-90170000D03*
%TD*%
%TO.P,RV1,1*%
%TO.N,Net-(J1-Pad1)*%
X231140000Y-21590000D03*
%TO.P,RV1,2*%
%TO.N,GND*%
X233680000Y-19050000D03*
%TO.P,RV1,3*%
%TO.N,Net-(RV1-Pad3)*%
X231140000Y-16510000D03*
%TD*%
D11*
%TO.P,R4,2*%
%TO.N,Net-(C2-Pad1)*%
X234950000Y-71120000D03*
D10*
%TO.P,R4,1*%
%TO.N,Net-(R4-Pad1)*%
X234950000Y-81280000D03*
%TD*%
D11*
%TO.P,R3,2*%
%TO.N,Net-(J1-Pad1)*%
X226060000Y-62230000D03*
D10*
%TO.P,R3,1*%
%TO.N,Net-(Q2-Pad1)*%
X215900000Y-62230000D03*
%TD*%
D11*
%TO.P,R2,2*%
%TO.N,Net-(C1-Pad1)*%
X226060000Y-55880000D03*
D10*
%TO.P,R2,1*%
%TO.N,+5V*%
X215900000Y-55880000D03*
%TD*%
D11*
%TO.P,R1,2*%
%TO.N,video_shift*%
X226060000Y-49530000D03*
D10*
%TO.P,R1,1*%
%TO.N,Net-(C1-Pad1)*%
X215900000Y-49530000D03*
%TD*%
D18*
%TO.P,Q2,1*%
%TO.N,Net-(Q2-Pad1)*%
X228600000Y-40640000D03*
D19*
%TO.P,Q2,3*%
%TO.N,Net-(Q1-Pad1)*%
X233680000Y-40640000D03*
%TO.P,Q2,2*%
%TO.N,Net-(C1-Pad1)*%
X231140000Y-40640000D03*
%TD*%
D18*
%TO.P,Q1,1*%
%TO.N,Net-(Q1-Pad1)*%
X228600000Y-30480000D03*
D19*
%TO.P,Q1,3*%
%TO.N,+5V*%
X233680000Y-30480000D03*
%TO.P,Q1,2*%
%TO.N,Net-(Q1-Pad2)*%
X231140000Y-30480000D03*
%TD*%
D13*
%TO.P,J1,2*%
%TO.N,GND*%
X227330000Y-2540000D03*
D14*
%TO.P,J1,1*%
%TO.N,Net-(J1-Pad1)*%
X224790000Y-2540000D03*
%TD*%
D10*
%TO.P,C2,2*%
%TO.N,GND*%
X234870000Y-85090000D03*
%TO.P,C2,1*%
%TO.N,Net-(C2-Pad1)*%
X229870000Y-85090000D03*
%TD*%
%TO.P,C1,2*%
%TO.N,GND*%
X233680000Y-49610000D03*
%TO.P,C1,1*%
%TO.N,Net-(C1-Pad1)*%
X233680000Y-54610000D03*
%TD*%
D20*
%TO.N,GND*%
X139144800Y-17451500D03*
X112978000Y-26816500D03*
X120986400Y-66278000D03*
X93461100Y-67775500D03*
X84057900Y-31075100D03*
X48348500Y-17258100D03*
X13654400Y-81995800D03*
X138231200Y-86799700D03*
X70751300Y-70317500D03*
%TO.N,Net-(C2-Pad1)*%
X50178900Y-55801200D03*
X61631600Y-84826900D03*
%TO.N,+5V*%
X149090200Y-51867900D03*
X79476700Y-68817900D03*
X24854700Y-25078900D03*
X65725000Y-86248900D03*
%TO.N,charinStrobe*%
X171426600Y-48532500D03*
X64178800Y-58033500D03*
X60569500Y-77657200D03*
X184489700Y-56199600D03*
%TO.N,charin6*%
X166023200Y-57543900D03*
X10117300Y-64193200D03*
%TO.N,charin5*%
X200311600Y-91516100D03*
X172285200Y-58341200D03*
%TO.N,charin4*%
X152734200Y-82037900D03*
X75311600Y-88779700D03*
%TO.N,charin3*%
X126255700Y-65318900D03*
X120681700Y-65208800D03*
X33546100Y-70033000D03*
%TO.N,charin2*%
X34929300Y-67463400D03*
X174751600Y-55323700D03*
%TO.N,charin1*%
X72336700Y-65937900D03*
X155320300Y-56695500D03*
%TO.N,charin0*%
X149313200Y-56264100D03*
X96999900Y-58148600D03*
X41351100Y-63103800D03*
%TO.N,video_shift*%
X85072500Y-40140800D03*
X86463500Y-41086600D03*
%TO.N,dotclk*%
X60813500Y-85523100D03*
X32615800Y-38220200D03*
%TO.N,Net-(U1-Pad9)*%
X26847700Y-35491000D03*
%TO.N,H4*%
X114501800Y-57544100D03*
X104624600Y-57413000D03*
X99224100Y-31665400D03*
X37374500Y-29575300D03*
%TO.N,~HACTIVE*%
X55174800Y-18453100D03*
%TO.N,H0*%
X134988400Y-31476600D03*
%TO.N,H1*%
X122564600Y-40508500D03*
X101034800Y-39703700D03*
%TO.N,H2*%
X120269100Y-42180600D03*
X106615400Y-40797600D03*
%TO.N,H3*%
X118793400Y-64483400D03*
X106187000Y-63497100D03*
%TO.N,VBLANK*%
X28325300Y-18368500D03*
%TO.N,Net-(U12-Pad6)*%
X75823200Y-13036100D03*
%TO.N,VACTIVE*%
X38765500Y-29111800D03*
X27573000Y-49530000D03*
%TO.N,V1*%
X137104900Y-13047400D03*
X111383200Y-42021700D03*
X85917100Y-42021700D03*
%TO.N,V2*%
X149150500Y-21894600D03*
%TO.N,V3*%
X78236300Y-26747700D03*
X160248600Y-21249300D03*
%TO.N,charline0*%
X55617500Y-26815300D03*
X169943500Y-19311600D03*
%TO.N,charline1*%
X166325600Y-22887200D03*
%TO.N,charline2*%
X184212100Y-19087300D03*
%TO.N,V0*%
X91766400Y-33762600D03*
%TO.N,Net-(U10-Pad15)*%
X18752400Y-27540700D03*
%TO.N,char5*%
X170115500Y-58514500D03*
X157036700Y-18573300D03*
X174636900Y-48269200D03*
%TO.N,char0*%
X160915800Y-45968100D03*
X161989900Y-58284800D03*
X76384300Y-39017000D03*
X86902900Y-46747700D03*
%TO.N,char1*%
X164779900Y-46003600D03*
X43723600Y-58317900D03*
%TO.N,char2*%
X39160100Y-43451500D03*
X45088500Y-58602800D03*
X168352300Y-47587700D03*
%TO.N,char3*%
X58730700Y-28395300D03*
X186460400Y-56977700D03*
%TO.N,char4*%
X180350900Y-50804700D03*
X50039400Y-37914400D03*
X184931400Y-60471400D03*
X191877600Y-64400900D03*
%TO.N,Net-(U13-Pad6)*%
X61631400Y-83801000D03*
X210063300Y-62506600D03*
%TO.N,~vramWrite*%
X145315400Y-49089600D03*
X147054700Y-31499900D03*
%TO.N,Net-(U14-Pad8)*%
X148349600Y-25161600D03*
%TO.N,Net-(U14-Pad7)*%
X105488000Y-43659500D03*
%TO.N,Net-(U14-Pad6)*%
X116874900Y-38214900D03*
%TO.N,Net-(U14-Pad5)*%
X124165600Y-34865200D03*
%TO.N,Net-(U14-Pad4)*%
X140989300Y-22326200D03*
%TO.N,Net-(U14-Pad3)*%
X84389800Y-42905900D03*
%TO.N,cursorY1*%
X100342800Y-75327100D03*
X79135000Y-40719300D03*
%TO.N,cursorY3*%
X92505200Y-78062800D03*
X78122200Y-40719300D03*
X78622500Y-35048300D03*
%TO.N,cursorY0*%
X112350700Y-73602900D03*
X78186100Y-76380700D03*
X77109700Y-41752300D03*
%TO.N,cursorY2*%
X97476200Y-74969800D03*
X31346500Y-75228000D03*
%TO.N,cursorX2*%
X109207600Y-63732000D03*
X107726500Y-63732000D03*
%TO.N,cursorX4*%
X102676200Y-49962500D03*
X62374600Y-81912400D03*
X76228800Y-55926300D03*
%TO.N,cursorX1*%
X124329400Y-41455300D03*
X102623300Y-40263700D03*
%TO.N,cursorX3*%
X129485500Y-75652300D03*
X115420200Y-56818800D03*
X113051100Y-56818800D03*
%TO.N,cursorX0*%
X133136700Y-31261900D03*
%TO.N,Net-(U18-Pad5)*%
X68020900Y-77119200D03*
%TO.N,Net-(U19-Pad5)*%
X49709400Y-73699900D03*
%TO.N,cursor_inc*%
X133320500Y-50863800D03*
X142303800Y-50863800D03*
X74799400Y-56845300D03*
%TO.N,Net-(U21-Pad6)*%
X114273100Y-78434400D03*
%TO.N,Net-(U25-Pad6)*%
X193334300Y-43094300D03*
%TO.N,Net-(U25-Pad4)*%
X149308600Y-60074400D03*
X159896000Y-39149000D03*
%TO.N,Net-(U26-Pad3)*%
X132731100Y-55535700D03*
X77518800Y-58533800D03*
%TO.N,Net-(U27-Pad6)*%
X95083100Y-55919400D03*
%TO.N,Net-(U27-Pad4)*%
X89562200Y-55675800D03*
%TO.N,CLS*%
X203832500Y-32291300D03*
X205175300Y-90020800D03*
X77859700Y-90432500D03*
%TO.N,Net-(U25-Pad1)*%
X184614900Y-33199300D03*
%TO.N,Net-(U10-Pad10)*%
X37201500Y-43244700D03*
%TO.N,Net-(U10-Pad14)*%
X56465400Y-22434600D03*
%TO.N,Net-(U14-Pad23)*%
X82599400Y-33579000D03*
%TO.N,Net-(U14-Pad20)*%
X178299000Y-28066800D03*
%TO.N,Net-(U14-Pad2)*%
X89577700Y-39040000D03*
%TO.N,Net-(U14-Pad1)*%
X95278500Y-38644500D03*
%TO.N,Net-(U26-Pad10)*%
X74073300Y-51557200D03*
%TO.N,Net-(U26-Pad4)*%
X127318500Y-50340800D03*
X135682400Y-66622500D03*
%TO.N,Net-(U28-Pad6)*%
X120004700Y-64131800D03*
%TO.N,Net-(U28-Pad8)*%
X124928600Y-62665800D03*
%TO.N,Net-(C3-Pad1)*%
X42524500Y-62974700D03*
X129941200Y-58648300D03*
X125588200Y-51073900D03*
%TO.N,Net-(U19-Pad11)*%
X118779900Y-74894400D03*
X109441800Y-68529700D03*
%TO.N,CR*%
X184085000Y-62909700D03*
X176508700Y-55851600D03*
%TD*%
D21*
%TO.N,GND*%
X71120000Y-60960000D02*
X71120000Y-69948800D01*
X71120000Y-69948800D02*
X70751300Y-70317500D01*
X87630000Y-35704700D02*
X84057900Y-32132600D01*
X84057900Y-32132600D02*
X84057900Y-31075100D01*
X113821700Y-28084700D02*
X112978000Y-27241000D01*
X112978000Y-27241000D02*
X112978000Y-26816500D01*
X113821700Y-28084700D02*
X123760800Y-28084700D01*
X123760800Y-28084700D02*
X124604700Y-28928600D01*
X124604700Y-28928600D02*
X124604700Y-29210000D01*
X114300000Y-35704700D02*
X113117600Y-34522300D01*
X113117600Y-34522300D02*
X113117600Y-28788800D01*
X113117600Y-28788800D02*
X113821700Y-28084700D01*
X166370000Y-15240000D02*
X166370000Y-21817100D01*
X166370000Y-21817100D02*
X165100000Y-23087100D01*
X165100000Y-23087100D02*
X165100000Y-24274700D01*
X45720000Y-24274700D02*
X48348500Y-21646200D01*
X48348500Y-21646200D02*
X48348500Y-17258100D01*
X34164100Y-22589300D02*
X29422700Y-27330700D01*
X29422700Y-27330700D02*
X29422700Y-29142000D01*
X29422700Y-29142000D02*
X22860000Y-35704700D01*
X36974700Y-25400000D02*
X36974700Y-25202600D01*
X36974700Y-25202600D02*
X34361400Y-22589300D01*
X34361400Y-22589300D02*
X34164100Y-22589300D01*
X27940000Y-16365300D02*
X34164100Y-22589300D01*
X200660000Y-36830000D02*
X200660000Y-35704700D01*
X209146500Y-15240000D02*
X201785300Y-22601200D01*
X201785300Y-22601200D02*
X201785300Y-34579400D01*
X201785300Y-34579400D02*
X200660000Y-35704700D01*
X209146500Y-15240000D02*
X208424700Y-15240000D01*
X209550000Y-15240000D02*
X209146500Y-15240000D01*
X194310000Y-15240000D02*
X195435300Y-15240000D01*
X208424700Y-15240000D02*
X208424700Y-15054800D01*
X208424700Y-15054800D02*
X207484600Y-14114700D01*
X207484600Y-14114700D02*
X196560600Y-14114700D01*
X196560600Y-14114700D02*
X195435300Y-15240000D01*
X190500000Y-80010000D02*
X189374700Y-80010000D01*
X184857400Y-80010000D02*
X185982700Y-81135300D01*
X185982700Y-81135300D02*
X188530800Y-81135300D01*
X188530800Y-81135300D02*
X189374700Y-80291400D01*
X189374700Y-80291400D02*
X189374700Y-80010000D01*
X184857400Y-80010000D02*
X184294700Y-80010000D01*
X185420000Y-80010000D02*
X184857400Y-80010000D01*
X190500000Y-80010000D02*
X191625300Y-80010000D01*
X195580000Y-80010000D02*
X194454700Y-80010000D01*
X194454700Y-80010000D02*
X194454700Y-80291300D01*
X194454700Y-80291300D02*
X193610700Y-81135300D01*
X193610700Y-81135300D02*
X192469200Y-81135300D01*
X192469200Y-81135300D02*
X191625300Y-80291400D01*
X191625300Y-80291400D02*
X191625300Y-80010000D01*
X195580000Y-72390000D02*
X195580000Y-80010000D01*
X194310000Y-15240000D02*
X193184700Y-16365300D01*
X193184700Y-16365300D02*
X191199200Y-16365300D01*
X191199200Y-16365300D02*
X190355300Y-15521400D01*
X190355300Y-15521400D02*
X190355300Y-15240000D01*
X189230000Y-15240000D02*
X190355300Y-15240000D01*
X181394400Y-78884700D02*
X183450800Y-78884700D01*
X183450800Y-78884700D02*
X184294700Y-79728600D01*
X184294700Y-79728600D02*
X184294700Y-80010000D01*
X180340000Y-78884700D02*
X181394400Y-78884700D01*
X181394400Y-72390000D02*
X181394400Y-78884700D01*
X180340000Y-80010000D02*
X180340000Y-78884700D01*
X184294700Y-72390000D02*
X184294700Y-72108600D01*
X184294700Y-72108600D02*
X183450800Y-71264700D01*
X183450800Y-71264700D02*
X182381600Y-71264700D01*
X182381600Y-71264700D02*
X181394400Y-72251900D01*
X181394400Y-72251900D02*
X181394400Y-72390000D01*
X180340000Y-72390000D02*
X181394400Y-72390000D01*
X185420000Y-72390000D02*
X184294700Y-72390000D01*
X180340000Y-60960000D02*
X179214700Y-60960000D01*
X163830000Y-72390000D02*
X164955300Y-72390000D01*
X164955300Y-72390000D02*
X175260000Y-62085300D01*
X175260000Y-62085300D02*
X178370800Y-62085300D01*
X178370800Y-62085300D02*
X179214700Y-61241400D01*
X179214700Y-61241400D02*
X179214700Y-60960000D01*
X163830000Y-80010000D02*
X164955300Y-80010000D01*
X175260000Y-80010000D02*
X174134700Y-80010000D01*
X174134700Y-80010000D02*
X174134700Y-79306700D01*
X174134700Y-79306700D02*
X173712700Y-78884700D01*
X173712700Y-78884700D02*
X166080600Y-78884700D01*
X166080600Y-78884700D02*
X164955300Y-80010000D01*
X140970000Y-35704700D02*
X139555300Y-34290000D01*
X139555300Y-34290000D02*
X139555300Y-17862000D01*
X139555300Y-17862000D02*
X139144800Y-17451500D01*
X138430000Y-16365300D02*
X138430000Y-16736700D01*
X138430000Y-16736700D02*
X139144800Y-17451500D01*
X138430000Y-15240000D02*
X138430000Y-16365300D01*
X140970000Y-36830000D02*
X140970000Y-35704700D01*
X147320000Y-60960000D02*
X147320000Y-57457900D01*
X147320000Y-57457900D02*
X146194600Y-56332500D01*
X146194600Y-56332500D02*
X146194600Y-51646400D01*
X146194600Y-51646400D02*
X140970000Y-46421800D01*
X140970000Y-46421800D02*
X140970000Y-36830000D01*
X125730000Y-29210000D02*
X124604700Y-29210000D01*
X114300000Y-36830000D02*
X114300000Y-35704700D01*
X120986400Y-66278000D02*
X121920000Y-65344400D01*
X121920000Y-65344400D02*
X121920000Y-60960000D01*
X106680000Y-86360000D02*
X106680000Y-80010000D01*
X105410000Y-87630000D02*
X106680000Y-86360000D01*
X119380000Y-87630000D02*
X118110000Y-86360000D01*
X118110000Y-86360000D02*
X106680000Y-86360000D01*
X33020000Y-78884700D02*
X35560000Y-76344700D01*
X35560000Y-76344700D02*
X35560000Y-72390000D01*
X133350000Y-87630000D02*
X137400900Y-87630000D01*
X137400900Y-87630000D02*
X138231200Y-86799700D01*
X93461100Y-67775500D02*
X96520000Y-64716600D01*
X96520000Y-64716600D02*
X96520000Y-61220000D01*
X75931600Y-76076200D02*
X72466900Y-79540900D01*
X72466900Y-79540900D02*
X72466900Y-86476900D01*
X72466900Y-86476900D02*
X73620000Y-87630000D01*
X76200000Y-72390000D02*
X76200000Y-75807800D01*
X76200000Y-75807800D02*
X75931600Y-76076200D01*
X75931600Y-76076200D02*
X78740000Y-78884700D01*
X78740000Y-80010000D02*
X78740000Y-78884700D01*
X73620000Y-87630000D02*
X71120000Y-90130000D01*
X91440000Y-87630000D02*
X73620000Y-87630000D01*
X87630000Y-36830000D02*
X87630000Y-35704700D01*
X50800000Y-96520000D02*
X57190000Y-90130000D01*
X57190000Y-90130000D02*
X71120000Y-90130000D01*
X72390000Y-29210000D02*
X71264700Y-29210000D01*
X54610000Y-15240000D02*
X57576000Y-15240000D01*
X57576000Y-15240000D02*
X71264700Y-28928700D01*
X71264700Y-28928700D02*
X71264700Y-29210000D01*
X72390000Y-29210000D02*
X72390000Y-30335300D01*
X72390000Y-30335300D02*
X71264700Y-31460600D01*
X71264700Y-31460600D02*
X71264700Y-37523800D01*
X71264700Y-37523800D02*
X68148500Y-40640000D01*
X68148500Y-40640000D02*
X60960000Y-40640000D01*
X63500000Y-72390000D02*
X63500000Y-76344700D01*
X63500000Y-76344700D02*
X60960000Y-78884700D01*
X45720000Y-25400000D02*
X45720000Y-24274700D01*
X13970000Y-95250000D02*
X13970000Y-94074700D01*
X13654400Y-81995800D02*
X13654400Y-93759100D01*
X13654400Y-93759100D02*
X13970000Y-94074700D01*
X15240000Y-15240000D02*
X16365300Y-15240000D01*
X20320000Y-15240000D02*
X19194700Y-16365300D01*
X19194700Y-16365300D02*
X17209200Y-16365300D01*
X17209200Y-16365300D02*
X16365300Y-15521400D01*
X16365300Y-15521400D02*
X16365300Y-15240000D01*
X22860000Y-36830000D02*
X22860000Y-35704700D01*
X222250000Y-80010000D02*
X222250000Y-78884700D01*
X222250000Y-78884700D02*
X223375300Y-77759400D01*
X223375300Y-77759400D02*
X223375300Y-63288500D01*
X223375300Y-63288500D02*
X230333200Y-56330600D01*
X230333200Y-56330600D02*
X233561400Y-56330600D01*
X233561400Y-56330600D02*
X234813600Y-55078400D01*
X234813600Y-55078400D02*
X234813600Y-50743600D01*
X234813600Y-50743600D02*
X233680000Y-49610000D01*
X221687400Y-80010000D02*
X222250000Y-80010000D01*
X221687400Y-80010000D02*
X221124700Y-80010000D01*
X204791600Y-78291400D02*
X207372000Y-78291400D01*
X207372000Y-78291400D02*
X208135400Y-79054800D01*
X208135400Y-79054800D02*
X208135400Y-80188500D01*
X208135400Y-80188500D02*
X209082200Y-81135300D01*
X209082200Y-81135300D02*
X220280800Y-81135300D01*
X220280800Y-81135300D02*
X221124700Y-80291400D01*
X221124700Y-80291400D02*
X221124700Y-80010000D01*
X203200000Y-87630000D02*
X203200000Y-79883000D01*
X203200000Y-79883000D02*
X204791600Y-78291400D01*
X204791600Y-78291400D02*
X204791600Y-60960000D01*
X204791600Y-60960000D02*
X204614700Y-60960000D01*
X205740000Y-60960000D02*
X204791600Y-60960000D01*
X233680000Y-49610000D02*
X232410000Y-48340000D01*
X232410000Y-48340000D02*
X232410000Y-40321200D01*
X232410000Y-40321200D02*
X228918800Y-36830000D01*
X228918800Y-36830000D02*
X223520000Y-36830000D01*
X195580000Y-72390000D02*
X195580000Y-71264700D01*
X195580000Y-71264700D02*
X196705300Y-70139400D01*
X196705300Y-70139400D02*
X196705300Y-60713000D01*
X196705300Y-60713000D02*
X197583600Y-59834700D01*
X197583600Y-59834700D02*
X203770800Y-59834700D01*
X203770800Y-59834700D02*
X204614700Y-60678600D01*
X204614700Y-60678600D02*
X204614700Y-60960000D01*
X163267400Y-80010000D02*
X163830000Y-80010000D01*
X163267400Y-80010000D02*
X162704700Y-80010000D01*
X156210000Y-72390000D02*
X156210000Y-73515300D01*
X156210000Y-73515300D02*
X157335300Y-74640600D01*
X157335300Y-74640600D02*
X157335300Y-80212900D01*
X157335300Y-80212900D02*
X158257800Y-81135400D01*
X158257800Y-81135400D02*
X161772100Y-81135400D01*
X161772100Y-81135400D02*
X162704700Y-80202800D01*
X162704700Y-80202800D02*
X162704700Y-80010000D01*
X60960000Y-80010000D02*
X60960000Y-78884700D01*
X20320000Y-72390000D02*
X20320000Y-60960000D01*
X50800000Y-72390000D02*
X50800000Y-80010000D01*
X33020000Y-80010000D02*
X33020000Y-78884700D01*
X22860000Y-72390000D02*
X22860000Y-80010000D01*
X10160000Y-36830000D02*
X11285300Y-36830000D01*
X17780000Y-36830000D02*
X16654700Y-36830000D01*
X16654700Y-36830000D02*
X16654700Y-36617000D01*
X16654700Y-36617000D02*
X15742400Y-35704700D01*
X15742400Y-35704700D02*
X12129200Y-35704700D01*
X12129200Y-35704700D02*
X11285300Y-36548600D01*
X11285300Y-36548600D02*
X11285300Y-36830000D01*
X7620000Y-36830000D02*
X6494700Y-36830000D01*
X6494700Y-36830000D02*
X6494700Y-36126700D01*
X6494700Y-36126700D02*
X4578000Y-34210000D01*
X4578000Y-34210000D02*
X1270000Y-34210000D01*
X223520000Y-36830000D02*
X223520000Y-35704700D01*
X217170000Y-15240000D02*
X217170000Y-29636000D01*
X217170000Y-29636000D02*
X223238700Y-35704700D01*
X223238700Y-35704700D02*
X223520000Y-35704700D01*
X165100000Y-25400000D02*
X165100000Y-24274700D01*
X154940000Y-25400000D02*
X154940000Y-24274700D01*
X154232700Y-15240000D02*
X154232700Y-23567400D01*
X154232700Y-23567400D02*
X154940000Y-24274700D01*
X154232700Y-15240000D02*
X154795300Y-15240000D01*
X153670000Y-15240000D02*
X154232700Y-15240000D01*
X158750000Y-15240000D02*
X157624700Y-15240000D01*
X154795300Y-15240000D02*
X154795300Y-14958700D01*
X154795300Y-14958700D02*
X155639300Y-14114700D01*
X155639300Y-14114700D02*
X156780800Y-14114700D01*
X156780800Y-14114700D02*
X157624700Y-14958600D01*
X157624700Y-14958600D02*
X157624700Y-15240000D01*
X99060000Y-29210000D02*
X97934700Y-29210000D01*
X82550000Y-15240000D02*
X84246000Y-15240000D01*
X84246000Y-15240000D02*
X97934700Y-28928700D01*
X97934700Y-28928700D02*
X97934700Y-29210000D01*
X38100000Y-25400000D02*
X36974700Y-25400000D01*
X27940000Y-15240000D02*
X27940000Y-16365300D01*
X227330000Y-2540000D02*
X227330000Y-9352700D01*
X227330000Y-9352700D02*
X233680000Y-15702700D01*
X233680000Y-15702700D02*
X233680000Y-19050000D01*
%TO.N,Net-(C1-Pad1)*%
X231140000Y-52070000D02*
X233680000Y-54610000D01*
X231140000Y-40640000D02*
X231140000Y-52070000D01*
X231140000Y-52070000D02*
X228744700Y-52070000D01*
X228744700Y-52070000D02*
X226060000Y-54754700D01*
X226060000Y-55880000D02*
X226060000Y-54754700D01*
%TO.N,Net-(C2-Pad1)*%
X50178900Y-55801200D02*
X54754600Y-60376900D01*
X54754600Y-60376900D02*
X54754600Y-77949900D01*
X54754600Y-77949900D02*
X61631600Y-84826900D01*
X234950000Y-71120000D02*
X234950000Y-72245300D01*
X229870000Y-85090000D02*
X229870000Y-77325300D01*
X229870000Y-77325300D02*
X234950000Y-72245300D01*
%TO.N,Net-(J1-Pad1)*%
X224790000Y-2540000D02*
X224790000Y-3715300D01*
X231140000Y-21590000D02*
X224790000Y-15240000D01*
X224790000Y-15240000D02*
X224790000Y-3715300D01*
X226060000Y-62230000D02*
X228302800Y-62230000D01*
X228302800Y-62230000D02*
X235263900Y-55268900D01*
X235263900Y-55268900D02*
X235263900Y-25713900D01*
X235263900Y-25713900D02*
X231140000Y-21590000D01*
%TO.N,+5V*%
X132080000Y-53340000D02*
X132080000Y-54465300D01*
X40640000Y-26525300D02*
X40640000Y-28357800D01*
X40640000Y-28357800D02*
X32403500Y-36594300D01*
X32403500Y-36594300D02*
X31942200Y-36594300D01*
X31942200Y-36594300D02*
X30480000Y-38056500D01*
X30480000Y-38056500D02*
X30480000Y-53340000D01*
X219710000Y-7620000D02*
X219710000Y-8745300D01*
X233680000Y-30480000D02*
X220835300Y-17635300D01*
X220835300Y-17635300D02*
X220835300Y-9870600D01*
X220835300Y-9870600D02*
X219710000Y-8745300D01*
X207010000Y-72390000D02*
X207010000Y-64534200D01*
X207010000Y-64534200D02*
X215664200Y-55880000D01*
X189374700Y-72390000D02*
X189374700Y-72108600D01*
X189374700Y-72108600D02*
X188080500Y-70814400D01*
X188080500Y-70814400D02*
X175139600Y-70814400D01*
X175139600Y-70814400D02*
X173845300Y-72108700D01*
X173845300Y-72108700D02*
X173845300Y-72390000D01*
X157480000Y-53340000D02*
X156354700Y-53340000D01*
X149090200Y-51867900D02*
X154882600Y-51867900D01*
X154882600Y-51867900D02*
X156354700Y-53340000D01*
X132080000Y-54465300D02*
X132005800Y-54539500D01*
X132005800Y-54539500D02*
X132005800Y-57220500D01*
X132005800Y-57220500D02*
X134620000Y-59834700D01*
X107950000Y-15240000D02*
X109075300Y-15240000D01*
X109075300Y-15240000D02*
X109075300Y-14958700D01*
X109075300Y-14958700D02*
X115288700Y-8745300D01*
X115288700Y-8745300D02*
X120650000Y-8745300D01*
X120650000Y-7620000D02*
X120650000Y-8745300D01*
X125730000Y-15240000D02*
X125730000Y-13825300D01*
X125730000Y-13825300D02*
X120650000Y-8745300D01*
X82965000Y-65329600D02*
X82405300Y-64770000D01*
X82405300Y-64770000D02*
X82405300Y-55850600D01*
X82405300Y-55850600D02*
X81280000Y-54725300D01*
X88900000Y-71264700D02*
X82965000Y-65329600D01*
X82965000Y-65329600D02*
X79476700Y-68817900D01*
X33020000Y-72390000D02*
X33020000Y-73515300D01*
X38180000Y-85090000D02*
X35377800Y-85090000D01*
X35377800Y-85090000D02*
X31444400Y-81156600D01*
X31444400Y-81156600D02*
X31444400Y-78888600D01*
X31444400Y-78888600D02*
X33020000Y-77313000D01*
X33020000Y-77313000D02*
X33020000Y-73515300D01*
X81280000Y-53600000D02*
X81280000Y-54725300D01*
X88900000Y-72390000D02*
X88900000Y-71264700D01*
X60960000Y-73515300D02*
X59775000Y-74700300D01*
X59775000Y-74700300D02*
X59775000Y-80917300D01*
X59775000Y-80917300D02*
X65106600Y-86248900D01*
X65106600Y-86248900D02*
X65725000Y-86248900D01*
X54610000Y-7620000D02*
X54610000Y-8745300D01*
X54610000Y-8745300D02*
X53195300Y-10160000D01*
X53195300Y-10160000D02*
X53195300Y-15240000D01*
X25400000Y-15240000D02*
X25400000Y-16365300D01*
X25400000Y-16365300D02*
X24854700Y-16910600D01*
X24854700Y-16910600D02*
X24854700Y-25078900D01*
X10709100Y-71264700D02*
X7049200Y-71264700D01*
X7049200Y-71264700D02*
X6205300Y-72108600D01*
X6205300Y-72108600D02*
X6205300Y-72390000D01*
X14401700Y-75768300D02*
X11430000Y-72796700D01*
X11430000Y-72796700D02*
X11430000Y-71985600D01*
X11430000Y-71985600D02*
X10709100Y-71264700D01*
X10709100Y-71264700D02*
X11396100Y-70577700D01*
X11396100Y-70577700D02*
X11396100Y-63765800D01*
X11396100Y-63765800D02*
X10097200Y-62466900D01*
X10097200Y-62466900D02*
X7518500Y-62466900D01*
X7518500Y-62466900D02*
X6205400Y-61153800D01*
X6205400Y-61153800D02*
X6205400Y-59628600D01*
X6205400Y-59628600D02*
X5080000Y-58503200D01*
X5080000Y-58503200D02*
X5080000Y-53340000D01*
X14401700Y-75768300D02*
X16654700Y-73515300D01*
X16654700Y-73515300D02*
X17780000Y-73515300D01*
X12700000Y-78884700D02*
X12700000Y-77470000D01*
X12700000Y-77470000D02*
X14401700Y-75768300D01*
X17780000Y-72390000D02*
X17780000Y-73515300D01*
X5080000Y-72390000D02*
X6205300Y-72390000D01*
X12700000Y-80010000D02*
X12700000Y-78884700D01*
X10160000Y-7620000D02*
X11285300Y-7620000D01*
X18342700Y-15240000D02*
X11285300Y-8182600D01*
X11285300Y-8182600D02*
X11285300Y-7620000D01*
X18342700Y-15240000D02*
X18905300Y-15240000D01*
X17780000Y-15240000D02*
X18342700Y-15240000D01*
X10160000Y-7620000D02*
X9034700Y-7620000D01*
X9034700Y-7620000D02*
X6494700Y-10160000D01*
X6494700Y-10160000D02*
X6350000Y-10160000D01*
X215900000Y-55880000D02*
X215664200Y-55880000D01*
X215664200Y-55880000D02*
X209405300Y-49621100D01*
X209405300Y-49621100D02*
X209405300Y-31460600D01*
X209405300Y-31460600D02*
X208280000Y-30335300D01*
X208280000Y-29210000D02*
X208280000Y-30335300D01*
X132080000Y-53340000D02*
X133205300Y-53340000D01*
X137160000Y-53340000D02*
X136034700Y-53340000D01*
X136034700Y-53340000D02*
X136034700Y-53621300D01*
X136034700Y-53621300D02*
X135158200Y-54497800D01*
X135158200Y-54497800D02*
X134184800Y-54497800D01*
X134184800Y-54497800D02*
X133205300Y-53518300D01*
X133205300Y-53518300D02*
X133205300Y-53340000D01*
X134620000Y-60960000D02*
X134620000Y-59834700D01*
X60960000Y-72390000D02*
X60960000Y-73515300D01*
X40640000Y-25400000D02*
X40640000Y-26525300D01*
X190500000Y-72390000D02*
X189374700Y-72390000D01*
X172720000Y-72390000D02*
X173845300Y-72390000D01*
X139700000Y-62085300D02*
X146050000Y-68435300D01*
X146050000Y-68435300D02*
X146050000Y-72390000D01*
X139700000Y-60960000D02*
X139700000Y-62085300D01*
X55880000Y-53340000D02*
X55880000Y-54465300D01*
X60960000Y-72390000D02*
X60960000Y-71264700D01*
X60960000Y-71264700D02*
X57005300Y-67310000D01*
X57005300Y-67310000D02*
X57005300Y-55590600D01*
X57005300Y-55590600D02*
X55880000Y-54465300D01*
X11430000Y-95250000D02*
X11430000Y-94074700D01*
X12700000Y-80010000D02*
X12700000Y-92804700D01*
X12700000Y-92804700D02*
X11430000Y-94074700D01*
X80010000Y-15240000D02*
X81135300Y-15240000D01*
X96520000Y-29210000D02*
X94824000Y-29210000D01*
X94824000Y-29210000D02*
X81135300Y-15521300D01*
X81135300Y-15521300D02*
X81135300Y-15240000D01*
X52070000Y-15240000D02*
X53195300Y-15240000D01*
X69850000Y-29210000D02*
X66972500Y-29210000D01*
X66972500Y-29210000D02*
X53195300Y-15432800D01*
X53195300Y-15432800D02*
X53195300Y-15240000D01*
X156210000Y-16365300D02*
X156210000Y-25754000D01*
X156210000Y-25754000D02*
X155438700Y-26525300D01*
X155438700Y-26525300D02*
X151829200Y-26525300D01*
X151829200Y-26525300D02*
X150985300Y-25681400D01*
X150985300Y-25681400D02*
X150985300Y-25400000D01*
X156210000Y-16365300D02*
X159320800Y-16365300D01*
X159320800Y-16365300D02*
X160164700Y-15521400D01*
X160164700Y-15521400D02*
X160164700Y-15240000D01*
X156210000Y-15240000D02*
X156210000Y-16365300D01*
X149860000Y-25400000D02*
X150985300Y-25400000D01*
X161290000Y-15240000D02*
X160164700Y-15240000D01*
X163830000Y-7620000D02*
X163830000Y-15240000D01*
X92710000Y-7620000D02*
X93835300Y-7620000D01*
X100330000Y-15240000D02*
X100330000Y-14114700D01*
X100330000Y-14114700D02*
X100048700Y-14114700D01*
X100048700Y-14114700D02*
X93835300Y-7901300D01*
X93835300Y-7901300D02*
X93835300Y-7620000D01*
X80010000Y-7620000D02*
X80010000Y-15240000D01*
X25400000Y-7620000D02*
X25400000Y-8745300D01*
X25400000Y-8745300D02*
X25118700Y-8745300D01*
X25118700Y-8745300D02*
X18905300Y-14958700D01*
X18905300Y-14958700D02*
X18905300Y-15240000D01*
%TO.N,charinStrobe*%
X179214700Y-53340000D02*
X179214700Y-53058600D01*
X179214700Y-53058600D02*
X178370800Y-52214700D01*
X178370800Y-52214700D02*
X176369200Y-52214700D01*
X176369200Y-52214700D02*
X172687000Y-48532500D01*
X172687000Y-48532500D02*
X171426600Y-48532500D01*
X59941300Y-63606600D02*
X62104200Y-65769500D01*
X62104200Y-65769500D02*
X62104200Y-76122500D01*
X62104200Y-76122500D02*
X60569500Y-77657200D01*
X58420000Y-62085300D02*
X59941300Y-63606600D01*
X59941300Y-63606600D02*
X62230000Y-61317900D01*
X62230000Y-61317900D02*
X62230000Y-59982300D01*
X62230000Y-59982300D02*
X64178800Y-58033500D01*
X180340000Y-53340000D02*
X179214700Y-53340000D01*
X180902700Y-53340000D02*
X180340000Y-53340000D01*
X58420000Y-60960000D02*
X58420000Y-62085300D01*
X180902700Y-53340000D02*
X181465300Y-53340000D01*
X181465300Y-53340000D02*
X184324900Y-56199600D01*
X184324900Y-56199600D02*
X184489700Y-56199600D01*
%TO.N,reset*%
X10160000Y-15240000D02*
X9034700Y-15240000D01*
X9034700Y-15240000D02*
X6494700Y-12700000D01*
X6494700Y-12700000D02*
X2540000Y-12700000D01*
X22860000Y-28084700D02*
X22944600Y-28084700D01*
X22944600Y-28084700D02*
X26743900Y-24285400D01*
X26743900Y-24285400D02*
X26743900Y-14796100D01*
X26743900Y-14796100D02*
X27448900Y-14091100D01*
X27448900Y-14091100D02*
X34555800Y-14091100D01*
X34555800Y-14091100D02*
X35704700Y-15240000D01*
X22860000Y-29210000D02*
X22860000Y-28084700D01*
X36830000Y-15240000D02*
X35704700Y-15240000D01*
%TO.N,charin6*%
X165100000Y-53340000D02*
X165100000Y-56620700D01*
X165100000Y-56620700D02*
X166023200Y-57543900D01*
X22954700Y-95250000D02*
X22954700Y-95617400D01*
X22954700Y-95617400D02*
X21239900Y-97332200D01*
X21239900Y-97332200D02*
X10562200Y-97332200D01*
X10562200Y-97332200D02*
X9230300Y-96000300D01*
X9230300Y-96000300D02*
X9230300Y-86861600D01*
X9230300Y-86861600D02*
X3465600Y-81096900D01*
X3465600Y-81096900D02*
X3465600Y-71712900D01*
X3465600Y-71712900D02*
X10117300Y-65061200D01*
X10117300Y-65061200D02*
X10117300Y-64193200D01*
X24130000Y-95250000D02*
X22954700Y-95250000D01*
%TO.N,charin5*%
X200311600Y-91516100D02*
X198120000Y-89324500D01*
X198120000Y-89324500D02*
X198120000Y-60960000D01*
X172720000Y-54465300D02*
X172285200Y-54900100D01*
X172285200Y-54900100D02*
X172285200Y-58341200D01*
X172720000Y-53340000D02*
X172720000Y-54465300D01*
%TO.N,charin4*%
X175260000Y-54465300D02*
X174556700Y-54465300D01*
X174556700Y-54465300D02*
X173711600Y-55310400D01*
X173711600Y-55310400D02*
X173711600Y-58206200D01*
X173711600Y-58206200D02*
X171305400Y-60612400D01*
X171305400Y-60612400D02*
X171305400Y-61447500D01*
X171305400Y-61447500D02*
X164790100Y-67962800D01*
X164790100Y-67962800D02*
X159026200Y-67962800D01*
X159026200Y-67962800D02*
X154940000Y-72049000D01*
X154940000Y-72049000D02*
X154940000Y-76650400D01*
X154940000Y-76650400D02*
X152487800Y-79102600D01*
X152487800Y-79102600D02*
X152487800Y-81791500D01*
X152487800Y-81791500D02*
X152734200Y-82037900D01*
X175260000Y-53340000D02*
X175260000Y-54465300D01*
X29210000Y-95250000D02*
X30385300Y-95250000D01*
X30385300Y-95250000D02*
X30385300Y-95617300D01*
X30385300Y-95617300D02*
X32434400Y-97666400D01*
X32434400Y-97666400D02*
X56075400Y-97666400D01*
X56075400Y-97666400D02*
X61346800Y-92395000D01*
X61346800Y-92395000D02*
X71696300Y-92395000D01*
X71696300Y-92395000D02*
X75311600Y-88779700D01*
%TO.N,charin3*%
X120766100Y-59769000D02*
X120766100Y-65124400D01*
X120766100Y-65124400D02*
X120681700Y-65208800D01*
X119380000Y-54465300D02*
X120766100Y-55851400D01*
X120766100Y-55851400D02*
X120766100Y-59769000D01*
X120766100Y-59769000D02*
X122323000Y-59769000D01*
X122323000Y-59769000D02*
X123047000Y-60493000D01*
X123047000Y-60493000D02*
X123047000Y-62110200D01*
X123047000Y-62110200D02*
X126255700Y-65318900D01*
X119380000Y-53340000D02*
X119380000Y-54465300D01*
X31750000Y-95250000D02*
X32925300Y-95250000D01*
X32925300Y-95250000D02*
X32925300Y-95617300D01*
X32925300Y-95617300D02*
X33783400Y-96475400D01*
X33783400Y-96475400D02*
X34756000Y-96475400D01*
X34756000Y-96475400D02*
X35475700Y-95755700D01*
X35475700Y-95755700D02*
X35475700Y-87753900D01*
X35475700Y-87753900D02*
X30993700Y-83271900D01*
X30993700Y-83271900D02*
X30993700Y-78702400D01*
X30993700Y-78702400D02*
X32569700Y-77126400D01*
X32569700Y-77126400D02*
X32569700Y-74066700D01*
X32569700Y-74066700D02*
X31869400Y-73366400D01*
X31869400Y-73366400D02*
X31869400Y-71709700D01*
X31869400Y-71709700D02*
X33546100Y-70033000D01*
%TO.N,charin2*%
X34929300Y-67463400D02*
X31419000Y-70973700D01*
X31419000Y-70973700D02*
X31419000Y-74274600D01*
X31419000Y-74274600D02*
X32119400Y-74975000D01*
X32119400Y-74975000D02*
X32119400Y-76939800D01*
X32119400Y-76939800D02*
X30543300Y-78515900D01*
X30543300Y-78515900D02*
X30543300Y-90328000D01*
X30543300Y-90328000D02*
X34290000Y-94074700D01*
X34290000Y-95250000D02*
X34290000Y-94074700D01*
X172720000Y-59834700D02*
X174751600Y-57803100D01*
X174751600Y-57803100D02*
X174751600Y-55323700D01*
X172720000Y-60960000D02*
X172720000Y-59834700D01*
%TO.N,charin1*%
X163974700Y-60960000D02*
X163974700Y-61241300D01*
X163974700Y-61241300D02*
X163096800Y-62119200D01*
X163096800Y-62119200D02*
X159573400Y-62119200D01*
X159573400Y-62119200D02*
X158605400Y-61151200D01*
X158605400Y-61151200D02*
X158605400Y-59980600D01*
X158605400Y-59980600D02*
X155320300Y-56695500D01*
X36830000Y-95250000D02*
X38005300Y-95250000D01*
X38005300Y-95250000D02*
X38005300Y-96058000D01*
X38005300Y-96058000D02*
X38372700Y-96425400D01*
X38372700Y-96425400D02*
X41449700Y-96425400D01*
X41449700Y-96425400D02*
X49151600Y-88723500D01*
X49151600Y-88723500D02*
X65006600Y-88723500D01*
X65006600Y-88723500D02*
X69705400Y-84024700D01*
X69705400Y-84024700D02*
X69705400Y-78072400D01*
X69705400Y-78072400D02*
X72336700Y-75441100D01*
X72336700Y-75441100D02*
X72336700Y-65937900D01*
X165100000Y-60960000D02*
X163974700Y-60960000D01*
%TO.N,charin0*%
X161434700Y-60960000D02*
X161434700Y-60750300D01*
X161434700Y-60750300D02*
X156590600Y-55906200D01*
X156590600Y-55906200D02*
X149671100Y-55906200D01*
X149671100Y-55906200D02*
X149313200Y-56264100D01*
X162560000Y-60960000D02*
X161434700Y-60960000D01*
X93980000Y-53600000D02*
X95105300Y-53600000D01*
X95105300Y-53600000D02*
X95105300Y-54236500D01*
X95105300Y-54236500D02*
X96999900Y-56131100D01*
X96999900Y-56131100D02*
X96999900Y-58148600D01*
X39370000Y-95250000D02*
X39370000Y-84671400D01*
X39370000Y-84671400D02*
X36553700Y-81855100D01*
X36553700Y-81855100D02*
X32779800Y-81855100D01*
X32779800Y-81855100D02*
X31894700Y-80970000D01*
X31894700Y-80970000D02*
X31894700Y-79075200D01*
X31894700Y-79075200D02*
X34290000Y-76679900D01*
X34290000Y-76679900D02*
X34290000Y-70164900D01*
X34290000Y-70164900D02*
X41351100Y-63103800D01*
%TO.N,Net-(Q1-Pad1)*%
X228600000Y-30480000D02*
X228600000Y-31555300D01*
X228600000Y-31555300D02*
X233680000Y-36635300D01*
X233680000Y-36635300D02*
X233680000Y-40640000D01*
%TO.N,Net-(Q2-Pad1)*%
X228600000Y-40640000D02*
X228600000Y-49530000D01*
X228600000Y-49530000D02*
X215900000Y-62230000D01*
%TO.N,video_shift*%
X86463500Y-41086600D02*
X85517700Y-40140800D01*
X85517700Y-40140800D02*
X85072500Y-40140800D01*
%TO.N,Net-(R4-Pad1)*%
X223520000Y-90170000D02*
X226390000Y-90170000D01*
X226390000Y-90170000D02*
X234950000Y-81610000D01*
X234950000Y-81610000D02*
X234950000Y-81280000D01*
%TO.N,dotclk*%
X35560000Y-53340000D02*
X35560000Y-45269500D01*
X35560000Y-45269500D02*
X31894600Y-41604100D01*
X31894600Y-41604100D02*
X31894600Y-38941400D01*
X31894600Y-38941400D02*
X32615800Y-38220200D01*
X60813500Y-85523100D02*
X52636600Y-77346200D01*
X52636600Y-77346200D02*
X52636600Y-72034400D01*
X52636600Y-72034400D02*
X42777000Y-62174800D01*
X42777000Y-62174800D02*
X40199800Y-62174800D01*
X40199800Y-62174800D02*
X39370000Y-61345000D01*
X39370000Y-61345000D02*
X39370000Y-58275300D01*
X39370000Y-58275300D02*
X35560000Y-54465300D01*
X35560000Y-53340000D02*
X35560000Y-54465300D01*
X12700000Y-15240000D02*
X12700000Y-16365300D01*
X20320000Y-36830000D02*
X19194700Y-36830000D01*
X19194700Y-36830000D02*
X19194700Y-36548700D01*
X19194700Y-36548700D02*
X13784900Y-31138900D01*
X13784900Y-31138900D02*
X7955100Y-31138900D01*
X7955100Y-31138900D02*
X6450300Y-29634100D01*
X6450300Y-29634100D02*
X6450300Y-22615000D01*
X6450300Y-22615000D02*
X12700000Y-16365300D01*
%TO.N,Net-(U1-Pad15)*%
X38244700Y-10545500D02*
X40640000Y-8150200D01*
X40640000Y-8150200D02*
X40640000Y-7298300D01*
X40640000Y-7298300D02*
X41444200Y-6494100D01*
X41444200Y-6494100D02*
X42455900Y-6494100D01*
X42455900Y-6494100D02*
X43101500Y-7139700D01*
X43101500Y-7139700D02*
X43101500Y-19536700D01*
X43101500Y-19536700D02*
X42045000Y-20593200D01*
X42045000Y-20593200D02*
X42045000Y-27589700D01*
X42045000Y-27589700D02*
X32590100Y-37044600D01*
X32590100Y-37044600D02*
X32128800Y-37044600D01*
X32128800Y-37044600D02*
X30986600Y-38186800D01*
X30986600Y-38186800D02*
X30986600Y-46054500D01*
X30986600Y-46054500D02*
X31605300Y-46673200D01*
X31605300Y-46673200D02*
X31605300Y-58709400D01*
X31605300Y-58709400D02*
X30480000Y-59834700D01*
X38244700Y-15240000D02*
X38244700Y-10545500D01*
X13825300Y-7620000D02*
X13825300Y-7338700D01*
X13825300Y-7338700D02*
X14702300Y-6461700D01*
X14702300Y-6461700D02*
X30169700Y-6461700D01*
X30169700Y-6461700D02*
X34253500Y-10545500D01*
X34253500Y-10545500D02*
X38244700Y-10545500D01*
X30480000Y-60960000D02*
X30480000Y-59834700D01*
X39370000Y-15240000D02*
X38244700Y-15240000D01*
X12700000Y-7620000D02*
X13825300Y-7620000D01*
%TO.N,Net-(U1-Pad9)*%
X26847700Y-35491000D02*
X26847700Y-59387800D01*
X26847700Y-59387800D02*
X29545200Y-62085300D01*
X29545200Y-62085300D02*
X31472800Y-62085300D01*
X31472800Y-62085300D02*
X31894700Y-61663400D01*
X31894700Y-61663400D02*
X31894700Y-60960000D01*
X33020000Y-60960000D02*
X31894700Y-60960000D01*
X7620000Y-29210000D02*
X8745300Y-29210000D01*
X27940000Y-7620000D02*
X27940000Y-8745300D01*
X27940000Y-8745300D02*
X27658700Y-8745300D01*
X27658700Y-8745300D02*
X21590000Y-14814000D01*
X21590000Y-14814000D02*
X21590000Y-15579700D01*
X21590000Y-15579700D02*
X8745300Y-28424400D01*
X8745300Y-28424400D02*
X8745300Y-29210000D01*
%TO.N,H4*%
X104624600Y-57413000D02*
X101777100Y-54565500D01*
X101777100Y-54565500D02*
X101777100Y-38869400D01*
X101777100Y-38869400D02*
X100185400Y-37277700D01*
X100185400Y-37277700D02*
X100185400Y-32626700D01*
X100185400Y-32626700D02*
X99224100Y-31665400D01*
X41910000Y-8745300D02*
X40784700Y-9870600D01*
X40784700Y-9870600D02*
X40784700Y-21422600D01*
X40784700Y-21422600D02*
X39370000Y-22837300D01*
X39370000Y-22837300D02*
X39370000Y-27481600D01*
X39370000Y-27481600D02*
X37374500Y-29477100D01*
X37374500Y-29477100D02*
X37374500Y-29575300D01*
X119380000Y-71264700D02*
X115570000Y-67454700D01*
X115570000Y-67454700D02*
X115570000Y-58612300D01*
X115570000Y-58612300D02*
X114501800Y-57544100D01*
X119380000Y-72390000D02*
X119380000Y-71264700D01*
X8745300Y-53340000D02*
X8745300Y-52567700D01*
X8745300Y-52567700D02*
X31737700Y-29575300D01*
X31737700Y-29575300D02*
X37374500Y-29575300D01*
X7620000Y-53340000D02*
X8745300Y-53340000D01*
X41910000Y-7620000D02*
X41910000Y-8745300D01*
%TO.N,~HACTIVE*%
X52054700Y-19974400D02*
X47134600Y-24894500D01*
X47134600Y-24894500D02*
X47134600Y-25653200D01*
X47134600Y-25653200D02*
X35292900Y-37494900D01*
X35292900Y-37494900D02*
X32315400Y-37494900D01*
X32315400Y-37494900D02*
X31437100Y-38373200D01*
X31437100Y-38373200D02*
X31437100Y-42141000D01*
X31437100Y-42141000D02*
X34434700Y-45138600D01*
X34434700Y-45138600D02*
X34434700Y-58709400D01*
X34434700Y-58709400D02*
X35560000Y-59834700D01*
X179070000Y-15240000D02*
X180195300Y-15240000D01*
X180195300Y-15240000D02*
X180195300Y-16101500D01*
X180195300Y-16101500D02*
X192178500Y-28084700D01*
X192178500Y-28084700D02*
X195580000Y-28084700D01*
X123190000Y-35704700D02*
X124362900Y-35704700D01*
X124362900Y-35704700D02*
X129429900Y-30637700D01*
X129429900Y-30637700D02*
X129429900Y-22605200D01*
X129429900Y-22605200D02*
X123190000Y-16365300D01*
X123190000Y-36830000D02*
X123190000Y-35704700D01*
X123190000Y-15240000D02*
X123190000Y-16365300D01*
X55174800Y-19974400D02*
X55174800Y-18453100D01*
X52054700Y-19974400D02*
X55174800Y-19974400D01*
X69850000Y-36830000D02*
X68238200Y-36830000D01*
X68238200Y-36830000D02*
X57150000Y-25741800D01*
X57150000Y-25741800D02*
X57150000Y-25069700D01*
X57150000Y-25069700D02*
X55174800Y-23094500D01*
X55174800Y-23094500D02*
X55174800Y-19974400D01*
X35560000Y-60960000D02*
X34434700Y-60960000D01*
X10160000Y-53340000D02*
X11285300Y-53340000D01*
X11285300Y-53340000D02*
X11285300Y-53058700D01*
X11285300Y-53058700D02*
X12132800Y-52211200D01*
X12132800Y-52211200D02*
X18288600Y-52211200D01*
X18288600Y-52211200D02*
X18905400Y-52828000D01*
X18905400Y-52828000D02*
X18905400Y-53564000D01*
X18905400Y-53564000D02*
X27908600Y-62567200D01*
X27908600Y-62567200D02*
X33108800Y-62567200D01*
X33108800Y-62567200D02*
X34434700Y-61241300D01*
X34434700Y-61241300D02*
X34434700Y-60960000D01*
X35560000Y-60960000D02*
X35560000Y-59834700D01*
X44450000Y-8745300D02*
X44731300Y-8745300D01*
X44731300Y-8745300D02*
X50762900Y-14776900D01*
X50762900Y-14776900D02*
X50762900Y-18682600D01*
X50762900Y-18682600D02*
X52054700Y-19974400D01*
X195580000Y-29210000D02*
X195580000Y-28084700D01*
X195580000Y-28084700D02*
X207010000Y-16654700D01*
X207010000Y-16654700D02*
X207010000Y-16365300D01*
X207010000Y-15240000D02*
X207010000Y-16365300D01*
X44450000Y-7620000D02*
X44450000Y-8745300D01*
%TO.N,H0*%
X127144700Y-29210000D02*
X127144700Y-28928700D01*
X127144700Y-28928700D02*
X124307200Y-26091200D01*
X124307200Y-26091200D02*
X107044100Y-26091200D01*
X107044100Y-26091200D02*
X96520000Y-15567100D01*
X96520000Y-15567100D02*
X96520000Y-14908000D01*
X96520000Y-14908000D02*
X87159200Y-5547200D01*
X87159200Y-5547200D02*
X72766800Y-5547200D01*
X72766800Y-5547200D02*
X70975300Y-7338700D01*
X70975300Y-7338700D02*
X70975300Y-7620000D01*
X148590000Y-72390000D02*
X148590000Y-64625400D01*
X148590000Y-64625400D02*
X146050000Y-62085400D01*
X146050000Y-62085400D02*
X146050000Y-58900500D01*
X146050000Y-58900500D02*
X140970000Y-53820500D01*
X140970000Y-53820500D02*
X140970000Y-50774100D01*
X140970000Y-50774100D02*
X137160000Y-46964100D01*
X137160000Y-46964100D02*
X137160000Y-33648200D01*
X137160000Y-33648200D02*
X134988400Y-31476600D01*
X128270000Y-29210000D02*
X127144700Y-29210000D01*
X69850000Y-7620000D02*
X70975300Y-7620000D01*
%TO.N,H1*%
X132080000Y-71264700D02*
X132080000Y-67456100D01*
X132080000Y-67456100D02*
X123568700Y-58944800D01*
X123568700Y-58944800D02*
X123568700Y-41512600D01*
X123568700Y-41512600D02*
X122564600Y-40508500D01*
X72390000Y-7620000D02*
X72390000Y-8745300D01*
X72390000Y-8745300D02*
X72671300Y-8745300D01*
X72671300Y-8745300D02*
X76556400Y-12630400D01*
X76556400Y-12630400D02*
X76556400Y-13549700D01*
X76556400Y-13549700D02*
X76288500Y-13817600D01*
X76288500Y-13817600D02*
X76288500Y-15683300D01*
X76288500Y-15683300D02*
X77664900Y-17059700D01*
X77664900Y-17059700D02*
X78815000Y-17059700D01*
X78815000Y-17059700D02*
X98497400Y-36742100D01*
X98497400Y-36742100D02*
X98497400Y-36830000D01*
X98497400Y-36830000D02*
X101034800Y-39367400D01*
X101034800Y-39367400D02*
X101034800Y-39703700D01*
X132080000Y-72390000D02*
X132080000Y-71264700D01*
X99060000Y-36830000D02*
X98497400Y-36830000D01*
%TO.N,H2*%
X127000000Y-72390000D02*
X127000000Y-63013000D01*
X127000000Y-63013000D02*
X123052500Y-59065500D01*
X123052500Y-59065500D02*
X123052500Y-44964000D01*
X123052500Y-44964000D02*
X120269100Y-42180600D01*
X106680000Y-36830000D02*
X106680000Y-40733000D01*
X106680000Y-40733000D02*
X106615400Y-40797600D01*
X76055300Y-7620000D02*
X76055300Y-7338700D01*
X76055300Y-7338700D02*
X76946000Y-6448000D01*
X76946000Y-6448000D02*
X80481500Y-6448000D01*
X80481500Y-6448000D02*
X81280000Y-7246500D01*
X81280000Y-7246500D02*
X81280000Y-8003200D01*
X81280000Y-8003200D02*
X101336500Y-28059700D01*
X101336500Y-28059700D02*
X104617200Y-28059700D01*
X104617200Y-28059700D02*
X105265400Y-28707900D01*
X105265400Y-28707900D02*
X105265400Y-31821800D01*
X105265400Y-31821800D02*
X106680000Y-33236400D01*
X106680000Y-33236400D02*
X106680000Y-36830000D01*
X74930000Y-7620000D02*
X76055300Y-7620000D01*
%TO.N,H3*%
X108657400Y-29210000D02*
X107818600Y-30048800D01*
X107818600Y-30048800D02*
X107818600Y-38155400D01*
X107818600Y-38155400D02*
X107355000Y-38619000D01*
X107355000Y-38619000D02*
X107355000Y-50617800D01*
X107355000Y-50617800D02*
X105530800Y-52442000D01*
X105530800Y-52442000D02*
X105530800Y-62840900D01*
X105530800Y-62840900D02*
X106187000Y-63497100D01*
X77470000Y-7620000D02*
X76327000Y-8763000D01*
X76327000Y-8763000D02*
X74468700Y-8763000D01*
X74468700Y-8763000D02*
X73756600Y-8050900D01*
X73756600Y-8050900D02*
X73756600Y-7171100D01*
X73756600Y-7171100D02*
X74930100Y-5997600D01*
X74930100Y-5997600D02*
X85585800Y-5997600D01*
X85585800Y-5997600D02*
X93980000Y-14391800D01*
X93980000Y-14391800D02*
X93980000Y-15614800D01*
X93980000Y-15614800D02*
X106449900Y-28084700D01*
X106449900Y-28084700D02*
X107250800Y-28084700D01*
X107250800Y-28084700D02*
X108094700Y-28928600D01*
X108094700Y-28928600D02*
X108094700Y-29210000D01*
X124460000Y-72390000D02*
X124460000Y-71264700D01*
X118793400Y-64483400D02*
X118793400Y-65598100D01*
X118793400Y-65598100D02*
X124460000Y-71264700D01*
X108657400Y-29210000D02*
X108094700Y-29210000D01*
X109220000Y-29210000D02*
X108657400Y-29210000D01*
%TO.N,Net-(U12-Pad5)*%
X95250000Y-7620000D02*
X92666200Y-5036200D01*
X92666200Y-5036200D02*
X70823400Y-5036200D01*
X70823400Y-5036200D02*
X68720200Y-7139400D01*
X68720200Y-7139400D02*
X68720200Y-21687700D01*
X68720200Y-21687700D02*
X73515400Y-26482900D01*
X73515400Y-26482900D02*
X73515400Y-37308200D01*
X73515400Y-37308200D02*
X59526200Y-51297400D01*
X59526200Y-51297400D02*
X53419600Y-51297400D01*
X53419600Y-51297400D02*
X50091500Y-54625500D01*
X50091500Y-54625500D02*
X50091500Y-54625600D01*
X50091500Y-54625600D02*
X49691900Y-54625600D01*
X49691900Y-54625600D02*
X49003300Y-55314200D01*
X49003300Y-55314200D02*
X49003300Y-55713800D01*
X49003300Y-55713800D02*
X45389000Y-59328100D01*
X45389000Y-59328100D02*
X43115900Y-59328100D01*
X43115900Y-59328100D02*
X41765300Y-60678700D01*
X41765300Y-60678700D02*
X41765300Y-60960000D01*
X40640000Y-60960000D02*
X41765300Y-60960000D01*
%TO.N,VBLANK*%
X7620000Y-59834700D02*
X6494700Y-58709400D01*
X6494700Y-58709400D02*
X6494700Y-52327300D01*
X6494700Y-52327300D02*
X21590000Y-37232000D01*
X21590000Y-37232000D02*
X21590000Y-35334000D01*
X21590000Y-35334000D02*
X28325200Y-28598800D01*
X28325200Y-28598800D02*
X28325200Y-18368500D01*
X28325200Y-18368500D02*
X28325300Y-18368500D01*
X7620000Y-60960000D02*
X7620000Y-59834700D01*
%TO.N,Net-(U4-Pad10)*%
X123190000Y-7620000D02*
X122064700Y-7620000D01*
X107950000Y-7620000D02*
X109075300Y-7620000D01*
X109075300Y-7620000D02*
X109075300Y-7338700D01*
X109075300Y-7338700D02*
X109919300Y-6494700D01*
X109919300Y-6494700D02*
X121220800Y-6494700D01*
X121220800Y-6494700D02*
X122064700Y-7338600D01*
X122064700Y-7338600D02*
X122064700Y-7620000D01*
%TO.N,Net-(U12-Pad6)*%
X75823200Y-13036100D02*
X72946200Y-13036100D01*
X72946200Y-13036100D02*
X71234100Y-14748200D01*
X71234100Y-14748200D02*
X71234100Y-21661600D01*
X71234100Y-21661600D02*
X76115200Y-26542700D01*
X76115200Y-26542700D02*
X76115200Y-37268800D01*
X76115200Y-37268800D02*
X61636300Y-51747700D01*
X61636300Y-51747700D02*
X53606200Y-51747700D01*
X53606200Y-51747700D02*
X53606200Y-51747800D01*
X53606200Y-51747800D02*
X50278100Y-55075900D01*
X50278100Y-55075900D02*
X49878500Y-55075900D01*
X49878500Y-55075900D02*
X49453600Y-55500800D01*
X49453600Y-55500800D02*
X49453600Y-55900400D01*
X49453600Y-55900400D02*
X45575600Y-59778400D01*
X45575600Y-59778400D02*
X45205500Y-59778400D01*
X45205500Y-59778400D02*
X44305300Y-60678600D01*
X44305300Y-60678600D02*
X44305300Y-60960000D01*
X43180000Y-60960000D02*
X44305300Y-60960000D01*
%TO.N,Net-(U13-Pad2)*%
X193040000Y-60960000D02*
X191914700Y-60960000D01*
X130810000Y-7620000D02*
X131935300Y-7620000D01*
X131935300Y-7620000D02*
X131935300Y-8042000D01*
X131935300Y-8042000D02*
X135054900Y-11161600D01*
X135054900Y-11161600D02*
X136254800Y-11161600D01*
X136254800Y-11161600D02*
X140462900Y-15369700D01*
X140462900Y-15369700D02*
X140462900Y-18994800D01*
X140462900Y-18994800D02*
X159543200Y-38075100D01*
X159543200Y-38075100D02*
X159896000Y-38075100D01*
X159896000Y-38075100D02*
X161290000Y-39469100D01*
X161290000Y-39469100D02*
X161290000Y-40990700D01*
X161290000Y-40990700D02*
X166631100Y-46331800D01*
X166631100Y-46331800D02*
X168197400Y-46331800D01*
X168197400Y-46331800D02*
X172860400Y-50994800D01*
X172860400Y-50994800D02*
X174509400Y-50994800D01*
X174509400Y-50994800D02*
X176385400Y-52870800D01*
X176385400Y-52870800D02*
X176385400Y-53528500D01*
X176385400Y-53528500D02*
X184942200Y-62085300D01*
X184942200Y-62085300D02*
X191492800Y-62085300D01*
X191492800Y-62085300D02*
X191914700Y-61663400D01*
X191914700Y-61663400D02*
X191914700Y-60960000D01*
%TO.N,Net-(U13-Pad1)*%
X189374700Y-60960000D02*
X185606700Y-57192000D01*
X185606700Y-57192000D02*
X185606700Y-56250400D01*
X185606700Y-56250400D02*
X180919200Y-51562900D01*
X180919200Y-51562900D02*
X176884200Y-51562900D01*
X176884200Y-51562900D02*
X169596500Y-44275200D01*
X169596500Y-44275200D02*
X167089300Y-44275200D01*
X167089300Y-44275200D02*
X163685400Y-40871300D01*
X163685400Y-40871300D02*
X163685400Y-40123100D01*
X163685400Y-40123100D02*
X160545600Y-36983300D01*
X160545600Y-36983300D02*
X159116000Y-36983300D01*
X159116000Y-36983300D02*
X145970500Y-23837800D01*
X145970500Y-23837800D02*
X145970500Y-20236100D01*
X145970500Y-20236100D02*
X134479700Y-8745300D01*
X134479700Y-8745300D02*
X133350000Y-8745300D01*
X190500000Y-60960000D02*
X189374700Y-60960000D01*
X133350000Y-7620000D02*
X133350000Y-8745300D01*
%TO.N,Net-(U5-Pad10)*%
X151130000Y-7620000D02*
X150004700Y-7620000D01*
X135890000Y-7620000D02*
X137015300Y-7620000D01*
X137015300Y-7620000D02*
X137015300Y-7338700D01*
X137015300Y-7338700D02*
X137859300Y-6494700D01*
X137859300Y-6494700D02*
X149160800Y-6494700D01*
X149160800Y-6494700D02*
X150004700Y-7338600D01*
X150004700Y-7338600D02*
X150004700Y-7620000D01*
%TO.N,VACTIVE*%
X38765500Y-29111800D02*
X38765500Y-29275400D01*
X38765500Y-29275400D02*
X31896900Y-36144000D01*
X31896900Y-36144000D02*
X31755600Y-36144000D01*
X31755600Y-36144000D02*
X27573000Y-40326600D01*
X27573000Y-40326600D02*
X27573000Y-49530000D01*
X195580000Y-59834700D02*
X196705300Y-58709400D01*
X196705300Y-58709400D02*
X196705300Y-51125000D01*
X196705300Y-51125000D02*
X202695300Y-45135000D01*
X202695300Y-45135000D02*
X202695300Y-32029200D01*
X202695300Y-32029200D02*
X210689000Y-24035500D01*
X210689000Y-24035500D02*
X210689000Y-14114700D01*
X210689000Y-14114700D02*
X210238700Y-13664400D01*
X210238700Y-13664400D02*
X194189500Y-13664400D01*
X194189500Y-13664400D02*
X192895300Y-14958600D01*
X192895300Y-14958600D02*
X192895300Y-15240000D01*
X210689000Y-14114700D02*
X217740800Y-14114700D01*
X217740800Y-14114700D02*
X218584700Y-14958600D01*
X218584700Y-14958600D02*
X218584700Y-15240000D01*
X195580000Y-60960000D02*
X195580000Y-59834700D01*
X191770000Y-15240000D02*
X192895300Y-15240000D01*
X219710000Y-15240000D02*
X218584700Y-15240000D01*
%TO.N,V1*%
X115436900Y-45484100D02*
X114845600Y-45484100D01*
X114845600Y-45484100D02*
X111383200Y-42021700D01*
X81135300Y-36830000D02*
X81135300Y-37239900D01*
X81135300Y-37239900D02*
X85917100Y-42021700D01*
X115436900Y-45484100D02*
X121641200Y-39279800D01*
X121641200Y-39279800D02*
X122827900Y-39279800D01*
X122827900Y-39279800D02*
X124315300Y-37792400D01*
X124315300Y-37792400D02*
X124315300Y-36577700D01*
X124315300Y-36577700D02*
X128457300Y-32435700D01*
X128457300Y-32435700D02*
X129219200Y-32435700D01*
X129219200Y-32435700D02*
X132080000Y-29574900D01*
X132080000Y-29574900D02*
X132080000Y-26627500D01*
X132080000Y-26627500D02*
X137104900Y-21602600D01*
X137104900Y-21602600D02*
X137104900Y-13047400D01*
X100185300Y-72390000D02*
X100185300Y-72195200D01*
X100185300Y-72195200D02*
X101115800Y-71264700D01*
X101115800Y-71264700D02*
X101248900Y-71264700D01*
X101248900Y-71264700D02*
X108467100Y-64046500D01*
X108467100Y-64046500D02*
X108467100Y-63383800D01*
X108467100Y-63383800D02*
X110490000Y-61360900D01*
X110490000Y-61360900D02*
X110490000Y-60405700D01*
X110490000Y-60405700D02*
X115436900Y-55458800D01*
X115436900Y-55458800D02*
X115436900Y-45484100D01*
X80010000Y-36830000D02*
X81135300Y-36830000D01*
X99060000Y-72390000D02*
X100185300Y-72390000D01*
%TO.N,V2*%
X183024700Y-7620000D02*
X183024700Y-7338700D01*
X183024700Y-7338700D02*
X182153300Y-6467300D01*
X182153300Y-6467300D02*
X163316400Y-6467300D01*
X163316400Y-6467300D02*
X162560000Y-7223700D01*
X162560000Y-7223700D02*
X162560000Y-8025900D01*
X162560000Y-8025900D02*
X157405400Y-13180500D01*
X157405400Y-13180500D02*
X154081700Y-13180500D01*
X154081700Y-13180500D02*
X152400000Y-14862200D01*
X152400000Y-14862200D02*
X152400000Y-18645100D01*
X152400000Y-18645100D02*
X149150500Y-21894600D01*
X184150000Y-7620000D02*
X183024700Y-7620000D01*
X83675300Y-29210000D02*
X83675300Y-28928700D01*
X83675300Y-28928700D02*
X84540800Y-28063200D01*
X84540800Y-28063200D02*
X85544500Y-28063200D01*
X85544500Y-28063200D02*
X86360000Y-28878700D01*
X86360000Y-28878700D02*
X86360000Y-31587800D01*
X86360000Y-31587800D02*
X90897500Y-36125300D01*
X90897500Y-36125300D02*
X90897500Y-51257300D01*
X90897500Y-51257300D02*
X92735800Y-53095600D01*
X92735800Y-53095600D02*
X92735800Y-68075900D01*
X92735800Y-68075900D02*
X95924600Y-71264700D01*
X95924600Y-71264700D02*
X96520000Y-71264700D01*
X96520000Y-72390000D02*
X96520000Y-71264700D01*
X82550000Y-29210000D02*
X83675300Y-29210000D01*
%TO.N,V3*%
X91440000Y-72390000D02*
X91440000Y-70779600D01*
X91440000Y-70779600D02*
X87628200Y-66967800D01*
X87628200Y-66967800D02*
X87628200Y-41225500D01*
X87628200Y-41225500D02*
X83820000Y-37417300D01*
X83820000Y-37417300D02*
X83820000Y-32645300D01*
X83820000Y-32645300D02*
X81280000Y-30105300D01*
X81280000Y-30105300D02*
X81280000Y-28832000D01*
X81280000Y-28832000D02*
X79195700Y-26747700D01*
X79195700Y-26747700D02*
X78236300Y-26747700D01*
X185564700Y-7620000D02*
X185564700Y-7901400D01*
X185564700Y-7901400D02*
X184720800Y-8745300D01*
X184720800Y-8745300D02*
X171246900Y-8745300D01*
X171246900Y-8745300D02*
X165240000Y-14752200D01*
X165240000Y-14752200D02*
X165240000Y-16257900D01*
X165240000Y-16257900D02*
X160248600Y-21249300D01*
X186690000Y-7620000D02*
X185564700Y-7620000D01*
%TO.N,Net-(U7-Pad10)*%
X207010000Y-7620000D02*
X205884700Y-7620000D01*
X191770000Y-7620000D02*
X192895300Y-7620000D01*
X192895300Y-7620000D02*
X192895300Y-7847700D01*
X192895300Y-7847700D02*
X193792900Y-8745300D01*
X193792900Y-8745300D02*
X204952200Y-8745300D01*
X204952200Y-8745300D02*
X205884700Y-7812800D01*
X205884700Y-7812800D02*
X205884700Y-7620000D01*
%TO.N,charline0*%
X169943500Y-19311600D02*
X180059500Y-9195600D01*
X180059500Y-9195600D02*
X207130500Y-9195600D01*
X207130500Y-9195600D02*
X208424700Y-7901400D01*
X208424700Y-7901400D02*
X208424700Y-7620000D01*
X50800000Y-40640000D02*
X50800000Y-31632800D01*
X50800000Y-31632800D02*
X55617500Y-26815300D01*
X209550000Y-7620000D02*
X208424700Y-7620000D01*
%TO.N,charline1*%
X210964700Y-7620000D02*
X210964700Y-7901300D01*
X210964700Y-7901300D02*
X209220100Y-9645900D01*
X209220100Y-9645900D02*
X183038600Y-9645900D01*
X183038600Y-9645900D02*
X177655400Y-15029100D01*
X177655400Y-15029100D02*
X177655400Y-16198400D01*
X177655400Y-16198400D02*
X170966600Y-22887200D01*
X170966600Y-22887200D02*
X166325600Y-22887200D01*
X212090000Y-7620000D02*
X210964700Y-7620000D01*
%TO.N,charline2*%
X184212100Y-19087300D02*
X185282900Y-18016500D01*
X185282900Y-18016500D02*
X185282900Y-15003500D01*
X185282900Y-15003500D02*
X190003600Y-10282800D01*
X190003600Y-10282800D02*
X211123400Y-10282800D01*
X211123400Y-10282800D02*
X213504700Y-7901500D01*
X213504700Y-7901500D02*
X213504700Y-7620000D01*
X214630000Y-7620000D02*
X213504700Y-7620000D01*
%TO.N,V0*%
X103014700Y-72390000D02*
X103014700Y-72671400D01*
X103014700Y-72671400D02*
X102170800Y-73515300D01*
X102170800Y-73515300D02*
X98576600Y-73515300D01*
X98576600Y-73515300D02*
X97790000Y-72728700D01*
X97790000Y-72728700D02*
X97790000Y-43499500D01*
X97790000Y-43499500D02*
X91766400Y-37475900D01*
X91766400Y-37475900D02*
X91766400Y-33762600D01*
X104140000Y-72390000D02*
X103014700Y-72390000D01*
%TO.N,Net-(U10-Pad15)*%
X11285300Y-29210000D02*
X11285300Y-28928700D01*
X11285300Y-28928700D02*
X12673300Y-27540700D01*
X12673300Y-27540700D02*
X18752400Y-27540700D01*
X10160000Y-29210000D02*
X11285300Y-29210000D01*
%TO.N,char5*%
X157036700Y-18573300D02*
X157036700Y-19063100D01*
X157036700Y-19063100D02*
X161187100Y-23213500D01*
X161187100Y-23213500D02*
X161991400Y-23213500D01*
X161991400Y-23213500D02*
X163903900Y-25126000D01*
X163903900Y-25126000D02*
X163903900Y-25863100D01*
X163903900Y-25863100D02*
X164566100Y-26525300D01*
X164566100Y-26525300D02*
X172720000Y-26525300D01*
X172720000Y-26525300D02*
X173845300Y-27650600D01*
X173845300Y-27650600D02*
X173845300Y-47477600D01*
X173845300Y-47477600D02*
X174636900Y-48269200D01*
X170180000Y-53340000D02*
X170180000Y-54465300D01*
X170180000Y-54465300D02*
X170115500Y-54529800D01*
X170115500Y-54529800D02*
X170115500Y-58514500D01*
X172720000Y-25400000D02*
X172720000Y-26525300D01*
%TO.N,char0*%
X160915800Y-45968100D02*
X161415800Y-46468100D01*
X161415800Y-46468100D02*
X161415800Y-57710700D01*
X161415800Y-57710700D02*
X161989900Y-58284800D01*
X76384300Y-39017000D02*
X79172200Y-39017000D01*
X79172200Y-39017000D02*
X86902900Y-46747700D01*
%TO.N,char1*%
X40640000Y-40640000D02*
X39014000Y-39014000D01*
X39014000Y-39014000D02*
X35571400Y-39014000D01*
X35571400Y-39014000D02*
X34400500Y-40184900D01*
X34400500Y-40184900D02*
X34400500Y-41469400D01*
X34400500Y-41469400D02*
X41910000Y-48978900D01*
X41910000Y-48978900D02*
X41910000Y-56504300D01*
X41910000Y-56504300D02*
X43723600Y-58317900D01*
X167640000Y-60960000D02*
X167640000Y-56368400D01*
X167640000Y-56368400D02*
X166370000Y-55098400D01*
X166370000Y-55098400D02*
X166370000Y-47593700D01*
X166370000Y-47593700D02*
X164779900Y-46003600D01*
%TO.N,char2*%
X45088500Y-58602800D02*
X44450000Y-57964300D01*
X44450000Y-57964300D02*
X44450000Y-48741400D01*
X44450000Y-48741400D02*
X39160100Y-43451500D01*
X170180000Y-59834700D02*
X168797800Y-58452500D01*
X168797800Y-58452500D02*
X168797800Y-48033200D01*
X168797800Y-48033200D02*
X168352300Y-47587700D01*
X170180000Y-60960000D02*
X170180000Y-59834700D01*
%TO.N,char3*%
X186460400Y-56977700D02*
X186460400Y-41704700D01*
X186460400Y-41704700D02*
X177573700Y-32818000D01*
X177573700Y-32818000D02*
X177573700Y-26751600D01*
X177573700Y-26751600D02*
X177800000Y-26525300D01*
X35560000Y-40640000D02*
X36685300Y-40640000D01*
X36685300Y-40640000D02*
X36685300Y-40358700D01*
X36685300Y-40358700D02*
X37574000Y-39470000D01*
X37574000Y-39470000D02*
X38566500Y-39470000D01*
X38566500Y-39470000D02*
X39370000Y-40273500D01*
X39370000Y-40273500D02*
X39370000Y-40984200D01*
X39370000Y-40984200D02*
X40151100Y-41765300D01*
X40151100Y-41765300D02*
X51272300Y-41765300D01*
X51272300Y-41765300D02*
X52070000Y-40967600D01*
X52070000Y-40967600D02*
X52070000Y-35056000D01*
X52070000Y-35056000D02*
X58730700Y-28395300D01*
X177800000Y-25400000D02*
X177800000Y-26525300D01*
%TO.N,char4*%
X175260000Y-26525300D02*
X176385300Y-27650600D01*
X176385300Y-27650600D02*
X176385300Y-46839100D01*
X176385300Y-46839100D02*
X180350900Y-50804700D01*
X175260000Y-25400000D02*
X175260000Y-26525300D01*
X33020000Y-40640000D02*
X35745600Y-37914400D01*
X35745600Y-37914400D02*
X50039400Y-37914400D01*
X193040000Y-80010000D02*
X193040000Y-78884700D01*
X193040000Y-78884700D02*
X191877600Y-77722300D01*
X191877600Y-77722300D02*
X191877600Y-64400900D01*
X184931400Y-60471400D02*
X177800000Y-53340000D01*
%TO.N,Net-(U11-Pad6)*%
X17780000Y-53340000D02*
X17780000Y-60960000D01*
%TO.N,HACTIVE*%
X139700000Y-53340000D02*
X139700000Y-54465300D01*
X157480000Y-60960000D02*
X157480000Y-62085300D01*
X157480000Y-62085300D02*
X149860000Y-69705300D01*
X149860000Y-69705300D02*
X149860000Y-72711700D01*
X149860000Y-72711700D02*
X149029000Y-73542700D01*
X149029000Y-73542700D02*
X148142500Y-73542700D01*
X148142500Y-73542700D02*
X147399700Y-72799900D01*
X147399700Y-72799900D02*
X147399700Y-66691100D01*
X147399700Y-66691100D02*
X143510000Y-62801400D01*
X143510000Y-62801400D02*
X143510000Y-58275300D01*
X143510000Y-58275300D02*
X139700000Y-54465300D01*
%TO.N,Net-(U13-Pad6)*%
X55880000Y-60960000D02*
X55880000Y-78049600D01*
X55880000Y-78049600D02*
X61631400Y-83801000D01*
X214630000Y-80010000D02*
X214630000Y-78884700D01*
X210063300Y-62506600D02*
X213504700Y-65948000D01*
X213504700Y-65948000D02*
X213504700Y-77759400D01*
X213504700Y-77759400D02*
X214630000Y-78884700D01*
%TO.N,~vramWrite*%
X147054700Y-31499900D02*
X147054700Y-47350300D01*
X147054700Y-47350300D02*
X145315400Y-49089600D01*
%TO.N,Net-(U14-Pad8)*%
X167640000Y-40640000D02*
X166514700Y-40640000D01*
X166514700Y-40640000D02*
X166514700Y-40358700D01*
X166514700Y-40358700D02*
X160476200Y-34320200D01*
X160476200Y-34320200D02*
X157162000Y-34320200D01*
X157162000Y-34320200D02*
X148349600Y-25507800D01*
X148349600Y-25507800D02*
X148349600Y-25161600D01*
%TO.N,Net-(U14-Pad7)*%
X104140000Y-36830000D02*
X104140000Y-42311500D01*
X104140000Y-42311500D02*
X105488000Y-43659500D01*
%TO.N,Net-(U14-Pad6)*%
X112885300Y-36830000D02*
X112885300Y-37111300D01*
X112885300Y-37111300D02*
X113988900Y-38214900D01*
X113988900Y-38214900D02*
X116874900Y-38214900D01*
X111760000Y-36830000D02*
X112885300Y-36830000D01*
%TO.N,Net-(U14-Pad5)*%
X115425300Y-29210000D02*
X121080500Y-34865200D01*
X121080500Y-34865200D02*
X124165600Y-34865200D01*
X114300000Y-29210000D02*
X115425300Y-29210000D01*
%TO.N,Net-(U14-Pad4)*%
X157480000Y-39514700D02*
X140989300Y-23024000D01*
X140989300Y-23024000D02*
X140989300Y-22326200D01*
X157480000Y-40640000D02*
X157480000Y-39514700D01*
%TO.N,Net-(U14-Pad3)*%
X78595300Y-36830000D02*
X78595300Y-37111400D01*
X78595300Y-37111400D02*
X84389800Y-42905900D01*
X77470000Y-36830000D02*
X78595300Y-36830000D01*
%TO.N,cursorY1*%
X152400000Y-92710000D02*
X146513000Y-92710000D01*
X146513000Y-92710000D02*
X135388700Y-81585700D01*
X135388700Y-81585700D02*
X116355600Y-81585700D01*
X116355600Y-81585700D02*
X110097000Y-75327100D01*
X110097000Y-75327100D02*
X100342800Y-75327100D01*
X101600000Y-72390000D02*
X102729800Y-71260200D01*
X102729800Y-71260200D02*
X107183900Y-71260200D01*
X107183900Y-71260200D02*
X107847500Y-71923800D01*
X107847500Y-71923800D02*
X107847500Y-72832100D01*
X107847500Y-72832100D02*
X106710900Y-73968700D01*
X106710900Y-73968700D02*
X98137800Y-73968700D01*
X98137800Y-73968700D02*
X97963300Y-73794200D01*
X97963300Y-73794200D02*
X91252400Y-73794200D01*
X91252400Y-73794200D02*
X90170000Y-72711800D01*
X90170000Y-72711800D02*
X90170000Y-70787200D01*
X90170000Y-70787200D02*
X85090000Y-65707200D01*
X85090000Y-65707200D02*
X85090000Y-46674300D01*
X85090000Y-46674300D02*
X79135000Y-40719300D01*
%TO.N,cursorY3*%
X137160000Y-92710000D02*
X130682100Y-92710000D01*
X130682100Y-92710000D02*
X123615800Y-85643700D01*
X123615800Y-85643700D02*
X116362500Y-85643700D01*
X116362500Y-85643700D02*
X109560000Y-78841200D01*
X109560000Y-78841200D02*
X93283600Y-78841200D01*
X93283600Y-78841200D02*
X92505200Y-78062800D01*
X77470000Y-29210000D02*
X77470000Y-33895800D01*
X77470000Y-33895800D02*
X78622500Y-35048300D01*
X78122200Y-40719300D02*
X78122200Y-41505900D01*
X78122200Y-41505900D02*
X78751400Y-42135100D01*
X78751400Y-42135100D02*
X78751400Y-69118300D01*
X78751400Y-69118300D02*
X88517800Y-78884700D01*
X88517800Y-78884700D02*
X88900000Y-78884700D01*
X88900000Y-80010000D02*
X88900000Y-78884700D01*
%TO.N,cursorY0*%
X78186100Y-76380700D02*
X79865400Y-74701400D01*
X79865400Y-74701400D02*
X79865400Y-71333700D01*
X79865400Y-71333700D02*
X78301000Y-69769300D01*
X78301000Y-69769300D02*
X78301000Y-42943600D01*
X78301000Y-42943600D02*
X77109700Y-41752300D01*
X112350700Y-73602900D02*
X115931800Y-77184000D01*
X115931800Y-77184000D02*
X138793500Y-77184000D01*
X138793500Y-77184000D02*
X147023700Y-85414200D01*
X147023700Y-85414200D02*
X152724200Y-85414200D01*
X152724200Y-85414200D02*
X160020000Y-92710000D01*
%TO.N,cursorY2*%
X93980000Y-71264700D02*
X90293900Y-67578600D01*
X90293900Y-67578600D02*
X90293900Y-39493800D01*
X90293900Y-39493800D02*
X90370500Y-39417200D01*
X90370500Y-39417200D02*
X90370500Y-36235200D01*
X90370500Y-36235200D02*
X85090000Y-30954700D01*
X85090000Y-30954700D02*
X85090000Y-30335300D01*
X18905300Y-80010000D02*
X18905300Y-80291300D01*
X18905300Y-80291300D02*
X19749400Y-81135400D01*
X19749400Y-81135400D02*
X25439100Y-81135400D01*
X25439100Y-81135400D02*
X31346500Y-75228000D01*
X97476200Y-74969800D02*
X100478600Y-77972200D01*
X100478600Y-77972200D02*
X110529700Y-77972200D01*
X110529700Y-77972200D02*
X115464700Y-82907200D01*
X115464700Y-82907200D02*
X126807400Y-82907200D01*
X126807400Y-82907200D02*
X132655500Y-88755300D01*
X132655500Y-88755300D02*
X140825300Y-88755300D01*
X140825300Y-88755300D02*
X144780000Y-92710000D01*
X17780000Y-80010000D02*
X18905300Y-80010000D01*
X93980000Y-72390000D02*
X93980000Y-71264700D01*
X85090000Y-29210000D02*
X85090000Y-30335300D01*
%TO.N,cursorX2*%
X108668700Y-72748000D02*
X106988200Y-74428500D01*
X106988200Y-74428500D02*
X97960700Y-74428500D01*
X97960700Y-74428500D02*
X97776700Y-74244500D01*
X97776700Y-74244500D02*
X95297800Y-74244500D01*
X95297800Y-74244500D02*
X90025400Y-79516900D01*
X90025400Y-79516900D02*
X90025400Y-81012400D01*
X90025400Y-81012400D02*
X89902400Y-81135400D01*
X89902400Y-81135400D02*
X75629400Y-81135400D01*
X75629400Y-81135400D02*
X74785300Y-80291300D01*
X74785300Y-80291300D02*
X74785300Y-80010000D01*
X108668700Y-72748000D02*
X112813700Y-72748000D01*
X112813700Y-72748000D02*
X115685400Y-75619700D01*
X115685400Y-75619700D02*
X119080400Y-75619700D01*
X119080400Y-75619700D02*
X119608700Y-75091400D01*
X119608700Y-75091400D02*
X119608700Y-75091300D01*
X119608700Y-75091300D02*
X125994700Y-75091300D01*
X125994700Y-75091300D02*
X128414700Y-72671300D01*
X128414700Y-72671300D02*
X128414700Y-72390000D01*
X128977400Y-72390000D02*
X130374200Y-73786800D01*
X130374200Y-73786800D02*
X136670100Y-73786800D01*
X136670100Y-73786800D02*
X146997400Y-84114100D01*
X146997400Y-84114100D02*
X178194100Y-84114100D01*
X178194100Y-84114100D02*
X186790000Y-92710000D01*
X186790000Y-92710000D02*
X189230000Y-92710000D01*
X128977400Y-72390000D02*
X128414700Y-72390000D01*
X129540000Y-72390000D02*
X128977400Y-72390000D01*
X109207600Y-63732000D02*
X109207600Y-66699100D01*
X109207600Y-66699100D02*
X108668700Y-67238000D01*
X108668700Y-67238000D02*
X108668700Y-72748000D01*
X107726500Y-63732000D02*
X107805400Y-63653100D01*
X107805400Y-63653100D02*
X107805400Y-39369900D01*
X107805400Y-39369900D02*
X109220000Y-37955300D01*
X109220000Y-36830000D02*
X109220000Y-37955300D01*
X73660000Y-80010000D02*
X74785300Y-80010000D01*
%TO.N,cursorX4*%
X104140000Y-29210000D02*
X104140000Y-33060500D01*
X104140000Y-33060500D02*
X105325000Y-34245500D01*
X105325000Y-34245500D02*
X105325000Y-42271000D01*
X105325000Y-42271000D02*
X106252700Y-43198700D01*
X106252700Y-43198700D02*
X106252700Y-46386000D01*
X106252700Y-46386000D02*
X102676200Y-49962500D01*
X62374600Y-81912400D02*
X62374600Y-79335200D01*
X62374600Y-79335200D02*
X64904100Y-76805700D01*
X64904100Y-76805700D02*
X64904100Y-52849600D01*
X64904100Y-52849600D02*
X66457700Y-51296000D01*
X66457700Y-51296000D02*
X72008000Y-51296000D01*
X72008000Y-51296000D02*
X76228800Y-55516800D01*
X76228800Y-55516800D02*
X76228800Y-55926300D01*
X117965300Y-80010000D02*
X117965300Y-80291400D01*
X117965300Y-80291400D02*
X118809200Y-81135300D01*
X118809200Y-81135300D02*
X142107900Y-81135300D01*
X142107900Y-81135300D02*
X146837100Y-85864500D01*
X146837100Y-85864500D02*
X147924400Y-85864500D01*
X147924400Y-85864500D02*
X156002300Y-93942400D01*
X156002300Y-93942400D02*
X172757600Y-93942400D01*
X172757600Y-93942400D02*
X173990000Y-92710000D01*
X116840000Y-80010000D02*
X117965300Y-80010000D01*
%TO.N,cursorX1*%
X134620000Y-71827300D02*
X135735300Y-71827300D01*
X135735300Y-71827300D02*
X147571800Y-83663800D01*
X147571800Y-83663800D02*
X187803800Y-83663800D01*
X187803800Y-83663800D02*
X196850000Y-92710000D01*
X134620000Y-71264700D02*
X134620000Y-69359200D01*
X134620000Y-69359200D02*
X124329400Y-59068600D01*
X124329400Y-59068600D02*
X124329400Y-41455300D01*
X101600000Y-37955300D02*
X102623300Y-38978600D01*
X102623300Y-38978600D02*
X102623300Y-40263700D01*
X134620000Y-71827300D02*
X134620000Y-71264700D01*
X134620000Y-72390000D02*
X134620000Y-71827300D01*
X101600000Y-36830000D02*
X101600000Y-37955300D01*
%TO.N,cursorX3*%
X181610000Y-92710000D02*
X178745800Y-92710000D01*
X178745800Y-92710000D02*
X170840400Y-84804600D01*
X170840400Y-84804600D02*
X147051000Y-84804600D01*
X147051000Y-84804600D02*
X137898700Y-75652300D01*
X137898700Y-75652300D02*
X129485500Y-75652300D01*
X121920000Y-71264700D02*
X118068100Y-67412800D01*
X118068100Y-67412800D02*
X118068100Y-59466700D01*
X118068100Y-59466700D02*
X115420200Y-56818800D01*
X111760000Y-30335300D02*
X110624400Y-31470900D01*
X110624400Y-31470900D02*
X110624400Y-54392100D01*
X110624400Y-54392100D02*
X113051100Y-56818800D01*
X111760000Y-29210000D02*
X111760000Y-30335300D01*
X121920000Y-72390000D02*
X121920000Y-71264700D01*
%TO.N,cursorX0*%
X146050000Y-79447300D02*
X149816200Y-83213500D01*
X149816200Y-83213500D02*
X190801900Y-83213500D01*
X190801900Y-83213500D02*
X200298400Y-92710000D01*
X200298400Y-92710000D02*
X204470000Y-92710000D01*
X146050000Y-78884700D02*
X138324100Y-71158800D01*
X138324100Y-71158800D02*
X138324100Y-51335800D01*
X138324100Y-51335800D02*
X134620000Y-47631700D01*
X134620000Y-47631700D02*
X134620000Y-32745200D01*
X134620000Y-32745200D02*
X133136700Y-31261900D01*
X146050000Y-79447300D02*
X146050000Y-78884700D01*
X146050000Y-80010000D02*
X146050000Y-79447300D01*
%TO.N,Net-(U18-Pad5)*%
X71120000Y-54465300D02*
X69994700Y-55590600D01*
X69994700Y-55590600D02*
X69994700Y-75145400D01*
X69994700Y-75145400D02*
X68020900Y-77119200D01*
X71120000Y-53340000D02*
X71120000Y-54465300D01*
%TO.N,Net-(U19-Pad5)*%
X43180000Y-78884700D02*
X44524600Y-78884700D01*
X44524600Y-78884700D02*
X49709400Y-73699900D01*
X43180000Y-80010000D02*
X43180000Y-78884700D01*
%TO.N,Net-(U19-Pad4)*%
X68580000Y-72390000D02*
X68580000Y-73515300D01*
X40640000Y-80010000D02*
X41765300Y-80010000D01*
X41765300Y-80010000D02*
X41765300Y-80291300D01*
X41765300Y-80291300D02*
X48472500Y-86998500D01*
X48472500Y-86998500D02*
X66053100Y-86998500D01*
X66053100Y-86998500D02*
X67165400Y-85886200D01*
X67165400Y-85886200D02*
X67165400Y-74929900D01*
X67165400Y-74929900D02*
X68580000Y-73515300D01*
%TO.N,cursor_inc*%
X132080000Y-59834700D02*
X131354900Y-59109600D01*
X131354900Y-59109600D02*
X131354900Y-56870000D01*
X131354900Y-56870000D02*
X130904600Y-56419700D01*
X130904600Y-56419700D02*
X130904600Y-52861700D01*
X130904600Y-52861700D02*
X132902500Y-50863800D01*
X132902500Y-50863800D02*
X133320500Y-50863800D01*
X74799400Y-56845300D02*
X74799400Y-54737400D01*
X74799400Y-54737400D02*
X71820100Y-51758100D01*
X71820100Y-51758100D02*
X68535500Y-51758100D01*
X68535500Y-51758100D02*
X67165300Y-53128300D01*
X67165300Y-53128300D02*
X67165300Y-58709400D01*
X67165300Y-58709400D02*
X66040000Y-59834700D01*
X71120000Y-78884700D02*
X74799400Y-75205300D01*
X74799400Y-75205300D02*
X74799400Y-56845300D01*
X144780000Y-52214700D02*
X143654700Y-52214700D01*
X143654700Y-52214700D02*
X142303800Y-50863800D01*
X132080000Y-60960000D02*
X132080000Y-59834700D01*
X144780000Y-53340000D02*
X144780000Y-52214700D01*
X66040000Y-60960000D02*
X66040000Y-59834700D01*
X71120000Y-80010000D02*
X71120000Y-78884700D01*
%TO.N,Net-(U21-Pad6)*%
X120794700Y-80010000D02*
X120794700Y-79728700D01*
X120794700Y-79728700D02*
X119500400Y-78434400D01*
X119500400Y-78434400D02*
X114273100Y-78434400D01*
X121920000Y-80010000D02*
X120794700Y-80010000D01*
%TO.N,videoAtCursor*%
X187960000Y-37955300D02*
X187960000Y-38745700D01*
X187960000Y-38745700D02*
X194165400Y-44951100D01*
X194165400Y-44951100D02*
X194165400Y-61432700D01*
X194165400Y-61432700D02*
X191922600Y-63675500D01*
X191922600Y-63675500D02*
X175928500Y-63675500D01*
X175928500Y-63675500D02*
X159875300Y-79728700D01*
X159875300Y-79728700D02*
X159875300Y-80010000D01*
X187960000Y-36830000D02*
X187960000Y-37955300D01*
X158750000Y-80010000D02*
X159875300Y-80010000D01*
%TO.N,Net-(U25-Pad6)*%
X198120000Y-36830000D02*
X198120000Y-37955300D01*
X198120000Y-37955300D02*
X193334300Y-42741000D01*
X193334300Y-42741000D02*
X193334300Y-43094300D01*
%TO.N,Net-(U25-Pad4)*%
X159896000Y-39149000D02*
X158750000Y-40295000D01*
X158750000Y-40295000D02*
X158750000Y-41182400D01*
X158750000Y-41182400D02*
X148301000Y-51631400D01*
X148301000Y-51631400D02*
X148301000Y-52622000D01*
X148301000Y-52622000D02*
X148499500Y-52820500D01*
X148499500Y-52820500D02*
X148499500Y-59265300D01*
X148499500Y-59265300D02*
X149308600Y-60074400D01*
%TO.N,Net-(U26-Pad3)*%
X137160000Y-60960000D02*
X137160000Y-59834700D01*
X137160000Y-59834700D02*
X137030100Y-59834700D01*
X137030100Y-59834700D02*
X132731100Y-55535700D01*
X60960000Y-59834700D02*
X62085300Y-58709400D01*
X62085300Y-58709400D02*
X62085300Y-53130600D01*
X62085300Y-53130600D02*
X64402800Y-50813100D01*
X64402800Y-50813100D02*
X72162000Y-50813100D01*
X72162000Y-50813100D02*
X77518700Y-56169800D01*
X77518700Y-56169800D02*
X77518700Y-58533800D01*
X77518700Y-58533800D02*
X77518800Y-58533800D01*
X60960000Y-60960000D02*
X60960000Y-59834700D01*
%TO.N,Net-(U27-Pad6)*%
X93980000Y-60094700D02*
X95083000Y-58991700D01*
X95083000Y-58991700D02*
X95083000Y-55919400D01*
X95083000Y-55919400D02*
X95083100Y-55919400D01*
X93980000Y-61220000D02*
X93980000Y-60094700D01*
%TO.N,Net-(U27-Pad4)*%
X88900000Y-60094700D02*
X89562200Y-59432500D01*
X89562200Y-59432500D02*
X89562200Y-55675800D01*
X88900000Y-61220000D02*
X88900000Y-60094700D01*
%TO.N,Net-(D1-Pad1)*%
X204470000Y-95250000D02*
X205695300Y-95250000D01*
X213360000Y-87630000D02*
X212234700Y-87630000D01*
X205695300Y-95250000D02*
X205695300Y-94169400D01*
X205695300Y-94169400D02*
X212234700Y-87630000D01*
%TO.N,Net-(D2-Pad1)*%
X196850000Y-95250000D02*
X198075300Y-95250000D01*
X198075300Y-95250000D02*
X199300600Y-94024700D01*
X199300600Y-94024700D02*
X204898200Y-94024700D01*
X204898200Y-94024700D02*
X205695500Y-93227400D01*
X205695500Y-93227400D02*
X205695500Y-92139300D01*
X205695500Y-92139300D02*
X201186200Y-87630000D01*
X201186200Y-87630000D02*
X199390000Y-87630000D01*
%TO.N,Net-(D3-Pad1)*%
X185420000Y-87630000D02*
X186545300Y-87630000D01*
X189230000Y-95250000D02*
X189230000Y-94024700D01*
X189230000Y-94024700D02*
X189689500Y-94024700D01*
X189689500Y-94024700D02*
X190469700Y-93244500D01*
X190469700Y-93244500D02*
X190469700Y-91554400D01*
X190469700Y-91554400D02*
X186545300Y-87630000D01*
%TO.N,Net-(D4-Pad1)*%
X171450000Y-87630000D02*
X172575300Y-87630000D01*
X181610000Y-95250000D02*
X180195300Y-95250000D01*
X180195300Y-95250000D02*
X172575300Y-87630000D01*
%TO.N,Net-(D5-Pad1)*%
X157480000Y-87630000D02*
X158605300Y-87630000D01*
X173990000Y-95250000D02*
X173990000Y-94024700D01*
X173990000Y-94024700D02*
X174449500Y-94024700D01*
X174449500Y-94024700D02*
X175219600Y-93254600D01*
X175219600Y-93254600D02*
X175219600Y-92164500D01*
X175219600Y-92164500D02*
X171810400Y-88755300D01*
X171810400Y-88755300D02*
X159730600Y-88755300D01*
X159730600Y-88755300D02*
X158605300Y-87630000D01*
%TO.N,Net-(D6-Pad1)*%
X144635300Y-87630000D02*
X147229900Y-90224600D01*
X147229900Y-90224600D02*
X151647600Y-90224600D01*
X151647600Y-90224600D02*
X156673000Y-95250000D01*
X156673000Y-95250000D02*
X160020000Y-95250000D01*
X143510000Y-87630000D02*
X144635300Y-87630000D01*
%TO.N,Net-(D7-Pad1)*%
X130665300Y-87630000D02*
X132997300Y-89962000D01*
X132997300Y-89962000D02*
X137910200Y-89962000D01*
X137910200Y-89962000D02*
X141972900Y-94024700D01*
X141972900Y-94024700D02*
X149949400Y-94024700D01*
X149949400Y-94024700D02*
X151174700Y-95250000D01*
X129540000Y-87630000D02*
X130665300Y-87630000D01*
X152400000Y-95250000D02*
X151174700Y-95250000D01*
%TO.N,Net-(D8-Pad1)*%
X115570000Y-87630000D02*
X116695300Y-87630000D01*
X144780000Y-95250000D02*
X140453300Y-95250000D01*
X140453300Y-95250000D02*
X139227900Y-94024600D01*
X139227900Y-94024600D02*
X123089900Y-94024600D01*
X123089900Y-94024600D02*
X116695300Y-87630000D01*
%TO.N,Net-(D9-Pad1)*%
X101600000Y-87630000D02*
X102725300Y-87630000D01*
X137160000Y-95250000D02*
X110345300Y-95250000D01*
X110345300Y-95250000D02*
X102725300Y-87630000D01*
%TO.N,CLS*%
X207010000Y-81135300D02*
X205175300Y-82970000D01*
X205175300Y-82970000D02*
X205175300Y-90020800D01*
X209550000Y-80010000D02*
X209550000Y-76550400D01*
X209550000Y-76550400D02*
X205835500Y-72835900D01*
X205835500Y-72835900D02*
X205835500Y-63391100D01*
X205835500Y-63391100D02*
X206881900Y-62344700D01*
X206881900Y-62344700D02*
X206881900Y-35340700D01*
X206881900Y-35340700D02*
X203832500Y-32291300D01*
X60960000Y-96520000D02*
X71772200Y-96520000D01*
X71772200Y-96520000D02*
X77859700Y-90432500D01*
X207010000Y-80010000D02*
X207010000Y-81135300D01*
X19050000Y-95250000D02*
X17874700Y-95250000D01*
X10160000Y-72390000D02*
X10160000Y-73515300D01*
X10160000Y-73515300D02*
X11286600Y-74641900D01*
X11286600Y-74641900D02*
X11286600Y-81278800D01*
X11286600Y-81278800D02*
X10203500Y-82361900D01*
X10203500Y-82361900D02*
X10203500Y-95699700D01*
X10203500Y-95699700D02*
X10929100Y-96425300D01*
X10929100Y-96425300D02*
X17066800Y-96425300D01*
X17066800Y-96425300D02*
X17874700Y-95617400D01*
X17874700Y-95617400D02*
X17874700Y-95250000D01*
%TO.N,Net-(U25-Pad1)*%
X185420000Y-36830000D02*
X185420000Y-34004400D01*
X185420000Y-34004400D02*
X184614900Y-33199300D01*
%TO.N,char6*%
X167640000Y-54465300D02*
X168177200Y-55002500D01*
X168177200Y-55002500D02*
X168177200Y-59064000D01*
X168177200Y-59064000D02*
X168820400Y-59707200D01*
X168820400Y-59707200D02*
X168820400Y-61403800D01*
X168820400Y-61403800D02*
X162961600Y-67262600D01*
X162961600Y-67262600D02*
X157171100Y-67262600D01*
X157171100Y-67262600D02*
X152400000Y-72033700D01*
X152400000Y-72033700D02*
X152400000Y-76050800D01*
X152400000Y-76050800D02*
X149994900Y-78455900D01*
X149994900Y-78455900D02*
X149994900Y-80543500D01*
X149994900Y-80543500D02*
X152214600Y-82763200D01*
X152214600Y-82763200D02*
X179282800Y-82763200D01*
X179282800Y-82763200D02*
X181754700Y-80291300D01*
X181754700Y-80291300D02*
X181754700Y-80010000D01*
X182880000Y-80010000D02*
X181754700Y-80010000D01*
X167640000Y-53340000D02*
X167640000Y-54465300D01*
%TO.N,Net-(U10-Pad10)*%
X54754700Y-40640000D02*
X54754700Y-40921400D01*
X54754700Y-40921400D02*
X53460500Y-42215600D01*
X53460500Y-42215600D02*
X38230600Y-42215600D01*
X38230600Y-42215600D02*
X37201500Y-43244700D01*
X55880000Y-40640000D02*
X54754700Y-40640000D01*
%TO.N,Net-(U10-Pad14)*%
X58420000Y-25400000D02*
X58420000Y-24274700D01*
X56465400Y-22434600D02*
X58305500Y-24274700D01*
X58305500Y-24274700D02*
X58420000Y-24274700D01*
%TO.N,Net-(U14-Pad23)*%
X80010000Y-30335300D02*
X82599400Y-32924700D01*
X82599400Y-32924700D02*
X82599400Y-33579000D01*
X80010000Y-29210000D02*
X80010000Y-30335300D01*
%TO.N,Net-(U14-Pad20)*%
X200660000Y-29210000D02*
X199534700Y-29210000D01*
X178299000Y-28066800D02*
X180567500Y-30335300D01*
X180567500Y-30335300D02*
X198690800Y-30335300D01*
X198690800Y-30335300D02*
X199534700Y-29491400D01*
X199534700Y-29491400D02*
X199534700Y-29210000D01*
%TO.N,Net-(U14-Pad2)*%
X86215300Y-36830000D02*
X86215300Y-37111300D01*
X86215300Y-37111300D02*
X88144000Y-39040000D01*
X88144000Y-39040000D02*
X89577700Y-39040000D01*
X85090000Y-36830000D02*
X86215300Y-36830000D01*
%TO.N,Net-(U14-Pad1)*%
X88755300Y-29210000D02*
X95278500Y-35733200D01*
X95278500Y-35733200D02*
X95278500Y-38644500D01*
X87630000Y-29210000D02*
X88755300Y-29210000D01*
%TO.N,Net-(U26-Pad10)*%
X74073300Y-51557200D02*
X74073300Y-43737600D01*
X74073300Y-43737600D02*
X77817000Y-39993900D01*
X77817000Y-39993900D02*
X79443800Y-39993900D01*
X79443800Y-39993900D02*
X86177600Y-46727700D01*
X86177600Y-46727700D02*
X86177600Y-52292300D01*
X86177600Y-52292300D02*
X86360000Y-52474700D01*
X86360000Y-53600000D02*
X86360000Y-52474700D01*
%TO.N,Net-(U26-Pad4)*%
X135682400Y-66622500D02*
X130679600Y-61619700D01*
X130679600Y-61619700D02*
X130679600Y-57497600D01*
X130679600Y-57497600D02*
X130454200Y-57272200D01*
X130454200Y-57272200D02*
X130454200Y-53476500D01*
X130454200Y-53476500D02*
X127318500Y-50340800D01*
X175260000Y-72390000D02*
X175260000Y-73515300D01*
X172720000Y-80010000D02*
X173874300Y-81164300D01*
X173874300Y-81164300D02*
X175723100Y-81164300D01*
X175723100Y-81164300D02*
X176385300Y-80502100D01*
X176385300Y-80502100D02*
X176385300Y-74640600D01*
X176385300Y-74640600D02*
X175260000Y-73515300D01*
%TO.N,Net-(U28-Pad6)*%
X119380000Y-60960000D02*
X119380000Y-62085300D01*
X119380000Y-62085300D02*
X120004700Y-62710000D01*
X120004700Y-62710000D02*
X120004700Y-64131800D01*
%TO.N,Net-(U28-Pad8)*%
X124928600Y-62665800D02*
X124928600Y-61671800D01*
X124928600Y-61671800D02*
X121920000Y-58663200D01*
X121920000Y-58663200D02*
X121920000Y-53340000D01*
%TO.N,Net-(U30-Pad6)*%
X219710000Y-72390000D02*
X219710000Y-80010000D01*
%TO.N,Net-(U30-Pad8)*%
X222250000Y-72390000D02*
X222250000Y-71264700D01*
X222250000Y-71264700D02*
X214754300Y-63769000D01*
X214754300Y-63769000D02*
X214754300Y-60185300D01*
X214754300Y-60185300D02*
X218440000Y-56499600D01*
X218440000Y-56499600D02*
X218440000Y-36830000D01*
X218440000Y-36830000D02*
X217314700Y-36830000D01*
X210820000Y-36830000D02*
X211945300Y-36830000D01*
X211945300Y-36830000D02*
X211945300Y-36548700D01*
X211945300Y-36548700D02*
X212789300Y-35704700D01*
X212789300Y-35704700D02*
X216470800Y-35704700D01*
X216470800Y-35704700D02*
X217314700Y-36548600D01*
X217314700Y-36548600D02*
X217314700Y-36830000D01*
%TO.N,Net-(C3-Pad1)*%
X129941200Y-58648300D02*
X129941200Y-55426900D01*
X129941200Y-55426900D02*
X125588200Y-51073900D01*
X43180000Y-85090000D02*
X39478500Y-81388500D01*
X39478500Y-81388500D02*
X39478500Y-66020700D01*
X39478500Y-66020700D02*
X42524500Y-62974700D01*
%TO.N,Net-(U19-Pad11)*%
X109441800Y-68529700D02*
X115806500Y-74894400D01*
X115806500Y-74894400D02*
X118779900Y-74894400D01*
X73660000Y-72390000D02*
X73660000Y-71264700D01*
X69705300Y-53340000D02*
X69705300Y-53058600D01*
X69705300Y-53058600D02*
X70549200Y-52214700D01*
X70549200Y-52214700D02*
X71589100Y-52214700D01*
X71589100Y-52214700D02*
X73660000Y-54285600D01*
X73660000Y-54285600D02*
X73660000Y-71264700D01*
X68580000Y-53340000D02*
X69705300Y-53340000D01*
%TO.N,CR*%
X184085000Y-62909700D02*
X177026900Y-55851600D01*
X177026900Y-55851600D02*
X176508700Y-55851600D01*
%TD*%
M02*
