M48
; DRILL file {KiCad 5.1.6-c6e7f7d~87~ubuntu16.04.1} date Tue Mar  8 12:57:44 2022
; FORMAT={-:-/ absolute / metric / decimal}
; #@! TF.CreationDate,2022-03-08T12:57:44-05:00
; #@! TF.GenerationSoftware,Kicad,Pcbnew,5.1.6-c6e7f7d~87~ubuntu16.04.1
FMAT,2
METRIC
T1C0.400
T2C0.800
T3C0.900
T4C1.000
T5C2.700
%
G90
G05
T1
X10.117Y-64.193
X13.654Y-81.996
X18.752Y-27.541
X24.855Y-25.079
X26.848Y-35.491
X27.573Y-49.53
X28.325Y-18.369
X31.346Y-75.228
X32.616Y-38.22
X33.546Y-70.033
X34.929Y-67.463
X37.201Y-43.245
X37.374Y-29.575
X38.765Y-29.112
X39.16Y-43.451
X41.351Y-63.104
X42.524Y-62.975
X43.724Y-58.318
X45.088Y-58.603
X48.349Y-17.258
X49.709Y-73.7
X50.039Y-37.914
X50.179Y-55.801
X55.175Y-18.453
X55.617Y-26.815
X56.465Y-22.435
X58.731Y-28.395
X60.569Y-77.657
X60.813Y-85.523
X61.631Y-83.801
X61.632Y-84.827
X62.375Y-81.912
X64.179Y-58.033
X65.725Y-86.249
X68.021Y-77.119
X70.751Y-70.317
X72.337Y-65.938
X74.073Y-51.557
X74.799Y-56.845
X75.312Y-88.78
X75.823Y-13.036
X76.229Y-55.926
X76.384Y-39.017
X77.11Y-41.752
X77.519Y-58.534
X77.86Y-90.432
X78.122Y-40.719
X78.186Y-76.381
X78.236Y-26.748
X78.623Y-35.048
X79.135Y-40.719
X79.477Y-68.818
X82.599Y-33.579
X84.058Y-31.075
X84.39Y-42.906
X85.072Y-40.141
X85.917Y-42.022
X86.463Y-41.087
X86.903Y-46.748
X89.562Y-55.676
X89.578Y-39.04
X91.766Y-33.763
X92.505Y-78.063
X93.461Y-67.775
X95.083Y-55.919
X95.278Y-38.645
X97.0Y-58.149
X97.476Y-74.97
X99.224Y-31.665
X100.343Y-75.327
X101.035Y-39.704
X102.623Y-40.264
X102.676Y-49.962
X104.625Y-57.413
X105.488Y-43.66
X106.187Y-63.497
X106.615Y-40.798
X107.727Y-63.732
X109.208Y-63.732
X109.442Y-68.53
X111.383Y-42.022
X112.351Y-73.603
X112.978Y-26.816
X113.051Y-56.819
X114.273Y-78.434
X114.502Y-57.544
X115.42Y-56.819
X116.875Y-38.215
X118.78Y-74.894
X118.793Y-64.483
X120.005Y-64.132
X120.269Y-42.181
X120.682Y-65.209
X120.986Y-66.278
X122.565Y-40.508
X124.166Y-34.865
X124.329Y-41.455
X124.929Y-62.666
X125.588Y-51.074
X126.256Y-65.319
X127.319Y-50.341
X129.486Y-75.652
X129.941Y-58.648
X132.731Y-55.536
X133.137Y-31.262
X133.32Y-50.864
X134.988Y-31.477
X135.682Y-66.623
X137.105Y-13.047
X138.231Y-86.8
X139.145Y-17.451
X140.989Y-22.326
X142.304Y-50.864
X145.315Y-49.09
X147.055Y-31.5
X148.35Y-25.162
X149.09Y-51.868
X149.15Y-21.895
X149.309Y-60.074
X149.313Y-56.264
X152.734Y-82.038
X155.32Y-56.695
X157.037Y-18.573
X159.896Y-39.149
X160.249Y-21.249
X160.916Y-45.968
X161.99Y-58.285
X164.78Y-46.004
X166.023Y-57.544
X166.326Y-22.887
X168.352Y-47.588
X169.944Y-19.312
X170.115Y-58.514
X171.427Y-48.532
X172.285Y-58.341
X174.637Y-48.269
X174.752Y-55.324
X176.509Y-55.852
X178.299Y-28.067
X180.351Y-50.805
X184.085Y-62.91
X184.212Y-19.087
X184.49Y-56.2
X184.615Y-33.199
X184.931Y-60.471
X186.46Y-56.978
X191.878Y-64.401
X193.334Y-43.094
X200.312Y-91.516
X203.832Y-32.291
X205.175Y-90.021
X210.063Y-62.507
T2
X119.38Y-87.63
X129.54Y-87.63
X38.18Y-85.09
X43.18Y-85.09
X81.28Y-53.6
X81.28Y-61.22
X83.82Y-53.6
X83.82Y-61.22
X86.36Y-53.6
X86.36Y-61.22
X88.9Y-53.6
X88.9Y-61.22
X91.44Y-53.6
X91.44Y-61.22
X93.98Y-53.6
X93.98Y-61.22
X96.52Y-53.6
X96.52Y-61.22
X148.59Y-7.62
X148.59Y-15.24
X151.13Y-7.62
X151.13Y-15.24
X153.67Y-7.62
X153.67Y-15.24
X156.21Y-7.62
X156.21Y-15.24
X158.75Y-7.62
X158.75Y-15.24
X161.29Y-7.62
X161.29Y-15.24
X163.83Y-7.62
X163.83Y-15.24
X166.37Y-7.62
X166.37Y-15.24
X149.86Y-25.4
X149.86Y-40.64
X152.4Y-25.4
X152.4Y-40.64
X154.94Y-25.4
X154.94Y-40.64
X157.48Y-25.4
X157.48Y-40.64
X160.02Y-25.4
X160.02Y-40.64
X162.56Y-25.4
X162.56Y-40.64
X165.1Y-25.4
X165.1Y-40.64
X167.64Y-25.4
X167.64Y-40.64
X170.18Y-25.4
X170.18Y-40.64
X172.72Y-25.4
X172.72Y-40.64
X175.26Y-25.4
X175.26Y-40.64
X177.8Y-25.4
X177.8Y-40.64
X228.6Y-40.64
X231.14Y-40.64
X233.68Y-40.64
X208.28Y-29.21
X208.28Y-36.83
X210.82Y-29.21
X210.82Y-36.83
X213.36Y-29.21
X213.36Y-36.83
X215.9Y-29.21
X215.9Y-36.83
X218.44Y-29.21
X218.44Y-36.83
X220.98Y-29.21
X220.98Y-36.83
X223.52Y-29.21
X223.52Y-36.83
X176.53Y-7.62
X176.53Y-15.24
X179.07Y-7.62
X179.07Y-15.24
X181.61Y-7.62
X181.61Y-15.24
X184.15Y-7.62
X184.15Y-15.24
X186.69Y-7.62
X186.69Y-15.24
X189.23Y-7.62
X189.23Y-15.24
X191.77Y-7.62
X191.77Y-15.24
X194.31Y-7.62
X194.31Y-15.24
X223.52Y-90.17
X223.52Y-95.25
X226.06Y-92.71
X6.35Y-10.16
X6.35Y-15.16
X92.71Y-7.62
X92.71Y-15.24
X95.25Y-7.62
X95.25Y-15.24
X97.79Y-7.62
X97.79Y-15.24
X100.33Y-7.62
X100.33Y-15.24
X102.87Y-7.62
X102.87Y-15.24
X105.41Y-7.62
X105.41Y-15.24
X107.95Y-7.62
X107.95Y-15.24
X110.49Y-7.62
X110.49Y-15.24
X2.54Y-12.7
X2.54Y-22.86
X5.08Y-29.21
X5.08Y-36.83
X7.62Y-29.21
X7.62Y-36.83
X10.16Y-29.21
X10.16Y-36.83
X12.7Y-29.21
X12.7Y-36.83
X15.24Y-29.21
X15.24Y-36.83
X17.78Y-29.21
X17.78Y-36.83
X20.32Y-29.21
X20.32Y-36.83
X22.86Y-29.21
X22.86Y-36.83
X1.27Y-29.21
X1.27Y-34.21
X231.14Y-16.51
X231.14Y-21.59
X233.68Y-19.05
X33.02Y-25.4
X33.02Y-40.64
X35.56Y-25.4
X35.56Y-40.64
X38.1Y-25.4
X38.1Y-40.64
X40.64Y-25.4
X40.64Y-40.64
X43.18Y-25.4
X43.18Y-40.64
X45.72Y-25.4
X45.72Y-40.64
X48.26Y-25.4
X48.26Y-40.64
X50.8Y-25.4
X50.8Y-40.64
X53.34Y-25.4
X53.34Y-40.64
X55.88Y-25.4
X55.88Y-40.64
X58.42Y-25.4
X58.42Y-40.64
X60.96Y-25.4
X60.96Y-40.64
X105.41Y-87.63
X115.57Y-87.63
X36.83Y-7.62
X36.83Y-15.24
X39.37Y-7.62
X39.37Y-15.24
X41.91Y-7.62
X41.91Y-15.24
X44.45Y-7.62
X44.45Y-15.24
X46.99Y-7.62
X46.99Y-15.24
X49.53Y-7.62
X49.53Y-15.24
X52.07Y-7.62
X52.07Y-15.24
X54.61Y-7.62
X54.61Y-15.24
X10.16Y-7.62
X10.16Y-15.24
X12.7Y-7.62
X12.7Y-15.24
X15.24Y-7.62
X15.24Y-15.24
X17.78Y-7.62
X17.78Y-15.24
X20.32Y-7.62
X20.32Y-15.24
X22.86Y-7.62
X22.86Y-15.24
X25.4Y-7.62
X25.4Y-15.24
X27.94Y-7.62
X27.94Y-15.24
X189.23Y-87.63
X199.39Y-87.63
X123.19Y-29.21
X123.19Y-36.83
X125.73Y-29.21
X125.73Y-36.83
X128.27Y-29.21
X128.27Y-36.83
X130.81Y-29.21
X130.81Y-36.83
X133.35Y-29.21
X133.35Y-36.83
X135.89Y-29.21
X135.89Y-36.83
X138.43Y-29.21
X138.43Y-36.83
X140.97Y-29.21
X140.97Y-36.83
X69.85Y-29.21
X69.85Y-36.83
X72.39Y-29.21
X72.39Y-36.83
X74.93Y-29.21
X74.93Y-36.83
X77.47Y-29.21
X77.47Y-36.83
X80.01Y-29.21
X80.01Y-36.83
X82.55Y-29.21
X82.55Y-36.83
X85.09Y-29.21
X85.09Y-36.83
X87.63Y-29.21
X87.63Y-36.83
X55.88Y-53.34
X55.88Y-60.96
X58.42Y-53.34
X58.42Y-60.96
X60.96Y-53.34
X60.96Y-60.96
X63.5Y-53.34
X63.5Y-60.96
X66.04Y-53.34
X66.04Y-60.96
X68.58Y-53.34
X68.58Y-60.96
X71.12Y-53.34
X71.12Y-60.96
X172.72Y-72.39
X172.72Y-80.01
X175.26Y-72.39
X175.26Y-80.01
X177.8Y-72.39
X177.8Y-80.01
X180.34Y-72.39
X180.34Y-80.01
X182.88Y-72.39
X182.88Y-80.01
X185.42Y-72.39
X185.42Y-80.01
X187.96Y-72.39
X187.96Y-80.01
X190.5Y-72.39
X190.5Y-80.01
X193.04Y-72.39
X193.04Y-80.01
X195.58Y-72.39
X195.58Y-80.01
X33.02Y-72.39
X33.02Y-80.01
X35.56Y-72.39
X35.56Y-80.01
X38.1Y-72.39
X38.1Y-80.01
X40.64Y-72.39
X40.64Y-80.01
X43.18Y-72.39
X43.18Y-80.01
X45.72Y-72.39
X45.72Y-80.01
X48.26Y-72.39
X48.26Y-80.01
X50.8Y-72.39
X50.8Y-80.01
X234.95Y-71.12
X234.95Y-81.28
X175.26Y-87.63
X185.42Y-87.63
X5.08Y-72.39
X5.08Y-80.01
X7.62Y-72.39
X7.62Y-80.01
X10.16Y-72.39
X10.16Y-80.01
X12.7Y-72.39
X12.7Y-80.01
X15.24Y-72.39
X15.24Y-80.01
X17.78Y-72.39
X17.78Y-80.01
X20.32Y-72.39
X20.32Y-80.01
X22.86Y-72.39
X22.86Y-80.01
X185.42Y-29.21
X185.42Y-36.83
X187.96Y-29.21
X187.96Y-36.83
X190.5Y-29.21
X190.5Y-36.83
X193.04Y-29.21
X193.04Y-36.83
X195.58Y-29.21
X195.58Y-36.83
X198.12Y-29.21
X198.12Y-36.83
X200.66Y-29.21
X200.66Y-36.83
X64.77Y-7.62
X64.77Y-15.24
X67.31Y-7.62
X67.31Y-15.24
X69.85Y-7.62
X69.85Y-15.24
X72.39Y-7.62
X72.39Y-15.24
X74.93Y-7.62
X74.93Y-15.24
X77.47Y-7.62
X77.47Y-15.24
X80.01Y-7.62
X80.01Y-15.24
X82.55Y-7.62
X82.55Y-15.24
X215.9Y-62.23
X226.06Y-62.23
X204.47Y-7.62
X204.47Y-15.24
X207.01Y-7.62
X207.01Y-15.24
X209.55Y-7.62
X209.55Y-15.24
X212.09Y-7.62
X212.09Y-15.24
X214.63Y-7.62
X214.63Y-15.24
X217.17Y-7.62
X217.17Y-15.24
X219.71Y-7.62
X219.71Y-15.24
X222.25Y-7.62
X222.25Y-15.24
X133.35Y-87.63
X143.51Y-87.63
X233.68Y-49.61
X233.68Y-54.61
X106.68Y-53.34
X106.68Y-60.96
X109.22Y-53.34
X109.22Y-60.96
X111.76Y-53.34
X111.76Y-60.96
X114.3Y-53.34
X114.3Y-60.96
X116.84Y-53.34
X116.84Y-60.96
X119.38Y-53.34
X119.38Y-60.96
X121.92Y-53.34
X121.92Y-60.96
X88.9Y-72.39
X88.9Y-80.01
X91.44Y-72.39
X91.44Y-80.01
X93.98Y-72.39
X93.98Y-80.01
X96.52Y-72.39
X96.52Y-80.01
X99.06Y-72.39
X99.06Y-80.01
X101.6Y-72.39
X101.6Y-80.01
X104.14Y-72.39
X104.14Y-80.01
X106.68Y-72.39
X106.68Y-80.01
X161.29Y-87.63
X171.45Y-87.63
X157.48Y-53.34
X157.48Y-60.96
X160.02Y-53.34
X160.02Y-60.96
X162.56Y-53.34
X162.56Y-60.96
X165.1Y-53.34
X165.1Y-60.96
X167.64Y-53.34
X167.64Y-60.96
X170.18Y-53.34
X170.18Y-60.96
X172.72Y-53.34
X172.72Y-60.96
X175.26Y-53.34
X175.26Y-60.96
X177.8Y-53.34
X177.8Y-60.96
X180.34Y-53.34
X180.34Y-60.96
X91.44Y-87.63
X101.6Y-87.63
X71.12Y-87.63
X71.12Y-90.13
X147.32Y-87.63
X157.48Y-87.63
X207.01Y-72.39
X207.01Y-80.01
X209.55Y-72.39
X209.55Y-80.01
X212.09Y-72.39
X212.09Y-80.01
X214.63Y-72.39
X214.63Y-80.01
X217.17Y-72.39
X217.17Y-80.01
X219.71Y-72.39
X219.71Y-80.01
X222.25Y-72.39
X222.25Y-80.01
X60.96Y-72.39
X60.96Y-80.01
X63.5Y-72.39
X63.5Y-80.01
X66.04Y-72.39
X66.04Y-80.01
X68.58Y-72.39
X68.58Y-80.01
X71.12Y-72.39
X71.12Y-80.01
X73.66Y-72.39
X73.66Y-80.01
X76.2Y-72.39
X76.2Y-80.01
X78.74Y-72.39
X78.74Y-80.01
X120.65Y-7.62
X120.65Y-15.24
X123.19Y-7.62
X123.19Y-15.24
X125.73Y-7.62
X125.73Y-15.24
X128.27Y-7.62
X128.27Y-15.24
X130.81Y-7.62
X130.81Y-15.24
X133.35Y-7.62
X133.35Y-15.24
X135.89Y-7.62
X135.89Y-15.24
X138.43Y-7.62
X138.43Y-15.24
X116.84Y-72.39
X116.84Y-80.01
X119.38Y-72.39
X119.38Y-80.01
X121.92Y-72.39
X121.92Y-80.01
X124.46Y-72.39
X124.46Y-80.01
X127.0Y-72.39
X127.0Y-80.01
X129.54Y-72.39
X129.54Y-80.01
X132.08Y-72.39
X132.08Y-80.01
X134.62Y-72.39
X134.62Y-80.01
X96.52Y-29.21
X96.52Y-36.83
X99.06Y-29.21
X99.06Y-36.83
X101.6Y-29.21
X101.6Y-36.83
X104.14Y-29.21
X104.14Y-36.83
X106.68Y-29.21
X106.68Y-36.83
X109.22Y-29.21
X109.22Y-36.83
X111.76Y-29.21
X111.76Y-36.83
X114.3Y-29.21
X114.3Y-36.83
X228.6Y-30.48
X231.14Y-30.48
X233.68Y-30.48
X229.87Y-85.09
X234.87Y-85.09
X215.9Y-49.53
X226.06Y-49.53
X5.08Y-53.34
X5.08Y-60.96
X7.62Y-53.34
X7.62Y-60.96
X10.16Y-53.34
X10.16Y-60.96
X12.7Y-53.34
X12.7Y-60.96
X15.24Y-53.34
X15.24Y-60.96
X17.78Y-53.34
X17.78Y-60.96
X20.32Y-53.34
X20.32Y-60.96
X50.8Y-96.52
X60.96Y-96.52
X146.05Y-72.39
X146.05Y-80.01
X148.59Y-72.39
X148.59Y-80.01
X151.13Y-72.39
X151.13Y-80.01
X153.67Y-72.39
X153.67Y-80.01
X156.21Y-72.39
X156.21Y-80.01
X158.75Y-72.39
X158.75Y-80.01
X161.29Y-72.39
X161.29Y-80.01
X163.83Y-72.39
X163.83Y-80.01
X203.2Y-87.63
X213.36Y-87.63
X190.5Y-53.34
X190.5Y-60.96
X193.04Y-53.34
X193.04Y-60.96
X195.58Y-53.34
X195.58Y-60.96
X198.12Y-53.34
X198.12Y-60.96
X200.66Y-53.34
X200.66Y-60.96
X203.2Y-53.34
X203.2Y-60.96
X205.74Y-53.34
X205.74Y-60.96
X132.08Y-53.34
X132.08Y-60.96
X134.62Y-53.34
X134.62Y-60.96
X137.16Y-53.34
X137.16Y-60.96
X139.7Y-53.34
X139.7Y-60.96
X142.24Y-53.34
X142.24Y-60.96
X144.78Y-53.34
X144.78Y-60.96
X147.32Y-53.34
X147.32Y-60.96
X30.48Y-53.34
X30.48Y-60.96
X33.02Y-53.34
X33.02Y-60.96
X35.56Y-53.34
X35.56Y-60.96
X38.1Y-53.34
X38.1Y-60.96
X40.64Y-53.34
X40.64Y-60.96
X43.18Y-53.34
X43.18Y-60.96
X45.72Y-53.34
X45.72Y-60.96
X215.9Y-55.88
X226.06Y-55.88
T3
X160.02Y-92.71
X160.02Y-95.25
X181.61Y-92.71
X181.61Y-95.25
X144.78Y-92.71
X144.78Y-95.25
X137.16Y-92.71
X137.16Y-95.25
X173.99Y-92.71
X173.99Y-95.25
X204.47Y-92.71
X204.47Y-95.25
X189.23Y-92.71
X189.23Y-95.25
X152.4Y-92.71
X152.4Y-95.25
X196.85Y-92.71
X196.85Y-95.25
T4
X224.79Y-2.54
X227.33Y-2.54
X11.43Y-95.25
X13.97Y-95.25
X16.51Y-95.25
X19.05Y-95.25
X21.59Y-95.25
X24.13Y-95.25
X26.67Y-95.25
X29.21Y-95.25
X31.75Y-95.25
X34.29Y-95.25
X36.83Y-95.25
X39.37Y-95.25
T5
X234.95Y-95.25
X3.81Y-95.25
X3.81Y-3.81
X234.95Y-3.81
T0
M30
