%TF.GenerationSoftware,KiCad,Pcbnew,5.1.6-c6e7f7d~87~ubuntu16.04.1*%
%TF.CreationDate,2021-01-23T13:17:05-05:00*%
%TF.ProjectId,video,76696465-6f2e-46b6-9963-61645f706362,rev?*%
%TF.SameCoordinates,Original*%
%TF.FileFunction,Soldermask,Top*%
%TF.FilePolarity,Negative*%
%FSLAX46Y46*%
G04 Gerber Fmt 4.6, Leading zero omitted, Abs format (unit mm)*
G04 Created by KiCad (PCBNEW 5.1.6-c6e7f7d~87~ubuntu16.04.1) date 2021-01-23 13:17:05*
%MOMM*%
%LPD*%
G01*
G04 APERTURE LIST*
%ADD10C,1.700000*%
%ADD11C,2.800000*%
%ADD12O,1.700000X1.700000*%
%ADD13R,1.700000X1.700000*%
%ADD14O,1.800000X1.800000*%
%ADD15R,1.800000X1.800000*%
%ADD16C,1.900000*%
%ADD17R,1.900000X1.900000*%
%ADD18C,1.540000*%
%ADD19R,1.600000X1.600000*%
%ADD20C,1.600000*%
G04 APERTURE END LIST*
D10*
%TO.C,C6*%
X1270000Y-34210000D03*
X1270000Y-29210000D03*
%TD*%
%TO.C,C5*%
X6350000Y-15160000D03*
X6350000Y-10160000D03*
%TD*%
D11*
%TO.C,REF3*%
X3810000Y-95250000D03*
%TD*%
%TO.C,REF4*%
X234950000Y-95250000D03*
%TD*%
%TO.C,REF2*%
X234950000Y-3810000D03*
%TD*%
%TO.C,REF1*%
X3810000Y-3810000D03*
%TD*%
D12*
%TO.C,U31*%
X208280000Y-29210000D03*
X223520000Y-36830000D03*
X210820000Y-29210000D03*
X220980000Y-36830000D03*
X213360000Y-29210000D03*
X218440000Y-36830000D03*
X215900000Y-29210000D03*
X215900000Y-36830000D03*
X218440000Y-29210000D03*
X213360000Y-36830000D03*
X220980000Y-29210000D03*
X210820000Y-36830000D03*
X223520000Y-29210000D03*
D13*
X208280000Y-36830000D03*
%TD*%
D12*
%TO.C,U30*%
X207010000Y-72390000D03*
X222250000Y-80010000D03*
X209550000Y-72390000D03*
X219710000Y-80010000D03*
X212090000Y-72390000D03*
X217170000Y-80010000D03*
X214630000Y-72390000D03*
X214630000Y-80010000D03*
X217170000Y-72390000D03*
X212090000Y-80010000D03*
X219710000Y-72390000D03*
X209550000Y-80010000D03*
X222250000Y-72390000D03*
D13*
X207010000Y-80010000D03*
%TD*%
D12*
%TO.C,R16*%
X2540000Y-12700000D03*
D10*
X2540000Y-22860000D03*
%TD*%
D12*
%TO.C,R15*%
X60960000Y-96520000D03*
D10*
X50800000Y-96520000D03*
%TD*%
%TO.C,C4*%
X71120000Y-90130000D03*
D13*
X71120000Y-87630000D03*
%TD*%
D10*
%TO.C,C3*%
X38180000Y-85090000D03*
X43180000Y-85090000D03*
%TD*%
D13*
%TO.C,U14*%
X149860000Y-40640000D03*
D12*
X177800000Y-25400000D03*
X152400000Y-40640000D03*
X175260000Y-25400000D03*
X154940000Y-40640000D03*
X172720000Y-25400000D03*
X157480000Y-40640000D03*
X170180000Y-25400000D03*
X160020000Y-40640000D03*
X167640000Y-25400000D03*
X162560000Y-40640000D03*
X165100000Y-25400000D03*
X165100000Y-40640000D03*
X162560000Y-25400000D03*
X167640000Y-40640000D03*
X160020000Y-25400000D03*
X170180000Y-40640000D03*
X157480000Y-25400000D03*
X172720000Y-40640000D03*
X154940000Y-25400000D03*
X175260000Y-40640000D03*
X152400000Y-25400000D03*
X177800000Y-40640000D03*
X149860000Y-25400000D03*
%TD*%
%TO.C,U10*%
X33020000Y-25400000D03*
X60960000Y-40640000D03*
X35560000Y-25400000D03*
X58420000Y-40640000D03*
X38100000Y-25400000D03*
X55880000Y-40640000D03*
X40640000Y-25400000D03*
X53340000Y-40640000D03*
X43180000Y-25400000D03*
X50800000Y-40640000D03*
X45720000Y-25400000D03*
X48260000Y-40640000D03*
X48260000Y-25400000D03*
X45720000Y-40640000D03*
X50800000Y-25400000D03*
X43180000Y-40640000D03*
X53340000Y-25400000D03*
X40640000Y-40640000D03*
X55880000Y-25400000D03*
X38100000Y-40640000D03*
X58420000Y-25400000D03*
X35560000Y-40640000D03*
X60960000Y-25400000D03*
D13*
X33020000Y-40640000D03*
%TD*%
D12*
%TO.C,U32*%
X172720000Y-72390000D03*
X195580000Y-80010000D03*
X175260000Y-72390000D03*
X193040000Y-80010000D03*
X177800000Y-72390000D03*
X190500000Y-80010000D03*
X180340000Y-72390000D03*
X187960000Y-80010000D03*
X182880000Y-72390000D03*
X185420000Y-80010000D03*
X185420000Y-72390000D03*
X182880000Y-80010000D03*
X187960000Y-72390000D03*
X180340000Y-80010000D03*
X190500000Y-72390000D03*
X177800000Y-80010000D03*
X193040000Y-72390000D03*
X175260000Y-80010000D03*
X195580000Y-72390000D03*
D13*
X172720000Y-80010000D03*
%TD*%
D12*
%TO.C,R13*%
X101600000Y-87630000D03*
D10*
X91440000Y-87630000D03*
%TD*%
D12*
%TO.C,R12*%
X115570000Y-87630000D03*
D10*
X105410000Y-87630000D03*
%TD*%
D12*
%TO.C,R11*%
X129540000Y-87630000D03*
D10*
X119380000Y-87630000D03*
%TD*%
D12*
%TO.C,R10*%
X143510000Y-87630000D03*
D10*
X133350000Y-87630000D03*
%TD*%
D12*
%TO.C,R9*%
X157480000Y-87630000D03*
D10*
X147320000Y-87630000D03*
%TD*%
D12*
%TO.C,R8*%
X171450000Y-87630000D03*
D10*
X161290000Y-87630000D03*
%TD*%
D12*
%TO.C,R7*%
X185420000Y-87630000D03*
D10*
X175260000Y-87630000D03*
%TD*%
D12*
%TO.C,R6*%
X199390000Y-87630000D03*
D10*
X189230000Y-87630000D03*
%TD*%
D12*
%TO.C,R5*%
X213360000Y-87630000D03*
D10*
X203200000Y-87630000D03*
%TD*%
D14*
%TO.C,J2*%
X11430000Y-95250000D03*
X13970000Y-95250000D03*
X16510000Y-95250000D03*
X19050000Y-95250000D03*
X21590000Y-95250000D03*
X24130000Y-95250000D03*
X26670000Y-95250000D03*
X29210000Y-95250000D03*
X31750000Y-95250000D03*
X34290000Y-95250000D03*
X36830000Y-95250000D03*
D15*
X39370000Y-95250000D03*
%TD*%
D16*
%TO.C,D9*%
X137160000Y-92710000D03*
D17*
X137160000Y-95250000D03*
%TD*%
D16*
%TO.C,D8*%
X144780000Y-92710000D03*
D17*
X144780000Y-95250000D03*
%TD*%
D16*
%TO.C,D7*%
X152400000Y-92710000D03*
D17*
X152400000Y-95250000D03*
%TD*%
D16*
%TO.C,D6*%
X160020000Y-92710000D03*
D17*
X160020000Y-95250000D03*
%TD*%
D16*
%TO.C,D5*%
X173990000Y-92710000D03*
D17*
X173990000Y-95250000D03*
%TD*%
D16*
%TO.C,D4*%
X181610000Y-92710000D03*
D17*
X181610000Y-95250000D03*
%TD*%
D16*
%TO.C,D3*%
X189230000Y-92710000D03*
D17*
X189230000Y-95250000D03*
%TD*%
D16*
%TO.C,D2*%
X196850000Y-92710000D03*
D17*
X196850000Y-95250000D03*
%TD*%
D16*
%TO.C,D1*%
X204470000Y-92710000D03*
D17*
X204470000Y-95250000D03*
%TD*%
D12*
%TO.C,U29*%
X132080000Y-53340000D03*
X147320000Y-60960000D03*
X134620000Y-53340000D03*
X144780000Y-60960000D03*
X137160000Y-53340000D03*
X142240000Y-60960000D03*
X139700000Y-53340000D03*
X139700000Y-60960000D03*
X142240000Y-53340000D03*
X137160000Y-60960000D03*
X144780000Y-53340000D03*
X134620000Y-60960000D03*
X147320000Y-53340000D03*
D13*
X132080000Y-60960000D03*
%TD*%
D12*
%TO.C,U28*%
X106680000Y-53340000D03*
X121920000Y-60960000D03*
X109220000Y-53340000D03*
X119380000Y-60960000D03*
X111760000Y-53340000D03*
X116840000Y-60960000D03*
X114300000Y-53340000D03*
X114300000Y-60960000D03*
X116840000Y-53340000D03*
X111760000Y-60960000D03*
X119380000Y-53340000D03*
X109220000Y-60960000D03*
X121920000Y-53340000D03*
D13*
X106680000Y-60960000D03*
%TD*%
D12*
%TO.C,U27*%
X81280000Y-53600000D03*
X96520000Y-61220000D03*
X83820000Y-53600000D03*
X93980000Y-61220000D03*
X86360000Y-53600000D03*
X91440000Y-61220000D03*
X88900000Y-53600000D03*
X88900000Y-61220000D03*
X91440000Y-53600000D03*
X86360000Y-61220000D03*
X93980000Y-53600000D03*
X83820000Y-61220000D03*
X96520000Y-53600000D03*
D13*
X81280000Y-61220000D03*
%TD*%
D12*
%TO.C,U26*%
X55880000Y-53340000D03*
X71120000Y-60960000D03*
X58420000Y-53340000D03*
X68580000Y-60960000D03*
X60960000Y-53340000D03*
X66040000Y-60960000D03*
X63500000Y-53340000D03*
X63500000Y-60960000D03*
X66040000Y-53340000D03*
X60960000Y-60960000D03*
X68580000Y-53340000D03*
X58420000Y-60960000D03*
X71120000Y-53340000D03*
D13*
X55880000Y-60960000D03*
%TD*%
D12*
%TO.C,U25*%
X185420000Y-29210000D03*
X200660000Y-36830000D03*
X187960000Y-29210000D03*
X198120000Y-36830000D03*
X190500000Y-29210000D03*
X195580000Y-36830000D03*
X193040000Y-29210000D03*
X193040000Y-36830000D03*
X195580000Y-29210000D03*
X190500000Y-36830000D03*
X198120000Y-29210000D03*
X187960000Y-36830000D03*
X200660000Y-29210000D03*
D13*
X185420000Y-36830000D03*
%TD*%
D12*
%TO.C,U24*%
X157480000Y-53340000D03*
X180340000Y-60960000D03*
X160020000Y-53340000D03*
X177800000Y-60960000D03*
X162560000Y-53340000D03*
X175260000Y-60960000D03*
X165100000Y-53340000D03*
X172720000Y-60960000D03*
X167640000Y-53340000D03*
X170180000Y-60960000D03*
X170180000Y-53340000D03*
X167640000Y-60960000D03*
X172720000Y-53340000D03*
X165100000Y-60960000D03*
X175260000Y-53340000D03*
X162560000Y-60960000D03*
X177800000Y-53340000D03*
X160020000Y-60960000D03*
X180340000Y-53340000D03*
D13*
X157480000Y-60960000D03*
%TD*%
D12*
%TO.C,U23*%
X146050000Y-72390000D03*
X163830000Y-80010000D03*
X148590000Y-72390000D03*
X161290000Y-80010000D03*
X151130000Y-72390000D03*
X158750000Y-80010000D03*
X153670000Y-72390000D03*
X156210000Y-80010000D03*
X156210000Y-72390000D03*
X153670000Y-80010000D03*
X158750000Y-72390000D03*
X151130000Y-80010000D03*
X161290000Y-72390000D03*
X148590000Y-80010000D03*
X163830000Y-72390000D03*
D13*
X146050000Y-80010000D03*
%TD*%
D12*
%TO.C,U22*%
X116840000Y-72390000D03*
X134620000Y-80010000D03*
X119380000Y-72390000D03*
X132080000Y-80010000D03*
X121920000Y-72390000D03*
X129540000Y-80010000D03*
X124460000Y-72390000D03*
X127000000Y-80010000D03*
X127000000Y-72390000D03*
X124460000Y-80010000D03*
X129540000Y-72390000D03*
X121920000Y-80010000D03*
X132080000Y-72390000D03*
X119380000Y-80010000D03*
X134620000Y-72390000D03*
D13*
X116840000Y-80010000D03*
%TD*%
D12*
%TO.C,U21*%
X88900000Y-72390000D03*
X106680000Y-80010000D03*
X91440000Y-72390000D03*
X104140000Y-80010000D03*
X93980000Y-72390000D03*
X101600000Y-80010000D03*
X96520000Y-72390000D03*
X99060000Y-80010000D03*
X99060000Y-72390000D03*
X96520000Y-80010000D03*
X101600000Y-72390000D03*
X93980000Y-80010000D03*
X104140000Y-72390000D03*
X91440000Y-80010000D03*
X106680000Y-72390000D03*
D13*
X88900000Y-80010000D03*
%TD*%
D12*
%TO.C,U20*%
X60960000Y-72390000D03*
X78740000Y-80010000D03*
X63500000Y-72390000D03*
X76200000Y-80010000D03*
X66040000Y-72390000D03*
X73660000Y-80010000D03*
X68580000Y-72390000D03*
X71120000Y-80010000D03*
X71120000Y-72390000D03*
X68580000Y-80010000D03*
X73660000Y-72390000D03*
X66040000Y-80010000D03*
X76200000Y-72390000D03*
X63500000Y-80010000D03*
X78740000Y-72390000D03*
D13*
X60960000Y-80010000D03*
%TD*%
D12*
%TO.C,U19*%
X33020000Y-72390000D03*
X50800000Y-80010000D03*
X35560000Y-72390000D03*
X48260000Y-80010000D03*
X38100000Y-72390000D03*
X45720000Y-80010000D03*
X40640000Y-72390000D03*
X43180000Y-80010000D03*
X43180000Y-72390000D03*
X40640000Y-80010000D03*
X45720000Y-72390000D03*
X38100000Y-80010000D03*
X48260000Y-72390000D03*
X35560000Y-80010000D03*
X50800000Y-72390000D03*
D13*
X33020000Y-80010000D03*
%TD*%
D12*
%TO.C,U18*%
X5080000Y-72390000D03*
X22860000Y-80010000D03*
X7620000Y-72390000D03*
X20320000Y-80010000D03*
X10160000Y-72390000D03*
X17780000Y-80010000D03*
X12700000Y-72390000D03*
X15240000Y-80010000D03*
X15240000Y-72390000D03*
X12700000Y-80010000D03*
X17780000Y-72390000D03*
X10160000Y-80010000D03*
X20320000Y-72390000D03*
X7620000Y-80010000D03*
X22860000Y-72390000D03*
D13*
X5080000Y-80010000D03*
%TD*%
D12*
%TO.C,U17*%
X123190000Y-29210000D03*
X140970000Y-36830000D03*
X125730000Y-29210000D03*
X138430000Y-36830000D03*
X128270000Y-29210000D03*
X135890000Y-36830000D03*
X130810000Y-29210000D03*
X133350000Y-36830000D03*
X133350000Y-29210000D03*
X130810000Y-36830000D03*
X135890000Y-29210000D03*
X128270000Y-36830000D03*
X138430000Y-29210000D03*
X125730000Y-36830000D03*
X140970000Y-29210000D03*
D13*
X123190000Y-36830000D03*
%TD*%
D12*
%TO.C,U16*%
X96520000Y-29210000D03*
X114300000Y-36830000D03*
X99060000Y-29210000D03*
X111760000Y-36830000D03*
X101600000Y-29210000D03*
X109220000Y-36830000D03*
X104140000Y-29210000D03*
X106680000Y-36830000D03*
X106680000Y-29210000D03*
X104140000Y-36830000D03*
X109220000Y-29210000D03*
X101600000Y-36830000D03*
X111760000Y-29210000D03*
X99060000Y-36830000D03*
X114300000Y-29210000D03*
D13*
X96520000Y-36830000D03*
%TD*%
D12*
%TO.C,U15*%
X69850000Y-29210000D03*
X87630000Y-36830000D03*
X72390000Y-29210000D03*
X85090000Y-36830000D03*
X74930000Y-29210000D03*
X82550000Y-36830000D03*
X77470000Y-29210000D03*
X80010000Y-36830000D03*
X80010000Y-29210000D03*
X77470000Y-36830000D03*
X82550000Y-29210000D03*
X74930000Y-36830000D03*
X85090000Y-29210000D03*
X72390000Y-36830000D03*
X87630000Y-29210000D03*
D13*
X69850000Y-36830000D03*
%TD*%
D12*
%TO.C,U13*%
X190500000Y-53340000D03*
X205740000Y-60960000D03*
X193040000Y-53340000D03*
X203200000Y-60960000D03*
X195580000Y-53340000D03*
X200660000Y-60960000D03*
X198120000Y-53340000D03*
X198120000Y-60960000D03*
X200660000Y-53340000D03*
X195580000Y-60960000D03*
X203200000Y-53340000D03*
X193040000Y-60960000D03*
X205740000Y-53340000D03*
D13*
X190500000Y-60960000D03*
%TD*%
D12*
%TO.C,U12*%
X30480000Y-53340000D03*
X45720000Y-60960000D03*
X33020000Y-53340000D03*
X43180000Y-60960000D03*
X35560000Y-53340000D03*
X40640000Y-60960000D03*
X38100000Y-53340000D03*
X38100000Y-60960000D03*
X40640000Y-53340000D03*
X35560000Y-60960000D03*
X43180000Y-53340000D03*
X33020000Y-60960000D03*
X45720000Y-53340000D03*
D13*
X30480000Y-60960000D03*
%TD*%
D12*
%TO.C,U11*%
X5080000Y-53340000D03*
X20320000Y-60960000D03*
X7620000Y-53340000D03*
X17780000Y-60960000D03*
X10160000Y-53340000D03*
X15240000Y-60960000D03*
X12700000Y-53340000D03*
X12700000Y-60960000D03*
X15240000Y-53340000D03*
X10160000Y-60960000D03*
X17780000Y-53340000D03*
X7620000Y-60960000D03*
X20320000Y-53340000D03*
D13*
X5080000Y-60960000D03*
%TD*%
D12*
%TO.C,U9*%
X5080000Y-29210000D03*
X22860000Y-36830000D03*
X7620000Y-29210000D03*
X20320000Y-36830000D03*
X10160000Y-29210000D03*
X17780000Y-36830000D03*
X12700000Y-29210000D03*
X15240000Y-36830000D03*
X15240000Y-29210000D03*
X12700000Y-36830000D03*
X17780000Y-29210000D03*
X10160000Y-36830000D03*
X20320000Y-29210000D03*
X7620000Y-36830000D03*
X22860000Y-29210000D03*
D13*
X5080000Y-36830000D03*
%TD*%
D12*
%TO.C,U8*%
X204470000Y-7620000D03*
X222250000Y-15240000D03*
X207010000Y-7620000D03*
X219710000Y-15240000D03*
X209550000Y-7620000D03*
X217170000Y-15240000D03*
X212090000Y-7620000D03*
X214630000Y-15240000D03*
X214630000Y-7620000D03*
X212090000Y-15240000D03*
X217170000Y-7620000D03*
X209550000Y-15240000D03*
X219710000Y-7620000D03*
X207010000Y-15240000D03*
X222250000Y-7620000D03*
D13*
X204470000Y-15240000D03*
%TD*%
D12*
%TO.C,U7*%
X176530000Y-7620000D03*
X194310000Y-15240000D03*
X179070000Y-7620000D03*
X191770000Y-15240000D03*
X181610000Y-7620000D03*
X189230000Y-15240000D03*
X184150000Y-7620000D03*
X186690000Y-15240000D03*
X186690000Y-7620000D03*
X184150000Y-15240000D03*
X189230000Y-7620000D03*
X181610000Y-15240000D03*
X191770000Y-7620000D03*
X179070000Y-15240000D03*
X194310000Y-7620000D03*
D13*
X176530000Y-15240000D03*
%TD*%
D12*
%TO.C,U6*%
X148590000Y-7620000D03*
X166370000Y-15240000D03*
X151130000Y-7620000D03*
X163830000Y-15240000D03*
X153670000Y-7620000D03*
X161290000Y-15240000D03*
X156210000Y-7620000D03*
X158750000Y-15240000D03*
X158750000Y-7620000D03*
X156210000Y-15240000D03*
X161290000Y-7620000D03*
X153670000Y-15240000D03*
X163830000Y-7620000D03*
X151130000Y-15240000D03*
X166370000Y-7620000D03*
D13*
X148590000Y-15240000D03*
%TD*%
D12*
%TO.C,U5*%
X120650000Y-7620000D03*
X138430000Y-15240000D03*
X123190000Y-7620000D03*
X135890000Y-15240000D03*
X125730000Y-7620000D03*
X133350000Y-15240000D03*
X128270000Y-7620000D03*
X130810000Y-15240000D03*
X130810000Y-7620000D03*
X128270000Y-15240000D03*
X133350000Y-7620000D03*
X125730000Y-15240000D03*
X135890000Y-7620000D03*
X123190000Y-15240000D03*
X138430000Y-7620000D03*
D13*
X120650000Y-15240000D03*
%TD*%
D12*
%TO.C,U4*%
X92710000Y-7620000D03*
X110490000Y-15240000D03*
X95250000Y-7620000D03*
X107950000Y-15240000D03*
X97790000Y-7620000D03*
X105410000Y-15240000D03*
X100330000Y-7620000D03*
X102870000Y-15240000D03*
X102870000Y-7620000D03*
X100330000Y-15240000D03*
X105410000Y-7620000D03*
X97790000Y-15240000D03*
X107950000Y-7620000D03*
X95250000Y-15240000D03*
X110490000Y-7620000D03*
D13*
X92710000Y-15240000D03*
%TD*%
D12*
%TO.C,U3*%
X64770000Y-7620000D03*
X82550000Y-15240000D03*
X67310000Y-7620000D03*
X80010000Y-15240000D03*
X69850000Y-7620000D03*
X77470000Y-15240000D03*
X72390000Y-7620000D03*
X74930000Y-15240000D03*
X74930000Y-7620000D03*
X72390000Y-15240000D03*
X77470000Y-7620000D03*
X69850000Y-15240000D03*
X80010000Y-7620000D03*
X67310000Y-15240000D03*
X82550000Y-7620000D03*
D13*
X64770000Y-15240000D03*
%TD*%
D12*
%TO.C,U2*%
X36830000Y-7620000D03*
X54610000Y-15240000D03*
X39370000Y-7620000D03*
X52070000Y-15240000D03*
X41910000Y-7620000D03*
X49530000Y-15240000D03*
X44450000Y-7620000D03*
X46990000Y-15240000D03*
X46990000Y-7620000D03*
X44450000Y-15240000D03*
X49530000Y-7620000D03*
X41910000Y-15240000D03*
X52070000Y-7620000D03*
X39370000Y-15240000D03*
X54610000Y-7620000D03*
D13*
X36830000Y-15240000D03*
%TD*%
D12*
%TO.C,U1*%
X10160000Y-7620000D03*
X27940000Y-15240000D03*
X12700000Y-7620000D03*
X25400000Y-15240000D03*
X15240000Y-7620000D03*
X22860000Y-15240000D03*
X17780000Y-7620000D03*
X20320000Y-15240000D03*
X20320000Y-7620000D03*
X17780000Y-15240000D03*
X22860000Y-7620000D03*
X15240000Y-15240000D03*
X25400000Y-7620000D03*
X12700000Y-15240000D03*
X27940000Y-7620000D03*
D13*
X10160000Y-15240000D03*
%TD*%
D18*
%TO.C,RV2*%
X223520000Y-95250000D03*
X226060000Y-92710000D03*
X223520000Y-90170000D03*
%TD*%
%TO.C,RV1*%
X231140000Y-21590000D03*
X233680000Y-19050000D03*
X231140000Y-16510000D03*
%TD*%
D12*
%TO.C,R4*%
X234950000Y-71120000D03*
D10*
X234950000Y-81280000D03*
%TD*%
D12*
%TO.C,R3*%
X226060000Y-62230000D03*
D10*
X215900000Y-62230000D03*
%TD*%
D12*
%TO.C,R2*%
X226060000Y-55880000D03*
D10*
X215900000Y-55880000D03*
%TD*%
D12*
%TO.C,R1*%
X226060000Y-49530000D03*
D10*
X215900000Y-49530000D03*
%TD*%
D19*
%TO.C,Q2*%
X228600000Y-40640000D03*
D20*
X233680000Y-40640000D03*
X231140000Y-40640000D03*
%TD*%
D19*
%TO.C,Q1*%
X228600000Y-30480000D03*
D20*
X233680000Y-30480000D03*
X231140000Y-30480000D03*
%TD*%
D14*
%TO.C,J1*%
X227330000Y-2540000D03*
D15*
X224790000Y-2540000D03*
%TD*%
D10*
%TO.C,C2*%
X234870000Y-85090000D03*
X229870000Y-85090000D03*
%TD*%
%TO.C,C1*%
X233680000Y-49610000D03*
X233680000Y-54610000D03*
%TD*%
M02*
