%TF.GenerationSoftware,KiCad,Pcbnew,5.1.6-c6e7f7d~87~ubuntu16.04.1*%
%TF.CreationDate,2021-01-23T12:29:25-05:00*%
%TF.ProjectId,keyboard,6b657962-6f61-4726-942e-6b696361645f,rev?*%
%TF.SameCoordinates,Original*%
%TF.FileFunction,Copper,L1,Top*%
%TF.FilePolarity,Positive*%
%FSLAX46Y46*%
G04 Gerber Fmt 4.6, Leading zero omitted, Abs format (unit mm)*
G04 Created by KiCad (PCBNEW 5.1.6-c6e7f7d~87~ubuntu16.04.1) date 2021-01-23 12:29:25*
%MOMM*%
%LPD*%
G01*
G04 APERTURE LIST*
%TA.AperFunction,NonConductor*%
%ADD10C,0.150000*%
%TD*%
%TA.AperFunction,NonConductor*%
%ADD11C,0.300000*%
%TD*%
%TA.AperFunction,ComponentPad*%
%ADD12O,1.600000X1.600000*%
%TD*%
%TA.AperFunction,ComponentPad*%
%ADD13R,1.600000X1.600000*%
%TD*%
%TA.AperFunction,ComponentPad*%
%ADD14C,1.600000*%
%TD*%
%TA.AperFunction,ComponentPad*%
%ADD15R,1.500000X1.500000*%
%TD*%
%TA.AperFunction,ComponentPad*%
%ADD16C,1.500000*%
%TD*%
%TA.AperFunction,ComponentPad*%
%ADD17O,1.400000X1.400000*%
%TD*%
%TA.AperFunction,ComponentPad*%
%ADD18C,1.400000*%
%TD*%
%TA.AperFunction,ComponentPad*%
%ADD19O,1.700000X1.700000*%
%TD*%
%TA.AperFunction,ComponentPad*%
%ADD20R,1.700000X1.700000*%
%TD*%
%TA.AperFunction,ComponentPad*%
%ADD21C,1.800000*%
%TD*%
%TA.AperFunction,ComponentPad*%
%ADD22R,1.800000X1.800000*%
%TD*%
%TA.AperFunction,ComponentPad*%
%ADD23C,2.200000*%
%TD*%
%TA.AperFunction,ViaPad*%
%ADD24C,0.800000*%
%TD*%
%TA.AperFunction,Conductor*%
%ADD25C,0.250000*%
%TD*%
G04 APERTURE END LIST*
D10*
X273010476Y-18232380D02*
X272439047Y-18232380D01*
X272724761Y-18232380D02*
X272724761Y-17232380D01*
X272629523Y-17375238D01*
X272534285Y-17470476D01*
X272439047Y-17518095D01*
X273391428Y-17327619D02*
X273439047Y-17280000D01*
X273534285Y-17232380D01*
X273772380Y-17232380D01*
X273867619Y-17280000D01*
X273915238Y-17327619D01*
X273962857Y-17422857D01*
X273962857Y-17518095D01*
X273915238Y-17660952D01*
X273343809Y-18232380D01*
X273962857Y-18232380D01*
X274391428Y-18137142D02*
X274439047Y-18184761D01*
X274391428Y-18232380D01*
X274343809Y-18184761D01*
X274391428Y-18137142D01*
X274391428Y-18232380D01*
X274772380Y-17232380D02*
X275439047Y-17232380D01*
X275010476Y-18232380D01*
X275820000Y-18232380D02*
X275820000Y-17232380D01*
X275915238Y-17851428D02*
X276200952Y-18232380D01*
X276200952Y-17565714D02*
X275820000Y-17946666D01*
X265866666Y-23312380D02*
X265295238Y-23312380D01*
X265580952Y-23312380D02*
X265580952Y-22312380D01*
X265485714Y-22455238D01*
X265390476Y-22550476D01*
X265295238Y-22598095D01*
X266295238Y-23217142D02*
X266342857Y-23264761D01*
X266295238Y-23312380D01*
X266247619Y-23264761D01*
X266295238Y-23217142D01*
X266295238Y-23312380D01*
X267247619Y-22312380D02*
X266771428Y-22312380D01*
X266723809Y-22788571D01*
X266771428Y-22740952D01*
X266866666Y-22693333D01*
X267104761Y-22693333D01*
X267200000Y-22740952D01*
X267247619Y-22788571D01*
X267295238Y-22883809D01*
X267295238Y-23121904D01*
X267247619Y-23217142D01*
X267200000Y-23264761D01*
X267104761Y-23312380D01*
X266866666Y-23312380D01*
X266771428Y-23264761D01*
X266723809Y-23217142D01*
X267723809Y-23312380D02*
X267723809Y-22312380D01*
X267819047Y-22931428D02*
X268104761Y-23312380D01*
X268104761Y-22645714D02*
X267723809Y-23026666D01*
X288949047Y-54157619D02*
X288996666Y-54110000D01*
X289091904Y-54062380D01*
X289330000Y-54062380D01*
X289425238Y-54110000D01*
X289472857Y-54157619D01*
X289520476Y-54252857D01*
X289520476Y-54348095D01*
X289472857Y-54490952D01*
X288901428Y-55062380D01*
X289520476Y-55062380D01*
X290139523Y-54062380D02*
X290234761Y-54062380D01*
X290330000Y-54110000D01*
X290377619Y-54157619D01*
X290425238Y-54252857D01*
X290472857Y-54443333D01*
X290472857Y-54681428D01*
X290425238Y-54871904D01*
X290377619Y-54967142D01*
X290330000Y-55014761D01*
X290234761Y-55062380D01*
X290139523Y-55062380D01*
X290044285Y-55014761D01*
X289996666Y-54967142D01*
X289949047Y-54871904D01*
X289901428Y-54681428D01*
X289901428Y-54443333D01*
X289949047Y-54252857D01*
X289996666Y-54157619D01*
X290044285Y-54110000D01*
X290139523Y-54062380D01*
X290901428Y-54967142D02*
X290949047Y-55014761D01*
X290901428Y-55062380D01*
X290853809Y-55014761D01*
X290901428Y-54967142D01*
X290901428Y-55062380D01*
X291901428Y-55062380D02*
X291330000Y-55062380D01*
X291615714Y-55062380D02*
X291615714Y-54062380D01*
X291520476Y-54205238D01*
X291425238Y-54300476D01*
X291330000Y-54348095D01*
X292330000Y-55062380D02*
X292330000Y-54062380D01*
X292425238Y-54681428D02*
X292710952Y-55062380D01*
X292710952Y-54395714D02*
X292330000Y-54776666D01*
X283884761Y-18232380D02*
X283313333Y-18232380D01*
X283599047Y-18232380D02*
X283599047Y-17232380D01*
X283503809Y-17375238D01*
X283408571Y-17470476D01*
X283313333Y-17518095D01*
X284741904Y-17565714D02*
X284741904Y-18232380D01*
X284313333Y-17565714D02*
X284313333Y-18089523D01*
X284360952Y-18184761D01*
X284456190Y-18232380D01*
X284599047Y-18232380D01*
X284694285Y-18184761D01*
X284741904Y-18137142D01*
X285551428Y-17708571D02*
X285218095Y-17708571D01*
X285218095Y-18232380D02*
X285218095Y-17232380D01*
X285694285Y-17232380D01*
X309507142Y-35012380D02*
X309602380Y-35012380D01*
X309697619Y-35060000D01*
X309745238Y-35107619D01*
X309792857Y-35202857D01*
X309840476Y-35393333D01*
X309840476Y-35631428D01*
X309792857Y-35821904D01*
X309745238Y-35917142D01*
X309697619Y-35964761D01*
X309602380Y-36012380D01*
X309507142Y-36012380D01*
X309411904Y-35964761D01*
X309364285Y-35917142D01*
X309316666Y-35821904D01*
X309269047Y-35631428D01*
X309269047Y-35393333D01*
X309316666Y-35202857D01*
X309364285Y-35107619D01*
X309411904Y-35060000D01*
X309507142Y-35012380D01*
X310269047Y-35917142D02*
X310316666Y-35964761D01*
X310269047Y-36012380D01*
X310221428Y-35964761D01*
X310269047Y-35917142D01*
X310269047Y-36012380D01*
X311269047Y-36012380D02*
X310697619Y-36012380D01*
X310983333Y-36012380D02*
X310983333Y-35012380D01*
X310888095Y-35155238D01*
X310792857Y-35250476D01*
X310697619Y-35298095D01*
X312126190Y-35345714D02*
X312126190Y-36012380D01*
X311697619Y-35345714D02*
X311697619Y-35869523D01*
X311745238Y-35964761D01*
X311840476Y-36012380D01*
X311983333Y-36012380D01*
X312078571Y-35964761D01*
X312126190Y-35917142D01*
X312935714Y-35488571D02*
X312602380Y-35488571D01*
X312602380Y-36012380D02*
X312602380Y-35012380D01*
X313078571Y-35012380D01*
X295314761Y-43632380D02*
X294743333Y-43632380D01*
X295029047Y-43632380D02*
X295029047Y-42632380D01*
X294933809Y-42775238D01*
X294838571Y-42870476D01*
X294743333Y-42918095D01*
X296171904Y-42965714D02*
X296171904Y-43632380D01*
X295743333Y-42965714D02*
X295743333Y-43489523D01*
X295790952Y-43584761D01*
X295886190Y-43632380D01*
X296029047Y-43632380D01*
X296124285Y-43584761D01*
X296171904Y-43537142D01*
X296981428Y-43108571D02*
X296648095Y-43108571D01*
X296648095Y-43632380D02*
X296648095Y-42632380D01*
X297124285Y-42632380D01*
X244888095Y-10612380D02*
X244888095Y-9612380D01*
X245221428Y-10326666D01*
X245554761Y-9612380D01*
X245554761Y-10612380D01*
X246602380Y-10517142D02*
X246554761Y-10564761D01*
X246411904Y-10612380D01*
X246316666Y-10612380D01*
X246173809Y-10564761D01*
X246078571Y-10469523D01*
X246030952Y-10374285D01*
X245983333Y-10183809D01*
X245983333Y-10040952D01*
X246030952Y-9850476D01*
X246078571Y-9755238D01*
X246173809Y-9660000D01*
X246316666Y-9612380D01*
X246411904Y-9612380D01*
X246554761Y-9660000D01*
X246602380Y-9707619D01*
X246935714Y-9612380D02*
X247602380Y-9612380D01*
X247173809Y-10612380D01*
X248126190Y-10040952D02*
X248030952Y-9993333D01*
X247983333Y-9945714D01*
X247935714Y-9850476D01*
X247935714Y-9802857D01*
X247983333Y-9707619D01*
X248030952Y-9660000D01*
X248126190Y-9612380D01*
X248316666Y-9612380D01*
X248411904Y-9660000D01*
X248459523Y-9707619D01*
X248507142Y-9802857D01*
X248507142Y-9850476D01*
X248459523Y-9945714D01*
X248411904Y-9993333D01*
X248316666Y-10040952D01*
X248126190Y-10040952D01*
X248030952Y-10088571D01*
X247983333Y-10136190D01*
X247935714Y-10231428D01*
X247935714Y-10421904D01*
X247983333Y-10517142D01*
X248030952Y-10564761D01*
X248126190Y-10612380D01*
X248316666Y-10612380D01*
X248411904Y-10564761D01*
X248459523Y-10517142D01*
X248507142Y-10421904D01*
X248507142Y-10231428D01*
X248459523Y-10136190D01*
X248411904Y-10088571D01*
X248316666Y-10040952D01*
X248983333Y-10612380D02*
X249173809Y-10612380D01*
X249269047Y-10564761D01*
X249316666Y-10517142D01*
X249411904Y-10374285D01*
X249459523Y-10183809D01*
X249459523Y-9802857D01*
X249411904Y-9707619D01*
X249364285Y-9660000D01*
X249269047Y-9612380D01*
X249078571Y-9612380D01*
X248983333Y-9660000D01*
X248935714Y-9707619D01*
X248888095Y-9802857D01*
X248888095Y-10040952D01*
X248935714Y-10136190D01*
X248983333Y-10183809D01*
X249078571Y-10231428D01*
X249269047Y-10231428D01*
X249364285Y-10183809D01*
X249411904Y-10136190D01*
X249459523Y-10040952D01*
X249888095Y-10612380D02*
X249888095Y-9612380D01*
X250269047Y-9612380D01*
X250364285Y-9660000D01*
X250411904Y-9707619D01*
X250459523Y-9802857D01*
X250459523Y-9945714D01*
X250411904Y-10040952D01*
X250364285Y-10088571D01*
X250269047Y-10136190D01*
X249888095Y-10136190D01*
X233458095Y-11882380D02*
X233458095Y-10882380D01*
X233791428Y-11596666D01*
X234124761Y-10882380D01*
X234124761Y-11882380D01*
X235172380Y-11787142D02*
X235124761Y-11834761D01*
X234981904Y-11882380D01*
X234886666Y-11882380D01*
X234743809Y-11834761D01*
X234648571Y-11739523D01*
X234600952Y-11644285D01*
X234553333Y-11453809D01*
X234553333Y-11310952D01*
X234600952Y-11120476D01*
X234648571Y-11025238D01*
X234743809Y-10930000D01*
X234886666Y-10882380D01*
X234981904Y-10882380D01*
X235124761Y-10930000D01*
X235172380Y-10977619D01*
X235505714Y-10882380D02*
X236172380Y-10882380D01*
X235743809Y-11882380D01*
X236696190Y-11310952D02*
X236600952Y-11263333D01*
X236553333Y-11215714D01*
X236505714Y-11120476D01*
X236505714Y-11072857D01*
X236553333Y-10977619D01*
X236600952Y-10930000D01*
X236696190Y-10882380D01*
X236886666Y-10882380D01*
X236981904Y-10930000D01*
X237029523Y-10977619D01*
X237077142Y-11072857D01*
X237077142Y-11120476D01*
X237029523Y-11215714D01*
X236981904Y-11263333D01*
X236886666Y-11310952D01*
X236696190Y-11310952D01*
X236600952Y-11358571D01*
X236553333Y-11406190D01*
X236505714Y-11501428D01*
X236505714Y-11691904D01*
X236553333Y-11787142D01*
X236600952Y-11834761D01*
X236696190Y-11882380D01*
X236886666Y-11882380D01*
X236981904Y-11834761D01*
X237029523Y-11787142D01*
X237077142Y-11691904D01*
X237077142Y-11501428D01*
X237029523Y-11406190D01*
X236981904Y-11358571D01*
X236886666Y-11310952D01*
X237553333Y-11882380D02*
X237743809Y-11882380D01*
X237839047Y-11834761D01*
X237886666Y-11787142D01*
X237981904Y-11644285D01*
X238029523Y-11453809D01*
X238029523Y-11072857D01*
X237981904Y-10977619D01*
X237934285Y-10930000D01*
X237839047Y-10882380D01*
X237648571Y-10882380D01*
X237553333Y-10930000D01*
X237505714Y-10977619D01*
X237458095Y-11072857D01*
X237458095Y-11310952D01*
X237505714Y-11406190D01*
X237553333Y-11453809D01*
X237648571Y-11501428D01*
X237839047Y-11501428D01*
X237934285Y-11453809D01*
X237981904Y-11406190D01*
X238029523Y-11310952D01*
X238458095Y-11882380D02*
X238458095Y-10882380D01*
X238839047Y-10882380D01*
X238934285Y-10930000D01*
X238981904Y-10977619D01*
X239029523Y-11072857D01*
X239029523Y-11215714D01*
X238981904Y-11310952D01*
X238934285Y-11358571D01*
X238839047Y-11406190D01*
X238458095Y-11406190D01*
X214527142Y-31202380D02*
X215193809Y-31202380D01*
X214765238Y-32202380D01*
X216003333Y-31535714D02*
X216003333Y-32202380D01*
X215765238Y-31154761D02*
X215527142Y-31869047D01*
X216146190Y-31869047D01*
X217003333Y-32202380D02*
X216527142Y-32202380D01*
X216527142Y-31202380D01*
X217289047Y-32154761D02*
X217431904Y-32202380D01*
X217670000Y-32202380D01*
X217765238Y-32154761D01*
X217812857Y-32107142D01*
X217860476Y-32011904D01*
X217860476Y-31916666D01*
X217812857Y-31821428D01*
X217765238Y-31773809D01*
X217670000Y-31726190D01*
X217479523Y-31678571D01*
X217384285Y-31630952D01*
X217336666Y-31583333D01*
X217289047Y-31488095D01*
X217289047Y-31392857D01*
X217336666Y-31297619D01*
X217384285Y-31250000D01*
X217479523Y-31202380D01*
X217717619Y-31202380D01*
X217860476Y-31250000D01*
X218812857Y-32202380D02*
X218241428Y-32202380D01*
X218527142Y-32202380D02*
X218527142Y-31202380D01*
X218431904Y-31345238D01*
X218336666Y-31440476D01*
X218241428Y-31488095D01*
X219670000Y-31535714D02*
X219670000Y-32202380D01*
X219431904Y-31154761D02*
X219193809Y-31869047D01*
X219812857Y-31869047D01*
X297481904Y-32472380D02*
X298148571Y-32472380D01*
X297720000Y-33472380D01*
X298958095Y-32805714D02*
X298958095Y-33472380D01*
X298720000Y-32424761D02*
X298481904Y-33139047D01*
X299100952Y-33139047D01*
X300005714Y-33472380D02*
X299434285Y-33472380D01*
X299720000Y-33472380D02*
X299720000Y-32472380D01*
X299624761Y-32615238D01*
X299529523Y-32710476D01*
X299434285Y-32758095D01*
X300386666Y-32567619D02*
X300434285Y-32520000D01*
X300529523Y-32472380D01*
X300767619Y-32472380D01*
X300862857Y-32520000D01*
X300910476Y-32567619D01*
X300958095Y-32662857D01*
X300958095Y-32758095D01*
X300910476Y-32900952D01*
X300339047Y-33472380D01*
X300958095Y-33472380D01*
X301291428Y-32472380D02*
X301910476Y-32472380D01*
X301577142Y-32853333D01*
X301720000Y-32853333D01*
X301815238Y-32900952D01*
X301862857Y-32948571D01*
X301910476Y-33043809D01*
X301910476Y-33281904D01*
X301862857Y-33377142D01*
X301815238Y-33424761D01*
X301720000Y-33472380D01*
X301434285Y-33472380D01*
X301339047Y-33424761D01*
X301291428Y-33377142D01*
X257707142Y-40092380D02*
X258373809Y-40092380D01*
X257945238Y-41092380D01*
X259183333Y-40425714D02*
X259183333Y-41092380D01*
X258945238Y-40044761D02*
X258707142Y-40759047D01*
X259326190Y-40759047D01*
X260183333Y-41092380D02*
X259707142Y-41092380D01*
X259707142Y-40092380D01*
X260469047Y-41044761D02*
X260611904Y-41092380D01*
X260850000Y-41092380D01*
X260945238Y-41044761D01*
X260992857Y-40997142D01*
X261040476Y-40901904D01*
X261040476Y-40806666D01*
X260992857Y-40711428D01*
X260945238Y-40663809D01*
X260850000Y-40616190D01*
X260659523Y-40568571D01*
X260564285Y-40520952D01*
X260516666Y-40473333D01*
X260469047Y-40378095D01*
X260469047Y-40282857D01*
X260516666Y-40187619D01*
X260564285Y-40140000D01*
X260659523Y-40092380D01*
X260897619Y-40092380D01*
X261040476Y-40140000D01*
X261992857Y-41092380D02*
X261421428Y-41092380D01*
X261707142Y-41092380D02*
X261707142Y-40092380D01*
X261611904Y-40235238D01*
X261516666Y-40330476D01*
X261421428Y-40378095D01*
X262850000Y-40425714D02*
X262850000Y-41092380D01*
X262611904Y-40044761D02*
X262373809Y-40759047D01*
X262992857Y-40759047D01*
X100155714Y-17327619D02*
X100203333Y-17280000D01*
X100298571Y-17232380D01*
X100536666Y-17232380D01*
X100631904Y-17280000D01*
X100679523Y-17327619D01*
X100727142Y-17422857D01*
X100727142Y-17518095D01*
X100679523Y-17660952D01*
X100108095Y-18232380D01*
X100727142Y-18232380D01*
X101155714Y-18232380D02*
X101155714Y-17232380D01*
X101727142Y-18232380D01*
X101727142Y-17232380D01*
X102679523Y-17232380D02*
X102203333Y-17232380D01*
X102155714Y-17708571D01*
X102203333Y-17660952D01*
X102298571Y-17613333D01*
X102536666Y-17613333D01*
X102631904Y-17660952D01*
X102679523Y-17708571D01*
X102727142Y-17803809D01*
X102727142Y-18041904D01*
X102679523Y-18137142D01*
X102631904Y-18184761D01*
X102536666Y-18232380D01*
X102298571Y-18232380D01*
X102203333Y-18184761D01*
X102155714Y-18137142D01*
X103679523Y-18232380D02*
X103108095Y-18232380D01*
X103393809Y-18232380D02*
X103393809Y-17232380D01*
X103298571Y-17375238D01*
X103203333Y-17470476D01*
X103108095Y-17518095D01*
X104012857Y-17232380D02*
X104631904Y-17232380D01*
X104298571Y-17613333D01*
X104441428Y-17613333D01*
X104536666Y-17660952D01*
X104584285Y-17708571D01*
X104631904Y-17803809D01*
X104631904Y-18041904D01*
X104584285Y-18137142D01*
X104536666Y-18184761D01*
X104441428Y-18232380D01*
X104155714Y-18232380D01*
X104060476Y-18184761D01*
X104012857Y-18137142D01*
X105108095Y-18232380D02*
X105298571Y-18232380D01*
X105393809Y-18184761D01*
X105441428Y-18137142D01*
X105536666Y-17994285D01*
X105584285Y-17803809D01*
X105584285Y-17422857D01*
X105536666Y-17327619D01*
X105489047Y-17280000D01*
X105393809Y-17232380D01*
X105203333Y-17232380D01*
X105108095Y-17280000D01*
X105060476Y-17327619D01*
X105012857Y-17422857D01*
X105012857Y-17660952D01*
X105060476Y-17756190D01*
X105108095Y-17803809D01*
X105203333Y-17851428D01*
X105393809Y-17851428D01*
X105489047Y-17803809D01*
X105536666Y-17756190D01*
X105584285Y-17660952D01*
X100155714Y-27487619D02*
X100203333Y-27440000D01*
X100298571Y-27392380D01*
X100536666Y-27392380D01*
X100631904Y-27440000D01*
X100679523Y-27487619D01*
X100727142Y-27582857D01*
X100727142Y-27678095D01*
X100679523Y-27820952D01*
X100108095Y-28392380D01*
X100727142Y-28392380D01*
X101155714Y-28392380D02*
X101155714Y-27392380D01*
X101727142Y-28392380D01*
X101727142Y-27392380D01*
X102679523Y-27392380D02*
X102203333Y-27392380D01*
X102155714Y-27868571D01*
X102203333Y-27820952D01*
X102298571Y-27773333D01*
X102536666Y-27773333D01*
X102631904Y-27820952D01*
X102679523Y-27868571D01*
X102727142Y-27963809D01*
X102727142Y-28201904D01*
X102679523Y-28297142D01*
X102631904Y-28344761D01*
X102536666Y-28392380D01*
X102298571Y-28392380D01*
X102203333Y-28344761D01*
X102155714Y-28297142D01*
X103679523Y-28392380D02*
X103108095Y-28392380D01*
X103393809Y-28392380D02*
X103393809Y-27392380D01*
X103298571Y-27535238D01*
X103203333Y-27630476D01*
X103108095Y-27678095D01*
X104012857Y-27392380D02*
X104631904Y-27392380D01*
X104298571Y-27773333D01*
X104441428Y-27773333D01*
X104536666Y-27820952D01*
X104584285Y-27868571D01*
X104631904Y-27963809D01*
X104631904Y-28201904D01*
X104584285Y-28297142D01*
X104536666Y-28344761D01*
X104441428Y-28392380D01*
X104155714Y-28392380D01*
X104060476Y-28344761D01*
X104012857Y-28297142D01*
X105108095Y-28392380D02*
X105298571Y-28392380D01*
X105393809Y-28344761D01*
X105441428Y-28297142D01*
X105536666Y-28154285D01*
X105584285Y-27963809D01*
X105584285Y-27582857D01*
X105536666Y-27487619D01*
X105489047Y-27440000D01*
X105393809Y-27392380D01*
X105203333Y-27392380D01*
X105108095Y-27440000D01*
X105060476Y-27487619D01*
X105012857Y-27582857D01*
X105012857Y-27820952D01*
X105060476Y-27916190D01*
X105108095Y-27963809D01*
X105203333Y-28011428D01*
X105393809Y-28011428D01*
X105489047Y-27963809D01*
X105536666Y-27916190D01*
X105584285Y-27820952D01*
X100155714Y-37647619D02*
X100203333Y-37600000D01*
X100298571Y-37552380D01*
X100536666Y-37552380D01*
X100631904Y-37600000D01*
X100679523Y-37647619D01*
X100727142Y-37742857D01*
X100727142Y-37838095D01*
X100679523Y-37980952D01*
X100108095Y-38552380D01*
X100727142Y-38552380D01*
X101155714Y-38552380D02*
X101155714Y-37552380D01*
X101727142Y-38552380D01*
X101727142Y-37552380D01*
X102679523Y-37552380D02*
X102203333Y-37552380D01*
X102155714Y-38028571D01*
X102203333Y-37980952D01*
X102298571Y-37933333D01*
X102536666Y-37933333D01*
X102631904Y-37980952D01*
X102679523Y-38028571D01*
X102727142Y-38123809D01*
X102727142Y-38361904D01*
X102679523Y-38457142D01*
X102631904Y-38504761D01*
X102536666Y-38552380D01*
X102298571Y-38552380D01*
X102203333Y-38504761D01*
X102155714Y-38457142D01*
X103679523Y-38552380D02*
X103108095Y-38552380D01*
X103393809Y-38552380D02*
X103393809Y-37552380D01*
X103298571Y-37695238D01*
X103203333Y-37790476D01*
X103108095Y-37838095D01*
X104012857Y-37552380D02*
X104631904Y-37552380D01*
X104298571Y-37933333D01*
X104441428Y-37933333D01*
X104536666Y-37980952D01*
X104584285Y-38028571D01*
X104631904Y-38123809D01*
X104631904Y-38361904D01*
X104584285Y-38457142D01*
X104536666Y-38504761D01*
X104441428Y-38552380D01*
X104155714Y-38552380D01*
X104060476Y-38504761D01*
X104012857Y-38457142D01*
X105108095Y-38552380D02*
X105298571Y-38552380D01*
X105393809Y-38504761D01*
X105441428Y-38457142D01*
X105536666Y-38314285D01*
X105584285Y-38123809D01*
X105584285Y-37742857D01*
X105536666Y-37647619D01*
X105489047Y-37600000D01*
X105393809Y-37552380D01*
X105203333Y-37552380D01*
X105108095Y-37600000D01*
X105060476Y-37647619D01*
X105012857Y-37742857D01*
X105012857Y-37980952D01*
X105060476Y-38076190D01*
X105108095Y-38123809D01*
X105203333Y-38171428D01*
X105393809Y-38171428D01*
X105489047Y-38123809D01*
X105536666Y-38076190D01*
X105584285Y-37980952D01*
X114125714Y-38917619D02*
X114173333Y-38870000D01*
X114268571Y-38822380D01*
X114506666Y-38822380D01*
X114601904Y-38870000D01*
X114649523Y-38917619D01*
X114697142Y-39012857D01*
X114697142Y-39108095D01*
X114649523Y-39250952D01*
X114078095Y-39822380D01*
X114697142Y-39822380D01*
X115125714Y-39822380D02*
X115125714Y-38822380D01*
X115697142Y-39822380D01*
X115697142Y-38822380D01*
X116649523Y-38822380D02*
X116173333Y-38822380D01*
X116125714Y-39298571D01*
X116173333Y-39250952D01*
X116268571Y-39203333D01*
X116506666Y-39203333D01*
X116601904Y-39250952D01*
X116649523Y-39298571D01*
X116697142Y-39393809D01*
X116697142Y-39631904D01*
X116649523Y-39727142D01*
X116601904Y-39774761D01*
X116506666Y-39822380D01*
X116268571Y-39822380D01*
X116173333Y-39774761D01*
X116125714Y-39727142D01*
X117649523Y-39822380D02*
X117078095Y-39822380D01*
X117363809Y-39822380D02*
X117363809Y-38822380D01*
X117268571Y-38965238D01*
X117173333Y-39060476D01*
X117078095Y-39108095D01*
X117982857Y-38822380D02*
X118601904Y-38822380D01*
X118268571Y-39203333D01*
X118411428Y-39203333D01*
X118506666Y-39250952D01*
X118554285Y-39298571D01*
X118601904Y-39393809D01*
X118601904Y-39631904D01*
X118554285Y-39727142D01*
X118506666Y-39774761D01*
X118411428Y-39822380D01*
X118125714Y-39822380D01*
X118030476Y-39774761D01*
X117982857Y-39727142D01*
X119078095Y-39822380D02*
X119268571Y-39822380D01*
X119363809Y-39774761D01*
X119411428Y-39727142D01*
X119506666Y-39584285D01*
X119554285Y-39393809D01*
X119554285Y-39012857D01*
X119506666Y-38917619D01*
X119459047Y-38870000D01*
X119363809Y-38822380D01*
X119173333Y-38822380D01*
X119078095Y-38870000D01*
X119030476Y-38917619D01*
X118982857Y-39012857D01*
X118982857Y-39250952D01*
X119030476Y-39346190D01*
X119078095Y-39393809D01*
X119173333Y-39441428D01*
X119363809Y-39441428D01*
X119459047Y-39393809D01*
X119506666Y-39346190D01*
X119554285Y-39250952D01*
D11*
X255361428Y-80458571D02*
X255361428Y-81672857D01*
X255432857Y-81815714D01*
X255504285Y-81887142D01*
X255647142Y-81958571D01*
X255932857Y-81958571D01*
X256075714Y-81887142D01*
X256147142Y-81815714D01*
X256218571Y-81672857D01*
X256218571Y-80458571D01*
X256932857Y-81958571D02*
X256932857Y-80458571D01*
X257504285Y-80458571D01*
X257647142Y-80530000D01*
X257718571Y-80601428D01*
X257790000Y-80744285D01*
X257790000Y-80958571D01*
X257718571Y-81101428D01*
X257647142Y-81172857D01*
X257504285Y-81244285D01*
X256932857Y-81244285D01*
X274645714Y-81815714D02*
X274574285Y-81887142D01*
X274360000Y-81958571D01*
X274217142Y-81958571D01*
X274002857Y-81887142D01*
X273860000Y-81744285D01*
X273788571Y-81601428D01*
X273717142Y-81315714D01*
X273717142Y-81101428D01*
X273788571Y-80815714D01*
X273860000Y-80672857D01*
X274002857Y-80530000D01*
X274217142Y-80458571D01*
X274360000Y-80458571D01*
X274574285Y-80530000D01*
X274645714Y-80601428D01*
X276002857Y-81958571D02*
X275288571Y-81958571D01*
X275288571Y-80458571D01*
X276502857Y-81172857D02*
X277002857Y-81172857D01*
X277217142Y-81958571D02*
X276502857Y-81958571D01*
X276502857Y-80458571D01*
X277217142Y-80458571D01*
X277788571Y-81530000D02*
X278502857Y-81530000D01*
X277645714Y-81958571D02*
X278145714Y-80458571D01*
X278645714Y-81958571D01*
X280002857Y-81958571D02*
X279502857Y-81244285D01*
X279145714Y-81958571D02*
X279145714Y-80458571D01*
X279717142Y-80458571D01*
X279860000Y-80530000D01*
X279931428Y-80601428D01*
X280002857Y-80744285D01*
X280002857Y-80958571D01*
X279931428Y-81101428D01*
X279860000Y-81172857D01*
X279717142Y-81244285D01*
X279145714Y-81244285D01*
X307701428Y-61638571D02*
X307201428Y-60924285D01*
X306844285Y-61638571D02*
X306844285Y-60138571D01*
X307415714Y-60138571D01*
X307558571Y-60210000D01*
X307630000Y-60281428D01*
X307701428Y-60424285D01*
X307701428Y-60638571D01*
X307630000Y-60781428D01*
X307558571Y-60852857D01*
X307415714Y-60924285D01*
X306844285Y-60924285D01*
X308344285Y-60852857D02*
X308844285Y-60852857D01*
X309058571Y-61638571D02*
X308344285Y-61638571D01*
X308344285Y-60138571D01*
X309058571Y-60138571D01*
X309630000Y-61567142D02*
X309844285Y-61638571D01*
X310201428Y-61638571D01*
X310344285Y-61567142D01*
X310415714Y-61495714D01*
X310487142Y-61352857D01*
X310487142Y-61210000D01*
X310415714Y-61067142D01*
X310344285Y-60995714D01*
X310201428Y-60924285D01*
X309915714Y-60852857D01*
X309772857Y-60781428D01*
X309701428Y-60710000D01*
X309630000Y-60567142D01*
X309630000Y-60424285D01*
X309701428Y-60281428D01*
X309772857Y-60210000D01*
X309915714Y-60138571D01*
X310272857Y-60138571D01*
X310487142Y-60210000D01*
X311130000Y-60852857D02*
X311630000Y-60852857D01*
X311844285Y-61638571D02*
X311130000Y-61638571D01*
X311130000Y-60138571D01*
X311844285Y-60138571D01*
X312272857Y-60138571D02*
X313130000Y-60138571D01*
X312701428Y-61638571D02*
X312701428Y-60138571D01*
X281372857Y-103548571D02*
X280872857Y-102834285D01*
X280515714Y-103548571D02*
X280515714Y-102048571D01*
X281087142Y-102048571D01*
X281230000Y-102120000D01*
X281301428Y-102191428D01*
X281372857Y-102334285D01*
X281372857Y-102548571D01*
X281301428Y-102691428D01*
X281230000Y-102762857D01*
X281087142Y-102834285D01*
X280515714Y-102834285D01*
X282015714Y-102762857D02*
X282515714Y-102762857D01*
X282730000Y-103548571D02*
X282015714Y-103548571D01*
X282015714Y-102048571D01*
X282730000Y-102048571D01*
X283158571Y-102048571D02*
X284015714Y-102048571D01*
X283587142Y-103548571D02*
X283587142Y-102048571D01*
X284515714Y-102048571D02*
X284515714Y-103262857D01*
X284587142Y-103405714D01*
X284658571Y-103477142D01*
X284801428Y-103548571D01*
X285087142Y-103548571D01*
X285230000Y-103477142D01*
X285301428Y-103405714D01*
X285372857Y-103262857D01*
X285372857Y-102048571D01*
X286944285Y-103548571D02*
X286444285Y-102834285D01*
X286087142Y-103548571D02*
X286087142Y-102048571D01*
X286658571Y-102048571D01*
X286801428Y-102120000D01*
X286872857Y-102191428D01*
X286944285Y-102334285D01*
X286944285Y-102548571D01*
X286872857Y-102691428D01*
X286801428Y-102762857D01*
X286658571Y-102834285D01*
X286087142Y-102834285D01*
X287587142Y-103548571D02*
X287587142Y-102048571D01*
X288444285Y-103548571D01*
X288444285Y-102048571D01*
X26475714Y-103405714D02*
X26404285Y-103477142D01*
X26190000Y-103548571D01*
X26047142Y-103548571D01*
X25832857Y-103477142D01*
X25690000Y-103334285D01*
X25618571Y-103191428D01*
X25547142Y-102905714D01*
X25547142Y-102691428D01*
X25618571Y-102405714D01*
X25690000Y-102262857D01*
X25832857Y-102120000D01*
X26047142Y-102048571D01*
X26190000Y-102048571D01*
X26404285Y-102120000D01*
X26475714Y-102191428D01*
X26904285Y-102048571D02*
X27761428Y-102048571D01*
X27332857Y-103548571D02*
X27332857Y-102048571D01*
X29118571Y-103548571D02*
X28618571Y-102834285D01*
X28261428Y-103548571D02*
X28261428Y-102048571D01*
X28832857Y-102048571D01*
X28975714Y-102120000D01*
X29047142Y-102191428D01*
X29118571Y-102334285D01*
X29118571Y-102548571D01*
X29047142Y-102691428D01*
X28975714Y-102762857D01*
X28832857Y-102834285D01*
X28261428Y-102834285D01*
X30475714Y-103548571D02*
X29761428Y-103548571D01*
X29761428Y-102048571D01*
X269010000Y-59582857D02*
X270152857Y-59582857D01*
X270152857Y-60011428D02*
X269010000Y-60011428D01*
X270867142Y-59797142D02*
X272010000Y-59797142D01*
X228528571Y-58868571D02*
X228671428Y-58868571D01*
X228814285Y-58940000D01*
X228885714Y-59011428D01*
X228957142Y-59154285D01*
X229028571Y-59440000D01*
X229028571Y-59797142D01*
X228957142Y-60082857D01*
X228885714Y-60225714D01*
X228814285Y-60297142D01*
X228671428Y-60368571D01*
X228528571Y-60368571D01*
X228385714Y-60297142D01*
X228314285Y-60225714D01*
X228242857Y-60082857D01*
X228171428Y-59797142D01*
X228171428Y-59440000D01*
X228242857Y-59154285D01*
X228314285Y-59011428D01*
X228385714Y-58940000D01*
X228528571Y-58868571D01*
X207494285Y-60368571D02*
X207780000Y-60368571D01*
X207922857Y-60297142D01*
X207994285Y-60225714D01*
X208137142Y-60011428D01*
X208208571Y-59725714D01*
X208208571Y-59154285D01*
X208137142Y-59011428D01*
X208065714Y-58940000D01*
X207922857Y-58868571D01*
X207637142Y-58868571D01*
X207494285Y-58940000D01*
X207422857Y-59011428D01*
X207351428Y-59154285D01*
X207351428Y-59511428D01*
X207422857Y-59654285D01*
X207494285Y-59725714D01*
X207637142Y-59797142D01*
X207922857Y-59797142D01*
X208065714Y-59725714D01*
X208137142Y-59654285D01*
X208208571Y-59511428D01*
X208708571Y-60940000D02*
X208780000Y-60868571D01*
X208922857Y-60654285D01*
X208994285Y-60511428D01*
X209065714Y-60297142D01*
X209137142Y-59940000D01*
X209137142Y-59654285D01*
X209065714Y-59297142D01*
X208994285Y-59082857D01*
X208922857Y-58940000D01*
X208780000Y-58725714D01*
X208708571Y-58654285D01*
X249618571Y-60225714D02*
X249690000Y-60297142D01*
X249618571Y-60368571D01*
X249547142Y-60297142D01*
X249618571Y-60225714D01*
X249618571Y-60368571D01*
X249618571Y-59440000D02*
X249690000Y-59511428D01*
X249618571Y-59582857D01*
X249547142Y-59511428D01*
X249618571Y-59440000D01*
X249618571Y-59582857D01*
X250547142Y-58868571D02*
X250547142Y-59225714D01*
X250190000Y-59082857D02*
X250547142Y-59225714D01*
X250904285Y-59082857D01*
X250332857Y-59511428D02*
X250547142Y-59225714D01*
X250761428Y-59511428D01*
X188587142Y-59511428D02*
X188444285Y-59440000D01*
X188372857Y-59368571D01*
X188301428Y-59225714D01*
X188301428Y-59154285D01*
X188372857Y-59011428D01*
X188444285Y-58940000D01*
X188587142Y-58868571D01*
X188872857Y-58868571D01*
X189015714Y-58940000D01*
X189087142Y-59011428D01*
X189158571Y-59154285D01*
X189158571Y-59225714D01*
X189087142Y-59368571D01*
X189015714Y-59440000D01*
X188872857Y-59511428D01*
X188587142Y-59511428D01*
X188444285Y-59582857D01*
X188372857Y-59654285D01*
X188301428Y-59797142D01*
X188301428Y-60082857D01*
X188372857Y-60225714D01*
X188444285Y-60297142D01*
X188587142Y-60368571D01*
X188872857Y-60368571D01*
X189015714Y-60297142D01*
X189087142Y-60225714D01*
X189158571Y-60082857D01*
X189158571Y-59797142D01*
X189087142Y-59654285D01*
X189015714Y-59582857D01*
X188872857Y-59511428D01*
X190230000Y-60940000D02*
X190158571Y-60868571D01*
X190015714Y-60654285D01*
X189944285Y-60511428D01*
X189872857Y-60297142D01*
X189801428Y-59940000D01*
X189801428Y-59654285D01*
X189872857Y-59297142D01*
X189944285Y-59082857D01*
X190015714Y-58940000D01*
X190158571Y-58725714D01*
X190230000Y-58654285D01*
X146677142Y-58868571D02*
X146391428Y-58868571D01*
X146248571Y-58940000D01*
X146177142Y-59011428D01*
X146034285Y-59225714D01*
X145962857Y-59511428D01*
X145962857Y-60082857D01*
X146034285Y-60225714D01*
X146105714Y-60297142D01*
X146248571Y-60368571D01*
X146534285Y-60368571D01*
X146677142Y-60297142D01*
X146748571Y-60225714D01*
X146820000Y-60082857D01*
X146820000Y-59725714D01*
X146748571Y-59582857D01*
X146677142Y-59511428D01*
X146534285Y-59440000D01*
X146248571Y-59440000D01*
X146105714Y-59511428D01*
X146034285Y-59582857D01*
X145962857Y-59725714D01*
X148677142Y-60368571D02*
X148605714Y-60368571D01*
X148462857Y-60297142D01*
X148248571Y-60082857D01*
X147891428Y-59654285D01*
X147748571Y-59440000D01*
X147677142Y-59225714D01*
X147677142Y-59082857D01*
X147748571Y-58940000D01*
X147891428Y-58868571D01*
X147962857Y-58868571D01*
X148105714Y-58940000D01*
X148177142Y-59082857D01*
X148177142Y-59154285D01*
X148105714Y-59297142D01*
X148034285Y-59368571D01*
X147605714Y-59654285D01*
X147534285Y-59725714D01*
X147462857Y-59868571D01*
X147462857Y-60082857D01*
X147534285Y-60225714D01*
X147605714Y-60297142D01*
X147748571Y-60368571D01*
X147962857Y-60368571D01*
X148105714Y-60297142D01*
X148177142Y-60225714D01*
X148391428Y-59940000D01*
X148462857Y-59725714D01*
X148462857Y-59582857D01*
X126500000Y-58868571D02*
X125785714Y-58868571D01*
X125714285Y-59582857D01*
X125785714Y-59511428D01*
X125928571Y-59440000D01*
X126285714Y-59440000D01*
X126428571Y-59511428D01*
X126500000Y-59582857D01*
X126571428Y-59725714D01*
X126571428Y-60082857D01*
X126500000Y-60225714D01*
X126428571Y-60297142D01*
X126285714Y-60368571D01*
X125928571Y-60368571D01*
X125785714Y-60297142D01*
X125714285Y-60225714D01*
X127142857Y-60368571D02*
X128285714Y-58868571D01*
X127357142Y-58868571D02*
X127500000Y-58940000D01*
X127571428Y-59082857D01*
X127500000Y-59225714D01*
X127357142Y-59297142D01*
X127214285Y-59225714D01*
X127142857Y-59082857D01*
X127214285Y-58940000D01*
X127357142Y-58868571D01*
X128214285Y-60297142D02*
X128285714Y-60154285D01*
X128214285Y-60011428D01*
X128071428Y-59940000D01*
X127928571Y-60011428D01*
X127857142Y-60154285D01*
X127928571Y-60297142D01*
X128071428Y-60368571D01*
X128214285Y-60297142D01*
X168052857Y-58868571D02*
X169052857Y-58868571D01*
X168410000Y-60368571D01*
X169695714Y-58868571D02*
X169552857Y-59154285D01*
X106251428Y-59368571D02*
X106251428Y-60368571D01*
X105894285Y-58797142D02*
X105537142Y-59868571D01*
X106465714Y-59868571D01*
X106965714Y-60297142D02*
X107180000Y-60368571D01*
X107537142Y-60368571D01*
X107680000Y-60297142D01*
X107751428Y-60225714D01*
X107822857Y-60082857D01*
X107822857Y-59940000D01*
X107751428Y-59797142D01*
X107680000Y-59725714D01*
X107537142Y-59654285D01*
X107251428Y-59582857D01*
X107108571Y-59511428D01*
X107037142Y-59440000D01*
X106965714Y-59297142D01*
X106965714Y-59154285D01*
X107037142Y-59011428D01*
X107108571Y-58940000D01*
X107251428Y-58868571D01*
X107608571Y-58868571D01*
X107822857Y-58940000D01*
X107394285Y-58654285D02*
X107394285Y-60582857D01*
X85110000Y-58868571D02*
X86038571Y-58868571D01*
X85538571Y-59440000D01*
X85752857Y-59440000D01*
X85895714Y-59511428D01*
X85967142Y-59582857D01*
X86038571Y-59725714D01*
X86038571Y-60082857D01*
X85967142Y-60225714D01*
X85895714Y-60297142D01*
X85752857Y-60368571D01*
X85324285Y-60368571D01*
X85181428Y-60297142D01*
X85110000Y-60225714D01*
X86610000Y-59368571D02*
X87681428Y-59368571D01*
X87038571Y-58725714D02*
X86610000Y-60654285D01*
X87538571Y-60011428D02*
X86467142Y-60011428D01*
X87110000Y-60654285D02*
X87538571Y-58725714D01*
X65040000Y-59011428D02*
X65111428Y-58940000D01*
X65254285Y-58868571D01*
X65611428Y-58868571D01*
X65754285Y-58940000D01*
X65825714Y-59011428D01*
X65897142Y-59154285D01*
X65897142Y-59297142D01*
X65825714Y-59511428D01*
X64968571Y-60368571D01*
X65897142Y-60368571D01*
X66468571Y-58868571D02*
X66468571Y-59154285D01*
X67040000Y-58868571D02*
X67040000Y-59154285D01*
X45791428Y-60368571D02*
X44934285Y-60368571D01*
X45362857Y-60368571D02*
X45362857Y-58868571D01*
X45220000Y-59082857D01*
X45077142Y-59225714D01*
X44934285Y-59297142D01*
X46434285Y-60225714D02*
X46505714Y-60297142D01*
X46434285Y-60368571D01*
X46362857Y-60297142D01*
X46434285Y-60225714D01*
X46434285Y-60368571D01*
X46434285Y-59797142D02*
X46362857Y-58940000D01*
X46434285Y-58868571D01*
X46505714Y-58940000D01*
X46434285Y-59797142D01*
X46434285Y-58868571D01*
X237097142Y-81958571D02*
X237097142Y-80458571D01*
X237668571Y-80458571D01*
X237811428Y-80530000D01*
X237882857Y-80601428D01*
X237954285Y-80744285D01*
X237954285Y-80958571D01*
X237882857Y-81101428D01*
X237811428Y-81172857D01*
X237668571Y-81244285D01*
X237097142Y-81244285D01*
X195580000Y-81958571D02*
X195580000Y-80458571D01*
X174831428Y-80458571D02*
X174831428Y-81672857D01*
X174902857Y-81815714D01*
X174974285Y-81887142D01*
X175117142Y-81958571D01*
X175402857Y-81958571D01*
X175545714Y-81887142D01*
X175617142Y-81815714D01*
X175688571Y-81672857D01*
X175688571Y-80458571D01*
X217027142Y-80458571D02*
X217312857Y-80458571D01*
X217455714Y-80530000D01*
X217598571Y-80672857D01*
X217670000Y-80958571D01*
X217670000Y-81458571D01*
X217598571Y-81744285D01*
X217455714Y-81887142D01*
X217312857Y-81958571D01*
X217027142Y-81958571D01*
X216884285Y-81887142D01*
X216741428Y-81744285D01*
X216670000Y-81458571D01*
X216670000Y-80958571D01*
X216741428Y-80672857D01*
X216884285Y-80530000D01*
X217027142Y-80458571D01*
X154940000Y-81244285D02*
X154940000Y-81958571D01*
X154440000Y-80458571D02*
X154940000Y-81244285D01*
X155440000Y-80458571D01*
X73017142Y-80458571D02*
X73374285Y-81958571D01*
X73660000Y-80887142D01*
X73945714Y-81958571D01*
X74302857Y-80458571D01*
X134191428Y-80458571D02*
X135048571Y-80458571D01*
X134620000Y-81958571D02*
X134620000Y-80458571D01*
X114764285Y-81958571D02*
X114264285Y-81244285D01*
X113907142Y-81958571D02*
X113907142Y-80458571D01*
X114478571Y-80458571D01*
X114621428Y-80530000D01*
X114692857Y-80601428D01*
X114764285Y-80744285D01*
X114764285Y-80958571D01*
X114692857Y-81101428D01*
X114621428Y-81172857D01*
X114478571Y-81244285D01*
X113907142Y-81244285D01*
X93658571Y-81172857D02*
X94158571Y-81172857D01*
X94372857Y-81958571D02*
X93658571Y-81958571D01*
X93658571Y-80458571D01*
X94372857Y-80458571D01*
X53911428Y-82101428D02*
X53768571Y-82030000D01*
X53625714Y-81887142D01*
X53411428Y-81672857D01*
X53268571Y-81601428D01*
X53125714Y-81601428D01*
X53197142Y-81958571D02*
X53054285Y-81887142D01*
X52911428Y-81744285D01*
X52840000Y-81458571D01*
X52840000Y-80958571D01*
X52911428Y-80672857D01*
X53054285Y-80530000D01*
X53197142Y-80458571D01*
X53482857Y-80458571D01*
X53625714Y-80530000D01*
X53768571Y-80672857D01*
X53840000Y-80958571D01*
X53840000Y-81458571D01*
X53768571Y-81744285D01*
X53625714Y-81887142D01*
X53482857Y-81958571D01*
X53197142Y-81958571D01*
X246792857Y-103477142D02*
X246792857Y-103548571D01*
X246721428Y-103691428D01*
X246650000Y-103762857D01*
X246721428Y-102620000D02*
X246792857Y-102691428D01*
X246721428Y-102762857D01*
X246650000Y-102691428D01*
X246721428Y-102620000D01*
X246721428Y-102762857D01*
X247435714Y-102977142D02*
X248578571Y-102977142D01*
X248007142Y-103548571D02*
X248007142Y-102405714D01*
X205347142Y-103548571D02*
X205347142Y-102048571D01*
X206204285Y-103548571D02*
X205561428Y-102691428D01*
X206204285Y-102048571D02*
X205347142Y-102905714D01*
X185634285Y-102048571D02*
X185634285Y-103120000D01*
X185562857Y-103334285D01*
X185420000Y-103477142D01*
X185205714Y-103548571D01*
X185062857Y-103548571D01*
X227794285Y-103548571D02*
X227080000Y-103548571D01*
X227080000Y-102048571D01*
X164671428Y-103548571D02*
X164671428Y-102048571D01*
X164671428Y-102762857D02*
X165528571Y-102762857D01*
X165528571Y-103548571D02*
X165528571Y-102048571D01*
X83391428Y-103477142D02*
X83605714Y-103548571D01*
X83962857Y-103548571D01*
X84105714Y-103477142D01*
X84177142Y-103405714D01*
X84248571Y-103262857D01*
X84248571Y-103120000D01*
X84177142Y-102977142D01*
X84105714Y-102905714D01*
X83962857Y-102834285D01*
X83677142Y-102762857D01*
X83534285Y-102691428D01*
X83462857Y-102620000D01*
X83391428Y-102477142D01*
X83391428Y-102334285D01*
X83462857Y-102191428D01*
X83534285Y-102120000D01*
X83677142Y-102048571D01*
X84034285Y-102048571D01*
X84248571Y-102120000D01*
X145172857Y-102120000D02*
X145030000Y-102048571D01*
X144815714Y-102048571D01*
X144601428Y-102120000D01*
X144458571Y-102262857D01*
X144387142Y-102405714D01*
X144315714Y-102691428D01*
X144315714Y-102905714D01*
X144387142Y-103191428D01*
X144458571Y-103334285D01*
X144601428Y-103477142D01*
X144815714Y-103548571D01*
X144958571Y-103548571D01*
X145172857Y-103477142D01*
X145244285Y-103405714D01*
X145244285Y-102905714D01*
X144958571Y-102905714D01*
X124674285Y-102762857D02*
X124174285Y-102762857D01*
X124174285Y-103548571D02*
X124174285Y-102048571D01*
X124888571Y-102048571D01*
X103747142Y-103548571D02*
X103747142Y-102048571D01*
X104104285Y-102048571D01*
X104318571Y-102120000D01*
X104461428Y-102262857D01*
X104532857Y-102405714D01*
X104604285Y-102691428D01*
X104604285Y-102905714D01*
X104532857Y-103191428D01*
X104461428Y-103334285D01*
X104318571Y-103477142D01*
X104104285Y-103548571D01*
X103747142Y-103548571D01*
X63142857Y-103120000D02*
X63857142Y-103120000D01*
X63000000Y-103548571D02*
X63500000Y-102048571D01*
X64000000Y-103548571D01*
X163120000Y-146657142D02*
X163334285Y-146728571D01*
X163691428Y-146728571D01*
X163834285Y-146657142D01*
X163905714Y-146585714D01*
X163977142Y-146442857D01*
X163977142Y-146300000D01*
X163905714Y-146157142D01*
X163834285Y-146085714D01*
X163691428Y-146014285D01*
X163405714Y-145942857D01*
X163262857Y-145871428D01*
X163191428Y-145800000D01*
X163120000Y-145657142D01*
X163120000Y-145514285D01*
X163191428Y-145371428D01*
X163262857Y-145300000D01*
X163405714Y-145228571D01*
X163762857Y-145228571D01*
X163977142Y-145300000D01*
X164620000Y-146728571D02*
X164620000Y-145228571D01*
X165191428Y-145228571D01*
X165334285Y-145300000D01*
X165405714Y-145371428D01*
X165477142Y-145514285D01*
X165477142Y-145728571D01*
X165405714Y-145871428D01*
X165334285Y-145942857D01*
X165191428Y-146014285D01*
X164620000Y-146014285D01*
X166048571Y-146300000D02*
X166762857Y-146300000D01*
X165905714Y-146728571D02*
X166405714Y-145228571D01*
X166905714Y-146728571D01*
X168262857Y-146585714D02*
X168191428Y-146657142D01*
X167977142Y-146728571D01*
X167834285Y-146728571D01*
X167620000Y-146657142D01*
X167477142Y-146514285D01*
X167405714Y-146371428D01*
X167334285Y-146085714D01*
X167334285Y-145871428D01*
X167405714Y-145585714D01*
X167477142Y-145442857D01*
X167620000Y-145300000D01*
X167834285Y-145228571D01*
X167977142Y-145228571D01*
X168191428Y-145300000D01*
X168262857Y-145371428D01*
X168905714Y-145942857D02*
X169405714Y-145942857D01*
X169620000Y-146728571D02*
X168905714Y-146728571D01*
X168905714Y-145228571D01*
X169620000Y-145228571D01*
X40394285Y-126337142D02*
X40608571Y-126408571D01*
X40965714Y-126408571D01*
X41108571Y-126337142D01*
X41180000Y-126265714D01*
X41251428Y-126122857D01*
X41251428Y-125980000D01*
X41180000Y-125837142D01*
X41108571Y-125765714D01*
X40965714Y-125694285D01*
X40680000Y-125622857D01*
X40537142Y-125551428D01*
X40465714Y-125480000D01*
X40394285Y-125337142D01*
X40394285Y-125194285D01*
X40465714Y-125051428D01*
X40537142Y-124980000D01*
X40680000Y-124908571D01*
X41037142Y-124908571D01*
X41251428Y-124980000D01*
X41894285Y-126408571D02*
X41894285Y-124908571D01*
X41894285Y-125622857D02*
X42751428Y-125622857D01*
X42751428Y-126408571D02*
X42751428Y-124908571D01*
X43465714Y-126408571D02*
X43465714Y-124908571D01*
X44680000Y-125622857D02*
X44180000Y-125622857D01*
X44180000Y-126408571D02*
X44180000Y-124908571D01*
X44894285Y-124908571D01*
X45251428Y-124908571D02*
X46108571Y-124908571D01*
X45680000Y-126408571D02*
X45680000Y-124908571D01*
X263302857Y-126265714D02*
X263374285Y-126337142D01*
X263302857Y-126408571D01*
X263231428Y-126337142D01*
X263302857Y-126265714D01*
X263302857Y-126408571D01*
X263017142Y-124980000D02*
X263160000Y-124908571D01*
X263517142Y-124908571D01*
X263660000Y-124980000D01*
X263731428Y-125122857D01*
X263731428Y-125265714D01*
X263660000Y-125408571D01*
X263588571Y-125480000D01*
X263445714Y-125551428D01*
X263374285Y-125622857D01*
X263302857Y-125765714D01*
X263302857Y-125837142D01*
X265445714Y-124837142D02*
X264160000Y-126765714D01*
X242911428Y-125408571D02*
X244054285Y-125837142D01*
X242911428Y-126265714D01*
X244768571Y-126265714D02*
X244840000Y-126337142D01*
X244768571Y-126408571D01*
X244697142Y-126337142D01*
X244768571Y-126265714D01*
X244768571Y-126408571D01*
X181181428Y-126408571D02*
X181181428Y-124908571D01*
X182038571Y-126408571D01*
X182038571Y-124908571D01*
X222464285Y-125408571D02*
X221321428Y-125837142D01*
X222464285Y-126265714D01*
X223250000Y-126337142D02*
X223250000Y-126408571D01*
X223178571Y-126551428D01*
X223107142Y-126622857D01*
X201430000Y-126408571D02*
X201430000Y-124908571D01*
X201930000Y-125980000D01*
X202430000Y-124908571D01*
X202430000Y-126408571D01*
X161397142Y-125622857D02*
X161611428Y-125694285D01*
X161682857Y-125765714D01*
X161754285Y-125908571D01*
X161754285Y-126122857D01*
X161682857Y-126265714D01*
X161611428Y-126337142D01*
X161468571Y-126408571D01*
X160897142Y-126408571D01*
X160897142Y-124908571D01*
X161397142Y-124908571D01*
X161540000Y-124980000D01*
X161611428Y-125051428D01*
X161682857Y-125194285D01*
X161682857Y-125337142D01*
X161611428Y-125480000D01*
X161540000Y-125551428D01*
X161397142Y-125622857D01*
X160897142Y-125622857D01*
X140470000Y-124908571D02*
X140970000Y-126408571D01*
X141470000Y-124908571D01*
X121114285Y-126265714D02*
X121042857Y-126337142D01*
X120828571Y-126408571D01*
X120685714Y-126408571D01*
X120471428Y-126337142D01*
X120328571Y-126194285D01*
X120257142Y-126051428D01*
X120185714Y-125765714D01*
X120185714Y-125551428D01*
X120257142Y-125265714D01*
X120328571Y-125122857D01*
X120471428Y-124980000D01*
X120685714Y-124908571D01*
X120828571Y-124908571D01*
X121042857Y-124980000D01*
X121114285Y-125051428D01*
X99830000Y-124908571D02*
X100830000Y-126408571D01*
X100830000Y-124908571D02*
X99830000Y-126408571D01*
X79510000Y-124908571D02*
X80510000Y-124908571D01*
X79510000Y-126408571D01*
X80510000Y-126408571D01*
X226187142Y-7028571D02*
X226187142Y-5528571D01*
X227044285Y-7028571D02*
X226401428Y-6171428D01*
X227044285Y-5528571D02*
X226187142Y-6385714D01*
X227687142Y-7028571D02*
X227687142Y-5528571D01*
X228258571Y-5528571D01*
X228401428Y-5600000D01*
X228472857Y-5671428D01*
X228544285Y-5814285D01*
X228544285Y-6028571D01*
X228472857Y-6171428D01*
X228401428Y-6242857D01*
X228258571Y-6314285D01*
X227687142Y-6314285D01*
X117630000Y-2432857D02*
X117844285Y-2504285D01*
X117915714Y-2575714D01*
X117987142Y-2718571D01*
X117987142Y-2932857D01*
X117915714Y-3075714D01*
X117844285Y-3147142D01*
X117701428Y-3218571D01*
X117130000Y-3218571D01*
X117130000Y-1718571D01*
X117630000Y-1718571D01*
X117772857Y-1790000D01*
X117844285Y-1861428D01*
X117915714Y-2004285D01*
X117915714Y-2147142D01*
X117844285Y-2290000D01*
X117772857Y-2361428D01*
X117630000Y-2432857D01*
X117130000Y-2432857D01*
X118844285Y-2361428D02*
X118701428Y-2290000D01*
X118630000Y-2218571D01*
X118558571Y-2075714D01*
X118558571Y-2004285D01*
X118630000Y-1861428D01*
X118701428Y-1790000D01*
X118844285Y-1718571D01*
X119130000Y-1718571D01*
X119272857Y-1790000D01*
X119344285Y-1861428D01*
X119415714Y-2004285D01*
X119415714Y-2075714D01*
X119344285Y-2218571D01*
X119272857Y-2290000D01*
X119130000Y-2361428D01*
X118844285Y-2361428D01*
X118701428Y-2432857D01*
X118630000Y-2504285D01*
X118558571Y-2647142D01*
X118558571Y-2932857D01*
X118630000Y-3075714D01*
X118701428Y-3147142D01*
X118844285Y-3218571D01*
X119130000Y-3218571D01*
X119272857Y-3147142D01*
X119344285Y-3075714D01*
X119415714Y-2932857D01*
X119415714Y-2647142D01*
X119344285Y-2504285D01*
X119272857Y-2432857D01*
X119130000Y-2361428D01*
X121701428Y-2432857D02*
X121915714Y-2504285D01*
X121987142Y-2575714D01*
X122058571Y-2718571D01*
X122058571Y-2932857D01*
X121987142Y-3075714D01*
X121915714Y-3147142D01*
X121772857Y-3218571D01*
X121201428Y-3218571D01*
X121201428Y-1718571D01*
X121701428Y-1718571D01*
X121844285Y-1790000D01*
X121915714Y-1861428D01*
X121987142Y-2004285D01*
X121987142Y-2147142D01*
X121915714Y-2290000D01*
X121844285Y-2361428D01*
X121701428Y-2432857D01*
X121201428Y-2432857D01*
X122558571Y-1718571D02*
X123558571Y-1718571D01*
X122915714Y-3218571D01*
X125772857Y-2432857D02*
X125987142Y-2504285D01*
X126058571Y-2575714D01*
X126130000Y-2718571D01*
X126130000Y-2932857D01*
X126058571Y-3075714D01*
X125987142Y-3147142D01*
X125844285Y-3218571D01*
X125272857Y-3218571D01*
X125272857Y-1718571D01*
X125772857Y-1718571D01*
X125915714Y-1790000D01*
X125987142Y-1861428D01*
X126058571Y-2004285D01*
X126058571Y-2147142D01*
X125987142Y-2290000D01*
X125915714Y-2361428D01*
X125772857Y-2432857D01*
X125272857Y-2432857D01*
X127415714Y-1718571D02*
X127130000Y-1718571D01*
X126987142Y-1790000D01*
X126915714Y-1861428D01*
X126772857Y-2075714D01*
X126701428Y-2361428D01*
X126701428Y-2932857D01*
X126772857Y-3075714D01*
X126844285Y-3147142D01*
X126987142Y-3218571D01*
X127272857Y-3218571D01*
X127415714Y-3147142D01*
X127487142Y-3075714D01*
X127558571Y-2932857D01*
X127558571Y-2575714D01*
X127487142Y-2432857D01*
X127415714Y-2361428D01*
X127272857Y-2290000D01*
X126987142Y-2290000D01*
X126844285Y-2361428D01*
X126772857Y-2432857D01*
X126701428Y-2575714D01*
X129844285Y-2432857D02*
X130058571Y-2504285D01*
X130130000Y-2575714D01*
X130201428Y-2718571D01*
X130201428Y-2932857D01*
X130130000Y-3075714D01*
X130058571Y-3147142D01*
X129915714Y-3218571D01*
X129344285Y-3218571D01*
X129344285Y-1718571D01*
X129844285Y-1718571D01*
X129987142Y-1790000D01*
X130058571Y-1861428D01*
X130130000Y-2004285D01*
X130130000Y-2147142D01*
X130058571Y-2290000D01*
X129987142Y-2361428D01*
X129844285Y-2432857D01*
X129344285Y-2432857D01*
X131558571Y-1718571D02*
X130844285Y-1718571D01*
X130772857Y-2432857D01*
X130844285Y-2361428D01*
X130987142Y-2290000D01*
X131344285Y-2290000D01*
X131487142Y-2361428D01*
X131558571Y-2432857D01*
X131630000Y-2575714D01*
X131630000Y-2932857D01*
X131558571Y-3075714D01*
X131487142Y-3147142D01*
X131344285Y-3218571D01*
X130987142Y-3218571D01*
X130844285Y-3147142D01*
X130772857Y-3075714D01*
X133915714Y-2432857D02*
X134130000Y-2504285D01*
X134201428Y-2575714D01*
X134272857Y-2718571D01*
X134272857Y-2932857D01*
X134201428Y-3075714D01*
X134130000Y-3147142D01*
X133987142Y-3218571D01*
X133415714Y-3218571D01*
X133415714Y-1718571D01*
X133915714Y-1718571D01*
X134058571Y-1790000D01*
X134130000Y-1861428D01*
X134201428Y-2004285D01*
X134201428Y-2147142D01*
X134130000Y-2290000D01*
X134058571Y-2361428D01*
X133915714Y-2432857D01*
X133415714Y-2432857D01*
X135558571Y-2218571D02*
X135558571Y-3218571D01*
X135201428Y-1647142D02*
X134844285Y-2718571D01*
X135772857Y-2718571D01*
X137987142Y-2432857D02*
X138201428Y-2504285D01*
X138272857Y-2575714D01*
X138344285Y-2718571D01*
X138344285Y-2932857D01*
X138272857Y-3075714D01*
X138201428Y-3147142D01*
X138058571Y-3218571D01*
X137487142Y-3218571D01*
X137487142Y-1718571D01*
X137987142Y-1718571D01*
X138130000Y-1790000D01*
X138201428Y-1861428D01*
X138272857Y-2004285D01*
X138272857Y-2147142D01*
X138201428Y-2290000D01*
X138130000Y-2361428D01*
X137987142Y-2432857D01*
X137487142Y-2432857D01*
X138844285Y-1718571D02*
X139772857Y-1718571D01*
X139272857Y-2290000D01*
X139487142Y-2290000D01*
X139630000Y-2361428D01*
X139701428Y-2432857D01*
X139772857Y-2575714D01*
X139772857Y-2932857D01*
X139701428Y-3075714D01*
X139630000Y-3147142D01*
X139487142Y-3218571D01*
X139058571Y-3218571D01*
X138915714Y-3147142D01*
X138844285Y-3075714D01*
X142058571Y-2432857D02*
X142272857Y-2504285D01*
X142344285Y-2575714D01*
X142415714Y-2718571D01*
X142415714Y-2932857D01*
X142344285Y-3075714D01*
X142272857Y-3147142D01*
X142130000Y-3218571D01*
X141558571Y-3218571D01*
X141558571Y-1718571D01*
X142058571Y-1718571D01*
X142201428Y-1790000D01*
X142272857Y-1861428D01*
X142344285Y-2004285D01*
X142344285Y-2147142D01*
X142272857Y-2290000D01*
X142201428Y-2361428D01*
X142058571Y-2432857D01*
X141558571Y-2432857D01*
X142987142Y-1861428D02*
X143058571Y-1790000D01*
X143201428Y-1718571D01*
X143558571Y-1718571D01*
X143701428Y-1790000D01*
X143772857Y-1861428D01*
X143844285Y-2004285D01*
X143844285Y-2147142D01*
X143772857Y-2361428D01*
X142915714Y-3218571D01*
X143844285Y-3218571D01*
X146130000Y-2432857D02*
X146344285Y-2504285D01*
X146415714Y-2575714D01*
X146487142Y-2718571D01*
X146487142Y-2932857D01*
X146415714Y-3075714D01*
X146344285Y-3147142D01*
X146201428Y-3218571D01*
X145630000Y-3218571D01*
X145630000Y-1718571D01*
X146130000Y-1718571D01*
X146272857Y-1790000D01*
X146344285Y-1861428D01*
X146415714Y-2004285D01*
X146415714Y-2147142D01*
X146344285Y-2290000D01*
X146272857Y-2361428D01*
X146130000Y-2432857D01*
X145630000Y-2432857D01*
X147915714Y-3218571D02*
X147058571Y-3218571D01*
X147487142Y-3218571D02*
X147487142Y-1718571D01*
X147344285Y-1932857D01*
X147201428Y-2075714D01*
X147058571Y-2147142D01*
X150558571Y-3218571D02*
X150058571Y-2504285D01*
X149701428Y-3218571D02*
X149701428Y-1718571D01*
X150272857Y-1718571D01*
X150415714Y-1790000D01*
X150487142Y-1861428D01*
X150558571Y-2004285D01*
X150558571Y-2218571D01*
X150487142Y-2361428D01*
X150415714Y-2432857D01*
X150272857Y-2504285D01*
X149701428Y-2504285D01*
X151201428Y-2432857D02*
X151701428Y-2432857D01*
X151915714Y-3218571D02*
X151201428Y-3218571D01*
X151201428Y-1718571D01*
X151915714Y-1718571D01*
X152487142Y-3147142D02*
X152701428Y-3218571D01*
X153058571Y-3218571D01*
X153201428Y-3147142D01*
X153272857Y-3075714D01*
X153344285Y-2932857D01*
X153344285Y-2790000D01*
X153272857Y-2647142D01*
X153201428Y-2575714D01*
X153058571Y-2504285D01*
X152772857Y-2432857D01*
X152630000Y-2361428D01*
X152558571Y-2290000D01*
X152487142Y-2147142D01*
X152487142Y-2004285D01*
X152558571Y-1861428D01*
X152630000Y-1790000D01*
X152772857Y-1718571D01*
X153130000Y-1718571D01*
X153344285Y-1790000D01*
X153987142Y-2432857D02*
X154487142Y-2432857D01*
X154701428Y-3218571D02*
X153987142Y-3218571D01*
X153987142Y-1718571D01*
X154701428Y-1718571D01*
X155130000Y-1718571D02*
X155987142Y-1718571D01*
X155558571Y-3218571D02*
X155558571Y-1718571D01*
X158487142Y-3075714D02*
X158415714Y-3147142D01*
X158201428Y-3218571D01*
X158058571Y-3218571D01*
X157844285Y-3147142D01*
X157701428Y-3004285D01*
X157630000Y-2861428D01*
X157558571Y-2575714D01*
X157558571Y-2361428D01*
X157630000Y-2075714D01*
X157701428Y-1932857D01*
X157844285Y-1790000D01*
X158058571Y-1718571D01*
X158201428Y-1718571D01*
X158415714Y-1790000D01*
X158487142Y-1861428D01*
X159844285Y-3218571D02*
X159130000Y-3218571D01*
X159130000Y-1718571D01*
X161201428Y-3218571D02*
X160701428Y-2504285D01*
X160344285Y-3218571D02*
X160344285Y-1718571D01*
X160915714Y-1718571D01*
X161058571Y-1790000D01*
X161130000Y-1861428D01*
X161201428Y-2004285D01*
X161201428Y-2218571D01*
X161130000Y-2361428D01*
X161058571Y-2432857D01*
X160915714Y-2504285D01*
X160344285Y-2504285D01*
X162987142Y-3218571D02*
X162987142Y-1718571D01*
X163844285Y-3218571D02*
X163201428Y-2361428D01*
X163844285Y-1718571D02*
X162987142Y-2575714D01*
X164487142Y-3218571D02*
X164487142Y-1718571D01*
X165058571Y-1718571D01*
X165201428Y-1790000D01*
X165272857Y-1861428D01*
X165344285Y-2004285D01*
X165344285Y-2218571D01*
X165272857Y-2361428D01*
X165201428Y-2432857D01*
X165058571Y-2504285D01*
X164487142Y-2504285D01*
X167130000Y-3218571D02*
X167130000Y-1718571D01*
X167272857Y-2647142D02*
X167701428Y-3218571D01*
X167701428Y-2218571D02*
X167130000Y-2790000D01*
X168915714Y-3147142D02*
X168772857Y-3218571D01*
X168487142Y-3218571D01*
X168344285Y-3147142D01*
X168272857Y-3004285D01*
X168272857Y-2432857D01*
X168344285Y-2290000D01*
X168487142Y-2218571D01*
X168772857Y-2218571D01*
X168915714Y-2290000D01*
X168987142Y-2432857D01*
X168987142Y-2575714D01*
X168272857Y-2718571D01*
X169487142Y-2218571D02*
X169844285Y-3218571D01*
X170201428Y-2218571D02*
X169844285Y-3218571D01*
X169701428Y-3575714D01*
X169630000Y-3647142D01*
X169487142Y-3718571D01*
X171415714Y-3218571D02*
X171415714Y-1718571D01*
X171415714Y-3147142D02*
X171272857Y-3218571D01*
X170987142Y-3218571D01*
X170844285Y-3147142D01*
X170772857Y-3075714D01*
X170701428Y-2932857D01*
X170701428Y-2504285D01*
X170772857Y-2361428D01*
X170844285Y-2290000D01*
X170987142Y-2218571D01*
X171272857Y-2218571D01*
X171415714Y-2290000D01*
X172344285Y-3218571D02*
X172201428Y-3147142D01*
X172130000Y-3075714D01*
X172058571Y-2932857D01*
X172058571Y-2504285D01*
X172130000Y-2361428D01*
X172201428Y-2290000D01*
X172344285Y-2218571D01*
X172558571Y-2218571D01*
X172701428Y-2290000D01*
X172772857Y-2361428D01*
X172844285Y-2504285D01*
X172844285Y-2932857D01*
X172772857Y-3075714D01*
X172701428Y-3147142D01*
X172558571Y-3218571D01*
X172344285Y-3218571D01*
X173344285Y-2218571D02*
X173630000Y-3218571D01*
X173915714Y-2504285D01*
X174201428Y-3218571D01*
X174487142Y-2218571D01*
X175058571Y-2218571D02*
X175058571Y-3218571D01*
X175058571Y-2361428D02*
X175130000Y-2290000D01*
X175272857Y-2218571D01*
X175487142Y-2218571D01*
X175630000Y-2290000D01*
X175701428Y-2432857D01*
X175701428Y-3218571D01*
X178344285Y-1790000D02*
X178201428Y-1718571D01*
X177987142Y-1718571D01*
X177772857Y-1790000D01*
X177630000Y-1932857D01*
X177558571Y-2075714D01*
X177487142Y-2361428D01*
X177487142Y-2575714D01*
X177558571Y-2861428D01*
X177630000Y-3004285D01*
X177772857Y-3147142D01*
X177987142Y-3218571D01*
X178130000Y-3218571D01*
X178344285Y-3147142D01*
X178415714Y-3075714D01*
X178415714Y-2575714D01*
X178130000Y-2575714D01*
X179058571Y-3218571D02*
X179058571Y-1718571D01*
X179915714Y-3218571D01*
X179915714Y-1718571D01*
X180630000Y-3218571D02*
X180630000Y-1718571D01*
X180987142Y-1718571D01*
X181201428Y-1790000D01*
X181344285Y-1932857D01*
X181415714Y-2075714D01*
X181487142Y-2361428D01*
X181487142Y-2575714D01*
X181415714Y-2861428D01*
X181344285Y-3004285D01*
X181201428Y-3147142D01*
X180987142Y-3218571D01*
X180630000Y-3218571D01*
X183987142Y-1718571D02*
X183272857Y-1718571D01*
X183201428Y-2432857D01*
X183272857Y-2361428D01*
X183415714Y-2290000D01*
X183772857Y-2290000D01*
X183915714Y-2361428D01*
X183987142Y-2432857D01*
X184058571Y-2575714D01*
X184058571Y-2932857D01*
X183987142Y-3075714D01*
X183915714Y-3147142D01*
X183772857Y-3218571D01*
X183415714Y-3218571D01*
X183272857Y-3147142D01*
X183201428Y-3075714D01*
X184558571Y-2218571D02*
X184915714Y-3218571D01*
X185272857Y-2218571D01*
X295660000Y-118944285D02*
X295660000Y-119658571D01*
X295231428Y-118801428D02*
X296731428Y-119301428D01*
X295231428Y-119801428D01*
X295302857Y-120230000D02*
X295231428Y-120444285D01*
X295231428Y-120801428D01*
X295302857Y-120944285D01*
X295374285Y-121015714D01*
X295517142Y-121087142D01*
X295660000Y-121087142D01*
X295802857Y-121015714D01*
X295874285Y-120944285D01*
X295945714Y-120801428D01*
X296017142Y-120515714D01*
X296088571Y-120372857D01*
X296160000Y-120301428D01*
X296302857Y-120230000D01*
X296445714Y-120230000D01*
X296588571Y-120301428D01*
X296660000Y-120372857D01*
X296731428Y-120515714D01*
X296731428Y-120872857D01*
X296660000Y-121087142D01*
X295374285Y-122587142D02*
X295302857Y-122515714D01*
X295231428Y-122301428D01*
X295231428Y-122158571D01*
X295302857Y-121944285D01*
X295445714Y-121801428D01*
X295588571Y-121730000D01*
X295874285Y-121658571D01*
X296088571Y-121658571D01*
X296374285Y-121730000D01*
X296517142Y-121801428D01*
X296660000Y-121944285D01*
X296731428Y-122158571D01*
X296731428Y-122301428D01*
X296660000Y-122515714D01*
X296588571Y-122587142D01*
X295231428Y-123230000D02*
X296731428Y-123230000D01*
X295231428Y-123944285D02*
X296731428Y-123944285D01*
X296731428Y-126087142D02*
X296731428Y-126372857D01*
X296660000Y-126515714D01*
X296517142Y-126658571D01*
X296231428Y-126730000D01*
X295731428Y-126730000D01*
X295445714Y-126658571D01*
X295302857Y-126515714D01*
X295231428Y-126372857D01*
X295231428Y-126087142D01*
X295302857Y-125944285D01*
X295445714Y-125801428D01*
X295731428Y-125730000D01*
X296231428Y-125730000D01*
X296517142Y-125801428D01*
X296660000Y-125944285D01*
X296731428Y-126087142D01*
X296231428Y-128015714D02*
X295231428Y-128015714D01*
X296231428Y-127372857D02*
X295445714Y-127372857D01*
X295302857Y-127444285D01*
X295231428Y-127587142D01*
X295231428Y-127801428D01*
X295302857Y-127944285D01*
X295374285Y-128015714D01*
X296231428Y-128515714D02*
X296231428Y-129087142D01*
X296731428Y-128730000D02*
X295445714Y-128730000D01*
X295302857Y-128801428D01*
X295231428Y-128944285D01*
X295231428Y-129087142D01*
X296231428Y-129587142D02*
X294731428Y-129587142D01*
X296160000Y-129587142D02*
X296231428Y-129730000D01*
X296231428Y-130015714D01*
X296160000Y-130158571D01*
X296088571Y-130230000D01*
X295945714Y-130301428D01*
X295517142Y-130301428D01*
X295374285Y-130230000D01*
X295302857Y-130158571D01*
X295231428Y-130015714D01*
X295231428Y-129730000D01*
X295302857Y-129587142D01*
X296231428Y-131587142D02*
X295231428Y-131587142D01*
X296231428Y-130944285D02*
X295445714Y-130944285D01*
X295302857Y-131015714D01*
X295231428Y-131158571D01*
X295231428Y-131372857D01*
X295302857Y-131515714D01*
X295374285Y-131587142D01*
X296231428Y-132087142D02*
X296231428Y-132658571D01*
X296731428Y-132301428D02*
X295445714Y-132301428D01*
X295302857Y-132372857D01*
X295231428Y-132515714D01*
X295231428Y-132658571D01*
D10*
X258000952Y-5484761D02*
X258143809Y-5532380D01*
X258381904Y-5532380D01*
X258477142Y-5484761D01*
X258524761Y-5437142D01*
X258572380Y-5341904D01*
X258572380Y-5246666D01*
X258524761Y-5151428D01*
X258477142Y-5103809D01*
X258381904Y-5056190D01*
X258191428Y-5008571D01*
X258096190Y-4960952D01*
X258048571Y-4913333D01*
X258000952Y-4818095D01*
X258000952Y-4722857D01*
X258048571Y-4627619D01*
X258096190Y-4580000D01*
X258191428Y-4532380D01*
X258429523Y-4532380D01*
X258572380Y-4580000D01*
X259000952Y-5532380D02*
X259000952Y-4532380D01*
X259429523Y-5532380D02*
X259429523Y-5008571D01*
X259381904Y-4913333D01*
X259286666Y-4865714D01*
X259143809Y-4865714D01*
X259048571Y-4913333D01*
X259000952Y-4960952D01*
X259905714Y-5532380D02*
X259905714Y-4865714D01*
X259905714Y-4532380D02*
X259858095Y-4580000D01*
X259905714Y-4627619D01*
X259953333Y-4580000D01*
X259905714Y-4532380D01*
X259905714Y-4627619D01*
X260239047Y-4865714D02*
X260620000Y-4865714D01*
X260381904Y-5532380D02*
X260381904Y-4675238D01*
X260429523Y-4580000D01*
X260524761Y-4532380D01*
X260620000Y-4532380D01*
X260810476Y-4865714D02*
X261191428Y-4865714D01*
X260953333Y-4532380D02*
X260953333Y-5389523D01*
X261000952Y-5484761D01*
X261096190Y-5532380D01*
X261191428Y-5532380D01*
X262762857Y-5532380D02*
X262286666Y-5532380D01*
X262286666Y-4532380D01*
X263239047Y-5532380D02*
X263143809Y-5484761D01*
X263096190Y-5437142D01*
X263048571Y-5341904D01*
X263048571Y-5056190D01*
X263096190Y-4960952D01*
X263143809Y-4913333D01*
X263239047Y-4865714D01*
X263381904Y-4865714D01*
X263477142Y-4913333D01*
X263524761Y-4960952D01*
X263572380Y-5056190D01*
X263572380Y-5341904D01*
X263524761Y-5437142D01*
X263477142Y-5484761D01*
X263381904Y-5532380D01*
X263239047Y-5532380D01*
X264429523Y-5484761D02*
X264334285Y-5532380D01*
X264143809Y-5532380D01*
X264048571Y-5484761D01*
X264000952Y-5437142D01*
X263953333Y-5341904D01*
X263953333Y-5056190D01*
X264000952Y-4960952D01*
X264048571Y-4913333D01*
X264143809Y-4865714D01*
X264334285Y-4865714D01*
X264429523Y-4913333D01*
X264858095Y-5532380D02*
X264858095Y-4532380D01*
X264953333Y-5151428D02*
X265239047Y-5532380D01*
X265239047Y-4865714D02*
X264858095Y-5246666D01*
D11*
X111188571Y-21697142D02*
X112331428Y-21697142D01*
X111760000Y-22268571D02*
X111760000Y-21125714D01*
D10*
X212431428Y-39155714D02*
X212431428Y-39822380D01*
X212193333Y-38774761D02*
X211955238Y-39489047D01*
X212574285Y-39489047D01*
X212955238Y-39727142D02*
X213002857Y-39774761D01*
X212955238Y-39822380D01*
X212907619Y-39774761D01*
X212955238Y-39727142D01*
X212955238Y-39822380D01*
X213336190Y-38822380D02*
X214002857Y-38822380D01*
X213574285Y-39822380D01*
X214383809Y-39822380D02*
X214383809Y-38822380D01*
X214479047Y-39441428D02*
X214764761Y-39822380D01*
X214764761Y-39155714D02*
X214383809Y-39536666D01*
X315857142Y-28662380D02*
X315952380Y-28662380D01*
X316047619Y-28710000D01*
X316095238Y-28757619D01*
X316142857Y-28852857D01*
X316190476Y-29043333D01*
X316190476Y-29281428D01*
X316142857Y-29471904D01*
X316095238Y-29567142D01*
X316047619Y-29614761D01*
X315952380Y-29662380D01*
X315857142Y-29662380D01*
X315761904Y-29614761D01*
X315714285Y-29567142D01*
X315666666Y-29471904D01*
X315619047Y-29281428D01*
X315619047Y-29043333D01*
X315666666Y-28852857D01*
X315714285Y-28757619D01*
X315761904Y-28710000D01*
X315857142Y-28662380D01*
X316619047Y-29567142D02*
X316666666Y-29614761D01*
X316619047Y-29662380D01*
X316571428Y-29614761D01*
X316619047Y-29567142D01*
X316619047Y-29662380D01*
X317619047Y-29662380D02*
X317047619Y-29662380D01*
X317333333Y-29662380D02*
X317333333Y-28662380D01*
X317238095Y-28805238D01*
X317142857Y-28900476D01*
X317047619Y-28948095D01*
X318476190Y-28995714D02*
X318476190Y-29662380D01*
X318047619Y-28995714D02*
X318047619Y-29519523D01*
X318095238Y-29614761D01*
X318190476Y-29662380D01*
X318333333Y-29662380D01*
X318428571Y-29614761D01*
X318476190Y-29567142D01*
X319285714Y-29138571D02*
X318952380Y-29138571D01*
X318952380Y-29662380D02*
X318952380Y-28662380D01*
X319428571Y-28662380D01*
X78771904Y-36377619D02*
X78819523Y-36330000D01*
X78914761Y-36282380D01*
X79152857Y-36282380D01*
X79248095Y-36330000D01*
X79295714Y-36377619D01*
X79343333Y-36472857D01*
X79343333Y-36568095D01*
X79295714Y-36710952D01*
X78724285Y-37282380D01*
X79343333Y-37282380D01*
X79724285Y-36377619D02*
X79771904Y-36330000D01*
X79867142Y-36282380D01*
X80105238Y-36282380D01*
X80200476Y-36330000D01*
X80248095Y-36377619D01*
X80295714Y-36472857D01*
X80295714Y-36568095D01*
X80248095Y-36710952D01*
X79676666Y-37282380D01*
X80295714Y-37282380D01*
X80914761Y-36282380D02*
X81010000Y-36282380D01*
X81105238Y-36330000D01*
X81152857Y-36377619D01*
X81200476Y-36472857D01*
X81248095Y-36663333D01*
X81248095Y-36901428D01*
X81200476Y-37091904D01*
X81152857Y-37187142D01*
X81105238Y-37234761D01*
X81010000Y-37282380D01*
X80914761Y-37282380D01*
X80819523Y-37234761D01*
X80771904Y-37187142D01*
X80724285Y-37091904D01*
X80676666Y-36901428D01*
X80676666Y-36663333D01*
X80724285Y-36472857D01*
X80771904Y-36377619D01*
X80819523Y-36330000D01*
X80914761Y-36282380D01*
X78771904Y-28757619D02*
X78819523Y-28710000D01*
X78914761Y-28662380D01*
X79152857Y-28662380D01*
X79248095Y-28710000D01*
X79295714Y-28757619D01*
X79343333Y-28852857D01*
X79343333Y-28948095D01*
X79295714Y-29090952D01*
X78724285Y-29662380D01*
X79343333Y-29662380D01*
X79724285Y-28757619D02*
X79771904Y-28710000D01*
X79867142Y-28662380D01*
X80105238Y-28662380D01*
X80200476Y-28710000D01*
X80248095Y-28757619D01*
X80295714Y-28852857D01*
X80295714Y-28948095D01*
X80248095Y-29090952D01*
X79676666Y-29662380D01*
X80295714Y-29662380D01*
X80914761Y-28662380D02*
X81010000Y-28662380D01*
X81105238Y-28710000D01*
X81152857Y-28757619D01*
X81200476Y-28852857D01*
X81248095Y-29043333D01*
X81248095Y-29281428D01*
X81200476Y-29471904D01*
X81152857Y-29567142D01*
X81105238Y-29614761D01*
X81010000Y-29662380D01*
X80914761Y-29662380D01*
X80819523Y-29614761D01*
X80771904Y-29567142D01*
X80724285Y-29471904D01*
X80676666Y-29281428D01*
X80676666Y-29043333D01*
X80724285Y-28852857D01*
X80771904Y-28757619D01*
X80819523Y-28710000D01*
X80914761Y-28662380D01*
X78771904Y-21137619D02*
X78819523Y-21090000D01*
X78914761Y-21042380D01*
X79152857Y-21042380D01*
X79248095Y-21090000D01*
X79295714Y-21137619D01*
X79343333Y-21232857D01*
X79343333Y-21328095D01*
X79295714Y-21470952D01*
X78724285Y-22042380D01*
X79343333Y-22042380D01*
X79724285Y-21137619D02*
X79771904Y-21090000D01*
X79867142Y-21042380D01*
X80105238Y-21042380D01*
X80200476Y-21090000D01*
X80248095Y-21137619D01*
X80295714Y-21232857D01*
X80295714Y-21328095D01*
X80248095Y-21470952D01*
X79676666Y-22042380D01*
X80295714Y-22042380D01*
X80914761Y-21042380D02*
X81010000Y-21042380D01*
X81105238Y-21090000D01*
X81152857Y-21137619D01*
X81200476Y-21232857D01*
X81248095Y-21423333D01*
X81248095Y-21661428D01*
X81200476Y-21851904D01*
X81152857Y-21947142D01*
X81105238Y-21994761D01*
X81010000Y-22042380D01*
X80914761Y-22042380D01*
X80819523Y-21994761D01*
X80771904Y-21947142D01*
X80724285Y-21851904D01*
X80676666Y-21661428D01*
X80676666Y-21423333D01*
X80724285Y-21232857D01*
X80771904Y-21137619D01*
X80819523Y-21090000D01*
X80914761Y-21042380D01*
X79081428Y-13755714D02*
X79081428Y-14422380D01*
X78843333Y-13374761D02*
X78605238Y-14089047D01*
X79224285Y-14089047D01*
X79605238Y-14327142D02*
X79652857Y-14374761D01*
X79605238Y-14422380D01*
X79557619Y-14374761D01*
X79605238Y-14327142D01*
X79605238Y-14422380D01*
X79986190Y-13422380D02*
X80652857Y-13422380D01*
X80224285Y-14422380D01*
X81033809Y-14422380D02*
X81033809Y-13422380D01*
X81129047Y-14041428D02*
X81414761Y-14422380D01*
X81414761Y-13755714D02*
X81033809Y-14136666D01*
X79081428Y-8675714D02*
X79081428Y-9342380D01*
X78843333Y-8294761D02*
X78605238Y-9009047D01*
X79224285Y-9009047D01*
X79605238Y-9247142D02*
X79652857Y-9294761D01*
X79605238Y-9342380D01*
X79557619Y-9294761D01*
X79605238Y-9247142D01*
X79605238Y-9342380D01*
X79986190Y-8342380D02*
X80652857Y-8342380D01*
X80224285Y-9342380D01*
X81033809Y-9342380D02*
X81033809Y-8342380D01*
X81129047Y-8961428D02*
X81414761Y-9342380D01*
X81414761Y-8675714D02*
X81033809Y-9056666D01*
X134961428Y-25185714D02*
X134961428Y-25852380D01*
X134723333Y-24804761D02*
X134485238Y-25519047D01*
X135104285Y-25519047D01*
X135485238Y-25757142D02*
X135532857Y-25804761D01*
X135485238Y-25852380D01*
X135437619Y-25804761D01*
X135485238Y-25757142D01*
X135485238Y-25852380D01*
X135866190Y-24852380D02*
X136532857Y-24852380D01*
X136104285Y-25852380D01*
X136913809Y-25852380D02*
X136913809Y-24852380D01*
X137009047Y-25471428D02*
X137294761Y-25852380D01*
X137294761Y-25185714D02*
X136913809Y-25566666D01*
X138771428Y-17565714D02*
X138771428Y-18232380D01*
X138533333Y-17184761D02*
X138295238Y-17899047D01*
X138914285Y-17899047D01*
X139295238Y-18137142D02*
X139342857Y-18184761D01*
X139295238Y-18232380D01*
X139247619Y-18184761D01*
X139295238Y-18137142D01*
X139295238Y-18232380D01*
X139676190Y-17232380D02*
X140342857Y-17232380D01*
X139914285Y-18232380D01*
X140723809Y-18232380D02*
X140723809Y-17232380D01*
X140819047Y-17851428D02*
X141104761Y-18232380D01*
X141104761Y-17565714D02*
X140723809Y-17946666D01*
X132421428Y-6135714D02*
X132421428Y-6802380D01*
X132183333Y-5754761D02*
X131945238Y-6469047D01*
X132564285Y-6469047D01*
X132945238Y-6707142D02*
X132992857Y-6754761D01*
X132945238Y-6802380D01*
X132897619Y-6754761D01*
X132945238Y-6707142D01*
X132945238Y-6802380D01*
X133326190Y-5802380D02*
X133992857Y-5802380D01*
X133564285Y-6802380D01*
X134373809Y-6802380D02*
X134373809Y-5802380D01*
X134469047Y-6421428D02*
X134754761Y-6802380D01*
X134754761Y-6135714D02*
X134373809Y-6516666D01*
X156551428Y-27725714D02*
X156551428Y-28392380D01*
X156313333Y-27344761D02*
X156075238Y-28059047D01*
X156694285Y-28059047D01*
X157075238Y-28297142D02*
X157122857Y-28344761D01*
X157075238Y-28392380D01*
X157027619Y-28344761D01*
X157075238Y-28297142D01*
X157075238Y-28392380D01*
X157456190Y-27392380D02*
X158122857Y-27392380D01*
X157694285Y-28392380D01*
X158503809Y-28392380D02*
X158503809Y-27392380D01*
X158599047Y-28011428D02*
X158884761Y-28392380D01*
X158884761Y-27725714D02*
X158503809Y-28106666D01*
X154011428Y-16295714D02*
X154011428Y-16962380D01*
X153773333Y-15914761D02*
X153535238Y-16629047D01*
X154154285Y-16629047D01*
X154535238Y-16867142D02*
X154582857Y-16914761D01*
X154535238Y-16962380D01*
X154487619Y-16914761D01*
X154535238Y-16867142D01*
X154535238Y-16962380D01*
X154916190Y-15962380D02*
X155582857Y-15962380D01*
X155154285Y-16962380D01*
X155963809Y-16962380D02*
X155963809Y-15962380D01*
X156059047Y-16581428D02*
X156344761Y-16962380D01*
X156344761Y-16295714D02*
X155963809Y-16676666D01*
X151471428Y-6135714D02*
X151471428Y-6802380D01*
X151233333Y-5754761D02*
X150995238Y-6469047D01*
X151614285Y-6469047D01*
X151995238Y-6707142D02*
X152042857Y-6754761D01*
X151995238Y-6802380D01*
X151947619Y-6754761D01*
X151995238Y-6707142D01*
X151995238Y-6802380D01*
X152376190Y-5802380D02*
X153042857Y-5802380D01*
X152614285Y-6802380D01*
X153423809Y-6802380D02*
X153423809Y-5802380D01*
X153519047Y-6421428D02*
X153804761Y-6802380D01*
X153804761Y-6135714D02*
X153423809Y-6516666D01*
X169251428Y-6135714D02*
X169251428Y-6802380D01*
X169013333Y-5754761D02*
X168775238Y-6469047D01*
X169394285Y-6469047D01*
X169775238Y-6707142D02*
X169822857Y-6754761D01*
X169775238Y-6802380D01*
X169727619Y-6754761D01*
X169775238Y-6707142D01*
X169775238Y-6802380D01*
X170156190Y-5802380D02*
X170822857Y-5802380D01*
X170394285Y-6802380D01*
X171203809Y-6802380D02*
X171203809Y-5802380D01*
X171299047Y-6421428D02*
X171584761Y-6802380D01*
X171584761Y-6135714D02*
X171203809Y-6516666D01*
X173061428Y-18835714D02*
X173061428Y-19502380D01*
X172823333Y-18454761D02*
X172585238Y-19169047D01*
X173204285Y-19169047D01*
X173585238Y-19407142D02*
X173632857Y-19454761D01*
X173585238Y-19502380D01*
X173537619Y-19454761D01*
X173585238Y-19407142D01*
X173585238Y-19502380D01*
X173966190Y-18502380D02*
X174632857Y-18502380D01*
X174204285Y-19502380D01*
X175013809Y-19502380D02*
X175013809Y-18502380D01*
X175109047Y-19121428D02*
X175394761Y-19502380D01*
X175394761Y-18835714D02*
X175013809Y-19216666D01*
X173061428Y-28995714D02*
X173061428Y-29662380D01*
X172823333Y-28614761D02*
X172585238Y-29329047D01*
X173204285Y-29329047D01*
X173585238Y-29567142D02*
X173632857Y-29614761D01*
X173585238Y-29662380D01*
X173537619Y-29614761D01*
X173585238Y-29567142D01*
X173585238Y-29662380D01*
X173966190Y-28662380D02*
X174632857Y-28662380D01*
X174204285Y-29662380D01*
X175013809Y-29662380D02*
X175013809Y-28662380D01*
X175109047Y-29281428D02*
X175394761Y-29662380D01*
X175394761Y-28995714D02*
X175013809Y-29376666D01*
X179411428Y-34075714D02*
X179411428Y-34742380D01*
X179173333Y-33694761D02*
X178935238Y-34409047D01*
X179554285Y-34409047D01*
X179935238Y-34647142D02*
X179982857Y-34694761D01*
X179935238Y-34742380D01*
X179887619Y-34694761D01*
X179935238Y-34647142D01*
X179935238Y-34742380D01*
X180316190Y-33742380D02*
X180982857Y-33742380D01*
X180554285Y-34742380D01*
X181363809Y-34742380D02*
X181363809Y-33742380D01*
X181459047Y-34361428D02*
X181744761Y-34742380D01*
X181744761Y-34075714D02*
X181363809Y-34456666D01*
X196016666Y-34742380D02*
X195445238Y-34742380D01*
X195730952Y-34742380D02*
X195730952Y-33742380D01*
X195635714Y-33885238D01*
X195540476Y-33980476D01*
X195445238Y-34028095D01*
X196445238Y-34647142D02*
X196492857Y-34694761D01*
X196445238Y-34742380D01*
X196397619Y-34694761D01*
X196445238Y-34647142D01*
X196445238Y-34742380D01*
X197397619Y-33742380D02*
X196921428Y-33742380D01*
X196873809Y-34218571D01*
X196921428Y-34170952D01*
X197016666Y-34123333D01*
X197254761Y-34123333D01*
X197350000Y-34170952D01*
X197397619Y-34218571D01*
X197445238Y-34313809D01*
X197445238Y-34551904D01*
X197397619Y-34647142D01*
X197350000Y-34694761D01*
X197254761Y-34742380D01*
X197016666Y-34742380D01*
X196921428Y-34694761D01*
X196873809Y-34647142D01*
X197873809Y-34742380D02*
X197873809Y-33742380D01*
X197969047Y-34361428D02*
X198254761Y-34742380D01*
X198254761Y-34075714D02*
X197873809Y-34456666D01*
X206081428Y-26455714D02*
X206081428Y-27122380D01*
X205843333Y-26074761D02*
X205605238Y-26789047D01*
X206224285Y-26789047D01*
X206605238Y-27027142D02*
X206652857Y-27074761D01*
X206605238Y-27122380D01*
X206557619Y-27074761D01*
X206605238Y-27027142D01*
X206605238Y-27122380D01*
X206986190Y-26122380D02*
X207652857Y-26122380D01*
X207224285Y-27122380D01*
X208033809Y-27122380D02*
X208033809Y-26122380D01*
X208129047Y-26741428D02*
X208414761Y-27122380D01*
X208414761Y-26455714D02*
X208033809Y-26836666D01*
X187245714Y-24852380D02*
X186769523Y-24852380D01*
X186721904Y-25328571D01*
X186769523Y-25280952D01*
X186864761Y-25233333D01*
X187102857Y-25233333D01*
X187198095Y-25280952D01*
X187245714Y-25328571D01*
X187293333Y-25423809D01*
X187293333Y-25661904D01*
X187245714Y-25757142D01*
X187198095Y-25804761D01*
X187102857Y-25852380D01*
X186864761Y-25852380D01*
X186769523Y-25804761D01*
X186721904Y-25757142D01*
X188150476Y-24852380D02*
X187960000Y-24852380D01*
X187864761Y-24900000D01*
X187817142Y-24947619D01*
X187721904Y-25090476D01*
X187674285Y-25280952D01*
X187674285Y-25661904D01*
X187721904Y-25757142D01*
X187769523Y-25804761D01*
X187864761Y-25852380D01*
X188055238Y-25852380D01*
X188150476Y-25804761D01*
X188198095Y-25757142D01*
X188245714Y-25661904D01*
X188245714Y-25423809D01*
X188198095Y-25328571D01*
X188150476Y-25280952D01*
X188055238Y-25233333D01*
X187864761Y-25233333D01*
X187769523Y-25280952D01*
X187721904Y-25328571D01*
X187674285Y-25423809D01*
X188864761Y-24852380D02*
X188960000Y-24852380D01*
X189055238Y-24900000D01*
X189102857Y-24947619D01*
X189150476Y-25042857D01*
X189198095Y-25233333D01*
X189198095Y-25471428D01*
X189150476Y-25661904D01*
X189102857Y-25757142D01*
X189055238Y-25804761D01*
X188960000Y-25852380D01*
X188864761Y-25852380D01*
X188769523Y-25804761D01*
X188721904Y-25757142D01*
X188674285Y-25661904D01*
X188626666Y-25471428D01*
X188626666Y-25233333D01*
X188674285Y-25042857D01*
X188721904Y-24947619D01*
X188769523Y-24900000D01*
X188864761Y-24852380D01*
X119530952Y-23582380D02*
X119054761Y-23582380D01*
X119007142Y-24058571D01*
X119054761Y-24010952D01*
X119150000Y-23963333D01*
X119388095Y-23963333D01*
X119483333Y-24010952D01*
X119530952Y-24058571D01*
X119578571Y-24153809D01*
X119578571Y-24391904D01*
X119530952Y-24487142D01*
X119483333Y-24534761D01*
X119388095Y-24582380D01*
X119150000Y-24582380D01*
X119054761Y-24534761D01*
X119007142Y-24487142D01*
X120197619Y-23582380D02*
X120292857Y-23582380D01*
X120388095Y-23630000D01*
X120435714Y-23677619D01*
X120483333Y-23772857D01*
X120530952Y-23963333D01*
X120530952Y-24201428D01*
X120483333Y-24391904D01*
X120435714Y-24487142D01*
X120388095Y-24534761D01*
X120292857Y-24582380D01*
X120197619Y-24582380D01*
X120102380Y-24534761D01*
X120054761Y-24487142D01*
X120007142Y-24391904D01*
X119959523Y-24201428D01*
X119959523Y-23963333D01*
X120007142Y-23772857D01*
X120054761Y-23677619D01*
X120102380Y-23630000D01*
X120197619Y-23582380D01*
X121388095Y-23915714D02*
X121388095Y-24582380D01*
X120959523Y-23915714D02*
X120959523Y-24439523D01*
X121007142Y-24534761D01*
X121102380Y-24582380D01*
X121245238Y-24582380D01*
X121340476Y-24534761D01*
X121388095Y-24487142D01*
X122197619Y-24058571D02*
X121864285Y-24058571D01*
X121864285Y-24582380D02*
X121864285Y-23582380D01*
X122340476Y-23582380D01*
X26306190Y-142471666D02*
X26782380Y-142471666D01*
X26210952Y-142757380D02*
X26544285Y-141757380D01*
X26877619Y-142757380D01*
X27163333Y-142709761D02*
X27306190Y-142757380D01*
X27544285Y-142757380D01*
X27639523Y-142709761D01*
X27687142Y-142662142D01*
X27734761Y-142566904D01*
X27734761Y-142471666D01*
X27687142Y-142376428D01*
X27639523Y-142328809D01*
X27544285Y-142281190D01*
X27353809Y-142233571D01*
X27258571Y-142185952D01*
X27210952Y-142138333D01*
X27163333Y-142043095D01*
X27163333Y-141947857D01*
X27210952Y-141852619D01*
X27258571Y-141805000D01*
X27353809Y-141757380D01*
X27591904Y-141757380D01*
X27734761Y-141805000D01*
X28734761Y-142662142D02*
X28687142Y-142709761D01*
X28544285Y-142757380D01*
X28449047Y-142757380D01*
X28306190Y-142709761D01*
X28210952Y-142614523D01*
X28163333Y-142519285D01*
X28115714Y-142328809D01*
X28115714Y-142185952D01*
X28163333Y-141995476D01*
X28210952Y-141900238D01*
X28306190Y-141805000D01*
X28449047Y-141757380D01*
X28544285Y-141757380D01*
X28687142Y-141805000D01*
X28734761Y-141852619D01*
X29163333Y-142757380D02*
X29163333Y-141757380D01*
X29639523Y-142757380D02*
X29639523Y-141757380D01*
X30877619Y-142757380D02*
X30877619Y-141757380D01*
X31449047Y-142757380D02*
X31020476Y-142185952D01*
X31449047Y-141757380D02*
X30877619Y-142328809D01*
X32258571Y-142709761D02*
X32163333Y-142757380D01*
X31972857Y-142757380D01*
X31877619Y-142709761D01*
X31829999Y-142614523D01*
X31829999Y-142233571D01*
X31877619Y-142138333D01*
X31972857Y-142090714D01*
X32163333Y-142090714D01*
X32258571Y-142138333D01*
X32306190Y-142233571D01*
X32306190Y-142328809D01*
X31829999Y-142424047D01*
X32639523Y-142090714D02*
X32877619Y-142757380D01*
X33115714Y-142090714D02*
X32877619Y-142757380D01*
X32782380Y-142995476D01*
X32734761Y-143043095D01*
X32639523Y-143090714D01*
X33496666Y-142757380D02*
X33496666Y-141757380D01*
X33496666Y-142138333D02*
X33591904Y-142090714D01*
X33782380Y-142090714D01*
X33877619Y-142138333D01*
X33925238Y-142185952D01*
X33972857Y-142281190D01*
X33972857Y-142566904D01*
X33925238Y-142662142D01*
X33877619Y-142709761D01*
X33782380Y-142757380D01*
X33591904Y-142757380D01*
X33496666Y-142709761D01*
X34544285Y-142757380D02*
X34449047Y-142709761D01*
X34401428Y-142662142D01*
X34353809Y-142566904D01*
X34353809Y-142281190D01*
X34401428Y-142185952D01*
X34449047Y-142138333D01*
X34544285Y-142090714D01*
X34687142Y-142090714D01*
X34782380Y-142138333D01*
X34830000Y-142185952D01*
X34877619Y-142281190D01*
X34877619Y-142566904D01*
X34830000Y-142662142D01*
X34782380Y-142709761D01*
X34687142Y-142757380D01*
X34544285Y-142757380D01*
X35734761Y-142757380D02*
X35734761Y-142233571D01*
X35687142Y-142138333D01*
X35591904Y-142090714D01*
X35401428Y-142090714D01*
X35306190Y-142138333D01*
X35734761Y-142709761D02*
X35639523Y-142757380D01*
X35401428Y-142757380D01*
X35306190Y-142709761D01*
X35258571Y-142614523D01*
X35258571Y-142519285D01*
X35306190Y-142424047D01*
X35401428Y-142376428D01*
X35639523Y-142376428D01*
X35734761Y-142328809D01*
X36210952Y-142757380D02*
X36210952Y-142090714D01*
X36210952Y-142281190D02*
X36258571Y-142185952D01*
X36306190Y-142138333D01*
X36401428Y-142090714D01*
X36496666Y-142090714D01*
X37258571Y-142757380D02*
X37258571Y-141757380D01*
X37258571Y-142709761D02*
X37163333Y-142757380D01*
X36972857Y-142757380D01*
X36877619Y-142709761D01*
X36830000Y-142662142D01*
X36782380Y-142566904D01*
X36782380Y-142281190D01*
X36830000Y-142185952D01*
X36877619Y-142138333D01*
X36972857Y-142090714D01*
X37163333Y-142090714D01*
X37258571Y-142138333D01*
X43829999Y-142757380D02*
X43829999Y-142090714D01*
X43829999Y-142281190D02*
X43877619Y-142185952D01*
X43925238Y-142138333D01*
X44020476Y-142090714D01*
X44115714Y-142090714D01*
X44829999Y-142709761D02*
X44734761Y-142757380D01*
X44544285Y-142757380D01*
X44449047Y-142709761D01*
X44401428Y-142614523D01*
X44401428Y-142233571D01*
X44449047Y-142138333D01*
X44544285Y-142090714D01*
X44734761Y-142090714D01*
X44829999Y-142138333D01*
X44877619Y-142233571D01*
X44877619Y-142328809D01*
X44401428Y-142424047D01*
X45210952Y-142090714D02*
X45449047Y-142757380D01*
X45687142Y-142090714D01*
X47258571Y-142090714D02*
X47258571Y-142757380D01*
X47020476Y-141709761D02*
X46782380Y-142424047D01*
X47401428Y-142424047D01*
X27758571Y-144407380D02*
X27758571Y-143407380D01*
X28091904Y-144121666D01*
X28425238Y-143407380D01*
X28425238Y-144407380D01*
X28901428Y-144407380D02*
X28901428Y-143740714D01*
X28901428Y-143407380D02*
X28853809Y-143455000D01*
X28901428Y-143502619D01*
X28949047Y-143455000D01*
X28901428Y-143407380D01*
X28901428Y-143502619D01*
X29806190Y-144359761D02*
X29710952Y-144407380D01*
X29520476Y-144407380D01*
X29425238Y-144359761D01*
X29377619Y-144312142D01*
X29330000Y-144216904D01*
X29330000Y-143931190D01*
X29377619Y-143835952D01*
X29425238Y-143788333D01*
X29520476Y-143740714D01*
X29710952Y-143740714D01*
X29806190Y-143788333D01*
X30234761Y-144407380D02*
X30234761Y-143407380D01*
X30663333Y-144407380D02*
X30663333Y-143883571D01*
X30615714Y-143788333D01*
X30520476Y-143740714D01*
X30377619Y-143740714D01*
X30282380Y-143788333D01*
X30234761Y-143835952D01*
X31568095Y-144407380D02*
X31568095Y-143883571D01*
X31520476Y-143788333D01*
X31425238Y-143740714D01*
X31234761Y-143740714D01*
X31139523Y-143788333D01*
X31568095Y-144359761D02*
X31472857Y-144407380D01*
X31234761Y-144407380D01*
X31139523Y-144359761D01*
X31091904Y-144264523D01*
X31091904Y-144169285D01*
X31139523Y-144074047D01*
X31234761Y-144026428D01*
X31472857Y-144026428D01*
X31568095Y-143978809D01*
X32425238Y-144359761D02*
X32330000Y-144407380D01*
X32139523Y-144407380D01*
X32044285Y-144359761D01*
X31996666Y-144264523D01*
X31996666Y-143883571D01*
X32044285Y-143788333D01*
X32139523Y-143740714D01*
X32330000Y-143740714D01*
X32425238Y-143788333D01*
X32472857Y-143883571D01*
X32472857Y-143978809D01*
X31996666Y-144074047D01*
X33044285Y-144407380D02*
X32949047Y-144359761D01*
X32901428Y-144264523D01*
X32901428Y-143407380D01*
X34520476Y-143883571D02*
X34663333Y-143931190D01*
X34710952Y-143978809D01*
X34758571Y-144074047D01*
X34758571Y-144216904D01*
X34710952Y-144312142D01*
X34663333Y-144359761D01*
X34568095Y-144407380D01*
X34187142Y-144407380D01*
X34187142Y-143407380D01*
X34520476Y-143407380D01*
X34615714Y-143455000D01*
X34663333Y-143502619D01*
X34710952Y-143597857D01*
X34710952Y-143693095D01*
X34663333Y-143788333D01*
X34615714Y-143835952D01*
X34520476Y-143883571D01*
X34187142Y-143883571D01*
X35330000Y-144407380D02*
X35234761Y-144359761D01*
X35187142Y-144264523D01*
X35187142Y-143407380D01*
X36139523Y-144407380D02*
X36139523Y-143883571D01*
X36091904Y-143788333D01*
X35996666Y-143740714D01*
X35806190Y-143740714D01*
X35710952Y-143788333D01*
X36139523Y-144359761D02*
X36044285Y-144407380D01*
X35806190Y-144407380D01*
X35710952Y-144359761D01*
X35663333Y-144264523D01*
X35663333Y-144169285D01*
X35710952Y-144074047D01*
X35806190Y-144026428D01*
X36044285Y-144026428D01*
X36139523Y-143978809D01*
X37044285Y-144359761D02*
X36949047Y-144407380D01*
X36758571Y-144407380D01*
X36663333Y-144359761D01*
X36615714Y-144312142D01*
X36568095Y-144216904D01*
X36568095Y-143931190D01*
X36615714Y-143835952D01*
X36663333Y-143788333D01*
X36758571Y-143740714D01*
X36949047Y-143740714D01*
X37044285Y-143788333D01*
X37472857Y-144407380D02*
X37472857Y-143407380D01*
X37568095Y-144026428D02*
X37853809Y-144407380D01*
X37853809Y-143740714D02*
X37472857Y-144121666D01*
X41091904Y-144407380D02*
X40520476Y-144407380D01*
X40806190Y-144407380D02*
X40806190Y-143407380D01*
X40710952Y-143550238D01*
X40615714Y-143645476D01*
X40520476Y-143693095D01*
X42234761Y-143359761D02*
X41377619Y-144645476D01*
X42520476Y-143502619D02*
X42568095Y-143455000D01*
X42663333Y-143407380D01*
X42901428Y-143407380D01*
X42996666Y-143455000D01*
X43044285Y-143502619D01*
X43091904Y-143597857D01*
X43091904Y-143693095D01*
X43044285Y-143835952D01*
X42472857Y-144407380D01*
X43091904Y-144407380D01*
X43710952Y-143407380D02*
X43806190Y-143407380D01*
X43901428Y-143455000D01*
X43949047Y-143502619D01*
X43996666Y-143597857D01*
X44044285Y-143788333D01*
X44044285Y-144026428D01*
X43996666Y-144216904D01*
X43949047Y-144312142D01*
X43901428Y-144359761D01*
X43806190Y-144407380D01*
X43710952Y-144407380D01*
X43615714Y-144359761D01*
X43568095Y-144312142D01*
X43520476Y-144216904D01*
X43472857Y-144026428D01*
X43472857Y-143788333D01*
X43520476Y-143597857D01*
X43568095Y-143502619D01*
X43615714Y-143455000D01*
X43710952Y-143407380D01*
X44425238Y-143502619D02*
X44472857Y-143455000D01*
X44568095Y-143407380D01*
X44806190Y-143407380D01*
X44901428Y-143455000D01*
X44949047Y-143502619D01*
X44996666Y-143597857D01*
X44996666Y-143693095D01*
X44949047Y-143835952D01*
X44377619Y-144407380D01*
X44996666Y-144407380D01*
X45949047Y-144407380D02*
X45377619Y-144407380D01*
X45663333Y-144407380D02*
X45663333Y-143407380D01*
X45568095Y-143550238D01*
X45472857Y-143645476D01*
X45377619Y-143693095D01*
X19830000Y-147183571D02*
X19972857Y-147231190D01*
X20020476Y-147278809D01*
X20068095Y-147374047D01*
X20068095Y-147516904D01*
X20020476Y-147612142D01*
X19972857Y-147659761D01*
X19877619Y-147707380D01*
X19496666Y-147707380D01*
X19496666Y-146707380D01*
X19830000Y-146707380D01*
X19925238Y-146755000D01*
X19972857Y-146802619D01*
X20020476Y-146897857D01*
X20020476Y-146993095D01*
X19972857Y-147088333D01*
X19925238Y-147135952D01*
X19830000Y-147183571D01*
X19496666Y-147183571D01*
X20925238Y-147707380D02*
X20925238Y-147183571D01*
X20877619Y-147088333D01*
X20782380Y-147040714D01*
X20591904Y-147040714D01*
X20496666Y-147088333D01*
X20925238Y-147659761D02*
X20830000Y-147707380D01*
X20591904Y-147707380D01*
X20496666Y-147659761D01*
X20449047Y-147564523D01*
X20449047Y-147469285D01*
X20496666Y-147374047D01*
X20591904Y-147326428D01*
X20830000Y-147326428D01*
X20925238Y-147278809D01*
X21353809Y-147659761D02*
X21449047Y-147707380D01*
X21639523Y-147707380D01*
X21734761Y-147659761D01*
X21782380Y-147564523D01*
X21782380Y-147516904D01*
X21734761Y-147421666D01*
X21639523Y-147374047D01*
X21496666Y-147374047D01*
X21401428Y-147326428D01*
X21353809Y-147231190D01*
X21353809Y-147183571D01*
X21401428Y-147088333D01*
X21496666Y-147040714D01*
X21639523Y-147040714D01*
X21734761Y-147088333D01*
X22591904Y-147659761D02*
X22496666Y-147707380D01*
X22306190Y-147707380D01*
X22210952Y-147659761D01*
X22163333Y-147564523D01*
X22163333Y-147183571D01*
X22210952Y-147088333D01*
X22306190Y-147040714D01*
X22496666Y-147040714D01*
X22591904Y-147088333D01*
X22639523Y-147183571D01*
X22639523Y-147278809D01*
X22163333Y-147374047D01*
X23496666Y-147707380D02*
X23496666Y-146707380D01*
X23496666Y-147659761D02*
X23401428Y-147707380D01*
X23210952Y-147707380D01*
X23115714Y-147659761D01*
X23068095Y-147612142D01*
X23020476Y-147516904D01*
X23020476Y-147231190D01*
X23068095Y-147135952D01*
X23115714Y-147088333D01*
X23210952Y-147040714D01*
X23401428Y-147040714D01*
X23496666Y-147088333D01*
X24877619Y-147707380D02*
X24782380Y-147659761D01*
X24734761Y-147612142D01*
X24687142Y-147516904D01*
X24687142Y-147231190D01*
X24734761Y-147135952D01*
X24782380Y-147088333D01*
X24877619Y-147040714D01*
X25020476Y-147040714D01*
X25115714Y-147088333D01*
X25163333Y-147135952D01*
X25210952Y-147231190D01*
X25210952Y-147516904D01*
X25163333Y-147612142D01*
X25115714Y-147659761D01*
X25020476Y-147707380D01*
X24877619Y-147707380D01*
X25639523Y-147040714D02*
X25639523Y-147707380D01*
X25639523Y-147135952D02*
X25687142Y-147088333D01*
X25782380Y-147040714D01*
X25925238Y-147040714D01*
X26020476Y-147088333D01*
X26068095Y-147183571D01*
X26068095Y-147707380D01*
X27306190Y-147707380D02*
X27306190Y-146707380D01*
X27544285Y-146707380D01*
X27687142Y-146755000D01*
X27782380Y-146850238D01*
X27830000Y-146945476D01*
X27877619Y-147135952D01*
X27877619Y-147278809D01*
X27830000Y-147469285D01*
X27782380Y-147564523D01*
X27687142Y-147659761D01*
X27544285Y-147707380D01*
X27306190Y-147707380D01*
X28449047Y-147707380D02*
X28353809Y-147659761D01*
X28306190Y-147612142D01*
X28258571Y-147516904D01*
X28258571Y-147231190D01*
X28306190Y-147135952D01*
X28353809Y-147088333D01*
X28449047Y-147040714D01*
X28591904Y-147040714D01*
X28687142Y-147088333D01*
X28734761Y-147135952D01*
X28782380Y-147231190D01*
X28782380Y-147516904D01*
X28734761Y-147612142D01*
X28687142Y-147659761D01*
X28591904Y-147707380D01*
X28449047Y-147707380D01*
X29210952Y-147040714D02*
X29210952Y-147707380D01*
X29210952Y-147135952D02*
X29258571Y-147088333D01*
X29353809Y-147040714D01*
X29496666Y-147040714D01*
X29591904Y-147088333D01*
X29639523Y-147183571D01*
X29639523Y-147707380D01*
X31353809Y-147707380D02*
X30877619Y-147707380D01*
X30877619Y-146707380D01*
X32115714Y-147707380D02*
X32115714Y-147183571D01*
X32068095Y-147088333D01*
X31972857Y-147040714D01*
X31782380Y-147040714D01*
X31687142Y-147088333D01*
X32115714Y-147659761D02*
X32020476Y-147707380D01*
X31782380Y-147707380D01*
X31687142Y-147659761D01*
X31639523Y-147564523D01*
X31639523Y-147469285D01*
X31687142Y-147374047D01*
X31782380Y-147326428D01*
X32020476Y-147326428D01*
X32115714Y-147278809D01*
X32591904Y-147040714D02*
X32591904Y-147707380D01*
X32591904Y-147135952D02*
X32639523Y-147088333D01*
X32734761Y-147040714D01*
X32877619Y-147040714D01*
X32972857Y-147088333D01*
X33020476Y-147183571D01*
X33020476Y-147707380D01*
X33925238Y-147659761D02*
X33830000Y-147707380D01*
X33639523Y-147707380D01*
X33544285Y-147659761D01*
X33496666Y-147612142D01*
X33449047Y-147516904D01*
X33449047Y-147231190D01*
X33496666Y-147135952D01*
X33544285Y-147088333D01*
X33639523Y-147040714D01*
X33830000Y-147040714D01*
X33925238Y-147088333D01*
X34782380Y-147707380D02*
X34782380Y-147183571D01*
X34734761Y-147088333D01*
X34639523Y-147040714D01*
X34449047Y-147040714D01*
X34353809Y-147088333D01*
X34782380Y-147659761D02*
X34687142Y-147707380D01*
X34449047Y-147707380D01*
X34353809Y-147659761D01*
X34306190Y-147564523D01*
X34306190Y-147469285D01*
X34353809Y-147374047D01*
X34449047Y-147326428D01*
X34687142Y-147326428D01*
X34782380Y-147278809D01*
X35210952Y-147659761D02*
X35306190Y-147707380D01*
X35496666Y-147707380D01*
X35591904Y-147659761D01*
X35639523Y-147564523D01*
X35639523Y-147516904D01*
X35591904Y-147421666D01*
X35496666Y-147374047D01*
X35353809Y-147374047D01*
X35258571Y-147326428D01*
X35210952Y-147231190D01*
X35210952Y-147183571D01*
X35258571Y-147088333D01*
X35353809Y-147040714D01*
X35496666Y-147040714D01*
X35591904Y-147088333D01*
X35925238Y-147040714D02*
X36306190Y-147040714D01*
X36068095Y-146707380D02*
X36068095Y-147564523D01*
X36115714Y-147659761D01*
X36210952Y-147707380D01*
X36306190Y-147707380D01*
X37020476Y-147659761D02*
X36925238Y-147707380D01*
X36734761Y-147707380D01*
X36639523Y-147659761D01*
X36591904Y-147564523D01*
X36591904Y-147183571D01*
X36639523Y-147088333D01*
X36734761Y-147040714D01*
X36925238Y-147040714D01*
X37020476Y-147088333D01*
X37068095Y-147183571D01*
X37068095Y-147278809D01*
X36591904Y-147374047D01*
X37496666Y-147707380D02*
X37496666Y-147040714D01*
X37496666Y-147231190D02*
X37544285Y-147135952D01*
X37591904Y-147088333D01*
X37687142Y-147040714D01*
X37782380Y-147040714D01*
X38163333Y-146707380D02*
X38068095Y-146897857D01*
X38544285Y-147659761D02*
X38639523Y-147707380D01*
X38830000Y-147707380D01*
X38925238Y-147659761D01*
X38972857Y-147564523D01*
X38972857Y-147516904D01*
X38925238Y-147421666D01*
X38830000Y-147374047D01*
X38687142Y-147374047D01*
X38591904Y-147326428D01*
X38544285Y-147231190D01*
X38544285Y-147183571D01*
X38591904Y-147088333D01*
X38687142Y-147040714D01*
X38830000Y-147040714D01*
X38925238Y-147088333D01*
X40591904Y-147707380D02*
X40591904Y-146707380D01*
X40591904Y-147659761D02*
X40496666Y-147707380D01*
X40306190Y-147707380D01*
X40210952Y-147659761D01*
X40163333Y-147612142D01*
X40115714Y-147516904D01*
X40115714Y-147231190D01*
X40163333Y-147135952D01*
X40210952Y-147088333D01*
X40306190Y-147040714D01*
X40496666Y-147040714D01*
X40591904Y-147088333D01*
X41449047Y-147659761D02*
X41353809Y-147707380D01*
X41163333Y-147707380D01*
X41068095Y-147659761D01*
X41020476Y-147564523D01*
X41020476Y-147183571D01*
X41068095Y-147088333D01*
X41163333Y-147040714D01*
X41353809Y-147040714D01*
X41449047Y-147088333D01*
X41496666Y-147183571D01*
X41496666Y-147278809D01*
X41020476Y-147374047D01*
X41877619Y-147659761D02*
X41972857Y-147707380D01*
X42163333Y-147707380D01*
X42258571Y-147659761D01*
X42306190Y-147564523D01*
X42306190Y-147516904D01*
X42258571Y-147421666D01*
X42163333Y-147374047D01*
X42020476Y-147374047D01*
X41925238Y-147326428D01*
X41877619Y-147231190D01*
X41877619Y-147183571D01*
X41925238Y-147088333D01*
X42020476Y-147040714D01*
X42163333Y-147040714D01*
X42258571Y-147088333D01*
X42734761Y-147707380D02*
X42734761Y-147040714D01*
X42734761Y-146707380D02*
X42687142Y-146755000D01*
X42734761Y-146802619D01*
X42782380Y-146755000D01*
X42734761Y-146707380D01*
X42734761Y-146802619D01*
X43639523Y-147040714D02*
X43639523Y-147850238D01*
X43591904Y-147945476D01*
X43544285Y-147993095D01*
X43449047Y-148040714D01*
X43306190Y-148040714D01*
X43210952Y-147993095D01*
X43639523Y-147659761D02*
X43544285Y-147707380D01*
X43353809Y-147707380D01*
X43258571Y-147659761D01*
X43210952Y-147612142D01*
X43163333Y-147516904D01*
X43163333Y-147231190D01*
X43210952Y-147135952D01*
X43258571Y-147088333D01*
X43353809Y-147040714D01*
X43544285Y-147040714D01*
X43639523Y-147088333D01*
X44115714Y-147040714D02*
X44115714Y-147707380D01*
X44115714Y-147135952D02*
X44163333Y-147088333D01*
X44258571Y-147040714D01*
X44401428Y-147040714D01*
X44496666Y-147088333D01*
X44544285Y-147183571D01*
X44544285Y-147707380D01*
X47734761Y-147040714D02*
X47734761Y-147707380D01*
X47496666Y-146659761D02*
X47258571Y-147374047D01*
X47877619Y-147374047D01*
X49734761Y-146659761D02*
X48877619Y-147945476D01*
X51353809Y-147707380D02*
X50782380Y-147707380D01*
X51068095Y-147707380D02*
X51068095Y-146707380D01*
X50972857Y-146850238D01*
X50877619Y-146945476D01*
X50782380Y-146993095D01*
X51830000Y-147707380D02*
X52020476Y-147707380D01*
X52115714Y-147659761D01*
X52163333Y-147612142D01*
X52258571Y-147469285D01*
X52306190Y-147278809D01*
X52306190Y-146897857D01*
X52258571Y-146802619D01*
X52210952Y-146755000D01*
X52115714Y-146707380D01*
X51925238Y-146707380D01*
X51830000Y-146755000D01*
X51782380Y-146802619D01*
X51734761Y-146897857D01*
X51734761Y-147135952D01*
X51782380Y-147231190D01*
X51830000Y-147278809D01*
X51925238Y-147326428D01*
X52115714Y-147326428D01*
X52210952Y-147278809D01*
X52258571Y-147231190D01*
X52306190Y-147135952D01*
X52639523Y-146707380D02*
X53306190Y-146707380D01*
X52877619Y-147707380D01*
X54115714Y-147040714D02*
X54115714Y-147707380D01*
X53877619Y-146659761D02*
X53639523Y-147374047D01*
X54258571Y-147374047D01*
D11*
X278058571Y-2978571D02*
X278201428Y-2978571D01*
X278344285Y-3050000D01*
X278415714Y-3121428D01*
X278487142Y-3264285D01*
X278558571Y-3550000D01*
X278558571Y-3907142D01*
X278487142Y-4192857D01*
X278415714Y-4335714D01*
X278344285Y-4407142D01*
X278201428Y-4478571D01*
X278058571Y-4478571D01*
X277915714Y-4407142D01*
X277844285Y-4335714D01*
X277772857Y-4192857D01*
X277701428Y-3907142D01*
X277701428Y-3550000D01*
X277772857Y-3264285D01*
X277844285Y-3121428D01*
X277915714Y-3050000D01*
X278058571Y-2978571D01*
X276308571Y-7028571D02*
X276308571Y-5528571D01*
X276308571Y-6100000D02*
X276451428Y-6028571D01*
X276737142Y-6028571D01*
X276880000Y-6100000D01*
X276951428Y-6171428D01*
X277022857Y-6314285D01*
X277022857Y-6742857D01*
X276951428Y-6885714D01*
X276880000Y-6957142D01*
X276737142Y-7028571D01*
X276451428Y-7028571D01*
X276308571Y-6957142D01*
X277665714Y-7028571D02*
X277665714Y-6028571D01*
X277665714Y-5528571D02*
X277594285Y-5600000D01*
X277665714Y-5671428D01*
X277737142Y-5600000D01*
X277665714Y-5528571D01*
X277665714Y-5671428D01*
X278165714Y-6028571D02*
X278737142Y-6028571D01*
X278380000Y-5528571D02*
X278380000Y-6814285D01*
X278451428Y-6957142D01*
X278594285Y-7028571D01*
X278737142Y-7028571D01*
X279094285Y-5528571D02*
X280094285Y-5528571D01*
X279451428Y-7028571D01*
X278558571Y-9578571D02*
X277701428Y-9578571D01*
X278130000Y-9578571D02*
X278130000Y-8078571D01*
X277987142Y-8292857D01*
X277844285Y-8435714D01*
X277701428Y-8507142D01*
X289671428Y-4453571D02*
X289671428Y-3453571D01*
X289671428Y-3739285D02*
X289742857Y-3596428D01*
X289814285Y-3525000D01*
X289957142Y-3453571D01*
X290100000Y-3453571D01*
X291171428Y-4382142D02*
X291028571Y-4453571D01*
X290742857Y-4453571D01*
X290600000Y-4382142D01*
X290528571Y-4239285D01*
X290528571Y-3667857D01*
X290600000Y-3525000D01*
X290742857Y-3453571D01*
X291028571Y-3453571D01*
X291171428Y-3525000D01*
X291242857Y-3667857D01*
X291242857Y-3810714D01*
X290528571Y-3953571D01*
X291814285Y-4382142D02*
X291957142Y-4453571D01*
X292242857Y-4453571D01*
X292385714Y-4382142D01*
X292457142Y-4239285D01*
X292457142Y-4167857D01*
X292385714Y-4025000D01*
X292242857Y-3953571D01*
X292028571Y-3953571D01*
X291885714Y-3882142D01*
X291814285Y-3739285D01*
X291814285Y-3667857D01*
X291885714Y-3525000D01*
X292028571Y-3453571D01*
X292242857Y-3453571D01*
X292385714Y-3525000D01*
X293671428Y-4382142D02*
X293528571Y-4453571D01*
X293242857Y-4453571D01*
X293100000Y-4382142D01*
X293028571Y-4239285D01*
X293028571Y-3667857D01*
X293100000Y-3525000D01*
X293242857Y-3453571D01*
X293528571Y-3453571D01*
X293671428Y-3525000D01*
X293742857Y-3667857D01*
X293742857Y-3810714D01*
X293028571Y-3953571D01*
X294171428Y-3453571D02*
X294742857Y-3453571D01*
X294385714Y-2953571D02*
X294385714Y-4239285D01*
X294457142Y-4382142D01*
X294600000Y-4453571D01*
X294742857Y-4453571D01*
X291492857Y-6217857D02*
X291707142Y-6289285D01*
X291778571Y-6360714D01*
X291850000Y-6503571D01*
X291850000Y-6717857D01*
X291778571Y-6860714D01*
X291707142Y-6932142D01*
X291564285Y-7003571D01*
X290992857Y-7003571D01*
X290992857Y-5503571D01*
X291492857Y-5503571D01*
X291635714Y-5575000D01*
X291707142Y-5646428D01*
X291778571Y-5789285D01*
X291778571Y-5932142D01*
X291707142Y-6075000D01*
X291635714Y-6146428D01*
X291492857Y-6217857D01*
X290992857Y-6217857D01*
X293135714Y-6003571D02*
X293135714Y-7003571D01*
X292778571Y-5432142D02*
X292421428Y-6503571D01*
X293350000Y-6503571D01*
X291492857Y-8767857D02*
X291707142Y-8839285D01*
X291778571Y-8910714D01*
X291850000Y-9053571D01*
X291850000Y-9267857D01*
X291778571Y-9410714D01*
X291707142Y-9482142D01*
X291564285Y-9553571D01*
X290992857Y-9553571D01*
X290992857Y-8053571D01*
X291492857Y-8053571D01*
X291635714Y-8125000D01*
X291707142Y-8196428D01*
X291778571Y-8339285D01*
X291778571Y-8482142D01*
X291707142Y-8625000D01*
X291635714Y-8696428D01*
X291492857Y-8767857D01*
X290992857Y-8767857D01*
X292350000Y-8053571D02*
X293278571Y-8053571D01*
X292778571Y-8625000D01*
X292992857Y-8625000D01*
X293135714Y-8696428D01*
X293207142Y-8767857D01*
X293278571Y-8910714D01*
X293278571Y-9267857D01*
X293207142Y-9410714D01*
X293135714Y-9482142D01*
X292992857Y-9553571D01*
X292564285Y-9553571D01*
X292421428Y-9482142D01*
X292350000Y-9410714D01*
X291492857Y-11317857D02*
X291707142Y-11389285D01*
X291778571Y-11460714D01*
X291850000Y-11603571D01*
X291850000Y-11817857D01*
X291778571Y-11960714D01*
X291707142Y-12032142D01*
X291564285Y-12103571D01*
X290992857Y-12103571D01*
X290992857Y-10603571D01*
X291492857Y-10603571D01*
X291635714Y-10675000D01*
X291707142Y-10746428D01*
X291778571Y-10889285D01*
X291778571Y-11032142D01*
X291707142Y-11175000D01*
X291635714Y-11246428D01*
X291492857Y-11317857D01*
X290992857Y-11317857D01*
X292421428Y-10746428D02*
X292492857Y-10675000D01*
X292635714Y-10603571D01*
X292992857Y-10603571D01*
X293135714Y-10675000D01*
X293207142Y-10746428D01*
X293278571Y-10889285D01*
X293278571Y-11032142D01*
X293207142Y-11246428D01*
X292350000Y-12103571D01*
X293278571Y-12103571D01*
X291492857Y-13867857D02*
X291707142Y-13939285D01*
X291778571Y-14010714D01*
X291850000Y-14153571D01*
X291850000Y-14367857D01*
X291778571Y-14510714D01*
X291707142Y-14582142D01*
X291564285Y-14653571D01*
X290992857Y-14653571D01*
X290992857Y-13153571D01*
X291492857Y-13153571D01*
X291635714Y-13225000D01*
X291707142Y-13296428D01*
X291778571Y-13439285D01*
X291778571Y-13582142D01*
X291707142Y-13725000D01*
X291635714Y-13796428D01*
X291492857Y-13867857D01*
X290992857Y-13867857D01*
X293278571Y-14653571D02*
X292421428Y-14653571D01*
X292850000Y-14653571D02*
X292850000Y-13153571D01*
X292707142Y-13367857D01*
X292564285Y-13510714D01*
X292421428Y-13582142D01*
X291492857Y-16417857D02*
X291707142Y-16489285D01*
X291778571Y-16560714D01*
X291850000Y-16703571D01*
X291850000Y-16917857D01*
X291778571Y-17060714D01*
X291707142Y-17132142D01*
X291564285Y-17203571D01*
X290992857Y-17203571D01*
X290992857Y-15703571D01*
X291492857Y-15703571D01*
X291635714Y-15775000D01*
X291707142Y-15846428D01*
X291778571Y-15989285D01*
X291778571Y-16132142D01*
X291707142Y-16275000D01*
X291635714Y-16346428D01*
X291492857Y-16417857D01*
X290992857Y-16417857D01*
X293207142Y-15703571D02*
X292492857Y-15703571D01*
X292421428Y-16417857D01*
X292492857Y-16346428D01*
X292635714Y-16275000D01*
X292992857Y-16275000D01*
X293135714Y-16346428D01*
X293207142Y-16417857D01*
X293278571Y-16560714D01*
X293278571Y-16917857D01*
X293207142Y-17060714D01*
X293135714Y-17132142D01*
X292992857Y-17203571D01*
X292635714Y-17203571D01*
X292492857Y-17132142D01*
X292421428Y-17060714D01*
X291492857Y-18967857D02*
X291707142Y-19039285D01*
X291778571Y-19110714D01*
X291850000Y-19253571D01*
X291850000Y-19467857D01*
X291778571Y-19610714D01*
X291707142Y-19682142D01*
X291564285Y-19753571D01*
X290992857Y-19753571D01*
X290992857Y-18253571D01*
X291492857Y-18253571D01*
X291635714Y-18325000D01*
X291707142Y-18396428D01*
X291778571Y-18539285D01*
X291778571Y-18682142D01*
X291707142Y-18825000D01*
X291635714Y-18896428D01*
X291492857Y-18967857D01*
X290992857Y-18967857D01*
X293135714Y-18253571D02*
X292850000Y-18253571D01*
X292707142Y-18325000D01*
X292635714Y-18396428D01*
X292492857Y-18610714D01*
X292421428Y-18896428D01*
X292421428Y-19467857D01*
X292492857Y-19610714D01*
X292564285Y-19682142D01*
X292707142Y-19753571D01*
X292992857Y-19753571D01*
X293135714Y-19682142D01*
X293207142Y-19610714D01*
X293278571Y-19467857D01*
X293278571Y-19110714D01*
X293207142Y-18967857D01*
X293135714Y-18896428D01*
X292992857Y-18825000D01*
X292707142Y-18825000D01*
X292564285Y-18896428D01*
X292492857Y-18967857D01*
X292421428Y-19110714D01*
X291492857Y-21517857D02*
X291707142Y-21589285D01*
X291778571Y-21660714D01*
X291850000Y-21803571D01*
X291850000Y-22017857D01*
X291778571Y-22160714D01*
X291707142Y-22232142D01*
X291564285Y-22303571D01*
X290992857Y-22303571D01*
X290992857Y-20803571D01*
X291492857Y-20803571D01*
X291635714Y-20875000D01*
X291707142Y-20946428D01*
X291778571Y-21089285D01*
X291778571Y-21232142D01*
X291707142Y-21375000D01*
X291635714Y-21446428D01*
X291492857Y-21517857D01*
X290992857Y-21517857D01*
X292350000Y-20803571D02*
X293350000Y-20803571D01*
X292707142Y-22303571D01*
X316015714Y-2953571D02*
X315301428Y-2953571D01*
X315230000Y-3667857D01*
X315301428Y-3596428D01*
X315444285Y-3525000D01*
X315801428Y-3525000D01*
X315944285Y-3596428D01*
X316015714Y-3667857D01*
X316087142Y-3810714D01*
X316087142Y-4167857D01*
X316015714Y-4310714D01*
X315944285Y-4382142D01*
X315801428Y-4453571D01*
X315444285Y-4453571D01*
X315301428Y-4382142D01*
X315230000Y-4310714D01*
X316587142Y-3453571D02*
X316944285Y-4453571D01*
X317301428Y-3453571D01*
X315622857Y-6217857D02*
X315837142Y-6289285D01*
X315908571Y-6360714D01*
X315980000Y-6503571D01*
X315980000Y-6717857D01*
X315908571Y-6860714D01*
X315837142Y-6932142D01*
X315694285Y-7003571D01*
X315122857Y-7003571D01*
X315122857Y-5503571D01*
X315622857Y-5503571D01*
X315765714Y-5575000D01*
X315837142Y-5646428D01*
X315908571Y-5789285D01*
X315908571Y-5932142D01*
X315837142Y-6075000D01*
X315765714Y-6146428D01*
X315622857Y-6217857D01*
X315122857Y-6217857D01*
X316837142Y-6146428D02*
X316694285Y-6075000D01*
X316622857Y-6003571D01*
X316551428Y-5860714D01*
X316551428Y-5789285D01*
X316622857Y-5646428D01*
X316694285Y-5575000D01*
X316837142Y-5503571D01*
X317122857Y-5503571D01*
X317265714Y-5575000D01*
X317337142Y-5646428D01*
X317408571Y-5789285D01*
X317408571Y-5860714D01*
X317337142Y-6003571D01*
X317265714Y-6075000D01*
X317122857Y-6146428D01*
X316837142Y-6146428D01*
X316694285Y-6217857D01*
X316622857Y-6289285D01*
X316551428Y-6432142D01*
X316551428Y-6717857D01*
X316622857Y-6860714D01*
X316694285Y-6932142D01*
X316837142Y-7003571D01*
X317122857Y-7003571D01*
X317265714Y-6932142D01*
X317337142Y-6860714D01*
X317408571Y-6717857D01*
X317408571Y-6432142D01*
X317337142Y-6289285D01*
X317265714Y-6217857D01*
X317122857Y-6146428D01*
X315087142Y-9553571D02*
X315087142Y-8053571D01*
X315944285Y-9553571D02*
X315301428Y-8696428D01*
X315944285Y-8053571D02*
X315087142Y-8910714D01*
X316587142Y-9553571D02*
X316587142Y-8053571D01*
X317158571Y-8053571D01*
X317301428Y-8125000D01*
X317372857Y-8196428D01*
X317444285Y-8339285D01*
X317444285Y-8553571D01*
X317372857Y-8696428D01*
X317301428Y-8767857D01*
X317158571Y-8839285D01*
X316587142Y-8839285D01*
X315658571Y-11532142D02*
X316801428Y-11532142D01*
X315337142Y-14510714D02*
X315265714Y-14582142D01*
X315051428Y-14653571D01*
X314908571Y-14653571D01*
X314694285Y-14582142D01*
X314551428Y-14439285D01*
X314480000Y-14296428D01*
X314408571Y-14010714D01*
X314408571Y-13796428D01*
X314480000Y-13510714D01*
X314551428Y-13367857D01*
X314694285Y-13225000D01*
X314908571Y-13153571D01*
X315051428Y-13153571D01*
X315265714Y-13225000D01*
X315337142Y-13296428D01*
X316694285Y-14653571D02*
X315980000Y-14653571D01*
X315980000Y-13153571D01*
X318051428Y-14653571D02*
X317551428Y-13939285D01*
X317194285Y-14653571D02*
X317194285Y-13153571D01*
X317765714Y-13153571D01*
X317908571Y-13225000D01*
X317980000Y-13296428D01*
X318051428Y-13439285D01*
X318051428Y-13653571D01*
X317980000Y-13796428D01*
X317908571Y-13867857D01*
X317765714Y-13939285D01*
X317194285Y-13939285D01*
X315658571Y-16632142D02*
X316801428Y-16632142D01*
X315658571Y-19182142D02*
X316801428Y-19182142D01*
X315087142Y-20875000D02*
X314944285Y-20803571D01*
X314730000Y-20803571D01*
X314515714Y-20875000D01*
X314372857Y-21017857D01*
X314301428Y-21160714D01*
X314230000Y-21446428D01*
X314230000Y-21660714D01*
X314301428Y-21946428D01*
X314372857Y-22089285D01*
X314515714Y-22232142D01*
X314730000Y-22303571D01*
X314872857Y-22303571D01*
X315087142Y-22232142D01*
X315158571Y-22160714D01*
X315158571Y-21660714D01*
X314872857Y-21660714D01*
X315801428Y-22303571D02*
X315801428Y-20803571D01*
X316658571Y-22303571D01*
X316658571Y-20803571D01*
X317372857Y-22303571D02*
X317372857Y-20803571D01*
X317730000Y-20803571D01*
X317944285Y-20875000D01*
X318087142Y-21017857D01*
X318158571Y-21160714D01*
X318230000Y-21446428D01*
X318230000Y-21660714D01*
X318158571Y-21946428D01*
X318087142Y-22089285D01*
X317944285Y-22232142D01*
X317730000Y-22303571D01*
X317372857Y-22303571D01*
D12*
%TO.P,U5,16*%
%TO.N,+5V*%
X275590000Y-29210000D03*
%TO.P,U5,8*%
%TO.N,GND*%
X293370000Y-36830000D03*
%TO.P,U5,15*%
%TO.N,Net-(C4-Pad2)*%
X278130000Y-29210000D03*
%TO.P,U5,7*%
%TO.N,Net-(C5-Pad2)*%
X290830000Y-36830000D03*
%TO.P,U5,14*%
%TO.N,Net-(C4-Pad1)*%
X280670000Y-29210000D03*
%TO.P,U5,6*%
%TO.N,Net-(C5-Pad1)*%
X288290000Y-36830000D03*
%TO.P,U5,13*%
%TO.N,Net-(U5-Pad13)*%
X283210000Y-29210000D03*
%TO.P,U5,5*%
%TO.N,Net-(U5-Pad5)*%
X285750000Y-36830000D03*
%TO.P,U5,12*%
%TO.N,Net-(U4-Pad9)*%
X285750000Y-29210000D03*
%TO.P,U5,4*%
%TO.N,Net-(U5-Pad10)*%
X283210000Y-36830000D03*
%TO.P,U5,11*%
%TO.N,+5V*%
X288290000Y-29210000D03*
%TO.P,U5,3*%
X280670000Y-36830000D03*
%TO.P,U5,10*%
%TO.N,Net-(U5-Pad10)*%
X290830000Y-29210000D03*
%TO.P,U5,2*%
%TO.N,~keydown*%
X278130000Y-36830000D03*
%TO.P,U5,9*%
%TO.N,GND*%
X293370000Y-29210000D03*
D13*
%TO.P,U5,1*%
X275590000Y-36830000D03*
%TD*%
D12*
%TO.P,U4,14*%
%TO.N,+5V*%
X246380000Y-29210000D03*
%TO.P,U4,7*%
%TO.N,GND*%
X261620000Y-36830000D03*
%TO.P,U4,13*%
%TO.N,N/C*%
X248920000Y-29210000D03*
%TO.P,U4,6*%
%TO.N,~keydown*%
X259080000Y-36830000D03*
%TO.P,U4,12*%
%TO.N,N/C*%
X251460000Y-29210000D03*
%TO.P,U4,5*%
%TO.N,Net-(U2-Pad7)*%
X256540000Y-36830000D03*
%TO.P,U4,11*%
%TO.N,N/C*%
X254000000Y-29210000D03*
%TO.P,U4,4*%
%TO.N,Net-(R28-Pad2)*%
X254000000Y-36830000D03*
%TO.P,U4,10*%
%TO.N,N/C*%
X256540000Y-29210000D03*
%TO.P,U4,3*%
%TO.N,B8*%
X251460000Y-36830000D03*
%TO.P,U4,9*%
%TO.N,Net-(U4-Pad9)*%
X259080000Y-29210000D03*
%TO.P,U4,2*%
%TO.N,Net-(R27-Pad2)*%
X248920000Y-36830000D03*
%TO.P,U4,8*%
%TO.N,KP*%
X261620000Y-29210000D03*
D13*
%TO.P,U4,1*%
%TO.N,B7*%
X246380000Y-36830000D03*
%TD*%
D12*
%TO.P,U3,14*%
%TO.N,+5V*%
X222250000Y-29210000D03*
%TO.P,U3,7*%
%TO.N,GND*%
X237490000Y-36830000D03*
%TO.P,U3,13*%
%TO.N,B6*%
X224790000Y-29210000D03*
%TO.P,U3,6*%
%TO.N,Net-(R23-Pad2)*%
X234950000Y-36830000D03*
%TO.P,U3,12*%
%TO.N,Net-(R26-Pad2)*%
X227330000Y-29210000D03*
%TO.P,U3,5*%
%TO.N,B3*%
X232410000Y-36830000D03*
%TO.P,U3,11*%
%TO.N,B5*%
X229870000Y-29210000D03*
%TO.P,U3,4*%
%TO.N,Net-(R22-Pad2)*%
X229870000Y-36830000D03*
%TO.P,U3,10*%
%TO.N,Net-(R25-Pad2)*%
X232410000Y-29210000D03*
%TO.P,U3,3*%
%TO.N,B2*%
X227330000Y-36830000D03*
%TO.P,U3,9*%
%TO.N,B4*%
X234950000Y-29210000D03*
%TO.P,U3,2*%
%TO.N,Net-(R21-Pad2)*%
X224790000Y-36830000D03*
%TO.P,U3,8*%
%TO.N,Net-(R24-Pad2)*%
X237490000Y-29210000D03*
D13*
%TO.P,U3,1*%
%TO.N,B1*%
X222250000Y-36830000D03*
%TD*%
D12*
%TO.P,U2,14*%
%TO.N,Net-(JP2-Pad2)*%
X246380000Y-13970000D03*
%TO.P,U2,7*%
%TO.N,Net-(U2-Pad7)*%
X261620000Y-21590000D03*
%TO.P,U2,13*%
%TO.N,Net-(Q3-Pad3)*%
X248920000Y-13970000D03*
%TO.P,U2,6*%
%TO.N,B7*%
X259080000Y-21590000D03*
%TO.P,U2,12*%
%TO.N,Net-(D2-Pad1)*%
X251460000Y-13970000D03*
%TO.P,U2,5*%
%TO.N,B7*%
X256540000Y-21590000D03*
%TO.P,U2,11*%
%TO.N,+5V*%
X254000000Y-13970000D03*
%TO.P,U2,4*%
%TO.N,GND*%
X254000000Y-21590000D03*
%TO.P,U2,10*%
%TO.N,Net-(D2-Pad1)*%
X256540000Y-13970000D03*
%TO.P,U2,3*%
%TO.N,B6*%
X251460000Y-21590000D03*
%TO.P,U2,9*%
%TO.N,Net-(R17-Pad1)*%
X259080000Y-13970000D03*
%TO.P,U2,2*%
%TO.N,B6*%
X248920000Y-21590000D03*
%TO.P,U2,8*%
%TO.N,Net-(Q4-Pad3)*%
X261620000Y-13970000D03*
D13*
%TO.P,U2,1*%
%TO.N,B5*%
X246380000Y-21590000D03*
%TD*%
D12*
%TO.P,U1,14*%
%TO.N,Net-(D3-Pad1)*%
X222250000Y-13970000D03*
%TO.P,U1,7*%
%TO.N,B5*%
X237490000Y-21590000D03*
%TO.P,U1,13*%
%TO.N,Net-(D1-Pad1)*%
X224790000Y-13970000D03*
%TO.P,U1,6*%
%TO.N,Net-(U1-Pad6)*%
X234950000Y-21590000D03*
%TO.P,U1,12*%
%TO.N,Net-(D11-Pad1)*%
X227330000Y-13970000D03*
%TO.P,U1,5*%
%TO.N,B4*%
X232410000Y-21590000D03*
%TO.P,U1,11*%
%TO.N,+5V*%
X229870000Y-13970000D03*
%TO.P,U1,4*%
%TO.N,GND*%
X229870000Y-21590000D03*
%TO.P,U1,10*%
%TO.N,Net-(Q1-Pad3)*%
X232410000Y-13970000D03*
%TO.P,U1,3*%
%TO.N,B3*%
X227330000Y-21590000D03*
%TO.P,U1,9*%
%TO.N,Net-(Q2-Pad3)*%
X234950000Y-13970000D03*
%TO.P,U1,2*%
%TO.N,B2*%
X224790000Y-21590000D03*
%TO.P,U1,8*%
%TO.N,Net-(U1-Pad6)*%
X237490000Y-13970000D03*
D13*
%TO.P,U1,1*%
%TO.N,B1*%
X222250000Y-21590000D03*
%TD*%
D12*
%TO.P,R31,2*%
%TO.N,Net-(C5-Pad2)*%
X294640000Y-49530000D03*
D14*
%TO.P,R31,1*%
%TO.N,+5V*%
X287020000Y-49530000D03*
%TD*%
D12*
%TO.P,R30,2*%
%TO.N,Net-(C4-Pad2)*%
X278130000Y-15240000D03*
D14*
%TO.P,R30,1*%
%TO.N,+5V*%
X278130000Y-22860000D03*
%TD*%
D12*
%TO.P,R17,2*%
%TO.N,B6*%
X269240000Y-21590000D03*
D14*
%TO.P,R17,1*%
%TO.N,Net-(R17-Pad1)*%
X269240000Y-13970000D03*
%TD*%
D12*
%TO.P,J1,16*%
%TO.N,+5V*%
X308610000Y-3810000D03*
%TO.P,J1,8*%
%TO.N,B7*%
X300990000Y-21590000D03*
%TO.P,J1,15*%
%TO.N,B8*%
X308610000Y-6350000D03*
%TO.P,J1,7*%
%TO.N,B6*%
X300990000Y-19050000D03*
%TO.P,J1,14*%
%TO.N,KP*%
X308610000Y-8890000D03*
%TO.P,J1,6*%
%TO.N,B5*%
X300990000Y-16510000D03*
%TO.P,J1,13*%
%TO.N,Net-(J1-Pad13)*%
X308610000Y-11430000D03*
%TO.P,J1,5*%
%TO.N,B1*%
X300990000Y-13970000D03*
%TO.P,J1,12*%
%TO.N,clear*%
X308610000Y-13970000D03*
%TO.P,J1,4*%
%TO.N,B2*%
X300990000Y-11430000D03*
%TO.P,J1,11*%
%TO.N,Net-(J1-Pad11)*%
X308610000Y-16510000D03*
%TO.P,J1,3*%
%TO.N,B3*%
X300990000Y-8890000D03*
%TO.P,J1,10*%
%TO.N,Net-(J1-Pad10)*%
X308610000Y-19050000D03*
%TO.P,J1,2*%
%TO.N,B4*%
X300990000Y-6350000D03*
%TO.P,J1,9*%
%TO.N,GND*%
X308610000Y-21590000D03*
D13*
%TO.P,J1,1*%
%TO.N,reset*%
X300990000Y-3810000D03*
%TD*%
D14*
%TO.P,C5,2*%
%TO.N,Net-(C5-Pad2)*%
X290790000Y-43180000D03*
%TO.P,C5,1*%
%TO.N,Net-(C5-Pad1)*%
X288290000Y-43180000D03*
%TD*%
%TO.P,C4,2*%
%TO.N,Net-(C4-Pad2)*%
X283250000Y-24130000D03*
%TO.P,C4,1*%
%TO.N,Net-(C4-Pad1)*%
X285750000Y-24130000D03*
%TD*%
%TO.P,C3,2*%
%TO.N,GND*%
X307300000Y-35560000D03*
%TO.P,C3,1*%
%TO.N,~keydown*%
X304800000Y-35560000D03*
%TD*%
D15*
%TO.P,Q4,1*%
%TO.N,+5V*%
X115570000Y-35560000D03*
D16*
%TO.P,Q4,3*%
%TO.N,Net-(Q4-Pad3)*%
X120650000Y-35560000D03*
%TO.P,Q4,2*%
%TO.N,Net-(C2-Pad2)*%
X118110000Y-35560000D03*
%TD*%
D15*
%TO.P,Q3,1*%
%TO.N,Net-(C2-Pad2)*%
X101600000Y-12700000D03*
D16*
%TO.P,Q3,3*%
%TO.N,Net-(Q3-Pad3)*%
X106680000Y-12700000D03*
%TO.P,Q3,2*%
%TO.N,Net-(Q3-Pad2)*%
X104140000Y-12700000D03*
%TD*%
D15*
%TO.P,Q2,1*%
%TO.N,Net-(C2-Pad2)*%
X101600000Y-22860000D03*
D16*
%TO.P,Q2,3*%
%TO.N,Net-(Q2-Pad3)*%
X106680000Y-22860000D03*
%TO.P,Q2,2*%
%TO.N,Net-(Q2-Pad2)*%
X104140000Y-22860000D03*
%TD*%
D15*
%TO.P,Q1,1*%
%TO.N,Net-(C2-Pad2)*%
X101600000Y-33020000D03*
D16*
%TO.P,Q1,3*%
%TO.N,Net-(Q1-Pad3)*%
X106680000Y-33020000D03*
%TO.P,Q1,2*%
%TO.N,Net-(Q1-Pad2)*%
X104140000Y-33020000D03*
%TD*%
D17*
%TO.P,R29,2*%
%TO.N,~keydown*%
X252730000Y-5080000D03*
D18*
%TO.P,R29,1*%
%TO.N,Net-(D29-Pad1)*%
X245110000Y-5080000D03*
%TD*%
D17*
%TO.P,R28,2*%
%TO.N,Net-(R28-Pad2)*%
X320040000Y-77470000D03*
D18*
%TO.P,R28,1*%
%TO.N,Net-(D28-Pad1)*%
X312420000Y-77470000D03*
%TD*%
D17*
%TO.P,R27,2*%
%TO.N,Net-(R27-Pad2)*%
X320040000Y-83820000D03*
D18*
%TO.P,R27,1*%
%TO.N,Net-(D27-Pad1)*%
X312420000Y-83820000D03*
%TD*%
D17*
%TO.P,R26,2*%
%TO.N,Net-(R26-Pad2)*%
X311150000Y-107950000D03*
D18*
%TO.P,R26,1*%
%TO.N,Net-(D26-Pad1)*%
X303530000Y-107950000D03*
%TD*%
D17*
%TO.P,R25,2*%
%TO.N,Net-(R25-Pad2)*%
X311150000Y-115570000D03*
D18*
%TO.P,R25,1*%
%TO.N,Net-(D25-Pad1)*%
X303530000Y-115570000D03*
%TD*%
D17*
%TO.P,R24,2*%
%TO.N,Net-(R24-Pad2)*%
X311150000Y-123190000D03*
D18*
%TO.P,R24,1*%
%TO.N,Net-(D24-Pad1)*%
X303530000Y-123190000D03*
%TD*%
D17*
%TO.P,R23,2*%
%TO.N,Net-(R23-Pad2)*%
X311150000Y-130810000D03*
D18*
%TO.P,R23,1*%
%TO.N,Net-(D23-Pad1)*%
X303530000Y-130810000D03*
%TD*%
D17*
%TO.P,R22,2*%
%TO.N,Net-(R22-Pad2)*%
X311150000Y-138430000D03*
D18*
%TO.P,R22,1*%
%TO.N,Net-(D22-Pad1)*%
X303530000Y-138430000D03*
%TD*%
D17*
%TO.P,R21,2*%
%TO.N,Net-(R21-Pad2)*%
X311150000Y-146050000D03*
D18*
%TO.P,R21,1*%
%TO.N,Net-(D21-Pad1)*%
X303530000Y-146050000D03*
%TD*%
D12*
%TO.P,R20,2*%
%TO.N,GND*%
X213360000Y-36830000D03*
D14*
%TO.P,R20,1*%
%TO.N,clear*%
X205740000Y-36830000D03*
%TD*%
D12*
%TO.P,R19,2*%
%TO.N,reset*%
X203200000Y-27940000D03*
D14*
%TO.P,R19,1*%
%TO.N,+5V*%
X195580000Y-27940000D03*
%TD*%
D12*
%TO.P,R18,2*%
%TO.N,GND*%
X196850000Y-36830000D03*
D14*
%TO.P,R18,1*%
%TO.N,Net-(R18-Pad1)*%
X189230000Y-36830000D03*
%TD*%
D12*
%TO.P,R16,2*%
%TO.N,+5V*%
X185420000Y-27940000D03*
D14*
%TO.P,R16,1*%
%TO.N,Net-(C2-Pad2)*%
X177800000Y-27940000D03*
%TD*%
D12*
%TO.P,R15,2*%
%TO.N,Net-(D2-Pad1)*%
X179070000Y-36830000D03*
D14*
%TO.P,R15,1*%
%TO.N,GND*%
X171450000Y-36830000D03*
%TD*%
D12*
%TO.P,R14,2*%
%TO.N,Net-(JP2-Pad2)*%
X170180000Y-10160000D03*
D14*
%TO.P,R14,1*%
%TO.N,GND*%
X162560000Y-10160000D03*
%TD*%
D12*
%TO.P,R13,2*%
%TO.N,GND*%
X170180000Y-19050000D03*
D14*
%TO.P,R13,1*%
%TO.N,Net-(D3-Pad1)*%
X162560000Y-19050000D03*
%TD*%
D12*
%TO.P,R12,2*%
%TO.N,GND*%
X170180000Y-27940000D03*
D14*
%TO.P,R12,1*%
%TO.N,Net-(D1-Pad1)*%
X162560000Y-27940000D03*
%TD*%
D12*
%TO.P,R11,2*%
%TO.N,GND*%
X153670000Y-10160000D03*
D14*
%TO.P,R11,1*%
%TO.N,Net-(D11-Pad1)*%
X146050000Y-10160000D03*
%TD*%
D12*
%TO.P,R10,2*%
%TO.N,GND*%
X153670000Y-19050000D03*
D14*
%TO.P,R10,1*%
%TO.N,Net-(Q1-Pad3)*%
X146050000Y-19050000D03*
%TD*%
D12*
%TO.P,R9,2*%
%TO.N,GND*%
X153670000Y-27940000D03*
D14*
%TO.P,R9,1*%
%TO.N,Net-(Q2-Pad3)*%
X146050000Y-27940000D03*
%TD*%
D12*
%TO.P,R8,2*%
%TO.N,GND*%
X135890000Y-10160000D03*
D14*
%TO.P,R8,1*%
%TO.N,Net-(Q3-Pad3)*%
X128270000Y-10160000D03*
%TD*%
D12*
%TO.P,R7,2*%
%TO.N,GND*%
X135890000Y-19050000D03*
D14*
%TO.P,R7,1*%
%TO.N,Net-(Q4-Pad3)*%
X128270000Y-19050000D03*
%TD*%
D12*
%TO.P,R6,2*%
%TO.N,Net-(Q3-Pad2)*%
X135890000Y-27940000D03*
D14*
%TO.P,R6,1*%
%TO.N,Net-(C2-Pad2)*%
X128270000Y-27940000D03*
%TD*%
D12*
%TO.P,R5,2*%
%TO.N,Net-(Q2-Pad2)*%
X91440000Y-6350000D03*
D14*
%TO.P,R5,1*%
%TO.N,Net-(C2-Pad2)*%
X83820000Y-6350000D03*
%TD*%
D12*
%TO.P,R4,2*%
%TO.N,Net-(Q1-Pad2)*%
X91440000Y-13970000D03*
D14*
%TO.P,R4,1*%
%TO.N,Net-(C2-Pad2)*%
X83820000Y-13970000D03*
%TD*%
D12*
%TO.P,R3,2*%
%TO.N,Net-(D13-Pad2)*%
X91440000Y-21590000D03*
D14*
%TO.P,R3,1*%
%TO.N,Net-(Q3-Pad2)*%
X83820000Y-21590000D03*
%TD*%
D12*
%TO.P,R2,2*%
%TO.N,Net-(D15-Pad2)*%
X91440000Y-29210000D03*
D14*
%TO.P,R2,1*%
%TO.N,Net-(Q2-Pad2)*%
X83820000Y-29210000D03*
%TD*%
D12*
%TO.P,R1,2*%
%TO.N,Net-(D12-Pad2)*%
X91440000Y-36830000D03*
D14*
%TO.P,R1,1*%
%TO.N,Net-(Q1-Pad2)*%
X83820000Y-36830000D03*
%TD*%
D19*
%TO.P,JP2,2*%
%TO.N,Net-(JP2-Pad2)*%
X270510000Y-6350000D03*
D20*
%TO.P,JP2,1*%
%TO.N,+5V*%
X270510000Y-3810000D03*
%TD*%
D19*
%TO.P,J2,14*%
%TO.N,+5V*%
X223520000Y-2540000D03*
%TO.P,J2,13*%
%TO.N,GND*%
X220980000Y-2540000D03*
%TO.P,J2,12*%
%TO.N,~keydown*%
X218440000Y-2540000D03*
%TO.P,J2,11*%
%TO.N,KP*%
X215900000Y-2540000D03*
%TO.P,J2,10*%
%TO.N,clear*%
X213360000Y-2540000D03*
%TO.P,J2,9*%
%TO.N,reset*%
X210820000Y-2540000D03*
%TO.P,J2,8*%
%TO.N,B1*%
X208280000Y-2540000D03*
%TO.P,J2,7*%
%TO.N,B2*%
X205740000Y-2540000D03*
%TO.P,J2,6*%
%TO.N,B3*%
X203200000Y-2540000D03*
%TO.P,J2,5*%
%TO.N,B4*%
X200660000Y-2540000D03*
%TO.P,J2,4*%
%TO.N,B5*%
X198120000Y-2540000D03*
%TO.P,J2,3*%
%TO.N,B6*%
X195580000Y-2540000D03*
%TO.P,J2,2*%
%TO.N,B7*%
X193040000Y-2540000D03*
D20*
%TO.P,J2,1*%
%TO.N,B8*%
X190500000Y-2540000D03*
%TD*%
D21*
%TO.P,D29,2*%
%TO.N,+5V*%
X233680000Y-2540000D03*
D22*
%TO.P,D29,1*%
%TO.N,Net-(D29-Pad1)*%
X233680000Y-5080000D03*
%TD*%
D21*
%TO.P,D28,2*%
%TO.N,+5V*%
X318770000Y-92710000D03*
D22*
%TO.P,D28,1*%
%TO.N,Net-(D28-Pad1)*%
X316230000Y-92710000D03*
%TD*%
%TO.P,D27,1*%
%TO.N,Net-(D27-Pad1)*%
X316230000Y-100330000D03*
D21*
%TO.P,D27,2*%
%TO.N,+5V*%
X318770000Y-100330000D03*
%TD*%
%TO.P,D26,2*%
%TO.N,+5V*%
X318770000Y-107950000D03*
D22*
%TO.P,D26,1*%
%TO.N,Net-(D26-Pad1)*%
X316230000Y-107950000D03*
%TD*%
D21*
%TO.P,D25,2*%
%TO.N,+5V*%
X318770000Y-115570000D03*
D22*
%TO.P,D25,1*%
%TO.N,Net-(D25-Pad1)*%
X316230000Y-115570000D03*
%TD*%
D21*
%TO.P,D24,2*%
%TO.N,+5V*%
X318770000Y-123190000D03*
D22*
%TO.P,D24,1*%
%TO.N,Net-(D24-Pad1)*%
X316230000Y-123190000D03*
%TD*%
D21*
%TO.P,D23,2*%
%TO.N,+5V*%
X318770000Y-130810000D03*
D22*
%TO.P,D23,1*%
%TO.N,Net-(D23-Pad1)*%
X316230000Y-130810000D03*
%TD*%
D21*
%TO.P,D22,2*%
%TO.N,+5V*%
X318770000Y-138430000D03*
D22*
%TO.P,D22,1*%
%TO.N,Net-(D22-Pad1)*%
X316230000Y-138430000D03*
%TD*%
D21*
%TO.P,D21,2*%
%TO.N,+5V*%
X318770000Y-146050000D03*
D22*
%TO.P,D21,1*%
%TO.N,Net-(D21-Pad1)*%
X316230000Y-146050000D03*
%TD*%
D23*
%TO.P,SW49,2*%
%TO.N,clear*%
X273050000Y-69850000D03*
%TO.P,SW49,1*%
%TO.N,+5V*%
X279400000Y-67310000D03*
%TD*%
%TO.P,SW48,2*%
%TO.N,reset*%
X306070000Y-49530000D03*
%TO.P,SW48,1*%
%TO.N,GND*%
X312420000Y-46990000D03*
%TD*%
%TO.P,SW47,2*%
%TO.N,Net-(D2-Pad1)*%
X24130000Y-91440000D03*
%TO.P,SW47,1*%
%TO.N,+5V*%
X30480000Y-88900000D03*
%TD*%
%TO.P,SW46,2*%
%TO.N,Net-(JP2-Pad2)*%
X39370000Y-113030000D03*
%TO.P,SW46,1*%
%TO.N,+5V*%
X45720000Y-110490000D03*
%TD*%
%TO.P,SW45,2*%
%TO.N,Net-(D1-Pad2)*%
X280670000Y-91440000D03*
%TO.P,SW45,1*%
%TO.N,Net-(D13-Pad2)*%
X287020000Y-88900000D03*
%TD*%
%TO.P,SW44,2*%
%TO.N,Net-(R18-Pad1)*%
X259080000Y-113030000D03*
%TO.P,SW44,1*%
%TO.N,Net-(D15-Pad2)*%
X265430000Y-110490000D03*
%TD*%
%TO.P,SW43,2*%
%TO.N,Net-(R18-Pad1)*%
X163830000Y-49530000D03*
%TO.P,SW43,1*%
%TO.N,Net-(D19-Pad1)*%
X170180000Y-46990000D03*
%TD*%
%TO.P,SW42,2*%
%TO.N,Net-(R18-Pad1)*%
X69850000Y-69850000D03*
%TO.P,SW42,1*%
%TO.N,Net-(D14-Pad1)*%
X76200000Y-67310000D03*
%TD*%
%TO.P,SW41,2*%
%TO.N,Net-(R18-Pad1)*%
X212090000Y-69850000D03*
%TO.P,SW41,1*%
%TO.N,Net-(D13-Pad2)*%
X218440000Y-67310000D03*
%TD*%
%TO.P,SW40,2*%
%TO.N,Net-(R18-Pad1)*%
X142240000Y-91440000D03*
%TO.P,SW40,1*%
%TO.N,Net-(D12-Pad1)*%
X148590000Y-88900000D03*
%TD*%
%TO.P,SW39,2*%
%TO.N,Net-(D3-Pad1)*%
X238760000Y-113030000D03*
%TO.P,SW39,1*%
%TO.N,Net-(D15-Pad2)*%
X245110000Y-110490000D03*
%TD*%
%TO.P,SW38,2*%
%TO.N,Net-(D3-Pad1)*%
X143510000Y-49530000D03*
%TO.P,SW38,1*%
%TO.N,Net-(D19-Pad1)*%
X149860000Y-46990000D03*
%TD*%
%TO.P,SW37,2*%
%TO.N,Net-(D3-Pad1)*%
X252730000Y-69850000D03*
%TO.P,SW37,1*%
%TO.N,Net-(D17-Pad1)*%
X259080000Y-67310000D03*
%TD*%
%TO.P,SW36,2*%
%TO.N,Net-(D3-Pad1)*%
X137160000Y-113030000D03*
%TO.P,SW36,1*%
%TO.N,Net-(D14-Pad1)*%
X143510000Y-110490000D03*
%TD*%
%TO.P,SW35,2*%
%TO.N,Net-(D3-Pad1)*%
X177800000Y-113030000D03*
%TO.P,SW35,1*%
%TO.N,Net-(D13-Pad2)*%
X184150000Y-110490000D03*
%TD*%
%TO.P,SW34,2*%
%TO.N,Net-(D3-Pad1)*%
X121920000Y-91440000D03*
%TO.P,SW34,1*%
%TO.N,Net-(D12-Pad1)*%
X128270000Y-88900000D03*
%TD*%
%TO.P,SW33,2*%
%TO.N,Net-(D1-Pad1)*%
X265430000Y-49530000D03*
%TO.P,SW33,1*%
%TO.N,Net-(D15-Pad2)*%
X271780000Y-46990000D03*
%TD*%
%TO.P,SW32,2*%
%TO.N,Net-(D1-Pad1)*%
X123190000Y-49530000D03*
%TO.P,SW32,1*%
%TO.N,Net-(D19-Pad1)*%
X129540000Y-46990000D03*
%TD*%
%TO.P,SW31,2*%
%TO.N,Net-(D1-Pad1)*%
X171450000Y-69850000D03*
%TO.P,SW31,1*%
%TO.N,Net-(D14-Pad1)*%
X177800000Y-67310000D03*
%TD*%
%TO.P,SW30,2*%
%TO.N,Net-(D1-Pad1)*%
X198120000Y-113030000D03*
%TO.P,SW30,1*%
%TO.N,Net-(D13-Pad2)*%
X204470000Y-110490000D03*
%TD*%
%TO.P,SW29,2*%
%TO.N,Net-(D1-Pad1)*%
X90170000Y-69850000D03*
%TO.P,SW29,1*%
%TO.N,Net-(D12-Pad1)*%
X96520000Y-67310000D03*
%TD*%
%TO.P,SW28,2*%
%TO.N,Net-(D3-Pad2)*%
X218440000Y-113030000D03*
%TO.P,SW28,1*%
%TO.N,Net-(D15-Pad2)*%
X224790000Y-110490000D03*
%TD*%
%TO.P,SW27,2*%
%TO.N,Net-(D3-Pad2)*%
X102870000Y-49530000D03*
%TO.P,SW27,1*%
%TO.N,Net-(D19-Pad1)*%
X109220000Y-46990000D03*
%TD*%
%TO.P,SW26,2*%
%TO.N,Net-(D3-Pad2)*%
X130810000Y-69850000D03*
%TO.P,SW26,1*%
%TO.N,Net-(D14-Pad1)*%
X137160000Y-67310000D03*
%TD*%
%TO.P,SW25,2*%
%TO.N,Net-(D3-Pad2)*%
X223520000Y-91440000D03*
%TO.P,SW25,1*%
%TO.N,Net-(D13-Pad2)*%
X229870000Y-88900000D03*
%TD*%
%TO.P,SW24,2*%
%TO.N,Net-(D3-Pad2)*%
X101600000Y-91440000D03*
%TO.P,SW24,1*%
%TO.N,Net-(D12-Pad1)*%
X107950000Y-88900000D03*
%TD*%
%TO.P,SW23,2*%
%TO.N,Net-(D11-Pad1)*%
X243840000Y-91440000D03*
%TO.P,SW23,1*%
%TO.N,Net-(D15-Pad2)*%
X250190000Y-88900000D03*
%TD*%
%TO.P,SW22,2*%
%TO.N,Net-(D11-Pad1)*%
X82550000Y-49530000D03*
%TO.P,SW22,1*%
%TO.N,Net-(D19-Pad1)*%
X88900000Y-46990000D03*
%TD*%
%TO.P,SW21,2*%
%TO.N,Net-(D11-Pad1)*%
X81280000Y-91440000D03*
%TO.P,SW21,1*%
%TO.N,Net-(D14-Pad1)*%
X87630000Y-88900000D03*
%TD*%
%TO.P,SW20,2*%
%TO.N,Net-(D11-Pad1)*%
X203200000Y-91440000D03*
%TO.P,SW20,1*%
%TO.N,Net-(D13-Pad2)*%
X209550000Y-88900000D03*
%TD*%
%TO.P,SW19,2*%
%TO.N,Net-(D11-Pad1)*%
X116840000Y-113030000D03*
%TO.P,SW19,1*%
%TO.N,Net-(D12-Pad1)*%
X123190000Y-110490000D03*
%TD*%
%TO.P,SW18,2*%
%TO.N,Net-(D5-Pad2)*%
X245110000Y-49530000D03*
%TO.P,SW18,1*%
%TO.N,Net-(D15-Pad2)*%
X251460000Y-46990000D03*
%TD*%
%TO.P,SW17,2*%
%TO.N,Net-(D5-Pad2)*%
X62230000Y-49530000D03*
%TO.P,SW17,1*%
%TO.N,Net-(D19-Pad1)*%
X68580000Y-46990000D03*
%TD*%
%TO.P,SW16,2*%
%TO.N,Net-(D5-Pad2)*%
X76200000Y-113030000D03*
%TO.P,SW16,1*%
%TO.N,Net-(D17-Pad1)*%
X82550000Y-110490000D03*
%TD*%
%TO.P,SW15,2*%
%TO.N,Net-(D5-Pad2)*%
X110490000Y-69850000D03*
%TO.P,SW15,1*%
%TO.N,Net-(D14-Pad1)*%
X116840000Y-67310000D03*
%TD*%
%TO.P,SW14,2*%
%TO.N,Net-(D5-Pad2)*%
X182880000Y-91440000D03*
%TO.P,SW14,1*%
%TO.N,Net-(D13-Pad2)*%
X189230000Y-88900000D03*
%TD*%
%TO.P,SW13,2*%
%TO.N,Net-(D5-Pad2)*%
X157480000Y-113030000D03*
%TO.P,SW13,1*%
%TO.N,Net-(D12-Pad1)*%
X163830000Y-110490000D03*
%TD*%
%TO.P,SW12,2*%
%TO.N,Net-(D7-Pad2)*%
X204470000Y-49530000D03*
%TO.P,SW12,1*%
%TO.N,Net-(D15-Pad2)*%
X210820000Y-46990000D03*
%TD*%
%TO.P,SW11,2*%
%TO.N,Net-(D7-Pad2)*%
X41910000Y-49530000D03*
%TO.P,SW11,1*%
%TO.N,Net-(D19-Pad1)*%
X48260000Y-46990000D03*
%TD*%
%TO.P,SW10,2*%
%TO.N,Net-(D7-Pad2)*%
X151130000Y-69850000D03*
%TO.P,SW10,1*%
%TO.N,Net-(D17-Pad1)*%
X157480000Y-67310000D03*
%TD*%
%TO.P,SW9,2*%
%TO.N,Net-(D7-Pad2)*%
X49530000Y-69850000D03*
%TO.P,SW9,1*%
%TO.N,Net-(D14-Pad1)*%
X55880000Y-67310000D03*
%TD*%
%TO.P,SW8,2*%
%TO.N,Net-(D7-Pad2)*%
X191770000Y-69850000D03*
%TO.P,SW8,1*%
%TO.N,Net-(D13-Pad2)*%
X198120000Y-67310000D03*
%TD*%
%TO.P,SW7,2*%
%TO.N,Net-(D7-Pad2)*%
X60960000Y-91440000D03*
%TO.P,SW7,1*%
%TO.N,Net-(D12-Pad1)*%
X67310000Y-88900000D03*
%TD*%
%TO.P,SW6,2*%
%TO.N,Net-(D10-Pad2)*%
X184150000Y-49530000D03*
%TO.P,SW6,1*%
%TO.N,Net-(D15-Pad2)*%
X190500000Y-46990000D03*
%TD*%
%TO.P,SW5,2*%
%TO.N,Net-(D10-Pad2)*%
X224790000Y-49530000D03*
%TO.P,SW5,1*%
%TO.N,Net-(D19-Pad1)*%
X231140000Y-46990000D03*
%TD*%
%TO.P,SW4,2*%
%TO.N,Net-(D10-Pad2)*%
X96520000Y-113030000D03*
%TO.P,SW4,1*%
%TO.N,Net-(D17-Pad1)*%
X102870000Y-110490000D03*
%TD*%
%TO.P,SW3,2*%
%TO.N,Net-(D10-Pad2)*%
X232410000Y-69850000D03*
%TO.P,SW3,1*%
%TO.N,Net-(D14-Pad1)*%
X238760000Y-67310000D03*
%TD*%
%TO.P,SW2,2*%
%TO.N,Net-(D10-Pad2)*%
X162560000Y-91440000D03*
%TO.P,SW2,1*%
%TO.N,Net-(D13-Pad2)*%
X168910000Y-88900000D03*
%TD*%
%TO.P,SW1,2*%
%TO.N,Net-(D10-Pad2)*%
X146050000Y-135890000D03*
%TO.P,SW1,1*%
%TO.N,Net-(D12-Pad2)*%
X152400000Y-133350000D03*
%TD*%
D19*
%TO.P,JP1,3*%
%TO.N,+5V*%
X284480000Y-8890000D03*
%TO.P,JP1,2*%
%TO.N,B8*%
X284480000Y-6350000D03*
D20*
%TO.P,JP1,1*%
%TO.N,GND*%
X284480000Y-3810000D03*
%TD*%
D12*
%TO.P,D20,2*%
%TO.N,Net-(D15-Pad2)*%
X71120000Y-12700000D03*
D13*
%TO.P,D20,1*%
%TO.N,Net-(D19-Pad1)*%
X63500000Y-12700000D03*
%TD*%
D12*
%TO.P,D19,2*%
%TO.N,Net-(D12-Pad2)*%
X71120000Y-21590000D03*
D13*
%TO.P,D19,1*%
%TO.N,Net-(D19-Pad1)*%
X63500000Y-21590000D03*
%TD*%
D12*
%TO.P,D18,2*%
%TO.N,Net-(D13-Pad2)*%
X71120000Y-29210000D03*
D13*
%TO.P,D18,1*%
%TO.N,Net-(D17-Pad1)*%
X63500000Y-29210000D03*
%TD*%
D12*
%TO.P,D17,2*%
%TO.N,Net-(D15-Pad2)*%
X71120000Y-36830000D03*
D13*
%TO.P,D17,1*%
%TO.N,Net-(D17-Pad1)*%
X63500000Y-36830000D03*
%TD*%
D12*
%TO.P,D16,2*%
%TO.N,Net-(D13-Pad2)*%
X50800000Y-5080000D03*
D13*
%TO.P,D16,1*%
%TO.N,Net-(D14-Pad1)*%
X43180000Y-5080000D03*
%TD*%
D12*
%TO.P,D15,2*%
%TO.N,Net-(D15-Pad2)*%
X50800000Y-12700000D03*
D13*
%TO.P,D15,1*%
%TO.N,Net-(D14-Pad1)*%
X43180000Y-12700000D03*
%TD*%
D12*
%TO.P,D14,2*%
%TO.N,Net-(D12-Pad2)*%
X50800000Y-21590000D03*
D13*
%TO.P,D14,1*%
%TO.N,Net-(D14-Pad1)*%
X43180000Y-21590000D03*
%TD*%
D12*
%TO.P,D13,2*%
%TO.N,Net-(D13-Pad2)*%
X50800000Y-29210000D03*
D13*
%TO.P,D13,1*%
%TO.N,Net-(D12-Pad1)*%
X43180000Y-29210000D03*
%TD*%
D12*
%TO.P,D12,2*%
%TO.N,Net-(D12-Pad2)*%
X50800000Y-36830000D03*
D13*
%TO.P,D12,1*%
%TO.N,Net-(D12-Pad1)*%
X43180000Y-36830000D03*
%TD*%
D12*
%TO.P,D11,2*%
%TO.N,Net-(D10-Pad2)*%
X30480000Y-12700000D03*
D13*
%TO.P,D11,1*%
%TO.N,Net-(D11-Pad1)*%
X22860000Y-12700000D03*
%TD*%
D12*
%TO.P,D10,2*%
%TO.N,Net-(D10-Pad2)*%
X30480000Y-20320000D03*
D13*
%TO.P,D10,1*%
%TO.N,Net-(D1-Pad1)*%
X22860000Y-20320000D03*
%TD*%
D12*
%TO.P,D9,2*%
%TO.N,Net-(D10-Pad2)*%
X30480000Y-29210000D03*
D13*
%TO.P,D9,1*%
%TO.N,Net-(D3-Pad1)*%
X22860000Y-29210000D03*
%TD*%
D12*
%TO.P,D8,2*%
%TO.N,Net-(D7-Pad2)*%
X30480000Y-36830000D03*
D13*
%TO.P,D8,1*%
%TO.N,Net-(D11-Pad1)*%
X22860000Y-36830000D03*
%TD*%
D12*
%TO.P,D7,2*%
%TO.N,Net-(D7-Pad2)*%
X11430000Y-5080000D03*
D13*
%TO.P,D7,1*%
%TO.N,Net-(D1-Pad1)*%
X3810000Y-5080000D03*
%TD*%
D12*
%TO.P,D6,2*%
%TO.N,Net-(D5-Pad2)*%
X11430000Y-12700000D03*
D13*
%TO.P,D6,1*%
%TO.N,Net-(D11-Pad1)*%
X3810000Y-12700000D03*
%TD*%
D12*
%TO.P,D5,2*%
%TO.N,Net-(D5-Pad2)*%
X11430000Y-21590000D03*
D13*
%TO.P,D5,1*%
%TO.N,Net-(D3-Pad1)*%
X3810000Y-21590000D03*
%TD*%
D12*
%TO.P,D4,2*%
%TO.N,Net-(D3-Pad2)*%
X11430000Y-29210000D03*
D13*
%TO.P,D4,1*%
%TO.N,Net-(D1-Pad1)*%
X3810000Y-29210000D03*
%TD*%
D12*
%TO.P,D3,2*%
%TO.N,Net-(D3-Pad2)*%
X11430000Y-36830000D03*
D13*
%TO.P,D3,1*%
%TO.N,Net-(D3-Pad1)*%
X3810000Y-36830000D03*
%TD*%
D12*
%TO.P,D2,2*%
%TO.N,Net-(D1-Pad2)*%
X158750000Y-36830000D03*
D13*
%TO.P,D2,1*%
%TO.N,Net-(D2-Pad1)*%
X151130000Y-36830000D03*
%TD*%
D12*
%TO.P,D1,2*%
%TO.N,Net-(D1-Pad2)*%
X139700000Y-36830000D03*
D13*
%TO.P,D1,1*%
%TO.N,Net-(D1-Pad1)*%
X132080000Y-36830000D03*
%TD*%
D12*
%TO.P,C2,2*%
%TO.N,Net-(C2-Pad2)*%
X116840000Y-6590000D03*
D14*
%TO.P,C2,1*%
%TO.N,+5V*%
X116840000Y-21590000D03*
%TD*%
%TO.P,C1,2*%
%TO.N,+5V*%
X313650000Y-27940000D03*
%TO.P,C1,1*%
%TO.N,GND*%
X311150000Y-27940000D03*
%TD*%
D24*
%TO.N,+5V*%
X241461700Y-31518900D03*
X48796100Y-74245300D03*
X114294400Y-47607200D03*
X278978900Y-48333200D03*
%TO.N,GND*%
X261969800Y-31796500D03*
X263901300Y-35616100D03*
%TO.N,Net-(D1-Pad1)*%
X186181400Y-88499300D03*
X163226900Y-70309200D03*
%TO.N,Net-(D2-Pad1)*%
X215575900Y-19766200D03*
X125116300Y-47146400D03*
%TO.N,Net-(D3-Pad2)*%
X115734900Y-91440000D03*
%TO.N,Net-(D3-Pad1)*%
X247543300Y-88499500D03*
X108690800Y-44810400D03*
%TO.N,Net-(D5-Pad2)*%
X214839700Y-64178400D03*
X160865500Y-112092500D03*
X109055800Y-111586500D03*
%TO.N,Net-(D11-Pad1)*%
X215713500Y-10254800D03*
X199810900Y-10152900D03*
X143861800Y-95644900D03*
X72107200Y-27310500D03*
X103075800Y-89464600D03*
%TO.N,Net-(D10-Pad2)*%
X226649100Y-60137500D03*
%TO.N,Net-(D12-Pad1)*%
X96457900Y-87452000D03*
%TO.N,Net-(D13-Pad2)*%
X147887100Y-72954500D03*
%TO.N,Net-(D14-Pad1)*%
X95757500Y-63186200D03*
%TO.N,Net-(D15-Pad2)*%
X182490200Y-39937400D03*
X76274100Y-32503400D03*
%TO.N,Net-(D17-Pad1)*%
X98736800Y-70380500D03*
%TO.N,B7*%
X259606600Y-34627900D03*
%TO.N,B6*%
X245560300Y-26330200D03*
%TO.N,B5*%
X228787200Y-17614900D03*
X235161300Y-18817000D03*
X249946900Y-25136100D03*
%TO.N,B1*%
X221124700Y-25144600D03*
X217817000Y-14159700D03*
X212257600Y-7299700D03*
%TO.N,clear*%
X263992000Y-44967500D03*
%TO.N,B2*%
X227089700Y-26254800D03*
X224649000Y-17481200D03*
X208096100Y-7299700D03*
%TO.N,B3*%
X225709200Y-11450500D03*
%TO.N,B4*%
X234682000Y-27005100D03*
X226723100Y-15820500D03*
%TO.N,Net-(Q3-Pad3)*%
X255044600Y-24133300D03*
%TO.N,Net-(R18-Pad1)*%
X184323600Y-38959300D03*
X84504200Y-90325400D03*
X153721200Y-84801500D03*
%TO.N,Net-(Q1-Pad3)*%
X208856100Y-19313800D03*
%TO.N,Net-(Q2-Pad3)*%
X201578200Y-24512100D03*
%TO.N,B8*%
X262858500Y-38399400D03*
%TO.N,Net-(JP2-Pad2)*%
X193189700Y-5821500D03*
X121503700Y-53905500D03*
%TO.N,~keydown*%
X263719500Y-32098400D03*
%TO.N,Net-(Q4-Pad3)*%
X128902300Y-21422200D03*
%TO.N,Net-(R26-Pad2)*%
X283462900Y-90984300D03*
%TO.N,Net-(U1-Pad6)*%
X234659200Y-17429700D03*
%TD*%
D25*
%TO.N,+5V*%
X114294400Y-47607200D02*
X114294400Y-47805400D01*
X114294400Y-47805400D02*
X104786400Y-57313400D01*
X104786400Y-57313400D02*
X102656200Y-57313400D01*
X102656200Y-57313400D02*
X95062100Y-64907500D01*
X95062100Y-64907500D02*
X81002700Y-64907500D01*
X81002700Y-64907500D02*
X76952800Y-68957400D01*
X76952800Y-68957400D02*
X73652600Y-68957400D01*
X73652600Y-68957400D02*
X71334600Y-71275400D01*
X71334600Y-71275400D02*
X69193700Y-71275400D01*
X69193700Y-71275400D02*
X69097700Y-71179400D01*
X69097700Y-71179400D02*
X63209400Y-71179400D01*
X63209400Y-71179400D02*
X59668800Y-74720000D01*
X59668800Y-74720000D02*
X49270800Y-74720000D01*
X49270800Y-74720000D02*
X48796100Y-74245300D01*
X288290000Y-29210000D02*
X289415300Y-29210000D01*
X313650000Y-27940000D02*
X312494500Y-26784500D01*
X312494500Y-26784500D02*
X310714000Y-26784500D01*
X310714000Y-26784500D02*
X309413800Y-28084700D01*
X309413800Y-28084700D02*
X290259200Y-28084700D01*
X290259200Y-28084700D02*
X289415300Y-28928600D01*
X289415300Y-28928600D02*
X289415300Y-29210000D01*
X279400000Y-67310000D02*
X293370000Y-67310000D01*
X293370000Y-67310000D02*
X318770000Y-92710000D01*
X222250000Y-29210000D02*
X224558900Y-31518900D01*
X224558900Y-31518900D02*
X241461700Y-31518900D01*
X233680000Y-2540000D02*
X223520000Y-2540000D01*
X195580000Y-27940000D02*
X199774500Y-23745500D01*
X199774500Y-23745500D02*
X201841800Y-23745500D01*
X201841800Y-23745500D02*
X202311800Y-24215500D01*
X202311800Y-24215500D02*
X202311800Y-26018000D01*
X202311800Y-26018000D02*
X202070000Y-26259800D01*
X202070000Y-26259800D02*
X202070000Y-28431200D01*
X202070000Y-28431200D02*
X202848800Y-29210000D01*
X202848800Y-29210000D02*
X222250000Y-29210000D01*
X185420000Y-27940000D02*
X195580000Y-27940000D01*
X288290000Y-29210000D02*
X287164700Y-29210000D01*
X275027400Y-29210000D02*
X276152700Y-28084700D01*
X276152700Y-28084700D02*
X286320800Y-28084700D01*
X286320800Y-28084700D02*
X287164700Y-28928600D01*
X287164700Y-28928600D02*
X287164700Y-29210000D01*
X275027400Y-29210000D02*
X274464700Y-29210000D01*
X275590000Y-29210000D02*
X275027400Y-29210000D01*
X274464700Y-29210000D02*
X272889000Y-27634300D01*
X272889000Y-27634300D02*
X248799700Y-27634300D01*
X248799700Y-27634300D02*
X247505300Y-28928700D01*
X247505300Y-28928700D02*
X247505300Y-29210000D01*
X278978900Y-48333200D02*
X285823200Y-48333200D01*
X285823200Y-48333200D02*
X287020000Y-49530000D01*
X185420000Y-27940000D02*
X184294700Y-27940000D01*
X184294700Y-27940000D02*
X178764300Y-22409600D01*
X178764300Y-22409600D02*
X117659600Y-22409600D01*
X117659600Y-22409600D02*
X116840000Y-21590000D01*
X246380000Y-29210000D02*
X247505300Y-29210000D01*
%TO.N,GND*%
X263901300Y-35616100D02*
X261969800Y-33684600D01*
X261969800Y-33684600D02*
X261969800Y-31796500D01*
X306215000Y-36830000D02*
X306215000Y-40785000D01*
X306215000Y-40785000D02*
X312420000Y-46990000D01*
X307300000Y-35560000D02*
X306215000Y-36645000D01*
X306215000Y-36645000D02*
X306215000Y-36830000D01*
X306215000Y-36830000D02*
X293370000Y-36830000D01*
X275590000Y-36830000D02*
X274464700Y-36830000D01*
X274464700Y-36830000D02*
X274014400Y-36379700D01*
X274014400Y-36379700D02*
X264664900Y-36379700D01*
X264664900Y-36379700D02*
X263901300Y-35616100D01*
X293370000Y-36830000D02*
X292244700Y-36830000D01*
X292244700Y-36830000D02*
X292244700Y-36548700D01*
X292244700Y-36548700D02*
X291352100Y-35656100D01*
X291352100Y-35656100D02*
X287819500Y-35656100D01*
X287819500Y-35656100D02*
X287020000Y-36455600D01*
X287020000Y-36455600D02*
X287020000Y-37233100D01*
X287020000Y-37233100D02*
X286297800Y-37955300D01*
X286297800Y-37955300D02*
X277559200Y-37955300D01*
X277559200Y-37955300D02*
X276715300Y-37111400D01*
X276715300Y-37111400D02*
X276715300Y-36830000D01*
X275590000Y-36830000D02*
X276715300Y-36830000D01*
X229870000Y-21590000D02*
X230995300Y-21590000D01*
X172575300Y-35704700D02*
X194599400Y-35704700D01*
X194599400Y-35704700D02*
X195724700Y-36830000D01*
X171450000Y-36830000D02*
X172575300Y-35704700D01*
X172575300Y-35704700D02*
X170180000Y-33309400D01*
X170180000Y-33309400D02*
X170180000Y-27940000D01*
X153670000Y-19050000D02*
X154795300Y-19050000D01*
X170180000Y-19050000D02*
X169054700Y-19050000D01*
X169054700Y-19050000D02*
X167929400Y-17924700D01*
X167929400Y-17924700D02*
X155920600Y-17924700D01*
X155920600Y-17924700D02*
X154795300Y-19050000D01*
X213360000Y-36830000D02*
X214485300Y-36830000D01*
X237490000Y-36830000D02*
X236364700Y-36830000D01*
X236364700Y-36830000D02*
X236364700Y-36548700D01*
X236364700Y-36548700D02*
X235520700Y-35704700D01*
X235520700Y-35704700D02*
X215610600Y-35704700D01*
X215610600Y-35704700D02*
X214485300Y-36830000D01*
X252874700Y-21590000D02*
X252874700Y-21785300D01*
X252874700Y-21785300D02*
X251944700Y-22715300D01*
X251944700Y-22715300D02*
X231839200Y-22715300D01*
X231839200Y-22715300D02*
X230995300Y-21871400D01*
X230995300Y-21871400D02*
X230995300Y-21590000D01*
X254000000Y-21590000D02*
X252874700Y-21590000D01*
X212797400Y-36830000D02*
X213360000Y-36830000D01*
X212797400Y-36830000D02*
X212234700Y-36830000D01*
X196850000Y-36830000D02*
X197975300Y-36830000D01*
X197975300Y-36830000D02*
X199100600Y-37955300D01*
X199100600Y-37955300D02*
X211109400Y-37955300D01*
X211109400Y-37955300D02*
X212234700Y-36830000D01*
X196287400Y-36830000D02*
X196850000Y-36830000D01*
X196287400Y-36830000D02*
X195724700Y-36830000D01*
X153670000Y-10160000D02*
X162560000Y-10160000D01*
%TO.N,Net-(C2-Pad2)*%
X128270000Y-27940000D02*
X129402100Y-29072100D01*
X129402100Y-29072100D02*
X149208400Y-29072100D01*
X149208400Y-29072100D02*
X151479400Y-26801100D01*
X151479400Y-26801100D02*
X176661100Y-26801100D01*
X176661100Y-26801100D02*
X177800000Y-27940000D01*
X85090000Y-12700000D02*
X83820000Y-13970000D01*
X101600000Y-12700000D02*
X85090000Y-12700000D01*
X85090000Y-12700000D02*
X85090000Y-7620000D01*
X85090000Y-7620000D02*
X83820000Y-6350000D01*
X101600000Y-33020000D02*
X102675300Y-33020000D01*
X102675300Y-33020000D02*
X102675300Y-33154500D01*
X102675300Y-33154500D02*
X103616100Y-34095300D01*
X103616100Y-34095300D02*
X116645300Y-34095300D01*
X116645300Y-34095300D02*
X118110000Y-35560000D01*
%TO.N,Net-(D1-Pad2)*%
X158750000Y-36830000D02*
X157624700Y-36830000D01*
X139700000Y-36830000D02*
X140825300Y-36830000D01*
X140825300Y-36830000D02*
X141950600Y-35704700D01*
X141950600Y-35704700D02*
X156499400Y-35704700D01*
X156499400Y-35704700D02*
X157624700Y-36830000D01*
%TO.N,Net-(D1-Pad1)*%
X170990800Y-70309200D02*
X171450000Y-69850000D01*
X163226900Y-70309200D02*
X170990800Y-70309200D01*
X170990800Y-70309200D02*
X172150400Y-71468800D01*
X172150400Y-71468800D02*
X172150400Y-74468300D01*
X172150400Y-74468300D02*
X186181400Y-88499300D01*
X132080000Y-36830000D02*
X133205300Y-36830000D01*
X133205300Y-36830000D02*
X137630900Y-32404400D01*
X137630900Y-32404400D02*
X158095600Y-32404400D01*
X158095600Y-32404400D02*
X162560000Y-27940000D01*
X90170000Y-69850000D02*
X91393400Y-69850000D01*
X91393400Y-69850000D02*
X98946500Y-62296900D01*
X98946500Y-62296900D02*
X108527300Y-62296900D01*
X108527300Y-62296900D02*
X121294200Y-49530000D01*
X121294200Y-49530000D02*
X123190000Y-49530000D01*
%TO.N,Net-(D2-Pad1)*%
X251460000Y-13970000D02*
X250334700Y-13970000D01*
X215575900Y-19766200D02*
X244819900Y-19766200D01*
X244819900Y-19766200D02*
X250334700Y-14251400D01*
X250334700Y-14251400D02*
X250334700Y-13970000D01*
X125116300Y-47146400D02*
X124930400Y-47332300D01*
X124930400Y-47332300D02*
X119919200Y-47332300D01*
X119919200Y-47332300D02*
X109487700Y-57763800D01*
X109487700Y-57763800D02*
X102842700Y-57763800D01*
X102842700Y-57763800D02*
X92836700Y-67769800D01*
X92836700Y-67769800D02*
X85729700Y-67769800D01*
X85729700Y-67769800D02*
X78329100Y-75170400D01*
X78329100Y-75170400D02*
X40399600Y-75170400D01*
X40399600Y-75170400D02*
X24130000Y-91440000D01*
X251460000Y-13970000D02*
X252585300Y-13970000D01*
X252585300Y-13970000D02*
X252585300Y-13688600D01*
X252585300Y-13688600D02*
X253429200Y-12844700D01*
X253429200Y-12844700D02*
X254570800Y-12844700D01*
X254570800Y-12844700D02*
X255414700Y-13688600D01*
X255414700Y-13688600D02*
X255414700Y-13970000D01*
X256540000Y-13970000D02*
X255414700Y-13970000D01*
X179070000Y-36830000D02*
X177944700Y-36830000D01*
X151130000Y-36830000D02*
X152255300Y-36830000D01*
X152255300Y-36830000D02*
X153380600Y-37955300D01*
X153380600Y-37955300D02*
X176819400Y-37955300D01*
X176819400Y-37955300D02*
X177944700Y-36830000D01*
%TO.N,Net-(D3-Pad2)*%
X115734900Y-91440000D02*
X121058800Y-96763900D01*
X121058800Y-96763900D02*
X196204200Y-96763900D01*
X196204200Y-96763900D02*
X200229200Y-92738900D01*
X200229200Y-92738900D02*
X202351200Y-92738900D01*
X202351200Y-92738900D02*
X202506600Y-92894300D01*
X202506600Y-92894300D02*
X204309400Y-92894300D01*
X204309400Y-92894300D02*
X205763700Y-91440000D01*
X205763700Y-91440000D02*
X223520000Y-91440000D01*
X12555300Y-36830000D02*
X15218100Y-39492800D01*
X15218100Y-39492800D02*
X92832800Y-39492800D01*
X92832800Y-39492800D02*
X102870000Y-49530000D01*
X101600000Y-91440000D02*
X115734900Y-91440000D01*
X11430000Y-36830000D02*
X12555300Y-36830000D01*
%TO.N,Net-(D3-Pad1)*%
X252730000Y-69850000D02*
X252730000Y-83312800D01*
X252730000Y-83312800D02*
X247543300Y-88499500D01*
X177800000Y-113030000D02*
X195972300Y-113030000D01*
X195972300Y-113030000D02*
X197439700Y-114497400D01*
X197439700Y-114497400D02*
X199097700Y-114497400D01*
X199097700Y-114497400D02*
X200350500Y-113244600D01*
X200350500Y-113244600D02*
X213046700Y-113244600D01*
X213046700Y-113244600D02*
X214713900Y-111577400D01*
X214713900Y-111577400D02*
X223432300Y-111577400D01*
X223432300Y-111577400D02*
X224884900Y-113030000D01*
X224884900Y-113030000D02*
X238760000Y-113030000D01*
X137160000Y-113030000D02*
X155365200Y-113030000D01*
X155365200Y-113030000D02*
X160237100Y-117901900D01*
X160237100Y-117901900D02*
X168835000Y-117901900D01*
X168835000Y-117901900D02*
X173706900Y-113030000D01*
X173706900Y-113030000D02*
X177800000Y-113030000D01*
X143510000Y-49530000D02*
X138790400Y-44810400D01*
X138790400Y-44810400D02*
X108690800Y-44810400D01*
X108690800Y-44810400D02*
X99375300Y-44810400D01*
X99375300Y-44810400D02*
X92520300Y-37955400D01*
X92520300Y-37955400D02*
X78500300Y-37955400D01*
X78500300Y-37955400D02*
X75422200Y-34877300D01*
X75422200Y-34877300D02*
X28077300Y-34877300D01*
X28077300Y-34877300D02*
X22410000Y-29210000D01*
X22410000Y-29210000D02*
X21734700Y-29210000D01*
X22860000Y-29210000D02*
X22410000Y-29210000D01*
X7732600Y-30372400D02*
X7732600Y-26637900D01*
X7732600Y-26637900D02*
X3810000Y-22715300D01*
X4935300Y-36830000D02*
X7732600Y-34032700D01*
X7732600Y-34032700D02*
X7732600Y-30372400D01*
X7732600Y-30372400D02*
X20572300Y-30372400D01*
X20572300Y-30372400D02*
X21734700Y-29210000D01*
X3810000Y-21590000D02*
X3810000Y-22715300D01*
X3810000Y-36830000D02*
X4935300Y-36830000D01*
%TO.N,Net-(D5-Pad2)*%
X214839700Y-64178400D02*
X228052000Y-64178400D01*
X228052000Y-64178400D02*
X242700400Y-49530000D01*
X242700400Y-49530000D02*
X245110000Y-49530000D01*
X160865500Y-112092500D02*
X158417500Y-112092500D01*
X158417500Y-112092500D02*
X157480000Y-113030000D01*
X109055800Y-111586500D02*
X122134300Y-111586500D01*
X122134300Y-111586500D02*
X122486900Y-111939100D01*
X122486900Y-111939100D02*
X124280900Y-111939100D01*
X124280900Y-111939100D02*
X124642200Y-111577800D01*
X124642200Y-111577800D02*
X138981300Y-111577800D01*
X138981300Y-111577800D02*
X139811000Y-112407500D01*
X139811000Y-112407500D02*
X156857500Y-112407500D01*
X156857500Y-112407500D02*
X157480000Y-113030000D01*
X76200000Y-113030000D02*
X83503400Y-113030000D01*
X83503400Y-113030000D02*
X84969000Y-111564400D01*
X84969000Y-111564400D02*
X101404400Y-111564400D01*
X101404400Y-111564400D02*
X101803400Y-111963400D01*
X101803400Y-111963400D02*
X108678900Y-111963400D01*
X108678900Y-111963400D02*
X109055800Y-111586500D01*
%TO.N,Net-(D11-Pad1)*%
X146050000Y-10160000D02*
X147244300Y-11354300D01*
X147244300Y-11354300D02*
X198609500Y-11354300D01*
X198609500Y-11354300D02*
X199810900Y-10152900D01*
X227330000Y-13970000D02*
X226204700Y-13970000D01*
X215713500Y-10254800D02*
X222728600Y-10254800D01*
X222728600Y-10254800D02*
X226204700Y-13730900D01*
X226204700Y-13730900D02*
X226204700Y-13970000D01*
X146050000Y-10160000D02*
X144765300Y-8875300D01*
X144765300Y-8875300D02*
X88142600Y-8875300D01*
X88142600Y-8875300D02*
X84473800Y-5206500D01*
X84473800Y-5206500D02*
X78660700Y-5206500D01*
X78660700Y-5206500D02*
X72790000Y-11077200D01*
X143861800Y-95644900D02*
X144530500Y-96313600D01*
X144530500Y-96313600D02*
X192495000Y-96313600D01*
X192495000Y-96313600D02*
X197368600Y-91440000D01*
X197368600Y-91440000D02*
X203200000Y-91440000D01*
X81280000Y-91440000D02*
X94569800Y-91440000D01*
X94569800Y-91440000D02*
X96545200Y-89464600D01*
X96545200Y-89464600D02*
X103075800Y-89464600D01*
X72790000Y-11077200D02*
X25608100Y-11077200D01*
X25608100Y-11077200D02*
X23985300Y-12700000D01*
X72790000Y-11077200D02*
X72790000Y-26627700D01*
X72790000Y-26627700D02*
X72107200Y-27310500D01*
X203200000Y-91440000D02*
X203823200Y-90816800D01*
X203823200Y-90816800D02*
X210173200Y-90816800D01*
X210173200Y-90816800D02*
X211015600Y-89974400D01*
X211015600Y-89974400D02*
X228499300Y-89974400D01*
X228499300Y-89974400D02*
X229964900Y-91440000D01*
X229964900Y-91440000D02*
X243840000Y-91440000D01*
X22860000Y-12700000D02*
X23985300Y-12700000D01*
X22860000Y-12700000D02*
X21734700Y-12700000D01*
X3810000Y-12700000D02*
X4935300Y-12700000D01*
X4935300Y-12700000D02*
X6060600Y-11574700D01*
X6060600Y-11574700D02*
X20609400Y-11574700D01*
X20609400Y-11574700D02*
X21734700Y-12700000D01*
%TO.N,Net-(D7-Pad2)*%
X60960000Y-91440000D02*
X68692800Y-83707200D01*
X68692800Y-83707200D02*
X126591600Y-83707200D01*
X126591600Y-83707200D02*
X140448800Y-69850000D01*
X140448800Y-69850000D02*
X151130000Y-69850000D01*
X41910000Y-49530000D02*
X41910000Y-62230000D01*
X41910000Y-62230000D02*
X49530000Y-69850000D01*
X151130000Y-69850000D02*
X151466500Y-69513500D01*
X151466500Y-69513500D02*
X166507600Y-69513500D01*
X166507600Y-69513500D02*
X167636700Y-68384400D01*
X167636700Y-68384400D02*
X176429300Y-68384400D01*
X176429300Y-68384400D02*
X177894900Y-69850000D01*
X177894900Y-69850000D02*
X191770000Y-69850000D01*
%TO.N,Net-(D10-Pad2)*%
X224790000Y-49530000D02*
X224790000Y-58278400D01*
X224790000Y-58278400D02*
X226649100Y-60137500D01*
X184150000Y-49530000D02*
X190500000Y-49530000D01*
X190500000Y-49530000D02*
X191965600Y-48064400D01*
X191965600Y-48064400D02*
X209827000Y-48064400D01*
X209827000Y-48064400D02*
X211292600Y-49530000D01*
X211292600Y-49530000D02*
X224790000Y-49530000D01*
%TO.N,Net-(D12-Pad2)*%
X71120000Y-21590000D02*
X69994700Y-21590000D01*
X50800000Y-21590000D02*
X51925300Y-21590000D01*
X51925300Y-21590000D02*
X53050600Y-20464700D01*
X53050600Y-20464700D02*
X68869400Y-20464700D01*
X68869400Y-20464700D02*
X69994700Y-21590000D01*
%TO.N,Net-(D12-Pad1)*%
X128270000Y-88900000D02*
X148590000Y-88900000D01*
X107950000Y-88900000D02*
X128270000Y-88900000D01*
X96457900Y-87452000D02*
X68758000Y-87452000D01*
X68758000Y-87452000D02*
X67310000Y-88900000D01*
X107950000Y-88900000D02*
X106502000Y-87452000D01*
X106502000Y-87452000D02*
X96457900Y-87452000D01*
X123190000Y-110490000D02*
X139975800Y-110490000D01*
X139975800Y-110490000D02*
X141442900Y-111957100D01*
X141442900Y-111957100D02*
X153144600Y-111957100D01*
X153144600Y-111957100D02*
X154611700Y-110490000D01*
X154611700Y-110490000D02*
X163830000Y-110490000D01*
%TO.N,Net-(D13-Pad2)*%
X71120000Y-29210000D02*
X69994700Y-29210000D01*
X50800000Y-29210000D02*
X51925300Y-29210000D01*
X51925300Y-29210000D02*
X53050600Y-28084700D01*
X53050600Y-28084700D02*
X68869400Y-28084700D01*
X68869400Y-28084700D02*
X69994700Y-29210000D01*
X198120000Y-88900000D02*
X209550000Y-88900000D01*
X189230000Y-88900000D02*
X198120000Y-88900000D01*
X198120000Y-88900000D02*
X198120000Y-67310000D01*
X168910000Y-88900000D02*
X169234600Y-89224600D01*
X169234600Y-89224600D02*
X188905400Y-89224600D01*
X188905400Y-89224600D02*
X189230000Y-88900000D01*
X147887100Y-72954500D02*
X152469500Y-77536900D01*
X152469500Y-77536900D02*
X157546900Y-77536900D01*
X157546900Y-77536900D02*
X168910000Y-88900000D01*
X71120000Y-29210000D02*
X72245300Y-29210000D01*
X72245300Y-29210000D02*
X74482900Y-26972400D01*
X74482900Y-26972400D02*
X84932300Y-26972400D01*
X84932300Y-26972400D02*
X90314700Y-21590000D01*
X204470000Y-110490000D02*
X184150000Y-110490000D01*
X209550000Y-88900000D02*
X229870000Y-88900000D01*
X198120000Y-67310000D02*
X218440000Y-67310000D01*
X287020000Y-88900000D02*
X253683400Y-88900000D01*
X253683400Y-88900000D02*
X252235400Y-90348000D01*
X252235400Y-90348000D02*
X245202600Y-90348000D01*
X245202600Y-90348000D02*
X243754600Y-88900000D01*
X243754600Y-88900000D02*
X229870000Y-88900000D01*
X91440000Y-21590000D02*
X90314700Y-21590000D01*
%TO.N,Net-(D14-Pad1)*%
X177800000Y-67310000D02*
X179234200Y-65875800D01*
X179234200Y-65875800D02*
X237325800Y-65875800D01*
X237325800Y-65875800D02*
X238760000Y-67310000D01*
X95757500Y-63186200D02*
X80323800Y-63186200D01*
X80323800Y-63186200D02*
X76200000Y-67310000D01*
X137160000Y-67310000D02*
X151130000Y-67310000D01*
X151130000Y-67310000D02*
X152566900Y-68746900D01*
X152566900Y-68746900D02*
X165390300Y-68746900D01*
X165390300Y-68746900D02*
X166827200Y-67310000D01*
X166827200Y-67310000D02*
X177800000Y-67310000D01*
X116840000Y-67310000D02*
X137160000Y-67310000D01*
X55880000Y-67310000D02*
X76200000Y-67310000D01*
%TO.N,Net-(D15-Pad2)*%
X92565300Y-29210000D02*
X93690600Y-30335300D01*
X93690600Y-30335300D02*
X119014500Y-30335300D01*
X119014500Y-30335300D02*
X128616500Y-39937300D01*
X128616500Y-39937300D02*
X182490200Y-39937300D01*
X182490200Y-39937300D02*
X182490200Y-39937400D01*
X260513100Y-46990000D02*
X271780000Y-46990000D01*
X251460000Y-46990000D02*
X260513100Y-46990000D01*
X250190000Y-88900000D02*
X253268200Y-85821800D01*
X253268200Y-85821800D02*
X253268200Y-79079600D01*
X253268200Y-79079600D02*
X260513100Y-71834700D01*
X260513100Y-71834700D02*
X260513100Y-46990000D01*
X210820000Y-46990000D02*
X228694900Y-46990000D01*
X228694900Y-46990000D02*
X230132000Y-48427100D01*
X230132000Y-48427100D02*
X243166400Y-48427100D01*
X243166400Y-48427100D02*
X244603500Y-46990000D01*
X244603500Y-46990000D02*
X251460000Y-46990000D01*
X245110000Y-110490000D02*
X224790000Y-110490000D01*
X265430000Y-110490000D02*
X245110000Y-110490000D01*
X90314700Y-29210000D02*
X87021300Y-32503400D01*
X87021300Y-32503400D02*
X76274100Y-32503400D01*
X91440000Y-29210000D02*
X92565300Y-29210000D01*
X190500000Y-46990000D02*
X210820000Y-46990000D01*
X91440000Y-29210000D02*
X90314700Y-29210000D01*
X71120000Y-12700000D02*
X69994700Y-12700000D01*
X50800000Y-12700000D02*
X51925300Y-12700000D01*
X51925300Y-12700000D02*
X53050600Y-11574700D01*
X53050600Y-11574700D02*
X68869400Y-11574700D01*
X68869400Y-11574700D02*
X69994700Y-12700000D01*
%TO.N,Net-(D17-Pad1)*%
X259080000Y-67310000D02*
X257195400Y-65425400D01*
X257195400Y-65425400D02*
X159364600Y-65425400D01*
X159364600Y-65425400D02*
X157480000Y-67310000D01*
X98736800Y-70380500D02*
X103232700Y-65884600D01*
X103232700Y-65884600D02*
X156054600Y-65884600D01*
X156054600Y-65884600D02*
X157480000Y-67310000D01*
X102870000Y-110490000D02*
X82550000Y-110490000D01*
%TO.N,Net-(D19-Pad1)*%
X129540000Y-46990000D02*
X128971100Y-46421100D01*
X128971100Y-46421100D02*
X124815900Y-46421100D01*
X124815900Y-46421100D02*
X124355200Y-46881800D01*
X124355200Y-46881800D02*
X124355200Y-46881900D01*
X124355200Y-46881900D02*
X109328100Y-46881900D01*
X109328100Y-46881900D02*
X109220000Y-46990000D01*
X170180000Y-46990000D02*
X171631600Y-45538400D01*
X171631600Y-45538400D02*
X229688400Y-45538400D01*
X229688400Y-45538400D02*
X231140000Y-46990000D01*
X149860000Y-46990000D02*
X170180000Y-46990000D01*
X129540000Y-46990000D02*
X138822300Y-46990000D01*
X138822300Y-46990000D02*
X142797000Y-50964700D01*
X142797000Y-50964700D02*
X144107500Y-50964700D01*
X144107500Y-50964700D02*
X148082200Y-46990000D01*
X148082200Y-46990000D02*
X149860000Y-46990000D01*
X88900000Y-46990000D02*
X98182300Y-46990000D01*
X98182300Y-46990000D02*
X102153700Y-50961400D01*
X102153700Y-50961400D02*
X103529500Y-50961400D01*
X103529500Y-50961400D02*
X107500900Y-46990000D01*
X107500900Y-46990000D02*
X109220000Y-46990000D01*
X68580000Y-46990000D02*
X88900000Y-46990000D01*
X68580000Y-46990000D02*
X48260000Y-46990000D01*
X63500000Y-21590000D02*
X64625300Y-21590000D01*
X63500000Y-12700000D02*
X64625300Y-12700000D01*
X64625300Y-12700000D02*
X72296500Y-20371200D01*
X72296500Y-20371200D02*
X72296500Y-22009100D01*
X72296500Y-22009100D02*
X71590300Y-22715300D01*
X71590300Y-22715300D02*
X65750600Y-22715300D01*
X65750600Y-22715300D02*
X64625300Y-21590000D01*
%TO.N,B7*%
X299864700Y-21590000D02*
X296172200Y-25282500D01*
X296172200Y-25282500D02*
X274704800Y-25282500D01*
X274704800Y-25282500D02*
X274383200Y-24960900D01*
X274383200Y-24960900D02*
X263294900Y-24960900D01*
X263294900Y-24960900D02*
X260205300Y-21871300D01*
X260205300Y-21871300D02*
X260205300Y-21590000D01*
X300990000Y-21590000D02*
X299864700Y-21590000D01*
X259080000Y-21590000D02*
X260205300Y-21590000D01*
X194215300Y-2540000D02*
X194215300Y-2903300D01*
X194215300Y-2903300D02*
X211803500Y-20491500D01*
X211803500Y-20491500D02*
X216372600Y-20491500D01*
X216372600Y-20491500D02*
X216399400Y-20464700D01*
X216399400Y-20464700D02*
X254570800Y-20464700D01*
X254570800Y-20464700D02*
X255414700Y-21308600D01*
X255414700Y-21308600D02*
X255414700Y-21590000D01*
X247505300Y-36830000D02*
X247505300Y-36548700D01*
X247505300Y-36548700D02*
X249426100Y-34627900D01*
X249426100Y-34627900D02*
X259606600Y-34627900D01*
X246380000Y-36830000D02*
X247505300Y-36830000D01*
X256540000Y-21590000D02*
X255414700Y-21590000D01*
X193040000Y-2540000D02*
X194215300Y-2540000D01*
%TO.N,B6*%
X224790000Y-29210000D02*
X225915300Y-29210000D01*
X245560300Y-26330200D02*
X245504800Y-26274700D01*
X245504800Y-26274700D02*
X228673700Y-26274700D01*
X228673700Y-26274700D02*
X225915300Y-29033100D01*
X225915300Y-29033100D02*
X225915300Y-29210000D01*
X300990000Y-19050000D02*
X300990000Y-20175300D01*
X269240000Y-21590000D02*
X284811900Y-21590000D01*
X284811900Y-21590000D02*
X287700800Y-24478900D01*
X287700800Y-24478900D02*
X296046000Y-24478900D01*
X296046000Y-24478900D02*
X300349600Y-20175300D01*
X300349600Y-20175300D02*
X300990000Y-20175300D01*
X248920000Y-21590000D02*
X251460000Y-21590000D01*
%TO.N,KP*%
X308610000Y-8890000D02*
X308610000Y-10015300D01*
X261620000Y-29210000D02*
X262745300Y-29210000D01*
X262745300Y-29210000D02*
X264320900Y-30785600D01*
X264320900Y-30785600D02*
X312430500Y-30785600D01*
X312430500Y-30785600D02*
X314814000Y-28402100D01*
X314814000Y-28402100D02*
X314814000Y-27447700D01*
X314814000Y-27447700D02*
X309735300Y-22369000D01*
X309735300Y-22369000D02*
X309735300Y-10859200D01*
X309735300Y-10859200D02*
X308891400Y-10015300D01*
X308891400Y-10015300D02*
X308610000Y-10015300D01*
%TO.N,B5*%
X300990000Y-17635300D02*
X301182800Y-17635300D01*
X301182800Y-17635300D02*
X302115300Y-18567800D01*
X302115300Y-18567800D02*
X302115300Y-22086700D01*
X302115300Y-22086700D02*
X298434500Y-25767500D01*
X298434500Y-25767500D02*
X274552900Y-25767500D01*
X274552900Y-25767500D02*
X274196600Y-25411200D01*
X274196600Y-25411200D02*
X250222000Y-25411200D01*
X250222000Y-25411200D02*
X249946900Y-25136100D01*
X228787200Y-17614900D02*
X227491800Y-17614900D01*
X227491800Y-17614900D02*
X225685800Y-15808900D01*
X225685800Y-15808900D02*
X225685800Y-15808800D01*
X225685800Y-15808800D02*
X217631000Y-15808800D01*
X217631000Y-15808800D02*
X208204400Y-6382200D01*
X208204400Y-6382200D02*
X202770200Y-6382200D01*
X202770200Y-6382200D02*
X199295300Y-2907300D01*
X199295300Y-2907300D02*
X199295300Y-2540000D01*
X228787200Y-17614900D02*
X229989300Y-18817000D01*
X229989300Y-18817000D02*
X235161300Y-18817000D01*
X198120000Y-2540000D02*
X199295300Y-2540000D01*
X300990000Y-16510000D02*
X300990000Y-17635300D01*
X237490000Y-21590000D02*
X246380000Y-21590000D01*
%TO.N,B1*%
X300990000Y-15095300D02*
X301271300Y-15095300D01*
X301271300Y-15095300D02*
X302567800Y-16391800D01*
X302567800Y-16391800D02*
X302567800Y-22300600D01*
X302567800Y-22300600D02*
X298637400Y-26231000D01*
X298637400Y-26231000D02*
X274379500Y-26231000D01*
X274379500Y-26231000D02*
X274010000Y-25861500D01*
X274010000Y-25861500D02*
X248987200Y-25861500D01*
X248987200Y-25861500D02*
X248270300Y-25144600D01*
X248270300Y-25144600D02*
X221124700Y-25144600D01*
X217817000Y-14159700D02*
X212257600Y-8600300D01*
X212257600Y-8600300D02*
X212257600Y-7299700D01*
X300990000Y-13970000D02*
X300990000Y-15095300D01*
%TO.N,clear*%
X205740000Y-36830000D02*
X207363700Y-35206300D01*
X207363700Y-35206300D02*
X238922300Y-35206300D01*
X238922300Y-35206300D02*
X248683500Y-44967500D01*
X248683500Y-44967500D02*
X263992000Y-44967500D01*
%TO.N,B2*%
X300990000Y-12555300D02*
X301271300Y-12555300D01*
X301271300Y-12555300D02*
X303018200Y-14302200D01*
X303018200Y-14302200D02*
X303018200Y-22495400D01*
X303018200Y-22495400D02*
X298807800Y-26705800D01*
X298807800Y-26705800D02*
X274217400Y-26705800D01*
X274217400Y-26705800D02*
X273823500Y-26311900D01*
X273823500Y-26311900D02*
X246567800Y-26311900D01*
X246567800Y-26311900D02*
X245860800Y-25604900D01*
X245860800Y-25604900D02*
X227739600Y-25604900D01*
X227739600Y-25604900D02*
X227089700Y-26254800D01*
X224649000Y-17481200D02*
X218277600Y-17481200D01*
X218277600Y-17481200D02*
X208096100Y-7299700D01*
X300990000Y-11430000D02*
X300990000Y-12555300D01*
%TO.N,B3*%
X225709200Y-8092300D02*
X225709200Y-11450500D01*
X225709200Y-8092300D02*
X266867500Y-8092300D01*
X266867500Y-8092300D02*
X269794800Y-5165000D01*
X269794800Y-5165000D02*
X271007800Y-5165000D01*
X271007800Y-5165000D02*
X273698000Y-7855200D01*
X273698000Y-7855200D02*
X273698000Y-10055800D01*
X273698000Y-10055800D02*
X275413100Y-11770900D01*
X275413100Y-11770900D02*
X280842100Y-11770900D01*
X280842100Y-11770900D02*
X283264400Y-9348600D01*
X283264400Y-9348600D02*
X283264400Y-8365000D01*
X283264400Y-8365000D02*
X284009400Y-7620000D01*
X284009400Y-7620000D02*
X284935300Y-7620000D01*
X284935300Y-7620000D02*
X286098900Y-6456400D01*
X286098900Y-6456400D02*
X286098900Y-2925400D01*
X286098900Y-2925400D02*
X288098200Y-926100D01*
X288098200Y-926100D02*
X296083900Y-926100D01*
X296083900Y-926100D02*
X299864700Y-4706900D01*
X299864700Y-4706900D02*
X299864700Y-6920800D01*
X299864700Y-6920800D02*
X300708600Y-7764700D01*
X300708600Y-7764700D02*
X300990000Y-7764700D01*
X204375300Y-2540000D02*
X204375300Y-2849800D01*
X204375300Y-2849800D02*
X205427400Y-3901900D01*
X205427400Y-3901900D02*
X219891200Y-3901900D01*
X219891200Y-3901900D02*
X224081600Y-8092300D01*
X224081600Y-8092300D02*
X225709200Y-8092300D01*
X300990000Y-8890000D02*
X300990000Y-7764700D01*
X203200000Y-2540000D02*
X204375300Y-2540000D01*
%TO.N,B4*%
X300990000Y-6350000D02*
X303513500Y-8873500D01*
X303513500Y-8873500D02*
X303513500Y-22645000D01*
X303513500Y-22645000D02*
X298964000Y-27194500D01*
X298964000Y-27194500D02*
X273843900Y-27194500D01*
X273843900Y-27194500D02*
X273788500Y-27139100D01*
X273788500Y-27139100D02*
X234950000Y-27139100D01*
X234682000Y-27005100D02*
X234816000Y-27139100D01*
X234816000Y-27139100D02*
X234950000Y-27139100D01*
X234950000Y-27139100D02*
X234950000Y-29210000D01*
X226723100Y-15820500D02*
X226261100Y-15358500D01*
X226261100Y-15358500D02*
X217817600Y-15358500D01*
X217817600Y-15358500D02*
X206811400Y-4352300D01*
X206811400Y-4352300D02*
X203280300Y-4352300D01*
X203280300Y-4352300D02*
X201835300Y-2907300D01*
X201835300Y-2907300D02*
X201835300Y-2540000D01*
X200660000Y-2540000D02*
X201835300Y-2540000D01*
%TO.N,Net-(Q1-Pad2)*%
X104140000Y-33020000D02*
X103064600Y-31944600D01*
X103064600Y-31944600D02*
X88705400Y-31944600D01*
X88705400Y-31944600D02*
X83820000Y-36830000D01*
%TO.N,Net-(Q2-Pad2)*%
X104140000Y-22860000D02*
X103007500Y-23992500D01*
X103007500Y-23992500D02*
X89037500Y-23992500D01*
X89037500Y-23992500D02*
X83820000Y-29210000D01*
%TO.N,Net-(Q3-Pad3)*%
X128270000Y-10160000D02*
X131576500Y-13466500D01*
X131576500Y-13466500D02*
X204044100Y-13466500D01*
X204044100Y-13466500D02*
X213750400Y-23172800D01*
X213750400Y-23172800D02*
X254084100Y-23172800D01*
X254084100Y-23172800D02*
X255044600Y-24133300D01*
%TO.N,Net-(Q3-Pad2)*%
X98707400Y-20455400D02*
X98707400Y-16329200D01*
X98707400Y-16329200D02*
X99941200Y-15095400D01*
X99941200Y-15095400D02*
X101744600Y-15095400D01*
X101744600Y-15095400D02*
X104140000Y-12700000D01*
X134764700Y-27940000D02*
X133639400Y-26814700D01*
X133639400Y-26814700D02*
X109102400Y-26814700D01*
X109102400Y-26814700D02*
X105410000Y-23122300D01*
X105410000Y-23122300D02*
X105410000Y-22586100D01*
X105410000Y-22586100D02*
X103279300Y-20455400D01*
X103279300Y-20455400D02*
X98707400Y-20455400D01*
X83820000Y-21590000D02*
X84954600Y-20455400D01*
X84954600Y-20455400D02*
X98707400Y-20455400D01*
X135890000Y-27940000D02*
X134764700Y-27940000D01*
%TO.N,Net-(R18-Pad1)*%
X142240000Y-91034600D02*
X127864600Y-91034600D01*
X127864600Y-91034600D02*
X126844600Y-90014600D01*
X126844600Y-90014600D02*
X109049300Y-90014600D01*
X109049300Y-90014600D02*
X108698300Y-90365600D01*
X108698300Y-90365600D02*
X105202400Y-90365600D01*
X105202400Y-90365600D02*
X103569700Y-88732900D01*
X103569700Y-88732900D02*
X91698400Y-88732900D01*
X91698400Y-88732900D02*
X90105900Y-90325400D01*
X90105900Y-90325400D02*
X84504200Y-90325400D01*
X184323600Y-38959300D02*
X187100700Y-38959300D01*
X187100700Y-38959300D02*
X189230000Y-36830000D01*
X153721200Y-84801500D02*
X153721200Y-85864400D01*
X153721200Y-85864400D02*
X148551000Y-91034600D01*
X148551000Y-91034600D02*
X142240000Y-91034600D01*
X142240000Y-91440000D02*
X142240000Y-91034600D01*
%TO.N,Net-(Q1-Pad3)*%
X146050000Y-19050000D02*
X147175300Y-20175300D01*
X147175300Y-20175300D02*
X207994600Y-20175300D01*
X207994600Y-20175300D02*
X208856100Y-19313800D01*
%TO.N,Net-(Q2-Pad3)*%
X146050000Y-26350900D02*
X146112000Y-26288900D01*
X146112000Y-26288900D02*
X177740500Y-26288900D01*
X177740500Y-26288900D02*
X180595500Y-29143900D01*
X180595500Y-29143900D02*
X196946400Y-29143900D01*
X196946400Y-29143900D02*
X201578200Y-24512100D01*
X146050000Y-26350900D02*
X142559100Y-22860000D01*
X142559100Y-22860000D02*
X106680000Y-22860000D01*
X146050000Y-27940000D02*
X146050000Y-26350900D01*
%TO.N,reset*%
X306070000Y-49530000D02*
X300913700Y-44373700D01*
X300913700Y-44373700D02*
X273224800Y-44373700D01*
X273224800Y-44373700D02*
X266074700Y-37223600D01*
X266074700Y-37223600D02*
X263664300Y-37223600D01*
X263664300Y-37223600D02*
X257222300Y-30781600D01*
X257222300Y-30781600D02*
X224768400Y-30781600D01*
X224768400Y-30781600D02*
X223520000Y-29533200D01*
X223520000Y-29533200D02*
X223520000Y-28807600D01*
X223520000Y-28807600D02*
X222652400Y-27940000D01*
X222652400Y-27940000D02*
X203200000Y-27940000D01*
%TO.N,Net-(D29-Pad1)*%
X233680000Y-5080000D02*
X245110000Y-5080000D01*
%TO.N,B8*%
X308610000Y-6350000D02*
X307484700Y-6350000D01*
X281121200Y-2508800D02*
X283168000Y-462000D01*
X283168000Y-462000D02*
X301596700Y-462000D01*
X301596700Y-462000D02*
X307484700Y-6350000D01*
X281121200Y-2508800D02*
X279878500Y-1266100D01*
X279878500Y-1266100D02*
X192581900Y-1266100D01*
X192581900Y-1266100D02*
X191675300Y-2172700D01*
X191675300Y-2172700D02*
X191675300Y-2540000D01*
X284480000Y-5174700D02*
X283666400Y-5174700D01*
X283666400Y-5174700D02*
X281121200Y-2629500D01*
X281121200Y-2629500D02*
X281121200Y-2508800D01*
X252585300Y-36830000D02*
X252585300Y-37111300D01*
X252585300Y-37111300D02*
X253966600Y-38492600D01*
X253966600Y-38492600D02*
X262765300Y-38492600D01*
X262765300Y-38492600D02*
X262858500Y-38399400D01*
X251460000Y-36830000D02*
X252585300Y-36830000D01*
X284480000Y-6350000D02*
X284480000Y-5174700D01*
X190500000Y-2540000D02*
X191675300Y-2540000D01*
%TO.N,Net-(JP2-Pad2)*%
X270510000Y-6350000D02*
X269334700Y-6350000D01*
X246380000Y-13970000D02*
X247505300Y-13970000D01*
X247505300Y-13970000D02*
X247505300Y-13688700D01*
X247505300Y-13688700D02*
X248799700Y-12394300D01*
X248799700Y-12394300D02*
X263290400Y-12394300D01*
X263290400Y-12394300D02*
X269334700Y-6350000D01*
X170180000Y-10160000D02*
X171305300Y-10160000D01*
X171305300Y-10160000D02*
X175643800Y-5821500D01*
X175643800Y-5821500D02*
X193189700Y-5821500D01*
X39370000Y-113030000D02*
X39370000Y-110938500D01*
X39370000Y-110938500D02*
X73858700Y-76449800D01*
X73858700Y-76449800D02*
X86556700Y-76449800D01*
X86556700Y-76449800D02*
X93351400Y-69655100D01*
X93351400Y-69655100D02*
X96190800Y-69655100D01*
X96190800Y-69655100D02*
X101595900Y-64250000D01*
X101595900Y-64250000D02*
X111159200Y-64250000D01*
X111159200Y-64250000D02*
X121503700Y-53905500D01*
%TO.N,~keydown*%
X278130000Y-35205700D02*
X278130000Y-35704700D01*
X263719500Y-32098400D02*
X266826800Y-35205700D01*
X266826800Y-35205700D02*
X278130000Y-35205700D01*
X304800000Y-35560000D02*
X304445700Y-35205700D01*
X304445700Y-35205700D02*
X278130000Y-35205700D01*
X278130000Y-36830000D02*
X278130000Y-35704700D01*
X252730000Y-5080000D02*
X251704700Y-5080000D01*
X218440000Y-2540000D02*
X219615300Y-2540000D01*
X219615300Y-2540000D02*
X219615300Y-2876800D01*
X219615300Y-2876800D02*
X220533600Y-3795100D01*
X220533600Y-3795100D02*
X250419800Y-3795100D01*
X250419800Y-3795100D02*
X251704700Y-5080000D01*
%TO.N,Net-(C5-Pad1)*%
X288290000Y-43180000D02*
X288290000Y-36830000D01*
%TO.N,Net-(D21-Pad1)*%
X316230000Y-146050000D02*
X315004700Y-146050000D01*
X315004700Y-146050000D02*
X313933900Y-147120800D01*
X313933900Y-147120800D02*
X304600800Y-147120800D01*
X304600800Y-147120800D02*
X303530000Y-146050000D01*
%TO.N,Net-(D22-Pad1)*%
X316230000Y-138430000D02*
X315004700Y-138430000D01*
X315004700Y-138430000D02*
X313948700Y-137374000D01*
X313948700Y-137374000D02*
X304586000Y-137374000D01*
X304586000Y-137374000D02*
X303530000Y-138430000D01*
%TO.N,Net-(D23-Pad1)*%
X316230000Y-130810000D02*
X315004700Y-130810000D01*
X315004700Y-130810000D02*
X313950800Y-131863900D01*
X313950800Y-131863900D02*
X304583900Y-131863900D01*
X304583900Y-131863900D02*
X303530000Y-130810000D01*
%TO.N,Net-(D24-Pad1)*%
X316230000Y-123190000D02*
X315004700Y-123190000D01*
X315004700Y-123190000D02*
X313948700Y-122134000D01*
X313948700Y-122134000D02*
X304586000Y-122134000D01*
X304586000Y-122134000D02*
X303530000Y-123190000D01*
%TO.N,Net-(D25-Pad1)*%
X316230000Y-115570000D02*
X315004700Y-115570000D01*
X315004700Y-115570000D02*
X313950800Y-116623900D01*
X313950800Y-116623900D02*
X304583900Y-116623900D01*
X304583900Y-116623900D02*
X303530000Y-115570000D01*
%TO.N,Net-(D26-Pad1)*%
X316230000Y-107950000D02*
X315004700Y-107950000D01*
X315004700Y-107950000D02*
X313948500Y-109006200D01*
X313948500Y-109006200D02*
X304586200Y-109006200D01*
X304586200Y-109006200D02*
X303530000Y-107950000D01*
%TO.N,Net-(Q4-Pad3)*%
X128902300Y-21422200D02*
X200506600Y-21422200D01*
X200506600Y-21422200D02*
X203268100Y-24183700D01*
X203268100Y-24183700D02*
X254069300Y-24183700D01*
X254069300Y-24183700D02*
X254744200Y-24858600D01*
X254744200Y-24858600D02*
X255345100Y-24858600D01*
X255345100Y-24858600D02*
X257810000Y-22393700D01*
X257810000Y-22393700D02*
X257810000Y-18905300D01*
X257810000Y-18905300D02*
X261620000Y-15095300D01*
X128270000Y-19050000D02*
X128270000Y-20789900D01*
X128270000Y-20789900D02*
X128902300Y-21422200D01*
X261620000Y-13970000D02*
X261620000Y-15095300D01*
%TO.N,Net-(R17-Pad1)*%
X259080000Y-13970000D02*
X260205300Y-13970000D01*
X269240000Y-13970000D02*
X268114700Y-12844700D01*
X268114700Y-12844700D02*
X261137800Y-12844700D01*
X261137800Y-12844700D02*
X260205300Y-13777200D01*
X260205300Y-13777200D02*
X260205300Y-13970000D01*
%TO.N,Net-(R26-Pad2)*%
X311150000Y-107950000D02*
X310124700Y-107950000D01*
X310124700Y-107950000D02*
X293159000Y-90984300D01*
X293159000Y-90984300D02*
X283462900Y-90984300D01*
%TO.N,Net-(R27-Pad2)*%
X248920000Y-36830000D02*
X250045300Y-36830000D01*
X320040000Y-83820000D02*
X319014700Y-83820000D01*
X319014700Y-83820000D02*
X317989400Y-82794700D01*
X317989400Y-82794700D02*
X309735100Y-82794700D01*
X309735100Y-82794700D02*
X266140800Y-39200400D01*
X266140800Y-39200400D02*
X252134400Y-39200400D01*
X252134400Y-39200400D02*
X250045300Y-37111300D01*
X250045300Y-37111300D02*
X250045300Y-36830000D01*
%TO.N,Net-(R28-Pad2)*%
X319014700Y-77470000D02*
X288347800Y-46803100D01*
X288347800Y-46803100D02*
X275017300Y-46803100D01*
X275017300Y-46803100D02*
X265888200Y-37674000D01*
X265888200Y-37674000D02*
X262505300Y-37674000D01*
X262505300Y-37674000D02*
X262224000Y-37955300D01*
X262224000Y-37955300D02*
X255969200Y-37955300D01*
X255969200Y-37955300D02*
X255125300Y-37111400D01*
X255125300Y-37111400D02*
X255125300Y-36830000D01*
X254000000Y-36830000D02*
X255125300Y-36830000D01*
X320040000Y-77470000D02*
X319014700Y-77470000D01*
%TO.N,Net-(U1-Pad6)*%
X237490000Y-13970000D02*
X237490000Y-15095300D01*
X237490000Y-15095300D02*
X236993600Y-15095300D01*
X236993600Y-15095300D02*
X234659200Y-17429700D01*
%TO.N,Net-(U4-Pad9)*%
X284624700Y-29210000D02*
X284624700Y-29491400D01*
X284624700Y-29491400D02*
X283780800Y-30335300D01*
X283780800Y-30335300D02*
X266323200Y-30335300D01*
X266323200Y-30335300D02*
X264072600Y-28084700D01*
X264072600Y-28084700D02*
X261049200Y-28084700D01*
X261049200Y-28084700D02*
X260205300Y-28928600D01*
X260205300Y-28928600D02*
X260205300Y-29210000D01*
X285750000Y-29210000D02*
X284624700Y-29210000D01*
X259080000Y-29210000D02*
X260205300Y-29210000D01*
%TD*%
M02*
