M48
; DRILL file {KiCad 5.1.6-c6e7f7d~87~ubuntu16.04.1} date Sat Jan 23 12:29:28 2021
; FORMAT={-:-/ absolute / metric / decimal}
; #@! TF.CreationDate,2021-01-23T12:29:28-05:00
; #@! TF.GenerationSoftware,Kicad,Pcbnew,5.1.6-c6e7f7d~87~ubuntu16.04.1
FMAT,2
METRIC
T1C0.400
T2C0.700
T3C0.800
T4C0.900
T5C1.000
T6C1.500
T7C1.700
T8C2.700
T9C3.050
T10C4.000
%
G90
G05
T1
X48.796Y-74.245
X72.107Y-27.31
X76.274Y-32.503
X84.504Y-90.325
X95.757Y-63.186
X96.458Y-87.452
X98.737Y-70.38
X103.076Y-89.465
X108.691Y-44.81
X109.056Y-111.587
X114.294Y-47.607
X115.735Y-91.44
X121.504Y-53.905
X125.116Y-47.146
X128.902Y-21.422
X143.862Y-95.645
X147.887Y-72.954
X153.721Y-84.801
X160.865Y-112.093
X163.227Y-70.309
X182.49Y-39.937
X184.324Y-38.959
X186.181Y-88.499
X193.19Y-5.821
X199.811Y-10.153
X201.578Y-24.512
X208.096Y-7.3
X208.856Y-19.314
X212.258Y-7.3
X214.84Y-64.178
X215.576Y-19.766
X215.713Y-10.255
X217.817Y-14.16
X221.125Y-25.145
X224.649Y-17.481
X225.709Y-11.45
X226.649Y-60.137
X226.723Y-15.82
X227.09Y-26.255
X228.787Y-17.615
X234.659Y-17.43
X234.682Y-27.005
X235.161Y-18.817
X241.462Y-31.519
X245.56Y-26.33
X247.543Y-88.499
X249.947Y-25.136
X255.045Y-24.133
X259.607Y-34.628
X261.97Y-31.796
X262.858Y-38.399
X263.719Y-32.098
X263.901Y-35.616
X263.992Y-44.968
X278.979Y-48.333
X283.463Y-90.984
T2
X303.53Y-115.57
X311.15Y-115.57
X245.11Y-5.08
X252.73Y-5.08
X312.42Y-77.47
X320.04Y-77.47
X303.53Y-130.81
X311.15Y-130.81
X303.53Y-107.95
X311.15Y-107.95
X303.53Y-138.43
X311.15Y-138.43
X312.42Y-83.82
X320.04Y-83.82
X303.53Y-146.05
X311.15Y-146.05
X303.53Y-123.19
X311.15Y-123.19
T3
X162.56Y-10.16
X170.18Y-10.16
X128.27Y-19.05
X135.89Y-19.05
X269.24Y-13.97
X269.24Y-21.59
X43.18Y-36.83
X50.8Y-36.83
X3.81Y-36.83
X11.43Y-36.83
X189.23Y-36.83
X196.85Y-36.83
X101.6Y-33.02
X104.14Y-33.02
X106.68Y-33.02
X177.8Y-27.94
X185.42Y-27.94
X300.99Y-3.81
X300.99Y-6.35
X300.99Y-8.89
X300.99Y-11.43
X300.99Y-13.97
X300.99Y-16.51
X300.99Y-19.05
X300.99Y-21.59
X308.61Y-3.81
X308.61Y-6.35
X308.61Y-8.89
X308.61Y-11.43
X308.61Y-13.97
X308.61Y-16.51
X308.61Y-19.05
X308.61Y-21.59
X171.45Y-36.83
X179.07Y-36.83
X115.57Y-35.56
X118.11Y-35.56
X120.65Y-35.56
X43.18Y-21.59
X50.8Y-21.59
X205.74Y-36.83
X213.36Y-36.83
X3.81Y-29.21
X11.43Y-29.21
X83.82Y-21.59
X91.44Y-21.59
X283.25Y-24.13
X285.75Y-24.13
X162.56Y-19.05
X170.18Y-19.05
X63.5Y-21.59
X71.12Y-21.59
X101.6Y-12.7
X104.14Y-12.7
X106.68Y-12.7
X43.18Y-12.7
X50.8Y-12.7
X3.81Y-5.08
X11.43Y-5.08
X63.5Y-36.83
X71.12Y-36.83
X246.38Y-13.97
X246.38Y-21.59
X248.92Y-13.97
X248.92Y-21.59
X251.46Y-13.97
X251.46Y-21.59
X254.0Y-13.97
X254.0Y-21.59
X256.54Y-13.97
X256.54Y-21.59
X259.08Y-13.97
X259.08Y-21.59
X261.62Y-13.97
X261.62Y-21.59
X146.05Y-10.16
X153.67Y-10.16
X162.56Y-27.94
X170.18Y-27.94
X146.05Y-27.94
X153.67Y-27.94
X83.82Y-6.35
X91.44Y-6.35
X43.18Y-29.21
X50.8Y-29.21
X278.13Y-15.24
X278.13Y-22.86
X311.15Y-27.94
X313.65Y-27.94
X146.05Y-19.05
X153.67Y-19.05
X83.82Y-36.83
X91.44Y-36.83
X288.29Y-43.18
X290.79Y-43.18
X275.59Y-29.21
X275.59Y-36.83
X278.13Y-29.21
X278.13Y-36.83
X280.67Y-29.21
X280.67Y-36.83
X283.21Y-29.21
X283.21Y-36.83
X285.75Y-29.21
X285.75Y-36.83
X288.29Y-29.21
X288.29Y-36.83
X290.83Y-29.21
X290.83Y-36.83
X293.37Y-29.21
X293.37Y-36.83
X3.81Y-12.7
X11.43Y-12.7
X22.86Y-20.32
X30.48Y-20.32
X83.82Y-13.97
X91.44Y-13.97
X287.02Y-49.53
X294.64Y-49.53
X22.86Y-36.83
X30.48Y-36.83
X128.27Y-27.94
X135.89Y-27.94
X22.86Y-29.21
X30.48Y-29.21
X22.86Y-12.7
X30.48Y-12.7
X304.8Y-35.56
X307.3Y-35.56
X3.81Y-21.59
X11.43Y-21.59
X222.25Y-13.97
X222.25Y-21.59
X224.79Y-13.97
X224.79Y-21.59
X227.33Y-13.97
X227.33Y-21.59
X229.87Y-13.97
X229.87Y-21.59
X232.41Y-13.97
X232.41Y-21.59
X234.95Y-13.97
X234.95Y-21.59
X237.49Y-13.97
X237.49Y-21.59
X43.18Y-5.08
X50.8Y-5.08
X195.58Y-27.94
X203.2Y-27.94
X63.5Y-29.21
X71.12Y-29.21
X246.38Y-29.21
X246.38Y-36.83
X248.92Y-29.21
X248.92Y-36.83
X251.46Y-29.21
X251.46Y-36.83
X254.0Y-29.21
X254.0Y-36.83
X256.54Y-29.21
X256.54Y-36.83
X259.08Y-29.21
X259.08Y-36.83
X261.62Y-29.21
X261.62Y-36.83
X128.27Y-10.16
X135.89Y-10.16
X83.82Y-29.21
X91.44Y-29.21
X151.13Y-36.83
X158.75Y-36.83
X63.5Y-12.7
X71.12Y-12.7
X101.6Y-22.86
X104.14Y-22.86
X106.68Y-22.86
X132.08Y-36.83
X139.7Y-36.83
X116.84Y-6.59
X116.84Y-21.59
X222.25Y-29.21
X222.25Y-36.83
X224.79Y-29.21
X224.79Y-36.83
X227.33Y-29.21
X227.33Y-36.83
X229.87Y-29.21
X229.87Y-36.83
X232.41Y-29.21
X232.41Y-36.83
X234.95Y-29.21
X234.95Y-36.83
X237.49Y-29.21
X237.49Y-36.83
T4
X316.23Y-115.57
X318.77Y-115.57
X316.23Y-100.33
X318.77Y-100.33
X316.23Y-146.05
X318.77Y-146.05
X316.23Y-92.71
X318.77Y-92.71
X316.23Y-123.19
X318.77Y-123.19
X316.23Y-130.81
X318.77Y-130.81
X316.23Y-138.43
X318.77Y-138.43
X233.68Y-2.54
X233.68Y-5.08
X316.23Y-107.95
X318.77Y-107.95
T5
X190.5Y-2.54
X193.04Y-2.54
X195.58Y-2.54
X198.12Y-2.54
X200.66Y-2.54
X203.2Y-2.54
X205.74Y-2.54
X208.28Y-2.54
X210.82Y-2.54
X213.36Y-2.54
X215.9Y-2.54
X218.44Y-2.54
X220.98Y-2.54
X223.52Y-2.54
X284.48Y-3.81
X284.48Y-6.35
X284.48Y-8.89
X270.51Y-3.81
X270.51Y-6.35
T6
X39.37Y-113.03
X45.72Y-110.49
X243.84Y-91.44
X250.19Y-88.9
X245.11Y-49.53
X251.46Y-46.99
X162.56Y-91.44
X168.91Y-88.9
X191.77Y-69.85
X198.12Y-67.31
X102.87Y-49.53
X109.22Y-46.99
X116.84Y-113.03
X123.19Y-110.49
X60.96Y-91.44
X67.31Y-88.9
X121.92Y-91.44
X128.27Y-88.9
X265.43Y-49.53
X271.78Y-46.99
X163.83Y-49.53
X170.18Y-46.99
X123.19Y-49.53
X129.54Y-46.99
X212.09Y-69.85
X218.44Y-67.31
X224.79Y-49.53
X231.14Y-46.99
X280.67Y-91.44
X287.02Y-88.9
X130.81Y-69.85
X137.16Y-67.31
X62.23Y-49.53
X68.58Y-46.99
X76.2Y-113.03
X82.55Y-110.49
X232.41Y-69.85
X238.76Y-67.31
X238.76Y-113.03
X245.11Y-110.49
X306.07Y-49.53
X312.42Y-46.99
X110.49Y-69.85
X116.84Y-67.31
X198.12Y-113.03
X204.47Y-110.49
X101.6Y-91.44
X107.95Y-88.9
X143.51Y-49.53
X149.86Y-46.99
X81.28Y-91.44
X87.63Y-88.9
X151.13Y-69.85
X157.48Y-67.31
X69.85Y-69.85
X76.2Y-67.31
X182.88Y-91.44
X189.23Y-88.9
X218.44Y-113.03
X224.79Y-110.49
X157.48Y-113.03
X163.83Y-110.49
X142.24Y-91.44
X148.59Y-88.9
X90.17Y-69.85
X96.52Y-67.31
X204.47Y-49.53
X210.82Y-46.99
X203.2Y-91.44
X209.55Y-88.9
X137.16Y-113.03
X143.51Y-110.49
X82.55Y-49.53
X88.9Y-46.99
X146.05Y-135.89
X152.4Y-133.35
X41.91Y-49.53
X48.26Y-46.99
X24.13Y-91.44
X30.48Y-88.9
X177.8Y-113.03
X184.15Y-110.49
X273.05Y-69.85
X279.4Y-67.31
X171.45Y-69.85
X177.8Y-67.31
X223.52Y-91.44
X229.87Y-88.9
X252.73Y-69.85
X259.08Y-67.31
X49.53Y-69.85
X55.88Y-67.31
X184.15Y-49.53
X190.5Y-46.99
X259.08Y-113.03
X265.43Y-110.49
X96.52Y-113.03
X102.87Y-110.49
T7
X135.89Y-115.57
X146.05Y-115.57
X81.28Y-52.07
X91.44Y-52.07
X144.78Y-138.43
X154.94Y-138.43
X40.64Y-52.07
X50.8Y-52.07
X22.86Y-93.98
X33.02Y-93.98
X176.53Y-115.57
X186.69Y-115.57
X271.78Y-72.39
X281.94Y-72.39
X170.18Y-72.39
X180.34Y-72.39
X222.25Y-93.98
X232.41Y-93.98
X251.46Y-72.39
X261.62Y-72.39
X48.26Y-72.39
X58.42Y-72.39
X182.88Y-52.07
X193.04Y-52.07
X257.81Y-115.57
X267.97Y-115.57
X95.25Y-115.57
X105.41Y-115.57
X38.1Y-115.57
X48.26Y-115.57
X242.57Y-93.98
X252.73Y-93.98
X243.84Y-52.07
X254.0Y-52.07
X161.29Y-93.98
X171.45Y-93.98
X190.5Y-72.39
X200.66Y-72.39
X101.6Y-52.07
X111.76Y-52.07
X115.57Y-115.57
X125.73Y-115.57
X59.69Y-93.98
X69.85Y-93.98
X120.65Y-93.98
X130.81Y-93.98
X264.16Y-52.07
X274.32Y-52.07
X162.56Y-52.07
X172.72Y-52.07
X121.92Y-52.07
X132.08Y-52.07
X210.82Y-72.39
X220.98Y-72.39
X223.52Y-52.07
X233.68Y-52.07
X279.4Y-93.98
X289.56Y-93.98
X129.54Y-72.39
X139.7Y-72.39
X60.96Y-52.07
X71.12Y-52.07
X74.93Y-115.57
X85.09Y-115.57
X231.14Y-72.39
X241.3Y-72.39
X237.49Y-115.57
X247.65Y-115.57
X304.8Y-52.07
X314.96Y-52.07
X109.22Y-72.39
X119.38Y-72.39
X196.85Y-115.57
X207.01Y-115.57
X100.33Y-93.98
X110.49Y-93.98
X142.24Y-52.07
X152.4Y-52.07
X80.01Y-93.98
X90.17Y-93.98
X149.86Y-72.39
X160.02Y-72.39
X68.58Y-72.39
X78.74Y-72.39
X181.61Y-93.98
X191.77Y-93.98
X217.17Y-115.57
X227.33Y-115.57
X156.21Y-115.57
X166.37Y-115.57
X140.97Y-93.98
X151.13Y-93.98
X88.9Y-72.39
X99.06Y-72.39
X203.2Y-52.07
X213.36Y-52.07
X201.93Y-93.98
X212.09Y-93.98
T8
X3.81Y-146.05
X294.64Y-144.78
X19.05Y-3.81
X317.5Y-36.83
T9
X272.58Y-86.98
X296.38Y-86.98
X99.86Y-131.43
X199.86Y-131.43
X16.04Y-86.98
X39.84Y-86.98
X31.28Y-108.57
X55.08Y-108.57
T10
X195.58Y-72.39
X106.68Y-52.07
X120.65Y-115.57
X64.77Y-93.98
X125.73Y-93.98
X269.24Y-52.07
X167.64Y-52.07
X127.0Y-52.07
X215.9Y-72.39
X228.6Y-52.07
X272.58Y-102.22
X284.48Y-93.98
X296.38Y-102.22
X134.62Y-72.39
X66.04Y-52.07
X80.01Y-115.57
X236.22Y-72.39
X242.57Y-115.57
X309.88Y-52.07
X114.3Y-72.39
X201.93Y-115.57
X105.41Y-93.98
X147.32Y-52.07
X85.09Y-93.98
X154.94Y-72.39
X73.66Y-72.39
X186.69Y-93.98
X222.25Y-115.57
X161.29Y-115.57
X146.05Y-93.98
X93.98Y-72.39
X208.28Y-52.07
X207.01Y-93.98
X140.97Y-115.57
X86.36Y-52.07
X99.86Y-146.67
X149.86Y-138.43
X199.86Y-146.67
X45.72Y-52.07
X16.04Y-102.22
X27.94Y-93.98
X39.84Y-102.22
X181.61Y-115.57
X276.86Y-72.39
X175.26Y-72.39
X227.33Y-93.98
X256.54Y-72.39
X53.34Y-72.39
X187.96Y-52.07
X262.89Y-115.57
X100.33Y-115.57
X31.28Y-123.81
X43.18Y-115.57
X55.08Y-123.81
X247.65Y-93.98
X248.92Y-52.07
X166.37Y-93.98
T0
M30
