%TF.GenerationSoftware,KiCad,Pcbnew,5.1.6-c6e7f7d~87~ubuntu16.04.1*%
%TF.CreationDate,2022-03-08T12:51:55-05:00*%
%TF.ProjectId,keyboard,6b657962-6f61-4726-942e-6b696361645f,rev?*%
%TF.SameCoordinates,Original*%
%TF.FileFunction,Copper,L2,Bot*%
%TF.FilePolarity,Positive*%
%FSLAX46Y46*%
G04 Gerber Fmt 4.6, Leading zero omitted, Abs format (unit mm)*
G04 Created by KiCad (PCBNEW 5.1.6-c6e7f7d~87~ubuntu16.04.1) date 2022-03-08 12:51:55*
%MOMM*%
%LPD*%
G01*
G04 APERTURE LIST*
%TA.AperFunction,ComponentPad*%
%ADD10O,1.600000X1.600000*%
%TD*%
%TA.AperFunction,ComponentPad*%
%ADD11R,1.600000X1.600000*%
%TD*%
%TA.AperFunction,ComponentPad*%
%ADD12C,1.600000*%
%TD*%
%TA.AperFunction,ComponentPad*%
%ADD13R,1.500000X1.500000*%
%TD*%
%TA.AperFunction,ComponentPad*%
%ADD14C,1.500000*%
%TD*%
%TA.AperFunction,ComponentPad*%
%ADD15O,1.400000X1.400000*%
%TD*%
%TA.AperFunction,ComponentPad*%
%ADD16C,1.400000*%
%TD*%
%TA.AperFunction,ComponentPad*%
%ADD17O,1.700000X1.700000*%
%TD*%
%TA.AperFunction,ComponentPad*%
%ADD18R,1.700000X1.700000*%
%TD*%
%TA.AperFunction,ComponentPad*%
%ADD19C,1.800000*%
%TD*%
%TA.AperFunction,ComponentPad*%
%ADD20R,1.800000X1.800000*%
%TD*%
%TA.AperFunction,ComponentPad*%
%ADD21C,2.200000*%
%TD*%
%TA.AperFunction,ViaPad*%
%ADD22C,0.800000*%
%TD*%
%TA.AperFunction,Conductor*%
%ADD23C,0.250000*%
%TD*%
G04 APERTURE END LIST*
D10*
%TO.P,U5,16*%
%TO.N,+5V*%
X275590000Y-29210000D03*
%TO.P,U5,8*%
%TO.N,GND*%
X293370000Y-36830000D03*
%TO.P,U5,15*%
%TO.N,Net-(C4-Pad2)*%
X278130000Y-29210000D03*
%TO.P,U5,7*%
%TO.N,Net-(C5-Pad2)*%
X290830000Y-36830000D03*
%TO.P,U5,14*%
%TO.N,Net-(C4-Pad1)*%
X280670000Y-29210000D03*
%TO.P,U5,6*%
%TO.N,Net-(C5-Pad1)*%
X288290000Y-36830000D03*
%TO.P,U5,13*%
%TO.N,Net-(U5-Pad13)*%
X283210000Y-29210000D03*
%TO.P,U5,5*%
%TO.N,Net-(U5-Pad5)*%
X285750000Y-36830000D03*
%TO.P,U5,12*%
%TO.N,Net-(U4-Pad9)*%
X285750000Y-29210000D03*
%TO.P,U5,4*%
%TO.N,Net-(U5-Pad10)*%
X283210000Y-36830000D03*
%TO.P,U5,11*%
%TO.N,+5V*%
X288290000Y-29210000D03*
%TO.P,U5,3*%
X280670000Y-36830000D03*
%TO.P,U5,10*%
%TO.N,Net-(U5-Pad10)*%
X290830000Y-29210000D03*
%TO.P,U5,2*%
%TO.N,~keydown*%
X278130000Y-36830000D03*
%TO.P,U5,9*%
%TO.N,GND*%
X293370000Y-29210000D03*
D11*
%TO.P,U5,1*%
X275590000Y-36830000D03*
%TD*%
D10*
%TO.P,U4,14*%
%TO.N,+5V*%
X246380000Y-29210000D03*
%TO.P,U4,7*%
%TO.N,GND*%
X261620000Y-36830000D03*
%TO.P,U4,13*%
%TO.N,N/C*%
X248920000Y-29210000D03*
%TO.P,U4,6*%
%TO.N,~keydown*%
X259080000Y-36830000D03*
%TO.P,U4,12*%
%TO.N,N/C*%
X251460000Y-29210000D03*
%TO.P,U4,5*%
%TO.N,Net-(U2-Pad7)*%
X256540000Y-36830000D03*
%TO.P,U4,11*%
%TO.N,N/C*%
X254000000Y-29210000D03*
%TO.P,U4,4*%
%TO.N,Net-(R28-Pad2)*%
X254000000Y-36830000D03*
%TO.P,U4,10*%
%TO.N,N/C*%
X256540000Y-29210000D03*
%TO.P,U4,3*%
%TO.N,B8*%
X251460000Y-36830000D03*
%TO.P,U4,9*%
%TO.N,Net-(U4-Pad9)*%
X259080000Y-29210000D03*
%TO.P,U4,2*%
%TO.N,Net-(R27-Pad2)*%
X248920000Y-36830000D03*
%TO.P,U4,8*%
%TO.N,KP*%
X261620000Y-29210000D03*
D11*
%TO.P,U4,1*%
%TO.N,B7*%
X246380000Y-36830000D03*
%TD*%
D10*
%TO.P,U3,14*%
%TO.N,+5V*%
X222250000Y-29210000D03*
%TO.P,U3,7*%
%TO.N,GND*%
X237490000Y-36830000D03*
%TO.P,U3,13*%
%TO.N,B6*%
X224790000Y-29210000D03*
%TO.P,U3,6*%
%TO.N,Net-(R23-Pad2)*%
X234950000Y-36830000D03*
%TO.P,U3,12*%
%TO.N,Net-(R26-Pad2)*%
X227330000Y-29210000D03*
%TO.P,U3,5*%
%TO.N,B3*%
X232410000Y-36830000D03*
%TO.P,U3,11*%
%TO.N,B5*%
X229870000Y-29210000D03*
%TO.P,U3,4*%
%TO.N,Net-(R22-Pad2)*%
X229870000Y-36830000D03*
%TO.P,U3,10*%
%TO.N,Net-(R25-Pad2)*%
X232410000Y-29210000D03*
%TO.P,U3,3*%
%TO.N,B2*%
X227330000Y-36830000D03*
%TO.P,U3,9*%
%TO.N,B4*%
X234950000Y-29210000D03*
%TO.P,U3,2*%
%TO.N,Net-(R21-Pad2)*%
X224790000Y-36830000D03*
%TO.P,U3,8*%
%TO.N,Net-(R24-Pad2)*%
X237490000Y-29210000D03*
D11*
%TO.P,U3,1*%
%TO.N,B1*%
X222250000Y-36830000D03*
%TD*%
D10*
%TO.P,U2,14*%
%TO.N,Net-(JP2-Pad2)*%
X246380000Y-13970000D03*
%TO.P,U2,7*%
%TO.N,Net-(U2-Pad7)*%
X261620000Y-21590000D03*
%TO.P,U2,13*%
%TO.N,Net-(Q3-Pad3)*%
X248920000Y-13970000D03*
%TO.P,U2,6*%
%TO.N,B7*%
X259080000Y-21590000D03*
%TO.P,U2,12*%
%TO.N,Net-(D2-Pad1)*%
X251460000Y-13970000D03*
%TO.P,U2,5*%
%TO.N,B7*%
X256540000Y-21590000D03*
%TO.P,U2,11*%
%TO.N,+5V*%
X254000000Y-13970000D03*
%TO.P,U2,4*%
%TO.N,GND*%
X254000000Y-21590000D03*
%TO.P,U2,10*%
%TO.N,Net-(D2-Pad1)*%
X256540000Y-13970000D03*
%TO.P,U2,3*%
%TO.N,B6*%
X251460000Y-21590000D03*
%TO.P,U2,9*%
%TO.N,Net-(R17-Pad1)*%
X259080000Y-13970000D03*
%TO.P,U2,2*%
%TO.N,B6*%
X248920000Y-21590000D03*
%TO.P,U2,8*%
%TO.N,Net-(Q4-Pad3)*%
X261620000Y-13970000D03*
D11*
%TO.P,U2,1*%
%TO.N,B5*%
X246380000Y-21590000D03*
%TD*%
D10*
%TO.P,U1,14*%
%TO.N,Net-(D3-Pad1)*%
X222250000Y-13970000D03*
%TO.P,U1,7*%
%TO.N,B5*%
X237490000Y-21590000D03*
%TO.P,U1,13*%
%TO.N,Net-(D1-Pad1)*%
X224790000Y-13970000D03*
%TO.P,U1,6*%
%TO.N,Net-(U1-Pad6)*%
X234950000Y-21590000D03*
%TO.P,U1,12*%
%TO.N,Net-(D11-Pad1)*%
X227330000Y-13970000D03*
%TO.P,U1,5*%
%TO.N,B4*%
X232410000Y-21590000D03*
%TO.P,U1,11*%
%TO.N,+5V*%
X229870000Y-13970000D03*
%TO.P,U1,4*%
%TO.N,GND*%
X229870000Y-21590000D03*
%TO.P,U1,10*%
%TO.N,Net-(Q1-Pad3)*%
X232410000Y-13970000D03*
%TO.P,U1,3*%
%TO.N,B3*%
X227330000Y-21590000D03*
%TO.P,U1,9*%
%TO.N,Net-(Q2-Pad3)*%
X234950000Y-13970000D03*
%TO.P,U1,2*%
%TO.N,B2*%
X224790000Y-21590000D03*
%TO.P,U1,8*%
%TO.N,Net-(U1-Pad6)*%
X237490000Y-13970000D03*
D11*
%TO.P,U1,1*%
%TO.N,B1*%
X222250000Y-21590000D03*
%TD*%
D10*
%TO.P,R31,2*%
%TO.N,Net-(C5-Pad2)*%
X294640000Y-49530000D03*
D12*
%TO.P,R31,1*%
%TO.N,+5V*%
X287020000Y-49530000D03*
%TD*%
D10*
%TO.P,R30,2*%
%TO.N,Net-(C4-Pad2)*%
X278130000Y-15240000D03*
D12*
%TO.P,R30,1*%
%TO.N,+5V*%
X278130000Y-22860000D03*
%TD*%
D10*
%TO.P,R17,2*%
%TO.N,B6*%
X269240000Y-21590000D03*
D12*
%TO.P,R17,1*%
%TO.N,Net-(R17-Pad1)*%
X269240000Y-13970000D03*
%TD*%
D10*
%TO.P,J1,16*%
%TO.N,+5V*%
X308610000Y-3810000D03*
%TO.P,J1,8*%
%TO.N,B7*%
X300990000Y-21590000D03*
%TO.P,J1,15*%
%TO.N,B8*%
X308610000Y-6350000D03*
%TO.P,J1,7*%
%TO.N,B6*%
X300990000Y-19050000D03*
%TO.P,J1,14*%
%TO.N,KP*%
X308610000Y-8890000D03*
%TO.P,J1,6*%
%TO.N,B5*%
X300990000Y-16510000D03*
%TO.P,J1,13*%
%TO.N,Net-(J1-Pad13)*%
X308610000Y-11430000D03*
%TO.P,J1,5*%
%TO.N,B1*%
X300990000Y-13970000D03*
%TO.P,J1,12*%
%TO.N,clear*%
X308610000Y-13970000D03*
%TO.P,J1,4*%
%TO.N,B2*%
X300990000Y-11430000D03*
%TO.P,J1,11*%
%TO.N,Net-(J1-Pad11)*%
X308610000Y-16510000D03*
%TO.P,J1,3*%
%TO.N,B3*%
X300990000Y-8890000D03*
%TO.P,J1,10*%
%TO.N,Net-(J1-Pad10)*%
X308610000Y-19050000D03*
%TO.P,J1,2*%
%TO.N,B4*%
X300990000Y-6350000D03*
%TO.P,J1,9*%
%TO.N,GND*%
X308610000Y-21590000D03*
D11*
%TO.P,J1,1*%
%TO.N,reset*%
X300990000Y-3810000D03*
%TD*%
D12*
%TO.P,C5,2*%
%TO.N,Net-(C5-Pad2)*%
X290790000Y-43180000D03*
%TO.P,C5,1*%
%TO.N,Net-(C5-Pad1)*%
X288290000Y-43180000D03*
%TD*%
%TO.P,C4,2*%
%TO.N,Net-(C4-Pad2)*%
X283250000Y-24130000D03*
%TO.P,C4,1*%
%TO.N,Net-(C4-Pad1)*%
X285750000Y-24130000D03*
%TD*%
%TO.P,C3,2*%
%TO.N,GND*%
X307300000Y-35560000D03*
%TO.P,C3,1*%
%TO.N,~keydown*%
X304800000Y-35560000D03*
%TD*%
D13*
%TO.P,Q4,1*%
%TO.N,+5V*%
X115570000Y-35560000D03*
D14*
%TO.P,Q4,3*%
%TO.N,Net-(Q4-Pad3)*%
X120650000Y-35560000D03*
%TO.P,Q4,2*%
%TO.N,Net-(C2-Pad2)*%
X118110000Y-35560000D03*
%TD*%
D13*
%TO.P,Q3,1*%
%TO.N,Net-(C2-Pad2)*%
X101600000Y-12700000D03*
D14*
%TO.P,Q3,3*%
%TO.N,Net-(Q3-Pad3)*%
X106680000Y-12700000D03*
%TO.P,Q3,2*%
%TO.N,Net-(Q3-Pad2)*%
X104140000Y-12700000D03*
%TD*%
D13*
%TO.P,Q2,1*%
%TO.N,Net-(C2-Pad2)*%
X101600000Y-22860000D03*
D14*
%TO.P,Q2,3*%
%TO.N,Net-(Q2-Pad3)*%
X106680000Y-22860000D03*
%TO.P,Q2,2*%
%TO.N,Net-(Q2-Pad2)*%
X104140000Y-22860000D03*
%TD*%
D13*
%TO.P,Q1,1*%
%TO.N,Net-(C2-Pad2)*%
X101600000Y-33020000D03*
D14*
%TO.P,Q1,3*%
%TO.N,Net-(Q1-Pad3)*%
X106680000Y-33020000D03*
%TO.P,Q1,2*%
%TO.N,Net-(Q1-Pad2)*%
X104140000Y-33020000D03*
%TD*%
D15*
%TO.P,R29,2*%
%TO.N,~keydown*%
X252730000Y-5080000D03*
D16*
%TO.P,R29,1*%
%TO.N,Net-(D29-Pad1)*%
X245110000Y-5080000D03*
%TD*%
D15*
%TO.P,R28,2*%
%TO.N,Net-(R28-Pad2)*%
X320040000Y-77470000D03*
D16*
%TO.P,R28,1*%
%TO.N,Net-(D28-Pad1)*%
X312420000Y-77470000D03*
%TD*%
D15*
%TO.P,R27,2*%
%TO.N,Net-(R27-Pad2)*%
X320040000Y-83820000D03*
D16*
%TO.P,R27,1*%
%TO.N,Net-(D27-Pad1)*%
X312420000Y-83820000D03*
%TD*%
D15*
%TO.P,R26,2*%
%TO.N,Net-(R26-Pad2)*%
X311150000Y-107950000D03*
D16*
%TO.P,R26,1*%
%TO.N,Net-(D26-Pad1)*%
X303530000Y-107950000D03*
%TD*%
D15*
%TO.P,R25,2*%
%TO.N,Net-(R25-Pad2)*%
X311150000Y-115570000D03*
D16*
%TO.P,R25,1*%
%TO.N,Net-(D25-Pad1)*%
X303530000Y-115570000D03*
%TD*%
D15*
%TO.P,R24,2*%
%TO.N,Net-(R24-Pad2)*%
X311150000Y-123190000D03*
D16*
%TO.P,R24,1*%
%TO.N,Net-(D24-Pad1)*%
X303530000Y-123190000D03*
%TD*%
D15*
%TO.P,R23,2*%
%TO.N,Net-(R23-Pad2)*%
X311150000Y-130810000D03*
D16*
%TO.P,R23,1*%
%TO.N,Net-(D23-Pad1)*%
X303530000Y-130810000D03*
%TD*%
D15*
%TO.P,R22,2*%
%TO.N,Net-(R22-Pad2)*%
X311150000Y-138430000D03*
D16*
%TO.P,R22,1*%
%TO.N,Net-(D22-Pad1)*%
X303530000Y-138430000D03*
%TD*%
D15*
%TO.P,R21,2*%
%TO.N,Net-(R21-Pad2)*%
X311150000Y-146050000D03*
D16*
%TO.P,R21,1*%
%TO.N,Net-(D21-Pad1)*%
X303530000Y-146050000D03*
%TD*%
D10*
%TO.P,R20,2*%
%TO.N,GND*%
X213360000Y-36830000D03*
D12*
%TO.P,R20,1*%
%TO.N,clear*%
X205740000Y-36830000D03*
%TD*%
D10*
%TO.P,R19,2*%
%TO.N,reset*%
X203200000Y-27940000D03*
D12*
%TO.P,R19,1*%
%TO.N,+5V*%
X195580000Y-27940000D03*
%TD*%
D10*
%TO.P,R18,2*%
%TO.N,GND*%
X196850000Y-36830000D03*
D12*
%TO.P,R18,1*%
%TO.N,Net-(R18-Pad1)*%
X189230000Y-36830000D03*
%TD*%
D10*
%TO.P,R16,2*%
%TO.N,+5V*%
X185420000Y-27940000D03*
D12*
%TO.P,R16,1*%
%TO.N,Net-(C2-Pad2)*%
X177800000Y-27940000D03*
%TD*%
D10*
%TO.P,R15,2*%
%TO.N,Net-(D2-Pad1)*%
X179070000Y-36830000D03*
D12*
%TO.P,R15,1*%
%TO.N,GND*%
X171450000Y-36830000D03*
%TD*%
D10*
%TO.P,R14,2*%
%TO.N,Net-(JP2-Pad2)*%
X170180000Y-10160000D03*
D12*
%TO.P,R14,1*%
%TO.N,GND*%
X162560000Y-10160000D03*
%TD*%
D10*
%TO.P,R13,2*%
%TO.N,GND*%
X170180000Y-19050000D03*
D12*
%TO.P,R13,1*%
%TO.N,Net-(D3-Pad1)*%
X162560000Y-19050000D03*
%TD*%
D10*
%TO.P,R12,2*%
%TO.N,GND*%
X170180000Y-27940000D03*
D12*
%TO.P,R12,1*%
%TO.N,Net-(D1-Pad1)*%
X162560000Y-27940000D03*
%TD*%
D10*
%TO.P,R11,2*%
%TO.N,GND*%
X153670000Y-10160000D03*
D12*
%TO.P,R11,1*%
%TO.N,Net-(D11-Pad1)*%
X146050000Y-10160000D03*
%TD*%
D10*
%TO.P,R10,2*%
%TO.N,GND*%
X153670000Y-19050000D03*
D12*
%TO.P,R10,1*%
%TO.N,Net-(Q1-Pad3)*%
X146050000Y-19050000D03*
%TD*%
D10*
%TO.P,R9,2*%
%TO.N,GND*%
X153670000Y-27940000D03*
D12*
%TO.P,R9,1*%
%TO.N,Net-(Q2-Pad3)*%
X146050000Y-27940000D03*
%TD*%
D10*
%TO.P,R8,2*%
%TO.N,GND*%
X135890000Y-10160000D03*
D12*
%TO.P,R8,1*%
%TO.N,Net-(Q3-Pad3)*%
X128270000Y-10160000D03*
%TD*%
D10*
%TO.P,R7,2*%
%TO.N,GND*%
X135890000Y-19050000D03*
D12*
%TO.P,R7,1*%
%TO.N,Net-(Q4-Pad3)*%
X128270000Y-19050000D03*
%TD*%
D10*
%TO.P,R6,2*%
%TO.N,Net-(Q3-Pad2)*%
X135890000Y-27940000D03*
D12*
%TO.P,R6,1*%
%TO.N,Net-(C2-Pad2)*%
X128270000Y-27940000D03*
%TD*%
D10*
%TO.P,R5,2*%
%TO.N,Net-(Q2-Pad2)*%
X91440000Y-6350000D03*
D12*
%TO.P,R5,1*%
%TO.N,Net-(C2-Pad2)*%
X83820000Y-6350000D03*
%TD*%
D10*
%TO.P,R4,2*%
%TO.N,Net-(Q1-Pad2)*%
X91440000Y-13970000D03*
D12*
%TO.P,R4,1*%
%TO.N,Net-(C2-Pad2)*%
X83820000Y-13970000D03*
%TD*%
D10*
%TO.P,R3,2*%
%TO.N,Net-(D13-Pad2)*%
X91440000Y-21590000D03*
D12*
%TO.P,R3,1*%
%TO.N,Net-(Q3-Pad2)*%
X83820000Y-21590000D03*
%TD*%
D10*
%TO.P,R2,2*%
%TO.N,Net-(D15-Pad2)*%
X91440000Y-29210000D03*
D12*
%TO.P,R2,1*%
%TO.N,Net-(Q2-Pad2)*%
X83820000Y-29210000D03*
%TD*%
D10*
%TO.P,R1,2*%
%TO.N,Net-(D12-Pad2)*%
X91440000Y-36830000D03*
D12*
%TO.P,R1,1*%
%TO.N,Net-(Q1-Pad2)*%
X83820000Y-36830000D03*
%TD*%
D17*
%TO.P,JP2,2*%
%TO.N,Net-(JP2-Pad2)*%
X270510000Y-6350000D03*
D18*
%TO.P,JP2,1*%
%TO.N,+5V*%
X270510000Y-3810000D03*
%TD*%
D17*
%TO.P,J2,14*%
%TO.N,+5V*%
X223520000Y-2540000D03*
%TO.P,J2,13*%
%TO.N,GND*%
X220980000Y-2540000D03*
%TO.P,J2,12*%
%TO.N,~keydown*%
X218440000Y-2540000D03*
%TO.P,J2,11*%
%TO.N,KP*%
X215900000Y-2540000D03*
%TO.P,J2,10*%
%TO.N,clear*%
X213360000Y-2540000D03*
%TO.P,J2,9*%
%TO.N,reset*%
X210820000Y-2540000D03*
%TO.P,J2,8*%
%TO.N,B1*%
X208280000Y-2540000D03*
%TO.P,J2,7*%
%TO.N,B2*%
X205740000Y-2540000D03*
%TO.P,J2,6*%
%TO.N,B3*%
X203200000Y-2540000D03*
%TO.P,J2,5*%
%TO.N,B4*%
X200660000Y-2540000D03*
%TO.P,J2,4*%
%TO.N,B5*%
X198120000Y-2540000D03*
%TO.P,J2,3*%
%TO.N,B6*%
X195580000Y-2540000D03*
%TO.P,J2,2*%
%TO.N,B7*%
X193040000Y-2540000D03*
D18*
%TO.P,J2,1*%
%TO.N,B8*%
X190500000Y-2540000D03*
%TD*%
D19*
%TO.P,D29,2*%
%TO.N,+5V*%
X233680000Y-2540000D03*
D20*
%TO.P,D29,1*%
%TO.N,Net-(D29-Pad1)*%
X233680000Y-5080000D03*
%TD*%
D19*
%TO.P,D28,2*%
%TO.N,+5V*%
X318770000Y-92710000D03*
D20*
%TO.P,D28,1*%
%TO.N,Net-(D28-Pad1)*%
X316230000Y-92710000D03*
%TD*%
%TO.P,D27,1*%
%TO.N,Net-(D27-Pad1)*%
X316230000Y-100330000D03*
D19*
%TO.P,D27,2*%
%TO.N,+5V*%
X318770000Y-100330000D03*
%TD*%
%TO.P,D26,2*%
%TO.N,+5V*%
X318770000Y-107950000D03*
D20*
%TO.P,D26,1*%
%TO.N,Net-(D26-Pad1)*%
X316230000Y-107950000D03*
%TD*%
D19*
%TO.P,D25,2*%
%TO.N,+5V*%
X318770000Y-115570000D03*
D20*
%TO.P,D25,1*%
%TO.N,Net-(D25-Pad1)*%
X316230000Y-115570000D03*
%TD*%
D19*
%TO.P,D24,2*%
%TO.N,+5V*%
X318770000Y-123190000D03*
D20*
%TO.P,D24,1*%
%TO.N,Net-(D24-Pad1)*%
X316230000Y-123190000D03*
%TD*%
D19*
%TO.P,D23,2*%
%TO.N,+5V*%
X318770000Y-130810000D03*
D20*
%TO.P,D23,1*%
%TO.N,Net-(D23-Pad1)*%
X316230000Y-130810000D03*
%TD*%
D19*
%TO.P,D22,2*%
%TO.N,+5V*%
X318770000Y-138430000D03*
D20*
%TO.P,D22,1*%
%TO.N,Net-(D22-Pad1)*%
X316230000Y-138430000D03*
%TD*%
D19*
%TO.P,D21,2*%
%TO.N,+5V*%
X318770000Y-146050000D03*
D20*
%TO.P,D21,1*%
%TO.N,Net-(D21-Pad1)*%
X316230000Y-146050000D03*
%TD*%
D21*
%TO.P,SW49,2*%
%TO.N,clear*%
X273050000Y-69850000D03*
%TO.P,SW49,1*%
%TO.N,+5V*%
X279400000Y-67310000D03*
%TD*%
%TO.P,SW48,2*%
%TO.N,reset*%
X306070000Y-49530000D03*
%TO.P,SW48,1*%
%TO.N,GND*%
X312420000Y-46990000D03*
%TD*%
%TO.P,SW47,2*%
%TO.N,Net-(D2-Pad1)*%
X24130000Y-91440000D03*
%TO.P,SW47,1*%
%TO.N,+5V*%
X30480000Y-88900000D03*
%TD*%
%TO.P,SW46,2*%
%TO.N,Net-(JP2-Pad2)*%
X39370000Y-113030000D03*
%TO.P,SW46,1*%
%TO.N,+5V*%
X45720000Y-110490000D03*
%TD*%
%TO.P,SW45,2*%
%TO.N,Net-(D1-Pad2)*%
X280670000Y-91440000D03*
%TO.P,SW45,1*%
%TO.N,Net-(D13-Pad2)*%
X287020000Y-88900000D03*
%TD*%
%TO.P,SW44,2*%
%TO.N,Net-(R18-Pad1)*%
X259080000Y-113030000D03*
%TO.P,SW44,1*%
%TO.N,Net-(D15-Pad2)*%
X265430000Y-110490000D03*
%TD*%
%TO.P,SW43,2*%
%TO.N,Net-(R18-Pad1)*%
X163830000Y-49530000D03*
%TO.P,SW43,1*%
%TO.N,Net-(D19-Pad1)*%
X170180000Y-46990000D03*
%TD*%
%TO.P,SW42,2*%
%TO.N,Net-(R18-Pad1)*%
X69850000Y-69850000D03*
%TO.P,SW42,1*%
%TO.N,Net-(D14-Pad1)*%
X76200000Y-67310000D03*
%TD*%
%TO.P,SW41,2*%
%TO.N,Net-(R18-Pad1)*%
X212090000Y-69850000D03*
%TO.P,SW41,1*%
%TO.N,Net-(D13-Pad2)*%
X218440000Y-67310000D03*
%TD*%
%TO.P,SW40,2*%
%TO.N,Net-(R18-Pad1)*%
X142240000Y-91440000D03*
%TO.P,SW40,1*%
%TO.N,Net-(D12-Pad1)*%
X148590000Y-88900000D03*
%TD*%
%TO.P,SW39,2*%
%TO.N,Net-(D3-Pad1)*%
X238760000Y-113030000D03*
%TO.P,SW39,1*%
%TO.N,Net-(D15-Pad2)*%
X245110000Y-110490000D03*
%TD*%
%TO.P,SW38,2*%
%TO.N,Net-(D3-Pad1)*%
X143510000Y-49530000D03*
%TO.P,SW38,1*%
%TO.N,Net-(D19-Pad1)*%
X149860000Y-46990000D03*
%TD*%
%TO.P,SW37,2*%
%TO.N,Net-(D3-Pad1)*%
X252730000Y-69850000D03*
%TO.P,SW37,1*%
%TO.N,Net-(D17-Pad1)*%
X259080000Y-67310000D03*
%TD*%
%TO.P,SW36,2*%
%TO.N,Net-(D3-Pad1)*%
X137160000Y-113030000D03*
%TO.P,SW36,1*%
%TO.N,Net-(D14-Pad1)*%
X143510000Y-110490000D03*
%TD*%
%TO.P,SW35,2*%
%TO.N,Net-(D3-Pad1)*%
X177800000Y-113030000D03*
%TO.P,SW35,1*%
%TO.N,Net-(D13-Pad2)*%
X184150000Y-110490000D03*
%TD*%
%TO.P,SW34,2*%
%TO.N,Net-(D3-Pad1)*%
X121920000Y-91440000D03*
%TO.P,SW34,1*%
%TO.N,Net-(D12-Pad1)*%
X128270000Y-88900000D03*
%TD*%
%TO.P,SW33,2*%
%TO.N,Net-(D1-Pad1)*%
X265430000Y-49530000D03*
%TO.P,SW33,1*%
%TO.N,Net-(D15-Pad2)*%
X271780000Y-46990000D03*
%TD*%
%TO.P,SW32,2*%
%TO.N,Net-(D1-Pad1)*%
X123190000Y-49530000D03*
%TO.P,SW32,1*%
%TO.N,Net-(D19-Pad1)*%
X129540000Y-46990000D03*
%TD*%
%TO.P,SW31,2*%
%TO.N,Net-(D1-Pad1)*%
X171450000Y-69850000D03*
%TO.P,SW31,1*%
%TO.N,Net-(D14-Pad1)*%
X177800000Y-67310000D03*
%TD*%
%TO.P,SW30,2*%
%TO.N,Net-(D1-Pad1)*%
X198120000Y-113030000D03*
%TO.P,SW30,1*%
%TO.N,Net-(D13-Pad2)*%
X204470000Y-110490000D03*
%TD*%
%TO.P,SW29,2*%
%TO.N,Net-(D1-Pad1)*%
X90170000Y-69850000D03*
%TO.P,SW29,1*%
%TO.N,Net-(D12-Pad1)*%
X96520000Y-67310000D03*
%TD*%
%TO.P,SW28,2*%
%TO.N,Net-(D3-Pad2)*%
X218440000Y-113030000D03*
%TO.P,SW28,1*%
%TO.N,Net-(D15-Pad2)*%
X224790000Y-110490000D03*
%TD*%
%TO.P,SW27,2*%
%TO.N,Net-(D3-Pad2)*%
X102870000Y-49530000D03*
%TO.P,SW27,1*%
%TO.N,Net-(D19-Pad1)*%
X109220000Y-46990000D03*
%TD*%
%TO.P,SW26,2*%
%TO.N,Net-(D3-Pad2)*%
X130810000Y-69850000D03*
%TO.P,SW26,1*%
%TO.N,Net-(D14-Pad1)*%
X137160000Y-67310000D03*
%TD*%
%TO.P,SW25,2*%
%TO.N,Net-(D3-Pad2)*%
X223520000Y-91440000D03*
%TO.P,SW25,1*%
%TO.N,Net-(D13-Pad2)*%
X229870000Y-88900000D03*
%TD*%
%TO.P,SW24,2*%
%TO.N,Net-(D3-Pad2)*%
X101600000Y-91440000D03*
%TO.P,SW24,1*%
%TO.N,Net-(D12-Pad1)*%
X107950000Y-88900000D03*
%TD*%
%TO.P,SW23,2*%
%TO.N,Net-(D11-Pad1)*%
X243840000Y-91440000D03*
%TO.P,SW23,1*%
%TO.N,Net-(D15-Pad2)*%
X250190000Y-88900000D03*
%TD*%
%TO.P,SW22,2*%
%TO.N,Net-(D11-Pad1)*%
X82550000Y-49530000D03*
%TO.P,SW22,1*%
%TO.N,Net-(D19-Pad1)*%
X88900000Y-46990000D03*
%TD*%
%TO.P,SW21,2*%
%TO.N,Net-(D11-Pad1)*%
X81280000Y-91440000D03*
%TO.P,SW21,1*%
%TO.N,Net-(D14-Pad1)*%
X87630000Y-88900000D03*
%TD*%
%TO.P,SW20,2*%
%TO.N,Net-(D11-Pad1)*%
X203200000Y-91440000D03*
%TO.P,SW20,1*%
%TO.N,Net-(D13-Pad2)*%
X209550000Y-88900000D03*
%TD*%
%TO.P,SW19,2*%
%TO.N,Net-(D11-Pad1)*%
X116840000Y-113030000D03*
%TO.P,SW19,1*%
%TO.N,Net-(D12-Pad1)*%
X123190000Y-110490000D03*
%TD*%
%TO.P,SW18,2*%
%TO.N,Net-(D5-Pad2)*%
X245110000Y-49530000D03*
%TO.P,SW18,1*%
%TO.N,Net-(D15-Pad2)*%
X251460000Y-46990000D03*
%TD*%
%TO.P,SW17,2*%
%TO.N,Net-(D5-Pad2)*%
X62230000Y-49530000D03*
%TO.P,SW17,1*%
%TO.N,Net-(D19-Pad1)*%
X68580000Y-46990000D03*
%TD*%
%TO.P,SW16,2*%
%TO.N,Net-(D5-Pad2)*%
X76200000Y-113030000D03*
%TO.P,SW16,1*%
%TO.N,Net-(D17-Pad1)*%
X82550000Y-110490000D03*
%TD*%
%TO.P,SW15,2*%
%TO.N,Net-(D5-Pad2)*%
X110490000Y-69850000D03*
%TO.P,SW15,1*%
%TO.N,Net-(D14-Pad1)*%
X116840000Y-67310000D03*
%TD*%
%TO.P,SW14,2*%
%TO.N,Net-(D5-Pad2)*%
X182880000Y-91440000D03*
%TO.P,SW14,1*%
%TO.N,Net-(D13-Pad2)*%
X189230000Y-88900000D03*
%TD*%
%TO.P,SW13,2*%
%TO.N,Net-(D5-Pad2)*%
X157480000Y-113030000D03*
%TO.P,SW13,1*%
%TO.N,Net-(D12-Pad1)*%
X163830000Y-110490000D03*
%TD*%
%TO.P,SW12,2*%
%TO.N,Net-(D7-Pad2)*%
X204470000Y-49530000D03*
%TO.P,SW12,1*%
%TO.N,Net-(D15-Pad2)*%
X210820000Y-46990000D03*
%TD*%
%TO.P,SW11,2*%
%TO.N,Net-(D7-Pad2)*%
X41910000Y-49530000D03*
%TO.P,SW11,1*%
%TO.N,Net-(D19-Pad1)*%
X48260000Y-46990000D03*
%TD*%
%TO.P,SW10,2*%
%TO.N,Net-(D7-Pad2)*%
X151130000Y-69850000D03*
%TO.P,SW10,1*%
%TO.N,Net-(D17-Pad1)*%
X157480000Y-67310000D03*
%TD*%
%TO.P,SW9,2*%
%TO.N,Net-(D7-Pad2)*%
X49530000Y-69850000D03*
%TO.P,SW9,1*%
%TO.N,Net-(D14-Pad1)*%
X55880000Y-67310000D03*
%TD*%
%TO.P,SW8,2*%
%TO.N,Net-(D7-Pad2)*%
X191770000Y-69850000D03*
%TO.P,SW8,1*%
%TO.N,Net-(D13-Pad2)*%
X198120000Y-67310000D03*
%TD*%
%TO.P,SW7,2*%
%TO.N,Net-(D7-Pad2)*%
X60960000Y-91440000D03*
%TO.P,SW7,1*%
%TO.N,Net-(D12-Pad1)*%
X67310000Y-88900000D03*
%TD*%
%TO.P,SW6,2*%
%TO.N,Net-(D10-Pad2)*%
X184150000Y-49530000D03*
%TO.P,SW6,1*%
%TO.N,Net-(D15-Pad2)*%
X190500000Y-46990000D03*
%TD*%
%TO.P,SW5,2*%
%TO.N,Net-(D10-Pad2)*%
X224790000Y-49530000D03*
%TO.P,SW5,1*%
%TO.N,Net-(D19-Pad1)*%
X231140000Y-46990000D03*
%TD*%
%TO.P,SW4,2*%
%TO.N,Net-(D10-Pad2)*%
X96520000Y-113030000D03*
%TO.P,SW4,1*%
%TO.N,Net-(D17-Pad1)*%
X102870000Y-110490000D03*
%TD*%
%TO.P,SW3,2*%
%TO.N,Net-(D10-Pad2)*%
X232410000Y-69850000D03*
%TO.P,SW3,1*%
%TO.N,Net-(D14-Pad1)*%
X238760000Y-67310000D03*
%TD*%
%TO.P,SW2,2*%
%TO.N,Net-(D10-Pad2)*%
X162560000Y-91440000D03*
%TO.P,SW2,1*%
%TO.N,Net-(D13-Pad2)*%
X168910000Y-88900000D03*
%TD*%
%TO.P,SW1,2*%
%TO.N,Net-(D10-Pad2)*%
X146050000Y-135890000D03*
%TO.P,SW1,1*%
%TO.N,Net-(D12-Pad2)*%
X152400000Y-133350000D03*
%TD*%
D17*
%TO.P,JP1,3*%
%TO.N,+5V*%
X284480000Y-8890000D03*
%TO.P,JP1,2*%
%TO.N,B8*%
X284480000Y-6350000D03*
D18*
%TO.P,JP1,1*%
%TO.N,GND*%
X284480000Y-3810000D03*
%TD*%
D10*
%TO.P,D20,2*%
%TO.N,Net-(D15-Pad2)*%
X71120000Y-12700000D03*
D11*
%TO.P,D20,1*%
%TO.N,Net-(D19-Pad1)*%
X63500000Y-12700000D03*
%TD*%
D10*
%TO.P,D19,2*%
%TO.N,Net-(D12-Pad2)*%
X71120000Y-21590000D03*
D11*
%TO.P,D19,1*%
%TO.N,Net-(D19-Pad1)*%
X63500000Y-21590000D03*
%TD*%
D10*
%TO.P,D18,2*%
%TO.N,Net-(D13-Pad2)*%
X71120000Y-29210000D03*
D11*
%TO.P,D18,1*%
%TO.N,Net-(D17-Pad1)*%
X63500000Y-29210000D03*
%TD*%
D10*
%TO.P,D17,2*%
%TO.N,Net-(D15-Pad2)*%
X71120000Y-36830000D03*
D11*
%TO.P,D17,1*%
%TO.N,Net-(D17-Pad1)*%
X63500000Y-36830000D03*
%TD*%
D10*
%TO.P,D16,2*%
%TO.N,Net-(D13-Pad2)*%
X50800000Y-5080000D03*
D11*
%TO.P,D16,1*%
%TO.N,Net-(D14-Pad1)*%
X43180000Y-5080000D03*
%TD*%
D10*
%TO.P,D15,2*%
%TO.N,Net-(D15-Pad2)*%
X50800000Y-12700000D03*
D11*
%TO.P,D15,1*%
%TO.N,Net-(D14-Pad1)*%
X43180000Y-12700000D03*
%TD*%
D10*
%TO.P,D14,2*%
%TO.N,Net-(D12-Pad2)*%
X50800000Y-21590000D03*
D11*
%TO.P,D14,1*%
%TO.N,Net-(D14-Pad1)*%
X43180000Y-21590000D03*
%TD*%
D10*
%TO.P,D13,2*%
%TO.N,Net-(D13-Pad2)*%
X50800000Y-29210000D03*
D11*
%TO.P,D13,1*%
%TO.N,Net-(D12-Pad1)*%
X43180000Y-29210000D03*
%TD*%
D10*
%TO.P,D12,2*%
%TO.N,Net-(D12-Pad2)*%
X50800000Y-36830000D03*
D11*
%TO.P,D12,1*%
%TO.N,Net-(D12-Pad1)*%
X43180000Y-36830000D03*
%TD*%
D10*
%TO.P,D11,2*%
%TO.N,Net-(D10-Pad2)*%
X30480000Y-12700000D03*
D11*
%TO.P,D11,1*%
%TO.N,Net-(D11-Pad1)*%
X22860000Y-12700000D03*
%TD*%
D10*
%TO.P,D10,2*%
%TO.N,Net-(D10-Pad2)*%
X30480000Y-20320000D03*
D11*
%TO.P,D10,1*%
%TO.N,Net-(D1-Pad1)*%
X22860000Y-20320000D03*
%TD*%
D10*
%TO.P,D9,2*%
%TO.N,Net-(D10-Pad2)*%
X30480000Y-29210000D03*
D11*
%TO.P,D9,1*%
%TO.N,Net-(D3-Pad1)*%
X22860000Y-29210000D03*
%TD*%
D10*
%TO.P,D8,2*%
%TO.N,Net-(D7-Pad2)*%
X30480000Y-36830000D03*
D11*
%TO.P,D8,1*%
%TO.N,Net-(D11-Pad1)*%
X22860000Y-36830000D03*
%TD*%
D10*
%TO.P,D7,2*%
%TO.N,Net-(D7-Pad2)*%
X11430000Y-5080000D03*
D11*
%TO.P,D7,1*%
%TO.N,Net-(D1-Pad1)*%
X3810000Y-5080000D03*
%TD*%
D10*
%TO.P,D6,2*%
%TO.N,Net-(D5-Pad2)*%
X11430000Y-12700000D03*
D11*
%TO.P,D6,1*%
%TO.N,Net-(D11-Pad1)*%
X3810000Y-12700000D03*
%TD*%
D10*
%TO.P,D5,2*%
%TO.N,Net-(D5-Pad2)*%
X11430000Y-21590000D03*
D11*
%TO.P,D5,1*%
%TO.N,Net-(D3-Pad1)*%
X3810000Y-21590000D03*
%TD*%
D10*
%TO.P,D4,2*%
%TO.N,Net-(D3-Pad2)*%
X11430000Y-29210000D03*
D11*
%TO.P,D4,1*%
%TO.N,Net-(D1-Pad1)*%
X3810000Y-29210000D03*
%TD*%
D10*
%TO.P,D3,2*%
%TO.N,Net-(D3-Pad2)*%
X11430000Y-36830000D03*
D11*
%TO.P,D3,1*%
%TO.N,Net-(D3-Pad1)*%
X3810000Y-36830000D03*
%TD*%
D10*
%TO.P,D2,2*%
%TO.N,Net-(D1-Pad2)*%
X158750000Y-36830000D03*
D11*
%TO.P,D2,1*%
%TO.N,Net-(D2-Pad1)*%
X151130000Y-36830000D03*
%TD*%
D10*
%TO.P,D1,2*%
%TO.N,Net-(D1-Pad2)*%
X139700000Y-36830000D03*
D11*
%TO.P,D1,1*%
%TO.N,Net-(D1-Pad1)*%
X132080000Y-36830000D03*
%TD*%
D10*
%TO.P,C2,2*%
%TO.N,Net-(C2-Pad2)*%
X116840000Y-6590000D03*
D12*
%TO.P,C2,1*%
%TO.N,+5V*%
X116840000Y-21590000D03*
%TD*%
%TO.P,C1,2*%
%TO.N,+5V*%
X313650000Y-27940000D03*
%TO.P,C1,1*%
%TO.N,GND*%
X311150000Y-27940000D03*
%TD*%
D22*
%TO.N,+5V*%
X241461700Y-31518900D03*
X48796100Y-74245300D03*
X114294400Y-47607200D03*
X278978900Y-48333200D03*
%TO.N,GND*%
X261969800Y-31796500D03*
X263901300Y-35616100D03*
%TO.N,Net-(D1-Pad1)*%
X186181400Y-88499300D03*
X163226900Y-70309200D03*
%TO.N,Net-(D2-Pad1)*%
X215575900Y-19766200D03*
X125116300Y-47146400D03*
%TO.N,Net-(D3-Pad2)*%
X115734900Y-91440000D03*
%TO.N,Net-(D3-Pad1)*%
X247543300Y-88499500D03*
X108690800Y-44810400D03*
%TO.N,Net-(D5-Pad2)*%
X214839700Y-64178400D03*
X160865500Y-112092500D03*
X109055800Y-111586500D03*
%TO.N,Net-(D11-Pad1)*%
X215713500Y-10254800D03*
X199810900Y-10152900D03*
X143861800Y-95644900D03*
X72107200Y-27310500D03*
X103075800Y-89464600D03*
%TO.N,Net-(D10-Pad2)*%
X226649100Y-60137500D03*
%TO.N,Net-(D12-Pad1)*%
X96457900Y-87452000D03*
%TO.N,Net-(D13-Pad2)*%
X147887100Y-72954500D03*
%TO.N,Net-(D14-Pad1)*%
X95757500Y-63186200D03*
%TO.N,Net-(D15-Pad2)*%
X182490200Y-39937400D03*
X76274100Y-32503400D03*
%TO.N,Net-(D17-Pad1)*%
X98736800Y-70380500D03*
%TO.N,B7*%
X259606600Y-34627900D03*
%TO.N,B6*%
X245560300Y-26330200D03*
%TO.N,B5*%
X228787200Y-17614900D03*
X235161300Y-18817000D03*
X249946900Y-25136100D03*
%TO.N,B1*%
X221124700Y-25144600D03*
X217817000Y-14159700D03*
X212257600Y-7299700D03*
%TO.N,clear*%
X263992000Y-44967500D03*
%TO.N,B2*%
X227089700Y-26254800D03*
X224649000Y-17481200D03*
X208096100Y-7299700D03*
%TO.N,B3*%
X225709200Y-11450500D03*
%TO.N,B4*%
X234682000Y-27005100D03*
X226723100Y-15820500D03*
%TO.N,Net-(Q3-Pad3)*%
X255044600Y-24133300D03*
%TO.N,Net-(R18-Pad1)*%
X184323600Y-38959300D03*
X84504200Y-90325400D03*
X153721200Y-84801500D03*
%TO.N,Net-(Q1-Pad3)*%
X208856100Y-19313800D03*
%TO.N,Net-(Q2-Pad3)*%
X201578200Y-24512100D03*
%TO.N,B8*%
X262858500Y-38399400D03*
%TO.N,Net-(JP2-Pad2)*%
X193189700Y-5821500D03*
X121503700Y-53905500D03*
%TO.N,~keydown*%
X263719500Y-32098400D03*
%TO.N,Net-(Q4-Pad3)*%
X128902300Y-21422200D03*
%TO.N,Net-(R26-Pad2)*%
X283462900Y-90984300D03*
%TO.N,Net-(U1-Pad6)*%
X234659200Y-17429700D03*
%TD*%
D23*
%TO.N,+5V*%
X37344400Y-88900000D02*
X37344400Y-85697000D01*
X37344400Y-85697000D02*
X48796100Y-74245300D01*
X37344400Y-88900000D02*
X45720000Y-97275600D01*
X45720000Y-97275600D02*
X45720000Y-110490000D01*
X37344400Y-88900000D02*
X30480000Y-88900000D01*
X287164700Y-29210000D02*
X287164700Y-29491300D01*
X287164700Y-29491300D02*
X284065100Y-32590900D01*
X284065100Y-32590900D02*
X277125500Y-32590900D01*
X277125500Y-32590900D02*
X273952900Y-35763500D01*
X273952900Y-35763500D02*
X273952900Y-37954800D01*
X273952900Y-37954800D02*
X275717200Y-39719100D01*
X275717200Y-39719100D02*
X278906200Y-39719100D01*
X287020000Y-49530000D02*
X287020000Y-59690000D01*
X287020000Y-59690000D02*
X279400000Y-67310000D01*
X280035000Y-12159700D02*
X271685300Y-3810000D01*
X278130000Y-22860000D02*
X280035000Y-20955000D01*
X280035000Y-20955000D02*
X280035000Y-12159700D01*
X283304700Y-8890000D02*
X280035000Y-12159700D01*
X284480000Y-8890000D02*
X283304700Y-8890000D01*
X270510000Y-3810000D02*
X271685300Y-3810000D01*
X251655700Y-4644800D02*
X251655700Y-10500400D01*
X251655700Y-10500400D02*
X254000000Y-12844700D01*
X270510000Y-3810000D02*
X252490500Y-3810000D01*
X252490500Y-3810000D02*
X251655700Y-4644800D01*
X233680000Y-2540000D02*
X249550900Y-2540000D01*
X249550900Y-2540000D02*
X251655700Y-4644800D01*
X254000000Y-13970000D02*
X254000000Y-12844700D01*
X288290000Y-29210000D02*
X287164700Y-29210000D01*
X241461700Y-29210000D02*
X241461700Y-31518900D01*
X229870000Y-13970000D02*
X229870000Y-15095300D01*
X241461700Y-29210000D02*
X240950100Y-29210000D01*
X240950100Y-29210000D02*
X233680000Y-21939900D01*
X233680000Y-21939900D02*
X233680000Y-18905300D01*
X233680000Y-18905300D02*
X229870000Y-15095300D01*
X246380000Y-29210000D02*
X241461700Y-29210000D01*
X115570000Y-35560000D02*
X115570000Y-36635300D01*
X115570000Y-36635300D02*
X114294400Y-37910900D01*
X114294400Y-37910900D02*
X114294400Y-47607200D01*
X116840000Y-21590000D02*
X115570000Y-22860000D01*
X115570000Y-22860000D02*
X115570000Y-35560000D01*
X278906200Y-39719100D02*
X278906200Y-48260500D01*
X278906200Y-48260500D02*
X278978900Y-48333200D01*
X280670000Y-37955300D02*
X278906200Y-39719100D01*
X280670000Y-36830000D02*
X280670000Y-37955300D01*
X278130000Y-22860000D02*
X275590000Y-25400000D01*
X275590000Y-25400000D02*
X275590000Y-29210000D01*
X318770000Y-100330000D02*
X318770000Y-92710000D01*
X318770000Y-107950000D02*
X318770000Y-100330000D01*
X318770000Y-115570000D02*
X318770000Y-107950000D01*
X318770000Y-123190000D02*
X318770000Y-115570000D01*
X318770000Y-130810000D02*
X318770000Y-123190000D01*
X318770000Y-138430000D02*
X318770000Y-130810000D01*
X318770000Y-146050000D02*
X318770000Y-138430000D01*
X308610000Y-3810000D02*
X308610000Y-4935300D01*
X313650000Y-27940000D02*
X313650000Y-9694000D01*
X313650000Y-9694000D02*
X308891300Y-4935300D01*
X308891300Y-4935300D02*
X308610000Y-4935300D01*
%TO.N,GND*%
X253822900Y-21590000D02*
X253822900Y-23937300D01*
X253822900Y-23937300D02*
X254744200Y-24858600D01*
X254744200Y-24858600D02*
X258870300Y-24858600D01*
X258870300Y-24858600D02*
X262774900Y-28763200D01*
X262774900Y-28763200D02*
X262774900Y-30991400D01*
X262774900Y-30991400D02*
X261969800Y-31796500D01*
X307300000Y-35560000D02*
X311150000Y-31710000D01*
X311150000Y-31710000D02*
X311150000Y-27940000D01*
X308610000Y-21590000D02*
X308610000Y-22715300D01*
X311150000Y-27940000D02*
X311150000Y-25255300D01*
X311150000Y-25255300D02*
X308610000Y-22715300D01*
X284480000Y-3810000D02*
X284480000Y-4985300D01*
X284480000Y-4985300D02*
X284847300Y-4985300D01*
X284847300Y-4985300D02*
X292244700Y-12382700D01*
X292244700Y-12382700D02*
X292244700Y-29210000D01*
X293370000Y-29210000D02*
X292244700Y-29210000D01*
X275590000Y-36830000D02*
X276715300Y-36830000D01*
X276715300Y-36830000D02*
X276715300Y-36548700D01*
X276715300Y-36548700D02*
X279023100Y-34240900D01*
X279023100Y-34240900D02*
X287495100Y-34240900D01*
X287495100Y-34240900D02*
X292244700Y-29491300D01*
X292244700Y-29491300D02*
X292244700Y-29210000D01*
X254000000Y-21590000D02*
X253822900Y-21590000D01*
X253437400Y-21590000D02*
X252874700Y-21590000D01*
X253437400Y-21590000D02*
X253822900Y-21590000D01*
X261620000Y-36830000D02*
X262745300Y-36830000D01*
X263901300Y-35616100D02*
X262745300Y-36772100D01*
X262745300Y-36772100D02*
X262745300Y-36830000D01*
X222155300Y-2540000D02*
X222155300Y-2907400D01*
X222155300Y-2907400D02*
X226003500Y-6755600D01*
X226003500Y-6755600D02*
X236033100Y-6755600D01*
X236033100Y-6755600D02*
X243024400Y-13746900D01*
X243024400Y-13746900D02*
X243661300Y-13746900D01*
X243661300Y-13746900D02*
X250379100Y-20464700D01*
X250379100Y-20464700D02*
X252030800Y-20464700D01*
X252030800Y-20464700D02*
X252874700Y-21308600D01*
X252874700Y-21308600D02*
X252874700Y-21590000D01*
X135890000Y-14605000D02*
X135890000Y-10160000D01*
X135890000Y-19050000D02*
X135890000Y-14605000D01*
X153670000Y-14605000D02*
X135890000Y-14605000D01*
X153670000Y-14605000D02*
X153670000Y-10160000D01*
X153670000Y-19050000D02*
X153670000Y-14605000D01*
X237490000Y-36830000D02*
X237490000Y-35704700D01*
X229870000Y-21590000D02*
X229870000Y-22715300D01*
X229870000Y-22715300D02*
X230995300Y-23840600D01*
X230995300Y-23840600D02*
X230995300Y-29491300D01*
X230995300Y-29491300D02*
X237208700Y-35704700D01*
X237208700Y-35704700D02*
X237490000Y-35704700D01*
X170180000Y-19050000D02*
X170180000Y-27940000D01*
X153670000Y-27940000D02*
X153670000Y-19050000D01*
X220980000Y-2540000D02*
X222155300Y-2540000D01*
%TO.N,Net-(C2-Pad2)*%
X118110000Y-35560000D02*
X125730000Y-27940000D01*
X125730000Y-27940000D02*
X128270000Y-27940000D01*
X101600000Y-33020000D02*
X102675300Y-33020000D01*
X104587500Y-23943400D02*
X105235400Y-24591300D01*
X105235400Y-24591300D02*
X105235400Y-33452700D01*
X105235400Y-33452700D02*
X104592800Y-34095300D01*
X104592800Y-34095300D02*
X103616100Y-34095300D01*
X103616100Y-34095300D02*
X102675300Y-33154500D01*
X102675300Y-33154500D02*
X102675300Y-33020000D01*
X104587500Y-23943400D02*
X105255800Y-23275100D01*
X105255800Y-23275100D02*
X105255800Y-17515800D01*
X105255800Y-17515800D02*
X102675300Y-14935300D01*
X102675300Y-14935300D02*
X102675300Y-12700000D01*
X102675300Y-22860000D02*
X102675300Y-22994400D01*
X102675300Y-22994400D02*
X103624300Y-23943400D01*
X103624300Y-23943400D02*
X104587500Y-23943400D01*
X101600000Y-22860000D02*
X102675300Y-22860000D01*
X101600000Y-12700000D02*
X102675300Y-12700000D01*
X116840000Y-6590000D02*
X108650900Y-6590000D01*
X108650900Y-6590000D02*
X102675300Y-12565600D01*
X102675300Y-12565600D02*
X102675300Y-12700000D01*
%TO.N,Net-(D1-Pad2)*%
X159875300Y-36830000D02*
X161450900Y-38405600D01*
X161450900Y-38405600D02*
X183851600Y-38405600D01*
X183851600Y-38405600D02*
X184023200Y-38234000D01*
X184023200Y-38234000D02*
X185721100Y-38234000D01*
X185721100Y-38234000D02*
X186854800Y-39367700D01*
X186854800Y-39367700D02*
X208235900Y-39367700D01*
X208235900Y-39367700D02*
X239557500Y-70689300D01*
X239557500Y-70689300D02*
X243193800Y-70689300D01*
X243193800Y-70689300D02*
X263944500Y-91440000D01*
X263944500Y-91440000D02*
X280670000Y-91440000D01*
X158750000Y-36830000D02*
X159875300Y-36830000D01*
%TO.N,Net-(D1-Pad1)*%
X226759200Y-12844700D02*
X226759200Y-11474700D01*
X226759200Y-11474700D02*
X226009700Y-10725200D01*
X226009700Y-10725200D02*
X220205700Y-10725200D01*
X220205700Y-10725200D02*
X217034500Y-13896400D01*
X217034500Y-13896400D02*
X217034500Y-27788800D01*
X217034500Y-27788800D02*
X206377000Y-38446300D01*
X206377000Y-38446300D02*
X186888600Y-38446300D01*
X186888600Y-38446300D02*
X186226000Y-37783700D01*
X186226000Y-37783700D02*
X183836600Y-37783700D01*
X183836600Y-37783700D02*
X183665000Y-37955300D01*
X183665000Y-37955300D02*
X170913400Y-37955300D01*
X170913400Y-37955300D02*
X163451100Y-30493000D01*
X226759200Y-12844700D02*
X230384100Y-12844700D01*
X230384100Y-12844700D02*
X231140000Y-13600600D01*
X231140000Y-13600600D02*
X231140000Y-14356700D01*
X231140000Y-14356700D02*
X231938200Y-15154900D01*
X231938200Y-15154900D02*
X233498800Y-15154900D01*
X233498800Y-15154900D02*
X244835000Y-26491100D01*
X244835000Y-26491100D02*
X244835000Y-26630600D01*
X244835000Y-26630600D02*
X245259900Y-27055500D01*
X245259900Y-27055500D02*
X245817800Y-27055500D01*
X245817800Y-27055500D02*
X247650000Y-28887700D01*
X247650000Y-28887700D02*
X247650000Y-29587800D01*
X247650000Y-29587800D02*
X249331700Y-31269500D01*
X249331700Y-31269500D02*
X250034600Y-31269500D01*
X250034600Y-31269500D02*
X255324600Y-36559500D01*
X255324600Y-36559500D02*
X255324600Y-39424600D01*
X255324600Y-39424600D02*
X265430000Y-49530000D01*
X225915300Y-13970000D02*
X225915300Y-13688600D01*
X225915300Y-13688600D02*
X226759200Y-12844700D01*
X186181400Y-88499300D02*
X190043300Y-92361200D01*
X190043300Y-92361200D02*
X190043300Y-104953300D01*
X190043300Y-104953300D02*
X198120000Y-113030000D01*
X162560000Y-27940000D02*
X162560000Y-29601900D01*
X162560000Y-29601900D02*
X163451100Y-30493000D01*
X163451100Y-30493000D02*
X157598400Y-36345700D01*
X157598400Y-36345700D02*
X157598400Y-64680700D01*
X157598400Y-64680700D02*
X163226900Y-70309200D01*
X132080000Y-36830000D02*
X132080000Y-37955300D01*
X132080000Y-37955300D02*
X123190000Y-46845300D01*
X123190000Y-46845300D02*
X123190000Y-49530000D01*
X90170000Y-69850000D02*
X87225600Y-69850000D01*
X87225600Y-69850000D02*
X60671400Y-43295800D01*
X60671400Y-43295800D02*
X42911100Y-43295800D01*
X42911100Y-43295800D02*
X22860000Y-23244700D01*
X22860000Y-23244700D02*
X22860000Y-20320000D01*
X3810000Y-5080000D02*
X3810000Y-6205300D01*
X10222000Y-11560500D02*
X4866800Y-6205300D01*
X4866800Y-6205300D02*
X3810000Y-6205300D01*
X3810000Y-28084700D02*
X10222000Y-21672700D01*
X10222000Y-21672700D02*
X10222000Y-11560500D01*
X10222000Y-11560500D02*
X12975200Y-11560500D01*
X12975200Y-11560500D02*
X21734700Y-20320000D01*
X3810000Y-29210000D02*
X3810000Y-28084700D01*
X22860000Y-20320000D02*
X21734700Y-20320000D01*
X224790000Y-13970000D02*
X225915300Y-13970000D01*
%TO.N,Net-(D2-Pad1)*%
X179070000Y-36830000D02*
X185909300Y-36830000D01*
X185909300Y-36830000D02*
X187035700Y-37956400D01*
X187035700Y-37956400D02*
X206230000Y-37956400D01*
X206230000Y-37956400D02*
X215575900Y-28610500D01*
X215575900Y-28610500D02*
X215575900Y-19766200D01*
X151130000Y-36830000D02*
X150004700Y-36830000D01*
X150004700Y-36830000D02*
X148879400Y-37955300D01*
X148879400Y-37955300D02*
X134307400Y-37955300D01*
X134307400Y-37955300D02*
X125116300Y-47146400D01*
%TO.N,Net-(D3-Pad2)*%
X127395800Y-72751700D02*
X127395800Y-79779100D01*
X127395800Y-79779100D02*
X115734900Y-91440000D01*
X130810000Y-69850000D02*
X130297500Y-69850000D01*
X130297500Y-69850000D02*
X127395800Y-72751700D01*
X102870000Y-49530000D02*
X102870000Y-51602300D01*
X102870000Y-51602300D02*
X109294200Y-58026500D01*
X109294200Y-58026500D02*
X112670600Y-58026500D01*
X112670600Y-58026500D02*
X127395800Y-72751700D01*
X223520000Y-91440000D02*
X223520000Y-107950000D01*
X223520000Y-107950000D02*
X218440000Y-113030000D01*
X11430000Y-36830000D02*
X11430000Y-29210000D01*
%TO.N,Net-(D3-Pad1)*%
X238760000Y-113030000D02*
X238760000Y-99581400D01*
X238760000Y-99581400D02*
X247543300Y-90798100D01*
X247543300Y-90798100D02*
X247543300Y-88499500D01*
X222250000Y-13970000D02*
X222250000Y-15095300D01*
X143510000Y-49530000D02*
X155866100Y-37173900D01*
X155866100Y-37173900D02*
X155866100Y-25743900D01*
X155866100Y-25743900D02*
X162560000Y-19050000D01*
X132238500Y-81121500D02*
X121920000Y-91440000D01*
X108690800Y-44810400D02*
X109114000Y-44810400D01*
X109114000Y-44810400D02*
X132238500Y-67934900D01*
X132238500Y-67934900D02*
X132238500Y-81121500D01*
X132238500Y-81121500D02*
X136505300Y-81121500D01*
X136505300Y-81121500D02*
X148419300Y-93035500D01*
X148419300Y-93035500D02*
X148419300Y-101770700D01*
X148419300Y-101770700D02*
X137160000Y-113030000D01*
X252730000Y-69850000D02*
X252730000Y-66471300D01*
X252730000Y-66471300D02*
X223375300Y-37116600D01*
X223375300Y-37116600D02*
X223375300Y-16220600D01*
X223375300Y-16220600D02*
X222250000Y-15095300D01*
%TO.N,Net-(D5-Pad2)*%
X182880000Y-91440000D02*
X182880000Y-90683100D01*
X182880000Y-90683100D02*
X199339600Y-74223500D01*
X199339600Y-74223500D02*
X204794600Y-74223500D01*
X204794600Y-74223500D02*
X214839700Y-64178400D01*
X182880000Y-91440000D02*
X180861600Y-91440000D01*
X180861600Y-91440000D02*
X160865500Y-111436100D01*
X160865500Y-111436100D02*
X160865500Y-112092500D01*
X11430000Y-21590000D02*
X11430000Y-13825300D01*
X11430000Y-12700000D02*
X11430000Y-13825300D01*
X62230000Y-49530000D02*
X45535400Y-49530000D01*
X45535400Y-49530000D02*
X17595400Y-21590000D01*
X17595400Y-21590000D02*
X11430000Y-21590000D01*
X76200000Y-113030000D02*
X62444600Y-99274600D01*
X62444600Y-99274600D02*
X62444600Y-49744600D01*
X62444600Y-49744600D02*
X62230000Y-49530000D01*
X110490000Y-69850000D02*
X111710200Y-71070200D01*
X111710200Y-71070200D02*
X111710200Y-108932100D01*
X111710200Y-108932100D02*
X109055800Y-111586500D01*
%TO.N,Net-(D11-Pad1)*%
X199810900Y-10152900D02*
X199912800Y-10254800D01*
X199912800Y-10254800D02*
X215713500Y-10254800D01*
X116840000Y-112718100D02*
X126788600Y-112718100D01*
X126788600Y-112718100D02*
X143861800Y-95644900D01*
X103075800Y-89464600D02*
X103075800Y-106648300D01*
X103075800Y-106648300D02*
X109145600Y-112718100D01*
X109145600Y-112718100D02*
X116840000Y-112718100D01*
X116840000Y-113030000D02*
X116840000Y-112718100D01*
X72107200Y-27310500D02*
X82014200Y-37217500D01*
X82014200Y-37217500D02*
X82014200Y-48994200D01*
X82014200Y-48994200D02*
X82550000Y-49530000D01*
X22860000Y-36830000D02*
X21734700Y-36830000D01*
X3810000Y-12700000D02*
X3810000Y-13825300D01*
X3810000Y-13825300D02*
X2631800Y-15003500D01*
X2631800Y-15003500D02*
X2631800Y-30103100D01*
X2631800Y-30103100D02*
X10484000Y-37955300D01*
X10484000Y-37955300D02*
X20609400Y-37955300D01*
X20609400Y-37955300D02*
X21734700Y-36830000D01*
X103075800Y-89464600D02*
X103075800Y-71094900D01*
X103075800Y-71094900D02*
X96210900Y-64230000D01*
X96210900Y-64230000D02*
X95229100Y-64230000D01*
X95229100Y-64230000D02*
X82550000Y-51550900D01*
X82550000Y-51550900D02*
X82550000Y-49530000D01*
%TO.N,Net-(D7-Pad2)*%
X49530000Y-69850000D02*
X49530000Y-80010000D01*
X49530000Y-80010000D02*
X60960000Y-91440000D01*
X191770000Y-69850000D02*
X191770000Y-61797100D01*
X191770000Y-61797100D02*
X204037100Y-49530000D01*
X204037100Y-49530000D02*
X204470000Y-49530000D01*
X10304700Y-5080000D02*
X9179300Y-3954600D01*
X9179300Y-3954600D02*
X2803700Y-3954600D01*
X2803700Y-3954600D02*
X2166400Y-4591900D01*
X2166400Y-4591900D02*
X2166400Y-30376000D01*
X2166400Y-30376000D02*
X10234000Y-38443600D01*
X10234000Y-38443600D02*
X27741100Y-38443600D01*
X27741100Y-38443600D02*
X29354700Y-36830000D01*
X29917400Y-36830000D02*
X41910000Y-48822600D01*
X41910000Y-48822600D02*
X41910000Y-49530000D01*
X29917400Y-36830000D02*
X29354700Y-36830000D01*
X30480000Y-36830000D02*
X29917400Y-36830000D01*
X11430000Y-5080000D02*
X10304700Y-5080000D01*
%TO.N,Net-(D10-Pad2)*%
X31605300Y-29210000D02*
X44897000Y-42501700D01*
X44897000Y-42501700D02*
X60864500Y-42501700D01*
X60864500Y-42501700D02*
X68754700Y-50391900D01*
X68754700Y-50391900D02*
X72734600Y-50391900D01*
X72734600Y-50391900D02*
X91610100Y-69267400D01*
X91610100Y-69267400D02*
X91610100Y-108120100D01*
X91610100Y-108120100D02*
X96520000Y-113030000D01*
X226649100Y-60137500D02*
X232410000Y-65898400D01*
X232410000Y-65898400D02*
X232410000Y-69850000D01*
X162560000Y-91440000D02*
X164997800Y-89002200D01*
X164997800Y-89002200D02*
X164997800Y-68249300D01*
X164997800Y-68249300D02*
X183717100Y-49530000D01*
X183717100Y-49530000D02*
X184150000Y-49530000D01*
X146050000Y-135890000D02*
X151939500Y-135890000D01*
X151939500Y-135890000D02*
X158964600Y-128864900D01*
X158964600Y-128864900D02*
X158964600Y-98096900D01*
X158964600Y-98096900D02*
X162560000Y-94501500D01*
X162560000Y-94501500D02*
X162560000Y-91440000D01*
X96520000Y-113030000D02*
X101078600Y-113030000D01*
X101078600Y-113030000D02*
X123938600Y-135890000D01*
X123938600Y-135890000D02*
X146050000Y-135890000D01*
X30480000Y-29210000D02*
X31605300Y-29210000D01*
X30480000Y-29210000D02*
X30480000Y-20320000D01*
X30480000Y-20320000D02*
X30480000Y-12700000D01*
%TO.N,Net-(D12-Pad2)*%
X50800000Y-21590000D02*
X50800000Y-22715300D01*
X50800000Y-36830000D02*
X50800000Y-35704700D01*
X50800000Y-35704700D02*
X51925300Y-34579400D01*
X51925300Y-34579400D02*
X51925300Y-23840600D01*
X51925300Y-23840600D02*
X50800000Y-22715300D01*
X91440000Y-36830000D02*
X101770600Y-36830000D01*
X101770600Y-36830000D02*
X130683100Y-65742500D01*
X130683100Y-65742500D02*
X137673300Y-65742500D01*
X137673300Y-65742500D02*
X142898000Y-70967200D01*
X142898000Y-70967200D02*
X142898000Y-85269900D01*
X142898000Y-85269900D02*
X149478100Y-91850000D01*
X149478100Y-91850000D02*
X149478100Y-130428100D01*
X149478100Y-130428100D02*
X152400000Y-133350000D01*
X71120000Y-21590000D02*
X72245300Y-21590000D01*
X72245300Y-21590000D02*
X87485300Y-36830000D01*
X87485300Y-36830000D02*
X91440000Y-36830000D01*
%TO.N,Net-(D12-Pad1)*%
X96457900Y-67310000D02*
X96457900Y-87452000D01*
X44305300Y-36830000D02*
X45803800Y-38328500D01*
X45803800Y-38328500D02*
X57646500Y-38328500D01*
X57646500Y-38328500D02*
X68782700Y-49464700D01*
X68782700Y-49464700D02*
X75332300Y-49464700D01*
X75332300Y-49464700D02*
X93177600Y-67310000D01*
X93177600Y-67310000D02*
X96457900Y-67310000D01*
X96457900Y-67310000D02*
X96520000Y-67310000D01*
X43180000Y-36830000D02*
X44305300Y-36830000D01*
X43180000Y-36830000D02*
X43180000Y-29210000D01*
X123190000Y-110490000D02*
X128270000Y-105410000D01*
X128270000Y-105410000D02*
X128270000Y-88900000D01*
%TO.N,Net-(D13-Pad2)*%
X50800000Y-5080000D02*
X49674700Y-5080000D01*
X50800000Y-29210000D02*
X48736800Y-29210000D01*
X48736800Y-29210000D02*
X42054600Y-22527800D01*
X42054600Y-22527800D02*
X42054600Y-4081200D01*
X42054600Y-4081200D02*
X42181100Y-3954700D01*
X42181100Y-3954700D02*
X48549400Y-3954700D01*
X48549400Y-3954700D02*
X49674700Y-5080000D01*
X91440000Y-21590000D02*
X91440000Y-22715300D01*
X91440000Y-22715300D02*
X90312400Y-23842900D01*
X90312400Y-23842900D02*
X90312400Y-29682000D01*
X90312400Y-29682000D02*
X95426900Y-34796500D01*
X95426900Y-34796500D02*
X100374000Y-34796500D01*
X100374000Y-34796500D02*
X129397700Y-63820200D01*
X129397700Y-63820200D02*
X138752800Y-63820200D01*
X138752800Y-63820200D02*
X147887100Y-72954500D01*
X204470000Y-110490000D02*
X209550000Y-105410000D01*
X209550000Y-105410000D02*
X209550000Y-88900000D01*
%TO.N,Net-(D14-Pad1)*%
X95757500Y-63186200D02*
X95757500Y-50611200D01*
X95757500Y-50611200D02*
X82670900Y-37524600D01*
X82670900Y-37524600D02*
X82670900Y-36848400D01*
X82670900Y-36848400D02*
X66231800Y-20409300D01*
X66231800Y-20409300D02*
X43180000Y-20409300D01*
X116840000Y-67310000D02*
X112716200Y-63186200D01*
X112716200Y-63186200D02*
X95757500Y-63186200D01*
X143510000Y-110490000D02*
X148869700Y-105130300D01*
X148869700Y-105130300D02*
X148869700Y-92745000D01*
X148869700Y-92745000D02*
X137160000Y-81035300D01*
X137160000Y-81035300D02*
X137160000Y-67310000D01*
X87630000Y-88900000D02*
X87630000Y-78740000D01*
X87630000Y-78740000D02*
X76200000Y-67310000D01*
X43180000Y-20409300D02*
X43180000Y-12700000D01*
X43180000Y-21590000D02*
X43180000Y-20409300D01*
X43180000Y-12700000D02*
X43180000Y-5080000D01*
%TO.N,Net-(D15-Pad2)*%
X190500000Y-46990000D02*
X183447400Y-39937400D01*
X183447400Y-39937400D02*
X182490200Y-39937400D01*
X72245300Y-36830000D02*
X72245300Y-36532200D01*
X72245300Y-36532200D02*
X76274100Y-32503400D01*
X250190000Y-88900000D02*
X250190000Y-105410000D01*
X250190000Y-105410000D02*
X245110000Y-110490000D01*
X91440000Y-29210000D02*
X91440000Y-28084700D01*
X71120000Y-12700000D02*
X84161400Y-12700000D01*
X84161400Y-12700000D02*
X92565300Y-21103900D01*
X92565300Y-21103900D02*
X92565300Y-26959400D01*
X92565300Y-26959400D02*
X91440000Y-28084700D01*
X71120000Y-36830000D02*
X72245300Y-36830000D01*
%TO.N,Net-(D17-Pad1)*%
X64625300Y-36830000D02*
X64625300Y-37111300D01*
X64625300Y-37111300D02*
X93256500Y-65742500D01*
X93256500Y-65742500D02*
X97037700Y-65742500D01*
X97037700Y-65742500D02*
X98736800Y-67441600D01*
X98736800Y-67441600D02*
X98736800Y-70380500D01*
X98736800Y-70380500D02*
X97877500Y-71239800D01*
X97877500Y-71239800D02*
X97877500Y-105497500D01*
X97877500Y-105497500D02*
X102870000Y-110490000D01*
X63500000Y-36830000D02*
X64625300Y-36830000D01*
X63500000Y-36830000D02*
X63500000Y-29210000D01*
%TO.N,Net-(D19-Pad1)*%
X63500000Y-21590000D02*
X63500000Y-22715300D01*
X63500000Y-22715300D02*
X62367500Y-23847800D01*
X62367500Y-23847800D02*
X62367500Y-40777500D01*
X62367500Y-40777500D02*
X68580000Y-46990000D01*
%TO.N,B7*%
X259606600Y-34627900D02*
X260164200Y-34627900D01*
X260164200Y-34627900D02*
X263227000Y-31565100D01*
X263227000Y-31565100D02*
X263227000Y-28127800D01*
X263227000Y-28127800D02*
X259080000Y-23980800D01*
X259080000Y-23980800D02*
X259080000Y-21590000D01*
X256540000Y-21590000D02*
X259080000Y-21590000D01*
%TO.N,B6*%
X248920000Y-21590000D02*
X247794700Y-21590000D01*
X195580000Y-2540000D02*
X196755300Y-2540000D01*
X196755300Y-2540000D02*
X196755300Y-2907300D01*
X196755300Y-2907300D02*
X202323700Y-8475700D01*
X202323700Y-8475700D02*
X235383700Y-8475700D01*
X235383700Y-8475700D02*
X247794700Y-20886700D01*
X247794700Y-20886700D02*
X247794700Y-21590000D01*
X250678400Y-26330200D02*
X245560300Y-26330200D01*
X269240000Y-21590000D02*
X269240000Y-27603700D01*
X269240000Y-27603700D02*
X260350000Y-36493700D01*
X260350000Y-36493700D02*
X260350000Y-37175900D01*
X260350000Y-37175900D02*
X259538900Y-37987000D01*
X259538900Y-37987000D02*
X258572400Y-37987000D01*
X258572400Y-37987000D02*
X257784600Y-37199200D01*
X257784600Y-37199200D02*
X257784600Y-34794800D01*
X257784600Y-34794800D02*
X252730000Y-29740200D01*
X252730000Y-29740200D02*
X252730000Y-28381800D01*
X252730000Y-28381800D02*
X250678400Y-26330200D01*
X250678400Y-26330200D02*
X250678400Y-24473700D01*
X250678400Y-24473700D02*
X248920000Y-22715300D01*
X248920000Y-21590000D02*
X248920000Y-22715300D01*
%TO.N,KP*%
X217075300Y-2540000D02*
X217075300Y-2907300D01*
X217075300Y-2907300D02*
X221373900Y-7205900D01*
X221373900Y-7205900D02*
X235846500Y-7205900D01*
X235846500Y-7205900D02*
X242837800Y-14197200D01*
X242837800Y-14197200D02*
X243174900Y-14197200D01*
X243174900Y-14197200D02*
X250190000Y-21212300D01*
X250190000Y-21212300D02*
X250190000Y-21944300D01*
X250190000Y-21944300D02*
X256330400Y-28084700D01*
X256330400Y-28084700D02*
X259650800Y-28084700D01*
X259650800Y-28084700D02*
X260494700Y-28928600D01*
X260494700Y-28928600D02*
X260494700Y-29210000D01*
X261620000Y-29210000D02*
X260494700Y-29210000D01*
X215900000Y-2540000D02*
X217075300Y-2540000D01*
%TO.N,B5*%
X246380000Y-22715300D02*
X248800800Y-25136100D01*
X248800800Y-25136100D02*
X249946900Y-25136100D01*
X228787200Y-17614900D02*
X228704200Y-17697900D01*
X228704200Y-17697900D02*
X228704200Y-22186400D01*
X228704200Y-22186400D02*
X229870000Y-23352200D01*
X229870000Y-23352200D02*
X229870000Y-29210000D01*
X237490000Y-21590000D02*
X237490000Y-20464700D01*
X235161300Y-18817000D02*
X236809000Y-20464700D01*
X236809000Y-20464700D02*
X237490000Y-20464700D01*
X246380000Y-21590000D02*
X246380000Y-22715300D01*
%TO.N,B1*%
X208280000Y-3715300D02*
X208673200Y-3715300D01*
X208673200Y-3715300D02*
X212257600Y-7299700D01*
X221124700Y-25144600D02*
X221124700Y-34579400D01*
X221124700Y-34579400D02*
X222250000Y-35704700D01*
X222250000Y-22715300D02*
X221124700Y-23840600D01*
X221124700Y-23840600D02*
X221124700Y-25144600D01*
X222250000Y-21590000D02*
X222250000Y-22715300D01*
X217817000Y-14159700D02*
X222250000Y-18592700D01*
X222250000Y-18592700D02*
X222250000Y-21590000D01*
X222250000Y-36830000D02*
X222250000Y-35704700D01*
X208280000Y-2540000D02*
X208280000Y-3715300D01*
%TO.N,clear*%
X273954700Y-53493700D02*
X273954700Y-68945300D01*
X273954700Y-68945300D02*
X273050000Y-69850000D01*
X263992000Y-44967500D02*
X265428500Y-44967500D01*
X265428500Y-44967500D02*
X273954700Y-53493700D01*
X273954700Y-53493700D02*
X274928700Y-53493700D01*
X274928700Y-53493700D02*
X289560000Y-38862400D01*
X289560000Y-38862400D02*
X289560000Y-36506400D01*
X289560000Y-36506400D02*
X299864600Y-26201800D01*
X299864600Y-26201800D02*
X299864600Y-2811200D01*
X299864600Y-2811200D02*
X299991200Y-2684600D01*
X299991200Y-2684600D02*
X301938000Y-2684600D01*
X301938000Y-2684600D02*
X307484700Y-8231300D01*
X307484700Y-8231300D02*
X307484700Y-12000800D01*
X307484700Y-12000800D02*
X308328600Y-12844700D01*
X308328600Y-12844700D02*
X308610000Y-12844700D01*
X308610000Y-13970000D02*
X308610000Y-12844700D01*
X205740000Y-36830000D02*
X201072300Y-32162300D01*
X201072300Y-32162300D02*
X201072300Y-27069100D01*
X201072300Y-27069100D02*
X189324700Y-15321500D01*
X189324700Y-15321500D02*
X189324700Y-1478900D01*
X189324700Y-1478900D02*
X190383300Y-420300D01*
X190383300Y-420300D02*
X210432300Y-420300D01*
X210432300Y-420300D02*
X212184700Y-2172700D01*
X212184700Y-2172700D02*
X212184700Y-2540000D01*
X213360000Y-2540000D02*
X212184700Y-2540000D01*
%TO.N,B2*%
X205740000Y-3715300D02*
X208096100Y-6071400D01*
X208096100Y-6071400D02*
X208096100Y-7299700D01*
X226204700Y-26254800D02*
X226204700Y-34579400D01*
X226204700Y-34579400D02*
X227330000Y-35704700D01*
X224790000Y-22715300D02*
X226204700Y-24130000D01*
X226204700Y-24130000D02*
X226204700Y-26254800D01*
X226204700Y-26254800D02*
X227089700Y-26254800D01*
X227330000Y-36830000D02*
X227330000Y-35704700D01*
X224790000Y-21590000D02*
X224790000Y-22715300D01*
X224649000Y-17481200D02*
X224790000Y-17622200D01*
X224790000Y-17622200D02*
X224790000Y-21590000D01*
X205740000Y-2540000D02*
X205740000Y-3715300D01*
%TO.N,B3*%
X227330000Y-21590000D02*
X227330000Y-18136700D01*
X227330000Y-18136700D02*
X223642100Y-14448800D01*
X223642100Y-14448800D02*
X223642100Y-13517600D01*
X223642100Y-13517600D02*
X225709200Y-11450500D01*
X232410000Y-36830000D02*
X232410000Y-35704700D01*
X227330000Y-21590000D02*
X227330000Y-22715300D01*
X227330000Y-22715300D02*
X228455300Y-23840600D01*
X228455300Y-23840600D02*
X228455300Y-31750000D01*
X228455300Y-31750000D02*
X232410000Y-35704700D01*
%TO.N,B4*%
X232410000Y-21590000D02*
X232410000Y-24733100D01*
X232410000Y-24733100D02*
X234682000Y-27005100D01*
X226723100Y-15820500D02*
X228019800Y-15820500D01*
X228019800Y-15820500D02*
X232410000Y-20210700D01*
X232410000Y-20210700D02*
X232410000Y-21590000D01*
%TO.N,Net-(Q1-Pad2)*%
X91440000Y-13970000D02*
X91440000Y-15095300D01*
X104140000Y-33020000D02*
X104140000Y-27795300D01*
X104140000Y-27795300D02*
X91440000Y-15095300D01*
%TO.N,Net-(Q2-Pad2)*%
X104140000Y-22860000D02*
X91440000Y-10160000D01*
X91440000Y-10160000D02*
X91440000Y-6350000D01*
%TO.N,Net-(Q3-Pad3)*%
X248920000Y-15095300D02*
X249201300Y-15095300D01*
X249201300Y-15095300D02*
X255157300Y-21051300D01*
X255157300Y-21051300D02*
X255157300Y-24020600D01*
X255157300Y-24020600D02*
X255044600Y-24133300D01*
X248920000Y-13970000D02*
X248920000Y-15095300D01*
X106680000Y-12700000D02*
X125730000Y-12700000D01*
X125730000Y-12700000D02*
X128270000Y-10160000D01*
%TO.N,Net-(R18-Pad1)*%
X69850000Y-69850000D02*
X69850000Y-75671200D01*
X69850000Y-75671200D02*
X84504200Y-90325400D01*
X215493100Y-66446900D02*
X212090000Y-69850000D01*
X184323600Y-38959300D02*
X187121200Y-41756900D01*
X187121200Y-41756900D02*
X198734100Y-41756900D01*
X198734100Y-41756900D02*
X205954500Y-48977300D01*
X205954500Y-48977300D02*
X205954500Y-53881000D01*
X205954500Y-53881000D02*
X215602800Y-63529300D01*
X215602800Y-63529300D02*
X215602800Y-66337200D01*
X215602800Y-66337200D02*
X215493100Y-66446900D01*
X215493100Y-66446900D02*
X217781500Y-68735400D01*
X217781500Y-68735400D02*
X225398000Y-68735400D01*
X225398000Y-68735400D02*
X243995100Y-87332500D01*
X243995100Y-87332500D02*
X250703300Y-87332500D01*
X250703300Y-87332500D02*
X259080000Y-95709200D01*
X259080000Y-95709200D02*
X259080000Y-113030000D01*
X163952200Y-49652200D02*
X174645100Y-38959300D01*
X174645100Y-38959300D02*
X184323600Y-38959300D01*
X163952200Y-49652200D02*
X163830000Y-49530000D01*
X153721200Y-84801500D02*
X163952200Y-74570500D01*
X163952200Y-74570500D02*
X163952200Y-49652200D01*
%TO.N,Net-(Q1-Pad3)*%
X232410000Y-13970000D02*
X228714900Y-10274900D01*
X228714900Y-10274900D02*
X217895000Y-10274900D01*
X217895000Y-10274900D02*
X208856100Y-19313800D01*
X106680000Y-33020000D02*
X106680000Y-30154800D01*
X106680000Y-30154800D02*
X116400000Y-20434800D01*
X116400000Y-20434800D02*
X144665200Y-20434800D01*
X144665200Y-20434800D02*
X146050000Y-19050000D01*
%TO.N,Net-(Q2-Pad3)*%
X233824700Y-13970000D02*
X233824700Y-13765700D01*
X233824700Y-13765700D02*
X229883600Y-9824600D01*
X229883600Y-9824600D02*
X217181000Y-9824600D01*
X217181000Y-9824600D02*
X202493500Y-24512100D01*
X202493500Y-24512100D02*
X201578200Y-24512100D01*
X234950000Y-13970000D02*
X233824700Y-13970000D01*
%TO.N,reset*%
X209644700Y-2540000D02*
X209644700Y-2172700D01*
X209644700Y-2172700D02*
X208352500Y-880500D01*
X208352500Y-880500D02*
X192991000Y-880500D01*
X192991000Y-880500D02*
X191858600Y-2012900D01*
X191858600Y-2012900D02*
X191858600Y-15818200D01*
X191858600Y-15818200D02*
X202855100Y-26814700D01*
X202855100Y-26814700D02*
X203200000Y-26814700D01*
X300990000Y-3810000D02*
X300990000Y-4935300D01*
X306070000Y-49530000D02*
X306070000Y-9734000D01*
X306070000Y-9734000D02*
X301271300Y-4935300D01*
X301271300Y-4935300D02*
X300990000Y-4935300D01*
X203200000Y-27940000D02*
X203200000Y-26814700D01*
X210820000Y-2540000D02*
X209644700Y-2540000D01*
%TO.N,B8*%
X284480000Y-7525300D02*
X284847300Y-7525300D01*
X284847300Y-7525300D02*
X286911800Y-9589800D01*
X286911800Y-9589800D02*
X286911800Y-24652800D01*
X286911800Y-24652800D02*
X283480100Y-28084500D01*
X283480100Y-28084500D02*
X282671200Y-28084500D01*
X282671200Y-28084500D02*
X281940000Y-28815700D01*
X281940000Y-28815700D02*
X281940000Y-29532000D01*
X281940000Y-29532000D02*
X280615000Y-30857000D01*
X280615000Y-30857000D02*
X270400900Y-30857000D01*
X270400900Y-30857000D02*
X262858500Y-38399400D01*
X284480000Y-6350000D02*
X284480000Y-7525300D01*
%TO.N,Net-(JP2-Pad2)*%
X245254700Y-13970000D02*
X244581300Y-13296600D01*
X244581300Y-13296600D02*
X243529400Y-13296600D01*
X243529400Y-13296600D02*
X236538100Y-6305300D01*
X236538100Y-6305300D02*
X231865500Y-6305300D01*
X231865500Y-6305300D02*
X226875700Y-1315500D01*
X226875700Y-1315500D02*
X215451000Y-1315500D01*
X215451000Y-1315500D02*
X214630000Y-2136500D01*
X214630000Y-2136500D02*
X214630000Y-6052100D01*
X214630000Y-6052100D02*
X212657000Y-8025100D01*
X212657000Y-8025100D02*
X204389200Y-8025100D01*
X204389200Y-8025100D02*
X199390000Y-3025900D01*
X199390000Y-3025900D02*
X199390000Y-2139600D01*
X199390000Y-2139600D02*
X198581300Y-1330900D01*
X198581300Y-1330900D02*
X195090000Y-1330900D01*
X195090000Y-1330900D02*
X194326900Y-2094000D01*
X194326900Y-2094000D02*
X194326900Y-4684300D01*
X194326900Y-4684300D02*
X193189700Y-5821500D01*
X246380000Y-13970000D02*
X245254700Y-13970000D01*
X170180000Y-10160000D02*
X169054700Y-10160000D01*
X121503700Y-53905500D02*
X121762500Y-53905500D01*
X121762500Y-53905500D02*
X124616200Y-51051800D01*
X124616200Y-51051800D02*
X124616200Y-48329900D01*
X124616200Y-48329900D02*
X124385300Y-48099000D01*
X124385300Y-48099000D02*
X124385300Y-46823600D01*
X124385300Y-46823600D02*
X139806500Y-31402400D01*
X139806500Y-31402400D02*
X151861900Y-31402400D01*
X151861900Y-31402400D02*
X154870700Y-28393600D01*
X154870700Y-28393600D02*
X154870700Y-24344000D01*
X154870700Y-24344000D02*
X169054700Y-10160000D01*
%TO.N,Net-(C4-Pad2)*%
X278130000Y-29210000D02*
X277004700Y-29210000D01*
X278130000Y-15240000D02*
X278130000Y-16365300D01*
X278130000Y-16365300D02*
X274464600Y-20030700D01*
X274464600Y-20030700D02*
X274464600Y-29748200D01*
X274464600Y-29748200D02*
X275051700Y-30335300D01*
X275051700Y-30335300D02*
X276160800Y-30335300D01*
X276160800Y-30335300D02*
X277004700Y-29491400D01*
X277004700Y-29491400D02*
X277004700Y-29210000D01*
X278130000Y-29210000D02*
X279255300Y-29210000D01*
X283250000Y-24130000D02*
X279255300Y-28124700D01*
X279255300Y-28124700D02*
X279255300Y-29210000D01*
%TO.N,Net-(C4-Pad1)*%
X280670000Y-29210000D02*
X280670000Y-28084700D01*
X285750000Y-24130000D02*
X281795300Y-28084700D01*
X281795300Y-28084700D02*
X280670000Y-28084700D01*
%TO.N,~keydown*%
X263708800Y-32087700D02*
X263708800Y-27335800D01*
X263708800Y-27335800D02*
X260350000Y-23977000D01*
X260350000Y-23977000D02*
X260350000Y-13597100D01*
X260350000Y-13597100D02*
X252858200Y-6105300D01*
X252858200Y-6105300D02*
X252730000Y-6105300D01*
X263708800Y-32087700D02*
X263719500Y-32098400D01*
X259080000Y-35704700D02*
X260091800Y-35704700D01*
X260091800Y-35704700D02*
X263708800Y-32087700D01*
X259080000Y-36830000D02*
X259080000Y-35704700D01*
X252730000Y-5080000D02*
X252730000Y-6105300D01*
%TO.N,Net-(C5-Pad2)*%
X294640000Y-49530000D02*
X294640000Y-47030000D01*
X294640000Y-47030000D02*
X290790000Y-43180000D01*
X290830000Y-36830000D02*
X290830000Y-37955300D01*
X290790000Y-43180000D02*
X290790000Y-37995300D01*
X290790000Y-37995300D02*
X290830000Y-37955300D01*
%TO.N,Net-(D27-Pad1)*%
X316230000Y-100330000D02*
X316230000Y-99104700D01*
X316230000Y-99104700D02*
X312420000Y-95294700D01*
X312420000Y-95294700D02*
X312420000Y-83820000D01*
%TO.N,Net-(D28-Pad1)*%
X316230000Y-92710000D02*
X316230000Y-81280000D01*
X316230000Y-81280000D02*
X312420000Y-77470000D01*
%TO.N,Net-(Q4-Pad3)*%
X120650000Y-35560000D02*
X122256700Y-35560000D01*
X122256700Y-35560000D02*
X129418000Y-28398700D01*
X129418000Y-28398700D02*
X129418000Y-21937900D01*
X129418000Y-21937900D02*
X128902300Y-21422200D01*
%TO.N,Net-(R21-Pad2)*%
X224790000Y-36830000D02*
X225915300Y-36830000D01*
X311150000Y-146050000D02*
X311150000Y-141638700D01*
X311150000Y-141638700D02*
X282095500Y-112584200D01*
X282095500Y-112584200D02*
X282095500Y-90830900D01*
X282095500Y-90830900D02*
X261642300Y-70377700D01*
X261642300Y-70377700D02*
X259146500Y-70377700D01*
X259146500Y-70377700D02*
X225915300Y-37146500D01*
X225915300Y-37146500D02*
X225915300Y-36830000D01*
%TO.N,Net-(R22-Pad2)*%
X311150000Y-138430000D02*
X311150000Y-135645400D01*
X311150000Y-135645400D02*
X287304000Y-111799400D01*
X287304000Y-111799400D02*
X287304000Y-93495100D01*
X287304000Y-93495100D02*
X257852900Y-64044000D01*
X257852900Y-64044000D02*
X254116600Y-64044000D01*
X254116600Y-64044000D02*
X229870000Y-39797400D01*
X229870000Y-39797400D02*
X229870000Y-36830000D01*
%TO.N,Net-(R23-Pad2)*%
X311150000Y-130810000D02*
X311150000Y-126876900D01*
X311150000Y-126876900D02*
X287934200Y-103661100D01*
X287934200Y-103661100D02*
X287934200Y-93477600D01*
X287934200Y-93477600D02*
X251611100Y-57154500D01*
X251611100Y-57154500D02*
X250668500Y-57154500D01*
X250668500Y-57154500D02*
X234950000Y-41436000D01*
X234950000Y-41436000D02*
X234950000Y-36830000D01*
%TO.N,Net-(R24-Pad2)*%
X311150000Y-123190000D02*
X311150000Y-121101400D01*
X311150000Y-121101400D02*
X288384600Y-98336000D01*
X288384600Y-98336000D02*
X288384600Y-92577500D01*
X288384600Y-92577500D02*
X258660500Y-62853400D01*
X258660500Y-62853400D02*
X258660500Y-52115300D01*
X258660500Y-52115300D02*
X237490000Y-30944800D01*
X237490000Y-30944800D02*
X237490000Y-29210000D01*
%TO.N,Net-(R25-Pad2)*%
X233535300Y-29210000D02*
X233535300Y-28928600D01*
X233535300Y-28928600D02*
X234379200Y-28084700D01*
X234379200Y-28084700D02*
X237956300Y-28084700D01*
X237956300Y-28084700D02*
X240736400Y-30864800D01*
X240736400Y-30864800D02*
X240736400Y-33554300D01*
X240736400Y-33554300D02*
X262984600Y-55802500D01*
X262984600Y-55802500D02*
X262984600Y-61932400D01*
X262984600Y-61932400D02*
X311150000Y-110097800D01*
X311150000Y-110097800D02*
X311150000Y-115570000D01*
X232410000Y-29210000D02*
X233535300Y-29210000D01*
%TO.N,Net-(R26-Pad2)*%
X283462900Y-90984300D02*
X261867900Y-69389300D01*
X261867900Y-69389300D02*
X258825000Y-69389300D01*
X258825000Y-69389300D02*
X228744600Y-39308900D01*
X228744600Y-39308900D02*
X228744600Y-36482400D01*
X228744600Y-36482400D02*
X227330000Y-35067800D01*
X227330000Y-35067800D02*
X227330000Y-29210000D01*
%TO.N,Net-(U1-Pad6)*%
X234950000Y-21590000D02*
X234950000Y-20464700D01*
X234659200Y-17429700D02*
X234431300Y-17657600D01*
X234431300Y-17657600D02*
X234431300Y-19946000D01*
X234431300Y-19946000D02*
X234950000Y-20464700D01*
%TO.N,Net-(U2-Pad7)*%
X256540000Y-36830000D02*
X258147400Y-38437400D01*
X258147400Y-38437400D02*
X261788000Y-38437400D01*
X261788000Y-38437400D02*
X263884000Y-36341400D01*
X263884000Y-36341400D02*
X264201800Y-36341400D01*
X264201800Y-36341400D02*
X270416100Y-30127100D01*
X270416100Y-30127100D02*
X270416100Y-21135200D01*
X270416100Y-21135200D02*
X269743300Y-20462400D01*
X269743300Y-20462400D02*
X263872900Y-20462400D01*
X263872900Y-20462400D02*
X262745300Y-21590000D01*
X261620000Y-21590000D02*
X262745300Y-21590000D01*
%TO.N,Net-(U5-Pad10)*%
X289704700Y-29210000D02*
X289704700Y-29414500D01*
X289704700Y-29414500D02*
X286023400Y-33095800D01*
X286023400Y-33095800D02*
X277264100Y-33095800D01*
X277264100Y-33095800D02*
X274446400Y-35913500D01*
X274446400Y-35913500D02*
X274446400Y-37811400D01*
X274446400Y-37811400D02*
X274590400Y-37955400D01*
X274590400Y-37955400D02*
X278602100Y-37955400D01*
X278602100Y-37955400D02*
X279400000Y-37157500D01*
X279400000Y-37157500D02*
X279400000Y-36508200D01*
X279400000Y-36508200D02*
X280203500Y-35704700D01*
X280203500Y-35704700D02*
X281240800Y-35704700D01*
X281240800Y-35704700D02*
X282084700Y-36548600D01*
X282084700Y-36548600D02*
X282084700Y-36830000D01*
X283210000Y-36830000D02*
X282084700Y-36830000D01*
X290830000Y-29210000D02*
X289704700Y-29210000D01*
%TD*%
M02*
