%TF.GenerationSoftware,KiCad,Pcbnew,5.1.6-c6e7f7d~87~ubuntu16.04.1*%
%TF.CreationDate,2021-01-23T12:29:25-05:00*%
%TF.ProjectId,keyboard,6b657962-6f61-4726-942e-6b696361645f,rev?*%
%TF.SameCoordinates,Original*%
%TF.FileFunction,Legend,Top*%
%TF.FilePolarity,Positive*%
%FSLAX46Y46*%
G04 Gerber Fmt 4.6, Leading zero omitted, Abs format (unit mm)*
G04 Created by KiCad (PCBNEW 5.1.6-c6e7f7d~87~ubuntu16.04.1) date 2021-01-23 12:29:25*
%MOMM*%
%LPD*%
G01*
G04 APERTURE LIST*
%ADD10C,0.120000*%
%ADD11C,0.150000*%
G04 APERTURE END LIST*
D10*
%TO.C,U5*%
X274200000Y-27880000D02*
X274200000Y-38160000D01*
X294760000Y-27880000D02*
X274200000Y-27880000D01*
X294760000Y-38160000D02*
X294760000Y-27880000D01*
X274200000Y-38160000D02*
X294760000Y-38160000D01*
X274260000Y-30370000D02*
X274260000Y-32020000D01*
X294700000Y-30370000D02*
X274260000Y-30370000D01*
X294700000Y-35670000D02*
X294700000Y-30370000D01*
X274260000Y-35670000D02*
X294700000Y-35670000D01*
X274260000Y-34020000D02*
X274260000Y-35670000D01*
X274260000Y-32020000D02*
G75*
G02*
X274260000Y-34020000I0J-1000000D01*
G01*
%TO.C,U4*%
X244990000Y-27880000D02*
X244990000Y-38160000D01*
X263010000Y-27880000D02*
X244990000Y-27880000D01*
X263010000Y-38160000D02*
X263010000Y-27880000D01*
X244990000Y-38160000D02*
X263010000Y-38160000D01*
X245050000Y-30370000D02*
X245050000Y-32020000D01*
X262950000Y-30370000D02*
X245050000Y-30370000D01*
X262950000Y-35670000D02*
X262950000Y-30370000D01*
X245050000Y-35670000D02*
X262950000Y-35670000D01*
X245050000Y-34020000D02*
X245050000Y-35670000D01*
X245050000Y-32020000D02*
G75*
G02*
X245050000Y-34020000I0J-1000000D01*
G01*
%TO.C,U3*%
X220860000Y-27880000D02*
X220860000Y-38160000D01*
X238880000Y-27880000D02*
X220860000Y-27880000D01*
X238880000Y-38160000D02*
X238880000Y-27880000D01*
X220860000Y-38160000D02*
X238880000Y-38160000D01*
X220920000Y-30370000D02*
X220920000Y-32020000D01*
X238820000Y-30370000D02*
X220920000Y-30370000D01*
X238820000Y-35670000D02*
X238820000Y-30370000D01*
X220920000Y-35670000D02*
X238820000Y-35670000D01*
X220920000Y-34020000D02*
X220920000Y-35670000D01*
X220920000Y-32020000D02*
G75*
G02*
X220920000Y-34020000I0J-1000000D01*
G01*
%TO.C,U2*%
X244990000Y-12640000D02*
X244990000Y-22920000D01*
X263010000Y-12640000D02*
X244990000Y-12640000D01*
X263010000Y-22920000D02*
X263010000Y-12640000D01*
X244990000Y-22920000D02*
X263010000Y-22920000D01*
X245050000Y-15130000D02*
X245050000Y-16780000D01*
X262950000Y-15130000D02*
X245050000Y-15130000D01*
X262950000Y-20430000D02*
X262950000Y-15130000D01*
X245050000Y-20430000D02*
X262950000Y-20430000D01*
X245050000Y-18780000D02*
X245050000Y-20430000D01*
X245050000Y-16780000D02*
G75*
G02*
X245050000Y-18780000I0J-1000000D01*
G01*
%TO.C,U1*%
X220860000Y-12640000D02*
X220860000Y-22920000D01*
X238880000Y-12640000D02*
X220860000Y-12640000D01*
X238880000Y-22920000D02*
X238880000Y-12640000D01*
X220860000Y-22920000D02*
X238880000Y-22920000D01*
X220920000Y-15130000D02*
X220920000Y-16780000D01*
X238820000Y-15130000D02*
X220920000Y-15130000D01*
X238820000Y-20430000D02*
X238820000Y-15130000D01*
X220920000Y-20430000D02*
X238820000Y-20430000D01*
X220920000Y-18780000D02*
X220920000Y-20430000D01*
X220920000Y-16780000D02*
G75*
G02*
X220920000Y-18780000I0J-1000000D01*
G01*
%TO.C,R31*%
X294100000Y-50900000D02*
X294100000Y-50570000D01*
X287560000Y-50900000D02*
X294100000Y-50900000D01*
X287560000Y-50570000D02*
X287560000Y-50900000D01*
X294100000Y-48160000D02*
X294100000Y-48490000D01*
X287560000Y-48160000D02*
X294100000Y-48160000D01*
X287560000Y-48490000D02*
X287560000Y-48160000D01*
%TO.C,R30*%
X279500000Y-15780000D02*
X279170000Y-15780000D01*
X279500000Y-22320000D02*
X279500000Y-15780000D01*
X279170000Y-22320000D02*
X279500000Y-22320000D01*
X276760000Y-15780000D02*
X277090000Y-15780000D01*
X276760000Y-22320000D02*
X276760000Y-15780000D01*
X277090000Y-22320000D02*
X276760000Y-22320000D01*
%TO.C,R17*%
X267870000Y-21050000D02*
X268200000Y-21050000D01*
X267870000Y-14510000D02*
X267870000Y-21050000D01*
X268200000Y-14510000D02*
X267870000Y-14510000D01*
X270610000Y-21050000D02*
X270280000Y-21050000D01*
X270610000Y-14510000D02*
X270610000Y-21050000D01*
X270280000Y-14510000D02*
X270610000Y-14510000D01*
%TO.C,J1*%
X309940000Y-2420000D02*
X299660000Y-2420000D01*
X309940000Y-22980000D02*
X309940000Y-2420000D01*
X299660000Y-22980000D02*
X309940000Y-22980000D01*
X299660000Y-2420000D02*
X299660000Y-22980000D01*
X307450000Y-2480000D02*
X305800000Y-2480000D01*
X307450000Y-22920000D02*
X307450000Y-2480000D01*
X302150000Y-22920000D02*
X307450000Y-22920000D01*
X302150000Y-2480000D02*
X302150000Y-22920000D01*
X303800000Y-2480000D02*
X302150000Y-2480000D01*
X305800000Y-2480000D02*
G75*
G02*
X303800000Y-2480000I-1000000J0D01*
G01*
%TO.C,C5*%
X291360000Y-44105000D02*
X291360000Y-44350000D01*
X291360000Y-42010000D02*
X291360000Y-42255000D01*
X287720000Y-44105000D02*
X287720000Y-44350000D01*
X287720000Y-42010000D02*
X287720000Y-42255000D01*
X287720000Y-44350000D02*
X291360000Y-44350000D01*
X287720000Y-42010000D02*
X291360000Y-42010000D01*
%TO.C,C4*%
X282680000Y-23205000D02*
X282680000Y-22960000D01*
X282680000Y-25300000D02*
X282680000Y-25055000D01*
X286320000Y-23205000D02*
X286320000Y-22960000D01*
X286320000Y-25300000D02*
X286320000Y-25055000D01*
X286320000Y-22960000D02*
X282680000Y-22960000D01*
X286320000Y-25300000D02*
X282680000Y-25300000D01*
%TO.C,C3*%
X307870000Y-36485000D02*
X307870000Y-36730000D01*
X307870000Y-34390000D02*
X307870000Y-34635000D01*
X304230000Y-36485000D02*
X304230000Y-36730000D01*
X304230000Y-34390000D02*
X304230000Y-34635000D01*
X304230000Y-36730000D02*
X307870000Y-36730000D01*
X304230000Y-34390000D02*
X307870000Y-34390000D01*
%TO.C,Q4*%
X116310000Y-37410000D02*
X119910000Y-37410000D01*
X120434184Y-36682795D02*
G75*
G02*
X119910000Y-37410000I-2324184J1122795D01*
G01*
X120466400Y-34461193D02*
G75*
G03*
X118110000Y-32960000I-2356400J-1098807D01*
G01*
X115753600Y-34461193D02*
G75*
G02*
X118110000Y-32960000I2356400J-1098807D01*
G01*
X115785816Y-36682795D02*
G75*
G03*
X116310000Y-37410000I2324184J1122795D01*
G01*
%TO.C,Q3*%
X102340000Y-14550000D02*
X105940000Y-14550000D01*
X106464184Y-13822795D02*
G75*
G02*
X105940000Y-14550000I-2324184J1122795D01*
G01*
X106496400Y-11601193D02*
G75*
G03*
X104140000Y-10100000I-2356400J-1098807D01*
G01*
X101783600Y-11601193D02*
G75*
G02*
X104140000Y-10100000I2356400J-1098807D01*
G01*
X101815816Y-13822795D02*
G75*
G03*
X102340000Y-14550000I2324184J1122795D01*
G01*
%TO.C,Q2*%
X102340000Y-24710000D02*
X105940000Y-24710000D01*
X106464184Y-23982795D02*
G75*
G02*
X105940000Y-24710000I-2324184J1122795D01*
G01*
X106496400Y-21761193D02*
G75*
G03*
X104140000Y-20260000I-2356400J-1098807D01*
G01*
X101783600Y-21761193D02*
G75*
G02*
X104140000Y-20260000I2356400J-1098807D01*
G01*
X101815816Y-23982795D02*
G75*
G03*
X102340000Y-24710000I2324184J1122795D01*
G01*
%TO.C,Q1*%
X102340000Y-34870000D02*
X105940000Y-34870000D01*
X106464184Y-34142795D02*
G75*
G02*
X105940000Y-34870000I-2324184J1122795D01*
G01*
X106496400Y-31921193D02*
G75*
G03*
X104140000Y-30420000I-2356400J-1098807D01*
G01*
X101783600Y-31921193D02*
G75*
G02*
X104140000Y-30420000I2356400J-1098807D01*
G01*
X101815816Y-34142795D02*
G75*
G03*
X102340000Y-34870000I2324184J1122795D01*
G01*
%TO.C,R29*%
X251790000Y-5080000D02*
X250840000Y-5080000D01*
X246050000Y-5080000D02*
X247000000Y-5080000D01*
X250840000Y-4160000D02*
X247000000Y-4160000D01*
X250840000Y-6000000D02*
X250840000Y-4160000D01*
X247000000Y-6000000D02*
X250840000Y-6000000D01*
X247000000Y-4160000D02*
X247000000Y-6000000D01*
%TO.C,R28*%
X319100000Y-77470000D02*
X318150000Y-77470000D01*
X313360000Y-77470000D02*
X314310000Y-77470000D01*
X318150000Y-76550000D02*
X314310000Y-76550000D01*
X318150000Y-78390000D02*
X318150000Y-76550000D01*
X314310000Y-78390000D02*
X318150000Y-78390000D01*
X314310000Y-76550000D02*
X314310000Y-78390000D01*
%TO.C,R27*%
X319100000Y-83820000D02*
X318150000Y-83820000D01*
X313360000Y-83820000D02*
X314310000Y-83820000D01*
X318150000Y-82900000D02*
X314310000Y-82900000D01*
X318150000Y-84740000D02*
X318150000Y-82900000D01*
X314310000Y-84740000D02*
X318150000Y-84740000D01*
X314310000Y-82900000D02*
X314310000Y-84740000D01*
%TO.C,R26*%
X310210000Y-107950000D02*
X309260000Y-107950000D01*
X304470000Y-107950000D02*
X305420000Y-107950000D01*
X309260000Y-107030000D02*
X305420000Y-107030000D01*
X309260000Y-108870000D02*
X309260000Y-107030000D01*
X305420000Y-108870000D02*
X309260000Y-108870000D01*
X305420000Y-107030000D02*
X305420000Y-108870000D01*
%TO.C,R25*%
X310210000Y-115570000D02*
X309260000Y-115570000D01*
X304470000Y-115570000D02*
X305420000Y-115570000D01*
X309260000Y-114650000D02*
X305420000Y-114650000D01*
X309260000Y-116490000D02*
X309260000Y-114650000D01*
X305420000Y-116490000D02*
X309260000Y-116490000D01*
X305420000Y-114650000D02*
X305420000Y-116490000D01*
%TO.C,R24*%
X310210000Y-123190000D02*
X309260000Y-123190000D01*
X304470000Y-123190000D02*
X305420000Y-123190000D01*
X309260000Y-122270000D02*
X305420000Y-122270000D01*
X309260000Y-124110000D02*
X309260000Y-122270000D01*
X305420000Y-124110000D02*
X309260000Y-124110000D01*
X305420000Y-122270000D02*
X305420000Y-124110000D01*
%TO.C,R23*%
X310210000Y-130810000D02*
X309260000Y-130810000D01*
X304470000Y-130810000D02*
X305420000Y-130810000D01*
X309260000Y-129890000D02*
X305420000Y-129890000D01*
X309260000Y-131730000D02*
X309260000Y-129890000D01*
X305420000Y-131730000D02*
X309260000Y-131730000D01*
X305420000Y-129890000D02*
X305420000Y-131730000D01*
%TO.C,R22*%
X310210000Y-138430000D02*
X309260000Y-138430000D01*
X304470000Y-138430000D02*
X305420000Y-138430000D01*
X309260000Y-137510000D02*
X305420000Y-137510000D01*
X309260000Y-139350000D02*
X309260000Y-137510000D01*
X305420000Y-139350000D02*
X309260000Y-139350000D01*
X305420000Y-137510000D02*
X305420000Y-139350000D01*
%TO.C,R21*%
X310210000Y-146050000D02*
X309260000Y-146050000D01*
X304470000Y-146050000D02*
X305420000Y-146050000D01*
X309260000Y-145130000D02*
X305420000Y-145130000D01*
X309260000Y-146970000D02*
X309260000Y-145130000D01*
X305420000Y-146970000D02*
X309260000Y-146970000D01*
X305420000Y-145130000D02*
X305420000Y-146970000D01*
%TO.C,R20*%
X212820000Y-38200000D02*
X212820000Y-37870000D01*
X206280000Y-38200000D02*
X212820000Y-38200000D01*
X206280000Y-37870000D02*
X206280000Y-38200000D01*
X212820000Y-35460000D02*
X212820000Y-35790000D01*
X206280000Y-35460000D02*
X212820000Y-35460000D01*
X206280000Y-35790000D02*
X206280000Y-35460000D01*
%TO.C,R19*%
X202660000Y-29310000D02*
X202660000Y-28980000D01*
X196120000Y-29310000D02*
X202660000Y-29310000D01*
X196120000Y-28980000D02*
X196120000Y-29310000D01*
X202660000Y-26570000D02*
X202660000Y-26900000D01*
X196120000Y-26570000D02*
X202660000Y-26570000D01*
X196120000Y-26900000D02*
X196120000Y-26570000D01*
%TO.C,R18*%
X196310000Y-38200000D02*
X196310000Y-37870000D01*
X189770000Y-38200000D02*
X196310000Y-38200000D01*
X189770000Y-37870000D02*
X189770000Y-38200000D01*
X196310000Y-35460000D02*
X196310000Y-35790000D01*
X189770000Y-35460000D02*
X196310000Y-35460000D01*
X189770000Y-35790000D02*
X189770000Y-35460000D01*
%TO.C,R16*%
X184880000Y-29310000D02*
X184880000Y-28980000D01*
X178340000Y-29310000D02*
X184880000Y-29310000D01*
X178340000Y-28980000D02*
X178340000Y-29310000D01*
X184880000Y-26570000D02*
X184880000Y-26900000D01*
X178340000Y-26570000D02*
X184880000Y-26570000D01*
X178340000Y-26900000D02*
X178340000Y-26570000D01*
%TO.C,R15*%
X178530000Y-38200000D02*
X178530000Y-37870000D01*
X171990000Y-38200000D02*
X178530000Y-38200000D01*
X171990000Y-37870000D02*
X171990000Y-38200000D01*
X178530000Y-35460000D02*
X178530000Y-35790000D01*
X171990000Y-35460000D02*
X178530000Y-35460000D01*
X171990000Y-35790000D02*
X171990000Y-35460000D01*
%TO.C,R14*%
X169640000Y-11530000D02*
X169640000Y-11200000D01*
X163100000Y-11530000D02*
X169640000Y-11530000D01*
X163100000Y-11200000D02*
X163100000Y-11530000D01*
X169640000Y-8790000D02*
X169640000Y-9120000D01*
X163100000Y-8790000D02*
X169640000Y-8790000D01*
X163100000Y-9120000D02*
X163100000Y-8790000D01*
%TO.C,R13*%
X169640000Y-20420000D02*
X169640000Y-20090000D01*
X163100000Y-20420000D02*
X169640000Y-20420000D01*
X163100000Y-20090000D02*
X163100000Y-20420000D01*
X169640000Y-17680000D02*
X169640000Y-18010000D01*
X163100000Y-17680000D02*
X169640000Y-17680000D01*
X163100000Y-18010000D02*
X163100000Y-17680000D01*
%TO.C,R12*%
X169640000Y-29310000D02*
X169640000Y-28980000D01*
X163100000Y-29310000D02*
X169640000Y-29310000D01*
X163100000Y-28980000D02*
X163100000Y-29310000D01*
X169640000Y-26570000D02*
X169640000Y-26900000D01*
X163100000Y-26570000D02*
X169640000Y-26570000D01*
X163100000Y-26900000D02*
X163100000Y-26570000D01*
%TO.C,R11*%
X153130000Y-11530000D02*
X153130000Y-11200000D01*
X146590000Y-11530000D02*
X153130000Y-11530000D01*
X146590000Y-11200000D02*
X146590000Y-11530000D01*
X153130000Y-8790000D02*
X153130000Y-9120000D01*
X146590000Y-8790000D02*
X153130000Y-8790000D01*
X146590000Y-9120000D02*
X146590000Y-8790000D01*
%TO.C,R10*%
X153130000Y-20420000D02*
X153130000Y-20090000D01*
X146590000Y-20420000D02*
X153130000Y-20420000D01*
X146590000Y-20090000D02*
X146590000Y-20420000D01*
X153130000Y-17680000D02*
X153130000Y-18010000D01*
X146590000Y-17680000D02*
X153130000Y-17680000D01*
X146590000Y-18010000D02*
X146590000Y-17680000D01*
%TO.C,R9*%
X153130000Y-29310000D02*
X153130000Y-28980000D01*
X146590000Y-29310000D02*
X153130000Y-29310000D01*
X146590000Y-28980000D02*
X146590000Y-29310000D01*
X153130000Y-26570000D02*
X153130000Y-26900000D01*
X146590000Y-26570000D02*
X153130000Y-26570000D01*
X146590000Y-26900000D02*
X146590000Y-26570000D01*
%TO.C,R8*%
X135350000Y-11530000D02*
X135350000Y-11200000D01*
X128810000Y-11530000D02*
X135350000Y-11530000D01*
X128810000Y-11200000D02*
X128810000Y-11530000D01*
X135350000Y-8790000D02*
X135350000Y-9120000D01*
X128810000Y-8790000D02*
X135350000Y-8790000D01*
X128810000Y-9120000D02*
X128810000Y-8790000D01*
%TO.C,R7*%
X135350000Y-20420000D02*
X135350000Y-20090000D01*
X128810000Y-20420000D02*
X135350000Y-20420000D01*
X128810000Y-20090000D02*
X128810000Y-20420000D01*
X135350000Y-17680000D02*
X135350000Y-18010000D01*
X128810000Y-17680000D02*
X135350000Y-17680000D01*
X128810000Y-18010000D02*
X128810000Y-17680000D01*
%TO.C,R6*%
X135350000Y-29310000D02*
X135350000Y-28980000D01*
X128810000Y-29310000D02*
X135350000Y-29310000D01*
X128810000Y-28980000D02*
X128810000Y-29310000D01*
X135350000Y-26570000D02*
X135350000Y-26900000D01*
X128810000Y-26570000D02*
X135350000Y-26570000D01*
X128810000Y-26900000D02*
X128810000Y-26570000D01*
%TO.C,R5*%
X90900000Y-7720000D02*
X90900000Y-7390000D01*
X84360000Y-7720000D02*
X90900000Y-7720000D01*
X84360000Y-7390000D02*
X84360000Y-7720000D01*
X90900000Y-4980000D02*
X90900000Y-5310000D01*
X84360000Y-4980000D02*
X90900000Y-4980000D01*
X84360000Y-5310000D02*
X84360000Y-4980000D01*
%TO.C,R4*%
X90900000Y-15340000D02*
X90900000Y-15010000D01*
X84360000Y-15340000D02*
X90900000Y-15340000D01*
X84360000Y-15010000D02*
X84360000Y-15340000D01*
X90900000Y-12600000D02*
X90900000Y-12930000D01*
X84360000Y-12600000D02*
X90900000Y-12600000D01*
X84360000Y-12930000D02*
X84360000Y-12600000D01*
%TO.C,R3*%
X90900000Y-22960000D02*
X90900000Y-22630000D01*
X84360000Y-22960000D02*
X90900000Y-22960000D01*
X84360000Y-22630000D02*
X84360000Y-22960000D01*
X90900000Y-20220000D02*
X90900000Y-20550000D01*
X84360000Y-20220000D02*
X90900000Y-20220000D01*
X84360000Y-20550000D02*
X84360000Y-20220000D01*
%TO.C,R2*%
X90900000Y-30580000D02*
X90900000Y-30250000D01*
X84360000Y-30580000D02*
X90900000Y-30580000D01*
X84360000Y-30250000D02*
X84360000Y-30580000D01*
X90900000Y-27840000D02*
X90900000Y-28170000D01*
X84360000Y-27840000D02*
X90900000Y-27840000D01*
X84360000Y-28170000D02*
X84360000Y-27840000D01*
%TO.C,R1*%
X90900000Y-38200000D02*
X90900000Y-37870000D01*
X84360000Y-38200000D02*
X90900000Y-38200000D01*
X84360000Y-37870000D02*
X84360000Y-38200000D01*
X90900000Y-35460000D02*
X90900000Y-35790000D01*
X84360000Y-35460000D02*
X90900000Y-35460000D01*
X84360000Y-35790000D02*
X84360000Y-35460000D01*
%TO.C,JP2*%
X269180000Y-2480000D02*
X270510000Y-2480000D01*
X269180000Y-3810000D02*
X269180000Y-2480000D01*
X269180000Y-5080000D02*
X271840000Y-5080000D01*
X271840000Y-5080000D02*
X271840000Y-7680000D01*
X269180000Y-5080000D02*
X269180000Y-7680000D01*
X269180000Y-7680000D02*
X271840000Y-7680000D01*
%TO.C,D29*%
X232135000Y-6370000D02*
X235225000Y-6370000D01*
X236180000Y-3810000D02*
G75*
G03*
X236180000Y-3810000I-2500000J0D01*
G01*
X233679538Y-820000D02*
G75*
G02*
X235224830Y-6370000I462J-2990000D01*
G01*
X233680462Y-820000D02*
G75*
G03*
X232135170Y-6370000I-462J-2990000D01*
G01*
%TO.C,D28*%
X314940000Y-91165000D02*
X314940000Y-94255000D01*
X320000000Y-92710000D02*
G75*
G03*
X320000000Y-92710000I-2500000J0D01*
G01*
X320490000Y-92709538D02*
G75*
G02*
X314940000Y-94254830I-2990000J-462D01*
G01*
X320490000Y-92710462D02*
G75*
G03*
X314940000Y-91165170I-2990000J462D01*
G01*
%TO.C,D27*%
X320000000Y-100330000D02*
G75*
G03*
X320000000Y-100330000I-2500000J0D01*
G01*
X314940000Y-98785000D02*
X314940000Y-101875000D01*
X320490000Y-100330462D02*
G75*
G03*
X314940000Y-98785170I-2990000J462D01*
G01*
X320490000Y-100329538D02*
G75*
G02*
X314940000Y-101874830I-2990000J-462D01*
G01*
%TO.C,D26*%
X314940000Y-106405000D02*
X314940000Y-109495000D01*
X320000000Y-107950000D02*
G75*
G03*
X320000000Y-107950000I-2500000J0D01*
G01*
X320490000Y-107949538D02*
G75*
G02*
X314940000Y-109494830I-2990000J-462D01*
G01*
X320490000Y-107950462D02*
G75*
G03*
X314940000Y-106405170I-2990000J462D01*
G01*
%TO.C,D25*%
X314940000Y-114025000D02*
X314940000Y-117115000D01*
X320000000Y-115570000D02*
G75*
G03*
X320000000Y-115570000I-2500000J0D01*
G01*
X320490000Y-115569538D02*
G75*
G02*
X314940000Y-117114830I-2990000J-462D01*
G01*
X320490000Y-115570462D02*
G75*
G03*
X314940000Y-114025170I-2990000J462D01*
G01*
%TO.C,D24*%
X314940000Y-121645000D02*
X314940000Y-124735000D01*
X320000000Y-123190000D02*
G75*
G03*
X320000000Y-123190000I-2500000J0D01*
G01*
X320490000Y-123189538D02*
G75*
G02*
X314940000Y-124734830I-2990000J-462D01*
G01*
X320490000Y-123190462D02*
G75*
G03*
X314940000Y-121645170I-2990000J462D01*
G01*
%TO.C,D23*%
X314940000Y-129265000D02*
X314940000Y-132355000D01*
X320000000Y-130810000D02*
G75*
G03*
X320000000Y-130810000I-2500000J0D01*
G01*
X320490000Y-130809538D02*
G75*
G02*
X314940000Y-132354830I-2990000J-462D01*
G01*
X320490000Y-130810462D02*
G75*
G03*
X314940000Y-129265170I-2990000J462D01*
G01*
%TO.C,D22*%
X314940000Y-136885000D02*
X314940000Y-139975000D01*
X320000000Y-138430000D02*
G75*
G03*
X320000000Y-138430000I-2500000J0D01*
G01*
X320490000Y-138429538D02*
G75*
G02*
X314940000Y-139974830I-2990000J-462D01*
G01*
X320490000Y-138430462D02*
G75*
G03*
X314940000Y-136885170I-2990000J462D01*
G01*
%TO.C,D21*%
X314940000Y-144505000D02*
X314940000Y-147595000D01*
X320000000Y-146050000D02*
G75*
G03*
X320000000Y-146050000I-2500000J0D01*
G01*
X320490000Y-146049538D02*
G75*
G02*
X314940000Y-147594830I-2990000J-462D01*
G01*
X320490000Y-146050462D02*
G75*
G03*
X314940000Y-144505170I-2990000J462D01*
G01*
%TO.C,SW49*%
X269875000Y-65405000D02*
X283845000Y-65405000D01*
X283845000Y-65405000D02*
X283845000Y-79375000D01*
X283845000Y-79375000D02*
X269875000Y-79375000D01*
X269875000Y-79375000D02*
X269875000Y-65405000D01*
%TO.C,SW48*%
X302895000Y-45085000D02*
X316865000Y-45085000D01*
X316865000Y-45085000D02*
X316865000Y-59055000D01*
X316865000Y-59055000D02*
X302895000Y-59055000D01*
X302895000Y-59055000D02*
X302895000Y-45085000D01*
%TO.C,SW47*%
X20955000Y-86995000D02*
X34925000Y-86995000D01*
X34925000Y-86995000D02*
X34925000Y-100965000D01*
X34925000Y-100965000D02*
X20955000Y-100965000D01*
X20955000Y-100965000D02*
X20955000Y-86995000D01*
%TO.C,SW46*%
X36195000Y-108585000D02*
X50165000Y-108585000D01*
X50165000Y-108585000D02*
X50165000Y-122555000D01*
X50165000Y-122555000D02*
X36195000Y-122555000D01*
X36195000Y-122555000D02*
X36195000Y-108585000D01*
%TO.C,SW45*%
X277495000Y-86995000D02*
X291465000Y-86995000D01*
X291465000Y-86995000D02*
X291465000Y-100965000D01*
X291465000Y-100965000D02*
X277495000Y-100965000D01*
X277495000Y-100965000D02*
X277495000Y-86995000D01*
%TO.C,SW44*%
X255905000Y-108585000D02*
X269875000Y-108585000D01*
X269875000Y-108585000D02*
X269875000Y-122555000D01*
X269875000Y-122555000D02*
X255905000Y-122555000D01*
X255905000Y-122555000D02*
X255905000Y-108585000D01*
%TO.C,SW43*%
X160655000Y-45085000D02*
X174625000Y-45085000D01*
X174625000Y-45085000D02*
X174625000Y-59055000D01*
X174625000Y-59055000D02*
X160655000Y-59055000D01*
X160655000Y-59055000D02*
X160655000Y-45085000D01*
%TO.C,SW42*%
X66675000Y-65405000D02*
X80645000Y-65405000D01*
X80645000Y-65405000D02*
X80645000Y-79375000D01*
X80645000Y-79375000D02*
X66675000Y-79375000D01*
X66675000Y-79375000D02*
X66675000Y-65405000D01*
%TO.C,SW41*%
X208915000Y-65405000D02*
X222885000Y-65405000D01*
X222885000Y-65405000D02*
X222885000Y-79375000D01*
X222885000Y-79375000D02*
X208915000Y-79375000D01*
X208915000Y-79375000D02*
X208915000Y-65405000D01*
%TO.C,SW40*%
X139065000Y-86995000D02*
X153035000Y-86995000D01*
X153035000Y-86995000D02*
X153035000Y-100965000D01*
X153035000Y-100965000D02*
X139065000Y-100965000D01*
X139065000Y-100965000D02*
X139065000Y-86995000D01*
%TO.C,SW39*%
X235585000Y-108585000D02*
X249555000Y-108585000D01*
X249555000Y-108585000D02*
X249555000Y-122555000D01*
X249555000Y-122555000D02*
X235585000Y-122555000D01*
X235585000Y-122555000D02*
X235585000Y-108585000D01*
%TO.C,SW38*%
X140335000Y-45085000D02*
X154305000Y-45085000D01*
X154305000Y-45085000D02*
X154305000Y-59055000D01*
X154305000Y-59055000D02*
X140335000Y-59055000D01*
X140335000Y-59055000D02*
X140335000Y-45085000D01*
%TO.C,SW37*%
X249555000Y-65405000D02*
X263525000Y-65405000D01*
X263525000Y-65405000D02*
X263525000Y-79375000D01*
X263525000Y-79375000D02*
X249555000Y-79375000D01*
X249555000Y-79375000D02*
X249555000Y-65405000D01*
%TO.C,SW36*%
X133985000Y-108585000D02*
X147955000Y-108585000D01*
X147955000Y-108585000D02*
X147955000Y-122555000D01*
X147955000Y-122555000D02*
X133985000Y-122555000D01*
X133985000Y-122555000D02*
X133985000Y-108585000D01*
%TO.C,SW35*%
X174625000Y-108585000D02*
X188595000Y-108585000D01*
X188595000Y-108585000D02*
X188595000Y-122555000D01*
X188595000Y-122555000D02*
X174625000Y-122555000D01*
X174625000Y-122555000D02*
X174625000Y-108585000D01*
%TO.C,SW34*%
X118745000Y-86995000D02*
X132715000Y-86995000D01*
X132715000Y-86995000D02*
X132715000Y-100965000D01*
X132715000Y-100965000D02*
X118745000Y-100965000D01*
X118745000Y-100965000D02*
X118745000Y-86995000D01*
%TO.C,SW33*%
X262255000Y-45085000D02*
X276225000Y-45085000D01*
X276225000Y-45085000D02*
X276225000Y-59055000D01*
X276225000Y-59055000D02*
X262255000Y-59055000D01*
X262255000Y-59055000D02*
X262255000Y-45085000D01*
%TO.C,SW32*%
X120015000Y-45085000D02*
X133985000Y-45085000D01*
X133985000Y-45085000D02*
X133985000Y-59055000D01*
X133985000Y-59055000D02*
X120015000Y-59055000D01*
X120015000Y-59055000D02*
X120015000Y-45085000D01*
%TO.C,SW31*%
X168275000Y-65405000D02*
X182245000Y-65405000D01*
X182245000Y-65405000D02*
X182245000Y-79375000D01*
X182245000Y-79375000D02*
X168275000Y-79375000D01*
X168275000Y-79375000D02*
X168275000Y-65405000D01*
%TO.C,SW30*%
X194945000Y-108585000D02*
X208915000Y-108585000D01*
X208915000Y-108585000D02*
X208915000Y-122555000D01*
X208915000Y-122555000D02*
X194945000Y-122555000D01*
X194945000Y-122555000D02*
X194945000Y-108585000D01*
%TO.C,SW29*%
X86995000Y-65405000D02*
X100965000Y-65405000D01*
X100965000Y-65405000D02*
X100965000Y-79375000D01*
X100965000Y-79375000D02*
X86995000Y-79375000D01*
X86995000Y-79375000D02*
X86995000Y-65405000D01*
%TO.C,SW28*%
X215265000Y-108585000D02*
X229235000Y-108585000D01*
X229235000Y-108585000D02*
X229235000Y-122555000D01*
X229235000Y-122555000D02*
X215265000Y-122555000D01*
X215265000Y-122555000D02*
X215265000Y-108585000D01*
%TO.C,SW27*%
X99695000Y-45085000D02*
X113665000Y-45085000D01*
X113665000Y-45085000D02*
X113665000Y-59055000D01*
X113665000Y-59055000D02*
X99695000Y-59055000D01*
X99695000Y-59055000D02*
X99695000Y-45085000D01*
%TO.C,SW26*%
X127635000Y-65405000D02*
X141605000Y-65405000D01*
X141605000Y-65405000D02*
X141605000Y-79375000D01*
X141605000Y-79375000D02*
X127635000Y-79375000D01*
X127635000Y-79375000D02*
X127635000Y-65405000D01*
%TO.C,SW25*%
X220345000Y-86995000D02*
X234315000Y-86995000D01*
X234315000Y-86995000D02*
X234315000Y-100965000D01*
X234315000Y-100965000D02*
X220345000Y-100965000D01*
X220345000Y-100965000D02*
X220345000Y-86995000D01*
%TO.C,SW24*%
X98425000Y-86995000D02*
X112395000Y-86995000D01*
X112395000Y-86995000D02*
X112395000Y-100965000D01*
X112395000Y-100965000D02*
X98425000Y-100965000D01*
X98425000Y-100965000D02*
X98425000Y-86995000D01*
%TO.C,SW23*%
X240665000Y-86995000D02*
X254635000Y-86995000D01*
X254635000Y-86995000D02*
X254635000Y-100965000D01*
X254635000Y-100965000D02*
X240665000Y-100965000D01*
X240665000Y-100965000D02*
X240665000Y-86995000D01*
%TO.C,SW22*%
X79375000Y-45085000D02*
X93345000Y-45085000D01*
X93345000Y-45085000D02*
X93345000Y-59055000D01*
X93345000Y-59055000D02*
X79375000Y-59055000D01*
X79375000Y-59055000D02*
X79375000Y-45085000D01*
%TO.C,SW21*%
X78105000Y-86995000D02*
X92075000Y-86995000D01*
X92075000Y-86995000D02*
X92075000Y-100965000D01*
X92075000Y-100965000D02*
X78105000Y-100965000D01*
X78105000Y-100965000D02*
X78105000Y-86995000D01*
%TO.C,SW20*%
X200025000Y-86995000D02*
X213995000Y-86995000D01*
X213995000Y-86995000D02*
X213995000Y-100965000D01*
X213995000Y-100965000D02*
X200025000Y-100965000D01*
X200025000Y-100965000D02*
X200025000Y-86995000D01*
%TO.C,SW19*%
X113665000Y-108585000D02*
X127635000Y-108585000D01*
X127635000Y-108585000D02*
X127635000Y-122555000D01*
X127635000Y-122555000D02*
X113665000Y-122555000D01*
X113665000Y-122555000D02*
X113665000Y-108585000D01*
%TO.C,SW18*%
X241935000Y-45085000D02*
X255905000Y-45085000D01*
X255905000Y-45085000D02*
X255905000Y-59055000D01*
X255905000Y-59055000D02*
X241935000Y-59055000D01*
X241935000Y-59055000D02*
X241935000Y-45085000D01*
%TO.C,SW17*%
X59055000Y-45085000D02*
X73025000Y-45085000D01*
X73025000Y-45085000D02*
X73025000Y-59055000D01*
X73025000Y-59055000D02*
X59055000Y-59055000D01*
X59055000Y-59055000D02*
X59055000Y-45085000D01*
%TO.C,SW16*%
X73025000Y-108585000D02*
X86995000Y-108585000D01*
X86995000Y-108585000D02*
X86995000Y-122555000D01*
X86995000Y-122555000D02*
X73025000Y-122555000D01*
X73025000Y-122555000D02*
X73025000Y-108585000D01*
%TO.C,SW15*%
X107315000Y-65405000D02*
X121285000Y-65405000D01*
X121285000Y-65405000D02*
X121285000Y-79375000D01*
X121285000Y-79375000D02*
X107315000Y-79375000D01*
X107315000Y-79375000D02*
X107315000Y-65405000D01*
%TO.C,SW14*%
X179705000Y-86995000D02*
X193675000Y-86995000D01*
X193675000Y-86995000D02*
X193675000Y-100965000D01*
X193675000Y-100965000D02*
X179705000Y-100965000D01*
X179705000Y-100965000D02*
X179705000Y-86995000D01*
%TO.C,SW13*%
X154305000Y-108585000D02*
X168275000Y-108585000D01*
X168275000Y-108585000D02*
X168275000Y-122555000D01*
X168275000Y-122555000D02*
X154305000Y-122555000D01*
X154305000Y-122555000D02*
X154305000Y-108585000D01*
%TO.C,SW12*%
X201295000Y-45085000D02*
X215265000Y-45085000D01*
X215265000Y-45085000D02*
X215265000Y-59055000D01*
X215265000Y-59055000D02*
X201295000Y-59055000D01*
X201295000Y-59055000D02*
X201295000Y-45085000D01*
%TO.C,SW11*%
X38735000Y-45085000D02*
X52705000Y-45085000D01*
X52705000Y-45085000D02*
X52705000Y-59055000D01*
X52705000Y-59055000D02*
X38735000Y-59055000D01*
X38735000Y-59055000D02*
X38735000Y-45085000D01*
%TO.C,SW10*%
X147955000Y-65405000D02*
X161925000Y-65405000D01*
X161925000Y-65405000D02*
X161925000Y-79375000D01*
X161925000Y-79375000D02*
X147955000Y-79375000D01*
X147955000Y-79375000D02*
X147955000Y-65405000D01*
%TO.C,SW9*%
X46355000Y-65405000D02*
X60325000Y-65405000D01*
X60325000Y-65405000D02*
X60325000Y-79375000D01*
X60325000Y-79375000D02*
X46355000Y-79375000D01*
X46355000Y-79375000D02*
X46355000Y-65405000D01*
%TO.C,SW8*%
X188595000Y-65405000D02*
X202565000Y-65405000D01*
X202565000Y-65405000D02*
X202565000Y-79375000D01*
X202565000Y-79375000D02*
X188595000Y-79375000D01*
X188595000Y-79375000D02*
X188595000Y-65405000D01*
%TO.C,SW7*%
X57785000Y-86995000D02*
X71755000Y-86995000D01*
X71755000Y-86995000D02*
X71755000Y-100965000D01*
X71755000Y-100965000D02*
X57785000Y-100965000D01*
X57785000Y-100965000D02*
X57785000Y-86995000D01*
%TO.C,SW6*%
X180975000Y-45085000D02*
X194945000Y-45085000D01*
X194945000Y-45085000D02*
X194945000Y-59055000D01*
X194945000Y-59055000D02*
X180975000Y-59055000D01*
X180975000Y-59055000D02*
X180975000Y-45085000D01*
%TO.C,SW5*%
X221615000Y-45085000D02*
X235585000Y-45085000D01*
X235585000Y-45085000D02*
X235585000Y-59055000D01*
X235585000Y-59055000D02*
X221615000Y-59055000D01*
X221615000Y-59055000D02*
X221615000Y-45085000D01*
%TO.C,SW4*%
X93345000Y-108585000D02*
X107315000Y-108585000D01*
X107315000Y-108585000D02*
X107315000Y-122555000D01*
X107315000Y-122555000D02*
X93345000Y-122555000D01*
X93345000Y-122555000D02*
X93345000Y-108585000D01*
%TO.C,SW3*%
X229235000Y-65405000D02*
X243205000Y-65405000D01*
X243205000Y-65405000D02*
X243205000Y-79375000D01*
X243205000Y-79375000D02*
X229235000Y-79375000D01*
X229235000Y-79375000D02*
X229235000Y-65405000D01*
%TO.C,SW2*%
X159385000Y-86995000D02*
X173355000Y-86995000D01*
X173355000Y-86995000D02*
X173355000Y-100965000D01*
X173355000Y-100965000D02*
X159385000Y-100965000D01*
X159385000Y-100965000D02*
X159385000Y-86995000D01*
%TO.C,SW1*%
X142875000Y-131445000D02*
X156845000Y-131445000D01*
X156845000Y-131445000D02*
X156845000Y-145415000D01*
X156845000Y-145415000D02*
X142875000Y-145415000D01*
X142875000Y-145415000D02*
X142875000Y-131445000D01*
%TO.C,JP1*%
X283150000Y-5080000D02*
X285810000Y-5080000D01*
X283150000Y-5080000D02*
X283150000Y-10220000D01*
X283150000Y-10220000D02*
X285810000Y-10220000D01*
X285810000Y-5080000D02*
X285810000Y-10220000D01*
X285810000Y-2480000D02*
X285810000Y-3810000D01*
X284480000Y-2480000D02*
X285810000Y-2480000D01*
%TO.C,D20*%
X65190000Y-11580000D02*
X65190000Y-13820000D01*
X65190000Y-13820000D02*
X69430000Y-13820000D01*
X69430000Y-13820000D02*
X69430000Y-11580000D01*
X69430000Y-11580000D02*
X65190000Y-11580000D01*
X64540000Y-12700000D02*
X65190000Y-12700000D01*
X70080000Y-12700000D02*
X69430000Y-12700000D01*
X65910000Y-11580000D02*
X65910000Y-13820000D01*
X66030000Y-11580000D02*
X66030000Y-13820000D01*
X65790000Y-11580000D02*
X65790000Y-13820000D01*
%TO.C,D19*%
X65190000Y-20470000D02*
X65190000Y-22710000D01*
X65190000Y-22710000D02*
X69430000Y-22710000D01*
X69430000Y-22710000D02*
X69430000Y-20470000D01*
X69430000Y-20470000D02*
X65190000Y-20470000D01*
X64540000Y-21590000D02*
X65190000Y-21590000D01*
X70080000Y-21590000D02*
X69430000Y-21590000D01*
X65910000Y-20470000D02*
X65910000Y-22710000D01*
X66030000Y-20470000D02*
X66030000Y-22710000D01*
X65790000Y-20470000D02*
X65790000Y-22710000D01*
%TO.C,D18*%
X65190000Y-28090000D02*
X65190000Y-30330000D01*
X65190000Y-30330000D02*
X69430000Y-30330000D01*
X69430000Y-30330000D02*
X69430000Y-28090000D01*
X69430000Y-28090000D02*
X65190000Y-28090000D01*
X64540000Y-29210000D02*
X65190000Y-29210000D01*
X70080000Y-29210000D02*
X69430000Y-29210000D01*
X65910000Y-28090000D02*
X65910000Y-30330000D01*
X66030000Y-28090000D02*
X66030000Y-30330000D01*
X65790000Y-28090000D02*
X65790000Y-30330000D01*
%TO.C,D17*%
X65190000Y-35710000D02*
X65190000Y-37950000D01*
X65190000Y-37950000D02*
X69430000Y-37950000D01*
X69430000Y-37950000D02*
X69430000Y-35710000D01*
X69430000Y-35710000D02*
X65190000Y-35710000D01*
X64540000Y-36830000D02*
X65190000Y-36830000D01*
X70080000Y-36830000D02*
X69430000Y-36830000D01*
X65910000Y-35710000D02*
X65910000Y-37950000D01*
X66030000Y-35710000D02*
X66030000Y-37950000D01*
X65790000Y-35710000D02*
X65790000Y-37950000D01*
%TO.C,D16*%
X44870000Y-3960000D02*
X44870000Y-6200000D01*
X44870000Y-6200000D02*
X49110000Y-6200000D01*
X49110000Y-6200000D02*
X49110000Y-3960000D01*
X49110000Y-3960000D02*
X44870000Y-3960000D01*
X44220000Y-5080000D02*
X44870000Y-5080000D01*
X49760000Y-5080000D02*
X49110000Y-5080000D01*
X45590000Y-3960000D02*
X45590000Y-6200000D01*
X45710000Y-3960000D02*
X45710000Y-6200000D01*
X45470000Y-3960000D02*
X45470000Y-6200000D01*
%TO.C,D15*%
X44870000Y-11580000D02*
X44870000Y-13820000D01*
X44870000Y-13820000D02*
X49110000Y-13820000D01*
X49110000Y-13820000D02*
X49110000Y-11580000D01*
X49110000Y-11580000D02*
X44870000Y-11580000D01*
X44220000Y-12700000D02*
X44870000Y-12700000D01*
X49760000Y-12700000D02*
X49110000Y-12700000D01*
X45590000Y-11580000D02*
X45590000Y-13820000D01*
X45710000Y-11580000D02*
X45710000Y-13820000D01*
X45470000Y-11580000D02*
X45470000Y-13820000D01*
%TO.C,D14*%
X44870000Y-20470000D02*
X44870000Y-22710000D01*
X44870000Y-22710000D02*
X49110000Y-22710000D01*
X49110000Y-22710000D02*
X49110000Y-20470000D01*
X49110000Y-20470000D02*
X44870000Y-20470000D01*
X44220000Y-21590000D02*
X44870000Y-21590000D01*
X49760000Y-21590000D02*
X49110000Y-21590000D01*
X45590000Y-20470000D02*
X45590000Y-22710000D01*
X45710000Y-20470000D02*
X45710000Y-22710000D01*
X45470000Y-20470000D02*
X45470000Y-22710000D01*
%TO.C,D13*%
X44870000Y-28090000D02*
X44870000Y-30330000D01*
X44870000Y-30330000D02*
X49110000Y-30330000D01*
X49110000Y-30330000D02*
X49110000Y-28090000D01*
X49110000Y-28090000D02*
X44870000Y-28090000D01*
X44220000Y-29210000D02*
X44870000Y-29210000D01*
X49760000Y-29210000D02*
X49110000Y-29210000D01*
X45590000Y-28090000D02*
X45590000Y-30330000D01*
X45710000Y-28090000D02*
X45710000Y-30330000D01*
X45470000Y-28090000D02*
X45470000Y-30330000D01*
%TO.C,D12*%
X44870000Y-35710000D02*
X44870000Y-37950000D01*
X44870000Y-37950000D02*
X49110000Y-37950000D01*
X49110000Y-37950000D02*
X49110000Y-35710000D01*
X49110000Y-35710000D02*
X44870000Y-35710000D01*
X44220000Y-36830000D02*
X44870000Y-36830000D01*
X49760000Y-36830000D02*
X49110000Y-36830000D01*
X45590000Y-35710000D02*
X45590000Y-37950000D01*
X45710000Y-35710000D02*
X45710000Y-37950000D01*
X45470000Y-35710000D02*
X45470000Y-37950000D01*
%TO.C,D11*%
X24550000Y-11580000D02*
X24550000Y-13820000D01*
X24550000Y-13820000D02*
X28790000Y-13820000D01*
X28790000Y-13820000D02*
X28790000Y-11580000D01*
X28790000Y-11580000D02*
X24550000Y-11580000D01*
X23900000Y-12700000D02*
X24550000Y-12700000D01*
X29440000Y-12700000D02*
X28790000Y-12700000D01*
X25270000Y-11580000D02*
X25270000Y-13820000D01*
X25390000Y-11580000D02*
X25390000Y-13820000D01*
X25150000Y-11580000D02*
X25150000Y-13820000D01*
%TO.C,D10*%
X24550000Y-19200000D02*
X24550000Y-21440000D01*
X24550000Y-21440000D02*
X28790000Y-21440000D01*
X28790000Y-21440000D02*
X28790000Y-19200000D01*
X28790000Y-19200000D02*
X24550000Y-19200000D01*
X23900000Y-20320000D02*
X24550000Y-20320000D01*
X29440000Y-20320000D02*
X28790000Y-20320000D01*
X25270000Y-19200000D02*
X25270000Y-21440000D01*
X25390000Y-19200000D02*
X25390000Y-21440000D01*
X25150000Y-19200000D02*
X25150000Y-21440000D01*
%TO.C,D9*%
X24550000Y-28090000D02*
X24550000Y-30330000D01*
X24550000Y-30330000D02*
X28790000Y-30330000D01*
X28790000Y-30330000D02*
X28790000Y-28090000D01*
X28790000Y-28090000D02*
X24550000Y-28090000D01*
X23900000Y-29210000D02*
X24550000Y-29210000D01*
X29440000Y-29210000D02*
X28790000Y-29210000D01*
X25270000Y-28090000D02*
X25270000Y-30330000D01*
X25390000Y-28090000D02*
X25390000Y-30330000D01*
X25150000Y-28090000D02*
X25150000Y-30330000D01*
%TO.C,D8*%
X24550000Y-35710000D02*
X24550000Y-37950000D01*
X24550000Y-37950000D02*
X28790000Y-37950000D01*
X28790000Y-37950000D02*
X28790000Y-35710000D01*
X28790000Y-35710000D02*
X24550000Y-35710000D01*
X23900000Y-36830000D02*
X24550000Y-36830000D01*
X29440000Y-36830000D02*
X28790000Y-36830000D01*
X25270000Y-35710000D02*
X25270000Y-37950000D01*
X25390000Y-35710000D02*
X25390000Y-37950000D01*
X25150000Y-35710000D02*
X25150000Y-37950000D01*
%TO.C,D7*%
X5500000Y-3960000D02*
X5500000Y-6200000D01*
X5500000Y-6200000D02*
X9740000Y-6200000D01*
X9740000Y-6200000D02*
X9740000Y-3960000D01*
X9740000Y-3960000D02*
X5500000Y-3960000D01*
X4850000Y-5080000D02*
X5500000Y-5080000D01*
X10390000Y-5080000D02*
X9740000Y-5080000D01*
X6220000Y-3960000D02*
X6220000Y-6200000D01*
X6340000Y-3960000D02*
X6340000Y-6200000D01*
X6100000Y-3960000D02*
X6100000Y-6200000D01*
%TO.C,D6*%
X5500000Y-11580000D02*
X5500000Y-13820000D01*
X5500000Y-13820000D02*
X9740000Y-13820000D01*
X9740000Y-13820000D02*
X9740000Y-11580000D01*
X9740000Y-11580000D02*
X5500000Y-11580000D01*
X4850000Y-12700000D02*
X5500000Y-12700000D01*
X10390000Y-12700000D02*
X9740000Y-12700000D01*
X6220000Y-11580000D02*
X6220000Y-13820000D01*
X6340000Y-11580000D02*
X6340000Y-13820000D01*
X6100000Y-11580000D02*
X6100000Y-13820000D01*
%TO.C,D5*%
X5500000Y-20470000D02*
X5500000Y-22710000D01*
X5500000Y-22710000D02*
X9740000Y-22710000D01*
X9740000Y-22710000D02*
X9740000Y-20470000D01*
X9740000Y-20470000D02*
X5500000Y-20470000D01*
X4850000Y-21590000D02*
X5500000Y-21590000D01*
X10390000Y-21590000D02*
X9740000Y-21590000D01*
X6220000Y-20470000D02*
X6220000Y-22710000D01*
X6340000Y-20470000D02*
X6340000Y-22710000D01*
X6100000Y-20470000D02*
X6100000Y-22710000D01*
%TO.C,D4*%
X5500000Y-28090000D02*
X5500000Y-30330000D01*
X5500000Y-30330000D02*
X9740000Y-30330000D01*
X9740000Y-30330000D02*
X9740000Y-28090000D01*
X9740000Y-28090000D02*
X5500000Y-28090000D01*
X4850000Y-29210000D02*
X5500000Y-29210000D01*
X10390000Y-29210000D02*
X9740000Y-29210000D01*
X6220000Y-28090000D02*
X6220000Y-30330000D01*
X6340000Y-28090000D02*
X6340000Y-30330000D01*
X6100000Y-28090000D02*
X6100000Y-30330000D01*
%TO.C,D3*%
X5500000Y-35710000D02*
X5500000Y-37950000D01*
X5500000Y-37950000D02*
X9740000Y-37950000D01*
X9740000Y-37950000D02*
X9740000Y-35710000D01*
X9740000Y-35710000D02*
X5500000Y-35710000D01*
X4850000Y-36830000D02*
X5500000Y-36830000D01*
X10390000Y-36830000D02*
X9740000Y-36830000D01*
X6220000Y-35710000D02*
X6220000Y-37950000D01*
X6340000Y-35710000D02*
X6340000Y-37950000D01*
X6100000Y-35710000D02*
X6100000Y-37950000D01*
%TO.C,D2*%
X152820000Y-35710000D02*
X152820000Y-37950000D01*
X152820000Y-37950000D02*
X157060000Y-37950000D01*
X157060000Y-37950000D02*
X157060000Y-35710000D01*
X157060000Y-35710000D02*
X152820000Y-35710000D01*
X152170000Y-36830000D02*
X152820000Y-36830000D01*
X157710000Y-36830000D02*
X157060000Y-36830000D01*
X153540000Y-35710000D02*
X153540000Y-37950000D01*
X153660000Y-35710000D02*
X153660000Y-37950000D01*
X153420000Y-35710000D02*
X153420000Y-37950000D01*
%TO.C,D1*%
X133770000Y-35710000D02*
X133770000Y-37950000D01*
X133770000Y-37950000D02*
X138010000Y-37950000D01*
X138010000Y-37950000D02*
X138010000Y-35710000D01*
X138010000Y-35710000D02*
X133770000Y-35710000D01*
X133120000Y-36830000D02*
X133770000Y-36830000D01*
X138660000Y-36830000D02*
X138010000Y-36830000D01*
X134490000Y-35710000D02*
X134490000Y-37950000D01*
X134610000Y-35710000D02*
X134610000Y-37950000D01*
X134370000Y-35710000D02*
X134370000Y-37950000D01*
%TO.C,C2*%
X112970000Y-20210000D02*
X120710000Y-20210000D01*
X120710000Y-20210000D02*
X120710000Y-7970000D01*
X120710000Y-7970000D02*
X112970000Y-7970000D01*
X112970000Y-7970000D02*
X112970000Y-20210000D01*
X116840000Y-20550000D02*
X116840000Y-20210000D01*
X116840000Y-7630000D02*
X116840000Y-7970000D01*
%TO.C,C1*%
X310580000Y-26770000D02*
X314220000Y-26770000D01*
X310580000Y-29110000D02*
X314220000Y-29110000D01*
X310580000Y-26770000D02*
X310580000Y-27015000D01*
X310580000Y-28865000D02*
X310580000Y-29110000D01*
X314220000Y-26770000D02*
X314220000Y-27015000D01*
X314220000Y-28865000D02*
X314220000Y-29110000D01*
%TO.C,REF2*%
D11*
X316452380Y-33582380D02*
X316119047Y-33106190D01*
X315880952Y-33582380D02*
X315880952Y-32582380D01*
X316261904Y-32582380D01*
X316357142Y-32630000D01*
X316404761Y-32677619D01*
X316452380Y-32772857D01*
X316452380Y-32915714D01*
X316404761Y-33010952D01*
X316357142Y-33058571D01*
X316261904Y-33106190D01*
X315880952Y-33106190D01*
X316880952Y-33058571D02*
X317214285Y-33058571D01*
X317357142Y-33582380D02*
X316880952Y-33582380D01*
X316880952Y-32582380D01*
X317357142Y-32582380D01*
X318119047Y-33058571D02*
X317785714Y-33058571D01*
X317785714Y-33582380D02*
X317785714Y-32582380D01*
X318261904Y-32582380D01*
X318595238Y-32677619D02*
X318642857Y-32630000D01*
X318738095Y-32582380D01*
X318976190Y-32582380D01*
X319071428Y-32630000D01*
X319119047Y-32677619D01*
X319166666Y-32772857D01*
X319166666Y-32868095D01*
X319119047Y-33010952D01*
X318547619Y-33582380D01*
X319166666Y-33582380D01*
%TO.C,REF4*%
X293592380Y-141532380D02*
X293259047Y-141056190D01*
X293020952Y-141532380D02*
X293020952Y-140532380D01*
X293401904Y-140532380D01*
X293497142Y-140580000D01*
X293544761Y-140627619D01*
X293592380Y-140722857D01*
X293592380Y-140865714D01*
X293544761Y-140960952D01*
X293497142Y-141008571D01*
X293401904Y-141056190D01*
X293020952Y-141056190D01*
X294020952Y-141008571D02*
X294354285Y-141008571D01*
X294497142Y-141532380D02*
X294020952Y-141532380D01*
X294020952Y-140532380D01*
X294497142Y-140532380D01*
X295259047Y-141008571D02*
X294925714Y-141008571D01*
X294925714Y-141532380D02*
X294925714Y-140532380D01*
X295401904Y-140532380D01*
X296211428Y-140865714D02*
X296211428Y-141532380D01*
X295973333Y-140484761D02*
X295735238Y-141199047D01*
X296354285Y-141199047D01*
%TO.C,REF3*%
X2762380Y-142802380D02*
X2429047Y-142326190D01*
X2190952Y-142802380D02*
X2190952Y-141802380D01*
X2571904Y-141802380D01*
X2667142Y-141850000D01*
X2714761Y-141897619D01*
X2762380Y-141992857D01*
X2762380Y-142135714D01*
X2714761Y-142230952D01*
X2667142Y-142278571D01*
X2571904Y-142326190D01*
X2190952Y-142326190D01*
X3190952Y-142278571D02*
X3524285Y-142278571D01*
X3667142Y-142802380D02*
X3190952Y-142802380D01*
X3190952Y-141802380D01*
X3667142Y-141802380D01*
X4429047Y-142278571D02*
X4095714Y-142278571D01*
X4095714Y-142802380D02*
X4095714Y-141802380D01*
X4571904Y-141802380D01*
X4857619Y-141802380D02*
X5476666Y-141802380D01*
X5143333Y-142183333D01*
X5286190Y-142183333D01*
X5381428Y-142230952D01*
X5429047Y-142278571D01*
X5476666Y-142373809D01*
X5476666Y-142611904D01*
X5429047Y-142707142D01*
X5381428Y-142754761D01*
X5286190Y-142802380D01*
X5000476Y-142802380D01*
X4905238Y-142754761D01*
X4857619Y-142707142D01*
%TO.C,REF1*%
X18002380Y-562380D02*
X17669047Y-86190D01*
X17430952Y-562380D02*
X17430952Y437619D01*
X17811904Y437619D01*
X17907142Y390000D01*
X17954761Y342380D01*
X18002380Y247142D01*
X18002380Y104285D01*
X17954761Y9047D01*
X17907142Y-38571D01*
X17811904Y-86190D01*
X17430952Y-86190D01*
X18430952Y-38571D02*
X18764285Y-38571D01*
X18907142Y-562380D02*
X18430952Y-562380D01*
X18430952Y437619D01*
X18907142Y437619D01*
X19669047Y-38571D02*
X19335714Y-38571D01*
X19335714Y-562380D02*
X19335714Y437619D01*
X19811904Y437619D01*
X20716666Y-562380D02*
X20145238Y-562380D01*
X20430952Y-562380D02*
X20430952Y437619D01*
X20335714Y294761D01*
X20240476Y199523D01*
X20145238Y151904D01*
%TO.C,U5*%
X272712380Y-33781904D02*
X273521904Y-33781904D01*
X273617142Y-33734285D01*
X273664761Y-33686666D01*
X273712380Y-33591428D01*
X273712380Y-33400952D01*
X273664761Y-33305714D01*
X273617142Y-33258095D01*
X273521904Y-33210476D01*
X272712380Y-33210476D01*
X272712380Y-32258095D02*
X272712380Y-32734285D01*
X273188571Y-32781904D01*
X273140952Y-32734285D01*
X273093333Y-32639047D01*
X273093333Y-32400952D01*
X273140952Y-32305714D01*
X273188571Y-32258095D01*
X273283809Y-32210476D01*
X273521904Y-32210476D01*
X273617142Y-32258095D01*
X273664761Y-32305714D01*
X273712380Y-32400952D01*
X273712380Y-32639047D01*
X273664761Y-32734285D01*
X273617142Y-32781904D01*
%TO.C,U4*%
X243502380Y-33781904D02*
X244311904Y-33781904D01*
X244407142Y-33734285D01*
X244454761Y-33686666D01*
X244502380Y-33591428D01*
X244502380Y-33400952D01*
X244454761Y-33305714D01*
X244407142Y-33258095D01*
X244311904Y-33210476D01*
X243502380Y-33210476D01*
X243835714Y-32305714D02*
X244502380Y-32305714D01*
X243454761Y-32543809D02*
X244169047Y-32781904D01*
X244169047Y-32162857D01*
%TO.C,U3*%
X219372380Y-33781904D02*
X220181904Y-33781904D01*
X220277142Y-33734285D01*
X220324761Y-33686666D01*
X220372380Y-33591428D01*
X220372380Y-33400952D01*
X220324761Y-33305714D01*
X220277142Y-33258095D01*
X220181904Y-33210476D01*
X219372380Y-33210476D01*
X219372380Y-32829523D02*
X219372380Y-32210476D01*
X219753333Y-32543809D01*
X219753333Y-32400952D01*
X219800952Y-32305714D01*
X219848571Y-32258095D01*
X219943809Y-32210476D01*
X220181904Y-32210476D01*
X220277142Y-32258095D01*
X220324761Y-32305714D01*
X220372380Y-32400952D01*
X220372380Y-32686666D01*
X220324761Y-32781904D01*
X220277142Y-32829523D01*
%TO.C,U2*%
X243502380Y-18541904D02*
X244311904Y-18541904D01*
X244407142Y-18494285D01*
X244454761Y-18446666D01*
X244502380Y-18351428D01*
X244502380Y-18160952D01*
X244454761Y-18065714D01*
X244407142Y-18018095D01*
X244311904Y-17970476D01*
X243502380Y-17970476D01*
X243597619Y-17541904D02*
X243550000Y-17494285D01*
X243502380Y-17399047D01*
X243502380Y-17160952D01*
X243550000Y-17065714D01*
X243597619Y-17018095D01*
X243692857Y-16970476D01*
X243788095Y-16970476D01*
X243930952Y-17018095D01*
X244502380Y-17589523D01*
X244502380Y-16970476D01*
%TO.C,U1*%
X219372380Y-18541904D02*
X220181904Y-18541904D01*
X220277142Y-18494285D01*
X220324761Y-18446666D01*
X220372380Y-18351428D01*
X220372380Y-18160952D01*
X220324761Y-18065714D01*
X220277142Y-18018095D01*
X220181904Y-17970476D01*
X219372380Y-17970476D01*
X220372380Y-16970476D02*
X220372380Y-17541904D01*
X220372380Y-17256190D02*
X219372380Y-17256190D01*
X219515238Y-17351428D01*
X219610476Y-17446666D01*
X219658095Y-17541904D01*
%TO.C,R31*%
X290187142Y-47612380D02*
X289853809Y-47136190D01*
X289615714Y-47612380D02*
X289615714Y-46612380D01*
X289996666Y-46612380D01*
X290091904Y-46660000D01*
X290139523Y-46707619D01*
X290187142Y-46802857D01*
X290187142Y-46945714D01*
X290139523Y-47040952D01*
X290091904Y-47088571D01*
X289996666Y-47136190D01*
X289615714Y-47136190D01*
X290520476Y-46612380D02*
X291139523Y-46612380D01*
X290806190Y-46993333D01*
X290949047Y-46993333D01*
X291044285Y-47040952D01*
X291091904Y-47088571D01*
X291139523Y-47183809D01*
X291139523Y-47421904D01*
X291091904Y-47517142D01*
X291044285Y-47564761D01*
X290949047Y-47612380D01*
X290663333Y-47612380D01*
X290568095Y-47564761D01*
X290520476Y-47517142D01*
X292091904Y-47612380D02*
X291520476Y-47612380D01*
X291806190Y-47612380D02*
X291806190Y-46612380D01*
X291710952Y-46755238D01*
X291615714Y-46850476D01*
X291520476Y-46898095D01*
%TO.C,R30*%
X276212380Y-19692857D02*
X275736190Y-20026190D01*
X276212380Y-20264285D02*
X275212380Y-20264285D01*
X275212380Y-19883333D01*
X275260000Y-19788095D01*
X275307619Y-19740476D01*
X275402857Y-19692857D01*
X275545714Y-19692857D01*
X275640952Y-19740476D01*
X275688571Y-19788095D01*
X275736190Y-19883333D01*
X275736190Y-20264285D01*
X275212380Y-19359523D02*
X275212380Y-18740476D01*
X275593333Y-19073809D01*
X275593333Y-18930952D01*
X275640952Y-18835714D01*
X275688571Y-18788095D01*
X275783809Y-18740476D01*
X276021904Y-18740476D01*
X276117142Y-18788095D01*
X276164761Y-18835714D01*
X276212380Y-18930952D01*
X276212380Y-19216666D01*
X276164761Y-19311904D01*
X276117142Y-19359523D01*
X275212380Y-18121428D02*
X275212380Y-18026190D01*
X275260000Y-17930952D01*
X275307619Y-17883333D01*
X275402857Y-17835714D01*
X275593333Y-17788095D01*
X275831428Y-17788095D01*
X276021904Y-17835714D01*
X276117142Y-17883333D01*
X276164761Y-17930952D01*
X276212380Y-18026190D01*
X276212380Y-18121428D01*
X276164761Y-18216666D01*
X276117142Y-18264285D01*
X276021904Y-18311904D01*
X275831428Y-18359523D01*
X275593333Y-18359523D01*
X275402857Y-18311904D01*
X275307619Y-18264285D01*
X275260000Y-18216666D01*
X275212380Y-18121428D01*
%TO.C,R17*%
X272062380Y-18422857D02*
X271586190Y-18756190D01*
X272062380Y-18994285D02*
X271062380Y-18994285D01*
X271062380Y-18613333D01*
X271110000Y-18518095D01*
X271157619Y-18470476D01*
X271252857Y-18422857D01*
X271395714Y-18422857D01*
X271490952Y-18470476D01*
X271538571Y-18518095D01*
X271586190Y-18613333D01*
X271586190Y-18994285D01*
X272062380Y-17470476D02*
X272062380Y-18041904D01*
X272062380Y-17756190D02*
X271062380Y-17756190D01*
X271205238Y-17851428D01*
X271300476Y-17946666D01*
X271348095Y-18041904D01*
X271062380Y-17137142D02*
X271062380Y-16470476D01*
X272062380Y-16899047D01*
%TO.C,J1*%
X304466666Y-932380D02*
X304466666Y-1646666D01*
X304419047Y-1789523D01*
X304323809Y-1884761D01*
X304180952Y-1932380D01*
X304085714Y-1932380D01*
X305466666Y-1932380D02*
X304895238Y-1932380D01*
X305180952Y-1932380D02*
X305180952Y-932380D01*
X305085714Y-1075238D01*
X304990476Y-1170476D01*
X304895238Y-1218095D01*
%TO.C,C5*%
X289373333Y-41237142D02*
X289325714Y-41284761D01*
X289182857Y-41332380D01*
X289087619Y-41332380D01*
X288944761Y-41284761D01*
X288849523Y-41189523D01*
X288801904Y-41094285D01*
X288754285Y-40903809D01*
X288754285Y-40760952D01*
X288801904Y-40570476D01*
X288849523Y-40475238D01*
X288944761Y-40380000D01*
X289087619Y-40332380D01*
X289182857Y-40332380D01*
X289325714Y-40380000D01*
X289373333Y-40427619D01*
X290278095Y-40332380D02*
X289801904Y-40332380D01*
X289754285Y-40808571D01*
X289801904Y-40760952D01*
X289897142Y-40713333D01*
X290135238Y-40713333D01*
X290230476Y-40760952D01*
X290278095Y-40808571D01*
X290325714Y-40903809D01*
X290325714Y-41141904D01*
X290278095Y-41237142D01*
X290230476Y-41284761D01*
X290135238Y-41332380D01*
X289897142Y-41332380D01*
X289801904Y-41284761D01*
X289754285Y-41237142D01*
%TO.C,C4*%
X284333333Y-26787142D02*
X284285714Y-26834761D01*
X284142857Y-26882380D01*
X284047619Y-26882380D01*
X283904761Y-26834761D01*
X283809523Y-26739523D01*
X283761904Y-26644285D01*
X283714285Y-26453809D01*
X283714285Y-26310952D01*
X283761904Y-26120476D01*
X283809523Y-26025238D01*
X283904761Y-25930000D01*
X284047619Y-25882380D01*
X284142857Y-25882380D01*
X284285714Y-25930000D01*
X284333333Y-25977619D01*
X285190476Y-26215714D02*
X285190476Y-26882380D01*
X284952380Y-25834761D02*
X284714285Y-26549047D01*
X285333333Y-26549047D01*
%TO.C,C3*%
X305883333Y-33617142D02*
X305835714Y-33664761D01*
X305692857Y-33712380D01*
X305597619Y-33712380D01*
X305454761Y-33664761D01*
X305359523Y-33569523D01*
X305311904Y-33474285D01*
X305264285Y-33283809D01*
X305264285Y-33140952D01*
X305311904Y-32950476D01*
X305359523Y-32855238D01*
X305454761Y-32760000D01*
X305597619Y-32712380D01*
X305692857Y-32712380D01*
X305835714Y-32760000D01*
X305883333Y-32807619D01*
X306216666Y-32712380D02*
X306835714Y-32712380D01*
X306502380Y-33093333D01*
X306645238Y-33093333D01*
X306740476Y-33140952D01*
X306788095Y-33188571D01*
X306835714Y-33283809D01*
X306835714Y-33521904D01*
X306788095Y-33617142D01*
X306740476Y-33664761D01*
X306645238Y-33712380D01*
X306359523Y-33712380D01*
X306264285Y-33664761D01*
X306216666Y-33617142D01*
%TO.C,Q4*%
X118014761Y-32547619D02*
X117919523Y-32500000D01*
X117824285Y-32404761D01*
X117681428Y-32261904D01*
X117586190Y-32214285D01*
X117490952Y-32214285D01*
X117538571Y-32452380D02*
X117443333Y-32404761D01*
X117348095Y-32309523D01*
X117300476Y-32119047D01*
X117300476Y-31785714D01*
X117348095Y-31595238D01*
X117443333Y-31500000D01*
X117538571Y-31452380D01*
X117729047Y-31452380D01*
X117824285Y-31500000D01*
X117919523Y-31595238D01*
X117967142Y-31785714D01*
X117967142Y-32119047D01*
X117919523Y-32309523D01*
X117824285Y-32404761D01*
X117729047Y-32452380D01*
X117538571Y-32452380D01*
X118824285Y-31785714D02*
X118824285Y-32452380D01*
X118586190Y-31404761D02*
X118348095Y-32119047D01*
X118967142Y-32119047D01*
%TO.C,Q3*%
X104044761Y-9687619D02*
X103949523Y-9640000D01*
X103854285Y-9544761D01*
X103711428Y-9401904D01*
X103616190Y-9354285D01*
X103520952Y-9354285D01*
X103568571Y-9592380D02*
X103473333Y-9544761D01*
X103378095Y-9449523D01*
X103330476Y-9259047D01*
X103330476Y-8925714D01*
X103378095Y-8735238D01*
X103473333Y-8640000D01*
X103568571Y-8592380D01*
X103759047Y-8592380D01*
X103854285Y-8640000D01*
X103949523Y-8735238D01*
X103997142Y-8925714D01*
X103997142Y-9259047D01*
X103949523Y-9449523D01*
X103854285Y-9544761D01*
X103759047Y-9592380D01*
X103568571Y-9592380D01*
X104330476Y-8592380D02*
X104949523Y-8592380D01*
X104616190Y-8973333D01*
X104759047Y-8973333D01*
X104854285Y-9020952D01*
X104901904Y-9068571D01*
X104949523Y-9163809D01*
X104949523Y-9401904D01*
X104901904Y-9497142D01*
X104854285Y-9544761D01*
X104759047Y-9592380D01*
X104473333Y-9592380D01*
X104378095Y-9544761D01*
X104330476Y-9497142D01*
%TO.C,Q2*%
X104044761Y-19847619D02*
X103949523Y-19800000D01*
X103854285Y-19704761D01*
X103711428Y-19561904D01*
X103616190Y-19514285D01*
X103520952Y-19514285D01*
X103568571Y-19752380D02*
X103473333Y-19704761D01*
X103378095Y-19609523D01*
X103330476Y-19419047D01*
X103330476Y-19085714D01*
X103378095Y-18895238D01*
X103473333Y-18800000D01*
X103568571Y-18752380D01*
X103759047Y-18752380D01*
X103854285Y-18800000D01*
X103949523Y-18895238D01*
X103997142Y-19085714D01*
X103997142Y-19419047D01*
X103949523Y-19609523D01*
X103854285Y-19704761D01*
X103759047Y-19752380D01*
X103568571Y-19752380D01*
X104378095Y-18847619D02*
X104425714Y-18800000D01*
X104520952Y-18752380D01*
X104759047Y-18752380D01*
X104854285Y-18800000D01*
X104901904Y-18847619D01*
X104949523Y-18942857D01*
X104949523Y-19038095D01*
X104901904Y-19180952D01*
X104330476Y-19752380D01*
X104949523Y-19752380D01*
%TO.C,Q1*%
X104044761Y-30007619D02*
X103949523Y-29960000D01*
X103854285Y-29864761D01*
X103711428Y-29721904D01*
X103616190Y-29674285D01*
X103520952Y-29674285D01*
X103568571Y-29912380D02*
X103473333Y-29864761D01*
X103378095Y-29769523D01*
X103330476Y-29579047D01*
X103330476Y-29245714D01*
X103378095Y-29055238D01*
X103473333Y-28960000D01*
X103568571Y-28912380D01*
X103759047Y-28912380D01*
X103854285Y-28960000D01*
X103949523Y-29055238D01*
X103997142Y-29245714D01*
X103997142Y-29579047D01*
X103949523Y-29769523D01*
X103854285Y-29864761D01*
X103759047Y-29912380D01*
X103568571Y-29912380D01*
X104949523Y-29912380D02*
X104378095Y-29912380D01*
X104663809Y-29912380D02*
X104663809Y-28912380D01*
X104568571Y-29055238D01*
X104473333Y-29150476D01*
X104378095Y-29198095D01*
%TO.C,R29*%
X248277142Y-3612380D02*
X247943809Y-3136190D01*
X247705714Y-3612380D02*
X247705714Y-2612380D01*
X248086666Y-2612380D01*
X248181904Y-2660000D01*
X248229523Y-2707619D01*
X248277142Y-2802857D01*
X248277142Y-2945714D01*
X248229523Y-3040952D01*
X248181904Y-3088571D01*
X248086666Y-3136190D01*
X247705714Y-3136190D01*
X248658095Y-2707619D02*
X248705714Y-2660000D01*
X248800952Y-2612380D01*
X249039047Y-2612380D01*
X249134285Y-2660000D01*
X249181904Y-2707619D01*
X249229523Y-2802857D01*
X249229523Y-2898095D01*
X249181904Y-3040952D01*
X248610476Y-3612380D01*
X249229523Y-3612380D01*
X249705714Y-3612380D02*
X249896190Y-3612380D01*
X249991428Y-3564761D01*
X250039047Y-3517142D01*
X250134285Y-3374285D01*
X250181904Y-3183809D01*
X250181904Y-2802857D01*
X250134285Y-2707619D01*
X250086666Y-2660000D01*
X249991428Y-2612380D01*
X249800952Y-2612380D01*
X249705714Y-2660000D01*
X249658095Y-2707619D01*
X249610476Y-2802857D01*
X249610476Y-3040952D01*
X249658095Y-3136190D01*
X249705714Y-3183809D01*
X249800952Y-3231428D01*
X249991428Y-3231428D01*
X250086666Y-3183809D01*
X250134285Y-3136190D01*
X250181904Y-3040952D01*
%TO.C,R28*%
X315587142Y-76002380D02*
X315253809Y-75526190D01*
X315015714Y-76002380D02*
X315015714Y-75002380D01*
X315396666Y-75002380D01*
X315491904Y-75050000D01*
X315539523Y-75097619D01*
X315587142Y-75192857D01*
X315587142Y-75335714D01*
X315539523Y-75430952D01*
X315491904Y-75478571D01*
X315396666Y-75526190D01*
X315015714Y-75526190D01*
X315968095Y-75097619D02*
X316015714Y-75050000D01*
X316110952Y-75002380D01*
X316349047Y-75002380D01*
X316444285Y-75050000D01*
X316491904Y-75097619D01*
X316539523Y-75192857D01*
X316539523Y-75288095D01*
X316491904Y-75430952D01*
X315920476Y-76002380D01*
X316539523Y-76002380D01*
X317110952Y-75430952D02*
X317015714Y-75383333D01*
X316968095Y-75335714D01*
X316920476Y-75240476D01*
X316920476Y-75192857D01*
X316968095Y-75097619D01*
X317015714Y-75050000D01*
X317110952Y-75002380D01*
X317301428Y-75002380D01*
X317396666Y-75050000D01*
X317444285Y-75097619D01*
X317491904Y-75192857D01*
X317491904Y-75240476D01*
X317444285Y-75335714D01*
X317396666Y-75383333D01*
X317301428Y-75430952D01*
X317110952Y-75430952D01*
X317015714Y-75478571D01*
X316968095Y-75526190D01*
X316920476Y-75621428D01*
X316920476Y-75811904D01*
X316968095Y-75907142D01*
X317015714Y-75954761D01*
X317110952Y-76002380D01*
X317301428Y-76002380D01*
X317396666Y-75954761D01*
X317444285Y-75907142D01*
X317491904Y-75811904D01*
X317491904Y-75621428D01*
X317444285Y-75526190D01*
X317396666Y-75478571D01*
X317301428Y-75430952D01*
%TO.C,R27*%
X315587142Y-82352380D02*
X315253809Y-81876190D01*
X315015714Y-82352380D02*
X315015714Y-81352380D01*
X315396666Y-81352380D01*
X315491904Y-81400000D01*
X315539523Y-81447619D01*
X315587142Y-81542857D01*
X315587142Y-81685714D01*
X315539523Y-81780952D01*
X315491904Y-81828571D01*
X315396666Y-81876190D01*
X315015714Y-81876190D01*
X315968095Y-81447619D02*
X316015714Y-81400000D01*
X316110952Y-81352380D01*
X316349047Y-81352380D01*
X316444285Y-81400000D01*
X316491904Y-81447619D01*
X316539523Y-81542857D01*
X316539523Y-81638095D01*
X316491904Y-81780952D01*
X315920476Y-82352380D01*
X316539523Y-82352380D01*
X316872857Y-81352380D02*
X317539523Y-81352380D01*
X317110952Y-82352380D01*
%TO.C,R26*%
X306697142Y-106482380D02*
X306363809Y-106006190D01*
X306125714Y-106482380D02*
X306125714Y-105482380D01*
X306506666Y-105482380D01*
X306601904Y-105530000D01*
X306649523Y-105577619D01*
X306697142Y-105672857D01*
X306697142Y-105815714D01*
X306649523Y-105910952D01*
X306601904Y-105958571D01*
X306506666Y-106006190D01*
X306125714Y-106006190D01*
X307078095Y-105577619D02*
X307125714Y-105530000D01*
X307220952Y-105482380D01*
X307459047Y-105482380D01*
X307554285Y-105530000D01*
X307601904Y-105577619D01*
X307649523Y-105672857D01*
X307649523Y-105768095D01*
X307601904Y-105910952D01*
X307030476Y-106482380D01*
X307649523Y-106482380D01*
X308506666Y-105482380D02*
X308316190Y-105482380D01*
X308220952Y-105530000D01*
X308173333Y-105577619D01*
X308078095Y-105720476D01*
X308030476Y-105910952D01*
X308030476Y-106291904D01*
X308078095Y-106387142D01*
X308125714Y-106434761D01*
X308220952Y-106482380D01*
X308411428Y-106482380D01*
X308506666Y-106434761D01*
X308554285Y-106387142D01*
X308601904Y-106291904D01*
X308601904Y-106053809D01*
X308554285Y-105958571D01*
X308506666Y-105910952D01*
X308411428Y-105863333D01*
X308220952Y-105863333D01*
X308125714Y-105910952D01*
X308078095Y-105958571D01*
X308030476Y-106053809D01*
%TO.C,R25*%
X306697142Y-114102380D02*
X306363809Y-113626190D01*
X306125714Y-114102380D02*
X306125714Y-113102380D01*
X306506666Y-113102380D01*
X306601904Y-113150000D01*
X306649523Y-113197619D01*
X306697142Y-113292857D01*
X306697142Y-113435714D01*
X306649523Y-113530952D01*
X306601904Y-113578571D01*
X306506666Y-113626190D01*
X306125714Y-113626190D01*
X307078095Y-113197619D02*
X307125714Y-113150000D01*
X307220952Y-113102380D01*
X307459047Y-113102380D01*
X307554285Y-113150000D01*
X307601904Y-113197619D01*
X307649523Y-113292857D01*
X307649523Y-113388095D01*
X307601904Y-113530952D01*
X307030476Y-114102380D01*
X307649523Y-114102380D01*
X308554285Y-113102380D02*
X308078095Y-113102380D01*
X308030476Y-113578571D01*
X308078095Y-113530952D01*
X308173333Y-113483333D01*
X308411428Y-113483333D01*
X308506666Y-113530952D01*
X308554285Y-113578571D01*
X308601904Y-113673809D01*
X308601904Y-113911904D01*
X308554285Y-114007142D01*
X308506666Y-114054761D01*
X308411428Y-114102380D01*
X308173333Y-114102380D01*
X308078095Y-114054761D01*
X308030476Y-114007142D01*
%TO.C,R24*%
X306697142Y-121722380D02*
X306363809Y-121246190D01*
X306125714Y-121722380D02*
X306125714Y-120722380D01*
X306506666Y-120722380D01*
X306601904Y-120770000D01*
X306649523Y-120817619D01*
X306697142Y-120912857D01*
X306697142Y-121055714D01*
X306649523Y-121150952D01*
X306601904Y-121198571D01*
X306506666Y-121246190D01*
X306125714Y-121246190D01*
X307078095Y-120817619D02*
X307125714Y-120770000D01*
X307220952Y-120722380D01*
X307459047Y-120722380D01*
X307554285Y-120770000D01*
X307601904Y-120817619D01*
X307649523Y-120912857D01*
X307649523Y-121008095D01*
X307601904Y-121150952D01*
X307030476Y-121722380D01*
X307649523Y-121722380D01*
X308506666Y-121055714D02*
X308506666Y-121722380D01*
X308268571Y-120674761D02*
X308030476Y-121389047D01*
X308649523Y-121389047D01*
%TO.C,R23*%
X306697142Y-129342380D02*
X306363809Y-128866190D01*
X306125714Y-129342380D02*
X306125714Y-128342380D01*
X306506666Y-128342380D01*
X306601904Y-128390000D01*
X306649523Y-128437619D01*
X306697142Y-128532857D01*
X306697142Y-128675714D01*
X306649523Y-128770952D01*
X306601904Y-128818571D01*
X306506666Y-128866190D01*
X306125714Y-128866190D01*
X307078095Y-128437619D02*
X307125714Y-128390000D01*
X307220952Y-128342380D01*
X307459047Y-128342380D01*
X307554285Y-128390000D01*
X307601904Y-128437619D01*
X307649523Y-128532857D01*
X307649523Y-128628095D01*
X307601904Y-128770952D01*
X307030476Y-129342380D01*
X307649523Y-129342380D01*
X307982857Y-128342380D02*
X308601904Y-128342380D01*
X308268571Y-128723333D01*
X308411428Y-128723333D01*
X308506666Y-128770952D01*
X308554285Y-128818571D01*
X308601904Y-128913809D01*
X308601904Y-129151904D01*
X308554285Y-129247142D01*
X308506666Y-129294761D01*
X308411428Y-129342380D01*
X308125714Y-129342380D01*
X308030476Y-129294761D01*
X307982857Y-129247142D01*
%TO.C,R22*%
X306697142Y-136962380D02*
X306363809Y-136486190D01*
X306125714Y-136962380D02*
X306125714Y-135962380D01*
X306506666Y-135962380D01*
X306601904Y-136010000D01*
X306649523Y-136057619D01*
X306697142Y-136152857D01*
X306697142Y-136295714D01*
X306649523Y-136390952D01*
X306601904Y-136438571D01*
X306506666Y-136486190D01*
X306125714Y-136486190D01*
X307078095Y-136057619D02*
X307125714Y-136010000D01*
X307220952Y-135962380D01*
X307459047Y-135962380D01*
X307554285Y-136010000D01*
X307601904Y-136057619D01*
X307649523Y-136152857D01*
X307649523Y-136248095D01*
X307601904Y-136390952D01*
X307030476Y-136962380D01*
X307649523Y-136962380D01*
X308030476Y-136057619D02*
X308078095Y-136010000D01*
X308173333Y-135962380D01*
X308411428Y-135962380D01*
X308506666Y-136010000D01*
X308554285Y-136057619D01*
X308601904Y-136152857D01*
X308601904Y-136248095D01*
X308554285Y-136390952D01*
X307982857Y-136962380D01*
X308601904Y-136962380D01*
%TO.C,R21*%
X306697142Y-144582380D02*
X306363809Y-144106190D01*
X306125714Y-144582380D02*
X306125714Y-143582380D01*
X306506666Y-143582380D01*
X306601904Y-143630000D01*
X306649523Y-143677619D01*
X306697142Y-143772857D01*
X306697142Y-143915714D01*
X306649523Y-144010952D01*
X306601904Y-144058571D01*
X306506666Y-144106190D01*
X306125714Y-144106190D01*
X307078095Y-143677619D02*
X307125714Y-143630000D01*
X307220952Y-143582380D01*
X307459047Y-143582380D01*
X307554285Y-143630000D01*
X307601904Y-143677619D01*
X307649523Y-143772857D01*
X307649523Y-143868095D01*
X307601904Y-144010952D01*
X307030476Y-144582380D01*
X307649523Y-144582380D01*
X308601904Y-144582380D02*
X308030476Y-144582380D01*
X308316190Y-144582380D02*
X308316190Y-143582380D01*
X308220952Y-143725238D01*
X308125714Y-143820476D01*
X308030476Y-143868095D01*
%TO.C,R20*%
X208907142Y-34912380D02*
X208573809Y-34436190D01*
X208335714Y-34912380D02*
X208335714Y-33912380D01*
X208716666Y-33912380D01*
X208811904Y-33960000D01*
X208859523Y-34007619D01*
X208907142Y-34102857D01*
X208907142Y-34245714D01*
X208859523Y-34340952D01*
X208811904Y-34388571D01*
X208716666Y-34436190D01*
X208335714Y-34436190D01*
X209288095Y-34007619D02*
X209335714Y-33960000D01*
X209430952Y-33912380D01*
X209669047Y-33912380D01*
X209764285Y-33960000D01*
X209811904Y-34007619D01*
X209859523Y-34102857D01*
X209859523Y-34198095D01*
X209811904Y-34340952D01*
X209240476Y-34912380D01*
X209859523Y-34912380D01*
X210478571Y-33912380D02*
X210573809Y-33912380D01*
X210669047Y-33960000D01*
X210716666Y-34007619D01*
X210764285Y-34102857D01*
X210811904Y-34293333D01*
X210811904Y-34531428D01*
X210764285Y-34721904D01*
X210716666Y-34817142D01*
X210669047Y-34864761D01*
X210573809Y-34912380D01*
X210478571Y-34912380D01*
X210383333Y-34864761D01*
X210335714Y-34817142D01*
X210288095Y-34721904D01*
X210240476Y-34531428D01*
X210240476Y-34293333D01*
X210288095Y-34102857D01*
X210335714Y-34007619D01*
X210383333Y-33960000D01*
X210478571Y-33912380D01*
%TO.C,R19*%
X198747142Y-26022380D02*
X198413809Y-25546190D01*
X198175714Y-26022380D02*
X198175714Y-25022380D01*
X198556666Y-25022380D01*
X198651904Y-25070000D01*
X198699523Y-25117619D01*
X198747142Y-25212857D01*
X198747142Y-25355714D01*
X198699523Y-25450952D01*
X198651904Y-25498571D01*
X198556666Y-25546190D01*
X198175714Y-25546190D01*
X199699523Y-26022380D02*
X199128095Y-26022380D01*
X199413809Y-26022380D02*
X199413809Y-25022380D01*
X199318571Y-25165238D01*
X199223333Y-25260476D01*
X199128095Y-25308095D01*
X200175714Y-26022380D02*
X200366190Y-26022380D01*
X200461428Y-25974761D01*
X200509047Y-25927142D01*
X200604285Y-25784285D01*
X200651904Y-25593809D01*
X200651904Y-25212857D01*
X200604285Y-25117619D01*
X200556666Y-25070000D01*
X200461428Y-25022380D01*
X200270952Y-25022380D01*
X200175714Y-25070000D01*
X200128095Y-25117619D01*
X200080476Y-25212857D01*
X200080476Y-25450952D01*
X200128095Y-25546190D01*
X200175714Y-25593809D01*
X200270952Y-25641428D01*
X200461428Y-25641428D01*
X200556666Y-25593809D01*
X200604285Y-25546190D01*
X200651904Y-25450952D01*
%TO.C,R18*%
X192397142Y-34912380D02*
X192063809Y-34436190D01*
X191825714Y-34912380D02*
X191825714Y-33912380D01*
X192206666Y-33912380D01*
X192301904Y-33960000D01*
X192349523Y-34007619D01*
X192397142Y-34102857D01*
X192397142Y-34245714D01*
X192349523Y-34340952D01*
X192301904Y-34388571D01*
X192206666Y-34436190D01*
X191825714Y-34436190D01*
X193349523Y-34912380D02*
X192778095Y-34912380D01*
X193063809Y-34912380D02*
X193063809Y-33912380D01*
X192968571Y-34055238D01*
X192873333Y-34150476D01*
X192778095Y-34198095D01*
X193920952Y-34340952D02*
X193825714Y-34293333D01*
X193778095Y-34245714D01*
X193730476Y-34150476D01*
X193730476Y-34102857D01*
X193778095Y-34007619D01*
X193825714Y-33960000D01*
X193920952Y-33912380D01*
X194111428Y-33912380D01*
X194206666Y-33960000D01*
X194254285Y-34007619D01*
X194301904Y-34102857D01*
X194301904Y-34150476D01*
X194254285Y-34245714D01*
X194206666Y-34293333D01*
X194111428Y-34340952D01*
X193920952Y-34340952D01*
X193825714Y-34388571D01*
X193778095Y-34436190D01*
X193730476Y-34531428D01*
X193730476Y-34721904D01*
X193778095Y-34817142D01*
X193825714Y-34864761D01*
X193920952Y-34912380D01*
X194111428Y-34912380D01*
X194206666Y-34864761D01*
X194254285Y-34817142D01*
X194301904Y-34721904D01*
X194301904Y-34531428D01*
X194254285Y-34436190D01*
X194206666Y-34388571D01*
X194111428Y-34340952D01*
%TO.C,R16*%
X180967142Y-26022380D02*
X180633809Y-25546190D01*
X180395714Y-26022380D02*
X180395714Y-25022380D01*
X180776666Y-25022380D01*
X180871904Y-25070000D01*
X180919523Y-25117619D01*
X180967142Y-25212857D01*
X180967142Y-25355714D01*
X180919523Y-25450952D01*
X180871904Y-25498571D01*
X180776666Y-25546190D01*
X180395714Y-25546190D01*
X181919523Y-26022380D02*
X181348095Y-26022380D01*
X181633809Y-26022380D02*
X181633809Y-25022380D01*
X181538571Y-25165238D01*
X181443333Y-25260476D01*
X181348095Y-25308095D01*
X182776666Y-25022380D02*
X182586190Y-25022380D01*
X182490952Y-25070000D01*
X182443333Y-25117619D01*
X182348095Y-25260476D01*
X182300476Y-25450952D01*
X182300476Y-25831904D01*
X182348095Y-25927142D01*
X182395714Y-25974761D01*
X182490952Y-26022380D01*
X182681428Y-26022380D01*
X182776666Y-25974761D01*
X182824285Y-25927142D01*
X182871904Y-25831904D01*
X182871904Y-25593809D01*
X182824285Y-25498571D01*
X182776666Y-25450952D01*
X182681428Y-25403333D01*
X182490952Y-25403333D01*
X182395714Y-25450952D01*
X182348095Y-25498571D01*
X182300476Y-25593809D01*
%TO.C,R15*%
X174617142Y-34912380D02*
X174283809Y-34436190D01*
X174045714Y-34912380D02*
X174045714Y-33912380D01*
X174426666Y-33912380D01*
X174521904Y-33960000D01*
X174569523Y-34007619D01*
X174617142Y-34102857D01*
X174617142Y-34245714D01*
X174569523Y-34340952D01*
X174521904Y-34388571D01*
X174426666Y-34436190D01*
X174045714Y-34436190D01*
X175569523Y-34912380D02*
X174998095Y-34912380D01*
X175283809Y-34912380D02*
X175283809Y-33912380D01*
X175188571Y-34055238D01*
X175093333Y-34150476D01*
X174998095Y-34198095D01*
X176474285Y-33912380D02*
X175998095Y-33912380D01*
X175950476Y-34388571D01*
X175998095Y-34340952D01*
X176093333Y-34293333D01*
X176331428Y-34293333D01*
X176426666Y-34340952D01*
X176474285Y-34388571D01*
X176521904Y-34483809D01*
X176521904Y-34721904D01*
X176474285Y-34817142D01*
X176426666Y-34864761D01*
X176331428Y-34912380D01*
X176093333Y-34912380D01*
X175998095Y-34864761D01*
X175950476Y-34817142D01*
%TO.C,R14*%
X165727142Y-8242380D02*
X165393809Y-7766190D01*
X165155714Y-8242380D02*
X165155714Y-7242380D01*
X165536666Y-7242380D01*
X165631904Y-7290000D01*
X165679523Y-7337619D01*
X165727142Y-7432857D01*
X165727142Y-7575714D01*
X165679523Y-7670952D01*
X165631904Y-7718571D01*
X165536666Y-7766190D01*
X165155714Y-7766190D01*
X166679523Y-8242380D02*
X166108095Y-8242380D01*
X166393809Y-8242380D02*
X166393809Y-7242380D01*
X166298571Y-7385238D01*
X166203333Y-7480476D01*
X166108095Y-7528095D01*
X167536666Y-7575714D02*
X167536666Y-8242380D01*
X167298571Y-7194761D02*
X167060476Y-7909047D01*
X167679523Y-7909047D01*
%TO.C,R13*%
X165727142Y-17132380D02*
X165393809Y-16656190D01*
X165155714Y-17132380D02*
X165155714Y-16132380D01*
X165536666Y-16132380D01*
X165631904Y-16180000D01*
X165679523Y-16227619D01*
X165727142Y-16322857D01*
X165727142Y-16465714D01*
X165679523Y-16560952D01*
X165631904Y-16608571D01*
X165536666Y-16656190D01*
X165155714Y-16656190D01*
X166679523Y-17132380D02*
X166108095Y-17132380D01*
X166393809Y-17132380D02*
X166393809Y-16132380D01*
X166298571Y-16275238D01*
X166203333Y-16370476D01*
X166108095Y-16418095D01*
X167012857Y-16132380D02*
X167631904Y-16132380D01*
X167298571Y-16513333D01*
X167441428Y-16513333D01*
X167536666Y-16560952D01*
X167584285Y-16608571D01*
X167631904Y-16703809D01*
X167631904Y-16941904D01*
X167584285Y-17037142D01*
X167536666Y-17084761D01*
X167441428Y-17132380D01*
X167155714Y-17132380D01*
X167060476Y-17084761D01*
X167012857Y-17037142D01*
%TO.C,R12*%
X165727142Y-26022380D02*
X165393809Y-25546190D01*
X165155714Y-26022380D02*
X165155714Y-25022380D01*
X165536666Y-25022380D01*
X165631904Y-25070000D01*
X165679523Y-25117619D01*
X165727142Y-25212857D01*
X165727142Y-25355714D01*
X165679523Y-25450952D01*
X165631904Y-25498571D01*
X165536666Y-25546190D01*
X165155714Y-25546190D01*
X166679523Y-26022380D02*
X166108095Y-26022380D01*
X166393809Y-26022380D02*
X166393809Y-25022380D01*
X166298571Y-25165238D01*
X166203333Y-25260476D01*
X166108095Y-25308095D01*
X167060476Y-25117619D02*
X167108095Y-25070000D01*
X167203333Y-25022380D01*
X167441428Y-25022380D01*
X167536666Y-25070000D01*
X167584285Y-25117619D01*
X167631904Y-25212857D01*
X167631904Y-25308095D01*
X167584285Y-25450952D01*
X167012857Y-26022380D01*
X167631904Y-26022380D01*
%TO.C,R11*%
X149217142Y-8242380D02*
X148883809Y-7766190D01*
X148645714Y-8242380D02*
X148645714Y-7242380D01*
X149026666Y-7242380D01*
X149121904Y-7290000D01*
X149169523Y-7337619D01*
X149217142Y-7432857D01*
X149217142Y-7575714D01*
X149169523Y-7670952D01*
X149121904Y-7718571D01*
X149026666Y-7766190D01*
X148645714Y-7766190D01*
X150169523Y-8242380D02*
X149598095Y-8242380D01*
X149883809Y-8242380D02*
X149883809Y-7242380D01*
X149788571Y-7385238D01*
X149693333Y-7480476D01*
X149598095Y-7528095D01*
X151121904Y-8242380D02*
X150550476Y-8242380D01*
X150836190Y-8242380D02*
X150836190Y-7242380D01*
X150740952Y-7385238D01*
X150645714Y-7480476D01*
X150550476Y-7528095D01*
%TO.C,R10*%
X149217142Y-17132380D02*
X148883809Y-16656190D01*
X148645714Y-17132380D02*
X148645714Y-16132380D01*
X149026666Y-16132380D01*
X149121904Y-16180000D01*
X149169523Y-16227619D01*
X149217142Y-16322857D01*
X149217142Y-16465714D01*
X149169523Y-16560952D01*
X149121904Y-16608571D01*
X149026666Y-16656190D01*
X148645714Y-16656190D01*
X150169523Y-17132380D02*
X149598095Y-17132380D01*
X149883809Y-17132380D02*
X149883809Y-16132380D01*
X149788571Y-16275238D01*
X149693333Y-16370476D01*
X149598095Y-16418095D01*
X150788571Y-16132380D02*
X150883809Y-16132380D01*
X150979047Y-16180000D01*
X151026666Y-16227619D01*
X151074285Y-16322857D01*
X151121904Y-16513333D01*
X151121904Y-16751428D01*
X151074285Y-16941904D01*
X151026666Y-17037142D01*
X150979047Y-17084761D01*
X150883809Y-17132380D01*
X150788571Y-17132380D01*
X150693333Y-17084761D01*
X150645714Y-17037142D01*
X150598095Y-16941904D01*
X150550476Y-16751428D01*
X150550476Y-16513333D01*
X150598095Y-16322857D01*
X150645714Y-16227619D01*
X150693333Y-16180000D01*
X150788571Y-16132380D01*
%TO.C,R9*%
X149693333Y-26022380D02*
X149360000Y-25546190D01*
X149121904Y-26022380D02*
X149121904Y-25022380D01*
X149502857Y-25022380D01*
X149598095Y-25070000D01*
X149645714Y-25117619D01*
X149693333Y-25212857D01*
X149693333Y-25355714D01*
X149645714Y-25450952D01*
X149598095Y-25498571D01*
X149502857Y-25546190D01*
X149121904Y-25546190D01*
X150169523Y-26022380D02*
X150360000Y-26022380D01*
X150455238Y-25974761D01*
X150502857Y-25927142D01*
X150598095Y-25784285D01*
X150645714Y-25593809D01*
X150645714Y-25212857D01*
X150598095Y-25117619D01*
X150550476Y-25070000D01*
X150455238Y-25022380D01*
X150264761Y-25022380D01*
X150169523Y-25070000D01*
X150121904Y-25117619D01*
X150074285Y-25212857D01*
X150074285Y-25450952D01*
X150121904Y-25546190D01*
X150169523Y-25593809D01*
X150264761Y-25641428D01*
X150455238Y-25641428D01*
X150550476Y-25593809D01*
X150598095Y-25546190D01*
X150645714Y-25450952D01*
%TO.C,R8*%
X131913333Y-8242380D02*
X131580000Y-7766190D01*
X131341904Y-8242380D02*
X131341904Y-7242380D01*
X131722857Y-7242380D01*
X131818095Y-7290000D01*
X131865714Y-7337619D01*
X131913333Y-7432857D01*
X131913333Y-7575714D01*
X131865714Y-7670952D01*
X131818095Y-7718571D01*
X131722857Y-7766190D01*
X131341904Y-7766190D01*
X132484761Y-7670952D02*
X132389523Y-7623333D01*
X132341904Y-7575714D01*
X132294285Y-7480476D01*
X132294285Y-7432857D01*
X132341904Y-7337619D01*
X132389523Y-7290000D01*
X132484761Y-7242380D01*
X132675238Y-7242380D01*
X132770476Y-7290000D01*
X132818095Y-7337619D01*
X132865714Y-7432857D01*
X132865714Y-7480476D01*
X132818095Y-7575714D01*
X132770476Y-7623333D01*
X132675238Y-7670952D01*
X132484761Y-7670952D01*
X132389523Y-7718571D01*
X132341904Y-7766190D01*
X132294285Y-7861428D01*
X132294285Y-8051904D01*
X132341904Y-8147142D01*
X132389523Y-8194761D01*
X132484761Y-8242380D01*
X132675238Y-8242380D01*
X132770476Y-8194761D01*
X132818095Y-8147142D01*
X132865714Y-8051904D01*
X132865714Y-7861428D01*
X132818095Y-7766190D01*
X132770476Y-7718571D01*
X132675238Y-7670952D01*
%TO.C,R7*%
X131913333Y-17132380D02*
X131580000Y-16656190D01*
X131341904Y-17132380D02*
X131341904Y-16132380D01*
X131722857Y-16132380D01*
X131818095Y-16180000D01*
X131865714Y-16227619D01*
X131913333Y-16322857D01*
X131913333Y-16465714D01*
X131865714Y-16560952D01*
X131818095Y-16608571D01*
X131722857Y-16656190D01*
X131341904Y-16656190D01*
X132246666Y-16132380D02*
X132913333Y-16132380D01*
X132484761Y-17132380D01*
%TO.C,R6*%
X131913333Y-26022380D02*
X131580000Y-25546190D01*
X131341904Y-26022380D02*
X131341904Y-25022380D01*
X131722857Y-25022380D01*
X131818095Y-25070000D01*
X131865714Y-25117619D01*
X131913333Y-25212857D01*
X131913333Y-25355714D01*
X131865714Y-25450952D01*
X131818095Y-25498571D01*
X131722857Y-25546190D01*
X131341904Y-25546190D01*
X132770476Y-25022380D02*
X132580000Y-25022380D01*
X132484761Y-25070000D01*
X132437142Y-25117619D01*
X132341904Y-25260476D01*
X132294285Y-25450952D01*
X132294285Y-25831904D01*
X132341904Y-25927142D01*
X132389523Y-25974761D01*
X132484761Y-26022380D01*
X132675238Y-26022380D01*
X132770476Y-25974761D01*
X132818095Y-25927142D01*
X132865714Y-25831904D01*
X132865714Y-25593809D01*
X132818095Y-25498571D01*
X132770476Y-25450952D01*
X132675238Y-25403333D01*
X132484761Y-25403333D01*
X132389523Y-25450952D01*
X132341904Y-25498571D01*
X132294285Y-25593809D01*
%TO.C,R5*%
X87463333Y-4432380D02*
X87130000Y-3956190D01*
X86891904Y-4432380D02*
X86891904Y-3432380D01*
X87272857Y-3432380D01*
X87368095Y-3480000D01*
X87415714Y-3527619D01*
X87463333Y-3622857D01*
X87463333Y-3765714D01*
X87415714Y-3860952D01*
X87368095Y-3908571D01*
X87272857Y-3956190D01*
X86891904Y-3956190D01*
X88368095Y-3432380D02*
X87891904Y-3432380D01*
X87844285Y-3908571D01*
X87891904Y-3860952D01*
X87987142Y-3813333D01*
X88225238Y-3813333D01*
X88320476Y-3860952D01*
X88368095Y-3908571D01*
X88415714Y-4003809D01*
X88415714Y-4241904D01*
X88368095Y-4337142D01*
X88320476Y-4384761D01*
X88225238Y-4432380D01*
X87987142Y-4432380D01*
X87891904Y-4384761D01*
X87844285Y-4337142D01*
%TO.C,R4*%
X87463333Y-12052380D02*
X87130000Y-11576190D01*
X86891904Y-12052380D02*
X86891904Y-11052380D01*
X87272857Y-11052380D01*
X87368095Y-11100000D01*
X87415714Y-11147619D01*
X87463333Y-11242857D01*
X87463333Y-11385714D01*
X87415714Y-11480952D01*
X87368095Y-11528571D01*
X87272857Y-11576190D01*
X86891904Y-11576190D01*
X88320476Y-11385714D02*
X88320476Y-12052380D01*
X88082380Y-11004761D02*
X87844285Y-11719047D01*
X88463333Y-11719047D01*
%TO.C,R3*%
X87463333Y-19672380D02*
X87130000Y-19196190D01*
X86891904Y-19672380D02*
X86891904Y-18672380D01*
X87272857Y-18672380D01*
X87368095Y-18720000D01*
X87415714Y-18767619D01*
X87463333Y-18862857D01*
X87463333Y-19005714D01*
X87415714Y-19100952D01*
X87368095Y-19148571D01*
X87272857Y-19196190D01*
X86891904Y-19196190D01*
X87796666Y-18672380D02*
X88415714Y-18672380D01*
X88082380Y-19053333D01*
X88225238Y-19053333D01*
X88320476Y-19100952D01*
X88368095Y-19148571D01*
X88415714Y-19243809D01*
X88415714Y-19481904D01*
X88368095Y-19577142D01*
X88320476Y-19624761D01*
X88225238Y-19672380D01*
X87939523Y-19672380D01*
X87844285Y-19624761D01*
X87796666Y-19577142D01*
%TO.C,R2*%
X87463333Y-27292380D02*
X87130000Y-26816190D01*
X86891904Y-27292380D02*
X86891904Y-26292380D01*
X87272857Y-26292380D01*
X87368095Y-26340000D01*
X87415714Y-26387619D01*
X87463333Y-26482857D01*
X87463333Y-26625714D01*
X87415714Y-26720952D01*
X87368095Y-26768571D01*
X87272857Y-26816190D01*
X86891904Y-26816190D01*
X87844285Y-26387619D02*
X87891904Y-26340000D01*
X87987142Y-26292380D01*
X88225238Y-26292380D01*
X88320476Y-26340000D01*
X88368095Y-26387619D01*
X88415714Y-26482857D01*
X88415714Y-26578095D01*
X88368095Y-26720952D01*
X87796666Y-27292380D01*
X88415714Y-27292380D01*
%TO.C,R1*%
X87463333Y-34912380D02*
X87130000Y-34436190D01*
X86891904Y-34912380D02*
X86891904Y-33912380D01*
X87272857Y-33912380D01*
X87368095Y-33960000D01*
X87415714Y-34007619D01*
X87463333Y-34102857D01*
X87463333Y-34245714D01*
X87415714Y-34340952D01*
X87368095Y-34388571D01*
X87272857Y-34436190D01*
X86891904Y-34436190D01*
X88415714Y-34912380D02*
X87844285Y-34912380D01*
X88130000Y-34912380D02*
X88130000Y-33912380D01*
X88034761Y-34055238D01*
X87939523Y-34150476D01*
X87844285Y-34198095D01*
%TO.C,JP2*%
X269676666Y-932380D02*
X269676666Y-1646666D01*
X269629047Y-1789523D01*
X269533809Y-1884761D01*
X269390952Y-1932380D01*
X269295714Y-1932380D01*
X270152857Y-1932380D02*
X270152857Y-932380D01*
X270533809Y-932380D01*
X270629047Y-980000D01*
X270676666Y-1027619D01*
X270724285Y-1122857D01*
X270724285Y-1265714D01*
X270676666Y-1360952D01*
X270629047Y-1408571D01*
X270533809Y-1456190D01*
X270152857Y-1456190D01*
X271105238Y-1027619D02*
X271152857Y-980000D01*
X271248095Y-932380D01*
X271486190Y-932380D01*
X271581428Y-980000D01*
X271629047Y-1027619D01*
X271676666Y-1122857D01*
X271676666Y-1218095D01*
X271629047Y-1360952D01*
X271057619Y-1932380D01*
X271676666Y-1932380D01*
%TO.C,D29*%
X230172380Y-5024285D02*
X229172380Y-5024285D01*
X229172380Y-4786190D01*
X229220000Y-4643333D01*
X229315238Y-4548095D01*
X229410476Y-4500476D01*
X229600952Y-4452857D01*
X229743809Y-4452857D01*
X229934285Y-4500476D01*
X230029523Y-4548095D01*
X230124761Y-4643333D01*
X230172380Y-4786190D01*
X230172380Y-5024285D01*
X229267619Y-4071904D02*
X229220000Y-4024285D01*
X229172380Y-3929047D01*
X229172380Y-3690952D01*
X229220000Y-3595714D01*
X229267619Y-3548095D01*
X229362857Y-3500476D01*
X229458095Y-3500476D01*
X229600952Y-3548095D01*
X230172380Y-4119523D01*
X230172380Y-3500476D01*
X230172380Y-3024285D02*
X230172380Y-2833809D01*
X230124761Y-2738571D01*
X230077142Y-2690952D01*
X229934285Y-2595714D01*
X229743809Y-2548095D01*
X229362857Y-2548095D01*
X229267619Y-2595714D01*
X229220000Y-2643333D01*
X229172380Y-2738571D01*
X229172380Y-2929047D01*
X229220000Y-3024285D01*
X229267619Y-3071904D01*
X229362857Y-3119523D01*
X229600952Y-3119523D01*
X229696190Y-3071904D01*
X229743809Y-3024285D01*
X229791428Y-2929047D01*
X229791428Y-2738571D01*
X229743809Y-2643333D01*
X229696190Y-2595714D01*
X229600952Y-2548095D01*
%TO.C,D28*%
X316285714Y-89202380D02*
X316285714Y-88202380D01*
X316523809Y-88202380D01*
X316666666Y-88250000D01*
X316761904Y-88345238D01*
X316809523Y-88440476D01*
X316857142Y-88630952D01*
X316857142Y-88773809D01*
X316809523Y-88964285D01*
X316761904Y-89059523D01*
X316666666Y-89154761D01*
X316523809Y-89202380D01*
X316285714Y-89202380D01*
X317238095Y-88297619D02*
X317285714Y-88250000D01*
X317380952Y-88202380D01*
X317619047Y-88202380D01*
X317714285Y-88250000D01*
X317761904Y-88297619D01*
X317809523Y-88392857D01*
X317809523Y-88488095D01*
X317761904Y-88630952D01*
X317190476Y-89202380D01*
X317809523Y-89202380D01*
X318380952Y-88630952D02*
X318285714Y-88583333D01*
X318238095Y-88535714D01*
X318190476Y-88440476D01*
X318190476Y-88392857D01*
X318238095Y-88297619D01*
X318285714Y-88250000D01*
X318380952Y-88202380D01*
X318571428Y-88202380D01*
X318666666Y-88250000D01*
X318714285Y-88297619D01*
X318761904Y-88392857D01*
X318761904Y-88440476D01*
X318714285Y-88535714D01*
X318666666Y-88583333D01*
X318571428Y-88630952D01*
X318380952Y-88630952D01*
X318285714Y-88678571D01*
X318238095Y-88726190D01*
X318190476Y-88821428D01*
X318190476Y-89011904D01*
X318238095Y-89107142D01*
X318285714Y-89154761D01*
X318380952Y-89202380D01*
X318571428Y-89202380D01*
X318666666Y-89154761D01*
X318714285Y-89107142D01*
X318761904Y-89011904D01*
X318761904Y-88821428D01*
X318714285Y-88726190D01*
X318666666Y-88678571D01*
X318571428Y-88630952D01*
%TO.C,D27*%
X316285714Y-96822380D02*
X316285714Y-95822380D01*
X316523809Y-95822380D01*
X316666666Y-95870000D01*
X316761904Y-95965238D01*
X316809523Y-96060476D01*
X316857142Y-96250952D01*
X316857142Y-96393809D01*
X316809523Y-96584285D01*
X316761904Y-96679523D01*
X316666666Y-96774761D01*
X316523809Y-96822380D01*
X316285714Y-96822380D01*
X317238095Y-95917619D02*
X317285714Y-95870000D01*
X317380952Y-95822380D01*
X317619047Y-95822380D01*
X317714285Y-95870000D01*
X317761904Y-95917619D01*
X317809523Y-96012857D01*
X317809523Y-96108095D01*
X317761904Y-96250952D01*
X317190476Y-96822380D01*
X317809523Y-96822380D01*
X318142857Y-95822380D02*
X318809523Y-95822380D01*
X318380952Y-96822380D01*
%TO.C,D26*%
X316285714Y-104442380D02*
X316285714Y-103442380D01*
X316523809Y-103442380D01*
X316666666Y-103490000D01*
X316761904Y-103585238D01*
X316809523Y-103680476D01*
X316857142Y-103870952D01*
X316857142Y-104013809D01*
X316809523Y-104204285D01*
X316761904Y-104299523D01*
X316666666Y-104394761D01*
X316523809Y-104442380D01*
X316285714Y-104442380D01*
X317238095Y-103537619D02*
X317285714Y-103490000D01*
X317380952Y-103442380D01*
X317619047Y-103442380D01*
X317714285Y-103490000D01*
X317761904Y-103537619D01*
X317809523Y-103632857D01*
X317809523Y-103728095D01*
X317761904Y-103870952D01*
X317190476Y-104442380D01*
X317809523Y-104442380D01*
X318666666Y-103442380D02*
X318476190Y-103442380D01*
X318380952Y-103490000D01*
X318333333Y-103537619D01*
X318238095Y-103680476D01*
X318190476Y-103870952D01*
X318190476Y-104251904D01*
X318238095Y-104347142D01*
X318285714Y-104394761D01*
X318380952Y-104442380D01*
X318571428Y-104442380D01*
X318666666Y-104394761D01*
X318714285Y-104347142D01*
X318761904Y-104251904D01*
X318761904Y-104013809D01*
X318714285Y-103918571D01*
X318666666Y-103870952D01*
X318571428Y-103823333D01*
X318380952Y-103823333D01*
X318285714Y-103870952D01*
X318238095Y-103918571D01*
X318190476Y-104013809D01*
%TO.C,D25*%
X316285714Y-112062380D02*
X316285714Y-111062380D01*
X316523809Y-111062380D01*
X316666666Y-111110000D01*
X316761904Y-111205238D01*
X316809523Y-111300476D01*
X316857142Y-111490952D01*
X316857142Y-111633809D01*
X316809523Y-111824285D01*
X316761904Y-111919523D01*
X316666666Y-112014761D01*
X316523809Y-112062380D01*
X316285714Y-112062380D01*
X317238095Y-111157619D02*
X317285714Y-111110000D01*
X317380952Y-111062380D01*
X317619047Y-111062380D01*
X317714285Y-111110000D01*
X317761904Y-111157619D01*
X317809523Y-111252857D01*
X317809523Y-111348095D01*
X317761904Y-111490952D01*
X317190476Y-112062380D01*
X317809523Y-112062380D01*
X318714285Y-111062380D02*
X318238095Y-111062380D01*
X318190476Y-111538571D01*
X318238095Y-111490952D01*
X318333333Y-111443333D01*
X318571428Y-111443333D01*
X318666666Y-111490952D01*
X318714285Y-111538571D01*
X318761904Y-111633809D01*
X318761904Y-111871904D01*
X318714285Y-111967142D01*
X318666666Y-112014761D01*
X318571428Y-112062380D01*
X318333333Y-112062380D01*
X318238095Y-112014761D01*
X318190476Y-111967142D01*
%TO.C,D24*%
X316285714Y-119682380D02*
X316285714Y-118682380D01*
X316523809Y-118682380D01*
X316666666Y-118730000D01*
X316761904Y-118825238D01*
X316809523Y-118920476D01*
X316857142Y-119110952D01*
X316857142Y-119253809D01*
X316809523Y-119444285D01*
X316761904Y-119539523D01*
X316666666Y-119634761D01*
X316523809Y-119682380D01*
X316285714Y-119682380D01*
X317238095Y-118777619D02*
X317285714Y-118730000D01*
X317380952Y-118682380D01*
X317619047Y-118682380D01*
X317714285Y-118730000D01*
X317761904Y-118777619D01*
X317809523Y-118872857D01*
X317809523Y-118968095D01*
X317761904Y-119110952D01*
X317190476Y-119682380D01*
X317809523Y-119682380D01*
X318666666Y-119015714D02*
X318666666Y-119682380D01*
X318428571Y-118634761D02*
X318190476Y-119349047D01*
X318809523Y-119349047D01*
%TO.C,D23*%
X316285714Y-127302380D02*
X316285714Y-126302380D01*
X316523809Y-126302380D01*
X316666666Y-126350000D01*
X316761904Y-126445238D01*
X316809523Y-126540476D01*
X316857142Y-126730952D01*
X316857142Y-126873809D01*
X316809523Y-127064285D01*
X316761904Y-127159523D01*
X316666666Y-127254761D01*
X316523809Y-127302380D01*
X316285714Y-127302380D01*
X317238095Y-126397619D02*
X317285714Y-126350000D01*
X317380952Y-126302380D01*
X317619047Y-126302380D01*
X317714285Y-126350000D01*
X317761904Y-126397619D01*
X317809523Y-126492857D01*
X317809523Y-126588095D01*
X317761904Y-126730952D01*
X317190476Y-127302380D01*
X317809523Y-127302380D01*
X318142857Y-126302380D02*
X318761904Y-126302380D01*
X318428571Y-126683333D01*
X318571428Y-126683333D01*
X318666666Y-126730952D01*
X318714285Y-126778571D01*
X318761904Y-126873809D01*
X318761904Y-127111904D01*
X318714285Y-127207142D01*
X318666666Y-127254761D01*
X318571428Y-127302380D01*
X318285714Y-127302380D01*
X318190476Y-127254761D01*
X318142857Y-127207142D01*
%TO.C,D22*%
X316285714Y-134922380D02*
X316285714Y-133922380D01*
X316523809Y-133922380D01*
X316666666Y-133970000D01*
X316761904Y-134065238D01*
X316809523Y-134160476D01*
X316857142Y-134350952D01*
X316857142Y-134493809D01*
X316809523Y-134684285D01*
X316761904Y-134779523D01*
X316666666Y-134874761D01*
X316523809Y-134922380D01*
X316285714Y-134922380D01*
X317238095Y-134017619D02*
X317285714Y-133970000D01*
X317380952Y-133922380D01*
X317619047Y-133922380D01*
X317714285Y-133970000D01*
X317761904Y-134017619D01*
X317809523Y-134112857D01*
X317809523Y-134208095D01*
X317761904Y-134350952D01*
X317190476Y-134922380D01*
X317809523Y-134922380D01*
X318190476Y-134017619D02*
X318238095Y-133970000D01*
X318333333Y-133922380D01*
X318571428Y-133922380D01*
X318666666Y-133970000D01*
X318714285Y-134017619D01*
X318761904Y-134112857D01*
X318761904Y-134208095D01*
X318714285Y-134350952D01*
X318142857Y-134922380D01*
X318761904Y-134922380D01*
%TO.C,D21*%
X316285714Y-142542380D02*
X316285714Y-141542380D01*
X316523809Y-141542380D01*
X316666666Y-141590000D01*
X316761904Y-141685238D01*
X316809523Y-141780476D01*
X316857142Y-141970952D01*
X316857142Y-142113809D01*
X316809523Y-142304285D01*
X316761904Y-142399523D01*
X316666666Y-142494761D01*
X316523809Y-142542380D01*
X316285714Y-142542380D01*
X317238095Y-141637619D02*
X317285714Y-141590000D01*
X317380952Y-141542380D01*
X317619047Y-141542380D01*
X317714285Y-141590000D01*
X317761904Y-141637619D01*
X317809523Y-141732857D01*
X317809523Y-141828095D01*
X317761904Y-141970952D01*
X317190476Y-142542380D01*
X317809523Y-142542380D01*
X318761904Y-142542380D02*
X318190476Y-142542380D01*
X318476190Y-142542380D02*
X318476190Y-141542380D01*
X318380952Y-141685238D01*
X318285714Y-141780476D01*
X318190476Y-141828095D01*
%TO.C,SW49*%
X275050476Y-64920761D02*
X275193333Y-64968380D01*
X275431428Y-64968380D01*
X275526666Y-64920761D01*
X275574285Y-64873142D01*
X275621904Y-64777904D01*
X275621904Y-64682666D01*
X275574285Y-64587428D01*
X275526666Y-64539809D01*
X275431428Y-64492190D01*
X275240952Y-64444571D01*
X275145714Y-64396952D01*
X275098095Y-64349333D01*
X275050476Y-64254095D01*
X275050476Y-64158857D01*
X275098095Y-64063619D01*
X275145714Y-64016000D01*
X275240952Y-63968380D01*
X275479047Y-63968380D01*
X275621904Y-64016000D01*
X275955238Y-63968380D02*
X276193333Y-64968380D01*
X276383809Y-64254095D01*
X276574285Y-64968380D01*
X276812380Y-63968380D01*
X277621904Y-64301714D02*
X277621904Y-64968380D01*
X277383809Y-63920761D02*
X277145714Y-64635047D01*
X277764761Y-64635047D01*
X278193333Y-64968380D02*
X278383809Y-64968380D01*
X278479047Y-64920761D01*
X278526666Y-64873142D01*
X278621904Y-64730285D01*
X278669523Y-64539809D01*
X278669523Y-64158857D01*
X278621904Y-64063619D01*
X278574285Y-64016000D01*
X278479047Y-63968380D01*
X278288571Y-63968380D01*
X278193333Y-64016000D01*
X278145714Y-64063619D01*
X278098095Y-64158857D01*
X278098095Y-64396952D01*
X278145714Y-64492190D01*
X278193333Y-64539809D01*
X278288571Y-64587428D01*
X278479047Y-64587428D01*
X278574285Y-64539809D01*
X278621904Y-64492190D01*
X278669523Y-64396952D01*
%TO.C,SW48*%
X308070476Y-44600761D02*
X308213333Y-44648380D01*
X308451428Y-44648380D01*
X308546666Y-44600761D01*
X308594285Y-44553142D01*
X308641904Y-44457904D01*
X308641904Y-44362666D01*
X308594285Y-44267428D01*
X308546666Y-44219809D01*
X308451428Y-44172190D01*
X308260952Y-44124571D01*
X308165714Y-44076952D01*
X308118095Y-44029333D01*
X308070476Y-43934095D01*
X308070476Y-43838857D01*
X308118095Y-43743619D01*
X308165714Y-43696000D01*
X308260952Y-43648380D01*
X308499047Y-43648380D01*
X308641904Y-43696000D01*
X308975238Y-43648380D02*
X309213333Y-44648380D01*
X309403809Y-43934095D01*
X309594285Y-44648380D01*
X309832380Y-43648380D01*
X310641904Y-43981714D02*
X310641904Y-44648380D01*
X310403809Y-43600761D02*
X310165714Y-44315047D01*
X310784761Y-44315047D01*
X311308571Y-44076952D02*
X311213333Y-44029333D01*
X311165714Y-43981714D01*
X311118095Y-43886476D01*
X311118095Y-43838857D01*
X311165714Y-43743619D01*
X311213333Y-43696000D01*
X311308571Y-43648380D01*
X311499047Y-43648380D01*
X311594285Y-43696000D01*
X311641904Y-43743619D01*
X311689523Y-43838857D01*
X311689523Y-43886476D01*
X311641904Y-43981714D01*
X311594285Y-44029333D01*
X311499047Y-44076952D01*
X311308571Y-44076952D01*
X311213333Y-44124571D01*
X311165714Y-44172190D01*
X311118095Y-44267428D01*
X311118095Y-44457904D01*
X311165714Y-44553142D01*
X311213333Y-44600761D01*
X311308571Y-44648380D01*
X311499047Y-44648380D01*
X311594285Y-44600761D01*
X311641904Y-44553142D01*
X311689523Y-44457904D01*
X311689523Y-44267428D01*
X311641904Y-44172190D01*
X311594285Y-44124571D01*
X311499047Y-44076952D01*
%TO.C,SW47*%
X26130476Y-86510761D02*
X26273333Y-86558380D01*
X26511428Y-86558380D01*
X26606666Y-86510761D01*
X26654285Y-86463142D01*
X26701904Y-86367904D01*
X26701904Y-86272666D01*
X26654285Y-86177428D01*
X26606666Y-86129809D01*
X26511428Y-86082190D01*
X26320952Y-86034571D01*
X26225714Y-85986952D01*
X26178095Y-85939333D01*
X26130476Y-85844095D01*
X26130476Y-85748857D01*
X26178095Y-85653619D01*
X26225714Y-85606000D01*
X26320952Y-85558380D01*
X26559047Y-85558380D01*
X26701904Y-85606000D01*
X27035238Y-85558380D02*
X27273333Y-86558380D01*
X27463809Y-85844095D01*
X27654285Y-86558380D01*
X27892380Y-85558380D01*
X28701904Y-85891714D02*
X28701904Y-86558380D01*
X28463809Y-85510761D02*
X28225714Y-86225047D01*
X28844761Y-86225047D01*
X29130476Y-85558380D02*
X29797142Y-85558380D01*
X29368571Y-86558380D01*
%TO.C,SW46*%
X41370476Y-108100761D02*
X41513333Y-108148380D01*
X41751428Y-108148380D01*
X41846666Y-108100761D01*
X41894285Y-108053142D01*
X41941904Y-107957904D01*
X41941904Y-107862666D01*
X41894285Y-107767428D01*
X41846666Y-107719809D01*
X41751428Y-107672190D01*
X41560952Y-107624571D01*
X41465714Y-107576952D01*
X41418095Y-107529333D01*
X41370476Y-107434095D01*
X41370476Y-107338857D01*
X41418095Y-107243619D01*
X41465714Y-107196000D01*
X41560952Y-107148380D01*
X41799047Y-107148380D01*
X41941904Y-107196000D01*
X42275238Y-107148380D02*
X42513333Y-108148380D01*
X42703809Y-107434095D01*
X42894285Y-108148380D01*
X43132380Y-107148380D01*
X43941904Y-107481714D02*
X43941904Y-108148380D01*
X43703809Y-107100761D02*
X43465714Y-107815047D01*
X44084761Y-107815047D01*
X44894285Y-107148380D02*
X44703809Y-107148380D01*
X44608571Y-107196000D01*
X44560952Y-107243619D01*
X44465714Y-107386476D01*
X44418095Y-107576952D01*
X44418095Y-107957904D01*
X44465714Y-108053142D01*
X44513333Y-108100761D01*
X44608571Y-108148380D01*
X44799047Y-108148380D01*
X44894285Y-108100761D01*
X44941904Y-108053142D01*
X44989523Y-107957904D01*
X44989523Y-107719809D01*
X44941904Y-107624571D01*
X44894285Y-107576952D01*
X44799047Y-107529333D01*
X44608571Y-107529333D01*
X44513333Y-107576952D01*
X44465714Y-107624571D01*
X44418095Y-107719809D01*
%TO.C,SW45*%
X282670476Y-86510761D02*
X282813333Y-86558380D01*
X283051428Y-86558380D01*
X283146666Y-86510761D01*
X283194285Y-86463142D01*
X283241904Y-86367904D01*
X283241904Y-86272666D01*
X283194285Y-86177428D01*
X283146666Y-86129809D01*
X283051428Y-86082190D01*
X282860952Y-86034571D01*
X282765714Y-85986952D01*
X282718095Y-85939333D01*
X282670476Y-85844095D01*
X282670476Y-85748857D01*
X282718095Y-85653619D01*
X282765714Y-85606000D01*
X282860952Y-85558380D01*
X283099047Y-85558380D01*
X283241904Y-85606000D01*
X283575238Y-85558380D02*
X283813333Y-86558380D01*
X284003809Y-85844095D01*
X284194285Y-86558380D01*
X284432380Y-85558380D01*
X285241904Y-85891714D02*
X285241904Y-86558380D01*
X285003809Y-85510761D02*
X284765714Y-86225047D01*
X285384761Y-86225047D01*
X286241904Y-85558380D02*
X285765714Y-85558380D01*
X285718095Y-86034571D01*
X285765714Y-85986952D01*
X285860952Y-85939333D01*
X286099047Y-85939333D01*
X286194285Y-85986952D01*
X286241904Y-86034571D01*
X286289523Y-86129809D01*
X286289523Y-86367904D01*
X286241904Y-86463142D01*
X286194285Y-86510761D01*
X286099047Y-86558380D01*
X285860952Y-86558380D01*
X285765714Y-86510761D01*
X285718095Y-86463142D01*
%TO.C,SW44*%
X261080476Y-108100761D02*
X261223333Y-108148380D01*
X261461428Y-108148380D01*
X261556666Y-108100761D01*
X261604285Y-108053142D01*
X261651904Y-107957904D01*
X261651904Y-107862666D01*
X261604285Y-107767428D01*
X261556666Y-107719809D01*
X261461428Y-107672190D01*
X261270952Y-107624571D01*
X261175714Y-107576952D01*
X261128095Y-107529333D01*
X261080476Y-107434095D01*
X261080476Y-107338857D01*
X261128095Y-107243619D01*
X261175714Y-107196000D01*
X261270952Y-107148380D01*
X261509047Y-107148380D01*
X261651904Y-107196000D01*
X261985238Y-107148380D02*
X262223333Y-108148380D01*
X262413809Y-107434095D01*
X262604285Y-108148380D01*
X262842380Y-107148380D01*
X263651904Y-107481714D02*
X263651904Y-108148380D01*
X263413809Y-107100761D02*
X263175714Y-107815047D01*
X263794761Y-107815047D01*
X264604285Y-107481714D02*
X264604285Y-108148380D01*
X264366190Y-107100761D02*
X264128095Y-107815047D01*
X264747142Y-107815047D01*
%TO.C,SW43*%
X165830476Y-44600761D02*
X165973333Y-44648380D01*
X166211428Y-44648380D01*
X166306666Y-44600761D01*
X166354285Y-44553142D01*
X166401904Y-44457904D01*
X166401904Y-44362666D01*
X166354285Y-44267428D01*
X166306666Y-44219809D01*
X166211428Y-44172190D01*
X166020952Y-44124571D01*
X165925714Y-44076952D01*
X165878095Y-44029333D01*
X165830476Y-43934095D01*
X165830476Y-43838857D01*
X165878095Y-43743619D01*
X165925714Y-43696000D01*
X166020952Y-43648380D01*
X166259047Y-43648380D01*
X166401904Y-43696000D01*
X166735238Y-43648380D02*
X166973333Y-44648380D01*
X167163809Y-43934095D01*
X167354285Y-44648380D01*
X167592380Y-43648380D01*
X168401904Y-43981714D02*
X168401904Y-44648380D01*
X168163809Y-43600761D02*
X167925714Y-44315047D01*
X168544761Y-44315047D01*
X168830476Y-43648380D02*
X169449523Y-43648380D01*
X169116190Y-44029333D01*
X169259047Y-44029333D01*
X169354285Y-44076952D01*
X169401904Y-44124571D01*
X169449523Y-44219809D01*
X169449523Y-44457904D01*
X169401904Y-44553142D01*
X169354285Y-44600761D01*
X169259047Y-44648380D01*
X168973333Y-44648380D01*
X168878095Y-44600761D01*
X168830476Y-44553142D01*
%TO.C,SW42*%
X71850476Y-64920761D02*
X71993333Y-64968380D01*
X72231428Y-64968380D01*
X72326666Y-64920761D01*
X72374285Y-64873142D01*
X72421904Y-64777904D01*
X72421904Y-64682666D01*
X72374285Y-64587428D01*
X72326666Y-64539809D01*
X72231428Y-64492190D01*
X72040952Y-64444571D01*
X71945714Y-64396952D01*
X71898095Y-64349333D01*
X71850476Y-64254095D01*
X71850476Y-64158857D01*
X71898095Y-64063619D01*
X71945714Y-64016000D01*
X72040952Y-63968380D01*
X72279047Y-63968380D01*
X72421904Y-64016000D01*
X72755238Y-63968380D02*
X72993333Y-64968380D01*
X73183809Y-64254095D01*
X73374285Y-64968380D01*
X73612380Y-63968380D01*
X74421904Y-64301714D02*
X74421904Y-64968380D01*
X74183809Y-63920761D02*
X73945714Y-64635047D01*
X74564761Y-64635047D01*
X74898095Y-64063619D02*
X74945714Y-64016000D01*
X75040952Y-63968380D01*
X75279047Y-63968380D01*
X75374285Y-64016000D01*
X75421904Y-64063619D01*
X75469523Y-64158857D01*
X75469523Y-64254095D01*
X75421904Y-64396952D01*
X74850476Y-64968380D01*
X75469523Y-64968380D01*
%TO.C,SW41*%
X214090476Y-64920761D02*
X214233333Y-64968380D01*
X214471428Y-64968380D01*
X214566666Y-64920761D01*
X214614285Y-64873142D01*
X214661904Y-64777904D01*
X214661904Y-64682666D01*
X214614285Y-64587428D01*
X214566666Y-64539809D01*
X214471428Y-64492190D01*
X214280952Y-64444571D01*
X214185714Y-64396952D01*
X214138095Y-64349333D01*
X214090476Y-64254095D01*
X214090476Y-64158857D01*
X214138095Y-64063619D01*
X214185714Y-64016000D01*
X214280952Y-63968380D01*
X214519047Y-63968380D01*
X214661904Y-64016000D01*
X214995238Y-63968380D02*
X215233333Y-64968380D01*
X215423809Y-64254095D01*
X215614285Y-64968380D01*
X215852380Y-63968380D01*
X216661904Y-64301714D02*
X216661904Y-64968380D01*
X216423809Y-63920761D02*
X216185714Y-64635047D01*
X216804761Y-64635047D01*
X217709523Y-64968380D02*
X217138095Y-64968380D01*
X217423809Y-64968380D02*
X217423809Y-63968380D01*
X217328571Y-64111238D01*
X217233333Y-64206476D01*
X217138095Y-64254095D01*
%TO.C,SW40*%
X144240476Y-86510761D02*
X144383333Y-86558380D01*
X144621428Y-86558380D01*
X144716666Y-86510761D01*
X144764285Y-86463142D01*
X144811904Y-86367904D01*
X144811904Y-86272666D01*
X144764285Y-86177428D01*
X144716666Y-86129809D01*
X144621428Y-86082190D01*
X144430952Y-86034571D01*
X144335714Y-85986952D01*
X144288095Y-85939333D01*
X144240476Y-85844095D01*
X144240476Y-85748857D01*
X144288095Y-85653619D01*
X144335714Y-85606000D01*
X144430952Y-85558380D01*
X144669047Y-85558380D01*
X144811904Y-85606000D01*
X145145238Y-85558380D02*
X145383333Y-86558380D01*
X145573809Y-85844095D01*
X145764285Y-86558380D01*
X146002380Y-85558380D01*
X146811904Y-85891714D02*
X146811904Y-86558380D01*
X146573809Y-85510761D02*
X146335714Y-86225047D01*
X146954761Y-86225047D01*
X147526190Y-85558380D02*
X147621428Y-85558380D01*
X147716666Y-85606000D01*
X147764285Y-85653619D01*
X147811904Y-85748857D01*
X147859523Y-85939333D01*
X147859523Y-86177428D01*
X147811904Y-86367904D01*
X147764285Y-86463142D01*
X147716666Y-86510761D01*
X147621428Y-86558380D01*
X147526190Y-86558380D01*
X147430952Y-86510761D01*
X147383333Y-86463142D01*
X147335714Y-86367904D01*
X147288095Y-86177428D01*
X147288095Y-85939333D01*
X147335714Y-85748857D01*
X147383333Y-85653619D01*
X147430952Y-85606000D01*
X147526190Y-85558380D01*
%TO.C,SW39*%
X240760476Y-108100761D02*
X240903333Y-108148380D01*
X241141428Y-108148380D01*
X241236666Y-108100761D01*
X241284285Y-108053142D01*
X241331904Y-107957904D01*
X241331904Y-107862666D01*
X241284285Y-107767428D01*
X241236666Y-107719809D01*
X241141428Y-107672190D01*
X240950952Y-107624571D01*
X240855714Y-107576952D01*
X240808095Y-107529333D01*
X240760476Y-107434095D01*
X240760476Y-107338857D01*
X240808095Y-107243619D01*
X240855714Y-107196000D01*
X240950952Y-107148380D01*
X241189047Y-107148380D01*
X241331904Y-107196000D01*
X241665238Y-107148380D02*
X241903333Y-108148380D01*
X242093809Y-107434095D01*
X242284285Y-108148380D01*
X242522380Y-107148380D01*
X242808095Y-107148380D02*
X243427142Y-107148380D01*
X243093809Y-107529333D01*
X243236666Y-107529333D01*
X243331904Y-107576952D01*
X243379523Y-107624571D01*
X243427142Y-107719809D01*
X243427142Y-107957904D01*
X243379523Y-108053142D01*
X243331904Y-108100761D01*
X243236666Y-108148380D01*
X242950952Y-108148380D01*
X242855714Y-108100761D01*
X242808095Y-108053142D01*
X243903333Y-108148380D02*
X244093809Y-108148380D01*
X244189047Y-108100761D01*
X244236666Y-108053142D01*
X244331904Y-107910285D01*
X244379523Y-107719809D01*
X244379523Y-107338857D01*
X244331904Y-107243619D01*
X244284285Y-107196000D01*
X244189047Y-107148380D01*
X243998571Y-107148380D01*
X243903333Y-107196000D01*
X243855714Y-107243619D01*
X243808095Y-107338857D01*
X243808095Y-107576952D01*
X243855714Y-107672190D01*
X243903333Y-107719809D01*
X243998571Y-107767428D01*
X244189047Y-107767428D01*
X244284285Y-107719809D01*
X244331904Y-107672190D01*
X244379523Y-107576952D01*
%TO.C,SW38*%
X145510476Y-44600761D02*
X145653333Y-44648380D01*
X145891428Y-44648380D01*
X145986666Y-44600761D01*
X146034285Y-44553142D01*
X146081904Y-44457904D01*
X146081904Y-44362666D01*
X146034285Y-44267428D01*
X145986666Y-44219809D01*
X145891428Y-44172190D01*
X145700952Y-44124571D01*
X145605714Y-44076952D01*
X145558095Y-44029333D01*
X145510476Y-43934095D01*
X145510476Y-43838857D01*
X145558095Y-43743619D01*
X145605714Y-43696000D01*
X145700952Y-43648380D01*
X145939047Y-43648380D01*
X146081904Y-43696000D01*
X146415238Y-43648380D02*
X146653333Y-44648380D01*
X146843809Y-43934095D01*
X147034285Y-44648380D01*
X147272380Y-43648380D01*
X147558095Y-43648380D02*
X148177142Y-43648380D01*
X147843809Y-44029333D01*
X147986666Y-44029333D01*
X148081904Y-44076952D01*
X148129523Y-44124571D01*
X148177142Y-44219809D01*
X148177142Y-44457904D01*
X148129523Y-44553142D01*
X148081904Y-44600761D01*
X147986666Y-44648380D01*
X147700952Y-44648380D01*
X147605714Y-44600761D01*
X147558095Y-44553142D01*
X148748571Y-44076952D02*
X148653333Y-44029333D01*
X148605714Y-43981714D01*
X148558095Y-43886476D01*
X148558095Y-43838857D01*
X148605714Y-43743619D01*
X148653333Y-43696000D01*
X148748571Y-43648380D01*
X148939047Y-43648380D01*
X149034285Y-43696000D01*
X149081904Y-43743619D01*
X149129523Y-43838857D01*
X149129523Y-43886476D01*
X149081904Y-43981714D01*
X149034285Y-44029333D01*
X148939047Y-44076952D01*
X148748571Y-44076952D01*
X148653333Y-44124571D01*
X148605714Y-44172190D01*
X148558095Y-44267428D01*
X148558095Y-44457904D01*
X148605714Y-44553142D01*
X148653333Y-44600761D01*
X148748571Y-44648380D01*
X148939047Y-44648380D01*
X149034285Y-44600761D01*
X149081904Y-44553142D01*
X149129523Y-44457904D01*
X149129523Y-44267428D01*
X149081904Y-44172190D01*
X149034285Y-44124571D01*
X148939047Y-44076952D01*
%TO.C,SW37*%
X254730476Y-64920761D02*
X254873333Y-64968380D01*
X255111428Y-64968380D01*
X255206666Y-64920761D01*
X255254285Y-64873142D01*
X255301904Y-64777904D01*
X255301904Y-64682666D01*
X255254285Y-64587428D01*
X255206666Y-64539809D01*
X255111428Y-64492190D01*
X254920952Y-64444571D01*
X254825714Y-64396952D01*
X254778095Y-64349333D01*
X254730476Y-64254095D01*
X254730476Y-64158857D01*
X254778095Y-64063619D01*
X254825714Y-64016000D01*
X254920952Y-63968380D01*
X255159047Y-63968380D01*
X255301904Y-64016000D01*
X255635238Y-63968380D02*
X255873333Y-64968380D01*
X256063809Y-64254095D01*
X256254285Y-64968380D01*
X256492380Y-63968380D01*
X256778095Y-63968380D02*
X257397142Y-63968380D01*
X257063809Y-64349333D01*
X257206666Y-64349333D01*
X257301904Y-64396952D01*
X257349523Y-64444571D01*
X257397142Y-64539809D01*
X257397142Y-64777904D01*
X257349523Y-64873142D01*
X257301904Y-64920761D01*
X257206666Y-64968380D01*
X256920952Y-64968380D01*
X256825714Y-64920761D01*
X256778095Y-64873142D01*
X257730476Y-63968380D02*
X258397142Y-63968380D01*
X257968571Y-64968380D01*
%TO.C,SW36*%
X139160476Y-108100761D02*
X139303333Y-108148380D01*
X139541428Y-108148380D01*
X139636666Y-108100761D01*
X139684285Y-108053142D01*
X139731904Y-107957904D01*
X139731904Y-107862666D01*
X139684285Y-107767428D01*
X139636666Y-107719809D01*
X139541428Y-107672190D01*
X139350952Y-107624571D01*
X139255714Y-107576952D01*
X139208095Y-107529333D01*
X139160476Y-107434095D01*
X139160476Y-107338857D01*
X139208095Y-107243619D01*
X139255714Y-107196000D01*
X139350952Y-107148380D01*
X139589047Y-107148380D01*
X139731904Y-107196000D01*
X140065238Y-107148380D02*
X140303333Y-108148380D01*
X140493809Y-107434095D01*
X140684285Y-108148380D01*
X140922380Y-107148380D01*
X141208095Y-107148380D02*
X141827142Y-107148380D01*
X141493809Y-107529333D01*
X141636666Y-107529333D01*
X141731904Y-107576952D01*
X141779523Y-107624571D01*
X141827142Y-107719809D01*
X141827142Y-107957904D01*
X141779523Y-108053142D01*
X141731904Y-108100761D01*
X141636666Y-108148380D01*
X141350952Y-108148380D01*
X141255714Y-108100761D01*
X141208095Y-108053142D01*
X142684285Y-107148380D02*
X142493809Y-107148380D01*
X142398571Y-107196000D01*
X142350952Y-107243619D01*
X142255714Y-107386476D01*
X142208095Y-107576952D01*
X142208095Y-107957904D01*
X142255714Y-108053142D01*
X142303333Y-108100761D01*
X142398571Y-108148380D01*
X142589047Y-108148380D01*
X142684285Y-108100761D01*
X142731904Y-108053142D01*
X142779523Y-107957904D01*
X142779523Y-107719809D01*
X142731904Y-107624571D01*
X142684285Y-107576952D01*
X142589047Y-107529333D01*
X142398571Y-107529333D01*
X142303333Y-107576952D01*
X142255714Y-107624571D01*
X142208095Y-107719809D01*
%TO.C,SW35*%
X179800476Y-108100761D02*
X179943333Y-108148380D01*
X180181428Y-108148380D01*
X180276666Y-108100761D01*
X180324285Y-108053142D01*
X180371904Y-107957904D01*
X180371904Y-107862666D01*
X180324285Y-107767428D01*
X180276666Y-107719809D01*
X180181428Y-107672190D01*
X179990952Y-107624571D01*
X179895714Y-107576952D01*
X179848095Y-107529333D01*
X179800476Y-107434095D01*
X179800476Y-107338857D01*
X179848095Y-107243619D01*
X179895714Y-107196000D01*
X179990952Y-107148380D01*
X180229047Y-107148380D01*
X180371904Y-107196000D01*
X180705238Y-107148380D02*
X180943333Y-108148380D01*
X181133809Y-107434095D01*
X181324285Y-108148380D01*
X181562380Y-107148380D01*
X181848095Y-107148380D02*
X182467142Y-107148380D01*
X182133809Y-107529333D01*
X182276666Y-107529333D01*
X182371904Y-107576952D01*
X182419523Y-107624571D01*
X182467142Y-107719809D01*
X182467142Y-107957904D01*
X182419523Y-108053142D01*
X182371904Y-108100761D01*
X182276666Y-108148380D01*
X181990952Y-108148380D01*
X181895714Y-108100761D01*
X181848095Y-108053142D01*
X183371904Y-107148380D02*
X182895714Y-107148380D01*
X182848095Y-107624571D01*
X182895714Y-107576952D01*
X182990952Y-107529333D01*
X183229047Y-107529333D01*
X183324285Y-107576952D01*
X183371904Y-107624571D01*
X183419523Y-107719809D01*
X183419523Y-107957904D01*
X183371904Y-108053142D01*
X183324285Y-108100761D01*
X183229047Y-108148380D01*
X182990952Y-108148380D01*
X182895714Y-108100761D01*
X182848095Y-108053142D01*
%TO.C,SW34*%
X123920476Y-86510761D02*
X124063333Y-86558380D01*
X124301428Y-86558380D01*
X124396666Y-86510761D01*
X124444285Y-86463142D01*
X124491904Y-86367904D01*
X124491904Y-86272666D01*
X124444285Y-86177428D01*
X124396666Y-86129809D01*
X124301428Y-86082190D01*
X124110952Y-86034571D01*
X124015714Y-85986952D01*
X123968095Y-85939333D01*
X123920476Y-85844095D01*
X123920476Y-85748857D01*
X123968095Y-85653619D01*
X124015714Y-85606000D01*
X124110952Y-85558380D01*
X124349047Y-85558380D01*
X124491904Y-85606000D01*
X124825238Y-85558380D02*
X125063333Y-86558380D01*
X125253809Y-85844095D01*
X125444285Y-86558380D01*
X125682380Y-85558380D01*
X125968095Y-85558380D02*
X126587142Y-85558380D01*
X126253809Y-85939333D01*
X126396666Y-85939333D01*
X126491904Y-85986952D01*
X126539523Y-86034571D01*
X126587142Y-86129809D01*
X126587142Y-86367904D01*
X126539523Y-86463142D01*
X126491904Y-86510761D01*
X126396666Y-86558380D01*
X126110952Y-86558380D01*
X126015714Y-86510761D01*
X125968095Y-86463142D01*
X127444285Y-85891714D02*
X127444285Y-86558380D01*
X127206190Y-85510761D02*
X126968095Y-86225047D01*
X127587142Y-86225047D01*
%TO.C,SW33*%
X267430476Y-44600761D02*
X267573333Y-44648380D01*
X267811428Y-44648380D01*
X267906666Y-44600761D01*
X267954285Y-44553142D01*
X268001904Y-44457904D01*
X268001904Y-44362666D01*
X267954285Y-44267428D01*
X267906666Y-44219809D01*
X267811428Y-44172190D01*
X267620952Y-44124571D01*
X267525714Y-44076952D01*
X267478095Y-44029333D01*
X267430476Y-43934095D01*
X267430476Y-43838857D01*
X267478095Y-43743619D01*
X267525714Y-43696000D01*
X267620952Y-43648380D01*
X267859047Y-43648380D01*
X268001904Y-43696000D01*
X268335238Y-43648380D02*
X268573333Y-44648380D01*
X268763809Y-43934095D01*
X268954285Y-44648380D01*
X269192380Y-43648380D01*
X269478095Y-43648380D02*
X270097142Y-43648380D01*
X269763809Y-44029333D01*
X269906666Y-44029333D01*
X270001904Y-44076952D01*
X270049523Y-44124571D01*
X270097142Y-44219809D01*
X270097142Y-44457904D01*
X270049523Y-44553142D01*
X270001904Y-44600761D01*
X269906666Y-44648380D01*
X269620952Y-44648380D01*
X269525714Y-44600761D01*
X269478095Y-44553142D01*
X270430476Y-43648380D02*
X271049523Y-43648380D01*
X270716190Y-44029333D01*
X270859047Y-44029333D01*
X270954285Y-44076952D01*
X271001904Y-44124571D01*
X271049523Y-44219809D01*
X271049523Y-44457904D01*
X271001904Y-44553142D01*
X270954285Y-44600761D01*
X270859047Y-44648380D01*
X270573333Y-44648380D01*
X270478095Y-44600761D01*
X270430476Y-44553142D01*
%TO.C,SW32*%
X125190476Y-44600761D02*
X125333333Y-44648380D01*
X125571428Y-44648380D01*
X125666666Y-44600761D01*
X125714285Y-44553142D01*
X125761904Y-44457904D01*
X125761904Y-44362666D01*
X125714285Y-44267428D01*
X125666666Y-44219809D01*
X125571428Y-44172190D01*
X125380952Y-44124571D01*
X125285714Y-44076952D01*
X125238095Y-44029333D01*
X125190476Y-43934095D01*
X125190476Y-43838857D01*
X125238095Y-43743619D01*
X125285714Y-43696000D01*
X125380952Y-43648380D01*
X125619047Y-43648380D01*
X125761904Y-43696000D01*
X126095238Y-43648380D02*
X126333333Y-44648380D01*
X126523809Y-43934095D01*
X126714285Y-44648380D01*
X126952380Y-43648380D01*
X127238095Y-43648380D02*
X127857142Y-43648380D01*
X127523809Y-44029333D01*
X127666666Y-44029333D01*
X127761904Y-44076952D01*
X127809523Y-44124571D01*
X127857142Y-44219809D01*
X127857142Y-44457904D01*
X127809523Y-44553142D01*
X127761904Y-44600761D01*
X127666666Y-44648380D01*
X127380952Y-44648380D01*
X127285714Y-44600761D01*
X127238095Y-44553142D01*
X128238095Y-43743619D02*
X128285714Y-43696000D01*
X128380952Y-43648380D01*
X128619047Y-43648380D01*
X128714285Y-43696000D01*
X128761904Y-43743619D01*
X128809523Y-43838857D01*
X128809523Y-43934095D01*
X128761904Y-44076952D01*
X128190476Y-44648380D01*
X128809523Y-44648380D01*
%TO.C,SW31*%
X173450476Y-64920761D02*
X173593333Y-64968380D01*
X173831428Y-64968380D01*
X173926666Y-64920761D01*
X173974285Y-64873142D01*
X174021904Y-64777904D01*
X174021904Y-64682666D01*
X173974285Y-64587428D01*
X173926666Y-64539809D01*
X173831428Y-64492190D01*
X173640952Y-64444571D01*
X173545714Y-64396952D01*
X173498095Y-64349333D01*
X173450476Y-64254095D01*
X173450476Y-64158857D01*
X173498095Y-64063619D01*
X173545714Y-64016000D01*
X173640952Y-63968380D01*
X173879047Y-63968380D01*
X174021904Y-64016000D01*
X174355238Y-63968380D02*
X174593333Y-64968380D01*
X174783809Y-64254095D01*
X174974285Y-64968380D01*
X175212380Y-63968380D01*
X175498095Y-63968380D02*
X176117142Y-63968380D01*
X175783809Y-64349333D01*
X175926666Y-64349333D01*
X176021904Y-64396952D01*
X176069523Y-64444571D01*
X176117142Y-64539809D01*
X176117142Y-64777904D01*
X176069523Y-64873142D01*
X176021904Y-64920761D01*
X175926666Y-64968380D01*
X175640952Y-64968380D01*
X175545714Y-64920761D01*
X175498095Y-64873142D01*
X177069523Y-64968380D02*
X176498095Y-64968380D01*
X176783809Y-64968380D02*
X176783809Y-63968380D01*
X176688571Y-64111238D01*
X176593333Y-64206476D01*
X176498095Y-64254095D01*
%TO.C,SW30*%
X200120476Y-108100761D02*
X200263333Y-108148380D01*
X200501428Y-108148380D01*
X200596666Y-108100761D01*
X200644285Y-108053142D01*
X200691904Y-107957904D01*
X200691904Y-107862666D01*
X200644285Y-107767428D01*
X200596666Y-107719809D01*
X200501428Y-107672190D01*
X200310952Y-107624571D01*
X200215714Y-107576952D01*
X200168095Y-107529333D01*
X200120476Y-107434095D01*
X200120476Y-107338857D01*
X200168095Y-107243619D01*
X200215714Y-107196000D01*
X200310952Y-107148380D01*
X200549047Y-107148380D01*
X200691904Y-107196000D01*
X201025238Y-107148380D02*
X201263333Y-108148380D01*
X201453809Y-107434095D01*
X201644285Y-108148380D01*
X201882380Y-107148380D01*
X202168095Y-107148380D02*
X202787142Y-107148380D01*
X202453809Y-107529333D01*
X202596666Y-107529333D01*
X202691904Y-107576952D01*
X202739523Y-107624571D01*
X202787142Y-107719809D01*
X202787142Y-107957904D01*
X202739523Y-108053142D01*
X202691904Y-108100761D01*
X202596666Y-108148380D01*
X202310952Y-108148380D01*
X202215714Y-108100761D01*
X202168095Y-108053142D01*
X203406190Y-107148380D02*
X203501428Y-107148380D01*
X203596666Y-107196000D01*
X203644285Y-107243619D01*
X203691904Y-107338857D01*
X203739523Y-107529333D01*
X203739523Y-107767428D01*
X203691904Y-107957904D01*
X203644285Y-108053142D01*
X203596666Y-108100761D01*
X203501428Y-108148380D01*
X203406190Y-108148380D01*
X203310952Y-108100761D01*
X203263333Y-108053142D01*
X203215714Y-107957904D01*
X203168095Y-107767428D01*
X203168095Y-107529333D01*
X203215714Y-107338857D01*
X203263333Y-107243619D01*
X203310952Y-107196000D01*
X203406190Y-107148380D01*
%TO.C,SW29*%
X92170476Y-64920761D02*
X92313333Y-64968380D01*
X92551428Y-64968380D01*
X92646666Y-64920761D01*
X92694285Y-64873142D01*
X92741904Y-64777904D01*
X92741904Y-64682666D01*
X92694285Y-64587428D01*
X92646666Y-64539809D01*
X92551428Y-64492190D01*
X92360952Y-64444571D01*
X92265714Y-64396952D01*
X92218095Y-64349333D01*
X92170476Y-64254095D01*
X92170476Y-64158857D01*
X92218095Y-64063619D01*
X92265714Y-64016000D01*
X92360952Y-63968380D01*
X92599047Y-63968380D01*
X92741904Y-64016000D01*
X93075238Y-63968380D02*
X93313333Y-64968380D01*
X93503809Y-64254095D01*
X93694285Y-64968380D01*
X93932380Y-63968380D01*
X94265714Y-64063619D02*
X94313333Y-64016000D01*
X94408571Y-63968380D01*
X94646666Y-63968380D01*
X94741904Y-64016000D01*
X94789523Y-64063619D01*
X94837142Y-64158857D01*
X94837142Y-64254095D01*
X94789523Y-64396952D01*
X94218095Y-64968380D01*
X94837142Y-64968380D01*
X95313333Y-64968380D02*
X95503809Y-64968380D01*
X95599047Y-64920761D01*
X95646666Y-64873142D01*
X95741904Y-64730285D01*
X95789523Y-64539809D01*
X95789523Y-64158857D01*
X95741904Y-64063619D01*
X95694285Y-64016000D01*
X95599047Y-63968380D01*
X95408571Y-63968380D01*
X95313333Y-64016000D01*
X95265714Y-64063619D01*
X95218095Y-64158857D01*
X95218095Y-64396952D01*
X95265714Y-64492190D01*
X95313333Y-64539809D01*
X95408571Y-64587428D01*
X95599047Y-64587428D01*
X95694285Y-64539809D01*
X95741904Y-64492190D01*
X95789523Y-64396952D01*
%TO.C,SW28*%
X220440476Y-108100761D02*
X220583333Y-108148380D01*
X220821428Y-108148380D01*
X220916666Y-108100761D01*
X220964285Y-108053142D01*
X221011904Y-107957904D01*
X221011904Y-107862666D01*
X220964285Y-107767428D01*
X220916666Y-107719809D01*
X220821428Y-107672190D01*
X220630952Y-107624571D01*
X220535714Y-107576952D01*
X220488095Y-107529333D01*
X220440476Y-107434095D01*
X220440476Y-107338857D01*
X220488095Y-107243619D01*
X220535714Y-107196000D01*
X220630952Y-107148380D01*
X220869047Y-107148380D01*
X221011904Y-107196000D01*
X221345238Y-107148380D02*
X221583333Y-108148380D01*
X221773809Y-107434095D01*
X221964285Y-108148380D01*
X222202380Y-107148380D01*
X222535714Y-107243619D02*
X222583333Y-107196000D01*
X222678571Y-107148380D01*
X222916666Y-107148380D01*
X223011904Y-107196000D01*
X223059523Y-107243619D01*
X223107142Y-107338857D01*
X223107142Y-107434095D01*
X223059523Y-107576952D01*
X222488095Y-108148380D01*
X223107142Y-108148380D01*
X223678571Y-107576952D02*
X223583333Y-107529333D01*
X223535714Y-107481714D01*
X223488095Y-107386476D01*
X223488095Y-107338857D01*
X223535714Y-107243619D01*
X223583333Y-107196000D01*
X223678571Y-107148380D01*
X223869047Y-107148380D01*
X223964285Y-107196000D01*
X224011904Y-107243619D01*
X224059523Y-107338857D01*
X224059523Y-107386476D01*
X224011904Y-107481714D01*
X223964285Y-107529333D01*
X223869047Y-107576952D01*
X223678571Y-107576952D01*
X223583333Y-107624571D01*
X223535714Y-107672190D01*
X223488095Y-107767428D01*
X223488095Y-107957904D01*
X223535714Y-108053142D01*
X223583333Y-108100761D01*
X223678571Y-108148380D01*
X223869047Y-108148380D01*
X223964285Y-108100761D01*
X224011904Y-108053142D01*
X224059523Y-107957904D01*
X224059523Y-107767428D01*
X224011904Y-107672190D01*
X223964285Y-107624571D01*
X223869047Y-107576952D01*
%TO.C,SW27*%
X104870476Y-44600761D02*
X105013333Y-44648380D01*
X105251428Y-44648380D01*
X105346666Y-44600761D01*
X105394285Y-44553142D01*
X105441904Y-44457904D01*
X105441904Y-44362666D01*
X105394285Y-44267428D01*
X105346666Y-44219809D01*
X105251428Y-44172190D01*
X105060952Y-44124571D01*
X104965714Y-44076952D01*
X104918095Y-44029333D01*
X104870476Y-43934095D01*
X104870476Y-43838857D01*
X104918095Y-43743619D01*
X104965714Y-43696000D01*
X105060952Y-43648380D01*
X105299047Y-43648380D01*
X105441904Y-43696000D01*
X105775238Y-43648380D02*
X106013333Y-44648380D01*
X106203809Y-43934095D01*
X106394285Y-44648380D01*
X106632380Y-43648380D01*
X106965714Y-43743619D02*
X107013333Y-43696000D01*
X107108571Y-43648380D01*
X107346666Y-43648380D01*
X107441904Y-43696000D01*
X107489523Y-43743619D01*
X107537142Y-43838857D01*
X107537142Y-43934095D01*
X107489523Y-44076952D01*
X106918095Y-44648380D01*
X107537142Y-44648380D01*
X107870476Y-43648380D02*
X108537142Y-43648380D01*
X108108571Y-44648380D01*
%TO.C,SW26*%
X132810476Y-64920761D02*
X132953333Y-64968380D01*
X133191428Y-64968380D01*
X133286666Y-64920761D01*
X133334285Y-64873142D01*
X133381904Y-64777904D01*
X133381904Y-64682666D01*
X133334285Y-64587428D01*
X133286666Y-64539809D01*
X133191428Y-64492190D01*
X133000952Y-64444571D01*
X132905714Y-64396952D01*
X132858095Y-64349333D01*
X132810476Y-64254095D01*
X132810476Y-64158857D01*
X132858095Y-64063619D01*
X132905714Y-64016000D01*
X133000952Y-63968380D01*
X133239047Y-63968380D01*
X133381904Y-64016000D01*
X133715238Y-63968380D02*
X133953333Y-64968380D01*
X134143809Y-64254095D01*
X134334285Y-64968380D01*
X134572380Y-63968380D01*
X134905714Y-64063619D02*
X134953333Y-64016000D01*
X135048571Y-63968380D01*
X135286666Y-63968380D01*
X135381904Y-64016000D01*
X135429523Y-64063619D01*
X135477142Y-64158857D01*
X135477142Y-64254095D01*
X135429523Y-64396952D01*
X134858095Y-64968380D01*
X135477142Y-64968380D01*
X136334285Y-63968380D02*
X136143809Y-63968380D01*
X136048571Y-64016000D01*
X136000952Y-64063619D01*
X135905714Y-64206476D01*
X135858095Y-64396952D01*
X135858095Y-64777904D01*
X135905714Y-64873142D01*
X135953333Y-64920761D01*
X136048571Y-64968380D01*
X136239047Y-64968380D01*
X136334285Y-64920761D01*
X136381904Y-64873142D01*
X136429523Y-64777904D01*
X136429523Y-64539809D01*
X136381904Y-64444571D01*
X136334285Y-64396952D01*
X136239047Y-64349333D01*
X136048571Y-64349333D01*
X135953333Y-64396952D01*
X135905714Y-64444571D01*
X135858095Y-64539809D01*
%TO.C,SW25*%
X225520476Y-86510761D02*
X225663333Y-86558380D01*
X225901428Y-86558380D01*
X225996666Y-86510761D01*
X226044285Y-86463142D01*
X226091904Y-86367904D01*
X226091904Y-86272666D01*
X226044285Y-86177428D01*
X225996666Y-86129809D01*
X225901428Y-86082190D01*
X225710952Y-86034571D01*
X225615714Y-85986952D01*
X225568095Y-85939333D01*
X225520476Y-85844095D01*
X225520476Y-85748857D01*
X225568095Y-85653619D01*
X225615714Y-85606000D01*
X225710952Y-85558380D01*
X225949047Y-85558380D01*
X226091904Y-85606000D01*
X226425238Y-85558380D02*
X226663333Y-86558380D01*
X226853809Y-85844095D01*
X227044285Y-86558380D01*
X227282380Y-85558380D01*
X227615714Y-85653619D02*
X227663333Y-85606000D01*
X227758571Y-85558380D01*
X227996666Y-85558380D01*
X228091904Y-85606000D01*
X228139523Y-85653619D01*
X228187142Y-85748857D01*
X228187142Y-85844095D01*
X228139523Y-85986952D01*
X227568095Y-86558380D01*
X228187142Y-86558380D01*
X229091904Y-85558380D02*
X228615714Y-85558380D01*
X228568095Y-86034571D01*
X228615714Y-85986952D01*
X228710952Y-85939333D01*
X228949047Y-85939333D01*
X229044285Y-85986952D01*
X229091904Y-86034571D01*
X229139523Y-86129809D01*
X229139523Y-86367904D01*
X229091904Y-86463142D01*
X229044285Y-86510761D01*
X228949047Y-86558380D01*
X228710952Y-86558380D01*
X228615714Y-86510761D01*
X228568095Y-86463142D01*
%TO.C,SW24*%
X103600476Y-86510761D02*
X103743333Y-86558380D01*
X103981428Y-86558380D01*
X104076666Y-86510761D01*
X104124285Y-86463142D01*
X104171904Y-86367904D01*
X104171904Y-86272666D01*
X104124285Y-86177428D01*
X104076666Y-86129809D01*
X103981428Y-86082190D01*
X103790952Y-86034571D01*
X103695714Y-85986952D01*
X103648095Y-85939333D01*
X103600476Y-85844095D01*
X103600476Y-85748857D01*
X103648095Y-85653619D01*
X103695714Y-85606000D01*
X103790952Y-85558380D01*
X104029047Y-85558380D01*
X104171904Y-85606000D01*
X104505238Y-85558380D02*
X104743333Y-86558380D01*
X104933809Y-85844095D01*
X105124285Y-86558380D01*
X105362380Y-85558380D01*
X105695714Y-85653619D02*
X105743333Y-85606000D01*
X105838571Y-85558380D01*
X106076666Y-85558380D01*
X106171904Y-85606000D01*
X106219523Y-85653619D01*
X106267142Y-85748857D01*
X106267142Y-85844095D01*
X106219523Y-85986952D01*
X105648095Y-86558380D01*
X106267142Y-86558380D01*
X107124285Y-85891714D02*
X107124285Y-86558380D01*
X106886190Y-85510761D02*
X106648095Y-86225047D01*
X107267142Y-86225047D01*
%TO.C,SW23*%
X245840476Y-86510761D02*
X245983333Y-86558380D01*
X246221428Y-86558380D01*
X246316666Y-86510761D01*
X246364285Y-86463142D01*
X246411904Y-86367904D01*
X246411904Y-86272666D01*
X246364285Y-86177428D01*
X246316666Y-86129809D01*
X246221428Y-86082190D01*
X246030952Y-86034571D01*
X245935714Y-85986952D01*
X245888095Y-85939333D01*
X245840476Y-85844095D01*
X245840476Y-85748857D01*
X245888095Y-85653619D01*
X245935714Y-85606000D01*
X246030952Y-85558380D01*
X246269047Y-85558380D01*
X246411904Y-85606000D01*
X246745238Y-85558380D02*
X246983333Y-86558380D01*
X247173809Y-85844095D01*
X247364285Y-86558380D01*
X247602380Y-85558380D01*
X247935714Y-85653619D02*
X247983333Y-85606000D01*
X248078571Y-85558380D01*
X248316666Y-85558380D01*
X248411904Y-85606000D01*
X248459523Y-85653619D01*
X248507142Y-85748857D01*
X248507142Y-85844095D01*
X248459523Y-85986952D01*
X247888095Y-86558380D01*
X248507142Y-86558380D01*
X248840476Y-85558380D02*
X249459523Y-85558380D01*
X249126190Y-85939333D01*
X249269047Y-85939333D01*
X249364285Y-85986952D01*
X249411904Y-86034571D01*
X249459523Y-86129809D01*
X249459523Y-86367904D01*
X249411904Y-86463142D01*
X249364285Y-86510761D01*
X249269047Y-86558380D01*
X248983333Y-86558380D01*
X248888095Y-86510761D01*
X248840476Y-86463142D01*
%TO.C,SW22*%
X84550476Y-44600761D02*
X84693333Y-44648380D01*
X84931428Y-44648380D01*
X85026666Y-44600761D01*
X85074285Y-44553142D01*
X85121904Y-44457904D01*
X85121904Y-44362666D01*
X85074285Y-44267428D01*
X85026666Y-44219809D01*
X84931428Y-44172190D01*
X84740952Y-44124571D01*
X84645714Y-44076952D01*
X84598095Y-44029333D01*
X84550476Y-43934095D01*
X84550476Y-43838857D01*
X84598095Y-43743619D01*
X84645714Y-43696000D01*
X84740952Y-43648380D01*
X84979047Y-43648380D01*
X85121904Y-43696000D01*
X85455238Y-43648380D02*
X85693333Y-44648380D01*
X85883809Y-43934095D01*
X86074285Y-44648380D01*
X86312380Y-43648380D01*
X86645714Y-43743619D02*
X86693333Y-43696000D01*
X86788571Y-43648380D01*
X87026666Y-43648380D01*
X87121904Y-43696000D01*
X87169523Y-43743619D01*
X87217142Y-43838857D01*
X87217142Y-43934095D01*
X87169523Y-44076952D01*
X86598095Y-44648380D01*
X87217142Y-44648380D01*
X87598095Y-43743619D02*
X87645714Y-43696000D01*
X87740952Y-43648380D01*
X87979047Y-43648380D01*
X88074285Y-43696000D01*
X88121904Y-43743619D01*
X88169523Y-43838857D01*
X88169523Y-43934095D01*
X88121904Y-44076952D01*
X87550476Y-44648380D01*
X88169523Y-44648380D01*
%TO.C,SW21*%
X83280476Y-86510761D02*
X83423333Y-86558380D01*
X83661428Y-86558380D01*
X83756666Y-86510761D01*
X83804285Y-86463142D01*
X83851904Y-86367904D01*
X83851904Y-86272666D01*
X83804285Y-86177428D01*
X83756666Y-86129809D01*
X83661428Y-86082190D01*
X83470952Y-86034571D01*
X83375714Y-85986952D01*
X83328095Y-85939333D01*
X83280476Y-85844095D01*
X83280476Y-85748857D01*
X83328095Y-85653619D01*
X83375714Y-85606000D01*
X83470952Y-85558380D01*
X83709047Y-85558380D01*
X83851904Y-85606000D01*
X84185238Y-85558380D02*
X84423333Y-86558380D01*
X84613809Y-85844095D01*
X84804285Y-86558380D01*
X85042380Y-85558380D01*
X85375714Y-85653619D02*
X85423333Y-85606000D01*
X85518571Y-85558380D01*
X85756666Y-85558380D01*
X85851904Y-85606000D01*
X85899523Y-85653619D01*
X85947142Y-85748857D01*
X85947142Y-85844095D01*
X85899523Y-85986952D01*
X85328095Y-86558380D01*
X85947142Y-86558380D01*
X86899523Y-86558380D02*
X86328095Y-86558380D01*
X86613809Y-86558380D02*
X86613809Y-85558380D01*
X86518571Y-85701238D01*
X86423333Y-85796476D01*
X86328095Y-85844095D01*
%TO.C,SW20*%
X205200476Y-86510761D02*
X205343333Y-86558380D01*
X205581428Y-86558380D01*
X205676666Y-86510761D01*
X205724285Y-86463142D01*
X205771904Y-86367904D01*
X205771904Y-86272666D01*
X205724285Y-86177428D01*
X205676666Y-86129809D01*
X205581428Y-86082190D01*
X205390952Y-86034571D01*
X205295714Y-85986952D01*
X205248095Y-85939333D01*
X205200476Y-85844095D01*
X205200476Y-85748857D01*
X205248095Y-85653619D01*
X205295714Y-85606000D01*
X205390952Y-85558380D01*
X205629047Y-85558380D01*
X205771904Y-85606000D01*
X206105238Y-85558380D02*
X206343333Y-86558380D01*
X206533809Y-85844095D01*
X206724285Y-86558380D01*
X206962380Y-85558380D01*
X207295714Y-85653619D02*
X207343333Y-85606000D01*
X207438571Y-85558380D01*
X207676666Y-85558380D01*
X207771904Y-85606000D01*
X207819523Y-85653619D01*
X207867142Y-85748857D01*
X207867142Y-85844095D01*
X207819523Y-85986952D01*
X207248095Y-86558380D01*
X207867142Y-86558380D01*
X208486190Y-85558380D02*
X208581428Y-85558380D01*
X208676666Y-85606000D01*
X208724285Y-85653619D01*
X208771904Y-85748857D01*
X208819523Y-85939333D01*
X208819523Y-86177428D01*
X208771904Y-86367904D01*
X208724285Y-86463142D01*
X208676666Y-86510761D01*
X208581428Y-86558380D01*
X208486190Y-86558380D01*
X208390952Y-86510761D01*
X208343333Y-86463142D01*
X208295714Y-86367904D01*
X208248095Y-86177428D01*
X208248095Y-85939333D01*
X208295714Y-85748857D01*
X208343333Y-85653619D01*
X208390952Y-85606000D01*
X208486190Y-85558380D01*
%TO.C,SW19*%
X118840476Y-108100761D02*
X118983333Y-108148380D01*
X119221428Y-108148380D01*
X119316666Y-108100761D01*
X119364285Y-108053142D01*
X119411904Y-107957904D01*
X119411904Y-107862666D01*
X119364285Y-107767428D01*
X119316666Y-107719809D01*
X119221428Y-107672190D01*
X119030952Y-107624571D01*
X118935714Y-107576952D01*
X118888095Y-107529333D01*
X118840476Y-107434095D01*
X118840476Y-107338857D01*
X118888095Y-107243619D01*
X118935714Y-107196000D01*
X119030952Y-107148380D01*
X119269047Y-107148380D01*
X119411904Y-107196000D01*
X119745238Y-107148380D02*
X119983333Y-108148380D01*
X120173809Y-107434095D01*
X120364285Y-108148380D01*
X120602380Y-107148380D01*
X121507142Y-108148380D02*
X120935714Y-108148380D01*
X121221428Y-108148380D02*
X121221428Y-107148380D01*
X121126190Y-107291238D01*
X121030952Y-107386476D01*
X120935714Y-107434095D01*
X121983333Y-108148380D02*
X122173809Y-108148380D01*
X122269047Y-108100761D01*
X122316666Y-108053142D01*
X122411904Y-107910285D01*
X122459523Y-107719809D01*
X122459523Y-107338857D01*
X122411904Y-107243619D01*
X122364285Y-107196000D01*
X122269047Y-107148380D01*
X122078571Y-107148380D01*
X121983333Y-107196000D01*
X121935714Y-107243619D01*
X121888095Y-107338857D01*
X121888095Y-107576952D01*
X121935714Y-107672190D01*
X121983333Y-107719809D01*
X122078571Y-107767428D01*
X122269047Y-107767428D01*
X122364285Y-107719809D01*
X122411904Y-107672190D01*
X122459523Y-107576952D01*
%TO.C,SW18*%
X247110476Y-44600761D02*
X247253333Y-44648380D01*
X247491428Y-44648380D01*
X247586666Y-44600761D01*
X247634285Y-44553142D01*
X247681904Y-44457904D01*
X247681904Y-44362666D01*
X247634285Y-44267428D01*
X247586666Y-44219809D01*
X247491428Y-44172190D01*
X247300952Y-44124571D01*
X247205714Y-44076952D01*
X247158095Y-44029333D01*
X247110476Y-43934095D01*
X247110476Y-43838857D01*
X247158095Y-43743619D01*
X247205714Y-43696000D01*
X247300952Y-43648380D01*
X247539047Y-43648380D01*
X247681904Y-43696000D01*
X248015238Y-43648380D02*
X248253333Y-44648380D01*
X248443809Y-43934095D01*
X248634285Y-44648380D01*
X248872380Y-43648380D01*
X249777142Y-44648380D02*
X249205714Y-44648380D01*
X249491428Y-44648380D02*
X249491428Y-43648380D01*
X249396190Y-43791238D01*
X249300952Y-43886476D01*
X249205714Y-43934095D01*
X250348571Y-44076952D02*
X250253333Y-44029333D01*
X250205714Y-43981714D01*
X250158095Y-43886476D01*
X250158095Y-43838857D01*
X250205714Y-43743619D01*
X250253333Y-43696000D01*
X250348571Y-43648380D01*
X250539047Y-43648380D01*
X250634285Y-43696000D01*
X250681904Y-43743619D01*
X250729523Y-43838857D01*
X250729523Y-43886476D01*
X250681904Y-43981714D01*
X250634285Y-44029333D01*
X250539047Y-44076952D01*
X250348571Y-44076952D01*
X250253333Y-44124571D01*
X250205714Y-44172190D01*
X250158095Y-44267428D01*
X250158095Y-44457904D01*
X250205714Y-44553142D01*
X250253333Y-44600761D01*
X250348571Y-44648380D01*
X250539047Y-44648380D01*
X250634285Y-44600761D01*
X250681904Y-44553142D01*
X250729523Y-44457904D01*
X250729523Y-44267428D01*
X250681904Y-44172190D01*
X250634285Y-44124571D01*
X250539047Y-44076952D01*
%TO.C,SW17*%
X64230476Y-44600761D02*
X64373333Y-44648380D01*
X64611428Y-44648380D01*
X64706666Y-44600761D01*
X64754285Y-44553142D01*
X64801904Y-44457904D01*
X64801904Y-44362666D01*
X64754285Y-44267428D01*
X64706666Y-44219809D01*
X64611428Y-44172190D01*
X64420952Y-44124571D01*
X64325714Y-44076952D01*
X64278095Y-44029333D01*
X64230476Y-43934095D01*
X64230476Y-43838857D01*
X64278095Y-43743619D01*
X64325714Y-43696000D01*
X64420952Y-43648380D01*
X64659047Y-43648380D01*
X64801904Y-43696000D01*
X65135238Y-43648380D02*
X65373333Y-44648380D01*
X65563809Y-43934095D01*
X65754285Y-44648380D01*
X65992380Y-43648380D01*
X66897142Y-44648380D02*
X66325714Y-44648380D01*
X66611428Y-44648380D02*
X66611428Y-43648380D01*
X66516190Y-43791238D01*
X66420952Y-43886476D01*
X66325714Y-43934095D01*
X67230476Y-43648380D02*
X67897142Y-43648380D01*
X67468571Y-44648380D01*
%TO.C,SW16*%
X78200476Y-108100761D02*
X78343333Y-108148380D01*
X78581428Y-108148380D01*
X78676666Y-108100761D01*
X78724285Y-108053142D01*
X78771904Y-107957904D01*
X78771904Y-107862666D01*
X78724285Y-107767428D01*
X78676666Y-107719809D01*
X78581428Y-107672190D01*
X78390952Y-107624571D01*
X78295714Y-107576952D01*
X78248095Y-107529333D01*
X78200476Y-107434095D01*
X78200476Y-107338857D01*
X78248095Y-107243619D01*
X78295714Y-107196000D01*
X78390952Y-107148380D01*
X78629047Y-107148380D01*
X78771904Y-107196000D01*
X79105238Y-107148380D02*
X79343333Y-108148380D01*
X79533809Y-107434095D01*
X79724285Y-108148380D01*
X79962380Y-107148380D01*
X80867142Y-108148380D02*
X80295714Y-108148380D01*
X80581428Y-108148380D02*
X80581428Y-107148380D01*
X80486190Y-107291238D01*
X80390952Y-107386476D01*
X80295714Y-107434095D01*
X81724285Y-107148380D02*
X81533809Y-107148380D01*
X81438571Y-107196000D01*
X81390952Y-107243619D01*
X81295714Y-107386476D01*
X81248095Y-107576952D01*
X81248095Y-107957904D01*
X81295714Y-108053142D01*
X81343333Y-108100761D01*
X81438571Y-108148380D01*
X81629047Y-108148380D01*
X81724285Y-108100761D01*
X81771904Y-108053142D01*
X81819523Y-107957904D01*
X81819523Y-107719809D01*
X81771904Y-107624571D01*
X81724285Y-107576952D01*
X81629047Y-107529333D01*
X81438571Y-107529333D01*
X81343333Y-107576952D01*
X81295714Y-107624571D01*
X81248095Y-107719809D01*
%TO.C,SW15*%
X112490476Y-64920761D02*
X112633333Y-64968380D01*
X112871428Y-64968380D01*
X112966666Y-64920761D01*
X113014285Y-64873142D01*
X113061904Y-64777904D01*
X113061904Y-64682666D01*
X113014285Y-64587428D01*
X112966666Y-64539809D01*
X112871428Y-64492190D01*
X112680952Y-64444571D01*
X112585714Y-64396952D01*
X112538095Y-64349333D01*
X112490476Y-64254095D01*
X112490476Y-64158857D01*
X112538095Y-64063619D01*
X112585714Y-64016000D01*
X112680952Y-63968380D01*
X112919047Y-63968380D01*
X113061904Y-64016000D01*
X113395238Y-63968380D02*
X113633333Y-64968380D01*
X113823809Y-64254095D01*
X114014285Y-64968380D01*
X114252380Y-63968380D01*
X115157142Y-64968380D02*
X114585714Y-64968380D01*
X114871428Y-64968380D02*
X114871428Y-63968380D01*
X114776190Y-64111238D01*
X114680952Y-64206476D01*
X114585714Y-64254095D01*
X116061904Y-63968380D02*
X115585714Y-63968380D01*
X115538095Y-64444571D01*
X115585714Y-64396952D01*
X115680952Y-64349333D01*
X115919047Y-64349333D01*
X116014285Y-64396952D01*
X116061904Y-64444571D01*
X116109523Y-64539809D01*
X116109523Y-64777904D01*
X116061904Y-64873142D01*
X116014285Y-64920761D01*
X115919047Y-64968380D01*
X115680952Y-64968380D01*
X115585714Y-64920761D01*
X115538095Y-64873142D01*
%TO.C,SW14*%
X184880476Y-86510761D02*
X185023333Y-86558380D01*
X185261428Y-86558380D01*
X185356666Y-86510761D01*
X185404285Y-86463142D01*
X185451904Y-86367904D01*
X185451904Y-86272666D01*
X185404285Y-86177428D01*
X185356666Y-86129809D01*
X185261428Y-86082190D01*
X185070952Y-86034571D01*
X184975714Y-85986952D01*
X184928095Y-85939333D01*
X184880476Y-85844095D01*
X184880476Y-85748857D01*
X184928095Y-85653619D01*
X184975714Y-85606000D01*
X185070952Y-85558380D01*
X185309047Y-85558380D01*
X185451904Y-85606000D01*
X185785238Y-85558380D02*
X186023333Y-86558380D01*
X186213809Y-85844095D01*
X186404285Y-86558380D01*
X186642380Y-85558380D01*
X187547142Y-86558380D02*
X186975714Y-86558380D01*
X187261428Y-86558380D02*
X187261428Y-85558380D01*
X187166190Y-85701238D01*
X187070952Y-85796476D01*
X186975714Y-85844095D01*
X188404285Y-85891714D02*
X188404285Y-86558380D01*
X188166190Y-85510761D02*
X187928095Y-86225047D01*
X188547142Y-86225047D01*
%TO.C,SW13*%
X159480476Y-108100761D02*
X159623333Y-108148380D01*
X159861428Y-108148380D01*
X159956666Y-108100761D01*
X160004285Y-108053142D01*
X160051904Y-107957904D01*
X160051904Y-107862666D01*
X160004285Y-107767428D01*
X159956666Y-107719809D01*
X159861428Y-107672190D01*
X159670952Y-107624571D01*
X159575714Y-107576952D01*
X159528095Y-107529333D01*
X159480476Y-107434095D01*
X159480476Y-107338857D01*
X159528095Y-107243619D01*
X159575714Y-107196000D01*
X159670952Y-107148380D01*
X159909047Y-107148380D01*
X160051904Y-107196000D01*
X160385238Y-107148380D02*
X160623333Y-108148380D01*
X160813809Y-107434095D01*
X161004285Y-108148380D01*
X161242380Y-107148380D01*
X162147142Y-108148380D02*
X161575714Y-108148380D01*
X161861428Y-108148380D02*
X161861428Y-107148380D01*
X161766190Y-107291238D01*
X161670952Y-107386476D01*
X161575714Y-107434095D01*
X162480476Y-107148380D02*
X163099523Y-107148380D01*
X162766190Y-107529333D01*
X162909047Y-107529333D01*
X163004285Y-107576952D01*
X163051904Y-107624571D01*
X163099523Y-107719809D01*
X163099523Y-107957904D01*
X163051904Y-108053142D01*
X163004285Y-108100761D01*
X162909047Y-108148380D01*
X162623333Y-108148380D01*
X162528095Y-108100761D01*
X162480476Y-108053142D01*
%TO.C,SW12*%
X206470476Y-44600761D02*
X206613333Y-44648380D01*
X206851428Y-44648380D01*
X206946666Y-44600761D01*
X206994285Y-44553142D01*
X207041904Y-44457904D01*
X207041904Y-44362666D01*
X206994285Y-44267428D01*
X206946666Y-44219809D01*
X206851428Y-44172190D01*
X206660952Y-44124571D01*
X206565714Y-44076952D01*
X206518095Y-44029333D01*
X206470476Y-43934095D01*
X206470476Y-43838857D01*
X206518095Y-43743619D01*
X206565714Y-43696000D01*
X206660952Y-43648380D01*
X206899047Y-43648380D01*
X207041904Y-43696000D01*
X207375238Y-43648380D02*
X207613333Y-44648380D01*
X207803809Y-43934095D01*
X207994285Y-44648380D01*
X208232380Y-43648380D01*
X209137142Y-44648380D02*
X208565714Y-44648380D01*
X208851428Y-44648380D02*
X208851428Y-43648380D01*
X208756190Y-43791238D01*
X208660952Y-43886476D01*
X208565714Y-43934095D01*
X209518095Y-43743619D02*
X209565714Y-43696000D01*
X209660952Y-43648380D01*
X209899047Y-43648380D01*
X209994285Y-43696000D01*
X210041904Y-43743619D01*
X210089523Y-43838857D01*
X210089523Y-43934095D01*
X210041904Y-44076952D01*
X209470476Y-44648380D01*
X210089523Y-44648380D01*
%TO.C,SW11*%
X43910476Y-44600761D02*
X44053333Y-44648380D01*
X44291428Y-44648380D01*
X44386666Y-44600761D01*
X44434285Y-44553142D01*
X44481904Y-44457904D01*
X44481904Y-44362666D01*
X44434285Y-44267428D01*
X44386666Y-44219809D01*
X44291428Y-44172190D01*
X44100952Y-44124571D01*
X44005714Y-44076952D01*
X43958095Y-44029333D01*
X43910476Y-43934095D01*
X43910476Y-43838857D01*
X43958095Y-43743619D01*
X44005714Y-43696000D01*
X44100952Y-43648380D01*
X44339047Y-43648380D01*
X44481904Y-43696000D01*
X44815238Y-43648380D02*
X45053333Y-44648380D01*
X45243809Y-43934095D01*
X45434285Y-44648380D01*
X45672380Y-43648380D01*
X46577142Y-44648380D02*
X46005714Y-44648380D01*
X46291428Y-44648380D02*
X46291428Y-43648380D01*
X46196190Y-43791238D01*
X46100952Y-43886476D01*
X46005714Y-43934095D01*
X47529523Y-44648380D02*
X46958095Y-44648380D01*
X47243809Y-44648380D02*
X47243809Y-43648380D01*
X47148571Y-43791238D01*
X47053333Y-43886476D01*
X46958095Y-43934095D01*
%TO.C,SW10*%
X153130476Y-64920761D02*
X153273333Y-64968380D01*
X153511428Y-64968380D01*
X153606666Y-64920761D01*
X153654285Y-64873142D01*
X153701904Y-64777904D01*
X153701904Y-64682666D01*
X153654285Y-64587428D01*
X153606666Y-64539809D01*
X153511428Y-64492190D01*
X153320952Y-64444571D01*
X153225714Y-64396952D01*
X153178095Y-64349333D01*
X153130476Y-64254095D01*
X153130476Y-64158857D01*
X153178095Y-64063619D01*
X153225714Y-64016000D01*
X153320952Y-63968380D01*
X153559047Y-63968380D01*
X153701904Y-64016000D01*
X154035238Y-63968380D02*
X154273333Y-64968380D01*
X154463809Y-64254095D01*
X154654285Y-64968380D01*
X154892380Y-63968380D01*
X155797142Y-64968380D02*
X155225714Y-64968380D01*
X155511428Y-64968380D02*
X155511428Y-63968380D01*
X155416190Y-64111238D01*
X155320952Y-64206476D01*
X155225714Y-64254095D01*
X156416190Y-63968380D02*
X156511428Y-63968380D01*
X156606666Y-64016000D01*
X156654285Y-64063619D01*
X156701904Y-64158857D01*
X156749523Y-64349333D01*
X156749523Y-64587428D01*
X156701904Y-64777904D01*
X156654285Y-64873142D01*
X156606666Y-64920761D01*
X156511428Y-64968380D01*
X156416190Y-64968380D01*
X156320952Y-64920761D01*
X156273333Y-64873142D01*
X156225714Y-64777904D01*
X156178095Y-64587428D01*
X156178095Y-64349333D01*
X156225714Y-64158857D01*
X156273333Y-64063619D01*
X156320952Y-64016000D01*
X156416190Y-63968380D01*
%TO.C,SW9*%
X52006666Y-64920761D02*
X52149523Y-64968380D01*
X52387619Y-64968380D01*
X52482857Y-64920761D01*
X52530476Y-64873142D01*
X52578095Y-64777904D01*
X52578095Y-64682666D01*
X52530476Y-64587428D01*
X52482857Y-64539809D01*
X52387619Y-64492190D01*
X52197142Y-64444571D01*
X52101904Y-64396952D01*
X52054285Y-64349333D01*
X52006666Y-64254095D01*
X52006666Y-64158857D01*
X52054285Y-64063619D01*
X52101904Y-64016000D01*
X52197142Y-63968380D01*
X52435238Y-63968380D01*
X52578095Y-64016000D01*
X52911428Y-63968380D02*
X53149523Y-64968380D01*
X53340000Y-64254095D01*
X53530476Y-64968380D01*
X53768571Y-63968380D01*
X54197142Y-64968380D02*
X54387619Y-64968380D01*
X54482857Y-64920761D01*
X54530476Y-64873142D01*
X54625714Y-64730285D01*
X54673333Y-64539809D01*
X54673333Y-64158857D01*
X54625714Y-64063619D01*
X54578095Y-64016000D01*
X54482857Y-63968380D01*
X54292380Y-63968380D01*
X54197142Y-64016000D01*
X54149523Y-64063619D01*
X54101904Y-64158857D01*
X54101904Y-64396952D01*
X54149523Y-64492190D01*
X54197142Y-64539809D01*
X54292380Y-64587428D01*
X54482857Y-64587428D01*
X54578095Y-64539809D01*
X54625714Y-64492190D01*
X54673333Y-64396952D01*
%TO.C,SW8*%
X194246666Y-64920761D02*
X194389523Y-64968380D01*
X194627619Y-64968380D01*
X194722857Y-64920761D01*
X194770476Y-64873142D01*
X194818095Y-64777904D01*
X194818095Y-64682666D01*
X194770476Y-64587428D01*
X194722857Y-64539809D01*
X194627619Y-64492190D01*
X194437142Y-64444571D01*
X194341904Y-64396952D01*
X194294285Y-64349333D01*
X194246666Y-64254095D01*
X194246666Y-64158857D01*
X194294285Y-64063619D01*
X194341904Y-64016000D01*
X194437142Y-63968380D01*
X194675238Y-63968380D01*
X194818095Y-64016000D01*
X195151428Y-63968380D02*
X195389523Y-64968380D01*
X195580000Y-64254095D01*
X195770476Y-64968380D01*
X196008571Y-63968380D01*
X196532380Y-64396952D02*
X196437142Y-64349333D01*
X196389523Y-64301714D01*
X196341904Y-64206476D01*
X196341904Y-64158857D01*
X196389523Y-64063619D01*
X196437142Y-64016000D01*
X196532380Y-63968380D01*
X196722857Y-63968380D01*
X196818095Y-64016000D01*
X196865714Y-64063619D01*
X196913333Y-64158857D01*
X196913333Y-64206476D01*
X196865714Y-64301714D01*
X196818095Y-64349333D01*
X196722857Y-64396952D01*
X196532380Y-64396952D01*
X196437142Y-64444571D01*
X196389523Y-64492190D01*
X196341904Y-64587428D01*
X196341904Y-64777904D01*
X196389523Y-64873142D01*
X196437142Y-64920761D01*
X196532380Y-64968380D01*
X196722857Y-64968380D01*
X196818095Y-64920761D01*
X196865714Y-64873142D01*
X196913333Y-64777904D01*
X196913333Y-64587428D01*
X196865714Y-64492190D01*
X196818095Y-64444571D01*
X196722857Y-64396952D01*
%TO.C,SW7*%
X63436666Y-86510761D02*
X63579523Y-86558380D01*
X63817619Y-86558380D01*
X63912857Y-86510761D01*
X63960476Y-86463142D01*
X64008095Y-86367904D01*
X64008095Y-86272666D01*
X63960476Y-86177428D01*
X63912857Y-86129809D01*
X63817619Y-86082190D01*
X63627142Y-86034571D01*
X63531904Y-85986952D01*
X63484285Y-85939333D01*
X63436666Y-85844095D01*
X63436666Y-85748857D01*
X63484285Y-85653619D01*
X63531904Y-85606000D01*
X63627142Y-85558380D01*
X63865238Y-85558380D01*
X64008095Y-85606000D01*
X64341428Y-85558380D02*
X64579523Y-86558380D01*
X64770000Y-85844095D01*
X64960476Y-86558380D01*
X65198571Y-85558380D01*
X65484285Y-85558380D02*
X66150952Y-85558380D01*
X65722380Y-86558380D01*
%TO.C,SW6*%
X186626666Y-44600761D02*
X186769523Y-44648380D01*
X187007619Y-44648380D01*
X187102857Y-44600761D01*
X187150476Y-44553142D01*
X187198095Y-44457904D01*
X187198095Y-44362666D01*
X187150476Y-44267428D01*
X187102857Y-44219809D01*
X187007619Y-44172190D01*
X186817142Y-44124571D01*
X186721904Y-44076952D01*
X186674285Y-44029333D01*
X186626666Y-43934095D01*
X186626666Y-43838857D01*
X186674285Y-43743619D01*
X186721904Y-43696000D01*
X186817142Y-43648380D01*
X187055238Y-43648380D01*
X187198095Y-43696000D01*
X187531428Y-43648380D02*
X187769523Y-44648380D01*
X187960000Y-43934095D01*
X188150476Y-44648380D01*
X188388571Y-43648380D01*
X189198095Y-43648380D02*
X189007619Y-43648380D01*
X188912380Y-43696000D01*
X188864761Y-43743619D01*
X188769523Y-43886476D01*
X188721904Y-44076952D01*
X188721904Y-44457904D01*
X188769523Y-44553142D01*
X188817142Y-44600761D01*
X188912380Y-44648380D01*
X189102857Y-44648380D01*
X189198095Y-44600761D01*
X189245714Y-44553142D01*
X189293333Y-44457904D01*
X189293333Y-44219809D01*
X189245714Y-44124571D01*
X189198095Y-44076952D01*
X189102857Y-44029333D01*
X188912380Y-44029333D01*
X188817142Y-44076952D01*
X188769523Y-44124571D01*
X188721904Y-44219809D01*
%TO.C,SW5*%
X227266666Y-44600761D02*
X227409523Y-44648380D01*
X227647619Y-44648380D01*
X227742857Y-44600761D01*
X227790476Y-44553142D01*
X227838095Y-44457904D01*
X227838095Y-44362666D01*
X227790476Y-44267428D01*
X227742857Y-44219809D01*
X227647619Y-44172190D01*
X227457142Y-44124571D01*
X227361904Y-44076952D01*
X227314285Y-44029333D01*
X227266666Y-43934095D01*
X227266666Y-43838857D01*
X227314285Y-43743619D01*
X227361904Y-43696000D01*
X227457142Y-43648380D01*
X227695238Y-43648380D01*
X227838095Y-43696000D01*
X228171428Y-43648380D02*
X228409523Y-44648380D01*
X228600000Y-43934095D01*
X228790476Y-44648380D01*
X229028571Y-43648380D01*
X229885714Y-43648380D02*
X229409523Y-43648380D01*
X229361904Y-44124571D01*
X229409523Y-44076952D01*
X229504761Y-44029333D01*
X229742857Y-44029333D01*
X229838095Y-44076952D01*
X229885714Y-44124571D01*
X229933333Y-44219809D01*
X229933333Y-44457904D01*
X229885714Y-44553142D01*
X229838095Y-44600761D01*
X229742857Y-44648380D01*
X229504761Y-44648380D01*
X229409523Y-44600761D01*
X229361904Y-44553142D01*
%TO.C,SW4*%
X98996666Y-108100761D02*
X99139523Y-108148380D01*
X99377619Y-108148380D01*
X99472857Y-108100761D01*
X99520476Y-108053142D01*
X99568095Y-107957904D01*
X99568095Y-107862666D01*
X99520476Y-107767428D01*
X99472857Y-107719809D01*
X99377619Y-107672190D01*
X99187142Y-107624571D01*
X99091904Y-107576952D01*
X99044285Y-107529333D01*
X98996666Y-107434095D01*
X98996666Y-107338857D01*
X99044285Y-107243619D01*
X99091904Y-107196000D01*
X99187142Y-107148380D01*
X99425238Y-107148380D01*
X99568095Y-107196000D01*
X99901428Y-107148380D02*
X100139523Y-108148380D01*
X100330000Y-107434095D01*
X100520476Y-108148380D01*
X100758571Y-107148380D01*
X101568095Y-107481714D02*
X101568095Y-108148380D01*
X101330000Y-107100761D02*
X101091904Y-107815047D01*
X101710952Y-107815047D01*
%TO.C,SW3*%
X234886666Y-64920761D02*
X235029523Y-64968380D01*
X235267619Y-64968380D01*
X235362857Y-64920761D01*
X235410476Y-64873142D01*
X235458095Y-64777904D01*
X235458095Y-64682666D01*
X235410476Y-64587428D01*
X235362857Y-64539809D01*
X235267619Y-64492190D01*
X235077142Y-64444571D01*
X234981904Y-64396952D01*
X234934285Y-64349333D01*
X234886666Y-64254095D01*
X234886666Y-64158857D01*
X234934285Y-64063619D01*
X234981904Y-64016000D01*
X235077142Y-63968380D01*
X235315238Y-63968380D01*
X235458095Y-64016000D01*
X235791428Y-63968380D02*
X236029523Y-64968380D01*
X236220000Y-64254095D01*
X236410476Y-64968380D01*
X236648571Y-63968380D01*
X236934285Y-63968380D02*
X237553333Y-63968380D01*
X237220000Y-64349333D01*
X237362857Y-64349333D01*
X237458095Y-64396952D01*
X237505714Y-64444571D01*
X237553333Y-64539809D01*
X237553333Y-64777904D01*
X237505714Y-64873142D01*
X237458095Y-64920761D01*
X237362857Y-64968380D01*
X237077142Y-64968380D01*
X236981904Y-64920761D01*
X236934285Y-64873142D01*
%TO.C,SW2*%
X165036666Y-86510761D02*
X165179523Y-86558380D01*
X165417619Y-86558380D01*
X165512857Y-86510761D01*
X165560476Y-86463142D01*
X165608095Y-86367904D01*
X165608095Y-86272666D01*
X165560476Y-86177428D01*
X165512857Y-86129809D01*
X165417619Y-86082190D01*
X165227142Y-86034571D01*
X165131904Y-85986952D01*
X165084285Y-85939333D01*
X165036666Y-85844095D01*
X165036666Y-85748857D01*
X165084285Y-85653619D01*
X165131904Y-85606000D01*
X165227142Y-85558380D01*
X165465238Y-85558380D01*
X165608095Y-85606000D01*
X165941428Y-85558380D02*
X166179523Y-86558380D01*
X166370000Y-85844095D01*
X166560476Y-86558380D01*
X166798571Y-85558380D01*
X167131904Y-85653619D02*
X167179523Y-85606000D01*
X167274761Y-85558380D01*
X167512857Y-85558380D01*
X167608095Y-85606000D01*
X167655714Y-85653619D01*
X167703333Y-85748857D01*
X167703333Y-85844095D01*
X167655714Y-85986952D01*
X167084285Y-86558380D01*
X167703333Y-86558380D01*
%TO.C,SW1*%
X148526666Y-130960761D02*
X148669523Y-131008380D01*
X148907619Y-131008380D01*
X149002857Y-130960761D01*
X149050476Y-130913142D01*
X149098095Y-130817904D01*
X149098095Y-130722666D01*
X149050476Y-130627428D01*
X149002857Y-130579809D01*
X148907619Y-130532190D01*
X148717142Y-130484571D01*
X148621904Y-130436952D01*
X148574285Y-130389333D01*
X148526666Y-130294095D01*
X148526666Y-130198857D01*
X148574285Y-130103619D01*
X148621904Y-130056000D01*
X148717142Y-130008380D01*
X148955238Y-130008380D01*
X149098095Y-130056000D01*
X149431428Y-130008380D02*
X149669523Y-131008380D01*
X149860000Y-130294095D01*
X150050476Y-131008380D01*
X150288571Y-130008380D01*
X151193333Y-131008380D02*
X150621904Y-131008380D01*
X150907619Y-131008380D02*
X150907619Y-130008380D01*
X150812380Y-130151238D01*
X150717142Y-130246476D01*
X150621904Y-130294095D01*
%TO.C,JP1*%
X283646666Y-492380D02*
X283646666Y-1206666D01*
X283599047Y-1349523D01*
X283503809Y-1444761D01*
X283360952Y-1492380D01*
X283265714Y-1492380D01*
X284122857Y-1492380D02*
X284122857Y-492380D01*
X284503809Y-492380D01*
X284599047Y-540000D01*
X284646666Y-587619D01*
X284694285Y-682857D01*
X284694285Y-825714D01*
X284646666Y-920952D01*
X284599047Y-968571D01*
X284503809Y-1016190D01*
X284122857Y-1016190D01*
X285646666Y-1492380D02*
X285075238Y-1492380D01*
X285360952Y-1492380D02*
X285360952Y-492380D01*
X285265714Y-635238D01*
X285170476Y-730476D01*
X285075238Y-778095D01*
%TO.C,D20*%
X66095714Y-11032380D02*
X66095714Y-10032380D01*
X66333809Y-10032380D01*
X66476666Y-10080000D01*
X66571904Y-10175238D01*
X66619523Y-10270476D01*
X66667142Y-10460952D01*
X66667142Y-10603809D01*
X66619523Y-10794285D01*
X66571904Y-10889523D01*
X66476666Y-10984761D01*
X66333809Y-11032380D01*
X66095714Y-11032380D01*
X67048095Y-10127619D02*
X67095714Y-10080000D01*
X67190952Y-10032380D01*
X67429047Y-10032380D01*
X67524285Y-10080000D01*
X67571904Y-10127619D01*
X67619523Y-10222857D01*
X67619523Y-10318095D01*
X67571904Y-10460952D01*
X67000476Y-11032380D01*
X67619523Y-11032380D01*
X68238571Y-10032380D02*
X68333809Y-10032380D01*
X68429047Y-10080000D01*
X68476666Y-10127619D01*
X68524285Y-10222857D01*
X68571904Y-10413333D01*
X68571904Y-10651428D01*
X68524285Y-10841904D01*
X68476666Y-10937142D01*
X68429047Y-10984761D01*
X68333809Y-11032380D01*
X68238571Y-11032380D01*
X68143333Y-10984761D01*
X68095714Y-10937142D01*
X68048095Y-10841904D01*
X68000476Y-10651428D01*
X68000476Y-10413333D01*
X68048095Y-10222857D01*
X68095714Y-10127619D01*
X68143333Y-10080000D01*
X68238571Y-10032380D01*
X63238095Y-11352380D02*
X63238095Y-10352380D01*
X63809523Y-11352380D02*
X63380952Y-10780952D01*
X63809523Y-10352380D02*
X63238095Y-10923809D01*
%TO.C,D19*%
X66095714Y-19922380D02*
X66095714Y-18922380D01*
X66333809Y-18922380D01*
X66476666Y-18970000D01*
X66571904Y-19065238D01*
X66619523Y-19160476D01*
X66667142Y-19350952D01*
X66667142Y-19493809D01*
X66619523Y-19684285D01*
X66571904Y-19779523D01*
X66476666Y-19874761D01*
X66333809Y-19922380D01*
X66095714Y-19922380D01*
X67619523Y-19922380D02*
X67048095Y-19922380D01*
X67333809Y-19922380D02*
X67333809Y-18922380D01*
X67238571Y-19065238D01*
X67143333Y-19160476D01*
X67048095Y-19208095D01*
X68095714Y-19922380D02*
X68286190Y-19922380D01*
X68381428Y-19874761D01*
X68429047Y-19827142D01*
X68524285Y-19684285D01*
X68571904Y-19493809D01*
X68571904Y-19112857D01*
X68524285Y-19017619D01*
X68476666Y-18970000D01*
X68381428Y-18922380D01*
X68190952Y-18922380D01*
X68095714Y-18970000D01*
X68048095Y-19017619D01*
X68000476Y-19112857D01*
X68000476Y-19350952D01*
X68048095Y-19446190D01*
X68095714Y-19493809D01*
X68190952Y-19541428D01*
X68381428Y-19541428D01*
X68476666Y-19493809D01*
X68524285Y-19446190D01*
X68571904Y-19350952D01*
X63238095Y-20242380D02*
X63238095Y-19242380D01*
X63809523Y-20242380D02*
X63380952Y-19670952D01*
X63809523Y-19242380D02*
X63238095Y-19813809D01*
%TO.C,D18*%
X66095714Y-27542380D02*
X66095714Y-26542380D01*
X66333809Y-26542380D01*
X66476666Y-26590000D01*
X66571904Y-26685238D01*
X66619523Y-26780476D01*
X66667142Y-26970952D01*
X66667142Y-27113809D01*
X66619523Y-27304285D01*
X66571904Y-27399523D01*
X66476666Y-27494761D01*
X66333809Y-27542380D01*
X66095714Y-27542380D01*
X67619523Y-27542380D02*
X67048095Y-27542380D01*
X67333809Y-27542380D02*
X67333809Y-26542380D01*
X67238571Y-26685238D01*
X67143333Y-26780476D01*
X67048095Y-26828095D01*
X68190952Y-26970952D02*
X68095714Y-26923333D01*
X68048095Y-26875714D01*
X68000476Y-26780476D01*
X68000476Y-26732857D01*
X68048095Y-26637619D01*
X68095714Y-26590000D01*
X68190952Y-26542380D01*
X68381428Y-26542380D01*
X68476666Y-26590000D01*
X68524285Y-26637619D01*
X68571904Y-26732857D01*
X68571904Y-26780476D01*
X68524285Y-26875714D01*
X68476666Y-26923333D01*
X68381428Y-26970952D01*
X68190952Y-26970952D01*
X68095714Y-27018571D01*
X68048095Y-27066190D01*
X68000476Y-27161428D01*
X68000476Y-27351904D01*
X68048095Y-27447142D01*
X68095714Y-27494761D01*
X68190952Y-27542380D01*
X68381428Y-27542380D01*
X68476666Y-27494761D01*
X68524285Y-27447142D01*
X68571904Y-27351904D01*
X68571904Y-27161428D01*
X68524285Y-27066190D01*
X68476666Y-27018571D01*
X68381428Y-26970952D01*
X63238095Y-27862380D02*
X63238095Y-26862380D01*
X63809523Y-27862380D02*
X63380952Y-27290952D01*
X63809523Y-26862380D02*
X63238095Y-27433809D01*
%TO.C,D17*%
X66095714Y-35162380D02*
X66095714Y-34162380D01*
X66333809Y-34162380D01*
X66476666Y-34210000D01*
X66571904Y-34305238D01*
X66619523Y-34400476D01*
X66667142Y-34590952D01*
X66667142Y-34733809D01*
X66619523Y-34924285D01*
X66571904Y-35019523D01*
X66476666Y-35114761D01*
X66333809Y-35162380D01*
X66095714Y-35162380D01*
X67619523Y-35162380D02*
X67048095Y-35162380D01*
X67333809Y-35162380D02*
X67333809Y-34162380D01*
X67238571Y-34305238D01*
X67143333Y-34400476D01*
X67048095Y-34448095D01*
X67952857Y-34162380D02*
X68619523Y-34162380D01*
X68190952Y-35162380D01*
X63238095Y-35482380D02*
X63238095Y-34482380D01*
X63809523Y-35482380D02*
X63380952Y-34910952D01*
X63809523Y-34482380D02*
X63238095Y-35053809D01*
%TO.C,D16*%
X45775714Y-3412380D02*
X45775714Y-2412380D01*
X46013809Y-2412380D01*
X46156666Y-2460000D01*
X46251904Y-2555238D01*
X46299523Y-2650476D01*
X46347142Y-2840952D01*
X46347142Y-2983809D01*
X46299523Y-3174285D01*
X46251904Y-3269523D01*
X46156666Y-3364761D01*
X46013809Y-3412380D01*
X45775714Y-3412380D01*
X47299523Y-3412380D02*
X46728095Y-3412380D01*
X47013809Y-3412380D02*
X47013809Y-2412380D01*
X46918571Y-2555238D01*
X46823333Y-2650476D01*
X46728095Y-2698095D01*
X48156666Y-2412380D02*
X47966190Y-2412380D01*
X47870952Y-2460000D01*
X47823333Y-2507619D01*
X47728095Y-2650476D01*
X47680476Y-2840952D01*
X47680476Y-3221904D01*
X47728095Y-3317142D01*
X47775714Y-3364761D01*
X47870952Y-3412380D01*
X48061428Y-3412380D01*
X48156666Y-3364761D01*
X48204285Y-3317142D01*
X48251904Y-3221904D01*
X48251904Y-2983809D01*
X48204285Y-2888571D01*
X48156666Y-2840952D01*
X48061428Y-2793333D01*
X47870952Y-2793333D01*
X47775714Y-2840952D01*
X47728095Y-2888571D01*
X47680476Y-2983809D01*
X42918095Y-3732380D02*
X42918095Y-2732380D01*
X43489523Y-3732380D02*
X43060952Y-3160952D01*
X43489523Y-2732380D02*
X42918095Y-3303809D01*
%TO.C,D15*%
X45775714Y-11032380D02*
X45775714Y-10032380D01*
X46013809Y-10032380D01*
X46156666Y-10080000D01*
X46251904Y-10175238D01*
X46299523Y-10270476D01*
X46347142Y-10460952D01*
X46347142Y-10603809D01*
X46299523Y-10794285D01*
X46251904Y-10889523D01*
X46156666Y-10984761D01*
X46013809Y-11032380D01*
X45775714Y-11032380D01*
X47299523Y-11032380D02*
X46728095Y-11032380D01*
X47013809Y-11032380D02*
X47013809Y-10032380D01*
X46918571Y-10175238D01*
X46823333Y-10270476D01*
X46728095Y-10318095D01*
X48204285Y-10032380D02*
X47728095Y-10032380D01*
X47680476Y-10508571D01*
X47728095Y-10460952D01*
X47823333Y-10413333D01*
X48061428Y-10413333D01*
X48156666Y-10460952D01*
X48204285Y-10508571D01*
X48251904Y-10603809D01*
X48251904Y-10841904D01*
X48204285Y-10937142D01*
X48156666Y-10984761D01*
X48061428Y-11032380D01*
X47823333Y-11032380D01*
X47728095Y-10984761D01*
X47680476Y-10937142D01*
X42918095Y-11352380D02*
X42918095Y-10352380D01*
X43489523Y-11352380D02*
X43060952Y-10780952D01*
X43489523Y-10352380D02*
X42918095Y-10923809D01*
%TO.C,D14*%
X45775714Y-19922380D02*
X45775714Y-18922380D01*
X46013809Y-18922380D01*
X46156666Y-18970000D01*
X46251904Y-19065238D01*
X46299523Y-19160476D01*
X46347142Y-19350952D01*
X46347142Y-19493809D01*
X46299523Y-19684285D01*
X46251904Y-19779523D01*
X46156666Y-19874761D01*
X46013809Y-19922380D01*
X45775714Y-19922380D01*
X47299523Y-19922380D02*
X46728095Y-19922380D01*
X47013809Y-19922380D02*
X47013809Y-18922380D01*
X46918571Y-19065238D01*
X46823333Y-19160476D01*
X46728095Y-19208095D01*
X48156666Y-19255714D02*
X48156666Y-19922380D01*
X47918571Y-18874761D02*
X47680476Y-19589047D01*
X48299523Y-19589047D01*
X42918095Y-20242380D02*
X42918095Y-19242380D01*
X43489523Y-20242380D02*
X43060952Y-19670952D01*
X43489523Y-19242380D02*
X42918095Y-19813809D01*
%TO.C,D13*%
X45775714Y-27542380D02*
X45775714Y-26542380D01*
X46013809Y-26542380D01*
X46156666Y-26590000D01*
X46251904Y-26685238D01*
X46299523Y-26780476D01*
X46347142Y-26970952D01*
X46347142Y-27113809D01*
X46299523Y-27304285D01*
X46251904Y-27399523D01*
X46156666Y-27494761D01*
X46013809Y-27542380D01*
X45775714Y-27542380D01*
X47299523Y-27542380D02*
X46728095Y-27542380D01*
X47013809Y-27542380D02*
X47013809Y-26542380D01*
X46918571Y-26685238D01*
X46823333Y-26780476D01*
X46728095Y-26828095D01*
X47632857Y-26542380D02*
X48251904Y-26542380D01*
X47918571Y-26923333D01*
X48061428Y-26923333D01*
X48156666Y-26970952D01*
X48204285Y-27018571D01*
X48251904Y-27113809D01*
X48251904Y-27351904D01*
X48204285Y-27447142D01*
X48156666Y-27494761D01*
X48061428Y-27542380D01*
X47775714Y-27542380D01*
X47680476Y-27494761D01*
X47632857Y-27447142D01*
X42918095Y-27862380D02*
X42918095Y-26862380D01*
X43489523Y-27862380D02*
X43060952Y-27290952D01*
X43489523Y-26862380D02*
X42918095Y-27433809D01*
%TO.C,D12*%
X45775714Y-35162380D02*
X45775714Y-34162380D01*
X46013809Y-34162380D01*
X46156666Y-34210000D01*
X46251904Y-34305238D01*
X46299523Y-34400476D01*
X46347142Y-34590952D01*
X46347142Y-34733809D01*
X46299523Y-34924285D01*
X46251904Y-35019523D01*
X46156666Y-35114761D01*
X46013809Y-35162380D01*
X45775714Y-35162380D01*
X47299523Y-35162380D02*
X46728095Y-35162380D01*
X47013809Y-35162380D02*
X47013809Y-34162380D01*
X46918571Y-34305238D01*
X46823333Y-34400476D01*
X46728095Y-34448095D01*
X47680476Y-34257619D02*
X47728095Y-34210000D01*
X47823333Y-34162380D01*
X48061428Y-34162380D01*
X48156666Y-34210000D01*
X48204285Y-34257619D01*
X48251904Y-34352857D01*
X48251904Y-34448095D01*
X48204285Y-34590952D01*
X47632857Y-35162380D01*
X48251904Y-35162380D01*
X42918095Y-35482380D02*
X42918095Y-34482380D01*
X43489523Y-35482380D02*
X43060952Y-34910952D01*
X43489523Y-34482380D02*
X42918095Y-35053809D01*
%TO.C,D11*%
X25455714Y-11032380D02*
X25455714Y-10032380D01*
X25693809Y-10032380D01*
X25836666Y-10080000D01*
X25931904Y-10175238D01*
X25979523Y-10270476D01*
X26027142Y-10460952D01*
X26027142Y-10603809D01*
X25979523Y-10794285D01*
X25931904Y-10889523D01*
X25836666Y-10984761D01*
X25693809Y-11032380D01*
X25455714Y-11032380D01*
X26979523Y-11032380D02*
X26408095Y-11032380D01*
X26693809Y-11032380D02*
X26693809Y-10032380D01*
X26598571Y-10175238D01*
X26503333Y-10270476D01*
X26408095Y-10318095D01*
X27931904Y-11032380D02*
X27360476Y-11032380D01*
X27646190Y-11032380D02*
X27646190Y-10032380D01*
X27550952Y-10175238D01*
X27455714Y-10270476D01*
X27360476Y-10318095D01*
X22598095Y-11352380D02*
X22598095Y-10352380D01*
X23169523Y-11352380D02*
X22740952Y-10780952D01*
X23169523Y-10352380D02*
X22598095Y-10923809D01*
%TO.C,D10*%
X25455714Y-18652380D02*
X25455714Y-17652380D01*
X25693809Y-17652380D01*
X25836666Y-17700000D01*
X25931904Y-17795238D01*
X25979523Y-17890476D01*
X26027142Y-18080952D01*
X26027142Y-18223809D01*
X25979523Y-18414285D01*
X25931904Y-18509523D01*
X25836666Y-18604761D01*
X25693809Y-18652380D01*
X25455714Y-18652380D01*
X26979523Y-18652380D02*
X26408095Y-18652380D01*
X26693809Y-18652380D02*
X26693809Y-17652380D01*
X26598571Y-17795238D01*
X26503333Y-17890476D01*
X26408095Y-17938095D01*
X27598571Y-17652380D02*
X27693809Y-17652380D01*
X27789047Y-17700000D01*
X27836666Y-17747619D01*
X27884285Y-17842857D01*
X27931904Y-18033333D01*
X27931904Y-18271428D01*
X27884285Y-18461904D01*
X27836666Y-18557142D01*
X27789047Y-18604761D01*
X27693809Y-18652380D01*
X27598571Y-18652380D01*
X27503333Y-18604761D01*
X27455714Y-18557142D01*
X27408095Y-18461904D01*
X27360476Y-18271428D01*
X27360476Y-18033333D01*
X27408095Y-17842857D01*
X27455714Y-17747619D01*
X27503333Y-17700000D01*
X27598571Y-17652380D01*
X22598095Y-18972380D02*
X22598095Y-17972380D01*
X23169523Y-18972380D02*
X22740952Y-18400952D01*
X23169523Y-17972380D02*
X22598095Y-18543809D01*
%TO.C,D9*%
X25931904Y-27542380D02*
X25931904Y-26542380D01*
X26170000Y-26542380D01*
X26312857Y-26590000D01*
X26408095Y-26685238D01*
X26455714Y-26780476D01*
X26503333Y-26970952D01*
X26503333Y-27113809D01*
X26455714Y-27304285D01*
X26408095Y-27399523D01*
X26312857Y-27494761D01*
X26170000Y-27542380D01*
X25931904Y-27542380D01*
X26979523Y-27542380D02*
X27170000Y-27542380D01*
X27265238Y-27494761D01*
X27312857Y-27447142D01*
X27408095Y-27304285D01*
X27455714Y-27113809D01*
X27455714Y-26732857D01*
X27408095Y-26637619D01*
X27360476Y-26590000D01*
X27265238Y-26542380D01*
X27074761Y-26542380D01*
X26979523Y-26590000D01*
X26931904Y-26637619D01*
X26884285Y-26732857D01*
X26884285Y-26970952D01*
X26931904Y-27066190D01*
X26979523Y-27113809D01*
X27074761Y-27161428D01*
X27265238Y-27161428D01*
X27360476Y-27113809D01*
X27408095Y-27066190D01*
X27455714Y-26970952D01*
X22598095Y-27862380D02*
X22598095Y-26862380D01*
X23169523Y-27862380D02*
X22740952Y-27290952D01*
X23169523Y-26862380D02*
X22598095Y-27433809D01*
%TO.C,D8*%
X25931904Y-35162380D02*
X25931904Y-34162380D01*
X26170000Y-34162380D01*
X26312857Y-34210000D01*
X26408095Y-34305238D01*
X26455714Y-34400476D01*
X26503333Y-34590952D01*
X26503333Y-34733809D01*
X26455714Y-34924285D01*
X26408095Y-35019523D01*
X26312857Y-35114761D01*
X26170000Y-35162380D01*
X25931904Y-35162380D01*
X27074761Y-34590952D02*
X26979523Y-34543333D01*
X26931904Y-34495714D01*
X26884285Y-34400476D01*
X26884285Y-34352857D01*
X26931904Y-34257619D01*
X26979523Y-34210000D01*
X27074761Y-34162380D01*
X27265238Y-34162380D01*
X27360476Y-34210000D01*
X27408095Y-34257619D01*
X27455714Y-34352857D01*
X27455714Y-34400476D01*
X27408095Y-34495714D01*
X27360476Y-34543333D01*
X27265238Y-34590952D01*
X27074761Y-34590952D01*
X26979523Y-34638571D01*
X26931904Y-34686190D01*
X26884285Y-34781428D01*
X26884285Y-34971904D01*
X26931904Y-35067142D01*
X26979523Y-35114761D01*
X27074761Y-35162380D01*
X27265238Y-35162380D01*
X27360476Y-35114761D01*
X27408095Y-35067142D01*
X27455714Y-34971904D01*
X27455714Y-34781428D01*
X27408095Y-34686190D01*
X27360476Y-34638571D01*
X27265238Y-34590952D01*
X22598095Y-35482380D02*
X22598095Y-34482380D01*
X23169523Y-35482380D02*
X22740952Y-34910952D01*
X23169523Y-34482380D02*
X22598095Y-35053809D01*
%TO.C,D7*%
X6881904Y-3412380D02*
X6881904Y-2412380D01*
X7120000Y-2412380D01*
X7262857Y-2460000D01*
X7358095Y-2555238D01*
X7405714Y-2650476D01*
X7453333Y-2840952D01*
X7453333Y-2983809D01*
X7405714Y-3174285D01*
X7358095Y-3269523D01*
X7262857Y-3364761D01*
X7120000Y-3412380D01*
X6881904Y-3412380D01*
X7786666Y-2412380D02*
X8453333Y-2412380D01*
X8024761Y-3412380D01*
X3548095Y-3732380D02*
X3548095Y-2732380D01*
X4119523Y-3732380D02*
X3690952Y-3160952D01*
X4119523Y-2732380D02*
X3548095Y-3303809D01*
%TO.C,D6*%
X6881904Y-11032380D02*
X6881904Y-10032380D01*
X7120000Y-10032380D01*
X7262857Y-10080000D01*
X7358095Y-10175238D01*
X7405714Y-10270476D01*
X7453333Y-10460952D01*
X7453333Y-10603809D01*
X7405714Y-10794285D01*
X7358095Y-10889523D01*
X7262857Y-10984761D01*
X7120000Y-11032380D01*
X6881904Y-11032380D01*
X8310476Y-10032380D02*
X8120000Y-10032380D01*
X8024761Y-10080000D01*
X7977142Y-10127619D01*
X7881904Y-10270476D01*
X7834285Y-10460952D01*
X7834285Y-10841904D01*
X7881904Y-10937142D01*
X7929523Y-10984761D01*
X8024761Y-11032380D01*
X8215238Y-11032380D01*
X8310476Y-10984761D01*
X8358095Y-10937142D01*
X8405714Y-10841904D01*
X8405714Y-10603809D01*
X8358095Y-10508571D01*
X8310476Y-10460952D01*
X8215238Y-10413333D01*
X8024761Y-10413333D01*
X7929523Y-10460952D01*
X7881904Y-10508571D01*
X7834285Y-10603809D01*
X3548095Y-11352380D02*
X3548095Y-10352380D01*
X4119523Y-11352380D02*
X3690952Y-10780952D01*
X4119523Y-10352380D02*
X3548095Y-10923809D01*
%TO.C,D5*%
X6881904Y-19922380D02*
X6881904Y-18922380D01*
X7120000Y-18922380D01*
X7262857Y-18970000D01*
X7358095Y-19065238D01*
X7405714Y-19160476D01*
X7453333Y-19350952D01*
X7453333Y-19493809D01*
X7405714Y-19684285D01*
X7358095Y-19779523D01*
X7262857Y-19874761D01*
X7120000Y-19922380D01*
X6881904Y-19922380D01*
X8358095Y-18922380D02*
X7881904Y-18922380D01*
X7834285Y-19398571D01*
X7881904Y-19350952D01*
X7977142Y-19303333D01*
X8215238Y-19303333D01*
X8310476Y-19350952D01*
X8358095Y-19398571D01*
X8405714Y-19493809D01*
X8405714Y-19731904D01*
X8358095Y-19827142D01*
X8310476Y-19874761D01*
X8215238Y-19922380D01*
X7977142Y-19922380D01*
X7881904Y-19874761D01*
X7834285Y-19827142D01*
X3548095Y-20242380D02*
X3548095Y-19242380D01*
X4119523Y-20242380D02*
X3690952Y-19670952D01*
X4119523Y-19242380D02*
X3548095Y-19813809D01*
%TO.C,D4*%
X6881904Y-27542380D02*
X6881904Y-26542380D01*
X7120000Y-26542380D01*
X7262857Y-26590000D01*
X7358095Y-26685238D01*
X7405714Y-26780476D01*
X7453333Y-26970952D01*
X7453333Y-27113809D01*
X7405714Y-27304285D01*
X7358095Y-27399523D01*
X7262857Y-27494761D01*
X7120000Y-27542380D01*
X6881904Y-27542380D01*
X8310476Y-26875714D02*
X8310476Y-27542380D01*
X8072380Y-26494761D02*
X7834285Y-27209047D01*
X8453333Y-27209047D01*
X3548095Y-27862380D02*
X3548095Y-26862380D01*
X4119523Y-27862380D02*
X3690952Y-27290952D01*
X4119523Y-26862380D02*
X3548095Y-27433809D01*
%TO.C,D3*%
X6881904Y-35162380D02*
X6881904Y-34162380D01*
X7120000Y-34162380D01*
X7262857Y-34210000D01*
X7358095Y-34305238D01*
X7405714Y-34400476D01*
X7453333Y-34590952D01*
X7453333Y-34733809D01*
X7405714Y-34924285D01*
X7358095Y-35019523D01*
X7262857Y-35114761D01*
X7120000Y-35162380D01*
X6881904Y-35162380D01*
X7786666Y-34162380D02*
X8405714Y-34162380D01*
X8072380Y-34543333D01*
X8215238Y-34543333D01*
X8310476Y-34590952D01*
X8358095Y-34638571D01*
X8405714Y-34733809D01*
X8405714Y-34971904D01*
X8358095Y-35067142D01*
X8310476Y-35114761D01*
X8215238Y-35162380D01*
X7929523Y-35162380D01*
X7834285Y-35114761D01*
X7786666Y-35067142D01*
X3548095Y-35482380D02*
X3548095Y-34482380D01*
X4119523Y-35482380D02*
X3690952Y-34910952D01*
X4119523Y-34482380D02*
X3548095Y-35053809D01*
%TO.C,D2*%
X154201904Y-35162380D02*
X154201904Y-34162380D01*
X154440000Y-34162380D01*
X154582857Y-34210000D01*
X154678095Y-34305238D01*
X154725714Y-34400476D01*
X154773333Y-34590952D01*
X154773333Y-34733809D01*
X154725714Y-34924285D01*
X154678095Y-35019523D01*
X154582857Y-35114761D01*
X154440000Y-35162380D01*
X154201904Y-35162380D01*
X155154285Y-34257619D02*
X155201904Y-34210000D01*
X155297142Y-34162380D01*
X155535238Y-34162380D01*
X155630476Y-34210000D01*
X155678095Y-34257619D01*
X155725714Y-34352857D01*
X155725714Y-34448095D01*
X155678095Y-34590952D01*
X155106666Y-35162380D01*
X155725714Y-35162380D01*
X150868095Y-35482380D02*
X150868095Y-34482380D01*
X151439523Y-35482380D02*
X151010952Y-34910952D01*
X151439523Y-34482380D02*
X150868095Y-35053809D01*
%TO.C,D1*%
X135151904Y-35162380D02*
X135151904Y-34162380D01*
X135390000Y-34162380D01*
X135532857Y-34210000D01*
X135628095Y-34305238D01*
X135675714Y-34400476D01*
X135723333Y-34590952D01*
X135723333Y-34733809D01*
X135675714Y-34924285D01*
X135628095Y-35019523D01*
X135532857Y-35114761D01*
X135390000Y-35162380D01*
X135151904Y-35162380D01*
X136675714Y-35162380D02*
X136104285Y-35162380D01*
X136390000Y-35162380D02*
X136390000Y-34162380D01*
X136294761Y-34305238D01*
X136199523Y-34400476D01*
X136104285Y-34448095D01*
X131818095Y-35482380D02*
X131818095Y-34482380D01*
X132389523Y-35482380D02*
X131960952Y-34910952D01*
X132389523Y-34482380D02*
X131818095Y-35053809D01*
%TO.C,C2*%
X112327142Y-14256666D02*
X112374761Y-14304285D01*
X112422380Y-14447142D01*
X112422380Y-14542380D01*
X112374761Y-14685238D01*
X112279523Y-14780476D01*
X112184285Y-14828095D01*
X111993809Y-14875714D01*
X111850952Y-14875714D01*
X111660476Y-14828095D01*
X111565238Y-14780476D01*
X111470000Y-14685238D01*
X111422380Y-14542380D01*
X111422380Y-14447142D01*
X111470000Y-14304285D01*
X111517619Y-14256666D01*
X111517619Y-13875714D02*
X111470000Y-13828095D01*
X111422380Y-13732857D01*
X111422380Y-13494761D01*
X111470000Y-13399523D01*
X111517619Y-13351904D01*
X111612857Y-13304285D01*
X111708095Y-13304285D01*
X111850952Y-13351904D01*
X112422380Y-13923333D01*
X112422380Y-13304285D01*
%TO.C,C1*%
X312233333Y-25997142D02*
X312185714Y-26044761D01*
X312042857Y-26092380D01*
X311947619Y-26092380D01*
X311804761Y-26044761D01*
X311709523Y-25949523D01*
X311661904Y-25854285D01*
X311614285Y-25663809D01*
X311614285Y-25520952D01*
X311661904Y-25330476D01*
X311709523Y-25235238D01*
X311804761Y-25140000D01*
X311947619Y-25092380D01*
X312042857Y-25092380D01*
X312185714Y-25140000D01*
X312233333Y-25187619D01*
X313185714Y-26092380D02*
X312614285Y-26092380D01*
X312900000Y-26092380D02*
X312900000Y-25092380D01*
X312804761Y-25235238D01*
X312709523Y-25330476D01*
X312614285Y-25378095D01*
%TD*%
M02*
