%TF.GenerationSoftware,KiCad,Pcbnew,5.1.6-c6e7f7d~87~ubuntu16.04.1*%
%TF.CreationDate,2020-11-27T00:00:10-05:00*%
%TF.ProjectId,risc_memory_fp,72697363-5f6d-4656-9d6f-72795f66702e,rev?*%
%TF.SameCoordinates,Original*%
%TF.FileFunction,Copper,L2,Bot*%
%TF.FilePolarity,Positive*%
%FSLAX46Y46*%
G04 Gerber Fmt 4.6, Leading zero omitted, Abs format (unit mm)*
G04 Created by KiCad (PCBNEW 5.1.6-c6e7f7d~87~ubuntu16.04.1) date 2020-11-27 00:00:10*
%MOMM*%
%LPD*%
G01*
G04 APERTURE LIST*
%TA.AperFunction,ComponentPad*%
%ADD10C,1.600000*%
%TD*%
%TA.AperFunction,ComponentPad*%
%ADD11O,1.400000X1.400000*%
%TD*%
%TA.AperFunction,ComponentPad*%
%ADD12C,1.400000*%
%TD*%
%TA.AperFunction,ComponentPad*%
%ADD13C,1.800000*%
%TD*%
%TA.AperFunction,ComponentPad*%
%ADD14R,1.800000X1.800000*%
%TD*%
%TA.AperFunction,ComponentPad*%
%ADD15O,1.600000X1.600000*%
%TD*%
%TA.AperFunction,ComponentPad*%
%ADD16R,1.600000X1.600000*%
%TD*%
%TA.AperFunction,ComponentPad*%
%ADD17C,2.200000*%
%TD*%
%TA.AperFunction,ComponentPad*%
%ADD18O,1.700000X1.700000*%
%TD*%
%TA.AperFunction,ComponentPad*%
%ADD19R,1.700000X1.700000*%
%TD*%
%TA.AperFunction,ComponentPad*%
%ADD20C,4.000000*%
%TD*%
%TA.AperFunction,ComponentPad*%
%ADD21C,2.100000*%
%TD*%
%TA.AperFunction,ComponentPad*%
%ADD22R,2.100000X2.100000*%
%TD*%
%TA.AperFunction,ViaPad*%
%ADD23C,0.800000*%
%TD*%
%TA.AperFunction,Conductor*%
%ADD24C,0.250000*%
%TD*%
G04 APERTURE END LIST*
D10*
%TO.P,C13,2*%
%TO.N,GND*%
X22900000Y-21590000D03*
%TO.P,C13,1*%
%TO.N,CLK*%
X25400000Y-21590000D03*
%TD*%
D11*
%TO.P,R9,2*%
%TO.N,GND*%
X27940000Y-3810000D03*
D12*
%TO.P,R9,1*%
%TO.N,Net-(D27-Pad1)*%
X22860000Y-3810000D03*
%TD*%
D11*
%TO.P,R8,2*%
%TO.N,GND*%
X72390000Y-24130000D03*
D12*
%TO.P,R8,1*%
%TO.N,Net-(D26-Pad1)*%
X67310000Y-24130000D03*
%TD*%
D11*
%TO.P,R7,2*%
%TO.N,GND*%
X72390000Y-44450000D03*
D12*
%TO.P,R7,1*%
%TO.N,Net-(D25-Pad1)*%
X67310000Y-44450000D03*
%TD*%
D13*
%TO.P,D27,2*%
%TO.N,CLK*%
X25400000Y-7620000D03*
D14*
%TO.P,D27,1*%
%TO.N,Net-(D27-Pad1)*%
X25400000Y-10160000D03*
%TD*%
D13*
%TO.P,D26,2*%
%TO.N,Net-(D26-Pad2)*%
X69850000Y-48260000D03*
D14*
%TO.P,D26,1*%
%TO.N,Net-(D26-Pad1)*%
X69850000Y-50800000D03*
%TD*%
D13*
%TO.P,D25,2*%
%TO.N,Net-(D25-Pad2)*%
X69850000Y-27940000D03*
D14*
%TO.P,D25,1*%
%TO.N,Net-(D25-Pad1)*%
X69850000Y-30480000D03*
%TD*%
D15*
%TO.P,U10,8*%
%TO.N,+5V*%
X50800000Y-45720000D03*
%TO.P,U10,4*%
X43180000Y-53340000D03*
%TO.P,U10,7*%
%TO.N,Net-(R5-Pad2)*%
X50800000Y-48260000D03*
%TO.P,U10,3*%
%TO.N,Net-(D26-Pad2)*%
X43180000Y-50800000D03*
%TO.P,U10,6*%
%TO.N,Net-(C12-Pad1)*%
X50800000Y-50800000D03*
%TO.P,U10,2*%
X43180000Y-48260000D03*
%TO.P,U10,5*%
%TO.N,Net-(C11-Pad1)*%
X50800000Y-53340000D03*
D16*
%TO.P,U10,1*%
%TO.N,GND*%
X43180000Y-45720000D03*
%TD*%
D15*
%TO.P,U9,8*%
%TO.N,+5V*%
X50800000Y-24130000D03*
%TO.P,U9,4*%
X43180000Y-31750000D03*
%TO.P,U9,7*%
%TO.N,Net-(R3-Pad2)*%
X50800000Y-26670000D03*
%TO.P,U9,3*%
%TO.N,Net-(D25-Pad2)*%
X43180000Y-29210000D03*
%TO.P,U9,6*%
%TO.N,Net-(C9-Pad1)*%
X50800000Y-29210000D03*
%TO.P,U9,2*%
X43180000Y-26670000D03*
%TO.P,U9,5*%
%TO.N,Net-(C10-Pad1)*%
X50800000Y-31750000D03*
D16*
%TO.P,U9,1*%
%TO.N,GND*%
X43180000Y-24130000D03*
%TD*%
D15*
%TO.P,U8,20*%
%TO.N,+5V*%
X163800000Y-49530000D03*
%TO.P,U8,10*%
%TO.N,GND*%
X186660000Y-57150000D03*
%TO.P,U8,19*%
%TO.N,switchtowb*%
X166340000Y-49530000D03*
%TO.P,U8,9*%
%TO.N,Net-(SW24-Pad2)*%
X184120000Y-57150000D03*
%TO.P,U8,18*%
%TO.N,wb0*%
X168880000Y-49530000D03*
%TO.P,U8,8*%
%TO.N,Net-(SW23-Pad2)*%
X181580000Y-57150000D03*
%TO.P,U8,17*%
%TO.N,wb1*%
X171420000Y-49530000D03*
%TO.P,U8,7*%
%TO.N,Net-(SW22-Pad2)*%
X179040000Y-57150000D03*
%TO.P,U8,16*%
%TO.N,wb2*%
X173960000Y-49530000D03*
%TO.P,U8,6*%
%TO.N,Net-(SW21-Pad2)*%
X176500000Y-57150000D03*
%TO.P,U8,15*%
%TO.N,wb3*%
X176500000Y-49530000D03*
%TO.P,U8,5*%
%TO.N,Net-(SW20-Pad2)*%
X173960000Y-57150000D03*
%TO.P,U8,14*%
%TO.N,wb4*%
X179040000Y-49530000D03*
%TO.P,U8,4*%
%TO.N,Net-(SW19-Pad2)*%
X171420000Y-57150000D03*
%TO.P,U8,13*%
%TO.N,wb5*%
X181580000Y-49530000D03*
%TO.P,U8,3*%
%TO.N,Net-(SW18-Pad2)*%
X168880000Y-57150000D03*
%TO.P,U8,12*%
%TO.N,wb6*%
X184120000Y-49530000D03*
%TO.P,U8,2*%
%TO.N,Net-(SW17-Pad2)*%
X166340000Y-57150000D03*
%TO.P,U8,11*%
%TO.N,wb7*%
X186660000Y-49530000D03*
D16*
%TO.P,U8,1*%
%TO.N,+5V*%
X163800000Y-57150000D03*
%TD*%
D15*
%TO.P,U7,20*%
%TO.N,+5V*%
X163800000Y-31750000D03*
%TO.P,U7,10*%
%TO.N,GND*%
X186660000Y-39370000D03*
%TO.P,U7,19*%
%TO.N,fpcontrol*%
X166340000Y-31750000D03*
%TO.P,U7,9*%
%TO.N,Net-(SW8-Pad2)*%
X184120000Y-39370000D03*
%TO.P,U7,18*%
%TO.N,addr0*%
X168880000Y-31750000D03*
%TO.P,U7,8*%
%TO.N,Net-(SW7-Pad2)*%
X181580000Y-39370000D03*
%TO.P,U7,17*%
%TO.N,addr1*%
X171420000Y-31750000D03*
%TO.P,U7,7*%
%TO.N,Net-(SW6-Pad2)*%
X179040000Y-39370000D03*
%TO.P,U7,16*%
%TO.N,addr2*%
X173960000Y-31750000D03*
%TO.P,U7,6*%
%TO.N,Net-(SW5-Pad2)*%
X176500000Y-39370000D03*
%TO.P,U7,15*%
%TO.N,addr3*%
X176500000Y-31750000D03*
%TO.P,U7,5*%
%TO.N,Net-(SW4-Pad2)*%
X173960000Y-39370000D03*
%TO.P,U7,14*%
%TO.N,addr4*%
X179040000Y-31750000D03*
%TO.P,U7,4*%
%TO.N,Net-(SW3-Pad2)*%
X171420000Y-39370000D03*
%TO.P,U7,13*%
%TO.N,addr5*%
X181580000Y-31750000D03*
%TO.P,U7,3*%
%TO.N,Net-(SW2-Pad2)*%
X168880000Y-39370000D03*
%TO.P,U7,12*%
%TO.N,addr6*%
X184120000Y-31750000D03*
%TO.P,U7,2*%
%TO.N,Net-(SW1-Pad2)*%
X166340000Y-39370000D03*
%TO.P,U7,11*%
%TO.N,addr7*%
X186660000Y-31750000D03*
D16*
%TO.P,U7,1*%
%TO.N,+5V*%
X163800000Y-39370000D03*
%TD*%
D15*
%TO.P,U6,20*%
%TO.N,+5V*%
X163800000Y-14480000D03*
%TO.P,U6,10*%
%TO.N,GND*%
X186660000Y-22100000D03*
%TO.P,U6,19*%
%TO.N,fpcontrol*%
X166340000Y-14480000D03*
%TO.P,U6,9*%
%TO.N,Net-(SW16-Pad2)*%
X184120000Y-22100000D03*
%TO.P,U6,18*%
%TO.N,addr8*%
X168880000Y-14480000D03*
%TO.P,U6,8*%
%TO.N,Net-(SW15-Pad2)*%
X181580000Y-22100000D03*
%TO.P,U6,17*%
%TO.N,addr9*%
X171420000Y-14480000D03*
%TO.P,U6,7*%
%TO.N,Net-(SW14-Pad2)*%
X179040000Y-22100000D03*
%TO.P,U6,16*%
%TO.N,addr10*%
X173960000Y-14480000D03*
%TO.P,U6,6*%
%TO.N,Net-(SW13-Pad2)*%
X176500000Y-22100000D03*
%TO.P,U6,15*%
%TO.N,addr11*%
X176500000Y-14480000D03*
%TO.P,U6,5*%
%TO.N,Net-(SW12-Pad2)*%
X173960000Y-22100000D03*
%TO.P,U6,14*%
%TO.N,addr12*%
X179040000Y-14480000D03*
%TO.P,U6,4*%
%TO.N,Net-(SW11-Pad2)*%
X171420000Y-22100000D03*
%TO.P,U6,13*%
%TO.N,addr13*%
X181580000Y-14480000D03*
%TO.P,U6,3*%
%TO.N,Net-(SW10-Pad2)*%
X168880000Y-22100000D03*
%TO.P,U6,12*%
%TO.N,addr14*%
X184120000Y-14480000D03*
%TO.P,U6,2*%
%TO.N,Net-(SW9-Pad2)*%
X166340000Y-22100000D03*
%TO.P,U6,11*%
%TO.N,addr15*%
X186660000Y-14480000D03*
D16*
%TO.P,U6,1*%
%TO.N,+5V*%
X163800000Y-22100000D03*
%TD*%
D15*
%TO.P,U5,14*%
%TO.N,+5V*%
X125730000Y-44450000D03*
%TO.P,U5,7*%
%TO.N,GND*%
X140970000Y-52070000D03*
%TO.P,U5,13*%
%TO.N,examine*%
X128270000Y-44450000D03*
%TO.P,U5,6*%
%TO.N,Net-(U4-Pad1)*%
X138430000Y-52070000D03*
%TO.P,U5,12*%
%TO.N,fpcontrol*%
X130810000Y-44450000D03*
%TO.P,U5,5*%
%TO.N,memrd*%
X135890000Y-52070000D03*
%TO.P,U5,11*%
%TO.N,Net-(U4-Pad2)*%
X133350000Y-44450000D03*
%TO.P,U5,4*%
%TO.N,Net-(U3-Pad6)*%
X133350000Y-52070000D03*
%TO.P,U5,10*%
%TO.N,memwr*%
X135890000Y-44450000D03*
%TO.P,U5,3*%
%TO.N,switchtowb*%
X130810000Y-52070000D03*
%TO.P,U5,9*%
%TO.N,Net-(U3-Pad6)*%
X138430000Y-44450000D03*
%TO.P,U5,2*%
%TO.N,deposit*%
X128270000Y-52070000D03*
%TO.P,U5,8*%
%TO.N,Net-(U4-Pad4)*%
X140970000Y-44450000D03*
D16*
%TO.P,U5,1*%
%TO.N,fpcontrol*%
X125730000Y-52070000D03*
%TD*%
D15*
%TO.P,U4,14*%
%TO.N,+5V*%
X125730000Y-30480000D03*
%TO.P,U4,7*%
%TO.N,GND*%
X140970000Y-38100000D03*
%TO.P,U4,13*%
%TO.N,N/C*%
X128270000Y-30480000D03*
%TO.P,U4,6*%
%TO.N,wr*%
X138430000Y-38100000D03*
%TO.P,U4,12*%
%TO.N,N/C*%
X130810000Y-30480000D03*
%TO.P,U4,5*%
%TO.N,switchtowb*%
X135890000Y-38100000D03*
%TO.P,U4,11*%
%TO.N,N/C*%
X133350000Y-30480000D03*
%TO.P,U4,4*%
%TO.N,Net-(U4-Pad4)*%
X133350000Y-38100000D03*
%TO.P,U4,10*%
%TO.N,N/C*%
X135890000Y-30480000D03*
%TO.P,U4,3*%
%TO.N,rd*%
X130810000Y-38100000D03*
%TO.P,U4,9*%
%TO.N,N/C*%
X138430000Y-30480000D03*
%TO.P,U4,2*%
%TO.N,Net-(U4-Pad2)*%
X128270000Y-38100000D03*
%TO.P,U4,8*%
%TO.N,N/C*%
X140970000Y-30480000D03*
D16*
%TO.P,U4,1*%
%TO.N,Net-(U4-Pad1)*%
X125730000Y-38100000D03*
%TD*%
D15*
%TO.P,U3,14*%
%TO.N,+5V*%
X125730000Y-16510000D03*
%TO.P,U3,7*%
%TO.N,GND*%
X140970000Y-24130000D03*
%TO.P,U3,13*%
%TO.N,Net-(R2-Pad1)*%
X128270000Y-16510000D03*
%TO.P,U3,6*%
%TO.N,Net-(U3-Pad6)*%
X138430000Y-24130000D03*
%TO.P,U3,12*%
%TO.N,Net-(U3-Pad12)*%
X130810000Y-16510000D03*
%TO.P,U3,5*%
%TO.N,fpcontrol*%
X135890000Y-24130000D03*
%TO.P,U3,11*%
%TO.N,Net-(SW29-Pad1)*%
X133350000Y-16510000D03*
%TO.P,U3,4*%
%TO.N,fpcontrol*%
X133350000Y-24130000D03*
%TO.P,U3,10*%
%TO.N,Net-(SW29-Pad1)*%
X135890000Y-16510000D03*
%TO.P,U3,3*%
%TO.N,Net-(U2-Pad20)*%
X130810000Y-24130000D03*
%TO.P,U3,9*%
%TO.N,Net-(R1-Pad1)*%
X138430000Y-16510000D03*
%TO.P,U3,2*%
%TO.N,addr15*%
X128270000Y-24130000D03*
%TO.P,U3,8*%
%TO.N,Net-(U3-Pad12)*%
X140970000Y-16510000D03*
D16*
%TO.P,U3,1*%
%TO.N,addr15*%
X125730000Y-24130000D03*
%TD*%
D15*
%TO.P,U2,28*%
%TO.N,+5V*%
X207010000Y-39370000D03*
%TO.P,U2,14*%
%TO.N,GND*%
X240030000Y-54610000D03*
%TO.P,U2,27*%
%TO.N,wr*%
X209550000Y-39370000D03*
%TO.P,U2,13*%
%TO.N,wb2*%
X237490000Y-54610000D03*
%TO.P,U2,26*%
%TO.N,addr13*%
X212090000Y-39370000D03*
%TO.P,U2,12*%
%TO.N,wb1*%
X234950000Y-54610000D03*
%TO.P,U2,25*%
%TO.N,addr8*%
X214630000Y-39370000D03*
%TO.P,U2,11*%
%TO.N,wb0*%
X232410000Y-54610000D03*
%TO.P,U2,24*%
%TO.N,addr9*%
X217170000Y-39370000D03*
%TO.P,U2,10*%
%TO.N,addr0*%
X229870000Y-54610000D03*
%TO.P,U2,23*%
%TO.N,addr11*%
X219710000Y-39370000D03*
%TO.P,U2,9*%
%TO.N,addr1*%
X227330000Y-54610000D03*
%TO.P,U2,22*%
%TO.N,rd*%
X222250000Y-39370000D03*
%TO.P,U2,8*%
%TO.N,addr2*%
X224790000Y-54610000D03*
%TO.P,U2,21*%
%TO.N,addr10*%
X224790000Y-39370000D03*
%TO.P,U2,7*%
%TO.N,addr3*%
X222250000Y-54610000D03*
%TO.P,U2,20*%
%TO.N,Net-(U2-Pad20)*%
X227330000Y-39370000D03*
%TO.P,U2,6*%
%TO.N,addr4*%
X219710000Y-54610000D03*
%TO.P,U2,19*%
%TO.N,wb7*%
X229870000Y-39370000D03*
%TO.P,U2,5*%
%TO.N,addr5*%
X217170000Y-54610000D03*
%TO.P,U2,18*%
%TO.N,wb6*%
X232410000Y-39370000D03*
%TO.P,U2,4*%
%TO.N,addr6*%
X214630000Y-54610000D03*
%TO.P,U2,17*%
%TO.N,wb5*%
X234950000Y-39370000D03*
%TO.P,U2,3*%
%TO.N,addr7*%
X212090000Y-54610000D03*
%TO.P,U2,16*%
%TO.N,wb4*%
X237490000Y-39370000D03*
%TO.P,U2,2*%
%TO.N,addr12*%
X209550000Y-54610000D03*
%TO.P,U2,15*%
%TO.N,wb3*%
X240030000Y-39370000D03*
D16*
%TO.P,U2,1*%
%TO.N,addr14*%
X207010000Y-54610000D03*
%TD*%
D15*
%TO.P,U1,28*%
%TO.N,+5V*%
X207010000Y-8890000D03*
%TO.P,U1,14*%
%TO.N,GND*%
X240030000Y-24130000D03*
%TO.P,U1,27*%
%TO.N,Net-(JP1-Pad2)*%
X209550000Y-8890000D03*
%TO.P,U1,13*%
%TO.N,wb2*%
X237490000Y-24130000D03*
%TO.P,U1,26*%
%TO.N,addr13*%
X212090000Y-8890000D03*
%TO.P,U1,12*%
%TO.N,wb1*%
X234950000Y-24130000D03*
%TO.P,U1,25*%
%TO.N,addr8*%
X214630000Y-8890000D03*
%TO.P,U1,11*%
%TO.N,wb0*%
X232410000Y-24130000D03*
%TO.P,U1,24*%
%TO.N,addr9*%
X217170000Y-8890000D03*
%TO.P,U1,10*%
%TO.N,addr0*%
X229870000Y-24130000D03*
%TO.P,U1,23*%
%TO.N,addr11*%
X219710000Y-8890000D03*
%TO.P,U1,9*%
%TO.N,addr1*%
X227330000Y-24130000D03*
%TO.P,U1,22*%
%TO.N,rd*%
X222250000Y-8890000D03*
%TO.P,U1,8*%
%TO.N,addr2*%
X224790000Y-24130000D03*
%TO.P,U1,21*%
%TO.N,addr10*%
X224790000Y-8890000D03*
%TO.P,U1,7*%
%TO.N,addr3*%
X222250000Y-24130000D03*
%TO.P,U1,20*%
%TO.N,addr15*%
X227330000Y-8890000D03*
%TO.P,U1,6*%
%TO.N,addr4*%
X219710000Y-24130000D03*
%TO.P,U1,19*%
%TO.N,wb7*%
X229870000Y-8890000D03*
%TO.P,U1,5*%
%TO.N,addr5*%
X217170000Y-24130000D03*
%TO.P,U1,18*%
%TO.N,wb6*%
X232410000Y-8890000D03*
%TO.P,U1,4*%
%TO.N,addr6*%
X214630000Y-24130000D03*
%TO.P,U1,17*%
%TO.N,wb5*%
X234950000Y-8890000D03*
%TO.P,U1,3*%
%TO.N,addr7*%
X212090000Y-24130000D03*
%TO.P,U1,16*%
%TO.N,wb4*%
X237490000Y-8890000D03*
%TO.P,U1,2*%
%TO.N,addr12*%
X209550000Y-24130000D03*
%TO.P,U1,15*%
%TO.N,wb3*%
X240030000Y-8890000D03*
D16*
%TO.P,U1,1*%
%TO.N,addr14*%
X207010000Y-24130000D03*
%TD*%
D17*
%TO.P,SW32,3*%
%TO.N,Net-(J7-Pad1)*%
X11020000Y-54230000D03*
%TO.P,SW32,2*%
%TO.N,+5V*%
X11020000Y-49530000D03*
%TO.P,SW32,1*%
%TO.N,Net-(SW32-Pad1)*%
X11020000Y-44830000D03*
%TD*%
%TO.P,SW31,3*%
%TO.N,+5V*%
X240890000Y-135510000D03*
%TO.P,SW31,2*%
%TO.N,reset*%
X240890000Y-130810000D03*
%TO.P,SW31,1*%
%TO.N,GND*%
X240890000Y-126110000D03*
%TD*%
%TO.P,SW30,3*%
%TO.N,Net-(D25-Pad2)*%
X205330000Y-135510000D03*
%TO.P,SW30,2*%
%TO.N,Net-(SW29-Pad3)*%
X205330000Y-130810000D03*
%TO.P,SW30,1*%
%TO.N,Net-(D26-Pad2)*%
X205330000Y-126110000D03*
%TD*%
%TO.P,SW29,3*%
%TO.N,Net-(SW29-Pad3)*%
X190090000Y-135510000D03*
%TO.P,SW29,2*%
%TO.N,CLK*%
X190090000Y-130810000D03*
%TO.P,SW29,1*%
%TO.N,Net-(SW29-Pad1)*%
X190090000Y-126110000D03*
%TD*%
%TO.P,SW28,3*%
%TO.N,Net-(R1-Pad1)*%
X220570000Y-135510000D03*
%TO.P,SW28,2*%
%TO.N,GND*%
X220570000Y-130810000D03*
%TO.P,SW28,1*%
%TO.N,Net-(R2-Pad1)*%
X220570000Y-126110000D03*
%TD*%
%TO.P,SW27,3*%
%TO.N,GND*%
X173580000Y-135510000D03*
%TO.P,SW27,2*%
%TO.N,fpcontrol*%
X173580000Y-130810000D03*
%TO.P,SW27,1*%
%TO.N,+5V*%
X173580000Y-126110000D03*
%TD*%
%TO.P,SW26,3*%
%TO.N,+5V*%
X159610000Y-135510000D03*
%TO.P,SW26,2*%
%TO.N,deposit*%
X159610000Y-130810000D03*
%TO.P,SW26,1*%
%TO.N,GND*%
X159610000Y-126110000D03*
%TD*%
%TO.P,SW25,3*%
%TO.N,+5V*%
X145640000Y-135510000D03*
%TO.P,SW25,2*%
%TO.N,examine*%
X145640000Y-130810000D03*
%TO.P,SW25,1*%
%TO.N,GND*%
X145640000Y-126110000D03*
%TD*%
%TO.P,SW24,3*%
%TO.N,+5V*%
X13560000Y-135510000D03*
%TO.P,SW24,2*%
%TO.N,Net-(SW24-Pad2)*%
X13560000Y-130810000D03*
%TO.P,SW24,1*%
%TO.N,GND*%
X13560000Y-126110000D03*
%TD*%
%TO.P,SW23,3*%
%TO.N,+5V*%
X28800000Y-135510000D03*
%TO.P,SW23,2*%
%TO.N,Net-(SW23-Pad2)*%
X28800000Y-130810000D03*
%TO.P,SW23,1*%
%TO.N,GND*%
X28800000Y-126110000D03*
%TD*%
%TO.P,SW22,3*%
%TO.N,+5V*%
X44040000Y-135510000D03*
%TO.P,SW22,2*%
%TO.N,Net-(SW22-Pad2)*%
X44040000Y-130810000D03*
%TO.P,SW22,1*%
%TO.N,GND*%
X44040000Y-126110000D03*
%TD*%
%TO.P,SW21,3*%
%TO.N,+5V*%
X59280000Y-135510000D03*
%TO.P,SW21,2*%
%TO.N,Net-(SW21-Pad2)*%
X59280000Y-130810000D03*
%TO.P,SW21,1*%
%TO.N,GND*%
X59280000Y-126110000D03*
%TD*%
%TO.P,SW20,3*%
%TO.N,+5V*%
X74520000Y-135510000D03*
%TO.P,SW20,2*%
%TO.N,Net-(SW20-Pad2)*%
X74520000Y-130810000D03*
%TO.P,SW20,1*%
%TO.N,GND*%
X74520000Y-126110000D03*
%TD*%
%TO.P,SW19,3*%
%TO.N,+5V*%
X89760000Y-135510000D03*
%TO.P,SW19,2*%
%TO.N,Net-(SW19-Pad2)*%
X89760000Y-130810000D03*
%TO.P,SW19,1*%
%TO.N,GND*%
X89760000Y-126110000D03*
%TD*%
%TO.P,SW18,3*%
%TO.N,+5V*%
X105000000Y-135510000D03*
%TO.P,SW18,2*%
%TO.N,Net-(SW18-Pad2)*%
X105000000Y-130810000D03*
%TO.P,SW18,1*%
%TO.N,GND*%
X105000000Y-126110000D03*
%TD*%
%TO.P,SW17,3*%
%TO.N,+5V*%
X120240000Y-135510000D03*
%TO.P,SW17,2*%
%TO.N,Net-(SW17-Pad2)*%
X120240000Y-130810000D03*
%TO.P,SW17,1*%
%TO.N,GND*%
X120240000Y-126110000D03*
%TD*%
%TO.P,SW16,3*%
%TO.N,+5V*%
X19910000Y-93600000D03*
%TO.P,SW16,2*%
%TO.N,Net-(SW16-Pad2)*%
X19910000Y-88900000D03*
%TO.P,SW16,1*%
%TO.N,GND*%
X19910000Y-84200000D03*
%TD*%
%TO.P,SW15,3*%
%TO.N,+5V*%
X35150000Y-93600000D03*
%TO.P,SW15,2*%
%TO.N,Net-(SW15-Pad2)*%
X35150000Y-88900000D03*
%TO.P,SW15,1*%
%TO.N,GND*%
X35150000Y-84200000D03*
%TD*%
%TO.P,SW14,3*%
%TO.N,+5V*%
X50390000Y-93600000D03*
%TO.P,SW14,2*%
%TO.N,Net-(SW14-Pad2)*%
X50390000Y-88900000D03*
%TO.P,SW14,1*%
%TO.N,GND*%
X50390000Y-84200000D03*
%TD*%
%TO.P,SW13,3*%
%TO.N,+5V*%
X65630000Y-93600000D03*
%TO.P,SW13,2*%
%TO.N,Net-(SW13-Pad2)*%
X65630000Y-88900000D03*
%TO.P,SW13,1*%
%TO.N,GND*%
X65630000Y-84200000D03*
%TD*%
%TO.P,SW12,3*%
%TO.N,+5V*%
X80870000Y-93600000D03*
%TO.P,SW12,2*%
%TO.N,Net-(SW12-Pad2)*%
X80870000Y-88900000D03*
%TO.P,SW12,1*%
%TO.N,GND*%
X80870000Y-84200000D03*
%TD*%
%TO.P,SW11,3*%
%TO.N,+5V*%
X96110000Y-93600000D03*
%TO.P,SW11,2*%
%TO.N,Net-(SW11-Pad2)*%
X96110000Y-88900000D03*
%TO.P,SW11,1*%
%TO.N,GND*%
X96110000Y-84200000D03*
%TD*%
%TO.P,SW10,3*%
%TO.N,+5V*%
X111350000Y-93600000D03*
%TO.P,SW10,2*%
%TO.N,Net-(SW10-Pad2)*%
X111350000Y-88900000D03*
%TO.P,SW10,1*%
%TO.N,GND*%
X111350000Y-84200000D03*
%TD*%
%TO.P,SW9,3*%
%TO.N,+5V*%
X126590000Y-93600000D03*
%TO.P,SW9,2*%
%TO.N,Net-(SW9-Pad2)*%
X126590000Y-88900000D03*
%TO.P,SW9,1*%
%TO.N,GND*%
X126590000Y-84200000D03*
%TD*%
%TO.P,SW8,3*%
%TO.N,+5V*%
X145640000Y-93600000D03*
%TO.P,SW8,2*%
%TO.N,Net-(SW8-Pad2)*%
X145640000Y-88900000D03*
%TO.P,SW8,1*%
%TO.N,GND*%
X145640000Y-84200000D03*
%TD*%
%TO.P,SW7,3*%
%TO.N,+5V*%
X160880000Y-93600000D03*
%TO.P,SW7,2*%
%TO.N,Net-(SW7-Pad2)*%
X160880000Y-88900000D03*
%TO.P,SW7,1*%
%TO.N,GND*%
X160880000Y-84200000D03*
%TD*%
%TO.P,SW6,3*%
%TO.N,+5V*%
X176120000Y-93600000D03*
%TO.P,SW6,2*%
%TO.N,Net-(SW6-Pad2)*%
X176120000Y-88900000D03*
%TO.P,SW6,1*%
%TO.N,GND*%
X176120000Y-84200000D03*
%TD*%
%TO.P,SW5,3*%
%TO.N,+5V*%
X191360000Y-93600000D03*
%TO.P,SW5,2*%
%TO.N,Net-(SW5-Pad2)*%
X191360000Y-88900000D03*
%TO.P,SW5,1*%
%TO.N,GND*%
X191360000Y-84200000D03*
%TD*%
%TO.P,SW4,3*%
%TO.N,+5V*%
X206600000Y-93600000D03*
%TO.P,SW4,2*%
%TO.N,Net-(SW4-Pad2)*%
X206600000Y-88900000D03*
%TO.P,SW4,1*%
%TO.N,GND*%
X206600000Y-84200000D03*
%TD*%
%TO.P,SW3,3*%
%TO.N,+5V*%
X221840000Y-93600000D03*
%TO.P,SW3,2*%
%TO.N,Net-(SW3-Pad2)*%
X221840000Y-88900000D03*
%TO.P,SW3,1*%
%TO.N,GND*%
X221840000Y-84200000D03*
%TD*%
%TO.P,SW2,3*%
%TO.N,+5V*%
X237080000Y-93600000D03*
%TO.P,SW2,2*%
%TO.N,Net-(SW2-Pad2)*%
X237080000Y-88900000D03*
%TO.P,SW2,1*%
%TO.N,GND*%
X237080000Y-84200000D03*
%TD*%
%TO.P,SW1,3*%
%TO.N,+5V*%
X252320000Y-93600000D03*
%TO.P,SW1,2*%
%TO.N,Net-(SW1-Pad2)*%
X252320000Y-88900000D03*
%TO.P,SW1,1*%
%TO.N,GND*%
X252320000Y-84200000D03*
%TD*%
D13*
%TO.P,RV1,1*%
%TO.N,Net-(C12-Pad1)*%
X85090000Y-45720000D03*
%TO.P,RV1,2*%
%TO.N,Net-(R6-Pad1)*%
X85090000Y-43180000D03*
%TO.P,RV1,3*%
%TO.N,Net-(RV1-Pad3)*%
X85090000Y-40640000D03*
%TD*%
D15*
%TO.P,RN3,9*%
%TO.N,Net-(D17-Pad1)*%
X96520000Y-109220000D03*
%TO.P,RN3,8*%
%TO.N,Net-(D18-Pad1)*%
X93980000Y-109220000D03*
%TO.P,RN3,7*%
%TO.N,Net-(D19-Pad1)*%
X91440000Y-109220000D03*
%TO.P,RN3,6*%
%TO.N,Net-(D20-Pad1)*%
X88900000Y-109220000D03*
%TO.P,RN3,5*%
%TO.N,Net-(D21-Pad1)*%
X86360000Y-109220000D03*
%TO.P,RN3,4*%
%TO.N,Net-(D22-Pad1)*%
X83820000Y-109220000D03*
%TO.P,RN3,3*%
%TO.N,Net-(D23-Pad1)*%
X81280000Y-109220000D03*
%TO.P,RN3,2*%
%TO.N,Net-(D24-Pad1)*%
X78740000Y-109220000D03*
D16*
%TO.P,RN3,1*%
%TO.N,GND*%
X76200000Y-109220000D03*
%TD*%
D15*
%TO.P,RN2,9*%
%TO.N,Net-(D9-Pad1)*%
X77470000Y-66040000D03*
%TO.P,RN2,8*%
%TO.N,Net-(D10-Pad1)*%
X74930000Y-66040000D03*
%TO.P,RN2,7*%
%TO.N,Net-(D11-Pad1)*%
X72390000Y-66040000D03*
%TO.P,RN2,6*%
%TO.N,Net-(D12-Pad1)*%
X69850000Y-66040000D03*
%TO.P,RN2,5*%
%TO.N,Net-(D13-Pad1)*%
X67310000Y-66040000D03*
%TO.P,RN2,4*%
%TO.N,Net-(D14-Pad1)*%
X64770000Y-66040000D03*
%TO.P,RN2,3*%
%TO.N,Net-(D15-Pad1)*%
X62230000Y-66040000D03*
%TO.P,RN2,2*%
%TO.N,Net-(D16-Pad1)*%
X59690000Y-66040000D03*
D16*
%TO.P,RN2,1*%
%TO.N,GND*%
X57150000Y-66040000D03*
%TD*%
D15*
%TO.P,RN1,9*%
%TO.N,Net-(D1-Pad1)*%
X205740000Y-66040000D03*
%TO.P,RN1,8*%
%TO.N,Net-(D2-Pad1)*%
X203200000Y-66040000D03*
%TO.P,RN1,7*%
%TO.N,Net-(D3-Pad1)*%
X200660000Y-66040000D03*
%TO.P,RN1,6*%
%TO.N,Net-(D4-Pad1)*%
X198120000Y-66040000D03*
%TO.P,RN1,5*%
%TO.N,Net-(D5-Pad1)*%
X195580000Y-66040000D03*
%TO.P,RN1,4*%
%TO.N,Net-(D6-Pad1)*%
X193040000Y-66040000D03*
%TO.P,RN1,3*%
%TO.N,Net-(D7-Pad1)*%
X190500000Y-66040000D03*
%TO.P,RN1,2*%
%TO.N,Net-(D8-Pad1)*%
X187960000Y-66040000D03*
D16*
%TO.P,RN1,1*%
%TO.N,GND*%
X185420000Y-66040000D03*
%TD*%
D11*
%TO.P,R6,2*%
%TO.N,Net-(R5-Pad2)*%
X57150000Y-49530000D03*
D12*
%TO.P,R6,1*%
%TO.N,Net-(R6-Pad1)*%
X57150000Y-54610000D03*
%TD*%
D11*
%TO.P,R5,2*%
%TO.N,Net-(R5-Pad2)*%
X57150000Y-46990000D03*
D12*
%TO.P,R5,1*%
%TO.N,+5V*%
X57150000Y-41910000D03*
%TD*%
D11*
%TO.P,R4,2*%
%TO.N,Net-(C9-Pad1)*%
X57150000Y-33020000D03*
D12*
%TO.P,R4,1*%
%TO.N,Net-(R3-Pad2)*%
X57150000Y-27940000D03*
%TD*%
D11*
%TO.P,R3,2*%
%TO.N,Net-(R3-Pad2)*%
X57150000Y-25400000D03*
D12*
%TO.P,R3,1*%
%TO.N,+5V*%
X57150000Y-20320000D03*
%TD*%
D11*
%TO.P,R2,2*%
%TO.N,+5V*%
X227950000Y-130030000D03*
D12*
%TO.P,R2,1*%
%TO.N,Net-(R2-Pad1)*%
X227950000Y-124950000D03*
%TD*%
D11*
%TO.P,R1,2*%
%TO.N,+5V*%
X227950000Y-138160000D03*
D12*
%TO.P,R1,1*%
%TO.N,Net-(R1-Pad1)*%
X227950000Y-133080000D03*
%TD*%
D18*
%TO.P,JP1,3*%
%TO.N,wr*%
X196850000Y-8890000D03*
%TO.P,JP1,2*%
%TO.N,Net-(JP1-Pad2)*%
X196850000Y-6350000D03*
D19*
%TO.P,JP1,1*%
%TO.N,+5V*%
X196850000Y-3810000D03*
%TD*%
D20*
%TO.P,J8,5*%
%TO.N,Net-(J8-Pad5)*%
X11650000Y-16180000D03*
X11650000Y-4180000D03*
D10*
%TO.P,J8,4*%
%TO.N,GND*%
X14510000Y-11430000D03*
%TO.P,J8,3*%
%TO.N,Net-(J8-Pad3)*%
X14510000Y-8930000D03*
%TO.P,J8,2*%
%TO.N,Net-(J8-Pad2)*%
X16510000Y-8930000D03*
D16*
%TO.P,J8,1*%
%TO.N,Net-(J7-Pad1)*%
X16510000Y-11430000D03*
%TD*%
D21*
%TO.P,J7,2*%
%TO.N,GND*%
X15240000Y-27940000D03*
D22*
%TO.P,J7,1*%
%TO.N,Net-(J7-Pad1)*%
X15240000Y-25400000D03*
%TD*%
D18*
%TO.P,J6,4*%
%TO.N,reset*%
X81280000Y-5080000D03*
%TO.P,J6,3*%
%TO.N,fpcontrol*%
X78740000Y-5080000D03*
%TO.P,J6,2*%
%TO.N,memwr*%
X76200000Y-5080000D03*
D19*
%TO.P,J6,1*%
%TO.N,memrd*%
X73660000Y-5080000D03*
%TD*%
D18*
%TO.P,J5,8*%
%TO.N,wb7*%
X165100000Y-5080000D03*
%TO.P,J5,7*%
%TO.N,wb6*%
X167640000Y-5080000D03*
%TO.P,J5,6*%
%TO.N,wb5*%
X170180000Y-5080000D03*
%TO.P,J5,5*%
%TO.N,wb4*%
X172720000Y-5080000D03*
%TO.P,J5,4*%
%TO.N,wb3*%
X175260000Y-5080000D03*
%TO.P,J5,3*%
%TO.N,wb2*%
X177800000Y-5080000D03*
%TO.P,J5,2*%
%TO.N,wb1*%
X180340000Y-5080000D03*
D19*
%TO.P,J5,1*%
%TO.N,wb0*%
X182880000Y-5080000D03*
%TD*%
D18*
%TO.P,J4,8*%
%TO.N,addr15*%
X110490000Y-5080000D03*
%TO.P,J4,7*%
%TO.N,addr14*%
X113030000Y-5080000D03*
%TO.P,J4,6*%
%TO.N,addr13*%
X115570000Y-5080000D03*
%TO.P,J4,5*%
%TO.N,addr12*%
X118110000Y-5080000D03*
%TO.P,J4,4*%
%TO.N,addr11*%
X120650000Y-5080000D03*
%TO.P,J4,3*%
%TO.N,addr10*%
X123190000Y-5080000D03*
%TO.P,J4,2*%
%TO.N,addr9*%
X125730000Y-5080000D03*
D19*
%TO.P,J4,1*%
%TO.N,addr8*%
X128270000Y-5080000D03*
%TD*%
D18*
%TO.P,J3,8*%
%TO.N,addr7*%
X134620000Y-5080000D03*
%TO.P,J3,7*%
%TO.N,addr6*%
X137160000Y-5080000D03*
%TO.P,J3,6*%
%TO.N,addr5*%
X139700000Y-5080000D03*
%TO.P,J3,5*%
%TO.N,addr4*%
X142240000Y-5080000D03*
%TO.P,J3,4*%
%TO.N,addr3*%
X144780000Y-5080000D03*
%TO.P,J3,3*%
%TO.N,addr2*%
X147320000Y-5080000D03*
%TO.P,J3,2*%
%TO.N,addr1*%
X149860000Y-5080000D03*
D19*
%TO.P,J3,1*%
%TO.N,addr0*%
X152400000Y-5080000D03*
%TD*%
D18*
%TO.P,J2,3*%
%TO.N,CLK*%
X43180000Y-10160000D03*
%TO.P,J2,2*%
%TO.N,GND*%
X43180000Y-7620000D03*
D19*
%TO.P,J2,1*%
%TO.N,+5V*%
X43180000Y-5080000D03*
%TD*%
D18*
%TO.P,J1,3*%
%TO.N,CLK*%
X36830000Y-10160000D03*
%TO.P,J1,2*%
%TO.N,GND*%
X36830000Y-7620000D03*
D19*
%TO.P,J1,1*%
%TO.N,+5V*%
X36830000Y-5080000D03*
%TD*%
D13*
%TO.P,D24,2*%
%TO.N,wb7*%
X13970000Y-115570000D03*
D14*
%TO.P,D24,1*%
%TO.N,Net-(D24-Pad1)*%
X13970000Y-118110000D03*
%TD*%
D13*
%TO.P,D23,2*%
%TO.N,wb6*%
X29210000Y-115570000D03*
D14*
%TO.P,D23,1*%
%TO.N,Net-(D23-Pad1)*%
X29210000Y-118110000D03*
%TD*%
D13*
%TO.P,D22,2*%
%TO.N,wb5*%
X44450000Y-115570000D03*
D14*
%TO.P,D22,1*%
%TO.N,Net-(D22-Pad1)*%
X44450000Y-118110000D03*
%TD*%
D13*
%TO.P,D21,2*%
%TO.N,wb4*%
X59690000Y-115570000D03*
D14*
%TO.P,D21,1*%
%TO.N,Net-(D21-Pad1)*%
X59690000Y-118110000D03*
%TD*%
D13*
%TO.P,D20,2*%
%TO.N,wb3*%
X74930000Y-115570000D03*
D14*
%TO.P,D20,1*%
%TO.N,Net-(D20-Pad1)*%
X74930000Y-118110000D03*
%TD*%
D13*
%TO.P,D19,2*%
%TO.N,wb2*%
X90170000Y-115570000D03*
D14*
%TO.P,D19,1*%
%TO.N,Net-(D19-Pad1)*%
X90170000Y-118110000D03*
%TD*%
D13*
%TO.P,D18,2*%
%TO.N,wb1*%
X105410000Y-115570000D03*
D14*
%TO.P,D18,1*%
%TO.N,Net-(D18-Pad1)*%
X105410000Y-118110000D03*
%TD*%
D13*
%TO.P,D17,2*%
%TO.N,wb0*%
X120650000Y-115570000D03*
D14*
%TO.P,D17,1*%
%TO.N,Net-(D17-Pad1)*%
X120650000Y-118110000D03*
%TD*%
D13*
%TO.P,D16,2*%
%TO.N,addr15*%
X20320000Y-73660000D03*
D14*
%TO.P,D16,1*%
%TO.N,Net-(D16-Pad1)*%
X20320000Y-76200000D03*
%TD*%
D13*
%TO.P,D15,2*%
%TO.N,addr14*%
X35560000Y-73660000D03*
D14*
%TO.P,D15,1*%
%TO.N,Net-(D15-Pad1)*%
X35560000Y-76200000D03*
%TD*%
D13*
%TO.P,D14,2*%
%TO.N,addr13*%
X50800000Y-73660000D03*
D14*
%TO.P,D14,1*%
%TO.N,Net-(D14-Pad1)*%
X50800000Y-76200000D03*
%TD*%
D13*
%TO.P,D13,2*%
%TO.N,addr12*%
X66040000Y-73660000D03*
D14*
%TO.P,D13,1*%
%TO.N,Net-(D13-Pad1)*%
X66040000Y-76200000D03*
%TD*%
D13*
%TO.P,D12,2*%
%TO.N,addr11*%
X81280000Y-73660000D03*
D14*
%TO.P,D12,1*%
%TO.N,Net-(D12-Pad1)*%
X81280000Y-76200000D03*
%TD*%
D13*
%TO.P,D11,2*%
%TO.N,addr10*%
X96520000Y-73660000D03*
D14*
%TO.P,D11,1*%
%TO.N,Net-(D11-Pad1)*%
X96520000Y-76200000D03*
%TD*%
D13*
%TO.P,D10,2*%
%TO.N,addr9*%
X111760000Y-73660000D03*
D14*
%TO.P,D10,1*%
%TO.N,Net-(D10-Pad1)*%
X111760000Y-76200000D03*
%TD*%
D13*
%TO.P,D9,2*%
%TO.N,addr8*%
X127000000Y-73660000D03*
D14*
%TO.P,D9,1*%
%TO.N,Net-(D9-Pad1)*%
X127000000Y-76200000D03*
%TD*%
D13*
%TO.P,D8,2*%
%TO.N,addr7*%
X146050000Y-73660000D03*
D14*
%TO.P,D8,1*%
%TO.N,Net-(D8-Pad1)*%
X146050000Y-76200000D03*
%TD*%
D13*
%TO.P,D7,2*%
%TO.N,addr6*%
X161290000Y-73660000D03*
D14*
%TO.P,D7,1*%
%TO.N,Net-(D7-Pad1)*%
X161290000Y-76200000D03*
%TD*%
D13*
%TO.P,D6,2*%
%TO.N,addr5*%
X176530000Y-73660000D03*
D14*
%TO.P,D6,1*%
%TO.N,Net-(D6-Pad1)*%
X176530000Y-76200000D03*
%TD*%
D13*
%TO.P,D5,2*%
%TO.N,addr4*%
X191770000Y-73660000D03*
D14*
%TO.P,D5,1*%
%TO.N,Net-(D5-Pad1)*%
X191770000Y-76200000D03*
%TD*%
D13*
%TO.P,D4,2*%
%TO.N,addr3*%
X207010000Y-73660000D03*
D14*
%TO.P,D4,1*%
%TO.N,Net-(D4-Pad1)*%
X207010000Y-76200000D03*
%TD*%
D13*
%TO.P,D3,2*%
%TO.N,addr2*%
X222250000Y-73660000D03*
D14*
%TO.P,D3,1*%
%TO.N,Net-(D3-Pad1)*%
X222250000Y-76200000D03*
%TD*%
D13*
%TO.P,D2,2*%
%TO.N,addr1*%
X237490000Y-73660000D03*
D14*
%TO.P,D2,1*%
%TO.N,Net-(D2-Pad1)*%
X237490000Y-76200000D03*
%TD*%
D13*
%TO.P,D1,2*%
%TO.N,addr0*%
X252730000Y-73660000D03*
D14*
%TO.P,D1,1*%
%TO.N,Net-(D1-Pad1)*%
X252730000Y-76200000D03*
%TD*%
D10*
%TO.P,C12,2*%
%TO.N,GND*%
X34290000Y-40330000D03*
D16*
%TO.P,C12,1*%
%TO.N,Net-(C12-Pad1)*%
X34290000Y-36830000D03*
%TD*%
D10*
%TO.P,C11,2*%
%TO.N,GND*%
X45760000Y-41910000D03*
%TO.P,C11,1*%
%TO.N,Net-(C11-Pad1)*%
X48260000Y-41910000D03*
%TD*%
%TO.P,C10,2*%
%TO.N,GND*%
X45760000Y-20320000D03*
%TO.P,C10,1*%
%TO.N,Net-(C10-Pad1)*%
X48260000Y-20320000D03*
%TD*%
%TO.P,C9,2*%
%TO.N,GND*%
X54570000Y-36830000D03*
%TO.P,C9,1*%
%TO.N,Net-(C9-Pad1)*%
X52070000Y-36830000D03*
%TD*%
%TO.P,C8,2*%
%TO.N,GND*%
X160020000Y-53300000D03*
%TO.P,C8,1*%
%TO.N,+5V*%
X160020000Y-50800000D03*
%TD*%
%TO.P,C7,2*%
%TO.N,GND*%
X160020000Y-35520000D03*
%TO.P,C7,1*%
%TO.N,+5V*%
X160020000Y-33020000D03*
%TD*%
%TO.P,C6,2*%
%TO.N,GND*%
X160020000Y-17740000D03*
%TO.P,C6,1*%
%TO.N,+5V*%
X160020000Y-15240000D03*
%TD*%
%TO.P,C5,2*%
%TO.N,GND*%
X121920000Y-48220000D03*
%TO.P,C5,1*%
%TO.N,+5V*%
X121920000Y-45720000D03*
%TD*%
%TO.P,C4,2*%
%TO.N,GND*%
X121920000Y-34250000D03*
%TO.P,C4,1*%
%TO.N,+5V*%
X121920000Y-31750000D03*
%TD*%
%TO.P,C3,2*%
%TO.N,GND*%
X121920000Y-20280000D03*
%TO.P,C3,1*%
%TO.N,+5V*%
X121920000Y-17780000D03*
%TD*%
%TO.P,C2,2*%
%TO.N,GND*%
X203200000Y-43140000D03*
%TO.P,C2,1*%
%TO.N,+5V*%
X203200000Y-40640000D03*
%TD*%
%TO.P,C1,2*%
%TO.N,GND*%
X203200000Y-12660000D03*
%TO.P,C1,1*%
%TO.N,+5V*%
X203200000Y-10160000D03*
%TD*%
D23*
%TO.N,+5V*%
X163181400Y-1438200D03*
%TO.N,addr3*%
X196201400Y-34283700D03*
X207010000Y-60231400D03*
X159717600Y-27304000D03*
%TO.N,addr4*%
X157225700Y-26713100D03*
%TO.N,addr5*%
X180853800Y-62795800D03*
X155737900Y-26775800D03*
%TO.N,addr6*%
X168939700Y-59865100D03*
X153384600Y-25227700D03*
%TO.N,addr7*%
X146050000Y-24024400D03*
%TO.N,addr8*%
X175959000Y-9229400D03*
X205019100Y-5760600D03*
%TO.N,addr9*%
X202270600Y-6641600D03*
X177108500Y-10477300D03*
%TO.N,addr11*%
X185379200Y-37658400D03*
%TO.N,addr12*%
X189033900Y-17311800D03*
%TO.N,addr15*%
X190081400Y-23166400D03*
%TO.N,wb1*%
X165010000Y-61235600D03*
X169548100Y-55129200D03*
X188465700Y-52498100D03*
%TO.N,wb2*%
X190646100Y-15036100D03*
X113591400Y-56717700D03*
%TO.N,wb3*%
X97115600Y-54270900D03*
%TO.N,wb4*%
X185127600Y-2400700D03*
%TO.N,wb5*%
X96383300Y-60690900D03*
X177219000Y-54403800D03*
X244297600Y-6609500D03*
%TO.N,wb6*%
X95486900Y-62010900D03*
X182030700Y-54403000D03*
X188507600Y-6255400D03*
%TO.N,CLK*%
X54608100Y-100400600D03*
%TO.N,reset*%
X191385200Y-24626300D03*
%TO.N,fpcontrol*%
X126440100Y-102604300D03*
%TO.N,memwr*%
X77722900Y-31936000D03*
%TO.N,Net-(R1-Pad1)*%
X145712600Y-46352500D03*
X190437900Y-46849800D03*
%TO.N,Net-(R2-Pad1)*%
X188724300Y-25392200D03*
%TO.N,Net-(SW2-Pad2)*%
X203990500Y-37356500D03*
%TO.N,Net-(SW3-Pad2)*%
X177167100Y-48025400D03*
X202265000Y-48025400D03*
%TO.N,Net-(SW4-Pad2)*%
X174138900Y-41939700D03*
X189128000Y-41939700D03*
%TO.N,Net-(SW10-Pad2)*%
X121113100Y-23143000D03*
%TO.N,Net-(SW11-Pad2)*%
X110389600Y-24089900D03*
%TO.N,Net-(SW12-Pad2)*%
X108933800Y-24822400D03*
%TO.N,Net-(SW13-Pad2)*%
X138439500Y-86362800D03*
%TO.N,Net-(SW14-Pad2)*%
X168199800Y-25387400D03*
X143122400Y-81010300D03*
%TO.N,Net-(SW15-Pad2)*%
X107424500Y-20963600D03*
%TO.N,Net-(SW16-Pad2)*%
X100671900Y-25185700D03*
X73731800Y-69851300D03*
%TO.N,Net-(SW22-Pad2)*%
X129424300Y-128610300D03*
%TO.N,examine*%
X127052100Y-121821100D03*
%TO.N,deposit*%
X129218200Y-85239700D03*
X166508500Y-92620900D03*
%TO.N,Net-(SW29-Pad1)*%
X145715300Y-63747500D03*
X184905400Y-62934500D03*
%TO.N,Net-(U2-Pad20)*%
X226184300Y-32338600D03*
%TO.N,Net-(U4-Pad4)*%
X134227200Y-41182400D03*
%TO.N,Net-(D25-Pad2)*%
X189395300Y-43742800D03*
%TO.N,Net-(D26-Pad2)*%
X188302300Y-62854800D03*
%TO.N,Net-(D26-Pad1)*%
X64715300Y-46205900D03*
%TD*%
D24*
%TO.N,GND*%
X191360000Y-84200000D02*
X185420000Y-78260000D01*
X185420000Y-78260000D02*
X185420000Y-67165300D01*
X187785300Y-23891700D02*
X187785300Y-37119400D01*
X187785300Y-37119400D02*
X186660000Y-38244700D01*
X186660000Y-23225300D02*
X187326400Y-23891700D01*
X187326400Y-23891700D02*
X187785300Y-23891700D01*
X187785300Y-23891700D02*
X191968300Y-23891700D01*
X191968300Y-23891700D02*
X203200000Y-12660000D01*
X160020000Y-35520000D02*
X158892400Y-34392400D01*
X158892400Y-34392400D02*
X158892400Y-29155000D01*
X158892400Y-29155000D02*
X160456900Y-27590500D01*
X160456900Y-27590500D02*
X160456900Y-18176900D01*
X160456900Y-18176900D02*
X160020000Y-17740000D01*
X121920000Y-34250000D02*
X123091900Y-35421900D01*
X123091900Y-35421900D02*
X123091900Y-47048100D01*
X123091900Y-47048100D02*
X121920000Y-48220000D01*
X121920000Y-20280000D02*
X123047600Y-21407600D01*
X123047600Y-21407600D02*
X123047600Y-33122400D01*
X123047600Y-33122400D02*
X121920000Y-34250000D01*
X186660000Y-40495300D02*
X186660000Y-41990400D01*
X186660000Y-41990400D02*
X188645400Y-43975800D01*
X188645400Y-43975800D02*
X188645400Y-46418500D01*
X188645400Y-46418500D02*
X189262200Y-47035300D01*
X189262200Y-47035300D02*
X189262200Y-53422500D01*
X189262200Y-53422500D02*
X186660000Y-56024700D01*
X57150000Y-77440000D02*
X50390000Y-84200000D01*
X57150000Y-66040000D02*
X57150000Y-77440000D01*
X65630000Y-77454200D02*
X57164200Y-77454200D01*
X57164200Y-77454200D02*
X57150000Y-77440000D01*
X72390000Y-44450000D02*
X72390000Y-59859800D01*
X72390000Y-59859800D02*
X68710900Y-63538900D01*
X68710900Y-63538900D02*
X68710900Y-75817500D01*
X68710900Y-75817500D02*
X67074200Y-77454200D01*
X67074200Y-77454200D02*
X65630000Y-77454200D01*
X65630000Y-77454200D02*
X65630000Y-84200000D01*
X22900000Y-21590000D02*
X16550000Y-27940000D01*
X16550000Y-27940000D02*
X15240000Y-27940000D01*
X252320000Y-84200000D02*
X244700000Y-84200000D01*
X244700000Y-84200000D02*
X240890000Y-88010000D01*
X240030000Y-55735300D02*
X253972200Y-69677500D01*
X253972200Y-69677500D02*
X253972200Y-82547800D01*
X253972200Y-82547800D02*
X252320000Y-84200000D01*
X240890000Y-88010000D02*
X237080000Y-84200000D01*
X240890000Y-126110000D02*
X240890000Y-88010000D01*
X186660000Y-57150000D02*
X186660000Y-63674700D01*
X186660000Y-63674700D02*
X185420000Y-64914700D01*
X186660000Y-39370000D02*
X186660000Y-38244700D01*
X186660000Y-57150000D02*
X186660000Y-56024700D01*
X186660000Y-39370000D02*
X186660000Y-40495300D01*
X160020000Y-53300000D02*
X161145300Y-52174700D01*
X161145300Y-52174700D02*
X161145300Y-36645300D01*
X161145300Y-36645300D02*
X160020000Y-35520000D01*
X76200000Y-109220000D02*
X76200000Y-88870000D01*
X76200000Y-88870000D02*
X80870000Y-84200000D01*
X72390000Y-24130000D02*
X71364700Y-24130000D01*
X54570000Y-36830000D02*
X54857000Y-36830000D01*
X54857000Y-36830000D02*
X66114700Y-25572300D01*
X66114700Y-25572300D02*
X66114700Y-23793300D01*
X66114700Y-23793300D02*
X66803300Y-23104700D01*
X66803300Y-23104700D02*
X70339400Y-23104700D01*
X70339400Y-23104700D02*
X71364700Y-24130000D01*
X43180000Y-7620000D02*
X43180000Y-8795300D01*
X45760000Y-20320000D02*
X45760000Y-11008000D01*
X45760000Y-11008000D02*
X43547300Y-8795300D01*
X43547300Y-8795300D02*
X43180000Y-8795300D01*
X43180000Y-23004700D02*
X45760000Y-20424700D01*
X45760000Y-20424700D02*
X45760000Y-20320000D01*
X43180000Y-24130000D02*
X43180000Y-23004700D01*
X240030000Y-54610000D02*
X240030000Y-55735300D01*
X240030000Y-54610000D02*
X240030000Y-53484700D01*
X240030000Y-24130000D02*
X240030000Y-25255300D01*
X240030000Y-25255300D02*
X241155300Y-26380600D01*
X241155300Y-26380600D02*
X241155300Y-52359400D01*
X241155300Y-52359400D02*
X240030000Y-53484700D01*
X140970000Y-24130000D02*
X140970000Y-25255300D01*
X140970000Y-38100000D02*
X140970000Y-36974700D01*
X140970000Y-36974700D02*
X139844700Y-35849400D01*
X139844700Y-35849400D02*
X139844700Y-26380600D01*
X139844700Y-26380600D02*
X140970000Y-25255300D01*
X140970000Y-38662600D02*
X140970000Y-38100000D01*
X140970000Y-38662600D02*
X140970000Y-39225300D01*
X140970000Y-52070000D02*
X140970000Y-50944700D01*
X140970000Y-39225300D02*
X139844700Y-40350600D01*
X139844700Y-40350600D02*
X139844700Y-49819400D01*
X139844700Y-49819400D02*
X140970000Y-50944700D01*
X45760000Y-41910000D02*
X43180000Y-44490000D01*
X43180000Y-44490000D02*
X43180000Y-45720000D01*
X185420000Y-66040000D02*
X185420000Y-64914700D01*
X186660000Y-22100000D02*
X186660000Y-23225300D01*
X185420000Y-66040000D02*
X185420000Y-67165300D01*
X159610000Y-126110000D02*
X169010000Y-135510000D01*
X169010000Y-135510000D02*
X173580000Y-135510000D01*
X76200000Y-109220000D02*
X76200000Y-124430000D01*
X76200000Y-124430000D02*
X74520000Y-126110000D01*
%TO.N,+5V*%
X163800000Y-13354700D02*
X171379000Y-5775700D01*
X171379000Y-5775700D02*
X171379000Y-4460700D01*
X171379000Y-4460700D02*
X168356500Y-1438200D01*
X168356500Y-1438200D02*
X163181400Y-1438200D01*
X120765600Y-87775600D02*
X126590000Y-93600000D01*
X111350000Y-93600000D02*
X117174400Y-87775600D01*
X117174400Y-87775600D02*
X120765600Y-87775600D01*
X121920000Y-45720000D02*
X120765600Y-46874400D01*
X120765600Y-46874400D02*
X120765600Y-87775600D01*
X123752700Y-19612600D02*
X121920000Y-17780000D01*
X125730000Y-29354700D02*
X124604700Y-28229400D01*
X124604700Y-28229400D02*
X124604700Y-20464700D01*
X124604700Y-20464700D02*
X123752700Y-19612600D01*
X123752700Y-19612600D02*
X125730000Y-17635300D01*
X125730000Y-16510000D02*
X125730000Y-17635300D01*
X228975300Y-135510000D02*
X228975300Y-132080600D01*
X228975300Y-132080600D02*
X227950000Y-131055300D01*
X227950000Y-137134700D02*
X228975300Y-136109400D01*
X228975300Y-136109400D02*
X228975300Y-135510000D01*
X228975300Y-135510000D02*
X240890000Y-135510000D01*
X207010000Y-39370000D02*
X207010000Y-38244700D01*
X207010000Y-38244700D02*
X205884700Y-37119400D01*
X205884700Y-37119400D02*
X205884700Y-12844700D01*
X205884700Y-12844700D02*
X203200000Y-10160000D01*
X203200000Y-10160000D02*
X198025300Y-4985300D01*
X198025300Y-4985300D02*
X198025300Y-3810000D01*
X196850000Y-3810000D02*
X198025300Y-3810000D01*
X163800000Y-14480000D02*
X163800000Y-13354700D01*
X160020000Y-33020000D02*
X160020000Y-30323900D01*
X160020000Y-30323900D02*
X163800000Y-26543900D01*
X163800000Y-26543900D02*
X163800000Y-23225300D01*
X125730000Y-30480000D02*
X125730000Y-29354700D01*
X125730000Y-31042600D02*
X125730000Y-30480000D01*
X163800000Y-57150000D02*
X163800000Y-56024700D01*
X163800000Y-49530000D02*
X163800000Y-50655300D01*
X163800000Y-50655300D02*
X163800000Y-56024700D01*
X50800000Y-21190100D02*
X50800000Y-24130000D01*
X47010000Y-19149300D02*
X48759200Y-19149300D01*
X48759200Y-19149300D02*
X50800000Y-21190100D01*
X57150000Y-20320000D02*
X51670100Y-20320000D01*
X51670100Y-20320000D02*
X50800000Y-21190100D01*
X47010000Y-19149300D02*
X47010000Y-27076000D01*
X47010000Y-27076000D02*
X43461300Y-30624700D01*
X43461300Y-30624700D02*
X43180000Y-30624700D01*
X43180000Y-6255300D02*
X43547300Y-6255300D01*
X43547300Y-6255300D02*
X47010000Y-9718000D01*
X47010000Y-9718000D02*
X47010000Y-19149300D01*
X43180000Y-31750000D02*
X43180000Y-32875300D01*
X51679900Y-41910000D02*
X50800000Y-42789900D01*
X50800000Y-42789900D02*
X50800000Y-45720000D01*
X57150000Y-41910000D02*
X51679900Y-41910000D01*
X43180000Y-32875300D02*
X51679900Y-41375200D01*
X51679900Y-41375200D02*
X51679900Y-41910000D01*
X43180000Y-31187300D02*
X43180000Y-30624700D01*
X43180000Y-31187300D02*
X43180000Y-31750000D01*
X163800000Y-22100000D02*
X163800000Y-23225300D01*
X160020000Y-15240000D02*
X163800000Y-19020000D01*
X163800000Y-19020000D02*
X163800000Y-22100000D01*
X125730000Y-31042600D02*
X125730000Y-31605300D01*
X125730000Y-44450000D02*
X125730000Y-43324700D01*
X125730000Y-31605300D02*
X124604700Y-32730600D01*
X124604700Y-32730600D02*
X124604700Y-42199400D01*
X124604700Y-42199400D02*
X125730000Y-43324700D01*
X173580000Y-124637300D02*
X173580000Y-96140000D01*
X173580000Y-96140000D02*
X176120000Y-93600000D01*
X173580000Y-126110000D02*
X173580000Y-124637300D01*
X173580000Y-124637300D02*
X159043000Y-124637300D01*
X159043000Y-124637300D02*
X158179400Y-125500900D01*
X158179400Y-125500900D02*
X158179400Y-134079400D01*
X158179400Y-134079400D02*
X159610000Y-135510000D01*
X227950000Y-130030000D02*
X227950000Y-131055300D01*
X227950000Y-138160000D02*
X227950000Y-137134700D01*
X163800000Y-39370000D02*
X163800000Y-49530000D01*
X227950000Y-130030000D02*
X227950000Y-129004700D01*
X221840000Y-93600000D02*
X221840000Y-122894700D01*
X221840000Y-122894700D02*
X227950000Y-129004700D01*
X43180000Y-5080000D02*
X43180000Y-6255300D01*
%TO.N,Net-(C9-Pad1)*%
X55807700Y-33092300D02*
X55880000Y-33020000D01*
X55880000Y-33020000D02*
X57150000Y-33020000D01*
X52070000Y-36830000D02*
X55807700Y-33092300D01*
X51925300Y-29210000D02*
X55807700Y-33092300D01*
X50800000Y-29210000D02*
X51925300Y-29210000D01*
%TO.N,Net-(C10-Pad1)*%
X50800000Y-31750000D02*
X50800000Y-30624700D01*
X48260000Y-20320000D02*
X48260000Y-28366000D01*
X48260000Y-28366000D02*
X50518700Y-30624700D01*
X50518700Y-30624700D02*
X50800000Y-30624700D01*
%TO.N,Net-(C11-Pad1)*%
X50800000Y-53340000D02*
X50800000Y-52214700D01*
X48260000Y-41910000D02*
X48260000Y-49956000D01*
X48260000Y-49956000D02*
X50518700Y-52214700D01*
X50518700Y-52214700D02*
X50800000Y-52214700D01*
%TO.N,Net-(C12-Pad1)*%
X43180000Y-48260000D02*
X43180000Y-47134700D01*
X34290000Y-36830000D02*
X34290000Y-37955300D01*
X34290000Y-37955300D02*
X42054700Y-45720000D01*
X42054700Y-45720000D02*
X42054700Y-46712800D01*
X42054700Y-46712800D02*
X42476600Y-47134700D01*
X42476600Y-47134700D02*
X43180000Y-47134700D01*
%TO.N,addr0*%
X168880000Y-31750000D02*
X168880000Y-30624700D01*
X152400000Y-5080000D02*
X152400000Y-6255300D01*
X152400000Y-6255300D02*
X152638500Y-6255300D01*
X152638500Y-6255300D02*
X167610000Y-21226800D01*
X167610000Y-21226800D02*
X167610000Y-22887600D01*
X167610000Y-22887600D02*
X168936300Y-24213900D01*
X168936300Y-24213900D02*
X168936300Y-30568400D01*
X168936300Y-30568400D02*
X168880000Y-30624700D01*
X229870000Y-24130000D02*
X229870000Y-36834700D01*
X229870000Y-36834700D02*
X230995300Y-37960000D01*
X230995300Y-37960000D02*
X230995300Y-54610000D01*
X229870000Y-54610000D02*
X230995300Y-54610000D01*
X230995300Y-54610000D02*
X230995300Y-54891300D01*
X230995300Y-54891300D02*
X249764000Y-73660000D01*
X249764000Y-73660000D02*
X252730000Y-73660000D01*
%TO.N,addr1*%
X171420000Y-31750000D02*
X171420000Y-30624700D01*
X149860000Y-5080000D02*
X151035300Y-5080000D01*
X151035300Y-5080000D02*
X151035300Y-4272000D01*
X151035300Y-4272000D02*
X151402700Y-3904600D01*
X151402700Y-3904600D02*
X153448400Y-3904600D01*
X153448400Y-3904600D02*
X160160100Y-10616300D01*
X160160100Y-10616300D02*
X160160100Y-13140000D01*
X160160100Y-13140000D02*
X167617600Y-20597500D01*
X167617600Y-20597500D02*
X169035800Y-20597500D01*
X169035800Y-20597500D02*
X170294700Y-21856400D01*
X170294700Y-21856400D02*
X170294700Y-29499400D01*
X170294700Y-29499400D02*
X171420000Y-30624700D01*
X227330000Y-24130000D02*
X227330000Y-25255300D01*
X227330000Y-53484700D02*
X228455300Y-52359400D01*
X228455300Y-52359400D02*
X228455300Y-37960000D01*
X228455300Y-37960000D02*
X227330000Y-36834700D01*
X227330000Y-36834700D02*
X227330000Y-25255300D01*
X227330000Y-54610000D02*
X227330000Y-63500000D01*
X227330000Y-63500000D02*
X237490000Y-73660000D01*
X227330000Y-54047300D02*
X227330000Y-54610000D01*
X227330000Y-54047300D02*
X227330000Y-53484700D01*
%TO.N,addr2*%
X173960000Y-30624700D02*
X172834700Y-29499400D01*
X172834700Y-29499400D02*
X172834700Y-21915000D01*
X172834700Y-21915000D02*
X166525100Y-15605400D01*
X166525100Y-15605400D02*
X163262400Y-15605400D01*
X163262400Y-15605400D02*
X162209400Y-14552400D01*
X162209400Y-14552400D02*
X162209400Y-12028700D01*
X162209400Y-12028700D02*
X153596600Y-3415900D01*
X153596600Y-3415900D02*
X149792100Y-3415900D01*
X149792100Y-3415900D02*
X148495300Y-4712700D01*
X148495300Y-4712700D02*
X148495300Y-5080000D01*
X173960000Y-31750000D02*
X173960000Y-30624700D01*
X147320000Y-5080000D02*
X148495300Y-5080000D01*
X224790000Y-25255300D02*
X223640400Y-26404900D01*
X223640400Y-26404900D02*
X223640400Y-52335100D01*
X223640400Y-52335100D02*
X224790000Y-53484700D01*
X224790000Y-54047300D02*
X222250000Y-56587300D01*
X222250000Y-56587300D02*
X222250000Y-73660000D01*
X224790000Y-54047300D02*
X224790000Y-53484700D01*
X224790000Y-54610000D02*
X224790000Y-54047300D01*
X224790000Y-24130000D02*
X224790000Y-25255300D01*
%TO.N,addr3*%
X196201400Y-34283700D02*
X196201400Y-49422800D01*
X196201400Y-49422800D02*
X207010000Y-60231400D01*
X207010000Y-73660000D02*
X207010000Y-60231400D01*
X144780000Y-6255300D02*
X159717600Y-21192900D01*
X159717600Y-21192900D02*
X159717600Y-27304000D01*
X144780000Y-5080000D02*
X144780000Y-6255300D01*
%TO.N,Net-(D4-Pad1)*%
X198120000Y-66040000D02*
X198120000Y-67165300D01*
X207010000Y-76200000D02*
X207010000Y-74974700D01*
X198120000Y-67165300D02*
X205929400Y-74974700D01*
X205929400Y-74974700D02*
X207010000Y-74974700D01*
%TO.N,addr4*%
X142240000Y-6255300D02*
X157225700Y-21241000D01*
X157225700Y-21241000D02*
X157225700Y-26713100D01*
X142240000Y-5080000D02*
X142240000Y-6255300D01*
X219710000Y-54610000D02*
X219710000Y-53484700D01*
X219710000Y-24130000D02*
X219710000Y-25255300D01*
X219710000Y-25255300D02*
X220835300Y-26380600D01*
X220835300Y-26380600D02*
X220835300Y-52359400D01*
X220835300Y-52359400D02*
X219710000Y-53484700D01*
%TO.N,Net-(D5-Pad1)*%
X195580000Y-66040000D02*
X195580000Y-71624200D01*
X195580000Y-71624200D02*
X192229500Y-74974700D01*
X192229500Y-74974700D02*
X191770000Y-74974700D01*
X191770000Y-76200000D02*
X191770000Y-74974700D01*
%TO.N,addr5*%
X139700000Y-6255300D02*
X155737900Y-22293200D01*
X155737900Y-22293200D02*
X155737900Y-26775800D01*
X176530000Y-73660000D02*
X176530000Y-67119600D01*
X176530000Y-67119600D02*
X180853800Y-62795800D01*
X217170000Y-54610000D02*
X217170000Y-53484700D01*
X217170000Y-24130000D02*
X217170000Y-25255300D01*
X217170000Y-25255300D02*
X217620400Y-25705700D01*
X217620400Y-25705700D02*
X217620400Y-31901200D01*
X217620400Y-31901200D02*
X218295300Y-32576100D01*
X218295300Y-32576100D02*
X218295300Y-52359400D01*
X218295300Y-52359400D02*
X217170000Y-53484700D01*
X139700000Y-5080000D02*
X139700000Y-6255300D01*
%TO.N,addr6*%
X168939700Y-59865100D02*
X168939700Y-66010300D01*
X168939700Y-66010300D02*
X161290000Y-73660000D01*
X137160000Y-6255300D02*
X153384600Y-22479900D01*
X153384600Y-22479900D02*
X153384600Y-25227700D01*
X137160000Y-5080000D02*
X137160000Y-6255300D01*
X214630000Y-25255300D02*
X215755300Y-26380600D01*
X215755300Y-26380600D02*
X215755300Y-52359400D01*
X215755300Y-52359400D02*
X214630000Y-53484700D01*
X214630000Y-54610000D02*
X214630000Y-53484700D01*
X214630000Y-24130000D02*
X214630000Y-25255300D01*
%TO.N,addr7*%
X212090000Y-54610000D02*
X212090000Y-53484700D01*
X212090000Y-24130000D02*
X212090000Y-25255300D01*
X212090000Y-25255300D02*
X212540400Y-25705700D01*
X212540400Y-25705700D02*
X212540400Y-32219600D01*
X212540400Y-32219600D02*
X213215300Y-32894500D01*
X213215300Y-32894500D02*
X213215300Y-52359400D01*
X213215300Y-52359400D02*
X212090000Y-53484700D01*
X146050000Y-24024400D02*
X146050000Y-17685300D01*
X146050000Y-17685300D02*
X134620000Y-6255300D01*
X146050000Y-73660000D02*
X146445600Y-73264400D01*
X146445600Y-73264400D02*
X146445600Y-24420000D01*
X146445600Y-24420000D02*
X146050000Y-24024400D01*
X134620000Y-5080000D02*
X134620000Y-6255300D01*
%TO.N,addr8*%
X213504700Y-8890000D02*
X213504700Y-8608700D01*
X213504700Y-8608700D02*
X210656600Y-5760600D01*
X210656600Y-5760600D02*
X205019100Y-5760600D01*
X213504700Y-8890000D02*
X213504700Y-26988500D01*
X213504700Y-26988500D02*
X214630000Y-28113800D01*
X214630000Y-28113800D02*
X214630000Y-39370000D01*
X168880000Y-13354700D02*
X171833700Y-13354700D01*
X171833700Y-13354700D02*
X175959000Y-9229400D01*
X168880000Y-14480000D02*
X168880000Y-13354700D01*
X214630000Y-8890000D02*
X213504700Y-8890000D01*
X128270000Y-5080000D02*
X128270000Y-6255300D01*
X128270000Y-6255300D02*
X129419400Y-7404700D01*
X129419400Y-7404700D02*
X129419400Y-71240600D01*
X129419400Y-71240600D02*
X127000000Y-73660000D01*
%TO.N,addr9*%
X216044700Y-8890000D02*
X216044700Y-8608700D01*
X216044700Y-8608700D02*
X212471300Y-5035300D01*
X212471300Y-5035300D02*
X203876900Y-5035300D01*
X203876900Y-5035300D02*
X202270600Y-6641600D01*
X125730000Y-5080000D02*
X125730000Y-6255300D01*
X125730000Y-6255300D02*
X111760000Y-20225300D01*
X111760000Y-20225300D02*
X111760000Y-73660000D01*
X216157300Y-8890000D02*
X215980400Y-9066900D01*
X215980400Y-9066900D02*
X215980400Y-25030100D01*
X215980400Y-25030100D02*
X217170000Y-26219700D01*
X217170000Y-26219700D02*
X217170000Y-39370000D01*
X216157300Y-8890000D02*
X216044700Y-8890000D01*
X217170000Y-8890000D02*
X216157300Y-8890000D01*
X171420000Y-14480000D02*
X172545300Y-14480000D01*
X172545300Y-14480000D02*
X172545300Y-14198700D01*
X172545300Y-14198700D02*
X176266700Y-10477300D01*
X176266700Y-10477300D02*
X177108500Y-10477300D01*
%TO.N,addr10*%
X123190000Y-6255300D02*
X97863700Y-31581600D01*
X97863700Y-31581600D02*
X97863700Y-72316300D01*
X97863700Y-72316300D02*
X96520000Y-73660000D01*
X224790000Y-39370000D02*
X224790000Y-38244700D01*
X224790000Y-8890000D02*
X224790000Y-10015300D01*
X224790000Y-10015300D02*
X225966000Y-11191300D01*
X225966000Y-11191300D02*
X225966000Y-26631800D01*
X225966000Y-26631800D02*
X225256300Y-27341500D01*
X225256300Y-27341500D02*
X225256300Y-37778400D01*
X225256300Y-37778400D02*
X224790000Y-38244700D01*
X123190000Y-5080000D02*
X123190000Y-6255300D01*
%TO.N,addr11*%
X176500000Y-15605300D02*
X177625300Y-16730600D01*
X177625300Y-16730600D02*
X177625300Y-25106100D01*
X177625300Y-25106100D02*
X182850000Y-30330800D01*
X182850000Y-30330800D02*
X182850000Y-35129200D01*
X182850000Y-35129200D02*
X185379200Y-37658400D01*
X81280000Y-73660000D02*
X87467000Y-67473000D01*
X87467000Y-67473000D02*
X87467000Y-39438300D01*
X87467000Y-39438300D02*
X120650000Y-6255300D01*
X219710000Y-8890000D02*
X219710000Y-10015300D01*
X219710000Y-39370000D02*
X219710000Y-29763100D01*
X219710000Y-29763100D02*
X218584700Y-28637800D01*
X218584700Y-28637800D02*
X218584700Y-11140600D01*
X218584700Y-11140600D02*
X219710000Y-10015300D01*
X176500000Y-14480000D02*
X176500000Y-15605300D01*
X120650000Y-5080000D02*
X120650000Y-6255300D01*
%TO.N,Net-(D12-Pad1)*%
X70975300Y-66040000D02*
X70975300Y-68120500D01*
X70975300Y-68120500D02*
X79054800Y-76200000D01*
X79054800Y-76200000D02*
X80054700Y-76200000D01*
X81280000Y-76200000D02*
X80054700Y-76200000D01*
X69850000Y-66040000D02*
X70975300Y-66040000D01*
%TO.N,addr12*%
X180165300Y-14480000D02*
X180165300Y-14761300D01*
X180165300Y-14761300D02*
X182715800Y-17311800D01*
X182715800Y-17311800D02*
X189033900Y-17311800D01*
X209550000Y-54610000D02*
X209550000Y-53484700D01*
X209550000Y-24130000D02*
X209550000Y-25255300D01*
X209550000Y-25255300D02*
X210000400Y-25705700D01*
X210000400Y-25705700D02*
X210000400Y-31901200D01*
X210000400Y-31901200D02*
X210675300Y-32576100D01*
X210675300Y-32576100D02*
X210675300Y-52359400D01*
X210675300Y-52359400D02*
X209550000Y-53484700D01*
X66040000Y-73660000D02*
X66040000Y-49324900D01*
X66040000Y-49324900D02*
X107628500Y-7736400D01*
X107628500Y-7736400D02*
X114645800Y-7736400D01*
X114645800Y-7736400D02*
X116934700Y-5447500D01*
X116934700Y-5447500D02*
X116934700Y-5080000D01*
X179040000Y-14480000D02*
X180165300Y-14480000D01*
X118110000Y-5080000D02*
X116934700Y-5080000D01*
%TO.N,Net-(D13-Pad1)*%
X66040000Y-76200000D02*
X66040000Y-74974700D01*
X67310000Y-66040000D02*
X67310000Y-74164200D01*
X67310000Y-74164200D02*
X66499500Y-74974700D01*
X66499500Y-74974700D02*
X66040000Y-74974700D01*
%TO.N,addr13*%
X50800000Y-73660000D02*
X50800000Y-63897700D01*
X50800000Y-63897700D02*
X107992100Y-6705600D01*
X107992100Y-6705600D02*
X113070400Y-6705600D01*
X113070400Y-6705600D02*
X114394700Y-5381300D01*
X114394700Y-5381300D02*
X114394700Y-5080000D01*
X115570000Y-5080000D02*
X114394700Y-5080000D01*
X212090000Y-8890000D02*
X212090000Y-10015300D01*
X212090000Y-10015300D02*
X210956700Y-11148600D01*
X210956700Y-11148600D02*
X210956700Y-26343700D01*
X210956700Y-26343700D02*
X212090000Y-27477000D01*
X212090000Y-27477000D02*
X212090000Y-39370000D01*
%TO.N,addr14*%
X113030000Y-5080000D02*
X111854700Y-5080000D01*
X111854700Y-5080000D02*
X111854700Y-5447400D01*
X111854700Y-5447400D02*
X111046800Y-6255300D01*
X111046800Y-6255300D02*
X107605500Y-6255300D01*
X107605500Y-6255300D02*
X40200800Y-73660000D01*
X40200800Y-73660000D02*
X35560000Y-73660000D01*
X207010000Y-25255300D02*
X207010000Y-25892100D01*
X207010000Y-25892100D02*
X208135300Y-27017400D01*
X208135300Y-27017400D02*
X208135300Y-52359400D01*
X208135300Y-52359400D02*
X207010000Y-53484700D01*
X207010000Y-24130000D02*
X207010000Y-25255300D01*
X207010000Y-54610000D02*
X207010000Y-53484700D01*
%TO.N,addr15*%
X187785300Y-14480000D02*
X190081400Y-16776100D01*
X190081400Y-16776100D02*
X190081400Y-23166400D01*
X186660000Y-14480000D02*
X187785300Y-14480000D01*
X110490000Y-5080000D02*
X111669900Y-3900100D01*
X111669900Y-3900100D02*
X126287500Y-3900100D01*
X126287500Y-3900100D02*
X126926100Y-4538700D01*
X126926100Y-4538700D02*
X126926100Y-21808600D01*
X126926100Y-21808600D02*
X125730000Y-23004700D01*
X110490000Y-5080000D02*
X105604700Y-5080000D01*
X105604700Y-5080000D02*
X78023400Y-32661300D01*
X78023400Y-32661300D02*
X77638400Y-32661300D01*
X77638400Y-32661300D02*
X65440600Y-44859100D01*
X65440600Y-44859100D02*
X65440600Y-46506400D01*
X65440600Y-46506400D02*
X65015800Y-46931200D01*
X65015800Y-46931200D02*
X62726900Y-46931200D01*
X62726900Y-46931200D02*
X48544200Y-61113900D01*
X48544200Y-61113900D02*
X32866100Y-61113900D01*
X32866100Y-61113900D02*
X20320000Y-73660000D01*
X125730000Y-24130000D02*
X125730000Y-23004700D01*
%TO.N,wb0*%
X184055300Y-5080000D02*
X184111000Y-5080000D01*
X184111000Y-5080000D02*
X187495900Y-1695100D01*
X187495900Y-1695100D02*
X226864200Y-1695100D01*
X226864200Y-1695100D02*
X233543300Y-8374200D01*
X233543300Y-8374200D02*
X233543300Y-11103700D01*
X233543300Y-11103700D02*
X232410000Y-12237000D01*
X232410000Y-12237000D02*
X232410000Y-24130000D01*
X182880000Y-5080000D02*
X184055300Y-5080000D01*
X232410000Y-54610000D02*
X232410000Y-53484700D01*
X232410000Y-24130000D02*
X232410000Y-36834700D01*
X232410000Y-36834700D02*
X233535300Y-37960000D01*
X233535300Y-37960000D02*
X233535300Y-52359400D01*
X233535300Y-52359400D02*
X232410000Y-53484700D01*
X168880000Y-49530000D02*
X168880000Y-50655300D01*
X163748600Y-62079500D02*
X132697700Y-93130400D01*
X163748600Y-59770800D02*
X163748600Y-62079500D01*
X165164400Y-58355000D02*
X163748600Y-59770800D01*
X168880000Y-50655300D02*
X165164400Y-54370900D01*
X165164400Y-54370900D02*
X165164400Y-58355000D01*
X132697700Y-93327700D02*
X131462300Y-93327700D01*
X132697700Y-93130400D02*
X132697700Y-93327700D01*
X131462300Y-93327700D02*
X130810000Y-93980000D01*
X130810000Y-93980000D02*
X130810000Y-105410000D01*
X130810000Y-105410000D02*
X120650000Y-115570000D01*
%TO.N,wb1*%
X188465700Y-52498100D02*
X188195100Y-52227500D01*
X188195100Y-52227500D02*
X188195100Y-44433600D01*
X188195100Y-44433600D02*
X185510100Y-41748600D01*
X185510100Y-41748600D02*
X185510100Y-38553300D01*
X185510100Y-38553300D02*
X186104500Y-37958900D01*
X186104500Y-37958900D02*
X186104500Y-37357900D01*
X186104500Y-37357900D02*
X185510200Y-36763600D01*
X185510200Y-36763600D02*
X185510100Y-36763600D01*
X185510100Y-36763600D02*
X185510100Y-29270400D01*
X185510100Y-29270400D02*
X180310000Y-24070300D01*
X180310000Y-24070300D02*
X180310000Y-17550200D01*
X180310000Y-17550200D02*
X177914600Y-15154800D01*
X177914600Y-15154800D02*
X177914600Y-8680700D01*
X177914600Y-8680700D02*
X180340000Y-6255300D01*
X105410000Y-115570000D02*
X112399800Y-122559800D01*
X112399800Y-122559800D02*
X127358300Y-122559800D01*
X127358300Y-122559800D02*
X139513200Y-110404900D01*
X165010000Y-61468300D02*
X165010000Y-61235600D01*
X171420000Y-49530000D02*
X171420000Y-53257300D01*
X171420000Y-53257300D02*
X169548100Y-55129200D01*
X180340000Y-5080000D02*
X180340000Y-6255300D01*
X234950000Y-54610000D02*
X234950000Y-53484700D01*
X234950000Y-24130000D02*
X234950000Y-36834700D01*
X234950000Y-36834700D02*
X236075300Y-37960000D01*
X236075300Y-37960000D02*
X236075300Y-52359400D01*
X236075300Y-52359400D02*
X234950000Y-53484700D01*
X139513200Y-110404900D02*
X139513200Y-109406800D01*
X140544150Y-108375850D02*
X140544150Y-85934150D01*
X139513200Y-109406800D02*
X140544150Y-108375850D01*
X140544150Y-85934150D02*
X165010000Y-61468300D01*
%TO.N,Net-(D18-Pad1)*%
X93980000Y-109220000D02*
X95105300Y-109220000D01*
X95105300Y-109220000D02*
X95105300Y-109501300D01*
X95105300Y-109501300D02*
X103714000Y-118110000D01*
X103714000Y-118110000D02*
X105410000Y-118110000D01*
%TO.N,wb2*%
X237490000Y-54610000D02*
X237490000Y-53484700D01*
X237490000Y-24130000D02*
X237490000Y-36834700D01*
X237490000Y-36834700D02*
X238615300Y-37960000D01*
X238615300Y-37960000D02*
X238615300Y-52359400D01*
X238615300Y-52359400D02*
X237490000Y-53484700D01*
X177800000Y-5080000D02*
X178975300Y-5080000D01*
X178975300Y-5080000D02*
X178975300Y-4712700D01*
X178975300Y-4712700D02*
X179802600Y-3885400D01*
X179802600Y-3885400D02*
X180852300Y-3885400D01*
X180852300Y-3885400D02*
X181704600Y-4737700D01*
X181704600Y-4737700D02*
X181704600Y-6094600D01*
X181704600Y-6094600D02*
X190646100Y-15036100D01*
X113591400Y-56717700D02*
X113591400Y-78218200D01*
X113591400Y-78218200D02*
X90170000Y-101639600D01*
X90170000Y-101639600D02*
X90170000Y-115570000D01*
%TO.N,Net-(D19-Pad1)*%
X90170000Y-118110000D02*
X90170000Y-116884700D01*
X91440000Y-109220000D02*
X91440000Y-116074200D01*
X91440000Y-116074200D02*
X90629500Y-116884700D01*
X90629500Y-116884700D02*
X90170000Y-116884700D01*
%TO.N,wb3*%
X176435300Y-5080000D02*
X176435300Y-4712700D01*
X176435300Y-4712700D02*
X178022000Y-3126000D01*
X178022000Y-3126000D02*
X185428100Y-3126000D01*
X185428100Y-3126000D02*
X187359100Y-1195000D01*
X187359100Y-1195000D02*
X231414000Y-1195000D01*
X231414000Y-1195000D02*
X238904700Y-8685700D01*
X238904700Y-8685700D02*
X238904700Y-8890000D01*
X74930000Y-115570000D02*
X74930000Y-87591000D01*
X74930000Y-87591000D02*
X97115600Y-65405400D01*
X97115600Y-65405400D02*
X97115600Y-54270900D01*
X240030000Y-8890000D02*
X238904700Y-8890000D01*
X175260000Y-5080000D02*
X176435300Y-5080000D01*
X240030000Y-39370000D02*
X240030000Y-38244700D01*
X240030000Y-8890000D02*
X240030000Y-10015300D01*
X240030000Y-10015300D02*
X238904700Y-11140600D01*
X238904700Y-11140600D02*
X238904700Y-37119400D01*
X238904700Y-37119400D02*
X240030000Y-38244700D01*
%TO.N,wb4*%
X173895300Y-5080000D02*
X173895300Y-4769000D01*
X173895300Y-4769000D02*
X176263600Y-2400700D01*
X176263600Y-2400700D02*
X185127600Y-2400700D01*
X179040000Y-49530000D02*
X179040000Y-50655300D01*
X179040000Y-50655300D02*
X178793800Y-50655300D01*
X178793800Y-50655300D02*
X172690000Y-56759100D01*
X172690000Y-56759100D02*
X172690000Y-80411400D01*
X172690000Y-80411400D02*
X162427000Y-90674400D01*
X162427000Y-90674400D02*
X162427000Y-94074500D01*
X162427000Y-94074500D02*
X161271800Y-95229700D01*
X161271800Y-95229700D02*
X160037400Y-95229700D01*
X160037400Y-95229700D02*
X122096400Y-133170700D01*
X122096400Y-133170700D02*
X80999300Y-133170700D01*
X80999300Y-133170700D02*
X77208600Y-129380000D01*
X77208600Y-129380000D02*
X68662800Y-129380000D01*
X68662800Y-129380000D02*
X58464600Y-119181800D01*
X58464600Y-119181800D02*
X58464600Y-116795400D01*
X58464600Y-116795400D02*
X59690000Y-115570000D01*
X172720000Y-5080000D02*
X173895300Y-5080000D01*
X237490000Y-39370000D02*
X237490000Y-38244700D01*
X237490000Y-8890000D02*
X237490000Y-10015300D01*
X237490000Y-10015300D02*
X236364700Y-11140600D01*
X236364700Y-11140600D02*
X236364700Y-37119400D01*
X236364700Y-37119400D02*
X237490000Y-38244700D01*
%TO.N,Net-(D21-Pad1)*%
X59690000Y-118110000D02*
X60915300Y-118110000D01*
X86360000Y-109220000D02*
X86360000Y-116328400D01*
X86360000Y-116328400D02*
X75145800Y-127542600D01*
X75145800Y-127542600D02*
X70347900Y-127542600D01*
X70347900Y-127542600D02*
X60915300Y-118110000D01*
%TO.N,wb5*%
X244297600Y-6609500D02*
X238380900Y-692800D01*
X238380900Y-692800D02*
X162901100Y-692800D01*
X162901100Y-692800D02*
X162456100Y-1137800D01*
X162456100Y-1137800D02*
X162456100Y-1738600D01*
X162456100Y-1738600D02*
X164622200Y-3904700D01*
X164622200Y-3904700D02*
X170180000Y-3904700D01*
X170180000Y-5080000D02*
X170180000Y-3904700D01*
X44450000Y-115570000D02*
X44450000Y-112758600D01*
X44450000Y-112758600D02*
X68483600Y-88725000D01*
X68483600Y-88725000D02*
X72326600Y-88725000D01*
X72326600Y-88725000D02*
X96383300Y-64668300D01*
X96383300Y-64668300D02*
X96383300Y-60690900D01*
X181580000Y-50655300D02*
X180967500Y-50655300D01*
X180967500Y-50655300D02*
X177219000Y-54403800D01*
X181580000Y-49530000D02*
X181580000Y-50655300D01*
X234950000Y-38244700D02*
X233824700Y-37119400D01*
X233824700Y-37119400D02*
X233824700Y-11777500D01*
X233824700Y-11777500D02*
X234950000Y-10652200D01*
X234950000Y-10652200D02*
X234950000Y-10015300D01*
X234950000Y-39370000D02*
X234950000Y-38244700D01*
X234950000Y-8890000D02*
X234950000Y-10015300D01*
%TO.N,wb6*%
X231284700Y-8890000D02*
X231284700Y-8608700D01*
X231284700Y-8608700D02*
X224821500Y-2145500D01*
X224821500Y-2145500D02*
X192617500Y-2145500D01*
X192617500Y-2145500D02*
X188507600Y-6255400D01*
X29210000Y-115570000D02*
X41001700Y-115570000D01*
X41001700Y-115570000D02*
X69284100Y-87287600D01*
X69284100Y-87287600D02*
X73126900Y-87287600D01*
X73126900Y-87287600D02*
X95486900Y-64927600D01*
X95486900Y-64927600D02*
X95486900Y-62010900D01*
X184120000Y-49530000D02*
X184120000Y-52313700D01*
X184120000Y-52313700D02*
X182030700Y-54403000D01*
X232410000Y-8890000D02*
X231284700Y-8890000D01*
X232410000Y-8890000D02*
X232410000Y-10015300D01*
X232410000Y-39370000D02*
X232410000Y-38244700D01*
X232410000Y-10015300D02*
X231284700Y-11140600D01*
X231284700Y-11140600D02*
X231284700Y-37119400D01*
X231284700Y-37119400D02*
X232410000Y-38244700D01*
%TO.N,wb7*%
X229870000Y-39370000D02*
X229870000Y-38244700D01*
X229870000Y-8890000D02*
X229870000Y-10015300D01*
X229870000Y-10015300D02*
X228744700Y-11140600D01*
X228744700Y-11140600D02*
X228744700Y-37119400D01*
X228744700Y-37119400D02*
X229870000Y-38244700D01*
%TO.N,CLK*%
X25400000Y-21590000D02*
X19079600Y-27910400D01*
X19079600Y-27910400D02*
X19079600Y-77259900D01*
X19079600Y-77259900D02*
X32145100Y-90325400D01*
X32145100Y-90325400D02*
X44532900Y-90325400D01*
X44532900Y-90325400D02*
X54608100Y-100400600D01*
X26654500Y-10160000D02*
X26654500Y-20335500D01*
X26654500Y-20335500D02*
X25400000Y-21590000D01*
X25400000Y-7620000D02*
X26654500Y-8874500D01*
X26654500Y-8874500D02*
X26654500Y-10160000D01*
X35654700Y-10160000D02*
X26654500Y-10160000D01*
X36830000Y-10160000D02*
X35654700Y-10160000D01*
%TO.N,reset*%
X240890000Y-130810000D02*
X237615400Y-127535400D01*
X237615400Y-127535400D02*
X237615400Y-107359400D01*
X237615400Y-107359400D02*
X219249800Y-88993800D01*
X219249800Y-88993800D02*
X219249800Y-70615500D01*
X219249800Y-70615500D02*
X199980400Y-51346100D01*
X199980400Y-51346100D02*
X199980400Y-33221500D01*
X199980400Y-33221500D02*
X191385200Y-24626300D01*
%TO.N,fpcontrol*%
X125730000Y-53195300D02*
X124692300Y-54233000D01*
X124692300Y-54233000D02*
X124692300Y-89655100D01*
X124692300Y-89655100D02*
X128022900Y-92985700D01*
X128022900Y-92985700D02*
X128022900Y-101021500D01*
X128022900Y-101021500D02*
X126440100Y-102604300D01*
X125730000Y-52070000D02*
X125730000Y-53195300D01*
X167465300Y-14480000D02*
X167465300Y-14761400D01*
X167465300Y-14761400D02*
X168309200Y-15605300D01*
X168309200Y-15605300D02*
X169137300Y-15605300D01*
X169137300Y-15605300D02*
X175085400Y-21553400D01*
X175085400Y-21553400D02*
X175085400Y-32219900D01*
X175085400Y-32219900D02*
X174410800Y-32894500D01*
X174410800Y-32894500D02*
X168328500Y-32894500D01*
X168328500Y-32894500D02*
X167465300Y-32031300D01*
X167465300Y-32031300D02*
X167465300Y-31750000D01*
X166340000Y-14480000D02*
X167465300Y-14480000D01*
X166340000Y-31750000D02*
X167465300Y-31750000D01*
X130810000Y-44450000D02*
X130810000Y-43324700D01*
X133350000Y-24130000D02*
X133350000Y-25255300D01*
X133350000Y-25255300D02*
X131935300Y-26670000D01*
X131935300Y-26670000D02*
X131935300Y-42199400D01*
X131935300Y-42199400D02*
X130810000Y-43324700D01*
%TO.N,memwr*%
X76200000Y-6255300D02*
X77722900Y-7778200D01*
X77722900Y-7778200D02*
X77722900Y-31936000D01*
X76200000Y-5080000D02*
X76200000Y-6255300D01*
%TO.N,memrd*%
X135890000Y-52070000D02*
X137015300Y-52070000D01*
X73660000Y-5080000D02*
X74835300Y-5080000D01*
X74835300Y-5080000D02*
X74835300Y-4712700D01*
X74835300Y-4712700D02*
X76108200Y-3439800D01*
X76108200Y-3439800D02*
X128809500Y-3439800D01*
X128809500Y-3439800D02*
X134620000Y-9250300D01*
X134620000Y-9250300D02*
X134620000Y-17080900D01*
X134620000Y-17080900D02*
X138938500Y-21399400D01*
X138938500Y-21399400D02*
X139858700Y-21399400D01*
X139858700Y-21399400D02*
X142144100Y-23684800D01*
X142144100Y-23684800D02*
X142144100Y-52554600D01*
X142144100Y-52554600D02*
X141503400Y-53195300D01*
X141503400Y-53195300D02*
X137859200Y-53195300D01*
X137859200Y-53195300D02*
X137015300Y-52351400D01*
X137015300Y-52351400D02*
X137015300Y-52070000D01*
%TO.N,Net-(J7-Pad1)*%
X15240000Y-25400000D02*
X13842800Y-26797200D01*
X13842800Y-26797200D02*
X13842800Y-51407200D01*
X13842800Y-51407200D02*
X11020000Y-54230000D01*
X15240000Y-25400000D02*
X15240000Y-13825300D01*
X15240000Y-13825300D02*
X16510000Y-12555300D01*
X16510000Y-11430000D02*
X16510000Y-12555300D01*
%TO.N,wr*%
X196850000Y-7714700D02*
X196482700Y-7714700D01*
X196482700Y-7714700D02*
X195674600Y-6906600D01*
X195674600Y-6906600D02*
X195674600Y-2767400D01*
X195674600Y-2767400D02*
X195807400Y-2634600D01*
X195807400Y-2634600D02*
X197838900Y-2634600D01*
X197838900Y-2634600D02*
X201545300Y-6341000D01*
X201545300Y-6341000D02*
X201545300Y-6942000D01*
X201545300Y-6942000D02*
X201970200Y-7366900D01*
X201970200Y-7366900D02*
X202054000Y-7366900D01*
X202054000Y-7366900D02*
X208360400Y-13673300D01*
X208360400Y-13673300D02*
X208360400Y-26287400D01*
X208360400Y-26287400D02*
X209550000Y-27477000D01*
X209550000Y-27477000D02*
X209550000Y-39370000D01*
X196850000Y-8890000D02*
X196850000Y-7714700D01*
%TO.N,Net-(R1-Pad1)*%
X138430000Y-17635300D02*
X145712600Y-24917900D01*
X145712600Y-24917900D02*
X145712600Y-46352500D01*
X138430000Y-16510000D02*
X138430000Y-17635300D01*
X220570000Y-135510000D02*
X208044300Y-122984300D01*
X208044300Y-122984300D02*
X208044300Y-97229900D01*
X208044300Y-97229900D02*
X190521400Y-79707000D01*
X190521400Y-79707000D02*
X190521400Y-67818800D01*
X190521400Y-67818800D02*
X191692000Y-66648200D01*
X191692000Y-66648200D02*
X191692000Y-48103900D01*
X191692000Y-48103900D02*
X190437900Y-46849800D01*
%TO.N,Net-(R2-Pad1)*%
X220570000Y-126110000D02*
X208573200Y-114113200D01*
X208573200Y-114113200D02*
X208573200Y-60710200D01*
X208573200Y-60710200D02*
X197353400Y-49490400D01*
X197353400Y-49490400D02*
X197353400Y-34021300D01*
X197353400Y-34021300D02*
X188724300Y-25392200D01*
%TO.N,Net-(R5-Pad2)*%
X55880000Y-49285300D02*
X56124700Y-49530000D01*
X50800000Y-48260000D02*
X54854700Y-48260000D01*
X54854700Y-48260000D02*
X55880000Y-49285300D01*
X55880000Y-49285300D02*
X57150000Y-48015300D01*
X57150000Y-46990000D02*
X57150000Y-48015300D01*
X57150000Y-49530000D02*
X56124700Y-49530000D01*
%TO.N,Net-(SW2-Pad2)*%
X237080000Y-88900000D02*
X237080000Y-88746600D01*
X237080000Y-88746600D02*
X223308000Y-74974600D01*
X223308000Y-74974600D02*
X221780600Y-74974600D01*
X221780600Y-74974600D02*
X220865200Y-74059200D01*
X220865200Y-74059200D02*
X220865200Y-70525300D01*
X220865200Y-70525300D02*
X205884700Y-55544800D01*
X205884700Y-55544800D02*
X205884700Y-39250700D01*
X205884700Y-39250700D02*
X203990500Y-37356500D01*
%TO.N,Net-(SW3-Pad2)*%
X221840000Y-88900000D02*
X220228000Y-87288000D01*
X220228000Y-87288000D02*
X220228000Y-70597800D01*
X220228000Y-70597800D02*
X202265000Y-52634800D01*
X202265000Y-52634800D02*
X202265000Y-48025400D01*
X171420000Y-39370000D02*
X171420000Y-42278300D01*
X171420000Y-42278300D02*
X177167100Y-48025400D01*
%TO.N,Net-(SW4-Pad2)*%
X206600000Y-88900000D02*
X196850000Y-79150000D01*
X196850000Y-79150000D02*
X196850000Y-51934700D01*
X196850000Y-51934700D02*
X191163000Y-46247700D01*
X191163000Y-46247700D02*
X191163000Y-43974700D01*
X191163000Y-43974700D02*
X189128000Y-41939700D01*
X173960000Y-39370000D02*
X173960000Y-41760800D01*
X173960000Y-41760800D02*
X174138900Y-41939700D01*
%TO.N,Net-(SW5-Pad2)*%
X176500000Y-39370000D02*
X178122200Y-37747800D01*
X178122200Y-37747800D02*
X181563900Y-37747800D01*
X181563900Y-37747800D02*
X182850000Y-39033900D01*
X182850000Y-39033900D02*
X182850000Y-41905300D01*
X182850000Y-41905300D02*
X185249900Y-44305200D01*
X185249900Y-44305200D02*
X185249900Y-61117300D01*
X185249900Y-61117300D02*
X183798300Y-62568900D01*
X183798300Y-62568900D02*
X183798300Y-81338300D01*
X183798300Y-81338300D02*
X191360000Y-88900000D01*
%TO.N,Net-(SW6-Pad2)*%
X179040000Y-40495300D02*
X182706400Y-44161700D01*
X182706400Y-44161700D02*
X182706400Y-52701600D01*
X182706400Y-52701600D02*
X181305400Y-54102600D01*
X181305400Y-54102600D02*
X181305400Y-55157100D01*
X181305400Y-55157100D02*
X182757500Y-56609200D01*
X182757500Y-56609200D02*
X182757500Y-61699000D01*
X182757500Y-61699000D02*
X182037300Y-62419200D01*
X182037300Y-62419200D02*
X182037300Y-82982700D01*
X182037300Y-82982700D02*
X176120000Y-88900000D01*
X179040000Y-39370000D02*
X179040000Y-40495300D01*
%TO.N,Net-(SW7-Pad2)*%
X181580000Y-39370000D02*
X180454700Y-39370000D01*
X160880000Y-88900000D02*
X170273500Y-79506500D01*
X170273500Y-79506500D02*
X170273500Y-56652700D01*
X170273500Y-56652700D02*
X173426900Y-53499300D01*
X173426900Y-53499300D02*
X174125800Y-53499300D01*
X174125800Y-53499300D02*
X177914500Y-49710600D01*
X177914500Y-49710600D02*
X177914500Y-38894500D01*
X177914500Y-38894500D02*
X178564300Y-38244700D01*
X178564300Y-38244700D02*
X179610800Y-38244700D01*
X179610800Y-38244700D02*
X180454700Y-39088600D01*
X180454700Y-39088600D02*
X180454700Y-39370000D01*
%TO.N,Net-(SW8-Pad2)*%
X145640000Y-88900000D02*
X156966600Y-77573400D01*
X156966600Y-77573400D02*
X156966600Y-71103800D01*
X156966600Y-71103800D02*
X166185600Y-61884800D01*
X166185600Y-61884800D02*
X166185600Y-60611000D01*
X166185600Y-60611000D02*
X167544100Y-59252500D01*
X167544100Y-59252500D02*
X167544100Y-53103900D01*
X167544100Y-53103900D02*
X170150000Y-50498000D01*
X170150000Y-50498000D02*
X170150000Y-39043000D01*
X170150000Y-39043000D02*
X171895600Y-37297400D01*
X171895600Y-37297400D02*
X182047400Y-37297400D01*
X182047400Y-37297400D02*
X184120000Y-39370000D01*
%TO.N,Net-(SW9-Pad2)*%
X126590000Y-88900000D02*
X140515400Y-74974600D01*
X140515400Y-74974600D02*
X146496900Y-74974600D01*
X146496900Y-74974600D02*
X161595700Y-59875800D01*
X161595700Y-59875800D02*
X161595700Y-29385100D01*
X161595700Y-29385100D02*
X166340000Y-24640800D01*
X166340000Y-24640800D02*
X166340000Y-23225300D01*
X166340000Y-22100000D02*
X166340000Y-23225300D01*
%TO.N,Net-(SW10-Pad2)*%
X111350000Y-88900000D02*
X119499600Y-80750400D01*
X119499600Y-80750400D02*
X119499600Y-24756500D01*
X119499600Y-24756500D02*
X121113100Y-23143000D01*
%TO.N,Net-(SW11-Pad2)*%
X96110000Y-88900000D02*
X110389600Y-74620400D01*
X110389600Y-74620400D02*
X110389600Y-24089900D01*
%TO.N,Net-(SW12-Pad2)*%
X80870000Y-88900000D02*
X94795400Y-74974600D01*
X94795400Y-74974600D02*
X96961800Y-74974600D01*
X96961800Y-74974600D02*
X108933800Y-63002600D01*
X108933800Y-63002600D02*
X108933800Y-24822400D01*
%TO.N,Net-(SW13-Pad2)*%
X176500000Y-22100000D02*
X176500000Y-29949700D01*
X176500000Y-29949700D02*
X177637200Y-31086900D01*
X177637200Y-31086900D02*
X177637200Y-32246700D01*
X177637200Y-32246700D02*
X176036100Y-33847800D01*
X176036100Y-33847800D02*
X167234300Y-33847800D01*
X167234300Y-33847800D02*
X162651500Y-38430600D01*
X162651500Y-38430600D02*
X162651500Y-62529800D01*
X162651500Y-62529800D02*
X138818500Y-86362800D01*
X138818500Y-86362800D02*
X138439500Y-86362800D01*
%TO.N,Net-(SW14-Pad2)*%
X143122400Y-81010300D02*
X143534100Y-81010300D01*
X143534100Y-81010300D02*
X162046100Y-62498300D01*
X162046100Y-62498300D02*
X162046100Y-31541100D01*
X162046100Y-31541100D02*
X168199800Y-25387400D01*
%TO.N,Net-(SW15-Pad2)*%
X107424500Y-20963600D02*
X91657700Y-36730400D01*
X91657700Y-36730400D02*
X91657700Y-68119900D01*
X91657700Y-68119900D02*
X72994900Y-86782700D01*
X72994900Y-86782700D02*
X37267200Y-86782700D01*
X37267200Y-86782700D02*
X37267200Y-86782800D01*
X37267200Y-86782800D02*
X35150000Y-88900000D01*
%TO.N,Net-(SW16-Pad2)*%
X100671900Y-25185700D02*
X86315400Y-39542200D01*
X86315400Y-39542200D02*
X86315400Y-41167500D01*
X86315400Y-41167500D02*
X85572900Y-41910000D01*
X85572900Y-41910000D02*
X84576100Y-41910000D01*
X84576100Y-41910000D02*
X73731800Y-52754300D01*
X73731800Y-52754300D02*
X73731800Y-69851300D01*
%TO.N,Net-(SW17-Pad2)*%
X120240000Y-130810000D02*
X143950100Y-107099900D01*
X143950100Y-107099900D02*
X143950100Y-83321300D01*
X143950100Y-83321300D02*
X165735300Y-61536100D01*
X165735300Y-61536100D02*
X165735300Y-58880000D01*
X165735300Y-58880000D02*
X166340000Y-58275300D01*
X166340000Y-57150000D02*
X166340000Y-58275300D01*
%TO.N,Net-(SW18-Pad2)*%
X168880000Y-57150000D02*
X168880000Y-58685500D01*
X168880000Y-58685500D02*
X166794900Y-60770600D01*
X166794900Y-60770600D02*
X166794900Y-65061900D01*
X166794900Y-65061900D02*
X157575900Y-74280900D01*
X157575900Y-74280900D02*
X157575900Y-95498000D01*
X157575900Y-95498000D02*
X120804000Y-132269900D01*
X120804000Y-132269900D02*
X106459900Y-132269900D01*
X106459900Y-132269900D02*
X105000000Y-130810000D01*
%TO.N,Net-(SW19-Pad2)*%
X171420000Y-57150000D02*
X171420000Y-80780500D01*
X171420000Y-80780500D02*
X159405200Y-92795300D01*
X159405200Y-92795300D02*
X159405200Y-94317800D01*
X159405200Y-94317800D02*
X121002700Y-132720300D01*
X121002700Y-132720300D02*
X91670300Y-132720300D01*
X91670300Y-132720300D02*
X89760000Y-130810000D01*
%TO.N,Net-(SW20-Pad2)*%
X74520000Y-130810000D02*
X77333900Y-133623900D01*
X77333900Y-133623900D02*
X122736600Y-133623900D01*
X122736600Y-133623900D02*
X140152500Y-116208000D01*
X140152500Y-116208000D02*
X140930400Y-116208000D01*
X140930400Y-116208000D02*
X162931800Y-94206600D01*
X162931800Y-94206600D02*
X162931800Y-91350300D01*
X162931800Y-91350300D02*
X173503400Y-80778700D01*
X173503400Y-80778700D02*
X173503400Y-58731900D01*
X173503400Y-58731900D02*
X173960000Y-58275300D01*
X173960000Y-57150000D02*
X173960000Y-58275300D01*
%TO.N,Net-(SW21-Pad2)*%
X59280000Y-130810000D02*
X62544200Y-134074200D01*
X62544200Y-134074200D02*
X122923200Y-134074200D01*
X122923200Y-134074200D02*
X140339100Y-116658300D01*
X140339100Y-116658300D02*
X141117000Y-116658300D01*
X141117000Y-116658300D02*
X163402900Y-94372400D01*
X163402900Y-94372400D02*
X163402900Y-91516100D01*
X163402900Y-91516100D02*
X173953700Y-80965300D01*
X173953700Y-80965300D02*
X173953700Y-60821600D01*
X173953700Y-60821600D02*
X176500000Y-58275300D01*
X176500000Y-57150000D02*
X176500000Y-58275300D01*
%TO.N,Net-(SW22-Pad2)*%
X179040000Y-58275300D02*
X174404100Y-62911200D01*
X174404100Y-62911200D02*
X174404100Y-81788700D01*
X174404100Y-81788700D02*
X164026800Y-92166000D01*
X164026800Y-92166000D02*
X164026800Y-94396700D01*
X164026800Y-94396700D02*
X129813200Y-128610300D01*
X129813200Y-128610300D02*
X129424300Y-128610300D01*
X179040000Y-57150000D02*
X179040000Y-58275300D01*
%TO.N,Net-(SW23-Pad2)*%
X181580000Y-57150000D02*
X181580000Y-75886600D01*
X181580000Y-75886600D02*
X164927400Y-92539200D01*
X164927400Y-92539200D02*
X164927400Y-94133100D01*
X164927400Y-94133100D02*
X122110200Y-136950300D01*
X122110200Y-136950300D02*
X34940300Y-136950300D01*
X34940300Y-136950300D02*
X28800000Y-130810000D01*
%TO.N,Net-(SW24-Pad2)*%
X13560000Y-130810000D02*
X20150700Y-137400700D01*
X20150700Y-137400700D02*
X122402000Y-137400700D01*
X122402000Y-137400700D02*
X165421200Y-94381500D01*
X165421200Y-94381500D02*
X165421200Y-92682400D01*
X165421200Y-92682400D02*
X167295700Y-90807900D01*
X167295700Y-90807900D02*
X176320600Y-90807900D01*
X176320600Y-90807900D02*
X182487700Y-84640800D01*
X182487700Y-84640800D02*
X182487700Y-63149400D01*
X182487700Y-63149400D02*
X184120000Y-61517100D01*
X184120000Y-61517100D02*
X184120000Y-57150000D01*
%TO.N,examine*%
X127052100Y-121821100D02*
X122115600Y-116884600D01*
X122115600Y-116884600D02*
X120214200Y-116884600D01*
X120214200Y-116884600D02*
X119422500Y-116092900D01*
X119422500Y-116092900D02*
X119422500Y-110762600D01*
X119422500Y-110762600D02*
X128475700Y-101709400D01*
X128475700Y-101709400D02*
X128475700Y-92801600D01*
X128475700Y-92801600D02*
X125142700Y-89468600D01*
X125142700Y-89468600D02*
X125142700Y-57384100D01*
X125142700Y-57384100D02*
X126855400Y-55671400D01*
X126855400Y-55671400D02*
X126855400Y-46989900D01*
X126855400Y-46989900D02*
X128270000Y-45575300D01*
X128270000Y-44450000D02*
X128270000Y-45575300D01*
%TO.N,deposit*%
X159610000Y-130810000D02*
X161054200Y-132254200D01*
X161054200Y-132254200D02*
X161054200Y-136083900D01*
X161054200Y-136083900D02*
X160170400Y-136967700D01*
X160170400Y-136967700D02*
X159043500Y-136967700D01*
X159043500Y-136967700D02*
X157677100Y-135601300D01*
X157677100Y-135601300D02*
X157677100Y-109390300D01*
X157677100Y-109390300D02*
X166508500Y-100558900D01*
X166508500Y-100558900D02*
X166508500Y-92620900D01*
X128270000Y-52070000D02*
X128270000Y-62984600D01*
X128270000Y-62984600D02*
X125773200Y-65481400D01*
X125773200Y-65481400D02*
X125773200Y-79238100D01*
X125773200Y-79238100D02*
X129218200Y-82683100D01*
X129218200Y-82683100D02*
X129218200Y-85239700D01*
%TO.N,Net-(SW29-Pad3)*%
X190090000Y-135510000D02*
X194790000Y-130810000D01*
X194790000Y-130810000D02*
X205330000Y-130810000D01*
%TO.N,Net-(SW29-Pad1)*%
X190090000Y-126110000D02*
X192811600Y-123388400D01*
X192811600Y-123388400D02*
X192811600Y-88307300D01*
X192811600Y-88307300D02*
X184294600Y-79790300D01*
X184294600Y-79790300D02*
X184294600Y-63545300D01*
X184294600Y-63545300D02*
X184905400Y-62934500D01*
X135890000Y-17635300D02*
X136734000Y-17635300D01*
X136734000Y-17635300D02*
X143510400Y-24411700D01*
X143510400Y-24411700D02*
X143510400Y-61542700D01*
X143510400Y-61542700D02*
X143510500Y-61542700D01*
X143510500Y-61542700D02*
X145715300Y-63747500D01*
X135890000Y-16510000D02*
X135890000Y-17635300D01*
%TO.N,rd*%
X222250000Y-8890000D02*
X222250000Y-10015300D01*
X222250000Y-10015300D02*
X223375600Y-11140900D01*
X223375600Y-11140900D02*
X223375600Y-25069800D01*
X223375600Y-25069800D02*
X222250000Y-26195400D01*
X222250000Y-26195400D02*
X222250000Y-39370000D01*
%TO.N,Net-(U2-Pad20)*%
X227330000Y-38244700D02*
X226184300Y-37099000D01*
X226184300Y-37099000D02*
X226184300Y-32338600D01*
X227330000Y-39370000D02*
X227330000Y-38244700D01*
%TO.N,Net-(U3-Pad6)*%
X138430000Y-44450000D02*
X138430000Y-43324700D01*
X138430000Y-24130000D02*
X138430000Y-25255300D01*
X138430000Y-25255300D02*
X137304700Y-26380600D01*
X137304700Y-26380600D02*
X137304700Y-42199400D01*
X137304700Y-42199400D02*
X138430000Y-43324700D01*
X138430000Y-44450000D02*
X138430000Y-45575300D01*
X138430000Y-45575300D02*
X133350000Y-50655300D01*
X133350000Y-50655300D02*
X133350000Y-52070000D01*
%TO.N,switchtowb*%
X130810000Y-50944700D02*
X134603400Y-47151300D01*
X134603400Y-47151300D02*
X134603400Y-41832000D01*
X134603400Y-41832000D02*
X135890000Y-40545400D01*
X135890000Y-40545400D02*
X135890000Y-39225300D01*
X130810000Y-52070000D02*
X130810000Y-50944700D01*
X135890000Y-38100000D02*
X135890000Y-39225300D01*
%TO.N,Net-(U4-Pad4)*%
X133350000Y-39225300D02*
X134227200Y-40102500D01*
X134227200Y-40102500D02*
X134227200Y-41182400D01*
X133350000Y-38100000D02*
X133350000Y-39225300D01*
%TO.N,Net-(D25-Pad2)*%
X189395300Y-43742800D02*
X189712600Y-44060100D01*
X189712600Y-44060100D02*
X189712600Y-54882800D01*
X189712600Y-54882800D02*
X189374700Y-55220700D01*
X189374700Y-55220700D02*
X189374700Y-79197200D01*
X189374700Y-79197200D02*
X206808400Y-96630900D01*
X206808400Y-96630900D02*
X206808400Y-134031600D01*
X206808400Y-134031600D02*
X205330000Y-135510000D01*
%TO.N,Net-(D26-Pad2)*%
X205330000Y-126110000D02*
X205330000Y-95789400D01*
X205330000Y-95789400D02*
X186812800Y-77272200D01*
X186812800Y-77272200D02*
X186812800Y-64344300D01*
X186812800Y-64344300D02*
X188302300Y-62854800D01*
%TO.N,Net-(D26-Pad1)*%
X64715300Y-46205900D02*
X64715300Y-28564400D01*
X64715300Y-28564400D02*
X67310000Y-25969700D01*
X67310000Y-25969700D02*
X67310000Y-24130000D01*
%TO.N,Net-(D27-Pad1)*%
X25400000Y-10160000D02*
X25400000Y-8934700D01*
X25400000Y-8934700D02*
X24940500Y-8934700D01*
X24940500Y-8934700D02*
X22860000Y-6854200D01*
X22860000Y-6854200D02*
X22860000Y-3810000D01*
%TD*%
M02*
