%TF.GenerationSoftware,KiCad,Pcbnew,5.1.6-c6e7f7d~87~ubuntu16.04.1*%
%TF.CreationDate,2022-03-08T12:53:22-05:00*%
%TF.ProjectId,risc_memory_fp,72697363-5f6d-4656-9d6f-72795f66702e,rev?*%
%TF.SameCoordinates,Original*%
%TF.FileFunction,Legend,Top*%
%TF.FilePolarity,Positive*%
%FSLAX46Y46*%
G04 Gerber Fmt 4.6, Leading zero omitted, Abs format (unit mm)*
G04 Created by KiCad (PCBNEW 5.1.6-c6e7f7d~87~ubuntu16.04.1) date 2022-03-08 12:53:22*
%MOMM*%
%LPD*%
G01*
G04 APERTURE LIST*
%ADD10C,0.120000*%
%ADD11C,0.150000*%
G04 APERTURE END LIST*
D10*
%TO.C,C13*%
X22530000Y-20535000D02*
X22530000Y-20470000D01*
X22530000Y-22710000D02*
X22530000Y-22645000D01*
X25770000Y-20535000D02*
X25770000Y-20470000D01*
X25770000Y-22710000D02*
X25770000Y-22645000D01*
X25770000Y-20470000D02*
X22530000Y-20470000D01*
X25770000Y-22710000D02*
X22530000Y-22710000D01*
%TO.C,R9*%
X23780000Y-3810000D02*
G75*
G03*
X23780000Y-3810000I-920000J0D01*
G01*
X23780000Y-3810000D02*
X26940000Y-3810000D01*
%TO.C,R8*%
X68230000Y-24130000D02*
G75*
G03*
X68230000Y-24130000I-920000J0D01*
G01*
X68230000Y-24130000D02*
X71390000Y-24130000D01*
%TO.C,R7*%
X68230000Y-44450000D02*
G75*
G03*
X68230000Y-44450000I-920000J0D01*
G01*
X68230000Y-44450000D02*
X71390000Y-44450000D01*
%TO.C,D27*%
X27900000Y-8890000D02*
G75*
G03*
X27900000Y-8890000I-2500000J0D01*
G01*
X23855000Y-11450000D02*
X26945000Y-11450000D01*
X25399538Y-5900000D02*
G75*
G02*
X26944830Y-11450000I462J-2990000D01*
G01*
X25400462Y-5900000D02*
G75*
G03*
X23855170Y-11450000I-462J-2990000D01*
G01*
%TO.C,D26*%
X72350000Y-49530000D02*
G75*
G03*
X72350000Y-49530000I-2500000J0D01*
G01*
X68305000Y-52090000D02*
X71395000Y-52090000D01*
X69849538Y-46540000D02*
G75*
G02*
X71394830Y-52090000I462J-2990000D01*
G01*
X69850462Y-46540000D02*
G75*
G03*
X68305170Y-52090000I-462J-2990000D01*
G01*
%TO.C,D25*%
X72350000Y-29210000D02*
G75*
G03*
X72350000Y-29210000I-2500000J0D01*
G01*
X68305000Y-31770000D02*
X71395000Y-31770000D01*
X69849538Y-26220000D02*
G75*
G02*
X71394830Y-31770000I462J-2990000D01*
G01*
X69850462Y-26220000D02*
G75*
G03*
X68305170Y-31770000I-462J-2990000D01*
G01*
%TO.C,U10*%
X45990000Y-44390000D02*
X44340000Y-44390000D01*
X44340000Y-44390000D02*
X44340000Y-54670000D01*
X44340000Y-54670000D02*
X49640000Y-54670000D01*
X49640000Y-54670000D02*
X49640000Y-44390000D01*
X49640000Y-44390000D02*
X47990000Y-44390000D01*
X47990000Y-44390000D02*
G75*
G02*
X45990000Y-44390000I-1000000J0D01*
G01*
%TO.C,U9*%
X45990000Y-22800000D02*
X44340000Y-22800000D01*
X44340000Y-22800000D02*
X44340000Y-33080000D01*
X44340000Y-33080000D02*
X49640000Y-33080000D01*
X49640000Y-33080000D02*
X49640000Y-22800000D01*
X49640000Y-22800000D02*
X47990000Y-22800000D01*
X47990000Y-22800000D02*
G75*
G02*
X45990000Y-22800000I-1000000J0D01*
G01*
%TO.C,U8*%
X162470000Y-54340000D02*
X162470000Y-55990000D01*
X162470000Y-55990000D02*
X187990000Y-55990000D01*
X187990000Y-55990000D02*
X187990000Y-50690000D01*
X187990000Y-50690000D02*
X162470000Y-50690000D01*
X162470000Y-50690000D02*
X162470000Y-52340000D01*
X162470000Y-52340000D02*
G75*
G02*
X162470000Y-54340000I0J-1000000D01*
G01*
%TO.C,U7*%
X162470000Y-36560000D02*
X162470000Y-38210000D01*
X162470000Y-38210000D02*
X187990000Y-38210000D01*
X187990000Y-38210000D02*
X187990000Y-32910000D01*
X187990000Y-32910000D02*
X162470000Y-32910000D01*
X162470000Y-32910000D02*
X162470000Y-34560000D01*
X162470000Y-34560000D02*
G75*
G02*
X162470000Y-36560000I0J-1000000D01*
G01*
%TO.C,U6*%
X162470000Y-19290000D02*
X162470000Y-20940000D01*
X162470000Y-20940000D02*
X187990000Y-20940000D01*
X187990000Y-20940000D02*
X187990000Y-15640000D01*
X187990000Y-15640000D02*
X162470000Y-15640000D01*
X162470000Y-15640000D02*
X162470000Y-17290000D01*
X162470000Y-17290000D02*
G75*
G02*
X162470000Y-19290000I0J-1000000D01*
G01*
%TO.C,U5*%
X124400000Y-49260000D02*
X124400000Y-50910000D01*
X124400000Y-50910000D02*
X142300000Y-50910000D01*
X142300000Y-50910000D02*
X142300000Y-45610000D01*
X142300000Y-45610000D02*
X124400000Y-45610000D01*
X124400000Y-45610000D02*
X124400000Y-47260000D01*
X124400000Y-47260000D02*
G75*
G02*
X124400000Y-49260000I0J-1000000D01*
G01*
%TO.C,U4*%
X124400000Y-35290000D02*
X124400000Y-36940000D01*
X124400000Y-36940000D02*
X142300000Y-36940000D01*
X142300000Y-36940000D02*
X142300000Y-31640000D01*
X142300000Y-31640000D02*
X124400000Y-31640000D01*
X124400000Y-31640000D02*
X124400000Y-33290000D01*
X124400000Y-33290000D02*
G75*
G02*
X124400000Y-35290000I0J-1000000D01*
G01*
%TO.C,U3*%
X124400000Y-21320000D02*
X124400000Y-22970000D01*
X124400000Y-22970000D02*
X142300000Y-22970000D01*
X142300000Y-22970000D02*
X142300000Y-17670000D01*
X142300000Y-17670000D02*
X124400000Y-17670000D01*
X124400000Y-17670000D02*
X124400000Y-19320000D01*
X124400000Y-19320000D02*
G75*
G02*
X124400000Y-21320000I0J-1000000D01*
G01*
%TO.C,U2*%
X205680000Y-47990000D02*
X205680000Y-53450000D01*
X205680000Y-53450000D02*
X241360000Y-53450000D01*
X241360000Y-53450000D02*
X241360000Y-40530000D01*
X241360000Y-40530000D02*
X205680000Y-40530000D01*
X205680000Y-40530000D02*
X205680000Y-45990000D01*
X205680000Y-45990000D02*
G75*
G02*
X205680000Y-47990000I0J-1000000D01*
G01*
%TO.C,U1*%
X205680000Y-17510000D02*
X205680000Y-22970000D01*
X205680000Y-22970000D02*
X241360000Y-22970000D01*
X241360000Y-22970000D02*
X241360000Y-10050000D01*
X241360000Y-10050000D02*
X205680000Y-10050000D01*
X205680000Y-10050000D02*
X205680000Y-15510000D01*
X205680000Y-15510000D02*
G75*
G02*
X205680000Y-17510000I0J-1000000D01*
G01*
%TO.C,SW32*%
X7620000Y-43180000D02*
X14478000Y-43180000D01*
X14478000Y-43180000D02*
X14478000Y-55880000D01*
X14478000Y-55880000D02*
X7620000Y-55880000D01*
X7620000Y-55880000D02*
X7620000Y-43180000D01*
%TO.C,SW31*%
X237490000Y-124460000D02*
X244348000Y-124460000D01*
X244348000Y-124460000D02*
X244348000Y-137160000D01*
X244348000Y-137160000D02*
X237490000Y-137160000D01*
X237490000Y-137160000D02*
X237490000Y-124460000D01*
%TO.C,SW30*%
X201930000Y-124460000D02*
X208788000Y-124460000D01*
X208788000Y-124460000D02*
X208788000Y-137160000D01*
X208788000Y-137160000D02*
X201930000Y-137160000D01*
X201930000Y-137160000D02*
X201930000Y-124460000D01*
%TO.C,SW29*%
X186690000Y-124460000D02*
X193548000Y-124460000D01*
X193548000Y-124460000D02*
X193548000Y-137160000D01*
X193548000Y-137160000D02*
X186690000Y-137160000D01*
X186690000Y-137160000D02*
X186690000Y-124460000D01*
%TO.C,SW28*%
X217170000Y-124460000D02*
X224028000Y-124460000D01*
X224028000Y-124460000D02*
X224028000Y-137160000D01*
X224028000Y-137160000D02*
X217170000Y-137160000D01*
X217170000Y-137160000D02*
X217170000Y-124460000D01*
%TO.C,SW27*%
X170180000Y-124460000D02*
X177038000Y-124460000D01*
X177038000Y-124460000D02*
X177038000Y-137160000D01*
X177038000Y-137160000D02*
X170180000Y-137160000D01*
X170180000Y-137160000D02*
X170180000Y-124460000D01*
%TO.C,SW26*%
X156210000Y-124460000D02*
X163068000Y-124460000D01*
X163068000Y-124460000D02*
X163068000Y-137160000D01*
X163068000Y-137160000D02*
X156210000Y-137160000D01*
X156210000Y-137160000D02*
X156210000Y-124460000D01*
%TO.C,SW25*%
X142240000Y-124460000D02*
X149098000Y-124460000D01*
X149098000Y-124460000D02*
X149098000Y-137160000D01*
X149098000Y-137160000D02*
X142240000Y-137160000D01*
X142240000Y-137160000D02*
X142240000Y-124460000D01*
%TO.C,SW24*%
X10160000Y-124460000D02*
X17018000Y-124460000D01*
X17018000Y-124460000D02*
X17018000Y-137160000D01*
X17018000Y-137160000D02*
X10160000Y-137160000D01*
X10160000Y-137160000D02*
X10160000Y-124460000D01*
%TO.C,SW23*%
X25400000Y-124460000D02*
X32258000Y-124460000D01*
X32258000Y-124460000D02*
X32258000Y-137160000D01*
X32258000Y-137160000D02*
X25400000Y-137160000D01*
X25400000Y-137160000D02*
X25400000Y-124460000D01*
%TO.C,SW22*%
X40640000Y-124460000D02*
X47498000Y-124460000D01*
X47498000Y-124460000D02*
X47498000Y-137160000D01*
X47498000Y-137160000D02*
X40640000Y-137160000D01*
X40640000Y-137160000D02*
X40640000Y-124460000D01*
%TO.C,SW21*%
X55880000Y-124460000D02*
X62738000Y-124460000D01*
X62738000Y-124460000D02*
X62738000Y-137160000D01*
X62738000Y-137160000D02*
X55880000Y-137160000D01*
X55880000Y-137160000D02*
X55880000Y-124460000D01*
%TO.C,SW20*%
X71120000Y-124460000D02*
X77978000Y-124460000D01*
X77978000Y-124460000D02*
X77978000Y-137160000D01*
X77978000Y-137160000D02*
X71120000Y-137160000D01*
X71120000Y-137160000D02*
X71120000Y-124460000D01*
%TO.C,SW19*%
X86360000Y-124460000D02*
X93218000Y-124460000D01*
X93218000Y-124460000D02*
X93218000Y-137160000D01*
X93218000Y-137160000D02*
X86360000Y-137160000D01*
X86360000Y-137160000D02*
X86360000Y-124460000D01*
%TO.C,SW18*%
X101600000Y-124460000D02*
X108458000Y-124460000D01*
X108458000Y-124460000D02*
X108458000Y-137160000D01*
X108458000Y-137160000D02*
X101600000Y-137160000D01*
X101600000Y-137160000D02*
X101600000Y-124460000D01*
%TO.C,SW17*%
X116840000Y-124460000D02*
X123698000Y-124460000D01*
X123698000Y-124460000D02*
X123698000Y-137160000D01*
X123698000Y-137160000D02*
X116840000Y-137160000D01*
X116840000Y-137160000D02*
X116840000Y-124460000D01*
%TO.C,SW16*%
X16510000Y-82550000D02*
X23368000Y-82550000D01*
X23368000Y-82550000D02*
X23368000Y-95250000D01*
X23368000Y-95250000D02*
X16510000Y-95250000D01*
X16510000Y-95250000D02*
X16510000Y-82550000D01*
%TO.C,SW15*%
X31750000Y-82550000D02*
X38608000Y-82550000D01*
X38608000Y-82550000D02*
X38608000Y-95250000D01*
X38608000Y-95250000D02*
X31750000Y-95250000D01*
X31750000Y-95250000D02*
X31750000Y-82550000D01*
%TO.C,SW14*%
X46990000Y-82550000D02*
X53848000Y-82550000D01*
X53848000Y-82550000D02*
X53848000Y-95250000D01*
X53848000Y-95250000D02*
X46990000Y-95250000D01*
X46990000Y-95250000D02*
X46990000Y-82550000D01*
%TO.C,SW13*%
X62230000Y-82550000D02*
X69088000Y-82550000D01*
X69088000Y-82550000D02*
X69088000Y-95250000D01*
X69088000Y-95250000D02*
X62230000Y-95250000D01*
X62230000Y-95250000D02*
X62230000Y-82550000D01*
%TO.C,SW12*%
X77470000Y-82550000D02*
X84328000Y-82550000D01*
X84328000Y-82550000D02*
X84328000Y-95250000D01*
X84328000Y-95250000D02*
X77470000Y-95250000D01*
X77470000Y-95250000D02*
X77470000Y-82550000D01*
%TO.C,SW11*%
X92710000Y-82550000D02*
X99568000Y-82550000D01*
X99568000Y-82550000D02*
X99568000Y-95250000D01*
X99568000Y-95250000D02*
X92710000Y-95250000D01*
X92710000Y-95250000D02*
X92710000Y-82550000D01*
%TO.C,SW10*%
X107950000Y-82550000D02*
X114808000Y-82550000D01*
X114808000Y-82550000D02*
X114808000Y-95250000D01*
X114808000Y-95250000D02*
X107950000Y-95250000D01*
X107950000Y-95250000D02*
X107950000Y-82550000D01*
%TO.C,SW9*%
X123190000Y-82550000D02*
X130048000Y-82550000D01*
X130048000Y-82550000D02*
X130048000Y-95250000D01*
X130048000Y-95250000D02*
X123190000Y-95250000D01*
X123190000Y-95250000D02*
X123190000Y-82550000D01*
%TO.C,SW8*%
X142240000Y-82550000D02*
X149098000Y-82550000D01*
X149098000Y-82550000D02*
X149098000Y-95250000D01*
X149098000Y-95250000D02*
X142240000Y-95250000D01*
X142240000Y-95250000D02*
X142240000Y-82550000D01*
%TO.C,SW7*%
X157480000Y-82550000D02*
X164338000Y-82550000D01*
X164338000Y-82550000D02*
X164338000Y-95250000D01*
X164338000Y-95250000D02*
X157480000Y-95250000D01*
X157480000Y-95250000D02*
X157480000Y-82550000D01*
%TO.C,SW6*%
X172720000Y-82550000D02*
X179578000Y-82550000D01*
X179578000Y-82550000D02*
X179578000Y-95250000D01*
X179578000Y-95250000D02*
X172720000Y-95250000D01*
X172720000Y-95250000D02*
X172720000Y-82550000D01*
%TO.C,SW5*%
X187960000Y-82550000D02*
X194818000Y-82550000D01*
X194818000Y-82550000D02*
X194818000Y-95250000D01*
X194818000Y-95250000D02*
X187960000Y-95250000D01*
X187960000Y-95250000D02*
X187960000Y-82550000D01*
%TO.C,SW4*%
X203200000Y-82550000D02*
X210058000Y-82550000D01*
X210058000Y-82550000D02*
X210058000Y-95250000D01*
X210058000Y-95250000D02*
X203200000Y-95250000D01*
X203200000Y-95250000D02*
X203200000Y-82550000D01*
%TO.C,SW3*%
X218440000Y-82550000D02*
X225298000Y-82550000D01*
X225298000Y-82550000D02*
X225298000Y-95250000D01*
X225298000Y-95250000D02*
X218440000Y-95250000D01*
X218440000Y-95250000D02*
X218440000Y-82550000D01*
%TO.C,SW2*%
X233680000Y-82550000D02*
X240538000Y-82550000D01*
X240538000Y-82550000D02*
X240538000Y-95250000D01*
X240538000Y-95250000D02*
X233680000Y-95250000D01*
X233680000Y-95250000D02*
X233680000Y-82550000D01*
%TO.C,SW1*%
X248920000Y-82550000D02*
X255778000Y-82550000D01*
X255778000Y-82550000D02*
X255778000Y-95250000D01*
X255778000Y-95250000D02*
X248920000Y-95250000D01*
X248920000Y-95250000D02*
X248920000Y-82550000D01*
%TO.C,RV1*%
X85720000Y-36810000D02*
X98660000Y-36810000D01*
X85720000Y-49550000D02*
X98660000Y-49550000D01*
X85720000Y-36810000D02*
X85720000Y-39485000D01*
X85720000Y-41795000D02*
X85720000Y-42025000D01*
X85720000Y-44336000D02*
X85720000Y-44565000D01*
X85720000Y-46875000D02*
X85720000Y-49550000D01*
X98660000Y-36810000D02*
X98660000Y-49550000D01*
%TO.C,RN3*%
X74760000Y-107820000D02*
X74760000Y-110620000D01*
X74760000Y-110620000D02*
X97960000Y-110620000D01*
X97960000Y-110620000D02*
X97960000Y-107820000D01*
X97960000Y-107820000D02*
X74760000Y-107820000D01*
X77470000Y-107820000D02*
X77470000Y-110620000D01*
%TO.C,RN2*%
X55710000Y-64640000D02*
X55710000Y-67440000D01*
X55710000Y-67440000D02*
X78910000Y-67440000D01*
X78910000Y-67440000D02*
X78910000Y-64640000D01*
X78910000Y-64640000D02*
X55710000Y-64640000D01*
X58420000Y-64640000D02*
X58420000Y-67440000D01*
%TO.C,RN1*%
X183980000Y-64640000D02*
X183980000Y-67440000D01*
X183980000Y-67440000D02*
X207180000Y-67440000D01*
X207180000Y-67440000D02*
X207180000Y-64640000D01*
X207180000Y-64640000D02*
X183980000Y-64640000D01*
X186690000Y-64640000D02*
X186690000Y-67440000D01*
%TO.C,R6*%
X58070000Y-54610000D02*
G75*
G03*
X58070000Y-54610000I-920000J0D01*
G01*
X57150000Y-53690000D02*
X57150000Y-50530000D01*
%TO.C,R5*%
X58070000Y-41910000D02*
G75*
G03*
X58070000Y-41910000I-920000J0D01*
G01*
X57150000Y-42830000D02*
X57150000Y-45990000D01*
%TO.C,R4*%
X58070000Y-27940000D02*
G75*
G03*
X58070000Y-27940000I-920000J0D01*
G01*
X57150000Y-28860000D02*
X57150000Y-32020000D01*
%TO.C,R3*%
X58070000Y-20320000D02*
G75*
G03*
X58070000Y-20320000I-920000J0D01*
G01*
X57150000Y-21240000D02*
X57150000Y-24400000D01*
%TO.C,R2*%
X228870000Y-124950000D02*
G75*
G03*
X228870000Y-124950000I-920000J0D01*
G01*
X227950000Y-125870000D02*
X227950000Y-129030000D01*
%TO.C,R1*%
X228870000Y-133080000D02*
G75*
G03*
X228870000Y-133080000I-920000J0D01*
G01*
X227950000Y-134000000D02*
X227950000Y-137160000D01*
%TO.C,JP1*%
X195520000Y-10220000D02*
X198180000Y-10220000D01*
X195520000Y-5080000D02*
X195520000Y-10220000D01*
X198180000Y-5080000D02*
X198180000Y-10220000D01*
X195520000Y-5080000D02*
X198180000Y-5080000D01*
X195520000Y-3810000D02*
X195520000Y-2480000D01*
X195520000Y-2480000D02*
X196850000Y-2480000D01*
%TO.C,J8*%
X17860000Y-4070000D02*
X17860000Y-16290000D01*
X17860000Y-4070000D02*
X14110000Y-4070000D01*
X17860000Y-16290000D02*
X14110000Y-16290000D01*
X1240000Y-4070000D02*
X1240000Y-16290000D01*
X1240000Y-16290000D02*
X9210000Y-16290000D01*
X1240000Y-4070000D02*
X9210000Y-4070000D01*
X18060000Y-11430000D02*
X18560000Y-11930000D01*
X18560000Y-11930000D02*
X18560000Y-10930000D01*
X18560000Y-10930000D02*
X18060000Y-11430000D01*
%TO.C,J7*%
X12390000Y-23780000D02*
X12390000Y-29560000D01*
X17490000Y-23780000D02*
X17490000Y-29560000D01*
X18610000Y-23780000D02*
X18610000Y-29560000D01*
X11870000Y-23780000D02*
X11870000Y-29560000D01*
X18610000Y-23780000D02*
X11870000Y-23780000D01*
X18610000Y-29560000D02*
X11870000Y-29560000D01*
X12270000Y-23540000D02*
X11630000Y-23540000D01*
X11630000Y-23540000D02*
X11630000Y-23940000D01*
%TO.C,J6*%
X82610000Y-6410000D02*
X82610000Y-3750000D01*
X74930000Y-6410000D02*
X82610000Y-6410000D01*
X74930000Y-3750000D02*
X82610000Y-3750000D01*
X74930000Y-6410000D02*
X74930000Y-3750000D01*
X73660000Y-6410000D02*
X72330000Y-6410000D01*
X72330000Y-6410000D02*
X72330000Y-5080000D01*
%TO.C,J5*%
X163770000Y-3750000D02*
X163770000Y-6410000D01*
X181610000Y-3750000D02*
X163770000Y-3750000D01*
X181610000Y-6410000D02*
X163770000Y-6410000D01*
X181610000Y-3750000D02*
X181610000Y-6410000D01*
X182880000Y-3750000D02*
X184210000Y-3750000D01*
X184210000Y-3750000D02*
X184210000Y-5080000D01*
%TO.C,J4*%
X109160000Y-3750000D02*
X109160000Y-6410000D01*
X127000000Y-3750000D02*
X109160000Y-3750000D01*
X127000000Y-6410000D02*
X109160000Y-6410000D01*
X127000000Y-3750000D02*
X127000000Y-6410000D01*
X128270000Y-3750000D02*
X129600000Y-3750000D01*
X129600000Y-3750000D02*
X129600000Y-5080000D01*
%TO.C,J3*%
X133290000Y-3750000D02*
X133290000Y-6410000D01*
X151130000Y-3750000D02*
X133290000Y-3750000D01*
X151130000Y-6410000D02*
X133290000Y-6410000D01*
X151130000Y-3750000D02*
X151130000Y-6410000D01*
X152400000Y-3750000D02*
X153730000Y-3750000D01*
X153730000Y-3750000D02*
X153730000Y-5080000D01*
%TO.C,J2*%
X41850000Y-11490000D02*
X44510000Y-11490000D01*
X41850000Y-6350000D02*
X41850000Y-11490000D01*
X44510000Y-6350000D02*
X44510000Y-11490000D01*
X41850000Y-6350000D02*
X44510000Y-6350000D01*
X41850000Y-5080000D02*
X41850000Y-3750000D01*
X41850000Y-3750000D02*
X43180000Y-3750000D01*
%TO.C,J1*%
X35500000Y-11490000D02*
X38160000Y-11490000D01*
X35500000Y-6350000D02*
X35500000Y-11490000D01*
X38160000Y-6350000D02*
X38160000Y-11490000D01*
X35500000Y-6350000D02*
X38160000Y-6350000D01*
X35500000Y-5080000D02*
X35500000Y-3750000D01*
X35500000Y-3750000D02*
X36830000Y-3750000D01*
%TO.C,D24*%
X16470000Y-116840000D02*
G75*
G03*
X16470000Y-116840000I-2500000J0D01*
G01*
X12425000Y-119400000D02*
X15515000Y-119400000D01*
X13969538Y-113850000D02*
G75*
G02*
X15514830Y-119400000I462J-2990000D01*
G01*
X13970462Y-113850000D02*
G75*
G03*
X12425170Y-119400000I-462J-2990000D01*
G01*
%TO.C,D23*%
X31710000Y-116840000D02*
G75*
G03*
X31710000Y-116840000I-2500000J0D01*
G01*
X27665000Y-119400000D02*
X30755000Y-119400000D01*
X29209538Y-113850000D02*
G75*
G02*
X30754830Y-119400000I462J-2990000D01*
G01*
X29210462Y-113850000D02*
G75*
G03*
X27665170Y-119400000I-462J-2990000D01*
G01*
%TO.C,D22*%
X46950000Y-116840000D02*
G75*
G03*
X46950000Y-116840000I-2500000J0D01*
G01*
X42905000Y-119400000D02*
X45995000Y-119400000D01*
X44449538Y-113850000D02*
G75*
G02*
X45994830Y-119400000I462J-2990000D01*
G01*
X44450462Y-113850000D02*
G75*
G03*
X42905170Y-119400000I-462J-2990000D01*
G01*
%TO.C,D21*%
X62190000Y-116840000D02*
G75*
G03*
X62190000Y-116840000I-2500000J0D01*
G01*
X58145000Y-119400000D02*
X61235000Y-119400000D01*
X59689538Y-113850000D02*
G75*
G02*
X61234830Y-119400000I462J-2990000D01*
G01*
X59690462Y-113850000D02*
G75*
G03*
X58145170Y-119400000I-462J-2990000D01*
G01*
%TO.C,D20*%
X77430000Y-116840000D02*
G75*
G03*
X77430000Y-116840000I-2500000J0D01*
G01*
X73385000Y-119400000D02*
X76475000Y-119400000D01*
X74929538Y-113850000D02*
G75*
G02*
X76474830Y-119400000I462J-2990000D01*
G01*
X74930462Y-113850000D02*
G75*
G03*
X73385170Y-119400000I-462J-2990000D01*
G01*
%TO.C,D19*%
X92670000Y-116840000D02*
G75*
G03*
X92670000Y-116840000I-2500000J0D01*
G01*
X88625000Y-119400000D02*
X91715000Y-119400000D01*
X90169538Y-113850000D02*
G75*
G02*
X91714830Y-119400000I462J-2990000D01*
G01*
X90170462Y-113850000D02*
G75*
G03*
X88625170Y-119400000I-462J-2990000D01*
G01*
%TO.C,D18*%
X107910000Y-116840000D02*
G75*
G03*
X107910000Y-116840000I-2500000J0D01*
G01*
X103865000Y-119400000D02*
X106955000Y-119400000D01*
X105409538Y-113850000D02*
G75*
G02*
X106954830Y-119400000I462J-2990000D01*
G01*
X105410462Y-113850000D02*
G75*
G03*
X103865170Y-119400000I-462J-2990000D01*
G01*
%TO.C,D17*%
X123150000Y-116840000D02*
G75*
G03*
X123150000Y-116840000I-2500000J0D01*
G01*
X119105000Y-119400000D02*
X122195000Y-119400000D01*
X120649538Y-113850000D02*
G75*
G02*
X122194830Y-119400000I462J-2990000D01*
G01*
X120650462Y-113850000D02*
G75*
G03*
X119105170Y-119400000I-462J-2990000D01*
G01*
%TO.C,D16*%
X22820000Y-74930000D02*
G75*
G03*
X22820000Y-74930000I-2500000J0D01*
G01*
X18775000Y-77490000D02*
X21865000Y-77490000D01*
X20319538Y-71940000D02*
G75*
G02*
X21864830Y-77490000I462J-2990000D01*
G01*
X20320462Y-71940000D02*
G75*
G03*
X18775170Y-77490000I-462J-2990000D01*
G01*
%TO.C,D15*%
X38060000Y-74930000D02*
G75*
G03*
X38060000Y-74930000I-2500000J0D01*
G01*
X34015000Y-77490000D02*
X37105000Y-77490000D01*
X35559538Y-71940000D02*
G75*
G02*
X37104830Y-77490000I462J-2990000D01*
G01*
X35560462Y-71940000D02*
G75*
G03*
X34015170Y-77490000I-462J-2990000D01*
G01*
%TO.C,D14*%
X53300000Y-74930000D02*
G75*
G03*
X53300000Y-74930000I-2500000J0D01*
G01*
X49255000Y-77490000D02*
X52345000Y-77490000D01*
X50799538Y-71940000D02*
G75*
G02*
X52344830Y-77490000I462J-2990000D01*
G01*
X50800462Y-71940000D02*
G75*
G03*
X49255170Y-77490000I-462J-2990000D01*
G01*
%TO.C,D13*%
X68540000Y-74930000D02*
G75*
G03*
X68540000Y-74930000I-2500000J0D01*
G01*
X64495000Y-77490000D02*
X67585000Y-77490000D01*
X66039538Y-71940000D02*
G75*
G02*
X67584830Y-77490000I462J-2990000D01*
G01*
X66040462Y-71940000D02*
G75*
G03*
X64495170Y-77490000I-462J-2990000D01*
G01*
%TO.C,D12*%
X83780000Y-74930000D02*
G75*
G03*
X83780000Y-74930000I-2500000J0D01*
G01*
X79735000Y-77490000D02*
X82825000Y-77490000D01*
X81279538Y-71940000D02*
G75*
G02*
X82824830Y-77490000I462J-2990000D01*
G01*
X81280462Y-71940000D02*
G75*
G03*
X79735170Y-77490000I-462J-2990000D01*
G01*
%TO.C,D11*%
X99020000Y-74930000D02*
G75*
G03*
X99020000Y-74930000I-2500000J0D01*
G01*
X94975000Y-77490000D02*
X98065000Y-77490000D01*
X96519538Y-71940000D02*
G75*
G02*
X98064830Y-77490000I462J-2990000D01*
G01*
X96520462Y-71940000D02*
G75*
G03*
X94975170Y-77490000I-462J-2990000D01*
G01*
%TO.C,D10*%
X114260000Y-74930000D02*
G75*
G03*
X114260000Y-74930000I-2500000J0D01*
G01*
X110215000Y-77490000D02*
X113305000Y-77490000D01*
X111759538Y-71940000D02*
G75*
G02*
X113304830Y-77490000I462J-2990000D01*
G01*
X111760462Y-71940000D02*
G75*
G03*
X110215170Y-77490000I-462J-2990000D01*
G01*
%TO.C,D9*%
X129500000Y-74930000D02*
G75*
G03*
X129500000Y-74930000I-2500000J0D01*
G01*
X125455000Y-77490000D02*
X128545000Y-77490000D01*
X126999538Y-71940000D02*
G75*
G02*
X128544830Y-77490000I462J-2990000D01*
G01*
X127000462Y-71940000D02*
G75*
G03*
X125455170Y-77490000I-462J-2990000D01*
G01*
%TO.C,D8*%
X148550000Y-74930000D02*
G75*
G03*
X148550000Y-74930000I-2500000J0D01*
G01*
X144505000Y-77490000D02*
X147595000Y-77490000D01*
X146049538Y-71940000D02*
G75*
G02*
X147594830Y-77490000I462J-2990000D01*
G01*
X146050462Y-71940000D02*
G75*
G03*
X144505170Y-77490000I-462J-2990000D01*
G01*
%TO.C,D7*%
X163790000Y-74930000D02*
G75*
G03*
X163790000Y-74930000I-2500000J0D01*
G01*
X159745000Y-77490000D02*
X162835000Y-77490000D01*
X161289538Y-71940000D02*
G75*
G02*
X162834830Y-77490000I462J-2990000D01*
G01*
X161290462Y-71940000D02*
G75*
G03*
X159745170Y-77490000I-462J-2990000D01*
G01*
%TO.C,D6*%
X179030000Y-74930000D02*
G75*
G03*
X179030000Y-74930000I-2500000J0D01*
G01*
X174985000Y-77490000D02*
X178075000Y-77490000D01*
X176529538Y-71940000D02*
G75*
G02*
X178074830Y-77490000I462J-2990000D01*
G01*
X176530462Y-71940000D02*
G75*
G03*
X174985170Y-77490000I-462J-2990000D01*
G01*
%TO.C,D5*%
X194270000Y-74930000D02*
G75*
G03*
X194270000Y-74930000I-2500000J0D01*
G01*
X190225000Y-77490000D02*
X193315000Y-77490000D01*
X191769538Y-71940000D02*
G75*
G02*
X193314830Y-77490000I462J-2990000D01*
G01*
X191770462Y-71940000D02*
G75*
G03*
X190225170Y-77490000I-462J-2990000D01*
G01*
%TO.C,D4*%
X209510000Y-74930000D02*
G75*
G03*
X209510000Y-74930000I-2500000J0D01*
G01*
X205465000Y-77490000D02*
X208555000Y-77490000D01*
X207009538Y-71940000D02*
G75*
G02*
X208554830Y-77490000I462J-2990000D01*
G01*
X207010462Y-71940000D02*
G75*
G03*
X205465170Y-77490000I-462J-2990000D01*
G01*
%TO.C,D3*%
X224750000Y-74930000D02*
G75*
G03*
X224750000Y-74930000I-2500000J0D01*
G01*
X220705000Y-77490000D02*
X223795000Y-77490000D01*
X222249538Y-71940000D02*
G75*
G02*
X223794830Y-77490000I462J-2990000D01*
G01*
X222250462Y-71940000D02*
G75*
G03*
X220705170Y-77490000I-462J-2990000D01*
G01*
%TO.C,D2*%
X239990000Y-74930000D02*
G75*
G03*
X239990000Y-74930000I-2500000J0D01*
G01*
X235945000Y-77490000D02*
X239035000Y-77490000D01*
X237489538Y-71940000D02*
G75*
G02*
X239034830Y-77490000I462J-2990000D01*
G01*
X237490462Y-71940000D02*
G75*
G03*
X235945170Y-77490000I-462J-2990000D01*
G01*
%TO.C,D1*%
X255230000Y-74930000D02*
G75*
G03*
X255230000Y-74930000I-2500000J0D01*
G01*
X251185000Y-77490000D02*
X254275000Y-77490000D01*
X252729538Y-71940000D02*
G75*
G02*
X254274830Y-77490000I462J-2990000D01*
G01*
X252730462Y-71940000D02*
G75*
G03*
X251185170Y-77490000I-462J-2990000D01*
G01*
%TO.C,C12*%
X38410000Y-38580000D02*
G75*
G03*
X38410000Y-38580000I-4120000J0D01*
G01*
X38370000Y-38580000D02*
X30210000Y-38580000D01*
X38370000Y-38620000D02*
X30210000Y-38620000D01*
X38370000Y-38660000D02*
X30210000Y-38660000D01*
X38369000Y-38700000D02*
X30211000Y-38700000D01*
X38367000Y-38740000D02*
X30213000Y-38740000D01*
X38366000Y-38780000D02*
X30214000Y-38780000D01*
X38364000Y-38820000D02*
X30216000Y-38820000D01*
X38361000Y-38860000D02*
X30219000Y-38860000D01*
X38358000Y-38900000D02*
X30222000Y-38900000D01*
X38355000Y-38940000D02*
X30225000Y-38940000D01*
X38351000Y-38980000D02*
X30229000Y-38980000D01*
X38347000Y-39020000D02*
X30233000Y-39020000D01*
X38342000Y-39060000D02*
X30238000Y-39060000D01*
X38338000Y-39100000D02*
X30242000Y-39100000D01*
X38332000Y-39140000D02*
X30248000Y-39140000D01*
X38327000Y-39180000D02*
X30253000Y-39180000D01*
X38320000Y-39220000D02*
X30260000Y-39220000D01*
X38314000Y-39260000D02*
X30266000Y-39260000D01*
X38307000Y-39301000D02*
X35330000Y-39301000D01*
X33250000Y-39301000D02*
X30273000Y-39301000D01*
X38300000Y-39341000D02*
X35330000Y-39341000D01*
X33250000Y-39341000D02*
X30280000Y-39341000D01*
X38292000Y-39381000D02*
X35330000Y-39381000D01*
X33250000Y-39381000D02*
X30288000Y-39381000D01*
X38284000Y-39421000D02*
X35330000Y-39421000D01*
X33250000Y-39421000D02*
X30296000Y-39421000D01*
X38275000Y-39461000D02*
X35330000Y-39461000D01*
X33250000Y-39461000D02*
X30305000Y-39461000D01*
X38266000Y-39501000D02*
X35330000Y-39501000D01*
X33250000Y-39501000D02*
X30314000Y-39501000D01*
X38257000Y-39541000D02*
X35330000Y-39541000D01*
X33250000Y-39541000D02*
X30323000Y-39541000D01*
X38247000Y-39581000D02*
X35330000Y-39581000D01*
X33250000Y-39581000D02*
X30333000Y-39581000D01*
X38237000Y-39621000D02*
X35330000Y-39621000D01*
X33250000Y-39621000D02*
X30343000Y-39621000D01*
X38226000Y-39661000D02*
X35330000Y-39661000D01*
X33250000Y-39661000D02*
X30354000Y-39661000D01*
X38215000Y-39701000D02*
X35330000Y-39701000D01*
X33250000Y-39701000D02*
X30365000Y-39701000D01*
X38204000Y-39741000D02*
X35330000Y-39741000D01*
X33250000Y-39741000D02*
X30376000Y-39741000D01*
X38192000Y-39781000D02*
X35330000Y-39781000D01*
X33250000Y-39781000D02*
X30388000Y-39781000D01*
X38179000Y-39821000D02*
X35330000Y-39821000D01*
X33250000Y-39821000D02*
X30401000Y-39821000D01*
X38167000Y-39861000D02*
X35330000Y-39861000D01*
X33250000Y-39861000D02*
X30413000Y-39861000D01*
X38153000Y-39901000D02*
X35330000Y-39901000D01*
X33250000Y-39901000D02*
X30427000Y-39901000D01*
X38140000Y-39941000D02*
X35330000Y-39941000D01*
X33250000Y-39941000D02*
X30440000Y-39941000D01*
X38125000Y-39981000D02*
X35330000Y-39981000D01*
X33250000Y-39981000D02*
X30455000Y-39981000D01*
X38111000Y-40021000D02*
X35330000Y-40021000D01*
X33250000Y-40021000D02*
X30469000Y-40021000D01*
X38095000Y-40061000D02*
X35330000Y-40061000D01*
X33250000Y-40061000D02*
X30485000Y-40061000D01*
X38080000Y-40101000D02*
X35330000Y-40101000D01*
X33250000Y-40101000D02*
X30500000Y-40101000D01*
X38064000Y-40141000D02*
X35330000Y-40141000D01*
X33250000Y-40141000D02*
X30516000Y-40141000D01*
X38047000Y-40181000D02*
X35330000Y-40181000D01*
X33250000Y-40181000D02*
X30533000Y-40181000D01*
X38030000Y-40221000D02*
X35330000Y-40221000D01*
X33250000Y-40221000D02*
X30550000Y-40221000D01*
X38012000Y-40261000D02*
X35330000Y-40261000D01*
X33250000Y-40261000D02*
X30568000Y-40261000D01*
X37994000Y-40301000D02*
X35330000Y-40301000D01*
X33250000Y-40301000D02*
X30586000Y-40301000D01*
X37976000Y-40341000D02*
X35330000Y-40341000D01*
X33250000Y-40341000D02*
X30604000Y-40341000D01*
X37956000Y-40381000D02*
X35330000Y-40381000D01*
X33250000Y-40381000D02*
X30624000Y-40381000D01*
X37937000Y-40421000D02*
X35330000Y-40421000D01*
X33250000Y-40421000D02*
X30643000Y-40421000D01*
X37917000Y-40461000D02*
X35330000Y-40461000D01*
X33250000Y-40461000D02*
X30663000Y-40461000D01*
X37896000Y-40501000D02*
X35330000Y-40501000D01*
X33250000Y-40501000D02*
X30684000Y-40501000D01*
X37874000Y-40541000D02*
X35330000Y-40541000D01*
X33250000Y-40541000D02*
X30706000Y-40541000D01*
X37852000Y-40581000D02*
X35330000Y-40581000D01*
X33250000Y-40581000D02*
X30728000Y-40581000D01*
X37830000Y-40621000D02*
X35330000Y-40621000D01*
X33250000Y-40621000D02*
X30750000Y-40621000D01*
X37807000Y-40661000D02*
X35330000Y-40661000D01*
X33250000Y-40661000D02*
X30773000Y-40661000D01*
X37783000Y-40701000D02*
X35330000Y-40701000D01*
X33250000Y-40701000D02*
X30797000Y-40701000D01*
X37759000Y-40741000D02*
X35330000Y-40741000D01*
X33250000Y-40741000D02*
X30821000Y-40741000D01*
X37734000Y-40781000D02*
X35330000Y-40781000D01*
X33250000Y-40781000D02*
X30846000Y-40781000D01*
X37708000Y-40821000D02*
X35330000Y-40821000D01*
X33250000Y-40821000D02*
X30872000Y-40821000D01*
X37682000Y-40861000D02*
X35330000Y-40861000D01*
X33250000Y-40861000D02*
X30898000Y-40861000D01*
X37655000Y-40901000D02*
X35330000Y-40901000D01*
X33250000Y-40901000D02*
X30925000Y-40901000D01*
X37628000Y-40941000D02*
X35330000Y-40941000D01*
X33250000Y-40941000D02*
X30952000Y-40941000D01*
X37599000Y-40981000D02*
X35330000Y-40981000D01*
X33250000Y-40981000D02*
X30981000Y-40981000D01*
X37570000Y-41021000D02*
X35330000Y-41021000D01*
X33250000Y-41021000D02*
X31010000Y-41021000D01*
X37540000Y-41061000D02*
X35330000Y-41061000D01*
X33250000Y-41061000D02*
X31040000Y-41061000D01*
X37510000Y-41101000D02*
X35330000Y-41101000D01*
X33250000Y-41101000D02*
X31070000Y-41101000D01*
X37479000Y-41141000D02*
X35330000Y-41141000D01*
X33250000Y-41141000D02*
X31101000Y-41141000D01*
X37446000Y-41181000D02*
X35330000Y-41181000D01*
X33250000Y-41181000D02*
X31134000Y-41181000D01*
X37414000Y-41221000D02*
X35330000Y-41221000D01*
X33250000Y-41221000D02*
X31166000Y-41221000D01*
X37380000Y-41261000D02*
X35330000Y-41261000D01*
X33250000Y-41261000D02*
X31200000Y-41261000D01*
X37345000Y-41301000D02*
X35330000Y-41301000D01*
X33250000Y-41301000D02*
X31235000Y-41301000D01*
X37309000Y-41341000D02*
X35330000Y-41341000D01*
X33250000Y-41341000D02*
X31271000Y-41341000D01*
X37273000Y-41381000D02*
X31307000Y-41381000D01*
X37235000Y-41421000D02*
X31345000Y-41421000D01*
X37197000Y-41461000D02*
X31383000Y-41461000D01*
X37157000Y-41501000D02*
X31423000Y-41501000D01*
X37116000Y-41541000D02*
X31464000Y-41541000D01*
X37074000Y-41581000D02*
X31506000Y-41581000D01*
X37031000Y-41621000D02*
X31549000Y-41621000D01*
X36987000Y-41661000D02*
X31593000Y-41661000D01*
X36941000Y-41701000D02*
X31639000Y-41701000D01*
X36894000Y-41741000D02*
X31686000Y-41741000D01*
X36846000Y-41781000D02*
X31734000Y-41781000D01*
X36795000Y-41821000D02*
X31785000Y-41821000D01*
X36744000Y-41861000D02*
X31836000Y-41861000D01*
X36690000Y-41901000D02*
X31890000Y-41901000D01*
X36635000Y-41941000D02*
X31945000Y-41941000D01*
X36577000Y-41981000D02*
X32003000Y-41981000D01*
X36518000Y-42021000D02*
X32062000Y-42021000D01*
X36456000Y-42061000D02*
X32124000Y-42061000D01*
X36392000Y-42101000D02*
X32188000Y-42101000D01*
X36324000Y-42141000D02*
X32256000Y-42141000D01*
X36254000Y-42181000D02*
X32326000Y-42181000D01*
X36180000Y-42221000D02*
X32400000Y-42221000D01*
X36103000Y-42261000D02*
X32477000Y-42261000D01*
X36021000Y-42301000D02*
X32559000Y-42301000D01*
X35935000Y-42341000D02*
X32645000Y-42341000D01*
X35842000Y-42381000D02*
X32738000Y-42381000D01*
X35743000Y-42421000D02*
X32837000Y-42421000D01*
X35636000Y-42461000D02*
X32944000Y-42461000D01*
X35519000Y-42501000D02*
X33061000Y-42501000D01*
X35388000Y-42541000D02*
X33192000Y-42541000D01*
X35238000Y-42581000D02*
X33342000Y-42581000D01*
X35058000Y-42621000D02*
X33522000Y-42621000D01*
X34823000Y-42661000D02*
X33757000Y-42661000D01*
X36605000Y-34170302D02*
X36605000Y-34970302D01*
X37005000Y-34570302D02*
X36205000Y-34570302D01*
%TO.C,C11*%
X48630000Y-43030000D02*
X45390000Y-43030000D01*
X48630000Y-40790000D02*
X45390000Y-40790000D01*
X48630000Y-43030000D02*
X48630000Y-42965000D01*
X48630000Y-40855000D02*
X48630000Y-40790000D01*
X45390000Y-43030000D02*
X45390000Y-42965000D01*
X45390000Y-40855000D02*
X45390000Y-40790000D01*
%TO.C,C10*%
X48630000Y-21440000D02*
X45390000Y-21440000D01*
X48630000Y-19200000D02*
X45390000Y-19200000D01*
X48630000Y-21440000D02*
X48630000Y-21375000D01*
X48630000Y-19265000D02*
X48630000Y-19200000D01*
X45390000Y-21440000D02*
X45390000Y-21375000D01*
X45390000Y-19265000D02*
X45390000Y-19200000D01*
%TO.C,C9*%
X51700000Y-35710000D02*
X54940000Y-35710000D01*
X51700000Y-37950000D02*
X54940000Y-37950000D01*
X51700000Y-35710000D02*
X51700000Y-35775000D01*
X51700000Y-37885000D02*
X51700000Y-37950000D01*
X54940000Y-35710000D02*
X54940000Y-35775000D01*
X54940000Y-37885000D02*
X54940000Y-37950000D01*
%TO.C,C8*%
X161140000Y-50430000D02*
X161140000Y-53670000D01*
X158900000Y-50430000D02*
X158900000Y-53670000D01*
X161140000Y-50430000D02*
X161075000Y-50430000D01*
X158965000Y-50430000D02*
X158900000Y-50430000D01*
X161140000Y-53670000D02*
X161075000Y-53670000D01*
X158965000Y-53670000D02*
X158900000Y-53670000D01*
%TO.C,C7*%
X161140000Y-32650000D02*
X161140000Y-35890000D01*
X158900000Y-32650000D02*
X158900000Y-35890000D01*
X161140000Y-32650000D02*
X161075000Y-32650000D01*
X158965000Y-32650000D02*
X158900000Y-32650000D01*
X161140000Y-35890000D02*
X161075000Y-35890000D01*
X158965000Y-35890000D02*
X158900000Y-35890000D01*
%TO.C,C6*%
X161140000Y-14870000D02*
X161140000Y-18110000D01*
X158900000Y-14870000D02*
X158900000Y-18110000D01*
X161140000Y-14870000D02*
X161075000Y-14870000D01*
X158965000Y-14870000D02*
X158900000Y-14870000D01*
X161140000Y-18110000D02*
X161075000Y-18110000D01*
X158965000Y-18110000D02*
X158900000Y-18110000D01*
%TO.C,C5*%
X123040000Y-45350000D02*
X123040000Y-48590000D01*
X120800000Y-45350000D02*
X120800000Y-48590000D01*
X123040000Y-45350000D02*
X122975000Y-45350000D01*
X120865000Y-45350000D02*
X120800000Y-45350000D01*
X123040000Y-48590000D02*
X122975000Y-48590000D01*
X120865000Y-48590000D02*
X120800000Y-48590000D01*
%TO.C,C4*%
X123040000Y-31380000D02*
X123040000Y-34620000D01*
X120800000Y-31380000D02*
X120800000Y-34620000D01*
X123040000Y-31380000D02*
X122975000Y-31380000D01*
X120865000Y-31380000D02*
X120800000Y-31380000D01*
X123040000Y-34620000D02*
X122975000Y-34620000D01*
X120865000Y-34620000D02*
X120800000Y-34620000D01*
%TO.C,C3*%
X123040000Y-17410000D02*
X123040000Y-20650000D01*
X120800000Y-17410000D02*
X120800000Y-20650000D01*
X123040000Y-17410000D02*
X122975000Y-17410000D01*
X120865000Y-17410000D02*
X120800000Y-17410000D01*
X123040000Y-20650000D02*
X122975000Y-20650000D01*
X120865000Y-20650000D02*
X120800000Y-20650000D01*
%TO.C,C2*%
X204320000Y-40270000D02*
X204320000Y-43510000D01*
X202080000Y-40270000D02*
X202080000Y-43510000D01*
X204320000Y-40270000D02*
X204255000Y-40270000D01*
X202145000Y-40270000D02*
X202080000Y-40270000D01*
X204320000Y-43510000D02*
X204255000Y-43510000D01*
X202145000Y-43510000D02*
X202080000Y-43510000D01*
%TO.C,C1*%
X204320000Y-9790000D02*
X204320000Y-13030000D01*
X202080000Y-9790000D02*
X202080000Y-13030000D01*
X204320000Y-9790000D02*
X204255000Y-9790000D01*
X202145000Y-9790000D02*
X202080000Y-9790000D01*
X204320000Y-13030000D02*
X204255000Y-13030000D01*
X202145000Y-13030000D02*
X202080000Y-13030000D01*
%TO.C,REF6*%
D11*
X54832380Y-2602380D02*
X54499047Y-2126190D01*
X54260952Y-2602380D02*
X54260952Y-1602380D01*
X54641904Y-1602380D01*
X54737142Y-1650000D01*
X54784761Y-1697619D01*
X54832380Y-1792857D01*
X54832380Y-1935714D01*
X54784761Y-2030952D01*
X54737142Y-2078571D01*
X54641904Y-2126190D01*
X54260952Y-2126190D01*
X55260952Y-2078571D02*
X55594285Y-2078571D01*
X55737142Y-2602380D02*
X55260952Y-2602380D01*
X55260952Y-1602380D01*
X55737142Y-1602380D01*
X56499047Y-2078571D02*
X56165714Y-2078571D01*
X56165714Y-2602380D02*
X56165714Y-1602380D01*
X56641904Y-1602380D01*
X57451428Y-1602380D02*
X57260952Y-1602380D01*
X57165714Y-1650000D01*
X57118095Y-1697619D01*
X57022857Y-1840476D01*
X56975238Y-2030952D01*
X56975238Y-2411904D01*
X57022857Y-2507142D01*
X57070476Y-2554761D01*
X57165714Y-2602380D01*
X57356190Y-2602380D01*
X57451428Y-2554761D01*
X57499047Y-2507142D01*
X57546666Y-2411904D01*
X57546666Y-2173809D01*
X57499047Y-2078571D01*
X57451428Y-2030952D01*
X57356190Y-1983333D01*
X57165714Y-1983333D01*
X57070476Y-2030952D01*
X57022857Y-2078571D01*
X56975238Y-2173809D01*
%TO.C,C13*%
X23507142Y-24197142D02*
X23459523Y-24244761D01*
X23316666Y-24292380D01*
X23221428Y-24292380D01*
X23078571Y-24244761D01*
X22983333Y-24149523D01*
X22935714Y-24054285D01*
X22888095Y-23863809D01*
X22888095Y-23720952D01*
X22935714Y-23530476D01*
X22983333Y-23435238D01*
X23078571Y-23340000D01*
X23221428Y-23292380D01*
X23316666Y-23292380D01*
X23459523Y-23340000D01*
X23507142Y-23387619D01*
X24459523Y-24292380D02*
X23888095Y-24292380D01*
X24173809Y-24292380D02*
X24173809Y-23292380D01*
X24078571Y-23435238D01*
X23983333Y-23530476D01*
X23888095Y-23578095D01*
X24792857Y-23292380D02*
X25411904Y-23292380D01*
X25078571Y-23673333D01*
X25221428Y-23673333D01*
X25316666Y-23720952D01*
X25364285Y-23768571D01*
X25411904Y-23863809D01*
X25411904Y-24101904D01*
X25364285Y-24197142D01*
X25316666Y-24244761D01*
X25221428Y-24292380D01*
X24935714Y-24292380D01*
X24840476Y-24244761D01*
X24792857Y-24197142D01*
%TO.C,REF5*%
X134842380Y-94042380D02*
X134509047Y-93566190D01*
X134270952Y-94042380D02*
X134270952Y-93042380D01*
X134651904Y-93042380D01*
X134747142Y-93090000D01*
X134794761Y-93137619D01*
X134842380Y-93232857D01*
X134842380Y-93375714D01*
X134794761Y-93470952D01*
X134747142Y-93518571D01*
X134651904Y-93566190D01*
X134270952Y-93566190D01*
X135270952Y-93518571D02*
X135604285Y-93518571D01*
X135747142Y-94042380D02*
X135270952Y-94042380D01*
X135270952Y-93042380D01*
X135747142Y-93042380D01*
X136509047Y-93518571D02*
X136175714Y-93518571D01*
X136175714Y-94042380D02*
X136175714Y-93042380D01*
X136651904Y-93042380D01*
X137509047Y-93042380D02*
X137032857Y-93042380D01*
X136985238Y-93518571D01*
X137032857Y-93470952D01*
X137128095Y-93423333D01*
X137366190Y-93423333D01*
X137461428Y-93470952D01*
X137509047Y-93518571D01*
X137556666Y-93613809D01*
X137556666Y-93851904D01*
X137509047Y-93947142D01*
X137461428Y-93994761D01*
X137366190Y-94042380D01*
X137128095Y-94042380D01*
X137032857Y-93994761D01*
X136985238Y-93947142D01*
%TO.C,REF4*%
X4032380Y-61022380D02*
X3699047Y-60546190D01*
X3460952Y-61022380D02*
X3460952Y-60022380D01*
X3841904Y-60022380D01*
X3937142Y-60070000D01*
X3984761Y-60117619D01*
X4032380Y-60212857D01*
X4032380Y-60355714D01*
X3984761Y-60450952D01*
X3937142Y-60498571D01*
X3841904Y-60546190D01*
X3460952Y-60546190D01*
X4460952Y-60498571D02*
X4794285Y-60498571D01*
X4937142Y-61022380D02*
X4460952Y-61022380D01*
X4460952Y-60022380D01*
X4937142Y-60022380D01*
X5699047Y-60498571D02*
X5365714Y-60498571D01*
X5365714Y-61022380D02*
X5365714Y-60022380D01*
X5841904Y-60022380D01*
X6651428Y-60355714D02*
X6651428Y-61022380D01*
X6413333Y-59974761D02*
X6175238Y-60689047D01*
X6794285Y-60689047D01*
%TO.C,REF3*%
X4032380Y-139762380D02*
X3699047Y-139286190D01*
X3460952Y-139762380D02*
X3460952Y-138762380D01*
X3841904Y-138762380D01*
X3937142Y-138810000D01*
X3984761Y-138857619D01*
X4032380Y-138952857D01*
X4032380Y-139095714D01*
X3984761Y-139190952D01*
X3937142Y-139238571D01*
X3841904Y-139286190D01*
X3460952Y-139286190D01*
X4460952Y-139238571D02*
X4794285Y-139238571D01*
X4937142Y-139762380D02*
X4460952Y-139762380D01*
X4460952Y-138762380D01*
X4937142Y-138762380D01*
X5699047Y-139238571D02*
X5365714Y-139238571D01*
X5365714Y-139762380D02*
X5365714Y-138762380D01*
X5841904Y-138762380D01*
X6127619Y-138762380D02*
X6746666Y-138762380D01*
X6413333Y-139143333D01*
X6556190Y-139143333D01*
X6651428Y-139190952D01*
X6699047Y-139238571D01*
X6746666Y-139333809D01*
X6746666Y-139571904D01*
X6699047Y-139667142D01*
X6651428Y-139714761D01*
X6556190Y-139762380D01*
X6270476Y-139762380D01*
X6175238Y-139714761D01*
X6127619Y-139667142D01*
%TO.C,REF2*%
X252952380Y-139762380D02*
X252619047Y-139286190D01*
X252380952Y-139762380D02*
X252380952Y-138762380D01*
X252761904Y-138762380D01*
X252857142Y-138810000D01*
X252904761Y-138857619D01*
X252952380Y-138952857D01*
X252952380Y-139095714D01*
X252904761Y-139190952D01*
X252857142Y-139238571D01*
X252761904Y-139286190D01*
X252380952Y-139286190D01*
X253380952Y-139238571D02*
X253714285Y-139238571D01*
X253857142Y-139762380D02*
X253380952Y-139762380D01*
X253380952Y-138762380D01*
X253857142Y-138762380D01*
X254619047Y-139238571D02*
X254285714Y-139238571D01*
X254285714Y-139762380D02*
X254285714Y-138762380D01*
X254761904Y-138762380D01*
X255095238Y-138857619D02*
X255142857Y-138810000D01*
X255238095Y-138762380D01*
X255476190Y-138762380D01*
X255571428Y-138810000D01*
X255619047Y-138857619D01*
X255666666Y-138952857D01*
X255666666Y-139048095D01*
X255619047Y-139190952D01*
X255047619Y-139762380D01*
X255666666Y-139762380D01*
%TO.C,REF1*%
X252952380Y-2602380D02*
X252619047Y-2126190D01*
X252380952Y-2602380D02*
X252380952Y-1602380D01*
X252761904Y-1602380D01*
X252857142Y-1650000D01*
X252904761Y-1697619D01*
X252952380Y-1792857D01*
X252952380Y-1935714D01*
X252904761Y-2030952D01*
X252857142Y-2078571D01*
X252761904Y-2126190D01*
X252380952Y-2126190D01*
X253380952Y-2078571D02*
X253714285Y-2078571D01*
X253857142Y-2602380D02*
X253380952Y-2602380D01*
X253380952Y-1602380D01*
X253857142Y-1602380D01*
X254619047Y-2078571D02*
X254285714Y-2078571D01*
X254285714Y-2602380D02*
X254285714Y-1602380D01*
X254761904Y-1602380D01*
X255666666Y-2602380D02*
X255095238Y-2602380D01*
X255380952Y-2602380D02*
X255380952Y-1602380D01*
X255285714Y-1745238D01*
X255190476Y-1840476D01*
X255095238Y-1888095D01*
%TO.C,R9*%
X25233333Y-2342380D02*
X24900000Y-1866190D01*
X24661904Y-2342380D02*
X24661904Y-1342380D01*
X25042857Y-1342380D01*
X25138095Y-1390000D01*
X25185714Y-1437619D01*
X25233333Y-1532857D01*
X25233333Y-1675714D01*
X25185714Y-1770952D01*
X25138095Y-1818571D01*
X25042857Y-1866190D01*
X24661904Y-1866190D01*
X25709523Y-2342380D02*
X25900000Y-2342380D01*
X25995238Y-2294761D01*
X26042857Y-2247142D01*
X26138095Y-2104285D01*
X26185714Y-1913809D01*
X26185714Y-1532857D01*
X26138095Y-1437619D01*
X26090476Y-1390000D01*
X25995238Y-1342380D01*
X25804761Y-1342380D01*
X25709523Y-1390000D01*
X25661904Y-1437619D01*
X25614285Y-1532857D01*
X25614285Y-1770952D01*
X25661904Y-1866190D01*
X25709523Y-1913809D01*
X25804761Y-1961428D01*
X25995238Y-1961428D01*
X26090476Y-1913809D01*
X26138095Y-1866190D01*
X26185714Y-1770952D01*
%TO.C,R8*%
X69683333Y-22662380D02*
X69350000Y-22186190D01*
X69111904Y-22662380D02*
X69111904Y-21662380D01*
X69492857Y-21662380D01*
X69588095Y-21710000D01*
X69635714Y-21757619D01*
X69683333Y-21852857D01*
X69683333Y-21995714D01*
X69635714Y-22090952D01*
X69588095Y-22138571D01*
X69492857Y-22186190D01*
X69111904Y-22186190D01*
X70254761Y-22090952D02*
X70159523Y-22043333D01*
X70111904Y-21995714D01*
X70064285Y-21900476D01*
X70064285Y-21852857D01*
X70111904Y-21757619D01*
X70159523Y-21710000D01*
X70254761Y-21662380D01*
X70445238Y-21662380D01*
X70540476Y-21710000D01*
X70588095Y-21757619D01*
X70635714Y-21852857D01*
X70635714Y-21900476D01*
X70588095Y-21995714D01*
X70540476Y-22043333D01*
X70445238Y-22090952D01*
X70254761Y-22090952D01*
X70159523Y-22138571D01*
X70111904Y-22186190D01*
X70064285Y-22281428D01*
X70064285Y-22471904D01*
X70111904Y-22567142D01*
X70159523Y-22614761D01*
X70254761Y-22662380D01*
X70445238Y-22662380D01*
X70540476Y-22614761D01*
X70588095Y-22567142D01*
X70635714Y-22471904D01*
X70635714Y-22281428D01*
X70588095Y-22186190D01*
X70540476Y-22138571D01*
X70445238Y-22090952D01*
%TO.C,R7*%
X69683333Y-42982380D02*
X69350000Y-42506190D01*
X69111904Y-42982380D02*
X69111904Y-41982380D01*
X69492857Y-41982380D01*
X69588095Y-42030000D01*
X69635714Y-42077619D01*
X69683333Y-42172857D01*
X69683333Y-42315714D01*
X69635714Y-42410952D01*
X69588095Y-42458571D01*
X69492857Y-42506190D01*
X69111904Y-42506190D01*
X70016666Y-41982380D02*
X70683333Y-41982380D01*
X70254761Y-42982380D01*
%TO.C,D27*%
X21892380Y-10104285D02*
X20892380Y-10104285D01*
X20892380Y-9866190D01*
X20940000Y-9723333D01*
X21035238Y-9628095D01*
X21130476Y-9580476D01*
X21320952Y-9532857D01*
X21463809Y-9532857D01*
X21654285Y-9580476D01*
X21749523Y-9628095D01*
X21844761Y-9723333D01*
X21892380Y-9866190D01*
X21892380Y-10104285D01*
X20987619Y-9151904D02*
X20940000Y-9104285D01*
X20892380Y-9009047D01*
X20892380Y-8770952D01*
X20940000Y-8675714D01*
X20987619Y-8628095D01*
X21082857Y-8580476D01*
X21178095Y-8580476D01*
X21320952Y-8628095D01*
X21892380Y-9199523D01*
X21892380Y-8580476D01*
X20892380Y-8247142D02*
X20892380Y-7580476D01*
X21892380Y-8009047D01*
%TO.C,D26*%
X66342380Y-50744285D02*
X65342380Y-50744285D01*
X65342380Y-50506190D01*
X65390000Y-50363333D01*
X65485238Y-50268095D01*
X65580476Y-50220476D01*
X65770952Y-50172857D01*
X65913809Y-50172857D01*
X66104285Y-50220476D01*
X66199523Y-50268095D01*
X66294761Y-50363333D01*
X66342380Y-50506190D01*
X66342380Y-50744285D01*
X65437619Y-49791904D02*
X65390000Y-49744285D01*
X65342380Y-49649047D01*
X65342380Y-49410952D01*
X65390000Y-49315714D01*
X65437619Y-49268095D01*
X65532857Y-49220476D01*
X65628095Y-49220476D01*
X65770952Y-49268095D01*
X66342380Y-49839523D01*
X66342380Y-49220476D01*
X65342380Y-48363333D02*
X65342380Y-48553809D01*
X65390000Y-48649047D01*
X65437619Y-48696666D01*
X65580476Y-48791904D01*
X65770952Y-48839523D01*
X66151904Y-48839523D01*
X66247142Y-48791904D01*
X66294761Y-48744285D01*
X66342380Y-48649047D01*
X66342380Y-48458571D01*
X66294761Y-48363333D01*
X66247142Y-48315714D01*
X66151904Y-48268095D01*
X65913809Y-48268095D01*
X65818571Y-48315714D01*
X65770952Y-48363333D01*
X65723333Y-48458571D01*
X65723333Y-48649047D01*
X65770952Y-48744285D01*
X65818571Y-48791904D01*
X65913809Y-48839523D01*
%TO.C,D25*%
X66342380Y-30424285D02*
X65342380Y-30424285D01*
X65342380Y-30186190D01*
X65390000Y-30043333D01*
X65485238Y-29948095D01*
X65580476Y-29900476D01*
X65770952Y-29852857D01*
X65913809Y-29852857D01*
X66104285Y-29900476D01*
X66199523Y-29948095D01*
X66294761Y-30043333D01*
X66342380Y-30186190D01*
X66342380Y-30424285D01*
X65437619Y-29471904D02*
X65390000Y-29424285D01*
X65342380Y-29329047D01*
X65342380Y-29090952D01*
X65390000Y-28995714D01*
X65437619Y-28948095D01*
X65532857Y-28900476D01*
X65628095Y-28900476D01*
X65770952Y-28948095D01*
X66342380Y-29519523D01*
X66342380Y-28900476D01*
X65342380Y-27995714D02*
X65342380Y-28471904D01*
X65818571Y-28519523D01*
X65770952Y-28471904D01*
X65723333Y-28376666D01*
X65723333Y-28138571D01*
X65770952Y-28043333D01*
X65818571Y-27995714D01*
X65913809Y-27948095D01*
X66151904Y-27948095D01*
X66247142Y-27995714D01*
X66294761Y-28043333D01*
X66342380Y-28138571D01*
X66342380Y-28376666D01*
X66294761Y-28471904D01*
X66247142Y-28519523D01*
%TO.C,U10*%
X45751904Y-42842380D02*
X45751904Y-43651904D01*
X45799523Y-43747142D01*
X45847142Y-43794761D01*
X45942380Y-43842380D01*
X46132857Y-43842380D01*
X46228095Y-43794761D01*
X46275714Y-43747142D01*
X46323333Y-43651904D01*
X46323333Y-42842380D01*
X47323333Y-43842380D02*
X46751904Y-43842380D01*
X47037619Y-43842380D02*
X47037619Y-42842380D01*
X46942380Y-42985238D01*
X46847142Y-43080476D01*
X46751904Y-43128095D01*
X47942380Y-42842380D02*
X48037619Y-42842380D01*
X48132857Y-42890000D01*
X48180476Y-42937619D01*
X48228095Y-43032857D01*
X48275714Y-43223333D01*
X48275714Y-43461428D01*
X48228095Y-43651904D01*
X48180476Y-43747142D01*
X48132857Y-43794761D01*
X48037619Y-43842380D01*
X47942380Y-43842380D01*
X47847142Y-43794761D01*
X47799523Y-43747142D01*
X47751904Y-43651904D01*
X47704285Y-43461428D01*
X47704285Y-43223333D01*
X47751904Y-43032857D01*
X47799523Y-42937619D01*
X47847142Y-42890000D01*
X47942380Y-42842380D01*
%TO.C,U9*%
X46228095Y-21252380D02*
X46228095Y-22061904D01*
X46275714Y-22157142D01*
X46323333Y-22204761D01*
X46418571Y-22252380D01*
X46609047Y-22252380D01*
X46704285Y-22204761D01*
X46751904Y-22157142D01*
X46799523Y-22061904D01*
X46799523Y-21252380D01*
X47323333Y-22252380D02*
X47513809Y-22252380D01*
X47609047Y-22204761D01*
X47656666Y-22157142D01*
X47751904Y-22014285D01*
X47799523Y-21823809D01*
X47799523Y-21442857D01*
X47751904Y-21347619D01*
X47704285Y-21300000D01*
X47609047Y-21252380D01*
X47418571Y-21252380D01*
X47323333Y-21300000D01*
X47275714Y-21347619D01*
X47228095Y-21442857D01*
X47228095Y-21680952D01*
X47275714Y-21776190D01*
X47323333Y-21823809D01*
X47418571Y-21871428D01*
X47609047Y-21871428D01*
X47704285Y-21823809D01*
X47751904Y-21776190D01*
X47799523Y-21680952D01*
%TO.C,U8*%
X160922380Y-54101904D02*
X161731904Y-54101904D01*
X161827142Y-54054285D01*
X161874761Y-54006666D01*
X161922380Y-53911428D01*
X161922380Y-53720952D01*
X161874761Y-53625714D01*
X161827142Y-53578095D01*
X161731904Y-53530476D01*
X160922380Y-53530476D01*
X161350952Y-52911428D02*
X161303333Y-53006666D01*
X161255714Y-53054285D01*
X161160476Y-53101904D01*
X161112857Y-53101904D01*
X161017619Y-53054285D01*
X160970000Y-53006666D01*
X160922380Y-52911428D01*
X160922380Y-52720952D01*
X160970000Y-52625714D01*
X161017619Y-52578095D01*
X161112857Y-52530476D01*
X161160476Y-52530476D01*
X161255714Y-52578095D01*
X161303333Y-52625714D01*
X161350952Y-52720952D01*
X161350952Y-52911428D01*
X161398571Y-53006666D01*
X161446190Y-53054285D01*
X161541428Y-53101904D01*
X161731904Y-53101904D01*
X161827142Y-53054285D01*
X161874761Y-53006666D01*
X161922380Y-52911428D01*
X161922380Y-52720952D01*
X161874761Y-52625714D01*
X161827142Y-52578095D01*
X161731904Y-52530476D01*
X161541428Y-52530476D01*
X161446190Y-52578095D01*
X161398571Y-52625714D01*
X161350952Y-52720952D01*
%TO.C,U7*%
X160922380Y-36321904D02*
X161731904Y-36321904D01*
X161827142Y-36274285D01*
X161874761Y-36226666D01*
X161922380Y-36131428D01*
X161922380Y-35940952D01*
X161874761Y-35845714D01*
X161827142Y-35798095D01*
X161731904Y-35750476D01*
X160922380Y-35750476D01*
X160922380Y-35369523D02*
X160922380Y-34702857D01*
X161922380Y-35131428D01*
%TO.C,U6*%
X160922380Y-19051904D02*
X161731904Y-19051904D01*
X161827142Y-19004285D01*
X161874761Y-18956666D01*
X161922380Y-18861428D01*
X161922380Y-18670952D01*
X161874761Y-18575714D01*
X161827142Y-18528095D01*
X161731904Y-18480476D01*
X160922380Y-18480476D01*
X160922380Y-17575714D02*
X160922380Y-17766190D01*
X160970000Y-17861428D01*
X161017619Y-17909047D01*
X161160476Y-18004285D01*
X161350952Y-18051904D01*
X161731904Y-18051904D01*
X161827142Y-18004285D01*
X161874761Y-17956666D01*
X161922380Y-17861428D01*
X161922380Y-17670952D01*
X161874761Y-17575714D01*
X161827142Y-17528095D01*
X161731904Y-17480476D01*
X161493809Y-17480476D01*
X161398571Y-17528095D01*
X161350952Y-17575714D01*
X161303333Y-17670952D01*
X161303333Y-17861428D01*
X161350952Y-17956666D01*
X161398571Y-18004285D01*
X161493809Y-18051904D01*
%TO.C,U5*%
X122852380Y-49021904D02*
X123661904Y-49021904D01*
X123757142Y-48974285D01*
X123804761Y-48926666D01*
X123852380Y-48831428D01*
X123852380Y-48640952D01*
X123804761Y-48545714D01*
X123757142Y-48498095D01*
X123661904Y-48450476D01*
X122852380Y-48450476D01*
X122852380Y-47498095D02*
X122852380Y-47974285D01*
X123328571Y-48021904D01*
X123280952Y-47974285D01*
X123233333Y-47879047D01*
X123233333Y-47640952D01*
X123280952Y-47545714D01*
X123328571Y-47498095D01*
X123423809Y-47450476D01*
X123661904Y-47450476D01*
X123757142Y-47498095D01*
X123804761Y-47545714D01*
X123852380Y-47640952D01*
X123852380Y-47879047D01*
X123804761Y-47974285D01*
X123757142Y-48021904D01*
%TO.C,U4*%
X122852380Y-35051904D02*
X123661904Y-35051904D01*
X123757142Y-35004285D01*
X123804761Y-34956666D01*
X123852380Y-34861428D01*
X123852380Y-34670952D01*
X123804761Y-34575714D01*
X123757142Y-34528095D01*
X123661904Y-34480476D01*
X122852380Y-34480476D01*
X123185714Y-33575714D02*
X123852380Y-33575714D01*
X122804761Y-33813809D02*
X123519047Y-34051904D01*
X123519047Y-33432857D01*
%TO.C,U3*%
X122852380Y-21081904D02*
X123661904Y-21081904D01*
X123757142Y-21034285D01*
X123804761Y-20986666D01*
X123852380Y-20891428D01*
X123852380Y-20700952D01*
X123804761Y-20605714D01*
X123757142Y-20558095D01*
X123661904Y-20510476D01*
X122852380Y-20510476D01*
X122852380Y-20129523D02*
X122852380Y-19510476D01*
X123233333Y-19843809D01*
X123233333Y-19700952D01*
X123280952Y-19605714D01*
X123328571Y-19558095D01*
X123423809Y-19510476D01*
X123661904Y-19510476D01*
X123757142Y-19558095D01*
X123804761Y-19605714D01*
X123852380Y-19700952D01*
X123852380Y-19986666D01*
X123804761Y-20081904D01*
X123757142Y-20129523D01*
%TO.C,U2*%
X204132380Y-47751904D02*
X204941904Y-47751904D01*
X205037142Y-47704285D01*
X205084761Y-47656666D01*
X205132380Y-47561428D01*
X205132380Y-47370952D01*
X205084761Y-47275714D01*
X205037142Y-47228095D01*
X204941904Y-47180476D01*
X204132380Y-47180476D01*
X204227619Y-46751904D02*
X204180000Y-46704285D01*
X204132380Y-46609047D01*
X204132380Y-46370952D01*
X204180000Y-46275714D01*
X204227619Y-46228095D01*
X204322857Y-46180476D01*
X204418095Y-46180476D01*
X204560952Y-46228095D01*
X205132380Y-46799523D01*
X205132380Y-46180476D01*
%TO.C,U1*%
X204132380Y-17271904D02*
X204941904Y-17271904D01*
X205037142Y-17224285D01*
X205084761Y-17176666D01*
X205132380Y-17081428D01*
X205132380Y-16890952D01*
X205084761Y-16795714D01*
X205037142Y-16748095D01*
X204941904Y-16700476D01*
X204132380Y-16700476D01*
X205132380Y-15700476D02*
X205132380Y-16271904D01*
X205132380Y-15986190D02*
X204132380Y-15986190D01*
X204275238Y-16081428D01*
X204370476Y-16176666D01*
X204418095Y-16271904D01*
%TO.C,SW32*%
X5810476Y-44084761D02*
X5953333Y-44132380D01*
X6191428Y-44132380D01*
X6286666Y-44084761D01*
X6334285Y-44037142D01*
X6381904Y-43941904D01*
X6381904Y-43846666D01*
X6334285Y-43751428D01*
X6286666Y-43703809D01*
X6191428Y-43656190D01*
X6000952Y-43608571D01*
X5905714Y-43560952D01*
X5858095Y-43513333D01*
X5810476Y-43418095D01*
X5810476Y-43322857D01*
X5858095Y-43227619D01*
X5905714Y-43180000D01*
X6000952Y-43132380D01*
X6239047Y-43132380D01*
X6381904Y-43180000D01*
X6715238Y-43132380D02*
X6953333Y-44132380D01*
X7143809Y-43418095D01*
X7334285Y-44132380D01*
X7572380Y-43132380D01*
X7858095Y-43132380D02*
X8477142Y-43132380D01*
X8143809Y-43513333D01*
X8286666Y-43513333D01*
X8381904Y-43560952D01*
X8429523Y-43608571D01*
X8477142Y-43703809D01*
X8477142Y-43941904D01*
X8429523Y-44037142D01*
X8381904Y-44084761D01*
X8286666Y-44132380D01*
X8000952Y-44132380D01*
X7905714Y-44084761D01*
X7858095Y-44037142D01*
X8858095Y-43227619D02*
X8905714Y-43180000D01*
X9000952Y-43132380D01*
X9239047Y-43132380D01*
X9334285Y-43180000D01*
X9381904Y-43227619D01*
X9429523Y-43322857D01*
X9429523Y-43418095D01*
X9381904Y-43560952D01*
X8810476Y-44132380D01*
X9429523Y-44132380D01*
%TO.C,SW31*%
X235680476Y-125364761D02*
X235823333Y-125412380D01*
X236061428Y-125412380D01*
X236156666Y-125364761D01*
X236204285Y-125317142D01*
X236251904Y-125221904D01*
X236251904Y-125126666D01*
X236204285Y-125031428D01*
X236156666Y-124983809D01*
X236061428Y-124936190D01*
X235870952Y-124888571D01*
X235775714Y-124840952D01*
X235728095Y-124793333D01*
X235680476Y-124698095D01*
X235680476Y-124602857D01*
X235728095Y-124507619D01*
X235775714Y-124460000D01*
X235870952Y-124412380D01*
X236109047Y-124412380D01*
X236251904Y-124460000D01*
X236585238Y-124412380D02*
X236823333Y-125412380D01*
X237013809Y-124698095D01*
X237204285Y-125412380D01*
X237442380Y-124412380D01*
X237728095Y-124412380D02*
X238347142Y-124412380D01*
X238013809Y-124793333D01*
X238156666Y-124793333D01*
X238251904Y-124840952D01*
X238299523Y-124888571D01*
X238347142Y-124983809D01*
X238347142Y-125221904D01*
X238299523Y-125317142D01*
X238251904Y-125364761D01*
X238156666Y-125412380D01*
X237870952Y-125412380D01*
X237775714Y-125364761D01*
X237728095Y-125317142D01*
X239299523Y-125412380D02*
X238728095Y-125412380D01*
X239013809Y-125412380D02*
X239013809Y-124412380D01*
X238918571Y-124555238D01*
X238823333Y-124650476D01*
X238728095Y-124698095D01*
%TO.C,SW30*%
X200120476Y-125364761D02*
X200263333Y-125412380D01*
X200501428Y-125412380D01*
X200596666Y-125364761D01*
X200644285Y-125317142D01*
X200691904Y-125221904D01*
X200691904Y-125126666D01*
X200644285Y-125031428D01*
X200596666Y-124983809D01*
X200501428Y-124936190D01*
X200310952Y-124888571D01*
X200215714Y-124840952D01*
X200168095Y-124793333D01*
X200120476Y-124698095D01*
X200120476Y-124602857D01*
X200168095Y-124507619D01*
X200215714Y-124460000D01*
X200310952Y-124412380D01*
X200549047Y-124412380D01*
X200691904Y-124460000D01*
X201025238Y-124412380D02*
X201263333Y-125412380D01*
X201453809Y-124698095D01*
X201644285Y-125412380D01*
X201882380Y-124412380D01*
X202168095Y-124412380D02*
X202787142Y-124412380D01*
X202453809Y-124793333D01*
X202596666Y-124793333D01*
X202691904Y-124840952D01*
X202739523Y-124888571D01*
X202787142Y-124983809D01*
X202787142Y-125221904D01*
X202739523Y-125317142D01*
X202691904Y-125364761D01*
X202596666Y-125412380D01*
X202310952Y-125412380D01*
X202215714Y-125364761D01*
X202168095Y-125317142D01*
X203406190Y-124412380D02*
X203501428Y-124412380D01*
X203596666Y-124460000D01*
X203644285Y-124507619D01*
X203691904Y-124602857D01*
X203739523Y-124793333D01*
X203739523Y-125031428D01*
X203691904Y-125221904D01*
X203644285Y-125317142D01*
X203596666Y-125364761D01*
X203501428Y-125412380D01*
X203406190Y-125412380D01*
X203310952Y-125364761D01*
X203263333Y-125317142D01*
X203215714Y-125221904D01*
X203168095Y-125031428D01*
X203168095Y-124793333D01*
X203215714Y-124602857D01*
X203263333Y-124507619D01*
X203310952Y-124460000D01*
X203406190Y-124412380D01*
%TO.C,SW29*%
X184880476Y-125364761D02*
X185023333Y-125412380D01*
X185261428Y-125412380D01*
X185356666Y-125364761D01*
X185404285Y-125317142D01*
X185451904Y-125221904D01*
X185451904Y-125126666D01*
X185404285Y-125031428D01*
X185356666Y-124983809D01*
X185261428Y-124936190D01*
X185070952Y-124888571D01*
X184975714Y-124840952D01*
X184928095Y-124793333D01*
X184880476Y-124698095D01*
X184880476Y-124602857D01*
X184928095Y-124507619D01*
X184975714Y-124460000D01*
X185070952Y-124412380D01*
X185309047Y-124412380D01*
X185451904Y-124460000D01*
X185785238Y-124412380D02*
X186023333Y-125412380D01*
X186213809Y-124698095D01*
X186404285Y-125412380D01*
X186642380Y-124412380D01*
X186975714Y-124507619D02*
X187023333Y-124460000D01*
X187118571Y-124412380D01*
X187356666Y-124412380D01*
X187451904Y-124460000D01*
X187499523Y-124507619D01*
X187547142Y-124602857D01*
X187547142Y-124698095D01*
X187499523Y-124840952D01*
X186928095Y-125412380D01*
X187547142Y-125412380D01*
X188023333Y-125412380D02*
X188213809Y-125412380D01*
X188309047Y-125364761D01*
X188356666Y-125317142D01*
X188451904Y-125174285D01*
X188499523Y-124983809D01*
X188499523Y-124602857D01*
X188451904Y-124507619D01*
X188404285Y-124460000D01*
X188309047Y-124412380D01*
X188118571Y-124412380D01*
X188023333Y-124460000D01*
X187975714Y-124507619D01*
X187928095Y-124602857D01*
X187928095Y-124840952D01*
X187975714Y-124936190D01*
X188023333Y-124983809D01*
X188118571Y-125031428D01*
X188309047Y-125031428D01*
X188404285Y-124983809D01*
X188451904Y-124936190D01*
X188499523Y-124840952D01*
%TO.C,SW28*%
X215360476Y-125364761D02*
X215503333Y-125412380D01*
X215741428Y-125412380D01*
X215836666Y-125364761D01*
X215884285Y-125317142D01*
X215931904Y-125221904D01*
X215931904Y-125126666D01*
X215884285Y-125031428D01*
X215836666Y-124983809D01*
X215741428Y-124936190D01*
X215550952Y-124888571D01*
X215455714Y-124840952D01*
X215408095Y-124793333D01*
X215360476Y-124698095D01*
X215360476Y-124602857D01*
X215408095Y-124507619D01*
X215455714Y-124460000D01*
X215550952Y-124412380D01*
X215789047Y-124412380D01*
X215931904Y-124460000D01*
X216265238Y-124412380D02*
X216503333Y-125412380D01*
X216693809Y-124698095D01*
X216884285Y-125412380D01*
X217122380Y-124412380D01*
X217455714Y-124507619D02*
X217503333Y-124460000D01*
X217598571Y-124412380D01*
X217836666Y-124412380D01*
X217931904Y-124460000D01*
X217979523Y-124507619D01*
X218027142Y-124602857D01*
X218027142Y-124698095D01*
X217979523Y-124840952D01*
X217408095Y-125412380D01*
X218027142Y-125412380D01*
X218598571Y-124840952D02*
X218503333Y-124793333D01*
X218455714Y-124745714D01*
X218408095Y-124650476D01*
X218408095Y-124602857D01*
X218455714Y-124507619D01*
X218503333Y-124460000D01*
X218598571Y-124412380D01*
X218789047Y-124412380D01*
X218884285Y-124460000D01*
X218931904Y-124507619D01*
X218979523Y-124602857D01*
X218979523Y-124650476D01*
X218931904Y-124745714D01*
X218884285Y-124793333D01*
X218789047Y-124840952D01*
X218598571Y-124840952D01*
X218503333Y-124888571D01*
X218455714Y-124936190D01*
X218408095Y-125031428D01*
X218408095Y-125221904D01*
X218455714Y-125317142D01*
X218503333Y-125364761D01*
X218598571Y-125412380D01*
X218789047Y-125412380D01*
X218884285Y-125364761D01*
X218931904Y-125317142D01*
X218979523Y-125221904D01*
X218979523Y-125031428D01*
X218931904Y-124936190D01*
X218884285Y-124888571D01*
X218789047Y-124840952D01*
%TO.C,SW27*%
X168370476Y-125364761D02*
X168513333Y-125412380D01*
X168751428Y-125412380D01*
X168846666Y-125364761D01*
X168894285Y-125317142D01*
X168941904Y-125221904D01*
X168941904Y-125126666D01*
X168894285Y-125031428D01*
X168846666Y-124983809D01*
X168751428Y-124936190D01*
X168560952Y-124888571D01*
X168465714Y-124840952D01*
X168418095Y-124793333D01*
X168370476Y-124698095D01*
X168370476Y-124602857D01*
X168418095Y-124507619D01*
X168465714Y-124460000D01*
X168560952Y-124412380D01*
X168799047Y-124412380D01*
X168941904Y-124460000D01*
X169275238Y-124412380D02*
X169513333Y-125412380D01*
X169703809Y-124698095D01*
X169894285Y-125412380D01*
X170132380Y-124412380D01*
X170465714Y-124507619D02*
X170513333Y-124460000D01*
X170608571Y-124412380D01*
X170846666Y-124412380D01*
X170941904Y-124460000D01*
X170989523Y-124507619D01*
X171037142Y-124602857D01*
X171037142Y-124698095D01*
X170989523Y-124840952D01*
X170418095Y-125412380D01*
X171037142Y-125412380D01*
X171370476Y-124412380D02*
X172037142Y-124412380D01*
X171608571Y-125412380D01*
%TO.C,SW26*%
X154400476Y-125364761D02*
X154543333Y-125412380D01*
X154781428Y-125412380D01*
X154876666Y-125364761D01*
X154924285Y-125317142D01*
X154971904Y-125221904D01*
X154971904Y-125126666D01*
X154924285Y-125031428D01*
X154876666Y-124983809D01*
X154781428Y-124936190D01*
X154590952Y-124888571D01*
X154495714Y-124840952D01*
X154448095Y-124793333D01*
X154400476Y-124698095D01*
X154400476Y-124602857D01*
X154448095Y-124507619D01*
X154495714Y-124460000D01*
X154590952Y-124412380D01*
X154829047Y-124412380D01*
X154971904Y-124460000D01*
X155305238Y-124412380D02*
X155543333Y-125412380D01*
X155733809Y-124698095D01*
X155924285Y-125412380D01*
X156162380Y-124412380D01*
X156495714Y-124507619D02*
X156543333Y-124460000D01*
X156638571Y-124412380D01*
X156876666Y-124412380D01*
X156971904Y-124460000D01*
X157019523Y-124507619D01*
X157067142Y-124602857D01*
X157067142Y-124698095D01*
X157019523Y-124840952D01*
X156448095Y-125412380D01*
X157067142Y-125412380D01*
X157924285Y-124412380D02*
X157733809Y-124412380D01*
X157638571Y-124460000D01*
X157590952Y-124507619D01*
X157495714Y-124650476D01*
X157448095Y-124840952D01*
X157448095Y-125221904D01*
X157495714Y-125317142D01*
X157543333Y-125364761D01*
X157638571Y-125412380D01*
X157829047Y-125412380D01*
X157924285Y-125364761D01*
X157971904Y-125317142D01*
X158019523Y-125221904D01*
X158019523Y-124983809D01*
X157971904Y-124888571D01*
X157924285Y-124840952D01*
X157829047Y-124793333D01*
X157638571Y-124793333D01*
X157543333Y-124840952D01*
X157495714Y-124888571D01*
X157448095Y-124983809D01*
%TO.C,SW25*%
X140430476Y-125364761D02*
X140573333Y-125412380D01*
X140811428Y-125412380D01*
X140906666Y-125364761D01*
X140954285Y-125317142D01*
X141001904Y-125221904D01*
X141001904Y-125126666D01*
X140954285Y-125031428D01*
X140906666Y-124983809D01*
X140811428Y-124936190D01*
X140620952Y-124888571D01*
X140525714Y-124840952D01*
X140478095Y-124793333D01*
X140430476Y-124698095D01*
X140430476Y-124602857D01*
X140478095Y-124507619D01*
X140525714Y-124460000D01*
X140620952Y-124412380D01*
X140859047Y-124412380D01*
X141001904Y-124460000D01*
X141335238Y-124412380D02*
X141573333Y-125412380D01*
X141763809Y-124698095D01*
X141954285Y-125412380D01*
X142192380Y-124412380D01*
X142525714Y-124507619D02*
X142573333Y-124460000D01*
X142668571Y-124412380D01*
X142906666Y-124412380D01*
X143001904Y-124460000D01*
X143049523Y-124507619D01*
X143097142Y-124602857D01*
X143097142Y-124698095D01*
X143049523Y-124840952D01*
X142478095Y-125412380D01*
X143097142Y-125412380D01*
X144001904Y-124412380D02*
X143525714Y-124412380D01*
X143478095Y-124888571D01*
X143525714Y-124840952D01*
X143620952Y-124793333D01*
X143859047Y-124793333D01*
X143954285Y-124840952D01*
X144001904Y-124888571D01*
X144049523Y-124983809D01*
X144049523Y-125221904D01*
X144001904Y-125317142D01*
X143954285Y-125364761D01*
X143859047Y-125412380D01*
X143620952Y-125412380D01*
X143525714Y-125364761D01*
X143478095Y-125317142D01*
%TO.C,SW24*%
X8350476Y-125364761D02*
X8493333Y-125412380D01*
X8731428Y-125412380D01*
X8826666Y-125364761D01*
X8874285Y-125317142D01*
X8921904Y-125221904D01*
X8921904Y-125126666D01*
X8874285Y-125031428D01*
X8826666Y-124983809D01*
X8731428Y-124936190D01*
X8540952Y-124888571D01*
X8445714Y-124840952D01*
X8398095Y-124793333D01*
X8350476Y-124698095D01*
X8350476Y-124602857D01*
X8398095Y-124507619D01*
X8445714Y-124460000D01*
X8540952Y-124412380D01*
X8779047Y-124412380D01*
X8921904Y-124460000D01*
X9255238Y-124412380D02*
X9493333Y-125412380D01*
X9683809Y-124698095D01*
X9874285Y-125412380D01*
X10112380Y-124412380D01*
X10445714Y-124507619D02*
X10493333Y-124460000D01*
X10588571Y-124412380D01*
X10826666Y-124412380D01*
X10921904Y-124460000D01*
X10969523Y-124507619D01*
X11017142Y-124602857D01*
X11017142Y-124698095D01*
X10969523Y-124840952D01*
X10398095Y-125412380D01*
X11017142Y-125412380D01*
X11874285Y-124745714D02*
X11874285Y-125412380D01*
X11636190Y-124364761D02*
X11398095Y-125079047D01*
X12017142Y-125079047D01*
%TO.C,SW23*%
X23590476Y-125364761D02*
X23733333Y-125412380D01*
X23971428Y-125412380D01*
X24066666Y-125364761D01*
X24114285Y-125317142D01*
X24161904Y-125221904D01*
X24161904Y-125126666D01*
X24114285Y-125031428D01*
X24066666Y-124983809D01*
X23971428Y-124936190D01*
X23780952Y-124888571D01*
X23685714Y-124840952D01*
X23638095Y-124793333D01*
X23590476Y-124698095D01*
X23590476Y-124602857D01*
X23638095Y-124507619D01*
X23685714Y-124460000D01*
X23780952Y-124412380D01*
X24019047Y-124412380D01*
X24161904Y-124460000D01*
X24495238Y-124412380D02*
X24733333Y-125412380D01*
X24923809Y-124698095D01*
X25114285Y-125412380D01*
X25352380Y-124412380D01*
X25685714Y-124507619D02*
X25733333Y-124460000D01*
X25828571Y-124412380D01*
X26066666Y-124412380D01*
X26161904Y-124460000D01*
X26209523Y-124507619D01*
X26257142Y-124602857D01*
X26257142Y-124698095D01*
X26209523Y-124840952D01*
X25638095Y-125412380D01*
X26257142Y-125412380D01*
X26590476Y-124412380D02*
X27209523Y-124412380D01*
X26876190Y-124793333D01*
X27019047Y-124793333D01*
X27114285Y-124840952D01*
X27161904Y-124888571D01*
X27209523Y-124983809D01*
X27209523Y-125221904D01*
X27161904Y-125317142D01*
X27114285Y-125364761D01*
X27019047Y-125412380D01*
X26733333Y-125412380D01*
X26638095Y-125364761D01*
X26590476Y-125317142D01*
%TO.C,SW22*%
X38830476Y-125364761D02*
X38973333Y-125412380D01*
X39211428Y-125412380D01*
X39306666Y-125364761D01*
X39354285Y-125317142D01*
X39401904Y-125221904D01*
X39401904Y-125126666D01*
X39354285Y-125031428D01*
X39306666Y-124983809D01*
X39211428Y-124936190D01*
X39020952Y-124888571D01*
X38925714Y-124840952D01*
X38878095Y-124793333D01*
X38830476Y-124698095D01*
X38830476Y-124602857D01*
X38878095Y-124507619D01*
X38925714Y-124460000D01*
X39020952Y-124412380D01*
X39259047Y-124412380D01*
X39401904Y-124460000D01*
X39735238Y-124412380D02*
X39973333Y-125412380D01*
X40163809Y-124698095D01*
X40354285Y-125412380D01*
X40592380Y-124412380D01*
X40925714Y-124507619D02*
X40973333Y-124460000D01*
X41068571Y-124412380D01*
X41306666Y-124412380D01*
X41401904Y-124460000D01*
X41449523Y-124507619D01*
X41497142Y-124602857D01*
X41497142Y-124698095D01*
X41449523Y-124840952D01*
X40878095Y-125412380D01*
X41497142Y-125412380D01*
X41878095Y-124507619D02*
X41925714Y-124460000D01*
X42020952Y-124412380D01*
X42259047Y-124412380D01*
X42354285Y-124460000D01*
X42401904Y-124507619D01*
X42449523Y-124602857D01*
X42449523Y-124698095D01*
X42401904Y-124840952D01*
X41830476Y-125412380D01*
X42449523Y-125412380D01*
%TO.C,SW21*%
X54070476Y-125364761D02*
X54213333Y-125412380D01*
X54451428Y-125412380D01*
X54546666Y-125364761D01*
X54594285Y-125317142D01*
X54641904Y-125221904D01*
X54641904Y-125126666D01*
X54594285Y-125031428D01*
X54546666Y-124983809D01*
X54451428Y-124936190D01*
X54260952Y-124888571D01*
X54165714Y-124840952D01*
X54118095Y-124793333D01*
X54070476Y-124698095D01*
X54070476Y-124602857D01*
X54118095Y-124507619D01*
X54165714Y-124460000D01*
X54260952Y-124412380D01*
X54499047Y-124412380D01*
X54641904Y-124460000D01*
X54975238Y-124412380D02*
X55213333Y-125412380D01*
X55403809Y-124698095D01*
X55594285Y-125412380D01*
X55832380Y-124412380D01*
X56165714Y-124507619D02*
X56213333Y-124460000D01*
X56308571Y-124412380D01*
X56546666Y-124412380D01*
X56641904Y-124460000D01*
X56689523Y-124507619D01*
X56737142Y-124602857D01*
X56737142Y-124698095D01*
X56689523Y-124840952D01*
X56118095Y-125412380D01*
X56737142Y-125412380D01*
X57689523Y-125412380D02*
X57118095Y-125412380D01*
X57403809Y-125412380D02*
X57403809Y-124412380D01*
X57308571Y-124555238D01*
X57213333Y-124650476D01*
X57118095Y-124698095D01*
%TO.C,SW20*%
X69310476Y-125364761D02*
X69453333Y-125412380D01*
X69691428Y-125412380D01*
X69786666Y-125364761D01*
X69834285Y-125317142D01*
X69881904Y-125221904D01*
X69881904Y-125126666D01*
X69834285Y-125031428D01*
X69786666Y-124983809D01*
X69691428Y-124936190D01*
X69500952Y-124888571D01*
X69405714Y-124840952D01*
X69358095Y-124793333D01*
X69310476Y-124698095D01*
X69310476Y-124602857D01*
X69358095Y-124507619D01*
X69405714Y-124460000D01*
X69500952Y-124412380D01*
X69739047Y-124412380D01*
X69881904Y-124460000D01*
X70215238Y-124412380D02*
X70453333Y-125412380D01*
X70643809Y-124698095D01*
X70834285Y-125412380D01*
X71072380Y-124412380D01*
X71405714Y-124507619D02*
X71453333Y-124460000D01*
X71548571Y-124412380D01*
X71786666Y-124412380D01*
X71881904Y-124460000D01*
X71929523Y-124507619D01*
X71977142Y-124602857D01*
X71977142Y-124698095D01*
X71929523Y-124840952D01*
X71358095Y-125412380D01*
X71977142Y-125412380D01*
X72596190Y-124412380D02*
X72691428Y-124412380D01*
X72786666Y-124460000D01*
X72834285Y-124507619D01*
X72881904Y-124602857D01*
X72929523Y-124793333D01*
X72929523Y-125031428D01*
X72881904Y-125221904D01*
X72834285Y-125317142D01*
X72786666Y-125364761D01*
X72691428Y-125412380D01*
X72596190Y-125412380D01*
X72500952Y-125364761D01*
X72453333Y-125317142D01*
X72405714Y-125221904D01*
X72358095Y-125031428D01*
X72358095Y-124793333D01*
X72405714Y-124602857D01*
X72453333Y-124507619D01*
X72500952Y-124460000D01*
X72596190Y-124412380D01*
%TO.C,SW19*%
X84550476Y-125364761D02*
X84693333Y-125412380D01*
X84931428Y-125412380D01*
X85026666Y-125364761D01*
X85074285Y-125317142D01*
X85121904Y-125221904D01*
X85121904Y-125126666D01*
X85074285Y-125031428D01*
X85026666Y-124983809D01*
X84931428Y-124936190D01*
X84740952Y-124888571D01*
X84645714Y-124840952D01*
X84598095Y-124793333D01*
X84550476Y-124698095D01*
X84550476Y-124602857D01*
X84598095Y-124507619D01*
X84645714Y-124460000D01*
X84740952Y-124412380D01*
X84979047Y-124412380D01*
X85121904Y-124460000D01*
X85455238Y-124412380D02*
X85693333Y-125412380D01*
X85883809Y-124698095D01*
X86074285Y-125412380D01*
X86312380Y-124412380D01*
X87217142Y-125412380D02*
X86645714Y-125412380D01*
X86931428Y-125412380D02*
X86931428Y-124412380D01*
X86836190Y-124555238D01*
X86740952Y-124650476D01*
X86645714Y-124698095D01*
X87693333Y-125412380D02*
X87883809Y-125412380D01*
X87979047Y-125364761D01*
X88026666Y-125317142D01*
X88121904Y-125174285D01*
X88169523Y-124983809D01*
X88169523Y-124602857D01*
X88121904Y-124507619D01*
X88074285Y-124460000D01*
X87979047Y-124412380D01*
X87788571Y-124412380D01*
X87693333Y-124460000D01*
X87645714Y-124507619D01*
X87598095Y-124602857D01*
X87598095Y-124840952D01*
X87645714Y-124936190D01*
X87693333Y-124983809D01*
X87788571Y-125031428D01*
X87979047Y-125031428D01*
X88074285Y-124983809D01*
X88121904Y-124936190D01*
X88169523Y-124840952D01*
%TO.C,SW18*%
X99790476Y-125364761D02*
X99933333Y-125412380D01*
X100171428Y-125412380D01*
X100266666Y-125364761D01*
X100314285Y-125317142D01*
X100361904Y-125221904D01*
X100361904Y-125126666D01*
X100314285Y-125031428D01*
X100266666Y-124983809D01*
X100171428Y-124936190D01*
X99980952Y-124888571D01*
X99885714Y-124840952D01*
X99838095Y-124793333D01*
X99790476Y-124698095D01*
X99790476Y-124602857D01*
X99838095Y-124507619D01*
X99885714Y-124460000D01*
X99980952Y-124412380D01*
X100219047Y-124412380D01*
X100361904Y-124460000D01*
X100695238Y-124412380D02*
X100933333Y-125412380D01*
X101123809Y-124698095D01*
X101314285Y-125412380D01*
X101552380Y-124412380D01*
X102457142Y-125412380D02*
X101885714Y-125412380D01*
X102171428Y-125412380D02*
X102171428Y-124412380D01*
X102076190Y-124555238D01*
X101980952Y-124650476D01*
X101885714Y-124698095D01*
X103028571Y-124840952D02*
X102933333Y-124793333D01*
X102885714Y-124745714D01*
X102838095Y-124650476D01*
X102838095Y-124602857D01*
X102885714Y-124507619D01*
X102933333Y-124460000D01*
X103028571Y-124412380D01*
X103219047Y-124412380D01*
X103314285Y-124460000D01*
X103361904Y-124507619D01*
X103409523Y-124602857D01*
X103409523Y-124650476D01*
X103361904Y-124745714D01*
X103314285Y-124793333D01*
X103219047Y-124840952D01*
X103028571Y-124840952D01*
X102933333Y-124888571D01*
X102885714Y-124936190D01*
X102838095Y-125031428D01*
X102838095Y-125221904D01*
X102885714Y-125317142D01*
X102933333Y-125364761D01*
X103028571Y-125412380D01*
X103219047Y-125412380D01*
X103314285Y-125364761D01*
X103361904Y-125317142D01*
X103409523Y-125221904D01*
X103409523Y-125031428D01*
X103361904Y-124936190D01*
X103314285Y-124888571D01*
X103219047Y-124840952D01*
%TO.C,SW17*%
X115030476Y-125364761D02*
X115173333Y-125412380D01*
X115411428Y-125412380D01*
X115506666Y-125364761D01*
X115554285Y-125317142D01*
X115601904Y-125221904D01*
X115601904Y-125126666D01*
X115554285Y-125031428D01*
X115506666Y-124983809D01*
X115411428Y-124936190D01*
X115220952Y-124888571D01*
X115125714Y-124840952D01*
X115078095Y-124793333D01*
X115030476Y-124698095D01*
X115030476Y-124602857D01*
X115078095Y-124507619D01*
X115125714Y-124460000D01*
X115220952Y-124412380D01*
X115459047Y-124412380D01*
X115601904Y-124460000D01*
X115935238Y-124412380D02*
X116173333Y-125412380D01*
X116363809Y-124698095D01*
X116554285Y-125412380D01*
X116792380Y-124412380D01*
X117697142Y-125412380D02*
X117125714Y-125412380D01*
X117411428Y-125412380D02*
X117411428Y-124412380D01*
X117316190Y-124555238D01*
X117220952Y-124650476D01*
X117125714Y-124698095D01*
X118030476Y-124412380D02*
X118697142Y-124412380D01*
X118268571Y-125412380D01*
%TO.C,SW16*%
X14700476Y-83454761D02*
X14843333Y-83502380D01*
X15081428Y-83502380D01*
X15176666Y-83454761D01*
X15224285Y-83407142D01*
X15271904Y-83311904D01*
X15271904Y-83216666D01*
X15224285Y-83121428D01*
X15176666Y-83073809D01*
X15081428Y-83026190D01*
X14890952Y-82978571D01*
X14795714Y-82930952D01*
X14748095Y-82883333D01*
X14700476Y-82788095D01*
X14700476Y-82692857D01*
X14748095Y-82597619D01*
X14795714Y-82550000D01*
X14890952Y-82502380D01*
X15129047Y-82502380D01*
X15271904Y-82550000D01*
X15605238Y-82502380D02*
X15843333Y-83502380D01*
X16033809Y-82788095D01*
X16224285Y-83502380D01*
X16462380Y-82502380D01*
X17367142Y-83502380D02*
X16795714Y-83502380D01*
X17081428Y-83502380D02*
X17081428Y-82502380D01*
X16986190Y-82645238D01*
X16890952Y-82740476D01*
X16795714Y-82788095D01*
X18224285Y-82502380D02*
X18033809Y-82502380D01*
X17938571Y-82550000D01*
X17890952Y-82597619D01*
X17795714Y-82740476D01*
X17748095Y-82930952D01*
X17748095Y-83311904D01*
X17795714Y-83407142D01*
X17843333Y-83454761D01*
X17938571Y-83502380D01*
X18129047Y-83502380D01*
X18224285Y-83454761D01*
X18271904Y-83407142D01*
X18319523Y-83311904D01*
X18319523Y-83073809D01*
X18271904Y-82978571D01*
X18224285Y-82930952D01*
X18129047Y-82883333D01*
X17938571Y-82883333D01*
X17843333Y-82930952D01*
X17795714Y-82978571D01*
X17748095Y-83073809D01*
%TO.C,SW15*%
X29940476Y-83454761D02*
X30083333Y-83502380D01*
X30321428Y-83502380D01*
X30416666Y-83454761D01*
X30464285Y-83407142D01*
X30511904Y-83311904D01*
X30511904Y-83216666D01*
X30464285Y-83121428D01*
X30416666Y-83073809D01*
X30321428Y-83026190D01*
X30130952Y-82978571D01*
X30035714Y-82930952D01*
X29988095Y-82883333D01*
X29940476Y-82788095D01*
X29940476Y-82692857D01*
X29988095Y-82597619D01*
X30035714Y-82550000D01*
X30130952Y-82502380D01*
X30369047Y-82502380D01*
X30511904Y-82550000D01*
X30845238Y-82502380D02*
X31083333Y-83502380D01*
X31273809Y-82788095D01*
X31464285Y-83502380D01*
X31702380Y-82502380D01*
X32607142Y-83502380D02*
X32035714Y-83502380D01*
X32321428Y-83502380D02*
X32321428Y-82502380D01*
X32226190Y-82645238D01*
X32130952Y-82740476D01*
X32035714Y-82788095D01*
X33511904Y-82502380D02*
X33035714Y-82502380D01*
X32988095Y-82978571D01*
X33035714Y-82930952D01*
X33130952Y-82883333D01*
X33369047Y-82883333D01*
X33464285Y-82930952D01*
X33511904Y-82978571D01*
X33559523Y-83073809D01*
X33559523Y-83311904D01*
X33511904Y-83407142D01*
X33464285Y-83454761D01*
X33369047Y-83502380D01*
X33130952Y-83502380D01*
X33035714Y-83454761D01*
X32988095Y-83407142D01*
%TO.C,SW14*%
X45180476Y-83454761D02*
X45323333Y-83502380D01*
X45561428Y-83502380D01*
X45656666Y-83454761D01*
X45704285Y-83407142D01*
X45751904Y-83311904D01*
X45751904Y-83216666D01*
X45704285Y-83121428D01*
X45656666Y-83073809D01*
X45561428Y-83026190D01*
X45370952Y-82978571D01*
X45275714Y-82930952D01*
X45228095Y-82883333D01*
X45180476Y-82788095D01*
X45180476Y-82692857D01*
X45228095Y-82597619D01*
X45275714Y-82550000D01*
X45370952Y-82502380D01*
X45609047Y-82502380D01*
X45751904Y-82550000D01*
X46085238Y-82502380D02*
X46323333Y-83502380D01*
X46513809Y-82788095D01*
X46704285Y-83502380D01*
X46942380Y-82502380D01*
X47847142Y-83502380D02*
X47275714Y-83502380D01*
X47561428Y-83502380D02*
X47561428Y-82502380D01*
X47466190Y-82645238D01*
X47370952Y-82740476D01*
X47275714Y-82788095D01*
X48704285Y-82835714D02*
X48704285Y-83502380D01*
X48466190Y-82454761D02*
X48228095Y-83169047D01*
X48847142Y-83169047D01*
%TO.C,SW13*%
X60420476Y-83454761D02*
X60563333Y-83502380D01*
X60801428Y-83502380D01*
X60896666Y-83454761D01*
X60944285Y-83407142D01*
X60991904Y-83311904D01*
X60991904Y-83216666D01*
X60944285Y-83121428D01*
X60896666Y-83073809D01*
X60801428Y-83026190D01*
X60610952Y-82978571D01*
X60515714Y-82930952D01*
X60468095Y-82883333D01*
X60420476Y-82788095D01*
X60420476Y-82692857D01*
X60468095Y-82597619D01*
X60515714Y-82550000D01*
X60610952Y-82502380D01*
X60849047Y-82502380D01*
X60991904Y-82550000D01*
X61325238Y-82502380D02*
X61563333Y-83502380D01*
X61753809Y-82788095D01*
X61944285Y-83502380D01*
X62182380Y-82502380D01*
X63087142Y-83502380D02*
X62515714Y-83502380D01*
X62801428Y-83502380D02*
X62801428Y-82502380D01*
X62706190Y-82645238D01*
X62610952Y-82740476D01*
X62515714Y-82788095D01*
X63420476Y-82502380D02*
X64039523Y-82502380D01*
X63706190Y-82883333D01*
X63849047Y-82883333D01*
X63944285Y-82930952D01*
X63991904Y-82978571D01*
X64039523Y-83073809D01*
X64039523Y-83311904D01*
X63991904Y-83407142D01*
X63944285Y-83454761D01*
X63849047Y-83502380D01*
X63563333Y-83502380D01*
X63468095Y-83454761D01*
X63420476Y-83407142D01*
%TO.C,SW12*%
X75660476Y-83454761D02*
X75803333Y-83502380D01*
X76041428Y-83502380D01*
X76136666Y-83454761D01*
X76184285Y-83407142D01*
X76231904Y-83311904D01*
X76231904Y-83216666D01*
X76184285Y-83121428D01*
X76136666Y-83073809D01*
X76041428Y-83026190D01*
X75850952Y-82978571D01*
X75755714Y-82930952D01*
X75708095Y-82883333D01*
X75660476Y-82788095D01*
X75660476Y-82692857D01*
X75708095Y-82597619D01*
X75755714Y-82550000D01*
X75850952Y-82502380D01*
X76089047Y-82502380D01*
X76231904Y-82550000D01*
X76565238Y-82502380D02*
X76803333Y-83502380D01*
X76993809Y-82788095D01*
X77184285Y-83502380D01*
X77422380Y-82502380D01*
X78327142Y-83502380D02*
X77755714Y-83502380D01*
X78041428Y-83502380D02*
X78041428Y-82502380D01*
X77946190Y-82645238D01*
X77850952Y-82740476D01*
X77755714Y-82788095D01*
X78708095Y-82597619D02*
X78755714Y-82550000D01*
X78850952Y-82502380D01*
X79089047Y-82502380D01*
X79184285Y-82550000D01*
X79231904Y-82597619D01*
X79279523Y-82692857D01*
X79279523Y-82788095D01*
X79231904Y-82930952D01*
X78660476Y-83502380D01*
X79279523Y-83502380D01*
%TO.C,SW11*%
X90900476Y-83454761D02*
X91043333Y-83502380D01*
X91281428Y-83502380D01*
X91376666Y-83454761D01*
X91424285Y-83407142D01*
X91471904Y-83311904D01*
X91471904Y-83216666D01*
X91424285Y-83121428D01*
X91376666Y-83073809D01*
X91281428Y-83026190D01*
X91090952Y-82978571D01*
X90995714Y-82930952D01*
X90948095Y-82883333D01*
X90900476Y-82788095D01*
X90900476Y-82692857D01*
X90948095Y-82597619D01*
X90995714Y-82550000D01*
X91090952Y-82502380D01*
X91329047Y-82502380D01*
X91471904Y-82550000D01*
X91805238Y-82502380D02*
X92043333Y-83502380D01*
X92233809Y-82788095D01*
X92424285Y-83502380D01*
X92662380Y-82502380D01*
X93567142Y-83502380D02*
X92995714Y-83502380D01*
X93281428Y-83502380D02*
X93281428Y-82502380D01*
X93186190Y-82645238D01*
X93090952Y-82740476D01*
X92995714Y-82788095D01*
X94519523Y-83502380D02*
X93948095Y-83502380D01*
X94233809Y-83502380D02*
X94233809Y-82502380D01*
X94138571Y-82645238D01*
X94043333Y-82740476D01*
X93948095Y-82788095D01*
%TO.C,SW10*%
X106140476Y-83454761D02*
X106283333Y-83502380D01*
X106521428Y-83502380D01*
X106616666Y-83454761D01*
X106664285Y-83407142D01*
X106711904Y-83311904D01*
X106711904Y-83216666D01*
X106664285Y-83121428D01*
X106616666Y-83073809D01*
X106521428Y-83026190D01*
X106330952Y-82978571D01*
X106235714Y-82930952D01*
X106188095Y-82883333D01*
X106140476Y-82788095D01*
X106140476Y-82692857D01*
X106188095Y-82597619D01*
X106235714Y-82550000D01*
X106330952Y-82502380D01*
X106569047Y-82502380D01*
X106711904Y-82550000D01*
X107045238Y-82502380D02*
X107283333Y-83502380D01*
X107473809Y-82788095D01*
X107664285Y-83502380D01*
X107902380Y-82502380D01*
X108807142Y-83502380D02*
X108235714Y-83502380D01*
X108521428Y-83502380D02*
X108521428Y-82502380D01*
X108426190Y-82645238D01*
X108330952Y-82740476D01*
X108235714Y-82788095D01*
X109426190Y-82502380D02*
X109521428Y-82502380D01*
X109616666Y-82550000D01*
X109664285Y-82597619D01*
X109711904Y-82692857D01*
X109759523Y-82883333D01*
X109759523Y-83121428D01*
X109711904Y-83311904D01*
X109664285Y-83407142D01*
X109616666Y-83454761D01*
X109521428Y-83502380D01*
X109426190Y-83502380D01*
X109330952Y-83454761D01*
X109283333Y-83407142D01*
X109235714Y-83311904D01*
X109188095Y-83121428D01*
X109188095Y-82883333D01*
X109235714Y-82692857D01*
X109283333Y-82597619D01*
X109330952Y-82550000D01*
X109426190Y-82502380D01*
%TO.C,SW9*%
X121856666Y-83454761D02*
X121999523Y-83502380D01*
X122237619Y-83502380D01*
X122332857Y-83454761D01*
X122380476Y-83407142D01*
X122428095Y-83311904D01*
X122428095Y-83216666D01*
X122380476Y-83121428D01*
X122332857Y-83073809D01*
X122237619Y-83026190D01*
X122047142Y-82978571D01*
X121951904Y-82930952D01*
X121904285Y-82883333D01*
X121856666Y-82788095D01*
X121856666Y-82692857D01*
X121904285Y-82597619D01*
X121951904Y-82550000D01*
X122047142Y-82502380D01*
X122285238Y-82502380D01*
X122428095Y-82550000D01*
X122761428Y-82502380D02*
X122999523Y-83502380D01*
X123190000Y-82788095D01*
X123380476Y-83502380D01*
X123618571Y-82502380D01*
X124047142Y-83502380D02*
X124237619Y-83502380D01*
X124332857Y-83454761D01*
X124380476Y-83407142D01*
X124475714Y-83264285D01*
X124523333Y-83073809D01*
X124523333Y-82692857D01*
X124475714Y-82597619D01*
X124428095Y-82550000D01*
X124332857Y-82502380D01*
X124142380Y-82502380D01*
X124047142Y-82550000D01*
X123999523Y-82597619D01*
X123951904Y-82692857D01*
X123951904Y-82930952D01*
X123999523Y-83026190D01*
X124047142Y-83073809D01*
X124142380Y-83121428D01*
X124332857Y-83121428D01*
X124428095Y-83073809D01*
X124475714Y-83026190D01*
X124523333Y-82930952D01*
%TO.C,SW8*%
X140906666Y-83454761D02*
X141049523Y-83502380D01*
X141287619Y-83502380D01*
X141382857Y-83454761D01*
X141430476Y-83407142D01*
X141478095Y-83311904D01*
X141478095Y-83216666D01*
X141430476Y-83121428D01*
X141382857Y-83073809D01*
X141287619Y-83026190D01*
X141097142Y-82978571D01*
X141001904Y-82930952D01*
X140954285Y-82883333D01*
X140906666Y-82788095D01*
X140906666Y-82692857D01*
X140954285Y-82597619D01*
X141001904Y-82550000D01*
X141097142Y-82502380D01*
X141335238Y-82502380D01*
X141478095Y-82550000D01*
X141811428Y-82502380D02*
X142049523Y-83502380D01*
X142240000Y-82788095D01*
X142430476Y-83502380D01*
X142668571Y-82502380D01*
X143192380Y-82930952D02*
X143097142Y-82883333D01*
X143049523Y-82835714D01*
X143001904Y-82740476D01*
X143001904Y-82692857D01*
X143049523Y-82597619D01*
X143097142Y-82550000D01*
X143192380Y-82502380D01*
X143382857Y-82502380D01*
X143478095Y-82550000D01*
X143525714Y-82597619D01*
X143573333Y-82692857D01*
X143573333Y-82740476D01*
X143525714Y-82835714D01*
X143478095Y-82883333D01*
X143382857Y-82930952D01*
X143192380Y-82930952D01*
X143097142Y-82978571D01*
X143049523Y-83026190D01*
X143001904Y-83121428D01*
X143001904Y-83311904D01*
X143049523Y-83407142D01*
X143097142Y-83454761D01*
X143192380Y-83502380D01*
X143382857Y-83502380D01*
X143478095Y-83454761D01*
X143525714Y-83407142D01*
X143573333Y-83311904D01*
X143573333Y-83121428D01*
X143525714Y-83026190D01*
X143478095Y-82978571D01*
X143382857Y-82930952D01*
%TO.C,SW7*%
X156146666Y-83454761D02*
X156289523Y-83502380D01*
X156527619Y-83502380D01*
X156622857Y-83454761D01*
X156670476Y-83407142D01*
X156718095Y-83311904D01*
X156718095Y-83216666D01*
X156670476Y-83121428D01*
X156622857Y-83073809D01*
X156527619Y-83026190D01*
X156337142Y-82978571D01*
X156241904Y-82930952D01*
X156194285Y-82883333D01*
X156146666Y-82788095D01*
X156146666Y-82692857D01*
X156194285Y-82597619D01*
X156241904Y-82550000D01*
X156337142Y-82502380D01*
X156575238Y-82502380D01*
X156718095Y-82550000D01*
X157051428Y-82502380D02*
X157289523Y-83502380D01*
X157480000Y-82788095D01*
X157670476Y-83502380D01*
X157908571Y-82502380D01*
X158194285Y-82502380D02*
X158860952Y-82502380D01*
X158432380Y-83502380D01*
%TO.C,SW6*%
X171386666Y-83454761D02*
X171529523Y-83502380D01*
X171767619Y-83502380D01*
X171862857Y-83454761D01*
X171910476Y-83407142D01*
X171958095Y-83311904D01*
X171958095Y-83216666D01*
X171910476Y-83121428D01*
X171862857Y-83073809D01*
X171767619Y-83026190D01*
X171577142Y-82978571D01*
X171481904Y-82930952D01*
X171434285Y-82883333D01*
X171386666Y-82788095D01*
X171386666Y-82692857D01*
X171434285Y-82597619D01*
X171481904Y-82550000D01*
X171577142Y-82502380D01*
X171815238Y-82502380D01*
X171958095Y-82550000D01*
X172291428Y-82502380D02*
X172529523Y-83502380D01*
X172720000Y-82788095D01*
X172910476Y-83502380D01*
X173148571Y-82502380D01*
X173958095Y-82502380D02*
X173767619Y-82502380D01*
X173672380Y-82550000D01*
X173624761Y-82597619D01*
X173529523Y-82740476D01*
X173481904Y-82930952D01*
X173481904Y-83311904D01*
X173529523Y-83407142D01*
X173577142Y-83454761D01*
X173672380Y-83502380D01*
X173862857Y-83502380D01*
X173958095Y-83454761D01*
X174005714Y-83407142D01*
X174053333Y-83311904D01*
X174053333Y-83073809D01*
X174005714Y-82978571D01*
X173958095Y-82930952D01*
X173862857Y-82883333D01*
X173672380Y-82883333D01*
X173577142Y-82930952D01*
X173529523Y-82978571D01*
X173481904Y-83073809D01*
%TO.C,SW5*%
X186626666Y-83454761D02*
X186769523Y-83502380D01*
X187007619Y-83502380D01*
X187102857Y-83454761D01*
X187150476Y-83407142D01*
X187198095Y-83311904D01*
X187198095Y-83216666D01*
X187150476Y-83121428D01*
X187102857Y-83073809D01*
X187007619Y-83026190D01*
X186817142Y-82978571D01*
X186721904Y-82930952D01*
X186674285Y-82883333D01*
X186626666Y-82788095D01*
X186626666Y-82692857D01*
X186674285Y-82597619D01*
X186721904Y-82550000D01*
X186817142Y-82502380D01*
X187055238Y-82502380D01*
X187198095Y-82550000D01*
X187531428Y-82502380D02*
X187769523Y-83502380D01*
X187960000Y-82788095D01*
X188150476Y-83502380D01*
X188388571Y-82502380D01*
X189245714Y-82502380D02*
X188769523Y-82502380D01*
X188721904Y-82978571D01*
X188769523Y-82930952D01*
X188864761Y-82883333D01*
X189102857Y-82883333D01*
X189198095Y-82930952D01*
X189245714Y-82978571D01*
X189293333Y-83073809D01*
X189293333Y-83311904D01*
X189245714Y-83407142D01*
X189198095Y-83454761D01*
X189102857Y-83502380D01*
X188864761Y-83502380D01*
X188769523Y-83454761D01*
X188721904Y-83407142D01*
%TO.C,SW4*%
X201866666Y-83454761D02*
X202009523Y-83502380D01*
X202247619Y-83502380D01*
X202342857Y-83454761D01*
X202390476Y-83407142D01*
X202438095Y-83311904D01*
X202438095Y-83216666D01*
X202390476Y-83121428D01*
X202342857Y-83073809D01*
X202247619Y-83026190D01*
X202057142Y-82978571D01*
X201961904Y-82930952D01*
X201914285Y-82883333D01*
X201866666Y-82788095D01*
X201866666Y-82692857D01*
X201914285Y-82597619D01*
X201961904Y-82550000D01*
X202057142Y-82502380D01*
X202295238Y-82502380D01*
X202438095Y-82550000D01*
X202771428Y-82502380D02*
X203009523Y-83502380D01*
X203200000Y-82788095D01*
X203390476Y-83502380D01*
X203628571Y-82502380D01*
X204438095Y-82835714D02*
X204438095Y-83502380D01*
X204200000Y-82454761D02*
X203961904Y-83169047D01*
X204580952Y-83169047D01*
%TO.C,SW3*%
X217106666Y-83454761D02*
X217249523Y-83502380D01*
X217487619Y-83502380D01*
X217582857Y-83454761D01*
X217630476Y-83407142D01*
X217678095Y-83311904D01*
X217678095Y-83216666D01*
X217630476Y-83121428D01*
X217582857Y-83073809D01*
X217487619Y-83026190D01*
X217297142Y-82978571D01*
X217201904Y-82930952D01*
X217154285Y-82883333D01*
X217106666Y-82788095D01*
X217106666Y-82692857D01*
X217154285Y-82597619D01*
X217201904Y-82550000D01*
X217297142Y-82502380D01*
X217535238Y-82502380D01*
X217678095Y-82550000D01*
X218011428Y-82502380D02*
X218249523Y-83502380D01*
X218440000Y-82788095D01*
X218630476Y-83502380D01*
X218868571Y-82502380D01*
X219154285Y-82502380D02*
X219773333Y-82502380D01*
X219440000Y-82883333D01*
X219582857Y-82883333D01*
X219678095Y-82930952D01*
X219725714Y-82978571D01*
X219773333Y-83073809D01*
X219773333Y-83311904D01*
X219725714Y-83407142D01*
X219678095Y-83454761D01*
X219582857Y-83502380D01*
X219297142Y-83502380D01*
X219201904Y-83454761D01*
X219154285Y-83407142D01*
%TO.C,SW2*%
X232346666Y-83454761D02*
X232489523Y-83502380D01*
X232727619Y-83502380D01*
X232822857Y-83454761D01*
X232870476Y-83407142D01*
X232918095Y-83311904D01*
X232918095Y-83216666D01*
X232870476Y-83121428D01*
X232822857Y-83073809D01*
X232727619Y-83026190D01*
X232537142Y-82978571D01*
X232441904Y-82930952D01*
X232394285Y-82883333D01*
X232346666Y-82788095D01*
X232346666Y-82692857D01*
X232394285Y-82597619D01*
X232441904Y-82550000D01*
X232537142Y-82502380D01*
X232775238Y-82502380D01*
X232918095Y-82550000D01*
X233251428Y-82502380D02*
X233489523Y-83502380D01*
X233680000Y-82788095D01*
X233870476Y-83502380D01*
X234108571Y-82502380D01*
X234441904Y-82597619D02*
X234489523Y-82550000D01*
X234584761Y-82502380D01*
X234822857Y-82502380D01*
X234918095Y-82550000D01*
X234965714Y-82597619D01*
X235013333Y-82692857D01*
X235013333Y-82788095D01*
X234965714Y-82930952D01*
X234394285Y-83502380D01*
X235013333Y-83502380D01*
%TO.C,SW1*%
X247586666Y-83454761D02*
X247729523Y-83502380D01*
X247967619Y-83502380D01*
X248062857Y-83454761D01*
X248110476Y-83407142D01*
X248158095Y-83311904D01*
X248158095Y-83216666D01*
X248110476Y-83121428D01*
X248062857Y-83073809D01*
X247967619Y-83026190D01*
X247777142Y-82978571D01*
X247681904Y-82930952D01*
X247634285Y-82883333D01*
X247586666Y-82788095D01*
X247586666Y-82692857D01*
X247634285Y-82597619D01*
X247681904Y-82550000D01*
X247777142Y-82502380D01*
X248015238Y-82502380D01*
X248158095Y-82550000D01*
X248491428Y-82502380D02*
X248729523Y-83502380D01*
X248920000Y-82788095D01*
X249110476Y-83502380D01*
X249348571Y-82502380D01*
X250253333Y-83502380D02*
X249681904Y-83502380D01*
X249967619Y-83502380D02*
X249967619Y-82502380D01*
X249872380Y-82645238D01*
X249777142Y-82740476D01*
X249681904Y-82788095D01*
%TO.C,RV1*%
X90769761Y-36132380D02*
X90436428Y-35656190D01*
X90198333Y-36132380D02*
X90198333Y-35132380D01*
X90579285Y-35132380D01*
X90674523Y-35180000D01*
X90722142Y-35227619D01*
X90769761Y-35322857D01*
X90769761Y-35465714D01*
X90722142Y-35560952D01*
X90674523Y-35608571D01*
X90579285Y-35656190D01*
X90198333Y-35656190D01*
X91055476Y-35132380D02*
X91388809Y-36132380D01*
X91722142Y-35132380D01*
X92579285Y-36132380D02*
X92007857Y-36132380D01*
X92293571Y-36132380D02*
X92293571Y-35132380D01*
X92198333Y-35275238D01*
X92103095Y-35370476D01*
X92007857Y-35418095D01*
%TO.C,RN3*%
X86939523Y-107272380D02*
X86606190Y-106796190D01*
X86368095Y-107272380D02*
X86368095Y-106272380D01*
X86749047Y-106272380D01*
X86844285Y-106320000D01*
X86891904Y-106367619D01*
X86939523Y-106462857D01*
X86939523Y-106605714D01*
X86891904Y-106700952D01*
X86844285Y-106748571D01*
X86749047Y-106796190D01*
X86368095Y-106796190D01*
X87368095Y-107272380D02*
X87368095Y-106272380D01*
X87939523Y-107272380D01*
X87939523Y-106272380D01*
X88320476Y-106272380D02*
X88939523Y-106272380D01*
X88606190Y-106653333D01*
X88749047Y-106653333D01*
X88844285Y-106700952D01*
X88891904Y-106748571D01*
X88939523Y-106843809D01*
X88939523Y-107081904D01*
X88891904Y-107177142D01*
X88844285Y-107224761D01*
X88749047Y-107272380D01*
X88463333Y-107272380D01*
X88368095Y-107224761D01*
X88320476Y-107177142D01*
%TO.C,RN2*%
X67889523Y-64092380D02*
X67556190Y-63616190D01*
X67318095Y-64092380D02*
X67318095Y-63092380D01*
X67699047Y-63092380D01*
X67794285Y-63140000D01*
X67841904Y-63187619D01*
X67889523Y-63282857D01*
X67889523Y-63425714D01*
X67841904Y-63520952D01*
X67794285Y-63568571D01*
X67699047Y-63616190D01*
X67318095Y-63616190D01*
X68318095Y-64092380D02*
X68318095Y-63092380D01*
X68889523Y-64092380D01*
X68889523Y-63092380D01*
X69318095Y-63187619D02*
X69365714Y-63140000D01*
X69460952Y-63092380D01*
X69699047Y-63092380D01*
X69794285Y-63140000D01*
X69841904Y-63187619D01*
X69889523Y-63282857D01*
X69889523Y-63378095D01*
X69841904Y-63520952D01*
X69270476Y-64092380D01*
X69889523Y-64092380D01*
%TO.C,RN1*%
X196159523Y-64092380D02*
X195826190Y-63616190D01*
X195588095Y-64092380D02*
X195588095Y-63092380D01*
X195969047Y-63092380D01*
X196064285Y-63140000D01*
X196111904Y-63187619D01*
X196159523Y-63282857D01*
X196159523Y-63425714D01*
X196111904Y-63520952D01*
X196064285Y-63568571D01*
X195969047Y-63616190D01*
X195588095Y-63616190D01*
X196588095Y-64092380D02*
X196588095Y-63092380D01*
X197159523Y-64092380D01*
X197159523Y-63092380D01*
X198159523Y-64092380D02*
X197588095Y-64092380D01*
X197873809Y-64092380D02*
X197873809Y-63092380D01*
X197778571Y-63235238D01*
X197683333Y-63330476D01*
X197588095Y-63378095D01*
%TO.C,R6*%
X55682380Y-52236666D02*
X55206190Y-52570000D01*
X55682380Y-52808095D02*
X54682380Y-52808095D01*
X54682380Y-52427142D01*
X54730000Y-52331904D01*
X54777619Y-52284285D01*
X54872857Y-52236666D01*
X55015714Y-52236666D01*
X55110952Y-52284285D01*
X55158571Y-52331904D01*
X55206190Y-52427142D01*
X55206190Y-52808095D01*
X54682380Y-51379523D02*
X54682380Y-51570000D01*
X54730000Y-51665238D01*
X54777619Y-51712857D01*
X54920476Y-51808095D01*
X55110952Y-51855714D01*
X55491904Y-51855714D01*
X55587142Y-51808095D01*
X55634761Y-51760476D01*
X55682380Y-51665238D01*
X55682380Y-51474761D01*
X55634761Y-51379523D01*
X55587142Y-51331904D01*
X55491904Y-51284285D01*
X55253809Y-51284285D01*
X55158571Y-51331904D01*
X55110952Y-51379523D01*
X55063333Y-51474761D01*
X55063333Y-51665238D01*
X55110952Y-51760476D01*
X55158571Y-51808095D01*
X55253809Y-51855714D01*
%TO.C,R5*%
X59522380Y-44616666D02*
X59046190Y-44950000D01*
X59522380Y-45188095D02*
X58522380Y-45188095D01*
X58522380Y-44807142D01*
X58570000Y-44711904D01*
X58617619Y-44664285D01*
X58712857Y-44616666D01*
X58855714Y-44616666D01*
X58950952Y-44664285D01*
X58998571Y-44711904D01*
X59046190Y-44807142D01*
X59046190Y-45188095D01*
X58522380Y-43711904D02*
X58522380Y-44188095D01*
X58998571Y-44235714D01*
X58950952Y-44188095D01*
X58903333Y-44092857D01*
X58903333Y-43854761D01*
X58950952Y-43759523D01*
X58998571Y-43711904D01*
X59093809Y-43664285D01*
X59331904Y-43664285D01*
X59427142Y-43711904D01*
X59474761Y-43759523D01*
X59522380Y-43854761D01*
X59522380Y-44092857D01*
X59474761Y-44188095D01*
X59427142Y-44235714D01*
%TO.C,R4*%
X59522380Y-30646666D02*
X59046190Y-30980000D01*
X59522380Y-31218095D02*
X58522380Y-31218095D01*
X58522380Y-30837142D01*
X58570000Y-30741904D01*
X58617619Y-30694285D01*
X58712857Y-30646666D01*
X58855714Y-30646666D01*
X58950952Y-30694285D01*
X58998571Y-30741904D01*
X59046190Y-30837142D01*
X59046190Y-31218095D01*
X58855714Y-29789523D02*
X59522380Y-29789523D01*
X58474761Y-30027619D02*
X59189047Y-30265714D01*
X59189047Y-29646666D01*
%TO.C,R3*%
X59522380Y-23026666D02*
X59046190Y-23360000D01*
X59522380Y-23598095D02*
X58522380Y-23598095D01*
X58522380Y-23217142D01*
X58570000Y-23121904D01*
X58617619Y-23074285D01*
X58712857Y-23026666D01*
X58855714Y-23026666D01*
X58950952Y-23074285D01*
X58998571Y-23121904D01*
X59046190Y-23217142D01*
X59046190Y-23598095D01*
X58522380Y-22693333D02*
X58522380Y-22074285D01*
X58903333Y-22407619D01*
X58903333Y-22264761D01*
X58950952Y-22169523D01*
X58998571Y-22121904D01*
X59093809Y-22074285D01*
X59331904Y-22074285D01*
X59427142Y-22121904D01*
X59474761Y-22169523D01*
X59522380Y-22264761D01*
X59522380Y-22550476D01*
X59474761Y-22645714D01*
X59427142Y-22693333D01*
%TO.C,R2*%
X230322380Y-127656666D02*
X229846190Y-127990000D01*
X230322380Y-128228095D02*
X229322380Y-128228095D01*
X229322380Y-127847142D01*
X229370000Y-127751904D01*
X229417619Y-127704285D01*
X229512857Y-127656666D01*
X229655714Y-127656666D01*
X229750952Y-127704285D01*
X229798571Y-127751904D01*
X229846190Y-127847142D01*
X229846190Y-128228095D01*
X229417619Y-127275714D02*
X229370000Y-127228095D01*
X229322380Y-127132857D01*
X229322380Y-126894761D01*
X229370000Y-126799523D01*
X229417619Y-126751904D01*
X229512857Y-126704285D01*
X229608095Y-126704285D01*
X229750952Y-126751904D01*
X230322380Y-127323333D01*
X230322380Y-126704285D01*
%TO.C,R1*%
X230322380Y-135786666D02*
X229846190Y-136120000D01*
X230322380Y-136358095D02*
X229322380Y-136358095D01*
X229322380Y-135977142D01*
X229370000Y-135881904D01*
X229417619Y-135834285D01*
X229512857Y-135786666D01*
X229655714Y-135786666D01*
X229750952Y-135834285D01*
X229798571Y-135881904D01*
X229846190Y-135977142D01*
X229846190Y-136358095D01*
X230322380Y-134834285D02*
X230322380Y-135405714D01*
X230322380Y-135120000D02*
X229322380Y-135120000D01*
X229465238Y-135215238D01*
X229560476Y-135310476D01*
X229608095Y-135405714D01*
%TO.C,JP1*%
X196016666Y-932380D02*
X196016666Y-1646666D01*
X195969047Y-1789523D01*
X195873809Y-1884761D01*
X195730952Y-1932380D01*
X195635714Y-1932380D01*
X196492857Y-1932380D02*
X196492857Y-932380D01*
X196873809Y-932380D01*
X196969047Y-980000D01*
X197016666Y-1027619D01*
X197064285Y-1122857D01*
X197064285Y-1265714D01*
X197016666Y-1360952D01*
X196969047Y-1408571D01*
X196873809Y-1456190D01*
X196492857Y-1456190D01*
X198016666Y-1932380D02*
X197445238Y-1932380D01*
X197730952Y-1932380D02*
X197730952Y-932380D01*
X197635714Y-1075238D01*
X197540476Y-1170476D01*
X197445238Y-1218095D01*
%TO.C,J8*%
X8676666Y-18532380D02*
X8676666Y-19246666D01*
X8629047Y-19389523D01*
X8533809Y-19484761D01*
X8390952Y-19532380D01*
X8295714Y-19532380D01*
X9295714Y-18960952D02*
X9200476Y-18913333D01*
X9152857Y-18865714D01*
X9105238Y-18770476D01*
X9105238Y-18722857D01*
X9152857Y-18627619D01*
X9200476Y-18580000D01*
X9295714Y-18532380D01*
X9486190Y-18532380D01*
X9581428Y-18580000D01*
X9629047Y-18627619D01*
X9676666Y-18722857D01*
X9676666Y-18770476D01*
X9629047Y-18865714D01*
X9581428Y-18913333D01*
X9486190Y-18960952D01*
X9295714Y-18960952D01*
X9200476Y-19008571D01*
X9152857Y-19056190D01*
X9105238Y-19151428D01*
X9105238Y-19341904D01*
X9152857Y-19437142D01*
X9200476Y-19484761D01*
X9295714Y-19532380D01*
X9486190Y-19532380D01*
X9581428Y-19484761D01*
X9629047Y-19437142D01*
X9676666Y-19341904D01*
X9676666Y-19151428D01*
X9629047Y-19056190D01*
X9581428Y-19008571D01*
X9486190Y-18960952D01*
%TO.C,J7*%
X19062380Y-27003333D02*
X19776666Y-27003333D01*
X19919523Y-27050952D01*
X20014761Y-27146190D01*
X20062380Y-27289047D01*
X20062380Y-27384285D01*
X19062380Y-26622380D02*
X19062380Y-25955714D01*
X20062380Y-26384285D01*
%TO.C,J6*%
X70782380Y-5413333D02*
X71496666Y-5413333D01*
X71639523Y-5460952D01*
X71734761Y-5556190D01*
X71782380Y-5699047D01*
X71782380Y-5794285D01*
X70782380Y-4508571D02*
X70782380Y-4699047D01*
X70830000Y-4794285D01*
X70877619Y-4841904D01*
X71020476Y-4937142D01*
X71210952Y-4984761D01*
X71591904Y-4984761D01*
X71687142Y-4937142D01*
X71734761Y-4889523D01*
X71782380Y-4794285D01*
X71782380Y-4603809D01*
X71734761Y-4508571D01*
X71687142Y-4460952D01*
X71591904Y-4413333D01*
X71353809Y-4413333D01*
X71258571Y-4460952D01*
X71210952Y-4508571D01*
X71163333Y-4603809D01*
X71163333Y-4794285D01*
X71210952Y-4889523D01*
X71258571Y-4937142D01*
X71353809Y-4984761D01*
%TO.C,J5*%
X184662380Y-5413333D02*
X185376666Y-5413333D01*
X185519523Y-5460952D01*
X185614761Y-5556190D01*
X185662380Y-5699047D01*
X185662380Y-5794285D01*
X184662380Y-4460952D02*
X184662380Y-4937142D01*
X185138571Y-4984761D01*
X185090952Y-4937142D01*
X185043333Y-4841904D01*
X185043333Y-4603809D01*
X185090952Y-4508571D01*
X185138571Y-4460952D01*
X185233809Y-4413333D01*
X185471904Y-4413333D01*
X185567142Y-4460952D01*
X185614761Y-4508571D01*
X185662380Y-4603809D01*
X185662380Y-4841904D01*
X185614761Y-4937142D01*
X185567142Y-4984761D01*
%TO.C,J4*%
X130052380Y-5413333D02*
X130766666Y-5413333D01*
X130909523Y-5460952D01*
X131004761Y-5556190D01*
X131052380Y-5699047D01*
X131052380Y-5794285D01*
X130385714Y-4508571D02*
X131052380Y-4508571D01*
X130004761Y-4746666D02*
X130719047Y-4984761D01*
X130719047Y-4365714D01*
%TO.C,J3*%
X154182380Y-5413333D02*
X154896666Y-5413333D01*
X155039523Y-5460952D01*
X155134761Y-5556190D01*
X155182380Y-5699047D01*
X155182380Y-5794285D01*
X154182380Y-5032380D02*
X154182380Y-4413333D01*
X154563333Y-4746666D01*
X154563333Y-4603809D01*
X154610952Y-4508571D01*
X154658571Y-4460952D01*
X154753809Y-4413333D01*
X154991904Y-4413333D01*
X155087142Y-4460952D01*
X155134761Y-4508571D01*
X155182380Y-4603809D01*
X155182380Y-4889523D01*
X155134761Y-4984761D01*
X155087142Y-5032380D01*
%TO.C,J2*%
X42846666Y-2202380D02*
X42846666Y-2916666D01*
X42799047Y-3059523D01*
X42703809Y-3154761D01*
X42560952Y-3202380D01*
X42465714Y-3202380D01*
X43275238Y-2297619D02*
X43322857Y-2250000D01*
X43418095Y-2202380D01*
X43656190Y-2202380D01*
X43751428Y-2250000D01*
X43799047Y-2297619D01*
X43846666Y-2392857D01*
X43846666Y-2488095D01*
X43799047Y-2630952D01*
X43227619Y-3202380D01*
X43846666Y-3202380D01*
%TO.C,J1*%
X36496666Y-2202380D02*
X36496666Y-2916666D01*
X36449047Y-3059523D01*
X36353809Y-3154761D01*
X36210952Y-3202380D01*
X36115714Y-3202380D01*
X37496666Y-3202380D02*
X36925238Y-3202380D01*
X37210952Y-3202380D02*
X37210952Y-2202380D01*
X37115714Y-2345238D01*
X37020476Y-2440476D01*
X36925238Y-2488095D01*
%TO.C,D24*%
X10462380Y-118054285D02*
X9462380Y-118054285D01*
X9462380Y-117816190D01*
X9510000Y-117673333D01*
X9605238Y-117578095D01*
X9700476Y-117530476D01*
X9890952Y-117482857D01*
X10033809Y-117482857D01*
X10224285Y-117530476D01*
X10319523Y-117578095D01*
X10414761Y-117673333D01*
X10462380Y-117816190D01*
X10462380Y-118054285D01*
X9557619Y-117101904D02*
X9510000Y-117054285D01*
X9462380Y-116959047D01*
X9462380Y-116720952D01*
X9510000Y-116625714D01*
X9557619Y-116578095D01*
X9652857Y-116530476D01*
X9748095Y-116530476D01*
X9890952Y-116578095D01*
X10462380Y-117149523D01*
X10462380Y-116530476D01*
X9795714Y-115673333D02*
X10462380Y-115673333D01*
X9414761Y-115911428D02*
X10129047Y-116149523D01*
X10129047Y-115530476D01*
%TO.C,D23*%
X25702380Y-118054285D02*
X24702380Y-118054285D01*
X24702380Y-117816190D01*
X24750000Y-117673333D01*
X24845238Y-117578095D01*
X24940476Y-117530476D01*
X25130952Y-117482857D01*
X25273809Y-117482857D01*
X25464285Y-117530476D01*
X25559523Y-117578095D01*
X25654761Y-117673333D01*
X25702380Y-117816190D01*
X25702380Y-118054285D01*
X24797619Y-117101904D02*
X24750000Y-117054285D01*
X24702380Y-116959047D01*
X24702380Y-116720952D01*
X24750000Y-116625714D01*
X24797619Y-116578095D01*
X24892857Y-116530476D01*
X24988095Y-116530476D01*
X25130952Y-116578095D01*
X25702380Y-117149523D01*
X25702380Y-116530476D01*
X24702380Y-116197142D02*
X24702380Y-115578095D01*
X25083333Y-115911428D01*
X25083333Y-115768571D01*
X25130952Y-115673333D01*
X25178571Y-115625714D01*
X25273809Y-115578095D01*
X25511904Y-115578095D01*
X25607142Y-115625714D01*
X25654761Y-115673333D01*
X25702380Y-115768571D01*
X25702380Y-116054285D01*
X25654761Y-116149523D01*
X25607142Y-116197142D01*
%TO.C,D22*%
X40942380Y-118054285D02*
X39942380Y-118054285D01*
X39942380Y-117816190D01*
X39990000Y-117673333D01*
X40085238Y-117578095D01*
X40180476Y-117530476D01*
X40370952Y-117482857D01*
X40513809Y-117482857D01*
X40704285Y-117530476D01*
X40799523Y-117578095D01*
X40894761Y-117673333D01*
X40942380Y-117816190D01*
X40942380Y-118054285D01*
X40037619Y-117101904D02*
X39990000Y-117054285D01*
X39942380Y-116959047D01*
X39942380Y-116720952D01*
X39990000Y-116625714D01*
X40037619Y-116578095D01*
X40132857Y-116530476D01*
X40228095Y-116530476D01*
X40370952Y-116578095D01*
X40942380Y-117149523D01*
X40942380Y-116530476D01*
X40037619Y-116149523D02*
X39990000Y-116101904D01*
X39942380Y-116006666D01*
X39942380Y-115768571D01*
X39990000Y-115673333D01*
X40037619Y-115625714D01*
X40132857Y-115578095D01*
X40228095Y-115578095D01*
X40370952Y-115625714D01*
X40942380Y-116197142D01*
X40942380Y-115578095D01*
%TO.C,D21*%
X56182380Y-118054285D02*
X55182380Y-118054285D01*
X55182380Y-117816190D01*
X55230000Y-117673333D01*
X55325238Y-117578095D01*
X55420476Y-117530476D01*
X55610952Y-117482857D01*
X55753809Y-117482857D01*
X55944285Y-117530476D01*
X56039523Y-117578095D01*
X56134761Y-117673333D01*
X56182380Y-117816190D01*
X56182380Y-118054285D01*
X55277619Y-117101904D02*
X55230000Y-117054285D01*
X55182380Y-116959047D01*
X55182380Y-116720952D01*
X55230000Y-116625714D01*
X55277619Y-116578095D01*
X55372857Y-116530476D01*
X55468095Y-116530476D01*
X55610952Y-116578095D01*
X56182380Y-117149523D01*
X56182380Y-116530476D01*
X56182380Y-115578095D02*
X56182380Y-116149523D01*
X56182380Y-115863809D02*
X55182380Y-115863809D01*
X55325238Y-115959047D01*
X55420476Y-116054285D01*
X55468095Y-116149523D01*
%TO.C,D20*%
X71422380Y-118054285D02*
X70422380Y-118054285D01*
X70422380Y-117816190D01*
X70470000Y-117673333D01*
X70565238Y-117578095D01*
X70660476Y-117530476D01*
X70850952Y-117482857D01*
X70993809Y-117482857D01*
X71184285Y-117530476D01*
X71279523Y-117578095D01*
X71374761Y-117673333D01*
X71422380Y-117816190D01*
X71422380Y-118054285D01*
X70517619Y-117101904D02*
X70470000Y-117054285D01*
X70422380Y-116959047D01*
X70422380Y-116720952D01*
X70470000Y-116625714D01*
X70517619Y-116578095D01*
X70612857Y-116530476D01*
X70708095Y-116530476D01*
X70850952Y-116578095D01*
X71422380Y-117149523D01*
X71422380Y-116530476D01*
X70422380Y-115911428D02*
X70422380Y-115816190D01*
X70470000Y-115720952D01*
X70517619Y-115673333D01*
X70612857Y-115625714D01*
X70803333Y-115578095D01*
X71041428Y-115578095D01*
X71231904Y-115625714D01*
X71327142Y-115673333D01*
X71374761Y-115720952D01*
X71422380Y-115816190D01*
X71422380Y-115911428D01*
X71374761Y-116006666D01*
X71327142Y-116054285D01*
X71231904Y-116101904D01*
X71041428Y-116149523D01*
X70803333Y-116149523D01*
X70612857Y-116101904D01*
X70517619Y-116054285D01*
X70470000Y-116006666D01*
X70422380Y-115911428D01*
%TO.C,D19*%
X86662380Y-118054285D02*
X85662380Y-118054285D01*
X85662380Y-117816190D01*
X85710000Y-117673333D01*
X85805238Y-117578095D01*
X85900476Y-117530476D01*
X86090952Y-117482857D01*
X86233809Y-117482857D01*
X86424285Y-117530476D01*
X86519523Y-117578095D01*
X86614761Y-117673333D01*
X86662380Y-117816190D01*
X86662380Y-118054285D01*
X86662380Y-116530476D02*
X86662380Y-117101904D01*
X86662380Y-116816190D02*
X85662380Y-116816190D01*
X85805238Y-116911428D01*
X85900476Y-117006666D01*
X85948095Y-117101904D01*
X86662380Y-116054285D02*
X86662380Y-115863809D01*
X86614761Y-115768571D01*
X86567142Y-115720952D01*
X86424285Y-115625714D01*
X86233809Y-115578095D01*
X85852857Y-115578095D01*
X85757619Y-115625714D01*
X85710000Y-115673333D01*
X85662380Y-115768571D01*
X85662380Y-115959047D01*
X85710000Y-116054285D01*
X85757619Y-116101904D01*
X85852857Y-116149523D01*
X86090952Y-116149523D01*
X86186190Y-116101904D01*
X86233809Y-116054285D01*
X86281428Y-115959047D01*
X86281428Y-115768571D01*
X86233809Y-115673333D01*
X86186190Y-115625714D01*
X86090952Y-115578095D01*
%TO.C,D18*%
X101902380Y-118054285D02*
X100902380Y-118054285D01*
X100902380Y-117816190D01*
X100950000Y-117673333D01*
X101045238Y-117578095D01*
X101140476Y-117530476D01*
X101330952Y-117482857D01*
X101473809Y-117482857D01*
X101664285Y-117530476D01*
X101759523Y-117578095D01*
X101854761Y-117673333D01*
X101902380Y-117816190D01*
X101902380Y-118054285D01*
X101902380Y-116530476D02*
X101902380Y-117101904D01*
X101902380Y-116816190D02*
X100902380Y-116816190D01*
X101045238Y-116911428D01*
X101140476Y-117006666D01*
X101188095Y-117101904D01*
X101330952Y-115959047D02*
X101283333Y-116054285D01*
X101235714Y-116101904D01*
X101140476Y-116149523D01*
X101092857Y-116149523D01*
X100997619Y-116101904D01*
X100950000Y-116054285D01*
X100902380Y-115959047D01*
X100902380Y-115768571D01*
X100950000Y-115673333D01*
X100997619Y-115625714D01*
X101092857Y-115578095D01*
X101140476Y-115578095D01*
X101235714Y-115625714D01*
X101283333Y-115673333D01*
X101330952Y-115768571D01*
X101330952Y-115959047D01*
X101378571Y-116054285D01*
X101426190Y-116101904D01*
X101521428Y-116149523D01*
X101711904Y-116149523D01*
X101807142Y-116101904D01*
X101854761Y-116054285D01*
X101902380Y-115959047D01*
X101902380Y-115768571D01*
X101854761Y-115673333D01*
X101807142Y-115625714D01*
X101711904Y-115578095D01*
X101521428Y-115578095D01*
X101426190Y-115625714D01*
X101378571Y-115673333D01*
X101330952Y-115768571D01*
%TO.C,D17*%
X117142380Y-118054285D02*
X116142380Y-118054285D01*
X116142380Y-117816190D01*
X116190000Y-117673333D01*
X116285238Y-117578095D01*
X116380476Y-117530476D01*
X116570952Y-117482857D01*
X116713809Y-117482857D01*
X116904285Y-117530476D01*
X116999523Y-117578095D01*
X117094761Y-117673333D01*
X117142380Y-117816190D01*
X117142380Y-118054285D01*
X117142380Y-116530476D02*
X117142380Y-117101904D01*
X117142380Y-116816190D02*
X116142380Y-116816190D01*
X116285238Y-116911428D01*
X116380476Y-117006666D01*
X116428095Y-117101904D01*
X116142380Y-116197142D02*
X116142380Y-115530476D01*
X117142380Y-115959047D01*
%TO.C,D16*%
X16812380Y-76144285D02*
X15812380Y-76144285D01*
X15812380Y-75906190D01*
X15860000Y-75763333D01*
X15955238Y-75668095D01*
X16050476Y-75620476D01*
X16240952Y-75572857D01*
X16383809Y-75572857D01*
X16574285Y-75620476D01*
X16669523Y-75668095D01*
X16764761Y-75763333D01*
X16812380Y-75906190D01*
X16812380Y-76144285D01*
X16812380Y-74620476D02*
X16812380Y-75191904D01*
X16812380Y-74906190D02*
X15812380Y-74906190D01*
X15955238Y-75001428D01*
X16050476Y-75096666D01*
X16098095Y-75191904D01*
X15812380Y-73763333D02*
X15812380Y-73953809D01*
X15860000Y-74049047D01*
X15907619Y-74096666D01*
X16050476Y-74191904D01*
X16240952Y-74239523D01*
X16621904Y-74239523D01*
X16717142Y-74191904D01*
X16764761Y-74144285D01*
X16812380Y-74049047D01*
X16812380Y-73858571D01*
X16764761Y-73763333D01*
X16717142Y-73715714D01*
X16621904Y-73668095D01*
X16383809Y-73668095D01*
X16288571Y-73715714D01*
X16240952Y-73763333D01*
X16193333Y-73858571D01*
X16193333Y-74049047D01*
X16240952Y-74144285D01*
X16288571Y-74191904D01*
X16383809Y-74239523D01*
%TO.C,D15*%
X32052380Y-76144285D02*
X31052380Y-76144285D01*
X31052380Y-75906190D01*
X31100000Y-75763333D01*
X31195238Y-75668095D01*
X31290476Y-75620476D01*
X31480952Y-75572857D01*
X31623809Y-75572857D01*
X31814285Y-75620476D01*
X31909523Y-75668095D01*
X32004761Y-75763333D01*
X32052380Y-75906190D01*
X32052380Y-76144285D01*
X32052380Y-74620476D02*
X32052380Y-75191904D01*
X32052380Y-74906190D02*
X31052380Y-74906190D01*
X31195238Y-75001428D01*
X31290476Y-75096666D01*
X31338095Y-75191904D01*
X31052380Y-73715714D02*
X31052380Y-74191904D01*
X31528571Y-74239523D01*
X31480952Y-74191904D01*
X31433333Y-74096666D01*
X31433333Y-73858571D01*
X31480952Y-73763333D01*
X31528571Y-73715714D01*
X31623809Y-73668095D01*
X31861904Y-73668095D01*
X31957142Y-73715714D01*
X32004761Y-73763333D01*
X32052380Y-73858571D01*
X32052380Y-74096666D01*
X32004761Y-74191904D01*
X31957142Y-74239523D01*
%TO.C,D14*%
X47292380Y-76144285D02*
X46292380Y-76144285D01*
X46292380Y-75906190D01*
X46340000Y-75763333D01*
X46435238Y-75668095D01*
X46530476Y-75620476D01*
X46720952Y-75572857D01*
X46863809Y-75572857D01*
X47054285Y-75620476D01*
X47149523Y-75668095D01*
X47244761Y-75763333D01*
X47292380Y-75906190D01*
X47292380Y-76144285D01*
X47292380Y-74620476D02*
X47292380Y-75191904D01*
X47292380Y-74906190D02*
X46292380Y-74906190D01*
X46435238Y-75001428D01*
X46530476Y-75096666D01*
X46578095Y-75191904D01*
X46625714Y-73763333D02*
X47292380Y-73763333D01*
X46244761Y-74001428D02*
X46959047Y-74239523D01*
X46959047Y-73620476D01*
%TO.C,D13*%
X62532380Y-76144285D02*
X61532380Y-76144285D01*
X61532380Y-75906190D01*
X61580000Y-75763333D01*
X61675238Y-75668095D01*
X61770476Y-75620476D01*
X61960952Y-75572857D01*
X62103809Y-75572857D01*
X62294285Y-75620476D01*
X62389523Y-75668095D01*
X62484761Y-75763333D01*
X62532380Y-75906190D01*
X62532380Y-76144285D01*
X62532380Y-74620476D02*
X62532380Y-75191904D01*
X62532380Y-74906190D02*
X61532380Y-74906190D01*
X61675238Y-75001428D01*
X61770476Y-75096666D01*
X61818095Y-75191904D01*
X61532380Y-74287142D02*
X61532380Y-73668095D01*
X61913333Y-74001428D01*
X61913333Y-73858571D01*
X61960952Y-73763333D01*
X62008571Y-73715714D01*
X62103809Y-73668095D01*
X62341904Y-73668095D01*
X62437142Y-73715714D01*
X62484761Y-73763333D01*
X62532380Y-73858571D01*
X62532380Y-74144285D01*
X62484761Y-74239523D01*
X62437142Y-74287142D01*
%TO.C,D12*%
X77772380Y-76144285D02*
X76772380Y-76144285D01*
X76772380Y-75906190D01*
X76820000Y-75763333D01*
X76915238Y-75668095D01*
X77010476Y-75620476D01*
X77200952Y-75572857D01*
X77343809Y-75572857D01*
X77534285Y-75620476D01*
X77629523Y-75668095D01*
X77724761Y-75763333D01*
X77772380Y-75906190D01*
X77772380Y-76144285D01*
X77772380Y-74620476D02*
X77772380Y-75191904D01*
X77772380Y-74906190D02*
X76772380Y-74906190D01*
X76915238Y-75001428D01*
X77010476Y-75096666D01*
X77058095Y-75191904D01*
X76867619Y-74239523D02*
X76820000Y-74191904D01*
X76772380Y-74096666D01*
X76772380Y-73858571D01*
X76820000Y-73763333D01*
X76867619Y-73715714D01*
X76962857Y-73668095D01*
X77058095Y-73668095D01*
X77200952Y-73715714D01*
X77772380Y-74287142D01*
X77772380Y-73668095D01*
%TO.C,D11*%
X93012380Y-76144285D02*
X92012380Y-76144285D01*
X92012380Y-75906190D01*
X92060000Y-75763333D01*
X92155238Y-75668095D01*
X92250476Y-75620476D01*
X92440952Y-75572857D01*
X92583809Y-75572857D01*
X92774285Y-75620476D01*
X92869523Y-75668095D01*
X92964761Y-75763333D01*
X93012380Y-75906190D01*
X93012380Y-76144285D01*
X93012380Y-74620476D02*
X93012380Y-75191904D01*
X93012380Y-74906190D02*
X92012380Y-74906190D01*
X92155238Y-75001428D01*
X92250476Y-75096666D01*
X92298095Y-75191904D01*
X93012380Y-73668095D02*
X93012380Y-74239523D01*
X93012380Y-73953809D02*
X92012380Y-73953809D01*
X92155238Y-74049047D01*
X92250476Y-74144285D01*
X92298095Y-74239523D01*
%TO.C,D10*%
X108252380Y-76144285D02*
X107252380Y-76144285D01*
X107252380Y-75906190D01*
X107300000Y-75763333D01*
X107395238Y-75668095D01*
X107490476Y-75620476D01*
X107680952Y-75572857D01*
X107823809Y-75572857D01*
X108014285Y-75620476D01*
X108109523Y-75668095D01*
X108204761Y-75763333D01*
X108252380Y-75906190D01*
X108252380Y-76144285D01*
X108252380Y-74620476D02*
X108252380Y-75191904D01*
X108252380Y-74906190D02*
X107252380Y-74906190D01*
X107395238Y-75001428D01*
X107490476Y-75096666D01*
X107538095Y-75191904D01*
X107252380Y-74001428D02*
X107252380Y-73906190D01*
X107300000Y-73810952D01*
X107347619Y-73763333D01*
X107442857Y-73715714D01*
X107633333Y-73668095D01*
X107871428Y-73668095D01*
X108061904Y-73715714D01*
X108157142Y-73763333D01*
X108204761Y-73810952D01*
X108252380Y-73906190D01*
X108252380Y-74001428D01*
X108204761Y-74096666D01*
X108157142Y-74144285D01*
X108061904Y-74191904D01*
X107871428Y-74239523D01*
X107633333Y-74239523D01*
X107442857Y-74191904D01*
X107347619Y-74144285D01*
X107300000Y-74096666D01*
X107252380Y-74001428D01*
%TO.C,D9*%
X123492380Y-75668095D02*
X122492380Y-75668095D01*
X122492380Y-75430000D01*
X122540000Y-75287142D01*
X122635238Y-75191904D01*
X122730476Y-75144285D01*
X122920952Y-75096666D01*
X123063809Y-75096666D01*
X123254285Y-75144285D01*
X123349523Y-75191904D01*
X123444761Y-75287142D01*
X123492380Y-75430000D01*
X123492380Y-75668095D01*
X123492380Y-74620476D02*
X123492380Y-74430000D01*
X123444761Y-74334761D01*
X123397142Y-74287142D01*
X123254285Y-74191904D01*
X123063809Y-74144285D01*
X122682857Y-74144285D01*
X122587619Y-74191904D01*
X122540000Y-74239523D01*
X122492380Y-74334761D01*
X122492380Y-74525238D01*
X122540000Y-74620476D01*
X122587619Y-74668095D01*
X122682857Y-74715714D01*
X122920952Y-74715714D01*
X123016190Y-74668095D01*
X123063809Y-74620476D01*
X123111428Y-74525238D01*
X123111428Y-74334761D01*
X123063809Y-74239523D01*
X123016190Y-74191904D01*
X122920952Y-74144285D01*
%TO.C,D8*%
X142542380Y-75668095D02*
X141542380Y-75668095D01*
X141542380Y-75430000D01*
X141590000Y-75287142D01*
X141685238Y-75191904D01*
X141780476Y-75144285D01*
X141970952Y-75096666D01*
X142113809Y-75096666D01*
X142304285Y-75144285D01*
X142399523Y-75191904D01*
X142494761Y-75287142D01*
X142542380Y-75430000D01*
X142542380Y-75668095D01*
X141970952Y-74525238D02*
X141923333Y-74620476D01*
X141875714Y-74668095D01*
X141780476Y-74715714D01*
X141732857Y-74715714D01*
X141637619Y-74668095D01*
X141590000Y-74620476D01*
X141542380Y-74525238D01*
X141542380Y-74334761D01*
X141590000Y-74239523D01*
X141637619Y-74191904D01*
X141732857Y-74144285D01*
X141780476Y-74144285D01*
X141875714Y-74191904D01*
X141923333Y-74239523D01*
X141970952Y-74334761D01*
X141970952Y-74525238D01*
X142018571Y-74620476D01*
X142066190Y-74668095D01*
X142161428Y-74715714D01*
X142351904Y-74715714D01*
X142447142Y-74668095D01*
X142494761Y-74620476D01*
X142542380Y-74525238D01*
X142542380Y-74334761D01*
X142494761Y-74239523D01*
X142447142Y-74191904D01*
X142351904Y-74144285D01*
X142161428Y-74144285D01*
X142066190Y-74191904D01*
X142018571Y-74239523D01*
X141970952Y-74334761D01*
%TO.C,D7*%
X157782380Y-75668095D02*
X156782380Y-75668095D01*
X156782380Y-75430000D01*
X156830000Y-75287142D01*
X156925238Y-75191904D01*
X157020476Y-75144285D01*
X157210952Y-75096666D01*
X157353809Y-75096666D01*
X157544285Y-75144285D01*
X157639523Y-75191904D01*
X157734761Y-75287142D01*
X157782380Y-75430000D01*
X157782380Y-75668095D01*
X156782380Y-74763333D02*
X156782380Y-74096666D01*
X157782380Y-74525238D01*
%TO.C,D6*%
X173022380Y-75668095D02*
X172022380Y-75668095D01*
X172022380Y-75430000D01*
X172070000Y-75287142D01*
X172165238Y-75191904D01*
X172260476Y-75144285D01*
X172450952Y-75096666D01*
X172593809Y-75096666D01*
X172784285Y-75144285D01*
X172879523Y-75191904D01*
X172974761Y-75287142D01*
X173022380Y-75430000D01*
X173022380Y-75668095D01*
X172022380Y-74239523D02*
X172022380Y-74430000D01*
X172070000Y-74525238D01*
X172117619Y-74572857D01*
X172260476Y-74668095D01*
X172450952Y-74715714D01*
X172831904Y-74715714D01*
X172927142Y-74668095D01*
X172974761Y-74620476D01*
X173022380Y-74525238D01*
X173022380Y-74334761D01*
X172974761Y-74239523D01*
X172927142Y-74191904D01*
X172831904Y-74144285D01*
X172593809Y-74144285D01*
X172498571Y-74191904D01*
X172450952Y-74239523D01*
X172403333Y-74334761D01*
X172403333Y-74525238D01*
X172450952Y-74620476D01*
X172498571Y-74668095D01*
X172593809Y-74715714D01*
%TO.C,D5*%
X188262380Y-75668095D02*
X187262380Y-75668095D01*
X187262380Y-75430000D01*
X187310000Y-75287142D01*
X187405238Y-75191904D01*
X187500476Y-75144285D01*
X187690952Y-75096666D01*
X187833809Y-75096666D01*
X188024285Y-75144285D01*
X188119523Y-75191904D01*
X188214761Y-75287142D01*
X188262380Y-75430000D01*
X188262380Y-75668095D01*
X187262380Y-74191904D02*
X187262380Y-74668095D01*
X187738571Y-74715714D01*
X187690952Y-74668095D01*
X187643333Y-74572857D01*
X187643333Y-74334761D01*
X187690952Y-74239523D01*
X187738571Y-74191904D01*
X187833809Y-74144285D01*
X188071904Y-74144285D01*
X188167142Y-74191904D01*
X188214761Y-74239523D01*
X188262380Y-74334761D01*
X188262380Y-74572857D01*
X188214761Y-74668095D01*
X188167142Y-74715714D01*
%TO.C,D4*%
X203502380Y-75668095D02*
X202502380Y-75668095D01*
X202502380Y-75430000D01*
X202550000Y-75287142D01*
X202645238Y-75191904D01*
X202740476Y-75144285D01*
X202930952Y-75096666D01*
X203073809Y-75096666D01*
X203264285Y-75144285D01*
X203359523Y-75191904D01*
X203454761Y-75287142D01*
X203502380Y-75430000D01*
X203502380Y-75668095D01*
X202835714Y-74239523D02*
X203502380Y-74239523D01*
X202454761Y-74477619D02*
X203169047Y-74715714D01*
X203169047Y-74096666D01*
%TO.C,D3*%
X218742380Y-75668095D02*
X217742380Y-75668095D01*
X217742380Y-75430000D01*
X217790000Y-75287142D01*
X217885238Y-75191904D01*
X217980476Y-75144285D01*
X218170952Y-75096666D01*
X218313809Y-75096666D01*
X218504285Y-75144285D01*
X218599523Y-75191904D01*
X218694761Y-75287142D01*
X218742380Y-75430000D01*
X218742380Y-75668095D01*
X217742380Y-74763333D02*
X217742380Y-74144285D01*
X218123333Y-74477619D01*
X218123333Y-74334761D01*
X218170952Y-74239523D01*
X218218571Y-74191904D01*
X218313809Y-74144285D01*
X218551904Y-74144285D01*
X218647142Y-74191904D01*
X218694761Y-74239523D01*
X218742380Y-74334761D01*
X218742380Y-74620476D01*
X218694761Y-74715714D01*
X218647142Y-74763333D01*
%TO.C,D2*%
X233982380Y-75668095D02*
X232982380Y-75668095D01*
X232982380Y-75430000D01*
X233030000Y-75287142D01*
X233125238Y-75191904D01*
X233220476Y-75144285D01*
X233410952Y-75096666D01*
X233553809Y-75096666D01*
X233744285Y-75144285D01*
X233839523Y-75191904D01*
X233934761Y-75287142D01*
X233982380Y-75430000D01*
X233982380Y-75668095D01*
X233077619Y-74715714D02*
X233030000Y-74668095D01*
X232982380Y-74572857D01*
X232982380Y-74334761D01*
X233030000Y-74239523D01*
X233077619Y-74191904D01*
X233172857Y-74144285D01*
X233268095Y-74144285D01*
X233410952Y-74191904D01*
X233982380Y-74763333D01*
X233982380Y-74144285D01*
%TO.C,D1*%
X249222380Y-75668095D02*
X248222380Y-75668095D01*
X248222380Y-75430000D01*
X248270000Y-75287142D01*
X248365238Y-75191904D01*
X248460476Y-75144285D01*
X248650952Y-75096666D01*
X248793809Y-75096666D01*
X248984285Y-75144285D01*
X249079523Y-75191904D01*
X249174761Y-75287142D01*
X249222380Y-75430000D01*
X249222380Y-75668095D01*
X249222380Y-74144285D02*
X249222380Y-74715714D01*
X249222380Y-74430000D02*
X248222380Y-74430000D01*
X248365238Y-74525238D01*
X248460476Y-74620476D01*
X248508095Y-74715714D01*
%TO.C,C12*%
X39897142Y-39222857D02*
X39944761Y-39270476D01*
X39992380Y-39413333D01*
X39992380Y-39508571D01*
X39944761Y-39651428D01*
X39849523Y-39746666D01*
X39754285Y-39794285D01*
X39563809Y-39841904D01*
X39420952Y-39841904D01*
X39230476Y-39794285D01*
X39135238Y-39746666D01*
X39040000Y-39651428D01*
X38992380Y-39508571D01*
X38992380Y-39413333D01*
X39040000Y-39270476D01*
X39087619Y-39222857D01*
X39992380Y-38270476D02*
X39992380Y-38841904D01*
X39992380Y-38556190D02*
X38992380Y-38556190D01*
X39135238Y-38651428D01*
X39230476Y-38746666D01*
X39278095Y-38841904D01*
X39087619Y-37889523D02*
X39040000Y-37841904D01*
X38992380Y-37746666D01*
X38992380Y-37508571D01*
X39040000Y-37413333D01*
X39087619Y-37365714D01*
X39182857Y-37318095D01*
X39278095Y-37318095D01*
X39420952Y-37365714D01*
X39992380Y-37937142D01*
X39992380Y-37318095D01*
%TO.C,C11*%
X46367142Y-44517142D02*
X46319523Y-44564761D01*
X46176666Y-44612380D01*
X46081428Y-44612380D01*
X45938571Y-44564761D01*
X45843333Y-44469523D01*
X45795714Y-44374285D01*
X45748095Y-44183809D01*
X45748095Y-44040952D01*
X45795714Y-43850476D01*
X45843333Y-43755238D01*
X45938571Y-43660000D01*
X46081428Y-43612380D01*
X46176666Y-43612380D01*
X46319523Y-43660000D01*
X46367142Y-43707619D01*
X47319523Y-44612380D02*
X46748095Y-44612380D01*
X47033809Y-44612380D02*
X47033809Y-43612380D01*
X46938571Y-43755238D01*
X46843333Y-43850476D01*
X46748095Y-43898095D01*
X48271904Y-44612380D02*
X47700476Y-44612380D01*
X47986190Y-44612380D02*
X47986190Y-43612380D01*
X47890952Y-43755238D01*
X47795714Y-43850476D01*
X47700476Y-43898095D01*
%TO.C,C10*%
X46367142Y-22927142D02*
X46319523Y-22974761D01*
X46176666Y-23022380D01*
X46081428Y-23022380D01*
X45938571Y-22974761D01*
X45843333Y-22879523D01*
X45795714Y-22784285D01*
X45748095Y-22593809D01*
X45748095Y-22450952D01*
X45795714Y-22260476D01*
X45843333Y-22165238D01*
X45938571Y-22070000D01*
X46081428Y-22022380D01*
X46176666Y-22022380D01*
X46319523Y-22070000D01*
X46367142Y-22117619D01*
X47319523Y-23022380D02*
X46748095Y-23022380D01*
X47033809Y-23022380D02*
X47033809Y-22022380D01*
X46938571Y-22165238D01*
X46843333Y-22260476D01*
X46748095Y-22308095D01*
X47938571Y-22022380D02*
X48033809Y-22022380D01*
X48129047Y-22070000D01*
X48176666Y-22117619D01*
X48224285Y-22212857D01*
X48271904Y-22403333D01*
X48271904Y-22641428D01*
X48224285Y-22831904D01*
X48176666Y-22927142D01*
X48129047Y-22974761D01*
X48033809Y-23022380D01*
X47938571Y-23022380D01*
X47843333Y-22974761D01*
X47795714Y-22927142D01*
X47748095Y-22831904D01*
X47700476Y-22641428D01*
X47700476Y-22403333D01*
X47748095Y-22212857D01*
X47795714Y-22117619D01*
X47843333Y-22070000D01*
X47938571Y-22022380D01*
%TO.C,C9*%
X53153333Y-34937142D02*
X53105714Y-34984761D01*
X52962857Y-35032380D01*
X52867619Y-35032380D01*
X52724761Y-34984761D01*
X52629523Y-34889523D01*
X52581904Y-34794285D01*
X52534285Y-34603809D01*
X52534285Y-34460952D01*
X52581904Y-34270476D01*
X52629523Y-34175238D01*
X52724761Y-34080000D01*
X52867619Y-34032380D01*
X52962857Y-34032380D01*
X53105714Y-34080000D01*
X53153333Y-34127619D01*
X53629523Y-35032380D02*
X53820000Y-35032380D01*
X53915238Y-34984761D01*
X53962857Y-34937142D01*
X54058095Y-34794285D01*
X54105714Y-34603809D01*
X54105714Y-34222857D01*
X54058095Y-34127619D01*
X54010476Y-34080000D01*
X53915238Y-34032380D01*
X53724761Y-34032380D01*
X53629523Y-34080000D01*
X53581904Y-34127619D01*
X53534285Y-34222857D01*
X53534285Y-34460952D01*
X53581904Y-34556190D01*
X53629523Y-34603809D01*
X53724761Y-34651428D01*
X53915238Y-34651428D01*
X54010476Y-34603809D01*
X54058095Y-34556190D01*
X54105714Y-34460952D01*
%TO.C,C8*%
X162627142Y-52216666D02*
X162674761Y-52264285D01*
X162722380Y-52407142D01*
X162722380Y-52502380D01*
X162674761Y-52645238D01*
X162579523Y-52740476D01*
X162484285Y-52788095D01*
X162293809Y-52835714D01*
X162150952Y-52835714D01*
X161960476Y-52788095D01*
X161865238Y-52740476D01*
X161770000Y-52645238D01*
X161722380Y-52502380D01*
X161722380Y-52407142D01*
X161770000Y-52264285D01*
X161817619Y-52216666D01*
X162150952Y-51645238D02*
X162103333Y-51740476D01*
X162055714Y-51788095D01*
X161960476Y-51835714D01*
X161912857Y-51835714D01*
X161817619Y-51788095D01*
X161770000Y-51740476D01*
X161722380Y-51645238D01*
X161722380Y-51454761D01*
X161770000Y-51359523D01*
X161817619Y-51311904D01*
X161912857Y-51264285D01*
X161960476Y-51264285D01*
X162055714Y-51311904D01*
X162103333Y-51359523D01*
X162150952Y-51454761D01*
X162150952Y-51645238D01*
X162198571Y-51740476D01*
X162246190Y-51788095D01*
X162341428Y-51835714D01*
X162531904Y-51835714D01*
X162627142Y-51788095D01*
X162674761Y-51740476D01*
X162722380Y-51645238D01*
X162722380Y-51454761D01*
X162674761Y-51359523D01*
X162627142Y-51311904D01*
X162531904Y-51264285D01*
X162341428Y-51264285D01*
X162246190Y-51311904D01*
X162198571Y-51359523D01*
X162150952Y-51454761D01*
%TO.C,C7*%
X162627142Y-34436666D02*
X162674761Y-34484285D01*
X162722380Y-34627142D01*
X162722380Y-34722380D01*
X162674761Y-34865238D01*
X162579523Y-34960476D01*
X162484285Y-35008095D01*
X162293809Y-35055714D01*
X162150952Y-35055714D01*
X161960476Y-35008095D01*
X161865238Y-34960476D01*
X161770000Y-34865238D01*
X161722380Y-34722380D01*
X161722380Y-34627142D01*
X161770000Y-34484285D01*
X161817619Y-34436666D01*
X161722380Y-34103333D02*
X161722380Y-33436666D01*
X162722380Y-33865238D01*
%TO.C,C6*%
X162627142Y-16656666D02*
X162674761Y-16704285D01*
X162722380Y-16847142D01*
X162722380Y-16942380D01*
X162674761Y-17085238D01*
X162579523Y-17180476D01*
X162484285Y-17228095D01*
X162293809Y-17275714D01*
X162150952Y-17275714D01*
X161960476Y-17228095D01*
X161865238Y-17180476D01*
X161770000Y-17085238D01*
X161722380Y-16942380D01*
X161722380Y-16847142D01*
X161770000Y-16704285D01*
X161817619Y-16656666D01*
X161722380Y-15799523D02*
X161722380Y-15990000D01*
X161770000Y-16085238D01*
X161817619Y-16132857D01*
X161960476Y-16228095D01*
X162150952Y-16275714D01*
X162531904Y-16275714D01*
X162627142Y-16228095D01*
X162674761Y-16180476D01*
X162722380Y-16085238D01*
X162722380Y-15894761D01*
X162674761Y-15799523D01*
X162627142Y-15751904D01*
X162531904Y-15704285D01*
X162293809Y-15704285D01*
X162198571Y-15751904D01*
X162150952Y-15799523D01*
X162103333Y-15894761D01*
X162103333Y-16085238D01*
X162150952Y-16180476D01*
X162198571Y-16228095D01*
X162293809Y-16275714D01*
%TO.C,C5*%
X124527142Y-47136666D02*
X124574761Y-47184285D01*
X124622380Y-47327142D01*
X124622380Y-47422380D01*
X124574761Y-47565238D01*
X124479523Y-47660476D01*
X124384285Y-47708095D01*
X124193809Y-47755714D01*
X124050952Y-47755714D01*
X123860476Y-47708095D01*
X123765238Y-47660476D01*
X123670000Y-47565238D01*
X123622380Y-47422380D01*
X123622380Y-47327142D01*
X123670000Y-47184285D01*
X123717619Y-47136666D01*
X123622380Y-46231904D02*
X123622380Y-46708095D01*
X124098571Y-46755714D01*
X124050952Y-46708095D01*
X124003333Y-46612857D01*
X124003333Y-46374761D01*
X124050952Y-46279523D01*
X124098571Y-46231904D01*
X124193809Y-46184285D01*
X124431904Y-46184285D01*
X124527142Y-46231904D01*
X124574761Y-46279523D01*
X124622380Y-46374761D01*
X124622380Y-46612857D01*
X124574761Y-46708095D01*
X124527142Y-46755714D01*
%TO.C,C4*%
X124527142Y-33166666D02*
X124574761Y-33214285D01*
X124622380Y-33357142D01*
X124622380Y-33452380D01*
X124574761Y-33595238D01*
X124479523Y-33690476D01*
X124384285Y-33738095D01*
X124193809Y-33785714D01*
X124050952Y-33785714D01*
X123860476Y-33738095D01*
X123765238Y-33690476D01*
X123670000Y-33595238D01*
X123622380Y-33452380D01*
X123622380Y-33357142D01*
X123670000Y-33214285D01*
X123717619Y-33166666D01*
X123955714Y-32309523D02*
X124622380Y-32309523D01*
X123574761Y-32547619D02*
X124289047Y-32785714D01*
X124289047Y-32166666D01*
%TO.C,C3*%
X124527142Y-19196666D02*
X124574761Y-19244285D01*
X124622380Y-19387142D01*
X124622380Y-19482380D01*
X124574761Y-19625238D01*
X124479523Y-19720476D01*
X124384285Y-19768095D01*
X124193809Y-19815714D01*
X124050952Y-19815714D01*
X123860476Y-19768095D01*
X123765238Y-19720476D01*
X123670000Y-19625238D01*
X123622380Y-19482380D01*
X123622380Y-19387142D01*
X123670000Y-19244285D01*
X123717619Y-19196666D01*
X123622380Y-18863333D02*
X123622380Y-18244285D01*
X124003333Y-18577619D01*
X124003333Y-18434761D01*
X124050952Y-18339523D01*
X124098571Y-18291904D01*
X124193809Y-18244285D01*
X124431904Y-18244285D01*
X124527142Y-18291904D01*
X124574761Y-18339523D01*
X124622380Y-18434761D01*
X124622380Y-18720476D01*
X124574761Y-18815714D01*
X124527142Y-18863333D01*
%TO.C,C2*%
X205807142Y-42056666D02*
X205854761Y-42104285D01*
X205902380Y-42247142D01*
X205902380Y-42342380D01*
X205854761Y-42485238D01*
X205759523Y-42580476D01*
X205664285Y-42628095D01*
X205473809Y-42675714D01*
X205330952Y-42675714D01*
X205140476Y-42628095D01*
X205045238Y-42580476D01*
X204950000Y-42485238D01*
X204902380Y-42342380D01*
X204902380Y-42247142D01*
X204950000Y-42104285D01*
X204997619Y-42056666D01*
X204997619Y-41675714D02*
X204950000Y-41628095D01*
X204902380Y-41532857D01*
X204902380Y-41294761D01*
X204950000Y-41199523D01*
X204997619Y-41151904D01*
X205092857Y-41104285D01*
X205188095Y-41104285D01*
X205330952Y-41151904D01*
X205902380Y-41723333D01*
X205902380Y-41104285D01*
%TO.C,C1*%
X205807142Y-11576666D02*
X205854761Y-11624285D01*
X205902380Y-11767142D01*
X205902380Y-11862380D01*
X205854761Y-12005238D01*
X205759523Y-12100476D01*
X205664285Y-12148095D01*
X205473809Y-12195714D01*
X205330952Y-12195714D01*
X205140476Y-12148095D01*
X205045238Y-12100476D01*
X204950000Y-12005238D01*
X204902380Y-11862380D01*
X204902380Y-11767142D01*
X204950000Y-11624285D01*
X204997619Y-11576666D01*
X205902380Y-10624285D02*
X205902380Y-11195714D01*
X205902380Y-10910000D02*
X204902380Y-10910000D01*
X205045238Y-11005238D01*
X205140476Y-11100476D01*
X205188095Y-11195714D01*
%TD*%
M02*
