M48
; DRILL file {KiCad 5.1.6-c6e7f7d~87~ubuntu16.04.1} date Tue Mar  8 12:53:23 2022
; FORMAT={-:-/ absolute / metric / decimal}
; #@! TF.CreationDate,2022-03-08T12:53:23-05:00
; #@! TF.GenerationSoftware,Kicad,Pcbnew,5.1.6-c6e7f7d~87~ubuntu16.04.1
FMAT,2
METRIC
T1C0.400
T2C0.700
T3C0.800
T4C0.900
T5C0.950
T6C1.000
T7C1.100
T8C1.200
T9C2.300
T10C3.200
%
G90
G05
T1
X54.608Y-100.401
X64.715Y-46.206
X73.732Y-69.851
X77.723Y-31.936
X95.487Y-62.011
X96.383Y-60.691
X97.116Y-54.271
X100.672Y-25.186
X107.424Y-20.964
X108.934Y-24.822
X110.39Y-24.09
X113.591Y-56.718
X121.113Y-23.143
X126.44Y-102.604
X127.052Y-121.821
X129.218Y-85.24
X129.424Y-128.61
X134.227Y-41.182
X138.439Y-86.363
X143.122Y-81.01
X145.713Y-46.352
X145.715Y-63.747
X146.05Y-24.024
X153.385Y-25.228
X155.738Y-26.776
X157.226Y-26.713
X159.718Y-27.304
X163.181Y-1.438
X165.01Y-61.236
X166.508Y-92.621
X168.2Y-25.387
X168.94Y-59.865
X169.548Y-55.129
X174.139Y-41.94
X175.959Y-9.229
X177.108Y-10.477
X177.167Y-48.025
X177.219Y-54.404
X180.854Y-62.796
X182.031Y-54.403
X184.905Y-62.934
X185.128Y-2.401
X185.379Y-37.658
X188.302Y-62.855
X188.466Y-52.498
X188.508Y-6.255
X188.724Y-25.392
X189.034Y-17.312
X189.128Y-41.94
X189.395Y-43.743
X190.081Y-23.166
X190.438Y-46.85
X190.646Y-15.036
X191.385Y-24.626
X196.201Y-34.284
X202.265Y-48.025
X202.271Y-6.642
X203.99Y-37.356
X205.019Y-5.761
X207.01Y-60.231
X226.184Y-32.339
X244.298Y-6.609
T2
X57.15Y-20.32
X57.15Y-25.4
X57.15Y-41.91
X57.15Y-46.99
X57.15Y-49.53
X57.15Y-54.61
X67.31Y-44.45
X72.39Y-44.45
X67.31Y-24.13
X72.39Y-24.13
X22.86Y-3.81
X27.94Y-3.81
X57.15Y-27.94
X57.15Y-33.02
X227.95Y-124.95
X227.95Y-130.03
X227.95Y-133.08
X227.95Y-138.16
T3
X121.92Y-45.72
X121.92Y-48.22
X121.92Y-17.78
X121.92Y-20.28
X76.2Y-109.22
X78.74Y-109.22
X81.28Y-109.22
X83.82Y-109.22
X86.36Y-109.22
X88.9Y-109.22
X91.44Y-109.22
X93.98Y-109.22
X96.52Y-109.22
X45.76Y-41.91
X48.26Y-41.91
X163.8Y-14.48
X163.8Y-22.1
X166.34Y-14.48
X166.34Y-22.1
X168.88Y-14.48
X168.88Y-22.1
X171.42Y-14.48
X171.42Y-22.1
X173.96Y-14.48
X173.96Y-22.1
X176.5Y-14.48
X176.5Y-22.1
X179.04Y-14.48
X179.04Y-22.1
X181.58Y-14.48
X181.58Y-22.1
X184.12Y-14.48
X184.12Y-22.1
X186.66Y-14.48
X186.66Y-22.1
X125.73Y-44.45
X125.73Y-52.07
X128.27Y-44.45
X128.27Y-52.07
X130.81Y-44.45
X130.81Y-52.07
X133.35Y-44.45
X133.35Y-52.07
X135.89Y-44.45
X135.89Y-52.07
X138.43Y-44.45
X138.43Y-52.07
X140.97Y-44.45
X140.97Y-52.07
X125.73Y-30.48
X125.73Y-38.1
X128.27Y-30.48
X128.27Y-38.1
X130.81Y-30.48
X130.81Y-38.1
X133.35Y-30.48
X133.35Y-38.1
X135.89Y-30.48
X135.89Y-38.1
X138.43Y-30.48
X138.43Y-38.1
X140.97Y-30.48
X140.97Y-38.1
X185.42Y-66.04
X187.96Y-66.04
X190.5Y-66.04
X193.04Y-66.04
X195.58Y-66.04
X198.12Y-66.04
X200.66Y-66.04
X203.2Y-66.04
X205.74Y-66.04
X43.18Y-24.13
X43.18Y-26.67
X43.18Y-29.21
X43.18Y-31.75
X50.8Y-24.13
X50.8Y-26.67
X50.8Y-29.21
X50.8Y-31.75
X45.76Y-20.32
X48.26Y-20.32
X125.73Y-16.51
X125.73Y-24.13
X128.27Y-16.51
X128.27Y-24.13
X130.81Y-16.51
X130.81Y-24.13
X133.35Y-16.51
X133.35Y-24.13
X135.89Y-16.51
X135.89Y-24.13
X138.43Y-16.51
X138.43Y-24.13
X140.97Y-16.51
X140.97Y-24.13
X203.2Y-40.64
X203.2Y-43.14
X160.02Y-15.24
X160.02Y-17.74
X22.9Y-21.59
X25.4Y-21.59
X203.2Y-10.16
X203.2Y-12.66
X207.01Y-39.37
X207.01Y-54.61
X209.55Y-39.37
X209.55Y-54.61
X212.09Y-39.37
X212.09Y-54.61
X214.63Y-39.37
X214.63Y-54.61
X217.17Y-39.37
X217.17Y-54.61
X219.71Y-39.37
X219.71Y-54.61
X222.25Y-39.37
X222.25Y-54.61
X224.79Y-39.37
X224.79Y-54.61
X227.33Y-39.37
X227.33Y-54.61
X229.87Y-39.37
X229.87Y-54.61
X232.41Y-39.37
X232.41Y-54.61
X234.95Y-39.37
X234.95Y-54.61
X237.49Y-39.37
X237.49Y-54.61
X240.03Y-39.37
X240.03Y-54.61
X163.8Y-49.53
X163.8Y-57.15
X166.34Y-49.53
X166.34Y-57.15
X168.88Y-49.53
X168.88Y-57.15
X171.42Y-49.53
X171.42Y-57.15
X173.96Y-49.53
X173.96Y-57.15
X176.5Y-49.53
X176.5Y-57.15
X179.04Y-49.53
X179.04Y-57.15
X181.58Y-49.53
X181.58Y-57.15
X184.12Y-49.53
X184.12Y-57.15
X186.66Y-49.53
X186.66Y-57.15
X160.02Y-50.8
X160.02Y-53.3
X57.15Y-66.04
X59.69Y-66.04
X62.23Y-66.04
X64.77Y-66.04
X67.31Y-66.04
X69.85Y-66.04
X72.39Y-66.04
X74.93Y-66.04
X77.47Y-66.04
X43.18Y-45.72
X43.18Y-48.26
X43.18Y-50.8
X43.18Y-53.34
X50.8Y-45.72
X50.8Y-48.26
X50.8Y-50.8
X50.8Y-53.34
X34.29Y-36.83
X34.29Y-40.33
X163.8Y-31.75
X163.8Y-39.37
X166.34Y-31.75
X166.34Y-39.37
X168.88Y-31.75
X168.88Y-39.37
X171.42Y-31.75
X171.42Y-39.37
X173.96Y-31.75
X173.96Y-39.37
X176.5Y-31.75
X176.5Y-39.37
X179.04Y-31.75
X179.04Y-39.37
X181.58Y-31.75
X181.58Y-39.37
X184.12Y-31.75
X184.12Y-39.37
X186.66Y-31.75
X186.66Y-39.37
X207.01Y-8.89
X207.01Y-24.13
X209.55Y-8.89
X209.55Y-24.13
X212.09Y-8.89
X212.09Y-24.13
X214.63Y-8.89
X214.63Y-24.13
X217.17Y-8.89
X217.17Y-24.13
X219.71Y-8.89
X219.71Y-24.13
X222.25Y-8.89
X222.25Y-24.13
X224.79Y-8.89
X224.79Y-24.13
X227.33Y-8.89
X227.33Y-24.13
X229.87Y-8.89
X229.87Y-24.13
X232.41Y-8.89
X232.41Y-24.13
X234.95Y-8.89
X234.95Y-24.13
X237.49Y-8.89
X237.49Y-24.13
X240.03Y-8.89
X240.03Y-24.13
X160.02Y-33.02
X160.02Y-35.52
X121.92Y-31.75
X121.92Y-34.25
X52.07Y-36.83
X54.57Y-36.83
T4
X237.49Y-73.66
X237.49Y-76.2
X252.73Y-73.66
X252.73Y-76.2
X127.0Y-73.66
X127.0Y-76.2
X44.45Y-115.57
X44.45Y-118.11
X20.32Y-73.66
X20.32Y-76.2
X111.76Y-73.66
X111.76Y-76.2
X35.56Y-73.66
X35.56Y-76.2
X29.21Y-115.57
X29.21Y-118.11
X69.85Y-48.26
X69.85Y-50.8
X25.4Y-7.62
X25.4Y-10.16
X50.8Y-73.66
X50.8Y-76.2
X120.65Y-115.57
X120.65Y-118.11
X161.29Y-73.66
X161.29Y-76.2
X13.97Y-115.57
X13.97Y-118.11
X66.04Y-73.66
X66.04Y-76.2
X90.17Y-115.57
X90.17Y-118.11
X176.53Y-73.66
X176.53Y-76.2
X81.28Y-73.66
X81.28Y-76.2
X191.77Y-73.66
X191.77Y-76.2
X105.41Y-115.57
X105.41Y-118.11
X146.05Y-73.66
X146.05Y-76.2
X74.93Y-115.57
X74.93Y-118.11
X96.52Y-73.66
X96.52Y-76.2
X59.69Y-115.57
X59.69Y-118.11
X207.01Y-73.66
X207.01Y-76.2
X69.85Y-27.94
X69.85Y-30.48
X222.25Y-73.66
X222.25Y-76.2
T5
X14.51Y-8.93
X14.51Y-11.43
X16.51Y-8.93
X16.51Y-11.43
T6
X85.09Y-40.64
X85.09Y-43.18
X85.09Y-45.72
X134.62Y-5.08
X137.16Y-5.08
X139.7Y-5.08
X142.24Y-5.08
X144.78Y-5.08
X147.32Y-5.08
X149.86Y-5.08
X152.4Y-5.08
X196.85Y-3.81
X196.85Y-6.35
X196.85Y-8.89
X165.1Y-5.08
X167.64Y-5.08
X170.18Y-5.08
X172.72Y-5.08
X175.26Y-5.08
X177.8Y-5.08
X180.34Y-5.08
X182.88Y-5.08
X36.83Y-5.08
X36.83Y-7.62
X36.83Y-10.16
X110.49Y-5.08
X113.03Y-5.08
X115.57Y-5.08
X118.11Y-5.08
X120.65Y-5.08
X123.19Y-5.08
X125.73Y-5.08
X128.27Y-5.08
X73.66Y-5.08
X76.2Y-5.08
X78.74Y-5.08
X81.28Y-5.08
X43.18Y-5.08
X43.18Y-7.62
X43.18Y-10.16
T7
X15.24Y-25.4
X15.24Y-27.94
T8
X111.35Y-84.2
X111.35Y-88.9
X111.35Y-93.6
X240.89Y-126.11
X240.89Y-130.81
X240.89Y-135.51
X176.12Y-84.2
X176.12Y-88.9
X176.12Y-93.6
X13.56Y-126.11
X13.56Y-130.81
X13.56Y-135.51
X96.11Y-84.2
X96.11Y-88.9
X96.11Y-93.6
X44.04Y-126.11
X44.04Y-130.81
X44.04Y-135.51
X120.24Y-126.11
X120.24Y-130.81
X120.24Y-135.51
X159.61Y-126.11
X159.61Y-130.81
X159.61Y-135.51
X28.8Y-126.11
X28.8Y-130.81
X28.8Y-135.51
X173.58Y-126.11
X173.58Y-130.81
X173.58Y-135.51
X221.84Y-84.2
X221.84Y-88.9
X221.84Y-93.6
X191.36Y-84.2
X191.36Y-88.9
X191.36Y-93.6
X89.76Y-126.11
X89.76Y-130.81
X89.76Y-135.51
X11.02Y-44.83
X11.02Y-49.53
X11.02Y-54.23
X220.57Y-126.11
X220.57Y-130.81
X220.57Y-135.51
X59.28Y-126.11
X59.28Y-130.81
X59.28Y-135.51
X190.09Y-126.11
X190.09Y-130.81
X190.09Y-135.51
X65.63Y-84.2
X65.63Y-88.9
X65.63Y-93.6
X237.08Y-84.2
X237.08Y-88.9
X237.08Y-93.6
X252.32Y-84.2
X252.32Y-88.9
X252.32Y-93.6
X50.39Y-84.2
X50.39Y-88.9
X50.39Y-93.6
X19.91Y-84.2
X19.91Y-88.9
X19.91Y-93.6
X105.0Y-126.11
X105.0Y-130.81
X105.0Y-135.51
X205.33Y-126.11
X205.33Y-130.81
X205.33Y-135.51
X80.87Y-84.2
X80.87Y-88.9
X80.87Y-93.6
X35.15Y-84.2
X35.15Y-88.9
X35.15Y-93.6
X126.59Y-84.2
X126.59Y-88.9
X126.59Y-93.6
X206.6Y-84.2
X206.6Y-88.9
X206.6Y-93.6
X74.52Y-126.11
X74.52Y-130.81
X74.52Y-135.51
X145.64Y-84.2
X145.64Y-88.9
X145.64Y-93.6
X160.88Y-84.2
X160.88Y-88.9
X160.88Y-93.6
X145.64Y-126.11
X145.64Y-130.81
X145.64Y-135.51
T9
X11.65Y-4.18
X11.65Y-16.18
T10
X5.08Y-64.77
X5.08Y-143.51
X254.0Y-143.51
X135.89Y-97.79
X55.88Y-6.35
X254.0Y-6.35
T0
M30
