M48
; DRILL file {KiCad 5.1.6-c6e7f7d~87~ubuntu16.04.1} date Sat Jan 23 18:35:17 2021
; FORMAT={-:-/ absolute / metric / decimal}
; #@! TF.CreationDate,2021-01-23T18:35:17-05:00
; #@! TF.GenerationSoftware,Kicad,Pcbnew,5.1.6-c6e7f7d~87~ubuntu16.04.1
FMAT,2
METRIC
T1C0.800
T2C1.000
%
G90
G05
T1
X57.15Y-29.21
X57.15Y-34.21
X11.43Y-21.59
X50.8Y-22.86
X50.8Y-27.74
X57.15Y-19.13
X57.15Y-24.13
X3.81Y-21.59
X3.81Y-29.21
X8.89Y-21.59
X8.89Y-29.21
X11.43Y-29.21
X13.97Y-21.59
X13.97Y-29.21
X16.51Y-21.59
X16.51Y-29.21
X19.05Y-21.59
X19.05Y-29.21
X21.59Y-21.59
X21.59Y-29.21
X24.13Y-21.59
X24.13Y-29.21
X26.67Y-21.59
X26.67Y-29.21
X29.21Y-21.59
X29.21Y-29.21
X31.75Y-21.59
X31.75Y-29.21
X34.29Y-21.59
X34.29Y-29.21
X36.83Y-21.59
X36.83Y-29.21
X39.37Y-21.59
X39.37Y-29.21
X41.91Y-21.59
X41.91Y-29.21
T2
X13.97Y-5.08
X16.51Y-5.08
X19.05Y-5.08
X21.59Y-5.08
X24.13Y-5.08
X26.67Y-5.08
X29.21Y-5.08
X31.75Y-5.08
X34.29Y-5.08
X36.83Y-5.08
X39.37Y-5.08
X41.91Y-5.08
X13.97Y-10.16
X16.51Y-10.16
X19.05Y-10.16
X21.59Y-10.16
X24.13Y-10.16
X26.67Y-10.16
X29.21Y-10.16
X31.75Y-10.16
X34.29Y-10.16
X36.83Y-10.16
X39.37Y-10.16
X41.91Y-10.16
X5.08Y-45.72
X7.62Y-45.72
X10.16Y-45.72
X12.7Y-45.72
X15.24Y-45.72
X17.78Y-45.72
X20.32Y-45.72
X22.86Y-45.72
X25.4Y-45.72
X27.94Y-45.72
X30.48Y-45.72
X33.02Y-45.72
X35.56Y-45.72
X38.1Y-45.72
X40.64Y-45.72
X43.18Y-45.72
T0
M30
