%TF.GenerationSoftware,KiCad,Pcbnew,5.1.6-c6e7f7d~87~ubuntu16.04.1*%
%TF.CreationDate,2022-03-08T12:50:46-05:00*%
%TF.ProjectId,arduinovideo,61726475-696e-46f7-9669-64656f2e6b69,rev?*%
%TF.SameCoordinates,Original*%
%TF.FileFunction,Legend,Top*%
%TF.FilePolarity,Positive*%
%FSLAX46Y46*%
G04 Gerber Fmt 4.6, Leading zero omitted, Abs format (unit mm)*
G04 Created by KiCad (PCBNEW 5.1.6-c6e7f7d~87~ubuntu16.04.1) date 2022-03-08 12:50:46*
%MOMM*%
%LPD*%
G01*
G04 APERTURE LIST*
%ADD10C,0.120000*%
%ADD11C,0.150000*%
G04 APERTURE END LIST*
D10*
%TO.C,Y1*%
X48275000Y-22175000D02*
X48275000Y-28425000D01*
X53325000Y-22175000D02*
X53325000Y-28425000D01*
X48275000Y-28425000D02*
G75*
G03*
X53325000Y-28425000I2525000J0D01*
G01*
X48275000Y-22175000D02*
G75*
G02*
X53325000Y-22175000I2525000J0D01*
G01*
%TO.C,U1*%
X7560000Y-22750000D02*
X7560000Y-24400000D01*
X43240000Y-22750000D02*
X7560000Y-22750000D01*
X43240000Y-28050000D02*
X43240000Y-22750000D01*
X7560000Y-28050000D02*
X43240000Y-28050000D01*
X7560000Y-26400000D02*
X7560000Y-28050000D01*
X7560000Y-24400000D02*
G75*
G02*
X7560000Y-26400000I0J-1000000D01*
G01*
%TO.C,R1*%
X5180000Y-22130000D02*
X4850000Y-22130000D01*
X5180000Y-28670000D02*
X5180000Y-22130000D01*
X4850000Y-28670000D02*
X5180000Y-28670000D01*
X2440000Y-22130000D02*
X2770000Y-22130000D01*
X2440000Y-28670000D02*
X2440000Y-22130000D01*
X2770000Y-28670000D02*
X2440000Y-28670000D01*
%TO.C,J3*%
X44510000Y-44390000D02*
X44510000Y-45720000D01*
X43180000Y-44390000D02*
X44510000Y-44390000D01*
X41910000Y-44390000D02*
X41910000Y-47050000D01*
X41910000Y-47050000D02*
X3750000Y-47050000D01*
X41910000Y-44390000D02*
X3750000Y-44390000D01*
X3750000Y-44390000D02*
X3750000Y-47050000D01*
%TO.C,J2*%
X43240000Y-8830000D02*
X43240000Y-10160000D01*
X41910000Y-8830000D02*
X43240000Y-8830000D01*
X40640000Y-8830000D02*
X40640000Y-11490000D01*
X40640000Y-11490000D02*
X12640000Y-11490000D01*
X40640000Y-8830000D02*
X12640000Y-8830000D01*
X12640000Y-8830000D02*
X12640000Y-11490000D01*
%TO.C,J1*%
X43240000Y-3750000D02*
X43240000Y-5080000D01*
X41910000Y-3750000D02*
X43240000Y-3750000D01*
X40640000Y-3750000D02*
X40640000Y-6410000D01*
X40640000Y-6410000D02*
X12640000Y-6410000D01*
X40640000Y-3750000D02*
X12640000Y-3750000D01*
X12640000Y-3750000D02*
X12640000Y-6410000D01*
%TO.C,C2*%
X56095000Y-34180000D02*
X55780000Y-34180000D01*
X58520000Y-34180000D02*
X58205000Y-34180000D01*
X56095000Y-29240000D02*
X55780000Y-29240000D01*
X58520000Y-29240000D02*
X58205000Y-29240000D01*
X55780000Y-29240000D02*
X55780000Y-34180000D01*
X58520000Y-29240000D02*
X58520000Y-34180000D01*
%TO.C,C1*%
X58205000Y-19160000D02*
X58520000Y-19160000D01*
X55780000Y-19160000D02*
X56095000Y-19160000D01*
X58205000Y-24100000D02*
X58520000Y-24100000D01*
X55780000Y-24100000D02*
X56095000Y-24100000D01*
X58520000Y-24100000D02*
X58520000Y-19160000D01*
X55780000Y-24100000D02*
X55780000Y-19160000D01*
%TO.C,Y1*%
D11*
X54301190Y-25776190D02*
X54777380Y-25776190D01*
X53777380Y-26109523D02*
X54301190Y-25776190D01*
X53777380Y-25442857D01*
X54777380Y-24585714D02*
X54777380Y-25157142D01*
X54777380Y-24871428D02*
X53777380Y-24871428D01*
X53920238Y-24966666D01*
X54015476Y-25061904D01*
X54063095Y-25157142D01*
%TO.C,U1*%
X6012380Y-26161904D02*
X6821904Y-26161904D01*
X6917142Y-26114285D01*
X6964761Y-26066666D01*
X7012380Y-25971428D01*
X7012380Y-25780952D01*
X6964761Y-25685714D01*
X6917142Y-25638095D01*
X6821904Y-25590476D01*
X6012380Y-25590476D01*
X7012380Y-24590476D02*
X7012380Y-25161904D01*
X7012380Y-24876190D02*
X6012380Y-24876190D01*
X6155238Y-24971428D01*
X6250476Y-25066666D01*
X6298095Y-25161904D01*
%TO.C,R1*%
X1892380Y-25566666D02*
X1416190Y-25900000D01*
X1892380Y-26138095D02*
X892380Y-26138095D01*
X892380Y-25757142D01*
X940000Y-25661904D01*
X987619Y-25614285D01*
X1082857Y-25566666D01*
X1225714Y-25566666D01*
X1320952Y-25614285D01*
X1368571Y-25661904D01*
X1416190Y-25757142D01*
X1416190Y-26138095D01*
X1892380Y-24614285D02*
X1892380Y-25185714D01*
X1892380Y-24900000D02*
X892380Y-24900000D01*
X1035238Y-24995238D01*
X1130476Y-25090476D01*
X1178095Y-25185714D01*
%TO.C,J3*%
X44962380Y-46053333D02*
X45676666Y-46053333D01*
X45819523Y-46100952D01*
X45914761Y-46196190D01*
X45962380Y-46339047D01*
X45962380Y-46434285D01*
X44962380Y-45672380D02*
X44962380Y-45053333D01*
X45343333Y-45386666D01*
X45343333Y-45243809D01*
X45390952Y-45148571D01*
X45438571Y-45100952D01*
X45533809Y-45053333D01*
X45771904Y-45053333D01*
X45867142Y-45100952D01*
X45914761Y-45148571D01*
X45962380Y-45243809D01*
X45962380Y-45529523D01*
X45914761Y-45624761D01*
X45867142Y-45672380D01*
%TO.C,J2*%
X43692380Y-10493333D02*
X44406666Y-10493333D01*
X44549523Y-10540952D01*
X44644761Y-10636190D01*
X44692380Y-10779047D01*
X44692380Y-10874285D01*
X43787619Y-10064761D02*
X43740000Y-10017142D01*
X43692380Y-9921904D01*
X43692380Y-9683809D01*
X43740000Y-9588571D01*
X43787619Y-9540952D01*
X43882857Y-9493333D01*
X43978095Y-9493333D01*
X44120952Y-9540952D01*
X44692380Y-10112380D01*
X44692380Y-9493333D01*
%TO.C,J1*%
X43692380Y-5413333D02*
X44406666Y-5413333D01*
X44549523Y-5460952D01*
X44644761Y-5556190D01*
X44692380Y-5699047D01*
X44692380Y-5794285D01*
X44692380Y-4413333D02*
X44692380Y-4984761D01*
X44692380Y-4699047D02*
X43692380Y-4699047D01*
X43835238Y-4794285D01*
X43930476Y-4889523D01*
X43978095Y-4984761D01*
%TO.C,C2*%
X60007142Y-31876666D02*
X60054761Y-31924285D01*
X60102380Y-32067142D01*
X60102380Y-32162380D01*
X60054761Y-32305238D01*
X59959523Y-32400476D01*
X59864285Y-32448095D01*
X59673809Y-32495714D01*
X59530952Y-32495714D01*
X59340476Y-32448095D01*
X59245238Y-32400476D01*
X59150000Y-32305238D01*
X59102380Y-32162380D01*
X59102380Y-32067142D01*
X59150000Y-31924285D01*
X59197619Y-31876666D01*
X59197619Y-31495714D02*
X59150000Y-31448095D01*
X59102380Y-31352857D01*
X59102380Y-31114761D01*
X59150000Y-31019523D01*
X59197619Y-30971904D01*
X59292857Y-30924285D01*
X59388095Y-30924285D01*
X59530952Y-30971904D01*
X60102380Y-31543333D01*
X60102380Y-30924285D01*
%TO.C,C1*%
X55007142Y-21796666D02*
X55054761Y-21844285D01*
X55102380Y-21987142D01*
X55102380Y-22082380D01*
X55054761Y-22225238D01*
X54959523Y-22320476D01*
X54864285Y-22368095D01*
X54673809Y-22415714D01*
X54530952Y-22415714D01*
X54340476Y-22368095D01*
X54245238Y-22320476D01*
X54150000Y-22225238D01*
X54102380Y-22082380D01*
X54102380Y-21987142D01*
X54150000Y-21844285D01*
X54197619Y-21796666D01*
X55102380Y-20844285D02*
X55102380Y-21415714D01*
X55102380Y-21130000D02*
X54102380Y-21130000D01*
X54245238Y-21225238D01*
X54340476Y-21320476D01*
X54388095Y-21415714D01*
%TD*%
M02*
