M48
; DRILL file {KiCad 5.1.6-c6e7f7d~87~ubuntu16.04.1} date Sat Jan 23 14:48:55 2021
; FORMAT={-:-/ absolute / metric / decimal}
; #@! TF.CreationDate,2021-01-23T14:48:55-05:00
; #@! TF.GenerationSoftware,Kicad,Pcbnew,5.1.6-c6e7f7d~87~ubuntu16.04.1
FMAT,2
METRIC
T1C0.400
T2C0.700
T3C0.800
T4C0.900
T5C1.000
T6C2.700
%
G90
G05
T1
X41.003Y-17.11
X60.919Y-49.173
X104.747Y-19.273
X106.074Y-17.166
T2
X120.65Y-50.8
X125.73Y-50.8
X3.81Y-57.15
X8.89Y-57.15
X100.33Y-50.8
X105.41Y-50.8
X128.27Y-50.8
X133.35Y-50.8
X92.71Y-50.8
X97.79Y-50.8
T3
X21.59Y-50.8
X21.59Y-53.3
X3.81Y-21.59
X3.81Y-24.13
X3.81Y-26.67
X3.81Y-29.21
X3.81Y-31.75
X3.81Y-34.29
X3.81Y-36.83
X3.81Y-39.37
X11.43Y-21.59
X11.43Y-24.13
X11.43Y-26.67
X11.43Y-29.21
X11.43Y-31.75
X11.43Y-34.29
X11.43Y-36.83
X11.43Y-39.37
X49.53Y-40.64
X52.07Y-40.64
X54.61Y-40.64
X57.15Y-40.64
X59.69Y-40.64
X62.23Y-40.64
X64.77Y-40.64
X67.31Y-40.64
X69.85Y-40.64
X95.25Y-13.97
X95.25Y-21.59
X97.79Y-13.97
X97.79Y-21.59
X100.33Y-13.97
X100.33Y-21.59
X102.87Y-13.97
X102.87Y-21.59
X105.41Y-13.97
X105.41Y-21.59
X107.95Y-13.97
X107.95Y-21.59
X110.49Y-13.97
X110.49Y-21.59
X113.03Y-13.97
X113.03Y-21.59
X115.57Y-13.97
X115.57Y-21.59
X118.11Y-13.97
X118.11Y-21.59
X60.96Y-15.24
X60.96Y-22.86
X63.5Y-15.24
X63.5Y-22.86
X66.04Y-15.24
X66.04Y-22.86
X68.58Y-15.24
X68.58Y-22.86
X71.12Y-15.24
X71.12Y-22.86
X73.66Y-15.24
X73.66Y-22.86
X76.2Y-15.24
X76.2Y-22.86
X78.74Y-15.24
X78.74Y-22.86
X57.15Y-13.97
X57.15Y-16.47
X27.94Y-13.97
X27.94Y-16.47
X31.75Y-15.24
X31.75Y-22.86
X34.29Y-15.24
X34.29Y-22.86
X36.83Y-15.24
X36.83Y-22.86
X39.37Y-15.24
X39.37Y-22.86
X41.91Y-15.24
X41.91Y-22.86
X44.45Y-15.24
X44.45Y-22.86
X46.99Y-15.24
X46.99Y-22.86
X49.53Y-15.24
X49.53Y-22.86
X106.68Y-76.2
X109.22Y-76.2
X111.76Y-76.2
X114.3Y-76.2
X116.84Y-76.2
X119.38Y-76.2
X121.92Y-76.2
X124.46Y-76.2
X127.0Y-76.2
X25.4Y-49.53
X25.4Y-57.15
X27.94Y-49.53
X27.94Y-57.15
X30.48Y-49.53
X30.48Y-57.15
X33.02Y-49.53
X33.02Y-57.15
X35.56Y-49.53
X35.56Y-57.15
X38.1Y-49.53
X38.1Y-57.15
X40.64Y-49.53
X40.64Y-57.15
X43.18Y-49.53
X43.18Y-57.15
X45.72Y-49.53
X45.72Y-57.15
X48.26Y-49.53
X48.26Y-57.15
X91.44Y-15.24
X91.44Y-17.74
T4
X102.87Y-44.45
X102.87Y-46.99
X130.81Y-44.45
X130.81Y-46.99
X119.38Y-66.04
X119.38Y-68.58
X60.96Y-31.75
X60.96Y-34.29
X83.82Y-31.75
X83.82Y-34.29
X45.72Y-31.75
X45.72Y-34.29
X111.76Y-66.04
X111.76Y-68.58
X6.35Y-49.53
X6.35Y-52.07
X142.24Y-66.04
X142.24Y-68.58
X95.25Y-44.45
X95.25Y-46.99
X53.34Y-31.75
X53.34Y-34.29
X76.2Y-31.75
X76.2Y-34.29
X104.14Y-66.04
X104.14Y-68.58
X30.48Y-31.75
X30.48Y-34.29
X96.52Y-66.04
X96.52Y-68.58
X123.19Y-44.45
X123.19Y-46.99
X38.1Y-31.75
X38.1Y-34.29
X134.62Y-66.04
X134.62Y-68.58
X127.0Y-66.04
X127.0Y-68.58
X68.58Y-31.75
X68.58Y-34.29
X88.9Y-66.04
X88.9Y-68.58
T5
X11.43Y-2.54
X11.43Y-5.08
X11.43Y-7.62
X146.05Y-40.64
X146.05Y-43.18
X146.05Y-45.72
X146.05Y-48.26
X144.78Y-10.16
X144.78Y-12.7
X144.78Y-15.24
X144.78Y-17.78
X144.78Y-20.32
X144.78Y-22.86
X144.78Y-25.4
X144.78Y-27.94
X67.31Y-63.5
X69.85Y-63.5
X72.39Y-63.5
X104.14Y-87.63
X106.68Y-87.63
X109.22Y-87.63
X111.76Y-87.63
X114.3Y-87.63
X116.84Y-87.63
X119.38Y-87.63
X121.92Y-87.63
X124.46Y-87.63
X127.0Y-87.63
X129.54Y-87.63
X135.89Y-10.16
X135.89Y-12.7
X135.89Y-15.24
X135.89Y-17.78
X135.89Y-20.32
X135.89Y-22.86
X135.89Y-25.4
X135.89Y-27.94
X39.37Y-3.81
X41.91Y-3.81
X44.45Y-3.81
X46.99Y-3.81
X49.53Y-3.81
X52.07Y-3.81
X54.61Y-3.81
X57.15Y-3.81
X59.69Y-3.81
X62.23Y-3.81
X64.77Y-3.81
X19.05Y-2.54
X19.05Y-5.08
X19.05Y-7.62
X5.08Y-73.66
X7.62Y-73.66
X10.16Y-73.66
X12.7Y-73.66
X15.24Y-73.66
X17.78Y-73.66
X20.32Y-73.66
X22.86Y-73.66
X25.4Y-73.66
X27.94Y-73.66
X30.48Y-73.66
X33.02Y-73.66
X35.56Y-73.66
X38.1Y-73.66
X40.64Y-73.66
X43.18Y-73.66
X104.14Y-96.52
X106.68Y-96.52
X109.22Y-96.52
X111.76Y-96.52
X114.3Y-96.52
X116.84Y-96.52
X119.38Y-96.52
X121.92Y-96.52
X124.46Y-96.52
X127.0Y-96.52
X129.54Y-96.52
T6
X146.05Y-3.81
X146.05Y-93.98
X3.81Y-3.81
X3.81Y-95.25
T0
M30
