%TF.GenerationSoftware,KiCad,Pcbnew,5.1.6-c6e7f7d~87~ubuntu16.04.1*%
%TF.CreationDate,2021-01-23T14:48:53-05:00*%
%TF.ProjectId,riscy_io,72697363-795f-4696-9f2e-6b696361645f,rev?*%
%TF.SameCoordinates,Original*%
%TF.FileFunction,Soldermask,Bot*%
%TF.FilePolarity,Negative*%
%FSLAX46Y46*%
G04 Gerber Fmt 4.6, Leading zero omitted, Abs format (unit mm)*
G04 Created by KiCad (PCBNEW 5.1.6-c6e7f7d~87~ubuntu16.04.1) date 2021-01-23 14:48:53*
%MOMM*%
%LPD*%
G01*
G04 APERTURE LIST*
%ADD10O,1.800000X1.800000*%
%ADD11R,1.800000X1.800000*%
%ADD12C,2.800000*%
%ADD13O,1.700000X1.700000*%
%ADD14R,1.700000X1.700000*%
%ADD15C,1.900000*%
%ADD16O,1.500000X1.500000*%
%ADD17C,1.500000*%
%ADD18R,1.900000X1.900000*%
%ADD19C,1.700000*%
G04 APERTURE END LIST*
D10*
%TO.C,J10*%
X104140000Y-96520000D03*
X106680000Y-96520000D03*
X109220000Y-96520000D03*
X111760000Y-96520000D03*
X114300000Y-96520000D03*
X116840000Y-96520000D03*
X119380000Y-96520000D03*
X121920000Y-96520000D03*
X124460000Y-96520000D03*
X127000000Y-96520000D03*
D11*
X129540000Y-96520000D03*
%TD*%
D12*
%TO.C,REF4*%
X3810000Y-3810000D03*
%TD*%
%TO.C,REF3*%
X3810000Y-95250000D03*
%TD*%
%TO.C,REF2*%
X146050000Y-93980000D03*
%TD*%
%TO.C,REF1*%
X146050000Y-3810000D03*
%TD*%
D13*
%TO.C,U2*%
X60960000Y-15240000D03*
X78740000Y-22860000D03*
X63500000Y-15240000D03*
X76200000Y-22860000D03*
X66040000Y-15240000D03*
X73660000Y-22860000D03*
X68580000Y-15240000D03*
X71120000Y-22860000D03*
X71120000Y-15240000D03*
X68580000Y-22860000D03*
X73660000Y-15240000D03*
X66040000Y-22860000D03*
X76200000Y-15240000D03*
X63500000Y-22860000D03*
X78740000Y-15240000D03*
D14*
X60960000Y-22860000D03*
%TD*%
D13*
%TO.C,U1*%
X31750000Y-15240000D03*
X49530000Y-22860000D03*
X34290000Y-15240000D03*
X46990000Y-22860000D03*
X36830000Y-15240000D03*
X44450000Y-22860000D03*
X39370000Y-15240000D03*
X41910000Y-22860000D03*
X41910000Y-15240000D03*
X39370000Y-22860000D03*
X44450000Y-15240000D03*
X36830000Y-22860000D03*
X46990000Y-15240000D03*
X34290000Y-22860000D03*
X49530000Y-15240000D03*
D14*
X31750000Y-22860000D03*
%TD*%
D10*
%TO.C,J9*%
X39370000Y-3810000D03*
X41910000Y-3810000D03*
X44450000Y-3810000D03*
X46990000Y-3810000D03*
X49530000Y-3810000D03*
X52070000Y-3810000D03*
X54610000Y-3810000D03*
X57150000Y-3810000D03*
X59690000Y-3810000D03*
X62230000Y-3810000D03*
D11*
X64770000Y-3810000D03*
%TD*%
D13*
%TO.C,U4*%
X25400000Y-49530000D03*
X48260000Y-57150000D03*
X27940000Y-49530000D03*
X45720000Y-57150000D03*
X30480000Y-49530000D03*
X43180000Y-57150000D03*
X33020000Y-49530000D03*
X40640000Y-57150000D03*
X35560000Y-49530000D03*
X38100000Y-57150000D03*
X38100000Y-49530000D03*
X35560000Y-57150000D03*
X40640000Y-49530000D03*
X33020000Y-57150000D03*
X43180000Y-49530000D03*
X30480000Y-57150000D03*
X45720000Y-49530000D03*
X27940000Y-57150000D03*
X48260000Y-49530000D03*
D14*
X25400000Y-57150000D03*
%TD*%
D13*
%TO.C,U3*%
X95250000Y-13970000D03*
X118110000Y-21590000D03*
X97790000Y-13970000D03*
X115570000Y-21590000D03*
X100330000Y-13970000D03*
X113030000Y-21590000D03*
X102870000Y-13970000D03*
X110490000Y-21590000D03*
X105410000Y-13970000D03*
X107950000Y-21590000D03*
X107950000Y-13970000D03*
X105410000Y-21590000D03*
X110490000Y-13970000D03*
X102870000Y-21590000D03*
X113030000Y-13970000D03*
X100330000Y-21590000D03*
X115570000Y-13970000D03*
X97790000Y-21590000D03*
X118110000Y-13970000D03*
D14*
X95250000Y-21590000D03*
%TD*%
D15*
%TO.C,RV1*%
X72390000Y-63500000D03*
X69850000Y-63500000D03*
X67310000Y-63500000D03*
%TD*%
D13*
%TO.C,RN2*%
X127000000Y-76200000D03*
X124460000Y-76200000D03*
X121920000Y-76200000D03*
X119380000Y-76200000D03*
X116840000Y-76200000D03*
X114300000Y-76200000D03*
X111760000Y-76200000D03*
X109220000Y-76200000D03*
D14*
X106680000Y-76200000D03*
%TD*%
D13*
%TO.C,RN1*%
X69850000Y-40640000D03*
X67310000Y-40640000D03*
X64770000Y-40640000D03*
X62230000Y-40640000D03*
X59690000Y-40640000D03*
X57150000Y-40640000D03*
X54610000Y-40640000D03*
X52070000Y-40640000D03*
D14*
X49530000Y-40640000D03*
%TD*%
D16*
%TO.C,R5*%
X8890000Y-57150000D03*
D17*
X3810000Y-57150000D03*
%TD*%
D16*
%TO.C,R4*%
X133350000Y-50800000D03*
D17*
X128270000Y-50800000D03*
%TD*%
D16*
%TO.C,R3*%
X125730000Y-50800000D03*
D17*
X120650000Y-50800000D03*
%TD*%
D16*
%TO.C,R2*%
X105410000Y-50800000D03*
D17*
X100330000Y-50800000D03*
%TD*%
D16*
%TO.C,R1*%
X97790000Y-50800000D03*
D17*
X92710000Y-50800000D03*
%TD*%
D13*
%TO.C,J8*%
X11430000Y-21590000D03*
X3810000Y-39370000D03*
X11430000Y-24130000D03*
X3810000Y-36830000D03*
X11430000Y-26670000D03*
X3810000Y-34290000D03*
X11430000Y-29210000D03*
X3810000Y-31750000D03*
X11430000Y-31750000D03*
X3810000Y-29210000D03*
X11430000Y-34290000D03*
X3810000Y-26670000D03*
X11430000Y-36830000D03*
X3810000Y-24130000D03*
X11430000Y-39370000D03*
D14*
X3810000Y-21590000D03*
%TD*%
D10*
%TO.C,J7*%
X146050000Y-48260000D03*
X146050000Y-45720000D03*
X146050000Y-43180000D03*
D11*
X146050000Y-40640000D03*
%TD*%
D10*
%TO.C,J6*%
X43180000Y-73660000D03*
X40640000Y-73660000D03*
X38100000Y-73660000D03*
X35560000Y-73660000D03*
X33020000Y-73660000D03*
X30480000Y-73660000D03*
X27940000Y-73660000D03*
X25400000Y-73660000D03*
X22860000Y-73660000D03*
X20320000Y-73660000D03*
X17780000Y-73660000D03*
X15240000Y-73660000D03*
X12700000Y-73660000D03*
X10160000Y-73660000D03*
X7620000Y-73660000D03*
D11*
X5080000Y-73660000D03*
%TD*%
D10*
%TO.C,J5*%
X104140000Y-87630000D03*
X106680000Y-87630000D03*
X109220000Y-87630000D03*
X111760000Y-87630000D03*
X114300000Y-87630000D03*
X116840000Y-87630000D03*
X119380000Y-87630000D03*
X121920000Y-87630000D03*
X124460000Y-87630000D03*
X127000000Y-87630000D03*
D11*
X129540000Y-87630000D03*
%TD*%
D10*
%TO.C,J4*%
X135890000Y-27940000D03*
X135890000Y-25400000D03*
X135890000Y-22860000D03*
X135890000Y-20320000D03*
X135890000Y-17780000D03*
X135890000Y-15240000D03*
X135890000Y-12700000D03*
D11*
X135890000Y-10160000D03*
%TD*%
D10*
%TO.C,J3*%
X144780000Y-27940000D03*
X144780000Y-25400000D03*
X144780000Y-22860000D03*
X144780000Y-20320000D03*
X144780000Y-17780000D03*
X144780000Y-15240000D03*
X144780000Y-12700000D03*
D11*
X144780000Y-10160000D03*
%TD*%
D10*
%TO.C,J2*%
X19050000Y-7620000D03*
X19050000Y-5080000D03*
D11*
X19050000Y-2540000D03*
%TD*%
D10*
%TO.C,J1*%
X11430000Y-7620000D03*
X11430000Y-5080000D03*
D11*
X11430000Y-2540000D03*
%TD*%
D15*
%TO.C,D21*%
X6350000Y-49530000D03*
D18*
X6350000Y-52070000D03*
%TD*%
D15*
%TO.C,D20*%
X130810000Y-44450000D03*
D18*
X130810000Y-46990000D03*
%TD*%
D15*
%TO.C,D19*%
X123190000Y-44450000D03*
D18*
X123190000Y-46990000D03*
%TD*%
D15*
%TO.C,D18*%
X102870000Y-44450000D03*
D18*
X102870000Y-46990000D03*
%TD*%
D15*
%TO.C,D17*%
X95250000Y-44450000D03*
D18*
X95250000Y-46990000D03*
%TD*%
D15*
%TO.C,D16*%
X142240000Y-66040000D03*
D18*
X142240000Y-68580000D03*
%TD*%
D15*
%TO.C,D15*%
X134620000Y-66040000D03*
D18*
X134620000Y-68580000D03*
%TD*%
D15*
%TO.C,D14*%
X127000000Y-66040000D03*
D18*
X127000000Y-68580000D03*
%TD*%
D15*
%TO.C,D13*%
X119380000Y-66040000D03*
D18*
X119380000Y-68580000D03*
%TD*%
D15*
%TO.C,D12*%
X111760000Y-66040000D03*
D18*
X111760000Y-68580000D03*
%TD*%
D15*
%TO.C,D11*%
X104140000Y-66040000D03*
D18*
X104140000Y-68580000D03*
%TD*%
D15*
%TO.C,D10*%
X96520000Y-66040000D03*
D18*
X96520000Y-68580000D03*
%TD*%
D15*
%TO.C,D9*%
X88900000Y-66040000D03*
D18*
X88900000Y-68580000D03*
%TD*%
D15*
%TO.C,D8*%
X83820000Y-31750000D03*
D18*
X83820000Y-34290000D03*
%TD*%
D15*
%TO.C,D7*%
X76200000Y-31750000D03*
D18*
X76200000Y-34290000D03*
%TD*%
D15*
%TO.C,D6*%
X68580000Y-31750000D03*
D18*
X68580000Y-34290000D03*
%TD*%
D15*
%TO.C,D5*%
X60960000Y-31750000D03*
D18*
X60960000Y-34290000D03*
%TD*%
D15*
%TO.C,D4*%
X53340000Y-31750000D03*
D18*
X53340000Y-34290000D03*
%TD*%
D15*
%TO.C,D3*%
X45720000Y-31750000D03*
D18*
X45720000Y-34290000D03*
%TD*%
D15*
%TO.C,D2*%
X38100000Y-31750000D03*
D18*
X38100000Y-34290000D03*
%TD*%
D15*
%TO.C,D1*%
X30480000Y-31750000D03*
D18*
X30480000Y-34290000D03*
%TD*%
D19*
%TO.C,C4*%
X21590000Y-53300000D03*
X21590000Y-50800000D03*
%TD*%
%TO.C,C3*%
X91440000Y-17740000D03*
X91440000Y-15240000D03*
%TD*%
%TO.C,C2*%
X57150000Y-16470000D03*
X57150000Y-13970000D03*
%TD*%
%TO.C,C1*%
X27940000Y-16470000D03*
X27940000Y-13970000D03*
%TD*%
M02*
