%TF.GenerationSoftware,KiCad,Pcbnew,5.1.6-c6e7f7d~87~ubuntu16.04.1*%
%TF.CreationDate,2021-01-23T14:48:53-05:00*%
%TF.ProjectId,riscy_io,72697363-795f-4696-9f2e-6b696361645f,rev?*%
%TF.SameCoordinates,Original*%
%TF.FileFunction,Legend,Top*%
%TF.FilePolarity,Positive*%
%FSLAX46Y46*%
G04 Gerber Fmt 4.6, Leading zero omitted, Abs format (unit mm)*
G04 Created by KiCad (PCBNEW 5.1.6-c6e7f7d~87~ubuntu16.04.1) date 2021-01-23 14:48:53*
%MOMM*%
%LPD*%
G01*
G04 APERTURE LIST*
%ADD10C,0.120000*%
%ADD11C,0.150000*%
G04 APERTURE END LIST*
D10*
%TO.C,J10*%
X102810000Y-95190000D02*
X102810000Y-97850000D01*
X128270000Y-95190000D02*
X102810000Y-95190000D01*
X128270000Y-97850000D02*
X102810000Y-97850000D01*
X128270000Y-95190000D02*
X128270000Y-97850000D01*
X129540000Y-95190000D02*
X130870000Y-95190000D01*
X130870000Y-95190000D02*
X130870000Y-96520000D01*
%TO.C,U2*%
X59630000Y-16400000D02*
X59630000Y-18050000D01*
X80070000Y-16400000D02*
X59630000Y-16400000D01*
X80070000Y-21700000D02*
X80070000Y-16400000D01*
X59630000Y-21700000D02*
X80070000Y-21700000D01*
X59630000Y-20050000D02*
X59630000Y-21700000D01*
X59630000Y-18050000D02*
G75*
G02*
X59630000Y-20050000I0J-1000000D01*
G01*
%TO.C,U1*%
X30420000Y-16400000D02*
X30420000Y-18050000D01*
X50860000Y-16400000D02*
X30420000Y-16400000D01*
X50860000Y-21700000D02*
X50860000Y-16400000D01*
X30420000Y-21700000D02*
X50860000Y-21700000D01*
X30420000Y-20050000D02*
X30420000Y-21700000D01*
X30420000Y-18050000D02*
G75*
G02*
X30420000Y-20050000I0J-1000000D01*
G01*
%TO.C,J9*%
X66100000Y-2480000D02*
X66100000Y-3810000D01*
X64770000Y-2480000D02*
X66100000Y-2480000D01*
X63500000Y-2480000D02*
X63500000Y-5140000D01*
X63500000Y-5140000D02*
X38040000Y-5140000D01*
X63500000Y-2480000D02*
X38040000Y-2480000D01*
X38040000Y-2480000D02*
X38040000Y-5140000D01*
%TO.C,U4*%
X24070000Y-54340000D02*
X24070000Y-55990000D01*
X24070000Y-55990000D02*
X49590000Y-55990000D01*
X49590000Y-55990000D02*
X49590000Y-50690000D01*
X49590000Y-50690000D02*
X24070000Y-50690000D01*
X24070000Y-50690000D02*
X24070000Y-52340000D01*
X24070000Y-52340000D02*
G75*
G02*
X24070000Y-54340000I0J-1000000D01*
G01*
%TO.C,U3*%
X93920000Y-18780000D02*
X93920000Y-20430000D01*
X93920000Y-20430000D02*
X119440000Y-20430000D01*
X119440000Y-20430000D02*
X119440000Y-15130000D01*
X119440000Y-15130000D02*
X93920000Y-15130000D01*
X93920000Y-15130000D02*
X93920000Y-16780000D01*
X93920000Y-16780000D02*
G75*
G02*
X93920000Y-18780000I0J-1000000D01*
G01*
%TO.C,RV1*%
X63480000Y-62870000D02*
X63480000Y-49930000D01*
X76220000Y-62870000D02*
X76220000Y-49930000D01*
X63480000Y-62870000D02*
X66155000Y-62870000D01*
X68465000Y-62870000D02*
X68695000Y-62870000D01*
X71006000Y-62870000D02*
X71235000Y-62870000D01*
X73545000Y-62870000D02*
X76220000Y-62870000D01*
X63480000Y-49930000D02*
X76220000Y-49930000D01*
%TO.C,RN2*%
X105240000Y-74800000D02*
X105240000Y-77600000D01*
X105240000Y-77600000D02*
X128440000Y-77600000D01*
X128440000Y-77600000D02*
X128440000Y-74800000D01*
X128440000Y-74800000D02*
X105240000Y-74800000D01*
X107950000Y-74800000D02*
X107950000Y-77600000D01*
%TO.C,RN1*%
X48090000Y-39240000D02*
X48090000Y-42040000D01*
X48090000Y-42040000D02*
X71290000Y-42040000D01*
X71290000Y-42040000D02*
X71290000Y-39240000D01*
X71290000Y-39240000D02*
X48090000Y-39240000D01*
X50800000Y-39240000D02*
X50800000Y-42040000D01*
%TO.C,R5*%
X4730000Y-57150000D02*
G75*
G03*
X4730000Y-57150000I-920000J0D01*
G01*
X4730000Y-57150000D02*
X7890000Y-57150000D01*
%TO.C,R4*%
X129190000Y-50800000D02*
G75*
G03*
X129190000Y-50800000I-920000J0D01*
G01*
X129190000Y-50800000D02*
X132350000Y-50800000D01*
%TO.C,R3*%
X121570000Y-50800000D02*
G75*
G03*
X121570000Y-50800000I-920000J0D01*
G01*
X121570000Y-50800000D02*
X124730000Y-50800000D01*
%TO.C,R2*%
X101250000Y-50800000D02*
G75*
G03*
X101250000Y-50800000I-920000J0D01*
G01*
X101250000Y-50800000D02*
X104410000Y-50800000D01*
%TO.C,R1*%
X93630000Y-50800000D02*
G75*
G03*
X93630000Y-50800000I-920000J0D01*
G01*
X93630000Y-50800000D02*
X96790000Y-50800000D01*
%TO.C,J8*%
X6620000Y-20260000D02*
X4970000Y-20260000D01*
X4970000Y-20260000D02*
X4970000Y-40700000D01*
X4970000Y-40700000D02*
X10270000Y-40700000D01*
X10270000Y-40700000D02*
X10270000Y-20260000D01*
X10270000Y-20260000D02*
X8620000Y-20260000D01*
X8620000Y-20260000D02*
G75*
G02*
X6620000Y-20260000I-1000000J0D01*
G01*
%TO.C,J7*%
X144720000Y-49590000D02*
X147380000Y-49590000D01*
X144720000Y-41910000D02*
X144720000Y-49590000D01*
X147380000Y-41910000D02*
X147380000Y-49590000D01*
X144720000Y-41910000D02*
X147380000Y-41910000D01*
X144720000Y-40640000D02*
X144720000Y-39310000D01*
X144720000Y-39310000D02*
X146050000Y-39310000D01*
%TO.C,J6*%
X44510000Y-74990000D02*
X44510000Y-72330000D01*
X6350000Y-74990000D02*
X44510000Y-74990000D01*
X6350000Y-72330000D02*
X44510000Y-72330000D01*
X6350000Y-74990000D02*
X6350000Y-72330000D01*
X5080000Y-74990000D02*
X3750000Y-74990000D01*
X3750000Y-74990000D02*
X3750000Y-73660000D01*
%TO.C,J5*%
X102810000Y-86300000D02*
X102810000Y-88960000D01*
X128270000Y-86300000D02*
X102810000Y-86300000D01*
X128270000Y-88960000D02*
X102810000Y-88960000D01*
X128270000Y-86300000D02*
X128270000Y-88960000D01*
X129540000Y-86300000D02*
X130870000Y-86300000D01*
X130870000Y-86300000D02*
X130870000Y-87630000D01*
%TO.C,J4*%
X134560000Y-29270000D02*
X137220000Y-29270000D01*
X134560000Y-11430000D02*
X134560000Y-29270000D01*
X137220000Y-11430000D02*
X137220000Y-29270000D01*
X134560000Y-11430000D02*
X137220000Y-11430000D01*
X134560000Y-10160000D02*
X134560000Y-8830000D01*
X134560000Y-8830000D02*
X135890000Y-8830000D01*
%TO.C,J3*%
X143450000Y-29270000D02*
X146110000Y-29270000D01*
X143450000Y-11430000D02*
X143450000Y-29270000D01*
X146110000Y-11430000D02*
X146110000Y-29270000D01*
X143450000Y-11430000D02*
X146110000Y-11430000D01*
X143450000Y-10160000D02*
X143450000Y-8830000D01*
X143450000Y-8830000D02*
X144780000Y-8830000D01*
%TO.C,J2*%
X17720000Y-8950000D02*
X20380000Y-8950000D01*
X17720000Y-3810000D02*
X17720000Y-8950000D01*
X20380000Y-3810000D02*
X20380000Y-8950000D01*
X17720000Y-3810000D02*
X20380000Y-3810000D01*
X17720000Y-2540000D02*
X17720000Y-1210000D01*
X17720000Y-1210000D02*
X19050000Y-1210000D01*
%TO.C,J1*%
X10100000Y-8950000D02*
X12760000Y-8950000D01*
X10100000Y-3810000D02*
X10100000Y-8950000D01*
X12760000Y-3810000D02*
X12760000Y-8950000D01*
X10100000Y-3810000D02*
X12760000Y-3810000D01*
X10100000Y-2540000D02*
X10100000Y-1210000D01*
X10100000Y-1210000D02*
X11430000Y-1210000D01*
%TO.C,D21*%
X8850000Y-50800000D02*
G75*
G03*
X8850000Y-50800000I-2500000J0D01*
G01*
X4805000Y-53360000D02*
X7895000Y-53360000D01*
X6349538Y-47810000D02*
G75*
G02*
X7894830Y-53360000I462J-2990000D01*
G01*
X6350462Y-47810000D02*
G75*
G03*
X4805170Y-53360000I-462J-2990000D01*
G01*
%TO.C,D20*%
X133310000Y-45720000D02*
G75*
G03*
X133310000Y-45720000I-2500000J0D01*
G01*
X129265000Y-48280000D02*
X132355000Y-48280000D01*
X130809538Y-42730000D02*
G75*
G02*
X132354830Y-48280000I462J-2990000D01*
G01*
X130810462Y-42730000D02*
G75*
G03*
X129265170Y-48280000I-462J-2990000D01*
G01*
%TO.C,D19*%
X125690000Y-45720000D02*
G75*
G03*
X125690000Y-45720000I-2500000J0D01*
G01*
X121645000Y-48280000D02*
X124735000Y-48280000D01*
X123189538Y-42730000D02*
G75*
G02*
X124734830Y-48280000I462J-2990000D01*
G01*
X123190462Y-42730000D02*
G75*
G03*
X121645170Y-48280000I-462J-2990000D01*
G01*
%TO.C,D18*%
X105370000Y-45720000D02*
G75*
G03*
X105370000Y-45720000I-2500000J0D01*
G01*
X101325000Y-48280000D02*
X104415000Y-48280000D01*
X102869538Y-42730000D02*
G75*
G02*
X104414830Y-48280000I462J-2990000D01*
G01*
X102870462Y-42730000D02*
G75*
G03*
X101325170Y-48280000I-462J-2990000D01*
G01*
%TO.C,D17*%
X97750000Y-45720000D02*
G75*
G03*
X97750000Y-45720000I-2500000J0D01*
G01*
X93705000Y-48280000D02*
X96795000Y-48280000D01*
X95249538Y-42730000D02*
G75*
G02*
X96794830Y-48280000I462J-2990000D01*
G01*
X95250462Y-42730000D02*
G75*
G03*
X93705170Y-48280000I-462J-2990000D01*
G01*
%TO.C,D16*%
X144740000Y-67310000D02*
G75*
G03*
X144740000Y-67310000I-2500000J0D01*
G01*
X140695000Y-69870000D02*
X143785000Y-69870000D01*
X142239538Y-64320000D02*
G75*
G02*
X143784830Y-69870000I462J-2990000D01*
G01*
X142240462Y-64320000D02*
G75*
G03*
X140695170Y-69870000I-462J-2990000D01*
G01*
%TO.C,D15*%
X137120000Y-67310000D02*
G75*
G03*
X137120000Y-67310000I-2500000J0D01*
G01*
X133075000Y-69870000D02*
X136165000Y-69870000D01*
X134619538Y-64320000D02*
G75*
G02*
X136164830Y-69870000I462J-2990000D01*
G01*
X134620462Y-64320000D02*
G75*
G03*
X133075170Y-69870000I-462J-2990000D01*
G01*
%TO.C,D14*%
X129500000Y-67310000D02*
G75*
G03*
X129500000Y-67310000I-2500000J0D01*
G01*
X125455000Y-69870000D02*
X128545000Y-69870000D01*
X126999538Y-64320000D02*
G75*
G02*
X128544830Y-69870000I462J-2990000D01*
G01*
X127000462Y-64320000D02*
G75*
G03*
X125455170Y-69870000I-462J-2990000D01*
G01*
%TO.C,D13*%
X121880000Y-67310000D02*
G75*
G03*
X121880000Y-67310000I-2500000J0D01*
G01*
X117835000Y-69870000D02*
X120925000Y-69870000D01*
X119379538Y-64320000D02*
G75*
G02*
X120924830Y-69870000I462J-2990000D01*
G01*
X119380462Y-64320000D02*
G75*
G03*
X117835170Y-69870000I-462J-2990000D01*
G01*
%TO.C,D12*%
X114260000Y-67310000D02*
G75*
G03*
X114260000Y-67310000I-2500000J0D01*
G01*
X110215000Y-69870000D02*
X113305000Y-69870000D01*
X111759538Y-64320000D02*
G75*
G02*
X113304830Y-69870000I462J-2990000D01*
G01*
X111760462Y-64320000D02*
G75*
G03*
X110215170Y-69870000I-462J-2990000D01*
G01*
%TO.C,D11*%
X106640000Y-67310000D02*
G75*
G03*
X106640000Y-67310000I-2500000J0D01*
G01*
X102595000Y-69870000D02*
X105685000Y-69870000D01*
X104139538Y-64320000D02*
G75*
G02*
X105684830Y-69870000I462J-2990000D01*
G01*
X104140462Y-64320000D02*
G75*
G03*
X102595170Y-69870000I-462J-2990000D01*
G01*
%TO.C,D10*%
X99020000Y-67310000D02*
G75*
G03*
X99020000Y-67310000I-2500000J0D01*
G01*
X94975000Y-69870000D02*
X98065000Y-69870000D01*
X96519538Y-64320000D02*
G75*
G02*
X98064830Y-69870000I462J-2990000D01*
G01*
X96520462Y-64320000D02*
G75*
G03*
X94975170Y-69870000I-462J-2990000D01*
G01*
%TO.C,D9*%
X91400000Y-67310000D02*
G75*
G03*
X91400000Y-67310000I-2500000J0D01*
G01*
X87355000Y-69870000D02*
X90445000Y-69870000D01*
X88899538Y-64320000D02*
G75*
G02*
X90444830Y-69870000I462J-2990000D01*
G01*
X88900462Y-64320000D02*
G75*
G03*
X87355170Y-69870000I-462J-2990000D01*
G01*
%TO.C,D8*%
X86320000Y-33020000D02*
G75*
G03*
X86320000Y-33020000I-2500000J0D01*
G01*
X82275000Y-35580000D02*
X85365000Y-35580000D01*
X83819538Y-30030000D02*
G75*
G02*
X85364830Y-35580000I462J-2990000D01*
G01*
X83820462Y-30030000D02*
G75*
G03*
X82275170Y-35580000I-462J-2990000D01*
G01*
%TO.C,D7*%
X78700000Y-33020000D02*
G75*
G03*
X78700000Y-33020000I-2500000J0D01*
G01*
X74655000Y-35580000D02*
X77745000Y-35580000D01*
X76199538Y-30030000D02*
G75*
G02*
X77744830Y-35580000I462J-2990000D01*
G01*
X76200462Y-30030000D02*
G75*
G03*
X74655170Y-35580000I-462J-2990000D01*
G01*
%TO.C,D6*%
X71080000Y-33020000D02*
G75*
G03*
X71080000Y-33020000I-2500000J0D01*
G01*
X67035000Y-35580000D02*
X70125000Y-35580000D01*
X68579538Y-30030000D02*
G75*
G02*
X70124830Y-35580000I462J-2990000D01*
G01*
X68580462Y-30030000D02*
G75*
G03*
X67035170Y-35580000I-462J-2990000D01*
G01*
%TO.C,D5*%
X63460000Y-33020000D02*
G75*
G03*
X63460000Y-33020000I-2500000J0D01*
G01*
X59415000Y-35580000D02*
X62505000Y-35580000D01*
X60959538Y-30030000D02*
G75*
G02*
X62504830Y-35580000I462J-2990000D01*
G01*
X60960462Y-30030000D02*
G75*
G03*
X59415170Y-35580000I-462J-2990000D01*
G01*
%TO.C,D4*%
X55840000Y-33020000D02*
G75*
G03*
X55840000Y-33020000I-2500000J0D01*
G01*
X51795000Y-35580000D02*
X54885000Y-35580000D01*
X53339538Y-30030000D02*
G75*
G02*
X54884830Y-35580000I462J-2990000D01*
G01*
X53340462Y-30030000D02*
G75*
G03*
X51795170Y-35580000I-462J-2990000D01*
G01*
%TO.C,D3*%
X48220000Y-33020000D02*
G75*
G03*
X48220000Y-33020000I-2500000J0D01*
G01*
X44175000Y-35580000D02*
X47265000Y-35580000D01*
X45719538Y-30030000D02*
G75*
G02*
X47264830Y-35580000I462J-2990000D01*
G01*
X45720462Y-30030000D02*
G75*
G03*
X44175170Y-35580000I-462J-2990000D01*
G01*
%TO.C,D2*%
X40600000Y-33020000D02*
G75*
G03*
X40600000Y-33020000I-2500000J0D01*
G01*
X36555000Y-35580000D02*
X39645000Y-35580000D01*
X38099538Y-30030000D02*
G75*
G02*
X39644830Y-35580000I462J-2990000D01*
G01*
X38100462Y-30030000D02*
G75*
G03*
X36555170Y-35580000I-462J-2990000D01*
G01*
%TO.C,D1*%
X32980000Y-33020000D02*
G75*
G03*
X32980000Y-33020000I-2500000J0D01*
G01*
X28935000Y-35580000D02*
X32025000Y-35580000D01*
X30479538Y-30030000D02*
G75*
G02*
X32024830Y-35580000I462J-2990000D01*
G01*
X30480462Y-30030000D02*
G75*
G03*
X28935170Y-35580000I-462J-2990000D01*
G01*
%TO.C,C4*%
X22710000Y-50430000D02*
X22710000Y-53670000D01*
X20470000Y-50430000D02*
X20470000Y-53670000D01*
X22710000Y-50430000D02*
X22645000Y-50430000D01*
X20535000Y-50430000D02*
X20470000Y-50430000D01*
X22710000Y-53670000D02*
X22645000Y-53670000D01*
X20535000Y-53670000D02*
X20470000Y-53670000D01*
%TO.C,C3*%
X92560000Y-14870000D02*
X92560000Y-18110000D01*
X90320000Y-14870000D02*
X90320000Y-18110000D01*
X92560000Y-14870000D02*
X92495000Y-14870000D01*
X90385000Y-14870000D02*
X90320000Y-14870000D01*
X92560000Y-18110000D02*
X92495000Y-18110000D01*
X90385000Y-18110000D02*
X90320000Y-18110000D01*
%TO.C,C2*%
X58270000Y-13600000D02*
X58270000Y-16840000D01*
X56030000Y-13600000D02*
X56030000Y-16840000D01*
X58270000Y-13600000D02*
X58205000Y-13600000D01*
X56095000Y-13600000D02*
X56030000Y-13600000D01*
X58270000Y-16840000D02*
X58205000Y-16840000D01*
X56095000Y-16840000D02*
X56030000Y-16840000D01*
%TO.C,C1*%
X29060000Y-13600000D02*
X29060000Y-16840000D01*
X26820000Y-13600000D02*
X26820000Y-16840000D01*
X29060000Y-13600000D02*
X28995000Y-13600000D01*
X26885000Y-13600000D02*
X26820000Y-13600000D01*
X29060000Y-16840000D02*
X28995000Y-16840000D01*
X26885000Y-16840000D02*
X26820000Y-16840000D01*
%TO.C,J10*%
D11*
X131322380Y-97329523D02*
X132036666Y-97329523D01*
X132179523Y-97377142D01*
X132274761Y-97472380D01*
X132322380Y-97615238D01*
X132322380Y-97710476D01*
X132322380Y-96329523D02*
X132322380Y-96900952D01*
X132322380Y-96615238D02*
X131322380Y-96615238D01*
X131465238Y-96710476D01*
X131560476Y-96805714D01*
X131608095Y-96900952D01*
X131322380Y-95710476D02*
X131322380Y-95615238D01*
X131370000Y-95520000D01*
X131417619Y-95472380D01*
X131512857Y-95424761D01*
X131703333Y-95377142D01*
X131941428Y-95377142D01*
X132131904Y-95424761D01*
X132227142Y-95472380D01*
X132274761Y-95520000D01*
X132322380Y-95615238D01*
X132322380Y-95710476D01*
X132274761Y-95805714D01*
X132227142Y-95853333D01*
X132131904Y-95900952D01*
X131941428Y-95948571D01*
X131703333Y-95948571D01*
X131512857Y-95900952D01*
X131417619Y-95853333D01*
X131370000Y-95805714D01*
X131322380Y-95710476D01*
%TO.C,REF4*%
X2762380Y-562380D02*
X2429047Y-86190D01*
X2190952Y-562380D02*
X2190952Y437619D01*
X2571904Y437619D01*
X2667142Y390000D01*
X2714761Y342380D01*
X2762380Y247142D01*
X2762380Y104285D01*
X2714761Y9047D01*
X2667142Y-38571D01*
X2571904Y-86190D01*
X2190952Y-86190D01*
X3190952Y-38571D02*
X3524285Y-38571D01*
X3667142Y-562380D02*
X3190952Y-562380D01*
X3190952Y437619D01*
X3667142Y437619D01*
X4429047Y-38571D02*
X4095714Y-38571D01*
X4095714Y-562380D02*
X4095714Y437619D01*
X4571904Y437619D01*
X5381428Y104285D02*
X5381428Y-562380D01*
X5143333Y485238D02*
X4905238Y-229047D01*
X5524285Y-229047D01*
%TO.C,REF3*%
X2762380Y-92002380D02*
X2429047Y-91526190D01*
X2190952Y-92002380D02*
X2190952Y-91002380D01*
X2571904Y-91002380D01*
X2667142Y-91050000D01*
X2714761Y-91097619D01*
X2762380Y-91192857D01*
X2762380Y-91335714D01*
X2714761Y-91430952D01*
X2667142Y-91478571D01*
X2571904Y-91526190D01*
X2190952Y-91526190D01*
X3190952Y-91478571D02*
X3524285Y-91478571D01*
X3667142Y-92002380D02*
X3190952Y-92002380D01*
X3190952Y-91002380D01*
X3667142Y-91002380D01*
X4429047Y-91478571D02*
X4095714Y-91478571D01*
X4095714Y-92002380D02*
X4095714Y-91002380D01*
X4571904Y-91002380D01*
X4857619Y-91002380D02*
X5476666Y-91002380D01*
X5143333Y-91383333D01*
X5286190Y-91383333D01*
X5381428Y-91430952D01*
X5429047Y-91478571D01*
X5476666Y-91573809D01*
X5476666Y-91811904D01*
X5429047Y-91907142D01*
X5381428Y-91954761D01*
X5286190Y-92002380D01*
X5000476Y-92002380D01*
X4905238Y-91954761D01*
X4857619Y-91907142D01*
%TO.C,REF2*%
X145002380Y-90732380D02*
X144669047Y-90256190D01*
X144430952Y-90732380D02*
X144430952Y-89732380D01*
X144811904Y-89732380D01*
X144907142Y-89780000D01*
X144954761Y-89827619D01*
X145002380Y-89922857D01*
X145002380Y-90065714D01*
X144954761Y-90160952D01*
X144907142Y-90208571D01*
X144811904Y-90256190D01*
X144430952Y-90256190D01*
X145430952Y-90208571D02*
X145764285Y-90208571D01*
X145907142Y-90732380D02*
X145430952Y-90732380D01*
X145430952Y-89732380D01*
X145907142Y-89732380D01*
X146669047Y-90208571D02*
X146335714Y-90208571D01*
X146335714Y-90732380D02*
X146335714Y-89732380D01*
X146811904Y-89732380D01*
X147145238Y-89827619D02*
X147192857Y-89780000D01*
X147288095Y-89732380D01*
X147526190Y-89732380D01*
X147621428Y-89780000D01*
X147669047Y-89827619D01*
X147716666Y-89922857D01*
X147716666Y-90018095D01*
X147669047Y-90160952D01*
X147097619Y-90732380D01*
X147716666Y-90732380D01*
%TO.C,REF1*%
X145002380Y-562380D02*
X144669047Y-86190D01*
X144430952Y-562380D02*
X144430952Y437619D01*
X144811904Y437619D01*
X144907142Y390000D01*
X144954761Y342380D01*
X145002380Y247142D01*
X145002380Y104285D01*
X144954761Y9047D01*
X144907142Y-38571D01*
X144811904Y-86190D01*
X144430952Y-86190D01*
X145430952Y-38571D02*
X145764285Y-38571D01*
X145907142Y-562380D02*
X145430952Y-562380D01*
X145430952Y437619D01*
X145907142Y437619D01*
X146669047Y-38571D02*
X146335714Y-38571D01*
X146335714Y-562380D02*
X146335714Y437619D01*
X146811904Y437619D01*
X147716666Y-562380D02*
X147145238Y-562380D01*
X147430952Y-562380D02*
X147430952Y437619D01*
X147335714Y294761D01*
X147240476Y199523D01*
X147145238Y151904D01*
%TO.C,U2*%
X58082380Y-19811904D02*
X58891904Y-19811904D01*
X58987142Y-19764285D01*
X59034761Y-19716666D01*
X59082380Y-19621428D01*
X59082380Y-19430952D01*
X59034761Y-19335714D01*
X58987142Y-19288095D01*
X58891904Y-19240476D01*
X58082380Y-19240476D01*
X58177619Y-18811904D02*
X58130000Y-18764285D01*
X58082380Y-18669047D01*
X58082380Y-18430952D01*
X58130000Y-18335714D01*
X58177619Y-18288095D01*
X58272857Y-18240476D01*
X58368095Y-18240476D01*
X58510952Y-18288095D01*
X59082380Y-18859523D01*
X59082380Y-18240476D01*
%TO.C,U1*%
X28872380Y-19811904D02*
X29681904Y-19811904D01*
X29777142Y-19764285D01*
X29824761Y-19716666D01*
X29872380Y-19621428D01*
X29872380Y-19430952D01*
X29824761Y-19335714D01*
X29777142Y-19288095D01*
X29681904Y-19240476D01*
X28872380Y-19240476D01*
X29872380Y-18240476D02*
X29872380Y-18811904D01*
X29872380Y-18526190D02*
X28872380Y-18526190D01*
X29015238Y-18621428D01*
X29110476Y-18716666D01*
X29158095Y-18811904D01*
%TO.C,J9*%
X66552380Y-4143333D02*
X67266666Y-4143333D01*
X67409523Y-4190952D01*
X67504761Y-4286190D01*
X67552380Y-4429047D01*
X67552380Y-4524285D01*
X67552380Y-3619523D02*
X67552380Y-3429047D01*
X67504761Y-3333809D01*
X67457142Y-3286190D01*
X67314285Y-3190952D01*
X67123809Y-3143333D01*
X66742857Y-3143333D01*
X66647619Y-3190952D01*
X66600000Y-3238571D01*
X66552380Y-3333809D01*
X66552380Y-3524285D01*
X66600000Y-3619523D01*
X66647619Y-3667142D01*
X66742857Y-3714761D01*
X66980952Y-3714761D01*
X67076190Y-3667142D01*
X67123809Y-3619523D01*
X67171428Y-3524285D01*
X67171428Y-3333809D01*
X67123809Y-3238571D01*
X67076190Y-3190952D01*
X66980952Y-3143333D01*
%TO.C,U4*%
X22522380Y-54101904D02*
X23331904Y-54101904D01*
X23427142Y-54054285D01*
X23474761Y-54006666D01*
X23522380Y-53911428D01*
X23522380Y-53720952D01*
X23474761Y-53625714D01*
X23427142Y-53578095D01*
X23331904Y-53530476D01*
X22522380Y-53530476D01*
X22855714Y-52625714D02*
X23522380Y-52625714D01*
X22474761Y-52863809D02*
X23189047Y-53101904D01*
X23189047Y-52482857D01*
%TO.C,U3*%
X92372380Y-18541904D02*
X93181904Y-18541904D01*
X93277142Y-18494285D01*
X93324761Y-18446666D01*
X93372380Y-18351428D01*
X93372380Y-18160952D01*
X93324761Y-18065714D01*
X93277142Y-18018095D01*
X93181904Y-17970476D01*
X92372380Y-17970476D01*
X92372380Y-17589523D02*
X92372380Y-16970476D01*
X92753333Y-17303809D01*
X92753333Y-17160952D01*
X92800952Y-17065714D01*
X92848571Y-17018095D01*
X92943809Y-16970476D01*
X93181904Y-16970476D01*
X93277142Y-17018095D01*
X93324761Y-17065714D01*
X93372380Y-17160952D01*
X93372380Y-17446666D01*
X93324761Y-17541904D01*
X93277142Y-17589523D01*
%TO.C,RV1*%
X62802380Y-57820238D02*
X62326190Y-58153571D01*
X62802380Y-58391666D02*
X61802380Y-58391666D01*
X61802380Y-58010714D01*
X61850000Y-57915476D01*
X61897619Y-57867857D01*
X61992857Y-57820238D01*
X62135714Y-57820238D01*
X62230952Y-57867857D01*
X62278571Y-57915476D01*
X62326190Y-58010714D01*
X62326190Y-58391666D01*
X61802380Y-57534523D02*
X62802380Y-57201190D01*
X61802380Y-56867857D01*
X62802380Y-56010714D02*
X62802380Y-56582142D01*
X62802380Y-56296428D02*
X61802380Y-56296428D01*
X61945238Y-56391666D01*
X62040476Y-56486904D01*
X62088095Y-56582142D01*
%TO.C,RN2*%
X117419523Y-74252380D02*
X117086190Y-73776190D01*
X116848095Y-74252380D02*
X116848095Y-73252380D01*
X117229047Y-73252380D01*
X117324285Y-73300000D01*
X117371904Y-73347619D01*
X117419523Y-73442857D01*
X117419523Y-73585714D01*
X117371904Y-73680952D01*
X117324285Y-73728571D01*
X117229047Y-73776190D01*
X116848095Y-73776190D01*
X117848095Y-74252380D02*
X117848095Y-73252380D01*
X118419523Y-74252380D01*
X118419523Y-73252380D01*
X118848095Y-73347619D02*
X118895714Y-73300000D01*
X118990952Y-73252380D01*
X119229047Y-73252380D01*
X119324285Y-73300000D01*
X119371904Y-73347619D01*
X119419523Y-73442857D01*
X119419523Y-73538095D01*
X119371904Y-73680952D01*
X118800476Y-74252380D01*
X119419523Y-74252380D01*
%TO.C,RN1*%
X60269523Y-38692380D02*
X59936190Y-38216190D01*
X59698095Y-38692380D02*
X59698095Y-37692380D01*
X60079047Y-37692380D01*
X60174285Y-37740000D01*
X60221904Y-37787619D01*
X60269523Y-37882857D01*
X60269523Y-38025714D01*
X60221904Y-38120952D01*
X60174285Y-38168571D01*
X60079047Y-38216190D01*
X59698095Y-38216190D01*
X60698095Y-38692380D02*
X60698095Y-37692380D01*
X61269523Y-38692380D01*
X61269523Y-37692380D01*
X62269523Y-38692380D02*
X61698095Y-38692380D01*
X61983809Y-38692380D02*
X61983809Y-37692380D01*
X61888571Y-37835238D01*
X61793333Y-37930476D01*
X61698095Y-37978095D01*
%TO.C,R5*%
X6183333Y-55682380D02*
X5850000Y-55206190D01*
X5611904Y-55682380D02*
X5611904Y-54682380D01*
X5992857Y-54682380D01*
X6088095Y-54730000D01*
X6135714Y-54777619D01*
X6183333Y-54872857D01*
X6183333Y-55015714D01*
X6135714Y-55110952D01*
X6088095Y-55158571D01*
X5992857Y-55206190D01*
X5611904Y-55206190D01*
X7088095Y-54682380D02*
X6611904Y-54682380D01*
X6564285Y-55158571D01*
X6611904Y-55110952D01*
X6707142Y-55063333D01*
X6945238Y-55063333D01*
X7040476Y-55110952D01*
X7088095Y-55158571D01*
X7135714Y-55253809D01*
X7135714Y-55491904D01*
X7088095Y-55587142D01*
X7040476Y-55634761D01*
X6945238Y-55682380D01*
X6707142Y-55682380D01*
X6611904Y-55634761D01*
X6564285Y-55587142D01*
%TO.C,R4*%
X130643333Y-49332380D02*
X130310000Y-48856190D01*
X130071904Y-49332380D02*
X130071904Y-48332380D01*
X130452857Y-48332380D01*
X130548095Y-48380000D01*
X130595714Y-48427619D01*
X130643333Y-48522857D01*
X130643333Y-48665714D01*
X130595714Y-48760952D01*
X130548095Y-48808571D01*
X130452857Y-48856190D01*
X130071904Y-48856190D01*
X131500476Y-48665714D02*
X131500476Y-49332380D01*
X131262380Y-48284761D02*
X131024285Y-48999047D01*
X131643333Y-48999047D01*
%TO.C,R3*%
X123023333Y-49332380D02*
X122690000Y-48856190D01*
X122451904Y-49332380D02*
X122451904Y-48332380D01*
X122832857Y-48332380D01*
X122928095Y-48380000D01*
X122975714Y-48427619D01*
X123023333Y-48522857D01*
X123023333Y-48665714D01*
X122975714Y-48760952D01*
X122928095Y-48808571D01*
X122832857Y-48856190D01*
X122451904Y-48856190D01*
X123356666Y-48332380D02*
X123975714Y-48332380D01*
X123642380Y-48713333D01*
X123785238Y-48713333D01*
X123880476Y-48760952D01*
X123928095Y-48808571D01*
X123975714Y-48903809D01*
X123975714Y-49141904D01*
X123928095Y-49237142D01*
X123880476Y-49284761D01*
X123785238Y-49332380D01*
X123499523Y-49332380D01*
X123404285Y-49284761D01*
X123356666Y-49237142D01*
%TO.C,R2*%
X102703333Y-49332380D02*
X102370000Y-48856190D01*
X102131904Y-49332380D02*
X102131904Y-48332380D01*
X102512857Y-48332380D01*
X102608095Y-48380000D01*
X102655714Y-48427619D01*
X102703333Y-48522857D01*
X102703333Y-48665714D01*
X102655714Y-48760952D01*
X102608095Y-48808571D01*
X102512857Y-48856190D01*
X102131904Y-48856190D01*
X103084285Y-48427619D02*
X103131904Y-48380000D01*
X103227142Y-48332380D01*
X103465238Y-48332380D01*
X103560476Y-48380000D01*
X103608095Y-48427619D01*
X103655714Y-48522857D01*
X103655714Y-48618095D01*
X103608095Y-48760952D01*
X103036666Y-49332380D01*
X103655714Y-49332380D01*
%TO.C,R1*%
X95083333Y-49332380D02*
X94750000Y-48856190D01*
X94511904Y-49332380D02*
X94511904Y-48332380D01*
X94892857Y-48332380D01*
X94988095Y-48380000D01*
X95035714Y-48427619D01*
X95083333Y-48522857D01*
X95083333Y-48665714D01*
X95035714Y-48760952D01*
X94988095Y-48808571D01*
X94892857Y-48856190D01*
X94511904Y-48856190D01*
X96035714Y-49332380D02*
X95464285Y-49332380D01*
X95750000Y-49332380D02*
X95750000Y-48332380D01*
X95654761Y-48475238D01*
X95559523Y-48570476D01*
X95464285Y-48618095D01*
%TO.C,J8*%
X7286666Y-18712380D02*
X7286666Y-19426666D01*
X7239047Y-19569523D01*
X7143809Y-19664761D01*
X7000952Y-19712380D01*
X6905714Y-19712380D01*
X7905714Y-19140952D02*
X7810476Y-19093333D01*
X7762857Y-19045714D01*
X7715238Y-18950476D01*
X7715238Y-18902857D01*
X7762857Y-18807619D01*
X7810476Y-18760000D01*
X7905714Y-18712380D01*
X8096190Y-18712380D01*
X8191428Y-18760000D01*
X8239047Y-18807619D01*
X8286666Y-18902857D01*
X8286666Y-18950476D01*
X8239047Y-19045714D01*
X8191428Y-19093333D01*
X8096190Y-19140952D01*
X7905714Y-19140952D01*
X7810476Y-19188571D01*
X7762857Y-19236190D01*
X7715238Y-19331428D01*
X7715238Y-19521904D01*
X7762857Y-19617142D01*
X7810476Y-19664761D01*
X7905714Y-19712380D01*
X8096190Y-19712380D01*
X8191428Y-19664761D01*
X8239047Y-19617142D01*
X8286666Y-19521904D01*
X8286666Y-19331428D01*
X8239047Y-19236190D01*
X8191428Y-19188571D01*
X8096190Y-19140952D01*
%TO.C,J7*%
X145716666Y-37762380D02*
X145716666Y-38476666D01*
X145669047Y-38619523D01*
X145573809Y-38714761D01*
X145430952Y-38762380D01*
X145335714Y-38762380D01*
X146097619Y-37762380D02*
X146764285Y-37762380D01*
X146335714Y-38762380D01*
%TO.C,J6*%
X2202380Y-73993333D02*
X2916666Y-73993333D01*
X3059523Y-74040952D01*
X3154761Y-74136190D01*
X3202380Y-74279047D01*
X3202380Y-74374285D01*
X2202380Y-73088571D02*
X2202380Y-73279047D01*
X2250000Y-73374285D01*
X2297619Y-73421904D01*
X2440476Y-73517142D01*
X2630952Y-73564761D01*
X3011904Y-73564761D01*
X3107142Y-73517142D01*
X3154761Y-73469523D01*
X3202380Y-73374285D01*
X3202380Y-73183809D01*
X3154761Y-73088571D01*
X3107142Y-73040952D01*
X3011904Y-72993333D01*
X2773809Y-72993333D01*
X2678571Y-73040952D01*
X2630952Y-73088571D01*
X2583333Y-73183809D01*
X2583333Y-73374285D01*
X2630952Y-73469523D01*
X2678571Y-73517142D01*
X2773809Y-73564761D01*
%TO.C,J5*%
X131322380Y-87963333D02*
X132036666Y-87963333D01*
X132179523Y-88010952D01*
X132274761Y-88106190D01*
X132322380Y-88249047D01*
X132322380Y-88344285D01*
X131322380Y-87010952D02*
X131322380Y-87487142D01*
X131798571Y-87534761D01*
X131750952Y-87487142D01*
X131703333Y-87391904D01*
X131703333Y-87153809D01*
X131750952Y-87058571D01*
X131798571Y-87010952D01*
X131893809Y-86963333D01*
X132131904Y-86963333D01*
X132227142Y-87010952D01*
X132274761Y-87058571D01*
X132322380Y-87153809D01*
X132322380Y-87391904D01*
X132274761Y-87487142D01*
X132227142Y-87534761D01*
%TO.C,J4*%
X135556666Y-7282380D02*
X135556666Y-7996666D01*
X135509047Y-8139523D01*
X135413809Y-8234761D01*
X135270952Y-8282380D01*
X135175714Y-8282380D01*
X136461428Y-7615714D02*
X136461428Y-8282380D01*
X136223333Y-7234761D02*
X135985238Y-7949047D01*
X136604285Y-7949047D01*
%TO.C,J3*%
X144446666Y-7282380D02*
X144446666Y-7996666D01*
X144399047Y-8139523D01*
X144303809Y-8234761D01*
X144160952Y-8282380D01*
X144065714Y-8282380D01*
X144827619Y-7282380D02*
X145446666Y-7282380D01*
X145113333Y-7663333D01*
X145256190Y-7663333D01*
X145351428Y-7710952D01*
X145399047Y-7758571D01*
X145446666Y-7853809D01*
X145446666Y-8091904D01*
X145399047Y-8187142D01*
X145351428Y-8234761D01*
X145256190Y-8282380D01*
X144970476Y-8282380D01*
X144875238Y-8234761D01*
X144827619Y-8187142D01*
%TO.C,J2*%
X18716666Y337619D02*
X18716666Y-376666D01*
X18669047Y-519523D01*
X18573809Y-614761D01*
X18430952Y-662380D01*
X18335714Y-662380D01*
X19145238Y242380D02*
X19192857Y290000D01*
X19288095Y337619D01*
X19526190Y337619D01*
X19621428Y290000D01*
X19669047Y242380D01*
X19716666Y147142D01*
X19716666Y51904D01*
X19669047Y-90952D01*
X19097619Y-662380D01*
X19716666Y-662380D01*
%TO.C,J1*%
X11096666Y337619D02*
X11096666Y-376666D01*
X11049047Y-519523D01*
X10953809Y-614761D01*
X10810952Y-662380D01*
X10715714Y-662380D01*
X12096666Y-662380D02*
X11525238Y-662380D01*
X11810952Y-662380D02*
X11810952Y337619D01*
X11715714Y194761D01*
X11620476Y99523D01*
X11525238Y51904D01*
%TO.C,D21*%
X2842380Y-52014285D02*
X1842380Y-52014285D01*
X1842380Y-51776190D01*
X1890000Y-51633333D01*
X1985238Y-51538095D01*
X2080476Y-51490476D01*
X2270952Y-51442857D01*
X2413809Y-51442857D01*
X2604285Y-51490476D01*
X2699523Y-51538095D01*
X2794761Y-51633333D01*
X2842380Y-51776190D01*
X2842380Y-52014285D01*
X1937619Y-51061904D02*
X1890000Y-51014285D01*
X1842380Y-50919047D01*
X1842380Y-50680952D01*
X1890000Y-50585714D01*
X1937619Y-50538095D01*
X2032857Y-50490476D01*
X2128095Y-50490476D01*
X2270952Y-50538095D01*
X2842380Y-51109523D01*
X2842380Y-50490476D01*
X2842380Y-49538095D02*
X2842380Y-50109523D01*
X2842380Y-49823809D02*
X1842380Y-49823809D01*
X1985238Y-49919047D01*
X2080476Y-50014285D01*
X2128095Y-50109523D01*
%TO.C,D20*%
X127302380Y-46934285D02*
X126302380Y-46934285D01*
X126302380Y-46696190D01*
X126350000Y-46553333D01*
X126445238Y-46458095D01*
X126540476Y-46410476D01*
X126730952Y-46362857D01*
X126873809Y-46362857D01*
X127064285Y-46410476D01*
X127159523Y-46458095D01*
X127254761Y-46553333D01*
X127302380Y-46696190D01*
X127302380Y-46934285D01*
X126397619Y-45981904D02*
X126350000Y-45934285D01*
X126302380Y-45839047D01*
X126302380Y-45600952D01*
X126350000Y-45505714D01*
X126397619Y-45458095D01*
X126492857Y-45410476D01*
X126588095Y-45410476D01*
X126730952Y-45458095D01*
X127302380Y-46029523D01*
X127302380Y-45410476D01*
X126302380Y-44791428D02*
X126302380Y-44696190D01*
X126350000Y-44600952D01*
X126397619Y-44553333D01*
X126492857Y-44505714D01*
X126683333Y-44458095D01*
X126921428Y-44458095D01*
X127111904Y-44505714D01*
X127207142Y-44553333D01*
X127254761Y-44600952D01*
X127302380Y-44696190D01*
X127302380Y-44791428D01*
X127254761Y-44886666D01*
X127207142Y-44934285D01*
X127111904Y-44981904D01*
X126921428Y-45029523D01*
X126683333Y-45029523D01*
X126492857Y-44981904D01*
X126397619Y-44934285D01*
X126350000Y-44886666D01*
X126302380Y-44791428D01*
%TO.C,D19*%
X119682380Y-46934285D02*
X118682380Y-46934285D01*
X118682380Y-46696190D01*
X118730000Y-46553333D01*
X118825238Y-46458095D01*
X118920476Y-46410476D01*
X119110952Y-46362857D01*
X119253809Y-46362857D01*
X119444285Y-46410476D01*
X119539523Y-46458095D01*
X119634761Y-46553333D01*
X119682380Y-46696190D01*
X119682380Y-46934285D01*
X119682380Y-45410476D02*
X119682380Y-45981904D01*
X119682380Y-45696190D02*
X118682380Y-45696190D01*
X118825238Y-45791428D01*
X118920476Y-45886666D01*
X118968095Y-45981904D01*
X119682380Y-44934285D02*
X119682380Y-44743809D01*
X119634761Y-44648571D01*
X119587142Y-44600952D01*
X119444285Y-44505714D01*
X119253809Y-44458095D01*
X118872857Y-44458095D01*
X118777619Y-44505714D01*
X118730000Y-44553333D01*
X118682380Y-44648571D01*
X118682380Y-44839047D01*
X118730000Y-44934285D01*
X118777619Y-44981904D01*
X118872857Y-45029523D01*
X119110952Y-45029523D01*
X119206190Y-44981904D01*
X119253809Y-44934285D01*
X119301428Y-44839047D01*
X119301428Y-44648571D01*
X119253809Y-44553333D01*
X119206190Y-44505714D01*
X119110952Y-44458095D01*
%TO.C,D18*%
X99362380Y-46934285D02*
X98362380Y-46934285D01*
X98362380Y-46696190D01*
X98410000Y-46553333D01*
X98505238Y-46458095D01*
X98600476Y-46410476D01*
X98790952Y-46362857D01*
X98933809Y-46362857D01*
X99124285Y-46410476D01*
X99219523Y-46458095D01*
X99314761Y-46553333D01*
X99362380Y-46696190D01*
X99362380Y-46934285D01*
X99362380Y-45410476D02*
X99362380Y-45981904D01*
X99362380Y-45696190D02*
X98362380Y-45696190D01*
X98505238Y-45791428D01*
X98600476Y-45886666D01*
X98648095Y-45981904D01*
X98790952Y-44839047D02*
X98743333Y-44934285D01*
X98695714Y-44981904D01*
X98600476Y-45029523D01*
X98552857Y-45029523D01*
X98457619Y-44981904D01*
X98410000Y-44934285D01*
X98362380Y-44839047D01*
X98362380Y-44648571D01*
X98410000Y-44553333D01*
X98457619Y-44505714D01*
X98552857Y-44458095D01*
X98600476Y-44458095D01*
X98695714Y-44505714D01*
X98743333Y-44553333D01*
X98790952Y-44648571D01*
X98790952Y-44839047D01*
X98838571Y-44934285D01*
X98886190Y-44981904D01*
X98981428Y-45029523D01*
X99171904Y-45029523D01*
X99267142Y-44981904D01*
X99314761Y-44934285D01*
X99362380Y-44839047D01*
X99362380Y-44648571D01*
X99314761Y-44553333D01*
X99267142Y-44505714D01*
X99171904Y-44458095D01*
X98981428Y-44458095D01*
X98886190Y-44505714D01*
X98838571Y-44553333D01*
X98790952Y-44648571D01*
%TO.C,D17*%
X91742380Y-46934285D02*
X90742380Y-46934285D01*
X90742380Y-46696190D01*
X90790000Y-46553333D01*
X90885238Y-46458095D01*
X90980476Y-46410476D01*
X91170952Y-46362857D01*
X91313809Y-46362857D01*
X91504285Y-46410476D01*
X91599523Y-46458095D01*
X91694761Y-46553333D01*
X91742380Y-46696190D01*
X91742380Y-46934285D01*
X91742380Y-45410476D02*
X91742380Y-45981904D01*
X91742380Y-45696190D02*
X90742380Y-45696190D01*
X90885238Y-45791428D01*
X90980476Y-45886666D01*
X91028095Y-45981904D01*
X90742380Y-45077142D02*
X90742380Y-44410476D01*
X91742380Y-44839047D01*
%TO.C,D16*%
X138732380Y-68524285D02*
X137732380Y-68524285D01*
X137732380Y-68286190D01*
X137780000Y-68143333D01*
X137875238Y-68048095D01*
X137970476Y-68000476D01*
X138160952Y-67952857D01*
X138303809Y-67952857D01*
X138494285Y-68000476D01*
X138589523Y-68048095D01*
X138684761Y-68143333D01*
X138732380Y-68286190D01*
X138732380Y-68524285D01*
X138732380Y-67000476D02*
X138732380Y-67571904D01*
X138732380Y-67286190D02*
X137732380Y-67286190D01*
X137875238Y-67381428D01*
X137970476Y-67476666D01*
X138018095Y-67571904D01*
X137732380Y-66143333D02*
X137732380Y-66333809D01*
X137780000Y-66429047D01*
X137827619Y-66476666D01*
X137970476Y-66571904D01*
X138160952Y-66619523D01*
X138541904Y-66619523D01*
X138637142Y-66571904D01*
X138684761Y-66524285D01*
X138732380Y-66429047D01*
X138732380Y-66238571D01*
X138684761Y-66143333D01*
X138637142Y-66095714D01*
X138541904Y-66048095D01*
X138303809Y-66048095D01*
X138208571Y-66095714D01*
X138160952Y-66143333D01*
X138113333Y-66238571D01*
X138113333Y-66429047D01*
X138160952Y-66524285D01*
X138208571Y-66571904D01*
X138303809Y-66619523D01*
%TO.C,D15*%
X131112380Y-68524285D02*
X130112380Y-68524285D01*
X130112380Y-68286190D01*
X130160000Y-68143333D01*
X130255238Y-68048095D01*
X130350476Y-68000476D01*
X130540952Y-67952857D01*
X130683809Y-67952857D01*
X130874285Y-68000476D01*
X130969523Y-68048095D01*
X131064761Y-68143333D01*
X131112380Y-68286190D01*
X131112380Y-68524285D01*
X131112380Y-67000476D02*
X131112380Y-67571904D01*
X131112380Y-67286190D02*
X130112380Y-67286190D01*
X130255238Y-67381428D01*
X130350476Y-67476666D01*
X130398095Y-67571904D01*
X130112380Y-66095714D02*
X130112380Y-66571904D01*
X130588571Y-66619523D01*
X130540952Y-66571904D01*
X130493333Y-66476666D01*
X130493333Y-66238571D01*
X130540952Y-66143333D01*
X130588571Y-66095714D01*
X130683809Y-66048095D01*
X130921904Y-66048095D01*
X131017142Y-66095714D01*
X131064761Y-66143333D01*
X131112380Y-66238571D01*
X131112380Y-66476666D01*
X131064761Y-66571904D01*
X131017142Y-66619523D01*
%TO.C,D14*%
X123492380Y-68524285D02*
X122492380Y-68524285D01*
X122492380Y-68286190D01*
X122540000Y-68143333D01*
X122635238Y-68048095D01*
X122730476Y-68000476D01*
X122920952Y-67952857D01*
X123063809Y-67952857D01*
X123254285Y-68000476D01*
X123349523Y-68048095D01*
X123444761Y-68143333D01*
X123492380Y-68286190D01*
X123492380Y-68524285D01*
X123492380Y-67000476D02*
X123492380Y-67571904D01*
X123492380Y-67286190D02*
X122492380Y-67286190D01*
X122635238Y-67381428D01*
X122730476Y-67476666D01*
X122778095Y-67571904D01*
X122825714Y-66143333D02*
X123492380Y-66143333D01*
X122444761Y-66381428D02*
X123159047Y-66619523D01*
X123159047Y-66000476D01*
%TO.C,D13*%
X115872380Y-68524285D02*
X114872380Y-68524285D01*
X114872380Y-68286190D01*
X114920000Y-68143333D01*
X115015238Y-68048095D01*
X115110476Y-68000476D01*
X115300952Y-67952857D01*
X115443809Y-67952857D01*
X115634285Y-68000476D01*
X115729523Y-68048095D01*
X115824761Y-68143333D01*
X115872380Y-68286190D01*
X115872380Y-68524285D01*
X115872380Y-67000476D02*
X115872380Y-67571904D01*
X115872380Y-67286190D02*
X114872380Y-67286190D01*
X115015238Y-67381428D01*
X115110476Y-67476666D01*
X115158095Y-67571904D01*
X114872380Y-66667142D02*
X114872380Y-66048095D01*
X115253333Y-66381428D01*
X115253333Y-66238571D01*
X115300952Y-66143333D01*
X115348571Y-66095714D01*
X115443809Y-66048095D01*
X115681904Y-66048095D01*
X115777142Y-66095714D01*
X115824761Y-66143333D01*
X115872380Y-66238571D01*
X115872380Y-66524285D01*
X115824761Y-66619523D01*
X115777142Y-66667142D01*
%TO.C,D12*%
X108252380Y-68524285D02*
X107252380Y-68524285D01*
X107252380Y-68286190D01*
X107300000Y-68143333D01*
X107395238Y-68048095D01*
X107490476Y-68000476D01*
X107680952Y-67952857D01*
X107823809Y-67952857D01*
X108014285Y-68000476D01*
X108109523Y-68048095D01*
X108204761Y-68143333D01*
X108252380Y-68286190D01*
X108252380Y-68524285D01*
X108252380Y-67000476D02*
X108252380Y-67571904D01*
X108252380Y-67286190D02*
X107252380Y-67286190D01*
X107395238Y-67381428D01*
X107490476Y-67476666D01*
X107538095Y-67571904D01*
X107347619Y-66619523D02*
X107300000Y-66571904D01*
X107252380Y-66476666D01*
X107252380Y-66238571D01*
X107300000Y-66143333D01*
X107347619Y-66095714D01*
X107442857Y-66048095D01*
X107538095Y-66048095D01*
X107680952Y-66095714D01*
X108252380Y-66667142D01*
X108252380Y-66048095D01*
%TO.C,D11*%
X100632380Y-68524285D02*
X99632380Y-68524285D01*
X99632380Y-68286190D01*
X99680000Y-68143333D01*
X99775238Y-68048095D01*
X99870476Y-68000476D01*
X100060952Y-67952857D01*
X100203809Y-67952857D01*
X100394285Y-68000476D01*
X100489523Y-68048095D01*
X100584761Y-68143333D01*
X100632380Y-68286190D01*
X100632380Y-68524285D01*
X100632380Y-67000476D02*
X100632380Y-67571904D01*
X100632380Y-67286190D02*
X99632380Y-67286190D01*
X99775238Y-67381428D01*
X99870476Y-67476666D01*
X99918095Y-67571904D01*
X100632380Y-66048095D02*
X100632380Y-66619523D01*
X100632380Y-66333809D02*
X99632380Y-66333809D01*
X99775238Y-66429047D01*
X99870476Y-66524285D01*
X99918095Y-66619523D01*
%TO.C,D10*%
X93012380Y-68524285D02*
X92012380Y-68524285D01*
X92012380Y-68286190D01*
X92060000Y-68143333D01*
X92155238Y-68048095D01*
X92250476Y-68000476D01*
X92440952Y-67952857D01*
X92583809Y-67952857D01*
X92774285Y-68000476D01*
X92869523Y-68048095D01*
X92964761Y-68143333D01*
X93012380Y-68286190D01*
X93012380Y-68524285D01*
X93012380Y-67000476D02*
X93012380Y-67571904D01*
X93012380Y-67286190D02*
X92012380Y-67286190D01*
X92155238Y-67381428D01*
X92250476Y-67476666D01*
X92298095Y-67571904D01*
X92012380Y-66381428D02*
X92012380Y-66286190D01*
X92060000Y-66190952D01*
X92107619Y-66143333D01*
X92202857Y-66095714D01*
X92393333Y-66048095D01*
X92631428Y-66048095D01*
X92821904Y-66095714D01*
X92917142Y-66143333D01*
X92964761Y-66190952D01*
X93012380Y-66286190D01*
X93012380Y-66381428D01*
X92964761Y-66476666D01*
X92917142Y-66524285D01*
X92821904Y-66571904D01*
X92631428Y-66619523D01*
X92393333Y-66619523D01*
X92202857Y-66571904D01*
X92107619Y-66524285D01*
X92060000Y-66476666D01*
X92012380Y-66381428D01*
%TO.C,D9*%
X85392380Y-68048095D02*
X84392380Y-68048095D01*
X84392380Y-67810000D01*
X84440000Y-67667142D01*
X84535238Y-67571904D01*
X84630476Y-67524285D01*
X84820952Y-67476666D01*
X84963809Y-67476666D01*
X85154285Y-67524285D01*
X85249523Y-67571904D01*
X85344761Y-67667142D01*
X85392380Y-67810000D01*
X85392380Y-68048095D01*
X85392380Y-67000476D02*
X85392380Y-66810000D01*
X85344761Y-66714761D01*
X85297142Y-66667142D01*
X85154285Y-66571904D01*
X84963809Y-66524285D01*
X84582857Y-66524285D01*
X84487619Y-66571904D01*
X84440000Y-66619523D01*
X84392380Y-66714761D01*
X84392380Y-66905238D01*
X84440000Y-67000476D01*
X84487619Y-67048095D01*
X84582857Y-67095714D01*
X84820952Y-67095714D01*
X84916190Y-67048095D01*
X84963809Y-67000476D01*
X85011428Y-66905238D01*
X85011428Y-66714761D01*
X84963809Y-66619523D01*
X84916190Y-66571904D01*
X84820952Y-66524285D01*
%TO.C,D8*%
X80312380Y-33758095D02*
X79312380Y-33758095D01*
X79312380Y-33520000D01*
X79360000Y-33377142D01*
X79455238Y-33281904D01*
X79550476Y-33234285D01*
X79740952Y-33186666D01*
X79883809Y-33186666D01*
X80074285Y-33234285D01*
X80169523Y-33281904D01*
X80264761Y-33377142D01*
X80312380Y-33520000D01*
X80312380Y-33758095D01*
X79740952Y-32615238D02*
X79693333Y-32710476D01*
X79645714Y-32758095D01*
X79550476Y-32805714D01*
X79502857Y-32805714D01*
X79407619Y-32758095D01*
X79360000Y-32710476D01*
X79312380Y-32615238D01*
X79312380Y-32424761D01*
X79360000Y-32329523D01*
X79407619Y-32281904D01*
X79502857Y-32234285D01*
X79550476Y-32234285D01*
X79645714Y-32281904D01*
X79693333Y-32329523D01*
X79740952Y-32424761D01*
X79740952Y-32615238D01*
X79788571Y-32710476D01*
X79836190Y-32758095D01*
X79931428Y-32805714D01*
X80121904Y-32805714D01*
X80217142Y-32758095D01*
X80264761Y-32710476D01*
X80312380Y-32615238D01*
X80312380Y-32424761D01*
X80264761Y-32329523D01*
X80217142Y-32281904D01*
X80121904Y-32234285D01*
X79931428Y-32234285D01*
X79836190Y-32281904D01*
X79788571Y-32329523D01*
X79740952Y-32424761D01*
%TO.C,D7*%
X72692380Y-33758095D02*
X71692380Y-33758095D01*
X71692380Y-33520000D01*
X71740000Y-33377142D01*
X71835238Y-33281904D01*
X71930476Y-33234285D01*
X72120952Y-33186666D01*
X72263809Y-33186666D01*
X72454285Y-33234285D01*
X72549523Y-33281904D01*
X72644761Y-33377142D01*
X72692380Y-33520000D01*
X72692380Y-33758095D01*
X71692380Y-32853333D02*
X71692380Y-32186666D01*
X72692380Y-32615238D01*
%TO.C,D6*%
X65072380Y-33758095D02*
X64072380Y-33758095D01*
X64072380Y-33520000D01*
X64120000Y-33377142D01*
X64215238Y-33281904D01*
X64310476Y-33234285D01*
X64500952Y-33186666D01*
X64643809Y-33186666D01*
X64834285Y-33234285D01*
X64929523Y-33281904D01*
X65024761Y-33377142D01*
X65072380Y-33520000D01*
X65072380Y-33758095D01*
X64072380Y-32329523D02*
X64072380Y-32520000D01*
X64120000Y-32615238D01*
X64167619Y-32662857D01*
X64310476Y-32758095D01*
X64500952Y-32805714D01*
X64881904Y-32805714D01*
X64977142Y-32758095D01*
X65024761Y-32710476D01*
X65072380Y-32615238D01*
X65072380Y-32424761D01*
X65024761Y-32329523D01*
X64977142Y-32281904D01*
X64881904Y-32234285D01*
X64643809Y-32234285D01*
X64548571Y-32281904D01*
X64500952Y-32329523D01*
X64453333Y-32424761D01*
X64453333Y-32615238D01*
X64500952Y-32710476D01*
X64548571Y-32758095D01*
X64643809Y-32805714D01*
%TO.C,D5*%
X57452380Y-33758095D02*
X56452380Y-33758095D01*
X56452380Y-33520000D01*
X56500000Y-33377142D01*
X56595238Y-33281904D01*
X56690476Y-33234285D01*
X56880952Y-33186666D01*
X57023809Y-33186666D01*
X57214285Y-33234285D01*
X57309523Y-33281904D01*
X57404761Y-33377142D01*
X57452380Y-33520000D01*
X57452380Y-33758095D01*
X56452380Y-32281904D02*
X56452380Y-32758095D01*
X56928571Y-32805714D01*
X56880952Y-32758095D01*
X56833333Y-32662857D01*
X56833333Y-32424761D01*
X56880952Y-32329523D01*
X56928571Y-32281904D01*
X57023809Y-32234285D01*
X57261904Y-32234285D01*
X57357142Y-32281904D01*
X57404761Y-32329523D01*
X57452380Y-32424761D01*
X57452380Y-32662857D01*
X57404761Y-32758095D01*
X57357142Y-32805714D01*
%TO.C,D4*%
X49832380Y-33758095D02*
X48832380Y-33758095D01*
X48832380Y-33520000D01*
X48880000Y-33377142D01*
X48975238Y-33281904D01*
X49070476Y-33234285D01*
X49260952Y-33186666D01*
X49403809Y-33186666D01*
X49594285Y-33234285D01*
X49689523Y-33281904D01*
X49784761Y-33377142D01*
X49832380Y-33520000D01*
X49832380Y-33758095D01*
X49165714Y-32329523D02*
X49832380Y-32329523D01*
X48784761Y-32567619D02*
X49499047Y-32805714D01*
X49499047Y-32186666D01*
%TO.C,D3*%
X42212380Y-33758095D02*
X41212380Y-33758095D01*
X41212380Y-33520000D01*
X41260000Y-33377142D01*
X41355238Y-33281904D01*
X41450476Y-33234285D01*
X41640952Y-33186666D01*
X41783809Y-33186666D01*
X41974285Y-33234285D01*
X42069523Y-33281904D01*
X42164761Y-33377142D01*
X42212380Y-33520000D01*
X42212380Y-33758095D01*
X41212380Y-32853333D02*
X41212380Y-32234285D01*
X41593333Y-32567619D01*
X41593333Y-32424761D01*
X41640952Y-32329523D01*
X41688571Y-32281904D01*
X41783809Y-32234285D01*
X42021904Y-32234285D01*
X42117142Y-32281904D01*
X42164761Y-32329523D01*
X42212380Y-32424761D01*
X42212380Y-32710476D01*
X42164761Y-32805714D01*
X42117142Y-32853333D01*
%TO.C,D2*%
X34592380Y-33758095D02*
X33592380Y-33758095D01*
X33592380Y-33520000D01*
X33640000Y-33377142D01*
X33735238Y-33281904D01*
X33830476Y-33234285D01*
X34020952Y-33186666D01*
X34163809Y-33186666D01*
X34354285Y-33234285D01*
X34449523Y-33281904D01*
X34544761Y-33377142D01*
X34592380Y-33520000D01*
X34592380Y-33758095D01*
X33687619Y-32805714D02*
X33640000Y-32758095D01*
X33592380Y-32662857D01*
X33592380Y-32424761D01*
X33640000Y-32329523D01*
X33687619Y-32281904D01*
X33782857Y-32234285D01*
X33878095Y-32234285D01*
X34020952Y-32281904D01*
X34592380Y-32853333D01*
X34592380Y-32234285D01*
%TO.C,D1*%
X26972380Y-33758095D02*
X25972380Y-33758095D01*
X25972380Y-33520000D01*
X26020000Y-33377142D01*
X26115238Y-33281904D01*
X26210476Y-33234285D01*
X26400952Y-33186666D01*
X26543809Y-33186666D01*
X26734285Y-33234285D01*
X26829523Y-33281904D01*
X26924761Y-33377142D01*
X26972380Y-33520000D01*
X26972380Y-33758095D01*
X26972380Y-32234285D02*
X26972380Y-32805714D01*
X26972380Y-32520000D02*
X25972380Y-32520000D01*
X26115238Y-32615238D01*
X26210476Y-32710476D01*
X26258095Y-32805714D01*
%TO.C,C4*%
X24197142Y-52216666D02*
X24244761Y-52264285D01*
X24292380Y-52407142D01*
X24292380Y-52502380D01*
X24244761Y-52645238D01*
X24149523Y-52740476D01*
X24054285Y-52788095D01*
X23863809Y-52835714D01*
X23720952Y-52835714D01*
X23530476Y-52788095D01*
X23435238Y-52740476D01*
X23340000Y-52645238D01*
X23292380Y-52502380D01*
X23292380Y-52407142D01*
X23340000Y-52264285D01*
X23387619Y-52216666D01*
X23625714Y-51359523D02*
X24292380Y-51359523D01*
X23244761Y-51597619D02*
X23959047Y-51835714D01*
X23959047Y-51216666D01*
%TO.C,C3*%
X94047142Y-16656666D02*
X94094761Y-16704285D01*
X94142380Y-16847142D01*
X94142380Y-16942380D01*
X94094761Y-17085238D01*
X93999523Y-17180476D01*
X93904285Y-17228095D01*
X93713809Y-17275714D01*
X93570952Y-17275714D01*
X93380476Y-17228095D01*
X93285238Y-17180476D01*
X93190000Y-17085238D01*
X93142380Y-16942380D01*
X93142380Y-16847142D01*
X93190000Y-16704285D01*
X93237619Y-16656666D01*
X93142380Y-16323333D02*
X93142380Y-15704285D01*
X93523333Y-16037619D01*
X93523333Y-15894761D01*
X93570952Y-15799523D01*
X93618571Y-15751904D01*
X93713809Y-15704285D01*
X93951904Y-15704285D01*
X94047142Y-15751904D01*
X94094761Y-15799523D01*
X94142380Y-15894761D01*
X94142380Y-16180476D01*
X94094761Y-16275714D01*
X94047142Y-16323333D01*
%TO.C,C2*%
X59757142Y-15386666D02*
X59804761Y-15434285D01*
X59852380Y-15577142D01*
X59852380Y-15672380D01*
X59804761Y-15815238D01*
X59709523Y-15910476D01*
X59614285Y-15958095D01*
X59423809Y-16005714D01*
X59280952Y-16005714D01*
X59090476Y-15958095D01*
X58995238Y-15910476D01*
X58900000Y-15815238D01*
X58852380Y-15672380D01*
X58852380Y-15577142D01*
X58900000Y-15434285D01*
X58947619Y-15386666D01*
X58947619Y-15005714D02*
X58900000Y-14958095D01*
X58852380Y-14862857D01*
X58852380Y-14624761D01*
X58900000Y-14529523D01*
X58947619Y-14481904D01*
X59042857Y-14434285D01*
X59138095Y-14434285D01*
X59280952Y-14481904D01*
X59852380Y-15053333D01*
X59852380Y-14434285D01*
%TO.C,C1*%
X30547142Y-15386666D02*
X30594761Y-15434285D01*
X30642380Y-15577142D01*
X30642380Y-15672380D01*
X30594761Y-15815238D01*
X30499523Y-15910476D01*
X30404285Y-15958095D01*
X30213809Y-16005714D01*
X30070952Y-16005714D01*
X29880476Y-15958095D01*
X29785238Y-15910476D01*
X29690000Y-15815238D01*
X29642380Y-15672380D01*
X29642380Y-15577142D01*
X29690000Y-15434285D01*
X29737619Y-15386666D01*
X30642380Y-14434285D02*
X30642380Y-15005714D01*
X30642380Y-14720000D02*
X29642380Y-14720000D01*
X29785238Y-14815238D01*
X29880476Y-14910476D01*
X29928095Y-15005714D01*
%TD*%
M02*
